<svg width="96" height="45" viewBox="0 0 96 45" fill="none" xmlns="http://www.w3.org/2000/svg">
<mask id="mask0_9517_3" style="mask-type:luminance" maskUnits="userSpaceOnUse" x="22" y="0" width="152" height="24">
<path d="M174 0H22.4209V24H174V0Z" fill="white"/>
</mask>
<g mask="url(#mask0_9517_3)">
<path d="M74.7791 2.43739C74.7423 2.41865 74.702 2.40779 74.6608 2.40551C74.6196 2.40323 74.5783 2.40957 74.5397 2.42413C74.501 2.43869 74.4659 2.46116 74.4364 2.49008C74.4069 2.51901 74.3838 2.55376 74.3686 2.59213C74.3686 2.59213 73.478 3.66897 72.7738 3.53949C72.0696 3.41002 69.8465 3.50792 69.0507 3.64055C68.2549 3.77318 67.3296 3.28371 67.7149 2.89528C67.7149 2.89528 67.7149 2.75634 68.4286 2.48476C68.8608 2.32633 69.2673 2.105 69.6349 1.82792C70.2348 1.53508 70.7942 1.16569 71.2991 0.728969C71.8612 0.166863 71.4633 0.0373895 71.4633 0.0373895C71.4633 0.0373895 71.1822 0.00265259 67.7749 0.706863C67.0196 0.834989 66.3387 1.23899 65.8644 1.84055C65.7065 2.03318 65.5707 2.18792 65.4507 2.31423C65.3285 2.45304 65.1955 2.58187 65.0528 2.69949C64.6033 2.85414 64.1385 2.96001 63.6665 3.01528C61.56 3.15568 59.463 3.41398 57.3854 3.78897C54.1612 4.34792 51.0096 5.25423 48.1486 6.79213C45.5938 8.16581 43.0707 8.2795 40.3896 7.63844C38.3023 7.13949 36.237 6.55213 34.1433 6.08476C31.9328 5.59213 28.9833 4.8216 26.7097 4.8216C24.436 4.8216 22.0833 6.51739 22.4623 9.67844C22.6391 11.1911 22.7528 11.1437 23.4097 13.01C25.1718 17.0521 27.6633 20.5258 30.3918 23.6837C30.6633 23.9995 31.0739 24.0248 31.8539 23.7374C31.9518 23.6269 31.2223 22.9227 31.0265 22.7363C30.814 22.5225 30.6137 22.2969 30.4265 22.0605C30.0444 21.5427 29.6844 21.0248 29.3055 20.5258C29.1665 20.3395 28.5002 19.4079 28.3581 19.19C27.9633 18.5363 27.016 16.8248 26.8707 16.5311C26.0686 14.9521 23.9497 11.1342 24.2844 8.87002C24.6412 7.13002 26.2549 6.23002 28.0739 6.54581C31.7686 7.17739 35.4001 8.10265 39.0444 8.97739C40.6517 9.36581 42.2749 9.53634 43.9044 9.79529C45.4265 10.0353 46.9012 9.65318 48.2686 9.0216C50.7024 7.88217 53.2203 6.93199 55.8001 6.1795C57.7508 5.63953 59.7429 5.26245 61.7559 5.05213C62.0528 5.01739 63.2086 4.93844 63.5338 4.85002C64.4623 4.59739 65.037 4.93528 65.4286 5.77844C65.5546 6.10097 65.7497 6.392 66.0001 6.63107C66.5086 7.07634 66.4296 7.35107 65.9528 7.80265C63.3696 10.2658 62.2612 13.4869 61.5001 16.8405C61.2475 17.9616 61.3738 19.1206 61.3075 20.3142C60.1107 19.8311 59.0433 19.2911 57.9633 18.7795C55.6044 17.6616 53.5265 15.9532 50.7412 15.729C47.9559 15.5048 45.2117 14.8258 42.4707 14.2448C41.337 13.9953 38.5265 13.2627 38.2549 13.2027C35.546 12.4313 32.8828 11.5077 30.2781 10.4363C29.878 10.2593 29.4333 10.2089 29.0038 10.2919C28.5742 10.3748 28.1803 10.5872 27.8749 10.9005C27.3444 11.4469 27.1044 12.2111 27.3223 13.3037C27.4928 14.169 27.5465 14.9742 29.4855 18.729C29.9348 19.6108 30.4633 20.45 31.0644 21.2363C31.4339 21.7163 32.6812 23.4469 32.9591 23.6048C33.8465 23.9205 33.9065 23.6427 33.9065 23.6048C33.8623 23.4121 33.698 23.289 33.5686 23.1595C31.0691 20.393 29.2941 17.0502 28.4023 13.43C28.2476 12.7984 28.197 12.1669 28.6991 11.6679C29.1002 11.2732 29.6055 11.2732 30.1076 11.3774C30.2583 11.4322 30.405 11.4976 30.5465 11.5732C37.1244 14.3427 42.8086 15.6784 49.1591 16.989C50.4507 17.2542 51.818 17.2353 52.9675 18.0784C54.117 18.9216 55.4938 19.5563 56.757 20.3174C58.2096 21.2048 59.8959 21.6753 61.178 22.8216C61.6814 23.2839 62.3159 23.5785 62.9938 23.6648C65.2959 23.9806 67.5633 23.3711 69.8591 23.3869C70.1749 23.3869 70.737 23.3205 70.6833 22.7553C70.6296 22.19 70.1086 22.2721 69.7612 22.2153C69.0096 22.089 68.2423 22.0542 67.4844 21.9627C66.057 21.7953 64.7338 21.0816 63.2717 21.11C62.817 21.11 62.7601 20.9395 62.7633 20.5574C62.754 19.006 62.9797 17.4622 63.4328 15.9784C64.0205 13.951 65.1327 12.1145 66.657 10.6542C66.8401 10.4837 67.1212 10.0858 67.4054 10.0448C67.5062 10.0976 67.5996 10.1634 67.6833 10.2405C67.8759 10.4332 68.577 10.5563 68.798 10.5279C69.0175 10.5172 69.2324 10.4622 69.43 10.3661C69.6275 10.27 69.8036 10.1349 69.9475 9.96897C70.0328 9.87785 70.094 9.76684 70.1254 9.64605C70.1568 9.52526 70.1576 9.39853 70.1275 9.27739C70.0156 8.82866 69.9772 8.36474 70.0138 7.90371C70.2019 7.15065 70.1767 6.36013 69.9412 5.62055C70.3075 5.51634 70.8191 5.39634 71.5201 5.27002C73.3012 4.95423 74.1665 4.74265 74.7886 3.49213C74.7886 3.49213 75.2212 2.62371 74.7886 2.44686L74.7791 2.43739Z" fill="#004C6A"/>
</g>
<path d="M31.0516 34.1811C29.6874 34.1811 28.0706 34.1811 27.6316 34.1148C27.5642 34.6025 27.4236 35.0773 27.2148 35.5232C27.5306 35.5042 27.9032 35.5011 28.9042 35.5011C28.2125 36.685 27.439 37.8194 26.5895 38.8958C26.0116 39.66 24.6032 39.6348 23.7474 39.6348H23.3937C23.9179 39.0758 24.1643 38.6526 24.1643 37.0263C24.1643 35.1979 23.3558 34.1843 21.5779 34.1843H20.0527C18.1327 36.1516 17.6937 36.9348 17.6937 38.1821C17.6809 38.7023 17.8359 39.2127 18.1358 39.6379H17.2548C15.3853 39.6379 14.9211 39.2937 14.9211 37.8379C14.9211 35.7348 14.9211 34.9706 14.9432 34.5569C14.4622 34.7426 13.957 34.8585 13.4432 34.9011C13.4874 35.4916 13.5316 37.1116 13.5348 38.719C12.78 39.2937 11.46 39.5779 9.4042 39.6284H8.9874C6.7927 39.6284 6.3758 39.0505 6.3537 37.7116C6.3545 36.3972 6.2617 35.0844 6.0758 33.7832C5.608 34.0808 5.0918 34.2945 4.5506 34.4148C4.8449 35.7867 5.0338 37.1792 5.1158 38.58C4.3485 39.2684 3.1453 39.6126 1.9864 39.6126C1.3548 39.6126 1.0169 39.4295 1.0169 39.0821V38.0179C0.702099 38.195 0.3574 38.3127 0 38.3653C0.0253 38.6653 0.0252991 39.3126 0.0252991 39.8432C0.0473991 40.8379 0.438998 41.4853 1.6864 41.4853C2.9337 41.4853 4.4148 41.0211 4.7842 40.399C4.9421 40.1179 5.1411 39.7863 5.28 39.5337C5.4411 40.819 6.2021 41.4853 8.8042 41.4853L9.12 41.4663C11.119 41.4032 12.5558 41.1126 13.039 40.519C13.2285 40.2695 13.4716 39.9253 13.7211 39.6063C13.8727 40.8126 14.7 41.5011 17.0369 41.5011H23.2769C25.3548 41.5011 26.3021 41.1063 26.7885 40.4148C27.0443 40.0674 27.2969 39.6758 27.6442 39.1516C27.6442 40.5821 28.7527 41.4853 30.4864 41.4853C31.1558 41.4853 31.7337 41.4379 32.4506 41.4158C33.12 40.1684 33.9979 39.7516 33.9979 37.14C33.9979 35.3621 32.8421 34.1811 31.0421 34.1811H31.0516ZM22.3169 39.7042C19.9579 39.6821 19.1274 38.9432 19.1274 37.4937C19.1383 36.8061 19.3734 36.1408 19.7969 35.599H21.06C22.3232 35.599 22.699 36.3158 22.699 37.5158C22.699 38.8105 22.6074 39.2495 22.3074 39.7105L22.3169 39.7042ZM32.4695 39.5432C31.9182 39.6188 31.3616 39.6494 30.8053 39.6348C29.4411 39.6348 28.8411 39.1042 28.8411 38.2958C28.8411 37.759 28.9737 37.2853 29.9085 35.5926H30.5748C31.8916 35.5926 32.5611 36.679 32.5611 37.9042C32.5871 38.4522 32.5564 39.0015 32.4695 39.5432Z" fill="#00AAA5"/>
<path d="M59.8647 32.7291C59.8167 32.2365 59.8167 31.7406 59.8647 31.248H58.1777C58.1997 31.7123 58.1997 32.4038 58.1777 32.7291H59.8647Z" fill="#004C6A"/>
<path d="M66.2879 30C65.0959 30.9585 63.8539 31.8534 62.5679 32.681V33.7326C64.2099 32.6684 65.0399 32.0905 66.4959 31.0074C66.3939 30.6835 66.3239 30.3503 66.2879 30.0126" fill="#004C6A"/>
<path d="M22.4306 32.7291C22.3864 32.2364 22.3864 31.7407 22.4306 31.248H20.7222C20.7666 31.7407 20.7666 32.2364 20.7222 32.7291H22.4306Z" fill="#00AAA5"/>
<path d="M76.3986 34.7853C76.6296 36.1242 76.8596 38.78 76.9296 40.2389C76.5596 41.1863 75.0596 42.0168 74.0396 42.4779C74.5126 42.8737 74.9366 43.3242 75.3026 43.82C75.7706 43.5455 76.2106 43.2283 76.6196 42.8726C77.6806 41.8779 78.1456 40.4916 78.1456 38.6884C78.1456 37.28 78.0505 35.341 78.0285 34.3242C77.5155 34.5585 76.9706 34.7139 76.4116 34.7853" fill="#004C6A"/>
<path d="M91.9386 34.8978H85.8376C87.8236 33.9505 89.2576 33.0947 90.8306 32.1726C90.5996 31.7088 90.4496 31.209 90.3886 30.6947C89.4886 31.4084 86.5987 33.3284 84.0347 34.8978C84.0377 35.4021 83.9927 35.9055 83.8987 36.401H91.4776C92.9116 36.401 94.0196 37.301 94.0196 38.7346C94.0196 39.0125 93.9976 39.3346 93.9726 39.5904C93.5896 39.6303 93.2046 39.6461 92.8196 39.6378H82.7307C82.0987 39.6378 81.7826 39.382 81.7826 38.782V30.2305C81.2736 30.5272 80.7057 30.7093 80.1187 30.7641C80.2797 31.9641 80.4187 34.6894 80.5107 39.5904C80.5327 40.8157 81.1106 41.4852 82.2216 41.4852C90.9316 41.4852 90.1576 41.4378 92.7246 41.4378C93.0796 41.4299 93.4336 41.4458 93.7856 41.4852C94.4556 40.3073 95.3116 39.6125 95.3116 37.9483C95.3116 36.2178 93.8556 34.8978 91.9386 34.8978Z" fill="#004C6A"/>
<path d="M70.4845 34.8985H64.3635C66.4455 33.8595 67.7835 33.0953 69.3535 32.1732C69.1255 31.7088 68.9765 31.2091 68.9145 30.6953C68.0145 31.409 65.1255 33.329 62.5605 34.8985C62.5645 35.4029 62.5185 35.9064 62.4215 36.4016H70.0005C71.4315 36.4016 72.5425 37.3016 72.5425 38.7353C72.5425 39.0132 72.5175 39.3353 72.4955 39.5911C72.1115 39.631 71.7255 39.6468 71.3395 39.6384H63.0345C60.9535 39.6384 60.0975 39.2437 60.0065 37.6711C59.9365 36.6542 59.8895 35.4605 59.8675 34.3206C59.3555 34.5572 58.8095 34.7138 58.2505 34.7848C58.4805 36.1237 58.7115 38.7826 58.7805 40.2384C58.4115 41.1858 56.9115 42.0163 55.8945 42.4774C56.3615 42.874 56.7805 43.3245 57.1415 43.8195C57.6095 43.545 58.0495 43.2279 58.4585 42.8721C59.1505 42.2126 59.6215 41.3557 59.8075 40.4184C60.2145 41.1511 61.1145 41.4858 62.6495 41.4858C69.4895 41.4858 68.7155 41.4384 71.2795 41.4384C71.6355 41.4306 71.9905 41.4464 72.3435 41.4858C73.0135 40.3079 73.8695 39.6132 73.8695 37.949C73.8695 36.2184 72.4135 34.8985 70.4965 34.8985" fill="#004C6A"/>
<path d="M45.2367 35.4986H46.5537C46.6367 34.9627 46.8167 34.4467 47.0877 33.9766H45.6317C44.9997 33.9766 43.9897 33.9987 43.1336 34.0681C42.3505 35.1071 40.9389 36.3544 40.9389 38.1134C40.9389 39.5218 41.8421 40.2828 43.5727 40.2828H45.6067C45.4457 41.5997 44.1757 42.0386 42.3505 42.0386H41.0557C39.161 42.0386 38.4221 41.1386 38.4221 39.7997C38.441 39.0778 38.5181 38.3586 38.6526 37.6492C38.2936 37.8132 37.911 37.9198 37.5189 37.965C37.4968 38.7292 37.3105 39.6513 37.3105 40.6681C37.3105 42.6323 38.3747 43.826 40.6389 43.826H42.1168C45.4457 43.826 46.8097 41.8176 46.8097 39.8313C46.8097 38.9976 46.5317 38.606 45.7007 38.606H44.1757C42.9284 38.606 42.3031 38.306 42.3031 37.3807C42.3447 36.738 42.5466 36.1159 42.8905 35.5713C43.6737 35.4977 44.4607 35.4734 45.2467 35.4986" fill="#004C6A"/>
<path d="M54.3189 41.4852C54.7149 41.2864 55.1339 41.1389 55.5669 41.0462C55.5889 32.1505 55.6139 30.6252 55.6359 30.2305C55.0979 30.5191 54.5089 30.7004 53.9019 30.7641C54.0629 31.9641 54.2719 35.2925 54.3189 41.4852Z" fill="#004C6A"/>
<path d="M49.9517 34.7853C50.1817 36.1242 50.4127 38.78 50.4817 40.2389C50.1127 41.1863 48.6127 42.0168 47.5957 42.4779C48.0687 42.8736 48.4927 43.3241 48.8587 43.82C49.3267 43.5455 49.7667 43.2283 50.1757 42.8726C51.2367 41.8779 51.7007 40.4916 51.7007 38.6884C51.7007 37.28 51.6067 35.341 51.5847 34.3242C51.0717 34.5585 50.5267 34.7139 49.9677 34.7853" fill="#004C6A"/>
<path d="M7.53809 42.8906C7.58249 43.3822 7.58249 43.8769 7.53809 44.3685H9.24649C9.19909 43.877 9.19909 43.3821 9.24649 42.8906H7.53809Z" fill="#00AAA5"/>
<path d="M9.68506 42.8906C9.72956 43.3822 9.72956 43.8769 9.68506 44.3685H11.3935C11.3462 43.877 11.3462 43.3821 11.3935 42.8906H9.68506Z" fill="#00AAA5"/>
</svg>
