<svg width="89" height="27" viewBox="0 0 89 27" fill="none" xmlns="http://www.w3.org/2000/svg">
<rect width="88.0973" height="26.5592" rx="7" fill="#FECE00"/>
<path d="M15.018 11.7107C15.1668 12.4898 15.2806 13.2033 15.3594 13.8511C15.4469 14.4989 15.4907 15.011 15.4907 15.3874C15.4907 16.2541 15.3025 17.0025 14.926 17.6328C14.5496 18.2719 13.9456 18.8059 13.114 19.2348C12.615 19.4974 12.0022 19.7425 11.2756 19.9702C10.549 20.1978 9.7524 20.3947 8.88575 20.561C8.70191 20.0271 8.49181 19.3574 8.25546 18.552C10.3739 18.1493 11.8271 17.7247 12.615 17.2783C13.4028 16.8318 13.7968 16.3635 13.7968 15.8733C13.7968 15.5844 13.7355 15.1029 13.6129 14.4288C13.4904 13.746 13.3372 13.0282 13.1533 12.2753L15.018 11.7107ZM19.6984 16.7793C18.7179 16.7793 17.9782 16.5254 17.4792 16.0177C16.989 15.5012 16.722 14.7308 16.6782 13.7066C16.652 13.1901 16.5994 11.6757 16.5207 9.16327L16.4156 6.34008L18.4115 6.19564L18.3853 12.5905C18.3853 13.212 18.5034 13.6672 18.7398 13.9561C18.9849 14.2362 19.3789 14.3763 19.9216 14.3763L19.6984 16.7793ZM24.5347 16.7793C23.3091 16.7793 22.5607 16.4204 22.2893 15.7025C22.0617 16.044 21.7028 16.311 21.2126 16.5035C20.7311 16.6874 20.1402 16.7793 19.4399 16.7793H19.1772C19.1335 16.7793 19.0984 16.7049 19.0722 16.5561C19.0372 16.4072 19.0197 16.2015 19.0197 15.9389C19.0197 15.4224 19.0591 15.0329 19.1378 14.7702C19.2166 14.5076 19.3042 14.3763 19.4005 14.3763H19.6631C20.3897 14.3763 20.9193 14.2669 21.2519 14.048C21.5846 13.8204 21.7509 13.4571 21.7509 12.9582V11.9733L23.3004 11.842V12.9319C23.3004 13.4221 23.4098 13.7854 23.6287 14.0218C23.8563 14.2581 24.2327 14.3763 24.7579 14.3763L24.5347 16.7793ZM19.151 19.9964V18.1712H21.1206V19.9964H19.151ZM29.3696 16.7793C28.1441 16.7793 27.3956 16.4204 27.1242 15.7025C26.8966 16.044 26.5377 16.311 26.0475 16.5035C25.566 16.6874 24.9751 16.7793 24.2748 16.7793H24.0121C23.9684 16.7793 23.9334 16.7049 23.9071 16.5561C23.8721 16.4072 23.8546 16.2015 23.8546 15.9389C23.8546 15.4224 23.894 15.0329 23.9727 14.7702C24.0515 14.5076 24.1391 14.3763 24.2354 14.3763H24.498C25.2246 14.3763 25.7542 14.2669 26.0869 14.048C26.4195 13.8204 26.5858 13.4571 26.5858 12.9582V11.9733L28.1353 11.842V12.9319C28.1353 13.4221 28.2447 13.7854 28.4636 14.0218C28.6912 14.2581 29.0676 14.3763 29.5929 14.3763L29.3696 16.7793ZM26.4939 8.95317H26.6252H28.5949V10.5683H26.6252H26.4939H24.5243V8.95317H26.4939ZM34.5591 12.0784C33.9813 12.0171 33.4517 11.9865 32.9702 11.9865C32.6813 11.9865 32.4231 12.0127 32.1955 12.0652C31.9679 12.1178 31.8147 12.1834 31.7359 12.2622C31.6483 12.3848 31.6046 12.5555 31.6046 12.7743C31.6046 13.142 31.7184 13.4396 31.946 13.6672C32.1823 13.8861 32.4887 13.9955 32.8652 13.9955C33.1453 13.9955 33.5042 13.9605 33.9419 13.8905C34.3884 13.8204 34.9968 13.7022 35.7671 13.5359L35.951 15.7157C34.4715 16.1096 33.1934 16.3854 32.1167 16.5429C31.0399 16.7005 29.9501 16.7793 28.847 16.7793C28.8033 16.7793 28.7683 16.7049 28.742 16.5561C28.707 16.4072 28.6895 16.2015 28.6895 15.9389C28.6895 15.4224 28.7289 15.0329 28.8077 14.7702C28.8864 14.5076 28.974 14.3763 29.0703 14.3763C29.5517 14.3763 29.9326 14.3676 30.2127 14.35C30.0113 14.0524 29.9107 13.6629 29.9107 13.1814C29.9107 12.5336 30.0464 11.9602 30.3177 11.4612C30.5891 10.9622 30.9655 10.577 31.447 10.3057C31.9372 10.0255 32.4975 9.88548 33.1278 9.88548C33.4167 9.88548 33.7362 9.91174 34.0864 9.96426C34.4365 10.008 34.7604 10.0693 35.0581 10.1481L34.5591 12.0784ZM38.8668 6.19564C38.8143 11.5531 38.7749 15.0591 38.7486 16.7136L37.2123 16.8712L36.8709 6.34008L38.8668 6.19564ZM53.5139 16.7793C52.2446 16.7793 51.4961 16.3722 51.2685 15.5581C50.9446 15.9695 50.2793 16.311 49.2726 16.5823C48.2746 16.845 47.1015 16.9763 45.7534 16.9763C44.309 16.9763 43.2629 16.7399 42.6151 16.2672C41.9673 15.7945 41.6434 15.1073 41.6434 14.2056C41.6434 13.4878 41.8491 12.4811 42.2606 11.1855L43.6918 11.5663C43.4993 12.2841 43.403 12.8093 43.403 13.142C43.403 13.606 43.6087 13.9605 44.0201 14.2056C44.4316 14.4507 45.1056 14.5733 46.0423 14.5733C47.0315 14.5733 47.8807 14.5164 48.5897 14.4026C49.3076 14.2888 49.8459 14.1443 50.2049 13.9692C50.5725 13.7942 50.7564 13.6147 50.7564 13.4309V11.9733L52.3058 11.842V12.9319C52.3058 13.4221 52.4153 13.7854 52.6341 14.0218C52.853 14.2581 53.2206 14.3763 53.7371 14.3763L53.5139 16.7793ZM46.8958 9.18953H47.0271H48.9968V10.8047H47.0271H46.8958H44.9262V9.18953H46.8958ZM56.4886 8.04713C57.0664 8.04713 57.561 8.25285 57.9724 8.66429C58.3926 9.06697 58.7078 9.63599 58.9178 10.3713C59.1367 11.1067 59.2461 11.9602 59.2461 12.9319C59.2461 13.781 59.0842 14.5076 58.7603 15.1116C58.4451 15.7069 57.9768 16.1227 57.3552 16.3591C57.0138 16.4904 56.5324 16.5955 55.9108 16.6742C55.298 16.7443 54.6327 16.7793 53.9149 16.7793H52.9826C52.9388 16.7793 52.9038 16.7049 52.8775 16.5561C52.8425 16.4072 52.825 16.2015 52.825 15.9389C52.825 15.4224 52.8644 15.0329 52.9432 14.7702C53.022 14.5076 53.1095 14.3763 53.2058 14.3763H54.1644C55.8889 14.3763 57.0138 14.2669 57.5391 14.048C57.6967 13.978 57.7754 13.8204 57.7754 13.5753V13.142C57.5128 13.2208 57.2108 13.2821 56.8694 13.3258C56.5367 13.3696 56.2128 13.3915 55.8977 13.3915C55.2587 13.3915 54.7684 13.2339 54.427 12.9188C54.0944 12.5949 53.928 12.1528 53.928 11.5925C53.928 10.971 54.0375 10.3888 54.2563 9.84608C54.4839 9.29458 54.7947 8.85688 55.1886 8.53298C55.5826 8.20908 56.0159 8.04713 56.4886 8.04713ZM55.4118 10.9491C55.4118 11.1242 55.4775 11.2642 55.6088 11.3693C55.7489 11.4656 55.9415 11.5137 56.1866 11.5137C56.598 11.5137 57.0576 11.4787 57.5653 11.4087C57.3202 10.402 56.8825 9.89861 56.2522 9.89861C56.0159 9.89861 55.8145 10.0037 55.6482 10.2138C55.4906 10.4239 55.4118 10.669 55.4118 10.9491ZM55.5038 6.77341V4.94819H57.4734V6.77341H55.5038ZM63.4557 16.7793C62.4752 16.7793 61.7355 16.5254 61.2365 16.0177C60.7463 15.5012 60.4793 14.7308 60.4355 13.7066C60.4093 13.1901 60.3567 11.6757 60.2779 9.16327L60.1729 6.34008L62.1688 6.19564L62.1426 12.5905C62.1426 13.212 62.2607 13.6672 62.4971 13.9561C62.7422 14.2362 63.1361 14.3763 63.6789 14.3763L63.4557 16.7793ZM66.5456 10.7259C66.6331 11.1723 66.7163 11.6888 66.7951 12.2753C66.8826 12.8619 66.9264 13.2996 66.9264 13.5884C66.9264 14.1662 66.7819 14.7221 66.493 15.2561C66.2042 15.7901 65.8365 16.1621 65.39 16.3722C64.8035 16.6436 63.985 16.7793 62.9345 16.7793C62.8908 16.7793 62.8557 16.7049 62.8295 16.5561C62.7945 16.4072 62.7769 16.2015 62.7769 15.9389C62.7769 15.4224 62.8163 15.0329 62.8951 14.7702C62.9739 14.5076 63.0615 14.3763 63.1577 14.3763C64.5059 14.3763 65.1799 14.2362 65.1799 13.9561C65.1799 13.7723 65.1274 13.409 65.0224 12.8662C64.9261 12.3147 64.8123 11.772 64.681 11.238L66.5456 10.7259ZM62.3961 18.1712H62.5275H64.4971V19.7863H62.5275H62.3961H60.4265V18.1712H62.3961ZM69.9203 11.7107C70.2354 13.3565 70.393 14.7046 70.393 15.7551C70.393 16.5867 70.2529 17.2914 69.9728 17.8692C69.7014 18.4469 69.2243 18.9547 68.5415 19.3924C67.8587 19.8388 66.9001 20.2415 65.6658 20.6004L64.9173 18.6176C65.9153 18.3375 66.69 18.0661 67.2415 17.8035C67.8018 17.5409 68.1826 17.287 68.3839 17.0419C68.594 16.8056 68.6991 16.5517 68.6991 16.2803C68.6991 15.8339 68.6378 15.2473 68.5152 14.5208C68.4014 13.7942 68.2482 13.0457 68.0556 12.2753L69.9203 11.7107ZM74.6401 9.01883C75.1303 9.43902 75.6424 9.84171 76.1764 10.2269C76.7104 10.6296 77.1131 10.9578 77.3845 11.2117C77.6646 11.4568 77.8878 11.7326 78.0541 12.039C78.2205 12.3454 78.3036 12.6999 78.3036 13.1026C78.3036 13.7066 78.1811 14.2538 77.936 14.744C77.6909 15.2255 77.3319 15.6369 76.8592 15.9783C76.4565 16.2934 75.9269 16.5517 75.2704 16.753C74.6138 16.9456 73.9704 17.0419 73.3401 17.0419C71.9832 17.0419 71.3048 16.3591 71.3048 14.9935C71.3048 14.6346 71.3223 14.0962 71.3573 13.3783L72.8411 13.3127V13.7591C72.8411 14.0743 72.9111 14.3019 73.0512 14.442C73.2 14.5733 73.4451 14.6389 73.7865 14.6389C74.233 14.6389 74.6795 14.582 75.1259 14.4682C75.5724 14.3544 75.9357 14.2187 76.2158 14.0612C76.5047 13.8948 76.6491 13.7416 76.6491 13.6016C76.6491 13.4528 76.5353 13.2777 76.3077 13.0763C76.0889 12.875 75.7256 12.5861 75.2178 12.2097C74.5175 11.7019 73.9704 11.273 73.5764 10.9228L74.6401 9.01883Z" fill="#330198"/>
</svg>
