<svg width="173" height="51" viewBox="0 0 173 51" fill="none" xmlns="http://www.w3.org/2000/svg">
<path d="M102.301 17.0788C101.846 17.0963 101.47 16.9475 101.172 16.6323C100.883 16.3172 100.739 15.9189 100.739 15.4374C100.739 14.8596 100.914 14.2731 101.264 13.6778C101.614 13.0826 102.074 12.6011 102.643 12.2334L103.483 13.0607C103.072 13.3758 102.774 13.6516 102.59 13.8879C102.406 14.1243 102.249 14.3563 102.117 14.5839C102.135 14.5839 102.161 14.5795 102.196 14.5707C102.24 14.562 102.284 14.5576 102.327 14.5576C102.66 14.5576 102.945 14.6802 103.181 14.9253C103.426 15.1616 103.549 15.4549 103.549 15.8051C103.549 16.1465 103.422 16.4441 103.168 16.698C102.923 16.9519 102.634 17.0788 102.301 17.0788ZM167.642 7.08603C167.747 7.84763 167.826 8.8456 167.879 10.0799C167.94 11.3055 167.97 12.4348 167.97 13.4677C167.97 13.8179 168.001 14.0893 168.062 14.2819C168.124 14.4657 168.229 14.597 168.378 14.6758C168.526 14.7546 168.745 14.794 169.034 14.794H169.087L169.205 15.897L169.087 17H169.034C168.054 17 167.34 16.7155 166.894 16.1465C166.447 15.5687 166.22 14.7064 166.211 13.5597C166.176 11.0122 166.049 8.99004 165.83 7.49309L167.642 7.08603ZM168.446 14.794H169.142C170.28 14.794 170.849 14.5445 170.849 14.0455C170.849 13.8879 170.749 13.5246 170.547 12.9556C170.355 12.3866 170.215 12.0102 170.127 11.8264L171.663 10.986C171.83 11.3361 172 11.8307 172.175 12.4698C172.359 13.1001 172.451 13.656 172.451 14.1374C172.451 15.0741 172.167 15.7876 171.598 16.2778C171.029 16.7593 170.21 17 169.142 17H168.446V14.794ZM168.157 19.2585C168.157 19.2585 168.446 18.9697 169.024 18.3919L169.47 17.9454L170.77 19.2585L169.47 20.5585L168.157 19.2585ZM3.04649 39.072H1.59449L1.37849 33.18H3.26249L3.04649 39.072ZM2.31449 42.192C2.00249 42.192 1.74249 42.084 1.53449 41.868C1.32649 41.652 1.22249 41.388 1.22249 41.076C1.22249 40.772 1.32649 40.52 1.53449 40.32C1.74249 40.112 2.00249 40.008 2.31449 40.008C2.62649 40.008 2.88649 40.112 3.09449 40.32C3.30249 40.52 3.40649 40.772 3.40649 41.076C3.40649 41.388 3.30249 41.652 3.09449 41.868C2.88649 42.084 2.62649 42.192 2.31449 42.192ZM11.6699 38.868C11.8139 39.292 11.9579 39.584 12.1019 39.744C12.2459 39.904 12.4619 39.984 12.7499 39.984H12.8459L12.9539 40.992L12.8459 42H12.7499C12.1979 42 11.7579 41.788 11.4299 41.364C11.1019 40.94 10.8059 40.34 10.5419 39.564L11.6699 38.868ZM6.30589 39.348C6.08989 39.876 5.92989 40.308 5.82589 40.644C5.72989 40.972 5.68189 41.324 5.68189 41.7C5.68189 42.908 6.46589 43.512 8.03389 43.512C8.56989 43.512 9.04189 43.42 9.44989 43.236C9.86589 43.06 10.1859 42.824 10.4099 42.528C10.6419 42.232 10.7579 41.912 10.7579 41.568C10.7579 41.2 10.6259 40.648 10.3619 39.912C10.1059 39.176 9.96989 38.78 9.95389 38.724L11.3579 37.956C11.8859 39.316 12.1499 40.52 12.1499 41.568C12.1499 42.296 11.9739 42.96 11.6219 43.56C11.2699 44.168 10.7819 44.648 10.1579 45C9.53389 45.352 8.82589 45.528 8.03389 45.528C7.28989 45.528 6.62589 45.388 6.04189 45.108C5.46589 44.828 5.01389 44.416 4.68589 43.872C4.35789 43.336 4.19389 42.696 4.19389 41.952C4.19389 41.784 4.19789 41.656 4.20589 41.568C4.26189 40.776 4.54189 39.844 5.04589 38.772L6.30589 39.348ZM7.07389 37.932C7.07389 37.932 7.33789 37.668 7.86589 37.14L8.27389 36.732L9.46189 37.932L8.27389 39.12L7.07389 37.932ZM17.8836 34.536L14.5116 35.964C14.9596 36.372 15.4276 36.904 15.9156 37.56C16.4036 38.208 16.6476 38.868 16.6476 39.54C16.6476 39.7 16.6316 39.844 16.5996 39.972C16.4556 40.652 16.0316 41.16 15.3276 41.496C14.6236 41.832 13.7436 42 12.6876 42H12.2436V39.984H12.6876C13.3276 39.984 13.8636 39.936 14.2956 39.84C14.7356 39.744 15.0356 39.62 15.1956 39.468C14.8596 38.604 14.0236 37.624 12.6876 36.528L12.8556 34.8L17.3316 32.928L17.8836 34.536ZM23.6638 42.156C23.6478 41.708 23.6398 41.372 23.6398 41.148C23.6398 40.916 23.6478 40.576 23.6638 40.128C24.7358 40.128 25.5518 40.068 26.1118 39.948C26.6798 39.828 27.1078 39.628 27.3958 39.348C27.6918 39.068 27.9478 38.648 28.1638 38.088L29.5198 38.244C29.3598 38.724 29.2798 39.084 29.2798 39.324C29.2798 39.556 29.3398 39.724 29.4598 39.828C29.5798 39.924 29.7598 39.972 29.9998 39.972L30.1078 40.992L29.9998 42C29.6798 42 29.3758 41.928 29.0878 41.784C28.8078 41.632 28.5838 41.428 28.4158 41.172C28.2478 40.916 28.1678 40.628 28.1758 40.308L28.4158 40.368C27.8958 41.048 27.2638 41.516 26.5198 41.772C25.7838 42.028 24.8318 42.156 23.6638 42.156ZM20.7598 37.656C20.5598 38.304 20.4598 38.784 20.4598 39.096C20.4598 39.272 20.5878 39.44 20.8438 39.6C21.1078 39.76 21.4878 39.888 21.9838 39.984C22.4878 40.08 23.0838 40.128 23.7718 40.128C23.7958 40.496 23.8078 40.856 23.8078 41.208C23.8078 41.528 23.7958 41.844 23.7718 42.156C22.3238 42.164 21.1838 41.94 20.3518 41.484C19.5198 41.028 19.0678 40.392 18.9958 39.576C18.9878 39.512 18.9838 39.416 18.9838 39.288C18.9838 38.936 19.0318 38.556 19.1278 38.148C19.2238 37.74 19.3438 37.376 19.4878 37.056L20.7598 37.656ZM23.1238 35.736L24.1798 36.804L23.1238 37.872L22.7638 37.512C22.2918 37.04 22.0558 36.804 22.0558 36.804L23.1238 35.736ZM25.2118 35.736L26.2678 36.804L25.2118 37.872L24.8518 37.512C24.3798 37.04 24.1438 36.804 24.1438 36.804L25.2118 35.736ZM29.401 39.984H30.229C31.165 39.984 32.037 39.888 32.845 39.696C33.653 39.496 34.541 39.14 35.509 38.628C36.213 38.252 36.693 38.028 36.949 37.956L37.009 39.48C36.593 39.408 36.193 39.308 35.809 39.18C35.425 39.044 34.957 38.836 34.405 38.556C34.085 38.396 33.761 38.272 33.433 38.184C33.113 38.088 32.825 38.04 32.569 38.04C32.281 38.04 32.025 38.116 31.801 38.268C31.585 38.42 31.413 38.588 31.285 38.772L30.169 37.944C30.793 36.704 31.617 36.084 32.641 36.084C32.985 36.084 33.313 36.14 33.625 36.252C33.945 36.364 34.409 36.576 35.017 36.888C35.473 37.128 35.861 37.308 36.181 37.428C36.509 37.548 36.869 37.648 37.261 37.728L37.321 39.552C37.113 39.608 36.729 39.796 36.169 40.116L35.713 40.356C34.881 40.788 34.173 41.12 33.589 41.352C33.005 41.584 32.417 41.748 31.825 41.844C31.233 41.94 30.541 41.992 29.749 42H29.401V39.984ZM31.681 34.116C31.681 34.116 31.945 33.852 32.473 33.324L32.881 32.916L34.069 34.116L32.881 35.304L31.681 34.116ZM37.8921 41.928C37.9801 41.4 38.0241 40.56 38.0241 39.408C38.0241 38.304 37.9841 37.148 37.9041 35.94C37.8321 34.724 37.7481 33.848 37.6521 33.312L39.3321 32.94C39.4121 33.444 39.4801 34.268 39.5361 35.412C39.6001 36.548 39.6321 37.672 39.6321 38.784C39.6321 40.208 39.5761 41.312 39.4641 42.096L37.8921 41.928ZM40.6764 39.66C40.9484 39.788 41.2364 39.904 41.5404 40.008C41.8524 40.104 42.2204 40.152 42.6444 40.152C43.0684 40.144 43.4204 40.1 43.7004 40.02C43.9804 39.932 44.1644 39.84 44.2524 39.744C44.2684 39.624 44.2124 39.44 44.0844 39.192C43.9644 38.936 43.7164 38.616 43.3404 38.232C42.9724 37.84 42.4444 37.416 41.7564 36.96L42.7164 35.184C43.6524 35.832 44.3964 36.56 44.9484 37.368C45.5084 38.168 45.7884 38.936 45.7884 39.672C45.7884 40.016 45.7244 40.332 45.5964 40.62C45.3964 41.084 45.0364 41.44 44.5164 41.688C44.0044 41.936 43.4444 42.06 42.8364 42.06C42.1164 42.06 41.5164 41.948 41.0364 41.724C40.5644 41.5 40.2084 41.284 39.9684 41.076L40.6764 39.66ZM49.5362 42C48.9682 42 48.5042 41.792 48.1442 41.376C47.7922 40.96 47.4962 40.376 47.2562 39.624L48.4802 38.88C48.5922 39.288 48.7242 39.576 48.8762 39.744C49.0362 39.904 49.2562 39.984 49.5362 39.984H49.6562L49.7642 40.992L49.6562 42H49.5362ZM44.5682 43.824C45.0962 43.6 45.5842 43.344 46.0322 43.056C46.4802 42.776 46.8322 42.5 47.0882 42.228C47.3522 41.964 47.4842 41.748 47.4842 41.58C47.4842 41.316 47.2722 40.456 46.8482 39L46.7642 38.7L48.2522 38.112C48.4442 38.664 48.5962 39.252 48.7082 39.876C48.8202 40.5 48.8762 41.068 48.8762 41.58C48.8762 42.388 48.5642 43.128 47.9402 43.8C47.3162 44.48 46.4722 45.052 45.4082 45.516L44.5682 43.824ZM49.6675 39.984H50.2675C51.0355 39.984 51.5795 39.92 51.8995 39.792C52.2275 39.664 52.3915 39.476 52.3915 39.228C52.3915 39.076 52.3035 38.76 52.1275 38.28C51.9515 37.792 51.8195 37.456 51.7315 37.272L53.1235 36.504C53.2835 36.84 53.4435 37.288 53.6035 37.848C53.7715 38.408 53.8555 38.904 53.8555 39.336C53.8555 40.192 53.5795 40.852 53.0275 41.316C52.4755 41.772 51.6635 42 50.5915 42H49.6675V39.984ZM52.4635 42.828L53.4715 43.836L52.4635 44.844L51.4555 43.836L52.4635 42.828ZM50.1595 42.828L51.1675 43.836L50.1595 44.844L49.1515 43.836L50.1595 42.828ZM51.3115 44.412C51.6155 44.7 51.9115 44.996 52.1995 45.3L51.3115 46.176C51.1195 45.976 50.8235 45.684 50.4235 45.3L51.3115 44.412ZM49.0795 42L48.9715 40.992L49.0795 39.984H49.7515V42H49.0795ZM56.2695 41.928C56.3575 41.4 56.4015 40.56 56.4015 39.408C56.4015 38.304 56.3615 37.148 56.2815 35.94C56.2095 34.724 56.1255 33.848 56.0295 33.312L57.7095 32.94C57.7895 33.444 57.8575 34.268 57.9135 35.412C57.9775 36.548 58.0095 37.672 58.0095 38.784C58.0095 40.208 57.9535 41.312 57.8415 42.096L56.2695 41.928ZM62.2578 35.34L63.9018 39.228C64.0298 39.524 64.1698 39.724 64.3218 39.828C64.4738 39.932 64.7018 39.984 65.0058 39.984H65.1498L65.2578 40.992L65.1498 42H65.0058C64.4538 42 63.9938 41.844 63.6258 41.532C63.2578 41.212 62.9258 40.708 62.6298 40.02L60.9018 36.072L62.2578 35.34ZM59.0538 39.66C59.6778 39.988 60.3178 40.152 60.9738 40.152C61.5018 40.152 61.9218 40.076 62.2338 39.924C62.5538 39.764 62.7778 39.604 62.9058 39.444L63.8058 40.62C63.6698 40.828 63.5138 41.028 63.3378 41.22C63.1618 41.412 62.8858 41.604 62.5098 41.796C62.1418 41.98 61.6978 42.072 61.1778 42.072C60.1938 42.072 59.2498 41.74 58.3458 41.076L59.0538 39.66ZM64.5496 39.984H64.8976C66.3456 39.984 67.4336 39.8 68.1616 39.432C68.8896 39.064 69.3736 38.64 69.6136 38.16C69.5336 38.04 69.3856 37.948 69.1696 37.884C68.9536 37.812 68.7056 37.776 68.4256 37.776C68.1536 37.776 67.8816 37.808 67.6096 37.872C67.3456 37.936 67.1176 38.028 66.9256 38.148C67.5336 38.796 68.1656 39.264 68.8216 39.552C69.4776 39.84 70.2576 39.984 71.1616 39.984H71.5576L71.6656 40.992L71.5576 42H71.1616C70.2816 42 69.5216 41.896 68.8816 41.688C68.2416 41.48 67.6296 41.132 67.0456 40.644C66.4616 40.148 65.8096 39.444 65.0896 38.532L65.1376 37.188C65.5056 36.82 65.9656 36.54 66.5176 36.348C67.0696 36.156 67.6416 36.06 68.2336 36.06C68.9536 36.06 69.5856 36.196 70.1296 36.468C70.6736 36.732 71.0056 37.096 71.1256 37.56C71.1576 37.664 71.1736 37.788 71.1736 37.932C71.1736 38.548 70.8576 39.176 70.2256 39.816C69.5936 40.448 68.7896 40.972 67.8136 41.388C66.8376 41.796 65.8656 42 64.8976 42H64.5496V39.984ZM70.9602 39.984H71.5962C72.6362 39.984 73.1562 39.756 73.1562 39.3C73.1562 39.156 73.0642 38.824 72.8802 38.304C72.7042 37.784 72.5762 37.44 72.4962 37.272L73.9002 36.504C74.0522 36.824 74.2082 37.276 74.3682 37.86C74.5362 38.436 74.6202 38.944 74.6202 39.384C74.6202 40.24 74.3602 40.892 73.8402 41.34C73.3202 41.78 72.5722 42 71.5962 42H70.9602V39.984ZM70.6962 44.064C70.6962 44.064 70.9602 43.8 71.4882 43.272L71.8962 42.864L73.0842 44.064L71.8962 45.252L70.6962 44.064ZM78.3935 42.072C77.9775 42.088 77.6335 41.952 77.3615 41.664C77.0975 41.376 76.9655 41.012 76.9655 40.572C76.9655 40.044 77.1255 39.508 77.4455 38.964C77.7655 38.42 78.1855 37.98 78.7055 37.644L79.4735 38.4C79.0975 38.688 78.8255 38.94 78.6575 39.156C78.4895 39.372 78.3455 39.584 78.2255 39.792C78.2415 39.792 78.2655 39.788 78.2975 39.78C78.3375 39.772 78.3775 39.768 78.4175 39.768C78.7215 39.768 78.9815 39.88 79.1975 40.104C79.4215 40.32 79.5335 40.588 79.5335 40.908C79.5335 41.22 79.4175 41.492 79.1855 41.724C78.9615 41.956 78.6975 42.072 78.3935 42.072ZM84.6849 42C84.1169 42 83.6529 41.792 83.2929 41.376C82.9409 40.96 82.6449 40.376 82.4049 39.624L83.6289 38.88C83.7409 39.288 83.8729 39.576 84.0249 39.744C84.1849 39.904 84.4049 39.984 84.6849 39.984H84.8049L84.9129 40.992L84.8049 42H84.6849ZM79.7169 43.824C80.2449 43.6 80.7329 43.344 81.1809 43.056C81.6289 42.776 81.9809 42.5 82.2369 42.228C82.5009 41.964 82.6329 41.748 82.6329 41.58C82.6329 41.316 82.4209 40.456 81.9969 39L81.9129 38.7L83.4009 38.112C83.5929 38.664 83.7449 39.252 83.8569 39.876C83.9689 40.5 84.0249 41.068 84.0249 41.58C84.0249 42.388 83.7129 43.128 83.0889 43.8C82.4649 44.48 81.6209 45.052 80.5569 45.516L79.7169 43.824ZM93.3963 39.984L93.5043 40.992L93.3963 42H93.2643C91.4563 41.992 90.3283 41.32 89.8803 39.984L90.8883 39.036C90.9283 39.164 91.0243 39.3 91.1763 39.444C91.3283 39.588 91.5283 39.716 91.7763 39.828C92.0323 39.932 92.3203 39.984 92.6403 39.984H93.3963ZM84.1923 39.984H85.0203C85.9563 39.984 86.8283 39.888 87.6363 39.696C88.4443 39.496 89.3323 39.14 90.3003 38.628C91.0043 38.252 91.4843 38.028 91.7403 37.956L91.8003 39.48C91.3843 39.408 90.9843 39.308 90.6003 39.18C90.2163 39.044 89.7483 38.836 89.1963 38.556C88.8763 38.396 88.5523 38.272 88.2243 38.184C87.9043 38.088 87.6163 38.04 87.3603 38.04C87.0723 38.04 86.8163 38.116 86.5923 38.268C86.3763 38.42 86.2043 38.588 86.0763 38.772L84.9603 37.944C85.5843 36.704 86.4083 36.084 87.4323 36.084C87.7763 36.084 88.1043 36.14 88.4163 36.252C88.7363 36.364 89.2003 36.576 89.8083 36.888C90.2643 37.128 90.6523 37.308 90.9723 37.428C91.3003 37.548 91.6603 37.648 92.0523 37.728L92.1123 39.552C91.9043 39.608 91.5203 39.796 90.9603 40.116L90.5043 40.356C89.6723 40.788 88.9643 41.12 88.3803 41.352C87.7963 41.584 87.2083 41.748 86.6163 41.844C86.0243 41.94 85.3323 41.992 84.5403 42H84.1923V39.984ZM86.4723 34.116C86.4723 34.116 86.7363 33.852 87.2643 33.324L87.6723 32.916L88.8603 34.116L87.6723 35.304L86.4723 34.116ZM92.7946 39.984H93.4306C94.4706 39.984 94.9906 39.756 94.9906 39.3C94.9906 39.156 94.8986 38.824 94.7146 38.304C94.5386 37.784 94.4106 37.44 94.3306 37.272L95.7346 36.504C95.8866 36.824 96.0426 37.276 96.2026 37.86C96.3706 38.436 96.4546 38.944 96.4546 39.384C96.4546 40.24 96.1946 40.892 95.6746 41.34C95.1546 41.78 94.4066 42 93.4306 42H92.7946V39.984ZM92.5306 44.064C92.5306 44.064 92.7946 43.8 93.3226 43.272L93.7306 42.864L94.9186 44.064L93.7306 45.252L92.5306 44.064Z" fill="white"/>
<path d="M103.304 45.9825C102.467 45.9825 101.716 45.8295 101.05 45.5235C100.384 45.2175 99.857 44.754 99.47 44.133C99.092 43.521 98.903 42.774 98.903 41.892C98.903 41.784 98.912 41.613 98.93 41.379C99.002 40.524 99.317 39.48 99.875 38.247L101.428 38.9625C101.176 39.5745 100.996 40.0515 100.888 40.3935C100.78 40.7355 100.726 41.1135 100.726 41.5275C100.726 42.8055 101.585 43.4445 103.304 43.4445C103.97 43.4445 104.578 43.359 105.127 43.188C105.685 43.017 106.094 42.81 106.355 42.567C106.121 42.414 105.752 42.225 105.248 42C104.753 41.775 104.245 41.577 103.723 41.406L104.263 39.0165C105.1 39.1785 105.811 39.291 106.396 39.354C106.981 39.417 107.57 39.453 108.164 39.462H108.299L108.434 40.731L108.299 42H108.164C107.552 41.991 106.895 41.937 106.193 41.838C105.491 41.73 104.668 41.586 103.723 41.406L104.263 39.894C105.307 40.281 106.189 40.7265 106.909 41.2305C107.638 41.7345 108.002 42.2385 108.002 42.7425C108.002 43.2195 107.795 43.71 107.381 44.214C106.976 44.718 106.414 45.1365 105.694 45.4695C104.983 45.8115 104.186 45.9825 103.304 45.9825ZM107.643 39.462H107.71C108.412 39.462 108.957 39.4305 109.344 39.3675C109.731 39.3045 110.001 39.2055 110.154 39.0705C110.307 38.9265 110.388 38.7375 110.397 38.5035C110.388 38.0985 110.338 37.6575 110.248 37.1805L111.922 36.87C112.048 37.608 112.111 38.3595 112.111 39.1245C112.165 39.2145 112.264 39.2955 112.408 39.3675C112.552 39.4305 112.741 39.462 112.975 39.462H113.029L113.164 40.731L113.029 42H112.962C112.566 42 112.188 41.901 111.828 41.703C111.477 41.496 111.175 41.2305 110.923 40.9065L111.315 41.001C111.009 41.343 110.581 41.595 110.032 41.757C109.492 41.919 108.718 42 107.71 42H107.643V39.462ZM108.507 33.4545L109.776 34.7235L108.925 35.574L108.507 35.9925L108.088 35.574L107.238 34.7235L108.507 33.4545ZM110.842 33.4545L112.111 34.7235L111.261 35.574L110.842 35.9925L110.424 35.574L109.573 34.7235L110.842 33.4545ZM119.91 39.462C120.117 39.462 120.292 39.399 120.436 39.273C120.58 39.147 120.652 39.003 120.652 38.841C120.652 38.535 120.405 37.779 119.91 36.573L121.57 35.655C121.741 36.006 121.921 36.519 122.11 37.194C122.308 37.869 122.407 38.4585 122.407 38.9625C122.407 39.5115 122.299 40.02 122.083 40.488C121.876 40.947 121.584 41.316 121.206 41.595C120.828 41.865 120.396 42 119.91 42H119.869V39.462H119.91ZM116.251 42V39.462H116.332C116.755 39.462 117.061 39.2595 117.25 38.8545C117.421 38.4945 117.57 38.0085 117.696 37.3965L119.356 37.464C119.329 37.617 119.298 37.824 119.262 38.085C119.235 38.337 119.221 38.535 119.221 38.679C119.221 38.913 119.275 39.102 119.383 39.246C119.5 39.39 119.671 39.462 119.896 39.462H119.937L120.072 40.731L119.937 42H119.896C119.437 42 119.032 41.8875 118.681 41.6625C118.339 41.4285 118.074 41.1 117.885 40.677L118.317 40.65C118.002 41.118 117.687 41.46 117.372 41.676C117.066 41.892 116.706 42 116.292 42H116.251ZM112.39 42L112.255 40.731L112.39 39.462H112.458C112.701 39.462 112.948 39.4125 113.2 39.3135C113.452 39.2145 113.637 39.0975 113.754 38.9625C114.06 38.6385 114.298 38.1345 114.469 37.4505L116.13 37.626C116.112 37.689 116.062 37.878 115.981 38.193C115.9 38.508 115.86 38.76 115.86 38.949C115.86 39.291 116.004 39.462 116.292 39.462H116.332L116.467 40.731L116.332 42H116.238C115.878 42 115.545 41.9145 115.239 41.7435C114.942 41.5635 114.717 41.325 114.564 41.028C114.267 41.343 113.934 41.586 113.565 41.757C113.205 41.919 112.827 42 112.431 42H112.39ZM123.086 41.919C123.194 41.244 123.248 40.29 123.248 39.057C123.248 37.824 123.199 36.519 123.1 35.142C123.01 33.765 122.906 32.7435 122.789 32.0775L124.882 31.605C124.972 32.226 125.053 33.171 125.125 34.44C125.197 35.7 125.233 36.9465 125.233 38.1795C125.233 39.8805 125.161 41.1945 125.017 42.1215L123.086 41.919ZM125.705 43.7955C126.785 43.5615 127.649 43.3185 128.297 43.0665C128.945 42.8145 129.422 42.522 129.728 42.189C130.034 41.856 130.187 41.4555 130.187 40.9875C130.187 40.4385 130.106 39.9165 129.944 39.4215C129.791 38.9265 129.589 38.5305 129.337 38.2335C129.085 37.9365 128.824 37.788 128.554 37.788C128.302 37.788 128.086 37.9005 127.906 38.1255C127.735 38.3505 127.649 38.5755 127.649 38.8005C127.649 38.8995 127.676 38.985 127.73 39.057C127.874 39.228 128.198 39.3405 128.702 39.3945C129.215 39.4395 129.944 39.462 130.889 39.462H132.361L132.496 40.731L132.361 42L130.592 42.0135C129.8 42.0135 129.13 41.982 128.581 41.919C128.032 41.847 127.55 41.703 127.136 41.487C126.731 41.262 126.434 40.9335 126.245 40.5015C126.083 40.1505 126.002 39.732 126.002 39.246C126.002 38.67 126.124 38.0985 126.367 37.5315C126.61 36.9645 126.943 36.501 127.366 36.141C127.789 35.781 128.261 35.601 128.783 35.601C129.341 35.601 129.854 35.835 130.322 36.303C130.79 36.771 131.159 37.3965 131.429 38.1795C131.699 38.9625 131.834 39.813 131.834 40.731C131.834 41.631 131.618 42.441 131.186 43.161C130.763 43.881 130.151 44.4795 129.35 44.9565C128.549 45.4425 127.6 45.7845 126.502 45.9825L125.705 43.7955ZM131.625 39.462H132.476C133.52 39.462 134.483 39.3585 135.365 39.1515C136.256 38.9445 137.259 38.5485 138.375 37.9635C139.23 37.5045 139.775 37.2435 140.009 37.1805L140.076 39.2055C139.635 39.1155 139.199 38.9895 138.767 38.8275C138.344 38.6655 137.799 38.418 137.133 38.085C136.8 37.914 136.449 37.779 136.08 37.68C135.72 37.581 135.401 37.5315 135.122 37.5315C134.591 37.5315 134.127 37.7835 133.731 38.2875L132.341 37.248C133.07 35.799 134.019 35.0745 135.189 35.0745C135.576 35.0745 135.95 35.1375 136.31 35.2635C136.67 35.3805 137.201 35.6235 137.903 35.9925C138.416 36.2535 138.848 36.4515 139.199 36.5865C139.559 36.7125 139.959 36.8205 140.4 36.9105L140.481 39.2055C140.301 39.2595 139.869 39.471 139.185 39.84C139.122 39.876 138.915 39.9885 138.564 40.1775C137.592 40.6905 136.773 41.073 136.107 41.325C135.45 41.577 134.802 41.7525 134.163 41.8515C133.524 41.9415 132.737 41.991 131.801 42H131.625V39.462ZM134.109 32.8335L135.554 31.389L136.985 32.8335L135.554 34.2645L134.109 32.8335ZM146.655 45.9825C145.818 45.9825 145.067 45.8295 144.401 45.5235C143.735 45.2175 143.208 44.754 142.821 44.133C142.443 43.521 142.254 42.774 142.254 41.892C142.254 41.784 142.263 41.613 142.281 41.379C142.353 40.524 142.668 39.48 143.226 38.247L144.779 38.9625C144.527 39.5745 144.347 40.0515 144.239 40.3935C144.131 40.7355 144.077 41.1135 144.077 41.5275C144.077 42.8055 144.936 43.4445 146.655 43.4445C147.321 43.4445 147.929 43.359 148.478 43.188C149.036 43.017 149.445 42.81 149.706 42.567C149.472 42.414 149.103 42.225 148.599 42C148.104 41.775 147.596 41.577 147.074 41.406L147.614 39.0165C148.451 39.1785 149.162 39.291 149.747 39.354C150.332 39.417 150.921 39.453 151.515 39.462H151.65L151.785 40.731L151.65 42H151.515C150.903 41.991 150.246 41.937 149.544 41.838C148.842 41.73 148.019 41.586 147.074 41.406L147.614 39.894C148.658 40.281 149.54 40.7265 150.26 41.2305C150.989 41.7345 151.353 42.2385 151.353 42.7425C151.353 43.2195 151.146 43.71 150.732 44.214C150.327 44.718 149.765 45.1365 149.045 45.4695C148.334 45.8115 147.537 45.9825 146.655 45.9825ZM150.967 39.462H151.818C152.862 39.462 153.825 39.3585 154.707 39.1515C155.598 38.9445 156.601 38.5485 157.717 37.9635C158.572 37.5045 159.117 37.2435 159.351 37.1805L159.418 39.2055C158.977 39.1155 158.541 38.9895 158.109 38.8275C157.686 38.6655 157.141 38.418 156.475 38.085C156.142 37.914 155.791 37.779 155.422 37.68C155.062 37.581 154.743 37.5315 154.464 37.5315C153.933 37.5315 153.469 37.7835 153.073 38.2875L151.683 37.248C152.412 35.799 153.361 35.0745 154.531 35.0745C154.918 35.0745 155.292 35.1375 155.652 35.2635C156.012 35.3805 156.543 35.6235 157.245 35.9925C157.758 36.2535 158.19 36.4515 158.541 36.5865C158.901 36.7125 159.301 36.8205 159.742 36.9105L159.823 39.2055C159.643 39.2595 159.211 39.471 158.527 39.84C158.464 39.876 158.257 39.9885 157.906 40.1775C156.934 40.6905 156.115 41.073 155.449 41.325C154.792 41.577 154.144 41.7525 153.505 41.8515C152.866 41.9415 152.079 41.991 151.143 42H150.967V39.462ZM157.056 42.9045L158.244 44.0925L157.056 45.294L155.854 44.0925L157.056 42.9045ZM154.45 42.9045L155.638 44.0925L154.45 45.294L153.249 44.0925L154.45 42.9045ZM155.746 44.754L156.799 45.7935L155.746 46.833L155.058 46.1445L154.707 45.7935L155.746 44.754ZM164.077 42C163.42 42 162.875 41.757 162.443 41.271C162.02 40.776 161.669 40.092 161.39 39.219L162.916 38.2875C163.033 38.7195 163.177 39.0255 163.348 39.2055C163.519 39.3765 163.762 39.462 164.077 39.462H164.225L164.36 40.731L164.225 42H164.077ZM158.339 43.863C158.942 43.593 159.496 43.296 160 42.972C160.513 42.657 160.918 42.36 161.215 42.081C161.521 41.802 161.674 41.5815 161.674 41.4195C161.674 41.0595 161.395 39.9885 160.837 38.2065L162.659 37.4775C162.884 38.0985 163.06 38.76 163.186 39.462C163.312 40.155 163.375 40.8075 163.375 41.4195C163.375 42.3555 163.024 43.2105 162.322 43.9845C161.62 44.7585 160.648 45.4245 159.406 45.9825L158.339 43.863ZM163.559 39.462H163.775C165.233 39.462 166.304 39.381 166.988 39.219C167.672 39.048 168.046 38.778 168.109 38.409C168.145 38.175 168.064 37.95 167.866 37.734C167.668 37.518 167.429 37.3785 167.15 37.3155C167.114 37.3065 167.056 37.302 166.975 37.302C166.723 37.302 166.493 37.383 166.286 37.545C166.088 37.707 165.98 37.9185 165.962 38.1795C165.944 38.4585 166.142 38.7195 166.556 38.9625C166.979 39.1965 167.497 39.3855 168.109 39.5295C168.721 39.6735 169.274 39.7455 169.769 39.7455C170.363 39.7455 170.701 39.642 170.782 39.435C170.809 39.363 170.822 39.3 170.822 39.246C170.822 38.949 170.539 38.652 169.972 38.355C169.414 38.058 168.698 37.7745 167.825 37.5045C166.961 37.2345 165.778 36.897 164.275 36.492L165.22 34.143C167.101 34.674 168.577 35.1915 169.648 35.6955C170.728 36.1905 171.488 36.6945 171.929 37.2075C172.379 37.7205 172.604 38.2965 172.604 38.9355C172.604 39.3495 172.51 39.8535 172.321 40.4475C172.159 40.9425 171.821 41.3115 171.308 41.5545C170.795 41.7975 170.183 41.919 169.472 41.919C168.662 41.919 167.843 41.775 167.015 41.487C166.196 41.19 165.517 40.7805 164.977 40.2585C164.446 39.7365 164.18 39.1515 164.18 38.5035C164.18 38.2785 164.212 38.067 164.275 37.869C164.563 36.888 164.968 36.132 165.49 35.601C166.021 35.061 166.628 34.827 167.312 34.899C167.735 34.935 168.118 35.1105 168.46 35.4255C168.811 35.7405 169.085 36.141 169.283 36.627C169.481 37.104 169.58 37.599 169.58 38.112C169.58 38.301 169.567 38.49 169.54 38.679C169.405 39.534 169.121 40.2045 168.689 40.6905C168.257 41.1675 167.65 41.505 166.867 41.703C166.084 41.901 165.053 42 163.775 42H163.559V39.462Z" fill="#FECE00"/>
<g filter="url(#filter0_d_11691_2)">
<path d="M106.282 14.3349C106.295 13.7023 106.45 13.1437 106.746 12.6591C107.042 12.1746 107.439 11.8112 107.938 11.5689C108.436 11.3266 108.994 11.2324 109.613 11.2862C110.138 10.0748 110.771 9.15955 111.511 8.54039C112.251 7.90777 113.025 7.59146 113.833 7.59146C114.627 7.59146 115.314 7.8472 115.892 8.35868C116.485 8.8567 116.929 9.50951 117.225 10.3171C117.534 11.1112 117.689 11.9458 117.689 12.8207C117.689 13.6686 117.541 14.4493 117.245 15.1627C116.949 15.8626 116.512 16.401 115.933 16.7779C115.583 17.0067 115.172 17.1211 114.701 17.1211C114.149 17.1211 113.436 16.9663 112.561 16.6568C111.7 16.3337 110.596 15.8222 109.25 15.1223C109.236 16.4818 109.317 18.2047 109.492 20.291C109.681 22.3907 109.822 23.8242 109.916 24.5914L106.787 25.3183C106.679 24.2011 106.565 22.7205 106.443 20.8765C106.322 19.0325 106.262 17.2827 106.262 15.6271C106.262 15.0348 106.268 14.6041 106.282 14.3349ZM112.157 12.5178C112.749 12.8812 113.281 13.1706 113.752 13.386C114.223 13.5879 114.573 13.6888 114.802 13.6888C114.91 13.6888 114.984 13.6686 115.024 13.6283C115.172 13.4937 115.246 13.2648 115.246 12.9418C115.246 12.4842 115.105 12.0467 114.822 11.6295C114.553 11.1987 114.196 10.9834 113.752 10.9834C113.523 10.9834 113.281 11.0911 113.025 11.3064C112.77 11.5218 112.48 11.9256 112.157 12.5178ZM118.534 16.8789C118.695 15.8694 118.776 14.4426 118.776 12.5986C118.776 10.7546 118.702 8.80286 118.554 6.74348C118.42 4.6841 118.265 3.15639 118.09 2.16035L121.219 1.4537C121.354 2.38244 121.475 3.79574 121.583 5.6936C121.69 7.578 121.744 9.44221 121.744 11.2862C121.744 13.8302 121.636 15.7953 121.421 17.1817L118.534 16.8789ZM122.45 19.6853C124.066 19.3353 125.358 18.9719 126.327 18.595C127.296 18.2181 128.009 17.7807 128.467 17.2827C128.925 16.7846 129.153 16.1857 129.153 15.4857C129.153 14.6647 129.032 13.8907 128.79 13.1639C128.561 12.4236 128.258 11.8314 127.881 11.3872C127.505 10.943 127.114 10.7209 126.71 10.7209C126.334 10.7209 126.011 10.8892 125.741 11.2257C125.486 11.5487 125.358 11.8785 125.358 12.215C125.358 12.363 125.398 12.4909 125.479 12.5986C125.694 12.8139 126.078 12.9956 126.63 13.1437C127.195 13.2783 127.821 13.3456 128.507 13.3456C128.898 13.3456 129.342 13.312 129.84 13.2447V16.7779C129.14 16.9529 128.427 17.0404 127.7 17.0404C126.663 17.0404 125.748 16.8452 124.954 16.4549C124.16 16.0645 123.594 15.4992 123.258 14.7589C123.016 14.234 122.895 13.6081 122.895 12.8812C122.895 12.0198 123.076 11.1651 123.44 10.3171C123.803 9.46913 124.301 8.77594 124.934 8.23754C125.566 7.69914 126.273 7.42994 127.054 7.42994C127.888 7.42994 128.655 7.7799 129.355 8.47982C130.055 9.17974 130.607 10.1152 131.011 11.2862C131.415 12.4572 131.617 13.7292 131.617 15.1021C131.617 16.4481 131.294 17.6595 130.647 18.7363C130.015 19.8131 129.1 20.7082 127.902 21.4216C126.704 22.1485 125.284 22.6599 123.642 22.9561L122.45 19.6853ZM138.284 22.9561C137.033 22.9561 135.909 22.7272 134.913 22.2696C133.917 21.812 133.129 21.1188 132.55 20.19C131.985 19.2747 131.702 18.1576 131.702 16.8385C131.702 16.677 131.716 16.4212 131.743 16.0713C131.85 14.7926 132.322 13.2312 133.156 11.3872L135.478 12.4572C135.101 13.3725 134.832 14.0859 134.67 14.5974C134.509 15.1089 134.428 15.6742 134.428 16.2933C134.428 18.2047 135.713 19.1603 138.284 19.1603C139.28 19.1603 140.189 19.0325 141.01 18.7767C141.845 18.521 142.457 18.2114 142.847 17.848C142.497 17.6192 141.945 17.3365 141.192 17C140.451 16.6635 139.691 16.3674 138.91 16.1116L139.718 12.538C140.97 12.7803 142.033 12.9485 142.908 13.0428C143.783 13.137 144.664 13.1908 145.553 13.2043H145.755L145.957 15.1021L145.755 17H145.553C144.637 16.9865 143.655 16.9058 142.605 16.7577C141.555 16.5962 140.324 16.3808 138.91 16.1116L139.718 13.8504C141.279 14.4291 142.598 15.0954 143.675 15.8492C144.765 16.6029 145.31 17.3567 145.31 18.1105C145.31 18.8238 145.001 19.5574 144.382 20.3112C143.776 21.0649 142.935 21.6908 141.858 22.1888C140.795 22.7003 139.603 22.9561 138.284 22.9561ZM153.318 4.52258L147.806 6.84443C148.519 7.50397 149.28 8.36541 150.087 9.42875C150.895 10.4921 151.299 11.6093 151.299 12.7803C151.299 12.9956 151.279 13.2043 151.238 13.4062C151.009 14.6041 150.282 15.5059 149.058 16.1116C147.846 16.7039 146.345 17 144.555 17H143.748V13.2043H144.555C145.538 13.2043 146.393 13.137 147.119 13.0024C147.846 12.8543 148.358 12.6861 148.654 12.4976C148.183 11.7439 147.644 11.0238 147.039 10.3373C146.446 9.63738 145.578 8.81632 144.434 7.87412L144.737 4.66391L152.308 1.51427L153.318 4.52258ZM150.888 19.7862C151.79 19.3824 152.618 18.9382 153.372 18.4537C154.139 17.9826 154.745 17.5384 155.189 17.1211C155.646 16.7039 155.875 16.3741 155.875 16.1318C155.875 15.5934 155.458 13.9917 154.623 11.3266L157.349 10.2363C157.686 11.1651 157.948 12.1544 158.136 13.2043C158.325 14.2407 158.419 15.2165 158.419 16.1318C158.419 17.5317 157.894 18.8104 156.844 19.9679C155.794 21.1255 154.341 22.1215 152.483 22.9561L150.888 19.7862ZM153.452 6.35987L155.613 4.19954L157.753 6.35987L155.613 8.50001L153.452 6.35987ZM159.49 16.8789C159.652 15.8694 159.733 14.4426 159.733 12.5986C159.733 10.7546 159.659 8.80286 159.511 6.74348C159.376 4.6841 159.221 3.15639 159.046 2.16035L162.176 1.4537C162.31 2.38244 162.431 3.79574 162.539 5.6936C162.647 7.578 162.701 9.44221 162.701 11.2862C162.701 13.8302 162.593 15.7953 162.378 17.1817L159.49 16.8789Z" fill="white"/>
</g>
<defs>
<filter id="filter0_d_11691_2" x="105.266" y="1.45312" width="58.4375" height="26.8652" filterUnits="userSpaceOnUse" color-interpolation-filters="sRGB">
<feFlood flood-opacity="0" result="BackgroundImageFix"/>
<feColorMatrix in="SourceAlpha" type="matrix" values="0 0 0 0 0 0 0 0 0 0 0 0 0 0 0 0 0 0 127 0" result="hardAlpha"/>
<feOffset dy="2"/>
<feGaussianBlur stdDeviation="0.5"/>
<feComposite in2="hardAlpha" operator="out"/>
<feColorMatrix type="matrix" values="0 0 0 0 0 0 0 0 0 0 0 0 0 0 0 0 0 0 0.25 0"/>
<feBlend mode="normal" in2="BackgroundImageFix" result="effect1_dropShadow_11691_2"/>
<feBlend mode="normal" in="SourceGraphic" in2="effect1_dropShadow_11691_2" result="shape"/>
</filter>
</defs>
</svg>
