<svg width="158" height="51" viewBox="0 0 158 51" fill="none" xmlns="http://www.w3.org/2000/svg">
<path d="M87.3012 17.0788C86.846 17.0963 86.4696 16.9475 86.1719 16.6323C85.8831 16.3172 85.7386 15.9189 85.7386 15.4374C85.7386 14.8596 85.9137 14.2731 86.2639 13.6778C86.614 13.0826 87.0736 12.6011 87.6426 12.2334L88.483 13.0607C88.0716 13.3758 87.7739 13.6516 87.5901 13.8879C87.4063 14.1243 87.2487 14.3563 87.1174 14.5839C87.1349 14.5839 87.1612 14.5795 87.1962 14.5707C87.2399 14.562 87.2837 14.5576 87.3275 14.5576C87.6601 14.5576 87.9446 14.6802 88.181 14.9253C88.4261 15.1616 88.5487 15.4549 88.5487 15.8051C88.5487 16.1465 88.4217 16.4441 88.1679 16.698C87.9228 16.9519 87.6339 17.0788 87.3012 17.0788ZM152.642 7.08603C152.747 7.84763 152.826 8.8456 152.879 10.0799C152.94 11.3055 152.97 12.4348 152.97 13.4677C152.97 13.8179 153.001 14.0893 153.062 14.2819C153.124 14.4657 153.229 14.597 153.378 14.6758C153.526 14.7546 153.745 14.794 154.034 14.794H154.087L154.205 15.897L154.087 17H154.034C153.054 17 152.34 16.7155 151.894 16.1465C151.447 15.5687 151.22 14.7064 151.211 13.5597C151.176 11.0122 151.049 8.99004 150.83 7.49309L152.642 7.08603ZM153.446 14.794H154.142C155.28 14.794 155.849 14.5445 155.849 14.0455C155.849 13.8879 155.749 13.5246 155.547 12.9556C155.355 12.3866 155.215 12.0102 155.127 11.8264L156.663 10.986C156.83 11.3361 157 11.8307 157.175 12.4698C157.359 13.1001 157.451 13.656 157.451 14.1374C157.451 15.0741 157.167 15.7876 156.598 16.2778C156.029 16.7593 155.21 17 154.142 17H153.446V14.794ZM153.157 19.2585C153.157 19.2585 153.446 18.9697 154.024 18.3919L154.47 17.9454L155.77 19.2585L154.47 20.5585L153.157 19.2585ZM2.99451 39.072H1.54251L1.32651 33.18H3.21051L2.99451 39.072ZM2.26251 42.192C1.95051 42.192 1.69051 42.084 1.48251 41.868C1.27451 41.652 1.17051 41.388 1.17051 41.076C1.17051 40.772 1.27451 40.52 1.48251 40.32C1.69051 40.112 1.95051 40.008 2.26251 40.008C2.57451 40.008 2.83451 40.112 3.04251 40.32C3.25051 40.52 3.35451 40.772 3.35451 41.076C3.35451 41.388 3.25051 41.652 3.04251 41.868C2.83451 42.084 2.57451 42.192 2.26251 42.192ZM11.6179 38.868C11.7619 39.292 11.9059 39.584 12.0499 39.744C12.1939 39.904 12.4099 39.984 12.6979 39.984H12.7939L12.9019 40.992L12.7939 42H12.6979C12.1459 42 11.7059 41.788 11.3779 41.364C11.0499 40.94 10.7539 40.34 10.4899 39.564L11.6179 38.868ZM6.25392 39.348C6.03792 39.876 5.87792 40.308 5.77392 40.644C5.67792 40.972 5.62992 41.324 5.62992 41.7C5.62992 42.908 6.41392 43.512 7.98192 43.512C8.51792 43.512 8.98992 43.42 9.39792 43.236C9.81392 43.06 10.1339 42.824 10.3579 42.528C10.5899 42.232 10.7059 41.912 10.7059 41.568C10.7059 41.2 10.5739 40.648 10.3099 39.912C10.0539 39.176 9.91792 38.78 9.90192 38.724L11.3059 37.956C11.8339 39.316 12.0979 40.52 12.0979 41.568C12.0979 42.296 11.9219 42.96 11.5699 43.56C11.2179 44.168 10.7299 44.648 10.1059 45C9.48192 45.352 8.77392 45.528 7.98192 45.528C7.23792 45.528 6.57392 45.388 5.98992 45.108C5.41392 44.828 4.96192 44.416 4.63392 43.872C4.30592 43.336 4.14192 42.696 4.14192 41.952C4.14192 41.784 4.14592 41.656 4.15392 41.568C4.20992 40.776 4.48992 39.844 4.99392 38.772L6.25392 39.348ZM7.02192 37.932C7.02192 37.932 7.28592 37.668 7.81392 37.14L8.22192 36.732L9.40992 37.932L8.22192 39.12L7.02192 37.932ZM17.8317 34.536L14.4597 35.964C14.9077 36.372 15.3757 36.904 15.8637 37.56C16.3517 38.208 16.5957 38.868 16.5957 39.54C16.5957 39.7 16.5797 39.844 16.5477 39.972C16.4037 40.652 15.9797 41.16 15.2757 41.496C14.5717 41.832 13.6917 42 12.6357 42H12.1917V39.984H12.6357C13.2757 39.984 13.8117 39.936 14.2437 39.84C14.6837 39.744 14.9837 39.62 15.1437 39.468C14.8077 38.604 13.9717 37.624 12.6357 36.528L12.8037 34.8L17.2797 32.928L17.8317 34.536ZM23.6118 42.156C23.5958 41.708 23.5878 41.372 23.5878 41.148C23.5878 40.916 23.5958 40.576 23.6118 40.128C24.6838 40.128 25.4998 40.068 26.0598 39.948C26.6278 39.828 27.0558 39.628 27.3438 39.348C27.6398 39.068 27.8958 38.648 28.1118 38.088L29.4678 38.244C29.3078 38.724 29.2278 39.084 29.2278 39.324C29.2278 39.556 29.2878 39.724 29.4078 39.828C29.5278 39.924 29.7078 39.972 29.9478 39.972L30.0558 40.992L29.9478 42C29.6278 42 29.3238 41.928 29.0358 41.784C28.7558 41.632 28.5318 41.428 28.3638 41.172C28.1958 40.916 28.1158 40.628 28.1238 40.308L28.3638 40.368C27.8438 41.048 27.2118 41.516 26.4678 41.772C25.7318 42.028 24.7798 42.156 23.6118 42.156ZM20.7078 37.656C20.5078 38.304 20.4078 38.784 20.4078 39.096C20.4078 39.272 20.5358 39.44 20.7918 39.6C21.0558 39.76 21.4358 39.888 21.9318 39.984C22.4358 40.08 23.0318 40.128 23.7198 40.128C23.7438 40.496 23.7558 40.856 23.7558 41.208C23.7558 41.528 23.7438 41.844 23.7198 42.156C22.2718 42.164 21.1318 41.94 20.2998 41.484C19.4678 41.028 19.0158 40.392 18.9438 39.576C18.9358 39.512 18.9318 39.416 18.9318 39.288C18.9318 38.936 18.9798 38.556 19.0758 38.148C19.1718 37.74 19.2918 37.376 19.4358 37.056L20.7078 37.656ZM23.0718 35.736L24.1278 36.804L23.0718 37.872L22.7118 37.512C22.2398 37.04 22.0038 36.804 22.0038 36.804L23.0718 35.736ZM25.1598 35.736L26.2158 36.804L25.1598 37.872L24.7998 37.512C24.3278 37.04 24.0918 36.804 24.0918 36.804L25.1598 35.736ZM29.349 39.984H30.177C31.113 39.984 31.985 39.888 32.793 39.696C33.601 39.496 34.489 39.14 35.457 38.628C36.161 38.252 36.641 38.028 36.897 37.956L36.957 39.48C36.541 39.408 36.141 39.308 35.757 39.18C35.373 39.044 34.905 38.836 34.353 38.556C34.033 38.396 33.709 38.272 33.381 38.184C33.061 38.088 32.773 38.04 32.517 38.04C32.229 38.04 31.973 38.116 31.749 38.268C31.533 38.42 31.361 38.588 31.233 38.772L30.117 37.944C30.741 36.704 31.565 36.084 32.589 36.084C32.933 36.084 33.261 36.14 33.573 36.252C33.893 36.364 34.357 36.576 34.965 36.888C35.421 37.128 35.809 37.308 36.129 37.428C36.457 37.548 36.817 37.648 37.209 37.728L37.269 39.552C37.061 39.608 36.677 39.796 36.117 40.116L35.661 40.356C34.829 40.788 34.121 41.12 33.537 41.352C32.953 41.584 32.365 41.748 31.773 41.844C31.181 41.94 30.489 41.992 29.697 42H29.349V39.984ZM31.629 34.116C31.629 34.116 31.893 33.852 32.421 33.324L32.829 32.916L34.017 34.116L32.829 35.304L31.629 34.116ZM37.8402 41.928C37.9282 41.4 37.9722 40.56 37.9722 39.408C37.9722 38.304 37.9322 37.148 37.8522 35.94C37.7802 34.724 37.6962 33.848 37.6002 33.312L39.2802 32.94C39.3602 33.444 39.4282 34.268 39.4842 35.412C39.5482 36.548 39.5802 37.672 39.5802 38.784C39.5802 40.208 39.5242 41.312 39.4122 42.096L37.8402 41.928ZM40.6245 39.66C40.8965 39.788 41.1845 39.904 41.4885 40.008C41.8005 40.104 42.1685 40.152 42.5925 40.152C43.0165 40.144 43.3685 40.1 43.6485 40.02C43.9285 39.932 44.1125 39.84 44.2005 39.744C44.2165 39.624 44.1605 39.44 44.0325 39.192C43.9125 38.936 43.6645 38.616 43.2885 38.232C42.9205 37.84 42.3925 37.416 41.7045 36.96L42.6645 35.184C43.6005 35.832 44.3445 36.56 44.8965 37.368C45.4565 38.168 45.7365 38.936 45.7365 39.672C45.7365 40.016 45.6725 40.332 45.5445 40.62C45.3445 41.084 44.9845 41.44 44.4645 41.688C43.9525 41.936 43.3925 42.06 42.7845 42.06C42.0645 42.06 41.4645 41.948 40.9845 41.724C40.5125 41.5 40.1565 41.284 39.9165 41.076L40.6245 39.66ZM49.4842 42C48.9162 42 48.4522 41.792 48.0922 41.376C47.7402 40.96 47.4442 40.376 47.2042 39.624L48.4282 38.88C48.5402 39.288 48.6722 39.576 48.8242 39.744C48.9842 39.904 49.2042 39.984 49.4842 39.984H49.6042L49.7122 40.992L49.6042 42H49.4842ZM44.5162 43.824C45.0442 43.6 45.5322 43.344 45.9802 43.056C46.4282 42.776 46.7802 42.5 47.0362 42.228C47.3002 41.964 47.4322 41.748 47.4322 41.58C47.4322 41.316 47.2202 40.456 46.7962 39L46.7122 38.7L48.2002 38.112C48.3922 38.664 48.5442 39.252 48.6562 39.876C48.7682 40.5 48.8242 41.068 48.8242 41.58C48.8242 42.388 48.5122 43.128 47.8882 43.8C47.2642 44.48 46.4202 45.052 45.3562 45.516L44.5162 43.824ZM49.6155 39.984H50.2155C50.9835 39.984 51.5275 39.92 51.8475 39.792C52.1755 39.664 52.3395 39.476 52.3395 39.228C52.3395 39.076 52.2515 38.76 52.0755 38.28C51.8995 37.792 51.7675 37.456 51.6795 37.272L53.0715 36.504C53.2315 36.84 53.3915 37.288 53.5515 37.848C53.7195 38.408 53.8035 38.904 53.8035 39.336C53.8035 40.192 53.5275 40.852 52.9755 41.316C52.4235 41.772 51.6115 42 50.5395 42H49.6155V39.984ZM52.4115 42.828L53.4195 43.836L52.4115 44.844L51.4035 43.836L52.4115 42.828ZM50.1075 42.828L51.1155 43.836L50.1075 44.844L49.0995 43.836L50.1075 42.828ZM51.2595 44.412C51.5635 44.7 51.8595 44.996 52.1475 45.3L51.2595 46.176C51.0675 45.976 50.7715 45.684 50.3715 45.3L51.2595 44.412ZM49.0275 42L48.9195 40.992L49.0275 39.984H49.6995V42H49.0275ZM56.2175 41.928C56.3055 41.4 56.3495 40.56 56.3495 39.408C56.3495 38.304 56.3095 37.148 56.2295 35.94C56.1575 34.724 56.0735 33.848 55.9775 33.312L57.6575 32.94C57.7375 33.444 57.8055 34.268 57.8615 35.412C57.9255 36.548 57.9575 37.672 57.9575 38.784C57.9575 40.208 57.9015 41.312 57.7895 42.096L56.2175 41.928ZM62.2058 35.34L63.8498 39.228C63.9778 39.524 64.1178 39.724 64.2698 39.828C64.4218 39.932 64.6498 39.984 64.9538 39.984H65.0978L65.2058 40.992L65.0978 42H64.9538C64.4018 42 63.9418 41.844 63.5738 41.532C63.2058 41.212 62.8738 40.708 62.5778 40.02L60.8498 36.072L62.2058 35.34ZM59.0018 39.66C59.6258 39.988 60.2658 40.152 60.9218 40.152C61.4498 40.152 61.8698 40.076 62.1818 39.924C62.5018 39.764 62.7258 39.604 62.8538 39.444L63.7538 40.62C63.6178 40.828 63.4618 41.028 63.2858 41.22C63.1098 41.412 62.8338 41.604 62.4578 41.796C62.0898 41.98 61.6458 42.072 61.1258 42.072C60.1418 42.072 59.1978 41.74 58.2938 41.076L59.0018 39.66ZM64.4976 39.984H64.8456C66.2936 39.984 67.3816 39.8 68.1096 39.432C68.8376 39.064 69.3216 38.64 69.5616 38.16C69.4816 38.04 69.3336 37.948 69.1176 37.884C68.9016 37.812 68.6536 37.776 68.3736 37.776C68.1016 37.776 67.8296 37.808 67.5576 37.872C67.2936 37.936 67.0656 38.028 66.8736 38.148C67.4816 38.796 68.1136 39.264 68.7696 39.552C69.4256 39.84 70.2056 39.984 71.1096 39.984H71.5056L71.6136 40.992L71.5056 42H71.1096C70.2296 42 69.4696 41.896 68.8296 41.688C68.1896 41.48 67.5776 41.132 66.9936 40.644C66.4096 40.148 65.7576 39.444 65.0376 38.532L65.0856 37.188C65.4536 36.82 65.9136 36.54 66.4656 36.348C67.0176 36.156 67.5896 36.06 68.1816 36.06C68.9016 36.06 69.5336 36.196 70.0776 36.468C70.6216 36.732 70.9536 37.096 71.0736 37.56C71.1056 37.664 71.1216 37.788 71.1216 37.932C71.1216 38.548 70.8056 39.176 70.1736 39.816C69.5416 40.448 68.7376 40.972 67.7616 41.388C66.7856 41.796 65.8136 42 64.8456 42H64.4976V39.984ZM70.9082 39.984H71.5442C72.5842 39.984 73.1042 39.756 73.1042 39.3C73.1042 39.156 73.0122 38.824 72.8282 38.304C72.6522 37.784 72.5242 37.44 72.4442 37.272L73.8482 36.504C74.0002 36.824 74.1562 37.276 74.3162 37.86C74.4842 38.436 74.5682 38.944 74.5682 39.384C74.5682 40.24 74.3082 40.892 73.7882 41.34C73.2682 41.78 72.5202 42 71.5442 42H70.9082V39.984ZM70.6442 44.064C70.6442 44.064 70.9082 43.8 71.4362 43.272L71.8442 42.864L73.0322 44.064L71.8442 45.252L70.6442 44.064ZM78.3415 42.072C77.9255 42.088 77.5815 41.952 77.3095 41.664C77.0455 41.376 76.9135 41.012 76.9135 40.572C76.9135 40.044 77.0735 39.508 77.3935 38.964C77.7135 38.42 78.1335 37.98 78.6535 37.644L79.4215 38.4C79.0455 38.688 78.7735 38.94 78.6055 39.156C78.4375 39.372 78.2935 39.584 78.1735 39.792C78.1895 39.792 78.2135 39.788 78.2455 39.78C78.2855 39.772 78.3255 39.768 78.3655 39.768C78.6695 39.768 78.9295 39.88 79.1455 40.104C79.3695 40.32 79.4815 40.588 79.4815 40.908C79.4815 41.22 79.3655 41.492 79.1335 41.724C78.9095 41.956 78.6455 42.072 78.3415 42.072ZM84.633 42C84.065 42 83.601 41.792 83.241 41.376C82.889 40.96 82.593 40.376 82.353 39.624L83.577 38.88C83.689 39.288 83.821 39.576 83.973 39.744C84.133 39.904 84.353 39.984 84.633 39.984H84.753L84.861 40.992L84.753 42H84.633ZM79.665 43.824C80.193 43.6 80.681 43.344 81.129 43.056C81.577 42.776 81.929 42.5 82.185 42.228C82.449 41.964 82.581 41.748 82.581 41.58C82.581 41.316 82.369 40.456 81.945 39L81.861 38.7L83.349 38.112C83.541 38.664 83.693 39.252 83.805 39.876C83.917 40.5 83.973 41.068 83.973 41.58C83.973 42.388 83.661 43.128 83.037 43.8C82.413 44.48 81.569 45.052 80.505 45.516L79.665 43.824ZM93.3443 39.984L93.4523 40.992L93.3443 42H93.2123C91.4043 41.992 90.2763 41.32 89.8283 39.984L90.8363 39.036C90.8763 39.164 90.9723 39.3 91.1243 39.444C91.2763 39.588 91.4763 39.716 91.7243 39.828C91.9803 39.932 92.2683 39.984 92.5883 39.984H93.3443ZM84.1403 39.984H84.9683C85.9043 39.984 86.7763 39.888 87.5843 39.696C88.3923 39.496 89.2803 39.14 90.2483 38.628C90.9523 38.252 91.4323 38.028 91.6883 37.956L91.7483 39.48C91.3323 39.408 90.9323 39.308 90.5483 39.18C90.1643 39.044 89.6963 38.836 89.1443 38.556C88.8243 38.396 88.5003 38.272 88.1723 38.184C87.8523 38.088 87.5643 38.04 87.3083 38.04C87.0203 38.04 86.7643 38.116 86.5403 38.268C86.3243 38.42 86.1523 38.588 86.0243 38.772L84.9083 37.944C85.5323 36.704 86.3563 36.084 87.3803 36.084C87.7243 36.084 88.0523 36.14 88.3643 36.252C88.6843 36.364 89.1483 36.576 89.7563 36.888C90.2123 37.128 90.6003 37.308 90.9203 37.428C91.2483 37.548 91.6083 37.648 92.0003 37.728L92.0603 39.552C91.8523 39.608 91.4683 39.796 90.9083 40.116L90.4523 40.356C89.6203 40.788 88.9123 41.12 88.3283 41.352C87.7443 41.584 87.1563 41.748 86.5643 41.844C85.9723 41.94 85.2803 41.992 84.4883 42H84.1403V39.984ZM86.4203 34.116C86.4203 34.116 86.6843 33.852 87.2123 33.324L87.6203 32.916L88.8083 34.116L87.6203 35.304L86.4203 34.116ZM92.7426 39.984H93.3786C94.4186 39.984 94.9386 39.756 94.9386 39.3C94.9386 39.156 94.8466 38.824 94.6626 38.304C94.4866 37.784 94.3586 37.44 94.2786 37.272L95.6826 36.504C95.8346 36.824 95.9906 37.276 96.1506 37.86C96.3186 38.436 96.4026 38.944 96.4026 39.384C96.4026 40.24 96.1426 40.892 95.6226 41.34C95.1026 41.78 94.3546 42 93.3786 42H92.7426V39.984ZM92.4786 44.064C92.4786 44.064 92.7426 43.8 93.2706 43.272L93.6786 42.864L94.8666 44.064L93.6786 45.252L92.4786 44.064Z" fill="white"/>
<path d="M111.98 39.462H112.02C112.308 39.462 112.565 39.4035 112.79 39.2865C113.015 39.1605 113.132 39.0075 113.141 38.8275L114.68 38.976C114.644 39.516 114.504 40.02 114.261 40.488C114.018 40.947 113.699 41.316 113.303 41.595C112.907 41.865 112.479 42 112.02 42H111.98V39.462ZM115.746 39.462L115.868 40.731L115.719 42H115.652C115.076 42 114.581 41.811 114.167 41.433C113.753 41.046 113.424 40.497 113.181 39.786C113.1 39.552 112.943 38.7915 112.709 37.5045L114.369 37.0455C114.468 37.6125 114.545 38.0355 114.599 38.3145C114.662 38.5845 114.725 38.805 114.788 38.976C114.842 39.138 114.936 39.2595 115.071 39.3405C115.206 39.4215 115.4 39.462 115.652 39.462H115.746ZM108.389 42V39.462H108.47C108.893 39.462 109.199 39.2595 109.388 38.8545C109.559 38.4945 109.707 38.0085 109.833 37.3965L111.494 37.464C111.467 37.617 111.435 37.824 111.399 38.085C111.372 38.337 111.359 38.535 111.359 38.679C111.359 38.913 111.413 39.102 111.521 39.246C111.638 39.39 111.809 39.462 112.034 39.462H112.074L112.209 40.731L112.074 42H112.034C111.575 42 111.17 41.8875 110.819 41.6625C110.477 41.4285 110.211 41.1 110.022 40.677L110.454 40.65C110.139 41.118 109.824 41.46 109.509 41.676C109.203 41.892 108.843 42 108.429 42H108.389ZM107.268 38.2875C107.385 38.6115 107.489 38.8545 107.579 39.0165C107.678 39.1695 107.799 39.282 107.943 39.354C108.096 39.426 108.308 39.462 108.578 39.462L108.456 42C107.826 42 107.282 41.7525 106.823 41.2575C106.364 40.7535 105.999 40.074 105.729 39.219L107.268 38.2875ZM101.234 38.9625C100.982 39.5655 100.802 40.0425 100.694 40.3935C100.586 40.7445 100.532 41.127 100.532 41.541C100.532 42.819 101.391 43.458 103.11 43.458C103.686 43.458 104.199 43.3635 104.649 43.1745C105.108 42.9945 105.468 42.747 105.729 42.432C105.99 42.117 106.121 41.775 106.121 41.406C106.121 40.992 105.806 39.939 105.176 38.247L106.904 37.2885C107.201 38.0175 107.426 38.7375 107.579 39.4485C107.741 40.1595 107.822 40.812 107.822 41.406C107.822 42.27 107.615 43.053 107.201 43.755C106.796 44.457 106.233 45.006 105.513 45.402C104.802 45.798 104.001 45.996 103.11 45.996C102.273 45.996 101.522 45.8385 100.856 45.5235C100.19 45.2175 99.6633 44.754 99.2763 44.133C98.8983 43.521 98.7093 42.774 98.7093 41.892C98.7093 41.676 98.7138 41.514 98.7228 41.406C98.7948 40.542 99.1143 39.4935 99.6813 38.2605L101.234 38.9625ZM110.522 32.091L111.575 33.1305L110.522 34.17L109.833 33.4815L109.482 33.1305L110.522 32.091ZM111.831 33.63L113.019 34.818L111.831 36.0195L110.63 34.818L111.831 33.63ZM109.239 33.63L110.427 34.818L109.239 36.0195L108.038 34.818L109.239 33.63ZM115.056 39.462H115.38C116.226 39.462 116.869 39.444 117.31 39.408C117.76 39.372 118.138 39.2865 118.444 39.1515C118.75 39.0075 118.984 38.7825 119.146 38.4765C119.146 38.2425 119.07 38.013 118.917 37.788C118.764 37.554 118.552 37.437 118.282 37.437C118.039 37.437 117.823 37.527 117.634 37.707C117.454 37.887 117.355 38.0805 117.337 38.2875C117.382 38.4585 117.499 38.634 117.688 38.814C117.877 38.994 118.138 39.147 118.471 39.273C118.813 39.399 119.214 39.462 119.673 39.462H121.482L121.617 40.731L121.482 42H120.672C119.718 42 118.854 41.838 118.08 41.514C117.315 41.19 116.716 40.758 116.284 40.218C115.852 39.678 115.636 39.0975 115.636 38.4765C115.636 38.3055 115.645 38.175 115.663 38.085C115.753 37.509 115.929 36.9825 116.19 36.5055C116.46 36.0285 116.788 35.6505 117.175 35.3715C117.562 35.0925 117.976 34.953 118.417 34.953C118.921 34.953 119.358 35.1105 119.727 35.4255C120.105 35.7405 120.388 36.141 120.577 36.627C120.766 37.113 120.861 37.6125 120.861 38.1255C120.861 38.3145 120.847 38.49 120.82 38.652C120.649 39.804 120.118 40.65 119.227 41.19C118.336 41.73 117.054 42 115.38 42H115.056V39.462ZM116.784 32.793L118.228 31.3485L119.659 32.793L118.228 34.224L116.784 32.793ZM127.164 33.657L123.478 35.2095C123.955 35.6505 124.464 36.2265 125.004 36.9375C125.544 37.6485 125.814 38.3955 125.814 39.1785C125.814 39.3225 125.8 39.462 125.773 39.597C125.62 40.398 125.134 41.001 124.315 41.406C123.505 41.802 122.502 42 121.305 42H120.765V39.462H121.305C121.962 39.462 122.533 39.417 123.019 39.327C123.505 39.228 123.847 39.1155 124.045 38.9895C123.73 38.4855 123.37 38.004 122.965 37.545C122.569 37.077 121.989 36.528 121.224 35.898L121.426 33.7515L126.489 31.6455L127.164 33.657ZM127.766 43.7955C128.846 43.5615 129.71 43.3185 130.358 43.0665C131.006 42.8145 131.483 42.522 131.789 42.189C132.095 41.856 132.248 41.4555 132.248 40.9875C132.248 40.4385 132.167 39.921 132.005 39.435C131.852 38.94 131.649 38.544 131.397 38.247C131.145 37.95 130.884 37.8015 130.614 37.8015C130.362 37.8015 130.146 37.914 129.966 38.139C129.795 38.355 129.71 38.5755 129.71 38.8005C129.71 38.8995 129.737 38.985 129.791 39.057C129.935 39.201 130.191 39.3225 130.56 39.4215C130.938 39.5115 131.357 39.5565 131.816 39.5565C132.077 39.5565 132.374 39.534 132.707 39.489V41.8515C132.239 41.9685 131.762 42.027 131.276 42.027C130.583 42.027 129.971 41.8965 129.44 41.6355C128.909 41.3745 128.531 40.9965 128.306 40.5015C128.144 40.1505 128.063 39.732 128.063 39.246C128.063 38.67 128.184 38.0985 128.427 37.5315C128.67 36.9645 129.003 36.501 129.426 36.141C129.849 35.781 130.322 35.601 130.844 35.601C131.402 35.601 131.915 35.835 132.383 36.303C132.851 36.771 133.22 37.3965 133.49 38.1795C133.76 38.9625 133.895 39.813 133.895 40.731C133.895 41.631 133.679 42.441 133.247 43.161C132.824 43.881 132.212 44.4795 131.411 44.9565C130.61 45.4425 129.66 45.7845 128.562 45.9825L127.766 43.7955ZM141.116 42.189L140.981 40.92L141.116 39.651H141.291C142.434 39.651 143.312 39.57 143.924 39.408C144.536 39.237 144.963 38.9265 145.206 38.4765C145.206 38.2425 145.13 38.013 144.977 37.788C144.824 37.554 144.612 37.437 144.342 37.437C144.099 37.437 143.883 37.527 143.694 37.707C143.514 37.887 143.415 38.0805 143.397 38.2875C143.433 38.4585 143.546 38.634 143.735 38.814C143.924 38.994 144.189 39.147 144.531 39.273C144.873 39.399 145.274 39.462 145.733 39.462H147.542L147.677 40.731L147.542 42H146.732C145.778 42 144.914 41.838 144.14 41.514C143.375 41.19 142.776 40.758 142.344 40.218C141.912 39.678 141.696 39.0975 141.696 38.4765C141.696 38.3055 141.705 38.175 141.723 38.085C141.813 37.509 141.989 36.9825 142.25 36.5055C142.52 36.0285 142.848 35.6505 143.235 35.3715C143.622 35.0925 144.036 34.953 144.477 34.953C144.981 34.953 145.418 35.1105 145.787 35.4255C146.165 35.7405 146.448 36.141 146.637 36.627C146.826 37.113 146.921 37.6125 146.921 38.1255C146.921 38.3145 146.907 38.49 146.88 38.652C146.709 39.813 146.151 40.6905 145.206 41.2845C144.261 41.8785 142.956 42.1755 141.291 42.1755L141.116 42.189ZM137.943 37.032C137.925 37.095 137.862 37.3245 137.754 37.7205C137.655 38.1165 137.61 38.4315 137.619 38.6655C137.655 38.8185 137.822 38.9715 138.119 39.1245C138.416 39.2775 138.834 39.4035 139.374 39.5025C139.914 39.6015 140.544 39.651 141.264 39.651C141.291 40.065 141.305 40.488 141.305 40.92C141.305 41.334 141.291 41.7525 141.264 42.1755C140.175 42.1845 139.23 42.072 138.429 41.838C137.628 41.595 137.007 41.253 136.566 40.812C136.125 40.362 135.878 39.8265 135.824 39.2055C135.815 39.1335 135.81 39.0255 135.81 38.8815C135.81 38.4765 135.864 38.04 135.972 37.572C136.08 37.095 136.22 36.672 136.391 36.303L137.943 37.032ZM143.141 32.793L144.585 31.3485L146.016 32.793L144.585 34.224L143.141 32.793ZM146.898 39.462H146.965C147.667 39.462 148.212 39.4305 148.599 39.3675C148.986 39.3045 149.256 39.2055 149.409 39.0705C149.562 38.9265 149.643 38.7375 149.652 38.5035C149.643 38.0985 149.593 37.6575 149.503 37.1805L151.177 36.87C151.303 37.608 151.366 38.3595 151.366 39.1245C151.42 39.2145 151.519 39.2955 151.663 39.3675C151.807 39.4305 151.996 39.462 152.23 39.462H152.284L152.419 40.731L152.284 42H152.217C151.821 42 151.443 41.901 151.083 41.703C150.732 41.496 150.43 41.2305 150.178 40.9065L150.57 41.001C150.264 41.343 149.836 41.595 149.287 41.757C148.747 41.919 147.973 42 146.965 42H146.898V39.462ZM146.709 43.0665L147.978 44.3355L147.127 45.186L146.709 45.6045L146.29 45.186L145.44 44.3355L146.709 43.0665ZM149.044 43.0665L150.313 44.3355L149.463 45.186L149.044 45.6045L148.626 45.186L147.775 44.3355L149.044 43.0665ZM158.003 33.657L154.318 35.2095C154.795 35.6505 155.303 36.2265 155.843 36.9375C156.383 37.6485 156.653 38.3955 156.653 39.1785C156.653 39.3225 156.64 39.462 156.613 39.597C156.46 40.398 155.974 41.001 155.155 41.406C154.345 41.802 153.341 42 152.144 42H151.604V39.462H152.144C152.801 39.462 153.373 39.417 153.859 39.327C154.345 39.228 154.687 39.1155 154.885 38.9895C154.57 38.4855 154.21 38.004 153.805 37.545C153.409 37.077 152.828 36.528 152.063 35.898L152.266 33.7515L157.328 31.6455L158.003 33.657Z" fill="#FECE00"/>
<g filter="url(#filter0_d_11510_10)">
<path d="M91.2819 14.3349C91.2954 13.7023 91.4502 13.1437 91.7463 12.6591C92.0424 12.1746 92.4395 11.8112 92.9375 11.5689C93.4355 11.3266 93.9941 11.2324 94.6133 11.2862C95.1382 10.0748 95.7708 9.15955 96.5111 8.54039C97.2514 7.90777 98.0254 7.59146 98.833 7.59146C99.6271 7.59146 100.314 7.8472 100.892 8.35868C101.485 8.8567 101.929 9.50951 102.225 10.3171C102.534 11.1112 102.689 11.9458 102.689 12.8207C102.689 13.6686 102.541 14.4493 102.245 15.1627C101.949 15.8626 101.512 16.401 100.933 16.7779C100.583 17.0067 100.172 17.1211 99.7012 17.1211C99.1493 17.1211 98.4359 16.9663 97.561 16.6568C96.6996 16.3337 95.5959 15.8222 94.2499 15.1223C94.2364 16.4818 94.3172 18.2047 94.4921 20.291C94.6806 22.3907 94.8219 23.8242 94.9161 24.5914L91.7867 25.3183C91.679 24.2011 91.5646 22.7205 91.4435 20.8765C91.3223 19.0325 91.2617 17.2827 91.2617 15.6271C91.2617 15.0348 91.2685 14.6041 91.2819 14.3349ZM97.1572 12.5178C97.7495 12.8812 98.2811 13.1706 98.7522 13.386C99.2233 13.5879 99.5733 13.6888 99.8021 13.6888C99.9098 13.6888 99.9838 13.6686 100.024 13.6283C100.172 13.4937 100.246 13.2648 100.246 12.9418C100.246 12.4842 100.105 12.0467 99.8223 11.6295C99.5531 11.1987 99.1964 10.9834 98.7522 10.9834C98.5234 10.9834 98.2811 11.0911 98.0254 11.3064C97.7697 11.5218 97.4803 11.9256 97.1572 12.5178ZM103.534 16.8789C103.695 15.8694 103.776 14.4426 103.776 12.5986C103.776 10.7546 103.702 8.80286 103.554 6.74348C103.42 4.6841 103.265 3.15639 103.09 2.16035L106.219 1.4537C106.354 2.38244 106.475 3.79574 106.583 5.6936C106.69 7.578 106.744 9.44221 106.744 11.2862C106.744 13.8302 106.636 15.7953 106.421 17.1817L103.534 16.8789ZM107.45 19.6853C109.066 19.3353 110.358 18.9719 111.327 18.595C112.296 18.2181 113.009 17.7807 113.467 17.2827C113.925 16.7846 114.153 16.1857 114.153 15.4857C114.153 14.6647 114.032 13.8907 113.79 13.1639C113.561 12.4236 113.258 11.8314 112.881 11.3872C112.505 10.943 112.114 10.7209 111.71 10.7209C111.334 10.7209 111.011 10.8892 110.741 11.2257C110.486 11.5487 110.358 11.8785 110.358 12.215C110.358 12.363 110.398 12.4909 110.479 12.5986C110.694 12.8139 111.078 12.9956 111.63 13.1437C112.195 13.2783 112.821 13.3456 113.507 13.3456C113.898 13.3456 114.342 13.312 114.84 13.2447V16.7779C114.14 16.9529 113.427 17.0404 112.7 17.0404C111.663 17.0404 110.748 16.8452 109.954 16.4549C109.16 16.0645 108.594 15.4992 108.258 14.7589C108.016 14.234 107.895 13.6081 107.895 12.8812C107.895 12.0198 108.076 11.1651 108.44 10.3171C108.803 9.46913 109.301 8.77594 109.934 8.23754C110.566 7.69914 111.273 7.42994 112.054 7.42994C112.888 7.42994 113.655 7.7799 114.355 8.47982C115.055 9.17974 115.607 10.1152 116.011 11.2862C116.415 12.4572 116.617 13.7292 116.617 15.1021C116.617 16.4481 116.294 17.6595 115.647 18.7363C115.015 19.8131 114.1 20.7082 112.902 21.4216C111.704 22.1485 110.284 22.6599 108.642 22.9561L107.45 19.6853ZM123.284 22.9561C122.033 22.9561 120.909 22.7272 119.913 22.2696C118.917 21.812 118.129 21.1188 117.55 20.19C116.985 19.2747 116.702 18.1576 116.702 16.8385C116.702 16.677 116.716 16.4212 116.743 16.0713C116.85 14.7926 117.322 13.2312 118.156 11.3872L120.478 12.4572C120.101 13.3725 119.832 14.0859 119.67 14.5974C119.509 15.1089 119.428 15.6742 119.428 16.2933C119.428 18.2047 120.713 19.1603 123.284 19.1603C124.28 19.1603 125.189 19.0325 126.01 18.7767C126.845 18.521 127.457 18.2114 127.847 17.848C127.497 17.6192 126.945 17.3365 126.192 17C125.451 16.6635 124.691 16.3674 123.91 16.1116L124.718 12.538C125.97 12.7803 127.033 12.9485 127.908 13.0428C128.783 13.137 129.664 13.1908 130.553 13.2043H130.755L130.957 15.1021L130.755 17H130.553C129.637 16.9865 128.655 16.9058 127.605 16.7577C126.555 16.5962 125.324 16.3808 123.91 16.1116L124.718 13.8504C126.279 14.4291 127.598 15.0954 128.675 15.8492C129.765 16.6029 130.31 17.3567 130.31 18.1105C130.31 18.8238 130.001 19.5574 129.382 20.3112C128.776 21.0649 127.935 21.6908 126.858 22.1888C125.795 22.7003 124.603 22.9561 123.284 22.9561ZM138.318 4.52258L132.806 6.84443C133.519 7.50397 134.28 8.36541 135.087 9.42875C135.895 10.4921 136.299 11.6093 136.299 12.7803C136.299 12.9956 136.279 13.2043 136.238 13.4062C136.009 14.6041 135.282 15.5059 134.058 16.1116C132.846 16.7039 131.345 17 129.555 17H128.748V13.2043H129.555C130.538 13.2043 131.393 13.137 132.119 13.0024C132.846 12.8543 133.358 12.6861 133.654 12.4976C133.183 11.7439 132.644 11.0238 132.039 10.3373C131.446 9.63738 130.578 8.81632 129.434 7.87412L129.737 4.66391L137.308 1.51427L138.318 4.52258ZM135.888 19.7862C136.79 19.3824 137.618 18.9382 138.372 18.4537C139.139 17.9826 139.745 17.5384 140.189 17.1211C140.646 16.7039 140.875 16.3741 140.875 16.1318C140.875 15.5934 140.458 13.9917 139.623 11.3266L142.349 10.2363C142.686 11.1651 142.948 12.1544 143.136 13.2043C143.325 14.2407 143.419 15.2165 143.419 16.1318C143.419 17.5317 142.894 18.8104 141.844 19.9679C140.794 21.1255 139.341 22.1215 137.483 22.9561L135.888 19.7862ZM138.452 6.35987L140.613 4.19954L142.753 6.35987L140.613 8.50001L138.452 6.35987ZM144.49 16.8789C144.652 15.8694 144.733 14.4426 144.733 12.5986C144.733 10.7546 144.659 8.80286 144.511 6.74348C144.376 4.6841 144.221 3.15639 144.046 2.16035L147.176 1.4537C147.31 2.38244 147.431 3.79574 147.539 5.6936C147.647 7.578 147.701 9.44221 147.701 11.2862C147.701 13.8302 147.593 15.7953 147.378 17.1817L144.49 16.8789Z" fill="white"/>
</g>
<defs>
<filter id="filter0_d_11510_10" x="90.2656" y="1.45312" width="58.4375" height="26.8652" filterUnits="userSpaceOnUse" color-interpolation-filters="sRGB">
<feFlood flood-opacity="0" result="BackgroundImageFix"/>
<feColorMatrix in="SourceAlpha" type="matrix" values="0 0 0 0 0 0 0 0 0 0 0 0 0 0 0 0 0 0 127 0" result="hardAlpha"/>
<feOffset dy="2"/>
<feGaussianBlur stdDeviation="0.5"/>
<feComposite in2="hardAlpha" operator="out"/>
<feColorMatrix type="matrix" values="0 0 0 0 0 0 0 0 0 0 0 0 0 0 0 0 0 0 0.25 0"/>
<feBlend mode="normal" in2="BackgroundImageFix" result="effect1_dropShadow_11510_10"/>
<feBlend mode="normal" in="SourceGraphic" in2="effect1_dropShadow_11510_10" result="shape"/>
</filter>
</defs>
</svg>
