<svg width="156" height="51" viewBox="0 0 156 51" fill="none" xmlns="http://www.w3.org/2000/svg">
<g clip-path="url(#clip0_11692_8)">
<path d="M85.3046 17.0787C84.8494 17.0962 84.473 16.9474 84.1753 16.6322C83.8865 16.3171 83.742 15.9188 83.742 15.4373C83.742 14.8595 83.9171 14.273 84.2673 13.6777C84.6174 13.0825 85.077 12.601 85.646 12.2333L86.4864 13.0606C86.075 13.3757 85.7773 13.6515 85.5935 13.8878C85.4097 14.1242 85.2521 14.3562 85.1208 14.5838C85.1383 14.5838 85.1646 14.5794 85.1996 14.5706C85.2433 14.5619 85.2871 14.5575 85.3309 14.5575C85.6635 14.5575 85.948 14.6801 86.1844 14.9252C86.4295 15.1615 86.5521 15.4548 86.5521 15.805C86.5521 16.1464 86.4251 16.444 86.1713 16.6979C85.9262 16.9518 85.6373 17.0787 85.3046 17.0787ZM150.645 7.08594C150.75 7.84754 150.829 8.84551 150.882 10.0798C150.943 11.3054 150.973 12.4347 150.973 13.4676C150.973 13.8178 151.004 14.0892 151.065 14.2818C151.127 14.4656 151.232 14.5969 151.381 14.6757C151.529 14.7545 151.748 14.7939 152.037 14.7939H152.09L152.208 15.8969L152.09 16.9999H152.037C151.057 16.9999 150.343 16.7154 149.897 16.1464C149.45 15.5686 149.223 14.7063 149.214 13.5596C149.179 11.0121 149.052 8.98995 148.833 7.493L150.645 7.08594ZM151.449 14.7939H152.145C153.283 14.7939 153.852 14.5444 153.852 14.0454C153.852 13.8878 153.752 13.5245 153.55 12.9555C153.358 12.3865 153.218 12.0101 153.13 11.8263L154.666 10.9859C154.833 11.336 155.003 11.8306 155.178 12.4697C155.362 13.1 155.454 13.6559 155.454 14.1373C155.454 15.074 155.17 15.7875 154.601 16.2777C154.032 16.7592 153.213 16.9999 152.145 16.9999H151.449V14.7939ZM151.16 19.2584C151.16 19.2584 151.449 18.9696 152.027 18.3918L152.473 17.9453L153.773 19.2584L152.473 20.5584L151.16 19.2584ZM3.02713 39.0719H1.57512L1.35913 33.1799H3.24312L3.02713 39.0719ZM2.29512 42.1919C1.98312 42.1919 1.72312 42.0839 1.51512 41.8679C1.30712 41.6519 1.20312 41.3879 1.20312 41.0759C1.20312 40.7719 1.30712 40.5199 1.51512 40.3199C1.72312 40.1119 1.98312 40.0079 2.29512 40.0079C2.60712 40.0079 2.86712 40.1119 3.07512 40.3199C3.28312 40.5199 3.38713 40.7719 3.38713 41.0759C3.38713 41.3879 3.28312 41.6519 3.07512 41.8679C2.86712 42.0839 2.60712 42.1919 2.29512 42.1919ZM11.6505 38.8679C11.7945 39.2919 11.9385 39.5839 12.0825 39.7439C12.2265 39.9039 12.4425 39.9839 12.7305 39.9839H12.8265L12.9345 40.9919L12.8265 41.9999H12.7305C12.1785 41.9999 11.7385 41.7879 11.4105 41.3639C11.0825 40.9399 10.7865 40.3399 10.5225 39.5639L11.6505 38.8679ZM6.28654 39.3479C6.07054 39.8759 5.91054 40.3079 5.80654 40.6439C5.71054 40.9719 5.66254 41.3239 5.66254 41.6999C5.66254 42.9079 6.44653 43.5119 8.01453 43.5119C8.55053 43.5119 9.02254 43.4199 9.43054 43.2359C9.84654 43.0599 10.1665 42.8239 10.3905 42.5279C10.6225 42.2319 10.7385 41.9119 10.7385 41.5679C10.7385 41.1999 10.6065 40.6479 10.3425 39.9119C10.0865 39.1759 9.95054 38.7799 9.93454 38.7239L11.3385 37.9559C11.8665 39.3159 12.1305 40.5199 12.1305 41.5679C12.1305 42.2959 11.9545 42.9599 11.6025 43.5599C11.2505 44.1679 10.7625 44.6479 10.1385 44.9999C9.51454 45.3519 8.80653 45.5279 8.01453 45.5279C7.27053 45.5279 6.60653 45.3879 6.02253 45.1079C5.44653 44.8279 4.99453 44.4159 4.66653 43.8719C4.33853 43.3359 4.17454 42.6959 4.17454 41.9519C4.17454 41.7839 4.17853 41.6559 4.18653 41.5679C4.24253 40.7759 4.52254 39.8439 5.02654 38.7719L6.28654 39.3479ZM7.05453 37.9319C7.05453 37.9319 7.31854 37.6679 7.84654 37.1399L8.25453 36.7319L9.44254 37.9319L8.25453 39.1199L7.05453 37.9319ZM17.8643 34.5359L14.4923 35.9639C14.9403 36.3719 15.4083 36.9039 15.8963 37.5599C16.3843 38.2079 16.6283 38.8679 16.6283 39.5399C16.6283 39.6999 16.6123 39.8439 16.5803 39.9719C16.4363 40.6519 16.0123 41.1599 15.3083 41.4959C14.6043 41.8319 13.7243 41.9999 12.6683 41.9999H12.2243V39.9839H12.6683C13.3083 39.9839 13.8443 39.9359 14.2763 39.8399C14.7163 39.7439 15.0163 39.6199 15.1763 39.4679C14.8403 38.6039 14.0043 37.6239 12.6683 36.5279L12.8363 34.7999L17.3123 32.9279L17.8643 34.5359ZM23.6444 42.1559C23.6284 41.7079 23.6204 41.3719 23.6204 41.1479C23.6204 40.9159 23.6284 40.5759 23.6444 40.1279C24.7164 40.1279 25.5324 40.0679 26.0924 39.9479C26.6604 39.8279 27.0884 39.6279 27.3764 39.3479C27.6724 39.0679 27.9284 38.6479 28.1444 38.0879L29.5004 38.2439C29.3404 38.7239 29.2604 39.0839 29.2604 39.3239C29.2604 39.5559 29.3204 39.7239 29.4404 39.8279C29.5604 39.9239 29.7404 39.9719 29.9804 39.9719L30.0884 40.9919L29.9804 41.9999C29.6604 41.9999 29.3564 41.9279 29.0684 41.7839C28.7884 41.6319 28.5644 41.4279 28.3964 41.1719C28.2284 40.9159 28.1484 40.6279 28.1564 40.3079L28.3964 40.3679C27.8764 41.0479 27.2444 41.5159 26.5004 41.7719C25.7644 42.0279 24.8124 42.1559 23.6444 42.1559ZM20.7404 37.6559C20.5404 38.3039 20.4404 38.7839 20.4404 39.0959C20.4404 39.2719 20.5684 39.4399 20.8244 39.5999C21.0884 39.7599 21.4684 39.8879 21.9644 39.9839C22.4684 40.0799 23.0644 40.1279 23.7524 40.1279C23.7764 40.4959 23.7884 40.8559 23.7884 41.2079C23.7884 41.5279 23.7764 41.8439 23.7524 42.1559C22.3044 42.1639 21.1644 41.9399 20.3324 41.4839C19.5004 41.0279 19.0484 40.3919 18.9764 39.5759C18.9684 39.5119 18.9644 39.4159 18.9644 39.2879C18.9644 38.9359 19.0124 38.5559 19.1084 38.1479C19.2044 37.7399 19.3244 37.3759 19.4684 37.0559L20.7404 37.6559ZM23.1044 35.7359L24.1604 36.8039L23.1044 37.8719L22.7444 37.5119C22.2724 37.0399 22.0364 36.8039 22.0364 36.8039L23.1044 35.7359ZM25.1924 35.7359L26.2484 36.8039L25.1924 37.8719L24.8324 37.5119C24.3604 37.0399 24.1244 36.8039 24.1244 36.8039L25.1924 35.7359ZM29.3817 39.9839H30.2097C31.1457 39.9839 32.0177 39.8879 32.8257 39.6959C33.6337 39.4959 34.5217 39.1399 35.4897 38.6279C36.1937 38.2519 36.6737 38.0279 36.9297 37.9559L36.9897 39.4799C36.5737 39.4079 36.1737 39.3079 35.7897 39.1799C35.4057 39.0439 34.9377 38.8359 34.3857 38.5559C34.0657 38.3959 33.7417 38.2719 33.4137 38.1839C33.0937 38.0879 32.8057 38.0399 32.5497 38.0399C32.2617 38.0399 32.0057 38.1159 31.7817 38.2679C31.5657 38.4199 31.3937 38.5879 31.2657 38.7719L30.1497 37.9439C30.7737 36.7039 31.5977 36.0839 32.6217 36.0839C32.9657 36.0839 33.2937 36.1399 33.6057 36.2519C33.9257 36.3639 34.3897 36.5759 34.9977 36.8879C35.4537 37.1279 35.8417 37.3079 36.1617 37.4279C36.4897 37.5479 36.8497 37.6479 37.2417 37.7279L37.3017 39.5519C37.0937 39.6079 36.7097 39.7959 36.1497 40.1159L35.6937 40.3559C34.8617 40.7879 34.1537 41.1199 33.5697 41.3519C32.9857 41.5839 32.3977 41.7479 31.8057 41.8439C31.2137 41.9399 30.5217 41.9919 29.7297 41.9999H29.3817V39.9839ZM31.6617 34.1159C31.6617 34.1159 31.9257 33.8519 32.4537 33.3239L32.8617 32.9159L34.0497 34.1159L32.8617 35.3039L31.6617 34.1159ZM37.8728 41.9279C37.9608 41.3999 38.0048 40.5599 38.0048 39.4079C38.0048 38.3039 37.9648 37.1479 37.8848 35.9399C37.8128 34.7239 37.7288 33.8479 37.6328 33.3119L39.3128 32.9399C39.3928 33.4439 39.4608 34.2679 39.5168 35.4119C39.5808 36.5479 39.6128 37.6719 39.6128 38.7839C39.6128 40.2079 39.5568 41.3119 39.4448 42.0959L37.8728 41.9279ZM40.6571 39.6599C40.9291 39.7879 41.2171 39.9039 41.5211 40.0079C41.8331 40.1039 42.2011 40.1519 42.6251 40.1519C43.0491 40.1439 43.4011 40.0999 43.6811 40.0199C43.9611 39.9319 44.1451 39.8399 44.2331 39.7439C44.2491 39.6239 44.1931 39.4399 44.0651 39.1919C43.9451 38.9359 43.6971 38.6159 43.3211 38.2319C42.9531 37.8399 42.4251 37.4159 41.7371 36.9599L42.6971 35.1839C43.6331 35.8319 44.3771 36.5599 44.9291 37.3679C45.4891 38.1679 45.7691 38.9359 45.7691 39.6719C45.7691 40.0159 45.7051 40.3319 45.5771 40.6199C45.3771 41.0839 45.0171 41.4399 44.4971 41.6879C43.9851 41.9359 43.4251 42.0599 42.8171 42.0599C42.0971 42.0599 41.4971 41.9479 41.0171 41.7239C40.5451 41.4999 40.1891 41.2839 39.9491 41.0759L40.6571 39.6599ZM49.5168 41.9999C48.9488 41.9999 48.4848 41.7919 48.1248 41.3759C47.7728 40.9599 47.4768 40.3759 47.2368 39.6239L48.4608 38.8799C48.5728 39.2879 48.7048 39.5759 48.8568 39.7439C49.0168 39.9039 49.2368 39.9839 49.5168 39.9839H49.6368L49.7448 40.9919L49.6368 41.9999H49.5168ZM44.5488 43.8239C45.0768 43.5999 45.5648 43.3439 46.0128 43.0559C46.4608 42.7759 46.8128 42.4999 47.0688 42.2279C47.3328 41.9639 47.4648 41.7479 47.4648 41.5799C47.4648 41.3159 47.2528 40.4559 46.8288 38.9999L46.7448 38.6999L48.2328 38.1119C48.4248 38.6639 48.5768 39.2519 48.6888 39.8759C48.8008 40.4999 48.8568 41.0679 48.8568 41.5799C48.8568 42.3879 48.5448 43.1279 47.9208 43.7999C47.2968 44.4799 46.4528 45.0519 45.3888 45.5159L44.5488 43.8239ZM49.6482 39.9839H50.2482C51.0162 39.9839 51.5602 39.9199 51.8802 39.7919C52.2082 39.6639 52.3722 39.4759 52.3722 39.2279C52.3722 39.0759 52.2842 38.7599 52.1082 38.2799C51.9322 37.7919 51.8002 37.4559 51.7122 37.2719L53.1042 36.5039C53.2642 36.8399 53.4242 37.2879 53.5842 37.8479C53.7522 38.4079 53.8362 38.9039 53.8362 39.3359C53.8362 40.1919 53.5602 40.8519 53.0082 41.3159C52.4562 41.7719 51.6442 41.9999 50.5722 41.9999H49.6482V39.9839ZM52.4442 42.8279L53.4522 43.8359L52.4442 44.8439L51.4362 43.8359L52.4442 42.8279ZM50.1402 42.8279L51.1482 43.8359L50.1402 44.8439L49.1322 43.8359L50.1402 42.8279ZM51.2922 44.4119C51.5962 44.6999 51.8922 44.9959 52.1802 45.2999L51.2922 46.1759C51.1002 45.9759 50.8042 45.6839 50.4042 45.2999L51.2922 44.4119ZM49.0602 41.9999L48.9522 40.9919L49.0602 39.9839H49.7322V41.9999H49.0602ZM56.2501 41.9279C56.3381 41.3999 56.3821 40.5599 56.3821 39.4079C56.3821 38.3039 56.3421 37.1479 56.2621 35.9399C56.1901 34.7239 56.1061 33.8479 56.0101 33.3119L57.6901 32.9399C57.7701 33.4439 57.8381 34.2679 57.8941 35.4119C57.9581 36.5479 57.9901 37.6719 57.9901 38.7839C57.9901 40.2079 57.9341 41.3119 57.8221 42.0959L56.2501 41.9279ZM62.2384 35.3399L63.8824 39.2279C64.0104 39.5239 64.1504 39.7239 64.3024 39.8279C64.4544 39.9319 64.6824 39.9839 64.9864 39.9839H65.1304L65.2384 40.9919L65.1304 41.9999H64.9864C64.4344 41.9999 63.9744 41.8439 63.6064 41.5319C63.2384 41.2119 62.9064 40.7079 62.6104 40.0199L60.8824 36.0719L62.2384 35.3399ZM59.0344 39.6599C59.6584 39.9879 60.2984 40.1519 60.9544 40.1519C61.4824 40.1519 61.9024 40.0759 62.2144 39.9239C62.5344 39.7639 62.7584 39.6039 62.8864 39.4439L63.7864 40.6199C63.6504 40.8279 63.4944 41.0279 63.3184 41.2199C63.1424 41.4119 62.8664 41.6039 62.4904 41.7959C62.1224 41.9799 61.6784 42.0719 61.1584 42.0719C60.1744 42.0719 59.2304 41.7399 58.3264 41.0759L59.0344 39.6599ZM64.5302 39.9839H64.8782C66.3262 39.9839 67.4142 39.7999 68.1422 39.4319C68.8702 39.0639 69.3542 38.6399 69.5942 38.1599C69.5142 38.0399 69.3662 37.9479 69.1502 37.8839C68.9342 37.8119 68.6862 37.7759 68.4062 37.7759C68.1342 37.7759 67.8622 37.8079 67.5902 37.8719C67.3262 37.9359 67.0982 38.0279 66.9062 38.1479C67.5142 38.7959 68.1462 39.2639 68.8022 39.5519C69.4582 39.8399 70.2382 39.9839 71.1422 39.9839H71.5382L71.6462 40.9919L71.5382 41.9999H71.1422C70.2622 41.9999 69.5022 41.8959 68.8622 41.6879C68.2222 41.4799 67.6102 41.1319 67.0262 40.6439C66.4422 40.1479 65.7902 39.4439 65.0702 38.5319L65.1182 37.1879C65.4862 36.8199 65.9462 36.5399 66.4982 36.3479C67.0502 36.1559 67.6222 36.0599 68.2142 36.0599C68.9342 36.0599 69.5662 36.1959 70.1102 36.4679C70.6542 36.7319 70.9862 37.0959 71.1062 37.5599C71.1382 37.6639 71.1542 37.7879 71.1542 37.9319C71.1542 38.5479 70.8382 39.1759 70.2062 39.8159C69.5742 40.4479 68.7702 40.9719 67.7942 41.3879C66.8182 41.7959 65.8462 41.9999 64.8782 41.9999H64.5302V39.9839ZM70.9409 39.9839H71.5769C72.6169 39.9839 73.1369 39.7559 73.1369 39.2999C73.1369 39.1559 73.0449 38.8239 72.8609 38.3039C72.6849 37.7839 72.5569 37.4399 72.4769 37.2719L73.8809 36.5039C74.0329 36.8239 74.1889 37.2759 74.3489 37.8599C74.5169 38.4359 74.6009 38.9439 74.6009 39.3839C74.6009 40.2399 74.3409 40.8919 73.8209 41.3399C73.3009 41.7799 72.5529 41.9999 71.5769 41.9999H70.9409V39.9839ZM70.6769 44.0639C70.6769 44.0639 70.9409 43.7999 71.4689 43.2719L71.8769 42.8639L73.0649 44.0639L71.8769 45.2519L70.6769 44.0639ZM78.3741 42.0719C77.9581 42.0879 77.6141 41.9519 77.3421 41.6639C77.0781 41.3759 76.9461 41.0119 76.9461 40.5719C76.9461 40.0439 77.1061 39.5079 77.4261 38.9639C77.7461 38.4199 78.1661 37.9799 78.6861 37.6439L79.4541 38.3999C79.0781 38.6879 78.8061 38.9399 78.6381 39.1559C78.4701 39.3719 78.3261 39.5839 78.2061 39.7919C78.2221 39.7919 78.2461 39.7879 78.2781 39.7799C78.3181 39.7719 78.3581 39.7679 78.3981 39.7679C78.7021 39.7679 78.9621 39.8799 79.1781 40.1039C79.4021 40.3199 79.5141 40.5879 79.5141 40.9079C79.5141 41.2199 79.3981 41.4919 79.1661 41.7239C78.9421 41.9559 78.6781 42.0719 78.3741 42.0719ZM84.6656 41.9999C84.0976 41.9999 83.6336 41.7919 83.2736 41.3759C82.9216 40.9599 82.6256 40.3759 82.3856 39.6239L83.6096 38.8799C83.7216 39.2879 83.8536 39.5759 84.0056 39.7439C84.1656 39.9039 84.3856 39.9839 84.6656 39.9839H84.7856L84.8936 40.9919L84.7856 41.9999H84.6656ZM79.6976 43.8239C80.2256 43.5999 80.7136 43.3439 81.1616 43.0559C81.6096 42.7759 81.9616 42.4999 82.2176 42.2279C82.4816 41.9639 82.6136 41.7479 82.6136 41.5799C82.6136 41.3159 82.4016 40.4559 81.9776 38.9999L81.8936 38.6999L83.3816 38.1119C83.5736 38.6639 83.7256 39.2519 83.8376 39.8759C83.9496 40.4999 84.0056 41.0679 84.0056 41.5799C84.0056 42.3879 83.6936 43.1279 83.0696 43.7999C82.4456 44.4799 81.6016 45.0519 80.5376 45.5159L79.6976 43.8239ZM93.3769 39.9839L93.4849 40.9919L93.3769 41.9999H93.2449C91.4369 41.9919 90.3089 41.3199 89.8609 39.9839L90.8689 39.0359C90.9089 39.1639 91.0049 39.2999 91.1569 39.4439C91.3089 39.5879 91.5089 39.7159 91.7569 39.8279C92.0129 39.9319 92.3009 39.9839 92.6209 39.9839H93.3769ZM84.1729 39.9839H85.0009C85.9369 39.9839 86.8089 39.8879 87.6169 39.6959C88.4249 39.4959 89.3129 39.1399 90.2809 38.6279C90.9849 38.2519 91.4649 38.0279 91.7209 37.9559L91.7809 39.4799C91.3649 39.4079 90.9649 39.3079 90.5809 39.1799C90.1969 39.0439 89.7289 38.8359 89.1769 38.5559C88.8569 38.3959 88.5329 38.2719 88.2049 38.1839C87.8849 38.0879 87.5969 38.0399 87.3409 38.0399C87.0529 38.0399 86.7969 38.1159 86.5729 38.2679C86.3569 38.4199 86.1849 38.5879 86.0569 38.7719L84.9409 37.9439C85.5649 36.7039 86.3889 36.0839 87.4129 36.0839C87.7569 36.0839 88.0849 36.1399 88.3969 36.2519C88.7169 36.3639 89.1809 36.5759 89.7889 36.8879C90.2449 37.1279 90.6329 37.3079 90.9529 37.4279C91.2809 37.5479 91.6409 37.6479 92.0329 37.7279L92.0929 39.5519C91.8849 39.6079 91.5009 39.7959 90.9409 40.1159L90.4849 40.3559C89.6529 40.7879 88.9449 41.1199 88.3609 41.3519C87.7769 41.5839 87.1889 41.7479 86.5969 41.8439C86.0049 41.9399 85.3129 41.9919 84.5209 41.9999H84.1729V39.9839ZM86.4529 34.1159C86.4529 34.1159 86.7169 33.8519 87.2449 33.3239L87.6529 32.9159L88.8409 34.1159L87.6529 35.3039L86.4529 34.1159ZM92.7752 39.9839H93.4112C94.4512 39.9839 94.9712 39.7559 94.9712 39.2999C94.9712 39.1559 94.8792 38.8239 94.6952 38.3039C94.5192 37.7839 94.3912 37.4399 94.3112 37.2719L95.7152 36.5039C95.8672 36.8239 96.0232 37.2759 96.1832 37.8599C96.3512 38.4359 96.4352 38.9439 96.4352 39.3839C96.4352 40.2399 96.1752 40.8919 95.6552 41.3399C95.1352 41.7799 94.3872 41.9999 93.4112 41.9999H92.7752V39.9839ZM92.5112 44.0639C92.5112 44.0639 92.7752 43.7999 93.3032 43.2719L93.7112 42.8639L94.8992 44.0639L93.7112 45.2519L92.5112 44.0639Z" fill="white"/>
<path d="M107.288 38.2745C107.459 38.7335 107.621 39.0485 107.774 39.2195C107.936 39.3815 108.174 39.4625 108.489 39.4625H108.597L108.732 40.7315L108.597 42.0005H108.489C107.823 42.0005 107.292 41.7575 106.896 41.2715C106.5 40.7765 106.154 40.0745 105.857 39.1655L107.288 38.2745ZM101.267 38.963C101.015 39.566 100.835 40.043 100.727 40.394C100.619 40.745 100.565 41.1275 100.565 41.5415C100.565 42.8195 101.424 43.4585 103.143 43.4585C103.719 43.4585 104.232 43.364 104.682 43.175C105.141 42.995 105.501 42.7475 105.762 42.4325C106.023 42.1175 106.154 41.7755 106.154 41.4065C106.154 41.0015 105.839 39.9485 105.209 38.2475L106.937 37.289C107.234 38 107.459 38.7155 107.612 39.4355C107.774 40.1465 107.855 40.8035 107.855 41.4065C107.855 42.2705 107.648 43.0535 107.234 43.7555C106.829 44.4575 106.266 45.0065 105.546 45.4025C104.835 45.7985 104.034 45.9965 103.143 45.9965C102.306 45.9965 101.555 45.839 100.889 45.524C100.223 45.218 99.6962 44.7545 99.3092 44.1335C98.9312 43.5215 98.7422 42.7745 98.7422 41.8925C98.7422 41.6765 98.7467 41.5145 98.7557 41.4065C98.8277 40.5425 99.1472 39.494 99.7142 38.261L101.267 38.963ZM101.969 37.208L103.413 35.7635L104.844 37.208L103.413 38.639L101.969 37.208ZM112.197 39.4625L112.332 40.7315L112.197 42.0005H112.048C111.58 42.0005 111.139 41.8475 110.725 41.5415C110.311 41.2265 109.974 40.808 109.713 40.286C109.452 39.764 109.312 39.1925 109.294 38.5715C109.285 38.1935 109.231 37.2215 109.132 35.6555C109.033 34.0895 108.943 32.906 108.862 32.105L110.955 31.6325C111.009 32.3075 111.09 33.932 111.198 36.506C111.252 37.82 111.283 38.513 111.292 38.585C111.31 38.909 111.382 39.1385 111.508 39.2735C111.643 39.3995 111.823 39.4625 112.048 39.4625H112.197ZM107.917 39.4625H108.147C108.561 39.4625 108.858 39.3995 109.038 39.2735C109.218 39.1475 109.303 38.9135 109.294 38.5715L110.766 38.747C110.766 39.35 110.662 39.899 110.455 40.394C110.248 40.889 109.947 41.2805 109.551 41.5685C109.164 41.8565 108.709 42.0005 108.187 42.0005H107.917V39.4625ZM117.916 33.6575L114.23 35.21C114.707 35.651 115.216 36.227 115.756 36.938C116.296 37.649 116.566 38.396 116.566 39.179C116.566 39.323 116.552 39.4625 116.525 39.5975C116.372 40.3985 115.886 41.0015 115.067 41.4065C114.257 41.8025 113.254 42.0005 112.057 42.0005H111.517V39.4625H112.057C112.714 39.4625 113.285 39.4175 113.771 39.3275C114.257 39.2285 114.599 39.116 114.797 38.99C114.482 38.486 114.122 38.0045 113.717 37.5455C113.321 37.0775 112.741 36.5285 111.976 35.8985L112.178 33.752L117.241 31.646L117.916 33.6575ZM117.557 39.1655C117.863 39.3005 118.187 39.422 118.529 39.53C118.871 39.629 119.267 39.6785 119.717 39.6785C120.194 39.6695 120.586 39.6245 120.892 39.5435C121.207 39.4625 121.423 39.3725 121.54 39.2735C121.297 38.3915 120.352 37.4105 118.705 36.3305L119.906 34.103C120.977 34.823 121.832 35.6465 122.471 36.5735C123.11 37.4915 123.43 38.378 123.43 39.233C123.43 39.611 123.353 39.989 123.2 40.367C122.966 40.925 122.548 41.3525 121.945 41.6495C121.342 41.9375 120.685 42.0815 119.974 42.0815C118.723 42.0815 117.629 41.699 116.693 40.934L117.557 39.1655ZM123.994 41.9195C124.102 41.2445 124.156 40.2905 124.156 39.0575C124.156 37.8245 124.107 36.5195 124.008 35.1425C123.918 33.7655 123.814 32.744 123.697 32.078L125.79 31.6055C125.88 32.2265 125.961 33.1715 126.033 34.4405C126.105 35.7005 126.141 36.947 126.141 38.18C126.141 39.881 126.069 41.195 125.925 42.122L123.994 41.9195ZM127.958 43.796C129.038 43.562 129.902 43.319 130.55 43.067C131.198 42.815 131.675 42.5225 131.981 42.1895C132.287 41.8565 132.44 41.456 132.44 40.988C132.44 40.439 132.359 39.9215 132.197 39.4355C132.044 38.9405 131.842 38.5445 131.59 38.2475C131.338 37.9505 131.077 37.802 130.807 37.802C130.555 37.802 130.339 37.9145 130.159 38.1395C129.988 38.3555 129.902 38.576 129.902 38.801C129.902 38.9 129.929 38.9855 129.983 39.0575C130.127 39.2015 130.384 39.323 130.753 39.422C131.131 39.512 131.549 39.557 132.008 39.557C132.269 39.557 132.566 39.5345 132.899 39.4895V41.852C132.431 41.969 131.954 42.0275 131.468 42.0275C130.775 42.0275 130.163 41.897 129.632 41.636C129.101 41.375 128.723 40.997 128.498 40.502C128.336 40.151 128.255 39.7325 128.255 39.2465C128.255 38.6705 128.377 38.099 128.62 37.532C128.863 36.965 129.196 36.5015 129.619 36.1415C130.042 35.7815 130.514 35.6015 131.036 35.6015C131.594 35.6015 132.107 35.8355 132.575 36.3035C133.043 36.7715 133.412 37.397 133.682 38.18C133.952 38.963 134.087 39.8135 134.087 40.7315C134.087 41.6315 133.871 42.4415 133.439 43.1615C133.016 43.8815 132.404 44.48 131.603 44.957C130.802 45.443 129.853 45.785 128.755 45.983L127.958 43.796ZM140.119 42.0005C139.462 42.0005 138.918 41.7575 138.486 41.2715C138.063 40.7765 137.712 40.0925 137.433 39.2195L138.958 38.288C139.075 38.72 139.219 39.026 139.39 39.206C139.561 39.377 139.804 39.4625 140.119 39.4625H140.268L140.403 40.7315L140.268 42.0005H140.119ZM134.382 43.8635C134.985 43.5935 135.538 43.2965 136.042 42.9725C136.555 42.6575 136.96 42.3605 137.257 42.0815C137.563 41.8025 137.716 41.582 137.716 41.42C137.716 41.06 137.437 39.989 136.879 38.207L138.702 37.478C138.927 38.099 139.102 38.7605 139.228 39.4625C139.354 40.1555 139.417 40.808 139.417 41.42C139.417 42.356 139.066 43.211 138.364 43.985C137.662 44.759 136.69 45.425 135.448 45.983L134.382 43.8635ZM146.554 39.287C146.986 39.35 147.4 39.395 147.796 39.422C148.192 39.449 148.651 39.4625 149.173 39.4625L149.308 40.7315L149.173 42.0005C148.246 42.0005 147.549 41.9915 147.081 41.9735C146.622 41.9465 146.217 41.888 145.866 41.798C145.515 41.699 145.218 41.537 144.975 41.312L146.554 39.287ZM139.588 39.4625C140.281 39.4625 140.835 39.467 141.249 39.476C141.672 39.476 142.144 39.4895 142.666 39.5165C143.485 39.5525 144.219 39.4895 144.867 39.3275C145.524 39.1655 146.032 38.9585 146.392 38.7065C146.761 38.4545 146.946 38.2205 146.946 38.0045C146.946 37.8695 146.865 37.7525 146.703 37.6535C146.55 37.5545 146.329 37.505 146.041 37.505C145.33 37.505 144.588 37.802 143.814 38.396C143.04 38.99 142.36 39.827 141.775 40.907L140.547 39.881C141.231 38.405 142.041 37.244 142.977 36.398C143.913 35.552 144.853 35.129 145.798 35.129C146.347 35.129 146.838 35.2505 147.27 35.4935C147.702 35.7275 148.039 36.0605 148.282 36.4925C148.525 36.9155 148.647 37.397 148.647 37.937C148.647 38.774 148.408 39.4985 147.931 40.1105C147.463 40.7225 146.811 41.1905 145.974 41.5145C145.137 41.8385 144.183 42.0005 143.112 42.0005H139.588V39.4625ZM141.289 38.693C141.316 38.423 141.33 38.1035 141.33 37.7345C141.33 36.8975 141.271 35.912 141.154 34.778C141.046 33.635 140.938 32.735 140.83 32.078L142.923 31.6055C143.013 32.1725 143.085 32.8745 143.139 33.7115C143.202 34.5485 143.233 35.444 143.233 36.398C143.233 36.974 143.22 37.5725 143.193 38.1935L141.289 38.693ZM148.606 39.4625H148.768C151.594 39.4625 153.714 39.2285 155.127 38.7605L155.599 41.0015C154.852 41.2985 153.907 41.5415 152.764 41.7305C151.63 41.9105 150.298 42.0005 148.768 42.0005H148.606V39.4625ZM153.237 41.447C153.165 41.456 153.057 41.4605 152.913 41.4605C152.328 41.4605 151.765 41.339 151.225 41.096C150.694 40.844 150.258 40.4795 149.916 40.0025C149.583 39.5165 149.416 38.945 149.416 38.288C149.416 37.703 149.56 37.1495 149.848 36.6275C150.136 36.1055 150.523 35.687 151.009 35.372C151.504 35.057 152.035 34.8995 152.602 34.8995C153.07 34.8995 153.529 35.003 153.979 35.21C154.438 35.408 154.861 35.6735 155.248 36.0065L154.452 37.694C153.885 37.514 153.345 37.424 152.832 37.424C152.67 37.424 152.548 37.4285 152.467 37.4375C152.224 37.4645 151.995 37.5275 151.779 37.6265C151.572 37.7165 151.405 37.8245 151.279 37.9505C151.162 38.0675 151.104 38.18 151.104 38.288C151.104 38.441 151.18 38.594 151.333 38.747C151.486 38.891 151.693 39.0125 151.954 39.1115C152.215 39.2015 152.494 39.2465 152.791 39.2465C152.908 39.2465 152.998 39.242 153.061 39.233L153.237 41.447Z" fill="white"/>
<g filter="url(#filter0_d_11692_8)">
<path d="M89.278 14.3343C89.2915 13.7017 89.4463 13.1431 89.7424 12.6585C90.0385 12.174 90.4356 11.8106 90.9336 11.5683C91.4316 11.326 91.9902 11.2318 92.6094 11.2856C93.1343 10.0742 93.7669 9.15897 94.5072 8.53981C95.2475 7.90719 96.0215 7.59089 96.8291 7.59089C97.6232 7.59089 98.3097 7.84662 98.8885 8.3581C99.4807 8.85612 99.9249 9.50893 100.221 10.3165C100.53 11.1106 100.685 11.9452 100.685 12.8201C100.685 13.668 100.537 14.4487 100.241 15.1621C99.9451 15.862 99.5076 16.4004 98.9289 16.7773C98.5789 17.0061 98.1684 17.1205 97.6973 17.1205C97.1454 17.1205 96.432 16.9657 95.5571 16.6562C94.6957 16.3331 93.592 15.8216 92.246 15.1217C92.2325 16.4812 92.3133 18.2041 92.4882 20.2904C92.6767 22.3901 92.818 23.8236 92.9122 24.5908L89.7828 25.3177C89.6751 24.2005 89.5607 22.7199 89.4396 20.8759C89.3184 19.0319 89.2578 17.2821 89.2578 15.6265C89.2578 15.0342 89.2646 14.6035 89.278 14.3343ZM95.1533 12.5172C95.7456 12.8806 96.2772 13.17 96.7483 13.3854C97.2194 13.5873 97.5694 13.6882 97.7982 13.6882C97.9059 13.6882 97.9799 13.668 98.0203 13.6277C98.1684 13.4931 98.2424 13.2642 98.2424 12.9412C98.2424 12.4836 98.1011 12.0461 97.8184 11.6289C97.5492 11.1981 97.1925 10.9828 96.7483 10.9828C96.5195 10.9828 96.2772 11.0905 96.0215 11.3058C95.7658 11.5212 95.4764 11.925 95.1533 12.5172ZM101.53 16.8783C101.691 15.8688 101.772 14.442 101.772 12.598C101.772 10.754 101.698 8.80229 101.55 6.74291C101.416 4.68353 101.261 3.15582 101.086 2.15978L104.215 1.45312C104.35 2.38187 104.471 3.79517 104.579 5.69303C104.686 7.57743 104.74 9.44163 104.74 11.2856C104.74 13.8296 104.632 15.7947 104.417 17.1811L101.53 16.8783ZM105.446 19.6847C107.062 19.3347 108.354 18.9713 109.323 18.5944C110.292 18.2175 111.005 17.7801 111.463 17.2821C111.921 16.784 112.149 16.1851 112.149 15.4851C112.149 14.6641 112.028 13.8901 111.786 13.1633C111.557 12.423 111.254 11.8308 110.877 11.3866C110.501 10.9424 110.11 10.7203 109.706 10.7203C109.33 10.7203 109.007 10.8886 108.737 11.2251C108.482 11.5481 108.354 11.8779 108.354 12.2144C108.354 12.3624 108.394 12.4903 108.475 12.598C108.69 12.8133 109.074 12.995 109.626 13.1431C110.191 13.2777 110.817 13.345 111.503 13.345C111.894 13.345 112.338 13.3114 112.836 13.2441V16.7773C112.136 16.9523 111.423 17.0398 110.696 17.0398C109.659 17.0398 108.744 16.8446 107.95 16.4543C107.156 16.0639 106.59 15.4986 106.254 14.7583C106.012 14.2334 105.891 13.6075 105.891 12.8806C105.891 12.0192 106.072 11.1645 106.436 10.3165C106.799 9.46855 107.297 8.77537 107.93 8.23697C108.562 7.69857 109.269 7.42937 110.05 7.42937C110.884 7.42937 111.651 7.77933 112.351 8.47925C113.051 9.17917 113.603 10.1146 114.007 11.2856C114.411 12.4566 114.613 13.7286 114.613 15.1015C114.613 16.4475 114.29 17.6589 113.643 18.7357C113.011 19.8125 112.096 20.7076 110.898 21.421C109.7 22.1479 108.28 22.6593 106.638 22.9555L105.446 19.6847ZM121.28 22.9555C120.029 22.9555 118.905 22.7266 117.909 22.269C116.913 21.8114 116.125 21.1182 115.546 20.1894C114.981 19.2741 114.698 18.157 114.698 16.8379C114.698 16.6764 114.712 16.4206 114.739 16.0707C114.846 14.792 115.318 13.2306 116.152 11.3866L118.474 12.4566C118.097 13.3719 117.828 14.0853 117.666 14.5968C117.505 15.1083 117.424 15.6736 117.424 16.2927C117.424 18.2041 118.709 19.1597 121.28 19.1597C122.276 19.1597 123.185 19.0319 124.006 18.7761C124.841 18.5204 125.453 18.2108 125.843 17.8474C125.493 17.6186 124.941 17.3359 124.188 16.9994C123.447 16.6629 122.687 16.3668 121.906 16.111L122.714 12.5374C123.966 12.7797 125.029 12.9479 125.904 13.0422C126.779 13.1364 127.66 13.1902 128.549 13.2037H128.751L128.953 15.1015L128.751 16.9994H128.549C127.633 16.9859 126.651 16.9052 125.601 16.7571C124.551 16.5956 123.32 16.3802 121.906 16.111L122.714 13.8498C124.275 14.4285 125.594 15.0948 126.671 15.8486C127.761 16.6023 128.306 17.3561 128.306 18.1099C128.306 18.8232 127.997 19.5568 127.378 20.3106C126.772 21.0643 125.931 21.6902 124.854 22.1882C123.791 22.6997 122.599 22.9555 121.28 22.9555ZM136.314 4.52201L130.802 6.84385C131.515 7.50339 132.276 8.36484 133.083 9.42817C133.891 10.4915 134.295 11.6087 134.295 12.7797C134.295 12.995 134.275 13.2037 134.234 13.4056C134.005 14.6035 133.278 15.5053 132.054 16.111C130.842 16.7033 129.341 16.9994 127.551 16.9994H126.744V13.2037H127.551C128.534 13.2037 129.389 13.1364 130.115 13.0018C130.842 12.8537 131.354 12.6855 131.65 12.497C131.179 11.7433 130.64 11.0232 130.035 10.3367C129.442 9.63681 128.574 8.81575 127.43 7.87355L127.733 4.66333L135.304 1.5137L136.314 4.52201ZM133.884 19.7856C134.786 19.3818 135.614 18.9376 136.368 18.4531C137.135 17.982 137.741 17.5378 138.185 17.1205C138.642 16.7033 138.871 16.3735 138.871 16.1312C138.871 15.5928 138.454 13.9911 137.619 11.326L140.345 10.2357C140.682 11.1645 140.944 12.1538 141.132 13.2037C141.321 14.2401 141.415 15.2159 141.415 16.1312C141.415 17.5311 140.89 18.8098 139.84 19.9673C138.79 21.1249 137.337 22.1209 135.479 22.9555L133.884 19.7856ZM136.448 6.35929L138.609 4.19897L140.749 6.35929L138.609 8.49943L136.448 6.35929ZM142.486 16.8783C142.648 15.8688 142.729 14.442 142.729 12.598C142.729 10.754 142.655 8.80229 142.507 6.74291C142.372 4.68353 142.217 3.15582 142.042 2.15978L145.172 1.45312C145.306 2.38187 145.427 3.79517 145.535 5.69303C145.643 7.57743 145.697 9.44163 145.697 11.2856C145.697 13.8296 145.589 15.7947 145.374 17.1811L142.486 16.8783Z" fill="white"/>
</g>
</g>
<defs>
<filter id="filter0_d_11692_8" x="88.2578" y="1.45312" width="58.4375" height="26.8652" filterUnits="userSpaceOnUse" color-interpolation-filters="sRGB">
<feFlood flood-opacity="0" result="BackgroundImageFix"/>
<feColorMatrix in="SourceAlpha" type="matrix" values="0 0 0 0 0 0 0 0 0 0 0 0 0 0 0 0 0 0 127 0" result="hardAlpha"/>
<feOffset dy="2"/>
<feGaussianBlur stdDeviation="0.5"/>
<feComposite in2="hardAlpha" operator="out"/>
<feColorMatrix type="matrix" values="0 0 0 0 0 0 0 0 0 0 0 0 0 0 0 0 0 0 0.25 0"/>
<feBlend mode="normal" in2="BackgroundImageFix" result="effect1_dropShadow_11692_8"/>
<feBlend mode="normal" in="SourceGraphic" in2="effect1_dropShadow_11692_8" result="shape"/>
</filter>
<clipPath id="clip0_11692_8">
<rect width="156" height="51" fill="white"/>
</clipPath>
</defs>
</svg>
