<svg width="187" height="51" viewBox="0 0 187 51" fill="none" xmlns="http://www.w3.org/2000/svg">
<g clip-path="url(#clip0_11692_13)">
<path d="M116.3 17.0787C115.845 17.0962 115.469 16.9474 115.171 16.6322C114.882 16.3171 114.738 15.9188 114.738 15.4373C114.738 14.8595 114.913 14.273 115.263 13.6777C115.613 13.0825 116.073 12.601 116.642 12.2333L117.482 13.0606C117.071 13.3757 116.773 13.6515 116.589 13.8878C116.405 14.1242 116.248 14.3562 116.116 14.5838C116.134 14.5838 116.16 14.5794 116.195 14.5706C116.239 14.5619 116.283 14.5575 116.326 14.5575C116.659 14.5575 116.944 14.6801 117.18 14.9252C117.425 15.1615 117.548 15.4548 117.548 15.805C117.548 16.1464 117.421 16.444 117.167 16.6979C116.922 16.9518 116.633 17.0787 116.3 17.0787ZM181.641 7.08594C181.746 7.84754 181.825 8.84551 181.878 10.0798C181.939 11.3054 181.969 12.4347 181.969 13.4676C181.969 13.8178 182 14.0892 182.061 14.2818C182.123 14.4656 182.228 14.5969 182.377 14.6757C182.525 14.7545 182.744 14.7939 183.033 14.7939H183.086L183.204 15.8969L183.086 16.9999H183.033C182.053 16.9999 181.339 16.7154 180.893 16.1464C180.446 15.5686 180.219 14.7063 180.21 13.5596C180.175 11.0121 180.048 8.98995 179.829 7.493L181.641 7.08594ZM182.445 14.7939H183.141C184.279 14.7939 184.848 14.5444 184.848 14.0454C184.848 13.8878 184.748 13.5245 184.546 12.9555C184.354 12.3865 184.214 12.0101 184.126 11.8263L185.662 10.9859C185.829 11.336 185.999 11.8306 186.174 12.4697C186.358 13.1 186.45 13.6559 186.45 14.1373C186.45 15.074 186.166 15.7875 185.597 16.2777C185.028 16.7592 184.209 16.9999 183.141 16.9999H182.445V14.7939ZM182.156 19.2584C182.156 19.2584 182.445 18.9696 183.023 18.3918L183.469 17.9453L184.769 19.2584L183.469 20.5584L182.156 19.2584ZM3.55838 39.0719H2.10637L1.89037 33.1799H3.77437L3.55838 39.0719ZM2.82637 42.1919C2.51437 42.1919 2.25437 42.0839 2.04637 41.8679C1.83837 41.6519 1.73438 41.3879 1.73438 41.0759C1.73438 40.7719 1.83837 40.5199 2.04637 40.3199C2.25437 40.1119 2.51437 40.0079 2.82637 40.0079C3.13837 40.0079 3.39837 40.1119 3.60637 40.3199C3.81437 40.5199 3.91838 40.7719 3.91838 41.0759C3.91838 41.3879 3.81437 41.6519 3.60637 41.8679C3.39837 42.0839 3.13837 42.1919 2.82637 42.1919ZM12.1818 38.8679C12.3258 39.2919 12.4698 39.5839 12.6138 39.7439C12.7578 39.9039 12.9738 39.9839 13.2618 39.9839H13.3578L13.4658 40.9919L13.3578 41.9999H13.2618C12.7098 41.9999 12.2698 41.7879 11.9418 41.3639C11.6138 40.9399 11.3178 40.3399 11.0538 39.5639L12.1818 38.8679ZM6.81779 39.3479C6.60179 39.8759 6.44179 40.3079 6.33779 40.6439C6.24179 40.9719 6.19379 41.3239 6.19379 41.6999C6.19379 42.9079 6.97779 43.5119 8.54579 43.5119C9.08179 43.5119 9.55378 43.4199 9.96178 43.2359C10.3778 43.0599 10.6978 42.8239 10.9218 42.5279C11.1538 42.2319 11.2698 41.9119 11.2698 41.5679C11.2698 41.1999 11.1378 40.6479 10.8738 39.9119C10.6178 39.1759 10.4818 38.7799 10.4658 38.7239L11.8698 37.9559C12.3978 39.3159 12.6618 40.5199 12.6618 41.5679C12.6618 42.2959 12.4858 42.9599 12.1338 43.5599C11.7818 44.1679 11.2938 44.6479 10.6698 44.9999C10.0458 45.3519 9.33779 45.5279 8.54579 45.5279C7.80179 45.5279 7.13778 45.3879 6.55378 45.1079C5.97778 44.8279 5.52578 44.4159 5.19778 43.8719C4.86978 43.3359 4.70579 42.6959 4.70579 41.9519C4.70579 41.7839 4.70978 41.6559 4.71778 41.5679C4.77378 40.7759 5.05379 39.8439 5.55779 38.7719L6.81779 39.3479ZM7.58578 37.9319C7.58578 37.9319 7.84979 37.6679 8.37779 37.1399L8.78579 36.7319L9.97378 37.9319L8.78579 39.1199L7.58578 37.9319ZM18.3955 34.5359L15.0235 35.9639C15.4715 36.3719 15.9395 36.9039 16.4275 37.5599C16.9155 38.2079 17.1595 38.8679 17.1595 39.5399C17.1595 39.6999 17.1435 39.8439 17.1115 39.9719C16.9675 40.6519 16.5435 41.1599 15.8395 41.4959C15.1355 41.8319 14.2555 41.9999 13.1995 41.9999H12.7555V39.9839H13.1995C13.8395 39.9839 14.3755 39.9359 14.8075 39.8399C15.2475 39.7439 15.5475 39.6199 15.7075 39.4679C15.3715 38.6039 14.5355 37.6239 13.1995 36.5279L13.3675 34.7999L17.8435 32.9279L18.3955 34.5359ZM24.1757 42.1559C24.1597 41.7079 24.1517 41.3719 24.1517 41.1479C24.1517 40.9159 24.1597 40.5759 24.1757 40.1279C25.2477 40.1279 26.0637 40.0679 26.6237 39.9479C27.1917 39.8279 27.6197 39.6279 27.9077 39.3479C28.2037 39.0679 28.4597 38.6479 28.6757 38.0879L30.0317 38.2439C29.8717 38.7239 29.7917 39.0839 29.7917 39.3239C29.7917 39.5559 29.8517 39.7239 29.9717 39.8279C30.0917 39.9239 30.2717 39.9719 30.5117 39.9719L30.6197 40.9919L30.5117 41.9999C30.1917 41.9999 29.8877 41.9279 29.5997 41.7839C29.3197 41.6319 29.0957 41.4279 28.9277 41.1719C28.7597 40.9159 28.6797 40.6279 28.6877 40.3079L28.9277 40.3679C28.4077 41.0479 27.7757 41.5159 27.0317 41.7719C26.2957 42.0279 25.3437 42.1559 24.1757 42.1559ZM21.2717 37.6559C21.0717 38.3039 20.9717 38.7839 20.9717 39.0959C20.9717 39.2719 21.0997 39.4399 21.3557 39.5999C21.6197 39.7599 21.9997 39.8879 22.4957 39.9839C22.9997 40.0799 23.5957 40.1279 24.2837 40.1279C24.3077 40.4959 24.3197 40.8559 24.3197 41.2079C24.3197 41.5279 24.3077 41.8439 24.2837 42.1559C22.8357 42.1639 21.6957 41.9399 20.8637 41.4839C20.0317 41.0279 19.5797 40.3919 19.5077 39.5759C19.4997 39.5119 19.4957 39.4159 19.4957 39.2879C19.4957 38.9359 19.5437 38.5559 19.6397 38.1479C19.7357 37.7399 19.8557 37.3759 19.9997 37.0559L21.2717 37.6559ZM23.6357 35.7359L24.6917 36.8039L23.6357 37.8719L23.2757 37.5119C22.8037 37.0399 22.5677 36.8039 22.5677 36.8039L23.6357 35.7359ZM25.7237 35.7359L26.7797 36.8039L25.7237 37.8719L25.3637 37.5119C24.8917 37.0399 24.6557 36.8039 24.6557 36.8039L25.7237 35.7359ZM29.9129 39.9839H30.7409C31.6769 39.9839 32.5489 39.8879 33.3569 39.6959C34.1649 39.4959 35.0529 39.1399 36.0209 38.6279C36.7249 38.2519 37.2049 38.0279 37.4609 37.9559L37.5209 39.4799C37.1049 39.4079 36.7049 39.3079 36.3209 39.1799C35.9369 39.0439 35.4689 38.8359 34.9169 38.5559C34.5969 38.3959 34.2729 38.2719 33.9449 38.1839C33.6249 38.0879 33.3369 38.0399 33.0809 38.0399C32.7929 38.0399 32.5369 38.1159 32.3129 38.2679C32.0969 38.4199 31.9249 38.5879 31.7969 38.7719L30.6809 37.9439C31.3049 36.7039 32.1289 36.0839 33.1529 36.0839C33.4969 36.0839 33.8249 36.1399 34.1369 36.2519C34.4569 36.3639 34.9209 36.5759 35.5289 36.8879C35.9849 37.1279 36.3729 37.3079 36.6929 37.4279C37.0209 37.5479 37.3809 37.6479 37.7729 37.7279L37.8329 39.5519C37.6249 39.6079 37.2409 39.7959 36.6809 40.1159L36.2249 40.3559C35.3929 40.7879 34.6849 41.1199 34.1009 41.3519C33.5169 41.5839 32.9289 41.7479 32.3369 41.8439C31.7449 41.9399 31.0529 41.9919 30.2609 41.9999H29.9129V39.9839ZM32.1929 34.1159C32.1929 34.1159 32.4569 33.8519 32.9849 33.3239L33.3929 32.9159L34.5809 34.1159L33.3929 35.3039L32.1929 34.1159ZM38.404 41.9279C38.492 41.3999 38.536 40.5599 38.536 39.4079C38.536 38.3039 38.496 37.1479 38.416 35.9399C38.344 34.7239 38.26 33.8479 38.164 33.3119L39.844 32.9399C39.924 33.4439 39.992 34.2679 40.048 35.4119C40.112 36.5479 40.144 37.6719 40.144 38.7839C40.144 40.2079 40.088 41.3119 39.976 42.0959L38.404 41.9279ZM41.1883 39.6599C41.4603 39.7879 41.7483 39.9039 42.0523 40.0079C42.3643 40.1039 42.7323 40.1519 43.1563 40.1519C43.5803 40.1439 43.9323 40.0999 44.2123 40.0199C44.4923 39.9319 44.6763 39.8399 44.7643 39.7439C44.7803 39.6239 44.7243 39.4399 44.5963 39.1919C44.4763 38.9359 44.2283 38.6159 43.8523 38.2319C43.4843 37.8399 42.9563 37.4159 42.2683 36.9599L43.2283 35.1839C44.1643 35.8319 44.9083 36.5599 45.4603 37.3679C46.0203 38.1679 46.3003 38.9359 46.3003 39.6719C46.3003 40.0159 46.2363 40.3319 46.1083 40.6199C45.9083 41.0839 45.5483 41.4399 45.0283 41.6879C44.5163 41.9359 43.9563 42.0599 43.3483 42.0599C42.6283 42.0599 42.0283 41.9479 41.5483 41.7239C41.0763 41.4999 40.7203 41.2839 40.4803 41.0759L41.1883 39.6599ZM50.048 41.9999C49.48 41.9999 49.016 41.7919 48.656 41.3759C48.304 40.9599 48.008 40.3759 47.768 39.6239L48.992 38.8799C49.104 39.2879 49.236 39.5759 49.388 39.7439C49.548 39.9039 49.768 39.9839 50.048 39.9839H50.168L50.276 40.9919L50.168 41.9999H50.048ZM45.08 43.8239C45.608 43.5999 46.096 43.3439 46.544 43.0559C46.992 42.7759 47.344 42.4999 47.6 42.2279C47.864 41.9639 47.996 41.7479 47.996 41.5799C47.996 41.3159 47.784 40.4559 47.36 38.9999L47.276 38.6999L48.764 38.1119C48.956 38.6639 49.108 39.2519 49.22 39.8759C49.332 40.4999 49.388 41.0679 49.388 41.5799C49.388 42.3879 49.076 43.1279 48.452 43.7999C47.828 44.4799 46.984 45.0519 45.92 45.5159L45.08 43.8239ZM50.1794 39.9839H50.7794C51.5474 39.9839 52.0914 39.9199 52.4114 39.7919C52.7394 39.6639 52.9034 39.4759 52.9034 39.2279C52.9034 39.0759 52.8154 38.7599 52.6394 38.2799C52.4634 37.7919 52.3314 37.4559 52.2434 37.2719L53.6354 36.5039C53.7954 36.8399 53.9554 37.2879 54.1154 37.8479C54.2834 38.4079 54.3674 38.9039 54.3674 39.3359C54.3674 40.1919 54.0914 40.8519 53.5394 41.3159C52.9874 41.7719 52.1754 41.9999 51.1034 41.9999H50.1794V39.9839ZM52.9754 42.8279L53.9834 43.8359L52.9754 44.8439L51.9674 43.8359L52.9754 42.8279ZM50.6714 42.8279L51.6794 43.8359L50.6714 44.8439L49.6634 43.8359L50.6714 42.8279ZM51.8234 44.4119C52.1274 44.6999 52.4234 44.9959 52.7114 45.2999L51.8234 46.1759C51.6314 45.9759 51.3354 45.6839 50.9354 45.2999L51.8234 44.4119ZM49.5914 41.9999L49.4834 40.9919L49.5914 39.9839H50.2634V41.9999H49.5914ZM56.7814 41.9279C56.8694 41.3999 56.9134 40.5599 56.9134 39.4079C56.9134 38.3039 56.8734 37.1479 56.7934 35.9399C56.7214 34.7239 56.6374 33.8479 56.5414 33.3119L58.2214 32.9399C58.3014 33.4439 58.3694 34.2679 58.4254 35.4119C58.4894 36.5479 58.5214 37.6719 58.5214 38.7839C58.5214 40.2079 58.4654 41.3119 58.3534 42.0959L56.7814 41.9279ZM62.7696 35.3399L64.4136 39.2279C64.5416 39.5239 64.6816 39.7239 64.8336 39.8279C64.9856 39.9319 65.2136 39.9839 65.5176 39.9839H65.6616L65.7696 40.9919L65.6616 41.9999H65.5176C64.9656 41.9999 64.5056 41.8439 64.1376 41.5319C63.7696 41.2119 63.4376 40.7079 63.1416 40.0199L61.4136 36.0719L62.7696 35.3399ZM59.5656 39.6599C60.1896 39.9879 60.8296 40.1519 61.4856 40.1519C62.0136 40.1519 62.4336 40.0759 62.7456 39.9239C63.0656 39.7639 63.2896 39.6039 63.4176 39.4439L64.3176 40.6199C64.1816 40.8279 64.0256 41.0279 63.8496 41.2199C63.6736 41.4119 63.3976 41.6039 63.0216 41.7959C62.6536 41.9799 62.2096 42.0719 61.6896 42.0719C60.7056 42.0719 59.7616 41.7399 58.8576 41.0759L59.5656 39.6599ZM65.0615 39.9839H65.4095C66.8575 39.9839 67.9455 39.7999 68.6735 39.4319C69.4015 39.0639 69.8855 38.6399 70.1255 38.1599C70.0455 38.0399 69.8975 37.9479 69.6815 37.8839C69.4655 37.8119 69.2175 37.7759 68.9375 37.7759C68.6655 37.7759 68.3935 37.8079 68.1215 37.8719C67.8575 37.9359 67.6295 38.0279 67.4375 38.1479C68.0455 38.7959 68.6775 39.2639 69.3335 39.5519C69.9895 39.8399 70.7695 39.9839 71.6735 39.9839H72.0695L72.1775 40.9919L72.0695 41.9999H71.6735C70.7935 41.9999 70.0335 41.8959 69.3935 41.6879C68.7535 41.4799 68.1415 41.1319 67.5575 40.6439C66.9735 40.1479 66.3215 39.4439 65.6015 38.5319L65.6495 37.1879C66.0175 36.8199 66.4775 36.5399 67.0295 36.3479C67.5815 36.1559 68.1535 36.0599 68.7455 36.0599C69.4655 36.0599 70.0975 36.1959 70.6415 36.4679C71.1855 36.7319 71.5175 37.0959 71.6375 37.5599C71.6695 37.6639 71.6855 37.7879 71.6855 37.9319C71.6855 38.5479 71.3695 39.1759 70.7375 39.8159C70.1055 40.4479 69.3015 40.9719 68.3255 41.3879C67.3495 41.7959 66.3775 41.9999 65.4095 41.9999H65.0615V39.9839ZM71.4721 39.9839H72.1081C73.1481 39.9839 73.6681 39.7559 73.6681 39.2999C73.6681 39.1559 73.5761 38.8239 73.3921 38.3039C73.2161 37.7839 73.0881 37.4399 73.0081 37.2719L74.4121 36.5039C74.5641 36.8239 74.7201 37.2759 74.8801 37.8599C75.0481 38.4359 75.1321 38.9439 75.1321 39.3839C75.1321 40.2399 74.8721 40.8919 74.3521 41.3399C73.8321 41.7799 73.0841 41.9999 72.1081 41.9999H71.4721V39.9839ZM71.2081 44.0639C71.2081 44.0639 71.4721 43.7999 72.0001 43.2719L72.4081 42.8639L73.5961 44.0639L72.4081 45.2519L71.2081 44.0639ZM78.9053 42.0719C78.4893 42.0879 78.1453 41.9519 77.8733 41.6639C77.6093 41.3759 77.4773 41.0119 77.4773 40.5719C77.4773 40.0439 77.6373 39.5079 77.9573 38.9639C78.2773 38.4199 78.6973 37.9799 79.2173 37.6439L79.9853 38.3999C79.6093 38.6879 79.3373 38.9399 79.1693 39.1559C79.0013 39.3719 78.8573 39.5839 78.7373 39.7919C78.7533 39.7919 78.7773 39.7879 78.8093 39.7799C78.8493 39.7719 78.8893 39.7679 78.9293 39.7679C79.2333 39.7679 79.4933 39.8799 79.7093 40.1039C79.9333 40.3199 80.0453 40.5879 80.0453 40.9079C80.0453 41.2199 79.9293 41.4919 79.6973 41.7239C79.4733 41.9559 79.2093 42.0719 78.9053 42.0719ZM85.1968 41.9999C84.6288 41.9999 84.1648 41.7919 83.8048 41.3759C83.4528 40.9599 83.1568 40.3759 82.9168 39.6239L84.1408 38.8799C84.2528 39.2879 84.3848 39.5759 84.5368 39.7439C84.6968 39.9039 84.9168 39.9839 85.1968 39.9839H85.3168L85.4248 40.9919L85.3168 41.9999H85.1968ZM80.2288 43.8239C80.7568 43.5999 81.2448 43.3439 81.6928 43.0559C82.1408 42.7759 82.4928 42.4999 82.7488 42.2279C83.0128 41.9639 83.1448 41.7479 83.1448 41.5799C83.1448 41.3159 82.9328 40.4559 82.5088 38.9999L82.4248 38.6999L83.9128 38.1119C84.1048 38.6639 84.2568 39.2519 84.3688 39.8759C84.4808 40.4999 84.5368 41.0679 84.5368 41.5799C84.5368 42.3879 84.2248 43.1279 83.6008 43.7999C82.9768 44.4799 82.1328 45.0519 81.0688 45.5159L80.2288 43.8239ZM93.9081 39.9839L94.0161 40.9919L93.9081 41.9999H93.7761C91.9681 41.9919 90.8401 41.3199 90.3921 39.9839L91.4001 39.0359C91.4401 39.1639 91.5361 39.2999 91.6881 39.4439C91.8401 39.5879 92.0401 39.7159 92.2881 39.8279C92.5441 39.9319 92.8321 39.9839 93.1521 39.9839H93.9081ZM84.7041 39.9839H85.5321C86.4681 39.9839 87.3401 39.8879 88.1481 39.6959C88.9561 39.4959 89.8441 39.1399 90.8121 38.6279C91.5161 38.2519 91.9961 38.0279 92.2521 37.9559L92.3121 39.4799C91.8961 39.4079 91.4961 39.3079 91.1121 39.1799C90.7281 39.0439 90.2601 38.8359 89.7081 38.5559C89.3881 38.3959 89.0641 38.2719 88.7361 38.1839C88.4161 38.0879 88.1281 38.0399 87.8721 38.0399C87.5841 38.0399 87.3281 38.1159 87.1041 38.2679C86.8881 38.4199 86.7161 38.5879 86.5881 38.7719L85.4721 37.9439C86.0961 36.7039 86.9201 36.0839 87.9441 36.0839C88.2881 36.0839 88.6161 36.1399 88.9281 36.2519C89.2481 36.3639 89.7121 36.5759 90.3201 36.8879C90.7761 37.1279 91.1641 37.3079 91.4841 37.4279C91.8121 37.5479 92.1721 37.6479 92.5641 37.7279L92.6241 39.5519C92.4161 39.6079 92.0321 39.7959 91.4721 40.1159L91.0161 40.3559C90.1841 40.7879 89.4761 41.1199 88.8921 41.3519C88.3081 41.5839 87.7201 41.7479 87.1281 41.8439C86.5361 41.9399 85.8441 41.9919 85.0521 41.9999H84.7041V39.9839ZM86.9841 34.1159C86.9841 34.1159 87.2481 33.8519 87.7761 33.3239L88.1841 32.9159L89.3721 34.1159L88.1841 35.3039L86.9841 34.1159ZM93.3065 39.9839H93.9425C94.9825 39.9839 95.5025 39.7559 95.5025 39.2999C95.5025 39.1559 95.4105 38.8239 95.2265 38.3039C95.0505 37.7839 94.9225 37.4399 94.8425 37.2719L96.2465 36.5039C96.3985 36.8239 96.5545 37.2759 96.7145 37.8599C96.8825 38.4359 96.9665 38.9439 96.9665 39.3839C96.9665 40.2399 96.7065 40.8919 96.1865 41.3399C95.6665 41.7799 94.9185 41.9999 93.9425 41.9999H93.3065V39.9839ZM93.0425 44.0639C93.0425 44.0639 93.3065 43.7999 93.8345 43.2719L94.2425 42.8639L95.4305 44.0639L94.2425 45.2519L93.0425 44.0639Z" fill="white"/>
<path d="M103.659 45.983C102.822 45.983 102.07 45.83 101.404 45.524C100.738 45.218 100.212 44.7545 99.8248 44.1335C99.4468 43.5215 99.2578 42.7745 99.2578 41.8925C99.2578 41.7845 99.2668 41.6135 99.2848 41.3795C99.3568 40.5245 99.6718 39.4805 100.23 38.2475L101.782 38.963C101.53 39.575 101.35 40.052 101.242 40.394C101.134 40.736 101.08 41.114 101.08 41.528C101.08 42.806 101.94 43.445 103.659 43.445C104.325 43.445 104.932 43.3595 105.481 43.1885C106.039 43.0175 106.449 42.8105 106.71 42.5675C106.476 42.4145 106.107 42.2255 105.603 42.0005C105.108 41.7755 104.599 41.5775 104.077 41.4065L104.617 39.017C105.454 39.179 106.165 39.2915 106.75 39.3545C107.335 39.4175 107.925 39.4535 108.519 39.4625H108.654L108.789 40.7315L108.654 42.0005H108.519C107.907 41.9915 107.25 41.9375 106.548 41.8385C105.846 41.7305 105.022 41.5865 104.077 41.4065L104.617 39.8945C105.661 40.2815 106.543 40.727 107.263 41.231C107.992 41.735 108.357 42.239 108.357 42.743C108.357 43.22 108.15 43.7105 107.736 44.2145C107.331 44.7185 106.768 45.137 106.048 45.47C105.337 45.812 104.541 45.983 103.659 45.983ZM107.998 39.4625H108.065C108.767 39.4625 109.312 39.431 109.699 39.368C110.086 39.305 110.356 39.206 110.509 39.071C110.662 38.927 110.743 38.738 110.752 38.504C110.743 38.099 110.693 37.658 110.603 37.181L112.277 36.8705C112.403 37.6085 112.466 38.36 112.466 39.125C112.52 39.215 112.619 39.296 112.763 39.368C112.907 39.431 113.096 39.4625 113.33 39.4625H113.384L113.519 40.7315L113.384 42.0005H113.317C112.921 42.0005 112.543 41.9015 112.183 41.7035C111.832 41.4965 111.53 41.231 111.278 40.907L111.67 41.0015C111.364 41.3435 110.936 41.5955 110.387 41.7575C109.847 41.9195 109.073 42.0005 108.065 42.0005H107.998V39.4625ZM108.862 33.455L110.131 34.724L109.28 35.5745L108.862 35.993L108.443 35.5745L107.593 34.724L108.862 33.455ZM111.197 33.455L112.466 34.724L111.616 35.5745L111.197 35.993L110.779 35.5745L109.928 34.724L111.197 33.455ZM119.104 33.6575L115.418 35.21C115.895 35.651 116.404 36.227 116.944 36.938C117.484 37.649 117.754 38.396 117.754 39.179C117.754 39.323 117.74 39.4625 117.713 39.5975C117.56 40.3985 117.074 41.0015 116.255 41.4065C115.445 41.8025 114.442 42.0005 113.245 42.0005H112.705V39.4625H113.245C113.902 39.4625 114.473 39.4175 114.959 39.3275C115.445 39.2285 115.787 39.116 115.985 38.99C115.67 38.486 115.31 38.0045 114.905 37.5455C114.509 37.0775 113.929 36.5285 113.164 35.8985L113.366 33.752L118.429 31.646L119.104 33.6575ZM116.53 43.8635C117.133 43.5935 117.686 43.2965 118.19 42.9725C118.703 42.6575 119.108 42.3605 119.405 42.0815C119.711 41.8025 119.864 41.582 119.864 41.42C119.864 41.06 119.585 39.989 119.027 38.207L120.85 37.478C121.075 38.099 121.25 38.7605 121.376 39.4625C121.502 40.1555 121.565 40.808 121.565 41.42C121.565 42.356 121.214 43.211 120.512 43.985C119.81 44.759 118.838 45.425 117.596 45.983L116.53 43.8635ZM124.05 31.6055C124.167 32.4515 124.253 33.482 124.307 34.697C124.37 35.912 124.401 37.055 124.401 38.126C124.401 38.486 124.428 38.7605 124.482 38.9495C124.545 39.1385 124.649 39.2735 124.793 39.3545C124.937 39.4265 125.144 39.4625 125.414 39.4625H125.481L125.616 40.7315L125.481 42.0005H125.414C123.443 42.0005 122.444 40.79 122.417 38.369C122.372 35.876 122.228 33.779 121.985 32.078L124.05 31.6055ZM127.657 38.5175C128.197 38.8955 128.697 39.2015 129.156 39.4355C129.624 39.6695 129.961 39.7865 130.168 39.7865C130.231 39.7865 130.276 39.773 130.303 39.746C130.411 39.647 130.465 39.4895 130.465 39.2735C130.465 38.9675 130.371 38.675 130.182 38.396C130.002 38.117 129.763 37.9775 129.466 37.9775C129.25 37.9775 129.021 38.117 128.778 38.396C128.535 38.675 128.251 39.2195 127.927 40.0295C127.666 40.6955 127.284 41.1905 126.78 41.5145C126.285 41.8385 125.713 42.0005 125.065 42.0005H124.809L124.863 39.4625H125.106C125.745 39.4625 126.307 39.035 126.793 38.18C127.27 37.316 127.716 36.6905 128.13 36.3035C128.544 35.9075 129.007 35.7095 129.52 35.7095C130.042 35.7095 130.497 35.8805 130.884 36.2225C131.28 36.5555 131.581 36.992 131.788 37.532C131.995 38.063 132.099 38.621 132.099 39.206C132.099 39.773 132 40.295 131.802 40.772C131.604 41.249 131.311 41.609 130.924 41.852C130.672 42.005 130.393 42.0815 130.087 42.0815C129.259 42.0815 128.134 41.5955 126.712 40.6235L127.657 38.5175ZM136.507 42.0005C135.85 42.0005 135.306 41.7575 134.874 41.2715C134.451 40.7765 134.1 40.0925 133.821 39.2195L135.346 38.288C135.463 38.72 135.607 39.026 135.778 39.206C135.949 39.377 136.192 39.4625 136.507 39.4625H136.656L136.791 40.7315L136.656 42.0005H136.507ZM130.77 43.8635C131.373 43.5935 131.926 43.2965 132.43 42.9725C132.943 42.6575 133.348 42.3605 133.645 42.0815C133.951 41.8025 134.104 41.582 134.104 41.42C134.104 41.06 133.825 39.989 133.267 38.207L135.09 37.478C135.315 38.099 135.49 38.7605 135.616 39.4625C135.742 40.1555 135.805 40.808 135.805 41.42C135.805 42.356 135.454 43.211 134.752 43.985C134.05 44.759 133.078 45.425 131.836 45.983L130.77 43.8635ZM136.746 39.4625H137.475C138.312 39.4625 138.906 39.395 139.257 39.26C139.617 39.125 139.797 38.936 139.797 38.693C139.797 38.468 139.549 37.7615 139.054 36.5735L140.769 35.6285C140.949 36.0065 141.129 36.515 141.309 37.154C141.498 37.784 141.592 38.351 141.592 38.855C141.592 39.863 141.277 40.6415 140.647 41.1905C140.017 41.7305 139.095 42.0005 137.88 42.0005H136.746V39.4625ZM139.878 42.932L141.066 44.12L139.878 45.3215L138.676 44.12L139.878 42.932ZM137.272 42.932L138.46 44.12L137.272 45.3215L136.071 44.12L137.272 42.932ZM138.568 44.7815L139.621 45.821L138.568 46.8605L137.88 46.172L137.529 45.821L138.568 44.7815ZM135.976 42.0005L135.841 40.7315L135.976 39.4625H136.84V42.0005H135.976ZM142.093 43.796C143.173 43.562 144.037 43.319 144.685 43.067C145.333 42.815 145.81 42.5225 146.116 42.1895C146.422 41.8565 146.575 41.456 146.575 40.988C146.575 40.439 146.494 39.917 146.332 39.422C146.179 38.927 145.977 38.531 145.725 38.234C145.473 37.937 145.212 37.7885 144.942 37.7885C144.69 37.7885 144.474 37.901 144.294 38.126C144.123 38.351 144.037 38.576 144.037 38.801C144.037 38.9 144.064 38.9855 144.118 39.0575C144.262 39.2285 144.586 39.341 145.09 39.395C145.603 39.44 146.332 39.4625 147.277 39.4625H148.749L148.884 40.7315L148.749 42.0005L146.98 42.014C146.188 42.014 145.518 41.9825 144.969 41.9195C144.42 41.8475 143.938 41.7035 143.524 41.4875C143.119 41.2625 142.822 40.934 142.633 40.502C142.471 40.151 142.39 39.7325 142.39 39.2465C142.39 38.6705 142.512 38.099 142.755 37.532C142.998 36.965 143.331 36.5015 143.754 36.1415C144.177 35.7815 144.649 35.6015 145.171 35.6015C145.729 35.6015 146.242 35.8355 146.71 36.3035C147.178 36.7715 147.547 37.397 147.817 38.18C148.087 38.963 148.222 39.8135 148.222 40.7315C148.222 41.6315 148.006 42.4415 147.574 43.1615C147.151 43.8815 146.539 44.48 145.738 44.957C144.937 45.443 143.988 45.785 142.89 45.983L142.093 43.796ZM155.587 39.4625C155.794 39.4625 155.97 39.3995 156.114 39.2735C156.258 39.1475 156.33 39.0035 156.33 38.8415C156.33 38.5355 156.082 37.7795 155.587 36.5735L157.248 35.6555C157.419 36.0065 157.599 36.5195 157.788 37.1945C157.986 37.8695 158.085 38.459 158.085 38.963C158.085 39.512 157.977 40.0205 157.761 40.4885C157.554 40.9475 157.261 41.3165 156.883 41.5955C156.505 41.8655 156.073 42.0005 155.587 42.0005H155.547V39.4625H155.587ZM151.929 42.0005V39.4625H152.01C152.433 39.4625 152.739 39.26 152.928 38.855C153.099 38.495 153.247 38.009 153.373 37.397L155.034 37.4645C155.007 37.6175 154.975 37.8245 154.939 38.0855C154.912 38.3375 154.899 38.5355 154.899 38.6795C154.899 38.9135 154.953 39.1025 155.061 39.2465C155.178 39.3905 155.349 39.4625 155.574 39.4625H155.614L155.749 40.7315L155.614 42.0005H155.574C155.115 42.0005 154.71 41.888 154.359 41.663C154.017 41.429 153.751 41.1005 153.562 40.6775L153.994 40.6505C153.679 41.1185 153.364 41.4605 153.049 41.6765C152.743 41.8925 152.383 42.0005 151.969 42.0005H151.929ZM148.068 42.0005L147.933 40.7315L148.068 39.4625H148.135C148.378 39.4625 148.626 39.413 148.878 39.314C149.13 39.215 149.314 39.098 149.431 38.963C149.737 38.639 149.976 38.135 150.147 37.451L151.807 37.6265C151.789 37.6895 151.74 37.8785 151.659 38.1935C151.578 38.5085 151.537 38.7605 151.537 38.9495C151.537 39.2915 151.681 39.4625 151.969 39.4625H152.01L152.145 40.7315L152.01 42.0005H151.915C151.555 42.0005 151.222 41.915 150.916 41.744C150.619 41.564 150.394 41.3255 150.241 41.0285C149.944 41.3435 149.611 41.5865 149.242 41.7575C148.882 41.9195 148.504 42.0005 148.108 42.0005H148.068ZM162.499 38.2745C162.238 38.8865 162.053 39.3635 161.945 39.7055C161.837 40.0475 161.783 40.4255 161.783 40.8395C161.783 41.5055 162.004 41.9915 162.445 42.2975C162.886 42.6125 163.529 42.77 164.375 42.77C165.005 42.77 165.599 42.689 166.157 42.527C166.724 42.365 167.152 42.1265 167.44 41.8115C166.828 41.7035 166.315 41.591 165.901 41.474C165.181 41.258 164.668 40.9925 164.362 40.6775C164.056 40.3535 163.903 39.89 163.903 39.287C163.903 38.513 164.096 37.7705 164.483 37.0595C164.87 36.3485 165.383 35.7725 166.022 35.3315C166.661 34.8905 167.332 34.67 168.034 34.67C168.322 34.67 168.619 34.715 168.925 34.805C169.231 34.895 169.429 34.9985 169.519 35.1155L168.817 37.316C168.556 37.244 168.317 37.208 168.101 37.208C167.588 37.181 167.102 37.298 166.643 37.559C166.193 37.811 165.892 38.1485 165.739 38.5715C165.73 38.5985 165.725 38.6345 165.725 38.6795C165.725 38.8145 165.838 38.936 166.063 39.044C166.288 39.143 166.693 39.251 167.278 39.368C168.124 39.539 168.691 39.791 168.979 40.124C169.267 40.457 169.411 40.8395 169.411 41.2715C169.411 41.9915 169.186 42.6575 168.736 43.2695C168.286 43.8905 167.674 44.3855 166.9 44.7545C166.126 45.1235 165.284 45.308 164.375 45.308C163.538 45.308 162.787 45.1505 162.121 44.8355C161.455 44.5295 160.928 44.066 160.541 43.445C160.163 42.833 159.974 42.0815 159.974 41.1905C159.974 40.9745 159.979 40.8125 159.988 40.7045C160.06 39.8495 160.375 38.8055 160.933 37.5725L162.499 38.2745ZM176.984 31.6055C177.101 32.4335 177.195 33.3875 177.267 34.4675C177.339 35.5385 177.375 36.596 177.375 37.64C177.375 38.594 177.069 39.431 176.457 40.151C175.854 40.871 175.053 41.4245 174.054 41.8115C173.064 42.1985 172.002 42.392 170.868 42.392L170.261 40.0835C171.296 40.0205 172.169 39.926 172.88 39.8C173.591 39.674 174.18 39.4445 174.648 39.1115C175.125 38.7695 175.364 38.2925 175.364 37.6805C175.355 36.7625 175.31 35.885 175.229 35.048C175.157 34.211 175.044 33.221 174.891 32.078L176.984 31.6055ZM171.867 32.7935C172.893 34.8095 173.406 36.56 173.406 38.045C173.406 38.819 173.262 39.4715 172.974 40.0025L171.381 40.124C171.561 39.791 171.651 39.404 171.651 38.963C171.651 38.378 171.521 37.685 171.26 36.884C170.999 36.074 170.616 35.12 170.112 34.022L171.867 32.7935ZM179.848 31.6055C179.965 32.4515 180.05 33.482 180.104 34.697C180.167 35.912 180.199 37.055 180.199 38.126C180.199 38.486 180.226 38.7605 180.28 38.9495C180.343 39.1385 180.446 39.2735 180.59 39.3545C180.734 39.4265 180.941 39.4625 181.211 39.4625H181.279L181.414 40.7315L181.279 42.0005H181.211C179.24 42.0005 178.241 40.79 178.214 38.369C178.169 35.876 178.025 33.779 177.782 32.078L179.848 31.6055ZM187.005 33.6575L183.32 35.21C183.797 35.651 184.305 36.227 184.845 36.938C185.385 37.649 185.655 38.396 185.655 39.179C185.655 39.323 185.642 39.4625 185.615 39.5975C185.462 40.3985 184.976 41.0015 184.157 41.4065C183.347 41.8025 182.343 42.0005 181.146 42.0005H180.606V39.4625H181.146C181.803 39.4625 182.375 39.4175 182.861 39.3275C183.347 39.2285 183.689 39.116 183.887 38.99C183.572 38.486 183.212 38.0045 182.807 37.5455C182.411 37.0775 181.83 36.5285 181.065 35.8985L181.268 33.752L186.33 31.646L187.005 33.6575Z" fill="white"/>
<g filter="url(#filter0_d_11692_13)">
<path d="M120.286 14.3343C120.299 13.7017 120.454 13.1431 120.75 12.6585C121.046 12.174 121.443 11.8106 121.942 11.5683C122.44 11.326 122.998 11.2318 123.617 11.2856C124.142 10.0742 124.775 9.15897 125.515 8.53981C126.255 7.90719 127.029 7.59089 127.837 7.59089C128.631 7.59089 129.318 7.84662 129.896 8.3581C130.489 8.85612 130.933 9.50893 131.229 10.3165C131.538 11.1106 131.693 11.9452 131.693 12.8201C131.693 13.668 131.545 14.4487 131.249 15.1621C130.953 15.862 130.516 16.4004 129.937 16.7773C129.587 17.0061 129.176 17.1205 128.705 17.1205C128.153 17.1205 127.44 16.9657 126.565 16.6562C125.704 16.3331 124.6 15.8216 123.254 15.1217C123.24 16.4812 123.321 18.2041 123.496 20.2904C123.685 22.3901 123.826 23.8236 123.92 24.5908L120.791 25.3177C120.683 24.2005 120.569 22.7199 120.447 20.8759C120.326 19.0319 120.266 17.2821 120.266 15.6265C120.266 15.0342 120.272 14.6035 120.286 14.3343ZM126.161 12.5172C126.753 12.8806 127.285 13.17 127.756 13.3854C128.227 13.5873 128.577 13.6882 128.806 13.6882C128.914 13.6882 128.988 13.668 129.028 13.6277C129.176 13.4931 129.25 13.2642 129.25 12.9412C129.25 12.4836 129.109 12.0461 128.826 11.6289C128.557 11.1981 128.2 10.9828 127.756 10.9828C127.527 10.9828 127.285 11.0905 127.029 11.3058C126.774 11.5212 126.484 11.925 126.161 12.5172ZM132.538 16.8783C132.699 15.8688 132.78 14.442 132.78 12.598C132.78 10.754 132.706 8.80229 132.558 6.74291C132.424 4.68353 132.269 3.15582 132.094 2.15978L135.223 1.45312C135.358 2.38187 135.479 3.79517 135.587 5.69303C135.694 7.57743 135.748 9.44163 135.748 11.2856C135.748 13.8296 135.64 15.7947 135.425 17.1811L132.538 16.8783ZM136.454 19.6847C138.07 19.3347 139.362 18.9713 140.331 18.5944C141.3 18.2175 142.013 17.7801 142.471 17.2821C142.929 16.784 143.157 16.1851 143.157 15.4851C143.157 14.6641 143.036 13.8901 142.794 13.1633C142.565 12.423 142.262 11.8308 141.885 11.3866C141.509 10.9424 141.118 10.7203 140.714 10.7203C140.338 10.7203 140.015 10.8886 139.745 11.2251C139.49 11.5481 139.362 11.8779 139.362 12.2144C139.362 12.3624 139.402 12.4903 139.483 12.598C139.698 12.8133 140.082 12.995 140.634 13.1431C141.199 13.2777 141.825 13.345 142.511 13.345C142.902 13.345 143.346 13.3114 143.844 13.2441V16.7773C143.144 16.9523 142.431 17.0398 141.704 17.0398C140.667 17.0398 139.752 16.8446 138.958 16.4543C138.164 16.0639 137.598 15.4986 137.262 14.7583C137.02 14.2334 136.899 13.6075 136.899 12.8806C136.899 12.0192 137.08 11.1645 137.444 10.3165C137.807 9.46855 138.305 8.77537 138.938 8.23697C139.57 7.69857 140.277 7.42937 141.058 7.42937C141.892 7.42937 142.659 7.77933 143.359 8.47925C144.059 9.17917 144.611 10.1146 145.015 11.2856C145.419 12.4566 145.621 13.7286 145.621 15.1015C145.621 16.4475 145.298 17.6589 144.651 18.7357C144.019 19.8125 143.104 20.7076 141.906 21.421C140.708 22.1479 139.288 22.6593 137.646 22.9555L136.454 19.6847ZM152.288 22.9555C151.037 22.9555 149.913 22.7266 148.917 22.269C147.921 21.8114 147.133 21.1182 146.554 20.1894C145.989 19.2741 145.706 18.157 145.706 16.8379C145.706 16.6764 145.72 16.4206 145.747 16.0707C145.854 14.792 146.326 13.2306 147.16 11.3866L149.482 12.4566C149.105 13.3719 148.836 14.0853 148.674 14.5968C148.513 15.1083 148.432 15.6736 148.432 16.2927C148.432 18.2041 149.717 19.1597 152.288 19.1597C153.284 19.1597 154.193 19.0319 155.014 18.7761C155.849 18.5204 156.461 18.2108 156.851 17.8474C156.501 17.6186 155.949 17.3359 155.196 16.9994C154.455 16.6629 153.695 16.3668 152.914 16.111L153.722 12.5374C154.974 12.7797 156.037 12.9479 156.912 13.0422C157.787 13.1364 158.668 13.1902 159.557 13.2037H159.759L159.961 15.1015L159.759 16.9994H159.557C158.641 16.9859 157.659 16.9052 156.609 16.7571C155.559 16.5956 154.328 16.3802 152.914 16.111L153.722 13.8498C155.283 14.4285 156.602 15.0948 157.679 15.8486C158.769 16.6023 159.314 17.3561 159.314 18.1099C159.314 18.8232 159.005 19.5568 158.386 20.3106C157.78 21.0643 156.939 21.6902 155.862 22.1882C154.799 22.6997 153.607 22.9555 152.288 22.9555ZM167.322 4.52201L161.81 6.84385C162.523 7.50339 163.284 8.36484 164.091 9.42817C164.899 10.4915 165.303 11.6087 165.303 12.7797C165.303 12.995 165.283 13.2037 165.242 13.4056C165.013 14.6035 164.286 15.5053 163.062 16.111C161.85 16.7033 160.349 16.9994 158.559 16.9994H157.752V13.2037H158.559C159.542 13.2037 160.397 13.1364 161.123 13.0018C161.85 12.8537 162.362 12.6855 162.658 12.497C162.187 11.7433 161.648 11.0232 161.043 10.3367C160.45 9.63681 159.582 8.81575 158.438 7.87355L158.741 4.66333L166.312 1.5137L167.322 4.52201ZM164.892 19.7856C165.794 19.3818 166.622 18.9376 167.376 18.4531C168.143 17.982 168.749 17.5378 169.193 17.1205C169.65 16.7033 169.879 16.3735 169.879 16.1312C169.879 15.5928 169.462 13.9911 168.627 11.326L171.353 10.2357C171.69 11.1645 171.952 12.1538 172.14 13.2037C172.329 14.2401 172.423 15.2159 172.423 16.1312C172.423 17.5311 171.898 18.8098 170.848 19.9673C169.798 21.1249 168.345 22.1209 166.487 22.9555L164.892 19.7856ZM167.456 6.35929L169.617 4.19897L171.757 6.35929L169.617 8.49943L167.456 6.35929ZM173.494 16.8783C173.656 15.8688 173.737 14.442 173.737 12.598C173.737 10.754 173.663 8.80229 173.515 6.74291C173.38 4.68353 173.225 3.15582 173.05 2.15978L176.18 1.45312C176.314 2.38187 176.435 3.79517 176.543 5.69303C176.651 7.57743 176.705 9.44163 176.705 11.2856C176.705 13.8296 176.597 15.7947 176.382 17.1811L173.494 16.8783Z" fill="white"/>
</g>
</g>
<defs>
<filter id="filter0_d_11692_13" x="119.266" y="1.45312" width="58.4375" height="26.8652" filterUnits="userSpaceOnUse" color-interpolation-filters="sRGB">
<feFlood flood-opacity="0" result="BackgroundImageFix"/>
<feColorMatrix in="SourceAlpha" type="matrix" values="0 0 0 0 0 0 0 0 0 0 0 0 0 0 0 0 0 0 127 0" result="hardAlpha"/>
<feOffset dy="2"/>
<feGaussianBlur stdDeviation="0.5"/>
<feComposite in2="hardAlpha" operator="out"/>
<feColorMatrix type="matrix" values="0 0 0 0 0 0 0 0 0 0 0 0 0 0 0 0 0 0 0.25 0"/>
<feBlend mode="normal" in2="BackgroundImageFix" result="effect1_dropShadow_11692_13"/>
<feBlend mode="normal" in="SourceGraphic" in2="effect1_dropShadow_11692_13" result="shape"/>
</filter>
<clipPath id="clip0_11692_13">
<rect width="187" height="51" fill="white"/>
</clipPath>
</defs>
</svg>
