<svg width="173" height="51" viewBox="0 0 173 51" fill="none" xmlns="http://www.w3.org/2000/svg">
<path d="M102.297 17.0787C101.842 17.0962 101.466 16.9474 101.168 16.6322C100.879 16.3171 100.735 15.9188 100.735 15.4373C100.735 14.8595 100.91 14.273 101.26 13.6777C101.61 13.0825 102.07 12.601 102.639 12.2333L103.479 13.0606C103.068 13.3757 102.77 13.6515 102.586 13.8878C102.402 14.1242 102.245 14.3562 102.113 14.5838C102.131 14.5838 102.157 14.5794 102.192 14.5706C102.236 14.5619 102.28 14.5575 102.323 14.5575C102.656 14.5575 102.941 14.6801 103.177 14.9252C103.422 15.1615 103.545 15.4548 103.545 15.805C103.545 16.1464 103.418 16.444 103.164 16.6979C102.919 16.9518 102.63 17.0787 102.297 17.0787ZM167.638 7.08594C167.743 7.84754 167.822 8.84551 167.875 10.0798C167.936 11.3054 167.966 12.4347 167.966 13.4676C167.966 13.8178 167.997 14.0892 168.058 14.2818C168.12 14.4656 168.225 14.5969 168.374 14.6757C168.522 14.7545 168.741 14.7939 169.03 14.7939H169.083L169.201 15.8969L169.083 16.9999H169.03C168.05 16.9999 167.336 16.7154 166.89 16.1464C166.443 15.5686 166.216 14.7063 166.207 13.5596C166.172 11.0121 166.045 8.98995 165.826 7.493L167.638 7.08594ZM168.442 14.7939H169.138C170.276 14.7939 170.845 14.5444 170.845 14.0454C170.845 13.8878 170.745 13.5245 170.543 12.9555C170.351 12.3865 170.211 12.0101 170.123 11.8263L171.659 10.9859C171.826 11.336 171.996 11.8306 172.171 12.4697C172.355 13.1 172.447 13.6559 172.447 14.1373C172.447 15.074 172.163 15.7875 171.594 16.2777C171.025 16.7592 170.206 16.9999 169.138 16.9999H168.442V14.7939ZM168.153 19.2584C168.153 19.2584 168.442 18.9696 169.02 18.3918L169.466 17.9453L170.766 19.2584L169.466 20.5584L168.153 19.2584ZM3.04275 39.0719H1.59075L1.37475 33.1799H3.25875L3.04275 39.0719ZM2.31075 42.1919C1.99875 42.1919 1.73875 42.0839 1.53075 41.8679C1.32275 41.6519 1.21875 41.3879 1.21875 41.0759C1.21875 40.7719 1.32275 40.5199 1.53075 40.3199C1.73875 40.1119 1.99875 40.0079 2.31075 40.0079C2.62275 40.0079 2.88275 40.1119 3.09075 40.3199C3.29875 40.5199 3.40275 40.7719 3.40275 41.0759C3.40275 41.3879 3.29875 41.6519 3.09075 41.8679C2.88275 42.0839 2.62275 42.1919 2.31075 42.1919ZM11.6662 38.8679C11.8102 39.2919 11.9542 39.5839 12.0982 39.7439C12.2422 39.9039 12.4582 39.9839 12.7462 39.9839H12.8422L12.9502 40.9919L12.8422 41.9999H12.7462C12.1942 41.9999 11.7542 41.7879 11.4262 41.3639C11.0982 40.9399 10.8022 40.3399 10.5382 39.5639L11.6662 38.8679ZM6.30215 39.3479C6.08615 39.8759 5.92615 40.3079 5.82215 40.6439C5.72615 40.9719 5.67815 41.3239 5.67815 41.6999C5.67815 42.9079 6.46215 43.5119 8.03015 43.5119C8.56615 43.5119 9.03815 43.4199 9.44615 43.2359C9.86215 43.0599 10.1822 42.8239 10.4062 42.5279C10.6382 42.2319 10.7542 41.9119 10.7542 41.5679C10.7542 41.1999 10.6222 40.6479 10.3582 39.9119C10.1022 39.1759 9.96615 38.7799 9.95015 38.7239L11.3542 37.9559C11.8822 39.3159 12.1462 40.5199 12.1462 41.5679C12.1462 42.2959 11.9702 42.9599 11.6182 43.5599C11.2662 44.1679 10.7782 44.6479 10.1542 44.9999C9.53015 45.3519 8.82215 45.5279 8.03015 45.5279C7.28615 45.5279 6.62215 45.3879 6.03815 45.1079C5.46215 44.8279 5.01015 44.4159 4.68215 43.8719C4.35415 43.3359 4.19015 42.6959 4.19015 41.9519C4.19015 41.7839 4.19415 41.6559 4.20215 41.5679C4.25815 40.7759 4.53815 39.8439 5.04215 38.7719L6.30215 39.3479ZM7.07015 37.9319C7.07015 37.9319 7.33415 37.6679 7.86215 37.1399L8.27015 36.7319L9.45815 37.9319L8.27015 39.1199L7.07015 37.9319ZM17.8799 34.5359L14.5079 35.9639C14.9559 36.3719 15.4239 36.9039 15.9119 37.5599C16.3999 38.2079 16.6439 38.8679 16.6439 39.5399C16.6439 39.6999 16.6279 39.8439 16.5959 39.9719C16.4519 40.6519 16.0279 41.1599 15.3239 41.4959C14.6199 41.8319 13.7399 41.9999 12.6839 41.9999H12.2399V39.9839H12.6839C13.3239 39.9839 13.8599 39.9359 14.2919 39.8399C14.7319 39.7439 15.0319 39.6199 15.1919 39.4679C14.8559 38.6039 14.0199 37.6239 12.6839 36.5279L12.8519 34.7999L17.3279 32.9279L17.8799 34.5359ZM23.6601 42.1559C23.6441 41.7079 23.6361 41.3719 23.6361 41.1479C23.6361 40.9159 23.6441 40.5759 23.6601 40.1279C24.7321 40.1279 25.5481 40.0679 26.1081 39.9479C26.6761 39.8279 27.1041 39.6279 27.3921 39.3479C27.6881 39.0679 27.9441 38.6479 28.1601 38.0879L29.5161 38.2439C29.3561 38.7239 29.2761 39.0839 29.2761 39.3239C29.2761 39.5559 29.3361 39.7239 29.4561 39.8279C29.5761 39.9239 29.7561 39.9719 29.9961 39.9719L30.1041 40.9919L29.9961 41.9999C29.6761 41.9999 29.3721 41.9279 29.0841 41.7839C28.8041 41.6319 28.5801 41.4279 28.4121 41.1719C28.2441 40.9159 28.1641 40.6279 28.1721 40.3079L28.4121 40.3679C27.8921 41.0479 27.2601 41.5159 26.5161 41.7719C25.7801 42.0279 24.8281 42.1559 23.6601 42.1559ZM20.7561 37.6559C20.5561 38.3039 20.4561 38.7839 20.4561 39.0959C20.4561 39.2719 20.5841 39.4399 20.8401 39.5999C21.1041 39.7599 21.4841 39.8879 21.9801 39.9839C22.4841 40.0799 23.0801 40.1279 23.7681 40.1279C23.7921 40.4959 23.8041 40.8559 23.8041 41.2079C23.8041 41.5279 23.7921 41.8439 23.7681 42.1559C22.3201 42.1639 21.1801 41.9399 20.3481 41.4839C19.5161 41.0279 19.0641 40.3919 18.9921 39.5759C18.9841 39.5119 18.9801 39.4159 18.9801 39.2879C18.9801 38.9359 19.0281 38.5559 19.1241 38.1479C19.2201 37.7399 19.3401 37.3759 19.4841 37.0559L20.7561 37.6559ZM23.1201 35.7359L24.1761 36.8039L23.1201 37.8719L22.7601 37.5119C22.2881 37.0399 22.0521 36.8039 22.0521 36.8039L23.1201 35.7359ZM25.2081 35.7359L26.2641 36.8039L25.2081 37.8719L24.8481 37.5119C24.3761 37.0399 24.1401 36.8039 24.1401 36.8039L25.2081 35.7359ZM29.3973 39.9839H30.2253C31.1613 39.9839 32.0333 39.8879 32.8413 39.6959C33.6493 39.4959 34.5373 39.1399 35.5053 38.6279C36.2093 38.2519 36.6893 38.0279 36.9453 37.9559L37.0053 39.4799C36.5893 39.4079 36.1893 39.3079 35.8053 39.1799C35.4213 39.0439 34.9533 38.8359 34.4013 38.5559C34.0813 38.3959 33.7573 38.2719 33.4293 38.1839C33.1093 38.0879 32.8213 38.0399 32.5653 38.0399C32.2773 38.0399 32.0213 38.1159 31.7973 38.2679C31.5813 38.4199 31.4093 38.5879 31.2813 38.7719L30.1653 37.9439C30.7893 36.7039 31.6133 36.0839 32.6373 36.0839C32.9813 36.0839 33.3093 36.1399 33.6213 36.2519C33.9413 36.3639 34.4053 36.5759 35.0133 36.8879C35.4693 37.1279 35.8573 37.3079 36.1773 37.4279C36.5053 37.5479 36.8653 37.6479 37.2573 37.7279L37.3173 39.5519C37.1093 39.6079 36.7253 39.7959 36.1653 40.1159L35.7093 40.3559C34.8773 40.7879 34.1693 41.1199 33.5853 41.3519C33.0013 41.5839 32.4133 41.7479 31.8213 41.8439C31.2293 41.9399 30.5373 41.9919 29.7453 41.9999H29.3973V39.9839ZM31.6773 34.1159C31.6773 34.1159 31.9413 33.8519 32.4693 33.3239L32.8773 32.9159L34.0653 34.1159L32.8773 35.3039L31.6773 34.1159ZM37.8884 41.9279C37.9764 41.3999 38.0204 40.5599 38.0204 39.4079C38.0204 38.3039 37.9804 37.1479 37.9004 35.9399C37.8284 34.7239 37.7444 33.8479 37.6484 33.3119L39.3284 32.9399C39.4084 33.4439 39.4764 34.2679 39.5324 35.4119C39.5964 36.5479 39.6284 37.6719 39.6284 38.7839C39.6284 40.2079 39.5724 41.3119 39.4604 42.0959L37.8884 41.9279ZM40.6727 39.6599C40.9447 39.7879 41.2327 39.9039 41.5367 40.0079C41.8487 40.1039 42.2167 40.1519 42.6407 40.1519C43.0647 40.1439 43.4167 40.0999 43.6967 40.0199C43.9767 39.9319 44.1607 39.8399 44.2487 39.7439C44.2647 39.6239 44.2087 39.4399 44.0807 39.1919C43.9607 38.9359 43.7127 38.6159 43.3367 38.2319C42.9687 37.8399 42.4407 37.4159 41.7527 36.9599L42.7127 35.1839C43.6487 35.8319 44.3927 36.5599 44.9447 37.3679C45.5047 38.1679 45.7847 38.9359 45.7847 39.6719C45.7847 40.0159 45.7207 40.3319 45.5927 40.6199C45.3927 41.0839 45.0327 41.4399 44.5127 41.6879C44.0007 41.9359 43.4407 42.0599 42.8327 42.0599C42.1127 42.0599 41.5127 41.9479 41.0327 41.7239C40.5607 41.4999 40.2047 41.2839 39.9647 41.0759L40.6727 39.6599ZM49.5325 41.9999C48.9645 41.9999 48.5005 41.7919 48.1405 41.3759C47.7885 40.9599 47.4925 40.3759 47.2525 39.6239L48.4765 38.8799C48.5885 39.2879 48.7205 39.5759 48.8725 39.7439C49.0325 39.9039 49.2525 39.9839 49.5325 39.9839H49.6525L49.7605 40.9919L49.6525 41.9999H49.5325ZM44.5645 43.8239C45.0925 43.5999 45.5805 43.3439 46.0285 43.0559C46.4765 42.7759 46.8285 42.4999 47.0845 42.2279C47.3485 41.9639 47.4805 41.7479 47.4805 41.5799C47.4805 41.3159 47.2685 40.4559 46.8445 38.9999L46.7605 38.6999L48.2485 38.1119C48.4405 38.6639 48.5925 39.2519 48.7045 39.8759C48.8165 40.4999 48.8725 41.0679 48.8725 41.5799C48.8725 42.3879 48.5605 43.1279 47.9365 43.7999C47.3125 44.4799 46.4685 45.0519 45.4045 45.5159L44.5645 43.8239ZM49.6638 39.9839H50.2638C51.0318 39.9839 51.5758 39.9199 51.8958 39.7919C52.2238 39.6639 52.3878 39.4759 52.3878 39.2279C52.3878 39.0759 52.2998 38.7599 52.1238 38.2799C51.9478 37.7919 51.8158 37.4559 51.7278 37.2719L53.1198 36.5039C53.2798 36.8399 53.4398 37.2879 53.5998 37.8479C53.7678 38.4079 53.8518 38.9039 53.8518 39.3359C53.8518 40.1919 53.5758 40.8519 53.0238 41.3159C52.4718 41.7719 51.6598 41.9999 50.5878 41.9999H49.6638V39.9839ZM52.4598 42.8279L53.4678 43.8359L52.4598 44.8439L51.4518 43.8359L52.4598 42.8279ZM50.1558 42.8279L51.1638 43.8359L50.1558 44.8439L49.1478 43.8359L50.1558 42.8279ZM51.3078 44.4119C51.6118 44.6999 51.9078 44.9959 52.1958 45.2999L51.3078 46.1759C51.1158 45.9759 50.8198 45.6839 50.4198 45.2999L51.3078 44.4119ZM49.0758 41.9999L48.9678 40.9919L49.0758 39.9839H49.7478V41.9999H49.0758ZM56.2658 41.9279C56.3538 41.3999 56.3978 40.5599 56.3978 39.4079C56.3978 38.3039 56.3578 37.1479 56.2778 35.9399C56.2058 34.7239 56.1218 33.8479 56.0258 33.3119L57.7058 32.9399C57.7858 33.4439 57.8538 34.2679 57.9098 35.4119C57.9738 36.5479 58.0058 37.6719 58.0058 38.7839C58.0058 40.2079 57.9498 41.3119 57.8378 42.0959L56.2658 41.9279ZM62.2541 35.3399L63.8981 39.2279C64.0261 39.5239 64.1661 39.7239 64.3181 39.8279C64.4701 39.9319 64.6981 39.9839 65.0021 39.9839H65.1461L65.2541 40.9919L65.1461 41.9999H65.0021C64.4501 41.9999 63.9901 41.8439 63.6221 41.5319C63.2541 41.2119 62.9221 40.7079 62.6261 40.0199L60.8981 36.0719L62.2541 35.3399ZM59.0501 39.6599C59.6741 39.9879 60.3141 40.1519 60.9701 40.1519C61.4981 40.1519 61.9181 40.0759 62.2301 39.9239C62.5501 39.7639 62.7741 39.6039 62.9021 39.4439L63.8021 40.6199C63.6661 40.8279 63.5101 41.0279 63.3341 41.2199C63.1581 41.4119 62.8821 41.6039 62.5061 41.7959C62.1381 41.9799 61.6941 42.0719 61.1741 42.0719C60.1901 42.0719 59.2461 41.7399 58.3421 41.0759L59.0501 39.6599ZM64.5459 39.9839H64.8939C66.3419 39.9839 67.4299 39.7999 68.1579 39.4319C68.8859 39.0639 69.3699 38.6399 69.6099 38.1599C69.5299 38.0399 69.3819 37.9479 69.1659 37.8839C68.9499 37.8119 68.7019 37.7759 68.4219 37.7759C68.1499 37.7759 67.8779 37.8079 67.6059 37.8719C67.3419 37.9359 67.1139 38.0279 66.9219 38.1479C67.5299 38.7959 68.1619 39.2639 68.8179 39.5519C69.4739 39.8399 70.2539 39.9839 71.1579 39.9839H71.5539L71.6619 40.9919L71.5539 41.9999H71.1579C70.2779 41.9999 69.5179 41.8959 68.8779 41.6879C68.2379 41.4799 67.6259 41.1319 67.0419 40.6439C66.4579 40.1479 65.8059 39.4439 65.0859 38.5319L65.1339 37.1879C65.5019 36.8199 65.9619 36.5399 66.5139 36.3479C67.0659 36.1559 67.6379 36.0599 68.2299 36.0599C68.9499 36.0599 69.5819 36.1959 70.1259 36.4679C70.6699 36.7319 71.0019 37.0959 71.1219 37.5599C71.1539 37.6639 71.1699 37.7879 71.1699 37.9319C71.1699 38.5479 70.8539 39.1759 70.2219 39.8159C69.5899 40.4479 68.7859 40.9719 67.8099 41.3879C66.8339 41.7959 65.8619 41.9999 64.8939 41.9999H64.5459V39.9839ZM70.9565 39.9839H71.5925C72.6325 39.9839 73.1525 39.7559 73.1525 39.2999C73.1525 39.1559 73.0605 38.8239 72.8765 38.3039C72.7005 37.7839 72.5725 37.4399 72.4925 37.2719L73.8965 36.5039C74.0485 36.8239 74.2045 37.2759 74.3645 37.8599C74.5325 38.4359 74.6165 38.9439 74.6165 39.3839C74.6165 40.2399 74.3565 40.8919 73.8365 41.3399C73.3165 41.7799 72.5685 41.9999 71.5925 41.9999H70.9565V39.9839ZM70.6925 44.0639C70.6925 44.0639 70.9565 43.7999 71.4845 43.2719L71.8925 42.8639L73.0805 44.0639L71.8925 45.2519L70.6925 44.0639ZM78.3898 42.0719C77.9738 42.0879 77.6298 41.9519 77.3578 41.6639C77.0938 41.3759 76.9618 41.0119 76.9618 40.5719C76.9618 40.0439 77.1218 39.5079 77.4418 38.9639C77.7618 38.4199 78.1818 37.9799 78.7018 37.6439L79.4698 38.3999C79.0938 38.6879 78.8218 38.9399 78.6538 39.1559C78.4858 39.3719 78.3418 39.5839 78.2218 39.7919C78.2378 39.7919 78.2618 39.7879 78.2938 39.7799C78.3338 39.7719 78.3738 39.7679 78.4138 39.7679C78.7178 39.7679 78.9778 39.8799 79.1938 40.1039C79.4178 40.3199 79.5298 40.5879 79.5298 40.9079C79.5298 41.2199 79.4138 41.4919 79.1818 41.7239C78.9578 41.9559 78.6938 42.0719 78.3898 42.0719ZM84.6812 41.9999C84.1132 41.9999 83.6492 41.7919 83.2892 41.3759C82.9372 40.9599 82.6412 40.3759 82.4012 39.6239L83.6252 38.8799C83.7372 39.2879 83.8692 39.5759 84.0212 39.7439C84.1812 39.9039 84.4012 39.9839 84.6812 39.9839H84.8012L84.9092 40.9919L84.8012 41.9999H84.6812ZM79.7132 43.8239C80.2412 43.5999 80.7292 43.3439 81.1772 43.0559C81.6252 42.7759 81.9772 42.4999 82.2332 42.2279C82.4972 41.9639 82.6292 41.7479 82.6292 41.5799C82.6292 41.3159 82.4172 40.4559 81.9932 38.9999L81.9092 38.6999L83.3972 38.1119C83.5892 38.6639 83.7412 39.2519 83.8532 39.8759C83.9652 40.4999 84.0212 41.0679 84.0212 41.5799C84.0212 42.3879 83.7092 43.1279 83.0852 43.7999C82.4612 44.4799 81.6172 45.0519 80.5532 45.5159L79.7132 43.8239ZM93.3926 39.9839L93.5006 40.9919L93.3926 41.9999H93.2606C91.4526 41.9919 90.3246 41.3199 89.8766 39.9839L90.8846 39.0359C90.9246 39.1639 91.0206 39.2999 91.1726 39.4439C91.3246 39.5879 91.5246 39.7159 91.7726 39.8279C92.0286 39.9319 92.3166 39.9839 92.6366 39.9839H93.3926ZM84.1886 39.9839H85.0166C85.9526 39.9839 86.8246 39.8879 87.6326 39.6959C88.4406 39.4959 89.3286 39.1399 90.2966 38.6279C91.0006 38.2519 91.4806 38.0279 91.7366 37.9559L91.7966 39.4799C91.3806 39.4079 90.9806 39.3079 90.5966 39.1799C90.2126 39.0439 89.7446 38.8359 89.1926 38.5559C88.8726 38.3959 88.5486 38.2719 88.2206 38.1839C87.9006 38.0879 87.6126 38.0399 87.3566 38.0399C87.0686 38.0399 86.8126 38.1159 86.5886 38.2679C86.3726 38.4199 86.2006 38.5879 86.0726 38.7719L84.9566 37.9439C85.5806 36.7039 86.4046 36.0839 87.4286 36.0839C87.7726 36.0839 88.1006 36.1399 88.4126 36.2519C88.7326 36.3639 89.1966 36.5759 89.8046 36.8879C90.2606 37.1279 90.6486 37.3079 90.9686 37.4279C91.2966 37.5479 91.6566 37.6479 92.0486 37.7279L92.1086 39.5519C91.9006 39.6079 91.5166 39.7959 90.9566 40.1159L90.5006 40.3559C89.6686 40.7879 88.9606 41.1199 88.3766 41.3519C87.7926 41.5839 87.2046 41.7479 86.6126 41.8439C86.0206 41.9399 85.3286 41.9919 84.5366 41.9999H84.1886V39.9839ZM86.4686 34.1159C86.4686 34.1159 86.7326 33.8519 87.2606 33.3239L87.6686 32.9159L88.8566 34.1159L87.6686 35.3039L86.4686 34.1159ZM92.7909 39.9839H93.4269C94.4669 39.9839 94.9869 39.7559 94.9869 39.2999C94.9869 39.1559 94.8949 38.8239 94.7109 38.3039C94.5349 37.7839 94.4069 37.4399 94.3269 37.2719L95.7309 36.5039C95.8829 36.8239 96.0389 37.2759 96.1989 37.8599C96.3669 38.4359 96.4509 38.9439 96.4509 39.3839C96.4509 40.2399 96.1909 40.8919 95.6709 41.3399C95.1509 41.7799 94.4029 41.9999 93.4269 41.9999H92.7909V39.9839ZM92.5269 44.0639C92.5269 44.0639 92.7909 43.7999 93.3189 43.2719L93.7269 42.8639L94.9149 44.0639L93.7269 45.2519L92.5269 44.0639Z" fill="white"/>
<path d="M103.307 45.9822C102.47 45.9822 101.719 45.8292 101.053 45.5232C100.387 45.2172 99.8603 44.7537 99.4733 44.1327C99.0953 43.5207 98.9062 42.7737 98.9062 41.8917C98.9062 41.7837 98.9153 41.6127 98.9333 41.3787C99.0053 40.5237 99.3203 39.4797 99.8783 38.2467L101.431 38.9622C101.179 39.5742 100.999 40.0512 100.891 40.3932C100.783 40.7352 100.729 41.1132 100.729 41.5272C100.729 42.8052 101.588 43.4442 103.307 43.4442C103.973 43.4442 104.581 43.3587 105.13 43.1877C105.688 43.0167 106.097 42.8097 106.358 42.5667C106.124 42.4137 105.755 42.2247 105.251 41.9997C104.756 41.7747 104.248 41.5767 103.726 41.4057L104.266 39.0162C105.103 39.1782 105.814 39.2907 106.399 39.3537C106.984 39.4167 107.573 39.4527 108.167 39.4617H108.302L108.437 40.7307L108.302 41.9997H108.167C107.555 41.9907 106.898 41.9367 106.196 41.8377C105.494 41.7297 104.671 41.5857 103.726 41.4057L104.266 39.8937C105.31 40.2807 106.192 40.7262 106.912 41.2302C107.641 41.7342 108.005 42.2382 108.005 42.7422C108.005 43.2192 107.798 43.7097 107.384 44.2137C106.979 44.7177 106.417 45.1362 105.697 45.4692C104.986 45.8112 104.189 45.9822 103.307 45.9822ZM107.646 39.4617H107.713C108.415 39.4617 108.96 39.4302 109.347 39.3672C109.734 39.3042 110.004 39.2052 110.157 39.0702C110.31 38.9262 110.391 38.7372 110.4 38.5032C110.391 38.0982 110.341 37.6572 110.251 37.1802L111.925 36.8697C112.051 37.6077 112.114 38.3592 112.114 39.1242C112.168 39.2142 112.267 39.2952 112.411 39.3672C112.555 39.4302 112.744 39.4617 112.978 39.4617H113.032L113.167 40.7307L113.032 41.9997H112.965C112.569 41.9997 112.191 41.9007 111.831 41.7027C111.48 41.4957 111.178 41.2302 110.926 40.9062L111.318 41.0007C111.012 41.3427 110.584 41.5947 110.035 41.7567C109.495 41.9187 108.721 41.9997 107.713 41.9997H107.646V39.4617ZM108.51 33.4542L109.779 34.7232L108.928 35.5737L108.51 35.9922L108.091 35.5737L107.241 34.7232L108.51 33.4542ZM110.845 33.4542L112.114 34.7232L111.264 35.5737L110.845 35.9922L110.427 35.5737L109.576 34.7232L110.845 33.4542ZM119.913 39.4617C120.12 39.4617 120.295 39.3987 120.439 39.2727C120.583 39.1467 120.655 39.0027 120.655 38.8407C120.655 38.5347 120.408 37.7787 119.913 36.5727L121.573 35.6547C121.744 36.0057 121.924 36.5187 122.113 37.1937C122.311 37.8687 122.41 38.4582 122.41 38.9622C122.41 39.5112 122.302 40.0197 122.086 40.4877C121.879 40.9467 121.587 41.3157 121.209 41.5947C120.831 41.8647 120.399 41.9997 119.913 41.9997H119.872V39.4617H119.913ZM116.254 41.9997V39.4617H116.335C116.758 39.4617 117.064 39.2592 117.253 38.8542C117.424 38.4942 117.573 38.0082 117.699 37.3962L119.359 37.4637C119.332 37.6167 119.301 37.8237 119.265 38.0847C119.238 38.3367 119.224 38.5347 119.224 38.6787C119.224 38.9127 119.278 39.1017 119.386 39.2457C119.503 39.3897 119.674 39.4617 119.899 39.4617H119.94L120.075 40.7307L119.94 41.9997H119.899C119.44 41.9997 119.035 41.8872 118.684 41.6622C118.342 41.4282 118.077 41.0997 117.888 40.6767L118.32 40.6497C118.005 41.1177 117.69 41.4597 117.375 41.6757C117.069 41.8917 116.709 41.9997 116.295 41.9997H116.254ZM112.393 41.9997L112.258 40.7307L112.393 39.4617H112.461C112.704 39.4617 112.951 39.4122 113.203 39.3132C113.455 39.2142 113.64 39.0972 113.757 38.9622C114.063 38.6382 114.301 38.1342 114.472 37.4502L116.133 37.6257C116.115 37.6887 116.065 37.8777 115.984 38.1927C115.903 38.5077 115.863 38.7597 115.863 38.9487C115.863 39.2907 116.007 39.4617 116.295 39.4617H116.335L116.47 40.7307L116.335 41.9997H116.241C115.881 41.9997 115.548 41.9142 115.242 41.7432C114.945 41.5632 114.72 41.3247 114.567 41.0277C114.27 41.3427 113.937 41.5857 113.568 41.7567C113.208 41.9187 112.83 41.9997 112.434 41.9997H112.393ZM123.089 41.9187C123.197 41.2437 123.251 40.2897 123.251 39.0567C123.251 37.8237 123.202 36.5187 123.103 35.1417C123.013 33.7647 122.909 32.7432 122.792 32.0772L124.885 31.6047C124.975 32.2257 125.056 33.1707 125.128 34.4397C125.2 35.6997 125.236 36.9462 125.236 38.1792C125.236 39.8802 125.164 41.1942 125.02 42.1212L123.089 41.9187ZM125.708 43.7952C126.788 43.5612 127.652 43.3182 128.3 43.0662C128.948 42.8142 129.425 42.5217 129.731 42.1887C130.037 41.8557 130.19 41.4552 130.19 40.9872C130.19 40.4382 130.109 39.9162 129.947 39.4212C129.794 38.9262 129.592 38.5302 129.34 38.2332C129.088 37.9362 128.827 37.7877 128.557 37.7877C128.305 37.7877 128.089 37.9002 127.909 38.1252C127.738 38.3502 127.652 38.5752 127.652 38.8002C127.652 38.8992 127.679 38.9847 127.733 39.0567C127.877 39.2277 128.201 39.3402 128.705 39.3942C129.218 39.4392 129.947 39.4617 130.892 39.4617H132.364L132.499 40.7307L132.364 41.9997L130.595 42.0132C129.803 42.0132 129.133 41.9817 128.584 41.9187C128.035 41.8467 127.553 41.7027 127.139 41.4867C126.734 41.2617 126.437 40.9332 126.248 40.5012C126.086 40.1502 126.005 39.7317 126.005 39.2457C126.005 38.6697 126.127 38.0982 126.37 37.5312C126.613 36.9642 126.946 36.5007 127.369 36.1407C127.792 35.7807 128.264 35.6007 128.786 35.6007C129.344 35.6007 129.857 35.8347 130.325 36.3027C130.793 36.7707 131.162 37.3962 131.432 38.1792C131.702 38.9622 131.837 39.8127 131.837 40.7307C131.837 41.6307 131.621 42.4407 131.189 43.1607C130.766 43.8807 130.154 44.4792 129.353 44.9562C128.552 45.4422 127.603 45.7842 126.505 45.9822L125.708 43.7952ZM131.628 39.4617H132.479C133.523 39.4617 134.486 39.3582 135.368 39.1512C136.259 38.9442 137.262 38.5482 138.378 37.9632C139.233 37.5042 139.778 37.2432 140.012 37.1802L140.079 39.2052C139.638 39.1152 139.202 38.9892 138.77 38.8272C138.347 38.6652 137.802 38.4177 137.136 38.0847C136.803 37.9137 136.452 37.7787 136.083 37.6797C135.723 37.5807 135.404 37.5312 135.125 37.5312C134.594 37.5312 134.13 37.7832 133.734 38.2872L132.344 37.2477C133.073 35.7987 134.022 35.0742 135.192 35.0742C135.579 35.0742 135.953 35.1372 136.313 35.2632C136.673 35.3802 137.204 35.6232 137.906 35.9922C138.419 36.2532 138.851 36.4512 139.202 36.5862C139.562 36.7122 139.962 36.8202 140.403 36.9102L140.484 39.2052C140.304 39.2592 139.872 39.4707 139.188 39.8397C139.125 39.8757 138.918 39.9882 138.567 40.1772C137.595 40.6902 136.776 41.0727 136.11 41.3247C135.453 41.5767 134.805 41.7522 134.166 41.8512C133.527 41.9412 132.74 41.9907 131.804 41.9997H131.628V39.4617ZM134.112 32.8332L135.557 31.3887L136.988 32.8332L135.557 34.2642L134.112 32.8332ZM146.658 45.9822C145.821 45.9822 145.07 45.8292 144.404 45.5232C143.738 45.2172 143.211 44.7537 142.824 44.1327C142.446 43.5207 142.257 42.7737 142.257 41.8917C142.257 41.7837 142.266 41.6127 142.284 41.3787C142.356 40.5237 142.671 39.4797 143.229 38.2467L144.782 38.9622C144.53 39.5742 144.35 40.0512 144.242 40.3932C144.134 40.7352 144.08 41.1132 144.08 41.5272C144.08 42.8052 144.939 43.4442 146.658 43.4442C147.324 43.4442 147.932 43.3587 148.481 43.1877C149.039 43.0167 149.448 42.8097 149.709 42.5667C149.475 42.4137 149.106 42.2247 148.602 41.9997C148.107 41.7747 147.599 41.5767 147.077 41.4057L147.617 39.0162C148.454 39.1782 149.165 39.2907 149.75 39.3537C150.335 39.4167 150.924 39.4527 151.518 39.4617H151.653L151.788 40.7307L151.653 41.9997H151.518C150.906 41.9907 150.249 41.9367 149.547 41.8377C148.845 41.7297 148.022 41.5857 147.077 41.4057L147.617 39.8937C148.661 40.2807 149.543 40.7262 150.263 41.2302C150.992 41.7342 151.356 42.2382 151.356 42.7422C151.356 43.2192 151.149 43.7097 150.735 44.2137C150.33 44.7177 149.768 45.1362 149.048 45.4692C148.337 45.8112 147.54 45.9822 146.658 45.9822ZM150.97 39.4617H151.821C152.865 39.4617 153.828 39.3582 154.71 39.1512C155.601 38.9442 156.604 38.5482 157.72 37.9632C158.575 37.5042 159.12 37.2432 159.354 37.1802L159.421 39.2052C158.98 39.1152 158.544 38.9892 158.112 38.8272C157.689 38.6652 157.144 38.4177 156.478 38.0847C156.145 37.9137 155.794 37.7787 155.425 37.6797C155.065 37.5807 154.746 37.5312 154.467 37.5312C153.936 37.5312 153.472 37.7832 153.076 38.2872L151.686 37.2477C152.415 35.7987 153.364 35.0742 154.534 35.0742C154.921 35.0742 155.295 35.1372 155.655 35.2632C156.015 35.3802 156.546 35.6232 157.248 35.9922C157.761 36.2532 158.193 36.4512 158.544 36.5862C158.904 36.7122 159.304 36.8202 159.745 36.9102L159.826 39.2052C159.646 39.2592 159.214 39.4707 158.53 39.8397C158.467 39.8757 158.26 39.9882 157.909 40.1772C156.937 40.6902 156.118 41.0727 155.452 41.3247C154.795 41.5767 154.147 41.7522 153.508 41.8512C152.869 41.9412 152.082 41.9907 151.146 41.9997H150.97V39.4617ZM157.059 42.9042L158.247 44.0922L157.059 45.2937L155.857 44.0922L157.059 42.9042ZM154.453 42.9042L155.641 44.0922L154.453 45.2937L153.252 44.0922L154.453 42.9042ZM155.749 44.7537L156.802 45.7932L155.749 46.8327L155.061 46.1442L154.71 45.7932L155.749 44.7537ZM164.08 41.9997C163.423 41.9997 162.878 41.7567 162.446 41.2707C162.023 40.7757 161.672 40.0917 161.393 39.2187L162.919 38.2872C163.036 38.7192 163.18 39.0252 163.351 39.2052C163.522 39.3762 163.765 39.4617 164.08 39.4617H164.228L164.363 40.7307L164.228 41.9997H164.08ZM158.342 43.8627C158.945 43.5927 159.499 43.2957 160.003 42.9717C160.516 42.6567 160.921 42.3597 161.218 42.0807C161.524 41.8017 161.677 41.5812 161.677 41.4192C161.677 41.0592 161.398 39.9882 160.84 38.2062L162.662 37.4772C162.887 38.0982 163.063 38.7597 163.189 39.4617C163.315 40.1547 163.378 40.8072 163.378 41.4192C163.378 42.3552 163.027 43.2102 162.325 43.9842C161.623 44.7582 160.651 45.4242 159.409 45.9822L158.342 43.8627ZM163.562 39.4617H163.778C165.236 39.4617 166.307 39.3807 166.991 39.2187C167.675 39.0477 168.049 38.7777 168.112 38.4087C168.148 38.1747 168.067 37.9497 167.869 37.7337C167.671 37.5177 167.432 37.3782 167.153 37.3152C167.117 37.3062 167.059 37.3017 166.978 37.3017C166.726 37.3017 166.496 37.3827 166.289 37.5447C166.091 37.7067 165.983 37.9182 165.965 38.1792C165.947 38.4582 166.145 38.7192 166.559 38.9622C166.982 39.1962 167.5 39.3852 168.112 39.5292C168.724 39.6732 169.277 39.7452 169.772 39.7452C170.366 39.7452 170.704 39.6417 170.785 39.4347C170.812 39.3627 170.825 39.2997 170.825 39.2457C170.825 38.9487 170.542 38.6517 169.975 38.3547C169.417 38.0577 168.701 37.7742 167.828 37.5042C166.964 37.2342 165.781 36.8967 164.278 36.4917L165.223 34.1427C167.104 34.6737 168.58 35.1912 169.651 35.6952C170.731 36.1902 171.491 36.6942 171.932 37.2072C172.382 37.7202 172.607 38.2962 172.607 38.9352C172.607 39.3492 172.513 39.8532 172.324 40.4472C172.162 40.9422 171.824 41.3112 171.311 41.5542C170.798 41.7972 170.186 41.9187 169.475 41.9187C168.665 41.9187 167.846 41.7747 167.018 41.4867C166.199 41.1897 165.52 40.7802 164.98 40.2582C164.449 39.7362 164.183 39.1512 164.183 38.5032C164.183 38.2782 164.215 38.0667 164.278 37.8687C164.566 36.8877 164.971 36.1317 165.493 35.6007C166.024 35.0607 166.631 34.8267 167.315 34.8987C167.738 34.9347 168.121 35.1102 168.463 35.4252C168.814 35.7402 169.088 36.1407 169.286 36.6267C169.484 37.1037 169.583 37.5987 169.583 38.1117C169.583 38.3007 169.57 38.4897 169.543 38.6787C169.408 39.5337 169.124 40.2042 168.692 40.6902C168.26 41.1672 167.653 41.5047 166.87 41.7027C166.087 41.9007 165.056 41.9997 163.778 41.9997H163.562V39.4617Z" fill="white"/>
<g filter="url(#filter0_d_11692_3)">
<path d="M106.286 14.3343C106.299 13.7017 106.454 13.1431 106.75 12.6585C107.046 12.174 107.443 11.8106 107.942 11.5683C108.44 11.326 108.998 11.2318 109.617 11.2856C110.142 10.0742 110.775 9.15897 111.515 8.53981C112.255 7.90719 113.029 7.59089 113.837 7.59089C114.631 7.59089 115.318 7.84662 115.896 8.3581C116.489 8.85612 116.933 9.50893 117.229 10.3165C117.538 11.1106 117.693 11.9452 117.693 12.8201C117.693 13.668 117.545 14.4487 117.249 15.1621C116.953 15.862 116.516 16.4004 115.937 16.7773C115.587 17.0061 115.176 17.1205 114.705 17.1205C114.153 17.1205 113.44 16.9657 112.565 16.6562C111.704 16.3331 110.6 15.8216 109.254 15.1217C109.24 16.4812 109.321 18.2041 109.496 20.2904C109.685 22.3901 109.826 23.8236 109.92 24.5908L106.791 25.3177C106.683 24.2005 106.569 22.7199 106.447 20.8759C106.326 19.0319 106.266 17.2821 106.266 15.6265C106.266 15.0342 106.272 14.6035 106.286 14.3343ZM112.161 12.5172C112.753 12.8806 113.285 13.17 113.756 13.3854C114.227 13.5873 114.577 13.6882 114.806 13.6882C114.914 13.6882 114.988 13.668 115.028 13.6277C115.176 13.4931 115.25 13.2642 115.25 12.9412C115.25 12.4836 115.109 12.0461 114.826 11.6289C114.557 11.1981 114.2 10.9828 113.756 10.9828C113.527 10.9828 113.285 11.0905 113.029 11.3058C112.774 11.5212 112.484 11.925 112.161 12.5172ZM118.538 16.8783C118.699 15.8688 118.78 14.442 118.78 12.598C118.78 10.754 118.706 8.80229 118.558 6.74291C118.424 4.68353 118.269 3.15582 118.094 2.15978L121.223 1.45312C121.358 2.38187 121.479 3.79517 121.587 5.69303C121.694 7.57743 121.748 9.44163 121.748 11.2856C121.748 13.8296 121.64 15.7947 121.425 17.1811L118.538 16.8783ZM122.454 19.6847C124.07 19.3347 125.362 18.9713 126.331 18.5944C127.3 18.2175 128.013 17.7801 128.471 17.2821C128.929 16.784 129.157 16.1851 129.157 15.4851C129.157 14.6641 129.036 13.8901 128.794 13.1633C128.565 12.423 128.262 11.8308 127.885 11.3866C127.509 10.9424 127.118 10.7203 126.714 10.7203C126.338 10.7203 126.015 10.8886 125.745 11.2251C125.49 11.5481 125.362 11.8779 125.362 12.2144C125.362 12.3624 125.402 12.4903 125.483 12.598C125.698 12.8133 126.082 12.995 126.634 13.1431C127.199 13.2777 127.825 13.345 128.511 13.345C128.902 13.345 129.346 13.3114 129.844 13.2441V16.7773C129.144 16.9523 128.431 17.0398 127.704 17.0398C126.667 17.0398 125.752 16.8446 124.958 16.4543C124.164 16.0639 123.598 15.4986 123.262 14.7583C123.02 14.2334 122.899 13.6075 122.899 12.8806C122.899 12.0192 123.08 11.1645 123.444 10.3165C123.807 9.46855 124.305 8.77537 124.938 8.23697C125.57 7.69857 126.277 7.42937 127.058 7.42937C127.892 7.42937 128.659 7.77933 129.359 8.47925C130.059 9.17917 130.611 10.1146 131.015 11.2856C131.419 12.4566 131.621 13.7286 131.621 15.1015C131.621 16.4475 131.298 17.6589 130.651 18.7357C130.019 19.8125 129.104 20.7076 127.906 21.421C126.708 22.1479 125.288 22.6593 123.646 22.9555L122.454 19.6847ZM138.288 22.9555C137.037 22.9555 135.913 22.7266 134.917 22.269C133.921 21.8114 133.133 21.1182 132.554 20.1894C131.989 19.2741 131.706 18.157 131.706 16.8379C131.706 16.6764 131.72 16.4206 131.747 16.0707C131.854 14.792 132.326 13.2306 133.16 11.3866L135.482 12.4566C135.105 13.3719 134.836 14.0853 134.674 14.5968C134.513 15.1083 134.432 15.6736 134.432 16.2927C134.432 18.2041 135.717 19.1597 138.288 19.1597C139.284 19.1597 140.193 19.0319 141.014 18.7761C141.849 18.5204 142.461 18.2108 142.851 17.8474C142.501 17.6186 141.949 17.3359 141.196 16.9994C140.455 16.6629 139.695 16.3668 138.914 16.111L139.722 12.5374C140.974 12.7797 142.037 12.9479 142.912 13.0422C143.787 13.1364 144.668 13.1902 145.557 13.2037H145.759L145.961 15.1015L145.759 16.9994H145.557C144.641 16.9859 143.659 16.9052 142.609 16.7571C141.559 16.5956 140.328 16.3802 138.914 16.111L139.722 13.8498C141.283 14.4285 142.602 15.0948 143.679 15.8486C144.769 16.6023 145.314 17.3561 145.314 18.1099C145.314 18.8232 145.005 19.5568 144.386 20.3106C143.78 21.0643 142.939 21.6902 141.862 22.1882C140.799 22.6997 139.607 22.9555 138.288 22.9555ZM153.322 4.52201L147.81 6.84385C148.523 7.50339 149.284 8.36484 150.091 9.42817C150.899 10.4915 151.303 11.6087 151.303 12.7797C151.303 12.995 151.283 13.2037 151.242 13.4056C151.013 14.6035 150.286 15.5053 149.062 16.111C147.85 16.7033 146.349 16.9994 144.559 16.9994H143.752V13.2037H144.559C145.542 13.2037 146.397 13.1364 147.123 13.0018C147.85 12.8537 148.362 12.6855 148.658 12.497C148.187 11.7433 147.648 11.0232 147.043 10.3367C146.45 9.63681 145.582 8.81575 144.438 7.87355L144.741 4.66333L152.312 1.5137L153.322 4.52201ZM150.892 19.7856C151.794 19.3818 152.622 18.9376 153.376 18.4531C154.143 17.982 154.749 17.5378 155.193 17.1205C155.65 16.7033 155.879 16.3735 155.879 16.1312C155.879 15.5928 155.462 13.9911 154.627 11.326L157.353 10.2357C157.69 11.1645 157.952 12.1538 158.14 13.2037C158.329 14.2401 158.423 15.2159 158.423 16.1312C158.423 17.5311 157.898 18.8098 156.848 19.9673C155.798 21.1249 154.345 22.1209 152.487 22.9555L150.892 19.7856ZM153.456 6.35929L155.617 4.19897L157.757 6.35929L155.617 8.49943L153.456 6.35929ZM159.494 16.8783C159.656 15.8688 159.737 14.442 159.737 12.598C159.737 10.754 159.663 8.80229 159.515 6.74291C159.38 4.68353 159.225 3.15582 159.05 2.15978L162.18 1.45312C162.314 2.38187 162.435 3.79517 162.543 5.69303C162.651 7.57743 162.705 9.44163 162.705 11.2856C162.705 13.8296 162.597 15.7947 162.382 17.1811L159.494 16.8783Z" fill="white"/>
</g>
<defs>
<filter id="filter0_d_11692_3" x="105.266" y="1.45312" width="58.4375" height="26.8652" filterUnits="userSpaceOnUse" color-interpolation-filters="sRGB">
<feFlood flood-opacity="0" result="BackgroundImageFix"/>
<feColorMatrix in="SourceAlpha" type="matrix" values="0 0 0 0 0 0 0 0 0 0 0 0 0 0 0 0 0 0 127 0" result="hardAlpha"/>
<feOffset dy="2"/>
<feGaussianBlur stdDeviation="0.5"/>
<feComposite in2="hardAlpha" operator="out"/>
<feColorMatrix type="matrix" values="0 0 0 0 0 0 0 0 0 0 0 0 0 0 0 0 0 0 0.25 0"/>
<feBlend mode="normal" in2="BackgroundImageFix" result="effect1_dropShadow_11692_3"/>
<feBlend mode="normal" in="SourceGraphic" in2="effect1_dropShadow_11692_3" result="shape"/>
</filter>
</defs>
</svg>
