<svg width="187" height="51" viewBox="0 0 187 51" fill="none" xmlns="http://www.w3.org/2000/svg">
<path d="M116.301 17.0788C115.846 17.0963 115.47 16.9475 115.172 16.6323C114.883 16.3172 114.739 15.9189 114.739 15.4374C114.739 14.8596 114.914 14.2731 115.264 13.6778C115.614 13.0826 116.074 12.6011 116.643 12.2334L117.483 13.0607C117.072 13.3758 116.774 13.6516 116.59 13.8879C116.406 14.1243 116.249 14.3563 116.117 14.5839C116.135 14.5839 116.161 14.5795 116.196 14.5707C116.24 14.562 116.284 14.5576 116.327 14.5576C116.66 14.5576 116.945 14.6802 117.181 14.9253C117.426 15.1616 117.549 15.4549 117.549 15.8051C117.549 16.1465 117.422 16.4441 117.168 16.698C116.923 16.9519 116.634 17.0788 116.301 17.0788ZM181.642 7.08603C181.747 7.84763 181.826 8.8456 181.879 10.0799C181.94 11.3055 181.97 12.4348 181.97 13.4677C181.97 13.8179 182.001 14.0893 182.062 14.2819C182.124 14.4657 182.229 14.597 182.378 14.6758C182.526 14.7546 182.745 14.794 183.034 14.794H183.087L183.205 15.897L183.087 17H183.034C182.054 17 181.34 16.7155 180.894 16.1465C180.447 15.5687 180.22 14.7064 180.211 13.5597C180.176 11.0122 180.049 8.99004 179.83 7.49309L181.642 7.08603ZM182.446 14.794H183.142C184.28 14.794 184.849 14.5445 184.849 14.0455C184.849 13.8879 184.749 13.5246 184.547 12.9556C184.355 12.3866 184.215 12.0102 184.127 11.8264L185.663 10.986C185.83 11.3361 186 11.8307 186.175 12.4698C186.359 13.1001 186.451 13.656 186.451 14.1374C186.451 15.0741 186.167 15.7876 185.598 16.2778C185.029 16.7593 184.21 17 183.142 17H182.446V14.794ZM182.157 19.2585C182.157 19.2585 182.446 18.9697 183.024 18.3919L183.47 17.9454L184.77 19.2585L183.47 20.5585L182.157 19.2585ZM3.55956 39.072H2.10756L1.89156 33.18H3.77556L3.55956 39.072ZM2.82756 42.192C2.51556 42.192 2.25556 42.084 2.04756 41.868C1.83956 41.652 1.73556 41.388 1.73556 41.076C1.73556 40.772 1.83956 40.52 2.04756 40.32C2.25556 40.112 2.51556 40.008 2.82756 40.008C3.13956 40.008 3.39956 40.112 3.60756 40.32C3.81556 40.52 3.91956 40.772 3.91956 41.076C3.91956 41.388 3.81556 41.652 3.60756 41.868C3.39956 42.084 3.13956 42.192 2.82756 42.192ZM12.183 38.868C12.327 39.292 12.471 39.584 12.615 39.744C12.759 39.904 12.975 39.984 13.263 39.984H13.359L13.467 40.992L13.359 42H13.263C12.711 42 12.271 41.788 11.943 41.364C11.615 40.94 11.319 40.34 11.055 39.564L12.183 38.868ZM6.81897 39.348C6.60297 39.876 6.44297 40.308 6.33897 40.644C6.24297 40.972 6.19497 41.324 6.19497 41.7C6.19497 42.908 6.97897 43.512 8.54697 43.512C9.08297 43.512 9.55497 43.42 9.96297 43.236C10.379 43.06 10.699 42.824 10.923 42.528C11.155 42.232 11.271 41.912 11.271 41.568C11.271 41.2 11.139 40.648 10.875 39.912C10.619 39.176 10.483 38.78 10.467 38.724L11.871 37.956C12.399 39.316 12.663 40.52 12.663 41.568C12.663 42.296 12.487 42.96 12.135 43.56C11.783 44.168 11.295 44.648 10.671 45C10.047 45.352 9.33897 45.528 8.54697 45.528C7.80297 45.528 7.13897 45.388 6.55497 45.108C5.97897 44.828 5.52697 44.416 5.19897 43.872C4.87097 43.336 4.70697 42.696 4.70697 41.952C4.70697 41.784 4.71097 41.656 4.71897 41.568C4.77497 40.776 5.05497 39.844 5.55897 38.772L6.81897 39.348ZM7.58697 37.932C7.58697 37.932 7.85097 37.668 8.37897 37.14L8.78697 36.732L9.97497 37.932L8.78697 39.12L7.58697 37.932ZM18.3967 34.536L15.0247 35.964C15.4727 36.372 15.9407 36.904 16.4287 37.56C16.9167 38.208 17.1607 38.868 17.1607 39.54C17.1607 39.7 17.1447 39.844 17.1127 39.972C16.9687 40.652 16.5447 41.16 15.8407 41.496C15.1367 41.832 14.2567 42 13.2007 42H12.7567V39.984H13.2007C13.8407 39.984 14.3767 39.936 14.8087 39.84C15.2487 39.744 15.5487 39.62 15.7087 39.468C15.3727 38.604 14.5367 37.624 13.2007 36.528L13.3687 34.8L17.8447 32.928L18.3967 34.536ZM24.1769 42.156C24.1609 41.708 24.1529 41.372 24.1529 41.148C24.1529 40.916 24.1609 40.576 24.1769 40.128C25.2489 40.128 26.0649 40.068 26.6249 39.948C27.1929 39.828 27.6209 39.628 27.9089 39.348C28.2049 39.068 28.4609 38.648 28.6769 38.088L30.0329 38.244C29.8729 38.724 29.7929 39.084 29.7929 39.324C29.7929 39.556 29.8529 39.724 29.9729 39.828C30.0929 39.924 30.2729 39.972 30.5129 39.972L30.6209 40.992L30.5129 42C30.1929 42 29.8889 41.928 29.6009 41.784C29.3209 41.632 29.0969 41.428 28.9289 41.172C28.7609 40.916 28.6809 40.628 28.6889 40.308L28.9289 40.368C28.4089 41.048 27.7769 41.516 27.0329 41.772C26.2969 42.028 25.3449 42.156 24.1769 42.156ZM21.2729 37.656C21.0729 38.304 20.9729 38.784 20.9729 39.096C20.9729 39.272 21.1009 39.44 21.3569 39.6C21.6209 39.76 22.0009 39.888 22.4969 39.984C23.0009 40.08 23.5969 40.128 24.2849 40.128C24.3089 40.496 24.3209 40.856 24.3209 41.208C24.3209 41.528 24.3089 41.844 24.2849 42.156C22.8369 42.164 21.6969 41.94 20.8649 41.484C20.0329 41.028 19.5809 40.392 19.5089 39.576C19.5009 39.512 19.4969 39.416 19.4969 39.288C19.4969 38.936 19.5449 38.556 19.6409 38.148C19.7369 37.74 19.8569 37.376 20.0009 37.056L21.2729 37.656ZM23.6369 35.736L24.6929 36.804L23.6369 37.872L23.2769 37.512C22.8049 37.04 22.5689 36.804 22.5689 36.804L23.6369 35.736ZM25.7249 35.736L26.7809 36.804L25.7249 37.872L25.3649 37.512C24.8929 37.04 24.6569 36.804 24.6569 36.804L25.7249 35.736ZM29.9141 39.984H30.7421C31.6781 39.984 32.5501 39.888 33.3581 39.696C34.1661 39.496 35.0541 39.14 36.0221 38.628C36.7261 38.252 37.2061 38.028 37.4621 37.956L37.5221 39.48C37.1061 39.408 36.7061 39.308 36.3221 39.18C35.9381 39.044 35.4701 38.836 34.9181 38.556C34.5981 38.396 34.2741 38.272 33.9461 38.184C33.6261 38.088 33.3381 38.04 33.0821 38.04C32.7941 38.04 32.5381 38.116 32.3141 38.268C32.0981 38.42 31.9261 38.588 31.7981 38.772L30.6821 37.944C31.3061 36.704 32.1301 36.084 33.1541 36.084C33.4981 36.084 33.8261 36.14 34.1381 36.252C34.4581 36.364 34.9221 36.576 35.5301 36.888C35.9861 37.128 36.3741 37.308 36.6941 37.428C37.0221 37.548 37.3821 37.648 37.7741 37.728L37.8341 39.552C37.6261 39.608 37.2421 39.796 36.6821 40.116L36.2261 40.356C35.3941 40.788 34.6861 41.12 34.1021 41.352C33.5181 41.584 32.9301 41.748 32.3381 41.844C31.7461 41.94 31.0541 41.992 30.2621 42H29.9141V39.984ZM32.1941 34.116C32.1941 34.116 32.4581 33.852 32.9861 33.324L33.3941 32.916L34.5821 34.116L33.3941 35.304L32.1941 34.116ZM38.4052 41.928C38.4932 41.4 38.5372 40.56 38.5372 39.408C38.5372 38.304 38.4972 37.148 38.4172 35.94C38.3452 34.724 38.2612 33.848 38.1652 33.312L39.8452 32.94C39.9252 33.444 39.9932 34.268 40.0492 35.412C40.1132 36.548 40.1452 37.672 40.1452 38.784C40.1452 40.208 40.0892 41.312 39.9772 42.096L38.4052 41.928ZM41.1895 39.66C41.4615 39.788 41.7495 39.904 42.0535 40.008C42.3655 40.104 42.7335 40.152 43.1575 40.152C43.5815 40.144 43.9335 40.1 44.2135 40.02C44.4935 39.932 44.6775 39.84 44.7655 39.744C44.7815 39.624 44.7255 39.44 44.5975 39.192C44.4775 38.936 44.2295 38.616 43.8535 38.232C43.4855 37.84 42.9575 37.416 42.2695 36.96L43.2295 35.184C44.1655 35.832 44.9095 36.56 45.4615 37.368C46.0215 38.168 46.3015 38.936 46.3015 39.672C46.3015 40.016 46.2375 40.332 46.1095 40.62C45.9095 41.084 45.5495 41.44 45.0295 41.688C44.5175 41.936 43.9575 42.06 43.3495 42.06C42.6295 42.06 42.0295 41.948 41.5495 41.724C41.0775 41.5 40.7215 41.284 40.4815 41.076L41.1895 39.66ZM50.0492 42C49.4812 42 49.0172 41.792 48.6572 41.376C48.3052 40.96 48.0092 40.376 47.7692 39.624L48.9932 38.88C49.1052 39.288 49.2372 39.576 49.3892 39.744C49.5492 39.904 49.7692 39.984 50.0492 39.984H50.1692L50.2772 40.992L50.1692 42H50.0492ZM45.0812 43.824C45.6092 43.6 46.0972 43.344 46.5452 43.056C46.9932 42.776 47.3452 42.5 47.6012 42.228C47.8652 41.964 47.9972 41.748 47.9972 41.58C47.9972 41.316 47.7852 40.456 47.3612 39L47.2772 38.7L48.7652 38.112C48.9572 38.664 49.1092 39.252 49.2212 39.876C49.3332 40.5 49.3892 41.068 49.3892 41.58C49.3892 42.388 49.0772 43.128 48.4532 43.8C47.8292 44.48 46.9852 45.052 45.9212 45.516L45.0812 43.824ZM50.1806 39.984H50.7806C51.5486 39.984 52.0926 39.92 52.4126 39.792C52.7406 39.664 52.9046 39.476 52.9046 39.228C52.9046 39.076 52.8166 38.76 52.6406 38.28C52.4646 37.792 52.3326 37.456 52.2446 37.272L53.6366 36.504C53.7966 36.84 53.9566 37.288 54.1166 37.848C54.2846 38.408 54.3686 38.904 54.3686 39.336C54.3686 40.192 54.0926 40.852 53.5406 41.316C52.9886 41.772 52.1766 42 51.1046 42H50.1806V39.984ZM52.9766 42.828L53.9846 43.836L52.9766 44.844L51.9686 43.836L52.9766 42.828ZM50.6726 42.828L51.6806 43.836L50.6726 44.844L49.6646 43.836L50.6726 42.828ZM51.8246 44.412C52.1286 44.7 52.4246 44.996 52.7126 45.3L51.8246 46.176C51.6326 45.976 51.3366 45.684 50.9366 45.3L51.8246 44.412ZM49.5926 42L49.4846 40.992L49.5926 39.984H50.2646V42H49.5926ZM56.7826 41.928C56.8706 41.4 56.9146 40.56 56.9146 39.408C56.9146 38.304 56.8746 37.148 56.7946 35.94C56.7226 34.724 56.6386 33.848 56.5426 33.312L58.2226 32.94C58.3026 33.444 58.3706 34.268 58.4266 35.412C58.4906 36.548 58.5226 37.672 58.5226 38.784C58.5226 40.208 58.4666 41.312 58.3546 42.096L56.7826 41.928ZM62.7708 35.34L64.4148 39.228C64.5428 39.524 64.6828 39.724 64.8348 39.828C64.9868 39.932 65.2148 39.984 65.5188 39.984H65.6628L65.7708 40.992L65.6628 42H65.5188C64.9668 42 64.5068 41.844 64.1388 41.532C63.7708 41.212 63.4388 40.708 63.1428 40.02L61.4148 36.072L62.7708 35.34ZM59.5668 39.66C60.1908 39.988 60.8308 40.152 61.4868 40.152C62.0148 40.152 62.4348 40.076 62.7468 39.924C63.0668 39.764 63.2908 39.604 63.4188 39.444L64.3188 40.62C64.1828 40.828 64.0268 41.028 63.8508 41.22C63.6748 41.412 63.3988 41.604 63.0228 41.796C62.6548 41.98 62.2108 42.072 61.6908 42.072C60.7068 42.072 59.7628 41.74 58.8588 41.076L59.5668 39.66ZM65.0627 39.984H65.4107C66.8587 39.984 67.9467 39.8 68.6747 39.432C69.4027 39.064 69.8867 38.64 70.1267 38.16C70.0467 38.04 69.8987 37.948 69.6827 37.884C69.4667 37.812 69.2187 37.776 68.9387 37.776C68.6667 37.776 68.3947 37.808 68.1227 37.872C67.8587 37.936 67.6307 38.028 67.4387 38.148C68.0467 38.796 68.6787 39.264 69.3347 39.552C69.9907 39.84 70.7707 39.984 71.6747 39.984H72.0707L72.1787 40.992L72.0707 42H71.6747C70.7947 42 70.0347 41.896 69.3947 41.688C68.7547 41.48 68.1427 41.132 67.5587 40.644C66.9747 40.148 66.3227 39.444 65.6027 38.532L65.6507 37.188C66.0187 36.82 66.4787 36.54 67.0307 36.348C67.5827 36.156 68.1547 36.06 68.7467 36.06C69.4667 36.06 70.0987 36.196 70.6427 36.468C71.1867 36.732 71.5187 37.096 71.6387 37.56C71.6707 37.664 71.6867 37.788 71.6867 37.932C71.6867 38.548 71.3707 39.176 70.7387 39.816C70.1067 40.448 69.3027 40.972 68.3267 41.388C67.3507 41.796 66.3787 42 65.4107 42H65.0627V39.984ZM71.4733 39.984H72.1093C73.1493 39.984 73.6693 39.756 73.6693 39.3C73.6693 39.156 73.5773 38.824 73.3933 38.304C73.2173 37.784 73.0893 37.44 73.0093 37.272L74.4133 36.504C74.5653 36.824 74.7213 37.276 74.8813 37.86C75.0493 38.436 75.1333 38.944 75.1333 39.384C75.1333 40.24 74.8733 40.892 74.3533 41.34C73.8333 41.78 73.0853 42 72.1093 42H71.4733V39.984ZM71.2093 44.064C71.2093 44.064 71.4733 43.8 72.0013 43.272L72.4093 42.864L73.5973 44.064L72.4093 45.252L71.2093 44.064ZM78.9065 42.072C78.4905 42.088 78.1465 41.952 77.8745 41.664C77.6105 41.376 77.4785 41.012 77.4785 40.572C77.4785 40.044 77.6385 39.508 77.9585 38.964C78.2785 38.42 78.6985 37.98 79.2185 37.644L79.9865 38.4C79.6105 38.688 79.3385 38.94 79.1705 39.156C79.0025 39.372 78.8585 39.584 78.7385 39.792C78.7545 39.792 78.7785 39.788 78.8105 39.78C78.8505 39.772 78.8905 39.768 78.9305 39.768C79.2345 39.768 79.4945 39.88 79.7105 40.104C79.9345 40.32 80.0465 40.588 80.0465 40.908C80.0465 41.22 79.9305 41.492 79.6985 41.724C79.4745 41.956 79.2105 42.072 78.9065 42.072ZM85.198 42C84.63 42 84.166 41.792 83.806 41.376C83.454 40.96 83.158 40.376 82.918 39.624L84.142 38.88C84.254 39.288 84.386 39.576 84.538 39.744C84.698 39.904 84.918 39.984 85.198 39.984H85.318L85.426 40.992L85.318 42H85.198ZM80.23 43.824C80.758 43.6 81.246 43.344 81.694 43.056C82.142 42.776 82.494 42.5 82.75 42.228C83.014 41.964 83.146 41.748 83.146 41.58C83.146 41.316 82.934 40.456 82.51 39L82.426 38.7L83.914 38.112C84.106 38.664 84.258 39.252 84.37 39.876C84.482 40.5 84.538 41.068 84.538 41.58C84.538 42.388 84.226 43.128 83.602 43.8C82.978 44.48 82.134 45.052 81.07 45.516L80.23 43.824ZM93.9093 39.984L94.0173 40.992L93.9093 42H93.7773C91.9693 41.992 90.8413 41.32 90.3933 39.984L91.4013 39.036C91.4413 39.164 91.5373 39.3 91.6893 39.444C91.8413 39.588 92.0413 39.716 92.2893 39.828C92.5453 39.932 92.8333 39.984 93.1533 39.984H93.9093ZM84.7053 39.984H85.5333C86.4693 39.984 87.3413 39.888 88.1493 39.696C88.9573 39.496 89.8453 39.14 90.8133 38.628C91.5173 38.252 91.9973 38.028 92.2533 37.956L92.3133 39.48C91.8973 39.408 91.4973 39.308 91.1133 39.18C90.7293 39.044 90.2613 38.836 89.7093 38.556C89.3893 38.396 89.0653 38.272 88.7373 38.184C88.4173 38.088 88.1293 38.04 87.8733 38.04C87.5853 38.04 87.3293 38.116 87.1053 38.268C86.8893 38.42 86.7173 38.588 86.5893 38.772L85.4733 37.944C86.0973 36.704 86.9213 36.084 87.9453 36.084C88.2893 36.084 88.6173 36.14 88.9293 36.252C89.2493 36.364 89.7133 36.576 90.3213 36.888C90.7773 37.128 91.1653 37.308 91.4853 37.428C91.8133 37.548 92.1733 37.648 92.5653 37.728L92.6253 39.552C92.4173 39.608 92.0333 39.796 91.4733 40.116L91.0173 40.356C90.1853 40.788 89.4773 41.12 88.8933 41.352C88.3093 41.584 87.7213 41.748 87.1293 41.844C86.5373 41.94 85.8453 41.992 85.0533 42H84.7053V39.984ZM86.9853 34.116C86.9853 34.116 87.2493 33.852 87.7773 33.324L88.1853 32.916L89.3733 34.116L88.1853 35.304L86.9853 34.116ZM93.3077 39.984H93.9437C94.9837 39.984 95.5037 39.756 95.5037 39.3C95.5037 39.156 95.4117 38.824 95.2277 38.304C95.0517 37.784 94.9237 37.44 94.8437 37.272L96.2477 36.504C96.3997 36.824 96.5557 37.276 96.7157 37.86C96.8837 38.436 96.9677 38.944 96.9677 39.384C96.9677 40.24 96.7077 40.892 96.1877 41.34C95.6677 41.78 94.9197 42 93.9437 42H93.3077V39.984ZM93.0437 44.064C93.0437 44.064 93.3077 43.8 93.8357 43.272L94.2437 42.864L95.4317 44.064L94.2437 45.252L93.0437 44.064Z" fill="white"/>
<path d="M103.657 45.9825C102.82 45.9825 102.068 45.8295 101.402 45.5235C100.736 45.2175 100.21 44.754 99.8229 44.133C99.4449 43.521 99.2559 42.774 99.2559 41.892C99.2559 41.784 99.2649 41.613 99.2829 41.379C99.3549 40.524 99.6699 39.48 100.228 38.247L101.78 38.9625C101.528 39.5745 101.348 40.0515 101.24 40.3935C101.132 40.7355 101.078 41.1135 101.078 41.5275C101.078 42.8055 101.938 43.4445 103.657 43.4445C104.323 43.4445 104.93 43.359 105.479 43.188C106.037 43.017 106.447 42.81 106.708 42.567C106.474 42.414 106.105 42.225 105.601 42C105.106 41.775 104.597 41.577 104.075 41.406L104.615 39.0165C105.452 39.1785 106.163 39.291 106.748 39.354C107.333 39.417 107.923 39.453 108.517 39.462H108.652L108.787 40.731L108.652 42H108.517C107.905 41.991 107.248 41.937 106.546 41.838C105.844 41.73 105.02 41.586 104.075 41.406L104.615 39.894C105.659 40.281 106.541 40.7265 107.261 41.2305C107.99 41.7345 108.355 42.2385 108.355 42.7425C108.355 43.2195 108.148 43.71 107.734 44.214C107.329 44.718 106.766 45.1365 106.046 45.4695C105.335 45.8115 104.539 45.9825 103.657 45.9825ZM107.996 39.462H108.063C108.765 39.462 109.31 39.4305 109.697 39.3675C110.084 39.3045 110.354 39.2055 110.507 39.0705C110.66 38.9265 110.741 38.7375 110.75 38.5035C110.741 38.0985 110.691 37.6575 110.601 37.1805L112.275 36.87C112.401 37.608 112.464 38.3595 112.464 39.1245C112.518 39.2145 112.617 39.2955 112.761 39.3675C112.905 39.4305 113.094 39.462 113.328 39.462H113.382L113.517 40.731L113.382 42H113.315C112.919 42 112.541 41.901 112.181 41.703C111.83 41.496 111.528 41.2305 111.276 40.9065L111.668 41.001C111.362 41.343 110.934 41.595 110.385 41.757C109.845 41.919 109.071 42 108.063 42H107.996V39.462ZM108.86 33.4545L110.129 34.7235L109.278 35.574L108.86 35.9925L108.441 35.574L107.591 34.7235L108.86 33.4545ZM111.195 33.4545L112.464 34.7235L111.614 35.574L111.195 35.9925L110.777 35.574L109.926 34.7235L111.195 33.4545ZM119.102 33.657L115.416 35.2095C115.893 35.6505 116.402 36.2265 116.942 36.9375C117.482 37.6485 117.752 38.3955 117.752 39.1785C117.752 39.3225 117.738 39.462 117.711 39.597C117.558 40.398 117.072 41.001 116.253 41.406C115.443 41.802 114.44 42 113.243 42H112.703V39.462H113.243C113.9 39.462 114.471 39.417 114.957 39.327C115.443 39.228 115.785 39.1155 115.983 38.9895C115.668 38.4855 115.308 38.004 114.903 37.545C114.507 37.077 113.927 36.528 113.162 35.898L113.364 33.7515L118.427 31.6455L119.102 33.657ZM116.528 43.863C117.131 43.593 117.684 43.296 118.188 42.972C118.701 42.657 119.106 42.36 119.403 42.081C119.709 41.802 119.862 41.5815 119.862 41.4195C119.862 41.0595 119.583 39.9885 119.025 38.2065L120.848 37.4775C121.073 38.0985 121.248 38.76 121.374 39.462C121.5 40.155 121.563 40.8075 121.563 41.4195C121.563 42.3555 121.212 43.2105 120.51 43.9845C119.808 44.7585 118.836 45.4245 117.594 45.9825L116.528 43.863ZM124.048 31.605C124.165 32.451 124.251 33.4815 124.305 34.6965C124.368 35.9115 124.399 37.0545 124.399 38.1255C124.399 38.4855 124.426 38.76 124.48 38.949C124.543 39.138 124.647 39.273 124.791 39.354C124.935 39.426 125.142 39.462 125.412 39.462H125.479L125.614 40.731L125.479 42H125.412C123.441 42 122.442 40.7895 122.415 38.3685C122.37 35.8755 122.226 33.7785 121.983 32.0775L124.048 31.605ZM127.655 38.517C128.195 38.895 128.695 39.201 129.154 39.435C129.622 39.669 129.959 39.786 130.166 39.786C130.229 39.786 130.274 39.7725 130.301 39.7455C130.409 39.6465 130.463 39.489 130.463 39.273C130.463 38.967 130.369 38.6745 130.18 38.3955C130 38.1165 129.761 37.977 129.464 37.977C129.248 37.977 129.019 38.1165 128.776 38.3955C128.533 38.6745 128.249 39.219 127.925 40.029C127.664 40.695 127.282 41.19 126.778 41.514C126.283 41.838 125.711 42 125.063 42H124.807L124.861 39.462H125.104C125.743 39.462 126.305 39.0345 126.791 38.1795C127.268 37.3155 127.714 36.69 128.128 36.303C128.542 35.907 129.005 35.709 129.518 35.709C130.04 35.709 130.495 35.88 130.882 36.222C131.278 36.555 131.579 36.9915 131.786 37.5315C131.993 38.0625 132.097 38.6205 132.097 39.2055C132.097 39.7725 131.998 40.2945 131.8 40.7715C131.602 41.2485 131.309 41.6085 130.922 41.8515C130.67 42.0045 130.391 42.081 130.085 42.081C129.257 42.081 128.132 41.595 126.71 40.623L127.655 38.517ZM136.505 42C135.848 42 135.304 41.757 134.872 41.271C134.449 40.776 134.098 40.092 133.819 39.219L135.344 38.2875C135.461 38.7195 135.605 39.0255 135.776 39.2055C135.947 39.3765 136.19 39.462 136.505 39.462H136.654L136.789 40.731L136.654 42H136.505ZM130.768 43.863C131.371 43.593 131.924 43.296 132.428 42.972C132.941 42.657 133.346 42.36 133.643 42.081C133.949 41.802 134.102 41.5815 134.102 41.4195C134.102 41.0595 133.823 39.9885 133.265 38.2065L135.088 37.4775C135.313 38.0985 135.488 38.76 135.614 39.462C135.74 40.155 135.803 40.8075 135.803 41.4195C135.803 42.3555 135.452 43.2105 134.75 43.9845C134.048 44.7585 133.076 45.4245 131.834 45.9825L130.768 43.863ZM136.744 39.462H137.473C138.31 39.462 138.904 39.3945 139.255 39.2595C139.615 39.1245 139.795 38.9355 139.795 38.6925C139.795 38.4675 139.547 37.761 139.052 36.573L140.767 35.628C140.947 36.006 141.127 36.5145 141.307 37.1535C141.496 37.7835 141.59 38.3505 141.59 38.8545C141.59 39.8625 141.275 40.641 140.645 41.19C140.015 41.73 139.093 42 137.878 42H136.744V39.462ZM139.876 42.9315L141.064 44.1195L139.876 45.321L138.674 44.1195L139.876 42.9315ZM137.27 42.9315L138.458 44.1195L137.27 45.321L136.069 44.1195L137.27 42.9315ZM138.566 44.781L139.619 45.8205L138.566 46.86L137.878 46.1715L137.527 45.8205L138.566 44.781ZM135.974 42L135.839 40.731L135.974 39.462H136.838V42H135.974ZM142.091 43.7955C143.171 43.5615 144.035 43.3185 144.683 43.0665C145.331 42.8145 145.808 42.522 146.114 42.189C146.42 41.856 146.573 41.4555 146.573 40.9875C146.573 40.4385 146.492 39.9165 146.33 39.4215C146.177 38.9265 145.975 38.5305 145.723 38.2335C145.471 37.9365 145.21 37.788 144.94 37.788C144.688 37.788 144.472 37.9005 144.292 38.1255C144.121 38.3505 144.035 38.5755 144.035 38.8005C144.035 38.8995 144.062 38.985 144.116 39.057C144.26 39.228 144.584 39.3405 145.088 39.3945C145.601 39.4395 146.33 39.462 147.275 39.462H148.747L148.882 40.731L148.747 42L146.978 42.0135C146.186 42.0135 145.516 41.982 144.967 41.919C144.418 41.847 143.936 41.703 143.522 41.487C143.117 41.262 142.82 40.9335 142.631 40.5015C142.469 40.1505 142.388 39.732 142.388 39.246C142.388 38.67 142.51 38.0985 142.753 37.5315C142.996 36.9645 143.329 36.501 143.752 36.141C144.175 35.781 144.647 35.601 145.169 35.601C145.727 35.601 146.24 35.835 146.708 36.303C147.176 36.771 147.545 37.3965 147.815 38.1795C148.085 38.9625 148.22 39.813 148.22 40.731C148.22 41.631 148.004 42.441 147.572 43.161C147.149 43.881 146.537 44.4795 145.736 44.9565C144.935 45.4425 143.986 45.7845 142.888 45.9825L142.091 43.7955ZM155.585 39.462C155.792 39.462 155.968 39.399 156.112 39.273C156.256 39.147 156.328 39.003 156.328 38.841C156.328 38.535 156.08 37.779 155.585 36.573L157.246 35.655C157.417 36.006 157.597 36.519 157.786 37.194C157.984 37.869 158.083 38.4585 158.083 38.9625C158.083 39.5115 157.975 40.02 157.759 40.488C157.552 40.947 157.259 41.316 156.881 41.595C156.503 41.865 156.071 42 155.585 42H155.545V39.462H155.585ZM151.927 42V39.462H152.008C152.431 39.462 152.737 39.2595 152.926 38.8545C153.097 38.4945 153.245 38.0085 153.371 37.3965L155.032 37.464C155.005 37.617 154.973 37.824 154.937 38.085C154.91 38.337 154.897 38.535 154.897 38.679C154.897 38.913 154.951 39.102 155.059 39.246C155.176 39.39 155.347 39.462 155.572 39.462H155.612L155.747 40.731L155.612 42H155.572C155.113 42 154.708 41.8875 154.357 41.6625C154.015 41.4285 153.749 41.1 153.56 40.677L153.992 40.65C153.677 41.118 153.362 41.46 153.047 41.676C152.741 41.892 152.381 42 151.967 42H151.927ZM148.066 42L147.931 40.731L148.066 39.462H148.133C148.376 39.462 148.624 39.4125 148.876 39.3135C149.128 39.2145 149.312 39.0975 149.429 38.9625C149.735 38.6385 149.974 38.1345 150.145 37.4505L151.805 37.626C151.787 37.689 151.738 37.878 151.657 38.193C151.576 38.508 151.535 38.76 151.535 38.949C151.535 39.291 151.679 39.462 151.967 39.462H152.008L152.143 40.731L152.008 42H151.913C151.553 42 151.22 41.9145 150.914 41.7435C150.617 41.5635 150.392 41.325 150.239 41.028C149.942 41.343 149.609 41.586 149.24 41.757C148.88 41.919 148.502 42 148.106 42H148.066ZM162.497 38.274C162.236 38.886 162.051 39.363 161.943 39.705C161.835 40.047 161.781 40.425 161.781 40.839C161.781 41.505 162.002 41.991 162.443 42.297C162.884 42.612 163.527 42.7695 164.373 42.7695C165.003 42.7695 165.597 42.6885 166.155 42.5265C166.722 42.3645 167.15 42.126 167.438 41.811C166.826 41.703 166.313 41.5905 165.899 41.4735C165.179 41.2575 164.666 40.992 164.36 40.677C164.054 40.353 163.901 39.8895 163.901 39.2865C163.901 38.5125 164.094 37.77 164.481 37.059C164.868 36.348 165.381 35.772 166.02 35.331C166.659 34.89 167.33 34.6695 168.032 34.6695C168.32 34.6695 168.617 34.7145 168.923 34.8045C169.229 34.8945 169.427 34.998 169.517 35.115L168.815 37.3155C168.554 37.2435 168.315 37.2075 168.099 37.2075C167.586 37.1805 167.1 37.2975 166.641 37.5585C166.191 37.8105 165.89 38.148 165.737 38.571C165.728 38.598 165.723 38.634 165.723 38.679C165.723 38.814 165.836 38.9355 166.061 39.0435C166.286 39.1425 166.691 39.2505 167.276 39.3675C168.122 39.5385 168.689 39.7905 168.977 40.1235C169.265 40.4565 169.409 40.839 169.409 41.271C169.409 41.991 169.184 42.657 168.734 43.269C168.284 43.89 167.672 44.385 166.898 44.754C166.124 45.123 165.282 45.3075 164.373 45.3075C163.536 45.3075 162.785 45.15 162.119 44.835C161.453 44.529 160.926 44.0655 160.539 43.4445C160.161 42.8325 159.972 42.081 159.972 41.19C159.972 40.974 159.977 40.812 159.986 40.704C160.058 39.849 160.373 38.805 160.931 37.572L162.497 38.274ZM176.982 31.605C177.099 32.433 177.193 33.387 177.265 34.467C177.337 35.538 177.373 36.5955 177.373 37.6395C177.373 38.5935 177.067 39.4305 176.455 40.1505C175.852 40.8705 175.051 41.424 174.052 41.811C173.062 42.198 172 42.3915 170.866 42.3915L170.259 40.083C171.294 40.02 172.167 39.9255 172.878 39.7995C173.589 39.6735 174.178 39.444 174.646 39.111C175.123 38.769 175.362 38.292 175.362 37.68C175.353 36.762 175.308 35.8845 175.227 35.0475C175.155 34.2105 175.042 33.2205 174.889 32.0775L176.982 31.605ZM171.865 32.793C172.891 34.809 173.404 36.5595 173.404 38.0445C173.404 38.8185 173.26 39.471 172.972 40.002L171.379 40.1235C171.559 39.7905 171.649 39.4035 171.649 38.9625C171.649 38.3775 171.519 37.6845 171.258 36.8835C170.997 36.0735 170.614 35.1195 170.11 34.0215L171.865 32.793ZM179.846 31.605C179.963 32.451 180.048 33.4815 180.102 34.6965C180.165 35.9115 180.197 37.0545 180.197 38.1255C180.197 38.4855 180.224 38.76 180.278 38.949C180.341 39.138 180.444 39.273 180.588 39.354C180.732 39.426 180.939 39.462 181.209 39.462H181.277L181.412 40.731L181.277 42H181.209C179.238 42 178.239 40.7895 178.212 38.3685C178.167 35.8755 178.023 33.7785 177.78 32.0775L179.846 31.605ZM187.003 33.657L183.318 35.2095C183.795 35.6505 184.303 36.2265 184.843 36.9375C185.383 37.6485 185.653 38.3955 185.653 39.1785C185.653 39.3225 185.64 39.462 185.613 39.597C185.46 40.398 184.974 41.001 184.155 41.406C183.345 41.802 182.341 42 181.144 42H180.604V39.462H181.144C181.801 39.462 182.373 39.417 182.859 39.327C183.345 39.228 183.687 39.1155 183.885 38.9895C183.57 38.4855 183.21 38.004 182.805 37.545C182.409 37.077 181.828 36.528 181.063 35.898L181.266 33.7515L186.328 31.6455L187.003 33.657Z" fill="#FECE00"/>
<g filter="url(#filter0_d_11510_9)">
<path d="M120.282 14.3349C120.295 13.7023 120.45 13.1437 120.746 12.6591C121.042 12.1746 121.439 11.8112 121.938 11.5689C122.436 11.3266 122.994 11.2324 123.613 11.2862C124.138 10.0748 124.771 9.15955 125.511 8.54039C126.251 7.90777 127.025 7.59146 127.833 7.59146C128.627 7.59146 129.314 7.8472 129.892 8.35868C130.485 8.8567 130.929 9.50951 131.225 10.3171C131.534 11.1112 131.689 11.9458 131.689 12.8207C131.689 13.6686 131.541 14.4493 131.245 15.1627C130.949 15.8626 130.512 16.401 129.933 16.7779C129.583 17.0067 129.172 17.1211 128.701 17.1211C128.149 17.1211 127.436 16.9663 126.561 16.6568C125.7 16.3337 124.596 15.8222 123.25 15.1223C123.236 16.4818 123.317 18.2047 123.492 20.291C123.681 22.3907 123.822 23.8242 123.916 24.5914L120.787 25.3183C120.679 24.2011 120.565 22.7205 120.443 20.8765C120.322 19.0325 120.262 17.2827 120.262 15.6271C120.262 15.0348 120.268 14.6041 120.282 14.3349ZM126.157 12.5178C126.749 12.8812 127.281 13.1706 127.752 13.386C128.223 13.5879 128.573 13.6888 128.802 13.6888C128.91 13.6888 128.984 13.6686 129.024 13.6283C129.172 13.4937 129.246 13.2648 129.246 12.9418C129.246 12.4842 129.105 12.0467 128.822 11.6295C128.553 11.1987 128.196 10.9834 127.752 10.9834C127.523 10.9834 127.281 11.0911 127.025 11.3064C126.77 11.5218 126.48 11.9256 126.157 12.5178ZM132.534 16.8789C132.695 15.8694 132.776 14.4426 132.776 12.5986C132.776 10.7546 132.702 8.80286 132.554 6.74348C132.42 4.6841 132.265 3.15639 132.09 2.16035L135.219 1.4537C135.354 2.38244 135.475 3.79574 135.583 5.6936C135.69 7.578 135.744 9.44221 135.744 11.2862C135.744 13.8302 135.636 15.7953 135.421 17.1817L132.534 16.8789ZM136.45 19.6853C138.066 19.3353 139.358 18.9719 140.327 18.595C141.296 18.2181 142.009 17.7807 142.467 17.2827C142.925 16.7846 143.153 16.1857 143.153 15.4857C143.153 14.6647 143.032 13.8907 142.79 13.1639C142.561 12.4236 142.258 11.8314 141.881 11.3872C141.505 10.943 141.114 10.7209 140.71 10.7209C140.334 10.7209 140.011 10.8892 139.741 11.2257C139.486 11.5487 139.358 11.8785 139.358 12.215C139.358 12.363 139.398 12.4909 139.479 12.5986C139.694 12.8139 140.078 12.9956 140.63 13.1437C141.195 13.2783 141.821 13.3456 142.507 13.3456C142.898 13.3456 143.342 13.312 143.84 13.2447V16.7779C143.14 16.9529 142.427 17.0404 141.7 17.0404C140.663 17.0404 139.748 16.8452 138.954 16.4549C138.16 16.0645 137.594 15.4992 137.258 14.7589C137.016 14.234 136.895 13.6081 136.895 12.8812C136.895 12.0198 137.076 11.1651 137.44 10.3171C137.803 9.46913 138.301 8.77594 138.934 8.23754C139.566 7.69914 140.273 7.42994 141.054 7.42994C141.888 7.42994 142.655 7.7799 143.355 8.47982C144.055 9.17974 144.607 10.1152 145.011 11.2862C145.415 12.4572 145.617 13.7292 145.617 15.1021C145.617 16.4481 145.294 17.6595 144.647 18.7363C144.015 19.8131 143.1 20.7082 141.902 21.4216C140.704 22.1485 139.284 22.6599 137.642 22.9561L136.45 19.6853ZM152.284 22.9561C151.033 22.9561 149.909 22.7272 148.913 22.2696C147.917 21.812 147.129 21.1188 146.55 20.19C145.985 19.2747 145.702 18.1576 145.702 16.8385C145.702 16.677 145.716 16.4212 145.743 16.0713C145.85 14.7926 146.322 13.2312 147.156 11.3872L149.478 12.4572C149.101 13.3725 148.832 14.0859 148.67 14.5974C148.509 15.1089 148.428 15.6742 148.428 16.2933C148.428 18.2047 149.713 19.1603 152.284 19.1603C153.28 19.1603 154.189 19.0325 155.01 18.7767C155.845 18.521 156.457 18.2114 156.847 17.848C156.497 17.6192 155.945 17.3365 155.192 17C154.451 16.6635 153.691 16.3674 152.91 16.1116L153.718 12.538C154.97 12.7803 156.033 12.9485 156.908 13.0428C157.783 13.137 158.664 13.1908 159.553 13.2043H159.755L159.957 15.1021L159.755 17H159.553C158.637 16.9865 157.655 16.9058 156.605 16.7577C155.555 16.5962 154.324 16.3808 152.91 16.1116L153.718 13.8504C155.279 14.4291 156.598 15.0954 157.675 15.8492C158.765 16.6029 159.31 17.3567 159.31 18.1105C159.31 18.8238 159.001 19.5574 158.382 20.3112C157.776 21.0649 156.935 21.6908 155.858 22.1888C154.795 22.7003 153.603 22.9561 152.284 22.9561ZM167.318 4.52258L161.806 6.84443C162.519 7.50397 163.28 8.36541 164.087 9.42875C164.895 10.4921 165.299 11.6093 165.299 12.7803C165.299 12.9956 165.279 13.2043 165.238 13.4062C165.009 14.6041 164.282 15.5059 163.058 16.1116C161.846 16.7039 160.345 17 158.555 17H157.748V13.2043H158.555C159.538 13.2043 160.393 13.137 161.119 13.0024C161.846 12.8543 162.358 12.6861 162.654 12.4976C162.183 11.7439 161.644 11.0238 161.039 10.3373C160.446 9.63738 159.578 8.81632 158.434 7.87412L158.737 4.66391L166.308 1.51427L167.318 4.52258ZM164.888 19.7862C165.79 19.3824 166.618 18.9382 167.372 18.4537C168.139 17.9826 168.745 17.5384 169.189 17.1211C169.646 16.7039 169.875 16.3741 169.875 16.1318C169.875 15.5934 169.458 13.9917 168.623 11.3266L171.349 10.2363C171.686 11.1651 171.948 12.1544 172.136 13.2043C172.325 14.2407 172.419 15.2165 172.419 16.1318C172.419 17.5317 171.894 18.8104 170.844 19.9679C169.794 21.1255 168.341 22.1215 166.483 22.9561L164.888 19.7862ZM167.452 6.35987L169.613 4.19954L171.753 6.35987L169.613 8.50001L167.452 6.35987ZM173.49 16.8789C173.652 15.8694 173.733 14.4426 173.733 12.5986C173.733 10.7546 173.659 8.80286 173.511 6.74348C173.376 4.6841 173.221 3.15639 173.046 2.16035L176.176 1.4537C176.31 2.38244 176.431 3.79574 176.539 5.6936C176.647 7.578 176.701 9.44221 176.701 11.2862C176.701 13.8302 176.593 15.7953 176.378 17.1817L173.49 16.8789Z" fill="white"/>
</g>
<defs>
<filter id="filter0_d_11510_9" x="119.266" y="1.45312" width="58.4375" height="26.8652" filterUnits="userSpaceOnUse" color-interpolation-filters="sRGB">
<feFlood flood-opacity="0" result="BackgroundImageFix"/>
<feColorMatrix in="SourceAlpha" type="matrix" values="0 0 0 0 0 0 0 0 0 0 0 0 0 0 0 0 0 0 127 0" result="hardAlpha"/>
<feOffset dy="2"/>
<feGaussianBlur stdDeviation="0.5"/>
<feComposite in2="hardAlpha" operator="out"/>
<feColorMatrix type="matrix" values="0 0 0 0 0 0 0 0 0 0 0 0 0 0 0 0 0 0 0.25 0"/>
<feBlend mode="normal" in2="BackgroundImageFix" result="effect1_dropShadow_11510_9"/>
<feBlend mode="normal" in="SourceGraphic" in2="effect1_dropShadow_11510_9" result="shape"/>
</filter>
</defs>
</svg>
