<svg width="158" height="51" viewBox="0 0 158 51" fill="none" xmlns="http://www.w3.org/2000/svg">
<g clip-path="url(#clip0_11692_18)">
<path d="M87.3026 17.0787C86.8474 17.0962 86.471 16.9474 86.1733 16.6322C85.8845 16.3171 85.74 15.9188 85.74 15.4373C85.74 14.8595 85.9151 14.273 86.2653 13.6777C86.6154 13.0825 87.075 12.601 87.644 12.2333L88.4844 13.0606C88.073 13.3757 87.7753 13.6515 87.5915 13.8878C87.4077 14.1242 87.2501 14.3562 87.1188 14.5838C87.1363 14.5838 87.1626 14.5794 87.1976 14.5706C87.2413 14.5619 87.2851 14.5575 87.3289 14.5575C87.6615 14.5575 87.946 14.6801 88.1824 14.9252C88.4275 15.1615 88.5501 15.4548 88.5501 15.805C88.5501 16.1464 88.4231 16.444 88.1693 16.6979C87.9242 16.9518 87.6353 17.0787 87.3026 17.0787ZM152.643 7.08594C152.748 7.84754 152.827 8.84551 152.88 10.0798C152.941 11.3054 152.971 12.4347 152.971 13.4676C152.971 13.8178 153.002 14.0892 153.063 14.2818C153.125 14.4656 153.23 14.5969 153.379 14.6757C153.527 14.7545 153.746 14.7939 154.035 14.7939H154.088L154.206 15.8969L154.088 16.9999H154.035C153.055 16.9999 152.341 16.7154 151.895 16.1464C151.448 15.5686 151.221 14.7063 151.212 13.5596C151.177 11.0121 151.05 8.98995 150.831 7.493L152.643 7.08594ZM153.447 14.7939H154.143C155.281 14.7939 155.85 14.5444 155.85 14.0454C155.85 13.8878 155.75 13.5245 155.548 12.9555C155.356 12.3865 155.216 12.0101 155.128 11.8263L156.664 10.9859C156.831 11.336 157.001 11.8306 157.176 12.4697C157.36 13.1 157.452 13.6559 157.452 14.1373C157.452 15.074 157.168 15.7875 156.599 16.2777C156.03 16.7592 155.211 16.9999 154.143 16.9999H153.447V14.7939ZM153.158 19.2584C153.158 19.2584 153.447 18.9696 154.025 18.3918L154.471 17.9453L155.771 19.2584L154.471 20.5584L153.158 19.2584ZM2.99587 39.0719H1.54387L1.32787 33.1799H3.21187L2.99587 39.0719ZM2.26388 42.1919C1.95188 42.1919 1.69187 42.0839 1.48387 41.8679C1.27587 41.6519 1.17188 41.3879 1.17188 41.0759C1.17188 40.7719 1.27587 40.5199 1.48387 40.3199C1.69187 40.1119 1.95188 40.0079 2.26388 40.0079C2.57588 40.0079 2.83587 40.1119 3.04387 40.3199C3.25187 40.5199 3.35588 40.7719 3.35588 41.0759C3.35588 41.3879 3.25187 41.6519 3.04387 41.8679C2.83587 42.0839 2.57588 42.1919 2.26388 42.1919ZM11.6193 38.8679C11.7633 39.2919 11.9073 39.5839 12.0513 39.7439C12.1953 39.9039 12.4113 39.9839 12.6993 39.9839H12.7953L12.9033 40.9919L12.7953 41.9999H12.6993C12.1473 41.9999 11.7073 41.7879 11.3793 41.3639C11.0513 40.9399 10.7553 40.3399 10.4913 39.5639L11.6193 38.8679ZM6.25529 39.3479C6.03929 39.8759 5.87928 40.3079 5.77528 40.6439C5.67928 40.9719 5.63128 41.3239 5.63128 41.6999C5.63128 42.9079 6.41528 43.5119 7.98328 43.5119C8.51928 43.5119 8.99128 43.4199 9.39928 43.2359C9.81528 43.0599 10.1353 42.8239 10.3593 42.5279C10.5913 42.2319 10.7073 41.9119 10.7073 41.5679C10.7073 41.1999 10.5753 40.6479 10.3113 39.9119C10.0553 39.1759 9.91929 38.7799 9.90329 38.7239L11.3073 37.9559C11.8353 39.3159 12.0993 40.5199 12.0993 41.5679C12.0993 42.2959 11.9233 42.9599 11.5713 43.5599C11.2193 44.1679 10.7313 44.6479 10.1073 44.9999C9.48328 45.3519 8.77528 45.5279 7.98328 45.5279C7.23928 45.5279 6.57529 45.3879 5.99129 45.1079C5.41529 44.8279 4.96329 44.4159 4.63529 43.8719C4.30729 43.3359 4.14329 42.6959 4.14329 41.9519C4.14329 41.7839 4.14729 41.6559 4.15529 41.5679C4.21129 40.7759 4.49128 39.8439 4.99528 38.7719L6.25529 39.3479ZM7.02328 37.9319C7.02328 37.9319 7.28728 37.6679 7.81528 37.1399L8.22328 36.7319L9.41128 37.9319L8.22328 39.1199L7.02328 37.9319ZM17.8331 34.5359L14.4611 35.9639C14.9091 36.3719 15.3771 36.9039 15.8651 37.5599C16.3531 38.2079 16.5971 38.8679 16.5971 39.5399C16.5971 39.6999 16.5811 39.8439 16.5491 39.9719C16.4051 40.6519 15.9811 41.1599 15.2771 41.4959C14.5731 41.8319 13.6931 41.9999 12.6371 41.9999H12.1931V39.9839H12.6371C13.2771 39.9839 13.8131 39.9359 14.2451 39.8399C14.6851 39.7439 14.9851 39.6199 15.1451 39.4679C14.8091 38.6039 13.9731 37.6239 12.6371 36.5279L12.8051 34.7999L17.2811 32.9279L17.8331 34.5359ZM23.6132 42.1559C23.5972 41.7079 23.5892 41.3719 23.5892 41.1479C23.5892 40.9159 23.5972 40.5759 23.6132 40.1279C24.6852 40.1279 25.5012 40.0679 26.0612 39.9479C26.6292 39.8279 27.0572 39.6279 27.3452 39.3479C27.6412 39.0679 27.8972 38.6479 28.1132 38.0879L29.4692 38.2439C29.3092 38.7239 29.2292 39.0839 29.2292 39.3239C29.2292 39.5559 29.2892 39.7239 29.4092 39.8279C29.5292 39.9239 29.7092 39.9719 29.9492 39.9719L30.0572 40.9919L29.9492 41.9999C29.6292 41.9999 29.3252 41.9279 29.0372 41.7839C28.7572 41.6319 28.5332 41.4279 28.3652 41.1719C28.1972 40.9159 28.1172 40.6279 28.1252 40.3079L28.3652 40.3679C27.8452 41.0479 27.2132 41.5159 26.4692 41.7719C25.7332 42.0279 24.7812 42.1559 23.6132 42.1559ZM20.7092 37.6559C20.5092 38.3039 20.4092 38.7839 20.4092 39.0959C20.4092 39.2719 20.5372 39.4399 20.7932 39.5999C21.0572 39.7599 21.4372 39.8879 21.9332 39.9839C22.4372 40.0799 23.0332 40.1279 23.7212 40.1279C23.7452 40.4959 23.7572 40.8559 23.7572 41.2079C23.7572 41.5279 23.7452 41.8439 23.7212 42.1559C22.2732 42.1639 21.1332 41.9399 20.3012 41.4839C19.4692 41.0279 19.0172 40.3919 18.9452 39.5759C18.9372 39.5119 18.9332 39.4159 18.9332 39.2879C18.9332 38.9359 18.9812 38.5559 19.0772 38.1479C19.1732 37.7399 19.2932 37.3759 19.4372 37.0559L20.7092 37.6559ZM23.0732 35.7359L24.1292 36.8039L23.0732 37.8719L22.7132 37.5119C22.2412 37.0399 22.0052 36.8039 22.0052 36.8039L23.0732 35.7359ZM25.1612 35.7359L26.2172 36.8039L25.1612 37.8719L24.8012 37.5119C24.3292 37.0399 24.0932 36.8039 24.0932 36.8039L25.1612 35.7359ZM29.3504 39.9839H30.1784C31.1144 39.9839 31.9864 39.8879 32.7944 39.6959C33.6024 39.4959 34.4904 39.1399 35.4584 38.6279C36.1624 38.2519 36.6424 38.0279 36.8984 37.9559L36.9584 39.4799C36.5424 39.4079 36.1424 39.3079 35.7584 39.1799C35.3744 39.0439 34.9064 38.8359 34.3544 38.5559C34.0344 38.3959 33.7104 38.2719 33.3824 38.1839C33.0624 38.0879 32.7744 38.0399 32.5184 38.0399C32.2304 38.0399 31.9744 38.1159 31.7504 38.2679C31.5344 38.4199 31.3624 38.5879 31.2344 38.7719L30.1184 37.9439C30.7424 36.7039 31.5664 36.0839 32.5904 36.0839C32.9344 36.0839 33.2624 36.1399 33.5744 36.2519C33.8944 36.3639 34.3584 36.5759 34.9664 36.8879C35.4224 37.1279 35.8104 37.3079 36.1304 37.4279C36.4584 37.5479 36.8184 37.6479 37.2104 37.7279L37.2704 39.5519C37.0624 39.6079 36.6784 39.7959 36.1184 40.1159L35.6624 40.3559C34.8304 40.7879 34.1224 41.1199 33.5384 41.3519C32.9544 41.5839 32.3664 41.7479 31.7744 41.8439C31.1824 41.9399 30.4904 41.9919 29.6984 41.9999H29.3504V39.9839ZM31.6304 34.1159C31.6304 34.1159 31.8944 33.8519 32.4224 33.3239L32.8304 32.9159L34.0184 34.1159L32.8304 35.3039L31.6304 34.1159ZM37.8416 41.9279C37.9296 41.3999 37.9736 40.5599 37.9736 39.4079C37.9736 38.3039 37.9336 37.1479 37.8536 35.9399C37.7816 34.7239 37.6976 33.8479 37.6016 33.3119L39.2816 32.9399C39.3616 33.4439 39.4296 34.2679 39.4856 35.4119C39.5496 36.5479 39.5816 37.6719 39.5816 38.7839C39.5816 40.2079 39.5256 41.3119 39.4136 42.0959L37.8416 41.9279ZM40.6259 39.6599C40.8979 39.7879 41.1859 39.9039 41.4899 40.0079C41.8019 40.1039 42.1699 40.1519 42.5939 40.1519C43.0179 40.1439 43.3699 40.0999 43.6499 40.0199C43.9299 39.9319 44.1139 39.8399 44.2019 39.7439C44.2179 39.6239 44.1619 39.4399 44.0339 39.1919C43.9139 38.9359 43.6659 38.6159 43.2899 38.2319C42.9219 37.8399 42.3939 37.4159 41.7059 36.9599L42.6659 35.1839C43.6019 35.8319 44.3459 36.5599 44.8979 37.3679C45.4579 38.1679 45.7379 38.9359 45.7379 39.6719C45.7379 40.0159 45.6739 40.3319 45.5459 40.6199C45.3459 41.0839 44.9859 41.4399 44.4659 41.6879C43.9539 41.9359 43.3939 42.0599 42.7859 42.0599C42.0659 42.0599 41.4659 41.9479 40.9859 41.7239C40.5139 41.4999 40.1579 41.2839 39.9179 41.0759L40.6259 39.6599ZM49.4856 41.9999C48.9176 41.9999 48.4536 41.7919 48.0936 41.3759C47.7416 40.9599 47.4456 40.3759 47.2056 39.6239L48.4296 38.8799C48.5416 39.2879 48.6736 39.5759 48.8256 39.7439C48.9856 39.9039 49.2056 39.9839 49.4856 39.9839H49.6056L49.7136 40.9919L49.6056 41.9999H49.4856ZM44.5176 43.8239C45.0456 43.5999 45.5336 43.3439 45.9816 43.0559C46.4296 42.7759 46.7816 42.4999 47.0376 42.2279C47.3016 41.9639 47.4336 41.7479 47.4336 41.5799C47.4336 41.3159 47.2216 40.4559 46.7976 38.9999L46.7136 38.6999L48.2016 38.1119C48.3936 38.6639 48.5456 39.2519 48.6576 39.8759C48.7696 40.4999 48.8256 41.0679 48.8256 41.5799C48.8256 42.3879 48.5136 43.1279 47.8896 43.7999C47.2656 44.4799 46.4216 45.0519 45.3576 45.5159L44.5176 43.8239ZM49.6169 39.9839H50.2169C50.9849 39.9839 51.5289 39.9199 51.8489 39.7919C52.1769 39.6639 52.3409 39.4759 52.3409 39.2279C52.3409 39.0759 52.2529 38.7599 52.0769 38.2799C51.9009 37.7919 51.7689 37.4559 51.6809 37.2719L53.0729 36.5039C53.2329 36.8399 53.3929 37.2879 53.5529 37.8479C53.7209 38.4079 53.8049 38.9039 53.8049 39.3359C53.8049 40.1919 53.5289 40.8519 52.9769 41.3159C52.4249 41.7719 51.6129 41.9999 50.5409 41.9999H49.6169V39.9839ZM52.4129 42.8279L53.4209 43.8359L52.4129 44.8439L51.4049 43.8359L52.4129 42.8279ZM50.1089 42.8279L51.1169 43.8359L50.1089 44.8439L49.1009 43.8359L50.1089 42.8279ZM51.2609 44.4119C51.5649 44.6999 51.8609 44.9959 52.1489 45.2999L51.2609 46.1759C51.0689 45.9759 50.7729 45.6839 50.3729 45.2999L51.2609 44.4119ZM49.0289 41.9999L48.9209 40.9919L49.0289 39.9839H49.7009V41.9999H49.0289ZM56.2189 41.9279C56.3069 41.3999 56.3509 40.5599 56.3509 39.4079C56.3509 38.3039 56.3109 37.1479 56.2309 35.9399C56.1589 34.7239 56.0749 33.8479 55.9789 33.3119L57.6589 32.9399C57.7389 33.4439 57.8069 34.2679 57.8629 35.4119C57.9269 36.5479 57.9589 37.6719 57.9589 38.7839C57.9589 40.2079 57.9029 41.3119 57.7909 42.0959L56.2189 41.9279ZM62.2072 35.3399L63.8512 39.2279C63.9792 39.5239 64.1192 39.7239 64.2712 39.8279C64.4232 39.9319 64.6512 39.9839 64.9552 39.9839H65.0992L65.2072 40.9919L65.0992 41.9999H64.9552C64.4032 41.9999 63.9432 41.8439 63.5752 41.5319C63.2072 41.2119 62.8752 40.7079 62.5792 40.0199L60.8512 36.0719L62.2072 35.3399ZM59.0032 39.6599C59.6272 39.9879 60.2672 40.1519 60.9232 40.1519C61.4512 40.1519 61.8712 40.0759 62.1832 39.9239C62.5032 39.7639 62.7272 39.6039 62.8552 39.4439L63.7552 40.6199C63.6192 40.8279 63.4632 41.0279 63.2872 41.2199C63.1112 41.4119 62.8352 41.6039 62.4592 41.7959C62.0912 41.9799 61.6472 42.0719 61.1272 42.0719C60.1432 42.0719 59.1992 41.7399 58.2952 41.0759L59.0032 39.6599ZM64.499 39.9839H64.847C66.295 39.9839 67.383 39.7999 68.111 39.4319C68.839 39.0639 69.323 38.6399 69.563 38.1599C69.483 38.0399 69.335 37.9479 69.119 37.8839C68.903 37.8119 68.655 37.7759 68.375 37.7759C68.103 37.7759 67.831 37.8079 67.559 37.8719C67.295 37.9359 67.067 38.0279 66.875 38.1479C67.483 38.7959 68.115 39.2639 68.771 39.5519C69.427 39.8399 70.207 39.9839 71.111 39.9839H71.507L71.615 40.9919L71.507 41.9999H71.111C70.231 41.9999 69.471 41.8959 68.831 41.6879C68.191 41.4799 67.579 41.1319 66.995 40.6439C66.411 40.1479 65.759 39.4439 65.039 38.5319L65.087 37.1879C65.455 36.8199 65.915 36.5399 66.467 36.3479C67.019 36.1559 67.591 36.0599 68.183 36.0599C68.903 36.0599 69.535 36.1959 70.079 36.4679C70.623 36.7319 70.955 37.0959 71.075 37.5599C71.107 37.6639 71.123 37.7879 71.123 37.9319C71.123 38.5479 70.807 39.1759 70.175 39.8159C69.543 40.4479 68.739 40.9719 67.763 41.3879C66.787 41.7959 65.815 41.9999 64.847 41.9999H64.499V39.9839ZM70.9096 39.9839H71.5456C72.5856 39.9839 73.1056 39.7559 73.1056 39.2999C73.1056 39.1559 73.0136 38.8239 72.8296 38.3039C72.6536 37.7839 72.5256 37.4399 72.4456 37.2719L73.8496 36.5039C74.0016 36.8239 74.1576 37.2759 74.3176 37.8599C74.4856 38.4359 74.5696 38.9439 74.5696 39.3839C74.5696 40.2399 74.3096 40.8919 73.7896 41.3399C73.2696 41.7799 72.5216 41.9999 71.5456 41.9999H70.9096V39.9839ZM70.6456 44.0639C70.6456 44.0639 70.9096 43.7999 71.4376 43.2719L71.8456 42.8639L73.0336 44.0639L71.8456 45.2519L70.6456 44.0639ZM78.3429 42.0719C77.9269 42.0879 77.5829 41.9519 77.3109 41.6639C77.0469 41.3759 76.9149 41.0119 76.9149 40.5719C76.9149 40.0439 77.0749 39.5079 77.3949 38.9639C77.7149 38.4199 78.1349 37.9799 78.6549 37.6439L79.4229 38.3999C79.0469 38.6879 78.7749 38.9399 78.6069 39.1559C78.4389 39.3719 78.2949 39.5839 78.1749 39.7919C78.1909 39.7919 78.2149 39.7879 78.2469 39.7799C78.2869 39.7719 78.3269 39.7679 78.3669 39.7679C78.6709 39.7679 78.9309 39.8799 79.1469 40.1039C79.3709 40.3199 79.4829 40.5879 79.4829 40.9079C79.4829 41.2199 79.3669 41.4919 79.1349 41.7239C78.9109 41.9559 78.6469 42.0719 78.3429 42.0719ZM84.6344 41.9999C84.0664 41.9999 83.6024 41.7919 83.2424 41.3759C82.8904 40.9599 82.5944 40.3759 82.3544 39.6239L83.5784 38.8799C83.6904 39.2879 83.8224 39.5759 83.9744 39.7439C84.1344 39.9039 84.3544 39.9839 84.6344 39.9839H84.7544L84.8624 40.9919L84.7544 41.9999H84.6344ZM79.6664 43.8239C80.1944 43.5999 80.6824 43.3439 81.1304 43.0559C81.5784 42.7759 81.9304 42.4999 82.1864 42.2279C82.4504 41.9639 82.5824 41.7479 82.5824 41.5799C82.5824 41.3159 82.3704 40.4559 81.9464 38.9999L81.8624 38.6999L83.3504 38.1119C83.5424 38.6639 83.6944 39.2519 83.8064 39.8759C83.9184 40.4999 83.9744 41.0679 83.9744 41.5799C83.9744 42.3879 83.6624 43.1279 83.0384 43.7999C82.4144 44.4799 81.5704 45.0519 80.5064 45.5159L79.6664 43.8239ZM93.3457 39.9839L93.4537 40.9919L93.3457 41.9999H93.2137C91.4057 41.9919 90.2777 41.3199 89.8297 39.9839L90.8377 39.0359C90.8777 39.1639 90.9737 39.2999 91.1257 39.4439C91.2777 39.5879 91.4777 39.7159 91.7257 39.8279C91.9817 39.9319 92.2697 39.9839 92.5897 39.9839H93.3457ZM84.1417 39.9839H84.9697C85.9057 39.9839 86.7777 39.8879 87.5857 39.6959C88.3937 39.4959 89.2817 39.1399 90.2497 38.6279C90.9537 38.2519 91.4337 38.0279 91.6897 37.9559L91.7497 39.4799C91.3337 39.4079 90.9337 39.3079 90.5497 39.1799C90.1657 39.0439 89.6977 38.8359 89.1457 38.5559C88.8257 38.3959 88.5017 38.2719 88.1737 38.1839C87.8537 38.0879 87.5657 38.0399 87.3097 38.0399C87.0217 38.0399 86.7657 38.1159 86.5417 38.2679C86.3257 38.4199 86.1537 38.5879 86.0257 38.7719L84.9097 37.9439C85.5337 36.7039 86.3577 36.0839 87.3817 36.0839C87.7257 36.0839 88.0537 36.1399 88.3657 36.2519C88.6857 36.3639 89.1497 36.5759 89.7577 36.8879C90.2137 37.1279 90.6017 37.3079 90.9217 37.4279C91.2497 37.5479 91.6097 37.6479 92.0017 37.7279L92.0617 39.5519C91.8537 39.6079 91.4697 39.7959 90.9097 40.1159L90.4537 40.3559C89.6217 40.7879 88.9137 41.1199 88.3297 41.3519C87.7457 41.5839 87.1577 41.7479 86.5657 41.8439C85.9737 41.9399 85.2817 41.9919 84.4897 41.9999H84.1417V39.9839ZM86.4217 34.1159C86.4217 34.1159 86.6857 33.8519 87.2137 33.3239L87.6217 32.9159L88.8097 34.1159L87.6217 35.3039L86.4217 34.1159ZM92.744 39.9839H93.38C94.42 39.9839 94.94 39.7559 94.94 39.2999C94.94 39.1559 94.848 38.8239 94.664 38.3039C94.488 37.7839 94.36 37.4399 94.28 37.2719L95.684 36.5039C95.836 36.8239 95.992 37.2759 96.152 37.8599C96.32 38.4359 96.404 38.9439 96.404 39.3839C96.404 40.2399 96.144 40.8919 95.624 41.3399C95.104 41.7799 94.356 41.9999 93.38 41.9999H92.744V39.9839ZM92.48 44.0639C92.48 44.0639 92.744 43.7999 93.272 43.2719L93.68 42.8639L94.868 44.0639L93.68 45.2519L92.48 44.0639Z" fill="white"/>
<path d="M111.982 39.4612H112.022C112.31 39.4612 112.567 39.4027 112.792 39.2857C113.017 39.1597 113.134 39.0067 113.143 38.8267L114.682 38.9752C114.646 39.5152 114.506 40.0192 114.263 40.4872C114.02 40.9462 113.701 41.3152 113.305 41.5942C112.909 41.8642 112.481 41.9992 112.022 41.9992H111.982V39.4612ZM115.748 39.4612L115.87 40.7302L115.721 41.9992H115.654C115.078 41.9992 114.583 41.8102 114.169 41.4322C113.755 41.0452 113.426 40.4962 113.183 39.7852C113.102 39.5512 112.945 38.7907 112.711 37.5037L114.371 37.0447C114.47 37.6117 114.547 38.0347 114.601 38.3137C114.664 38.5837 114.727 38.8042 114.79 38.9752C114.844 39.1372 114.938 39.2587 115.073 39.3397C115.208 39.4207 115.402 39.4612 115.654 39.4612H115.748ZM108.391 41.9992V39.4612H108.472C108.895 39.4612 109.201 39.2587 109.39 38.8537C109.561 38.4937 109.709 38.0077 109.835 37.3957L111.496 37.4632C111.469 37.6162 111.437 37.8232 111.401 38.0842C111.374 38.3362 111.361 38.5342 111.361 38.6782C111.361 38.9122 111.415 39.1012 111.523 39.2452C111.64 39.3892 111.811 39.4612 112.036 39.4612H112.076L112.211 40.7302L112.076 41.9992H112.036C111.577 41.9992 111.172 41.8867 110.821 41.6617C110.479 41.4277 110.213 41.0992 110.024 40.6762L110.456 40.6492C110.141 41.1172 109.826 41.4592 109.511 41.6752C109.205 41.8912 108.845 41.9992 108.431 41.9992H108.391ZM107.27 38.2867C107.387 38.6107 107.491 38.8537 107.581 39.0157C107.68 39.1687 107.801 39.2812 107.945 39.3532C108.098 39.4252 108.31 39.4612 108.58 39.4612L108.458 41.9992C107.828 41.9992 107.284 41.7517 106.825 41.2567C106.366 40.7527 106.001 40.0732 105.731 39.2182L107.27 38.2867ZM101.236 38.9617C100.984 39.5647 100.804 40.0417 100.696 40.3927C100.588 40.7437 100.534 41.1262 100.534 41.5402C100.534 42.8182 101.393 43.4572 103.112 43.4572C103.688 43.4572 104.201 43.3627 104.651 43.1737C105.11 42.9937 105.47 42.7462 105.731 42.4312C105.992 42.1162 106.123 41.7742 106.123 41.4052C106.123 40.9912 105.808 39.9382 105.178 38.2462L106.906 37.2877C107.203 38.0167 107.428 38.7367 107.581 39.4477C107.743 40.1587 107.824 40.8112 107.824 41.4052C107.824 42.2692 107.617 43.0522 107.203 43.7542C106.798 44.4562 106.235 45.0052 105.515 45.4012C104.804 45.7972 104.003 45.9952 103.112 45.9952C102.275 45.9952 101.524 45.8377 100.858 45.5227C100.192 45.2167 99.6649 44.7532 99.2779 44.1322C98.8999 43.5202 98.7109 42.7732 98.7109 41.8912C98.7109 41.6752 98.7154 41.5132 98.7244 41.4052C98.7964 40.5412 99.1159 39.4927 99.6829 38.2597L101.236 38.9617ZM110.524 32.0902L111.577 33.1297L110.524 34.1692L109.835 33.4807L109.484 33.1297L110.524 32.0902ZM111.833 33.6292L113.021 34.8172L111.833 36.0187L110.632 34.8172L111.833 33.6292ZM109.241 33.6292L110.429 34.8172L109.241 36.0187L108.04 34.8172L109.241 33.6292ZM115.058 39.4612H115.382C116.228 39.4612 116.871 39.4432 117.312 39.4072C117.762 39.3712 118.14 39.2857 118.446 39.1507C118.752 39.0067 118.986 38.7817 119.148 38.4757C119.148 38.2417 119.072 38.0122 118.919 37.7872C118.766 37.5532 118.554 37.4362 118.284 37.4362C118.041 37.4362 117.825 37.5262 117.636 37.7062C117.456 37.8862 117.357 38.0797 117.339 38.2867C117.384 38.4577 117.501 38.6332 117.69 38.8132C117.879 38.9932 118.14 39.1462 118.473 39.2722C118.815 39.3982 119.216 39.4612 119.675 39.4612H121.484L121.619 40.7302L121.484 41.9992H120.674C119.72 41.9992 118.856 41.8372 118.082 41.5132C117.317 41.1892 116.718 40.7572 116.286 40.2172C115.854 39.6772 115.638 39.0967 115.638 38.4757C115.638 38.3047 115.647 38.1742 115.665 38.0842C115.755 37.5082 115.931 36.9817 116.192 36.5047C116.462 36.0277 116.79 35.6497 117.177 35.3707C117.564 35.0917 117.978 34.9522 118.419 34.9522C118.923 34.9522 119.36 35.1097 119.729 35.4247C120.107 35.7397 120.39 36.1402 120.579 36.6262C120.768 37.1122 120.863 37.6117 120.863 38.1247C120.863 38.3137 120.849 38.4892 120.822 38.6512C120.651 39.8032 120.12 40.6492 119.229 41.1892C118.338 41.7292 117.056 41.9992 115.382 41.9992H115.058V39.4612ZM116.786 32.7922L118.23 31.3477L119.661 32.7922L118.23 34.2232L116.786 32.7922ZM127.166 33.6562L123.48 35.2087C123.957 35.6497 124.466 36.2257 125.006 36.9367C125.546 37.6477 125.816 38.3947 125.816 39.1777C125.816 39.3217 125.802 39.4612 125.775 39.5962C125.622 40.3972 125.136 41.0002 124.317 41.4052C123.507 41.8012 122.504 41.9992 121.307 41.9992H120.767V39.4612H121.307C121.964 39.4612 122.535 39.4162 123.021 39.3262C123.507 39.2272 123.849 39.1147 124.047 38.9887C123.732 38.4847 123.372 38.0032 122.967 37.5442C122.571 37.0762 121.991 36.5272 121.226 35.8972L121.428 33.7507L126.491 31.6447L127.166 33.6562ZM127.768 43.7947C128.848 43.5607 129.712 43.3177 130.36 43.0657C131.008 42.8137 131.485 42.5212 131.791 42.1882C132.097 41.8552 132.25 41.4547 132.25 40.9867C132.25 40.4377 132.169 39.9202 132.007 39.4342C131.854 38.9392 131.651 38.5432 131.399 38.2462C131.147 37.9492 130.886 37.8007 130.616 37.8007C130.364 37.8007 130.148 37.9132 129.968 38.1382C129.797 38.3542 129.712 38.5747 129.712 38.7997C129.712 38.8987 129.739 38.9842 129.793 39.0562C129.937 39.2002 130.193 39.3217 130.562 39.4207C130.94 39.5107 131.359 39.5557 131.818 39.5557C132.079 39.5557 132.376 39.5332 132.709 39.4882V41.8507C132.241 41.9677 131.764 42.0262 131.278 42.0262C130.585 42.0262 129.973 41.8957 129.442 41.6347C128.911 41.3737 128.533 40.9957 128.308 40.5007C128.146 40.1497 128.065 39.7312 128.065 39.2452C128.065 38.6692 128.186 38.0977 128.429 37.5307C128.672 36.9637 129.005 36.5002 129.428 36.1402C129.851 35.7802 130.324 35.6002 130.846 35.6002C131.404 35.6002 131.917 35.8342 132.385 36.3022C132.853 36.7702 133.222 37.3957 133.492 38.1787C133.762 38.9617 133.897 39.8122 133.897 40.7302C133.897 41.6302 133.681 42.4402 133.249 43.1602C132.826 43.8802 132.214 44.4787 131.413 44.9557C130.612 45.4417 129.662 45.7837 128.564 45.9817L127.768 43.7947ZM141.118 42.1882L140.983 40.9192L141.118 39.6502H141.293C142.436 39.6502 143.314 39.5692 143.926 39.4072C144.538 39.2362 144.965 38.9257 145.208 38.4757C145.208 38.2417 145.132 38.0122 144.979 37.7872C144.826 37.5532 144.614 37.4362 144.344 37.4362C144.101 37.4362 143.885 37.5262 143.696 37.7062C143.516 37.8862 143.417 38.0797 143.399 38.2867C143.435 38.4577 143.548 38.6332 143.737 38.8132C143.926 38.9932 144.191 39.1462 144.533 39.2722C144.875 39.3982 145.276 39.4612 145.735 39.4612H147.544L147.679 40.7302L147.544 41.9992H146.734C145.78 41.9992 144.916 41.8372 144.142 41.5132C143.377 41.1892 142.778 40.7572 142.346 40.2172C141.914 39.6772 141.698 39.0967 141.698 38.4757C141.698 38.3047 141.707 38.1742 141.725 38.0842C141.815 37.5082 141.991 36.9817 142.252 36.5047C142.522 36.0277 142.85 35.6497 143.237 35.3707C143.624 35.0917 144.038 34.9522 144.479 34.9522C144.983 34.9522 145.42 35.1097 145.789 35.4247C146.167 35.7397 146.45 36.1402 146.639 36.6262C146.828 37.1122 146.923 37.6117 146.923 38.1247C146.923 38.3137 146.909 38.4892 146.882 38.6512C146.711 39.8122 146.153 40.6897 145.208 41.2837C144.263 41.8777 142.958 42.1747 141.293 42.1747L141.118 42.1882ZM137.945 37.0312C137.927 37.0942 137.864 37.3237 137.756 37.7197C137.657 38.1157 137.612 38.4307 137.621 38.6647C137.657 38.8177 137.824 38.9707 138.121 39.1237C138.418 39.2767 138.836 39.4027 139.376 39.5017C139.916 39.6007 140.546 39.6502 141.266 39.6502C141.293 40.0642 141.307 40.4872 141.307 40.9192C141.307 41.3332 141.293 41.7517 141.266 42.1747C140.177 42.1837 139.232 42.0712 138.431 41.8372C137.63 41.5942 137.009 41.2522 136.568 40.8112C136.127 40.3612 135.88 39.8257 135.826 39.2047C135.817 39.1327 135.812 39.0247 135.812 38.8807C135.812 38.4757 135.866 38.0392 135.974 37.5712C136.082 37.0942 136.222 36.6712 136.393 36.3022L137.945 37.0312ZM143.143 32.7922L144.587 31.3477L146.018 32.7922L144.587 34.2232L143.143 32.7922ZM146.9 39.4612H146.967C147.669 39.4612 148.214 39.4297 148.601 39.3667C148.988 39.3037 149.258 39.2047 149.411 39.0697C149.564 38.9257 149.645 38.7367 149.654 38.5027C149.645 38.0977 149.595 37.6567 149.505 37.1797L151.179 36.8692C151.305 37.6072 151.368 38.3587 151.368 39.1237C151.422 39.2137 151.521 39.2947 151.665 39.3667C151.809 39.4297 151.998 39.4612 152.232 39.4612H152.286L152.421 40.7302L152.286 41.9992H152.219C151.823 41.9992 151.445 41.9002 151.085 41.7022C150.734 41.4952 150.432 41.2297 150.18 40.9057L150.572 41.0002C150.266 41.3422 149.838 41.5942 149.289 41.7562C148.749 41.9182 147.975 41.9992 146.967 41.9992H146.9V39.4612ZM146.711 43.0657L147.98 44.3347L147.129 45.1852L146.711 45.6037L146.292 45.1852L145.442 44.3347L146.711 43.0657ZM149.046 43.0657L150.315 44.3347L149.465 45.1852L149.046 45.6037L148.628 45.1852L147.777 44.3347L149.046 43.0657ZM158.005 33.6562L154.32 35.2087C154.797 35.6497 155.305 36.2257 155.845 36.9367C156.385 37.6477 156.655 38.3947 156.655 39.1777C156.655 39.3217 156.642 39.4612 156.615 39.5962C156.462 40.3972 155.976 41.0002 155.157 41.4052C154.347 41.8012 153.343 41.9992 152.146 41.9992H151.606V39.4612H152.146C152.803 39.4612 153.375 39.4162 153.861 39.3262C154.347 39.2272 154.689 39.1147 154.887 38.9887C154.572 38.4847 154.212 38.0032 153.807 37.5442C153.411 37.0762 152.83 36.5272 152.065 35.8972L152.268 33.7507L157.33 31.6447L158.005 33.6562Z" fill="white"/>
<g filter="url(#filter0_d_11692_18)">
<path d="M91.278 14.3343C91.2915 13.7017 91.4463 13.1431 91.7424 12.6585C92.0385 12.174 92.4356 11.8106 92.9336 11.5683C93.4316 11.326 93.9902 11.2318 94.6094 11.2856C95.1343 10.0742 95.7669 9.15897 96.5072 8.53981C97.2475 7.90719 98.0215 7.59089 98.8291 7.59089C99.6232 7.59089 100.31 7.84662 100.888 8.3581C101.481 8.85612 101.925 9.50893 102.221 10.3165C102.53 11.1106 102.685 11.9452 102.685 12.8201C102.685 13.668 102.537 14.4487 102.241 15.1621C101.945 15.862 101.508 16.4004 100.929 16.7773C100.579 17.0061 100.168 17.1205 99.6973 17.1205C99.1454 17.1205 98.432 16.9657 97.5571 16.6562C96.6957 16.3331 95.592 15.8216 94.246 15.1217C94.2325 16.4812 94.3133 18.2041 94.4882 20.2904C94.6767 22.3901 94.818 23.8236 94.9122 24.5908L91.7828 25.3177C91.6751 24.2005 91.5607 22.7199 91.4396 20.8759C91.3184 19.0319 91.2578 17.2821 91.2578 15.6265C91.2578 15.0342 91.2646 14.6035 91.278 14.3343ZM97.1533 12.5172C97.7456 12.8806 98.2772 13.17 98.7483 13.3854C99.2194 13.5873 99.5694 13.6882 99.7982 13.6882C99.9059 13.6882 99.9799 13.668 100.02 13.6277C100.168 13.4931 100.242 13.2642 100.242 12.9412C100.242 12.4836 100.101 12.0461 99.8184 11.6289C99.5492 11.1981 99.1925 10.9828 98.7483 10.9828C98.5195 10.9828 98.2772 11.0905 98.0215 11.3058C97.7658 11.5212 97.4764 11.925 97.1533 12.5172ZM103.53 16.8783C103.691 15.8688 103.772 14.442 103.772 12.598C103.772 10.754 103.698 8.80229 103.55 6.74291C103.416 4.68353 103.261 3.15582 103.086 2.15978L106.215 1.45312C106.35 2.38187 106.471 3.79517 106.579 5.69303C106.686 7.57743 106.74 9.44163 106.74 11.2856C106.74 13.8296 106.632 15.7947 106.417 17.1811L103.53 16.8783ZM107.446 19.6847C109.062 19.3347 110.354 18.9713 111.323 18.5944C112.292 18.2175 113.005 17.7801 113.463 17.2821C113.921 16.784 114.149 16.1851 114.149 15.4851C114.149 14.6641 114.028 13.8901 113.786 13.1633C113.557 12.423 113.254 11.8308 112.877 11.3866C112.501 10.9424 112.11 10.7203 111.706 10.7203C111.33 10.7203 111.007 10.8886 110.737 11.2251C110.482 11.5481 110.354 11.8779 110.354 12.2144C110.354 12.3624 110.394 12.4903 110.475 12.598C110.69 12.8133 111.074 12.995 111.626 13.1431C112.191 13.2777 112.817 13.345 113.503 13.345C113.894 13.345 114.338 13.3114 114.836 13.2441V16.7773C114.136 16.9523 113.423 17.0398 112.696 17.0398C111.659 17.0398 110.744 16.8446 109.95 16.4543C109.156 16.0639 108.59 15.4986 108.254 14.7583C108.012 14.2334 107.891 13.6075 107.891 12.8806C107.891 12.0192 108.072 11.1645 108.436 10.3165C108.799 9.46855 109.297 8.77537 109.93 8.23697C110.562 7.69857 111.269 7.42937 112.05 7.42937C112.884 7.42937 113.651 7.77933 114.351 8.47925C115.051 9.17917 115.603 10.1146 116.007 11.2856C116.411 12.4566 116.613 13.7286 116.613 15.1015C116.613 16.4475 116.29 17.6589 115.643 18.7357C115.011 19.8125 114.096 20.7076 112.898 21.421C111.7 22.1479 110.28 22.6593 108.638 22.9555L107.446 19.6847ZM123.28 22.9555C122.029 22.9555 120.905 22.7266 119.909 22.269C118.913 21.8114 118.125 21.1182 117.546 20.1894C116.981 19.2741 116.698 18.157 116.698 16.8379C116.698 16.6764 116.712 16.4206 116.739 16.0707C116.846 14.792 117.318 13.2306 118.152 11.3866L120.474 12.4566C120.097 13.3719 119.828 14.0853 119.666 14.5968C119.505 15.1083 119.424 15.6736 119.424 16.2927C119.424 18.2041 120.709 19.1597 123.28 19.1597C124.276 19.1597 125.185 19.0319 126.006 18.7761C126.841 18.5204 127.453 18.2108 127.843 17.8474C127.493 17.6186 126.941 17.3359 126.188 16.9994C125.447 16.6629 124.687 16.3668 123.906 16.111L124.714 12.5374C125.966 12.7797 127.029 12.9479 127.904 13.0422C128.779 13.1364 129.66 13.1902 130.549 13.2037H130.751L130.953 15.1015L130.751 16.9994H130.549C129.633 16.9859 128.651 16.9052 127.601 16.7571C126.551 16.5956 125.32 16.3802 123.906 16.111L124.714 13.8498C126.275 14.4285 127.594 15.0948 128.671 15.8486C129.761 16.6023 130.306 17.3561 130.306 18.1099C130.306 18.8232 129.997 19.5568 129.378 20.3106C128.772 21.0643 127.931 21.6902 126.854 22.1882C125.791 22.6997 124.599 22.9555 123.28 22.9555ZM138.314 4.52201L132.802 6.84385C133.515 7.50339 134.276 8.36484 135.083 9.42817C135.891 10.4915 136.295 11.6087 136.295 12.7797C136.295 12.995 136.275 13.2037 136.234 13.4056C136.005 14.6035 135.278 15.5053 134.054 16.111C132.842 16.7033 131.341 16.9994 129.551 16.9994H128.744V13.2037H129.551C130.534 13.2037 131.389 13.1364 132.115 13.0018C132.842 12.8537 133.354 12.6855 133.65 12.497C133.179 11.7433 132.64 11.0232 132.035 10.3367C131.442 9.63681 130.574 8.81575 129.43 7.87355L129.733 4.66333L137.304 1.5137L138.314 4.52201ZM135.884 19.7856C136.786 19.3818 137.614 18.9376 138.368 18.4531C139.135 17.982 139.741 17.5378 140.185 17.1205C140.642 16.7033 140.871 16.3735 140.871 16.1312C140.871 15.5928 140.454 13.9911 139.619 11.326L142.345 10.2357C142.682 11.1645 142.944 12.1538 143.132 13.2037C143.321 14.2401 143.415 15.2159 143.415 16.1312C143.415 17.5311 142.89 18.8098 141.84 19.9673C140.79 21.1249 139.337 22.1209 137.479 22.9555L135.884 19.7856ZM138.448 6.35929L140.609 4.19897L142.749 6.35929L140.609 8.49943L138.448 6.35929ZM144.486 16.8783C144.648 15.8688 144.729 14.442 144.729 12.598C144.729 10.754 144.655 8.80229 144.507 6.74291C144.372 4.68353 144.217 3.15582 144.042 2.15978L147.172 1.45312C147.306 2.38187 147.427 3.79517 147.535 5.69303C147.643 7.57743 147.697 9.44163 147.697 11.2856C147.697 13.8296 147.589 15.7947 147.374 17.1811L144.486 16.8783Z" fill="white"/>
</g>
</g>
<defs>
<filter id="filter0_d_11692_18" x="90.2578" y="1.45312" width="58.4375" height="26.8652" filterUnits="userSpaceOnUse" color-interpolation-filters="sRGB">
<feFlood flood-opacity="0" result="BackgroundImageFix"/>
<feColorMatrix in="SourceAlpha" type="matrix" values="0 0 0 0 0 0 0 0 0 0 0 0 0 0 0 0 0 0 127 0" result="hardAlpha"/>
<feOffset dy="2"/>
<feGaussianBlur stdDeviation="0.5"/>
<feComposite in2="hardAlpha" operator="out"/>
<feColorMatrix type="matrix" values="0 0 0 0 0 0 0 0 0 0 0 0 0 0 0 0 0 0 0.25 0"/>
<feBlend mode="normal" in2="BackgroundImageFix" result="effect1_dropShadow_11692_18"/>
<feBlend mode="normal" in="SourceGraphic" in2="effect1_dropShadow_11692_18" result="shape"/>
</filter>
<clipPath id="clip0_11692_18">
<rect width="158" height="51" fill="white"/>
</clipPath>
</defs>
</svg>
