<svg width="156" height="51" viewBox="0 0 156 51" fill="none" xmlns="http://www.w3.org/2000/svg">
<path d="M85.3012 17.0788C84.846 17.0963 84.4696 16.9475 84.1719 16.6323C83.8831 16.3172 83.7386 15.9189 83.7386 15.4374C83.7386 14.8596 83.9137 14.2731 84.2639 13.6778C84.614 13.0826 85.0736 12.6011 85.6426 12.2334L86.483 13.0607C86.0716 13.3758 85.7739 13.6516 85.5901 13.8879C85.4063 14.1243 85.2487 14.3563 85.1174 14.5839C85.1349 14.5839 85.1612 14.5795 85.1962 14.5707C85.2399 14.562 85.2837 14.5576 85.3275 14.5576C85.6601 14.5576 85.9446 14.6802 86.181 14.9253C86.4261 15.1616 86.5487 15.4549 86.5487 15.8051C86.5487 16.1465 86.4217 16.4441 86.1679 16.698C85.9228 16.9519 85.6339 17.0788 85.3012 17.0788ZM150.642 7.08603C150.747 7.84763 150.826 8.8456 150.879 10.0799C150.94 11.3055 150.97 12.4348 150.97 13.4677C150.97 13.8179 151.001 14.0893 151.062 14.2819C151.124 14.4657 151.229 14.597 151.378 14.6758C151.526 14.7546 151.745 14.794 152.034 14.794H152.087L152.205 15.897L152.087 17H152.034C151.054 17 150.34 16.7155 149.894 16.1465C149.447 15.5687 149.22 14.7064 149.211 13.5597C149.176 11.0122 149.049 8.99004 148.83 7.49309L150.642 7.08603ZM151.446 14.794H152.142C153.28 14.794 153.849 14.5445 153.849 14.0455C153.849 13.8879 153.749 13.5246 153.547 12.9556C153.355 12.3866 153.215 12.0102 153.127 11.8264L154.663 10.986C154.83 11.3361 155 11.8307 155.175 12.4698C155.359 13.1001 155.451 13.656 155.451 14.1374C155.451 15.0741 155.167 15.7876 154.598 16.2778C154.029 16.7593 153.21 17 152.142 17H151.446V14.794ZM151.157 19.2585C151.157 19.2585 151.446 18.9697 152.024 18.3919L152.47 17.9454L153.77 19.2585L152.47 20.5585L151.157 19.2585ZM3.02373 39.072H1.57173L1.35573 33.18H3.23973L3.02373 39.072ZM2.29173 42.192C1.97973 42.192 1.71973 42.084 1.51173 41.868C1.30373 41.652 1.19973 41.388 1.19973 41.076C1.19973 40.772 1.30373 40.52 1.51173 40.32C1.71973 40.112 1.97973 40.008 2.29173 40.008C2.60373 40.008 2.86373 40.112 3.07173 40.32C3.27973 40.52 3.38373 40.772 3.38373 41.076C3.38373 41.388 3.27973 41.652 3.07173 41.868C2.86373 42.084 2.60373 42.192 2.29173 42.192ZM11.6471 38.868C11.7911 39.292 11.9351 39.584 12.0791 39.744C12.2231 39.904 12.4391 39.984 12.7271 39.984H12.8231L12.9311 40.992L12.8231 42H12.7271C12.1751 42 11.7351 41.788 11.4071 41.364C11.0791 40.94 10.7831 40.34 10.5191 39.564L11.6471 38.868ZM6.28314 39.348C6.06714 39.876 5.90714 40.308 5.80314 40.644C5.70714 40.972 5.65914 41.324 5.65914 41.7C5.65914 42.908 6.44314 43.512 8.01114 43.512C8.54714 43.512 9.01914 43.42 9.42714 43.236C9.84314 43.06 10.1631 42.824 10.3871 42.528C10.6191 42.232 10.7351 41.912 10.7351 41.568C10.7351 41.2 10.6031 40.648 10.3391 39.912C10.0831 39.176 9.94714 38.78 9.93114 38.724L11.3351 37.956C11.8631 39.316 12.1271 40.52 12.1271 41.568C12.1271 42.296 11.9511 42.96 11.5991 43.56C11.2471 44.168 10.7591 44.648 10.1351 45C9.51114 45.352 8.80314 45.528 8.01114 45.528C7.26714 45.528 6.60314 45.388 6.01914 45.108C5.44314 44.828 4.99114 44.416 4.66314 43.872C4.33514 43.336 4.17114 42.696 4.17114 41.952C4.17114 41.784 4.17514 41.656 4.18314 41.568C4.23914 40.776 4.51914 39.844 5.02314 38.772L6.28314 39.348ZM7.05114 37.932C7.05114 37.932 7.31514 37.668 7.84314 37.14L8.25114 36.732L9.43914 37.932L8.25114 39.12L7.05114 37.932ZM17.8609 34.536L14.4889 35.964C14.9369 36.372 15.4049 36.904 15.8929 37.56C16.3809 38.208 16.6249 38.868 16.6249 39.54C16.6249 39.7 16.6089 39.844 16.5769 39.972C16.4329 40.652 16.0089 41.16 15.3049 41.496C14.6009 41.832 13.7209 42 12.6649 42H12.2209V39.984H12.6649C13.3049 39.984 13.8409 39.936 14.2729 39.84C14.7129 39.744 15.0129 39.62 15.1729 39.468C14.8369 38.604 14.0009 37.624 12.6649 36.528L12.8329 34.8L17.3089 32.928L17.8609 34.536ZM23.641 42.156C23.625 41.708 23.617 41.372 23.617 41.148C23.617 40.916 23.625 40.576 23.641 40.128C24.713 40.128 25.529 40.068 26.089 39.948C26.657 39.828 27.085 39.628 27.373 39.348C27.669 39.068 27.925 38.648 28.141 38.088L29.497 38.244C29.337 38.724 29.257 39.084 29.257 39.324C29.257 39.556 29.317 39.724 29.437 39.828C29.557 39.924 29.737 39.972 29.977 39.972L30.085 40.992L29.977 42C29.657 42 29.353 41.928 29.065 41.784C28.785 41.632 28.561 41.428 28.393 41.172C28.225 40.916 28.145 40.628 28.153 40.308L28.393 40.368C27.873 41.048 27.241 41.516 26.497 41.772C25.761 42.028 24.809 42.156 23.641 42.156ZM20.737 37.656C20.537 38.304 20.437 38.784 20.437 39.096C20.437 39.272 20.565 39.44 20.821 39.6C21.085 39.76 21.465 39.888 21.961 39.984C22.465 40.08 23.061 40.128 23.749 40.128C23.773 40.496 23.785 40.856 23.785 41.208C23.785 41.528 23.773 41.844 23.749 42.156C22.301 42.164 21.161 41.94 20.329 41.484C19.497 41.028 19.045 40.392 18.973 39.576C18.965 39.512 18.961 39.416 18.961 39.288C18.961 38.936 19.009 38.556 19.105 38.148C19.201 37.74 19.321 37.376 19.465 37.056L20.737 37.656ZM23.101 35.736L24.157 36.804L23.101 37.872L22.741 37.512C22.269 37.04 22.033 36.804 22.033 36.804L23.101 35.736ZM25.189 35.736L26.245 36.804L25.189 37.872L24.829 37.512C24.357 37.04 24.121 36.804 24.121 36.804L25.189 35.736ZM29.3783 39.984H30.2063C31.1423 39.984 32.0143 39.888 32.8223 39.696C33.6303 39.496 34.5183 39.14 35.4863 38.628C36.1903 38.252 36.6703 38.028 36.9263 37.956L36.9863 39.48C36.5703 39.408 36.1703 39.308 35.7863 39.18C35.4023 39.044 34.9343 38.836 34.3823 38.556C34.0623 38.396 33.7383 38.272 33.4103 38.184C33.0903 38.088 32.8023 38.04 32.5463 38.04C32.2583 38.04 32.0023 38.116 31.7783 38.268C31.5623 38.42 31.3903 38.588 31.2623 38.772L30.1463 37.944C30.7703 36.704 31.5943 36.084 32.6183 36.084C32.9623 36.084 33.2903 36.14 33.6023 36.252C33.9223 36.364 34.3863 36.576 34.9943 36.888C35.4503 37.128 35.8383 37.308 36.1583 37.428C36.4863 37.548 36.8463 37.648 37.2383 37.728L37.2983 39.552C37.0903 39.608 36.7063 39.796 36.1463 40.116L35.6903 40.356C34.8583 40.788 34.1503 41.12 33.5663 41.352C32.9823 41.584 32.3943 41.748 31.8023 41.844C31.2103 41.94 30.5183 41.992 29.7263 42H29.3783V39.984ZM31.6583 34.116C31.6583 34.116 31.9223 33.852 32.4503 33.324L32.8583 32.916L34.0463 34.116L32.8583 35.304L31.6583 34.116ZM37.8694 41.928C37.9574 41.4 38.0014 40.56 38.0014 39.408C38.0014 38.304 37.9614 37.148 37.8814 35.94C37.8094 34.724 37.7254 33.848 37.6294 33.312L39.3094 32.94C39.3894 33.444 39.4574 34.268 39.5134 35.412C39.5774 36.548 39.6094 37.672 39.6094 38.784C39.6094 40.208 39.5534 41.312 39.4414 42.096L37.8694 41.928ZM40.6537 39.66C40.9257 39.788 41.2137 39.904 41.5177 40.008C41.8297 40.104 42.1977 40.152 42.6217 40.152C43.0457 40.144 43.3977 40.1 43.6777 40.02C43.9577 39.932 44.1417 39.84 44.2297 39.744C44.2457 39.624 44.1897 39.44 44.0617 39.192C43.9417 38.936 43.6937 38.616 43.3177 38.232C42.9497 37.84 42.4217 37.416 41.7337 36.96L42.6937 35.184C43.6297 35.832 44.3737 36.56 44.9257 37.368C45.4857 38.168 45.7657 38.936 45.7657 39.672C45.7657 40.016 45.7017 40.332 45.5737 40.62C45.3737 41.084 45.0137 41.44 44.4937 41.688C43.9817 41.936 43.4217 42.06 42.8137 42.06C42.0937 42.06 41.4937 41.948 41.0137 41.724C40.5417 41.5 40.1857 41.284 39.9457 41.076L40.6537 39.66ZM49.5134 42C48.9454 42 48.4814 41.792 48.1214 41.376C47.7694 40.96 47.4734 40.376 47.2334 39.624L48.4574 38.88C48.5694 39.288 48.7014 39.576 48.8534 39.744C49.0134 39.904 49.2334 39.984 49.5134 39.984H49.6334L49.7414 40.992L49.6334 42H49.5134ZM44.5454 43.824C45.0734 43.6 45.5614 43.344 46.0094 43.056C46.4574 42.776 46.8094 42.5 47.0654 42.228C47.3294 41.964 47.4614 41.748 47.4614 41.58C47.4614 41.316 47.2494 40.456 46.8254 39L46.7414 38.7L48.2294 38.112C48.4214 38.664 48.5734 39.252 48.6854 39.876C48.7974 40.5 48.8534 41.068 48.8534 41.58C48.8534 42.388 48.5414 43.128 47.9174 43.8C47.2934 44.48 46.4494 45.052 45.3854 45.516L44.5454 43.824ZM49.6448 39.984H50.2448C51.0128 39.984 51.5568 39.92 51.8768 39.792C52.2048 39.664 52.3688 39.476 52.3688 39.228C52.3688 39.076 52.2808 38.76 52.1048 38.28C51.9288 37.792 51.7968 37.456 51.7088 37.272L53.1008 36.504C53.2608 36.84 53.4208 37.288 53.5808 37.848C53.7488 38.408 53.8328 38.904 53.8328 39.336C53.8328 40.192 53.5568 40.852 53.0048 41.316C52.4528 41.772 51.6408 42 50.5688 42H49.6448V39.984ZM52.4408 42.828L53.4488 43.836L52.4408 44.844L51.4328 43.836L52.4408 42.828ZM50.1368 42.828L51.1448 43.836L50.1368 44.844L49.1288 43.836L50.1368 42.828ZM51.2888 44.412C51.5928 44.7 51.8888 44.996 52.1768 45.3L51.2888 46.176C51.0968 45.976 50.8008 45.684 50.4008 45.3L51.2888 44.412ZM49.0568 42L48.9488 40.992L49.0568 39.984H49.7288V42H49.0568ZM56.2467 41.928C56.3347 41.4 56.3787 40.56 56.3787 39.408C56.3787 38.304 56.3387 37.148 56.2587 35.94C56.1867 34.724 56.1027 33.848 56.0067 33.312L57.6867 32.94C57.7667 33.444 57.8347 34.268 57.8907 35.412C57.9547 36.548 57.9867 37.672 57.9867 38.784C57.9867 40.208 57.9307 41.312 57.8187 42.096L56.2467 41.928ZM62.235 35.34L63.879 39.228C64.007 39.524 64.147 39.724 64.299 39.828C64.451 39.932 64.679 39.984 64.983 39.984H65.127L65.235 40.992L65.127 42H64.983C64.431 42 63.971 41.844 63.603 41.532C63.235 41.212 62.903 40.708 62.607 40.02L60.879 36.072L62.235 35.34ZM59.031 39.66C59.655 39.988 60.295 40.152 60.951 40.152C61.479 40.152 61.899 40.076 62.211 39.924C62.531 39.764 62.755 39.604 62.883 39.444L63.783 40.62C63.647 40.828 63.491 41.028 63.315 41.22C63.139 41.412 62.863 41.604 62.487 41.796C62.119 41.98 61.675 42.072 61.155 42.072C60.171 42.072 59.227 41.74 58.323 41.076L59.031 39.66ZM64.5268 39.984H64.8748C66.3228 39.984 67.4108 39.8 68.1388 39.432C68.8668 39.064 69.3508 38.64 69.5908 38.16C69.5108 38.04 69.3628 37.948 69.1468 37.884C68.9308 37.812 68.6828 37.776 68.4028 37.776C68.1308 37.776 67.8588 37.808 67.5868 37.872C67.3228 37.936 67.0948 38.028 66.9028 38.148C67.5108 38.796 68.1428 39.264 68.7988 39.552C69.4548 39.84 70.2348 39.984 71.1388 39.984H71.5348L71.6428 40.992L71.5348 42H71.1388C70.2588 42 69.4988 41.896 68.8588 41.688C68.2188 41.48 67.6068 41.132 67.0228 40.644C66.4388 40.148 65.7868 39.444 65.0668 38.532L65.1148 37.188C65.4828 36.82 65.9428 36.54 66.4948 36.348C67.0468 36.156 67.6188 36.06 68.2108 36.06C68.9308 36.06 69.5628 36.196 70.1068 36.468C70.6508 36.732 70.9828 37.096 71.1028 37.56C71.1348 37.664 71.1508 37.788 71.1508 37.932C71.1508 38.548 70.8348 39.176 70.2028 39.816C69.5708 40.448 68.7668 40.972 67.7908 41.388C66.8148 41.796 65.8428 42 64.8748 42H64.5268V39.984ZM70.9375 39.984H71.5735C72.6135 39.984 73.1335 39.756 73.1335 39.3C73.1335 39.156 73.0415 38.824 72.8575 38.304C72.6815 37.784 72.5535 37.44 72.4735 37.272L73.8775 36.504C74.0295 36.824 74.1855 37.276 74.3455 37.86C74.5135 38.436 74.5975 38.944 74.5975 39.384C74.5975 40.24 74.3375 40.892 73.8175 41.34C73.2975 41.78 72.5495 42 71.5735 42H70.9375V39.984ZM70.6735 44.064C70.6735 44.064 70.9375 43.8 71.4655 43.272L71.8735 42.864L73.0615 44.064L71.8735 45.252L70.6735 44.064ZM78.3707 42.072C77.9547 42.088 77.6107 41.952 77.3387 41.664C77.0747 41.376 76.9427 41.012 76.9427 40.572C76.9427 40.044 77.1027 39.508 77.4227 38.964C77.7427 38.42 78.1627 37.98 78.6827 37.644L79.4507 38.4C79.0747 38.688 78.8027 38.94 78.6347 39.156C78.4667 39.372 78.3227 39.584 78.2027 39.792C78.2187 39.792 78.2427 39.788 78.2747 39.78C78.3147 39.772 78.3547 39.768 78.3947 39.768C78.6987 39.768 78.9587 39.88 79.1747 40.104C79.3987 40.32 79.5107 40.588 79.5107 40.908C79.5107 41.22 79.3947 41.492 79.1627 41.724C78.9387 41.956 78.6747 42.072 78.3707 42.072ZM84.6622 42C84.0942 42 83.6302 41.792 83.2702 41.376C82.9182 40.96 82.6222 40.376 82.3822 39.624L83.6062 38.88C83.7182 39.288 83.8502 39.576 84.0022 39.744C84.1622 39.904 84.3822 39.984 84.6622 39.984H84.7822L84.8902 40.992L84.7822 42H84.6622ZM79.6942 43.824C80.2222 43.6 80.7102 43.344 81.1582 43.056C81.6062 42.776 81.9582 42.5 82.2142 42.228C82.4782 41.964 82.6102 41.748 82.6102 41.58C82.6102 41.316 82.3982 40.456 81.9742 39L81.8902 38.7L83.3782 38.112C83.5702 38.664 83.7222 39.252 83.8342 39.876C83.9462 40.5 84.0022 41.068 84.0022 41.58C84.0022 42.388 83.6902 43.128 83.0662 43.8C82.4422 44.48 81.5982 45.052 80.5342 45.516L79.6942 43.824ZM93.3735 39.984L93.4815 40.992L93.3735 42H93.2415C91.4335 41.992 90.3055 41.32 89.8575 39.984L90.8655 39.036C90.9055 39.164 91.0015 39.3 91.1535 39.444C91.3055 39.588 91.5055 39.716 91.7535 39.828C92.0095 39.932 92.2975 39.984 92.6175 39.984H93.3735ZM84.1695 39.984H84.9975C85.9335 39.984 86.8055 39.888 87.6135 39.696C88.4215 39.496 89.3095 39.14 90.2775 38.628C90.9815 38.252 91.4615 38.028 91.7175 37.956L91.7775 39.48C91.3615 39.408 90.9615 39.308 90.5775 39.18C90.1935 39.044 89.7255 38.836 89.1735 38.556C88.8535 38.396 88.5295 38.272 88.2015 38.184C87.8815 38.088 87.5935 38.04 87.3375 38.04C87.0495 38.04 86.7935 38.116 86.5695 38.268C86.3535 38.42 86.1815 38.588 86.0535 38.772L84.9375 37.944C85.5615 36.704 86.3855 36.084 87.4095 36.084C87.7535 36.084 88.0815 36.14 88.3935 36.252C88.7135 36.364 89.1775 36.576 89.7855 36.888C90.2415 37.128 90.6295 37.308 90.9495 37.428C91.2775 37.548 91.6375 37.648 92.0295 37.728L92.0895 39.552C91.8815 39.608 91.4975 39.796 90.9375 40.116L90.4815 40.356C89.6495 40.788 88.9415 41.12 88.3575 41.352C87.7735 41.584 87.1855 41.748 86.5935 41.844C86.0015 41.94 85.3095 41.992 84.5175 42H84.1695V39.984ZM86.4495 34.116C86.4495 34.116 86.7135 33.852 87.2415 33.324L87.6495 32.916L88.8375 34.116L87.6495 35.304L86.4495 34.116ZM92.7718 39.984H93.4078C94.4478 39.984 94.9678 39.756 94.9678 39.3C94.9678 39.156 94.8758 38.824 94.6918 38.304C94.5158 37.784 94.3878 37.44 94.3078 37.272L95.7118 36.504C95.8638 36.824 96.0198 37.276 96.1798 37.86C96.3478 38.436 96.4318 38.944 96.4318 39.384C96.4318 40.24 96.1718 40.892 95.6518 41.34C95.1318 41.78 94.3838 42 93.4078 42H92.7718V39.984ZM92.5078 44.064C92.5078 44.064 92.7718 43.8 93.2998 43.272L93.7078 42.864L94.8958 44.064L93.7078 45.252L92.5078 44.064Z" fill="white"/>
<path d="M107.284 38.274C107.455 38.733 107.617 39.048 107.77 39.219C107.932 39.381 108.17 39.462 108.485 39.462H108.593L108.728 40.731L108.593 42H108.485C107.819 42 107.288 41.757 106.892 41.271C106.496 40.776 106.15 40.074 105.853 39.165L107.284 38.274ZM101.263 38.9625C101.011 39.5655 100.831 40.0425 100.723 40.3935C100.615 40.7445 100.561 41.127 100.561 41.541C100.561 42.819 101.42 43.458 103.139 43.458C103.715 43.458 104.228 43.3635 104.678 43.1745C105.137 42.9945 105.497 42.747 105.758 42.432C106.019 42.117 106.15 41.775 106.15 41.406C106.15 41.001 105.835 39.948 105.205 38.247L106.933 37.2885C107.23 37.9995 107.455 38.715 107.608 39.435C107.77 40.146 107.851 40.803 107.851 41.406C107.851 42.27 107.644 43.053 107.23 43.755C106.825 44.457 106.262 45.006 105.542 45.402C104.831 45.798 104.03 45.996 103.139 45.996C102.302 45.996 101.551 45.8385 100.885 45.5235C100.219 45.2175 99.6925 44.754 99.3055 44.133C98.9275 43.521 98.7385 42.774 98.7385 41.892C98.7385 41.676 98.743 41.514 98.752 41.406C98.824 40.542 99.1435 39.4935 99.7105 38.2605L101.263 38.9625ZM101.965 37.2075L103.409 35.763L104.84 37.2075L103.409 38.6385L101.965 37.2075ZM112.193 39.462L112.328 40.731L112.193 42H112.044C111.576 42 111.135 41.847 110.721 41.541C110.307 41.226 109.97 40.8075 109.709 40.2855C109.448 39.7635 109.308 39.192 109.29 38.571C109.281 38.193 109.227 37.221 109.128 35.655C109.029 34.089 108.939 32.9055 108.858 32.1045L110.951 31.632C111.005 32.307 111.086 33.9315 111.194 36.5055C111.248 37.8195 111.279 38.5125 111.288 38.5845C111.306 38.9085 111.378 39.138 111.504 39.273C111.639 39.399 111.819 39.462 112.044 39.462H112.193ZM107.913 39.462H108.143C108.557 39.462 108.854 39.399 109.034 39.273C109.214 39.147 109.299 38.913 109.29 38.571L110.762 38.7465C110.762 39.3495 110.658 39.8985 110.451 40.3935C110.244 40.8885 109.943 41.28 109.547 41.568C109.16 41.856 108.705 42 108.183 42H107.913V39.462ZM117.912 33.657L114.226 35.2095C114.703 35.6505 115.212 36.2265 115.752 36.9375C116.292 37.6485 116.562 38.3955 116.562 39.1785C116.562 39.3225 116.548 39.462 116.521 39.597C116.368 40.398 115.882 41.001 115.063 41.406C114.253 41.802 113.25 42 112.053 42H111.513V39.462H112.053C112.71 39.462 113.281 39.417 113.767 39.327C114.253 39.228 114.595 39.1155 114.793 38.9895C114.478 38.4855 114.118 38.004 113.713 37.545C113.317 37.077 112.737 36.528 111.972 35.898L112.174 33.7515L117.237 31.6455L117.912 33.657ZM117.553 39.165C117.859 39.3 118.183 39.4215 118.525 39.5295C118.867 39.6285 119.263 39.678 119.713 39.678C120.19 39.669 120.582 39.624 120.888 39.543C121.203 39.462 121.419 39.372 121.536 39.273C121.293 38.391 120.348 37.41 118.701 36.33L119.902 34.1025C120.973 34.8225 121.828 35.646 122.467 36.573C123.106 37.491 123.426 38.3775 123.426 39.2325C123.426 39.6105 123.349 39.9885 123.196 40.3665C122.962 40.9245 122.544 41.352 121.941 41.649C121.338 41.937 120.681 42.081 119.97 42.081C118.719 42.081 117.625 41.6985 116.689 40.9335L117.553 39.165ZM123.99 41.919C124.098 41.244 124.152 40.29 124.152 39.057C124.152 37.824 124.103 36.519 124.004 35.142C123.914 33.765 123.81 32.7435 123.693 32.0775L125.786 31.605C125.876 32.226 125.957 33.171 126.029 34.44C126.101 35.7 126.137 36.9465 126.137 38.1795C126.137 39.8805 126.065 41.1945 125.921 42.1215L123.99 41.919ZM127.954 43.7955C129.034 43.5615 129.898 43.3185 130.546 43.0665C131.194 42.8145 131.671 42.522 131.977 42.189C132.283 41.856 132.436 41.4555 132.436 40.9875C132.436 40.4385 132.355 39.921 132.193 39.435C132.04 38.94 131.838 38.544 131.586 38.247C131.334 37.95 131.073 37.8015 130.803 37.8015C130.551 37.8015 130.335 37.914 130.155 38.139C129.984 38.355 129.898 38.5755 129.898 38.8005C129.898 38.8995 129.925 38.985 129.979 39.057C130.123 39.201 130.38 39.3225 130.749 39.4215C131.127 39.5115 131.545 39.5565 132.004 39.5565C132.265 39.5565 132.562 39.534 132.895 39.489V41.8515C132.427 41.9685 131.95 42.027 131.464 42.027C130.771 42.027 130.159 41.8965 129.628 41.6355C129.097 41.3745 128.719 40.9965 128.494 40.5015C128.332 40.1505 128.251 39.732 128.251 39.246C128.251 38.67 128.373 38.0985 128.616 37.5315C128.859 36.9645 129.192 36.501 129.615 36.141C130.038 35.781 130.51 35.601 131.032 35.601C131.59 35.601 132.103 35.835 132.571 36.303C133.039 36.771 133.408 37.3965 133.678 38.1795C133.948 38.9625 134.083 39.813 134.083 40.731C134.083 41.631 133.867 42.441 133.435 43.161C133.012 43.881 132.4 44.4795 131.599 44.9565C130.798 45.4425 129.849 45.7845 128.751 45.9825L127.954 43.7955ZM140.115 42C139.458 42 138.914 41.757 138.482 41.271C138.059 40.776 137.708 40.092 137.429 39.219L138.954 38.2875C139.071 38.7195 139.215 39.0255 139.386 39.2055C139.557 39.3765 139.8 39.462 140.115 39.462H140.264L140.399 40.731L140.264 42H140.115ZM134.378 43.863C134.981 43.593 135.534 43.296 136.038 42.972C136.551 42.657 136.956 42.36 137.253 42.081C137.559 41.802 137.712 41.5815 137.712 41.4195C137.712 41.0595 137.433 39.9885 136.875 38.2065L138.698 37.4775C138.923 38.0985 139.098 38.76 139.224 39.462C139.35 40.155 139.413 40.8075 139.413 41.4195C139.413 42.3555 139.062 43.2105 138.36 43.9845C137.658 44.7585 136.686 45.4245 135.444 45.9825L134.378 43.863ZM146.55 39.2865C146.982 39.3495 147.396 39.3945 147.792 39.4215C148.188 39.4485 148.647 39.462 149.169 39.462L149.304 40.731L149.169 42C148.242 42 147.545 41.991 147.077 41.973C146.618 41.946 146.213 41.8875 145.862 41.7975C145.511 41.6985 145.214 41.5365 144.971 41.3115L146.55 39.2865ZM139.584 39.462C140.277 39.462 140.831 39.4665 141.245 39.4755C141.668 39.4755 142.14 39.489 142.662 39.516C143.481 39.552 144.215 39.489 144.863 39.327C145.52 39.165 146.028 38.958 146.388 38.706C146.757 38.454 146.942 38.22 146.942 38.004C146.942 37.869 146.861 37.752 146.699 37.653C146.546 37.554 146.325 37.5045 146.037 37.5045C145.326 37.5045 144.584 37.8015 143.81 38.3955C143.036 38.9895 142.356 39.8265 141.771 40.9065L140.543 39.8805C141.227 38.4045 142.037 37.2435 142.973 36.3975C143.909 35.5515 144.849 35.1285 145.794 35.1285C146.343 35.1285 146.834 35.25 147.266 35.493C147.698 35.727 148.035 36.06 148.278 36.492C148.521 36.915 148.643 37.3965 148.643 37.9365C148.643 38.7735 148.404 39.498 147.927 40.11C147.459 40.722 146.807 41.19 145.97 41.514C145.133 41.838 144.179 42 143.108 42H139.584V39.462ZM141.285 38.6925C141.312 38.4225 141.326 38.103 141.326 37.734C141.326 36.897 141.267 35.9115 141.15 34.7775C141.042 33.6345 140.934 32.7345 140.826 32.0775L142.919 31.605C143.009 32.172 143.081 32.874 143.135 33.711C143.198 34.548 143.229 35.4435 143.229 36.3975C143.229 36.9735 143.216 37.572 143.189 38.193L141.285 38.6925ZM148.602 39.462H148.764C151.59 39.462 153.71 39.228 155.123 38.76L155.595 41.001C154.848 41.298 153.903 41.541 152.76 41.73C151.626 41.91 150.294 42 148.764 42H148.602V39.462ZM153.233 41.4465C153.161 41.4555 153.053 41.46 152.909 41.46C152.324 41.46 151.761 41.3385 151.221 41.0955C150.69 40.8435 150.254 40.479 149.912 40.002C149.579 39.516 149.412 38.9445 149.412 38.2875C149.412 37.7025 149.556 37.149 149.844 36.627C150.132 36.105 150.519 35.6865 151.005 35.3715C151.5 35.0565 152.031 34.899 152.598 34.899C153.066 34.899 153.525 35.0025 153.975 35.2095C154.434 35.4075 154.857 35.673 155.244 36.006L154.448 37.6935C153.881 37.5135 153.341 37.4235 152.828 37.4235C152.666 37.4235 152.544 37.428 152.463 37.437C152.22 37.464 151.991 37.527 151.775 37.626C151.568 37.716 151.401 37.824 151.275 37.95C151.158 38.067 151.1 38.1795 151.1 38.2875C151.1 38.4405 151.176 38.5935 151.329 38.7465C151.482 38.8905 151.689 39.012 151.95 39.111C152.211 39.201 152.49 39.246 152.787 39.246C152.904 39.246 152.994 39.2415 153.057 39.2325L153.233 41.4465Z" fill="#FECE00"/>
<g filter="url(#filter0_d_11510_8)">
<path d="M89.2819 14.3349C89.2954 13.7023 89.4502 13.1437 89.7463 12.6591C90.0424 12.1746 90.4395 11.8112 90.9375 11.5689C91.4355 11.3266 91.9941 11.2324 92.6133 11.2862C93.1382 10.0748 93.7708 9.15955 94.5111 8.54039C95.2514 7.90777 96.0254 7.59146 96.833 7.59146C97.6271 7.59146 98.3136 7.8472 98.8924 8.35868C99.4846 8.8567 99.9288 9.50951 100.225 10.3171C100.534 11.1112 100.689 11.9458 100.689 12.8207C100.689 13.6686 100.541 14.4493 100.245 15.1627C99.949 15.8626 99.5115 16.401 98.9328 16.7779C98.5828 17.0067 98.1723 17.1211 97.7012 17.1211C97.1493 17.1211 96.4359 16.9663 95.561 16.6568C94.6996 16.3337 93.5959 15.8222 92.2499 15.1223C92.2364 16.4818 92.3172 18.2047 92.4921 20.291C92.6806 22.3907 92.8219 23.8242 92.9161 24.5914L89.7867 25.3183C89.679 24.2011 89.5646 22.7205 89.4435 20.8765C89.3223 19.0325 89.2617 17.2827 89.2617 15.6271C89.2617 15.0348 89.2685 14.6041 89.2819 14.3349ZM95.1572 12.5178C95.7495 12.8812 96.2811 13.1706 96.7522 13.386C97.2233 13.5879 97.5733 13.6888 97.8021 13.6888C97.9098 13.6888 97.9838 13.6686 98.0242 13.6283C98.1723 13.4937 98.2463 13.2648 98.2463 12.9418C98.2463 12.4842 98.105 12.0467 97.8223 11.6295C97.5531 11.1987 97.1964 10.9834 96.7522 10.9834C96.5234 10.9834 96.2811 11.0911 96.0254 11.3064C95.7697 11.5218 95.4803 11.9256 95.1572 12.5178ZM101.534 16.8789C101.695 15.8694 101.776 14.4426 101.776 12.5986C101.776 10.7546 101.702 8.80286 101.554 6.74348C101.42 4.6841 101.265 3.15639 101.09 2.16035L104.219 1.4537C104.354 2.38244 104.475 3.79574 104.583 5.6936C104.69 7.578 104.744 9.44221 104.744 11.2862C104.744 13.8302 104.636 15.7953 104.421 17.1817L101.534 16.8789ZM105.45 19.6853C107.066 19.3353 108.358 18.9719 109.327 18.595C110.296 18.2181 111.009 17.7807 111.467 17.2827C111.925 16.7846 112.153 16.1857 112.153 15.4857C112.153 14.6647 112.032 13.8907 111.79 13.1639C111.561 12.4236 111.258 11.8314 110.881 11.3872C110.505 10.943 110.114 10.7209 109.71 10.7209C109.334 10.7209 109.011 10.8892 108.741 11.2257C108.486 11.5487 108.358 11.8785 108.358 12.215C108.358 12.363 108.398 12.4909 108.479 12.5986C108.694 12.8139 109.078 12.9956 109.63 13.1437C110.195 13.2783 110.821 13.3456 111.507 13.3456C111.898 13.3456 112.342 13.312 112.84 13.2447V16.7779C112.14 16.9529 111.427 17.0404 110.7 17.0404C109.663 17.0404 108.748 16.8452 107.954 16.4549C107.16 16.0645 106.594 15.4992 106.258 14.7589C106.016 14.234 105.895 13.6081 105.895 12.8812C105.895 12.0198 106.076 11.1651 106.44 10.3171C106.803 9.46913 107.301 8.77594 107.934 8.23754C108.566 7.69914 109.273 7.42994 110.054 7.42994C110.888 7.42994 111.655 7.7799 112.355 8.47982C113.055 9.17974 113.607 10.1152 114.011 11.2862C114.415 12.4572 114.617 13.7292 114.617 15.1021C114.617 16.4481 114.294 17.6595 113.647 18.7363C113.015 19.8131 112.1 20.7082 110.902 21.4216C109.704 22.1485 108.284 22.6599 106.642 22.9561L105.45 19.6853ZM121.284 22.9561C120.033 22.9561 118.909 22.7272 117.913 22.2696C116.917 21.812 116.129 21.1188 115.55 20.19C114.985 19.2747 114.702 18.1576 114.702 16.8385C114.702 16.677 114.716 16.4212 114.743 16.0713C114.85 14.7926 115.322 13.2312 116.156 11.3872L118.478 12.4572C118.101 13.3725 117.832 14.0859 117.67 14.5974C117.509 15.1089 117.428 15.6742 117.428 16.2933C117.428 18.2047 118.713 19.1603 121.284 19.1603C122.28 19.1603 123.189 19.0325 124.01 18.7767C124.845 18.521 125.457 18.2114 125.847 17.848C125.497 17.6192 124.945 17.3365 124.192 17C123.451 16.6635 122.691 16.3674 121.91 16.1116L122.718 12.538C123.97 12.7803 125.033 12.9485 125.908 13.0428C126.783 13.137 127.664 13.1908 128.553 13.2043H128.755L128.957 15.1021L128.755 17H128.553C127.637 16.9865 126.655 16.9058 125.605 16.7577C124.555 16.5962 123.324 16.3808 121.91 16.1116L122.718 13.8504C124.279 14.4291 125.598 15.0954 126.675 15.8492C127.765 16.6029 128.31 17.3567 128.31 18.1105C128.31 18.8238 128.001 19.5574 127.382 20.3112C126.776 21.0649 125.935 21.6908 124.858 22.1888C123.795 22.7003 122.603 22.9561 121.284 22.9561ZM136.318 4.52258L130.806 6.84443C131.519 7.50397 132.28 8.36541 133.087 9.42875C133.895 10.4921 134.299 11.6093 134.299 12.7803C134.299 12.9956 134.279 13.2043 134.238 13.4062C134.009 14.6041 133.282 15.5059 132.058 16.1116C130.846 16.7039 129.345 17 127.555 17H126.748V13.2043H127.555C128.538 13.2043 129.393 13.137 130.119 13.0024C130.846 12.8543 131.358 12.6861 131.654 12.4976C131.183 11.7439 130.644 11.0238 130.039 10.3373C129.446 9.63738 128.578 8.81632 127.434 7.87412L127.737 4.66391L135.308 1.51427L136.318 4.52258ZM133.888 19.7862C134.79 19.3824 135.618 18.9382 136.372 18.4537C137.139 17.9826 137.745 17.5384 138.189 17.1211C138.646 16.7039 138.875 16.3741 138.875 16.1318C138.875 15.5934 138.458 13.9917 137.623 11.3266L140.349 10.2363C140.686 11.1651 140.948 12.1544 141.136 13.2043C141.325 14.2407 141.419 15.2165 141.419 16.1318C141.419 17.5317 140.894 18.8104 139.844 19.9679C138.794 21.1255 137.341 22.1215 135.483 22.9561L133.888 19.7862ZM136.452 6.35987L138.613 4.19954L140.753 6.35987L138.613 8.50001L136.452 6.35987ZM142.49 16.8789C142.652 15.8694 142.733 14.4426 142.733 12.5986C142.733 10.7546 142.659 8.80286 142.511 6.74348C142.376 4.6841 142.221 3.15639 142.046 2.16035L145.176 1.4537C145.31 2.38244 145.431 3.79574 145.539 5.6936C145.647 7.578 145.701 9.44221 145.701 11.2862C145.701 13.8302 145.593 15.7953 145.378 17.1817L142.49 16.8789Z" fill="white"/>
</g>
<defs>
<filter id="filter0_d_11510_8" x="88.2656" y="1.45312" width="58.4375" height="26.8652" filterUnits="userSpaceOnUse" color-interpolation-filters="sRGB">
<feFlood flood-opacity="0" result="BackgroundImageFix"/>
<feColorMatrix in="SourceAlpha" type="matrix" values="0 0 0 0 0 0 0 0 0 0 0 0 0 0 0 0 0 0 127 0" result="hardAlpha"/>
<feOffset dy="2"/>
<feGaussianBlur stdDeviation="0.5"/>
<feComposite in2="hardAlpha" operator="out"/>
<feColorMatrix type="matrix" values="0 0 0 0 0 0 0 0 0 0 0 0 0 0 0 0 0 0 0.25 0"/>
<feBlend mode="normal" in2="BackgroundImageFix" result="effect1_dropShadow_11510_8"/>
<feBlend mode="normal" in="SourceGraphic" in2="effect1_dropShadow_11510_8" result="shape"/>
</filter>
</defs>
</svg>
