<svg width="45" height="22" viewBox="0 0 45 22" fill="none" xmlns="http://www.w3.org/2000/svg">
<path d="M44.4706 16.3398H43.5605V17.2498H44.4706V16.3398Z" fill="#AEDEF8"/>
<path d="M44.4706 15.4297H43.5605V16.3397H44.4706V15.4297Z" fill="#C0BFBF"/>
<path d="M43.5604 17.25H42.6504V18.16H43.5604V17.25Z" fill="#AEDEF8"/>
<path d="M43.5604 16.3398H42.6504V17.2498H43.5604V16.3398Z" fill="#AEDEF8"/>
<path d="M43.5604 15.4297H42.6504V16.3397H43.5604V15.4297Z" fill="#E1E1E1"/>
<path d="M43.5604 14.5195H42.6504V15.4295H43.5604V14.5195Z" fill="#C0BFBF"/>
<path d="M42.6502 18.1504H41.7402V19.0604H42.6502V18.1504Z" fill="#00B4EC"/>
<path d="M42.6502 17.25H41.7402V18.16H42.6502V17.25Z" fill="#AEDEF8"/>
<path d="M42.6502 16.3398H41.7402V17.2498H42.6502V16.3398Z" fill="#AEDEF8"/>
<path d="M42.6502 15.4297H41.7402V16.3397H42.6502V15.4297Z" fill="white"/>
<path d="M42.6502 14.5195H41.7402V15.4295H42.6502V14.5195Z" fill="white"/>
<path d="M42.6502 13.6191H41.7402V14.5291H42.6502V13.6191Z" fill="#C0BFBF"/>
<path d="M41.7498 19.0605H40.8398V19.9705H41.7498V19.0605Z" fill="#00B4EC"/>
<path d="M41.7498 18.1504H40.8398V19.0604H41.7498V18.1504Z" fill="#00B4EC"/>
<path d="M41.7498 17.25H40.8398V18.16H41.7498V17.25Z" fill="#00B4EC"/>
<path d="M41.7498 16.3398H40.8398V17.2498H41.7498V16.3398Z" fill="#AEDEF8"/>
<path d="M41.7498 15.4297H40.8398V16.3397H41.7498V15.4297Z" fill="#E1E1E1"/>
<path d="M41.7498 14.5195H40.8398V15.4295H41.7498V14.5195Z" fill="white"/>
<path d="M41.7498 13.6191H40.8398V14.5291H41.7498V13.6191Z" fill="white"/>
<path d="M41.7498 12.7109H40.8398V13.6209H41.7498V12.7109Z" fill="#C0BFBF"/>
<path d="M40.8397 19.0605H39.9297V19.9705H40.8397V19.0605Z" fill="#00B4EC"/>
<path d="M40.8397 18.1504H39.9297V19.0604H40.8397V18.1504Z" fill="#00B4EC"/>
<path d="M40.8397 17.25H39.9297V18.16H40.8397V17.25Z" fill="#AEDEF8"/>
<path d="M40.8397 16.3398H39.9297V17.2498H40.8397V16.3398Z" fill="#AEDEF8"/>
<path d="M40.8397 15.4297H39.9297V16.3397H40.8397V15.4297Z" fill="white"/>
<path d="M40.8397 14.5195H39.9297V15.4295H40.8397V14.5195Z" fill="white"/>
<path d="M40.8397 13.6191H39.9297V14.5291H40.8397V13.6191Z" fill="white"/>
<path d="M40.8397 12.7109H39.9297V13.6209H40.8397V12.7109Z" fill="#454443"/>
<path d="M39.9295 19.0605H39.0195V19.9705H39.9295V19.0605Z" fill="#00B4EC"/>
<path d="M39.9295 18.1504H39.0195V19.0604H39.9295V18.1504Z" fill="#00B4EC"/>
<path d="M39.9295 17.25H39.0195V18.16H39.9295V17.25Z" fill="#00B4EC"/>
<path d="M39.9295 16.3398H39.0195V17.2498H39.9295V16.3398Z" fill="#AEDEF8"/>
<path d="M39.9295 15.4297H39.0195V16.3397H39.9295V15.4297Z" fill="#E1E1E1"/>
<path d="M39.9295 14.5195H39.0195V15.4295H39.9295V14.5195Z" fill="white"/>
<path d="M39.9295 13.6191H39.0195V14.5291H39.9295V13.6191Z" fill="white"/>
<path d="M39.9295 12.7109H39.0195V13.6209H39.9295V12.7109Z" fill="#454443"/>
<path d="M39.9295 11.8008H39.0195V12.7108H39.9295V11.8008Z" fill="#C0BFBF"/>
<path d="M39.0194 19.0605H38.1094V19.9705H39.0194V19.0605Z" fill="#00B4EC"/>
<path d="M39.0194 18.1504H38.1094V19.0604H39.0194V18.1504Z" fill="#00B4EC"/>
<path d="M39.0194 17.25H38.1094V18.16H39.0194V17.25Z" fill="#AEDEF8"/>
<path d="M39.0194 16.3398H38.1094V17.2498H39.0194V16.3398Z" fill="#AEDEF8"/>
<path d="M39.0194 15.4297H38.1094V16.3397H39.0194V15.4297Z" fill="white"/>
<path d="M39.0194 14.5195H38.1094V15.4295H39.0194V14.5195Z" fill="white"/>
<path d="M39.0194 13.6191H38.1094V14.5291H39.0194V13.6191Z" fill="white"/>
<path d="M39.0194 12.7109H38.1094V13.6209H39.0194V12.7109Z" fill="#454443"/>
<path d="M39.0194 11.8008H38.1094V12.7108H39.0194V11.8008Z" fill="#C0BFBF"/>
<path d="M38.1209 19.9707H37.2109V20.8807H38.1209V19.9707Z" fill="#C0BFBF"/>
<path d="M38.1209 19.0605H37.2109V19.9705H38.1209V19.0605Z" fill="#00B4EC"/>
<path d="M38.1209 18.1504H37.2109V19.0604H38.1209V18.1504Z" fill="#00B4EC"/>
<path d="M38.1209 17.25H37.2109V18.16H38.1209V17.25Z" fill="#00B4EC"/>
<path d="M38.1209 16.3398H37.2109V17.2498H38.1209V16.3398Z" fill="#AEDEF8"/>
<path d="M38.1209 15.4297H37.2109V16.3397H38.1209V15.4297Z" fill="#E1E1E1"/>
<path d="M38.1209 14.5195H37.2109V15.4295H38.1209V14.5195Z" fill="white"/>
<path d="M38.1209 13.6191H37.2109V14.5291H38.1209V13.6191Z" fill="white"/>
<path d="M38.1209 12.7109H37.2109V13.6209H38.1209V12.7109Z" fill="#454443"/>
<path d="M38.1209 11.8008H37.2109V12.7108H38.1209V11.8008Z" fill="white"/>
<path d="M38.1209 10.8906H37.2109V11.8006H38.1209V10.8906Z" fill="#C0BFBF"/>
<path d="M37.2108 20.8809H36.3008V21.7909H37.2108V20.8809Z" fill="#C0BFBF"/>
<path d="M37.2108 19.9707H36.3008V20.8807H37.2108V19.9707Z" fill="#525251"/>
<path d="M37.2108 19.0605H36.3008V19.9705H37.2108V19.0605Z" fill="#00B4EC"/>
<path d="M37.2108 18.1504H36.3008V19.0604H37.2108V18.1504Z" fill="#00B4EC"/>
<path d="M37.2108 17.25H36.3008V18.16H37.2108V17.25Z" fill="#AEDEF8"/>
<path d="M37.2108 16.3398H36.3008V17.2498H37.2108V16.3398Z" fill="#AEDEF8"/>
<path d="M37.2108 15.4297H36.3008V16.3397H37.2108V15.4297Z" fill="white"/>
<path d="M37.2108 14.5195H36.3008V15.4295H37.2108V14.5195Z" fill="white"/>
<path d="M37.2108 13.6191H36.3008V14.5291H37.2108V13.6191Z" fill="white"/>
<path d="M37.2108 12.7109H36.3008V13.6209H37.2108V12.7109Z" fill="white"/>
<path d="M37.2108 11.8008H36.3008V12.7108H37.2108V11.8008Z" fill="#E1E1E1"/>
<path d="M37.2108 10.8906H36.3008V11.8006H37.2108V10.8906Z" fill="#C0BFBF"/>
<path d="M36.3006 20.8809H35.3906V21.7909H36.3006V20.8809Z" fill="#C0BFBF"/>
<path d="M36.3006 19.9707H35.3906V20.8807H36.3006V19.9707Z" fill="#3F3F3E"/>
<path d="M36.3006 19.0605H35.3906V19.9705H36.3006V19.0605Z" fill="#00B4EC"/>
<path d="M36.3006 18.1504H35.3906V19.0604H36.3006V18.1504Z" fill="#00B4EC"/>
<path d="M36.3006 17.25H35.3906V18.16H36.3006V17.25Z" fill="#00B4EC"/>
<path d="M36.3006 16.3398H35.3906V17.2498H36.3006V16.3398Z" fill="#AEDEF8"/>
<path d="M36.3006 15.4297H35.3906V16.3397H36.3006V15.4297Z" fill="#E1E1E1"/>
<path d="M36.3006 14.5195H35.3906V15.4295H36.3006V14.5195Z" fill="white"/>
<path d="M36.3006 13.6191H35.3906V14.5291H36.3006V13.6191Z" fill="white"/>
<path d="M36.3006 12.7109H35.3906V13.6209H36.3006V12.7109Z" fill="white"/>
<path d="M36.3006 11.8008H35.3906V12.7108H36.3006V11.8008Z" fill="white"/>
<path d="M36.3006 10.8906H35.3906V11.8006H36.3006V10.8906Z" fill="#C0BFBF"/>
<path d="M35.3905 20.8809H34.4805V21.7909H35.3905V20.8809Z" fill="#D8D8D7"/>
<path d="M35.3905 19.9707H34.4805V20.8807H35.3905V19.9707Z" fill="#C0BFBF"/>
<path d="M35.3905 19.0605H34.4805V19.9705H35.3905V19.0605Z" fill="#00B4EC"/>
<path d="M35.3905 18.1504H34.4805V19.0604H35.3905V18.1504Z" fill="#00B4EC"/>
<path d="M35.3905 17.25H34.4805V18.16H35.3905V17.25Z" fill="#AEDEF8"/>
<path d="M35.3905 16.3398H34.4805V17.2498H35.3905V16.3398Z" fill="#AEDEF8"/>
<path d="M35.3905 15.4297H34.4805V16.3397H35.3905V15.4297Z" fill="white"/>
<path d="M35.3905 14.5195H34.4805V15.4295H35.3905V14.5195Z" fill="white"/>
<path d="M35.3905 13.6191H34.4805V14.5291H35.3905V13.6191Z" fill="#454443"/>
<path d="M35.3905 12.7109H34.4805V13.6209H35.3905V12.7109Z" fill="white"/>
<path d="M35.3905 11.8008H34.4805V12.7108H35.3905V11.8008Z" fill="#E1E1E1"/>
<path d="M35.3905 10.8906H34.4805V11.8006H35.3905V10.8906Z" fill="#C0BFBF"/>
<path d="M34.4901 20.8809H33.5801V21.7909H34.4901V20.8809Z" fill="#D8D8D7"/>
<path d="M34.4901 19.9707H33.5801V20.8807H34.4901V19.9707Z" fill="#EAEAEA"/>
<path d="M34.4901 19.0605H33.5801V19.9705H34.4901V19.0605Z" fill="#00B4EC"/>
<path d="M34.4901 18.1504H33.5801V19.0604H34.4901V18.1504Z" fill="#00B4EC"/>
<path d="M34.4901 17.25H33.5801V18.16H34.4901V17.25Z" fill="#00B4EC"/>
<path d="M34.4901 16.3398H33.5801V17.2498H34.4901V16.3398Z" fill="#AEDEF8"/>
<path d="M34.4901 15.4297H33.5801V16.3397H34.4901V15.4297Z" fill="#E1E1E1"/>
<path d="M34.4901 14.5195H33.5801V15.4295H34.4901V14.5195Z" fill="white"/>
<path d="M34.4901 13.6191H33.5801V14.5291H34.4901V13.6191Z" fill="white"/>
<path d="M34.4901 12.7109H33.5801V13.6209H34.4901V12.7109Z" fill="white"/>
<path d="M34.4901 11.8008H33.5801V12.7108H34.4901V11.8008Z" fill="white"/>
<path d="M34.4901 10.8906H33.5801V11.8006H34.4901V10.8906Z" fill="#C0BFBF"/>
<path d="M33.5799 20.8809H32.6699V21.7909H33.5799V20.8809Z" fill="#D8D8D7"/>
<path d="M33.5799 19.9707H32.6699V20.8807H33.5799V19.9707Z" fill="#EAEAEA"/>
<path d="M33.5799 19.0605H32.6699V19.9705H33.5799V19.0605Z" fill="#00B4EC"/>
<path d="M33.5799 18.1504H32.6699V19.0604H33.5799V18.1504Z" fill="#00B4EC"/>
<path d="M33.5799 17.25H32.6699V18.16H33.5799V17.25Z" fill="#AEDEF8"/>
<path d="M33.5799 16.3398H32.6699V17.2498H33.5799V16.3398Z" fill="#AEDEF8"/>
<path d="M33.5799 15.4297H32.6699V16.3397H33.5799V15.4297Z" fill="white"/>
<path d="M33.5799 14.5195H32.6699V15.4295H33.5799V14.5195Z" fill="white"/>
<path d="M33.5799 13.6191H32.6699V14.5291H33.5799V13.6191Z" fill="#454443"/>
<path d="M33.5799 12.7109H32.6699V13.6209H33.5799V12.7109Z" fill="white"/>
<path d="M33.5799 11.8008H32.6699V12.7108H33.5799V11.8008Z" fill="#E1E1E1"/>
<path d="M33.5799 10.8906H32.6699V11.8006H33.5799V10.8906Z" fill="#C0BFBF"/>
<path d="M32.6698 20.8809H31.7598V21.7909H32.6698V20.8809Z" fill="#D8D8D7"/>
<path d="M32.6698 19.9707H31.7598V20.8807H32.6698V19.9707Z" fill="#EAEAEA"/>
<path d="M32.6698 19.0605H31.7598V19.9705H32.6698V19.0605Z" fill="#00B4EC"/>
<path d="M32.6698 18.1504H31.7598V19.0604H32.6698V18.1504Z" fill="#00B4EC"/>
<path d="M32.6698 17.25H31.7598V18.16H32.6698V17.25Z" fill="#00B4EC"/>
<path d="M32.6698 16.3398H31.7598V17.2498H32.6698V16.3398Z" fill="#AEDEF8"/>
<path d="M32.6698 15.4297H31.7598V16.3397H32.6698V15.4297Z" fill="#E1E1E1"/>
<path d="M32.6698 14.5195H31.7598V15.4295H32.6698V14.5195Z" fill="white"/>
<path d="M32.6698 13.6191H31.7598V14.5291H32.6698V13.6191Z" fill="white"/>
<path d="M32.6698 12.7109H31.7598V13.6209H32.6698V12.7109Z" fill="white"/>
<path d="M32.6698 11.8008H31.7598V12.7108H32.6698V11.8008Z" fill="white"/>
<path d="M32.6698 10.8906H31.7598V11.8006H32.6698V10.8906Z" fill="#C0BFBF"/>
<path d="M31.7596 19.9707H30.8496V20.8807H31.7596V19.9707Z" fill="#D8D8D7"/>
<path d="M31.7596 19.0605H30.8496V19.9705H31.7596V19.0605Z" fill="#00B4EC"/>
<path d="M31.7596 18.1504H30.8496V19.0604H31.7596V18.1504Z" fill="#00B4EC"/>
<path d="M31.7596 17.25H30.8496V18.16H31.7596V17.25Z" fill="#AEDEF8"/>
<path d="M31.7596 16.3398H30.8496V17.2498H31.7596V16.3398Z" fill="#AEDEF8"/>
<path d="M31.7596 15.4297H30.8496V16.3397H31.7596V15.4297Z" fill="white"/>
<path d="M31.7596 14.5195H30.8496V15.4295H31.7596V14.5195Z" fill="white"/>
<path d="M31.7596 13.6191H30.8496V14.5291H31.7596V13.6191Z" fill="#454443"/>
<path d="M31.7596 12.7109H30.8496V13.6209H31.7596V12.7109Z" fill="white"/>
<path d="M31.7596 11.8008H30.8496V12.7108H31.7596V11.8008Z" fill="#E1E1E1"/>
<path d="M31.7596 10.8906H30.8496V11.8006H31.7596V10.8906Z" fill="#C0BFBF"/>
<path d="M30.8592 19.0605H29.9492V19.9705H30.8592V19.0605Z" fill="#00B4EC"/>
<path d="M30.8592 18.1504H29.9492V19.0604H30.8592V18.1504Z" fill="#00B4EC"/>
<path d="M30.8592 17.25H29.9492V18.16H30.8592V17.25Z" fill="#00B4EC"/>
<path d="M30.8592 16.3398H29.9492V17.2498H30.8592V16.3398Z" fill="#AEDEF8"/>
<path d="M30.8592 15.4297H29.9492V16.3397H30.8592V15.4297Z" fill="#E1E1E1"/>
<path d="M30.8592 14.5195H29.9492V15.4295H30.8592V14.5195Z" fill="white"/>
<path d="M30.8592 13.6191H29.9492V14.5291H30.8592V13.6191Z" fill="white"/>
<path d="M30.8592 12.7109H29.9492V13.6209H30.8592V12.7109Z" fill="white"/>
<path d="M30.8592 11.8008H29.9492V12.7108H30.8592V11.8008Z" fill="white"/>
<path d="M30.8592 10.8906H29.9492V11.8006H30.8592V10.8906Z" fill="#C0BFBF"/>
<path d="M29.9491 19.0605H29.0391V19.9705H29.9491V19.0605Z" fill="#00B4EC"/>
<path d="M29.9491 18.1504H29.0391V19.0604H29.9491V18.1504Z" fill="#00B4EC"/>
<path d="M29.9491 17.25H29.0391V18.16H29.9491V17.25Z" fill="#AEDEF8"/>
<path d="M29.9491 16.3398H29.0391V17.2498H29.9491V16.3398Z" fill="#AEDEF8"/>
<path d="M29.9491 15.4297H29.0391V16.3397H29.9491V15.4297Z" fill="white"/>
<path d="M29.9491 14.5195H29.0391V15.4295H29.9491V14.5195Z" fill="white"/>
<path d="M29.9491 13.6191H29.0391V14.5291H29.9491V13.6191Z" fill="white"/>
<path d="M29.9491 12.7109H29.0391V13.6209H29.9491V12.7109Z" fill="white"/>
<path d="M29.9491 11.8008H29.0391V12.7108H29.9491V11.8008Z" fill="#E1E1E1"/>
<path d="M29.9491 10.8906H29.0391V11.8006H29.9491V10.8906Z" fill="#C0BFBF"/>
<path d="M29.0409 19.0605H28.1309V19.9705H29.0409V19.0605Z" fill="#00B4EC"/>
<path d="M29.0409 18.1504H28.1309V19.0604H29.0409V18.1504Z" fill="#00B4EC"/>
<path d="M29.0409 17.25H28.1309V18.16H29.0409V17.25Z" fill="#00B4EC"/>
<path d="M29.0409 16.3398H28.1309V17.2498H29.0409V16.3398Z" fill="#AEDEF8"/>
<path d="M29.0409 15.4297H28.1309V16.3397H29.0409V15.4297Z" fill="#E1E1E1"/>
<path d="M29.0409 14.5195H28.1309V15.4295H29.0409V14.5195Z" fill="white"/>
<path d="M29.0409 13.6191H28.1309V14.5291H29.0409V13.6191Z" fill="white"/>
<path d="M29.0409 12.7109H28.1309V13.6209H29.0409V12.7109Z" fill="white"/>
<path d="M29.0409 11.8008H28.1309V12.7108H29.0409V11.8008Z" fill="white"/>
<path d="M29.0409 10.8906H28.1309V11.8006H29.0409V10.8906Z" fill="#C0BFBF"/>
<path d="M28.1307 19.0605H27.2207V19.9705H28.1307V19.0605Z" fill="#00B4EC"/>
<path d="M28.1307 18.1504H27.2207V19.0604H28.1307V18.1504Z" fill="#00B4EC"/>
<path d="M28.1307 17.25H27.2207V18.16H28.1307V17.25Z" fill="#AEDEF8"/>
<path d="M28.1307 16.3398H27.2207V17.2498H28.1307V16.3398Z" fill="#AEDEF8"/>
<path d="M28.1307 15.4297H27.2207V16.3397H28.1307V15.4297Z" fill="white"/>
<path d="M28.1307 14.5195H27.2207V15.4295H28.1307V14.5195Z" fill="white"/>
<path d="M28.1307 13.6191H27.2207V14.5291H28.1307V13.6191Z" fill="#454443"/>
<path d="M28.1307 12.7109H27.2207V13.6209H28.1307V12.7109Z" fill="white"/>
<path d="M28.1307 11.8008H27.2207V12.7108H28.1307V11.8008Z" fill="#E1E1E1"/>
<path d="M28.1307 10.8906H27.2207V11.8006H28.1307V10.8906Z" fill="#C0BFBF"/>
<path d="M27.2206 19.0605H26.3105V19.9705H27.2206V19.0605Z" fill="#00B4EC"/>
<path d="M27.2206 18.1504H26.3105V19.0604H27.2206V18.1504Z" fill="#00B4EC"/>
<path d="M27.2206 17.25H26.3105V18.16H27.2206V17.25Z" fill="#00B4EC"/>
<path d="M27.2206 16.3398H26.3105V17.2498H27.2206V16.3398Z" fill="#AEDEF8"/>
<path d="M27.2206 15.4297H26.3105V16.3397H27.2206V15.4297Z" fill="#E1E1E1"/>
<path d="M27.2206 14.5195H26.3105V15.4295H27.2206V14.5195Z" fill="white"/>
<path d="M27.2206 13.6191H26.3105V14.5291H27.2206V13.6191Z" fill="white"/>
<path d="M27.2206 12.7109H26.3105V13.6209H27.2206V12.7109Z" fill="white"/>
<path d="M27.2206 11.8008H26.3105V12.7108H27.2206V11.8008Z" fill="white"/>
<path d="M27.2206 10.8906H26.3105V11.8006H27.2206V10.8906Z" fill="#C0BFBF"/>
<path d="M26.3202 19.0605H25.4102V19.9705H26.3202V19.0605Z" fill="#00B4EC"/>
<path d="M26.3202 18.1504H25.4102V19.0604H26.3202V18.1504Z" fill="#00B4EC"/>
<path d="M26.3202 17.25H25.4102V18.16H26.3202V17.25Z" fill="#AEDEF8"/>
<path d="M26.3202 16.3398H25.4102V17.2498H26.3202V16.3398Z" fill="#008FD6"/>
<path d="M26.3202 15.4297H25.4102V16.3397H26.3202V15.4297Z" fill="white"/>
<path d="M26.3202 14.5195H25.4102V15.4295H26.3202V14.5195Z" fill="white"/>
<path d="M26.3202 13.6191H25.4102V14.5291H26.3202V13.6191Z" fill="#454443"/>
<path d="M26.3202 12.7109H25.4102V13.6209H26.3202V12.7109Z" fill="white"/>
<path d="M26.3202 11.8008H25.4102V12.7108H26.3202V11.8008Z" fill="#E1E1E1"/>
<path d="M26.3202 10.8906H25.4102V11.8006H26.3202V10.8906Z" fill="#C0BFBF"/>
<path d="M25.41 19.0605H24.5V19.9705H25.41V19.0605Z" fill="#00B4EC"/>
<path d="M25.41 18.1504H24.5V19.0604H25.41V18.1504Z" fill="#00B4EC"/>
<path d="M25.41 17.25H24.5V18.16H25.41V17.25Z" fill="#00B4EC"/>
<path d="M25.41 16.3398H24.5V17.2498H25.41V16.3398Z" fill="#008FD6"/>
<path d="M25.41 15.4297H24.5V16.3397H25.41V15.4297Z" fill="#E1E1E1"/>
<path d="M25.41 14.5195H24.5V15.4295H25.41V14.5195Z" fill="white"/>
<path d="M25.41 13.6191H24.5V14.5291H25.41V13.6191Z" fill="white"/>
<path d="M25.41 12.7109H24.5V13.6209H25.41V12.7109Z" fill="white"/>
<path d="M25.41 11.8008H24.5V12.7108H25.41V11.8008Z" fill="white"/>
<path d="M25.41 10.8906H24.5V11.8006H25.41V10.8906Z" fill="#C0BFBF"/>
<path d="M24.4998 19.9707H23.5898V20.8807H24.4998V19.9707Z" fill="#C0BFBF"/>
<path d="M24.4998 19.0605H23.5898V19.9705H24.4998V19.0605Z" fill="#C0BFBF"/>
<path d="M24.4998 18.1504H23.5898V19.0604H24.4998V18.1504Z" fill="#C0BFBF"/>
<path d="M24.4998 17.25H23.5898V18.16H24.4998V17.25Z" fill="#AEDEF8"/>
<path d="M24.4998 16.3398H23.5898V17.2498H24.4998V16.3398Z" fill="#008FD6"/>
<path d="M24.4998 15.4297H23.5898V16.3397H24.4998V15.4297Z" fill="white"/>
<path d="M24.4998 14.5195H23.5898V15.4295H24.4998V14.5195Z" fill="white"/>
<path d="M24.4998 13.6191H23.5898V14.5291H24.4998V13.6191Z" fill="#454443"/>
<path d="M24.4998 12.7109H23.5898V13.6209H24.4998V12.7109Z" fill="white"/>
<path d="M24.4998 11.8008H23.5898V12.7108H24.4998V11.8008Z" fill="#E1E1E1"/>
<path d="M24.4998 10.8906H23.5898V11.8006H24.4998V10.8906Z" fill="#C0BFBF"/>
<path d="M23.5897 20.8809H22.6797V21.7909H23.5897V20.8809Z" fill="#C0BFBF"/>
<path d="M23.5897 19.9707H22.6797V20.8807H23.5897V19.9707Z" fill="#525251"/>
<path d="M23.5897 19.0605H22.6797V19.9705H23.5897V19.0605Z" fill="#525251"/>
<path d="M23.5897 18.1504H22.6797V19.0604H23.5897V18.1504Z" fill="#525251"/>
<path d="M23.5897 17.25H22.6797V18.16H23.5897V17.25Z" fill="#C0BFBF"/>
<path d="M23.5897 16.3398H22.6797V17.2498H23.5897V16.3398Z" fill="#008FD6"/>
<path d="M23.5897 15.4297H22.6797V16.3397H23.5897V15.4297Z" fill="#E1E1E1"/>
<path d="M23.5897 14.5195H22.6797V15.4295H23.5897V14.5195Z" fill="white"/>
<path d="M23.5897 13.6191H22.6797V14.5291H23.5897V13.6191Z" fill="white"/>
<path d="M23.5897 12.7109H22.6797V13.6209H23.5897V12.7109Z" fill="white"/>
<path d="M23.5897 11.8008H22.6797V12.7108H23.5897V11.8008Z" fill="white"/>
<path d="M23.5897 10.8906H22.6797V11.8006H23.5897V10.8906Z" fill="#C0BFBF"/>
<path d="M22.6893 20.8809H21.7793V21.7909H22.6893V20.8809Z" fill="#C0BFBF"/>
<path d="M22.6893 19.9707H21.7793V20.8807H22.6893V19.9707Z" fill="#3F3F3E"/>
<path d="M22.6893 19.0605H21.7793V19.9705H22.6893V19.0605Z" fill="#3F3F3E"/>
<path d="M22.6893 18.1504H21.7793V19.0604H22.6893V18.1504Z" fill="#3F3F3E"/>
<path d="M22.6893 17.25H21.7793V18.16H22.6893V17.25Z" fill="#C0BFBF"/>
<path d="M22.6893 16.3398H21.7793V17.2498H22.6893V16.3398Z" fill="#008FD6"/>
<path d="M22.6893 15.4297H21.7793V16.3397H22.6893V15.4297Z" fill="white"/>
<path d="M22.6893 14.5195H21.7793V15.4295H22.6893V14.5195Z" fill="white"/>
<path d="M22.6893 13.6191H21.7793V14.5291H22.6893V13.6191Z" fill="white"/>
<path d="M22.6893 12.7109H21.7793V13.6209H22.6893V12.7109Z" fill="white"/>
<path d="M22.6893 11.8008H21.7793V12.7108H22.6893V11.8008Z" fill="#E1E1E1"/>
<path d="M22.6893 10.8906H21.7793V11.8006H22.6893V10.8906Z" fill="#C0BFBF"/>
<path d="M21.7791 20.8809H20.8691V21.7909H21.7791V20.8809Z" fill="#D8D8D7"/>
<path d="M21.7791 19.9707H20.8691V20.8807H21.7791V19.9707Z" fill="#C0BFBF"/>
<path d="M21.7791 19.0605H20.8691V19.9705H21.7791V19.0605Z" fill="#C0BFBF"/>
<path d="M21.7791 18.1504H20.8691V19.0604H21.7791V18.1504Z" fill="#C0BFBF"/>
<path d="M21.7791 17.25H20.8691V18.16H21.7791V17.25Z" fill="#EAEAEA"/>
<path d="M21.7791 16.3398H20.8691V17.2498H21.7791V16.3398Z" fill="#008FD6"/>
<path d="M21.7791 15.4297H20.8691V16.3397H21.7791V15.4297Z" fill="#E1E1E1"/>
<path d="M21.7791 14.5195H20.8691V15.4295H21.7791V14.5195Z" fill="white"/>
<path d="M21.7791 13.6191H20.8691V14.5291H21.7791V13.6191Z" fill="white"/>
<path d="M21.7791 12.7109H20.8691V13.6209H21.7791V12.7109Z" fill="white"/>
<path d="M21.7791 11.8008H20.8691V12.7108H21.7791V11.8008Z" fill="white"/>
<path d="M21.7791 10.8906H20.8691V11.8006H21.7791V10.8906Z" fill="#C0BFBF"/>
<path d="M20.8709 20.8809H19.9609V21.7909H20.8709V20.8809Z" fill="#D8D8D7"/>
<path d="M20.8709 19.9707H19.9609V20.8807H20.8709V19.9707Z" fill="#EAEAEA"/>
<path d="M20.8709 19.0605H19.9609V19.9705H20.8709V19.0605Z" fill="#EAEAEA"/>
<path d="M20.8709 18.1504H19.9609V19.0604H20.8709V18.1504Z" fill="white"/>
<path d="M20.8709 17.25H19.9609V18.16H20.8709V17.25Z" fill="#EAEAEA"/>
<path d="M20.8709 16.3398H19.9609V17.2498H20.8709V16.3398Z" fill="#0077BF"/>
<path d="M20.8709 15.4297H19.9609V16.3397H20.8709V15.4297Z" fill="white"/>
<path d="M20.8709 14.5195H19.9609V15.4295H20.8709V14.5195Z" fill="white"/>
<path d="M20.8709 13.6191H19.9609V14.5291H20.8709V13.6191Z" fill="#454443"/>
<path d="M20.8709 12.7109H19.9609V13.6209H20.8709V12.7109Z" fill="white"/>
<path d="M20.8709 11.8008H19.9609V12.7108H20.8709V11.8008Z" fill="#E1E1E1"/>
<path d="M20.8709 10.8906H19.9609V11.8006H20.8709V10.8906Z" fill="#C0BFBF"/>
<path d="M19.9608 20.8809H19.0508V21.7909H19.9608V20.8809Z" fill="#D8D8D7"/>
<path d="M19.9608 19.9707H19.0508V20.8807H19.9608V19.9707Z" fill="#EAEAEA"/>
<path d="M19.9608 19.0605H19.0508V19.9705H19.9608V19.0605Z" fill="#EAEAEA"/>
<path d="M19.9608 18.1504H19.0508V19.0604H19.9608V18.1504Z" fill="white"/>
<path d="M19.9608 17.25H19.0508V18.16H19.9608V17.25Z" fill="#EAEAEA"/>
<path d="M19.9608 16.3398H19.0508V17.2498H19.9608V16.3398Z" fill="#0077BF"/>
<path d="M19.9608 15.4297H19.0508V16.3397H19.9608V15.4297Z" fill="#E1E1E1"/>
<path d="M19.9608 14.5195H19.0508V15.4295H19.9608V14.5195Z" fill="white"/>
<path d="M19.9608 13.6191H19.0508V14.5291H19.9608V13.6191Z" fill="white"/>
<path d="M19.9608 12.7109H19.0508V13.6209H19.9608V12.7109Z" fill="white"/>
<path d="M19.9608 11.8008H19.0508V12.7108H19.9608V11.8008Z" fill="white"/>
<path d="M19.9608 10.8906H19.0508V11.8006H19.9608V10.8906Z" fill="#C0BFBF"/>
<path d="M19.0604 20.8809H18.1504V21.7909H19.0604V20.8809Z" fill="#D8D8D7"/>
<path d="M19.0604 19.9707H18.1504V20.8807H19.0604V19.9707Z" fill="#EAEAEA"/>
<path d="M19.0604 19.0605H18.1504V19.9705H19.0604V19.0605Z" fill="#EAEAEA"/>
<path d="M19.0604 18.1504H18.1504V19.0604H19.0604V18.1504Z" fill="white"/>
<path d="M19.0604 17.25H18.1504V18.16H19.0604V17.25Z" fill="#EAEAEA"/>
<path d="M19.0604 16.3398H18.1504V17.2498H19.0604V16.3398Z" fill="#0077BF"/>
<path d="M19.0604 15.4297H18.1504V16.3397H19.0604V15.4297Z" fill="white"/>
<path d="M19.0604 14.5195H18.1504V15.4295H19.0604V14.5195Z" fill="white"/>
<path d="M19.0604 13.6191H18.1504V14.5291H19.0604V13.6191Z" fill="#454443"/>
<path d="M19.0604 12.7109H18.1504V13.6209H19.0604V12.7109Z" fill="white"/>
<path d="M19.0604 11.8008H18.1504V12.7108H19.0604V11.8008Z" fill="#E1E1E1"/>
<path d="M19.0604 10.8906H18.1504V11.8006H19.0604V10.8906Z" fill="#C0BFBF"/>
<path d="M18.1502 19.9707H17.2402V20.8807H18.1502V19.9707Z" fill="#D8D8D7"/>
<path d="M18.1502 19.0605H17.2402V19.9705H18.1502V19.0605Z" fill="#EAEAEA"/>
<path d="M18.1502 18.1504H17.2402V19.0604H18.1502V18.1504Z" fill="white"/>
<path d="M18.1502 17.25H17.2402V18.16H18.1502V17.25Z" fill="#AEDEF8"/>
<path d="M18.1502 16.3398H17.2402V17.2498H18.1502V16.3398Z" fill="#0077BF"/>
<path d="M18.1502 15.4297H17.2402V16.3397H18.1502V15.4297Z" fill="#E1E1E1"/>
<path d="M18.1502 14.5195H17.2402V15.4295H18.1502V14.5195Z" fill="white"/>
<path d="M18.1502 13.6191H17.2402V14.5291H18.1502V13.6191Z" fill="white"/>
<path d="M18.1502 12.7109H17.2402V13.6209H18.1502V12.7109Z" fill="white"/>
<path d="M18.1502 11.8008H17.2402V12.7108H18.1502V11.8008Z" fill="white"/>
<path d="M18.1502 10.8906H17.2402V11.8006H18.1502V10.8906Z" fill="#C0BFBF"/>
<path d="M17.2401 19.0605H16.3301V19.9705H17.2401V19.0605Z" fill="#00B4EC"/>
<path d="M17.2401 18.1504H16.3301V19.0604H17.2401V18.1504Z" fill="#00B4EC"/>
<path d="M17.2401 17.25H16.3301V18.16H17.2401V17.25Z" fill="#00B4EC"/>
<path d="M17.2401 16.3398H16.3301V17.2498H17.2401V16.3398Z" fill="#0077BF"/>
<path d="M17.2401 15.4297H16.3301V16.3397H17.2401V15.4297Z" fill="white"/>
<path d="M17.2401 14.5195H16.3301V15.4295H17.2401V14.5195Z" fill="white"/>
<path d="M17.2401 13.6191H16.3301V14.5291H17.2401V13.6191Z" fill="#454443"/>
<path d="M17.2401 12.7109H16.3301V13.6209H17.2401V12.7109Z" fill="white"/>
<path d="M17.2401 11.8008H16.3301V12.7108H17.2401V11.8008Z" fill="#E1E1E1"/>
<path d="M17.2401 10.8906H16.3301V11.8006H17.2401V10.8906Z" fill="#C0BFBF"/>
<path d="M16.3299 19.0605H15.4199V19.9705H16.3299V19.0605Z" fill="#00B4EC"/>
<path d="M16.3299 18.1504H15.4199V19.0604H16.3299V18.1504Z" fill="#00B4EC"/>
<path d="M16.3299 17.25H15.4199V18.16H16.3299V17.25Z" fill="#AEDEF8"/>
<path d="M16.3299 16.3398H15.4199V17.2498H16.3299V16.3398Z" fill="#008FD6"/>
<path d="M16.3299 15.4297H15.4199V16.3397H16.3299V15.4297Z" fill="#E1E1E1"/>
<path d="M16.3299 14.5195H15.4199V15.4295H16.3299V14.5195Z" fill="white"/>
<path d="M16.3299 13.6191H15.4199V14.5291H16.3299V13.6191Z" fill="white"/>
<path d="M16.3299 12.7109H15.4199V13.6209H16.3299V12.7109Z" fill="white"/>
<path d="M16.3299 11.8008H15.4199V12.7108H16.3299V11.8008Z" fill="white"/>
<path d="M16.3299 10.8906H15.4199V11.8006H16.3299V10.8906Z" fill="#C0BFBF"/>
<path d="M15.4295 19.0605H14.5195V19.9705H15.4295V19.0605Z" fill="#00B4EC"/>
<path d="M15.4295 18.1504H14.5195V19.0604H15.4295V18.1504Z" fill="#00B4EC"/>
<path d="M15.4295 17.25H14.5195V18.16H15.4295V17.25Z" fill="#00B4EC"/>
<path d="M15.4295 16.3398H14.5195V17.2498H15.4295V16.3398Z" fill="#008FD6"/>
<path d="M15.4295 15.4297H14.5195V16.3397H15.4295V15.4297Z" fill="white"/>
<path d="M15.4295 14.5195H14.5195V15.4295H15.4295V14.5195Z" fill="white"/>
<path d="M15.4295 13.6191H14.5195V14.5291H15.4295V13.6191Z" fill="white"/>
<path d="M15.4295 12.7109H14.5195V13.6209H15.4295V12.7109Z" fill="white"/>
<path d="M15.4295 11.8008H14.5195V12.7108H15.4295V11.8008Z" fill="#E1E1E1"/>
<path d="M15.4295 10.8906H14.5195V11.8006H15.4295V10.8906Z" fill="#C0BFBF"/>
<path d="M14.5194 19.0605H13.6094V19.9705H14.5194V19.0605Z" fill="#00B4EC"/>
<path d="M14.5194 18.1504H13.6094V19.0604H14.5194V18.1504Z" fill="#00B4EC"/>
<path d="M14.5194 17.25H13.6094V18.16H14.5194V17.25Z" fill="#AEDEF8"/>
<path d="M14.5194 16.3398H13.6094V17.2498H14.5194V16.3398Z" fill="#008FD6"/>
<path d="M14.5194 15.4297H13.6094V16.3397H14.5194V15.4297Z" fill="#E1E1E1"/>
<path d="M14.5194 14.5195H13.6094V15.4295H14.5194V14.5195Z" fill="white"/>
<path d="M14.5194 13.6191H13.6094V14.5291H14.5194V13.6191Z" fill="white"/>
<path d="M14.5194 12.7109H13.6094V13.6209H14.5194V12.7109Z" fill="white"/>
<path d="M14.5194 11.8008H13.6094V12.7108H14.5194V11.8008Z" fill="white"/>
<path d="M14.5194 10.8906H13.6094V11.8006H14.5194V10.8906Z" fill="#C0BFBF"/>
<path d="M14.5194 9.99023H13.6094V10.9002H14.5194V9.99023Z" fill="#AEDEF8"/>
<path d="M13.6092 18.1504H12.6992V19.0604H13.6092V18.1504Z" fill="#00B4EC"/>
<path d="M13.6092 17.25H12.6992V18.16H13.6092V17.25Z" fill="#00B4EC"/>
<path d="M13.6092 16.3398H12.6992V17.2498H13.6092V16.3398Z" fill="#0077BF"/>
<path d="M13.6092 15.4297H12.6992V16.3397H13.6092V15.4297Z" fill="white"/>
<path d="M13.6092 14.5195H12.6992V15.4295H13.6092V14.5195Z" fill="white"/>
<path d="M13.6092 13.6191H12.6992V14.5291H13.6092V13.6191Z" fill="#454443"/>
<path d="M13.6092 12.7109H12.6992V13.6209H13.6092V12.7109Z" fill="white"/>
<path d="M13.6092 11.8008H12.6992V12.7108H13.6092V11.8008Z" fill="#E1E1E1"/>
<path d="M13.6092 10.8906H12.6992V11.8006H13.6092V10.8906Z" fill="#AEDEF8"/>
<path d="M13.6092 9.99023H12.6992V10.9002H13.6092V9.99023Z" fill="#AEDEF8"/>
<path d="M13.6092 9.08008H12.6992V9.99008H13.6092V9.08008Z" fill="#AEDEF8"/>
<path d="M13.6092 8.16992H12.6992V9.07992H13.6092V8.16992Z" fill="#AEDEF8"/>
<path d="M12.6991 17.25H11.7891V18.16H12.6991V17.25Z" fill="#00B4EC"/>
<path d="M12.6991 16.3398H11.7891V17.2498H12.6991V16.3398Z" fill="#0077BF"/>
<path d="M12.6991 15.4297H11.7891V16.3397H12.6991V15.4297Z" fill="#E1E1E1"/>
<path d="M12.6991 14.5195H11.7891V15.4295H12.6991V14.5195Z" fill="white"/>
<path d="M12.6991 13.6191H11.7891V14.5291H12.6991V13.6191Z" fill="white"/>
<path d="M12.6991 12.7109H11.7891V13.6209H12.6991V12.7109Z" fill="white"/>
<path d="M12.6991 11.8008H11.7891V12.7108H12.6991V11.8008Z" fill="white"/>
<path d="M12.6991 10.8906H11.7891V11.8006H12.6991V10.8906Z" fill="#AEDEF8"/>
<path d="M12.6991 9.99023H11.7891V10.9002H12.6991V9.99023Z" fill="white"/>
<path d="M12.6991 9.08008H11.7891V9.99008H12.6991V9.08008Z" fill="white"/>
<path d="M12.6991 8.16992H11.7891V9.07992H12.6991V8.16992Z" fill="#AEDEF8"/>
<path d="M12.6991 7.25977H11.7891V8.16977H12.6991V7.25977Z" fill="#AEDEF8"/>
<path d="M12.6991 6.35938H11.7891V7.26937H12.6991V6.35938Z" fill="#AEDEF8"/>
<path d="M12.6991 5.44922H11.7891V6.35922H12.6991V5.44922Z" fill="#AEDEF8"/>
<path d="M11.8006 16.3398H10.8906V17.2498H11.8006V16.3398Z" fill="#0077BF"/>
<path d="M11.8006 15.4297H10.8906V16.3397H11.8006V15.4297Z" fill="white"/>
<path d="M11.8006 14.5195H10.8906V15.4295H11.8006V14.5195Z" fill="white"/>
<path d="M11.8006 13.6191H10.8906V14.5291H11.8006V13.6191Z" fill="#454443"/>
<path d="M11.8006 12.7109H10.8906V13.6209H11.8006V12.7109Z" fill="white"/>
<path d="M11.8006 11.8008H10.8906V12.7108H11.8006V11.8008Z" fill="#E1E1E1"/>
<path d="M11.8006 10.8906H10.8906V11.8006H11.8006V10.8906Z" fill="#AEDEF8"/>
<path d="M11.8006 9.99023H10.8906V10.9002H11.8006V9.99023Z" fill="white"/>
<path d="M11.8006 9.08008H10.8906V9.99008H11.8006V9.08008Z" fill="white"/>
<path d="M11.8006 8.16992H10.8906V9.07992H11.8006V8.16992Z" fill="white"/>
<path d="M11.8006 7.25977H10.8906V8.16977H11.8006V7.25977Z" fill="white"/>
<path d="M11.8006 6.35938H10.8906V7.26937H11.8006V6.35938Z" fill="#AEDEF8"/>
<path d="M11.8006 5.44922H10.8906V6.35922H11.8006V5.44922Z" fill="#AEDEF8"/>
<path d="M11.8006 4.53906H10.8906V5.44906H11.8006V4.53906Z" fill="#AEDEF8"/>
<path d="M11.8006 3.63086H10.8906V4.54086H11.8006V3.63086Z" fill="#AEDEF8"/>
<path d="M10.8905 16.3398H9.98047V17.2498H10.8905V16.3398Z" fill="#0077BF"/>
<path d="M10.8905 15.4297H9.98047V16.3397H10.8905V15.4297Z" fill="#E1E1E1"/>
<path d="M10.8905 14.5195H9.98047V15.4295H10.8905V14.5195Z" fill="white"/>
<path d="M10.8905 13.6191H9.98047V14.5291H10.8905V13.6191Z" fill="white"/>
<path d="M10.8905 12.7109H9.98047V13.6209H10.8905V12.7109Z" fill="white"/>
<path d="M10.8905 11.8008H9.98047V12.7108H10.8905V11.8008Z" fill="white"/>
<path d="M10.8905 10.8906H9.98047V11.8006H10.8905V10.8906Z" fill="#AEDEF8"/>
<path d="M10.8905 9.99023H9.98047V10.9002H10.8905V9.99023Z" fill="white"/>
<path d="M10.8905 9.08008H9.98047V9.99008H10.8905V9.08008Z" fill="white"/>
<path d="M10.8905 8.16992H9.98047V9.07992H10.8905V8.16992Z" fill="white"/>
<path d="M10.8905 7.25977H9.98047V8.16977H10.8905V7.25977Z" fill="white"/>
<path d="M10.8905 6.35938H9.98047V7.26937H10.8905V6.35938Z" fill="white"/>
<path d="M10.8905 5.44922H9.98047V6.35922H10.8905V5.44922Z" fill="white"/>
<path d="M10.8905 4.53906H9.98047V5.44906H10.8905V4.53906Z" fill="#AEDEF8"/>
<path d="M10.8905 3.63086H9.98047V4.54086H10.8905V3.63086Z" fill="#AEDEF8"/>
<path d="M10.8905 2.7207H9.98047V3.6307H10.8905V2.7207Z" fill="#AEDEF8"/>
<path d="M10.8905 1.82031H9.98047V2.73031H10.8905V1.82031Z" fill="#AEDEF8"/>
<path d="M9.98031 16.3398H9.07031V17.2498H9.98031V16.3398Z" fill="#0077BF"/>
<path d="M9.98031 15.4297H9.07031V16.3397H9.98031V15.4297Z" fill="#AEDEF8"/>
<path d="M9.98031 14.5195H9.07031V15.4295H9.98031V14.5195Z" fill="white"/>
<path d="M9.98031 13.6191H9.07031V14.5291H9.98031V13.6191Z" fill="white"/>
<path d="M9.98031 12.7109H9.07031V13.6209H9.98031V12.7109Z" fill="white"/>
<path d="M9.98031 11.8008H9.07031V12.7108H9.98031V11.8008Z" fill="#E1E1E1"/>
<path d="M9.98031 10.8906H9.07031V11.8006H9.98031V10.8906Z" fill="#AEDEF8"/>
<path d="M9.98031 9.99023H9.07031V10.9002H9.98031V9.99023Z" fill="white"/>
<path d="M9.98031 9.08008H9.07031V9.99008H9.98031V9.08008Z" fill="white"/>
<path d="M9.98031 8.16992H9.07031V9.07992H9.98031V8.16992Z" fill="white"/>
<path d="M9.98031 7.25977H9.07031V8.16977H9.98031V7.25977Z" fill="white"/>
<path d="M9.98031 6.35938H9.07031V7.26937H9.98031V6.35938Z" fill="white"/>
<path d="M9.98031 5.44922H9.07031V6.35922H9.98031V5.44922Z" fill="white"/>
<path d="M9.98031 4.53906H9.07031V5.44906H9.98031V4.53906Z" fill="white"/>
<path d="M9.98031 3.63086H9.07031V4.54086H9.98031V3.63086Z" fill="#AEDEF8"/>
<path d="M9.98031 2.7207H9.07031V3.6307H9.98031V2.7207Z" fill="#AEDEF8"/>
<path d="M9.98031 1.82031H9.07031V2.73031H9.98031V1.82031Z" fill="#AEDEF8"/>
<path d="M9.98031 0.910156H9.07031V1.82016H9.98031V0.910156Z" fill="#AEDEF8"/>
<path d="M9.98031 0H9.07031V0.91H9.98031V0Z" fill="#AEDEF8"/>
<path d="M9.07016 16.3398H8.16016V17.2498H9.07016V16.3398Z" fill="#0077BF"/>
<path d="M9.07016 15.4297H8.16016V16.3397H9.07016V15.4297Z" fill="#AEDEF8"/>
<path d="M9.07016 14.5195H8.16016V15.4295H9.07016V14.5195Z" fill="white"/>
<path d="M9.07016 13.6191H8.16016V14.5291H9.07016V13.6191Z" fill="white"/>
<path d="M9.07016 12.7109H8.16016V13.6209H9.07016V12.7109Z" fill="white"/>
<path d="M9.07016 11.8008H8.16016V12.7108H9.07016V11.8008Z" fill="#AEDEF8"/>
<path d="M9.07016 10.8906H8.16016V11.8006H9.07016V10.8906Z" fill="#AEDEF8"/>
<path d="M9.07016 9.99023H8.16016V10.9002H9.07016V9.99023Z" fill="white"/>
<path d="M9.07016 9.08008H8.16016V9.99008H9.07016V9.08008Z" fill="#AEDEF8"/>
<path d="M9.07016 8.16992H8.16016V9.07992H9.07016V8.16992Z" fill="white"/>
<path d="M9.07016 7.25977H8.16016V8.16977H9.07016V7.25977Z" fill="#AEDEF8"/>
<path d="M9.07016 6.35938H8.16016V7.26937H9.07016V6.35938Z" fill="white"/>
<path d="M9.07016 5.44922H8.16016V6.35922H9.07016V5.44922Z" fill="#AEDEF8"/>
<path d="M9.07016 4.53906H8.16016V5.44906H9.07016V4.53906Z" fill="white"/>
<path d="M9.07016 3.63086H8.16016V4.54086H9.07016V3.63086Z" fill="#AEDEF8"/>
<path d="M9.07016 2.7207H8.16016V3.6307H9.07016V2.7207Z" fill="#AEDEF8"/>
<path d="M9.07016 1.82031H8.16016V2.73031H9.07016V1.82031Z" fill="#AEDEF8"/>
<path d="M9.07016 0.910156H8.16016V1.82016H9.07016V0.910156Z" fill="#AEDEF8"/>
<path d="M9.07016 0H8.16016V0.91H9.07016V0Z" fill="#AEDEF8"/>
<path d="M8.16977 16.3398H7.25977V17.2498H8.16977V16.3398Z" fill="#008FD6"/>
<path d="M8.16977 14.5195H7.25977V15.4295H8.16977V14.5195Z" fill="#AEDEF8"/>
<path d="M8.16977 13.6191H7.25977V14.5291H8.16977V13.6191Z" fill="#AEDEF8"/>
<path d="M8.16977 12.7109H7.25977V13.6209H8.16977V12.7109Z" fill="#AEDEF8"/>
<path d="M7.25961 16.3398H6.34961V17.2498H7.25961V16.3398Z" fill="#008FD6"/>
<path d="M6.34945 16.3398H5.43945V17.2498H6.34945V16.3398Z" fill="#008FD6"/>
<path d="M5.4393 16.3398H4.5293V17.2498H5.4393V16.3398Z" fill="#008FD6"/>
<path d="M4.54086 16.3398H3.63086V17.2498H4.54086V16.3398Z" fill="#0077BF"/>
<path d="M3.6307 16.3398H2.7207V17.2498H3.6307V16.3398Z" fill="#0077BF"/>
<path d="M2.72055 16.3398H1.81055V17.2498H2.72055V16.3398Z" fill="#008FD6"/>
<path d="M1.81039 16.3398H0.900391V17.2498H1.81039V16.3398Z" fill="#008FD6"/>
<path d="M0.91 16.3398H0V17.2498H0.91V16.3398Z" fill="#0077BF"/>
</svg>
