<svg width="109" height="50" viewBox="0 0 109 50" fill="none" xmlns="http://www.w3.org/2000/svg">
<path d="M96.3494 45.9492H93.9395V49.2292H96.3494V45.9492Z" fill="#000600"/>
<path d="M93.9393 45.9492H91.5293V49.2292H93.9393V45.9492Z" fill="#000600"/>
<path d="M96.3494 42.6699H93.9395V45.9499H96.3494V42.6699Z" fill="#000600"/>
<path d="M93.9393 42.6699H91.5293V45.9499H93.9393V42.6699Z" fill="white"/>
<path d="M91.5291 42.6699H89.1191V45.9499H91.5291V42.6699Z" fill="#000600"/>
<path d="M89.1209 42.6699H86.7109V45.9499H89.1209V42.6699Z" fill="#000600"/>
<path d="M96.3494 39.3906H93.9395V42.6706H96.3494V39.3906Z" fill="#000600"/>
<path d="M93.9393 39.3906H91.5293V42.6706H93.9393V39.3906Z" fill="white"/>
<path d="M91.5291 39.3906H89.1191V42.6706H91.5291V39.3906Z" fill="white"/>
<path d="M89.1209 39.3906H86.7109V42.6706H89.1209V39.3906Z" fill="white"/>
<path d="M86.7108 39.3906H84.3008V42.6706H86.7108V39.3906Z" fill="#000600"/>
<path d="M84.3104 39.3906H81.9004V42.6706H84.3104V39.3906Z" fill="#000600"/>
<path d="M81.9002 39.3906H79.4902V42.6706H81.9002V39.3906Z" fill="#000600"/>
<path d="M103.58 36.1094H101.17V39.3894H103.58V36.1094Z" fill="#000600"/>
<path d="M101.17 36.1094H98.7598V39.3894H101.17V36.1094Z" fill="#000600"/>
<path d="M98.7596 36.1094H96.3496V39.3894H98.7596V36.1094Z" fill="#000600"/>
<path d="M96.3494 36.1094H93.9395V39.3894H96.3494V36.1094Z" fill="#000600"/>
<path d="M93.9393 36.1094H91.5293V39.3894H93.9393V36.1094Z" fill="#FDB913"/>
<path d="M91.5291 36.1094H89.1191V39.3894H91.5291V36.1094Z" fill="#FDB913"/>
<path d="M89.1209 36.1094H86.7109V39.3894H89.1209V36.1094Z" fill="#FDB913"/>
<path d="M86.7108 36.1094H84.3008V39.3894H86.7108V36.1094Z" fill="white"/>
<path d="M84.3104 36.1094H81.9004V39.3894H84.3104V36.1094Z" fill="white"/>
<path d="M81.9002 36.1094H79.4902V39.3894H81.9002V36.1094Z" fill="white"/>
<path d="M79.4901 36.1094H77.0801V39.3894H79.4901V36.1094Z" fill="#000600"/>
<path d="M77.0799 36.1094H74.6699V39.3894H77.0799V36.1094Z" fill="#000600"/>
<path d="M74.6698 36.1094H72.2598V39.3894H74.6698V36.1094Z" fill="#000600"/>
<path d="M72.2596 36.1094H69.8496V39.3894H72.2596V36.1094Z" fill="#000600"/>
<path d="M69.8494 36.1094H67.4395V39.3894H69.8494V36.1094Z" fill="#000600"/>
<path d="M67.4393 36.1094H65.0293V39.3894H67.4393V36.1094Z" fill="#000600"/>
<path d="M65.0409 36.1094H62.6309V39.3894H65.0409V36.1094Z" fill="#000600"/>
<path d="M62.6307 36.1094H60.2207V39.3894H62.6307V36.1094Z" fill="#000600"/>
<path d="M60.2206 36.1094H57.8105V39.3894H60.2206V36.1094Z" fill="#000600"/>
<path d="M57.8104 36.1094H55.4004V39.3894H57.8104V36.1094Z" fill="#000600"/>
<path d="M55.4002 36.1094H52.9902V39.3894H55.4002V36.1094Z" fill="#000600"/>
<path d="M52.9901 36.1094H50.5801V39.3894H52.9901V36.1094Z" fill="#000600"/>
<path d="M50.5799 36.1094H48.1699V39.3894H50.5799V36.1094Z" fill="#000600"/>
<path d="M48.1698 36.1094H45.7598V39.3894H48.1698V36.1094Z" fill="#000600"/>
<path d="M45.7596 36.1094H43.3496V39.3894H45.7596V36.1094Z" fill="#000600"/>
<path d="M43.3592 36.1094H40.9492V39.3894H43.3592V36.1094Z" fill="#000600"/>
<path d="M40.9491 36.1094H38.5391V39.3894H40.9491V36.1094Z" fill="#000600"/>
<path d="M38.5409 36.1094H36.1309V39.3894H38.5409V36.1094Z" fill="#000600"/>
<path d="M36.1307 36.1094H33.7207V39.3894H36.1307V36.1094Z" fill="#000600"/>
<path d="M33.7205 36.1094H31.3105V39.3894H33.7205V36.1094Z" fill="#000600"/>
<path d="M31.3104 36.1094H28.9004V39.3894H31.3104V36.1094Z" fill="#000600"/>
<path d="M28.9002 36.1094H26.4902V39.3894H28.9002V36.1094Z" fill="#000600"/>
<path d="M26.4901 36.1094H24.0801V39.3894H26.4901V36.1094Z" fill="#000600"/>
<path d="M24.0897 36.1094H21.6797V39.3894H24.0897V36.1094Z" fill="#000600"/>
<path d="M21.6795 36.1094H19.2695V39.3894H21.6795V36.1094Z" fill="#000600"/>
<path d="M19.2694 36.1094H16.8594V39.3894H19.2694V36.1094Z" fill="#000600"/>
<path d="M16.8592 36.1094H14.4492V39.3894H16.8592V36.1094Z" fill="#000600"/>
<path d="M14.4491 36.1094H12.0391V39.3894H14.4491V36.1094Z" fill="#000600"/>
<path d="M12.0409 36.1094H9.63086V39.3894H12.0409V36.1094Z" fill="#000600"/>
<path d="M9.6307 36.1094H7.2207V39.3894H9.6307V36.1094Z" fill="#000600"/>
<path d="M7.22055 36.1094H4.81055V39.3894H7.22055V36.1094Z" fill="#000600"/>
<path d="M105.99 32.8203H103.58V36.1003H105.99V32.8203Z" fill="#000600"/>
<path d="M103.58 32.8203H101.17V36.1003H103.58V32.8203Z" fill="white"/>
<path d="M101.17 32.8203H98.7598V36.1003H101.17V32.8203Z" fill="white"/>
<path d="M98.7596 32.8203H96.3496V36.1003H98.7596V32.8203Z" fill="white"/>
<path d="M96.3494 32.8203H93.9395V36.1003H96.3494V32.8203Z" fill="white"/>
<path d="M93.9393 32.8203H91.5293V36.1003H93.9393V32.8203Z" fill="#FDB913"/>
<path d="M91.5291 32.8203H89.1191V36.1003H91.5291V32.8203Z" fill="#FDB913"/>
<path d="M89.1209 32.8203H86.7109V36.1003H89.1209V32.8203Z" fill="#FDB913"/>
<path d="M86.7108 32.8203H84.3008V36.1003H86.7108V32.8203Z" fill="#FDB913"/>
<path d="M84.3104 32.8203H81.9004V36.1003H84.3104V32.8203Z" fill="#FDB913"/>
<path d="M81.9002 32.8203H79.4902V36.1003H81.9002V32.8203Z" fill="#FDB913"/>
<path d="M79.4901 32.8203H77.0801V36.1003H79.4901V32.8203Z" fill="white"/>
<path d="M77.0799 32.8203H74.6699V36.1003H77.0799V32.8203Z" fill="white"/>
<path d="M74.6698 32.8203H72.2598V36.1003H74.6698V32.8203Z" fill="white"/>
<path d="M72.2596 32.8203H69.8496V36.1003H72.2596V32.8203Z" fill="white"/>
<path d="M69.8494 32.8203H67.4395V36.1003H69.8494V32.8203Z" fill="white"/>
<path d="M67.4393 32.8203H65.0293V36.1003H67.4393V32.8203Z" fill="white"/>
<path d="M65.0409 32.8203H62.6309V36.1003H65.0409V32.8203Z" fill="white"/>
<path d="M62.6307 32.8203H60.2207V36.1003H62.6307V32.8203Z" fill="white"/>
<path d="M60.2206 32.8203H57.8105V36.1003H60.2206V32.8203Z" fill="white"/>
<path d="M57.8104 32.8203H55.4004V36.1003H57.8104V32.8203Z" fill="white"/>
<path d="M55.4002 32.8203H52.9902V36.1003H55.4002V32.8203Z" fill="white"/>
<path d="M52.9901 32.8203H50.5801V36.1003H52.9901V32.8203Z" fill="white"/>
<path d="M50.5799 32.8203H48.1699V36.1003H50.5799V32.8203Z" fill="white"/>
<path d="M48.1698 32.8203H45.7598V36.1003H48.1698V32.8203Z" fill="white"/>
<path d="M45.7596 32.8203H43.3496V36.1003H45.7596V32.8203Z" fill="white"/>
<path d="M43.3592 32.8203H40.9492V36.1003H43.3592V32.8203Z" fill="white"/>
<path d="M40.9491 32.8203H38.5391V36.1003H40.9491V32.8203Z" fill="white"/>
<path d="M38.5409 32.8203H36.1309V36.1003H38.5409V32.8203Z" fill="white"/>
<path d="M36.1307 32.8203H33.7207V36.1003H36.1307V32.8203Z" fill="white"/>
<path d="M33.7205 32.8203H31.3105V36.1003H33.7205V32.8203Z" fill="white"/>
<path d="M31.3104 32.8203H28.9004V36.1003H31.3104V32.8203Z" fill="white"/>
<path d="M28.9002 32.8203H26.4902V36.1003H28.9002V32.8203Z" fill="white"/>
<path d="M26.4901 32.8203H24.0801V36.1003H26.4901V32.8203Z" fill="white"/>
<path d="M24.0897 32.8203H21.6797V36.1003H24.0897V32.8203Z" fill="white"/>
<path d="M21.6795 32.8203H19.2695V36.1003H21.6795V32.8203Z" fill="white"/>
<path d="M19.2694 32.8203H16.8594V36.1003H19.2694V32.8203Z" fill="white"/>
<path d="M16.8592 32.8203H14.4492V36.1003H16.8592V32.8203Z" fill="white"/>
<path d="M14.4491 32.8203H12.0391V36.1003H14.4491V32.8203Z" fill="white"/>
<path d="M12.0409 32.8203H9.63086V36.1003H12.0409V32.8203Z" fill="white"/>
<path d="M9.6307 32.8203H7.2207V36.1003H9.6307V32.8203Z" fill="white"/>
<path d="M7.22055 32.8203H4.81055V36.1003H7.22055V32.8203Z" fill="white"/>
<path d="M4.81039 32.8203H2.40039V36.1003H4.81039V32.8203Z" fill="#000600"/>
<path d="M108.39 29.5391H105.98V32.8191H108.39V29.5391Z" fill="#000600"/>
<path d="M105.99 29.5391H103.58V32.8191H105.99V29.5391Z" fill="white"/>
<path d="M103.58 29.5391H101.17V32.8191H103.58V29.5391Z" fill="#FDB913"/>
<path d="M101.17 29.5391H98.7598V32.8191H101.17V29.5391Z" fill="#FDB913"/>
<path d="M98.7596 29.5391H96.3496V32.8191H98.7596V29.5391Z" fill="#FDB913"/>
<path d="M96.3494 29.5391H93.9395V32.8191H96.3494V29.5391Z" fill="#FDB913"/>
<path d="M93.9393 29.5391H91.5293V32.8191H93.9393V29.5391Z" fill="#FDB913"/>
<path d="M91.5291 29.5391H89.1191V32.8191H91.5291V29.5391Z" fill="#FDB913"/>
<path d="M89.1209 29.5391H86.7109V32.8191H89.1209V29.5391Z" fill="#FDB913"/>
<path d="M86.7108 29.5391H84.3008V32.8191H86.7108V29.5391Z" fill="#FDB913"/>
<path d="M84.3104 29.5391H81.9004V32.8191H84.3104V29.5391Z" fill="#FDB913"/>
<path d="M81.9002 29.5391H79.4902V32.8191H81.9002V29.5391Z" fill="#FDB913"/>
<path d="M79.4901 29.5391H77.0801V32.8191H79.4901V29.5391Z" fill="#FDB913"/>
<path d="M77.0799 29.5391H74.6699V32.8191H77.0799V29.5391Z" fill="#FDB913"/>
<path d="M74.6698 29.5391H72.2598V32.8191H74.6698V29.5391Z" fill="#FDB913"/>
<path d="M72.2596 29.5391H69.8496V32.8191H72.2596V29.5391Z" fill="#FDB913"/>
<path d="M69.8494 29.5391H67.4395V32.8191H69.8494V29.5391Z" fill="#FDB913"/>
<path d="M67.4393 29.5391H65.0293V32.8191H67.4393V29.5391Z" fill="#FDB913"/>
<path d="M65.0409 29.5391H62.6309V32.8191H65.0409V29.5391Z" fill="#FDB913"/>
<path d="M62.6307 29.5391H60.2207V32.8191H62.6307V29.5391Z" fill="#FDB913"/>
<path d="M60.2206 29.5391H57.8105V32.8191H60.2206V29.5391Z" fill="#FDB913"/>
<path d="M57.8104 29.5391H55.4004V32.8191H57.8104V29.5391Z" fill="#FDB913"/>
<path d="M55.4002 29.5391H52.9902V32.8191H55.4002V29.5391Z" fill="#FDB913"/>
<path d="M52.9901 29.5391H50.5801V32.8191H52.9901V29.5391Z" fill="#FDB913"/>
<path d="M50.5799 29.5391H48.1699V32.8191H50.5799V29.5391Z" fill="#FDB913"/>
<path d="M48.1698 29.5391H45.7598V32.8191H48.1698V29.5391Z" fill="#FDB913"/>
<path d="M45.7596 29.5391H43.3496V32.8191H45.7596V29.5391Z" fill="#FDB913"/>
<path d="M43.3592 29.5391H40.9492V32.8191H43.3592V29.5391Z" fill="#FDB913"/>
<path d="M40.9491 29.5391H38.5391V32.8191H40.9491V29.5391Z" fill="#FDB913"/>
<path d="M38.5409 29.5391H36.1309V32.8191H38.5409V29.5391Z" fill="#FDB913"/>
<path d="M36.1307 29.5391H33.7207V32.8191H36.1307V29.5391Z" fill="#FDB913"/>
<path d="M33.7205 29.5391H31.3105V32.8191H33.7205V29.5391Z" fill="#FDB913"/>
<path d="M31.3104 29.5391H28.9004V32.8191H31.3104V29.5391Z" fill="#FDB913"/>
<path d="M28.9002 29.5391H26.4902V32.8191H28.9002V29.5391Z" fill="#FDB913"/>
<path d="M26.4901 29.5391H24.0801V32.8191H26.4901V29.5391Z" fill="#FDB913"/>
<path d="M24.0897 29.5391H21.6797V32.8191H24.0897V29.5391Z" fill="#FDB913"/>
<path d="M21.6795 29.5391H19.2695V32.8191H21.6795V29.5391Z" fill="#FDB913"/>
<path d="M19.2694 29.5391H16.8594V32.8191H19.2694V29.5391Z" fill="#FDB913"/>
<path d="M16.8592 29.5391H14.4492V32.8191H16.8592V29.5391Z" fill="#FDB913"/>
<path d="M14.4491 29.5391H12.0391V32.8191H14.4491V29.5391Z" fill="#FDB913"/>
<path d="M12.0409 29.5391H9.63086V32.8191H12.0409V29.5391Z" fill="#FDB913"/>
<path d="M9.6307 29.5391H7.2207V32.8191H9.6307V29.5391Z" fill="#FDB913"/>
<path d="M7.22055 29.5391H4.81055V32.8191H7.22055V29.5391Z" fill="#FDB913"/>
<path d="M4.81039 29.5391H2.40039V32.8191H4.81039V29.5391Z" fill="white"/>
<path d="M2.41 29.5391H0V32.8191H2.41V29.5391Z" fill="#000600"/>
<path d="M108.39 26.2598H105.98V29.5398H108.39V26.2598Z" fill="#000600"/>
<path d="M105.99 26.2598H103.58V29.5398H105.99V26.2598Z" fill="white"/>
<path d="M103.58 26.2598H101.17V29.5398H103.58V26.2598Z" fill="#FDB913"/>
<path d="M101.17 26.2598H98.7598V29.5398H101.17V26.2598Z" fill="#FDB913"/>
<path d="M98.7596 26.2598H96.3496V29.5398H98.7596V26.2598Z" fill="#FDB913"/>
<path d="M96.3494 26.2598H93.9395V29.5398H96.3494V26.2598Z" fill="#FDB913"/>
<path d="M93.9393 26.2598H91.5293V29.5398H93.9393V26.2598Z" fill="#FDB913"/>
<path d="M91.5291 26.2598H89.1191V29.5398H91.5291V26.2598Z" fill="#FDB913"/>
<path d="M89.1209 26.2598H86.7109V29.5398H89.1209V26.2598Z" fill="#FDB913"/>
<path d="M86.7108 26.2598H84.3008V29.5398H86.7108V26.2598Z" fill="#FDB913"/>
<path d="M84.3104 26.2598H81.9004V29.5398H84.3104V26.2598Z" fill="#FDB913"/>
<path d="M81.9002 26.2598H79.4902V29.5398H81.9002V26.2598Z" fill="#FDB913"/>
<path d="M79.4901 26.2598H77.0801V29.5398H79.4901V26.2598Z" fill="#FDB913"/>
<path d="M77.0799 26.2598H74.6699V29.5398H77.0799V26.2598Z" fill="#FDB913"/>
<path d="M74.6698 26.2598H72.2598V29.5398H74.6698V26.2598Z" fill="#FDB913"/>
<path d="M72.2596 26.2598H69.8496V29.5398H72.2596V26.2598Z" fill="#FDB913"/>
<path d="M69.8494 26.2598H67.4395V29.5398H69.8494V26.2598Z" fill="#FDB913"/>
<path d="M67.4393 26.2598H65.0293V29.5398H67.4393V26.2598Z" fill="#FDB913"/>
<path d="M65.0409 26.2598H62.6309V29.5398H65.0409V26.2598Z" fill="#FDB913"/>
<path d="M62.6307 26.2598H60.2207V29.5398H62.6307V26.2598Z" fill="#FDB913"/>
<path d="M60.2206 26.2598H57.8105V29.5398H60.2206V26.2598Z" fill="#FDB913"/>
<path d="M57.8104 26.2598H55.4004V29.5398H57.8104V26.2598Z" fill="#FDB913"/>
<path d="M55.4002 26.2598H52.9902V29.5398H55.4002V26.2598Z" fill="#FDB913"/>
<path d="M52.9901 26.2598H50.5801V29.5398H52.9901V26.2598Z" fill="#FDB913"/>
<path d="M50.5799 26.2598H48.1699V29.5398H50.5799V26.2598Z" fill="#FDB913"/>
<path d="M48.1698 26.2598H45.7598V29.5398H48.1698V26.2598Z" fill="#FDB913"/>
<path d="M45.7596 26.2598H43.3496V29.5398H45.7596V26.2598Z" fill="#FDB913"/>
<path d="M43.3592 26.2598H40.9492V29.5398H43.3592V26.2598Z" fill="#FDB913"/>
<path d="M40.9491 26.2598H38.5391V29.5398H40.9491V26.2598Z" fill="#FDB913"/>
<path d="M38.5409 26.2598H36.1309V29.5398H38.5409V26.2598Z" fill="#FDB913"/>
<path d="M36.1307 26.2598H33.7207V29.5398H36.1307V26.2598Z" fill="#FDB913"/>
<path d="M33.7205 26.2598H31.3105V29.5398H33.7205V26.2598Z" fill="#FDB913"/>
<path d="M31.3104 26.2598H28.9004V29.5398H31.3104V26.2598Z" fill="#FDB913"/>
<path d="M28.9002 26.2598H26.4902V29.5398H28.9002V26.2598Z" fill="#FDB913"/>
<path d="M26.4901 26.2598H24.0801V29.5398H26.4901V26.2598Z" fill="#FDB913"/>
<path d="M24.0897 26.2598H21.6797V29.5398H24.0897V26.2598Z" fill="#FDB913"/>
<path d="M21.6795 26.2598H19.2695V29.5398H21.6795V26.2598Z" fill="#FDB913"/>
<path d="M19.2694 26.2598H16.8594V29.5398H19.2694V26.2598Z" fill="#FDB913"/>
<path d="M16.8592 26.2598H14.4492V29.5398H16.8592V26.2598Z" fill="#FDB913"/>
<path d="M14.4491 26.2598H12.0391V29.5398H14.4491V26.2598Z" fill="#FDB913"/>
<path d="M12.0409 26.2598H9.63086V29.5398H12.0409V26.2598Z" fill="#FDB913"/>
<path d="M9.6307 26.2598H7.2207V29.5398H9.6307V26.2598Z" fill="#FDB913"/>
<path d="M7.22055 26.2598H4.81055V29.5398H7.22055V26.2598Z" fill="#FDB913"/>
<path d="M4.81039 26.2598H2.40039V29.5398H4.81039V26.2598Z" fill="white"/>
<path d="M2.41 26.2598H0V29.5398H2.41V26.2598Z" fill="#000600"/>
<path d="M108.39 22.9707H105.98V26.2507H108.39V22.9707Z" fill="#000600"/>
<path d="M105.99 22.9707H103.58V26.2507H105.99V22.9707Z" fill="white"/>
<path d="M103.58 22.9707H101.17V26.2507H103.58V22.9707Z" fill="#FDB913"/>
<path d="M101.17 22.9707H98.7598V26.2507H101.17V22.9707Z" fill="#FDB913"/>
<path d="M98.7596 22.9707H96.3496V26.2507H98.7596V22.9707Z" fill="#FDB913"/>
<path d="M96.3494 22.9707H93.9395V26.2507H96.3494V22.9707Z" fill="#FDB913"/>
<path d="M93.9393 22.9707H91.5293V26.2507H93.9393V22.9707Z" fill="#FDB913"/>
<path d="M91.5291 22.9707H89.1191V26.2507H91.5291V22.9707Z" fill="#FDB913"/>
<path d="M89.1209 22.9707H86.7109V26.2507H89.1209V22.9707Z" fill="#FDB913"/>
<path d="M86.7108 22.9707H84.3008V26.2507H86.7108V22.9707Z" fill="#FDB913"/>
<path d="M84.3104 22.9707H81.9004V26.2507H84.3104V22.9707Z" fill="#FDB913"/>
<path d="M81.9002 22.9707H79.4902V26.2507H81.9002V22.9707Z" fill="#FDB913"/>
<path d="M79.4901 22.9707H77.0801V26.2507H79.4901V22.9707Z" fill="#FDB913"/>
<path d="M77.0799 22.9707H74.6699V26.2507H77.0799V22.9707Z" fill="#FDB913"/>
<path d="M74.6698 22.9707H72.2598V26.2507H74.6698V22.9707Z" fill="#FDB913"/>
<path d="M72.2596 22.9707H69.8496V26.2507H72.2596V22.9707Z" fill="#FDB913"/>
<path d="M69.8494 22.9707H67.4395V26.2507H69.8494V22.9707Z" fill="#FDB913"/>
<path d="M67.4393 22.9707H65.0293V26.2507H67.4393V22.9707Z" fill="#FDB913"/>
<path d="M65.0409 22.9707H62.6309V26.2507H65.0409V22.9707Z" fill="#FDB913"/>
<path d="M62.6307 22.9707H60.2207V26.2507H62.6307V22.9707Z" fill="#FDB913"/>
<path d="M60.2206 22.9707H57.8105V26.2507H60.2206V22.9707Z" fill="#FDB913"/>
<path d="M57.8104 22.9707H55.4004V26.2507H57.8104V22.9707Z" fill="#FDB913"/>
<path d="M55.4002 22.9707H52.9902V26.2507H55.4002V22.9707Z" fill="#FDB913"/>
<path d="M52.9901 22.9707H50.5801V26.2507H52.9901V22.9707Z" fill="#FDB913"/>
<path d="M50.5799 22.9707H48.1699V26.2507H50.5799V22.9707Z" fill="#FDB913"/>
<path d="M48.1698 22.9707H45.7598V26.2507H48.1698V22.9707Z" fill="#FDB913"/>
<path d="M45.7596 22.9707H43.3496V26.2507H45.7596V22.9707Z" fill="#FDB913"/>
<path d="M43.3592 22.9707H40.9492V26.2507H43.3592V22.9707Z" fill="#FDB913"/>
<path d="M40.9491 22.9707H38.5391V26.2507H40.9491V22.9707Z" fill="#FDB913"/>
<path d="M38.5409 22.9707H36.1309V26.2507H38.5409V22.9707Z" fill="#FDB913"/>
<path d="M36.1307 22.9707H33.7207V26.2507H36.1307V22.9707Z" fill="#FDB913"/>
<path d="M33.7205 22.9707H31.3105V26.2507H33.7205V22.9707Z" fill="#FDB913"/>
<path d="M31.3104 22.9707H28.9004V26.2507H31.3104V22.9707Z" fill="#FDB913"/>
<path d="M28.9002 22.9707H26.4902V26.2507H28.9002V22.9707Z" fill="#FDB913"/>
<path d="M26.4901 22.9707H24.0801V26.2507H26.4901V22.9707Z" fill="#FDB913"/>
<path d="M24.0897 22.9707H21.6797V26.2507H24.0897V22.9707Z" fill="#FDB913"/>
<path d="M21.6795 22.9707H19.2695V26.2507H21.6795V22.9707Z" fill="#FDB913"/>
<path d="M19.2694 22.9707H16.8594V26.2507H19.2694V22.9707Z" fill="#FDB913"/>
<path d="M16.8592 22.9707H14.4492V26.2507H16.8592V22.9707Z" fill="#FDB913"/>
<path d="M14.4491 22.9707H12.0391V26.2507H14.4491V22.9707Z" fill="#FDB913"/>
<path d="M12.0409 22.9707H9.63086V26.2507H12.0409V22.9707Z" fill="#FDB913"/>
<path d="M9.6307 22.9707H7.2207V26.2507H9.6307V22.9707Z" fill="#FDB913"/>
<path d="M7.22055 22.9707H4.81055V26.2507H7.22055V22.9707Z" fill="#FDB913"/>
<path d="M4.81039 22.9707H2.40039V26.2507H4.81039V22.9707Z" fill="white"/>
<path d="M2.41 22.9707H0V26.2507H2.41V22.9707Z" fill="#000600"/>
<path d="M108.39 19.6895H105.98V22.9695H108.39V19.6895Z" fill="#000600"/>
<path d="M105.99 19.6895H103.58V22.9695H105.99V19.6895Z" fill="white"/>
<path d="M103.58 19.6895H101.17V22.9695H103.58V19.6895Z" fill="#FDB913"/>
<path d="M101.17 19.6895H98.7598V22.9695H101.17V19.6895Z" fill="#FDB913"/>
<path d="M98.7596 19.6895H96.3496V22.9695H98.7596V19.6895Z" fill="#FDB913"/>
<path d="M96.3494 19.6895H93.9395V22.9695H96.3494V19.6895Z" fill="#FDB913"/>
<path d="M93.9393 19.6895H91.5293V22.9695H93.9393V19.6895Z" fill="#FDB913"/>
<path d="M91.5291 19.6895H89.1191V22.9695H91.5291V19.6895Z" fill="#FDB913"/>
<path d="M89.1209 19.6895H86.7109V22.9695H89.1209V19.6895Z" fill="#FDB913"/>
<path d="M86.7108 19.6895H84.3008V22.9695H86.7108V19.6895Z" fill="#FDB913"/>
<path d="M84.3104 19.6895H81.9004V22.9695H84.3104V19.6895Z" fill="#FDB913"/>
<path d="M81.9002 19.6895H79.4902V22.9695H81.9002V19.6895Z" fill="#FDB913"/>
<path d="M79.4901 19.6895H77.0801V22.9695H79.4901V19.6895Z" fill="#FDB913"/>
<path d="M77.0799 19.6895H74.6699V22.9695H77.0799V19.6895Z" fill="#FDB913"/>
<path d="M74.6698 19.6895H72.2598V22.9695H74.6698V19.6895Z" fill="#FDB913"/>
<path d="M72.2596 19.6895H69.8496V22.9695H72.2596V19.6895Z" fill="#FDB913"/>
<path d="M69.8494 19.6895H67.4395V22.9695H69.8494V19.6895Z" fill="#FDB913"/>
<path d="M67.4393 19.6895H65.0293V22.9695H67.4393V19.6895Z" fill="#FDB913"/>
<path d="M65.0409 19.6895H62.6309V22.9695H65.0409V19.6895Z" fill="#FDB913"/>
<path d="M62.6307 19.6895H60.2207V22.9695H62.6307V19.6895Z" fill="#FDB913"/>
<path d="M60.2206 19.6895H57.8105V22.9695H60.2206V19.6895Z" fill="#FDB913"/>
<path d="M57.8104 19.6895H55.4004V22.9695H57.8104V19.6895Z" fill="#FDB913"/>
<path d="M55.4002 19.6895H52.9902V22.9695H55.4002V19.6895Z" fill="#FDB913"/>
<path d="M52.9901 19.6895H50.5801V22.9695H52.9901V19.6895Z" fill="#FDB913"/>
<path d="M50.5799 19.6895H48.1699V22.9695H50.5799V19.6895Z" fill="#FDB913"/>
<path d="M48.1698 19.6895H45.7598V22.9695H48.1698V19.6895Z" fill="#FDB913"/>
<path d="M45.7596 19.6895H43.3496V22.9695H45.7596V19.6895Z" fill="#FDB913"/>
<path d="M43.3592 19.6895H40.9492V22.9695H43.3592V19.6895Z" fill="#FDB913"/>
<path d="M40.9491 19.6895H38.5391V22.9695H40.9491V19.6895Z" fill="#FDB913"/>
<path d="M38.5409 19.6895H36.1309V22.9695H38.5409V19.6895Z" fill="#FDB913"/>
<path d="M36.1307 19.6895H33.7207V22.9695H36.1307V19.6895Z" fill="#FDB913"/>
<path d="M33.7205 19.6895H31.3105V22.9695H33.7205V19.6895Z" fill="#FDB913"/>
<path d="M31.3104 19.6895H28.9004V22.9695H31.3104V19.6895Z" fill="#FDB913"/>
<path d="M28.9002 19.6895H26.4902V22.9695H28.9002V19.6895Z" fill="#FDB913"/>
<path d="M26.4901 19.6895H24.0801V22.9695H26.4901V19.6895Z" fill="#FDB913"/>
<path d="M24.0897 19.6895H21.6797V22.9695H24.0897V19.6895Z" fill="#FDB913"/>
<path d="M21.6795 19.6895H19.2695V22.9695H21.6795V19.6895Z" fill="#FDB913"/>
<path d="M19.2694 19.6895H16.8594V22.9695H19.2694V19.6895Z" fill="#FDB913"/>
<path d="M16.8592 19.6895H14.4492V22.9695H16.8592V19.6895Z" fill="#FDB913"/>
<path d="M14.4491 19.6895H12.0391V22.9695H14.4491V19.6895Z" fill="#FDB913"/>
<path d="M12.0409 19.6895H9.63086V22.9695H12.0409V19.6895Z" fill="#FDB913"/>
<path d="M9.6307 19.6895H7.2207V22.9695H9.6307V19.6895Z" fill="#FDB913"/>
<path d="M7.22055 19.6895H4.81055V22.9695H7.22055V19.6895Z" fill="#FDB913"/>
<path d="M4.81039 19.6895H2.40039V22.9695H4.81039V19.6895Z" fill="white"/>
<path d="M2.41 19.6895H0V22.9695H2.41V19.6895Z" fill="#000600"/>
<path d="M108.39 16.4102H105.98V19.6902H108.39V16.4102Z" fill="#000600"/>
<path d="M105.99 16.4102H103.58V19.6902H105.99V16.4102Z" fill="white"/>
<path d="M103.58 16.4102H101.17V19.6902H103.58V16.4102Z" fill="#FDB913"/>
<path d="M101.17 16.4102H98.7598V19.6902H101.17V16.4102Z" fill="#FDB913"/>
<path d="M98.7596 16.4102H96.3496V19.6902H98.7596V16.4102Z" fill="#FDB913"/>
<path d="M96.3494 16.4102H93.9395V19.6902H96.3494V16.4102Z" fill="#FDB913"/>
<path d="M93.9393 16.4102H91.5293V19.6902H93.9393V16.4102Z" fill="#FDB913"/>
<path d="M91.5291 16.4102H89.1191V19.6902H91.5291V16.4102Z" fill="#FDB913"/>
<path d="M89.1209 16.4102H86.7109V19.6902H89.1209V16.4102Z" fill="#FDB913"/>
<path d="M86.7108 16.4102H84.3008V19.6902H86.7108V16.4102Z" fill="#FDB913"/>
<path d="M84.3104 16.4102H81.9004V19.6902H84.3104V16.4102Z" fill="#FDB913"/>
<path d="M81.9002 16.4102H79.4902V19.6902H81.9002V16.4102Z" fill="#FDB913"/>
<path d="M79.4901 16.4102H77.0801V19.6902H79.4901V16.4102Z" fill="#FDB913"/>
<path d="M77.0799 16.4102H74.6699V19.6902H77.0799V16.4102Z" fill="#FDB913"/>
<path d="M74.6698 16.4102H72.2598V19.6902H74.6698V16.4102Z" fill="#FDB913"/>
<path d="M72.2596 16.4102H69.8496V19.6902H72.2596V16.4102Z" fill="#FDB913"/>
<path d="M69.8494 16.4102H67.4395V19.6902H69.8494V16.4102Z" fill="#FDB913"/>
<path d="M67.4393 16.4102H65.0293V19.6902H67.4393V16.4102Z" fill="#FDB913"/>
<path d="M65.0409 16.4102H62.6309V19.6902H65.0409V16.4102Z" fill="#FDB913"/>
<path d="M62.6307 16.4102H60.2207V19.6902H62.6307V16.4102Z" fill="#FDB913"/>
<path d="M60.2206 16.4102H57.8105V19.6902H60.2206V16.4102Z" fill="#FDB913"/>
<path d="M57.8104 16.4102H55.4004V19.6902H57.8104V16.4102Z" fill="#FDB913"/>
<path d="M55.4002 16.4102H52.9902V19.6902H55.4002V16.4102Z" fill="#FDB913"/>
<path d="M52.9901 16.4102H50.5801V19.6902H52.9901V16.4102Z" fill="#FDB913"/>
<path d="M50.5799 16.4102H48.1699V19.6902H50.5799V16.4102Z" fill="#FDB913"/>
<path d="M48.1698 16.4102H45.7598V19.6902H48.1698V16.4102Z" fill="#FDB913"/>
<path d="M45.7596 16.4102H43.3496V19.6902H45.7596V16.4102Z" fill="#FDB913"/>
<path d="M43.3592 16.4102H40.9492V19.6902H43.3592V16.4102Z" fill="#FDB913"/>
<path d="M40.9491 16.4102H38.5391V19.6902H40.9491V16.4102Z" fill="#FDB913"/>
<path d="M38.5409 16.4102H36.1309V19.6902H38.5409V16.4102Z" fill="#FDB913"/>
<path d="M36.1307 16.4102H33.7207V19.6902H36.1307V16.4102Z" fill="#FDB913"/>
<path d="M33.7205 16.4102H31.3105V19.6902H33.7205V16.4102Z" fill="#FDB913"/>
<path d="M31.3104 16.4102H28.9004V19.6902H31.3104V16.4102Z" fill="#FDB913"/>
<path d="M28.9002 16.4102H26.4902V19.6902H28.9002V16.4102Z" fill="#FDB913"/>
<path d="M26.4901 16.4102H24.0801V19.6902H26.4901V16.4102Z" fill="#FDB913"/>
<path d="M24.0897 16.4102H21.6797V19.6902H24.0897V16.4102Z" fill="#FDB913"/>
<path d="M21.6795 16.4102H19.2695V19.6902H21.6795V16.4102Z" fill="#FDB913"/>
<path d="M19.2694 16.4102H16.8594V19.6902H19.2694V16.4102Z" fill="#FDB913"/>
<path d="M16.8592 16.4102H14.4492V19.6902H16.8592V16.4102Z" fill="#FDB913"/>
<path d="M14.4491 16.4102H12.0391V19.6902H14.4491V16.4102Z" fill="#FDB913"/>
<path d="M12.0409 16.4102H9.63086V19.6902H12.0409V16.4102Z" fill="#FDB913"/>
<path d="M9.6307 16.4102H7.2207V19.6902H9.6307V16.4102Z" fill="#FDB913"/>
<path d="M7.22055 16.4102H4.81055V19.6902H7.22055V16.4102Z" fill="#FDB913"/>
<path d="M4.81039 16.4102H2.40039V19.6902H4.81039V16.4102Z" fill="white"/>
<path d="M2.41 16.4102H0V19.6902H2.41V16.4102Z" fill="#000600"/>
<path d="M108.39 13.1309H105.98V16.4109H108.39V13.1309Z" fill="#000600"/>
<path d="M105.99 13.1309H103.58V16.4109H105.99V13.1309Z" fill="white"/>
<path d="M103.58 13.1309H101.17V16.4109H103.58V13.1309Z" fill="#FDB913"/>
<path d="M101.17 13.1309H98.7598V16.4109H101.17V13.1309Z" fill="#FDB913"/>
<path d="M98.7596 13.1309H96.3496V16.4109H98.7596V13.1309Z" fill="#FDB913"/>
<path d="M96.3494 13.1309H93.9395V16.4109H96.3494V13.1309Z" fill="#FDB913"/>
<path d="M93.9393 13.1309H91.5293V16.4109H93.9393V13.1309Z" fill="#FDB913"/>
<path d="M91.5291 13.1309H89.1191V16.4109H91.5291V13.1309Z" fill="#FDB913"/>
<path d="M89.1209 13.1309H86.7109V16.4109H89.1209V13.1309Z" fill="#FDB913"/>
<path d="M86.7108 13.1309H84.3008V16.4109H86.7108V13.1309Z" fill="#FDB913"/>
<path d="M84.3104 13.1309H81.9004V16.4109H84.3104V13.1309Z" fill="#FDB913"/>
<path d="M81.9002 13.1309H79.4902V16.4109H81.9002V13.1309Z" fill="#FDB913"/>
<path d="M79.4901 13.1309H77.0801V16.4109H79.4901V13.1309Z" fill="#FDB913"/>
<path d="M77.0799 13.1309H74.6699V16.4109H77.0799V13.1309Z" fill="#FDB913"/>
<path d="M74.6698 13.1309H72.2598V16.4109H74.6698V13.1309Z" fill="#FDB913"/>
<path d="M72.2596 13.1309H69.8496V16.4109H72.2596V13.1309Z" fill="#FDB913"/>
<path d="M69.8494 13.1309H67.4395V16.4109H69.8494V13.1309Z" fill="#FDB913"/>
<path d="M67.4393 13.1309H65.0293V16.4109H67.4393V13.1309Z" fill="#FDB913"/>
<path d="M65.0409 13.1309H62.6309V16.4109H65.0409V13.1309Z" fill="#FDB913"/>
<path d="M62.6307 13.1309H60.2207V16.4109H62.6307V13.1309Z" fill="#FDB913"/>
<path d="M60.2206 13.1309H57.8105V16.4109H60.2206V13.1309Z" fill="#FDB913"/>
<path d="M57.8104 13.1309H55.4004V16.4109H57.8104V13.1309Z" fill="#FDB913"/>
<path d="M55.4002 13.1309H52.9902V16.4109H55.4002V13.1309Z" fill="#FDB913"/>
<path d="M52.9901 13.1309H50.5801V16.4109H52.9901V13.1309Z" fill="#FDB913"/>
<path d="M50.5799 13.1309H48.1699V16.4109H50.5799V13.1309Z" fill="#FDB913"/>
<path d="M48.1698 13.1309H45.7598V16.4109H48.1698V13.1309Z" fill="#FDB913"/>
<path d="M45.7596 13.1309H43.3496V16.4109H45.7596V13.1309Z" fill="#FDB913"/>
<path d="M43.3592 13.1309H40.9492V16.4109H43.3592V13.1309Z" fill="#FDB913"/>
<path d="M40.9491 13.1309H38.5391V16.4109H40.9491V13.1309Z" fill="#FDB913"/>
<path d="M38.5409 13.1309H36.1309V16.4109H38.5409V13.1309Z" fill="#FDB913"/>
<path d="M36.1307 13.1309H33.7207V16.4109H36.1307V13.1309Z" fill="#FDB913"/>
<path d="M33.7205 13.1309H31.3105V16.4109H33.7205V13.1309Z" fill="#FDB913"/>
<path d="M31.3104 13.1309H28.9004V16.4109H31.3104V13.1309Z" fill="#FDB913"/>
<path d="M28.9002 13.1309H26.4902V16.4109H28.9002V13.1309Z" fill="#FDB913"/>
<path d="M26.4901 13.1309H24.0801V16.4109H26.4901V13.1309Z" fill="#FDB913"/>
<path d="M24.0897 13.1309H21.6797V16.4109H24.0897V13.1309Z" fill="#FDB913"/>
<path d="M21.6795 13.1309H19.2695V16.4109H21.6795V13.1309Z" fill="#FDB913"/>
<path d="M19.2694 13.1309H16.8594V16.4109H19.2694V13.1309Z" fill="#FDB913"/>
<path d="M16.8592 13.1309H14.4492V16.4109H16.8592V13.1309Z" fill="#FDB913"/>
<path d="M14.4491 13.1309H12.0391V16.4109H14.4491V13.1309Z" fill="#FDB913"/>
<path d="M12.0409 13.1309H9.63086V16.4109H12.0409V13.1309Z" fill="#FDB913"/>
<path d="M9.6307 13.1309H7.2207V16.4109H9.6307V13.1309Z" fill="#FDB913"/>
<path d="M7.22055 13.1309H4.81055V16.4109H7.22055V13.1309Z" fill="#FDB913"/>
<path d="M4.81039 13.1309H2.40039V16.4109H4.81039V13.1309Z" fill="white"/>
<path d="M2.41 13.1309H0V16.4109H2.41V13.1309Z" fill="#000600"/>
<path d="M108.39 9.83984H105.98V13.1198H108.39V9.83984Z" fill="#000600"/>
<path d="M105.99 9.83984H103.58V13.1198H105.99V9.83984Z" fill="white"/>
<path d="M103.58 9.83984H101.17V13.1198H103.58V9.83984Z" fill="#FDB913"/>
<path d="M101.17 9.83984H98.7598V13.1198H101.17V9.83984Z" fill="#FDB913"/>
<path d="M98.7596 9.83984H96.3496V13.1198H98.7596V9.83984Z" fill="#FDB913"/>
<path d="M96.3494 9.83984H93.9395V13.1198H96.3494V9.83984Z" fill="#FDB913"/>
<path d="M93.9393 9.83984H91.5293V13.1198H93.9393V9.83984Z" fill="#FDB913"/>
<path d="M91.5291 9.83984H89.1191V13.1198H91.5291V9.83984Z" fill="#FDB913"/>
<path d="M89.1209 9.83984H86.7109V13.1198H89.1209V9.83984Z" fill="#FDB913"/>
<path d="M86.7108 9.83984H84.3008V13.1198H86.7108V9.83984Z" fill="#FDB913"/>
<path d="M84.3104 9.83984H81.9004V13.1198H84.3104V9.83984Z" fill="#FDB913"/>
<path d="M81.9002 9.83984H79.4902V13.1198H81.9002V9.83984Z" fill="#FDB913"/>
<path d="M79.4901 9.83984H77.0801V13.1198H79.4901V9.83984Z" fill="#FDB913"/>
<path d="M77.0799 9.83984H74.6699V13.1198H77.0799V9.83984Z" fill="#FDB913"/>
<path d="M74.6698 9.83984H72.2598V13.1198H74.6698V9.83984Z" fill="#FDB913"/>
<path d="M72.2596 9.83984H69.8496V13.1198H72.2596V9.83984Z" fill="#FDB913"/>
<path d="M69.8494 9.83984H67.4395V13.1198H69.8494V9.83984Z" fill="#FDB913"/>
<path d="M67.4393 9.83984H65.0293V13.1198H67.4393V9.83984Z" fill="#FDB913"/>
<path d="M65.0409 9.83984H62.6309V13.1198H65.0409V9.83984Z" fill="#FDB913"/>
<path d="M62.6307 9.83984H60.2207V13.1198H62.6307V9.83984Z" fill="#FDB913"/>
<path d="M60.2206 9.83984H57.8105V13.1198H60.2206V9.83984Z" fill="#FDB913"/>
<path d="M57.8104 9.83984H55.4004V13.1198H57.8104V9.83984Z" fill="#FDB913"/>
<path d="M55.4002 9.83984H52.9902V13.1198H55.4002V9.83984Z" fill="#FDB913"/>
<path d="M52.9901 9.83984H50.5801V13.1198H52.9901V9.83984Z" fill="#FDB913"/>
<path d="M50.5799 9.83984H48.1699V13.1198H50.5799V9.83984Z" fill="#FDB913"/>
<path d="M48.1698 9.83984H45.7598V13.1198H48.1698V9.83984Z" fill="#FDB913"/>
<path d="M45.7596 9.83984H43.3496V13.1198H45.7596V9.83984Z" fill="#FDB913"/>
<path d="M43.3592 9.83984H40.9492V13.1198H43.3592V9.83984Z" fill="#FDB913"/>
<path d="M40.9491 9.83984H38.5391V13.1198H40.9491V9.83984Z" fill="#FDB913"/>
<path d="M38.5409 9.83984H36.1309V13.1198H38.5409V9.83984Z" fill="#FDB913"/>
<path d="M36.1307 9.83984H33.7207V13.1198H36.1307V9.83984Z" fill="#FDB913"/>
<path d="M33.7205 9.83984H31.3105V13.1198H33.7205V9.83984Z" fill="#FDB913"/>
<path d="M31.3104 9.83984H28.9004V13.1198H31.3104V9.83984Z" fill="#FDB913"/>
<path d="M28.9002 9.83984H26.4902V13.1198H28.9002V9.83984Z" fill="#FDB913"/>
<path d="M26.4901 9.83984H24.0801V13.1198H26.4901V9.83984Z" fill="#FDB913"/>
<path d="M24.0897 9.83984H21.6797V13.1198H24.0897V9.83984Z" fill="#FDB913"/>
<path d="M21.6795 9.83984H19.2695V13.1198H21.6795V9.83984Z" fill="#FDB913"/>
<path d="M19.2694 9.83984H16.8594V13.1198H19.2694V9.83984Z" fill="#FDB913"/>
<path d="M16.8592 9.83984H14.4492V13.1198H16.8592V9.83984Z" fill="#FDB913"/>
<path d="M14.4491 9.83984H12.0391V13.1198H14.4491V9.83984Z" fill="#FDB913"/>
<path d="M12.0409 9.83984H9.63086V13.1198H12.0409V9.83984Z" fill="#FDB913"/>
<path d="M9.6307 9.83984H7.2207V13.1198H9.6307V9.83984Z" fill="#FDB913"/>
<path d="M7.22055 9.83984H4.81055V13.1198H7.22055V9.83984Z" fill="#FDB913"/>
<path d="M4.81039 9.83984H2.40039V13.1198H4.81039V9.83984Z" fill="white"/>
<path d="M2.41 9.83984H0V13.1198H2.41V9.83984Z" fill="#000600"/>
<path d="M108.39 6.56055H105.98V9.84055H108.39V6.56055Z" fill="#000600"/>
<path d="M105.99 6.56055H103.58V9.84055H105.99V6.56055Z" fill="white"/>
<path d="M103.58 6.56055H101.17V9.84055H103.58V6.56055Z" fill="#FDB913"/>
<path d="M101.17 6.56055H98.7598V9.84055H101.17V6.56055Z" fill="#FDB913"/>
<path d="M98.7596 6.56055H96.3496V9.84055H98.7596V6.56055Z" fill="#FDB913"/>
<path d="M96.3494 6.56055H93.9395V9.84055H96.3494V6.56055Z" fill="#FDB913"/>
<path d="M93.9393 6.56055H91.5293V9.84055H93.9393V6.56055Z" fill="#FDB913"/>
<path d="M91.5291 6.56055H89.1191V9.84055H91.5291V6.56055Z" fill="#FDB913"/>
<path d="M89.1209 6.56055H86.7109V9.84055H89.1209V6.56055Z" fill="#FDB913"/>
<path d="M86.7108 6.56055H84.3008V9.84055H86.7108V6.56055Z" fill="#FDB913"/>
<path d="M84.3104 6.56055H81.9004V9.84055H84.3104V6.56055Z" fill="#FDB913"/>
<path d="M81.9002 6.56055H79.4902V9.84055H81.9002V6.56055Z" fill="#FDB913"/>
<path d="M79.4901 6.56055H77.0801V9.84055H79.4901V6.56055Z" fill="#FDB913"/>
<path d="M77.0799 6.56055H74.6699V9.84055H77.0799V6.56055Z" fill="#FDB913"/>
<path d="M74.6698 6.56055H72.2598V9.84055H74.6698V6.56055Z" fill="#FDB913"/>
<path d="M72.2596 6.56055H69.8496V9.84055H72.2596V6.56055Z" fill="#FDB913"/>
<path d="M69.8494 6.56055H67.4395V9.84055H69.8494V6.56055Z" fill="#FDB913"/>
<path d="M67.4393 6.56055H65.0293V9.84055H67.4393V6.56055Z" fill="#FDB913"/>
<path d="M65.0409 6.56055H62.6309V9.84055H65.0409V6.56055Z" fill="#FDB913"/>
<path d="M62.6307 6.56055H60.2207V9.84055H62.6307V6.56055Z" fill="#FDB913"/>
<path d="M60.2206 6.56055H57.8105V9.84055H60.2206V6.56055Z" fill="#FDB913"/>
<path d="M57.8104 6.56055H55.4004V9.84055H57.8104V6.56055Z" fill="#FDB913"/>
<path d="M55.4002 6.56055H52.9902V9.84055H55.4002V6.56055Z" fill="#FDB913"/>
<path d="M52.9901 6.56055H50.5801V9.84055H52.9901V6.56055Z" fill="#FDB913"/>
<path d="M50.5799 6.56055H48.1699V9.84055H50.5799V6.56055Z" fill="#FDB913"/>
<path d="M48.1698 6.56055H45.7598V9.84055H48.1698V6.56055Z" fill="#FDB913"/>
<path d="M45.7596 6.56055H43.3496V9.84055H45.7596V6.56055Z" fill="#FDB913"/>
<path d="M43.3592 6.56055H40.9492V9.84055H43.3592V6.56055Z" fill="#FDB913"/>
<path d="M40.9491 6.56055H38.5391V9.84055H40.9491V6.56055Z" fill="#FDB913"/>
<path d="M38.5409 6.56055H36.1309V9.84055H38.5409V6.56055Z" fill="#FDB913"/>
<path d="M36.1307 6.56055H33.7207V9.84055H36.1307V6.56055Z" fill="#FDB913"/>
<path d="M33.7205 6.56055H31.3105V9.84055H33.7205V6.56055Z" fill="#FDB913"/>
<path d="M31.3104 6.56055H28.9004V9.84055H31.3104V6.56055Z" fill="#FDB913"/>
<path d="M28.9002 6.56055H26.4902V9.84055H28.9002V6.56055Z" fill="#FDB913"/>
<path d="M26.4901 6.56055H24.0801V9.84055H26.4901V6.56055Z" fill="#FDB913"/>
<path d="M24.0897 6.56055H21.6797V9.84055H24.0897V6.56055Z" fill="#FDB913"/>
<path d="M21.6795 6.56055H19.2695V9.84055H21.6795V6.56055Z" fill="#FDB913"/>
<path d="M19.2694 6.56055H16.8594V9.84055H19.2694V6.56055Z" fill="#FDB913"/>
<path d="M16.8592 6.56055H14.4492V9.84055H16.8592V6.56055Z" fill="#FDB913"/>
<path d="M14.4491 6.56055H12.0391V9.84055H14.4491V6.56055Z" fill="#FDB913"/>
<path d="M12.0409 6.56055H9.63086V9.84055H12.0409V6.56055Z" fill="#FDB913"/>
<path d="M9.6307 6.56055H7.2207V9.84055H9.6307V6.56055Z" fill="#FDB913"/>
<path d="M7.22055 6.56055H4.81055V9.84055H7.22055V6.56055Z" fill="#FDB913"/>
<path d="M4.81039 6.56055H2.40039V9.84055H4.81039V6.56055Z" fill="white"/>
<path d="M2.41 6.56055H0V9.84055H2.41V6.56055Z" fill="#000600"/>
<path d="M108.39 3.2793H105.98V6.5593H108.39V3.2793Z" fill="#000600"/>
<path d="M105.99 3.2793H103.58V6.5593H105.99V3.2793Z" fill="white"/>
<path d="M103.58 3.2793H101.17V6.5593H103.58V3.2793Z" fill="white"/>
<path d="M101.17 3.2793H98.7598V6.5593H101.17V3.2793Z" fill="white"/>
<path d="M98.7596 3.2793H96.3496V6.5593H98.7596V3.2793Z" fill="white"/>
<path d="M96.3494 3.2793H93.9395V6.5593H96.3494V3.2793Z" fill="white"/>
<path d="M93.9393 3.2793H91.5293V6.5593H93.9393V3.2793Z" fill="white"/>
<path d="M91.5291 3.2793H89.1191V6.5593H91.5291V3.2793Z" fill="white"/>
<path d="M89.1209 3.2793H86.7109V6.5593H89.1209V3.2793Z" fill="white"/>
<path d="M86.7108 3.2793H84.3008V6.5593H86.7108V3.2793Z" fill="white"/>
<path d="M84.3104 3.2793H81.9004V6.5593H84.3104V3.2793Z" fill="white"/>
<path d="M81.9002 3.2793H79.4902V6.5593H81.9002V3.2793Z" fill="white"/>
<path d="M79.4901 3.2793H77.0801V6.5593H79.4901V3.2793Z" fill="white"/>
<path d="M77.0799 3.2793H74.6699V6.5593H77.0799V3.2793Z" fill="white"/>
<path d="M74.6698 3.2793H72.2598V6.5593H74.6698V3.2793Z" fill="white"/>
<path d="M72.2596 3.2793H69.8496V6.5593H72.2596V3.2793Z" fill="white"/>
<path d="M69.8494 3.2793H67.4395V6.5593H69.8494V3.2793Z" fill="white"/>
<path d="M67.4393 3.2793H65.0293V6.5593H67.4393V3.2793Z" fill="white"/>
<path d="M65.0409 3.2793H62.6309V6.5593H65.0409V3.2793Z" fill="white"/>
<path d="M62.6307 3.2793H60.2207V6.5593H62.6307V3.2793Z" fill="white"/>
<path d="M60.2206 3.2793H57.8105V6.5593H60.2206V3.2793Z" fill="white"/>
<path d="M57.8104 3.2793H55.4004V6.5593H57.8104V3.2793Z" fill="white"/>
<path d="M55.4002 3.2793H52.9902V6.5593H55.4002V3.2793Z" fill="white"/>
<path d="M52.9901 3.2793H50.5801V6.5593H52.9901V3.2793Z" fill="white"/>
<path d="M50.5799 3.2793H48.1699V6.5593H50.5799V3.2793Z" fill="white"/>
<path d="M48.1698 3.2793H45.7598V6.5593H48.1698V3.2793Z" fill="white"/>
<path d="M45.7596 3.2793H43.3496V6.5593H45.7596V3.2793Z" fill="white"/>
<path d="M43.3592 3.2793H40.9492V6.5593H43.3592V3.2793Z" fill="white"/>
<path d="M40.9491 3.2793H38.5391V6.5593H40.9491V3.2793Z" fill="white"/>
<path d="M38.5409 3.2793H36.1309V6.5593H38.5409V3.2793Z" fill="white"/>
<path d="M36.1307 3.2793H33.7207V6.5593H36.1307V3.2793Z" fill="white"/>
<path d="M33.7205 3.2793H31.3105V6.5593H33.7205V3.2793Z" fill="white"/>
<path d="M31.3104 3.2793H28.9004V6.5593H31.3104V3.2793Z" fill="white"/>
<path d="M28.9002 3.2793H26.4902V6.5593H28.9002V3.2793Z" fill="white"/>
<path d="M26.4901 3.2793H24.0801V6.5593H26.4901V3.2793Z" fill="white"/>
<path d="M24.0897 3.2793H21.6797V6.5593H24.0897V3.2793Z" fill="white"/>
<path d="M21.6795 3.2793H19.2695V6.5593H21.6795V3.2793Z" fill="white"/>
<path d="M19.2694 3.2793H16.8594V6.5593H19.2694V3.2793Z" fill="white"/>
<path d="M16.8592 3.2793H14.4492V6.5593H16.8592V3.2793Z" fill="white"/>
<path d="M14.4491 3.2793H12.0391V6.5593H14.4491V3.2793Z" fill="white"/>
<path d="M12.0409 3.2793H9.63086V6.5593H12.0409V3.2793Z" fill="white"/>
<path d="M9.6307 3.2793H7.2207V6.5593H9.6307V3.2793Z" fill="white"/>
<path d="M7.22055 3.2793H4.81055V6.5593H7.22055V3.2793Z" fill="white"/>
<path d="M4.81039 3.2793H2.40039V6.5593H4.81039V3.2793Z" fill="white"/>
<path d="M2.41 3.2793H0V6.5593H2.41V3.2793Z" fill="#000600"/>
<path d="M105.99 0H103.58V3.28H105.99V0Z" fill="#000600"/>
<path d="M103.58 0H101.17V3.28H103.58V0Z" fill="#000600"/>
<path d="M101.17 0H98.7598V3.28H101.17V0Z" fill="#000600"/>
<path d="M98.7596 0H96.3496V3.28H98.7596V0Z" fill="#000600"/>
<path d="M96.3494 0H93.9395V3.28H96.3494V0Z" fill="#000600"/>
<path d="M93.9393 0H91.5293V3.28H93.9393V0Z" fill="#000600"/>
<path d="M91.5291 0H89.1191V3.28H91.5291V0Z" fill="#000600"/>
<path d="M89.1209 0H86.7109V3.28H89.1209V0Z" fill="#000600"/>
<path d="M86.7108 0H84.3008V3.28H86.7108V0Z" fill="#000600"/>
<path d="M84.3104 0H81.9004V3.28H84.3104V0Z" fill="#000600"/>
<path d="M81.9002 0H79.4902V3.28H81.9002V0Z" fill="#000600"/>
<path d="M79.4901 0H77.0801V3.28H79.4901V0Z" fill="#000600"/>
<path d="M77.0799 0H74.6699V3.28H77.0799V0Z" fill="#000600"/>
<path d="M74.6698 0H72.2598V3.28H74.6698V0Z" fill="#000600"/>
<path d="M72.2596 0H69.8496V3.28H72.2596V0Z" fill="#000600"/>
<path d="M69.8494 0H67.4395V3.28H69.8494V0Z" fill="#000600"/>
<path d="M67.4393 0H65.0293V3.28H67.4393V0Z" fill="#000600"/>
<path d="M65.0409 0H62.6309V3.28H65.0409V0Z" fill="#000600"/>
<path d="M62.6307 0H60.2207V3.28H62.6307V0Z" fill="#000600"/>
<path d="M60.2206 0H57.8105V3.28H60.2206V0Z" fill="#000600"/>
<path d="M57.8104 0H55.4004V3.28H57.8104V0Z" fill="#000600"/>
<path d="M55.4002 0H52.9902V3.28H55.4002V0Z" fill="#000600"/>
<path d="M52.9901 0H50.5801V3.28H52.9901V0Z" fill="#000600"/>
<path d="M50.5799 0H48.1699V3.28H50.5799V0Z" fill="#000600"/>
<path d="M48.1698 0H45.7598V3.28H48.1698V0Z" fill="#000600"/>
<path d="M45.7596 0H43.3496V3.28H45.7596V0Z" fill="#000600"/>
<path d="M43.3592 0H40.9492V3.28H43.3592V0Z" fill="#000600"/>
<path d="M40.9491 0H38.5391V3.28H40.9491V0Z" fill="#000600"/>
<path d="M38.5409 0H36.1309V3.28H38.5409V0Z" fill="#000600"/>
<path d="M36.1307 0H33.7207V3.28H36.1307V0Z" fill="#000600"/>
<path d="M33.7205 0H31.3105V3.28H33.7205V0Z" fill="#000600"/>
<path d="M31.3104 0H28.9004V3.28H31.3104V0Z" fill="#000600"/>
<path d="M28.9002 0H26.4902V3.28H28.9002V0Z" fill="#000600"/>
<path d="M26.4901 0H24.0801V3.28H26.4901V0Z" fill="#000600"/>
<path d="M24.0897 0H21.6797V3.28H24.0897V0Z" fill="#000600"/>
<path d="M21.6795 0H19.2695V3.28H21.6795V0Z" fill="#000600"/>
<path d="M19.2694 0H16.8594V3.28H19.2694V0Z" fill="#000600"/>
<path d="M16.8592 0H14.4492V3.28H16.8592V0Z" fill="#000600"/>
<path d="M14.4491 0H12.0391V3.28H14.4491V0Z" fill="#000600"/>
<path d="M12.0409 0H9.63086V3.28H12.0409V0Z" fill="#000600"/>
<path d="M9.6307 0H7.2207V3.28H9.6307V0Z" fill="#000600"/>
<path d="M7.22055 0H4.81055V3.28H7.22055V0Z" fill="#000600"/>
<path d="M4.81039 0H2.40039V3.28H4.81039V0Z" fill="#000600"/>
<path d="M8.83055 16.8301V19.8301H7.56055V16.8301H8.83055ZM8.83055 20.6201V21.2501H7.56055V20.6201H8.83055Z" fill="black"/>
<path d="M14.5209 18.7285V19.3585H15.1509V20.6185H15.7809V21.2485H11.9909V20.6185H11.3609V19.3585H10.7309V22.5185H9.46094V19.3585H10.0909V18.7285H14.5209ZM13.8909 20.6185V19.3585H12.6209V20.6185H13.8909Z" fill="black"/>
<path d="M20.2103 20.6187V18.7188H21.4803V20.6187H20.8503V21.2487H15.7903C15.5803 21.0387 15.5803 20.8287 15.7903 20.6187H16.4203V18.7188H17.6903V20.6187H18.3203V18.7188H19.5903V20.6187H20.2203H20.2103Z" fill="black"/>
<path d="M24.0105 21.2585V21.8885H23.3805V22.5185H21.4805V21.8885H22.7505V18.7285H24.0105V20.6285H24.6405V21.2585H24.0105Z" fill="black"/>
<path d="M25.9002 20.6187V18.7188H27.1602V20.6187H26.5302V21.2487H24.6302C24.4202 21.0387 24.4202 20.8287 24.6302 20.6187H25.9002ZM26.5402 21.8888V22.5187H25.2702V21.8888H26.5402Z" fill="black"/>
<path d="M30.3305 18.7296V20.6296H32.8605V18.7296H34.1205V20.6296H34.7505V21.2596H29.6905V20.6296H29.0605V18.7296H30.3305ZM31.6005 18.0996C31.8105 18.3096 31.8105 18.5196 31.6005 18.7296H30.3405V18.0996H31.6005ZM32.8605 18.0996V18.7296H31.5905C31.3805 18.5196 31.3805 18.3096 31.5905 18.0996H32.8605Z" fill="black"/>
<path d="M35.3909 21.8888C35.6009 22.0988 35.6009 22.3087 35.3909 22.5187H34.1309V21.8888H35.3909ZM36.0209 20.6187V18.7188H37.2809V20.6187H37.9109V21.2487H34.7509C34.5409 21.0387 34.5409 20.8287 34.7509 20.6187H36.0209ZM36.6609 21.8888V22.5187H35.3909C35.1809 22.3087 35.1809 22.0988 35.3909 21.8888H36.6609Z" fill="black"/>
<path d="M41.0812 16.8292V17.4592H40.4512V18.0892H39.8212V18.7192H41.0812V19.3492H41.7112V20.6092H41.0812V21.2392H37.9212C37.7112 21.0292 37.7112 20.8192 37.9212 20.6092H40.4512V19.3492H39.1912V18.7192H38.5612V18.0892H39.1912V17.4592H39.8212V16.8292H41.0812ZM39.1912 16.8292V17.4592H38.5612V16.8292H39.1912V16.1992H39.8212V16.8292H39.1912Z" fill="black"/>
<path d="M43.6113 20.6196V19.3596H44.2413V18.7296H46.1413V18.0996H47.4113V20.6296H48.0413V21.2596H44.2513V20.6296H43.6213L43.6113 20.6196ZM46.1413 20.6196V19.3596H44.8813V20.6196H46.1413Z" fill="black"/>
<path d="M49.3006 20.6187V18.7188H50.5605V20.6187H49.9305V21.2487H48.0305C47.8205 21.0387 47.8205 20.8287 48.0305 20.6187H49.3006ZM49.9406 21.8888V22.5187H48.6705V21.8888H49.9406Z" fill="black"/>
<path d="M55.0007 18.729V21.889H54.3707V22.519H52.4707V21.889H53.7407V18.729H55.0007ZM55.0007 17.459V18.089H53.7407V17.459H55.0007Z" fill="black"/>
<path d="M56.8911 16.8301V21.2601H55.6211V16.8301H56.8911Z" fill="black"/>
<path d="M60.6913 18.7285V19.3585H61.3213V21.8885H60.6913V22.5185H57.5312V21.8885H60.0612V21.2585H58.1613V20.6285H57.5312V19.3685H58.1613V18.7385H60.6913V18.7285ZM60.0612 20.6185V19.3585H58.8013V20.6185H60.0612Z" fill="black"/>
<path d="M63.8512 21.2585V21.8885H63.2212V22.5185H61.9512V21.8885H62.5812V18.7285H63.8512V20.6285H64.4812V21.2585H63.8512Z" fill="black"/>
<path d="M65.7498 20.6187V18.7188H67.0098V20.6187H66.3798V21.2487H64.4798C64.2698 21.0387 64.2698 20.8287 64.4798 20.6187H65.7498ZM65.7498 21.8888C65.9598 22.0988 65.9598 22.3087 65.7498 22.5187H64.4898V21.8888H65.7498ZM66.3798 23.1488V23.7787H65.1198V23.1488H66.3798ZM67.0098 21.8888V22.5187H65.7398C65.5298 22.3087 65.5298 22.0988 65.7398 21.8888H67.0098Z" fill="black"/>
<path d="M71.4402 18.729V21.889H70.8102V22.519H68.9102V21.889H70.1802V18.729H71.4402ZM71.4402 17.459V18.089H70.1802V17.459H71.4402Z" fill="black"/>
<path d="M73.3403 16.8301V21.2601H72.0703V16.8301H73.3403Z" fill="black"/>
<path d="M77.77 21.8901V16.8301H79.04V20.6201H79.67V21.2501H79.04V21.8801H78.41V22.5101H75.88V21.8801H75.25V18.7201H76.52V21.8801H77.78L77.77 21.8901Z" fill="black"/>
<path d="M80.9314 20.6187V18.7188H82.1914V20.6187H82.8214V21.2487H79.6614C79.4514 21.0387 79.4514 20.8287 79.6614 20.6187H80.9314ZM81.5614 21.8888V22.5187H80.2914V21.8888H81.5614Z" fill="black"/>
<path d="M86.6213 21.259H82.8313C82.6213 21.049 82.6213 20.839 82.8313 20.629H83.4613V19.369H84.0913V18.739H86.6213V19.369H87.2513V20.629H86.6213V21.259ZM85.3613 17.459C85.5713 17.669 85.5713 17.879 85.3613 18.089H84.1013V17.459H85.3613ZM85.9913 19.359H84.7313V20.619H85.9913V19.359ZM86.6213 17.459V18.089H85.3513C85.1413 17.879 85.1413 17.669 85.3513 17.459H86.6213Z" fill="black"/>
<path d="M91.6804 18.7285V19.3585H92.3104V20.6185H92.9404V21.2485H89.1504V20.6185H91.0504V19.3585H89.7804V18.7285H91.6804Z" fill="black"/>
<path d="M93.5803 21.8888C93.7903 22.0988 93.7903 22.3087 93.5803 22.5187H92.3203V21.8888H93.5803ZM94.2103 20.6187V18.7188H95.4703V20.6187H94.8403V21.2487H92.9403C92.7303 21.0387 92.7303 20.8287 92.9403 20.6187H94.2103ZM94.8403 21.8888V22.5187H93.5703C93.3603 22.3087 93.3603 22.0988 93.5703 21.8888H94.8403Z" fill="black"/>
<path d="M96.7413 21.2598V20.6298H96.1113V16.8398H97.3813V20.6298H98.0113V21.2598H96.7413Z" fill="black"/>
<path d="M99.2713 20.6187V18.7188H100.531V20.6187H99.9012V21.2487H98.0012C97.7913 21.0387 97.7913 20.8287 98.0012 20.6187H99.2713ZM99.9012 21.8888V22.5187H98.6313V21.8888H99.9012Z" fill="black"/>
</svg>
