<svg width="79" height="71" viewBox="0 0 79 71" fill="none" xmlns="http://www.w3.org/2000/svg">
<path d="M62.3907 69.0605H60.7207V70.7306H62.3907V69.0605Z" fill="black"/>
<path d="M64.0606 67.3906H62.3906V69.0606H64.0606V67.3906Z" fill="black"/>
<path d="M62.3907 67.3906H60.7207V69.0606H62.3907V67.3906Z" fill="white"/>
<path d="M64.0606 65.7207H62.3906V67.3907H64.0606V65.7207Z" fill="black"/>
<path d="M62.3907 65.7207H60.7207V67.3907H62.3907V65.7207Z" fill="white"/>
<path d="M62.3907 64.041H60.7207V65.711H62.3907V64.041Z" fill="black"/>
<path d="M48.6305 53.2598H46.3105V55.5798H48.6305V53.2598Z" fill="black"/>
<path d="M46.32 53.2598H44V55.5798H46.32V53.2598Z" fill="black"/>
<path d="M43.9997 53.2598H41.6797V55.5798H43.9997V53.2598Z" fill="black"/>
<path d="M41.6891 53.2598H39.3691V55.5798H41.6891V53.2598Z" fill="black"/>
<path d="M53.2595 50.9492H50.9395V53.2692H53.2595V50.9492Z" fill="black"/>
<path d="M50.9509 50.9492H48.6309V53.2692H50.9509V50.9492Z" fill="black"/>
<path d="M48.6305 50.9492H46.3105V53.2692H48.6305V50.9492Z" fill="white"/>
<path d="M46.32 50.9492H44V53.2692H46.32V50.9492Z" fill="white"/>
<path d="M43.9997 50.9492H41.6797V53.2692H43.9997V50.9492Z" fill="white"/>
<path d="M41.6891 50.9492H39.3691V53.2692H41.6891V50.9492Z" fill="white"/>
<path d="M39.3708 50.9492H37.0508V53.2692H39.3708V50.9492Z" fill="black"/>
<path d="M37.0505 50.9492H34.7305V53.2692H37.0505V50.9492Z" fill="black"/>
<path d="M55.5798 48.6309H53.2598V50.9509H55.5798V48.6309Z" fill="black"/>
<path d="M53.2595 48.6309H50.9395V50.9509H53.2595V48.6309Z" fill="white"/>
<path d="M50.9509 48.6309H48.6309V50.9509H50.9509V48.6309Z" fill="white"/>
<path d="M48.6305 48.6309H46.3105V50.9509H48.6305V48.6309Z" fill="white"/>
<path d="M46.32 48.6309H44V50.9509H46.32V48.6309Z" fill="white"/>
<path d="M43.9997 48.6309H41.6797V50.9509H43.9997V48.6309Z" fill="white"/>
<path d="M41.6891 48.6309H39.3691V50.9509H41.6891V48.6309Z" fill="white"/>
<path d="M39.3708 48.6309H37.0508V50.9509H39.3708V48.6309Z" fill="white"/>
<path d="M37.0505 48.6309H34.7305V50.9509H37.0505V48.6309Z" fill="white"/>
<path d="M34.7399 48.6309H32.4199V50.9509H34.7399V48.6309Z" fill="black"/>
<path d="M60.7208 69.0605H59.0508V70.7306H60.7208V69.0605Z" fill="black"/>
<path d="M60.7208 67.3906H59.0508V69.0606H60.7208V67.3906Z" fill="white"/>
<path d="M59.0391 67.3906H57.3691V69.0606H59.0391V67.3906Z" fill="black"/>
<path d="M60.7208 65.7207H59.0508V67.3907H60.7208V65.7207Z" fill="white"/>
<path d="M59.0391 65.7207H57.3691V67.3907H59.0391V65.7207Z" fill="black"/>
<path d="M60.7208 64.041H59.0508V65.711H60.7208V64.041Z" fill="black"/>
<path d="M55.6895 62.3711H54.0195V64.0411H55.6895V62.3711Z" fill="black"/>
<path d="M54.0196 62.3711H52.3496V64.0411H54.0196V62.3711Z" fill="black"/>
<path d="M57.3692 60.6914H55.6992V62.3614H57.3692V60.6914Z" fill="black"/>
<path d="M55.6895 60.6914H54.0195V62.3614H55.6895V60.6914Z" fill="white"/>
<path d="M54.0196 60.6914H52.3496V62.3614H54.0196V60.6914Z" fill="white"/>
<path d="M52.3497 60.6914H50.6797V62.3614H52.3497V60.6914Z" fill="black"/>
<path d="M59.0391 59.0215H57.3691V60.6915H59.0391V59.0215Z" fill="black"/>
<path d="M52.3497 59.0215H50.6797V60.6915H52.3497V59.0215Z" fill="white"/>
<path d="M50.67 59.0215H49V60.6915H50.67V59.0215Z" fill="black"/>
<path d="M50.67 57.3516H49V59.0216H50.67V57.3516Z" fill="black"/>
<path d="M57.3692 59.0215H55.6992V60.6915H57.3692V59.0215Z" fill="white"/>
<path d="M55.6895 59.0215H54.0195V60.6915H55.6895V59.0215Z" fill="white"/>
<path d="M54.0196 59.0215H52.3496V60.6915H54.0196V59.0215Z" fill="white"/>
<path d="M59.0391 57.3516H57.3691V59.0216H59.0391V57.3516Z" fill="black"/>
<path d="M57.3692 57.3516H55.6992V59.0216H57.3692V57.3516Z" fill="white"/>
<path d="M55.6895 57.3516H54.0195V59.0216H55.6895V57.3516Z" fill="white"/>
<path d="M54.0196 57.3516H52.3496V59.0216H54.0196V57.3516Z" fill="white"/>
<path d="M52.3497 57.3516H50.6797V59.0216H52.3497V57.3516Z" fill="white"/>
<path d="M57.3692 55.6699H55.6992V57.3399H57.3692V55.6699Z" fill="black"/>
<path d="M55.6895 55.6699H54.0195V57.3399H55.6895V55.6699Z" fill="white"/>
<path d="M54.0196 55.6699H52.3496V57.3399H54.0196V55.6699Z" fill="white"/>
<path d="M52.3497 55.6699H50.6797V57.3399H52.3497V55.6699Z" fill="black"/>
<path d="M55.6895 54H54.0195V55.67H55.6895V54Z" fill="black"/>
<path d="M54.0196 54H52.3496V55.67H54.0196V54Z" fill="black"/>
<path d="M57.9001 46.3203H55.5801V48.6403H57.9001V46.3203Z" fill="black"/>
<path d="M55.5798 46.3203H53.2598V48.6403H55.5798V46.3203Z" fill="white"/>
<path d="M53.2595 46.3203H50.9395V48.6403H53.2595V46.3203Z" fill="white"/>
<path d="M50.9509 46.3203H48.6309V48.6403H50.9509V46.3203Z" fill="white"/>
<path d="M48.6305 46.3203H46.3105V48.6403H48.6305V46.3203Z" fill="white"/>
<path d="M46.32 46.3203H44V48.6403H46.32V46.3203Z" fill="white"/>
<path d="M43.9997 46.3203H41.6797V48.6403H43.9997V46.3203Z" fill="white"/>
<path d="M41.6891 46.3203H39.3691V48.6403H41.6891V46.3203Z" fill="white"/>
<path d="M39.3708 46.3203H37.0508V48.6403H39.3708V46.3203Z" fill="white"/>
<path d="M37.0505 46.3203H34.7305V48.6403H37.0505V46.3203Z" fill="white"/>
<path d="M34.7399 46.3203H32.4199V48.6403H34.7399V46.3203Z" fill="white"/>
<path d="M32.4196 46.3203H30.0996V48.6403H32.4196V46.3203Z" fill="black"/>
<path d="M27.7907 46.3203H25.4707V48.6403H27.7907V46.3203Z" fill="black"/>
<path d="M25.4802 46.3203H23.1602V48.6403H25.4802V46.3203Z" fill="black"/>
<path d="M23.1598 46.3203H20.8398V48.6403H23.1598V46.3203Z" fill="black"/>
<path d="M60.2106 44H57.8906V46.32H60.2106V44Z" fill="black"/>
<path d="M57.9001 44H55.5801V46.32H57.9001V44Z" fill="white"/>
<path d="M55.5798 44H53.2598V46.32H55.5798V44Z" fill="white"/>
<path d="M53.2595 44H50.9395V46.32H53.2595V44Z" fill="white"/>
<path d="M50.9509 44H48.6309V46.32H50.9509V44Z" fill="white"/>
<path d="M48.6305 44H46.3105V46.32H48.6305V44Z" fill="white"/>
<path d="M46.32 44H44V46.32H46.32V44Z" fill="white"/>
<path d="M43.9997 44H41.6797V46.32H43.9997V44Z" fill="white"/>
<path d="M41.6891 44H39.3691V46.32H41.6891V44Z" fill="white"/>
<path d="M39.3708 44H37.0508V46.32H39.3708V44Z" fill="white"/>
<path d="M37.0505 44H34.7305V46.32H37.0505V44Z" fill="white"/>
<path d="M34.7399 44H32.4199V46.32H34.7399V44Z" fill="white"/>
<path d="M32.4196 44H30.0996V46.32H32.4196V44Z" fill="white"/>
<path d="M30.1091 44H27.7891V46.32H30.1091V44Z" fill="black"/>
<path d="M27.7907 44H25.4707V46.32H27.7907V44Z" fill="white"/>
<path d="M25.4802 44H23.1602V46.32H25.4802V44Z" fill="white"/>
<path d="M23.1598 44H20.8398V46.32H23.1598V44Z" fill="white"/>
<path d="M20.8395 44H18.5195V46.32H20.8395V44Z" fill="black"/>
<path d="M60.2106 41.6797H57.8906V43.9997H60.2106V41.6797Z" fill="black"/>
<path d="M57.9001 41.6797H55.5801V43.9997H57.9001V41.6797Z" fill="white"/>
<path d="M55.5798 41.6797H53.2598V43.9997H55.5798V41.6797Z" fill="white"/>
<path d="M53.2595 41.6797H50.9395V43.9997H53.2595V41.6797Z" fill="white"/>
<path d="M50.9509 41.6797H48.6309V43.9997H50.9509V41.6797Z" fill="white"/>
<path d="M48.6305 41.6797H46.3105V43.9997H48.6305V41.6797Z" fill="white"/>
<path d="M46.32 41.6797H44V43.9997H46.32V41.6797Z" fill="white"/>
<path d="M43.9997 41.6797H41.6797V43.9997H43.9997V41.6797Z" fill="white"/>
<path d="M41.6891 41.6797H39.3691V43.9997H41.6891V41.6797Z" fill="white"/>
<path d="M39.3708 41.6797H37.0508V43.9997H39.3708V41.6797Z" fill="white"/>
<path d="M37.0505 41.6797H34.7305V43.9997H37.0505V41.6797Z" fill="white"/>
<path d="M34.7399 41.6797H32.4199V43.9997H34.7399V41.6797Z" fill="white"/>
<path d="M32.4196 41.6797H30.0996V43.9997H32.4196V41.6797Z" fill="black"/>
<path d="M30.1091 41.6797H27.7891V43.9997H30.1091V41.6797Z" fill="white"/>
<path d="M27.7907 41.6797H25.4707V43.9997H27.7907V41.6797Z" fill="white"/>
<path d="M25.4802 41.6797H23.1602V43.9997H25.4802V41.6797Z" fill="white"/>
<path d="M23.1598 41.6797H20.8398V43.9997H23.1598V41.6797Z" fill="white"/>
<path d="M20.8395 41.6797H18.5195V43.9997H20.8395V41.6797Z" fill="white"/>
<path d="M18.5309 41.6797H16.2109V43.9997H18.5309V41.6797Z" fill="black"/>
<path d="M62.5309 39.3691H60.2109V41.6891H62.5309V39.3691Z" fill="black"/>
<path d="M60.2106 39.3691H57.8906V41.6891H60.2106V39.3691Z" fill="white"/>
<path d="M57.9001 39.3691H55.5801V41.6891H57.9001V39.3691Z" fill="white"/>
<path d="M55.5798 39.3691H53.2598V41.6891H55.5798V39.3691Z" fill="white"/>
<path d="M53.2595 39.3691H50.9395V41.6891H53.2595V39.3691Z" fill="white"/>
<path d="M50.9509 39.3691H48.6309V41.6891H50.9509V39.3691Z" fill="white"/>
<path d="M48.6305 39.3691H46.3105V41.6891H48.6305V39.3691Z" fill="white"/>
<path d="M46.32 39.3691H44V41.6891H46.32V39.3691Z" fill="white"/>
<path d="M43.9997 39.3691H41.6797V41.6891H43.9997V39.3691Z" fill="white"/>
<path d="M41.6891 39.3691H39.3691V41.6891H41.6891V39.3691Z" fill="white"/>
<path d="M39.3708 39.3691H37.0508V41.6891H39.3708V39.3691Z" fill="white"/>
<path d="M37.0505 39.3691H34.7305V41.6891H37.0505V39.3691Z" fill="white"/>
<path d="M34.7399 39.3691H32.4199V41.6891H34.7399V39.3691Z" fill="white"/>
<path d="M32.4196 39.3691H30.0996V41.6891H32.4196V39.3691Z" fill="white"/>
<path d="M30.1091 39.3691H27.7891V41.6891H30.1091V39.3691Z" fill="white"/>
<path d="M27.7907 39.3691H25.4707V41.6891H27.7907V39.3691Z" fill="white"/>
<path d="M25.4802 39.3691H23.1602V41.6891H25.4802V39.3691Z" fill="white"/>
<path d="M23.1598 39.3691H20.8398V41.6891H23.1598V39.3691Z" fill="white"/>
<path d="M20.8395 39.3691H18.5195V41.6891H20.8395V39.3691Z" fill="white"/>
<path d="M18.5309 39.3691H16.2109V41.6891H18.5309V39.3691Z" fill="white"/>
<path d="M16.2106 39.3691H13.8906V41.6891H16.2106V39.3691Z" fill="black"/>
<path d="M13.9001 39.3691H11.5801V41.6891H13.9001V39.3691Z" fill="black"/>
<path d="M11.5798 39.3691H9.25977V41.6891H11.5798V39.3691Z" fill="black"/>
<path d="M9.26922 39.3691H6.94922V41.6891H9.26922V39.3691Z" fill="black"/>
<path d="M71.7907 37.0508H69.4707V39.3708H71.7907V37.0508Z" fill="black"/>
<path d="M69.4802 37.0508H67.1602V39.3708H69.4802V37.0508Z" fill="black"/>
<path d="M67.1598 37.0508H64.8398V39.3708H67.1598V37.0508Z" fill="black"/>
<path d="M64.8395 37.0508H62.5195V39.3708H64.8395V37.0508Z" fill="black"/>
<path d="M62.5309 37.0508H60.2109V39.3708H62.5309V37.0508Z" fill="black"/>
<path d="M60.2106 37.0508H57.8906V39.3708H60.2106V37.0508Z" fill="white"/>
<path d="M57.9001 37.0508H55.5801V39.3708H57.9001V37.0508Z" fill="white"/>
<path d="M55.5798 37.0508H53.2598V39.3708H55.5798V37.0508Z" fill="white"/>
<path d="M53.2595 37.0508H50.9395V39.3708H53.2595V37.0508Z" fill="white"/>
<path d="M50.9509 37.0508H48.6309V39.3708H50.9509V37.0508Z" fill="white"/>
<path d="M48.6305 37.0508H46.3105V39.3708H48.6305V37.0508Z" fill="white"/>
<path d="M46.32 37.0508H44V39.3708H46.32V37.0508Z" fill="white"/>
<path d="M43.9997 37.0508H41.6797V39.3708H43.9997V37.0508Z" fill="white"/>
<path d="M41.6891 37.0508H39.3691V39.3708H41.6891V37.0508Z" fill="white"/>
<path d="M39.3708 37.0508H37.0508V39.3708H39.3708V37.0508Z" fill="white"/>
<path d="M37.0505 37.0508H34.7305V39.3708H37.0505V37.0508Z" fill="white"/>
<path d="M34.7399 37.0508H32.4199V39.3708H34.7399V37.0508Z" fill="white"/>
<path d="M32.4196 37.0508H30.0996V39.3708H32.4196V37.0508Z" fill="white"/>
<path d="M30.1091 37.0508H27.7891V39.3708H30.1091V37.0508Z" fill="white"/>
<path d="M27.7907 37.0508H25.4707V39.3708H27.7907V37.0508Z" fill="white"/>
<path d="M25.4802 37.0508H23.1602V39.3708H25.4802V37.0508Z" fill="white"/>
<path d="M23.1598 37.0508H20.8398V39.3708H23.1598V37.0508Z" fill="white"/>
<path d="M20.8395 37.0508H18.5195V39.3708H20.8395V37.0508Z" fill="white"/>
<path d="M18.5309 37.0508H16.2109V39.3708H18.5309V37.0508Z" fill="white"/>
<path d="M16.2106 37.0508H13.8906V39.3708H16.2106V37.0508Z" fill="black"/>
<path d="M13.9001 37.0508H11.5801V39.3708H13.9001V37.0508Z" fill="white"/>
<path d="M11.5798 37.0508H9.25977V39.3708H11.5798V37.0508Z" fill="white"/>
<path d="M9.26922 37.0508H6.94922V39.3708H9.26922V37.0508Z" fill="white"/>
<path d="M6.95086 37.0508H4.63086V39.3708H6.95086V37.0508Z" fill="black"/>
<path d="M74.1091 34.7402H71.7891V37.0602H74.1091V34.7402Z" fill="black"/>
<path d="M71.7907 34.7402H69.4707V37.0602H71.7907V34.7402Z" fill="white"/>
<path d="M69.4802 34.7402H67.1602V37.0602H69.4802V34.7402Z" fill="white"/>
<path d="M67.1598 34.7402H64.8398V37.0602H67.1598V34.7402Z" fill="white"/>
<path d="M64.8395 34.7402H62.5195V37.0602H64.8395V34.7402Z" fill="white"/>
<path d="M62.5309 34.7402H60.2109V37.0602H62.5309V34.7402Z" fill="white"/>
<path d="M60.2106 34.7402H57.8906V37.0602H60.2106V34.7402Z" fill="white"/>
<path d="M57.9001 34.7402H55.5801V37.0602H57.9001V34.7402Z" fill="white"/>
<path d="M55.5798 34.7402H53.2598V37.0602H55.5798V34.7402Z" fill="white"/>
<path d="M53.2595 34.7402H50.9395V37.0602H53.2595V34.7402Z" fill="white"/>
<path d="M50.9509 34.7402H48.6309V37.0602H50.9509V34.7402Z" fill="white"/>
<path d="M48.6305 34.7402H46.3105V37.0602H48.6305V34.7402Z" fill="white"/>
<path d="M46.32 34.7402H44V37.0602H46.32V34.7402Z" fill="white"/>
<path d="M43.9997 34.7402H41.6797V37.0602H43.9997V34.7402Z" fill="white"/>
<path d="M41.6891 34.7402H39.3691V37.0602H41.6891V34.7402Z" fill="white"/>
<path d="M39.3708 34.7402H37.0508V37.0602H39.3708V34.7402Z" fill="white"/>
<path d="M37.0505 34.7402H34.7305V37.0602H37.0505V34.7402Z" fill="white"/>
<path d="M34.7399 34.7402H32.4199V37.0602H34.7399V34.7402Z" fill="white"/>
<path d="M32.4196 34.7402H30.0996V37.0602H32.4196V34.7402Z" fill="white"/>
<path d="M30.1091 34.7402H27.7891V37.0602H30.1091V34.7402Z" fill="white"/>
<path d="M27.7907 34.7402H25.4707V37.0602H27.7907V34.7402Z" fill="white"/>
<path d="M25.4802 34.7402H23.1602V37.0602H25.4802V34.7402Z" fill="white"/>
<path d="M23.1598 34.7402H20.8398V37.0602H23.1598V34.7402Z" fill="white"/>
<path d="M20.8395 34.7402H18.5195V37.0602H20.8395V34.7402Z" fill="white"/>
<path d="M18.5309 34.7402H16.2109V37.0602H18.5309V34.7402Z" fill="white"/>
<path d="M16.2106 34.7402H13.8906V37.0602H16.2106V34.7402Z" fill="white"/>
<path d="M13.9001 34.7402H11.5801V37.0602H13.9001V34.7402Z" fill="white"/>
<path d="M11.5798 34.7402H9.25977V37.0602H11.5798V34.7402Z" fill="white"/>
<path d="M9.26922 34.7402H6.94922V37.0602H9.26922V34.7402Z" fill="white"/>
<path d="M6.95086 34.7402H4.63086V37.0602H6.95086V34.7402Z" fill="white"/>
<path d="M4.63055 34.7402H2.31055V37.0602H4.63055V34.7402Z" fill="black"/>
<path d="M76.4196 32.4199H74.0996V34.7399H76.4196V32.4199Z" fill="black"/>
<path d="M74.1091 32.4199H71.7891V34.7399H74.1091V32.4199Z" fill="white"/>
<path d="M71.7907 32.4199H69.4707V34.7399H71.7907V32.4199Z" fill="white"/>
<path d="M69.4802 32.4199H67.1602V34.7399H69.4802V32.4199Z" fill="white"/>
<path d="M67.1598 32.4199H64.8398V34.7399H67.1598V32.4199Z" fill="white"/>
<path d="M64.8395 32.4199H62.5195V34.7399H64.8395V32.4199Z" fill="white"/>
<path d="M62.5309 32.4199H60.2109V34.7399H62.5309V32.4199Z" fill="white"/>
<path d="M60.2106 32.4199H57.8906V34.7399H60.2106V32.4199Z" fill="white"/>
<path d="M57.9001 32.4199H55.5801V34.7399H57.9001V32.4199Z" fill="white"/>
<path d="M55.5798 32.4199H53.2598V34.7399H55.5798V32.4199Z" fill="white"/>
<path d="M53.2595 32.4199H50.9395V34.7399H53.2595V32.4199Z" fill="white"/>
<path d="M50.9509 32.4199H48.6309V34.7399H50.9509V32.4199Z" fill="white"/>
<path d="M48.6305 32.4199H46.3105V34.7399H48.6305V32.4199Z" fill="white"/>
<path d="M46.32 32.4199H44V34.7399H46.32V32.4199Z" fill="white"/>
<path d="M43.9997 32.4199H41.6797V34.7399H43.9997V32.4199Z" fill="white"/>
<path d="M41.6891 32.4199H39.3691V34.7399H41.6891V32.4199Z" fill="white"/>
<path d="M39.3708 32.4199H37.0508V34.7399H39.3708V32.4199Z" fill="white"/>
<path d="M37.0505 32.4199H34.7305V34.7399H37.0505V32.4199Z" fill="white"/>
<path d="M34.7399 32.4199H32.4199V34.7399H34.7399V32.4199Z" fill="white"/>
<path d="M32.4196 32.4199H30.0996V34.7399H32.4196V32.4199Z" fill="white"/>
<path d="M30.1091 32.4199H27.7891V34.7399H30.1091V32.4199Z" fill="white"/>
<path d="M27.7907 32.4199H25.4707V34.7399H27.7907V32.4199Z" fill="white"/>
<path d="M25.4802 32.4199H23.1602V34.7399H25.4802V32.4199Z" fill="white"/>
<path d="M23.1598 32.4199H20.8398V34.7399H23.1598V32.4199Z" fill="white"/>
<path d="M20.8395 32.4199H18.5195V34.7399H20.8395V32.4199Z" fill="white"/>
<path d="M18.5309 32.4199H16.2109V34.7399H18.5309V32.4199Z" fill="white"/>
<path d="M16.2106 32.4199H13.8906V34.7399H16.2106V32.4199Z" fill="white"/>
<path d="M13.9001 32.4199H11.5801V34.7399H13.9001V32.4199Z" fill="white"/>
<path d="M11.5798 32.4199H9.25977V34.7399H11.5798V32.4199Z" fill="white"/>
<path d="M9.26922 32.4199H6.94922V34.7399H9.26922V32.4199Z" fill="white"/>
<path d="M6.95086 32.4199H4.63086V34.7399H6.95086V32.4199Z" fill="white"/>
<path d="M4.63055 32.4199H2.31055V34.7399H4.63055V32.4199Z" fill="white"/>
<path d="M2.32 32.4199H0V34.7399H2.32V32.4199Z" fill="black"/>
<path d="M78.7399 30.0996H76.4199V32.4196H78.7399V30.0996Z" fill="black"/>
<path d="M76.4196 30.0996H74.0996V32.4196H76.4196V30.0996Z" fill="white"/>
<path d="M74.1091 30.0996H71.7891V32.4196H74.1091V30.0996Z" fill="white"/>
<path d="M71.7907 30.0996H69.4707V32.4196H71.7907V30.0996Z" fill="white"/>
<path d="M69.4802 30.0996H67.1602V32.4196H69.4802V30.0996Z" fill="white"/>
<path d="M67.1598 30.0996H64.8398V32.4196H67.1598V30.0996Z" fill="white"/>
<path d="M64.8395 30.0996H62.5195V32.4196H64.8395V30.0996Z" fill="white"/>
<path d="M62.5309 30.0996H60.2109V32.4196H62.5309V30.0996Z" fill="white"/>
<path d="M60.2106 30.0996H57.8906V32.4196H60.2106V30.0996Z" fill="white"/>
<path d="M57.9001 30.0996H55.5801V32.4196H57.9001V30.0996Z" fill="white"/>
<path d="M55.5798 30.0996H53.2598V32.4196H55.5798V30.0996Z" fill="white"/>
<path d="M53.2595 30.0996H50.9395V32.4196H53.2595V30.0996Z" fill="white"/>
<path d="M50.9509 30.0996H48.6309V32.4196H50.9509V30.0996Z" fill="white"/>
<path d="M48.6305 30.0996H46.3105V32.4196H48.6305V30.0996Z" fill="white"/>
<path d="M46.32 30.0996H44V32.4196H46.32V30.0996Z" fill="white"/>
<path d="M43.9997 30.0996H41.6797V32.4196H43.9997V30.0996Z" fill="white"/>
<path d="M41.6891 30.0996H39.3691V32.4196H41.6891V30.0996Z" fill="white"/>
<path d="M39.3708 30.0996H37.0508V32.4196H39.3708V30.0996Z" fill="white"/>
<path d="M37.0505 30.0996H34.7305V32.4196H37.0505V30.0996Z" fill="white"/>
<path d="M34.7399 30.0996H32.4199V32.4196H34.7399V30.0996Z" fill="white"/>
<path d="M32.4196 30.0996H30.0996V32.4196H32.4196V30.0996Z" fill="white"/>
<path d="M30.1091 30.0996H27.7891V32.4196H30.1091V30.0996Z" fill="white"/>
<path d="M27.7907 30.0996H25.4707V32.4196H27.7907V30.0996Z" fill="white"/>
<path d="M25.4802 30.0996H23.1602V32.4196H25.4802V30.0996Z" fill="white"/>
<path d="M23.1598 30.0996H20.8398V32.4196H23.1598V30.0996Z" fill="white"/>
<path d="M20.8395 30.0996H18.5195V32.4196H20.8395V30.0996Z" fill="white"/>
<path d="M18.5309 30.0996H16.2109V32.4196H18.5309V30.0996Z" fill="white"/>
<path d="M16.2106 30.0996H13.8906V32.4196H16.2106V30.0996Z" fill="white"/>
<path d="M13.9001 30.0996H11.5801V32.4196H13.9001V30.0996Z" fill="white"/>
<path d="M11.5798 30.0996H9.25977V32.4196H11.5798V30.0996Z" fill="white"/>
<path d="M9.26922 30.0996H6.94922V32.4196H9.26922V30.0996Z" fill="white"/>
<path d="M6.95086 30.0996H4.63086V32.4196H6.95086V30.0996Z" fill="white"/>
<path d="M4.63055 30.0996H2.31055V32.4196H4.63055V30.0996Z" fill="white"/>
<path d="M2.32 30.0996H0V32.4196H2.32V30.0996Z" fill="black"/>
<path d="M78.7399 27.7891H76.4199V30.1091H78.7399V27.7891Z" fill="black"/>
<path d="M76.4196 27.7891H74.0996V30.1091H76.4196V27.7891Z" fill="white"/>
<path d="M74.1091 27.7891H71.7891V30.1091H74.1091V27.7891Z" fill="white"/>
<path d="M71.7907 27.7891H69.4707V30.1091H71.7907V27.7891Z" fill="white"/>
<path d="M69.4802 27.7891H67.1602V30.1091H69.4802V27.7891Z" fill="white"/>
<path d="M67.1598 27.7891H64.8398V30.1091H67.1598V27.7891Z" fill="white"/>
<path d="M64.8395 27.7891H62.5195V30.1091H64.8395V27.7891Z" fill="white"/>
<path d="M62.5309 27.7891H60.2109V30.1091H62.5309V27.7891Z" fill="white"/>
<path d="M60.2106 27.7891H57.8906V30.1091H60.2106V27.7891Z" fill="white"/>
<path d="M57.9001 27.7891H55.5801V30.1091H57.9001V27.7891Z" fill="white"/>
<path d="M55.5798 27.7891H53.2598V30.1091H55.5798V27.7891Z" fill="white"/>
<path d="M53.2595 27.7891H50.9395V30.1091H53.2595V27.7891Z" fill="white"/>
<path d="M50.9509 27.7891H48.6309V30.1091H50.9509V27.7891Z" fill="white"/>
<path d="M48.6305 27.7891H46.3105V30.1091H48.6305V27.7891Z" fill="white"/>
<path d="M46.32 27.7891H44V30.1091H46.32V27.7891Z" fill="white"/>
<path d="M43.9997 27.7891H41.6797V30.1091H43.9997V27.7891Z" fill="white"/>
<path d="M41.6891 27.7891H39.3691V30.1091H41.6891V27.7891Z" fill="white"/>
<path d="M39.3708 27.7891H37.0508V30.1091H39.3708V27.7891Z" fill="white"/>
<path d="M37.0505 27.7891H34.7305V30.1091H37.0505V27.7891Z" fill="white"/>
<path d="M34.7399 27.7891H32.4199V30.1091H34.7399V27.7891Z" fill="white"/>
<path d="M32.4196 27.7891H30.0996V30.1091H32.4196V27.7891Z" fill="white"/>
<path d="M30.1091 27.7891H27.7891V30.1091H30.1091V27.7891Z" fill="white"/>
<path d="M27.7907 27.7891H25.4707V30.1091H27.7907V27.7891Z" fill="white"/>
<path d="M25.4802 27.7891H23.1602V30.1091H25.4802V27.7891Z" fill="white"/>
<path d="M23.1598 27.7891H20.8398V30.1091H23.1598V27.7891Z" fill="white"/>
<path d="M20.8395 27.7891H18.5195V30.1091H20.8395V27.7891Z" fill="white"/>
<path d="M18.5309 27.7891H16.2109V30.1091H18.5309V27.7891Z" fill="white"/>
<path d="M16.2106 27.7891H13.8906V30.1091H16.2106V27.7891Z" fill="white"/>
<path d="M13.9001 27.7891H11.5801V30.1091H13.9001V27.7891Z" fill="white"/>
<path d="M11.5798 27.7891H9.25977V30.1091H11.5798V27.7891Z" fill="white"/>
<path d="M9.26922 27.7891H6.94922V30.1091H9.26922V27.7891Z" fill="white"/>
<path d="M6.95086 27.7891H4.63086V30.1091H6.95086V27.7891Z" fill="white"/>
<path d="M4.63055 27.7891H2.31055V30.1091H4.63055V27.7891Z" fill="white"/>
<path d="M2.32 27.7891H0V30.1091H2.32V27.7891Z" fill="black"/>
<path d="M78.7399 25.4707H76.4199V27.7907H78.7399V25.4707Z" fill="black"/>
<path d="M76.4196 25.4707H74.0996V27.7907H76.4196V25.4707Z" fill="white"/>
<path d="M74.1091 25.4707H71.7891V27.7907H74.1091V25.4707Z" fill="white"/>
<path d="M71.7907 25.4707H69.4707V27.7907H71.7907V25.4707Z" fill="white"/>
<path d="M69.4802 25.4707H67.1602V27.7907H69.4802V25.4707Z" fill="white"/>
<path d="M67.1598 25.4707H64.8398V27.7907H67.1598V25.4707Z" fill="white"/>
<path d="M64.8395 25.4707H62.5195V27.7907H64.8395V25.4707Z" fill="white"/>
<path d="M62.5309 25.4707H60.2109V27.7907H62.5309V25.4707Z" fill="white"/>
<path d="M60.2106 25.4707H57.8906V27.7907H60.2106V25.4707Z" fill="white"/>
<path d="M57.9001 25.4707H55.5801V27.7907H57.9001V25.4707Z" fill="white"/>
<path d="M55.5798 25.4707H53.2598V27.7907H55.5798V25.4707Z" fill="white"/>
<path d="M53.2595 25.4707H50.9395V27.7907H53.2595V25.4707Z" fill="white"/>
<path d="M50.9509 25.4707H48.6309V27.7907H50.9509V25.4707Z" fill="white"/>
<path d="M48.6305 25.4707H46.3105V27.7907H48.6305V25.4707Z" fill="white"/>
<path d="M46.32 25.4707H44V27.7907H46.32V25.4707Z" fill="white"/>
<path d="M43.9997 25.4707H41.6797V27.7907H43.9997V25.4707Z" fill="white"/>
<path d="M41.6891 25.4707H39.3691V27.7907H41.6891V25.4707Z" fill="white"/>
<path d="M39.3708 25.4707H37.0508V27.7907H39.3708V25.4707Z" fill="white"/>
<path d="M37.0505 25.4707H34.7305V27.7907H37.0505V25.4707Z" fill="white"/>
<path d="M34.7399 25.4707H32.4199V27.7907H34.7399V25.4707Z" fill="white"/>
<path d="M32.4196 25.4707H30.0996V27.7907H32.4196V25.4707Z" fill="white"/>
<path d="M30.1091 25.4707H27.7891V27.7907H30.1091V25.4707Z" fill="white"/>
<path d="M27.7907 25.4707H25.4707V27.7907H27.7907V25.4707Z" fill="white"/>
<path d="M25.4802 25.4707H23.1602V27.7907H25.4802V25.4707Z" fill="white"/>
<path d="M23.1598 25.4707H20.8398V27.7907H23.1598V25.4707Z" fill="white"/>
<path d="M20.8395 25.4707H18.5195V27.7907H20.8395V25.4707Z" fill="white"/>
<path d="M18.5309 25.4707H16.2109V27.7907H18.5309V25.4707Z" fill="white"/>
<path d="M16.2106 25.4707H13.8906V27.7907H16.2106V25.4707Z" fill="white"/>
<path d="M13.9001 25.4707H11.5801V27.7907H13.9001V25.4707Z" fill="white"/>
<path d="M11.5798 25.4707H9.25977V27.7907H11.5798V25.4707Z" fill="white"/>
<path d="M9.26922 25.4707H6.94922V27.7907H9.26922V25.4707Z" fill="white"/>
<path d="M6.95086 25.4707H4.63086V27.7907H6.95086V25.4707Z" fill="white"/>
<path d="M4.63055 25.4707H2.31055V27.7907H4.63055V25.4707Z" fill="white"/>
<path d="M2.32 25.4707H0V27.7907H2.32V25.4707Z" fill="black"/>
<path d="M78.7399 23.1602H76.4199V25.4802H78.7399V23.1602Z" fill="black"/>
<path d="M76.4196 23.1602H74.0996V25.4802H76.4196V23.1602Z" fill="white"/>
<path d="M74.1091 23.1602H71.7891V25.4802H74.1091V23.1602Z" fill="white"/>
<path d="M71.7907 23.1602H69.4707V25.4802H71.7907V23.1602Z" fill="white"/>
<path d="M69.4802 23.1602H67.1602V25.4802H69.4802V23.1602Z" fill="white"/>
<path d="M67.1598 23.1602H64.8398V25.4802H67.1598V23.1602Z" fill="white"/>
<path d="M64.8395 23.1602H62.5195V25.4802H64.8395V23.1602Z" fill="white"/>
<path d="M62.5309 23.1602H60.2109V25.4802H62.5309V23.1602Z" fill="white"/>
<path d="M60.2106 23.1602H57.8906V25.4802H60.2106V23.1602Z" fill="white"/>
<path d="M57.9001 23.1602H55.5801V25.4802H57.9001V23.1602Z" fill="white"/>
<path d="M55.5798 23.1602H53.2598V25.4802H55.5798V23.1602Z" fill="white"/>
<path d="M53.2595 23.1602H50.9395V25.4802H53.2595V23.1602Z" fill="white"/>
<path d="M50.9509 23.1602H48.6309V25.4802H50.9509V23.1602Z" fill="white"/>
<path d="M48.6305 23.1602H46.3105V25.4802H48.6305V23.1602Z" fill="white"/>
<path d="M46.32 23.1602H44V25.4802H46.32V23.1602Z" fill="white"/>
<path d="M43.9997 23.1602H41.6797V25.4802H43.9997V23.1602Z" fill="white"/>
<path d="M41.6891 23.1602H39.3691V25.4802H41.6891V23.1602Z" fill="white"/>
<path d="M39.3708 23.1602H37.0508V25.4802H39.3708V23.1602Z" fill="white"/>
<path d="M37.0505 23.1602H34.7305V25.4802H37.0505V23.1602Z" fill="white"/>
<path d="M34.7399 23.1602H32.4199V25.4802H34.7399V23.1602Z" fill="white"/>
<path d="M32.4196 23.1602H30.0996V25.4802H32.4196V23.1602Z" fill="white"/>
<path d="M30.1091 23.1602H27.7891V25.4802H30.1091V23.1602Z" fill="white"/>
<path d="M27.7907 23.1602H25.4707V25.4802H27.7907V23.1602Z" fill="white"/>
<path d="M25.4802 23.1602H23.1602V25.4802H25.4802V23.1602Z" fill="white"/>
<path d="M23.1598 23.1602H20.8398V25.4802H23.1598V23.1602Z" fill="white"/>
<path d="M20.8395 23.1602H18.5195V25.4802H20.8395V23.1602Z" fill="white"/>
<path d="M18.5309 23.1602H16.2109V25.4802H18.5309V23.1602Z" fill="white"/>
<path d="M16.2106 23.1602H13.8906V25.4802H16.2106V23.1602Z" fill="white"/>
<path d="M13.9001 23.1602H11.5801V25.4802H13.9001V23.1602Z" fill="white"/>
<path d="M11.5798 23.1602H9.25977V25.4802H11.5798V23.1602Z" fill="white"/>
<path d="M9.26922 23.1602H6.94922V25.4802H9.26922V23.1602Z" fill="white"/>
<path d="M6.95086 23.1602H4.63086V25.4802H6.95086V23.1602Z" fill="white"/>
<path d="M4.63055 23.1602H2.31055V25.4802H4.63055V23.1602Z" fill="white"/>
<path d="M2.32 23.1602H0V25.4802H2.32V23.1602Z" fill="black"/>
<path d="M78.7399 20.8398H76.4199V23.1598H78.7399V20.8398Z" fill="black"/>
<path d="M76.4196 20.8398H74.0996V23.1598H76.4196V20.8398Z" fill="white"/>
<path d="M74.1091 20.8398H71.7891V23.1598H74.1091V20.8398Z" fill="white"/>
<path d="M71.7907 20.8398H69.4707V23.1598H71.7907V20.8398Z" fill="white"/>
<path d="M69.4802 20.8398H67.1602V23.1598H69.4802V20.8398Z" fill="white"/>
<path d="M67.1598 20.8398H64.8398V23.1598H67.1598V20.8398Z" fill="white"/>
<path d="M64.8395 20.8398H62.5195V23.1598H64.8395V20.8398Z" fill="white"/>
<path d="M62.5309 20.8398H60.2109V23.1598H62.5309V20.8398Z" fill="white"/>
<path d="M60.2106 20.8398H57.8906V23.1598H60.2106V20.8398Z" fill="white"/>
<path d="M57.9001 20.8398H55.5801V23.1598H57.9001V20.8398Z" fill="white"/>
<path d="M55.5798 20.8398H53.2598V23.1598H55.5798V20.8398Z" fill="white"/>
<path d="M53.2595 20.8398H50.9395V23.1598H53.2595V20.8398Z" fill="white"/>
<path d="M50.9509 20.8398H48.6309V23.1598H50.9509V20.8398Z" fill="white"/>
<path d="M48.6305 20.8398H46.3105V23.1598H48.6305V20.8398Z" fill="white"/>
<path d="M46.32 20.8398H44V23.1598H46.32V20.8398Z" fill="white"/>
<path d="M43.9997 20.8398H41.6797V23.1598H43.9997V20.8398Z" fill="white"/>
<path d="M41.6891 20.8398H39.3691V23.1598H41.6891V20.8398Z" fill="white"/>
<path d="M39.3708 20.8398H37.0508V23.1598H39.3708V20.8398Z" fill="white"/>
<path d="M37.0505 20.8398H34.7305V23.1598H37.0505V20.8398Z" fill="white"/>
<path d="M34.7399 20.8398H32.4199V23.1598H34.7399V20.8398Z" fill="white"/>
<path d="M32.4196 20.8398H30.0996V23.1598H32.4196V20.8398Z" fill="white"/>
<path d="M30.1091 20.8398H27.7891V23.1598H30.1091V20.8398Z" fill="white"/>
<path d="M27.7907 20.8398H25.4707V23.1598H27.7907V20.8398Z" fill="white"/>
<path d="M25.4802 20.8398H23.1602V23.1598H25.4802V20.8398Z" fill="white"/>
<path d="M23.1598 20.8398H20.8398V23.1598H23.1598V20.8398Z" fill="white"/>
<path d="M20.8395 20.8398H18.5195V23.1598H20.8395V20.8398Z" fill="white"/>
<path d="M18.5309 20.8398H16.2109V23.1598H18.5309V20.8398Z" fill="white"/>
<path d="M16.2106 20.8398H13.8906V23.1598H16.2106V20.8398Z" fill="white"/>
<path d="M13.9001 20.8398H11.5801V23.1598H13.9001V20.8398Z" fill="white"/>
<path d="M11.5798 20.8398H9.25977V23.1598H11.5798V20.8398Z" fill="white"/>
<path d="M9.26922 20.8398H6.94922V23.1598H9.26922V20.8398Z" fill="white"/>
<path d="M6.95086 20.8398H4.63086V23.1598H6.95086V20.8398Z" fill="white"/>
<path d="M4.63055 20.8398H2.31055V23.1598H4.63055V20.8398Z" fill="black"/>
<path d="M76.4196 18.5293H74.0996V20.8493H76.4196V18.5293Z" fill="black"/>
<path d="M74.1091 18.5293H71.7891V20.8493H74.1091V18.5293Z" fill="white"/>
<path d="M71.7907 18.5293H69.4707V20.8493H71.7907V18.5293Z" fill="white"/>
<path d="M69.4802 18.5293H67.1602V20.8493H69.4802V18.5293Z" fill="white"/>
<path d="M67.1598 18.5293H64.8398V20.8493H67.1598V18.5293Z" fill="white"/>
<path d="M64.8395 18.5293H62.5195V20.8493H64.8395V18.5293Z" fill="white"/>
<path d="M62.5309 18.5293H60.2109V20.8493H62.5309V18.5293Z" fill="white"/>
<path d="M60.2106 18.5293H57.8906V20.8493H60.2106V18.5293Z" fill="white"/>
<path d="M57.9001 18.5293H55.5801V20.8493H57.9001V18.5293Z" fill="white"/>
<path d="M55.5798 18.5293H53.2598V20.8493H55.5798V18.5293Z" fill="white"/>
<path d="M53.2595 18.5293H50.9395V20.8493H53.2595V18.5293Z" fill="white"/>
<path d="M50.9509 18.5293H48.6309V20.8493H50.9509V18.5293Z" fill="white"/>
<path d="M48.6305 18.5293H46.3105V20.8493H48.6305V18.5293Z" fill="white"/>
<path d="M46.32 18.5293H44V20.8493H46.32V18.5293Z" fill="white"/>
<path d="M43.9997 18.5293H41.6797V20.8493H43.9997V18.5293Z" fill="white"/>
<path d="M41.6891 18.5293H39.3691V20.8493H41.6891V18.5293Z" fill="white"/>
<path d="M39.3708 18.5293H37.0508V20.8493H39.3708V18.5293Z" fill="white"/>
<path d="M37.0505 18.5293H34.7305V20.8493H37.0505V18.5293Z" fill="white"/>
<path d="M34.7399 18.5293H32.4199V20.8493H34.7399V18.5293Z" fill="white"/>
<path d="M32.4196 18.5293H30.0996V20.8493H32.4196V18.5293Z" fill="white"/>
<path d="M30.1091 18.5293H27.7891V20.8493H30.1091V18.5293Z" fill="white"/>
<path d="M27.7907 18.5293H25.4707V20.8493H27.7907V18.5293Z" fill="white"/>
<path d="M25.4802 18.5293H23.1602V20.8493H25.4802V18.5293Z" fill="white"/>
<path d="M23.1598 18.5293H20.8398V20.8493H23.1598V18.5293Z" fill="white"/>
<path d="M20.8395 18.5293H18.5195V20.8493H20.8395V18.5293Z" fill="white"/>
<path d="M18.5309 18.5293H16.2109V20.8493H18.5309V18.5293Z" fill="white"/>
<path d="M16.2106 18.5293H13.8906V20.8493H16.2106V18.5293Z" fill="white"/>
<path d="M13.9001 18.5293H11.5801V20.8493H13.9001V18.5293Z" fill="white"/>
<path d="M11.5798 18.5293H9.25977V20.8493H11.5798V18.5293Z" fill="white"/>
<path d="M9.26922 18.5293H6.94922V20.8493H9.26922V18.5293Z" fill="white"/>
<path d="M6.95086 18.5293H4.63086V20.8493H6.95086V18.5293Z" fill="black"/>
<path d="M74.1091 16.2109H71.7891V18.5309H74.1091V16.2109Z" fill="black"/>
<path d="M71.7907 16.2109H69.4707V18.5309H71.7907V16.2109Z" fill="white"/>
<path d="M69.4802 16.2109H67.1602V18.5309H69.4802V16.2109Z" fill="white"/>
<path d="M67.1598 16.2109H64.8398V18.5309H67.1598V16.2109Z" fill="white"/>
<path d="M64.8395 16.2109H62.5195V18.5309H64.8395V16.2109Z" fill="black"/>
<path d="M62.5309 16.2109H60.2109V18.5309H62.5309V16.2109Z" fill="white"/>
<path d="M60.2106 16.2109H57.8906V18.5309H60.2106V16.2109Z" fill="white"/>
<path d="M57.9001 16.2109H55.5801V18.5309H57.9001V16.2109Z" fill="white"/>
<path d="M55.5798 16.2109H53.2598V18.5309H55.5798V16.2109Z" fill="white"/>
<path d="M53.2595 16.2109H50.9395V18.5309H53.2595V16.2109Z" fill="white"/>
<path d="M50.9509 16.2109H48.6309V18.5309H50.9509V16.2109Z" fill="white"/>
<path d="M48.6305 16.2109H46.3105V18.5309H48.6305V16.2109Z" fill="white"/>
<path d="M46.32 16.2109H44V18.5309H46.32V16.2109Z" fill="white"/>
<path d="M43.9997 16.2109H41.6797V18.5309H43.9997V16.2109Z" fill="white"/>
<path d="M41.6891 16.2109H39.3691V18.5309H41.6891V16.2109Z" fill="white"/>
<path d="M39.3708 16.2109H37.0508V18.5309H39.3708V16.2109Z" fill="white"/>
<path d="M37.0505 16.2109H34.7305V18.5309H37.0505V16.2109Z" fill="white"/>
<path d="M34.7399 16.2109H32.4199V18.5309H34.7399V16.2109Z" fill="white"/>
<path d="M32.4196 16.2109H30.0996V18.5309H32.4196V16.2109Z" fill="white"/>
<path d="M30.1091 16.2109H27.7891V18.5309H30.1091V16.2109Z" fill="white"/>
<path d="M27.7907 16.2109H25.4707V18.5309H27.7907V16.2109Z" fill="white"/>
<path d="M25.4802 16.2109H23.1602V18.5309H25.4802V16.2109Z" fill="white"/>
<path d="M23.1598 16.2109H20.8398V18.5309H23.1598V16.2109Z" fill="white"/>
<path d="M20.8395 16.2109H18.5195V18.5309H20.8395V16.2109Z" fill="white"/>
<path d="M18.5309 16.2109H16.2109V18.5309H18.5309V16.2109Z" fill="black"/>
<path d="M16.2106 16.2109H13.8906V18.5309H16.2106V16.2109Z" fill="black"/>
<path d="M13.9001 16.2109H11.5801V18.5309H13.9001V16.2109Z" fill="black"/>
<path d="M11.5798 16.2109H9.25977V18.5309H11.5798V16.2109Z" fill="black"/>
<path d="M9.26922 16.2109H6.94922V18.5309H9.26922V16.2109Z" fill="black"/>
<path d="M71.7907 13.8906H69.4707V16.2106H71.7907V13.8906Z" fill="black"/>
<path d="M69.4802 13.8906H67.1602V16.2106H69.4802V13.8906Z" fill="black"/>
<path d="M67.1598 13.8906H64.8398V16.2106H67.1598V13.8906Z" fill="black"/>
<path d="M64.8395 13.8906H62.5195V16.2106H64.8395V13.8906Z" fill="black"/>
<path d="M62.5309 13.8906H60.2109V16.2106H62.5309V13.8906Z" fill="white"/>
<path d="M60.2106 13.8906H57.8906V16.2106H60.2106V13.8906Z" fill="white"/>
<path d="M57.9001 13.8906H55.5801V16.2106H57.9001V13.8906Z" fill="white"/>
<path d="M55.5798 13.8906H53.2598V16.2106H55.5798V13.8906Z" fill="white"/>
<path d="M53.2595 13.8906H50.9395V16.2106H53.2595V13.8906Z" fill="white"/>
<path d="M50.9509 13.8906H48.6309V16.2106H50.9509V13.8906Z" fill="white"/>
<path d="M48.6305 13.8906H46.3105V16.2106H48.6305V13.8906Z" fill="white"/>
<path d="M46.32 13.8906H44V16.2106H46.32V13.8906Z" fill="white"/>
<path d="M43.9997 13.8906H41.6797V16.2106H43.9997V13.8906Z" fill="white"/>
<path d="M41.6891 13.8906H39.3691V16.2106H41.6891V13.8906Z" fill="white"/>
<path d="M39.3708 13.8906H37.0508V16.2106H39.3708V13.8906Z" fill="white"/>
<path d="M37.0505 13.8906H34.7305V16.2106H37.0505V13.8906Z" fill="white"/>
<path d="M34.7399 13.8906H32.4199V16.2106H34.7399V13.8906Z" fill="white"/>
<path d="M32.4196 13.8906H30.0996V16.2106H32.4196V13.8906Z" fill="white"/>
<path d="M30.1091 13.8906H27.7891V16.2106H30.1091V13.8906Z" fill="white"/>
<path d="M27.7907 13.8906H25.4707V16.2106H27.7907V13.8906Z" fill="white"/>
<path d="M25.4802 13.8906H23.1602V16.2106H25.4802V13.8906Z" fill="white"/>
<path d="M23.1598 13.8906H20.8398V16.2106H23.1598V13.8906Z" fill="white"/>
<path d="M20.8395 13.8906H18.5195V16.2106H20.8395V13.8906Z" fill="white"/>
<path d="M18.5309 13.8906H16.2109V16.2106H18.5309V13.8906Z" fill="black"/>
<path d="M62.5309 11.5801H60.2109V13.9001H62.5309V11.5801Z" fill="black"/>
<path d="M60.2106 11.5801H57.8906V13.9001H60.2106V11.5801Z" fill="white"/>
<path d="M57.9001 11.5801H55.5801V13.9001H57.9001V11.5801Z" fill="white"/>
<path d="M55.5798 11.5801H53.2598V13.9001H55.5798V11.5801Z" fill="white"/>
<path d="M53.2595 11.5801H50.9395V13.9001H53.2595V11.5801Z" fill="white"/>
<path d="M50.9509 11.5801H48.6309V13.9001H50.9509V11.5801Z" fill="white"/>
<path d="M48.6305 11.5801H46.3105V13.9001H48.6305V11.5801Z" fill="black"/>
<path d="M46.32 11.5801H44V13.9001H46.32V11.5801Z" fill="white"/>
<path d="M43.9997 11.5801H41.6797V13.9001H43.9997V11.5801Z" fill="white"/>
<path d="M41.6891 11.5801H39.3691V13.9001H41.6891V11.5801Z" fill="white"/>
<path d="M39.3708 11.5801H37.0508V13.9001H39.3708V11.5801Z" fill="white"/>
<path d="M37.0505 11.5801H34.7305V13.9001H37.0505V11.5801Z" fill="white"/>
<path d="M34.7399 11.5801H32.4199V13.9001H34.7399V11.5801Z" fill="white"/>
<path d="M32.4196 11.5801H30.0996V13.9001H32.4196V11.5801Z" fill="white"/>
<path d="M30.1091 11.5801H27.7891V13.9001H30.1091V11.5801Z" fill="white"/>
<path d="M27.7907 11.5801H25.4707V13.9001H27.7907V11.5801Z" fill="white"/>
<path d="M25.4802 11.5801H23.1602V13.9001H25.4802V11.5801Z" fill="white"/>
<path d="M23.1598 11.5801H20.8398V13.9001H23.1598V11.5801Z" fill="white"/>
<path d="M20.8395 11.5801H18.5195V13.9001H20.8395V11.5801Z" fill="white"/>
<path d="M18.5309 11.5801H16.2109V13.9001H18.5309V11.5801Z" fill="black"/>
<path d="M60.2106 9.25977H57.8906V11.5798H60.2106V9.25977Z" fill="black"/>
<path d="M57.9001 9.25977H55.5801V11.5798H57.9001V9.25977Z" fill="white"/>
<path d="M55.5798 9.25977H53.2598V11.5798H55.5798V9.25977Z" fill="white"/>
<path d="M53.2595 9.25977H50.9395V11.5798H53.2595V9.25977Z" fill="white"/>
<path d="M50.9509 9.25977H48.6309V11.5798H50.9509V9.25977Z" fill="black"/>
<path d="M48.6305 9.25977H46.3105V11.5798H48.6305V9.25977Z" fill="white"/>
<path d="M46.32 9.25977H44V11.5798H46.32V9.25977Z" fill="white"/>
<path d="M43.9997 9.25977H41.6797V11.5798H43.9997V9.25977Z" fill="white"/>
<path d="M41.6891 9.25977H39.3691V11.5798H41.6891V9.25977Z" fill="white"/>
<path d="M39.3708 9.25977H37.0508V11.5798H39.3708V9.25977Z" fill="white"/>
<path d="M37.0505 9.25977H34.7305V11.5798H37.0505V9.25977Z" fill="white"/>
<path d="M34.7399 9.25977H32.4199V11.5798H34.7399V9.25977Z" fill="white"/>
<path d="M32.4196 9.25977H30.0996V11.5798H32.4196V9.25977Z" fill="white"/>
<path d="M30.1091 9.25977H27.7891V11.5798H30.1091V9.25977Z" fill="white"/>
<path d="M27.7907 9.25977H25.4707V11.5798H27.7907V9.25977Z" fill="white"/>
<path d="M25.4802 9.25977H23.1602V11.5798H25.4802V9.25977Z" fill="white"/>
<path d="M23.1598 9.25977H20.8398V11.5798H23.1598V9.25977Z" fill="white"/>
<path d="M20.8395 9.25977H18.5195V11.5798H20.8395V9.25977Z" fill="black"/>
<path d="M57.9001 6.94922H55.5801V9.26922H57.9001V6.94922Z" fill="black"/>
<path d="M55.5798 6.94922H53.2598V9.26922H55.5798V6.94922Z" fill="black"/>
<path d="M53.2595 6.94922H50.9395V9.26922H53.2595V6.94922Z" fill="black"/>
<path d="M48.6305 6.94922H46.3105V9.26922H48.6305V6.94922Z" fill="black"/>
<path d="M46.32 6.94922H44V9.26922H46.32V6.94922Z" fill="white"/>
<path d="M43.9997 6.94922H41.6797V9.26922H43.9997V6.94922Z" fill="white"/>
<path d="M41.6891 6.94922H39.3691V9.26922H41.6891V6.94922Z" fill="white"/>
<path d="M39.3708 6.94922H37.0508V9.26922H39.3708V6.94922Z" fill="white"/>
<path d="M37.0505 6.94922H34.7305V9.26922H37.0505V6.94922Z" fill="white"/>
<path d="M34.7399 6.94922H32.4199V9.26922H34.7399V6.94922Z" fill="white"/>
<path d="M32.4196 6.94922H30.0996V9.26922H32.4196V6.94922Z" fill="white"/>
<path d="M30.1091 6.94922H27.7891V9.26922H30.1091V6.94922Z" fill="white"/>
<path d="M27.7907 6.94922H25.4707V9.26922H27.7907V6.94922Z" fill="white"/>
<path d="M25.4802 6.94922H23.1602V9.26922H25.4802V6.94922Z" fill="white"/>
<path d="M23.1598 6.94922H20.8398V9.26922H23.1598V6.94922Z" fill="black"/>
<path d="M46.32 4.63086H44V6.95086H46.32V4.63086Z" fill="black"/>
<path d="M43.9997 4.63086H41.6797V6.95086H43.9997V4.63086Z" fill="white"/>
<path d="M41.6891 4.63086H39.3691V6.95086H41.6891V4.63086Z" fill="white"/>
<path d="M39.3708 4.63086H37.0508V6.95086H39.3708V4.63086Z" fill="white"/>
<path d="M37.0505 4.63086H34.7305V6.95086H37.0505V4.63086Z" fill="white"/>
<path d="M34.7399 4.63086H32.4199V6.95086H34.7399V4.63086Z" fill="white"/>
<path d="M32.4196 4.63086H30.0996V6.95086H32.4196V4.63086Z" fill="white"/>
<path d="M30.1091 4.63086H27.7891V6.95086H30.1091V4.63086Z" fill="white"/>
<path d="M27.7907 4.63086H25.4707V6.95086H27.7907V4.63086Z" fill="white"/>
<path d="M25.4802 4.63086H23.1602V6.95086H25.4802V4.63086Z" fill="black"/>
<path d="M43.9997 2.32031H41.6797V4.64031H43.9997V2.32031Z" fill="black"/>
<path d="M41.6891 2.32031H39.3691V4.64031H41.6891V2.32031Z" fill="black"/>
<path d="M39.3708 2.32031H37.0508V4.64031H39.3708V2.32031Z" fill="white"/>
<path d="M37.0505 2.32031H34.7305V4.64031H37.0505V2.32031Z" fill="white"/>
<path d="M34.7399 2.32031H32.4199V4.64031H34.7399V2.32031Z" fill="white"/>
<path d="M32.4196 2.32031H30.0996V4.64031H32.4196V2.32031Z" fill="white"/>
<path d="M30.1091 2.32031H27.7891V4.64031H30.1091V2.32031Z" fill="black"/>
<path d="M27.7907 2.32031H25.4707V4.64031H27.7907V2.32031Z" fill="black"/>
<path d="M39.3708 0H37.0508V2.32H39.3708V0Z" fill="black"/>
<path d="M37.0505 0H34.7305V2.32H37.0505V0Z" fill="black"/>
<path d="M34.7399 0H32.4199V2.32H34.7399V0Z" fill="black"/>
<path d="M32.4196 0H30.0996V2.32H32.4196V0Z" fill="black"/>
<path d="M19.9195 20.7695V21.5995H20.7495V24.9195H19.9195V25.7495H15.7795V24.9195H19.0895V24.0895H16.5995V23.2595H15.7695V21.5995H16.5995V20.7695H19.9095H19.9195ZM19.0895 23.2595V21.5995H17.4295V23.2595H19.0895Z" fill="black"/>
<path d="M24.0584 20.7695V24.9095H23.2284V25.7395H21.5684V24.9095H22.3984V20.7695H24.0584Z" fill="black"/>
<path d="M29.8591 20.7691V24.9091H29.0291V25.7391H26.5391V24.9091H28.1991V20.7691H29.8591ZM29.8591 19.1191V19.9491H28.1991V19.1191H29.8591Z" fill="black"/>
<path d="M32.3495 18.2891V24.0891H30.6895V18.2891H32.3495Z" fill="black"/>
<path d="M40.6281 18.2891V19.1191H39.7981V19.9491H38.9681V20.7791H40.6281V21.6091H41.4581V23.2691H42.2881V24.0991H35.6581V23.2691H34.8281V21.6091H36.4881V23.2691H39.7981V21.6091H38.1381V20.7791H37.3081V19.9491H38.1381V19.1191H38.9681V18.2891H40.6281Z" fill="black"/>
<path d="M43.119 24.9195C43.399 25.1995 43.399 25.4695 43.119 25.7495H41.459V24.9195H43.119ZM43.949 23.2595V20.7695H45.609V23.2595H46.439V24.0895H42.299C42.019 23.8095 42.019 23.5395 42.299 23.2595H43.959H43.949ZM44.779 24.9195V25.7495H43.119C42.839 25.4695 42.839 25.1995 43.119 24.9195H44.779Z" fill="black"/>
<path d="M47.2596 23.2591V18.2891H48.9196V23.2591H49.7496V24.0891H46.5596C46.2796 23.8091 46.2796 23.5391 46.5596 23.2591H47.2696H47.2596Z" fill="black"/>
<path d="M53.8891 18.2891V19.1191H53.0591V19.9491H52.2291V20.7791H53.8891V21.6091H54.7191V23.2691H53.8891V24.0991H49.7491C49.4691 23.8191 49.4691 23.5491 49.7491 23.2691H53.0591V21.6091H51.3991V20.7791H50.5691V19.9491H51.3991V19.1191H52.2291V18.2891H53.8891Z" fill="black"/>
<path d="M58.039 24.0891V23.2591H57.209V18.2891H58.869V23.2591H59.699V24.0891H58.039Z" fill="black"/>
<path d="M61.3485 23.2595V20.7695H63.0085V23.2595H62.1785V24.0895H59.6885C59.4085 23.8095 59.4085 23.5395 59.6885 23.2595H61.3485ZM62.1785 24.9195V25.7495H60.5185V24.9195H62.1785Z" fill="black"/>
<path d="M17.0089 34.029H13.6989V33.199H12.8689V31.539H12.0389V35.679H10.3789V31.539H11.2089V30.709H17.0089V31.539H17.8389V33.199H17.0089V34.029ZM16.1889 31.549H14.5289V33.209H16.1889V31.549Z" fill="black"/>
<path d="M21.1598 34.0287V34.8588H20.3298V35.6887H17.8398V34.8588H19.4998V30.7188H21.1598V33.2087H21.9898V34.0388H21.1598V34.0287Z" fill="black"/>
<path d="M23.6395 33.199V30.709H25.2995V33.199H24.4695V34.029H21.9795C21.6995 33.749 21.6995 33.479 21.9795 33.199H23.6395ZM23.6395 34.859C23.9195 35.139 23.9195 35.409 23.6395 35.689H21.9795V34.859H23.6395ZM24.4695 36.519V37.349H22.8095V36.519H24.4695ZM25.2995 34.859V35.689H23.6395C23.3595 35.409 23.3595 35.139 23.6395 34.859H25.2995Z" fill="black"/>
<path d="M31.0991 34.8591V34.0291H28.6091V33.1991H33.5791V34.0291H32.7491V34.8591H31.9191V35.6891H26.9491V34.8591H26.1191V31.5391H27.7791V34.8591H31.0891H31.0991Z" fill="black"/>
<path d="M38.5589 34.029H33.5889C33.3089 33.749 33.3089 33.479 33.5889 33.199H34.4189V31.539H35.2489V30.709H38.5589V31.539H39.3889V33.199H38.5589V34.029ZM37.7289 31.549H36.0689V33.209H37.7289V31.549Z" fill="black"/>
<path d="M41.8691 32.3788V30.7188H47.6691V32.3788H46.8391V33.2087H48.4991V34.0388H43.5291V35.6988H46.8391V36.5287H42.6991V35.6988H41.8691V34.0388H42.6991V32.3788H41.8691ZM45.1891 33.1988V32.3687H46.0191V31.5388H43.5291V32.3687H44.3591V33.1988H45.1891Z" fill="black"/>
<path d="M50.1591 33.1986V30.7086H51.8191V33.1986H50.9891V34.0286H48.4991C48.2191 33.7486 48.2191 33.4786 48.4991 33.1986H50.1591ZM50.9891 29.0586V29.8886H49.3291V29.0586H50.9891Z" fill="black"/>
<path d="M54.2987 28.2285V34.0285H52.6387V28.2285H54.2987Z" fill="black"/>
<path d="M59.2789 30.7188V31.5487H60.1089V33.2087H60.9389V34.0388H60.1089V34.8687H59.2789V35.6988H55.1389V34.8687H58.4489V34.0388H55.9589V33.2087H55.1289V31.5487H55.9589V30.7188H59.2689H59.2789ZM58.4489 33.1988V31.5388H56.7889V33.1988H58.4489Z" fill="black"/>
<path d="M65.9085 34.029H60.9385C60.6585 33.749 60.6585 33.479 60.9385 33.199H61.7685V31.539H62.5985V30.709H65.9085V31.539H66.7385V33.199H65.9085V34.029ZM65.0785 31.549H63.4185V33.209H65.0785V31.549Z" fill="black"/>
</svg>
