<svg width="17" height="48" viewBox="0 0 17 48" fill="none" xmlns="http://www.w3.org/2000/svg">
<path d="M1.07999 4.31055H0V5.39055H1.07999V4.31055Z" fill="#1D1D1B"/>
<path d="M2.16006 4.31055H1.08008V5.39055H2.16006V4.31055Z" fill="#1D1D1B"/>
<path d="M3.24017 4.31055H2.16016V5.39055H3.24017V4.31055Z" fill="#1D1D1B"/>
<path d="M3.24017 0H2.16016V1.08H3.24017V0Z" fill="#41556C"/>
<path d="M4.32022 46.3496H3.24023V47.4296H4.32022V46.3496Z" fill="#1D1D1B"/>
<path d="M4.32022 32.3301H3.24023V33.4101H4.32022V32.3301Z" fill="#FBC677"/>
<path d="M4.32022 31.2598H3.24023V32.3398H4.32022V31.2598Z" fill="#FBC677"/>
<path d="M4.32022 30.1797H3.24023V31.2597H4.32022V30.1797Z" fill="#41556C"/>
<path d="M4.32022 29.0996H3.24023V30.1796H4.32022V29.0996Z" fill="#41556C"/>
<path d="M4.32022 28.0195H3.24023V29.0995H4.32022V28.0195Z" fill="#41556C"/>
<path d="M4.32022 26.9395H3.24023V28.0194H4.32022V26.9395Z" fill="#41556C"/>
<path d="M4.32022 25.8691H3.24023V26.9491H4.32022V25.8691Z" fill="#41556C"/>
<path d="M4.32022 24.7891H3.24023V25.8691H4.32022V24.7891Z" fill="#41556C"/>
<path d="M4.32022 23.7109H3.24023V24.7909H4.32022V23.7109Z" fill="#41556C"/>
<path d="M4.32022 22.6309H3.24023V23.7109H4.32022V22.6309Z" fill="#41556C"/>
<path d="M4.32022 21.5508H3.24023V22.6308H4.32022V21.5508Z" fill="#41556C"/>
<path d="M4.32022 20.4805H3.24023V21.5605H4.32022V20.4805Z" fill="#41556C"/>
<path d="M4.32022 19.4004H3.24023V20.4804H4.32022V19.4004Z" fill="#41556C"/>
<path d="M4.32022 18.3203H3.24023V19.4003H4.32022V18.3203Z" fill="#41556C"/>
<path d="M4.32022 17.2402H3.24023V18.3202H4.32022V17.2402Z" fill="#41556C"/>
<path d="M4.32022 11.8496H3.24023V12.9296H4.32022V11.8496Z" fill="#F6A85E"/>
<path d="M4.32022 10.7793H3.24023V11.8593H4.32022V10.7793Z" fill="#F6A85E"/>
<path d="M4.32022 7.53906H3.24023V8.61906H4.32022V7.53906Z" fill="#F6A85E"/>
<path d="M4.32022 6.46094H3.24023V7.54094H4.32022V6.46094Z" fill="#F6A85E"/>
<path d="M4.32022 5.39062H3.24023V6.47063H4.32022V5.39062Z" fill="#F6A85E"/>
<path d="M4.32022 4.31055H3.24023V5.39055H4.32022V4.31055Z" fill="#1D1D1B"/>
<path d="M4.32022 0H3.24023V1.08H4.32022V0Z" fill="#41556C"/>
<path d="M5.40033 46.3496H4.32031V47.4296H5.40033V46.3496Z" fill="#1D1D1B"/>
<path d="M5.40033 31.2598H4.32031V32.3398H5.40033V31.2598Z" fill="#41556C"/>
<path d="M5.40033 30.1797H4.32031V31.2597H5.40033V30.1797Z" fill="#41556C"/>
<path d="M5.40033 29.0996H4.32031V30.1796H5.40033V29.0996Z" fill="#41556C"/>
<path d="M5.40033 28.0195H4.32031V29.0995H5.40033V28.0195Z" fill="#41556C"/>
<path d="M5.40033 26.9395H4.32031V28.0194H5.40033V26.9395Z" fill="#41556C"/>
<path d="M5.40033 25.8691H4.32031V26.9491H5.40033V25.8691Z" fill="#41556C"/>
<path d="M5.40033 24.7891H4.32031V25.8691H5.40033V24.7891Z" fill="#41556C"/>
<path d="M5.40033 23.7109H4.32031V24.7909H5.40033V23.7109Z" fill="#41556C"/>
<path d="M5.40033 22.6309H4.32031V23.7109H5.40033V22.6309Z" fill="#41556C"/>
<path d="M5.40033 21.5508H4.32031V22.6308H5.40033V21.5508Z" fill="#41556C"/>
<path d="M5.40033 20.4805H4.32031V21.5605H5.40033V20.4805Z" fill="#41556C"/>
<path d="M5.40033 19.4004H4.32031V20.4804H5.40033V19.4004Z" fill="#41556C"/>
<path d="M5.40033 18.3203H4.32031V19.4003H5.40033V18.3203Z" fill="#41556C"/>
<path d="M5.40033 17.2402H4.32031V18.3202H5.40033V17.2402Z" fill="#41556C"/>
<path d="M5.40033 16.1699H4.32031V17.2499H5.40033V16.1699Z" fill="#41556C"/>
<path d="M5.40033 12.9297H4.32031V14.0097H5.40033V12.9297Z" fill="#F6A85E"/>
<path d="M5.40033 11.8496H4.32031V12.9296H5.40033V11.8496Z" fill="#FBC677"/>
<path d="M5.40033 10.7793H4.32031V11.8593H5.40033V10.7793Z" fill="#FBC677"/>
<path d="M5.40033 9.69922H4.32031V10.7792H5.40033V9.69922Z" fill="#F6A85E"/>
<path d="M5.40033 8.61914H4.32031V9.69913H5.40033V8.61914Z" fill="#F6A85E"/>
<path d="M5.40033 7.53906H4.32031V8.61906H5.40033V7.53906Z" fill="#FBC677"/>
<path d="M5.40033 6.46094H4.32031V7.54094H5.40033V6.46094Z" fill="#FBC677"/>
<path d="M5.40033 5.39062H4.32031V6.47063H5.40033V5.39062Z" fill="#F6A85E"/>
<path d="M5.40033 4.31055H4.32031V5.39055H5.40033V4.31055Z" fill="#1D1D1B"/>
<path d="M5.40033 3.23047H4.32031V4.31046H5.40033V3.23047Z" fill="#41556C"/>
<path d="M5.40033 2.15039H4.32031V3.23039H5.40033V2.15039Z" fill="#41556C"/>
<path d="M5.40033 1.07031H4.32031V2.15031H5.40033V1.07031Z" fill="#41556C"/>
<path d="M5.40033 0H4.32031V1.08H5.40033V0Z" fill="#41556C"/>
<path d="M6.47061 46.3496H5.39062V47.4296H6.47061V46.3496Z" fill="#1D1D1B"/>
<path d="M6.47061 45.2695H5.39062V46.3495H6.47061V45.2695Z" fill="#1D1D1B"/>
<path d="M6.47061 44.1895H5.39062V45.2694H6.47061V44.1895Z" fill="#41556C"/>
<path d="M6.47061 43.1094H5.39062V44.1894H6.47061V43.1094Z" fill="#41556C"/>
<path d="M6.47061 42.0293H5.39062V43.1093H6.47061V42.0293Z" fill="#41556C"/>
<path d="M6.47061 40.9609H5.39062V42.0409H6.47061V40.9609Z" fill="#41556C"/>
<path d="M6.47061 39.8809H5.39062V40.9609H6.47061V39.8809Z" fill="#41556C"/>
<path d="M6.47061 38.8008H5.39062V39.8808H6.47061V38.8008Z" fill="#41556C"/>
<path d="M6.47061 37.7207H5.39062V38.8007H6.47061V37.7207Z" fill="#41556C"/>
<path d="M6.47061 36.6406H5.39062V37.7206H6.47061V36.6406Z" fill="#41556C"/>
<path d="M6.47061 35.5703H5.39062V36.6503H6.47061V35.5703Z" fill="#41556C"/>
<path d="M6.47061 34.4902H5.39062V35.5702H6.47061V34.4902Z" fill="#41556C"/>
<path d="M6.47061 33.4102H5.39062V34.4902H6.47061V33.4102Z" fill="#41556C"/>
<path d="M6.47061 32.3301H5.39062V33.4101H6.47061V32.3301Z" fill="#41556C"/>
<path d="M6.47061 31.2598H5.39062V32.3398H6.47061V31.2598Z" fill="#41556C"/>
<path d="M6.47061 30.1797H5.39062V31.2597H6.47061V30.1797Z" fill="#41556C"/>
<path d="M6.47061 29.0996H5.39062V30.1796H6.47061V29.0996Z" fill="#41556C"/>
<path d="M6.47061 28.0195H5.39062V29.0995H6.47061V28.0195Z" fill="#41556C"/>
<path d="M6.47061 26.9395H5.39062V28.0194H6.47061V26.9395Z" fill="#41556C"/>
<path d="M6.47061 25.8691H5.39062V26.9491H6.47061V25.8691Z" fill="#41556C"/>
<path d="M6.47061 24.7891H5.39062V25.8691H6.47061V24.7891Z" fill="#41556C"/>
<path d="M6.47061 23.7109H5.39062V24.7909H6.47061V23.7109Z" fill="#41556C"/>
<path d="M6.47061 22.6309H5.39062V23.7109H6.47061V22.6309Z" fill="#41556C"/>
<path d="M6.47061 21.5508H5.39062V22.6308H6.47061V21.5508Z" fill="#41556C"/>
<path d="M6.47061 20.4805H5.39062V21.5605H6.47061V20.4805Z" fill="#41556C"/>
<path d="M6.47061 19.4004H5.39062V20.4804H6.47061V19.4004Z" fill="#334457"/>
<path d="M6.47061 18.3203H5.39062V19.4003H6.47061V18.3203Z" fill="#334457"/>
<path d="M6.47061 17.2402H5.39062V18.3202H6.47061V17.2402Z" fill="#334457"/>
<path d="M6.47061 16.1699H5.39062V17.2499H6.47061V16.1699Z" fill="#334457"/>
<path d="M6.47061 14.0098H5.39062V15.0898H6.47061V14.0098Z" fill="#F6A85E"/>
<path d="M6.47061 12.9297H5.39062V14.0097H6.47061V12.9297Z" fill="#FBC677"/>
<path d="M6.47061 11.8496H5.39062V12.9296H6.47061V11.8496Z" fill="#FBC677"/>
<path d="M6.47061 10.7793H5.39062V11.8593H6.47061V10.7793Z" fill="#FBC677"/>
<path d="M6.47061 9.69922H5.39062V10.7792H6.47061V9.69922Z" fill="#FBC677"/>
<path d="M6.47061 8.61914H5.39062V9.69913H6.47061V8.61914Z" fill="#FBC677"/>
<path d="M6.47061 7.53906H5.39062V8.61906H6.47061V7.53906Z" fill="#1D1D1B"/>
<path d="M6.47061 6.46094H5.39062V7.54094H6.47061V6.46094Z" fill="#1D1D1B"/>
<path d="M6.47061 5.39062H5.39062V6.47063H6.47061V5.39062Z" fill="#F6A85E"/>
<path d="M6.47061 4.31055H5.39062V5.39055H6.47061V4.31055Z" fill="#334457"/>
<path d="M6.47061 3.23047H5.39062V4.31046H6.47061V3.23047Z" fill="#41556C"/>
<path d="M6.47061 2.15039H5.39062V3.23039H6.47061V2.15039Z" fill="#FFE000"/>
<path d="M6.47061 1.07031H5.39062V2.15031H6.47061V1.07031Z" fill="#41556C"/>
<path d="M6.47061 0H5.39062V1.08H6.47061V0Z" fill="#41556C"/>
<path d="M7.55072 46.3496H6.4707V47.4296H7.55072V46.3496Z" fill="#1D1D1B"/>
<path d="M7.55072 45.2695H6.4707V46.3495H7.55072V45.2695Z" fill="#1D1D1B"/>
<path d="M7.55072 44.1895H6.4707V45.2694H7.55072V44.1895Z" fill="#334457"/>
<path d="M7.55072 43.1094H6.4707V44.1894H7.55072V43.1094Z" fill="#334457"/>
<path d="M7.55072 42.0293H6.4707V43.1093H7.55072V42.0293Z" fill="#334457"/>
<path d="M7.55072 40.9609H6.4707V42.0409H7.55072V40.9609Z" fill="#334457"/>
<path d="M7.55072 39.8809H6.4707V40.9609H7.55072V39.8809Z" fill="#334457"/>
<path d="M7.55072 38.8008H6.4707V39.8808H7.55072V38.8008Z" fill="#334457"/>
<path d="M7.55072 37.7207H6.4707V38.8007H7.55072V37.7207Z" fill="#334457"/>
<path d="M7.55072 36.6406H6.4707V37.7206H7.55072V36.6406Z" fill="#334457"/>
<path d="M7.55072 35.5703H6.4707V36.6503H7.55072V35.5703Z" fill="#334457"/>
<path d="M7.55072 34.4902H6.4707V35.5702H7.55072V34.4902Z" fill="#334457"/>
<path d="M7.55072 33.4102H6.4707V34.4902H7.55072V33.4102Z" fill="#334457"/>
<path d="M7.55072 32.3301H6.4707V33.4101H7.55072V32.3301Z" fill="#41556C"/>
<path d="M7.55072 31.2598H6.4707V32.3398H7.55072V31.2598Z" fill="#41556C"/>
<path d="M7.55072 30.1797H6.4707V31.2597H7.55072V30.1797Z" fill="#41556C"/>
<path d="M7.55072 29.0996H6.4707V30.1796H7.55072V29.0996Z" fill="#41556C"/>
<path d="M7.55072 28.0195H6.4707V29.0995H7.55072V28.0195Z" fill="#41556C"/>
<path d="M7.55072 26.9395H6.4707V28.0194H7.55072V26.9395Z" fill="#41556C"/>
<path d="M7.55072 25.8691H6.4707V26.9491H7.55072V25.8691Z" fill="#41556C"/>
<path d="M7.55072 24.7891H6.4707V25.8691H7.55072V24.7891Z" fill="#41556C"/>
<path d="M7.55072 23.7109H6.4707V24.7909H7.55072V23.7109Z" fill="#41556C"/>
<path d="M7.55072 22.6309H6.4707V23.7109H7.55072V22.6309Z" fill="#334457"/>
<path d="M7.55072 21.5508H6.4707V22.6308H7.55072V21.5508Z" fill="white"/>
<path d="M7.55072 20.4805H6.4707V21.5605H7.55072V20.4805Z" fill="white"/>
<path d="M7.55072 19.4004H6.4707V20.4804H7.55072V19.4004Z" fill="white"/>
<path d="M7.55072 18.3203H6.4707V19.4003H7.55072V18.3203Z" fill="white"/>
<path d="M7.55072 17.2402H6.4707V18.3202H7.55072V17.2402Z" fill="white"/>
<path d="M7.55072 16.1699H6.4707V17.2499H7.55072V16.1699Z" fill="white"/>
<path d="M7.55072 14.0098H6.4707V15.0898H7.55072V14.0098Z" fill="#F6A85E"/>
<path d="M7.55072 12.9297H6.4707V14.0097H7.55072V12.9297Z" fill="#FBC677"/>
<path d="M7.55072 11.8496H6.4707V12.9296H7.55072V11.8496Z" fill="#1D1D1B"/>
<path d="M7.55072 10.7793H6.4707V11.8593H7.55072V10.7793Z" fill="#FBC677"/>
<path d="M7.55072 9.69922H6.4707V10.7792H7.55072V9.69922Z" fill="#F6A85E"/>
<path d="M7.55072 8.61914H6.4707V9.69913H7.55072V8.61914Z" fill="#FBC677"/>
<path d="M7.55072 7.53906H6.4707V8.61906H7.55072V7.53906Z" fill="#FBC677"/>
<path d="M7.55072 6.46094H6.4707V7.54094H7.55072V6.46094Z" fill="#FBC677"/>
<path d="M7.55072 5.39062H6.4707V6.47063H7.55072V5.39062Z" fill="#F6A85E"/>
<path d="M7.55072 4.31055H6.4707V5.39055H7.55072V4.31055Z" fill="#334457"/>
<path d="M7.55072 3.23047H6.4707V4.31046H7.55072V3.23047Z" fill="#41556C"/>
<path d="M7.55072 2.15039H6.4707V3.23039H7.55072V2.15039Z" fill="#41556C"/>
<path d="M7.55072 1.07031H6.4707V2.15031H7.55072V1.07031Z" fill="#41556C"/>
<path d="M7.55072 0H6.4707V1.08H7.55072V0Z" fill="#41556C"/>
<path d="M8.63077 46.3496H7.55078V47.4296H8.63077V46.3496Z" fill="#1D1D1B"/>
<path d="M8.63077 32.3301H7.55078V33.4101H8.63077V32.3301Z" fill="#41556C"/>
<path d="M8.63077 31.2598H7.55078V32.3398H8.63077V31.2598Z" fill="#41556C"/>
<path d="M8.63077 30.1797H7.55078V31.2597H8.63077V30.1797Z" fill="#41556C"/>
<path d="M8.63077 29.0996H7.55078V30.1796H8.63077V29.0996Z" fill="#41556C"/>
<path d="M8.63077 28.0195H7.55078V29.0995H8.63077V28.0195Z" fill="#41556C"/>
<path d="M8.63077 26.9395H7.55078V28.0194H8.63077V26.9395Z" fill="#41556C"/>
<path d="M8.63077 25.8691H7.55078V26.9491H8.63077V25.8691Z" fill="#41556C"/>
<path d="M8.63077 24.7891H7.55078V25.8691H8.63077V24.7891Z" fill="#41556C"/>
<path d="M8.63077 23.7109H7.55078V24.7909H8.63077V23.7109Z" fill="#41556C"/>
<path d="M8.63077 22.6309H7.55078V23.7109H8.63077V22.6309Z" fill="#E50063"/>
<path d="M8.63077 21.5508H7.55078V22.6308H8.63077V21.5508Z" fill="#E50063"/>
<path d="M8.63077 20.4805H7.55078V21.5605H8.63077V20.4805Z" fill="#E50063"/>
<path d="M8.63077 19.4004H7.55078V20.4804H8.63077V19.4004Z" fill="#E50063"/>
<path d="M8.63077 18.3203H7.55078V19.4003H8.63077V18.3203Z" fill="#FBC677"/>
<path d="M8.63077 17.2402H7.55078V18.3202H8.63077V17.2402Z" fill="#FBC677"/>
<path d="M8.63077 16.1699H7.55078V17.2499H8.63077V16.1699Z" fill="#FBC677"/>
<path d="M8.63077 15.0898H7.55078V16.1698H8.63077V15.0898Z" fill="#F6A85E"/>
<path d="M8.63077 14.0098H7.55078V15.0898H8.63077V14.0098Z" fill="#F6A85E"/>
<path d="M8.63077 12.9297H7.55078V14.0097H8.63077V12.9297Z" fill="#FBC677"/>
<path d="M8.63077 11.8496H7.55078V12.9296H8.63077V11.8496Z" fill="#1D1D1B"/>
<path d="M8.63077 10.7793H7.55078V11.8593H8.63077V10.7793Z" fill="#FBC677"/>
<path d="M8.63077 9.69922H7.55078V10.7792H8.63077V9.69922Z" fill="#FBC677"/>
<path d="M8.63077 8.61914H7.55078V9.69913H8.63077V8.61914Z" fill="#FBC677"/>
<path d="M8.63077 7.53906H7.55078V8.61906H8.63077V7.53906Z" fill="#FBC677"/>
<path d="M8.63077 6.46094H7.55078V7.54094H8.63077V6.46094Z" fill="#FBC677"/>
<path d="M8.63077 5.39062H7.55078V6.47063H8.63077V5.39062Z" fill="#F6A85E"/>
<path d="M8.63077 4.31055H7.55078V5.39055H8.63077V4.31055Z" fill="#334457"/>
<path d="M8.63077 3.23047H7.55078V4.31046H8.63077V3.23047Z" fill="#41556C"/>
<path d="M8.63077 2.15039H7.55078V3.23039H8.63077V2.15039Z" fill="#41556C"/>
<path d="M8.63077 1.07031H7.55078V2.15031H8.63077V1.07031Z" fill="#41556C"/>
<path d="M8.63077 0H7.55078V1.08H8.63077V0Z" fill="#41556C"/>
<path d="M9.71088 46.3496H8.63086V47.4296H9.71088V46.3496Z" fill="#1D1D1B"/>
<path d="M9.71088 32.3301H8.63086V33.4101H9.71088V32.3301Z" fill="#41556C"/>
<path d="M9.71088 31.2598H8.63086V32.3398H9.71088V31.2598Z" fill="#41556C"/>
<path d="M9.71088 30.1797H8.63086V31.2597H9.71088V30.1797Z" fill="#41556C"/>
<path d="M9.71088 29.0996H8.63086V30.1796H9.71088V29.0996Z" fill="#41556C"/>
<path d="M9.71088 28.0195H8.63086V29.0995H9.71088V28.0195Z" fill="#41556C"/>
<path d="M9.71088 26.9395H8.63086V28.0194H9.71088V26.9395Z" fill="#41556C"/>
<path d="M9.71088 25.8691H8.63086V26.9491H9.71088V25.8691Z" fill="#41556C"/>
<path d="M9.71088 24.7891H8.63086V25.8691H9.71088V24.7891Z" fill="#41556C"/>
<path d="M9.71088 23.7109H8.63086V24.7909H9.71088V23.7109Z" fill="#41556C"/>
<path d="M9.71088 22.6309H8.63086V23.7109H9.71088V22.6309Z" fill="#334457"/>
<path d="M9.71088 21.5508H8.63086V22.6308H9.71088V21.5508Z" fill="white"/>
<path d="M9.71088 20.4805H8.63086V21.5605H9.71088V20.4805Z" fill="white"/>
<path d="M9.71088 19.4004H8.63086V20.4804H9.71088V19.4004Z" fill="white"/>
<path d="M9.71088 18.3203H8.63086V19.4003H9.71088V18.3203Z" fill="white"/>
<path d="M9.71088 17.2402H8.63086V18.3202H9.71088V17.2402Z" fill="#FBC677"/>
<path d="M9.71088 16.1699H8.63086V17.2499H9.71088V16.1699Z" fill="#FBC677"/>
<path d="M9.71088 15.0898H8.63086V16.1698H9.71088V15.0898Z" fill="#F6A85E"/>
<path d="M9.71088 14.0098H8.63086V15.0898H9.71088V14.0098Z" fill="#F6A85E"/>
<path d="M9.71088 12.9297H8.63086V14.0097H9.71088V12.9297Z" fill="#FBC677"/>
<path d="M9.71088 11.8496H8.63086V12.9296H9.71088V11.8496Z" fill="#1D1D1B"/>
<path d="M9.71088 10.7793H8.63086V11.8593H9.71088V10.7793Z" fill="#FBC677"/>
<path d="M9.71088 9.69922H8.63086V10.7792H9.71088V9.69922Z" fill="#FBC677"/>
<path d="M9.71088 8.61914H8.63086V9.69913H9.71088V8.61914Z" fill="#FBC677"/>
<path d="M9.71088 7.53906H8.63086V8.61906H9.71088V7.53906Z" fill="#1D1D1B"/>
<path d="M9.71088 6.46094H8.63086V7.54094H9.71088V6.46094Z" fill="#1D1D1B"/>
<path d="M9.71088 5.39062H8.63086V6.47063H9.71088V5.39062Z" fill="#F6A85E"/>
<path d="M9.71088 4.31055H8.63086V5.39055H9.71088V4.31055Z" fill="#334457"/>
<path d="M9.71088 3.23047H8.63086V4.31046H9.71088V3.23047Z" fill="#334457"/>
<path d="M9.71088 2.15039H8.63086V3.23039H9.71088V2.15039Z" fill="#334457"/>
<path d="M9.71088 1.07031H8.63086V2.15031H9.71088V1.07031Z" fill="#41556C"/>
<path d="M9.71088 0H8.63086V1.08H9.71088V0Z" fill="#41556C"/>
<path d="M10.7792 46.3496H9.69922V47.4296H10.7792V46.3496Z" fill="#1D1D1B"/>
<path d="M10.7792 45.2695H9.69922V46.3495H10.7792V45.2695Z" fill="#1D1D1B"/>
<path d="M10.7792 44.1895H9.69922V45.2694H10.7792V44.1895Z" fill="#41556C"/>
<path d="M10.7792 43.1094H9.69922V44.1894H10.7792V43.1094Z" fill="#41556C"/>
<path d="M10.7792 42.0293H9.69922V43.1093H10.7792V42.0293Z" fill="#41556C"/>
<path d="M10.7792 40.9609H9.69922V42.0409H10.7792V40.9609Z" fill="#41556C"/>
<path d="M10.7792 39.8809H9.69922V40.9609H10.7792V39.8809Z" fill="#41556C"/>
<path d="M10.7792 38.8008H9.69922V39.8808H10.7792V38.8008Z" fill="#41556C"/>
<path d="M10.7792 37.7207H9.69922V38.8007H10.7792V37.7207Z" fill="#41556C"/>
<path d="M10.7792 36.6406H9.69922V37.7206H10.7792V36.6406Z" fill="#41556C"/>
<path d="M10.7792 35.5703H9.69922V36.6503H10.7792V35.5703Z" fill="#41556C"/>
<path d="M10.7792 34.4902H9.69922V35.5702H10.7792V34.4902Z" fill="#41556C"/>
<path d="M10.7792 33.4102H9.69922V34.4902H10.7792V33.4102Z" fill="#41556C"/>
<path d="M10.7792 32.3301H9.69922V33.4101H10.7792V32.3301Z" fill="#41556C"/>
<path d="M10.7792 31.2598H9.69922V32.3398H10.7792V31.2598Z" fill="#41556C"/>
<path d="M10.7792 30.1797H9.69922V31.2597H10.7792V30.1797Z" fill="#41556C"/>
<path d="M10.7792 29.0996H9.69922V30.1796H10.7792V29.0996Z" fill="#41556C"/>
<path d="M10.7792 28.0195H9.69922V29.0995H10.7792V28.0195Z" fill="#41556C"/>
<path d="M10.7792 26.9395H9.69922V28.0194H10.7792V26.9395Z" fill="#41556C"/>
<path d="M10.7792 25.8691H9.69922V26.9491H10.7792V25.8691Z" fill="#41556C"/>
<path d="M10.7792 24.7891H9.69922V25.8691H10.7792V24.7891Z" fill="#41556C"/>
<path d="M10.7792 23.7109H9.69922V24.7909H10.7792V23.7109Z" fill="#41556C"/>
<path d="M10.7792 22.6309H9.69922V23.7109H10.7792V22.6309Z" fill="#41556C"/>
<path d="M10.7792 21.5508H9.69922V22.6308H10.7792V21.5508Z" fill="#41556C"/>
<path d="M10.7792 20.4805H9.69922V21.5605H10.7792V20.4805Z" fill="#41556C"/>
<path d="M10.7792 19.4004H9.69922V20.4804H10.7792V19.4004Z" fill="#334457"/>
<path d="M10.7792 18.3203H9.69922V19.4003H10.7792V18.3203Z" fill="white"/>
<path d="M10.7792 17.2402H9.69922V18.3202H10.7792V17.2402Z" fill="white"/>
<path d="M10.7792 16.1699H9.69922V17.2499H10.7792V16.1699Z" fill="white"/>
<path d="M10.7792 14.0098H9.69922V15.0898H10.7792V14.0098Z" fill="#F6A85E"/>
<path d="M10.7792 12.9297H9.69922V14.0097H10.7792V12.9297Z" fill="#FBC677"/>
<path d="M10.7792 11.8496H9.69922V12.9296H10.7792V11.8496Z" fill="#FBC677"/>
<path d="M10.7792 10.7793H9.69922V11.8593H10.7792V10.7793Z" fill="#FBC677"/>
<path d="M10.7792 9.69922H9.69922V10.7792H10.7792V9.69922Z" fill="#FBC677"/>
<path d="M10.7792 8.61914H9.69922V9.69913H10.7792V8.61914Z" fill="#FBC677"/>
<path d="M10.7792 7.53906H9.69922V8.61906H10.7792V7.53906Z" fill="#FBC677"/>
<path d="M10.7792 6.46094H9.69922V7.54094H10.7792V6.46094Z" fill="#FBC677"/>
<path d="M10.7792 5.39062H9.69922V6.47063H10.7792V5.39062Z" fill="#F6A85E"/>
<path d="M10.7792 4.31055H9.69922V5.39055H10.7792V4.31055Z" fill="#334457"/>
<path d="M10.7792 3.23047H9.69922V4.31046H10.7792V3.23047Z" fill="#334457"/>
<path d="M10.7792 2.15039H9.69922V3.23039H10.7792V2.15039Z" fill="#334457"/>
<path d="M10.7792 1.07031H9.69922V2.15031H10.7792V1.07031Z" fill="#41556C"/>
<path d="M10.7792 0H9.69922V1.08H10.7792V0Z" fill="#41556C"/>
<path d="M11.8593 46.3496H10.7793V47.4296H11.8593V46.3496Z" fill="#1D1D1B"/>
<path d="M11.8593 45.2695H10.7793V46.3495H11.8593V45.2695Z" fill="#1D1D1B"/>
<path d="M11.8593 44.1895H10.7793V45.2694H11.8593V44.1895Z" fill="#334457"/>
<path d="M11.8593 43.1094H10.7793V44.1894H11.8593V43.1094Z" fill="#334457"/>
<path d="M11.8593 42.0293H10.7793V43.1093H11.8593V42.0293Z" fill="#334457"/>
<path d="M11.8593 40.9609H10.7793V42.0409H11.8593V40.9609Z" fill="#334457"/>
<path d="M11.8593 39.8809H10.7793V40.9609H11.8593V39.8809Z" fill="#334457"/>
<path d="M11.8593 38.8008H10.7793V39.8808H11.8593V38.8008Z" fill="#334457"/>
<path d="M11.8593 37.7207H10.7793V38.8007H11.8593V37.7207Z" fill="#334457"/>
<path d="M11.8593 36.6406H10.7793V37.7206H11.8593V36.6406Z" fill="#334457"/>
<path d="M11.8593 35.5703H10.7793V36.6503H11.8593V35.5703Z" fill="#334457"/>
<path d="M11.8593 34.4902H10.7793V35.5702H11.8593V34.4902Z" fill="#334457"/>
<path d="M11.8593 33.4102H10.7793V34.4902H11.8593V33.4102Z" fill="#334457"/>
<path d="M11.8593 32.3301H10.7793V33.4101H11.8593V32.3301Z" fill="#334457"/>
<path d="M11.8593 31.2598H10.7793V32.3398H11.8593V31.2598Z" fill="#334457"/>
<path d="M11.8593 30.1797H10.7793V31.2597H11.8593V30.1797Z" fill="#334457"/>
<path d="M11.8593 29.0996H10.7793V30.1796H11.8593V29.0996Z" fill="#334457"/>
<path d="M11.8593 28.0195H10.7793V29.0995H11.8593V28.0195Z" fill="#334457"/>
<path d="M11.8593 26.9395H10.7793V28.0194H11.8593V26.9395Z" fill="#334457"/>
<path d="M11.8593 25.8691H10.7793V26.9491H11.8593V25.8691Z" fill="#334457"/>
<path d="M11.8593 24.7891H10.7793V25.8691H11.8593V24.7891Z" fill="#334457"/>
<path d="M11.8593 23.7109H10.7793V24.7909H11.8593V23.7109Z" fill="#334457"/>
<path d="M11.8593 22.6309H10.7793V23.7109H11.8593V22.6309Z" fill="#334457"/>
<path d="M11.8593 21.5508H10.7793V22.6308H11.8593V21.5508Z" fill="#334457"/>
<path d="M11.8593 20.4805H10.7793V21.5605H11.8593V20.4805Z" fill="#41556C"/>
<path d="M11.8593 19.4004H10.7793V20.4804H11.8593V19.4004Z" fill="#334457"/>
<path d="M11.8593 18.3203H10.7793V19.4003H11.8593V18.3203Z" fill="#334457"/>
<path d="M11.8593 17.2402H10.7793V18.3202H11.8593V17.2402Z" fill="#334457"/>
<path d="M11.8593 16.1699H10.7793V17.2499H11.8593V16.1699Z" fill="#334457"/>
<path d="M11.8593 14.0098H10.7793V15.0898H11.8593V14.0098Z" fill="#F6A85E"/>
<path d="M11.8593 12.9297H10.7793V14.0097H11.8593V12.9297Z" fill="#FBC677"/>
<path d="M11.8593 11.8496H10.7793V12.9296H11.8593V11.8496Z" fill="#FBC677"/>
<path d="M11.8593 10.7793H10.7793V11.8593H11.8593V10.7793Z" fill="#FBC677"/>
<path d="M11.8593 9.69922H10.7793V10.7792H11.8593V9.69922Z" fill="#FBC677"/>
<path d="M11.8593 8.61914H10.7793V9.69913H11.8593V8.61914Z" fill="#FBC677"/>
<path d="M11.8593 7.53906H10.7793V8.61906H11.8593V7.53906Z" fill="#FBC677"/>
<path d="M11.8593 6.46094H10.7793V7.54094H11.8593V6.46094Z" fill="#FBC677"/>
<path d="M11.8593 5.39062H10.7793V6.47063H11.8593V5.39062Z" fill="#F6A85E"/>
<path d="M11.8593 4.31055H10.7793V5.39055H11.8593V4.31055Z" fill="#334457"/>
<path d="M11.8593 3.23047H10.7793V4.31046H11.8593V3.23047Z" fill="#334457"/>
<path d="M11.8593 2.15039H10.7793V3.23039H11.8593V2.15039Z" fill="#334457"/>
<path d="M11.8593 1.07031H10.7793V2.15031H11.8593V1.07031Z" fill="#41556C"/>
<path d="M11.8593 0H10.7793V1.08H11.8593V0Z" fill="#41556C"/>
<path d="M12.9394 31.2598H11.8594V32.3398H12.9394V31.2598Z" fill="#334457"/>
<path d="M12.9394 30.1797H11.8594V31.2597H12.9394V30.1797Z" fill="#334457"/>
<path d="M12.9394 29.0996H11.8594V30.1796H12.9394V29.0996Z" fill="#334457"/>
<path d="M12.9394 28.0195H11.8594V29.0995H12.9394V28.0195Z" fill="#334457"/>
<path d="M12.9394 26.9395H11.8594V28.0194H12.9394V26.9395Z" fill="#334457"/>
<path d="M12.9394 25.8691H11.8594V26.9491H12.9394V25.8691Z" fill="#334457"/>
<path d="M12.9394 24.7891H11.8594V25.8691H12.9394V24.7891Z" fill="#334457"/>
<path d="M12.9394 23.7109H11.8594V24.7909H12.9394V23.7109Z" fill="#334457"/>
<path d="M12.9394 22.6309H11.8594V23.7109H12.9394V22.6309Z" fill="#334457"/>
<path d="M12.9394 21.5508H11.8594V22.6308H12.9394V21.5508Z" fill="#334457"/>
<path d="M12.9394 20.4805H11.8594V21.5605H12.9394V20.4805Z" fill="#41556C"/>
<path d="M12.9394 19.4004H11.8594V20.4804H12.9394V19.4004Z" fill="#41556C"/>
<path d="M12.9394 18.3203H11.8594V19.4003H12.9394V18.3203Z" fill="#41556C"/>
<path d="M12.9394 17.2402H11.8594V18.3202H12.9394V17.2402Z" fill="#41556C"/>
<path d="M12.9394 16.1699H11.8594V17.2499H12.9394V16.1699Z" fill="#334457"/>
<path d="M12.9394 12.9297H11.8594V14.0097H12.9394V12.9297Z" fill="#F6A85E"/>
<path d="M12.9394 11.8496H11.8594V12.9296H12.9394V11.8496Z" fill="#F6A85E"/>
<path d="M12.9394 10.7793H11.8594V11.8593H12.9394V10.7793Z" fill="#F6A85E"/>
<path d="M12.9394 9.69922H11.8594V10.7792H12.9394V9.69922Z" fill="#F6A85E"/>
<path d="M12.9394 8.61914H11.8594V9.69913H12.9394V8.61914Z" fill="#F6A85E"/>
<path d="M12.9394 7.53906H11.8594V8.61906H12.9394V7.53906Z" fill="#F6A85E"/>
<path d="M12.9394 6.46094H11.8594V7.54094H12.9394V6.46094Z" fill="#F6A85E"/>
<path d="M12.9394 5.39062H11.8594V6.47063H12.9394V5.39062Z" fill="#F6A85E"/>
<path d="M12.9394 4.31055H11.8594V5.39055H12.9394V4.31055Z" fill="#334457"/>
<path d="M12.9394 3.23047H11.8594V4.31046H12.9394V3.23047Z" fill="#334457"/>
<path d="M12.9394 2.15039H11.8594V3.23039H12.9394V2.15039Z" fill="#334457"/>
<path d="M12.9394 1.07031H11.8594V2.15031H12.9394V1.07031Z" fill="#41556C"/>
<path d="M14.0195 32.3301H12.9395V33.4101H14.0195V32.3301Z" fill="#FBC677"/>
<path d="M14.0195 31.2598H12.9395V32.3398H14.0195V31.2598Z" fill="#FBC677"/>
<path d="M14.0195 30.1797H12.9395V31.2597H14.0195V30.1797Z" fill="#41556C"/>
<path d="M14.0195 29.0996H12.9395V30.1796H14.0195V29.0996Z" fill="#41556C"/>
<path d="M14.0195 28.0195H12.9395V29.0995H14.0195V28.0195Z" fill="#41556C"/>
<path d="M14.0195 26.9395H12.9395V28.0194H14.0195V26.9395Z" fill="#41556C"/>
<path d="M14.0195 25.8691H12.9395V26.9491H14.0195V25.8691Z" fill="#41556C"/>
<path d="M14.0195 24.7891H12.9395V25.8691H14.0195V24.7891Z" fill="#41556C"/>
<path d="M14.0195 23.7109H12.9395V24.7909H14.0195V23.7109Z" fill="#41556C"/>
<path d="M14.0195 22.6309H12.9395V23.7109H14.0195V22.6309Z" fill="#41556C"/>
<path d="M14.0195 21.5508H12.9395V22.6308H14.0195V21.5508Z" fill="#41556C"/>
<path d="M14.0195 20.4805H12.9395V21.5605H14.0195V20.4805Z" fill="#41556C"/>
<path d="M14.0195 19.4004H12.9395V20.4804H14.0195V19.4004Z" fill="#41556C"/>
<path d="M14.0195 18.3203H12.9395V19.4003H14.0195V18.3203Z" fill="#41556C"/>
<path d="M14.0195 17.2402H12.9395V18.3202H14.0195V17.2402Z" fill="#41556C"/>
<path d="M14.0195 16.1699H12.9395V17.2499H14.0195V16.1699Z" fill="#334457"/>
<path d="M14.0195 11.8496H12.9395V12.9296H14.0195V11.8496Z" fill="#F6A85E"/>
<path d="M14.0195 10.7793H12.9395V11.8593H14.0195V10.7793Z" fill="#F6A85E"/>
<path d="M14.0195 9.69922H12.9395V10.7792H14.0195V9.69922Z" fill="#F6A85E"/>
<path d="M14.0195 8.61914H12.9395V9.69913H14.0195V8.61914Z" fill="#F6A85E"/>
<path d="M14.0195 7.53906H12.9395V8.61906H14.0195V7.53906Z" fill="#F6A85E"/>
<path d="M14.0195 6.46094H12.9395V7.54094H14.0195V6.46094Z" fill="#F6A85E"/>
<path d="M14.0195 5.39062H12.9395V6.47063H14.0195V5.39062Z" fill="#645247"/>
<path d="M14.0195 4.31055H12.9395V5.39055H14.0195V4.31055Z" fill="#334457"/>
<path d="M14.0195 3.23047H12.9395V4.31046H14.0195V3.23047Z" fill="#334457"/>
<path d="M14.0195 2.15039H12.9395V3.23039H14.0195V2.15039Z" fill="#334457"/>
<path d="M14.0195 1.07031H12.9395V2.15031H14.0195V1.07031Z" fill="#41556C"/>
<path d="M15.0995 32.3301H14.0195V33.4101H15.0995V32.3301Z" fill="#FBC677"/>
<path d="M15.0995 31.2598H14.0195V32.3398H15.0995V31.2598Z" fill="#FBC677"/>
<path d="M15.0995 30.1797H14.0195V31.2597H15.0995V30.1797Z" fill="#334457"/>
<path d="M15.0995 29.0996H14.0195V30.1796H15.0995V29.0996Z" fill="#334457"/>
<path d="M15.0995 28.0195H14.0195V29.0995H15.0995V28.0195Z" fill="#334457"/>
<path d="M15.0995 26.9395H14.0195V28.0194H15.0995V26.9395Z" fill="#334457"/>
<path d="M15.0995 25.8691H14.0195V26.9491H15.0995V25.8691Z" fill="#334457"/>
<path d="M15.0995 24.7891H14.0195V25.8691H15.0995V24.7891Z" fill="#334457"/>
<path d="M15.0995 23.7109H14.0195V24.7909H15.0995V23.7109Z" fill="#334457"/>
<path d="M15.0995 22.6309H14.0195V23.7109H15.0995V22.6309Z" fill="#334457"/>
<path d="M15.0995 21.5508H14.0195V22.6308H15.0995V21.5508Z" fill="#334457"/>
<path d="M15.0995 20.4805H14.0195V21.5605H15.0995V20.4805Z" fill="#334457"/>
<path d="M15.0995 19.4004H14.0195V20.4804H15.0995V19.4004Z" fill="#334457"/>
<path d="M15.0995 18.3203H14.0195V19.4003H15.0995V18.3203Z" fill="#334457"/>
<path d="M15.0995 17.2402H14.0195V18.3202H15.0995V17.2402Z" fill="#334457"/>
<path d="M15.0995 9.69922H14.0195V10.7792H15.0995V9.69922Z" fill="#645247"/>
<path d="M15.0995 8.61914H14.0195V9.69913H15.0995V8.61914Z" fill="#645247"/>
<path d="M15.0995 7.53906H14.0195V8.61906H15.0995V7.53906Z" fill="#645247"/>
<path d="M15.0995 6.46094H14.0195V7.54094H15.0995V6.46094Z" fill="#645247"/>
<path d="M15.0995 5.39062H14.0195V6.47063H15.0995V5.39062Z" fill="#645247"/>
<path d="M15.0995 4.31055H14.0195V5.39055H15.0995V4.31055Z" fill="#334457"/>
<path d="M15.0995 3.23047H14.0195V4.31046H15.0995V3.23047Z" fill="#334457"/>
<path d="M15.0995 2.15039H14.0195V3.23039H15.0995V2.15039Z" fill="#334457"/>
<path d="M15.0995 1.07031H14.0195V2.15031H15.0995V1.07031Z" fill="#41556C"/>
<path d="M16.1698 8.61914H15.0898V9.69913H16.1698V8.61914Z" fill="#645247"/>
<path d="M16.1698 7.53906H15.0898V8.61906H16.1698V7.53906Z" fill="#645247"/>
<path d="M16.1698 6.46094H15.0898V7.54094H16.1698V6.46094Z" fill="#645247"/>
<path d="M16.1698 1.07031H15.0898V2.15031H16.1698V1.07031Z" fill="#41556C"/>
</svg>
