<svg width="28" height="64" viewBox="0 0 28 64" fill="none" xmlns="http://www.w3.org/2000/svg">
<path d="M24.7198 2.76953H2.75977V23.0395H24.7198V2.76953Z" fill="#00569E"/>
<path d="M12.3594 26.0996H13.7294V27.4696H12.3594V26.0996Z" fill="#CCCCCC"/>
<path d="M12.3594 27.4688H13.7294V28.8388H12.3594V27.4688Z" fill="#CCCCCC"/>
<path d="M12.3594 28.8496H13.7294V30.2196H12.3594V28.8496Z" fill="#CCCCCC"/>
<path d="M12.3594 30.2188H13.7294V31.5888H12.3594V30.2188Z" fill="#CCCCCC"/>
<path d="M12.3594 31.5898H13.7294V32.9598H12.3594V31.5898Z" fill="#CCCCCC"/>
<path d="M12.3594 32.9688H13.7294V34.3388H12.3594V32.9688Z" fill="#CCCCCC"/>
<path d="M12.3594 34.3398H13.7294V35.7098H12.3594V34.3398Z" fill="#CCCCCC"/>
<path d="M12.3594 35.709H13.7294V37.079H12.3594V35.709Z" fill="#CCCCCC"/>
<path d="M12.3594 37.0898H13.7294V38.4598H12.3594V37.0898Z" fill="#CCCCCC"/>
<path d="M12.3594 38.459H13.7294V39.829H12.3594V38.459Z" fill="#CCCCCC"/>
<path d="M12.3594 39.8398H13.7294V41.2098H12.3594V39.8398Z" fill="#CCCCCC"/>
<path d="M12.3594 41.209H13.7294V42.579H12.3594V41.209Z" fill="#CCCCCC"/>
<path d="M12.3594 42.5801H13.7294V43.9501H12.3594V42.5801Z" fill="#CCCCCC"/>
<path d="M12.3594 43.959H13.7294V45.329H12.3594V43.959Z" fill="#CCCCCC"/>
<path d="M12.3594 45.3301H13.7294V46.7001H12.3594V45.3301Z" fill="#CCCCCC"/>
<path d="M12.3594 46.6992H13.7294V48.0692H12.3594V46.6992Z" fill="#CCCCCC"/>
<path d="M12.3594 48.0801H13.7294V49.4501H12.3594V48.0801Z" fill="#CCCCCC"/>
<path d="M12.3594 49.4492H13.7294V50.8192H12.3594V49.4492Z" fill="#CCCCCC"/>
<path d="M12.3594 50.8301H13.7294V52.2001H12.3594V50.8301Z" fill="#CCCCCC"/>
<path d="M12.3594 52.1992H13.7294V53.5692H12.3594V52.1992Z" fill="#CCCCCC"/>
<path d="M12.3594 53.5703H13.7294V54.9403H12.3594V53.5703Z" fill="#CCCCCC"/>
<path d="M12.3594 54.9492H13.7294V56.3192H12.3594V54.9492Z" fill="#CCCCCC"/>
<path d="M12.3594 56.3203H13.7294V57.6903H12.3594V56.3203Z" fill="#CCCCCC"/>
<path d="M13.7305 26.0996H15.1005V27.4696H13.7305V26.0996Z" fill="#E6E6E6"/>
<path d="M13.7305 27.4688H15.1005V28.8388H13.7305V27.4688Z" fill="#E6E6E6"/>
<path d="M13.7305 28.8496H15.1005V30.2196H13.7305V28.8496Z" fill="#E6E6E6"/>
<path d="M13.7305 30.2188H15.1005V31.5888H13.7305V30.2188Z" fill="#E6E6E6"/>
<path d="M13.7305 31.5898H15.1005V32.9598H13.7305V31.5898Z" fill="#E6E6E6"/>
<path d="M13.7305 32.9688H15.1005V34.3388H13.7305V32.9688Z" fill="#E6E6E6"/>
<path d="M13.7305 34.3398H15.1005V35.7098H13.7305V34.3398Z" fill="#E6E6E6"/>
<path d="M13.7305 35.709H15.1005V37.079H13.7305V35.709Z" fill="#E6E6E6"/>
<path d="M13.7305 37.0898H15.1005V38.4598H13.7305V37.0898Z" fill="#E6E6E6"/>
<path d="M13.7305 38.459H15.1005V39.829H13.7305V38.459Z" fill="#E6E6E6"/>
<path d="M13.7305 39.8398H15.1005V41.2098H13.7305V39.8398Z" fill="#E6E6E6"/>
<path d="M13.7305 41.209H15.1005V42.579H13.7305V41.209Z" fill="#E6E6E6"/>
<path d="M13.7305 42.5801H15.1005V43.9501H13.7305V42.5801Z" fill="#E6E6E6"/>
<path d="M13.7305 43.959H15.1005V45.329H13.7305V43.959Z" fill="#E6E6E6"/>
<path d="M13.7305 45.3301H15.1005V46.7001H13.7305V45.3301Z" fill="#E6E6E6"/>
<path d="M13.7305 46.6992H15.1005V48.0692H13.7305V46.6992Z" fill="#E6E6E6"/>
<path d="M13.7305 48.0801H15.1005V49.4501H13.7305V48.0801Z" fill="#E6E6E6"/>
<path d="M13.7305 49.4492H15.1005V50.8192H13.7305V49.4492Z" fill="#E6E6E6"/>
<path d="M13.7305 50.8301H15.1005V52.2001H13.7305V50.8301Z" fill="#E6E6E6"/>
<path d="M13.7305 52.1992H15.1005V53.5692H13.7305V52.1992Z" fill="#E6E6E6"/>
<path d="M13.7305 53.5703H15.1005V54.9403H13.7305V53.5703Z" fill="#E6E6E6"/>
<path d="M13.7305 54.9492H15.1005V56.3192H13.7305V54.9492Z" fill="#E6E6E6"/>
<path d="M13.7305 56.3203H15.1005V57.6903H13.7305V56.3203Z" fill="#E6E6E6"/>
<path d="M12.3594 59.0703H13.7294V60.4403H12.3594V59.0703Z" fill="#B6B6B6"/>
<path d="M10.9902 60.4395H12.3602V61.8094H10.9902V60.4395Z" fill="#B6B6B6"/>
<path d="M13.7285 59.0703H15.0985V60.4403H13.7285V59.0703Z" fill="#C1C1C1"/>
<path d="M12.3594 60.4395H13.7294V61.8094H12.3594V60.4395Z" fill="#C1C1C1"/>
<path d="M13.7285 60.4395H15.0985V61.8094H13.7285V60.4395Z" fill="#C1C1C1"/>
<path d="M15.1094 60.4395H16.4794V61.8094H15.1094V60.4395Z" fill="#C1C1C1"/>
<path d="M23.3496 21.9805H24.7196V23.3505H23.3496V21.9805Z" fill="#004A7C"/>
<path d="M2.74023 2.75H4.11023V4.12H2.74023V2.75Z" fill="#004A7C"/>
<path d="M2.74023 4.11914H4.11023V5.48914H2.74023V4.11914Z" fill="#004A7C"/>
<path d="M2.74023 5.49023H4.11023V6.86023H2.74023V5.49023Z" fill="#004A7C"/>
<path d="M2.74023 6.86914H4.11023V8.23914H2.74023V6.86914Z" fill="#004A7C"/>
<path d="M2.74023 8.24023H4.11023V9.61023H2.74023V8.24023Z" fill="#004A7C"/>
<path d="M2.74023 9.60938H4.11023V10.9794H2.74023V9.60938Z" fill="#004A7C"/>
<path d="M2.74023 10.9902H4.11023V12.3602H2.74023V10.9902Z" fill="#004A7C"/>
<path d="M2.74023 12.3594H4.11023V13.7294H2.74023V12.3594Z" fill="#004A7C"/>
<path d="M2.74023 13.7402H4.11023V15.1102H2.74023V13.7402Z" fill="#004A7C"/>
<path d="M2.74023 15.1094H4.11023V16.4794H2.74023V15.1094Z" fill="#004A7C"/>
<path d="M2.74023 16.4805H4.11023V17.8505H2.74023V16.4805Z" fill="#004A7C"/>
<path d="M2.74023 17.8594H4.11023V19.2294H2.74023V17.8594Z" fill="#004A7C"/>
<path d="M2.74023 19.2305H4.11023V20.6005H2.74023V19.2305Z" fill="#004A7C"/>
<path d="M2.74023 20.5996H4.11023V21.9696H2.74023V20.5996Z" fill="#004A7C"/>
<path d="M4.12109 20.5996H5.49109V21.9696H4.12109V20.5996Z" fill="#004A7C"/>
<path d="M2.74023 21.9805H4.11023V23.3505H2.74023V21.9805Z" fill="#004A7C"/>
<path d="M4.12109 21.9805H5.49109V23.3505H4.12109V21.9805Z" fill="#004A7C"/>
<path d="M6.87109 21.9805H8.24109V23.3505H6.87109V21.9805Z" fill="#004A7C"/>
<path d="M8.24023 21.9805H9.61023V23.3505H8.24023V21.9805Z" fill="#004A7C"/>
<path d="M5.49023 21.9805H6.86023V23.3505H5.49023V21.9805Z" fill="#004A7C"/>
<path d="M9.60938 21.9805H10.9794V23.3505H9.60938V21.9805Z" fill="#004A7C"/>
<path d="M10.9902 21.9805H12.3602V23.3505H10.9902V21.9805Z" fill="#004A7C"/>
<path d="M12.3594 21.9805H13.7294V23.3505H12.3594V21.9805Z" fill="#004A7C"/>
<path d="M13.7305 21.9805H15.1005V23.3505H13.7305V21.9805Z" fill="#004A7C"/>
<path d="M15.1094 21.9805H16.4794V23.3505H15.1094V21.9805Z" fill="#004A7C"/>
<path d="M16.4805 21.9805H17.8505V23.3505H16.4805V21.9805Z" fill="#004A7C"/>
<path d="M17.8594 21.9805H19.2294V23.3505H17.8594V21.9805Z" fill="#004A7C"/>
<path d="M20.5996 21.9805H21.9696V23.3505H20.5996V21.9805Z" fill="#004A7C"/>
<path d="M21.9805 21.9805H23.3505V23.3505H21.9805V21.9805Z" fill="#004A7C"/>
<path d="M19.2305 21.9805H20.6005V23.3505H19.2305V21.9805Z" fill="#004A7C"/>
<path d="M23.3496 1.36914H24.7196V2.73914H23.3496V1.36914Z" fill="#E6E6E6"/>
<path d="M24.7188 2.75H26.0888V4.12H24.7188V2.75Z" fill="#E6E6E6"/>
<path d="M24.7188 4.11914H26.0888V5.48914H24.7188V4.11914Z" fill="#E6E6E6"/>
<path d="M24.7188 5.48828H26.0888V6.85828H24.7188V5.48828Z" fill="#E6E6E6"/>
<path d="M24.7188 6.86914H26.0888V8.23914H24.7188V6.86914Z" fill="#E6E6E6"/>
<path d="M24.7188 8.23828H26.0888V9.60828H24.7188V8.23828Z" fill="#E6E6E6"/>
<path d="M24.7188 9.60938H26.0888V10.9794H24.7188V9.60938Z" fill="#E6E6E6"/>
<path d="M24.7188 10.9883H26.0888V12.3583H24.7188V10.9883Z" fill="#E6E6E6"/>
<path d="M24.7188 12.3594H26.0888V13.7294H24.7188V12.3594Z" fill="#E6E6E6"/>
<path d="M24.7188 13.7383H26.0888V15.1083H24.7188V13.7383Z" fill="#E6E6E6"/>
<path d="M24.7188 15.1094H26.0888V16.4794H24.7188V15.1094Z" fill="#E6E6E6"/>
<path d="M24.7188 16.4785H26.0888V17.8485H24.7188V16.4785Z" fill="#E6E6E6"/>
<path d="M24.7188 17.8594H26.0888V19.2294H24.7188V17.8594Z" fill="#E6E6E6"/>
<path d="M24.7188 19.2285H26.0888V20.5985H24.7188V19.2285Z" fill="#E6E6E6"/>
<path d="M24.7188 20.5996H26.0888V21.9696H24.7188V20.5996Z" fill="#E6E6E6"/>
<path d="M24.7188 21.9785H26.0888V23.3485H24.7188V21.9785Z" fill="#E6E6E6"/>
<path d="M23.3496 23.3496H24.7196V24.7196H23.3496V23.3496Z" fill="#E6E6E6"/>
<path d="M2.73828 1.36914H4.10828V2.73914H2.73828V1.36914Z" fill="#E6E6E6"/>
<path d="M4.11914 1.36914H5.48914V2.73914H4.11914V1.36914Z" fill="#E6E6E6"/>
<path d="M6.86914 1.36914H8.23914V2.73914H6.86914V1.36914Z" fill="#E6E6E6"/>
<path d="M8.23828 1.36914H9.60828V2.73914H8.23828V1.36914Z" fill="#E6E6E6"/>
<path d="M5.48828 1.36914H6.85828V2.73914H5.48828V1.36914Z" fill="#E6E6E6"/>
<path d="M9.60938 1.36914H10.9794V2.73914H9.60938V1.36914Z" fill="#E6E6E6"/>
<path d="M10.9883 1.36914H12.3583V2.73914H10.9883V1.36914Z" fill="#E6E6E6"/>
<path d="M12.3594 1.36914H13.7294V2.73914H12.3594V1.36914Z" fill="#E6E6E6"/>
<path d="M13.7285 1.36914H15.0985V2.73914H13.7285V1.36914Z" fill="#E6E6E6"/>
<path d="M15.1094 1.36914H16.4794V2.73914H15.1094V1.36914Z" fill="#E6E6E6"/>
<path d="M16.4785 1.36914H17.8485V2.73914H16.4785V1.36914Z" fill="#E6E6E6"/>
<path d="M17.8594 1.36914H19.2294V2.73914H17.8594V1.36914Z" fill="#E6E6E6"/>
<path d="M20.5996 1.36914H21.9696V2.73914H20.5996V1.36914Z" fill="#E6E6E6"/>
<path d="M21.9785 1.36914H23.3485V2.73914H21.9785V1.36914Z" fill="#E6E6E6"/>
<path d="M19.2285 1.36914H20.5985V2.73914H19.2285V1.36914Z" fill="#E6E6E6"/>
<path d="M1.36914 2.75H2.73914V4.12H1.36914V2.75Z" fill="#E6E6E6"/>
<path d="M1.36914 4.11914H2.73914V5.48914H1.36914V4.11914Z" fill="#E6E6E6"/>
<path d="M1.36914 5.48828H2.73914V6.85828H1.36914V5.48828Z" fill="#E6E6E6"/>
<path d="M1.36914 6.86914H2.73914V8.23914H1.36914V6.86914Z" fill="#E6E6E6"/>
<path d="M1.36914 8.23828H2.73914V9.60828H1.36914V8.23828Z" fill="#E6E6E6"/>
<path d="M1.36914 9.60938H2.73914V10.9794H1.36914V9.60938Z" fill="#E6E6E6"/>
<path d="M1.36914 10.9883H2.73914V12.3583H1.36914V10.9883Z" fill="#E6E6E6"/>
<path d="M1.36914 12.3594H2.73914V13.7294H1.36914V12.3594Z" fill="#E6E6E6"/>
<path d="M1.36914 13.7383H2.73914V15.1083H1.36914V13.7383Z" fill="#E6E6E6"/>
<path d="M1.36914 15.1094H2.73914V16.4794H1.36914V15.1094Z" fill="#E6E6E6"/>
<path d="M1.36914 16.4785H2.73914V17.8485H1.36914V16.4785Z" fill="#E6E6E6"/>
<path d="M1.36914 17.8594H2.73914V19.2294H1.36914V17.8594Z" fill="#E6E6E6"/>
<path d="M1.36914 19.2285H2.73914V20.5985H1.36914V19.2285Z" fill="#E6E6E6"/>
<path d="M1.36914 20.5996H2.73914V21.9696H1.36914V20.5996Z" fill="#E6E6E6"/>
<path d="M1.36914 21.9785H2.73914V23.3485H1.36914V21.9785Z" fill="#E6E6E6"/>
<path d="M2.73828 23.3496H4.10828V24.7196H2.73828V23.3496Z" fill="#E6E6E6"/>
<path d="M4.11914 23.3496H5.48914V24.7196H4.11914V23.3496Z" fill="#E6E6E6"/>
<path d="M6.86914 23.3496H8.23914V24.7196H6.86914V23.3496Z" fill="#E6E6E6"/>
<path d="M8.23828 23.3496H9.60828V24.7196H8.23828V23.3496Z" fill="#E6E6E6"/>
<path d="M5.48828 23.3496H6.85828V24.7196H5.48828V23.3496Z" fill="#E6E6E6"/>
<path d="M9.60938 23.3496H10.9794V24.7196H9.60938V23.3496Z" fill="#E6E6E6"/>
<path d="M10.9883 23.3496H12.3583V24.7196H10.9883V23.3496Z" fill="#E6E6E6"/>
<path d="M12.3594 23.3496H13.7294V24.7196H12.3594V23.3496Z" fill="#E6E6E6"/>
<path d="M13.7285 23.3496H15.0985V24.7196H13.7285V23.3496Z" fill="#E6E6E6"/>
<path d="M15.1094 23.3496H16.4794V24.7196H15.1094V23.3496Z" fill="#E6E6E6"/>
<path d="M16.4785 23.3496H17.8485V24.7196H16.4785V23.3496Z" fill="#E6E6E6"/>
<path d="M17.8594 23.3496H19.2294V24.7196H17.8594V23.3496Z" fill="#E6E6E6"/>
<path d="M20.5996 23.3496H21.9696V24.7196H20.5996V23.3496Z" fill="#E6E6E6"/>
<path d="M21.9785 23.3496H23.3485V24.7196H21.9785V23.3496Z" fill="#E6E6E6"/>
<path d="M19.2285 23.3496H20.5985V24.7196H19.2285V23.3496Z" fill="#E6E6E6"/>
<path d="M23.3496 0H24.7196V1.37H23.3496V0Z" fill="black"/>
<path d="M24.7207 1.36914H26.0907V2.73914H24.7207V1.36914Z" fill="black"/>
<path d="M26.0996 2.75H27.4696V4.12H26.0996V2.75Z" fill="black"/>
<path d="M26.0996 4.11914H27.4696V5.48914H26.0996V4.11914Z" fill="black"/>
<path d="M26.0996 5.49023H27.4696V6.86023H26.0996V5.49023Z" fill="black"/>
<path d="M26.0996 6.86914H27.4696V8.23914H26.0996V6.86914Z" fill="black"/>
<path d="M26.0996 8.24023H27.4696V9.61023H26.0996V8.24023Z" fill="black"/>
<path d="M26.0996 9.60938H27.4696V10.9794H26.0996V9.60938Z" fill="black"/>
<path d="M26.0996 10.9902H27.4696V12.3602H26.0996V10.9902Z" fill="black"/>
<path d="M26.0996 12.3594H27.4696V13.7294H26.0996V12.3594Z" fill="black"/>
<path d="M26.0996 13.7402H27.4696V15.1102H26.0996V13.7402Z" fill="black"/>
<path d="M26.0996 15.1094H27.4696V16.4794H26.0996V15.1094Z" fill="black"/>
<path d="M26.0996 16.4805H27.4696V17.8505H26.0996V16.4805Z" fill="black"/>
<path d="M26.0996 17.8594H27.4696V19.2294H26.0996V17.8594Z" fill="black"/>
<path d="M26.0996 19.2305H27.4696V20.6005H26.0996V19.2305Z" fill="black"/>
<path d="M26.0996 20.5996H27.4696V21.9696H26.0996V20.5996Z" fill="black"/>
<path d="M26.0996 21.9805H27.4696V23.3505H26.0996V21.9805Z" fill="black"/>
<path d="M24.7207 23.3496H26.0907V24.7196H24.7207V23.3496Z" fill="black"/>
<path d="M23.3496 24.7305H24.7196V26.1005H23.3496V24.7305Z" fill="black"/>
<path d="M2.74023 0H4.11023V1.37H2.74023V0Z" fill="black"/>
<path d="M4.11914 0H5.48914V1.37H4.11914V0Z" fill="black"/>
<path d="M6.86914 0H8.23914V1.37H6.86914V0Z" fill="black"/>
<path d="M8.24023 0H9.61023V1.37H8.24023V0Z" fill="black"/>
<path d="M5.49023 0H6.86023V1.37H5.49023V0Z" fill="black"/>
<path d="M9.60938 0H10.9794V1.37H9.60938V0Z" fill="black"/>
<path d="M10.9902 0H12.3602V1.37H10.9902V0Z" fill="black"/>
<path d="M12.3594 0H13.7294V1.37H12.3594V0Z" fill="black"/>
<path d="M13.7305 0H15.1005V1.37H13.7305V0Z" fill="black"/>
<path d="M15.1094 0H16.4794V1.37H15.1094V0Z" fill="black"/>
<path d="M16.4805 0H17.8505V1.37H16.4805V0Z" fill="black"/>
<path d="M17.8594 0H19.2294V1.37H17.8594V0Z" fill="black"/>
<path d="M20.5996 0H21.9696V1.37H20.5996V0Z" fill="black"/>
<path d="M21.9805 0H23.3505V1.37H21.9805V0Z" fill="black"/>
<path d="M19.2305 0H20.6005V1.37H19.2305V0Z" fill="black"/>
<path d="M1.36914 1.36914H2.73914V2.73914H1.36914V1.36914Z" fill="black"/>
<path d="M0 2.75H1.37001V4.12H0V2.75Z" fill="black"/>
<path d="M0 4.11914H1.37001V5.48914H0V4.11914Z" fill="black"/>
<path d="M0 5.49023H1.37001V6.86023H0V5.49023Z" fill="black"/>
<path d="M0 6.86914H1.37001V8.23914H0V6.86914Z" fill="black"/>
<path d="M0 8.24023H1.37001V9.61023H0V8.24023Z" fill="black"/>
<path d="M0 9.60938H1.37001V10.9794H0V9.60938Z" fill="black"/>
<path d="M0 10.9902H1.37001V12.3602H0V10.9902Z" fill="black"/>
<path d="M0 12.3594H1.37001V13.7294H0V12.3594Z" fill="black"/>
<path d="M0 13.7402H1.37001V15.1102H0V13.7402Z" fill="black"/>
<path d="M0 15.1094H1.37001V16.4794H0V15.1094Z" fill="black"/>
<path d="M0 16.4805H1.37001V17.8505H0V16.4805Z" fill="black"/>
<path d="M0 17.8594H1.37001V19.2294H0V17.8594Z" fill="black"/>
<path d="M0 19.2305H1.37001V20.6005H0V19.2305Z" fill="black"/>
<path d="M0 20.5996H1.37001V21.9696H0V20.5996Z" fill="black"/>
<path d="M0 21.9805H1.37001V23.3505H0V21.9805Z" fill="black"/>
<path d="M1.36914 23.3496H2.73914V24.7196H1.36914V23.3496Z" fill="black"/>
<path d="M2.74023 24.7305H4.11023V26.1005H2.74023V24.7305Z" fill="black"/>
<path d="M4.11914 24.7305H5.48914V26.1005H4.11914V24.7305Z" fill="black"/>
<path d="M6.86914 24.7305H8.23914V26.1005H6.86914V24.7305Z" fill="black"/>
<path d="M8.24023 24.7305H9.61023V26.1005H8.24023V24.7305Z" fill="black"/>
<path d="M5.49023 24.7305H6.86023V26.1005H5.49023V24.7305Z" fill="black"/>
<path d="M9.60938 24.7305H10.9794V26.1005H9.60938V24.7305Z" fill="black"/>
<path d="M10.9902 24.7305H12.3602V26.1005H10.9902V24.7305Z" fill="black"/>
<path d="M12.3594 24.7305H13.7294V26.1005H12.3594V24.7305Z" fill="black"/>
<path d="M13.7305 24.7305H15.1005V26.1005H13.7305V24.7305Z" fill="black"/>
<path d="M15.1094 24.7305H16.4794V26.1005H15.1094V24.7305Z" fill="black"/>
<path d="M16.4805 24.7305H17.8505V26.1005H16.4805V24.7305Z" fill="black"/>
<path d="M17.8594 24.7305H19.2294V26.1005H17.8594V24.7305Z" fill="black"/>
<path d="M20.5996 24.7305H21.9696V26.1005H20.5996V24.7305Z" fill="black"/>
<path d="M21.9805 24.7305H23.3505V26.1005H21.9805V24.7305Z" fill="black"/>
<path d="M19.2305 24.7305H20.6005V26.1005H19.2305V24.7305Z" fill="black"/>
<path d="M15.1094 26.0996H16.4794V27.4696H15.1094V26.0996Z" fill="black"/>
<path d="M15.1094 27.4688H16.4794V28.8388H15.1094V27.4688Z" fill="black"/>
<path d="M15.1094 28.8496H16.4794V30.2196H15.1094V28.8496Z" fill="black"/>
<path d="M15.1094 30.2188H16.4794V31.5888H15.1094V30.2188Z" fill="black"/>
<path d="M15.1094 31.5898H16.4794V32.9598H15.1094V31.5898Z" fill="black"/>
<path d="M15.1094 32.9688H16.4794V34.3388H15.1094V32.9688Z" fill="black"/>
<path d="M15.1094 34.3398H16.4794V35.7098H15.1094V34.3398Z" fill="black"/>
<path d="M15.1094 35.709H16.4794V37.079H15.1094V35.709Z" fill="black"/>
<path d="M15.1094 37.0898H16.4794V38.4598H15.1094V37.0898Z" fill="black"/>
<path d="M15.1094 38.459H16.4794V39.829H15.1094V38.459Z" fill="black"/>
<path d="M15.1094 39.8398H16.4794V41.2098H15.1094V39.8398Z" fill="black"/>
<path d="M15.1094 41.209H16.4794V42.579H15.1094V41.209Z" fill="black"/>
<path d="M15.1094 42.5801H16.4794V43.9501H15.1094V42.5801Z" fill="black"/>
<path d="M15.1094 43.959H16.4794V45.329H15.1094V43.959Z" fill="black"/>
<path d="M15.1094 45.3301H16.4794V46.7001H15.1094V45.3301Z" fill="black"/>
<path d="M15.1094 46.6992H16.4794V48.0692H15.1094V46.6992Z" fill="black"/>
<path d="M15.1094 48.0801H16.4794V49.4501H15.1094V48.0801Z" fill="black"/>
<path d="M15.1094 49.4492H16.4794V50.8192H15.1094V49.4492Z" fill="black"/>
<path d="M15.1094 50.8301H16.4794V52.2001H15.1094V50.8301Z" fill="black"/>
<path d="M15.1094 52.1992H16.4794V53.5692H15.1094V52.1992Z" fill="black"/>
<path d="M15.1094 53.5703H16.4794V54.9403H15.1094V53.5703Z" fill="black"/>
<path d="M15.1094 54.9492H16.4794V56.3192H15.1094V54.9492Z" fill="black"/>
<path d="M15.1094 56.3203H16.4794V57.6903H15.1094V56.3203Z" fill="black"/>
<path d="M15.1094 57.6895H16.4794V59.0594H15.1094V57.6895Z" fill="black"/>
<path d="M10.9902 26.0996H12.3602V27.4696H10.9902V26.0996Z" fill="black"/>
<path d="M10.9902 27.4688H12.3602V28.8388H10.9902V27.4688Z" fill="black"/>
<path d="M10.9902 28.8496H12.3602V30.2196H10.9902V28.8496Z" fill="black"/>
<path d="M10.9902 30.2188H12.3602V31.5888H10.9902V30.2188Z" fill="black"/>
<path d="M10.9902 31.5898H12.3602V32.9598H10.9902V31.5898Z" fill="black"/>
<path d="M10.9902 32.9688H12.3602V34.3388H10.9902V32.9688Z" fill="black"/>
<path d="M10.9902 34.3398H12.3602V35.7098H10.9902V34.3398Z" fill="black"/>
<path d="M10.9902 35.709H12.3602V37.079H10.9902V35.709Z" fill="black"/>
<path d="M10.9902 37.0898H12.3602V38.4598H10.9902V37.0898Z" fill="black"/>
<path d="M10.9902 38.459H12.3602V39.829H10.9902V38.459Z" fill="black"/>
<path d="M10.9902 39.8398H12.3602V41.2098H10.9902V39.8398Z" fill="black"/>
<path d="M10.9902 41.209H12.3602V42.579H10.9902V41.209Z" fill="black"/>
<path d="M10.9902 42.5801H12.3602V43.9501H10.9902V42.5801Z" fill="black"/>
<path d="M10.9902 43.959H12.3602V45.329H10.9902V43.959Z" fill="black"/>
<path d="M10.9902 45.3301H12.3602V46.7001H10.9902V45.3301Z" fill="black"/>
<path d="M10.9902 46.6992H12.3602V48.0692H10.9902V46.6992Z" fill="black"/>
<path d="M10.9902 48.0801H12.3602V49.4501H10.9902V48.0801Z" fill="black"/>
<path d="M10.9902 49.4492H12.3602V50.8192H10.9902V49.4492Z" fill="black"/>
<path d="M10.9902 50.8301H12.3602V52.2001H10.9902V50.8301Z" fill="black"/>
<path d="M10.9902 52.1992H12.3602V53.5692H10.9902V52.1992Z" fill="black"/>
<path d="M10.9902 53.5703H12.3602V54.9403H10.9902V53.5703Z" fill="black"/>
<path d="M10.9902 54.9492H12.3602V56.3192H10.9902V54.9492Z" fill="black"/>
<path d="M10.9902 56.3203H12.3602V57.6903H10.9902V56.3203Z" fill="black"/>
<path d="M10.9902 57.6895H12.3602V59.0594H10.9902V57.6895Z" fill="black"/>
<path d="M12.3594 57.6895H13.7294V59.0594H12.3594V57.6895Z" fill="black"/>
<path d="M13.7285 57.6895H15.0985V59.0594H13.7285V57.6895Z" fill="black"/>
<path d="M16.4785 60.4395H17.8485V61.8094H16.4785V60.4395Z" fill="black"/>
<path d="M10.9902 59.0703H12.3602V60.4403H10.9902V59.0703Z" fill="black"/>
<path d="M9.60938 60.4395H10.9794V61.8094H9.60938V60.4395Z" fill="black"/>
<path d="M9.60938 61.8203H10.9794V63.1903H9.60938V61.8203Z" fill="black"/>
<path d="M10.9902 61.8203H12.3602V63.1903H10.9902V61.8203Z" fill="black"/>
<path d="M12.3594 61.8203H13.7294V63.1903H12.3594V61.8203Z" fill="black"/>
<path d="M13.7285 61.8203H15.0985V63.1903H13.7285V61.8203Z" fill="black"/>
<path d="M15.1094 61.8203H16.4794V63.1903H15.1094V61.8203Z" fill="black"/>
<path d="M16.4785 61.8203H17.8485V63.1903H16.4785V61.8203Z" fill="black"/>
<path d="M15.1094 59.0703H16.4794V60.4403H15.1094V59.0703Z" fill="black"/>
<path d="M9.79063 11.1905V10.2305H8.83063V9.75055H10.7506V11.1905H10.2706V11.6705H7.87064V11.1905H7.39062V8.79055H7.87064V8.31055H10.7506V8.79055H8.35063V11.1905H9.79063Z" fill="white"/>
<path d="M11.2305 11.6705V8.79055H11.7105V8.31055H13.6305V8.79055H14.1105V11.6705H13.1505V10.2305H12.1905V11.6705H11.2305ZM13.1605 9.75055V8.79055H12.2005V9.75055H13.1605Z" fill="white"/>
<path d="M17.4796 8.31055V8.79055H16.5196V11.6705H15.5596V8.79055H14.5996V8.31055H17.4796Z" fill="white"/>
<path d="M20.3707 11.1908V11.6708H17.9707V8.30078H20.3707V8.78078H18.9307V9.74078H19.8907V10.2208H18.9307V11.1808H20.3707V11.1908Z" fill="white"/>
<path d="M6.42976 16.9601V16.4801H7.38976V16.9601H6.90976V17.4401H4.98976V16.9601H4.50977V14.5601H4.98976V14.0801H6.90976V14.5601H7.38976V15.0401H6.42976V14.5601H5.46976V16.9601H6.42976Z" fill="white"/>
<path d="M8.82913 14.0803V16.9603H10.2691V17.4403H7.86914V14.0703H8.82913V14.0803Z" fill="white"/>
<path d="M13.1598 17.4401H11.2398V16.9601H10.7598V14.5601H11.2398V14.0801H13.1598V14.5601H13.6398V16.9601H13.1598V17.4401ZM12.6798 14.5601H11.7198V16.9601H12.6798V14.5601Z" fill="white"/>
<path d="M16.5191 16.9601V17.4401H14.5991V16.9601H14.1191V16.4801H15.0791V16.9601H16.0391V16.0001H14.5991V15.5201H14.1191V14.5601H14.5991V14.0801H16.9991V14.5601H15.0791V15.5201H16.5191V16.0001H16.9991V16.9601H16.5191Z" fill="white"/>
<path d="M19.8902 16.9603V17.4403H17.4902V14.0703H19.8902V14.5503H18.4502V15.5103H19.4102V15.9903H18.4502V16.9503H19.8902V16.9603Z" fill="white"/>
<path d="M22.7691 17.4403H20.3691V14.0703H22.7691V14.5503H23.2491V16.9503H22.7691V17.4303V17.4403ZM22.2891 14.5603H21.3291V16.9603H22.2891V14.5603Z" fill="white"/>
</svg>
