<svg width="30" height="24" viewBox="0 0 30 24" fill="none" xmlns="http://www.w3.org/2000/svg">
<path d="M29.8093 20.5703H28.7793V21.6003H29.8093V20.5703Z" fill="#B83600"/>
<path d="M29.8093 19.5391H28.7793V20.5691H29.8093V19.5391Z" fill="#B83600"/>
<path d="M29.8093 18.5098H28.7793V19.5398H29.8093V18.5098Z" fill="#B83600"/>
<path d="M29.8093 17.4805H28.7793V18.5105H29.8093V17.4805Z" fill="#B83600"/>
<path d="M29.8093 16.4609H28.7793V17.4909H29.8093V16.4609Z" fill="#B83600"/>
<path d="M29.8093 15.4297H28.7793V16.4597H29.8093V15.4297Z" fill="#B83600"/>
<path d="M29.8093 14.4004H28.7793V15.4304H29.8093V14.4004Z" fill="#B83600"/>
<path d="M29.8093 13.3691H28.7793V14.3991H29.8093V13.3691Z" fill="#B83600"/>
<path d="M29.8093 12.3398H28.7793V13.3698H29.8093V12.3398Z" fill="#B83600"/>
<path d="M29.8093 11.3203H28.7793V12.3503H29.8093V11.3203Z" fill="#B83600"/>
<path d="M29.8093 10.2891H28.7793V11.3191H29.8093V10.2891Z" fill="#B83600"/>
<path d="M29.8093 9.25977H28.7793V10.2898H29.8093V9.25977Z" fill="#B83600"/>
<path d="M29.8093 8.23047H28.7793V9.26047H29.8093V8.23047Z" fill="#B83600"/>
<path d="M29.8093 7.19922H28.7793V8.22922H29.8093V7.19922Z" fill="#B83600"/>
<path d="M29.8093 6.16992H28.7793V7.19992H29.8093V6.16992Z" fill="#B83600"/>
<path d="M29.8093 5.15039H28.7793V6.18039H29.8093V5.15039Z" fill="#B83600"/>
<path d="M28.7898 21.5996H27.7598V22.6296H28.7898V21.5996Z" fill="#B83600"/>
<path d="M28.7898 20.5703H27.7598V21.6003H28.7898V20.5703Z" fill="#DA6000"/>
<path d="M28.7898 19.5391H27.7598V20.5691H28.7898V19.5391Z" fill="#DA6000"/>
<path d="M28.7898 18.5098H27.7598V19.5398H28.7898V18.5098Z" fill="#DA6000"/>
<path d="M28.7898 17.4805H27.7598V18.5105H28.7898V17.4805Z" fill="#DA6000"/>
<path d="M28.7898 16.4609H27.7598V17.4909H28.7898V16.4609Z" fill="#DA6000"/>
<path d="M28.7898 15.4297H27.7598V16.4597H28.7898V15.4297Z" fill="#DA6000"/>
<path d="M28.7898 14.4004H27.7598V15.4304H28.7898V14.4004Z" fill="#DA6000"/>
<path d="M28.7898 13.3691H27.7598V14.3991H28.7898V13.3691Z" fill="#DA6000"/>
<path d="M28.7898 12.3398H27.7598V13.3698H28.7898V12.3398Z" fill="#DA6000"/>
<path d="M28.7898 11.3203H27.7598V12.3503H28.7898V11.3203Z" fill="#DA6000"/>
<path d="M28.7898 10.2891H27.7598V11.3191H28.7898V10.2891Z" fill="#DA6000"/>
<path d="M28.7898 9.25977H27.7598V10.2898H28.7898V9.25977Z" fill="#DA6000"/>
<path d="M28.7898 8.23047H27.7598V9.26047H28.7898V8.23047Z" fill="#DA6000"/>
<path d="M28.7898 7.19922H27.7598V8.22922H28.7898V7.19922Z" fill="#DA6000"/>
<path d="M28.7898 6.16992H27.7598V7.19992H28.7898V6.16992Z" fill="#DA6000"/>
<path d="M28.7898 5.15039H27.7598V6.18039H28.7898V5.15039Z" fill="#DA5100"/>
<path d="M28.7898 4.11914H27.7598V5.14914H28.7898V4.11914Z" fill="#B83600"/>
<path d="M27.7605 22.6191H26.7305V23.6491H27.7605V22.6191Z" fill="#B83600"/>
<path d="M27.7605 21.5996H26.7305V22.6296H27.7605V21.5996Z" fill="#DA6000"/>
<path d="M27.7605 20.5703H26.7305V21.6003H27.7605V20.5703Z" fill="#DA6000"/>
<path d="M27.7605 19.5391H26.7305V20.5691H27.7605V19.5391Z" fill="#DA6000"/>
<path d="M27.7605 18.5098H26.7305V19.5398H27.7605V18.5098Z" fill="#DA6000"/>
<path d="M27.7605 17.4805H26.7305V18.5105H27.7605V17.4805Z" fill="#DA6000"/>
<path d="M27.7605 16.4609H26.7305V17.4909H27.7605V16.4609Z" fill="#DA6000"/>
<path d="M27.7605 15.4297H26.7305V16.4597H27.7605V15.4297Z" fill="#DA6000"/>
<path d="M27.7605 14.4004H26.7305V15.4304H27.7605V14.4004Z" fill="#DA6000"/>
<path d="M27.7605 13.3691H26.7305V14.3991H27.7605V13.3691Z" fill="#DA6000"/>
<path d="M27.7605 12.3398H26.7305V13.3698H27.7605V12.3398Z" fill="#DA6000"/>
<path d="M27.7605 11.3203H26.7305V12.3503H27.7605V11.3203Z" fill="#DA6000"/>
<path d="M27.7605 10.2891H26.7305V11.3191H27.7605V10.2891Z" fill="#DA6000"/>
<path d="M27.7605 9.25977H26.7305V10.2898H27.7605V9.25977Z" fill="#DA6000"/>
<path d="M27.7605 8.23047H26.7305V9.26047H27.7605V8.23047Z" fill="#DA6000"/>
<path d="M27.7605 7.19922H26.7305V8.22922H27.7605V7.19922Z" fill="#DA6000"/>
<path d="M27.7605 6.16992H26.7305V7.19992H27.7605V6.16992Z" fill="#DA5100"/>
<path d="M27.7605 5.15039H26.7305V6.18039H27.7605V5.15039Z" fill="#B83600"/>
<path d="M27.7605 4.11914H26.7305V5.14914H27.7605V4.11914Z" fill="#EE6D00"/>
<path d="M27.7605 3.08984H26.7305V4.11984H27.7605V3.08984Z" fill="#B83600"/>
<path d="M26.7292 22.6191H25.6992V23.6491H26.7292V22.6191Z" fill="#B83600"/>
<path d="M26.7292 21.5996H25.6992V22.6296H26.7292V21.5996Z" fill="#DA6000"/>
<path d="M26.7292 20.5703H25.6992V21.6003H26.7292V20.5703Z" fill="#DA6000"/>
<path d="M26.7292 19.5391H25.6992V20.5691H26.7292V19.5391Z" fill="#DA6000"/>
<path d="M26.7292 18.5098H25.6992V19.5398H26.7292V18.5098Z" fill="#DA6000"/>
<path d="M26.7292 17.4805H25.6992V18.5105H26.7292V17.4805Z" fill="#DA6000"/>
<path d="M26.7292 16.4609H25.6992V17.4909H26.7292V16.4609Z" fill="#DA6000"/>
<path d="M26.7292 15.4297H25.6992V16.4597H26.7292V15.4297Z" fill="#DA6000"/>
<path d="M26.7292 14.4004H25.6992V15.4304H26.7292V14.4004Z" fill="#DA6000"/>
<path d="M26.7292 13.3691H25.6992V14.3991H26.7292V13.3691Z" fill="#DA5100"/>
<path d="M26.7292 12.3398H25.6992V13.3698H26.7292V12.3398Z" fill="#DA5100"/>
<path d="M26.7292 11.3203H25.6992V12.3503H26.7292V11.3203Z" fill="#DA5100"/>
<path d="M26.7292 10.2891H25.6992V11.3191H26.7292V10.2891Z" fill="#DA5100"/>
<path d="M26.7292 9.25977H25.6992V10.2898H26.7292V9.25977Z" fill="#DA5100"/>
<path d="M26.7292 8.23047H25.6992V9.26047H26.7292V8.23047Z" fill="#DA5100"/>
<path d="M26.7292 7.19922H25.6992V8.22922H26.7292V7.19922Z" fill="#DA5100"/>
<path d="M26.7292 6.16992H25.6992V7.19992H26.7292V6.16992Z" fill="#B83600"/>
<path d="M26.7292 5.15039H25.6992V6.18039H26.7292V5.15039Z" fill="#EE6D00"/>
<path d="M26.7292 4.11914H25.6992V5.14914H26.7292V4.11914Z" fill="#EE6D00"/>
<path d="M26.7292 3.08984H25.6992V4.11984H26.7292V3.08984Z" fill="#B83600"/>
<path d="M25.6999 22.6191H24.6699V23.6491H25.6999V22.6191Z" fill="#B83600"/>
<path d="M25.6999 21.5996H24.6699V22.6296H25.6999V21.5996Z" fill="#DA6000"/>
<path d="M25.6999 20.5703H24.6699V21.6003H25.6999V20.5703Z" fill="#DA6000"/>
<path d="M25.6999 19.5391H24.6699V20.5691H25.6999V19.5391Z" fill="#DA6000"/>
<path d="M25.6999 18.5098H24.6699V19.5398H25.6999V18.5098Z" fill="#DA6000"/>
<path d="M25.6999 17.4805H24.6699V18.5105H25.6999V17.4805Z" fill="#DA6000"/>
<path d="M25.6999 16.4609H24.6699V17.4909H25.6999V16.4609Z" fill="#DA6000"/>
<path d="M25.6999 15.4297H24.6699V16.4597H25.6999V15.4297Z" fill="#DA6000"/>
<path d="M25.6999 14.4004H24.6699V15.4304H25.6999V14.4004Z" fill="#DA5100"/>
<path d="M25.6999 13.3691H24.6699V14.3991H25.6999V13.3691Z" fill="#B83600"/>
<path d="M25.6999 12.3398H24.6699V13.3698H25.6999V12.3398Z" fill="#B83600"/>
<path d="M25.6999 11.3203H24.6699V12.3503H25.6999V11.3203Z" fill="#B83600"/>
<path d="M25.6999 10.2891H24.6699V11.3191H25.6999V10.2891Z" fill="#B83600"/>
<path d="M25.6999 9.25977H24.6699V10.2898H25.6999V9.25977Z" fill="#B83600"/>
<path d="M25.6999 8.23047H24.6699V9.26047H25.6999V8.23047Z" fill="#B83600"/>
<path d="M25.6999 7.19922H24.6699V8.22922H25.6999V7.19922Z" fill="#B83600"/>
<path d="M25.6999 6.16992H24.6699V7.19992H25.6999V6.16992Z" fill="#EE6D00"/>
<path d="M25.6999 5.15039H24.6699V6.18039H25.6999V5.15039Z" fill="#EE6D00"/>
<path d="M25.6999 4.11914H24.6699V5.14914H25.6999V4.11914Z" fill="#EE6D00"/>
<path d="M25.6999 3.08984H24.6699V4.11984H25.6999V3.08984Z" fill="#B83600"/>
<path d="M24.6706 22.6191H23.6406V23.6491H24.6706V22.6191Z" fill="#B83600"/>
<path d="M24.6706 21.5996H23.6406V22.6296H24.6706V21.5996Z" fill="#DA6000"/>
<path d="M24.6706 20.5703H23.6406V21.6003H24.6706V20.5703Z" fill="#DA6000"/>
<path d="M24.6706 19.5391H23.6406V20.5691H24.6706V19.5391Z" fill="#DA6000"/>
<path d="M24.6706 18.5098H23.6406V19.5398H24.6706V18.5098Z" fill="#DA6000"/>
<path d="M24.6706 17.4805H23.6406V18.5105H24.6706V17.4805Z" fill="#DA6000"/>
<path d="M24.6706 16.4609H23.6406V17.4909H24.6706V16.4609Z" fill="#DA6000"/>
<path d="M24.6706 15.4297H23.6406V16.4597H24.6706V15.4297Z" fill="#DA5100"/>
<path d="M24.6706 14.4004H23.6406V15.4304H24.6706V14.4004Z" fill="#B83600"/>
<path d="M24.6706 13.3691H23.6406V14.3991H24.6706V13.3691Z" fill="#EE6D00"/>
<path d="M24.6706 12.3398H23.6406V13.3698H24.6706V12.3398Z" fill="#EE6D00"/>
<path d="M24.6706 11.3203H23.6406V12.3503H24.6706V11.3203Z" fill="#EE6D00"/>
<path d="M24.6706 10.2891H23.6406V11.3191H24.6706V10.2891Z" fill="#EE6D00"/>
<path d="M24.6706 9.25977H23.6406V10.2898H24.6706V9.25977Z" fill="#EE6D00"/>
<path d="M24.6706 8.23047H23.6406V9.26047H24.6706V8.23047Z" fill="#EE6D00"/>
<path d="M24.6706 7.19922H23.6406V8.22922H24.6706V7.19922Z" fill="#EE6D00"/>
<path d="M24.6706 6.16992H23.6406V7.19992H24.6706V6.16992Z" fill="#DA6000"/>
<path d="M24.6706 5.15039H23.6406V6.18039H24.6706V5.15039Z" fill="#EE6D00"/>
<path d="M24.6706 4.11914H23.6406V5.14914H24.6706V4.11914Z" fill="#EE6D00"/>
<path d="M24.6706 3.08984H23.6406V4.11984H24.6706V3.08984Z" fill="#B83600"/>
<path d="M23.6394 22.6191H22.6094V23.6491H23.6394V22.6191Z" fill="#B83600"/>
<path d="M23.6394 21.5996H22.6094V22.6296H23.6394V21.5996Z" fill="#DA6000"/>
<path d="M23.6394 20.5703H22.6094V21.6003H23.6394V20.5703Z" fill="#DA6000"/>
<path d="M23.6394 19.5391H22.6094V20.5691H23.6394V19.5391Z" fill="#DA6000"/>
<path d="M23.6394 18.5098H22.6094V19.5398H23.6394V18.5098Z" fill="#DA6000"/>
<path d="M23.6394 17.4805H22.6094V18.5105H23.6394V17.4805Z" fill="#DA6000"/>
<path d="M23.6394 16.4609H22.6094V17.4909H23.6394V16.4609Z" fill="#DA6000"/>
<path d="M23.6394 15.4297H22.6094V16.4597H23.6394V15.4297Z" fill="#DA5100"/>
<path d="M23.6394 14.4004H22.6094V15.4304H23.6394V14.4004Z" fill="#B83600"/>
<path d="M23.6394 13.3691H22.6094V14.3991H23.6394V13.3691Z" fill="#DA6000"/>
<path d="M23.6394 12.3398H22.6094V13.3698H23.6394V12.3398Z" fill="#DA6000"/>
<path d="M23.6394 11.3203H22.6094V12.3503H23.6394V11.3203Z" fill="#DA6000"/>
<path d="M23.6394 10.2891H22.6094V11.3191H23.6394V10.2891Z" fill="#DA6000"/>
<path d="M23.6394 9.25977H22.6094V10.2898H23.6394V9.25977Z" fill="#DA6000"/>
<path d="M23.6394 8.23047H22.6094V9.26047H23.6394V8.23047Z" fill="#DA6000"/>
<path d="M23.6394 7.19922H22.6094V8.22922H23.6394V7.19922Z" fill="#DA6000"/>
<path d="M23.6394 6.16992H22.6094V7.19992H23.6394V6.16992Z" fill="#DA6000"/>
<path d="M23.6394 5.15039H22.6094V6.18039H23.6394V5.15039Z" fill="#EE6D00"/>
<path d="M23.6394 4.11914H22.6094V5.14914H23.6394V4.11914Z" fill="#EE6D00"/>
<path d="M23.6394 3.08984H22.6094V4.11984H23.6394V3.08984Z" fill="#B83600"/>
<path d="M22.6198 22.6191H21.5898V23.6491H22.6198V22.6191Z" fill="#B83600"/>
<path d="M22.6198 21.5996H21.5898V22.6296H22.6198V21.5996Z" fill="#DA6000"/>
<path d="M22.6198 20.5703H21.5898V21.6003H22.6198V20.5703Z" fill="#DA6000"/>
<path d="M22.6198 19.5391H21.5898V20.5691H22.6198V19.5391Z" fill="#DA6000"/>
<path d="M22.6198 18.5098H21.5898V19.5398H22.6198V18.5098Z" fill="#DA6000"/>
<path d="M22.6198 17.4805H21.5898V18.5105H22.6198V17.4805Z" fill="#DA6000"/>
<path d="M22.6198 16.4609H21.5898V17.4909H22.6198V16.4609Z" fill="#DA6000"/>
<path d="M22.6198 15.4297H21.5898V16.4597H22.6198V15.4297Z" fill="#DA5100"/>
<path d="M22.6198 14.4004H21.5898V15.4304H22.6198V14.4004Z" fill="#B83600"/>
<path d="M22.6198 13.3691H21.5898V14.3991H22.6198V13.3691Z" fill="#DA6000"/>
<path d="M22.6198 12.3398H21.5898V13.3698H22.6198V12.3398Z" fill="#DA6000"/>
<path d="M22.6198 11.3203H21.5898V12.3503H22.6198V11.3203Z" fill="#DA6000"/>
<path d="M22.6198 10.2891H21.5898V11.3191H22.6198V10.2891Z" fill="#DA6000"/>
<path d="M22.6198 9.25977H21.5898V10.2898H22.6198V9.25977Z" fill="#DA6000"/>
<path d="M22.6198 8.23047H21.5898V9.26047H22.6198V8.23047Z" fill="#DA6000"/>
<path d="M22.6198 7.19922H21.5898V8.22922H22.6198V7.19922Z" fill="#DA6000"/>
<path d="M22.6198 6.16992H21.5898V7.19992H22.6198V6.16992Z" fill="#DA6000"/>
<path d="M22.6198 5.15039H21.5898V6.18039H22.6198V5.15039Z" fill="#EE6D00"/>
<path d="M22.6198 4.11914H21.5898V5.14914H22.6198V4.11914Z" fill="#EE6D00"/>
<path d="M22.6198 3.08984H21.5898V4.11984H22.6198V3.08984Z" fill="#B83600"/>
<path d="M21.5905 22.6191H20.5605V23.6491H21.5905V22.6191Z" fill="#B83600"/>
<path d="M21.5905 21.5996H20.5605V22.6296H21.5905V21.5996Z" fill="#DA6000"/>
<path d="M21.5905 20.5703H20.5605V21.6003H21.5905V20.5703Z" fill="#DA6000"/>
<path d="M21.5905 19.5391H20.5605V20.5691H21.5905V19.5391Z" fill="#DA6000"/>
<path d="M21.5905 18.5098H20.5605V19.5398H21.5905V18.5098Z" fill="#DA6000"/>
<path d="M21.5905 17.4805H20.5605V18.5105H21.5905V17.4805Z" fill="#DA6000"/>
<path d="M21.5905 16.4609H20.5605V17.4909H21.5905V16.4609Z" fill="#DA6000"/>
<path d="M21.5905 15.4297H20.5605V16.4597H21.5905V15.4297Z" fill="#DA5100"/>
<path d="M21.5905 14.4004H20.5605V15.4304H21.5905V14.4004Z" fill="#B83600"/>
<path d="M21.5905 13.3691H20.5605V14.3991H21.5905V13.3691Z" fill="#DA6000"/>
<path d="M21.5905 12.3398H20.5605V13.3698H21.5905V12.3398Z" fill="#DA6000"/>
<path d="M21.5905 11.3203H20.5605V12.3503H21.5905V11.3203Z" fill="#DA6000"/>
<path d="M21.5905 10.2891H20.5605V11.3191H21.5905V10.2891Z" fill="#DA6000"/>
<path d="M21.5905 9.25977H20.5605V10.2898H21.5905V9.25977Z" fill="#DA6000"/>
<path d="M21.5905 8.23047H20.5605V9.26047H21.5905V8.23047Z" fill="#DA6000"/>
<path d="M21.5905 7.19922H20.5605V8.22922H21.5905V7.19922Z" fill="#DA6000"/>
<path d="M21.5905 6.16992H20.5605V7.19992H21.5905V6.16992Z" fill="#DA6000"/>
<path d="M21.5905 5.15039H20.5605V6.18039H21.5905V5.15039Z" fill="#EE6D00"/>
<path d="M21.5905 4.11914H20.5605V5.14914H21.5905V4.11914Z" fill="#EE6D00"/>
<path d="M21.5905 3.08984H20.5605V4.11984H21.5905V3.08984Z" fill="#B83600"/>
<path d="M20.5593 22.6191H19.5293V23.6491H20.5593V22.6191Z" fill="#B83600"/>
<path d="M20.5593 21.5996H19.5293V22.6296H20.5593V21.5996Z" fill="#DA6000"/>
<path d="M20.5593 20.5703H19.5293V21.6003H20.5593V20.5703Z" fill="#DA6000"/>
<path d="M20.5593 19.5391H19.5293V20.5691H20.5593V19.5391Z" fill="#DA6000"/>
<path d="M20.5593 18.5098H19.5293V19.5398H20.5593V18.5098Z" fill="#DA6000"/>
<path d="M20.5593 17.4805H19.5293V18.5105H20.5593V17.4805Z" fill="#DA6000"/>
<path d="M20.5593 16.4609H19.5293V17.4909H20.5593V16.4609Z" fill="#DA5100"/>
<path d="M20.5593 15.4297H19.5293V16.4597H20.5593V15.4297Z" fill="#DA5100"/>
<path d="M20.5593 14.4004H19.5293V15.4304H20.5593V14.4004Z" fill="#B83600"/>
<path d="M20.5593 13.3691H19.5293V14.3991H20.5593V13.3691Z" fill="#DA6000"/>
<path d="M20.5593 12.3398H19.5293V13.3698H20.5593V12.3398Z" fill="#DA6000"/>
<path d="M20.5593 11.3203H19.5293V12.3503H20.5593V11.3203Z" fill="#DA6000"/>
<path d="M20.5593 10.2891H19.5293V11.3191H20.5593V10.2891Z" fill="#DA6000"/>
<path d="M20.5593 9.25977H19.5293V10.2898H20.5593V9.25977Z" fill="#DA6000"/>
<path d="M20.5593 8.23047H19.5293V9.26047H20.5593V8.23047Z" fill="#DA6000"/>
<path d="M20.5593 7.19922H19.5293V8.22922H20.5593V7.19922Z" fill="#DA6000"/>
<path d="M20.5593 6.16992H19.5293V7.19992H20.5593V6.16992Z" fill="#DA6000"/>
<path d="M20.5593 5.15039H19.5293V6.18039H20.5593V5.15039Z" fill="#EE6D00"/>
<path d="M20.5593 4.11914H19.5293V5.14914H20.5593V4.11914Z" fill="#EE6D00"/>
<path d="M20.5593 3.08984H19.5293V4.11984H20.5593V3.08984Z" fill="#B83600"/>
<path d="M19.53 22.6191H18.5V23.6491H19.53V22.6191Z" fill="#B83600"/>
<path d="M19.53 21.5996H18.5V22.6296H19.53V21.5996Z" fill="#DA6000"/>
<path d="M19.53 20.5703H18.5V21.6003H19.53V20.5703Z" fill="#DA6000"/>
<path d="M19.53 19.5391H18.5V20.5691H19.53V19.5391Z" fill="#DA6000"/>
<path d="M19.53 18.5098H18.5V19.5398H19.53V18.5098Z" fill="#DA6000"/>
<path d="M19.53 17.4805H18.5V18.5105H19.53V17.4805Z" fill="#DA6000"/>
<path d="M19.53 16.4609H18.5V17.4909H19.53V16.4609Z" fill="#DA5100"/>
<path d="M19.53 15.4297H18.5V16.4597H19.53V15.4297Z" fill="#DA5100"/>
<path d="M19.53 14.4004H18.5V15.4304H19.53V14.4004Z" fill="#B83600"/>
<path d="M19.53 13.3691H18.5V14.3991H19.53V13.3691Z" fill="#DA6000"/>
<path d="M19.53 12.3398H18.5V13.3698H19.53V12.3398Z" fill="#B83600"/>
<path d="M19.53 11.3203H18.5V12.3503H19.53V11.3203Z" fill="#B83600"/>
<path d="M19.53 10.2891H18.5V11.3191H19.53V10.2891Z" fill="#DA6000"/>
<path d="M19.53 9.25977H18.5V10.2898H19.53V9.25977Z" fill="#DA6000"/>
<path d="M19.53 8.23047H18.5V9.26047H19.53V8.23047Z" fill="#DA6000"/>
<path d="M19.53 7.19922H18.5V8.22922H19.53V7.19922Z" fill="#DA6000"/>
<path d="M19.53 6.16992H18.5V7.19992H19.53V6.16992Z" fill="#DA6000"/>
<path d="M19.53 5.15039H18.5V6.18039H19.53V5.15039Z" fill="#EE6D00"/>
<path d="M19.53 4.11914H18.5V5.14914H19.53V4.11914Z" fill="#EE6D00"/>
<path d="M19.53 3.08984H18.5V4.11984H19.53V3.08984Z" fill="#B83600"/>
<path d="M19.53 2.06055H18.5V3.09055H19.53V2.06055Z" fill="#B83600"/>
<path d="M19.53 1.0293H18.5V2.0593H19.53V1.0293Z" fill="#B83600"/>
<path d="M19.53 0H18.5V1.03001H19.53V0Z" fill="#B83600"/>
<path d="M18.5007 22.6191H17.4707V23.6491H18.5007V22.6191Z" fill="#B83600"/>
<path d="M18.5007 21.5996H17.4707V22.6296H18.5007V21.5996Z" fill="#DA6000"/>
<path d="M18.5007 20.5703H17.4707V21.6003H18.5007V20.5703Z" fill="#DA6000"/>
<path d="M18.5007 19.5391H17.4707V20.5691H18.5007V19.5391Z" fill="#DA6000"/>
<path d="M18.5007 18.5098H17.4707V19.5398H18.5007V18.5098Z" fill="#DA6000"/>
<path d="M18.5007 17.4805H17.4707V18.5105H18.5007V17.4805Z" fill="#DA6000"/>
<path d="M18.5007 16.4609H17.4707V17.4909H18.5007V16.4609Z" fill="#DA5100"/>
<path d="M18.5007 15.4297H17.4707V16.4597H18.5007V15.4297Z" fill="#DA5100"/>
<path d="M18.5007 14.4004H17.4707V15.4304H18.5007V14.4004Z" fill="#B83600"/>
<path d="M18.5007 13.3691H17.4707V14.3991H18.5007V13.3691Z" fill="#DA6000"/>
<path d="M18.5007 12.3398H17.4707V13.3698H18.5007V12.3398Z" fill="#B83600"/>
<path d="M18.5007 11.3203H17.4707V12.3503H18.5007V11.3203Z" fill="#B83600"/>
<path d="M18.5007 10.2891H17.4707V11.3191H18.5007V10.2891Z" fill="#DA6000"/>
<path d="M18.5007 9.25977H17.4707V10.2898H18.5007V9.25977Z" fill="#DA6000"/>
<path d="M18.5007 8.23047H17.4707V9.26047H18.5007V8.23047Z" fill="#DA6000"/>
<path d="M18.5007 7.19922H17.4707V8.22922H18.5007V7.19922Z" fill="#DA6000"/>
<path d="M18.5007 6.16992H17.4707V7.19992H18.5007V6.16992Z" fill="#DA6000"/>
<path d="M18.5007 5.15039H17.4707V6.18039H18.5007V5.15039Z" fill="#EE6D00"/>
<path d="M18.5007 4.11914H17.4707V5.14914H18.5007V4.11914Z" fill="#EE6D00"/>
<path d="M18.5007 3.08984H17.4707V4.11984H18.5007V3.08984Z" fill="#B83600"/>
<path d="M18.5007 0H17.4707V1.03001H18.5007V0Z" fill="#B83600"/>
<path d="M17.4792 22.6191H16.4492V23.6491H17.4792V22.6191Z" fill="#B83600"/>
<path d="M17.4792 21.5996H16.4492V22.6296H17.4792V21.5996Z" fill="#DA6000"/>
<path d="M17.4792 20.5703H16.4492V21.6003H17.4792V20.5703Z" fill="#DA6000"/>
<path d="M17.4792 19.5391H16.4492V20.5691H17.4792V19.5391Z" fill="#DA6000"/>
<path d="M17.4792 18.5098H16.4492V19.5398H17.4792V18.5098Z" fill="#DA6000"/>
<path d="M17.4792 17.4805H16.4492V18.5105H17.4792V17.4805Z" fill="#DA6000"/>
<path d="M17.4792 16.4609H16.4492V17.4909H17.4792V16.4609Z" fill="#DA5100"/>
<path d="M17.4792 15.4297H16.4492V16.4597H17.4792V15.4297Z" fill="#DA5100"/>
<path d="M17.4792 14.4004H16.4492V15.4304H17.4792V14.4004Z" fill="#B83600"/>
<path d="M17.4792 13.3691H16.4492V14.3991H17.4792V13.3691Z" fill="#DA6000"/>
<path d="M17.4792 12.3398H16.4492V13.3698H17.4792V12.3398Z" fill="#B83600"/>
<path d="M17.4792 11.3203H16.4492V12.3503H17.4792V11.3203Z" fill="#B83600"/>
<path d="M17.4792 10.2891H16.4492V11.3191H17.4792V10.2891Z" fill="#DA6000"/>
<path d="M17.4792 9.25977H16.4492V10.2898H17.4792V9.25977Z" fill="#DA6000"/>
<path d="M17.4792 8.23047H16.4492V9.26047H17.4792V8.23047Z" fill="#DA6000"/>
<path d="M17.4792 7.19922H16.4492V8.22922H17.4792V7.19922Z" fill="#DA6000"/>
<path d="M17.4792 6.16992H16.4492V7.19992H17.4792V6.16992Z" fill="#DA6000"/>
<path d="M17.4792 5.15039H16.4492V6.18039H17.4792V5.15039Z" fill="#EE6D00"/>
<path d="M17.4792 4.11914H16.4492V5.14914H17.4792V4.11914Z" fill="#EE6D00"/>
<path d="M17.4792 3.08984H16.4492V4.11984H17.4792V3.08984Z" fill="#B83600"/>
<path d="M17.4792 0H16.4492V1.03001H17.4792V0Z" fill="#B83600"/>
<path d="M16.4499 22.6191H15.4199V23.6491H16.4499V22.6191Z" fill="#B83600"/>
<path d="M16.4499 21.5996H15.4199V22.6296H16.4499V21.5996Z" fill="#DA6000"/>
<path d="M16.4499 20.5703H15.4199V21.6003H16.4499V20.5703Z" fill="#DA6000"/>
<path d="M16.4499 19.5391H15.4199V20.5691H16.4499V19.5391Z" fill="#DA6000"/>
<path d="M16.4499 18.5098H15.4199V19.5398H16.4499V18.5098Z" fill="#DA6000"/>
<path d="M16.4499 17.4805H15.4199V18.5105H16.4499V17.4805Z" fill="#DA6000"/>
<path d="M16.4499 16.4609H15.4199V17.4909H16.4499V16.4609Z" fill="#DA5100"/>
<path d="M16.4499 15.4297H15.4199V16.4597H16.4499V15.4297Z" fill="#DA5100"/>
<path d="M16.4499 14.4004H15.4199V15.4304H16.4499V14.4004Z" fill="#B83600"/>
<path d="M16.4499 13.3691H15.4199V14.3991H16.4499V13.3691Z" fill="#DA6000"/>
<path d="M16.4499 12.3398H15.4199V13.3698H16.4499V12.3398Z" fill="#B83600"/>
<path d="M16.4499 11.3203H15.4199V12.3503H16.4499V11.3203Z" fill="#B83600"/>
<path d="M16.4499 10.2891H15.4199V11.3191H16.4499V10.2891Z" fill="#DA6000"/>
<path d="M16.4499 9.25977H15.4199V10.2898H16.4499V9.25977Z" fill="#DA6000"/>
<path d="M16.4499 8.23047H15.4199V9.26047H16.4499V8.23047Z" fill="#DA6000"/>
<path d="M16.4499 7.19922H15.4199V8.22922H16.4499V7.19922Z" fill="#DA6000"/>
<path d="M16.4499 6.16992H15.4199V7.19992H16.4499V6.16992Z" fill="#DA6000"/>
<path d="M16.4499 5.15039H15.4199V6.18039H16.4499V5.15039Z" fill="#EE6D00"/>
<path d="M16.4499 4.11914H15.4199V5.14914H16.4499V4.11914Z" fill="#EE6D00"/>
<path d="M16.4499 3.08984H15.4199V4.11984H16.4499V3.08984Z" fill="#B83600"/>
<path d="M16.4499 0H15.4199V1.03001H16.4499V0Z" fill="#B83600"/>
<path d="M15.4206 22.6191H14.3906V23.6491H15.4206V22.6191Z" fill="#B83600"/>
<path d="M15.4206 21.5996H14.3906V22.6296H15.4206V21.5996Z" fill="#DA6000"/>
<path d="M15.4206 20.5703H14.3906V21.6003H15.4206V20.5703Z" fill="#DA6000"/>
<path d="M15.4206 19.5391H14.3906V20.5691H15.4206V19.5391Z" fill="#DA6000"/>
<path d="M15.4206 18.5098H14.3906V19.5398H15.4206V18.5098Z" fill="#DA6000"/>
<path d="M15.4206 17.4805H14.3906V18.5105H15.4206V17.4805Z" fill="#DA6000"/>
<path d="M15.4206 16.4609H14.3906V17.4909H15.4206V16.4609Z" fill="#DA5100"/>
<path d="M15.4206 15.4297H14.3906V16.4597H15.4206V15.4297Z" fill="#DA5100"/>
<path d="M15.4206 14.4004H14.3906V15.4304H15.4206V14.4004Z" fill="#B83600"/>
<path d="M15.4206 13.3691H14.3906V14.3991H15.4206V13.3691Z" fill="#DA6000"/>
<path d="M15.4206 12.3398H14.3906V13.3698H15.4206V12.3398Z" fill="#B83600"/>
<path d="M15.4206 11.3203H14.3906V12.3503H15.4206V11.3203Z" fill="#B83600"/>
<path d="M15.4206 10.2891H14.3906V11.3191H15.4206V10.2891Z" fill="#DA6000"/>
<path d="M15.4206 9.25977H14.3906V10.2898H15.4206V9.25977Z" fill="#DA6000"/>
<path d="M15.4206 8.23047H14.3906V9.26047H15.4206V8.23047Z" fill="#DA6000"/>
<path d="M15.4206 7.19922H14.3906V8.22922H15.4206V7.19922Z" fill="#DA6000"/>
<path d="M15.4206 6.16992H14.3906V7.19992H15.4206V6.16992Z" fill="#DA6000"/>
<path d="M15.4206 5.15039H14.3906V6.18039H15.4206V5.15039Z" fill="#EE6D00"/>
<path d="M15.4206 4.11914H14.3906V5.14914H15.4206V4.11914Z" fill="#EE6D00"/>
<path d="M15.4206 3.08984H14.3906V4.11984H15.4206V3.08984Z" fill="#B83600"/>
<path d="M15.4206 0H14.3906V1.03001H15.4206V0Z" fill="#B83600"/>
<path d="M14.3894 22.6191H13.3594V23.6491H14.3894V22.6191Z" fill="#B83600"/>
<path d="M14.3894 21.5996H13.3594V22.6296H14.3894V21.5996Z" fill="#DA6000"/>
<path d="M14.3894 20.5703H13.3594V21.6003H14.3894V20.5703Z" fill="#DA6000"/>
<path d="M14.3894 19.5391H13.3594V20.5691H14.3894V19.5391Z" fill="#DA6000"/>
<path d="M14.3894 18.5098H13.3594V19.5398H14.3894V18.5098Z" fill="#DA6000"/>
<path d="M14.3894 17.4805H13.3594V18.5105H14.3894V17.4805Z" fill="#DA6000"/>
<path d="M14.3894 16.4609H13.3594V17.4909H14.3894V16.4609Z" fill="#DA5100"/>
<path d="M14.3894 15.4297H13.3594V16.4597H14.3894V15.4297Z" fill="#DA5100"/>
<path d="M14.3894 14.4004H13.3594V15.4304H14.3894V14.4004Z" fill="#B83600"/>
<path d="M14.3894 13.3691H13.3594V14.3991H14.3894V13.3691Z" fill="#DA6000"/>
<path d="M14.3894 12.3398H13.3594V13.3698H14.3894V12.3398Z" fill="#B83600"/>
<path d="M14.3894 11.3203H13.3594V12.3503H14.3894V11.3203Z" fill="#B83600"/>
<path d="M14.3894 10.2891H13.3594V11.3191H14.3894V10.2891Z" fill="#DA6000"/>
<path d="M14.3894 9.25977H13.3594V10.2898H14.3894V9.25977Z" fill="#DA6000"/>
<path d="M14.3894 8.23047H13.3594V9.26047H14.3894V8.23047Z" fill="#DA6000"/>
<path d="M14.3894 7.19922H13.3594V8.22922H14.3894V7.19922Z" fill="#DA6000"/>
<path d="M14.3894 6.16992H13.3594V7.19992H14.3894V6.16992Z" fill="#DA6000"/>
<path d="M14.3894 5.15039H13.3594V6.18039H14.3894V5.15039Z" fill="#EE6D00"/>
<path d="M14.3894 4.11914H13.3594V5.14914H14.3894V4.11914Z" fill="#EE6D00"/>
<path d="M14.3894 3.08984H13.3594V4.11984H14.3894V3.08984Z" fill="#B83600"/>
<path d="M14.3894 0H13.3594V1.03001H14.3894V0Z" fill="#B83600"/>
<path d="M13.3601 22.6191H12.3301V23.6491H13.3601V22.6191Z" fill="#B83600"/>
<path d="M13.3601 21.5996H12.3301V22.6296H13.3601V21.5996Z" fill="#DA6000"/>
<path d="M13.3601 20.5703H12.3301V21.6003H13.3601V20.5703Z" fill="#DA6000"/>
<path d="M13.3601 19.5391H12.3301V20.5691H13.3601V19.5391Z" fill="#DA6000"/>
<path d="M13.3601 18.5098H12.3301V19.5398H13.3601V18.5098Z" fill="#DA6000"/>
<path d="M13.3601 17.4805H12.3301V18.5105H13.3601V17.4805Z" fill="#DA6000"/>
<path d="M13.3601 16.4609H12.3301V17.4909H13.3601V16.4609Z" fill="#DA5100"/>
<path d="M13.3601 15.4297H12.3301V16.4597H13.3601V15.4297Z" fill="#DA5100"/>
<path d="M13.3601 14.4004H12.3301V15.4304H13.3601V14.4004Z" fill="#B83600"/>
<path d="M13.3601 13.3691H12.3301V14.3991H13.3601V13.3691Z" fill="#DA6000"/>
<path d="M13.3601 12.3398H12.3301V13.3698H13.3601V12.3398Z" fill="#B83600"/>
<path d="M13.3601 11.3203H12.3301V12.3503H13.3601V11.3203Z" fill="#B83600"/>
<path d="M13.3601 10.2891H12.3301V11.3191H13.3601V10.2891Z" fill="#DA6000"/>
<path d="M13.3601 9.25977H12.3301V10.2898H13.3601V9.25977Z" fill="#DA6000"/>
<path d="M13.3601 8.23047H12.3301V9.26047H13.3601V8.23047Z" fill="#DA6000"/>
<path d="M13.3601 7.19922H12.3301V8.22922H13.3601V7.19922Z" fill="#DA6000"/>
<path d="M13.3601 6.16992H12.3301V7.19992H13.3601V6.16992Z" fill="#DA6000"/>
<path d="M13.3601 5.15039H12.3301V6.18039H13.3601V5.15039Z" fill="#EE6D00"/>
<path d="M13.3601 4.11914H12.3301V5.14914H13.3601V4.11914Z" fill="#EE6D00"/>
<path d="M13.3601 3.08984H12.3301V4.11984H13.3601V3.08984Z" fill="#B83600"/>
<path d="M13.3601 0H12.3301V1.03001H13.3601V0Z" fill="#B83600"/>
<path d="M12.3405 22.6191H11.3105V23.6491H12.3405V22.6191Z" fill="#B83600"/>
<path d="M12.3405 21.5996H11.3105V22.6296H12.3405V21.5996Z" fill="#DA6000"/>
<path d="M12.3405 20.5703H11.3105V21.6003H12.3405V20.5703Z" fill="#DA6000"/>
<path d="M12.3405 19.5391H11.3105V20.5691H12.3405V19.5391Z" fill="#DA6000"/>
<path d="M12.3405 18.5098H11.3105V19.5398H12.3405V18.5098Z" fill="#DA6000"/>
<path d="M12.3405 17.4805H11.3105V18.5105H12.3405V17.4805Z" fill="#DA6000"/>
<path d="M12.3405 16.4609H11.3105V17.4909H12.3405V16.4609Z" fill="#DA5100"/>
<path d="M12.3405 15.4297H11.3105V16.4597H12.3405V15.4297Z" fill="#DA5100"/>
<path d="M12.3405 14.4004H11.3105V15.4304H12.3405V14.4004Z" fill="#B83600"/>
<path d="M12.3405 13.3691H11.3105V14.3991H12.3405V13.3691Z" fill="#DA6000"/>
<path d="M12.3405 12.3398H11.3105V13.3698H12.3405V12.3398Z" fill="#B83600"/>
<path d="M12.3405 11.3203H11.3105V12.3503H12.3405V11.3203Z" fill="#B83600"/>
<path d="M12.3405 10.2891H11.3105V11.3191H12.3405V10.2891Z" fill="#DA6000"/>
<path d="M12.3405 9.25977H11.3105V10.2898H12.3405V9.25977Z" fill="#DA6000"/>
<path d="M12.3405 8.23047H11.3105V9.26047H12.3405V8.23047Z" fill="#DA6000"/>
<path d="M12.3405 7.19922H11.3105V8.22922H12.3405V7.19922Z" fill="#DA6000"/>
<path d="M12.3405 6.16992H11.3105V7.19992H12.3405V6.16992Z" fill="#DA6000"/>
<path d="M12.3405 5.15039H11.3105V6.18039H12.3405V5.15039Z" fill="#EE6D00"/>
<path d="M12.3405 4.11914H11.3105V5.14914H12.3405V4.11914Z" fill="#EE6D00"/>
<path d="M12.3405 3.08984H11.3105V4.11984H12.3405V3.08984Z" fill="#B83600"/>
<path d="M12.3405 0H11.3105V1.03001H12.3405V0Z" fill="#B83600"/>
<path d="M11.3093 22.6191H10.2793V23.6491H11.3093V22.6191Z" fill="#B83600"/>
<path d="M11.3093 21.5996H10.2793V22.6296H11.3093V21.5996Z" fill="#DA6000"/>
<path d="M11.3093 20.5703H10.2793V21.6003H11.3093V20.5703Z" fill="#DA6000"/>
<path d="M11.3093 19.5391H10.2793V20.5691H11.3093V19.5391Z" fill="#DA6000"/>
<path d="M11.3093 18.5098H10.2793V19.5398H11.3093V18.5098Z" fill="#DA6000"/>
<path d="M11.3093 17.4805H10.2793V18.5105H11.3093V17.4805Z" fill="#DA6000"/>
<path d="M11.3093 16.4609H10.2793V17.4909H11.3093V16.4609Z" fill="#DA5100"/>
<path d="M11.3093 15.4297H10.2793V16.4597H11.3093V15.4297Z" fill="#DA5100"/>
<path d="M11.3093 14.4004H10.2793V15.4304H11.3093V14.4004Z" fill="#B83600"/>
<path d="M11.3093 13.3691H10.2793V14.3991H11.3093V13.3691Z" fill="#DA6000"/>
<path d="M11.3093 12.3398H10.2793V13.3698H11.3093V12.3398Z" fill="#B83600"/>
<path d="M11.3093 11.3203H10.2793V12.3503H11.3093V11.3203Z" fill="#B83600"/>
<path d="M11.3093 10.2891H10.2793V11.3191H11.3093V10.2891Z" fill="#DA6000"/>
<path d="M11.3093 9.25977H10.2793V10.2898H11.3093V9.25977Z" fill="#DA6000"/>
<path d="M11.3093 8.23047H10.2793V9.26047H11.3093V8.23047Z" fill="#DA6000"/>
<path d="M11.3093 7.19922H10.2793V8.22922H11.3093V7.19922Z" fill="#DA6000"/>
<path d="M11.3093 6.16992H10.2793V7.19992H11.3093V6.16992Z" fill="#DA6000"/>
<path d="M11.3093 5.15039H10.2793V6.18039H11.3093V5.15039Z" fill="#EE6D00"/>
<path d="M11.3093 4.11914H10.2793V5.14914H11.3093V4.11914Z" fill="#EE6D00"/>
<path d="M11.3093 3.08984H10.2793V4.11984H11.3093V3.08984Z" fill="#B83600"/>
<path d="M11.3093 2.06055H10.2793V3.09055H11.3093V2.06055Z" fill="#B83600"/>
<path d="M11.3093 1.0293H10.2793V2.0593H11.3093V1.0293Z" fill="#B83600"/>
<path d="M11.3093 0H10.2793V1.03001H11.3093V0Z" fill="#B83600"/>
<path d="M10.28 22.6191H9.25V23.6491H10.28V22.6191Z" fill="#B83600"/>
<path d="M10.28 21.5996H9.25V22.6296H10.28V21.5996Z" fill="#DA6000"/>
<path d="M10.28 20.5703H9.25V21.6003H10.28V20.5703Z" fill="#DA6000"/>
<path d="M10.28 19.5391H9.25V20.5691H10.28V19.5391Z" fill="#DA6000"/>
<path d="M10.28 18.5098H9.25V19.5398H10.28V18.5098Z" fill="#DA6000"/>
<path d="M10.28 17.4805H9.25V18.5105H10.28V17.4805Z" fill="#DA6000"/>
<path d="M10.28 16.4609H9.25V17.4909H10.28V16.4609Z" fill="#DA5100"/>
<path d="M10.28 15.4297H9.25V16.4597H10.28V15.4297Z" fill="#DA5100"/>
<path d="M10.28 14.4004H9.25V15.4304H10.28V14.4004Z" fill="#B83600"/>
<path d="M10.28 13.3691H9.25V14.3991H10.28V13.3691Z" fill="#DA6000"/>
<path d="M10.28 12.3398H9.25V13.3698H10.28V12.3398Z" fill="#DA6000"/>
<path d="M10.28 11.3203H9.25V12.3503H10.28V11.3203Z" fill="#DA6000"/>
<path d="M10.28 10.2891H9.25V11.3191H10.28V10.2891Z" fill="#DA6000"/>
<path d="M10.28 9.25977H9.25V10.2898H10.28V9.25977Z" fill="#DA6000"/>
<path d="M10.28 8.23047H9.25V9.26047H10.28V8.23047Z" fill="#DA6000"/>
<path d="M10.28 7.19922H9.25V8.22922H10.28V7.19922Z" fill="#DA6000"/>
<path d="M10.28 6.16992H9.25V7.19992H10.28V6.16992Z" fill="#DA6000"/>
<path d="M10.28 5.15039H9.25V6.18039H10.28V5.15039Z" fill="#EE6D00"/>
<path d="M10.28 4.11914H9.25V5.14914H10.28V4.11914Z" fill="#EE6D00"/>
<path d="M10.28 3.08984H9.25V4.11984H10.28V3.08984Z" fill="#B83600"/>
<path d="M9.2507 22.6191H8.2207V23.6491H9.2507V22.6191Z" fill="#B83600"/>
<path d="M9.2507 21.5996H8.2207V22.6296H9.2507V21.5996Z" fill="#DA6000"/>
<path d="M9.2507 20.5703H8.2207V21.6003H9.2507V20.5703Z" fill="#DA6000"/>
<path d="M9.2507 19.5391H8.2207V20.5691H9.2507V19.5391Z" fill="#DA6000"/>
<path d="M9.2507 18.5098H8.2207V19.5398H9.2507V18.5098Z" fill="#DA6000"/>
<path d="M9.2507 17.4805H8.2207V18.5105H9.2507V17.4805Z" fill="#DA6000"/>
<path d="M9.2507 16.4609H8.2207V17.4909H9.2507V16.4609Z" fill="#DA6000"/>
<path d="M9.2507 15.4297H8.2207V16.4597H9.2507V15.4297Z" fill="#DA5100"/>
<path d="M9.2507 14.4004H8.2207V15.4304H9.2507V14.4004Z" fill="#B83600"/>
<path d="M9.2507 13.3691H8.2207V14.3991H9.2507V13.3691Z" fill="#DA6000"/>
<path d="M9.2507 12.3398H8.2207V13.3698H9.2507V12.3398Z" fill="#DA6000"/>
<path d="M9.2507 11.3203H8.2207V12.3503H9.2507V11.3203Z" fill="#DA6000"/>
<path d="M9.2507 10.2891H8.2207V11.3191H9.2507V10.2891Z" fill="#DA6000"/>
<path d="M9.2507 9.25977H8.2207V10.2898H9.2507V9.25977Z" fill="#DA6000"/>
<path d="M9.2507 8.23047H8.2207V9.26047H9.2507V8.23047Z" fill="#DA6000"/>
<path d="M9.2507 7.19922H8.2207V8.22922H9.2507V7.19922Z" fill="#DA6000"/>
<path d="M9.2507 6.16992H8.2207V7.19992H9.2507V6.16992Z" fill="#DA6000"/>
<path d="M9.2507 5.15039H8.2207V6.18039H9.2507V5.15039Z" fill="#EE6D00"/>
<path d="M9.2507 4.11914H8.2207V5.14914H9.2507V4.11914Z" fill="#EE6D00"/>
<path d="M9.2507 3.08984H8.2207V4.11984H9.2507V3.08984Z" fill="#B83600"/>
<path d="M8.21945 22.6191H7.18945V23.6491H8.21945V22.6191Z" fill="#B83600"/>
<path d="M8.21945 21.5996H7.18945V22.6296H8.21945V21.5996Z" fill="#DA6000"/>
<path d="M8.21945 20.5703H7.18945V21.6003H8.21945V20.5703Z" fill="#DA6000"/>
<path d="M8.21945 19.5391H7.18945V20.5691H8.21945V19.5391Z" fill="#DA6000"/>
<path d="M8.21945 18.5098H7.18945V19.5398H8.21945V18.5098Z" fill="#DA6000"/>
<path d="M8.21945 17.4805H7.18945V18.5105H8.21945V17.4805Z" fill="#DA6000"/>
<path d="M8.21945 16.4609H7.18945V17.4909H8.21945V16.4609Z" fill="#DA6000"/>
<path d="M8.21945 15.4297H7.18945V16.4597H8.21945V15.4297Z" fill="#DA5100"/>
<path d="M8.21945 14.4004H7.18945V15.4304H8.21945V14.4004Z" fill="#B83600"/>
<path d="M8.21945 13.3691H7.18945V14.3991H8.21945V13.3691Z" fill="#DA6000"/>
<path d="M8.21945 12.3398H7.18945V13.3698H8.21945V12.3398Z" fill="#DA6000"/>
<path d="M8.21945 11.3203H7.18945V12.3503H8.21945V11.3203Z" fill="#DA6000"/>
<path d="M8.21945 10.2891H7.18945V11.3191H8.21945V10.2891Z" fill="#DA6000"/>
<path d="M8.21945 9.25977H7.18945V10.2898H8.21945V9.25977Z" fill="#DA6000"/>
<path d="M8.21945 8.23047H7.18945V9.26047H8.21945V8.23047Z" fill="#DA6000"/>
<path d="M8.21945 7.19922H7.18945V8.22922H8.21945V7.19922Z" fill="#DA6000"/>
<path d="M8.21945 6.16992H7.18945V7.19992H8.21945V6.16992Z" fill="#DA6000"/>
<path d="M8.21945 5.15039H7.18945V6.18039H8.21945V5.15039Z" fill="#EE6D00"/>
<path d="M8.21945 4.11914H7.18945V5.14914H8.21945V4.11914Z" fill="#EE6D00"/>
<path d="M8.21945 3.08984H7.18945V4.11984H8.21945V3.08984Z" fill="#B83600"/>
<path d="M7.19992 22.6191H6.16992V23.6491H7.19992V22.6191Z" fill="#B83600"/>
<path d="M7.19992 21.5996H6.16992V22.6296H7.19992V21.5996Z" fill="#DA6000"/>
<path d="M7.19992 20.5703H6.16992V21.6003H7.19992V20.5703Z" fill="#DA6000"/>
<path d="M7.19992 19.5391H6.16992V20.5691H7.19992V19.5391Z" fill="#DA6000"/>
<path d="M7.19992 18.5098H6.16992V19.5398H7.19992V18.5098Z" fill="#DA6000"/>
<path d="M7.19992 17.4805H6.16992V18.5105H7.19992V17.4805Z" fill="#DA6000"/>
<path d="M7.19992 16.4609H6.16992V17.4909H7.19992V16.4609Z" fill="#DA6000"/>
<path d="M7.19992 15.4297H6.16992V16.4597H7.19992V15.4297Z" fill="#DA5100"/>
<path d="M7.19992 14.4004H6.16992V15.4304H7.19992V14.4004Z" fill="#B83600"/>
<path d="M7.19992 13.3691H6.16992V14.3991H7.19992V13.3691Z" fill="#DA6000"/>
<path d="M7.19992 12.3398H6.16992V13.3698H7.19992V12.3398Z" fill="#DA6000"/>
<path d="M7.19992 11.3203H6.16992V12.3503H7.19992V11.3203Z" fill="#DA6000"/>
<path d="M7.19992 10.2891H6.16992V11.3191H7.19992V10.2891Z" fill="#DA6000"/>
<path d="M7.19992 9.25977H6.16992V10.2898H7.19992V9.25977Z" fill="#DA6000"/>
<path d="M7.19992 8.23047H6.16992V9.26047H7.19992V8.23047Z" fill="#DA6000"/>
<path d="M7.19992 7.19922H6.16992V8.22922H7.19992V7.19922Z" fill="#DA6000"/>
<path d="M7.19992 6.16992H6.16992V7.19992H7.19992V6.16992Z" fill="#DA6000"/>
<path d="M7.19992 5.15039H6.16992V6.18039H7.19992V5.15039Z" fill="#EE6D00"/>
<path d="M7.19992 4.11914H6.16992V5.14914H7.19992V4.11914Z" fill="#EE6D00"/>
<path d="M7.19992 3.08984H6.16992V4.11984H7.19992V3.08984Z" fill="#B83600"/>
<path d="M6.17062 22.6191H5.14062V23.6491H6.17062V22.6191Z" fill="#B83600"/>
<path d="M6.17062 21.5996H5.14062V22.6296H6.17062V21.5996Z" fill="#DA6000"/>
<path d="M6.17062 20.5703H5.14062V21.6003H6.17062V20.5703Z" fill="#DA6000"/>
<path d="M6.17062 19.5391H5.14062V20.5691H6.17062V19.5391Z" fill="#DA6000"/>
<path d="M6.17062 18.5098H5.14062V19.5398H6.17062V18.5098Z" fill="#DA6000"/>
<path d="M6.17062 17.4805H5.14062V18.5105H6.17062V17.4805Z" fill="#DA6000"/>
<path d="M6.17062 16.4609H5.14062V17.4909H6.17062V16.4609Z" fill="#DA6000"/>
<path d="M6.17062 15.4297H5.14062V16.4597H6.17062V15.4297Z" fill="#DA5100"/>
<path d="M6.17062 14.4004H5.14062V15.4304H6.17062V14.4004Z" fill="#B83600"/>
<path d="M6.17062 13.3691H5.14062V14.3991H6.17062V13.3691Z" fill="#EE6D00"/>
<path d="M6.17062 12.3398H5.14062V13.3698H6.17062V12.3398Z" fill="#EE6D00"/>
<path d="M6.17062 11.3203H5.14062V12.3503H6.17062V11.3203Z" fill="#EE6D00"/>
<path d="M6.17062 10.2891H5.14062V11.3191H6.17062V10.2891Z" fill="#EE6D00"/>
<path d="M6.17062 9.25977H5.14062V10.2898H6.17062V9.25977Z" fill="#EE6D00"/>
<path d="M6.17062 8.23047H5.14062V9.26047H6.17062V8.23047Z" fill="#EE6D00"/>
<path d="M6.17062 7.19922H5.14062V8.22922H6.17062V7.19922Z" fill="#EE6D00"/>
<path d="M6.17062 6.16992H5.14062V7.19992H6.17062V6.16992Z" fill="#EE6D00"/>
<path d="M6.17062 5.15039H5.14062V6.18039H6.17062V5.15039Z" fill="#EE6D00"/>
<path d="M6.17062 4.11914H5.14062V5.14914H6.17062V4.11914Z" fill="#EE6D00"/>
<path d="M6.17062 3.08984H5.14062V4.11984H6.17062V3.08984Z" fill="#B83600"/>
<path d="M5.13937 22.6191H4.10938V23.6491H5.13937V22.6191Z" fill="#B83600"/>
<path d="M5.13937 21.5996H4.10938V22.6296H5.13937V21.5996Z" fill="#DA6000"/>
<path d="M5.13937 20.5703H4.10938V21.6003H5.13937V20.5703Z" fill="#DA6000"/>
<path d="M5.13937 19.5391H4.10938V20.5691H5.13937V19.5391Z" fill="#DA6000"/>
<path d="M5.13937 18.5098H4.10938V19.5398H5.13937V18.5098Z" fill="#DA6000"/>
<path d="M5.13937 17.4805H4.10938V18.5105H5.13937V17.4805Z" fill="#DA6000"/>
<path d="M5.13937 16.4609H4.10938V17.4909H5.13937V16.4609Z" fill="#DA6000"/>
<path d="M5.13937 15.4297H4.10938V16.4597H5.13937V15.4297Z" fill="#DA6000"/>
<path d="M5.13937 14.4004H4.10938V15.4304H5.13937V14.4004Z" fill="#DA5100"/>
<path d="M5.13937 13.3691H4.10938V14.3991H5.13937V13.3691Z" fill="#B83600"/>
<path d="M5.13937 12.3398H4.10938V13.3698H5.13937V12.3398Z" fill="#B83600"/>
<path d="M5.13937 11.3203H4.10938V12.3503H5.13937V11.3203Z" fill="#B83600"/>
<path d="M5.13937 10.2891H4.10938V11.3191H5.13937V10.2891Z" fill="#B83600"/>
<path d="M5.13937 9.25977H4.10938V10.2898H5.13937V9.25977Z" fill="#B83600"/>
<path d="M5.13937 8.23047H4.10938V9.26047H5.13937V8.23047Z" fill="#B83600"/>
<path d="M5.13937 7.19922H4.10938V8.22922H5.13937V7.19922Z" fill="#B83600"/>
<path d="M5.13937 6.16992H4.10938V7.19992H5.13937V6.16992Z" fill="#EE6D00"/>
<path d="M5.13937 5.15039H4.10938V6.18039H5.13937V5.15039Z" fill="#EE6D00"/>
<path d="M5.13937 4.11914H4.10938V5.14914H5.13937V4.11914Z" fill="#EE6D00"/>
<path d="M5.13937 3.08984H4.10938V4.11984H5.13937V3.08984Z" fill="#B83600"/>
<path d="M4.11008 22.6191H3.08008V23.6491H4.11008V22.6191Z" fill="#B83600"/>
<path d="M4.11008 21.5996H3.08008V22.6296H4.11008V21.5996Z" fill="#DA6000"/>
<path d="M4.11008 20.5703H3.08008V21.6003H4.11008V20.5703Z" fill="#DA6000"/>
<path d="M4.11008 19.5391H3.08008V20.5691H4.11008V19.5391Z" fill="#DA6000"/>
<path d="M4.11008 18.5098H3.08008V19.5398H4.11008V18.5098Z" fill="#DA6000"/>
<path d="M4.11008 17.4805H3.08008V18.5105H4.11008V17.4805Z" fill="#DA6000"/>
<path d="M4.11008 16.4609H3.08008V17.4909H4.11008V16.4609Z" fill="#DA6000"/>
<path d="M4.11008 15.4297H3.08008V16.4597H4.11008V15.4297Z" fill="#DA6000"/>
<path d="M4.11008 14.4004H3.08008V15.4304H4.11008V14.4004Z" fill="#DA6000"/>
<path d="M4.11008 13.3691H3.08008V14.3991H4.11008V13.3691Z" fill="#DA5100"/>
<path d="M4.11008 12.3398H3.08008V13.3698H4.11008V12.3398Z" fill="#DA5100"/>
<path d="M4.11008 11.3203H3.08008V12.3503H4.11008V11.3203Z" fill="#DA5100"/>
<path d="M4.11008 10.2891H3.08008V11.3191H4.11008V10.2891Z" fill="#DA5100"/>
<path d="M4.11008 9.25977H3.08008V10.2898H4.11008V9.25977Z" fill="#DA5100"/>
<path d="M4.11008 8.23047H3.08008V9.26047H4.11008V8.23047Z" fill="#DA5100"/>
<path d="M4.11008 7.19922H3.08008V8.22922H4.11008V7.19922Z" fill="#DA5100"/>
<path d="M4.11008 6.16992H3.08008V7.19992H4.11008V6.16992Z" fill="#B83600"/>
<path d="M4.11008 5.15039H3.08008V6.18039H4.11008V5.15039Z" fill="#EE6D00"/>
<path d="M4.11008 4.11914H3.08008V5.14914H4.11008V4.11914Z" fill="#EE6D00"/>
<path d="M4.11008 3.08984H3.08008V4.11984H4.11008V3.08984Z" fill="#B83600"/>
<path d="M3.08078 22.6191H2.05078V23.6491H3.08078V22.6191Z" fill="#B83600"/>
<path d="M3.08078 21.5996H2.05078V22.6296H3.08078V21.5996Z" fill="#DA6000"/>
<path d="M3.08078 20.5703H2.05078V21.6003H3.08078V20.5703Z" fill="#DA6000"/>
<path d="M3.08078 19.5391H2.05078V20.5691H3.08078V19.5391Z" fill="#DA6000"/>
<path d="M3.08078 18.5098H2.05078V19.5398H3.08078V18.5098Z" fill="#DA6000"/>
<path d="M3.08078 17.4805H2.05078V18.5105H3.08078V17.4805Z" fill="#DA6000"/>
<path d="M3.08078 16.4609H2.05078V17.4909H3.08078V16.4609Z" fill="#DA6000"/>
<path d="M3.08078 15.4297H2.05078V16.4597H3.08078V15.4297Z" fill="#DA6000"/>
<path d="M3.08078 14.4004H2.05078V15.4304H3.08078V14.4004Z" fill="#DA6000"/>
<path d="M3.08078 13.3691H2.05078V14.3991H3.08078V13.3691Z" fill="#DA6000"/>
<path d="M3.08078 12.3398H2.05078V13.3698H3.08078V12.3398Z" fill="#DA6000"/>
<path d="M3.08078 11.3203H2.05078V12.3503H3.08078V11.3203Z" fill="#DA6000"/>
<path d="M3.08078 10.2891H2.05078V11.3191H3.08078V10.2891Z" fill="#DA6000"/>
<path d="M3.08078 9.25977H2.05078V10.2898H3.08078V9.25977Z" fill="#DA6000"/>
<path d="M3.08078 8.23047H2.05078V9.26047H3.08078V8.23047Z" fill="#DA6000"/>
<path d="M3.08078 7.19922H2.05078V8.22922H3.08078V7.19922Z" fill="#DA6000"/>
<path d="M3.08078 6.16992H2.05078V7.19992H3.08078V6.16992Z" fill="#DA5100"/>
<path d="M3.08078 5.15039H2.05078V6.18039H3.08078V5.15039Z" fill="#B83600"/>
<path d="M3.08078 4.11914H2.05078V5.14914H3.08078V4.11914Z" fill="#EE6D00"/>
<path d="M3.08078 3.08984H2.05078V4.11984H3.08078V3.08984Z" fill="#B83600"/>
<path d="M2.0593 21.5996H1.0293V22.6296H2.0593V21.5996Z" fill="#B83600"/>
<path d="M2.0593 20.5703H1.0293V21.6003H2.0593V20.5703Z" fill="#DA6000"/>
<path d="M2.0593 19.5391H1.0293V20.5691H2.0593V19.5391Z" fill="#DA6000"/>
<path d="M2.0593 18.5098H1.0293V19.5398H2.0593V18.5098Z" fill="#DA6000"/>
<path d="M2.0593 17.4805H1.0293V18.5105H2.0593V17.4805Z" fill="#DA6000"/>
<path d="M2.0593 16.4609H1.0293V17.4909H2.0593V16.4609Z" fill="#DA6000"/>
<path d="M2.0593 15.4297H1.0293V16.4597H2.0593V15.4297Z" fill="#DA6000"/>
<path d="M2.0593 14.4004H1.0293V15.4304H2.0593V14.4004Z" fill="#DA6000"/>
<path d="M2.0593 13.3691H1.0293V14.3991H2.0593V13.3691Z" fill="#DA6000"/>
<path d="M2.0593 12.3398H1.0293V13.3698H2.0593V12.3398Z" fill="#DA6000"/>
<path d="M2.0593 11.3203H1.0293V12.3503H2.0593V11.3203Z" fill="#DA6000"/>
<path d="M2.0593 10.2891H1.0293V11.3191H2.0593V10.2891Z" fill="#DA6000"/>
<path d="M2.0593 9.25977H1.0293V10.2898H2.0593V9.25977Z" fill="#DA6000"/>
<path d="M2.0593 8.23047H1.0293V9.26047H2.0593V8.23047Z" fill="#DA6000"/>
<path d="M2.0593 7.19922H1.0293V8.22922H2.0593V7.19922Z" fill="#DA6000"/>
<path d="M2.0593 6.16992H1.0293V7.19992H2.0593V6.16992Z" fill="#DA6000"/>
<path d="M2.0593 5.15039H1.0293V6.18039H2.0593V5.15039Z" fill="#DA5100"/>
<path d="M2.0593 4.11914H1.0293V5.14914H2.0593V4.11914Z" fill="#B83600"/>
<path d="M1.03 20.5703H0V21.6003H1.03V20.5703Z" fill="#B83600"/>
<path d="M1.03 19.5391H0V20.5691H1.03V19.5391Z" fill="#B83600"/>
<path d="M1.03 18.5098H0V19.5398H1.03V18.5098Z" fill="#B83600"/>
<path d="M1.03 17.4805H0V18.5105H1.03V17.4805Z" fill="#B83600"/>
<path d="M1.03 16.4609H0V17.4909H1.03V16.4609Z" fill="#B83600"/>
<path d="M1.03 15.4297H0V16.4597H1.03V15.4297Z" fill="#B83600"/>
<path d="M1.03 14.4004H0V15.4304H1.03V14.4004Z" fill="#B83600"/>
<path d="M1.03 13.3691H0V14.3991H1.03V13.3691Z" fill="#B83600"/>
<path d="M1.03 12.3398H0V13.3698H1.03V12.3398Z" fill="#B83600"/>
<path d="M1.03 11.3203H0V12.3503H1.03V11.3203Z" fill="#B83600"/>
<path d="M1.03 10.2891H0V11.3191H1.03V10.2891Z" fill="#B83600"/>
<path d="M1.03 9.25977H0V10.2898H1.03V9.25977Z" fill="#B83600"/>
<path d="M1.03 8.23047H0V9.26047H1.03V8.23047Z" fill="#B83600"/>
<path d="M1.03 7.19922H0V8.22922H1.03V7.19922Z" fill="#B83600"/>
<path d="M1.03 6.16992H0V7.19992H1.03V6.16992Z" fill="#B83600"/>
<path d="M1.03 5.15039H0V6.18039H1.03V5.15039Z" fill="#B83600"/>
</svg>
