<svg width="712" height="70" viewBox="0 0 712 70" fill="none" xmlns="http://www.w3.org/2000/svg">
<g clip-path="url(#clip0_10256_6)">
<g clip-path="url(#clip1_10256_6)">
<path d="M357.91 11.11V0H349.84V7.27H336.79V18.38H325.27V0H316.05V10.72H303.38V0H294.55V9.96H283.8V0H271.13V4.59H253.46V0H242.71V13.4H232.34V0H224.28V7.27H209.3V16.09H195.1V3.83H185.5V10.34H177.05V2.68H165.15V11.87H147.48V0H133.28V5.74H121.37V0H110.62V5.36H94.49V14.94H84.13V0H74.91V8.04H61.85V0H55.33V4.98H35.36V17.23H26.14V0H12.32V6.89H0V137.36H360V11.11H357.91Z" fill="#69CAE0"/>
</g>
<g clip-path="url(#clip2_10256_6)">
<path d="M709.91 11.11V0H701.84V7.27H688.79V18.38H677.27V0H668.05V10.72H655.38V0H646.55V9.96H635.8V0H623.13V4.59H605.46V0H594.71V13.4H584.34V0H576.28V7.27H561.3V16.09H547.1V3.83H537.5V10.34H529.05V2.68H517.15V11.87H499.48V0H485.28V5.74H473.37V0H462.62V5.36H446.49V14.94H436.13V0H426.91V8.04H413.85V0H407.33V4.98H387.36V17.23H378.14V0H364.32V6.89H352V137.36H712V11.11H709.91Z" fill="#69CAE0"/>
</g>
</g>
<defs>
<clipPath id="clip0_10256_6">
<rect width="712" height="70" fill="white"/>
</clipPath>
<clipPath id="clip1_10256_6">
<rect width="360" height="70" fill="white"/>
</clipPath>
<clipPath id="clip2_10256_6">
<rect width="360" height="70" fill="white" transform="translate(352)"/>
</clipPath>
</defs>
</svg>
