<svg width="43" height="22" viewBox="0 0 43 22" fill="none" xmlns="http://www.w3.org/2000/svg">
<path d="M39.54 20.4995V19.7595H38.68V19.0295H37.82V18.2995V17.5695H36.96V16.8395V16.0995V15.3695V14.6395V13.9095V13.1795V12.4395H36.1V13.1795H35.24V13.9095H34.38H33.52H32.66H31.8H30.95H30.09V13.1795H29.23V12.4395H28.37V11.7095H27.51V12.4395H26.65V13.1795V13.9095H25.79V14.6395H24.93V15.3695H24.07V16.0995H23.21H22.35V16.8395H21.49H20.63H19.77H18.91H18.05H17.19H16.33H15.47V16.0995H14.61H13.75V15.3695H12.89V14.6395H12.04V13.9095H11.18H10.32V14.6395H9.46001V15.3695H8.60001H7.74001H6.88H6.02H5.16H4.3V14.6395H3.44V13.9095H2.58V13.1795V12.4395H1.72V11.7095V10.9795V10.2495V9.51953H0.860001V10.2495V10.9795V11.7095H0V12.4395V13.1795V13.9095V14.6395V15.3695V16.0995H0.860001V16.8395V17.5695V18.2995H1.72V19.0295V19.7595H2.58V20.4995H3.44V21.2295H4.3H5.16V21.9595H6.02H6.88H7.74001H8.60001H9.46001H10.32H11.18H12.04H12.89H13.75H14.61H15.47H16.33H17.19H18.05H18.91H19.77H20.63H21.49H22.35H23.21H24.07H24.93H25.79H26.65H27.51H28.37H29.23H30.09H30.95H31.8H32.66H33.52H34.38H35.24H36.1H36.96H37.82H38.68H39.54V21.2295H40.4V20.4995H39.54Z" fill="#B1E1F0"/>
<path d="M42.1207 13.91V13.18V12.44H41.2607V11.71H40.4007V10.98H39.5407V10.25H38.6807H37.8207H36.9607V9.52V8.78V8.05H36.1007V7.32V6.59V5.86H35.2407V5.12H34.3807V4.39H33.5207V3.66H32.6607V2.93H31.8007H30.9507H30.0907H29.2307H28.3707H27.5107H26.6507H25.7907V3.66H24.9307V2.93V2.2H24.0707V1.46H23.2107H22.3507V0.73H21.4907V0H20.6307H19.7707H18.9107H18.0507H17.1907H16.3307V0.73H15.4707H14.6107V1.46H13.7507V2.2H12.8907V2.93H12.0407V3.66H11.1807V4.39V5.12V5.86H10.3207H9.46071H8.60071H7.74071H6.88071H6.02071H5.16071V6.59H4.3007H3.4407V7.32H2.5807V8.05H1.7207V8.78V9.52V10.25V10.98V11.71V12.44H2.5807V13.18V13.91H3.4407V14.64H4.3007V15.37H5.16071H6.02071H6.88071H7.74071H8.60071H9.46071V14.64H10.3207V13.91H11.1807H12.0407V14.64H12.8907V15.37H13.7507V16.1H14.6107H15.4707V16.84H16.3307H17.1907H18.0507H18.9107H19.7707H20.6307H21.4907H22.3507V16.1H23.2107H24.0707V15.37H24.9307V14.64H25.7907V13.91H26.6507V13.18V12.44H27.5107V11.71H28.3707V12.44H29.2307V13.18H30.0907V13.91H30.9507H31.8007H32.6607H33.5207H34.3807H35.2407V13.18H36.1007V12.44H36.9607V13.18V13.91V14.64V15.37V16.1V16.84V17.57H37.8207V18.3V19.03H38.6807V19.76H39.5407V20.5H40.4007V21.23H41.2607V20.5V19.76H42.1207V19.03H42.9807V18.3V17.57V16.84V16.1V15.37V14.64V13.91H42.1207Z" fill="white"/>
</svg>
