<svg width="42" height="14" viewBox="0 0 42 14" fill="none" xmlns="http://www.w3.org/2000/svg">
<path d="M4.30937 0.619141L3.07938 1.22914L1.84938 1.84914L1.22937 3.07915L0.609375 4.31915V9.24915L1.22937 10.4791L1.84938 11.7091L3.07938 12.3291L4.30937 12.9491H37.6094L38.8394 12.3291L40.0694 11.7091L40.6894 10.4791L41.3094 9.24915V4.31915L40.6894 3.07915L40.0694 1.84914L38.8394 1.22914L37.6094 0.619141H4.30937Z" fill="#FDB813"/>
<path d="M7.39929 1.23047H6.7793V1.85047H7.39929V1.23047Z" fill="white"/>
<path d="M6.78015 1.23047H6.16016V1.85047H6.78015V1.23047Z" fill="white"/>
<path d="M6.16882 1.23047H5.54883V1.85047H6.16882V1.23047Z" fill="white"/>
<path d="M5.5497 1.23047H4.92969V1.85047H5.5497V1.23047Z" fill="white"/>
<path d="M4.93054 1.84961H4.31055V2.46961H4.93054V1.84961Z" fill="white"/>
<path d="M4.31923 1.84961H3.69922V2.46961H4.31923V1.84961Z" fill="white"/>
<path d="M3.70007 2.4707H3.08008V3.0907H3.70007V2.4707Z" fill="white"/>
<path d="M3.07898 2.4707H2.45898V3.0907H3.07898V2.4707Z" fill="white"/>
<path d="M3.07898 3.08008H2.45898V3.70007H3.07898V3.08008Z" fill="white"/>
<path d="M2.4696 3.70117H1.84961V4.32117H2.4696V3.70117Z" fill="white"/>
<path d="M1.22937 7.40039H0.609375V8.02039H1.22937V7.40039Z" fill="#FCC938"/>
<path d="M1.22937 8.01953H0.609375V8.63953H1.22937V8.01953Z" fill="#FCC938"/>
<path d="M41.3094 7.40039H40.6895V8.02039H41.3094V7.40039Z" fill="#FCC938"/>
<path d="M41.3094 8.01953H40.6895V8.63953H41.3094V8.01953Z" fill="#FCC938"/>
<path d="M1.84853 8.63086H1.22852V9.25086H1.84853V8.63086Z" fill="#FCC938"/>
<path d="M2.46765 9.86133H1.84766V10.4813H2.46765V9.86133Z" fill="#FCC938"/>
<path d="M3.07898 9.86133H2.45898V10.4813H3.07898V9.86133Z" fill="#FCC938"/>
<path d="M3.69812 10.4805H3.07812V11.1005H3.69812V10.4805Z" fill="#FCC938"/>
<path d="M4.31923 10.4805H3.69922V11.1005H4.31923V10.4805Z" fill="#FCC938"/>
<path d="M4.92859 11.1016H4.30859V11.7216H4.92859V11.1016Z" fill="#FCC938"/>
<path d="M5.54774 11.1016H4.92773V11.7216H5.54774V11.1016Z" fill="#FCC938"/>
<path d="M6.16882 11.1016H5.54883V11.7216H6.16882V11.1016Z" fill="#FCC938"/>
<path d="M6.7782 11.1016H6.1582V11.7216H6.7782V11.1016Z" fill="#FCC938"/>
<path d="M7.39929 11.1016H6.7793V11.7216H7.39929V11.1016Z" fill="#FCC938"/>
<path d="M8.01845 11.1016H7.39844V11.7216H8.01845V11.1016Z" fill="#FCC938"/>
<path d="M8.62782 11.1016H8.00781V11.7216H8.62782V11.1016Z" fill="#FCC938"/>
<path d="M9.2489 11.1016H8.62891V11.7216H9.2489V11.1016Z" fill="#FCC938"/>
<path d="M9.86804 11.1016H9.24805V11.7216H9.86804V11.1016Z" fill="#FCC938"/>
<path d="M10.4794 11.1016H9.85938V11.7216H10.4794V11.1016Z" fill="#FCC938"/>
<path d="M11.0985 11.1016H10.4785V11.7216H11.0985V11.1016Z" fill="#FCC938"/>
<path d="M11.7177 11.1016H11.0977V11.7216H11.7177V11.1016Z" fill="#FCC938"/>
<path d="M12.329 11.1016H11.709V11.7216H12.329V11.1016Z" fill="#FCC938"/>
<path d="M12.9481 11.1016H12.3281V11.7216H12.9481V11.1016Z" fill="#FCC938"/>
<path d="M13.5692 11.1016H12.9492V11.7216H13.5692V11.1016Z" fill="#FCC938"/>
<path d="M14.1786 11.1016H13.5586V11.7216H14.1786V11.1016Z" fill="#FCC938"/>
<path d="M14.7977 11.1016H14.1777V11.7216H14.7977V11.1016Z" fill="#FCC938"/>
<path d="M15.4091 11.1016H14.7891V11.7216H15.4091V11.1016Z" fill="#FCC938"/>
<path d="M16.0282 11.1016H15.4082V11.7216H16.0282V11.1016Z" fill="#FCC938"/>
<path d="M16.6493 11.1016H16.0293V11.7216H16.6493V11.1016Z" fill="#FCC938"/>
<path d="M17.2587 11.1016H16.6387V11.7216H17.2587V11.1016Z" fill="#FCC938"/>
<path d="M17.8778 11.1016H17.2578V11.7216H17.8778V11.1016Z" fill="#FCC938"/>
<path d="M18.4989 11.1016H17.8789V11.7216H18.4989V11.1016Z" fill="#FCC938"/>
<path d="M19.1083 11.1016H18.4883V11.7216H19.1083V11.1016Z" fill="#FCC938"/>
<path d="M19.7294 11.1016H19.1094V11.7216H19.7294V11.1016Z" fill="#FCC938"/>
<path d="M20.3485 11.1016H19.7285V11.7216H20.3485V11.1016Z" fill="#FCC938"/>
<path d="M20.9579 11.1016H20.3379V11.7216H20.9579V11.1016Z" fill="#FCC938"/>
<path d="M21.579 11.1016H20.959V11.7216H21.579V11.1016Z" fill="#FCC938"/>
<path d="M22.1981 11.1016H21.5781V11.7216H22.1981V11.1016Z" fill="#FCC938"/>
<path d="M22.8094 11.1016H22.1895V11.7216H22.8094V11.1016Z" fill="#FCC938"/>
<path d="M23.4286 11.1016H22.8086V11.7216H23.4286V11.1016Z" fill="#FCC938"/>
<path d="M24.0477 11.1016H23.4277V11.7216H24.0477V11.1016Z" fill="#FCC938"/>
<path d="M24.6591 11.1016H24.0391V11.7216H24.6591V11.1016Z" fill="#FCC938"/>
<path d="M25.2782 11.1016H24.6582V11.7216H25.2782V11.1016Z" fill="#FCC938"/>
<path d="M25.8993 11.1016H25.2793V11.7216H25.8993V11.1016Z" fill="#FCC938"/>
<path d="M26.5087 11.1016H25.8887V11.7216H26.5087V11.1016Z" fill="#FCC938"/>
<path d="M1.84853 9.25H1.22852V9.87H1.84853V9.25Z" fill="#FCC938"/>
<path d="M40.6884 8.63086H40.0684V9.25086H40.6884V8.63086Z" fill="#FCC938"/>
<path d="M40.079 9.86133H39.459V10.4813H40.079V9.86133Z" fill="#FCC938"/>
<path d="M39.4579 9.86133H38.8379V10.4813H39.4579V9.86133Z" fill="#FCC938"/>
<path d="M38.8387 10.4805H38.2188V11.1005H38.8387V10.4805Z" fill="#FCC938"/>
<path d="M38.2294 10.4805H37.6094V11.1005H38.2294V10.4805Z" fill="#FCC938"/>
<path d="M37.6083 11.1016H36.9883V11.7216H37.6083V11.1016Z" fill="#FCC938"/>
<path d="M36.9892 11.1016H36.3691V11.7216H36.9892V11.1016Z" fill="#FCC938"/>
<path d="M36.3778 11.1016H35.7578V11.7216H36.3778V11.1016Z" fill="#FCC938"/>
<path d="M35.7587 11.1016H35.1387V11.7216H35.7587V11.1016Z" fill="#FCC938"/>
<path d="M35.1376 11.1016H34.5176V11.7216H35.1376V11.1016Z" fill="#FCC938"/>
<path d="M34.5282 11.1016H33.9082V11.7216H34.5282V11.1016Z" fill="#FCC938"/>
<path d="M33.9091 11.1016H33.2891V11.7216H33.9091V11.1016Z" fill="#FCC938"/>
<path d="M33.288 11.1016H32.668V11.7216H33.288V11.1016Z" fill="#FCC938"/>
<path d="M32.6786 11.1016H32.0586V11.7216H32.6786V11.1016Z" fill="#FCC938"/>
<path d="M32.0594 11.1016H31.4395V11.7216H32.0594V11.1016Z" fill="#FCC938"/>
<path d="M31.4481 11.1016H30.8281V11.7216H31.4481V11.1016Z" fill="#FCC938"/>
<path d="M30.829 11.1016H30.209V11.7216H30.829V11.1016Z" fill="#FCC938"/>
<path d="M30.2079 11.1016H29.5879V11.7216H30.2079V11.1016Z" fill="#FCC938"/>
<path d="M29.5985 11.1016H28.9785V11.7216H29.5985V11.1016Z" fill="#FCC938"/>
<path d="M28.9794 11.1016H28.3594V11.7216H28.9794V11.1016Z" fill="#FCC938"/>
<path d="M28.3583 11.1016H27.7383V11.7216H28.3583V11.1016Z" fill="#FCC938"/>
<path d="M27.7489 11.1016H27.1289V11.7216H27.7489V11.1016Z" fill="#FCC938"/>
<path d="M27.1278 11.1016H26.5078V11.7216H27.1278V11.1016Z" fill="#FCC938"/>
<path d="M40.6884 9.25H40.0684V9.87H40.6884V9.25Z" fill="#FCC938"/>
<path d="M1.22937 8.01953H0.609375V8.63953H1.22937V8.01953Z" fill="#FCC938"/>
<path d="M1.22937 8.62891H0.609375V9.24891H1.22937V8.62891Z" fill="#FCC938"/>
<path d="M41.3094 8.01953H40.6895V8.63953H41.3094V8.01953Z" fill="#FCC938"/>
<path d="M41.3094 8.62891H40.6895V9.24891H41.3094V8.62891Z" fill="#FCC938"/>
<path d="M1.84853 9.25H1.22852V9.87H1.84853V9.25Z" fill="#FCC938"/>
<path d="M2.46765 10.4805H1.84766V11.1005H2.46765V10.4805Z" fill="#FCC938"/>
<path d="M3.07898 10.4805H2.45898V11.1005H3.07898V10.4805Z" fill="#FCC938"/>
<path d="M3.69812 11.0996H3.07812V11.7196H3.69812V11.0996Z" fill="#FCC938"/>
<path d="M4.31923 11.0996H3.69922V11.7196H4.31923V11.0996Z" fill="#FCC938"/>
<path d="M4.92859 11.7109H4.30859V12.3309H4.92859V11.7109Z" fill="#FCC938"/>
<path d="M5.54774 11.7109H4.92773V12.3309H5.54774V11.7109Z" fill="#FCC938"/>
<path d="M6.16882 11.7109H5.54883V12.3309H6.16882V11.7109Z" fill="#FCC938"/>
<path d="M6.7782 11.7109H6.1582V12.3309H6.7782V11.7109Z" fill="#FCC938"/>
<path d="M7.39929 11.7109H6.7793V12.3309H7.39929V11.7109Z" fill="#FCC938"/>
<path d="M8.01845 11.7109H7.39844V12.3309H8.01845V11.7109Z" fill="#FCC938"/>
<path d="M8.62782 11.7109H8.00781V12.3309H8.62782V11.7109Z" fill="#FCC938"/>
<path d="M9.2489 11.7109H8.62891V12.3309H9.2489V11.7109Z" fill="#FCC938"/>
<path d="M9.86804 11.7109H9.24805V12.3309H9.86804V11.7109Z" fill="#FCC938"/>
<path d="M10.4794 11.7109H9.85938V12.3309H10.4794V11.7109Z" fill="#FCC938"/>
<path d="M11.0985 11.7109H10.4785V12.3309H11.0985V11.7109Z" fill="#FCC938"/>
<path d="M11.7177 11.7109H11.0977V12.3309H11.7177V11.7109Z" fill="#FCC938"/>
<path d="M12.329 11.7109H11.709V12.3309H12.329V11.7109Z" fill="#FCC938"/>
<path d="M12.9481 11.7109H12.3281V12.3309H12.9481V11.7109Z" fill="#FCC938"/>
<path d="M13.5692 11.7109H12.9492V12.3309H13.5692V11.7109Z" fill="#FCC938"/>
<path d="M14.1786 11.7109H13.5586V12.3309H14.1786V11.7109Z" fill="#FCC938"/>
<path d="M14.7977 11.7109H14.1777V12.3309H14.7977V11.7109Z" fill="#FCC938"/>
<path d="M15.4091 11.7109H14.7891V12.3309H15.4091V11.7109Z" fill="#FCC938"/>
<path d="M16.0282 11.7109H15.4082V12.3309H16.0282V11.7109Z" fill="#FCC938"/>
<path d="M16.6493 11.7109H16.0293V12.3309H16.6493V11.7109Z" fill="#FCC938"/>
<path d="M17.2587 11.7109H16.6387V12.3309H17.2587V11.7109Z" fill="#FCC938"/>
<path d="M17.8778 11.7109H17.2578V12.3309H17.8778V11.7109Z" fill="#FCC938"/>
<path d="M18.4989 11.7109H17.8789V12.3309H18.4989V11.7109Z" fill="#FCC938"/>
<path d="M19.1083 11.7109H18.4883V12.3309H19.1083V11.7109Z" fill="#FCC938"/>
<path d="M19.7294 11.7109H19.1094V12.3309H19.7294V11.7109Z" fill="#FCC938"/>
<path d="M20.3485 11.7109H19.7285V12.3309H20.3485V11.7109Z" fill="#FCC938"/>
<path d="M20.9579 11.7109H20.3379V12.3309H20.9579V11.7109Z" fill="#FCC938"/>
<path d="M21.579 11.7109H20.959V12.3309H21.579V11.7109Z" fill="#FCC938"/>
<path d="M22.1981 11.7109H21.5781V12.3309H22.1981V11.7109Z" fill="#FCC938"/>
<path d="M22.8094 11.7109H22.1895V12.3309H22.8094V11.7109Z" fill="#FCC938"/>
<path d="M23.4286 11.7109H22.8086V12.3309H23.4286V11.7109Z" fill="#FCC938"/>
<path d="M24.0477 11.7109H23.4277V12.3309H24.0477V11.7109Z" fill="#FCC938"/>
<path d="M24.6591 11.7109H24.0391V12.3309H24.6591V11.7109Z" fill="#FCC938"/>
<path d="M25.2782 11.7109H24.6582V12.3309H25.2782V11.7109Z" fill="#FCC938"/>
<path d="M25.8993 11.7109H25.2793V12.3309H25.8993V11.7109Z" fill="#FCC938"/>
<path d="M26.5087 11.7109H25.8887V12.3309H26.5087V11.7109Z" fill="#FCC938"/>
<path d="M1.84853 9.85938H1.22852V10.4794H1.84853V9.85938Z" fill="#FCC938"/>
<path d="M40.6884 9.25H40.0684V9.87H40.6884V9.25Z" fill="#FCC938"/>
<path d="M40.079 10.4805H39.459V11.1005H40.079V10.4805Z" fill="#FCC938"/>
<path d="M39.4579 10.4805H38.8379V11.1005H39.4579V10.4805Z" fill="#FCC938"/>
<path d="M38.8387 11.0996H38.2188V11.7196H38.8387V11.0996Z" fill="#FCC938"/>
<path d="M38.2294 11.0996H37.6094V11.7196H38.2294V11.0996Z" fill="#FCC938"/>
<path d="M37.6083 11.7109H36.9883V12.3309H37.6083V11.7109Z" fill="#FCC938"/>
<path d="M36.9892 11.7109H36.3691V12.3309H36.9892V11.7109Z" fill="#FCC938"/>
<path d="M36.3778 11.7109H35.7578V12.3309H36.3778V11.7109Z" fill="#FCC938"/>
<path d="M35.7587 11.7109H35.1387V12.3309H35.7587V11.7109Z" fill="#FCC938"/>
<path d="M35.1376 11.7109H34.5176V12.3309H35.1376V11.7109Z" fill="#FCC938"/>
<path d="M34.5282 11.7109H33.9082V12.3309H34.5282V11.7109Z" fill="#FCC938"/>
<path d="M33.9091 11.7109H33.2891V12.3309H33.9091V11.7109Z" fill="#FCC938"/>
<path d="M33.288 11.7109H32.668V12.3309H33.288V11.7109Z" fill="#FCC938"/>
<path d="M32.6786 11.7109H32.0586V12.3309H32.6786V11.7109Z" fill="#FCC938"/>
<path d="M32.0594 11.7109H31.4395V12.3309H32.0594V11.7109Z" fill="#FCC938"/>
<path d="M31.4481 11.7109H30.8281V12.3309H31.4481V11.7109Z" fill="#FCC938"/>
<path d="M30.829 11.7109H30.209V12.3309H30.829V11.7109Z" fill="#FCC938"/>
<path d="M30.2079 11.7109H29.5879V12.3309H30.2079V11.7109Z" fill="#FCC938"/>
<path d="M29.5985 11.7109H28.9785V12.3309H29.5985V11.7109Z" fill="#FCC938"/>
<path d="M28.9794 11.7109H28.3594V12.3309H28.9794V11.7109Z" fill="#FCC938"/>
<path d="M28.3583 11.7109H27.7383V12.3309H28.3583V11.7109Z" fill="#FCC938"/>
<path d="M27.7489 11.7109H27.1289V12.3309H27.7489V11.7109Z" fill="#FCC938"/>
<path d="M27.1278 11.7109H26.5078V12.3309H27.1278V11.7109Z" fill="#FCC938"/>
<path d="M40.6884 9.85938H40.0684V10.4794H40.6884V9.85938Z" fill="#FCC938"/>
<path d="M1.22937 8.63086H0.609375V9.25086H1.22937V8.63086Z" fill="#E8AC15"/>
<path d="M1.22937 9.25H0.609375V9.87H1.22937V9.25Z" fill="#E8AC15"/>
<path d="M41.3094 8.63086H40.6895V9.25086H41.3094V8.63086Z" fill="#E8AC15"/>
<path d="M41.3094 9.25H40.6895V9.87H41.3094V9.25Z" fill="#E8AC15"/>
<path d="M1.84853 9.86133H1.22852V10.4813H1.84853V9.86133Z" fill="#E8AC15"/>
<path d="M2.46765 11.1016H1.84766V11.7216H2.46765V11.1016Z" fill="#E8AC15"/>
<path d="M3.07898 11.1016H2.45898V11.7216H3.07898V11.1016Z" fill="#E8AC15"/>
<path d="M3.69812 11.7109H3.07812V12.3309H3.69812V11.7109Z" fill="#E8AC15"/>
<path d="M4.31923 11.7109H3.69922V12.3309H4.31923V11.7109Z" fill="#E8AC15"/>
<path d="M4.92859 12.332H4.30859V12.952H4.92859V12.332Z" fill="#E8AC15"/>
<path d="M5.54774 12.332H4.92773V12.952H5.54774V12.332Z" fill="#E8AC15"/>
<path d="M6.16882 12.332H5.54883V12.952H6.16882V12.332Z" fill="#E8AC15"/>
<path d="M6.7782 12.332H6.1582V12.952H6.7782V12.332Z" fill="#E8AC15"/>
<path d="M7.39929 12.332H6.7793V12.952H7.39929V12.332Z" fill="#E8AC15"/>
<path d="M8.01845 12.332H7.39844V12.952H8.01845V12.332Z" fill="#E8AC15"/>
<path d="M8.62782 12.332H8.00781V12.952H8.62782V12.332Z" fill="#E8AC15"/>
<path d="M9.2489 12.332H8.62891V12.952H9.2489V12.332Z" fill="#E8AC15"/>
<path d="M9.86804 12.332H9.24805V12.952H9.86804V12.332Z" fill="#E8AC15"/>
<path d="M10.4794 12.332H9.85938V12.952H10.4794V12.332Z" fill="#E8AC15"/>
<path d="M11.0985 12.332H10.4785V12.952H11.0985V12.332Z" fill="#E8AC15"/>
<path d="M11.7177 12.332H11.0977V12.952H11.7177V12.332Z" fill="#E8AC15"/>
<path d="M12.329 12.332H11.709V12.952H12.329V12.332Z" fill="#E8AC15"/>
<path d="M12.9481 12.332H12.3281V12.952H12.9481V12.332Z" fill="#E8AC15"/>
<path d="M13.5692 12.332H12.9492V12.952H13.5692V12.332Z" fill="#E8AC15"/>
<path d="M14.1786 12.332H13.5586V12.952H14.1786V12.332Z" fill="#E8AC15"/>
<path d="M14.7977 12.332H14.1777V12.952H14.7977V12.332Z" fill="#E8AC15"/>
<path d="M15.4091 12.332H14.7891V12.952H15.4091V12.332Z" fill="#E8AC15"/>
<path d="M16.0282 12.332H15.4082V12.952H16.0282V12.332Z" fill="#E8AC15"/>
<path d="M16.6493 12.332H16.0293V12.952H16.6493V12.332Z" fill="#E8AC15"/>
<path d="M17.2587 12.332H16.6387V12.952H17.2587V12.332Z" fill="#E8AC15"/>
<path d="M17.8778 12.332H17.2578V12.952H17.8778V12.332Z" fill="#E8AC15"/>
<path d="M18.4989 12.332H17.8789V12.952H18.4989V12.332Z" fill="#E8AC15"/>
<path d="M19.1083 12.332H18.4883V12.952H19.1083V12.332Z" fill="#E8AC15"/>
<path d="M19.7294 12.332H19.1094V12.952H19.7294V12.332Z" fill="#E8AC15"/>
<path d="M20.3485 12.332H19.7285V12.952H20.3485V12.332Z" fill="#E8AC15"/>
<path d="M20.9579 12.332H20.3379V12.952H20.9579V12.332Z" fill="#E8AC15"/>
<path d="M21.579 12.332H20.959V12.952H21.579V12.332Z" fill="#E8AC15"/>
<path d="M22.1981 12.332H21.5781V12.952H22.1981V12.332Z" fill="#E8AC15"/>
<path d="M22.8094 12.332H22.1895V12.952H22.8094V12.332Z" fill="#E8AC15"/>
<path d="M23.4286 12.332H22.8086V12.952H23.4286V12.332Z" fill="#E8AC15"/>
<path d="M24.0477 12.332H23.4277V12.952H24.0477V12.332Z" fill="#E8AC15"/>
<path d="M24.6591 12.332H24.0391V12.952H24.6591V12.332Z" fill="#E8AC15"/>
<path d="M25.2782 12.332H24.6582V12.952H25.2782V12.332Z" fill="#E8AC15"/>
<path d="M25.8993 12.332H25.2793V12.952H25.8993V12.332Z" fill="#E8AC15"/>
<path d="M26.5087 12.332H25.8887V12.952H26.5087V12.332Z" fill="#E8AC15"/>
<path d="M1.84853 10.4805H1.22852V11.1005H1.84853V10.4805Z" fill="#E8AC15"/>
<path d="M40.6884 9.86133H40.0684V10.4813H40.6884V9.86133Z" fill="#E8AC15"/>
<path d="M40.079 11.1016H39.459V11.7216H40.079V11.1016Z" fill="#E8AC15"/>
<path d="M39.4579 11.1016H38.8379V11.7216H39.4579V11.1016Z" fill="#E8AC15"/>
<path d="M38.8387 11.7109H38.2188V12.3309H38.8387V11.7109Z" fill="#E8AC15"/>
<path d="M38.2294 11.7109H37.6094V12.3309H38.2294V11.7109Z" fill="#E8AC15"/>
<path d="M37.6083 12.332H36.9883V12.952H37.6083V12.332Z" fill="#E8AC15"/>
<path d="M36.9892 12.332H36.3691V12.952H36.9892V12.332Z" fill="#E8AC15"/>
<path d="M36.3778 12.332H35.7578V12.952H36.3778V12.332Z" fill="#E8AC15"/>
<path d="M35.7587 12.332H35.1387V12.952H35.7587V12.332Z" fill="#E8AC15"/>
<path d="M35.1376 12.332H34.5176V12.952H35.1376V12.332Z" fill="#E8AC15"/>
<path d="M34.5282 12.332H33.9082V12.952H34.5282V12.332Z" fill="#E8AC15"/>
<path d="M33.9091 12.332H33.2891V12.952H33.9091V12.332Z" fill="#E8AC15"/>
<path d="M33.288 12.332H32.668V12.952H33.288V12.332Z" fill="#E8AC15"/>
<path d="M32.6786 12.332H32.0586V12.952H32.6786V12.332Z" fill="#E8AC15"/>
<path d="M32.0594 12.332H31.4395V12.952H32.0594V12.332Z" fill="#E8AC15"/>
<path d="M31.4481 12.332H30.8281V12.952H31.4481V12.332Z" fill="#E8AC15"/>
<path d="M30.829 12.332H30.209V12.952H30.829V12.332Z" fill="#E8AC15"/>
<path d="M30.2079 12.332H29.5879V12.952H30.2079V12.332Z" fill="#E8AC15"/>
<path d="M29.5985 12.332H28.9785V12.952H29.5985V12.332Z" fill="#E8AC15"/>
<path d="M28.9794 12.332H28.3594V12.952H28.9794V12.332Z" fill="#E8AC15"/>
<path d="M28.3583 12.332H27.7383V12.952H28.3583V12.332Z" fill="#E8AC15"/>
<path d="M27.7489 12.332H27.1289V12.952H27.7489V12.332Z" fill="#E8AC15"/>
<path d="M27.1278 12.332H26.5078V12.952H27.1278V12.332Z" fill="#E8AC15"/>
<path d="M40.6884 10.4805H40.0684V11.1005H40.6884V10.4805Z" fill="#E8AC15"/>
<path d="M41.9305 4.32031H41.3105V4.94032H41.9305V4.32031Z" fill="#000600"/>
<path d="M41.9305 4.92969H41.3105V5.54968H41.9305V4.92969Z" fill="#000600"/>
<path d="M41.9305 5.55078H41.3105V6.17078H41.9305V5.55078Z" fill="#000600"/>
<path d="M41.3094 9.25H40.6895V9.87H41.3094V9.25Z" fill="#000600"/>
<path d="M41.3094 9.85938H40.6895V10.4794H41.3094V9.85938Z" fill="#000600"/>
<path d="M40.6903 10.4805H40.0703V11.1005H40.6903V10.4805Z" fill="#000600"/>
<path d="M40.0809 11.7109H39.4609V12.3309H40.0809V11.7109Z" fill="#000600"/>
<path d="M39.4599 11.7109H38.8398V12.3309H39.4599V11.7109Z" fill="#000600"/>
<path d="M38.8407 12.3301H38.2207V12.9501H38.8407V12.3301Z" fill="#000600"/>
<path d="M38.2294 12.3301H37.6094V12.9501H38.2294V12.3301Z" fill="#000600"/>
<path d="M37.6102 12.9492H36.9902V13.5692H37.6102V12.9492Z" fill="#000600"/>
<path d="M36.9892 12.9492H36.3691V13.5692H36.9892V12.9492Z" fill="#000600"/>
<path d="M36.3798 12.9492H35.7598V13.5692H36.3798V12.9492Z" fill="#000600"/>
<path d="M35.7606 12.9492H35.1406V13.5692H35.7606V12.9492Z" fill="#000600"/>
<path d="M35.1395 12.9492H34.5195V13.5692H35.1395V12.9492Z" fill="#000600"/>
<path d="M34.5302 12.9492H33.9102V13.5692H34.5302V12.9492Z" fill="#000600"/>
<path d="M33.9091 12.9492H33.2891V13.5692H33.9091V12.9492Z" fill="#000600"/>
<path d="M33.2899 12.9492H32.6699V13.5692H33.2899V12.9492Z" fill="#000600"/>
<path d="M32.6805 12.9492H32.0605V13.5692H32.6805V12.9492Z" fill="#000600"/>
<path d="M32.0594 12.9492H31.4395V13.5692H32.0594V12.9492Z" fill="#000600"/>
<path d="M31.4501 12.9492H30.8301V13.5692H31.4501V12.9492Z" fill="#000600"/>
<path d="M30.8309 12.9492H30.2109V13.5692H30.8309V12.9492Z" fill="#000600"/>
<path d="M30.2099 12.9492H29.5898V13.5692H30.2099V12.9492Z" fill="#000600"/>
<path d="M29.6005 12.9492H28.9805V13.5692H29.6005V12.9492Z" fill="#000600"/>
<path d="M28.9794 12.9492H28.3594V13.5692H28.9794V12.9492Z" fill="#000600"/>
<path d="M28.3602 12.9492H27.7402V13.5692H28.3602V12.9492Z" fill="#000600"/>
<path d="M27.7509 12.9492H27.1309V13.5692H27.7509V12.9492Z" fill="#000600"/>
<path d="M27.1298 12.9492H26.5098V13.5692H27.1298V12.9492Z" fill="#000600"/>
<path d="M26.5106 12.9492H25.8906V13.5692H26.5106V12.9492Z" fill="#000600"/>
<path d="M25.8993 12.9492H25.2793V13.5692H25.8993V12.9492Z" fill="#000600"/>
<path d="M25.2802 12.9492H24.6602V13.5692H25.2802V12.9492Z" fill="#000600"/>
<path d="M24.6591 12.9492H24.0391V13.5692H24.6591V12.9492Z" fill="#000600"/>
<path d="M24.0497 12.9492H23.4297V13.5692H24.0497V12.9492Z" fill="#000600"/>
<path d="M23.4305 12.9492H22.8105V13.5692H23.4305V12.9492Z" fill="#000600"/>
<path d="M22.8094 12.9492H22.1895V13.5692H22.8094V12.9492Z" fill="#000600"/>
<path d="M22.2001 12.9492H21.5801V13.5692H22.2001V12.9492Z" fill="#000600"/>
<path d="M21.5809 12.9492H20.9609V13.5692H21.5809V12.9492Z" fill="#000600"/>
<path d="M20.9599 12.9492H20.3398V13.5692H20.9599V12.9492Z" fill="#000600"/>
<path d="M20.3505 12.9492H19.7305V13.5692H20.3505V12.9492Z" fill="#000600"/>
<path d="M19.7294 12.9492H19.1094V13.5692H19.7294V12.9492Z" fill="#000600"/>
<path d="M19.1102 12.9492H18.4902V13.5692H19.1102V12.9492Z" fill="#000600"/>
<path d="M18.5009 12.9492H17.8809V13.5692H18.5009V12.9492Z" fill="#000600"/>
<path d="M17.8798 12.9492H17.2598V13.5692H17.8798V12.9492Z" fill="#000600"/>
<path d="M17.2606 12.9492H16.6406V13.5692H17.2606V12.9492Z" fill="#000600"/>
<path d="M16.6493 12.9492H16.0293V13.5692H16.6493V12.9492Z" fill="#000600"/>
<path d="M16.0302 12.9492H15.4102V13.5692H16.0302V12.9492Z" fill="#000600"/>
<path d="M41.9305 8.63086H41.3105V9.25086H41.9305V8.63086Z" fill="#000600"/>
<path d="M41.9305 8.01953H41.3105V8.63953H41.9305V8.01953Z" fill="#000600"/>
<path d="M41.9305 7.40039H41.3105V8.02039H41.9305V7.40039Z" fill="#000600"/>
<path d="M41.9305 6.7793H41.3105V7.3993H41.9305V6.7793Z" fill="#000600"/>
<path d="M41.9305 6.16992H41.3105V6.78992H41.9305V6.16992Z" fill="#000600"/>
<path d="M40.6903 11.0996H40.0703V11.7196H40.6903V11.0996Z" fill="#000600"/>
<path d="M0.619995 4.32031H0V4.94032H0.619995V4.32031Z" fill="#000600"/>
<path d="M0.619995 4.92969H0V5.54968H0.619995V4.92969Z" fill="#000600"/>
<path d="M0.619995 5.55078H0V6.17078H0.619995V5.55078Z" fill="#000600"/>
<path d="M41.3094 3.69922H40.6895V4.31922H41.3094V3.69922Z" fill="#000600"/>
<path d="M41.3094 3.08008H40.6895V3.70007H41.3094V3.08008Z" fill="#000600"/>
<path d="M1.22937 3.69922H0.609375V4.31922H1.22937V3.69922Z" fill="#000600"/>
<path d="M1.22937 3.08008H0.609375V3.70007H1.22937V3.08008Z" fill="#000600"/>
<path d="M40.6884 2.4707H40.0684V3.0907H40.6884V2.4707Z" fill="#000600"/>
<path d="M40.079 1.23047H39.459V1.85047H40.079V1.23047Z" fill="#000600"/>
<path d="M39.4579 1.23047H38.8379V1.85047H39.4579V1.23047Z" fill="#000600"/>
<path d="M38.8387 0.619141H38.2188V1.23914H38.8387V0.619141Z" fill="#000600"/>
<path d="M38.2294 0.619141H37.6094V1.23914H38.2294V0.619141Z" fill="#000600"/>
<path d="M37.6083 0H36.9883V0.619995H37.6083V0Z" fill="#000600"/>
<path d="M36.9892 0H36.3691V0.619995H36.9892V0Z" fill="#000600"/>
<path d="M36.3778 0H35.7578V0.619995H36.3778V0Z" fill="#000600"/>
<path d="M35.7587 0H35.1387V0.619995H35.7587V0Z" fill="#000600"/>
<path d="M35.1376 0H34.5176V0.619995H35.1376V0Z" fill="#000600"/>
<path d="M34.5282 0H33.9082V0.619995H34.5282V0Z" fill="#000600"/>
<path d="M33.9091 0H33.2891V0.619995H33.9091V0Z" fill="#000600"/>
<path d="M33.288 0H32.668V0.619995H33.288V0Z" fill="#000600"/>
<path d="M32.6786 0H32.0586V0.619995H32.6786V0Z" fill="#000600"/>
<path d="M32.0594 0H31.4395V0.619995H32.0594V0Z" fill="#000600"/>
<path d="M31.4481 0H30.8281V0.619995H31.4481V0Z" fill="#000600"/>
<path d="M30.829 0H30.209V0.619995H30.829V0Z" fill="#000600"/>
<path d="M30.2079 0H29.5879V0.619995H30.2079V0Z" fill="#000600"/>
<path d="M29.5985 0H28.9785V0.619995H29.5985V0Z" fill="#000600"/>
<path d="M28.9794 0H28.3594V0.619995H28.9794V0Z" fill="#000600"/>
<path d="M28.3583 0H27.7383V0.619995H28.3583V0Z" fill="#000600"/>
<path d="M27.7489 0H27.1289V0.619995H27.7489V0Z" fill="#000600"/>
<path d="M27.1278 0H26.5078V0.619995H27.1278V0Z" fill="#000600"/>
<path d="M26.5087 0H25.8887V0.619995H26.5087V0Z" fill="#000600"/>
<path d="M25.8993 0H25.2793V0.619995H25.8993V0Z" fill="#000600"/>
<path d="M25.2782 0H24.6582V0.619995H25.2782V0Z" fill="#000600"/>
<path d="M24.6591 0H24.0391V0.619995H24.6591V0Z" fill="#000600"/>
<path d="M24.0477 0H23.4277V0.619995H24.0477V0Z" fill="#000600"/>
<path d="M23.4286 0H22.8086V0.619995H23.4286V0Z" fill="#000600"/>
<path d="M22.8094 0H22.1895V0.619995H22.8094V0Z" fill="#000600"/>
<path d="M22.1981 0H21.5781V0.619995H22.1981V0Z" fill="#000600"/>
<path d="M21.579 0H20.959V0.619995H21.579V0Z" fill="#000600"/>
<path d="M20.9579 0H20.3379V0.619995H20.9579V0Z" fill="#000600"/>
<path d="M20.3485 0H19.7285V0.619995H20.3485V0Z" fill="#000600"/>
<path d="M19.7294 0H19.1094V0.619995H19.7294V0Z" fill="#000600"/>
<path d="M19.1083 0H18.4883V0.619995H19.1083V0Z" fill="#000600"/>
<path d="M18.4989 0H17.8789V0.619995H18.4989V0Z" fill="#000600"/>
<path d="M17.8778 0H17.2578V0.619995H17.8778V0Z" fill="#000600"/>
<path d="M17.2587 0H16.6387V0.619995H17.2587V0Z" fill="#000600"/>
<path d="M16.6493 0H16.0293V0.619995H16.6493V0Z" fill="#000600"/>
<path d="M16.0282 0H15.4082V0.619995H16.0282V0Z" fill="#000600"/>
<path d="M40.6884 1.84961H40.0684V2.46961H40.6884V1.84961Z" fill="#000600"/>
<path d="M1.84853 2.4707H1.22852V3.0907H1.84853V2.4707Z" fill="#000600"/>
<path d="M2.46765 1.23047H1.84766V1.85047H2.46765V1.23047Z" fill="#000600"/>
<path d="M3.07898 1.23047H2.45898V1.85047H3.07898V1.23047Z" fill="#000600"/>
<path d="M3.69812 0.619141H3.07812V1.23914H3.69812V0.619141Z" fill="#000600"/>
<path d="M4.31923 0.619141H3.69922V1.23914H4.31923V0.619141Z" fill="#000600"/>
<path d="M4.92859 0H4.30859V0.619995H4.92859V0Z" fill="#000600"/>
<path d="M5.54774 0H4.92773V0.619995H5.54774V0Z" fill="#000600"/>
<path d="M6.16882 0H5.54883V0.619995H6.16882V0Z" fill="#000600"/>
<path d="M6.7782 0H6.1582V0.619995H6.7782V0Z" fill="#000600"/>
<path d="M7.39929 0H6.7793V0.619995H7.39929V0Z" fill="#000600"/>
<path d="M8.01845 0H7.39844V0.619995H8.01845V0Z" fill="#000600"/>
<path d="M8.62782 0H8.00781V0.619995H8.62782V0Z" fill="#000600"/>
<path d="M9.2489 0H8.62891V0.619995H9.2489V0Z" fill="#000600"/>
<path d="M9.86804 0H9.24805V0.619995H9.86804V0Z" fill="#000600"/>
<path d="M10.4794 0H9.85938V0.619995H10.4794V0Z" fill="#000600"/>
<path d="M11.0985 0H10.4785V0.619995H11.0985V0Z" fill="#000600"/>
<path d="M11.7177 0H11.0977V0.619995H11.7177V0Z" fill="#000600"/>
<path d="M12.329 0H11.709V0.619995H12.329V0Z" fill="#000600"/>
<path d="M12.9481 0H12.3281V0.619995H12.9481V0Z" fill="#000600"/>
<path d="M13.5692 0H12.9492V0.619995H13.5692V0Z" fill="#000600"/>
<path d="M14.1786 0H13.5586V0.619995H14.1786V0Z" fill="#000600"/>
<path d="M14.7977 0H14.1777V0.619995H14.7977V0Z" fill="#000600"/>
<path d="M15.4091 0H14.7891V0.619995H15.4091V0Z" fill="#000600"/>
<path d="M1.84853 1.84961H1.22852V2.46961H1.84853V1.84961Z" fill="#000600"/>
<path d="M1.22937 6.7793H0.609375V7.3993H1.22937V6.7793Z" fill="#000600"/>
<path d="M1.22937 7.39844H0.609375V8.01843H1.22937V7.39844Z" fill="#000600"/>
<path d="M41.3094 6.7793H40.6895V7.3993H41.3094V6.7793Z" fill="#000600"/>
<path d="M41.3094 7.39844H40.6895V8.01843H41.3094V7.39844Z" fill="#000600"/>
<path d="M1.84853 8.01953H1.22852V8.63953H1.84853V8.01953Z" fill="#000600"/>
<path d="M2.46765 9.25H1.84766V9.87H2.46765V9.25Z" fill="#000600"/>
<path d="M3.07898 9.25H2.45898V9.87H3.07898V9.25Z" fill="#000600"/>
<path d="M3.69812 9.85938H3.07812V10.4794H3.69812V9.85938Z" fill="#000600"/>
<path d="M4.31923 9.85938H3.69922V10.4794H4.31923V9.85938Z" fill="#000600"/>
<path d="M4.92859 10.4805H4.30859V11.1005H4.92859V10.4805Z" fill="#000600"/>
<path d="M5.54774 10.4805H4.92773V11.1005H5.54774V10.4805Z" fill="#000600"/>
<path d="M6.16882 10.4805H5.54883V11.1005H6.16882V10.4805Z" fill="#000600"/>
<path d="M6.7782 10.4805H6.1582V11.1005H6.7782V10.4805Z" fill="#000600"/>
<path d="M7.39929 10.4805H6.7793V11.1005H7.39929V10.4805Z" fill="#000600"/>
<path d="M8.01845 10.4805H7.39844V11.1005H8.01845V10.4805Z" fill="#000600"/>
<path d="M8.62782 10.4805H8.00781V11.1005H8.62782V10.4805Z" fill="#000600"/>
<path d="M9.2489 10.4805H8.62891V11.1005H9.2489V10.4805Z" fill="#000600"/>
<path d="M9.86804 10.4805H9.24805V11.1005H9.86804V10.4805Z" fill="#000600"/>
<path d="M10.4794 10.4805H9.85938V11.1005H10.4794V10.4805Z" fill="#000600"/>
<path d="M11.0985 10.4805H10.4785V11.1005H11.0985V10.4805Z" fill="#000600"/>
<path d="M11.7177 10.4805H11.0977V11.1005H11.7177V10.4805Z" fill="#000600"/>
<path d="M12.329 10.4805H11.709V11.1005H12.329V10.4805Z" fill="#000600"/>
<path d="M12.9481 10.4805H12.3281V11.1005H12.9481V10.4805Z" fill="#000600"/>
<path d="M13.5692 10.4805H12.9492V11.1005H13.5692V10.4805Z" fill="#000600"/>
<path d="M14.1786 10.4805H13.5586V11.1005H14.1786V10.4805Z" fill="#000600"/>
<path d="M14.7977 10.4805H14.1777V11.1005H14.7977V10.4805Z" fill="#000600"/>
<path d="M15.4091 10.4805H14.7891V11.1005H15.4091V10.4805Z" fill="#000600"/>
<path d="M16.0282 10.4805H15.4082V11.1005H16.0282V10.4805Z" fill="#000600"/>
<path d="M16.6493 10.4805H16.0293V11.1005H16.6493V10.4805Z" fill="#000600"/>
<path d="M17.2587 10.4805H16.6387V11.1005H17.2587V10.4805Z" fill="#000600"/>
<path d="M17.8778 10.4805H17.2578V11.1005H17.8778V10.4805Z" fill="#000600"/>
<path d="M18.4989 10.4805H17.8789V11.1005H18.4989V10.4805Z" fill="#000600"/>
<path d="M19.1083 10.4805H18.4883V11.1005H19.1083V10.4805Z" fill="#000600"/>
<path d="M19.7294 10.4805H19.1094V11.1005H19.7294V10.4805Z" fill="#000600"/>
<path d="M20.3485 10.4805H19.7285V11.1005H20.3485V10.4805Z" fill="#000600"/>
<path d="M20.9579 10.4805H20.3379V11.1005H20.9579V10.4805Z" fill="#000600"/>
<path d="M21.579 10.4805H20.959V11.1005H21.579V10.4805Z" fill="#000600"/>
<path d="M22.1981 10.4805H21.5781V11.1005H22.1981V10.4805Z" fill="#000600"/>
<path d="M22.8094 10.4805H22.1895V11.1005H22.8094V10.4805Z" fill="#000600"/>
<path d="M23.4286 10.4805H22.8086V11.1005H23.4286V10.4805Z" fill="#000600"/>
<path d="M24.0477 10.4805H23.4277V11.1005H24.0477V10.4805Z" fill="#000600"/>
<path d="M24.6591 10.4805H24.0391V11.1005H24.6591V10.4805Z" fill="#000600"/>
<path d="M25.2782 10.4805H24.6582V11.1005H25.2782V10.4805Z" fill="#000600"/>
<path d="M25.8993 10.4805H25.2793V11.1005H25.8993V10.4805Z" fill="#000600"/>
<path d="M26.5087 10.4805H25.8887V11.1005H26.5087V10.4805Z" fill="#000600"/>
<path d="M1.84853 8.62891H1.22852V9.24891H1.84853V8.62891Z" fill="#000600"/>
<path d="M40.6884 8.01953H40.0684V8.63953H40.6884V8.01953Z" fill="#000600"/>
<path d="M40.079 9.25H39.459V9.87H40.079V9.25Z" fill="#000600"/>
<path d="M39.4579 9.25H38.8379V9.87H39.4579V9.25Z" fill="#000600"/>
<path d="M38.8387 9.85938H38.2188V10.4794H38.8387V9.85938Z" fill="#000600"/>
<path d="M38.2294 9.85938H37.6094V10.4794H38.2294V9.85938Z" fill="#000600"/>
<path d="M37.6083 10.4805H36.9883V11.1005H37.6083V10.4805Z" fill="#000600"/>
<path d="M36.9892 10.4805H36.3691V11.1005H36.9892V10.4805Z" fill="#000600"/>
<path d="M36.3778 10.4805H35.7578V11.1005H36.3778V10.4805Z" fill="#000600"/>
<path d="M35.7587 10.4805H35.1387V11.1005H35.7587V10.4805Z" fill="#000600"/>
<path d="M35.1376 10.4805H34.5176V11.1005H35.1376V10.4805Z" fill="#000600"/>
<path d="M34.5282 10.4805H33.9082V11.1005H34.5282V10.4805Z" fill="#000600"/>
<path d="M33.9091 10.4805H33.2891V11.1005H33.9091V10.4805Z" fill="#000600"/>
<path d="M33.288 10.4805H32.668V11.1005H33.288V10.4805Z" fill="#000600"/>
<path d="M32.6786 10.4805H32.0586V11.1005H32.6786V10.4805Z" fill="#000600"/>
<path d="M32.0594 10.4805H31.4395V11.1005H32.0594V10.4805Z" fill="#000600"/>
<path d="M31.4481 10.4805H30.8281V11.1005H31.4481V10.4805Z" fill="#000600"/>
<path d="M30.829 10.4805H30.209V11.1005H30.829V10.4805Z" fill="#000600"/>
<path d="M30.2079 10.4805H29.5879V11.1005H30.2079V10.4805Z" fill="#000600"/>
<path d="M29.5985 10.4805H28.9785V11.1005H29.5985V10.4805Z" fill="#000600"/>
<path d="M28.9794 10.4805H28.3594V11.1005H28.9794V10.4805Z" fill="#000600"/>
<path d="M28.3583 10.4805H27.7383V11.1005H28.3583V10.4805Z" fill="#000600"/>
<path d="M27.7489 10.4805H27.1289V11.1005H27.7489V10.4805Z" fill="#000600"/>
<path d="M27.1278 10.4805H26.5078V11.1005H27.1278V10.4805Z" fill="#000600"/>
<path d="M40.6884 8.62891H40.0684V9.24891H40.6884V8.62891Z" fill="#000600"/>
<path d="M1.22937 9.25H0.609375V9.87H1.22937V9.25Z" fill="#000600"/>
<path d="M1.22937 9.85938H0.609375V10.4794H1.22937V9.85938Z" fill="#000600"/>
<path d="M1.85048 10.4805H1.23047V11.1005H1.85048V10.4805Z" fill="#000600"/>
<path d="M2.4696 11.7109H1.84961V12.3309H2.4696V11.7109Z" fill="#000600"/>
<path d="M3.08093 11.7109H2.46094V12.3309H3.08093V11.7109Z" fill="#000600"/>
<path d="M3.70007 12.3301H3.08008V12.9501H3.70007V12.3301Z" fill="#000600"/>
<path d="M4.31923 12.3301H3.69922V12.9501H4.31923V12.3301Z" fill="#000600"/>
<path d="M4.93054 12.9492H4.31055V13.5692H4.93054V12.9492Z" fill="#000600"/>
<path d="M5.5497 12.9492H4.92969V13.5692H5.5497V12.9492Z" fill="#000600"/>
<path d="M6.17078 12.9492H5.55078V13.5692H6.17078V12.9492Z" fill="#000600"/>
<path d="M6.78015 12.9492H6.16016V13.5692H6.78015V12.9492Z" fill="#000600"/>
<path d="M7.39929 12.9492H6.7793V13.5692H7.39929V12.9492Z" fill="#000600"/>
<path d="M8.0204 12.9492H7.40039V13.5692H8.0204V12.9492Z" fill="#000600"/>
<path d="M8.63953 12.9492H8.01953V13.5692H8.63953V12.9492Z" fill="#000600"/>
<path d="M9.26062 12.9492H8.64062V13.5692H9.26062V12.9492Z" fill="#000600"/>
<path d="M9.87 12.9492H9.25V13.5692H9.87V12.9492Z" fill="#000600"/>
<path d="M10.4794 12.9492H9.85938V13.5692H10.4794V12.9492Z" fill="#000600"/>
<path d="M11.1005 12.9492H10.4805V13.5692H11.1005V12.9492Z" fill="#000600"/>
<path d="M11.7196 12.9492H11.0996V13.5692H11.7196V12.9492Z" fill="#000600"/>
<path d="M12.3309 12.9492H11.7109V13.5692H12.3309V12.9492Z" fill="#000600"/>
<path d="M12.9501 12.9492H12.3301V13.5692H12.9501V12.9492Z" fill="#000600"/>
<path d="M13.5692 12.9492H12.9492V13.5692H13.5692V12.9492Z" fill="#000600"/>
<path d="M14.1805 12.9492H13.5605V13.5692H14.1805V12.9492Z" fill="#000600"/>
<path d="M14.7997 12.9492H14.1797V13.5692H14.7997V12.9492Z" fill="#000600"/>
<path d="M15.4091 12.9492H14.7891V13.5692H15.4091V12.9492Z" fill="#000600"/>
<path d="M0.619995 8.63086H0V9.25086H0.619995V8.63086Z" fill="#000600"/>
<path d="M0.619995 8.01953H0V8.63953H0.619995V8.01953Z" fill="#000600"/>
<path d="M0.619995 7.40039H0V8.02039H0.619995V7.40039Z" fill="#000600"/>
<path d="M0.619995 6.7793H0V7.3993H0.619995V6.7793Z" fill="#000600"/>
<path d="M0.619995 6.16992H0V6.78992H0.619995V6.16992Z" fill="#000600"/>
<path d="M1.85048 11.0996H1.23047V11.7196H1.85048V11.0996Z" fill="#000600"/>
<g style="mix-blend-mode:screen" opacity="0.28">
<path d="M40.6903 3.08008H40.0703V3.70007H40.6903V3.08008Z" fill="white"/>
<path d="M40.6903 3.69922H40.0703V4.31922H40.6903V3.69922Z" fill="white"/>
<path d="M41.3094 4.31836H40.6895V4.93836H41.3094V4.31836Z" fill="white"/>
<path d="M41.3094 4.92969H40.6895V5.54968H41.3094V4.92969Z" fill="white"/>
<path d="M41.3094 5.54883H40.6895V6.16883H41.3094V5.54883Z" fill="white"/>
<path d="M41.3094 6.16992H40.6895V6.78992H41.3094V6.16992Z" fill="white"/>
<path d="M40.079 1.84961H39.459V2.46961H40.079V1.84961Z" fill="white"/>
<path d="M40.079 2.46875H39.459V3.08875H40.079V2.46875Z" fill="white"/>
<path d="M39.4599 1.84961H38.8398V2.46961H39.4599V1.84961Z" fill="white"/>
<path d="M38.8387 1.22852H38.2188V1.84852H38.8387V1.22852Z" fill="white"/>
<path d="M38.2294 1.22852H37.6094V1.84852H38.2294V1.22852Z" fill="white"/>
<path d="M37.6102 0.619141H36.9902V1.23914H37.6102V0.619141Z" fill="white"/>
<path d="M36.9892 0.619141H36.3691V1.23914H36.9892V0.619141Z" fill="white"/>
<path d="M36.3798 0.619141H35.7598V1.23914H36.3798V0.619141Z" fill="white"/>
<path d="M35.7587 0.619141H35.1387V1.23914H35.7587V0.619141Z" fill="white"/>
<path d="M35.1395 0.619141H34.5195V1.23914H35.1395V0.619141Z" fill="white"/>
<path d="M34.5302 0.619141H33.9102V1.23914H34.5302V0.619141Z" fill="white"/>
<path d="M33.9091 0.619141H33.2891V1.23914H33.9091V0.619141Z" fill="white"/>
<path d="M33.2899 0.619141H32.6699V1.23914H33.2899V0.619141Z" fill="white"/>
<path d="M32.6786 0.619141H32.0586V1.23914H32.6786V0.619141Z" fill="white"/>
<path d="M32.0594 0.619141H31.4395V1.23914H32.0594V0.619141Z" fill="white"/>
<path d="M31.4501 0.619141H30.8301V1.23914H31.4501V0.619141Z" fill="white"/>
<path d="M30.829 0.619141H30.209V1.23914H30.829V0.619141Z" fill="white"/>
<path d="M30.2099 0.619141H29.5898V1.23914H30.2099V0.619141Z" fill="white"/>
<path d="M29.5985 0.619141H28.9785V1.23914H29.5985V0.619141Z" fill="white"/>
<path d="M28.9794 0.619141H28.3594V1.23914H28.9794V0.619141Z" fill="white"/>
<path d="M28.3602 0.619141H27.7402V1.23914H28.3602V0.619141Z" fill="white"/>
<path d="M27.7489 0.619141H27.1289V1.23914H27.7489V0.619141Z" fill="white"/>
<path d="M27.1298 0.619141H26.5098V1.23914H27.1298V0.619141Z" fill="white"/>
<path d="M26.5087 0.619141H25.8887V1.23914H26.5087V0.619141Z" fill="white"/>
<path d="M25.8993 0.619141H25.2793V1.23914H25.8993V0.619141Z" fill="white"/>
<path d="M25.2802 0.619141H24.6602V1.23914H25.2802V0.619141Z" fill="white"/>
<path d="M24.6591 0.619141H24.0391V1.23914H24.6591V0.619141Z" fill="white"/>
<path d="M24.0497 0.619141H23.4297V1.23914H24.0497V0.619141Z" fill="white"/>
<path d="M23.4286 0.619141H22.8086V1.23914H23.4286V0.619141Z" fill="white"/>
<path d="M22.8094 0.619141H22.1895V1.23914H22.8094V0.619141Z" fill="white"/>
<path d="M22.2001 0.619141H21.5801V1.23914H22.2001V0.619141Z" fill="white"/>
<path d="M21.579 0.619141H20.959V1.23914H21.579V0.619141Z" fill="white"/>
<path d="M20.9599 0.619141H20.3398V1.23914H20.9599V0.619141Z" fill="white"/>
<path d="M20.3485 0.619141H19.7285V1.23914H20.3485V0.619141Z" fill="white"/>
<path d="M19.7294 0.619141H19.1094V1.23914H19.7294V0.619141Z" fill="white"/>
<path d="M19.1102 0.619141H18.4902V1.23914H19.1102V0.619141Z" fill="white"/>
<path d="M18.4989 0.619141H17.8789V1.23914H18.4989V0.619141Z" fill="white"/>
<path d="M17.8798 0.619141H17.2598V1.23914H17.8798V0.619141Z" fill="white"/>
<path d="M17.2587 0.619141H16.6387V1.23914H17.2587V0.619141Z" fill="white"/>
<path d="M16.6493 0.619141H16.0293V1.23914H16.6493V0.619141Z" fill="white"/>
<path d="M16.0302 0.619141H15.4102V1.23914H16.0302V0.619141Z" fill="white"/>
<path d="M1.84853 3.08008H1.22852V3.70007H1.84853V3.08008Z" fill="white"/>
<path d="M2.4696 3.08008H1.84961V3.70007H2.4696V3.08008Z" fill="white"/>
<path d="M1.84853 3.69922H1.22852V4.31922H1.84853V3.69922Z" fill="white"/>
<path d="M1.84853 4.31836H1.22852V4.93836H1.84853V4.31836Z" fill="white"/>
<path d="M1.22937 4.31836H0.609375V4.93836H1.22937V4.31836Z" fill="white"/>
<path d="M1.22937 4.92969H0.609375V5.54968H1.22937V4.92969Z" fill="white"/>
<path d="M1.22937 5.54883H0.609375V6.16883H1.22937V5.54883Z" fill="white"/>
<path d="M1.22937 6.16992H0.609375V6.78992H1.22937V6.16992Z" fill="white"/>
<path d="M2.4696 1.84961H1.84961V2.46961H2.4696V1.84961Z" fill="white"/>
<path d="M2.4696 2.46875H1.84961V3.08875H2.4696V2.46875Z" fill="white"/>
<path d="M3.07898 1.84961H2.45898V2.46961H3.07898V1.84961Z" fill="white"/>
<path d="M3.70007 1.84961H3.08008V2.46961H3.70007V1.84961Z" fill="white"/>
<path d="M3.70007 1.22852H3.08008V1.84852H3.70007V1.22852Z" fill="white"/>
<path d="M4.31923 1.22852H3.69922V1.84852H4.31923V1.22852Z" fill="white"/>
<path d="M4.92859 0.619141H4.30859V1.23914H4.92859V0.619141Z" fill="white"/>
<path d="M4.92859 1.22852H4.30859V1.84852H4.92859V1.22852Z" fill="white"/>
<path d="M5.5497 0.619141H4.92969V1.23914H5.5497V0.619141Z" fill="white"/>
<path d="M6.16882 0.619141H5.54883V1.23914H6.16882V0.619141Z" fill="white"/>
<path d="M6.78015 0.619141H6.16016V1.23914H6.78015V0.619141Z" fill="white"/>
<path d="M7.39929 0.619141H6.7793V1.23914H7.39929V0.619141Z" fill="white"/>
<path d="M8.01845 0.619141H7.39844V1.23914H8.01845V0.619141Z" fill="white"/>
<path d="M8.62978 0.619141H8.00977V1.23914H8.62978V0.619141Z" fill="white"/>
<path d="M9.2489 0.619141H8.62891V1.23914H9.2489V0.619141Z" fill="white"/>
<path d="M9.87 0.619141H9.25V1.23914H9.87V0.619141Z" fill="white"/>
<path d="M10.4794 0.619141H9.85938V1.23914H10.4794V0.619141Z" fill="white"/>
<path d="M11.0985 0.619141H10.4785V1.23914H11.0985V0.619141Z" fill="white"/>
<path d="M11.7196 0.619141H11.0996V1.23914H11.7196V0.619141Z" fill="white"/>
<path d="M12.329 0.619141H11.709V1.23914H12.329V0.619141Z" fill="white"/>
<path d="M12.9501 0.619141H12.3301V1.23914H12.9501V0.619141Z" fill="white"/>
<path d="M13.5692 0.619141H12.9492V1.23914H13.5692V0.619141Z" fill="white"/>
<path d="M14.1786 0.619141H13.5586V1.23914H14.1786V0.619141Z" fill="white"/>
<path d="M14.7997 0.619141H14.1797V1.23914H14.7997V0.619141Z" fill="white"/>
<path d="M15.4091 0.619141H14.7891V1.23914H15.4091V0.619141Z" fill="white"/>
</g>
<path d="M1.85048 7.40039H1.23047V8.02039H1.85048V7.40039Z" fill="#FCC938"/>
<path d="M2.4696 8.63086H1.84961V9.25086H2.4696V8.63086Z" fill="#FCC938"/>
<path d="M2.4696 8.01953H1.84961V8.63953H2.4696V8.01953Z" fill="#FCC938"/>
<path d="M3.08093 8.63086H2.46094V9.25086H3.08093V8.63086Z" fill="#FCC938"/>
<path d="M3.70007 9.25H3.08008V9.87H3.70007V9.25Z" fill="#FCC938"/>
<path d="M4.32118 9.25H3.70117V9.87H4.32118V9.25Z" fill="#FCC938"/>
<path d="M4.93054 9.86133H4.31055V10.4813H4.93054V9.86133Z" fill="#FCC938"/>
<path d="M5.5497 9.86133H4.92969V10.4813H5.5497V9.86133Z" fill="#FCC938"/>
<path d="M6.17078 9.86133H5.55078V10.4813H6.17078V9.86133Z" fill="#FCC938"/>
<path d="M6.78015 9.86133H6.16016V10.4813H6.78015V9.86133Z" fill="#FCC938"/>
<path d="M7.40125 9.86133H6.78125V10.4813H7.40125V9.86133Z" fill="#FCC938"/>
<path d="M8.0204 9.86133H7.40039V10.4813H8.0204V9.86133Z" fill="#FCC938"/>
<path d="M8.62978 9.86133H8.00977V10.4813H8.62978V9.86133Z" fill="#FCC938"/>
<path d="M9.25085 9.86133H8.63086V10.4813H9.25085V9.86133Z" fill="#FCC938"/>
<path d="M9.87 9.86133H9.25V10.4813H9.87V9.86133Z" fill="#FCC938"/>
<path d="M10.4813 9.86133H9.86133V10.4813H10.4813V9.86133Z" fill="#FCC938"/>
<path d="M11.1005 9.86133H10.4805V10.4813H11.1005V9.86133Z" fill="#FCC938"/>
<path d="M11.7196 9.86133H11.0996V10.4813H11.7196V9.86133Z" fill="#FCC938"/>
<path d="M12.3309 9.86133H11.7109V10.4813H12.3309V9.86133Z" fill="#FCC938"/>
<path d="M12.9501 9.86133H12.3301V10.4813H12.9501V9.86133Z" fill="#FCC938"/>
<path d="M13.5712 9.86133H12.9512V10.4813H13.5712V9.86133Z" fill="#FCC938"/>
<path d="M14.1805 9.86133H13.5605V10.4813H14.1805V9.86133Z" fill="#FCC938"/>
<path d="M14.7997 9.86133H14.1797V10.4813H14.7997V9.86133Z" fill="#FCC938"/>
<path d="M15.411 9.86133H14.791V10.4813H15.411V9.86133Z" fill="#FCC938"/>
<path d="M16.0302 9.86133H15.4102V10.4813H16.0302V9.86133Z" fill="#FCC938"/>
<path d="M16.6512 9.86133H16.0312V10.4813H16.6512V9.86133Z" fill="#FCC938"/>
<path d="M17.2606 9.86133H16.6406V10.4813H17.2606V9.86133Z" fill="#FCC938"/>
<path d="M17.8798 9.86133H17.2598V10.4813H17.8798V9.86133Z" fill="#FCC938"/>
<path d="M18.5009 9.86133H17.8809V10.4813H18.5009V9.86133Z" fill="#FCC938"/>
<path d="M19.1102 9.86133H18.4902V10.4813H19.1102V9.86133Z" fill="#FCC938"/>
<path d="M19.7313 9.86133H19.1113V10.4813H19.7313V9.86133Z" fill="#FCC938"/>
<path d="M20.3505 9.86133H19.7305V10.4813H20.3505V9.86133Z" fill="#FCC938"/>
<path d="M20.9599 9.86133H20.3398V10.4813H20.9599V9.86133Z" fill="#FCC938"/>
<path d="M21.5809 9.86133H20.9609V10.4813H21.5809V9.86133Z" fill="#FCC938"/>
<path d="M22.2001 9.86133H21.5801V10.4813H22.2001V9.86133Z" fill="#FCC938"/>
<path d="M22.8114 9.86133H22.1914V10.4813H22.8114V9.86133Z" fill="#FCC938"/>
<path d="M23.4305 9.86133H22.8105V10.4813H23.4305V9.86133Z" fill="#FCC938"/>
<path d="M24.0497 9.86133H23.4297V10.4813H24.0497V9.86133Z" fill="#FCC938"/>
<path d="M24.661 9.86133H24.041V10.4813H24.661V9.86133Z" fill="#FCC938"/>
<path d="M25.2802 9.86133H24.6602V10.4813H25.2802V9.86133Z" fill="#FCC938"/>
<path d="M25.9012 9.86133H25.2812V10.4813H25.9012V9.86133Z" fill="#FCC938"/>
<path d="M26.5106 9.86133H25.8906V10.4813H26.5106V9.86133Z" fill="#FCC938"/>
<path d="M40.6903 7.40039H40.0703V8.02039H40.6903V7.40039Z" fill="#FCC938"/>
<path d="M40.0809 8.63086H39.4609V9.25086H40.0809V8.63086Z" fill="#FCC938"/>
<path d="M40.0809 8.01953H39.4609V8.63953H40.0809V8.01953Z" fill="#FCC938"/>
<path d="M39.4599 8.63086H38.8398V9.25086H39.4599V8.63086Z" fill="#FCC938"/>
<path d="M38.8407 9.25H38.2207V9.87H38.8407V9.25Z" fill="#FCC938"/>
<path d="M38.2313 9.25H37.6113V9.87H38.2313V9.25Z" fill="#FCC938"/>
<path d="M37.6102 9.86133H36.9902V10.4813H37.6102V9.86133Z" fill="#FCC938"/>
<path d="M36.9911 9.86133H36.3711V10.4813H36.9911V9.86133Z" fill="#FCC938"/>
<path d="M36.3798 9.86133H35.7598V10.4813H36.3798V9.86133Z" fill="#FCC938"/>
<path d="M35.7606 9.86133H35.1406V10.4813H35.7606V9.86133Z" fill="#FCC938"/>
<path d="M35.1395 9.86133H34.5195V10.4813H35.1395V9.86133Z" fill="#FCC938"/>
<path d="M34.5302 9.86133H33.9102V10.4813H34.5302V9.86133Z" fill="#FCC938"/>
<path d="M33.911 9.86133H33.291V10.4813H33.911V9.86133Z" fill="#FCC938"/>
<path d="M33.2899 9.86133H32.6699V10.4813H33.2899V9.86133Z" fill="#FCC938"/>
<path d="M32.6805 9.86133H32.0605V10.4813H32.6805V9.86133Z" fill="#FCC938"/>
<path d="M32.0614 9.86133H31.4414V10.4813H32.0614V9.86133Z" fill="#FCC938"/>
<path d="M31.4501 9.86133H30.8301V10.4813H31.4501V9.86133Z" fill="#FCC938"/>
<path d="M30.8309 9.86133H30.2109V10.4813H30.8309V9.86133Z" fill="#FCC938"/>
<path d="M30.2099 9.86133H29.5898V10.4813H30.2099V9.86133Z" fill="#FCC938"/>
<path d="M29.6005 9.86133H28.9805V10.4813H29.6005V9.86133Z" fill="#FCC938"/>
<path d="M28.9813 9.86133H28.3613V10.4813H28.9813V9.86133Z" fill="#FCC938"/>
<path d="M28.3602 9.86133H27.7402V10.4813H28.3602V9.86133Z" fill="#FCC938"/>
<path d="M27.7509 9.86133H27.1309V10.4813H27.7509V9.86133Z" fill="#FCC938"/>
<path d="M27.1298 9.86133H26.5098V10.4813H27.1298V9.86133Z" fill="#FCC938"/>
<g style="mix-blend-mode:screen" opacity="0.28">
<path d="M40.6903 6.7793H40.0703V7.3993H40.6903V6.7793Z" fill="white"/>
<path d="M40.079 7.39844H39.459V8.01843H40.079V7.39844Z" fill="white"/>
<path d="M39.4599 8.01953H38.8398V8.63953H39.4599V8.01953Z" fill="white"/>
<path d="M38.8387 8.62891H38.2188V9.24891H38.8387V8.62891Z" fill="white"/>
<path d="M38.2294 8.62891H37.6094V9.24891H38.2294V8.62891Z" fill="white"/>
<path d="M37.6102 9.25H36.9902V9.87H37.6102V9.25Z" fill="white"/>
<path d="M36.9892 9.25H36.3691V9.87H36.9892V9.25Z" fill="white"/>
<path d="M36.3798 9.25H35.7598V9.87H36.3798V9.25Z" fill="white"/>
<path d="M35.7587 9.25H35.1387V9.87H35.7587V9.25Z" fill="white"/>
<path d="M35.1395 9.25H34.5195V9.87H35.1395V9.25Z" fill="white"/>
</g>
<path d="M5.43054 4.95789V6.19789H8.54054V4.95789H9.16055V6.19789H9.78055V6.81789H5.43054V6.19789H4.81055V4.95789H5.43054ZM6.67055 4.33789V4.95789H6.05055V4.33789H6.67055ZM7.91055 4.33789V4.95789H7.29054V4.33789H7.91055Z" fill="black"/>
<path d="M9.78015 7.43899V8.05898H9.16016V7.43899H9.78015ZM11.0202 6.19898V4.95898H11.6402V6.19898H11.0202V6.81898H9.78015C9.57015 6.60898 9.57015 6.40898 9.78015 6.19898H11.0202ZM11.0202 7.43899V8.05898H10.4001V7.43899H11.0202Z" fill="black"/>
<path d="M12.8798 6.81875V6.19875H12.2598V2.46875H12.8798V6.19875H13.4998V6.81875H12.8798Z" fill="black"/>
<path d="M16.6113 6.19898V4.95898H17.2312V6.19898H16.6113V6.81898H13.5012C13.2913 6.60898 13.2913 6.40898 13.5012 6.19898H14.1212V4.95898H14.7413V6.19898H15.3613V4.95898H15.9812V6.19898H16.6013H16.6113Z" fill="black"/>
<path d="M19.0999 6.19875V4.95875H19.7198V4.33875H20.9599V3.71875H21.5798V6.20875H22.1998V6.82875H19.7099V6.20875H19.0898L19.0999 6.19875ZM20.9599 6.19875V4.95875H19.7198V6.19875H20.9599Z" fill="black"/>
<path d="M23.4502 6.19898V4.95898H24.0702V6.19898H23.4502V6.81898H22.2102C22.0002 6.60898 22.0002 6.40898 22.2102 6.19898H23.4502ZM23.4502 7.43899V8.05898H22.8302V7.43899H23.4502Z" fill="black"/>
<path d="M27.8014 4.33789V4.95789H28.4214V6.19789H27.8014V6.81789H25.9414V6.19789H27.8014V4.95789H26.5614V4.33789H27.8014Z" fill="black"/>
<path d="M30.901 4.33789V4.95789H31.521V7.44789H30.901V8.06789H29.041V7.44789H30.901V6.8279H29.661V6.20789H29.041V4.9679H29.661V4.34789H30.901V4.33789ZM30.901 6.19789V4.95789H29.661V6.19789H30.901Z" fill="black"/>
<path d="M33.3904 4.95898V7.44898H32.7704V8.06898H32.1504V7.44898H32.7704V4.95898H33.3904Z" fill="black"/>
<path d="M35.8698 4.33789V4.95789H36.4898V7.44789H35.8698V8.06789H34.0098V7.44789H35.8698V6.8279H34.6298V6.20789H34.0098V4.9679H34.6298V4.34789H35.8698V4.33789ZM35.8698 6.19789V4.95789H34.6298V6.19789H35.8698Z" fill="black"/>
</svg>
