<svg width="102" height="106" viewBox="0 0 102 106" fill="none" xmlns="http://www.w3.org/2000/svg">
<path d="M49.8699 96.5602C49.6099 96.5602 49.3599 96.5602 49.0999 96.5602V94.9902H5.48992V94.2202H4.71992V93.4202H3.91992V4.71016H4.71992V3.91016H95.8099V4.71016H96.6099C96.6099 5.23016 96.6099 5.76016 96.6099 6.28016C96.4999 13.8302 96.5199 85.8801 96.6099 93.4302C96.6099 93.7001 96.6099 93.9602 96.6099 94.2302H95.0099V95.0002C86.1399 95.0201 61.1099 94.9702 52.2399 95.0002C51.9699 95.0002 51.7099 95.0002 51.4399 95.0002C51.4399 95.2701 51.4399 95.5302 51.4399 95.8002C51.4399 96.0602 51.4399 96.3102 51.4399 96.5702C50.9199 96.5702 50.3899 96.5702 49.8699 96.5702V96.5602Z" fill="white"/>
<path d="M96.6103 6.2793H97.3803V93.4293H96.6103C96.5203 85.8793 96.5003 13.8293 96.6103 6.2793Z" fill="#CCCCCC"/>
<path d="M96.6098 94.2209C96.6098 94.3409 96.6398 94.9309 96.5798 94.9709C96.5198 95.0109 95.2098 94.9809 95.0098 94.9809V94.2109H96.6098V94.2209Z" fill="#CCCCCC"/>
<path d="M96.58 0V0.75L96.63 0.8H98.15V1.57H98.95V2.37H99.72V3.14H100.52V4.71H101.29V94.99H100.52V96.56H99.77L99.72 96.61V97.36H98.95V98.13H98.2L98.15 98.18V98.93H95.81V99.7H53.8V101.27H53V102.07H52.23V102.84H51.43V103.64H50.66V105.21H48.29V103.64H47.52V101.27H46.72V99.7H6.28001V98.93H3.94V98.18L3.89 98.13H2.37V97.36H1.57V95.79H0.800003V95.04L0.75 94.99H0V3.94H0.75L0.800003 3.89V2.37H1.57V1.57H2.37V0.8H3.89L3.94 0.75V0H96.57H96.58ZM96.61 6.28C96.61 5.76 96.61 5.23 96.61 4.71H95.81V3.91H4.72V4.71H3.92001V93.43H4.72V94.23H5.49001V95H49.1V96.57C49.36 96.57 49.61 96.57 49.87 96.57V97.37H51.44C51.44 97.1 51.44 96.84 51.44 96.57C51.44 96.31 51.44 96.06 51.44 95.8H52.24V95C61.11 94.97 86.14 95.02 95.01 95C95.21 95 96.52 95.03 96.58 94.99C96.64 94.95 96.61 94.36 96.61 94.24C96.61 93.97 96.61 93.71 96.61 93.44H97.38V6.28H96.61Z" fill="black"/>
<path d="M51.4391 96.5605C51.4391 96.8305 51.4391 97.0905 51.4391 97.3605H49.8691V96.5605C50.3891 96.5605 50.9191 96.5605 51.4391 96.5605Z" fill="#CCCCCC"/>
<path d="M52.2395 94.9902V95.7902H51.4395C51.4395 95.5202 51.4395 95.2602 51.4395 94.9902C51.7095 94.9902 51.9695 94.9902 52.2395 94.9902Z" fill="#CCCCCC"/>
<path d="M90.26 54H11.92C10.3073 54 9 55.3073 9 56.92V70.23C9 71.8427 10.3073 73.15 11.92 73.15H90.26C91.8727 73.15 93.18 71.8427 93.18 70.23V56.92C93.18 55.3073 91.8727 54 90.26 54Z" fill="#FDB913"/>
<path d="M39.5907 61.4008V60.7808H38.9707V57.0508H39.5907V60.7808H40.2107V61.4008H39.5907Z" fill="black"/>
<path d="M42.7002 58.9102V59.5302H43.3202V60.7702H43.9402V61.3902H40.2102C40.0002 61.1802 40.0002 60.9802 40.2102 60.7702H40.8302V59.5302H41.4502V58.9102H42.6902H42.7002ZM42.7002 60.7702V59.5302H41.4602V60.7702H42.7002Z" fill="black"/>
<path d="M47.0507 60.7708V59.5308H47.6707V60.7708H47.0507V61.3908H43.9407C43.7307 61.1808 43.7307 60.9808 43.9407 60.7708H44.5607V59.5308H45.1807V60.7708H45.8007V59.5308H46.4207V60.7708H47.0407H47.0507ZM45.8107 58.2908V58.9108H45.1907V58.2908H45.8107ZM46.4307 57.0508V57.6708H45.8107V57.0508H46.4307ZM47.0507 58.2908V58.9108H46.4307V58.2908H47.0507Z" fill="black"/>
<path d="M51.401 59.531V62.021H50.781V62.641H49.541V62.021H50.781V59.531H51.401ZM51.401 58.291V58.911H50.781V58.291H51.401Z" fill="black"/>
<path d="M52.6415 61.4008V60.7808H52.0215V57.0508H52.6415V60.7808H53.2615V61.4008H52.6415Z" fill="black"/>
<path d="M53.2606 62.0213V62.6413H52.6406V62.0213H53.2606ZM54.5106 60.7713V59.5312H55.1306V60.7713H55.7506V61.3913H53.2606C53.0506 61.1813 53.0506 60.9813 53.2606 60.7713H54.5006H54.5106ZM54.5106 62.0213V62.6413H53.8906V62.0213H54.5106Z" fill="black"/>
<path d="M56.9915 60.771V59.531H57.6115V60.771H58.2315V61.391H55.7415C55.5315 61.181 55.5315 60.981 55.7415 60.771H56.9815H56.9915ZM56.3715 58.291V58.911H55.7515V58.291H56.3715ZM57.6115 58.291V58.911H56.9915V58.291H57.6115Z" fill="black"/>
<path d="M60.7198 61.3999H58.2298C58.0198 61.1899 58.0198 60.9899 58.2298 60.7799H58.8498V59.5399H59.4698V58.9199H60.7098V59.5399H61.3298V60.7799H60.7098V61.3999H60.7198ZM60.7198 59.5299H59.4798V60.7699H60.7198V59.5299Z" fill="black"/>
<path d="M62.5809 57.0508V61.4008H61.9609V57.0508H62.5809Z" fill="black"/>
<path style="mix-blend-mode:multiply" opacity="0.4" d="M88.87 7H9.31C8.03422 7 7 8.03422 7 9.31V16.75C7 18.0258 8.03422 19.06 9.31 19.06H88.87C90.1458 19.06 91.18 18.0258 91.18 16.75V9.31C91.18 8.03422 90.1458 7 88.87 7Z" fill="url(#paint0_linear_10360_5)"/>
<path style="mix-blend-mode:multiply" opacity="0.4" d="M88.87 19.8594H9.31C8.03422 19.8594 7 20.8936 7 22.1694V29.6094C7 30.8852 8.03422 31.9194 9.31 31.9194H88.87C90.1458 31.9194 91.18 30.8852 91.18 29.6094V22.1694C91.18 20.8936 90.1458 19.8594 88.87 19.8594Z" fill="url(#paint1_linear_10360_5)"/>
<path style="mix-blend-mode:multiply" opacity="0.4" d="M88.87 32.7207H9.31C8.03422 32.7207 7 33.7549 7 35.0307V42.4707C7 43.7465 8.03422 44.7807 9.31 44.7807H88.87C90.1458 44.7807 91.18 43.7465 91.18 42.4707V35.0307C91.18 33.7549 90.1458 32.7207 88.87 32.7207Z" fill="url(#paint2_linear_10360_5)"/>
<path d="M84.8905 14.1797H85.1506V14.6897H82.8105C82.8105 14.5997 82.8105 14.5197 82.8105 14.4297H84.8905C84.8905 14.3497 84.8905 14.2597 84.8905 14.1797Z" fill="#FEFEFE"/>
<path d="M82.291 13.1797C82.381 13.1797 82.461 13.1797 82.551 13.1797V13.4297C82.461 13.4297 82.381 13.4297 82.291 13.4297V13.1797Z" fill="#FEFEFE"/>
<path d="M86.9706 9.15039V9.66039C87.0606 9.66039 87.1406 9.66039 87.2306 9.66039C87.3206 9.66039 87.4006 9.66039 87.4906 9.66039V9.91039H87.7606V10.1704H88.0206C88.0206 10.2504 88.0206 10.3404 88.0206 10.4204C88.0206 10.5004 88.0206 10.5904 88.0206 10.6704H88.2806C88.2806 10.7604 88.2806 10.8404 88.2806 10.9304H88.0206C88.0206 11.1804 88.0206 11.4304 88.0206 11.6804C87.9306 11.6804 87.8506 11.6804 87.7606 11.6804C87.7606 11.7604 87.7606 11.8504 87.7606 11.9304C87.6706 11.9304 87.5806 11.9304 87.4906 11.9304C87.4906 12.0104 87.4906 12.1004 87.4906 12.1804C87.4006 12.1804 87.3206 12.1804 87.2306 12.1804C87.2306 12.2704 87.2306 12.3504 87.2306 12.4404C87.0606 12.4404 86.8806 12.4404 86.7106 12.4404C86.7106 12.5204 86.7106 12.6104 86.7106 12.6904C86.5406 12.6904 86.3706 12.6904 86.1906 12.6904V12.9404C86.1006 12.9404 86.0106 12.9404 85.9206 12.9404C85.8306 12.9404 85.7506 12.9404 85.6606 12.9404C85.6606 13.0304 85.6606 13.1104 85.6606 13.2004C85.4906 13.2004 85.3106 13.2004 85.1406 13.2004C85.1406 13.2804 85.1406 13.3704 85.1406 13.4504C85.0506 13.4504 84.9706 13.4504 84.8806 13.4504C84.8806 13.5304 84.8806 13.6204 84.8806 13.7004C84.8806 13.8704 84.8806 14.0404 84.8806 14.2104C84.8806 14.2904 84.8806 14.3804 84.8806 14.4604H82.8006C82.8006 14.1304 82.8006 13.7904 82.8006 13.4604C82.7106 13.4604 82.6306 13.4604 82.5406 13.4604V13.2104C82.4506 13.2104 82.3706 13.2104 82.2806 13.2104C82.1906 13.2104 82.1006 13.2104 82.0106 13.2104V12.9504C81.8406 12.9504 81.6706 12.9504 81.4906 12.9504V12.7004C81.4006 12.7004 81.3106 12.7004 81.2206 12.7004C81.1306 12.7004 81.0506 12.7004 80.9606 12.7004V12.4504C80.8706 12.4504 80.7906 12.4504 80.7006 12.4504C80.6106 12.4504 80.5206 12.4504 80.4306 12.4504V12.1904H80.1706V11.9404H79.9106V11.6904H79.6406V10.1804H79.9106V9.92039H80.1706V9.67039H80.6906V9.16039C82.7706 9.16039 84.8506 9.16039 86.9306 9.16039L86.9706 9.15039ZM80.7306 10.6604H80.4606V11.1704H80.7306V11.4204H80.9906V10.4204H80.7306V11.4204H80.9906V10.4204H80.7306V10.6704V10.6604ZM86.7106 10.9104C86.7106 11.0804 86.7106 11.2404 86.7106 11.4104H86.9806V11.1604H87.2406V10.6504H86.9806C86.9806 10.5704 86.9806 10.4804 86.9806 10.4004H86.7106C86.7106 10.5704 86.7106 10.7404 86.7106 10.9104Z" fill="#FDB813"/>
<path d="M88.2697 10.9102C88.2697 11.1602 88.2697 11.4102 88.2697 11.6602C88.1797 11.6602 88.0997 11.6602 88.0097 11.6602C88.0097 11.7402 88.0097 11.8302 88.0097 11.9102C87.9197 11.9102 87.8397 11.9102 87.7497 11.9102C87.7497 11.9902 87.7497 12.0802 87.7497 12.1602C87.6597 12.1602 87.5697 12.1602 87.4797 12.1602C87.4797 12.2502 87.4797 12.3302 87.4797 12.4202C87.3897 12.4202 87.3097 12.4202 87.2197 12.4202C87.2197 12.5002 87.2197 12.5902 87.2197 12.6702C87.0497 12.6702 86.8697 12.6702 86.6997 12.6702C86.6997 12.7502 86.6997 12.8402 86.6997 12.9202C86.5297 12.9202 86.3597 12.9202 86.1797 12.9202V12.6702C86.3497 12.6702 86.5197 12.6702 86.6997 12.6702C86.6997 12.5902 86.6997 12.5002 86.6997 12.4202C86.8697 12.4202 87.0497 12.4202 87.2197 12.4202C87.2197 12.3302 87.2197 12.2502 87.2197 12.1602C87.3097 12.1602 87.3897 12.1602 87.4797 12.1602C87.4797 12.0802 87.4797 11.9902 87.4797 11.9102C87.5697 11.9102 87.6597 11.9102 87.7497 11.9102C87.7497 11.8302 87.7497 11.7402 87.7497 11.6602C87.8397 11.6602 87.9197 11.6602 88.0097 11.6602C88.0097 11.4102 88.0097 11.1602 88.0097 10.9102H88.2697Z" fill="#FEFEFE"/>
<path d="M86.9707 9.15039C87.0607 9.15039 87.1407 9.15039 87.2307 9.15039V9.66039C87.1407 9.66039 87.0607 9.66039 86.9707 9.66039V9.15039Z" fill="#FEFEFE"/>
<path d="M85.9306 12.9199V13.1799C85.8406 13.1799 85.7606 13.1799 85.6706 13.1799C85.6706 13.2599 85.6706 13.3499 85.6706 13.4299C85.5006 13.4299 85.3206 13.4299 85.1506 13.4299C85.1506 13.5099 85.1506 13.5999 85.1506 13.6799H84.8906C84.8906 13.5999 84.8906 13.5099 84.8906 13.4299C84.9806 13.4299 85.0606 13.4299 85.1506 13.4299C85.1506 13.3499 85.1506 13.2599 85.1506 13.1799C85.3206 13.1799 85.5006 13.1799 85.6706 13.1799C85.6706 13.0899 85.6706 13.0099 85.6706 12.9199C85.7606 12.9199 85.8406 12.9199 85.9306 12.9199Z" fill="#FEFEFE"/>
<path d="M81.25 12.6699C81.34 12.6699 81.43 12.6699 81.52 12.6699V12.9199C81.43 12.9199 81.34 12.9199 81.25 12.9199V12.6699Z" fill="#FEFEFE"/>
<path d="M88.0098 10.4102H88.2698C88.2698 10.4902 88.2698 10.5802 88.2698 10.6602H88.0098C88.0098 10.5802 88.0098 10.4902 88.0098 10.4102Z" fill="#FEFEFE"/>
<path d="M80.7305 12.4199C80.8205 12.4199 80.9005 12.4199 80.9905 12.4199V12.6699C80.9005 12.6699 80.8205 12.6699 80.7305 12.6699V12.4199Z" fill="#FEFEFE"/>
<path d="M80.9905 10.6602H80.7305V11.4102H80.9905V10.6602Z" fill="#010100"/>
<path d="M80.7307 10.6602V10.4102H80.9907V11.4102H80.7307V10.4102H80.9907V10.6602H80.7307V11.1602H80.4707V10.6602H80.7307Z" fill="#FEFEFE"/>
<path d="M86.9712 10.6602H87.2312V11.1702H86.9712V11.4202H86.7012C86.7012 11.2502 86.7012 11.0902 86.7012 10.9202H86.9712C86.9712 10.8302 86.9712 10.7502 86.9712 10.6602Z" fill="#010100"/>
<path d="M86.7109 10.9104C86.7109 10.7404 86.7109 10.5704 86.7109 10.4004H86.9809C86.9809 10.4804 86.9809 10.5704 86.9809 10.6504C86.9809 10.7404 86.9809 10.8204 86.9809 10.9104H86.7109Z" fill="#FEFEFE"/>
<path d="M88.0102 8.39062V9.40063H88.2702V9.65063H88.5402V9.90063H88.8002V10.4106H89.0602V11.6706H88.8002V12.1706H88.5402V12.4306H88.2702V12.6806H88.0102V12.9306H87.7502V13.1906H87.4801V13.4406H86.7001V13.6906H86.1802V13.9506H85.6602V14.4506H85.9202V14.7106H86.9702V15.2106H87.2301V15.7206H87.4902V16.4706H87.7602V17.2206H88.0202V17.7306H79.9602V16.9806H80.2202V16.2306H80.4801V15.4806H80.7502V14.7306H82.0502V14.2206H82.3202V13.9706H82.0502V13.7106H81.5302V13.4606H80.7502V13.2106H80.2301V12.9506H79.9702V12.7006H79.7001V12.4506H79.4402V11.9406H79.1802V11.4306H78.9102V10.1806H79.1802V9.67063H79.4402V9.42063H79.7001V9.16063H79.9702V8.41063H88.0302L88.0102 8.39062ZM86.9702 9.15063C84.8902 9.15063 82.8101 9.15063 80.7301 9.15063V9.66063H80.2102V9.91063H79.9501V10.1706H79.6802V11.6806H79.9501V11.9306H80.2102V12.1806H80.4702V12.4406C80.5602 12.4406 80.6502 12.4406 80.7402 12.4406V12.6906C80.8302 12.6906 80.9102 12.6906 81.0002 12.6906C81.0902 12.6906 81.1702 12.6906 81.2602 12.6906V12.9406C81.3502 12.9406 81.4402 12.9406 81.5302 12.9406C81.7002 12.9406 81.8702 12.9406 82.0502 12.9406V13.2006C82.1402 13.2006 82.2302 13.2006 82.3202 13.2006V13.4506C82.4102 13.4506 82.4902 13.4506 82.5802 13.4506C82.6702 13.4506 82.7501 13.4506 82.8401 13.4506C82.8401 13.7806 82.8401 14.1206 82.8401 14.4506C82.8401 14.5406 82.8401 14.6206 82.8401 14.7106H85.1802V14.2006H84.9202C84.9202 14.0306 84.9202 13.8606 84.9202 13.6906H85.1802C85.1802 13.6106 85.1802 13.5206 85.1802 13.4406C85.3502 13.4406 85.5301 13.4406 85.7001 13.4406C85.7001 13.3606 85.7001 13.2706 85.7001 13.1906C85.7901 13.1906 85.8702 13.1906 85.9602 13.1906V12.9306C86.0502 12.9306 86.1401 12.9306 86.2301 12.9306C86.4001 12.9306 86.5702 12.9306 86.7502 12.9306C86.7502 12.8506 86.7502 12.7606 86.7502 12.6806C86.9202 12.6806 87.1002 12.6806 87.2702 12.6806C87.2702 12.6006 87.2702 12.5106 87.2702 12.4306C87.3602 12.4306 87.4402 12.4306 87.5302 12.4306C87.5302 12.3406 87.5302 12.2606 87.5302 12.1706C87.6202 12.1706 87.7102 12.1706 87.8002 12.1706C87.8002 12.0906 87.8002 12.0006 87.8002 11.9206C87.8902 11.9206 87.9701 11.9206 88.0602 11.9206C88.0602 11.8406 88.0602 11.7506 88.0602 11.6706C88.1502 11.6706 88.2302 11.6706 88.3202 11.6706C88.3202 11.4206 88.3202 11.1706 88.3202 10.9206C88.3202 10.8306 88.3202 10.7506 88.3202 10.6606C88.3202 10.5806 88.3202 10.4906 88.3202 10.4106H88.0602C88.0602 10.3306 88.0602 10.2406 88.0602 10.1606H87.8002V9.90063H87.5302V9.65063C87.4402 9.65063 87.3602 9.65063 87.2702 9.65063V9.14062C87.1802 9.14062 87.1002 9.14062 87.0102 9.14062L86.9702 9.15063ZM86.4501 15.6906C86.4501 15.6106 86.4501 15.5206 86.4501 15.4406H81.2402V15.9406H80.9801V16.6906H80.7202V16.9506H86.9602C86.9602 16.8606 86.9602 16.7806 86.9602 16.6906C86.9602 16.6106 86.9602 16.5206 86.9602 16.4406H86.6902C86.6902 16.2706 86.6902 16.1006 86.6902 15.9306C86.6902 15.8506 86.6902 15.7606 86.6902 15.6806H86.4302L86.4501 15.6906Z" fill="#010100"/>
<path d="M86.9705 16.7012C86.9705 16.7912 86.9705 16.8712 86.9705 16.9612H80.7305V16.7012H80.9905V15.9512H81.2505V15.4512H86.4605C86.4605 15.5312 86.4605 15.6212 86.4605 15.7012C86.4605 15.7812 86.4605 15.8712 86.4605 15.9512H86.7205C86.7205 16.1212 86.7205 16.2912 86.7205 16.4612C86.7205 16.5412 86.7205 16.6312 86.7205 16.7112H86.9905L86.9705 16.7012Z" fill="#FDB813"/>
<path d="M86.7109 16.4512H86.9809C86.9809 16.5312 86.9809 16.6212 86.9809 16.7012H86.7109C86.7109 16.6212 86.7109 16.5312 86.7109 16.4512Z" fill="#FEFEFE"/>
<path d="M86.4512 15.6914H86.7112C86.7112 15.7714 86.7112 15.8614 86.7112 15.9414H86.4512C86.4512 15.8614 86.4512 15.7714 86.4512 15.6914Z" fill="#FEFEFE"/>
<path d="M84.539 27.0195H84.799V27.5295H82.459C82.459 27.4395 82.459 27.3595 82.459 27.2695H84.539C84.539 27.1895 84.539 27.0995 84.539 27.0195Z" fill="#FEFEFE"/>
<path d="M81.9395 26.0195C82.0295 26.0195 82.1094 26.0195 82.1994 26.0195V26.2695C82.1094 26.2695 82.0295 26.2695 81.9395 26.2695V26.0195Z" fill="#FEFEFE"/>
<path d="M86.619 21.9902V22.5002C86.709 22.5002 86.7891 22.5002 86.8791 22.5002C86.9691 22.5002 87.0491 22.5002 87.1391 22.5002V22.7502H87.4091V23.0102H87.6691C87.6691 23.0902 87.6691 23.1802 87.6691 23.2602C87.6691 23.3402 87.6691 23.4302 87.6691 23.5102H87.9291C87.9291 23.6002 87.9291 23.6802 87.9291 23.7702H87.6691C87.6691 24.0202 87.6691 24.2702 87.6691 24.5202C87.5791 24.5202 87.4991 24.5202 87.4091 24.5202C87.4091 24.6002 87.4091 24.6902 87.4091 24.7702C87.3191 24.7702 87.2291 24.7702 87.1391 24.7702C87.1391 24.8502 87.1391 24.9402 87.1391 25.0202C87.0491 25.0202 86.9691 25.0202 86.8791 25.0202C86.8791 25.1102 86.8791 25.1902 86.8791 25.2802C86.7091 25.2802 86.5291 25.2802 86.3591 25.2802C86.3591 25.3602 86.3591 25.4502 86.3591 25.5302C86.1891 25.5302 86.0191 25.5302 85.8391 25.5302V25.7802C85.7491 25.7802 85.6591 25.7802 85.5691 25.7802C85.4791 25.7802 85.3991 25.7802 85.3091 25.7802C85.3091 25.8702 85.3091 25.9502 85.3091 26.0402C85.1391 26.0402 84.9591 26.0402 84.7891 26.0402C84.7891 26.1202 84.7891 26.2102 84.7891 26.2902C84.6991 26.2902 84.6191 26.2902 84.5291 26.2902C84.5291 26.3702 84.5291 26.4602 84.5291 26.5402C84.5291 26.7102 84.5291 26.8802 84.5291 27.0502C84.5291 27.1302 84.5291 27.2202 84.5291 27.3002H82.4491C82.4491 26.9702 82.4491 26.6302 82.4491 26.3002C82.3591 26.3002 82.2791 26.3002 82.1891 26.3002V26.0502C82.0991 26.0502 82.0191 26.0502 81.9291 26.0502C81.8391 26.0502 81.7491 26.0502 81.6591 26.0502V25.7902C81.4891 25.7902 81.3191 25.7902 81.1391 25.7902V25.5402C81.0491 25.5402 80.959 25.5402 80.869 25.5402C80.779 25.5402 80.6991 25.5402 80.6091 25.5402V25.2902C80.5191 25.2902 80.4391 25.2902 80.3491 25.2902C80.2591 25.2902 80.1691 25.2902 80.0791 25.2902V25.0302H79.8191V24.7802H79.5591V24.5302H79.2891V23.0202H79.5591V22.7602H79.8191V22.5102H80.3391V22.0002C82.4191 22.0002 84.4991 22.0002 86.5791 22.0002L86.619 21.9902ZM80.3791 23.5002H80.1091V24.0102H80.3791V24.2602H80.6391V23.2602H80.3791V24.2602H80.6391V23.2602H80.3791V23.5102V23.5002ZM86.3591 23.7502C86.3591 23.9202 86.3591 24.0802 86.3591 24.2502H86.6291V24.0002H86.8891V23.4902H86.6291C86.6291 23.4102 86.6291 23.3202 86.6291 23.2402H86.3591C86.3591 23.4102 86.3591 23.5802 86.3591 23.7502Z" fill="#D5E5E8"/>
<path d="M87.9181 23.75C87.9181 24 87.9181 24.25 87.9181 24.5C87.8281 24.5 87.7481 24.5 87.6581 24.5C87.6581 24.58 87.6581 24.67 87.6581 24.75C87.5681 24.75 87.4881 24.75 87.3981 24.75C87.3981 24.83 87.3981 24.92 87.3981 25C87.3081 25 87.2181 25 87.1281 25C87.1281 25.09 87.1281 25.17 87.1281 25.26C87.0381 25.26 86.9581 25.26 86.8681 25.26C86.8681 25.34 86.8681 25.43 86.8681 25.51C86.6981 25.51 86.5181 25.51 86.3481 25.51C86.3481 25.59 86.3481 25.68 86.3481 25.76C86.1781 25.76 86.0081 25.76 85.8281 25.76V25.51C85.9981 25.51 86.1681 25.51 86.3481 25.51C86.3481 25.43 86.3481 25.34 86.3481 25.26C86.5181 25.26 86.6981 25.26 86.8681 25.26C86.8681 25.17 86.8681 25.09 86.8681 25C86.9581 25 87.0381 25 87.1281 25C87.1281 24.92 87.1281 24.83 87.1281 24.75C87.2181 24.75 87.3081 24.75 87.3981 24.75C87.3981 24.67 87.3981 24.58 87.3981 24.5C87.4881 24.5 87.5681 24.5 87.6581 24.5C87.6581 24.25 87.6581 24 87.6581 23.75H87.9181Z" fill="#FEFEFE"/>
<path d="M86.6191 21.9902C86.7091 21.9902 86.7892 21.9902 86.8792 21.9902V22.5002C86.7892 22.5002 86.7091 22.5002 86.6191 22.5002V21.9902Z" fill="#FEFEFE"/>
<path d="M85.5693 25.7598V26.0198C85.4793 26.0198 85.3993 26.0198 85.3093 26.0198C85.3093 26.0998 85.3093 26.1898 85.3093 26.2698C85.1393 26.2698 84.9593 26.2698 84.7893 26.2698C84.7893 26.3498 84.7893 26.4398 84.7893 26.5198H84.5293C84.5293 26.4398 84.5293 26.3498 84.5293 26.2698C84.6193 26.2698 84.6993 26.2698 84.7893 26.2698C84.7893 26.1898 84.7893 26.0998 84.7893 26.0198C84.9593 26.0198 85.1393 26.0198 85.3093 26.0198C85.3093 25.9298 85.3093 25.8498 85.3093 25.7598C85.3993 25.7598 85.4793 25.7598 85.5693 25.7598Z" fill="#FEFEFE"/>
<path d="M80.8887 25.5098C80.9787 25.5098 81.0687 25.5098 81.1587 25.5098V25.7598C81.0687 25.7598 80.9787 25.7598 80.8887 25.7598V25.5098Z" fill="#FEFEFE"/>
<path d="M87.6582 23.25H87.9182C87.9182 23.33 87.9182 23.42 87.9182 23.5H87.6582C87.6582 23.42 87.6582 23.33 87.6582 23.25Z" fill="#FEFEFE"/>
<path d="M80.3789 25.2598C80.4689 25.2598 80.5489 25.2598 80.6389 25.2598V25.5098C80.5489 25.5098 80.4689 25.5098 80.3789 25.5098V25.2598Z" fill="#FEFEFE"/>
<path d="M80.6389 23.5H80.3789V24.25H80.6389V23.5Z" fill="#010100"/>
<path d="M80.3794 23.5V23.25H80.6394V24.25H80.3794V23.25H80.6394V23.5H80.3794V24H80.1094V23.5H80.3794Z" fill="#FEFEFE"/>
<path d="M86.6196 23.5H86.8796V24.01H86.6196V24.26H86.3496C86.3496 24.09 86.3496 23.93 86.3496 23.76H86.6196C86.6196 23.67 86.6196 23.59 86.6196 23.5Z" fill="#010100"/>
<path d="M86.3594 23.7502C86.3594 23.5802 86.3594 23.4102 86.3594 23.2402H86.6294C86.6294 23.3202 86.6294 23.4102 86.6294 23.4902C86.6294 23.5802 86.6294 23.6602 86.6294 23.7502H86.3594Z" fill="#FEFEFE"/>
<path d="M87.6586 21.2305V22.2405H87.9186V22.4905H88.1886V22.7405H88.4486V23.2505H88.7086V24.5105H88.4486V25.0105H88.1886V25.2705H87.9186V25.5205H87.6586V25.7705H87.3986V26.0305H87.1286V26.2805H86.3486V26.5305H85.8286V26.7905H85.3086V27.2905H85.5686V27.5505H86.6186V28.0505H86.8786V28.5605H87.1386V29.3105H87.4086V30.0605H87.6686V30.5705H79.6086V29.8205H79.8686V29.0705H80.1286V28.3205H80.3986V27.5705H81.6986V27.0605H81.9686V26.8105H81.6986V26.5505H81.1786V26.3005H80.3986V26.0505H79.8786V25.7905H79.6186V25.5405H79.3486V25.2905H79.0886V24.7805H78.8286V24.2705H78.5586V23.0205H78.8286V22.5105H79.0886V22.2605H79.3486V22.0005H79.6186V21.2505H87.6786L87.6586 21.2305ZM86.6186 21.9905C84.5386 21.9905 82.4586 21.9905 80.3786 21.9905V22.5005H79.8586V22.7505H79.5986V23.0105H79.3286V24.5205H79.5986V24.7705H79.8586V25.0205H80.1186V25.2805C80.2086 25.2805 80.2986 25.2805 80.3886 25.2805V25.5305C80.4786 25.5305 80.5586 25.5305 80.6486 25.5305C80.7386 25.5305 80.8186 25.5305 80.9086 25.5305V25.7805C80.9986 25.7805 81.0886 25.7805 81.1786 25.7805C81.3486 25.7805 81.5186 25.7805 81.6986 25.7805V26.0405C81.7886 26.0405 81.8786 26.0405 81.9686 26.0405V26.2905C82.0586 26.2905 82.1386 26.2905 82.2286 26.2905C82.3186 26.2905 82.3986 26.2905 82.4886 26.2905C82.4886 26.6205 82.4886 26.9605 82.4886 27.2905C82.4886 27.3805 82.4886 27.4605 82.4886 27.5505H84.8286V27.0405H84.5686C84.5686 26.8705 84.5686 26.7005 84.5686 26.5305H84.8286C84.8286 26.4505 84.8286 26.3605 84.8286 26.2805C84.9986 26.2805 85.1786 26.2805 85.3486 26.2805C85.3486 26.2005 85.3486 26.1105 85.3486 26.0305C85.4386 26.0305 85.5186 26.0305 85.6086 26.0305V25.7705C85.6986 25.7705 85.7886 25.7705 85.8786 25.7705C86.0486 25.7705 86.2186 25.7705 86.3986 25.7705C86.3986 25.6905 86.3986 25.6005 86.3986 25.5205C86.5686 25.5205 86.7486 25.5205 86.9186 25.5205C86.9186 25.4405 86.9186 25.3505 86.9186 25.2705C87.0086 25.2705 87.0886 25.2705 87.1786 25.2705C87.1786 25.1805 87.1786 25.1005 87.1786 25.0105C87.2686 25.0105 87.3586 25.0105 87.4486 25.0105C87.4486 24.9305 87.4486 24.8405 87.4486 24.7605C87.5386 24.7605 87.6186 24.7605 87.7086 24.7605C87.7086 24.6805 87.7086 24.5905 87.7086 24.5105C87.7986 24.5105 87.8786 24.5105 87.9686 24.5105C87.9686 24.2605 87.9686 24.0105 87.9686 23.7605C87.9686 23.6705 87.9686 23.5905 87.9686 23.5005C87.9686 23.4205 87.9686 23.3305 87.9686 23.2505H87.7086C87.7086 23.1705 87.7086 23.0805 87.7086 23.0005H87.4486V22.7405H87.1786V22.4905C87.0886 22.4905 87.0086 22.4905 86.9186 22.4905V21.9805C86.8286 21.9805 86.7486 21.9805 86.6586 21.9805L86.6186 21.9905ZM86.0986 28.5305C86.0986 28.4505 86.0986 28.3605 86.0986 28.2805H80.8886V28.7805H80.6286V29.5305H80.3686V29.7905H86.6086C86.6086 29.7005 86.6086 29.6205 86.6086 29.5305C86.6086 29.4505 86.6086 29.3605 86.6086 29.2805H86.3386C86.3386 29.1105 86.3386 28.9405 86.3386 28.7705C86.3386 28.6905 86.3386 28.6005 86.3386 28.5205H86.0786L86.0986 28.5305Z" fill="#010100"/>
<path d="M86.6189 29.5312C86.6189 29.6213 86.6189 29.7013 86.6189 29.7913H80.3789V29.5312H80.6389V28.7812H80.8989V28.2812H86.1089C86.1089 28.3612 86.1089 28.4513 86.1089 28.5312C86.1089 28.6112 86.1089 28.7013 86.1089 28.7812H86.3689C86.3689 28.9513 86.3689 29.1213 86.3689 29.2913C86.3689 29.3713 86.3689 29.4613 86.3689 29.5413H86.6389L86.6189 29.5312Z" fill="#D5E5E8"/>
<path d="M86.3594 29.2812H86.6294C86.6294 29.3612 86.6294 29.4513 86.6294 29.5312H86.3594C86.3594 29.4513 86.3594 29.3612 86.3594 29.2812Z" fill="#FEFEFE"/>
<path d="M86.0996 28.5312H86.3596C86.3596 28.6112 86.3596 28.7013 86.3596 28.7812H86.0996C86.0996 28.7013 86.0996 28.6112 86.0996 28.5312Z" fill="#FEFEFE"/>
<path d="M84.1796 39.8594H84.4396V40.3694H82.0996C82.0996 40.2794 82.0996 40.1994 82.0996 40.1094H84.1796C84.1796 40.0294 84.1796 39.9394 84.1796 39.8594Z" fill="#FEFEFE"/>
<path d="M81.5801 38.8594C81.6701 38.8594 81.7501 38.8594 81.8401 38.8594V39.1094C81.7501 39.1094 81.6701 39.1094 81.5801 39.1094V38.8594Z" fill="#FEFEFE"/>
<path d="M86.2695 34.8203V35.3303C86.3595 35.3303 86.4394 35.3303 86.5294 35.3303C86.6194 35.3303 86.6995 35.3303 86.7895 35.3303V35.5803H87.0594V35.8403H87.3195C87.3195 35.9203 87.3195 36.0103 87.3195 36.0903C87.3195 36.1703 87.3195 36.2603 87.3195 36.3403H87.5795C87.5795 36.4303 87.5795 36.5103 87.5795 36.6003H87.3195C87.3195 36.8503 87.3195 37.1003 87.3195 37.3503C87.2295 37.3503 87.1494 37.3503 87.0594 37.3503C87.0594 37.4303 87.0594 37.5203 87.0594 37.6003C86.9694 37.6003 86.8795 37.6003 86.7895 37.6003C86.7895 37.6803 86.7895 37.7703 86.7895 37.8503C86.6995 37.8503 86.6194 37.8503 86.5294 37.8503C86.5294 37.9403 86.5294 38.0203 86.5294 38.1103C86.3594 38.1103 86.1795 38.1103 86.0095 38.1103C86.0095 38.1903 86.0095 38.2803 86.0095 38.3603C85.8395 38.3603 85.6695 38.3603 85.4895 38.3603V38.6103C85.3995 38.6103 85.3095 38.6103 85.2195 38.6103C85.1295 38.6103 85.0495 38.6103 84.9595 38.6103C84.9595 38.7003 84.9595 38.7803 84.9595 38.8703C84.7895 38.8703 84.6095 38.8703 84.4395 38.8703C84.4395 38.9503 84.4395 39.0403 84.4395 39.1203C84.3495 39.1203 84.2695 39.1203 84.1795 39.1203C84.1795 39.2003 84.1795 39.2903 84.1795 39.3703C84.1795 39.5403 84.1795 39.7103 84.1795 39.8803C84.1795 39.9603 84.1795 40.0503 84.1795 40.1303H82.0995C82.0995 39.8003 82.0995 39.4603 82.0995 39.1303C82.0095 39.1303 81.9294 39.1303 81.8394 39.1303V38.8803C81.7494 38.8803 81.6695 38.8803 81.5795 38.8803C81.4895 38.8803 81.3994 38.8803 81.3094 38.8803V38.6203C81.1394 38.6203 80.9695 38.6203 80.7895 38.6203V38.3703C80.6995 38.3703 80.6095 38.3703 80.5195 38.3703C80.4295 38.3703 80.3495 38.3703 80.2595 38.3703V38.1203C80.1695 38.1203 80.0895 38.1203 79.9995 38.1203C79.9095 38.1203 79.8194 38.1203 79.7294 38.1203V37.8603H79.4695V37.6103H79.2095V37.3603H78.9395V35.8503H79.2095V35.5903H79.4695V35.3403H79.9895V34.8303C82.0695 34.8303 84.1494 34.8303 86.2294 34.8303L86.2695 34.8203ZM80.0195 36.3303H79.7495V36.8403H80.0195V37.0903H80.2794V36.0903H80.0195V37.0903H80.2794V36.0903H80.0195V36.3403V36.3303ZM85.9995 36.5903C85.9995 36.7603 85.9995 36.9203 85.9995 37.0903H86.2695V36.8403H86.5294V36.3303H86.2695C86.2695 36.2503 86.2695 36.1603 86.2695 36.0803H85.9995C85.9995 36.2503 85.9995 36.4203 85.9995 36.5903Z" fill="#E98A00"/>
<path d="M87.5587 36.5898C87.5587 36.8398 87.5587 37.0898 87.5587 37.3398C87.4687 37.3398 87.3888 37.3398 87.2988 37.3398C87.2988 37.4198 87.2988 37.5098 87.2988 37.5898C87.2088 37.5898 87.1288 37.5898 87.0388 37.5898C87.0388 37.6698 87.0388 37.7598 87.0388 37.8398C86.9488 37.8398 86.8588 37.8398 86.7688 37.8398C86.7688 37.9298 86.7688 38.0098 86.7688 38.0998C86.6788 38.0998 86.5988 38.0998 86.5088 38.0998C86.5088 38.1798 86.5088 38.2698 86.5088 38.3498C86.3388 38.3498 86.1588 38.3498 85.9888 38.3498C85.9888 38.4298 85.9888 38.5198 85.9888 38.5998C85.8188 38.5998 85.6488 38.5998 85.4688 38.5998V38.3498C85.6388 38.3498 85.8088 38.3498 85.9888 38.3498C85.9888 38.2698 85.9888 38.1798 85.9888 38.0998C86.1588 38.0998 86.3388 38.0998 86.5088 38.0998C86.5088 38.0098 86.5088 37.9298 86.5088 37.8398C86.5988 37.8398 86.6788 37.8398 86.7688 37.8398C86.7688 37.7598 86.7688 37.6698 86.7688 37.5898C86.8588 37.5898 86.9488 37.5898 87.0388 37.5898C87.0388 37.5098 87.0388 37.4198 87.0388 37.3398C87.1288 37.3398 87.2088 37.3398 87.2988 37.3398C87.2988 37.0898 87.2988 36.8398 87.2988 36.5898H87.5587Z" fill="#FEFEFE"/>
<path d="M86.2695 34.8203C86.3595 34.8203 86.4395 34.8203 86.5295 34.8203V35.3303C86.4395 35.3303 86.3595 35.3303 86.2695 35.3303V34.8203Z" fill="#FEFEFE"/>
<path d="M85.2197 38.5996V38.8596C85.1297 38.8596 85.0497 38.8596 84.9597 38.8596C84.9597 38.9396 84.9597 39.0296 84.9597 39.1096C84.7897 39.1096 84.6097 39.1096 84.4397 39.1096C84.4397 39.1896 84.4397 39.2796 84.4397 39.3596H84.1797C84.1797 39.2796 84.1797 39.1896 84.1797 39.1096C84.2697 39.1096 84.3497 39.1096 84.4397 39.1096C84.4397 39.0296 84.4397 38.9396 84.4397 38.8596C84.6097 38.8596 84.7897 38.8596 84.9597 38.8596C84.9597 38.7696 84.9597 38.6896 84.9597 38.5996C85.0497 38.5996 85.1297 38.5996 85.2197 38.5996Z" fill="#FEFEFE"/>
<path d="M80.5391 38.3496C80.6291 38.3496 80.7191 38.3496 80.8091 38.3496V38.5996C80.7191 38.5996 80.6291 38.5996 80.5391 38.5996V38.3496Z" fill="#FEFEFE"/>
<path d="M87.2988 36.0898H87.5588C87.5588 36.1698 87.5588 36.2598 87.5588 36.3398H87.2988C87.2988 36.2598 87.2988 36.1698 87.2988 36.0898Z" fill="#FEFEFE"/>
<path d="M80.0195 38.0996C80.1095 38.0996 80.1895 38.0996 80.2795 38.0996V38.3496C80.1895 38.3496 80.1095 38.3496 80.0195 38.3496V38.0996Z" fill="#FEFEFE"/>
<path d="M80.2795 36.3301H80.0195V37.0801H80.2795V36.3301Z" fill="#010100"/>
<path d="M80.0198 36.3298V36.0898H80.2798V37.0898H80.0198V36.0898H80.2798V36.3298H80.0198V36.8398H79.7598V36.3298H80.0198Z" fill="#FEFEFE"/>
<path d="M86.27 36.3301H86.53V36.8401H86.27V37.0901H86C86 36.9201 86 36.7601 86 36.5901H86.27C86.27 36.5001 86.27 36.4201 86.27 36.3301Z" fill="#010100"/>
<path d="M86 36.5901C86 36.4201 86 36.2501 86 36.0801H86.27C86.27 36.1601 86.27 36.2501 86.27 36.3301C86.27 36.4201 86.27 36.5001 86.27 36.5901H86Z" fill="#FEFEFE"/>
<path d="M87.2992 34.0703V35.0803H87.5592V35.3303H87.8292V35.5803H88.0892V36.0903H88.3492V37.3503H88.0892V37.8503H87.8292V38.1103H87.5592V38.3603H87.2992V38.6103H87.0392V38.8703H86.7692V39.1203H85.9892V39.3703H85.4692V39.6303H84.9492V40.1303H85.2092V40.3903H86.2592V40.8903H86.5192V41.4003H86.7792V42.1503H87.0492V42.9003H87.3092V43.4103H79.2492V42.6603H79.5092V41.9103H79.7692V41.1603H80.0392V40.4103H81.3392V39.9003H81.6092V39.6503H81.3392V39.3903H80.8192V39.1403H80.0392V38.8903H79.5192V38.6303H79.2592V38.3803H78.9892V38.1303H78.7292V37.6203H78.4692V37.1103H78.1992V35.8603H78.4692V35.3503H78.7292V35.1003H78.9892V34.8403H79.2592V34.0903H87.3192L87.2992 34.0703ZM86.2692 34.8203C84.1892 34.8203 82.1092 34.8203 80.0292 34.8203V35.3303H79.5092V35.5803H79.2492V35.8403H78.9792V37.3503H79.2492V37.6003H79.5092V37.8503H79.7692V38.1103C79.8592 38.1103 79.9492 38.1103 80.0392 38.1103V38.3603C80.1292 38.3603 80.2092 38.3603 80.2992 38.3603C80.3892 38.3603 80.4692 38.3603 80.5592 38.3603V38.6103C80.6492 38.6103 80.7392 38.6103 80.8292 38.6103C80.9992 38.6103 81.1692 38.6103 81.3492 38.6103V38.8703C81.4392 38.8703 81.5292 38.8703 81.6192 38.8703V39.1203C81.7092 39.1203 81.7892 39.1203 81.8792 39.1203C81.9692 39.1203 82.0492 39.1203 82.1392 39.1203C82.1392 39.4503 82.1392 39.7903 82.1392 40.1203C82.1392 40.2103 82.1392 40.2903 82.1392 40.3803H84.4792V39.8703H84.2192C84.2192 39.7003 84.2192 39.5303 84.2192 39.3603H84.4792C84.4792 39.2803 84.4792 39.1903 84.4792 39.1103C84.6492 39.1103 84.8292 39.1103 84.9992 39.1103C84.9992 39.0303 84.9992 38.9403 84.9992 38.8603C85.0892 38.8603 85.1692 38.8603 85.2592 38.8603V38.6003C85.3492 38.6003 85.4392 38.6003 85.5292 38.6003C85.6992 38.6003 85.8692 38.6003 86.0492 38.6003C86.0492 38.5203 86.0492 38.4303 86.0492 38.3503C86.2192 38.3503 86.3992 38.3503 86.5692 38.3503C86.5692 38.2703 86.5692 38.1803 86.5692 38.1003C86.6592 38.1003 86.7392 38.1003 86.8292 38.1003C86.8292 38.0103 86.8292 37.9303 86.8292 37.8403C86.9192 37.8403 87.0092 37.8403 87.0992 37.8403C87.0992 37.7603 87.0992 37.6703 87.0992 37.5903C87.1892 37.5903 87.2692 37.5903 87.3592 37.5903C87.3592 37.5103 87.3592 37.4203 87.3592 37.3403C87.4492 37.3403 87.5292 37.3403 87.6192 37.3403C87.6192 37.0903 87.6192 36.8403 87.6192 36.5903C87.6192 36.5003 87.6192 36.4203 87.6192 36.3303C87.6192 36.2503 87.6192 36.1603 87.6192 36.0803H87.3592C87.3592 36.0003 87.3592 35.9103 87.3592 35.8303H87.0992V35.5703H86.8292V35.3203C86.7392 35.3203 86.6592 35.3203 86.5692 35.3203V34.8103C86.4792 34.8103 86.3992 34.8103 86.3092 34.8103L86.2692 34.8203ZM85.7392 41.3703C85.7392 41.2903 85.7392 41.2003 85.7392 41.1203H80.5292V41.6203H80.2692V42.3703H80.0092V42.6303H86.2492C86.2492 42.5403 86.2492 42.4603 86.2492 42.3703C86.2492 42.2903 86.2492 42.2003 86.2492 42.1203H85.9792C85.9792 41.9503 85.9792 41.7803 85.9792 41.6103C85.9792 41.5303 85.9792 41.4403 85.9792 41.3603H85.7192L85.7392 41.3703Z" fill="#010100"/>
<path d="M86.2693 42.3711C86.2693 42.4611 86.2693 42.5411 86.2693 42.6311H80.0293V42.3711H80.2893V41.6211H80.5493V41.1211H85.7593C85.7593 41.2011 85.7593 41.2911 85.7593 41.3711C85.7593 41.4511 85.7593 41.5411 85.7593 41.6211H86.0193C86.0193 41.7911 86.0193 41.9611 86.0193 42.1311C86.0193 42.2111 86.0193 42.3011 86.0193 42.3811H86.2893L86.2693 42.3711Z" fill="#E98A00"/>
<path d="M86 42.1211H86.27C86.27 42.2011 86.27 42.2911 86.27 42.3711H86C86 42.2911 86 42.2011 86 42.1211Z" fill="#FEFEFE"/>
<path d="M85.7402 41.3711H86.0002C86.0002 41.4511 86.0002 41.5411 86.0002 41.6211H85.7402C85.7402 41.5411 85.7402 41.4511 85.7402 41.3711Z" fill="#FEFEFE"/>
<path d="M53.9903 12.4902V12.9102H53.5703V12.4902H53.9903ZM53.9903 13.7602V14.1802H53.5703V13.7602H53.9903Z" fill="black"/>
<path d="M56.1099 14.6007V15.0207H54.8399V14.6007H54.4199V12.9107H54.8399V14.6007H56.1099V11.2207H56.5299V14.6007H56.1099Z" fill="black"/>
<path d="M58.2212 12.4902V12.9102H58.6412V14.6002H58.2212V15.0202H56.9512V14.6002H58.2212V14.1802H57.3712V13.7602H56.9512V12.9102H57.3712V12.4902H58.2212ZM58.2212 13.7602V12.9102H57.3712V13.7602H58.2212Z" fill="black"/>
<path d="M59.4903 11.2207V14.1807H59.0703V11.2207H59.4903Z" fill="black"/>
<path d="M62.02 14.1802V14.6002H61.6V15.0202H60.75V14.6002H61.6V12.9102H62.02V13.7602H62.44V14.1802H62.02Z" fill="black"/>
<path d="M64.1409 12.4904V12.9104H64.5609V13.7604H64.9809V14.1804H62.4409C62.3009 14.0404 62.3009 13.9004 62.4409 13.7604H62.8609V12.9104H63.2809V12.4904H64.1309H64.1409ZM63.7209 11.6504V12.0704H63.3009V11.6504H63.7209ZM64.1409 13.7604V12.9104H63.2909V13.7604H64.1409Z" fill="black"/>
<path d="M65.83 13.7603V12.9103H66.25V13.7603H65.83V14.1803H64.98C64.84 14.0403 64.84 13.9003 64.98 13.7603H65.83ZM65.83 12.0703V12.4903H65.41V12.0703H65.83Z" fill="black"/>
<path d="M68.7895 12.9103V14.6003H68.3695V15.0203H67.5195V14.6003H68.3695V12.9103H68.7895ZM68.7895 12.0703V12.4903H68.3695V12.0703H68.7895Z" fill="black"/>
<path d="M69.6309 14.1807V13.7607H69.2109V11.2207H69.6309V13.7607H70.0509V14.1807H69.6309Z" fill="black"/>
<path d="M70.0606 14.6002V15.0202H69.6406V14.6002H70.0606ZM70.9006 13.7602V12.9102H71.3206V13.7602H71.7406V14.1802H70.0506C69.9106 14.0402 69.9106 13.9002 70.0506 13.7602H70.9006ZM70.9006 14.6002V15.0202H70.4806V14.6002H70.9006Z" fill="black"/>
<path d="M72.5898 13.7603V12.9103H73.0098V13.7603H73.4298V14.1803H71.7398C71.5998 14.0403 71.5998 13.9003 71.7398 13.7603H72.5898ZM72.1698 12.0703V12.4903H71.7498V12.0703H72.1698ZM73.0198 12.0703V12.4903H72.5998V12.0703H73.0198Z" fill="black"/>
<path d="M75.1309 14.1802H73.4409C73.3009 14.0402 73.3009 13.9002 73.4409 13.7602H73.8609V12.9102H74.2809V12.4902H75.1309V12.9102H75.5509V13.7602H75.1309V14.1802ZM75.1309 12.9102H74.2809V13.7602H75.1309V12.9102Z" fill="black"/>
<path d="M76.4005 11.2207V14.1807H75.9805V11.2207H76.4005Z" fill="black"/>
<path d="M52.2989 24.9492V25.3692H51.8789V24.9492H52.2989ZM52.2989 26.2192V26.6392H51.8789V26.2192H52.2989Z" fill="black"/>
<path d="M54.8385 26.6392H53.9885V26.2192H53.5685V25.3692H53.1485V27.4792H52.7285V25.3692H53.1485V24.9492H54.8385V25.3692H55.2585V26.2192H54.8385V26.6392ZM54.8385 25.3692H53.9885V26.2192H54.8385V25.3692Z" fill="black"/>
<path d="M56.9497 24.9492V25.3692H57.3697V27.0592H56.9497V27.4792H55.6797V27.0592H56.9497V26.6392H56.0997V26.2192H55.6797V25.3692H56.0997V24.9492H56.9497ZM56.9497 26.2192V25.3692H56.0997V26.2192H56.9497Z" fill="black"/>
<path d="M59.0688 24.9492V25.3692H59.4888V26.2192H59.0688V26.6392H57.7988V26.2192H59.0688V25.3692H58.2188V24.9492H59.0688Z" fill="black"/>
<path d="M62.0181 26.6391V27.0591H61.5981V27.4791H60.748V27.0591H61.5981V25.3691H62.0181V26.2191H62.438V26.6391H62.0181Z" fill="black"/>
<path d="M64.139 24.9496V25.3696H64.559V26.2196H64.979V26.6396H62.439C62.299 26.4996 62.299 26.3596 62.439 26.2196H62.859V25.3696H63.279V24.9496H64.129H64.139ZM63.719 24.0996V24.5196H63.299V24.0996H63.719ZM64.139 26.2196V25.3696H63.289V26.2196H64.139Z" fill="black"/>
<path d="M65.8281 26.2195V25.3695H66.2481V26.2195H65.8281V26.6395H64.978C64.838 26.4995 64.838 26.3595 64.978 26.2195H65.8281ZM65.8281 24.5195V24.9395H65.4081V24.5195H65.8281Z" fill="black"/>
<path d="M68.7895 25.3695V27.0595H68.3695V27.4795H67.5195V27.0595H68.3695V25.3695H68.7895ZM68.7895 24.5195V24.9395H68.3695V24.5195H68.7895Z" fill="black"/>
<path d="M69.629 26.6397V26.2197H69.209V23.6797H69.629V26.2197H70.049V26.6397H69.629Z" fill="black"/>
<path d="M70.0587 27.0591V27.4791H69.6387V27.0591H70.0587ZM70.8987 26.2191V25.3691H71.3187V26.2191H71.7387V26.6391H70.0487C69.9087 26.4991 69.9087 26.3591 70.0487 26.2191H70.8987ZM70.8987 27.0591V27.4791H70.4787V27.0591H70.8987Z" fill="black"/>
<path d="M72.5898 26.2195V25.3695H73.0098V26.2195H73.4298V26.6395H71.7398C71.5998 26.4995 71.5998 26.3595 71.7398 26.2195H72.5898ZM72.1698 24.5195V24.9395H71.7498V24.5195H72.1698ZM73.0198 24.5195V24.9395H72.5998V24.5195H73.0198Z" fill="black"/>
<path d="M75.129 26.6392H73.439C73.299 26.4992 73.299 26.3592 73.439 26.2192H73.859V25.3692H74.279V24.9492H75.129V25.3692H75.549V26.2192H75.129V26.6392ZM75.129 25.3692H74.279V26.2192H75.129V25.3692Z" fill="black"/>
<path d="M76.3985 23.6797V26.6397H75.9785V23.6797H76.3985Z" fill="black"/>
<path d="M51.4591 37.3984V37.8184H51.0391V37.3984H51.4591ZM51.4591 38.6684V39.0884H51.0391V38.6684H51.4591Z" fill="black"/>
<path d="M53.9889 39.0884H53.1389V38.6684H52.7189V37.8184H52.2989V39.9284H51.8789V37.8184H52.2989V37.3984H53.9889V37.8184H54.4089V38.6684H53.9889V39.0884ZM53.9889 37.8184H53.1389V38.6684H53.9889V37.8184Z" fill="black"/>
<path d="M56.1098 37.3984V37.8184H56.5298V38.6684H56.9498V39.0884H56.5298V39.5084H56.1098V39.9284H54.8398V39.5084H56.1098V39.0884H55.2599V38.6684H54.8398V37.8184H55.2599V37.3984H56.1098ZM56.1098 38.6684V37.8184H55.2599V38.6684H56.1098Z" fill="black"/>
<path d="M59.0685 38.6684V37.8184H59.4885V38.6684H59.0685V39.0884H56.9585C56.8185 38.9484 56.8185 38.8084 56.9585 38.6684H57.3785V37.8184H57.7985V38.6684H58.2185V37.8184H58.6385V38.6684H59.0585H59.0685Z" fill="black"/>
<path d="M62.02 39.0884V39.5084H61.6V39.9284H60.75V39.5084H61.6V37.8184H62.02V38.6684H62.44V39.0884H62.02Z" fill="black"/>
<path d="M64.139 37.3986V37.8186H64.559V38.6686H64.979V39.0886H62.439C62.299 38.9486 62.299 38.8086 62.439 38.6686H62.859V37.8186H63.279V37.3986H64.129H64.139ZM63.719 36.5586V36.9786H63.299V36.5586H63.719ZM64.139 38.6686V37.8186H63.289V38.6686H64.139Z" fill="black"/>
<path d="M65.83 38.6685V37.8185H66.25V38.6685H65.83V39.0885H64.98C64.84 38.9485 64.84 38.8085 64.98 38.6685H65.83ZM65.83 36.9785V37.3985H65.41V36.9785H65.83Z" fill="black"/>
<path d="M68.7895 37.8185V39.5085H68.3695V39.9285H67.5195V39.5085H68.3695V37.8185H68.7895ZM68.7895 36.9785V37.3985H68.3695V36.9785H68.7895Z" fill="black"/>
<path d="M69.629 39.0889V38.6689H69.209V36.1289H69.629V38.6689H70.049V39.0889H69.629Z" fill="black"/>
<path d="M70.0587 39.5184V39.9384H69.6387V39.5184H70.0587ZM70.8987 38.6684V37.8184H71.3187V38.6684H71.7387V39.0884H70.0487C69.9087 38.9484 69.9087 38.8084 70.0487 38.6684H70.8987ZM70.8987 39.5184V39.9384H70.4787V39.5184H70.8987Z" fill="black"/>
<path d="M72.5898 38.6685V37.8185H73.0098V38.6685H73.4298V39.0885H71.7398C71.5998 38.9485 71.5998 38.8085 71.7398 38.6685H72.5898ZM72.1698 36.9785V37.3985H71.7498V36.9785H72.1698ZM73.0198 36.9785V37.3985H72.5998V36.9785H73.0198Z" fill="black"/>
<path d="M75.129 39.0884H73.439C73.299 38.9484 73.299 38.8084 73.439 38.6684H73.859V37.8184H74.279V37.3984H75.129V37.8184H75.549V38.6684H75.129V39.0884ZM75.129 37.8184H74.279V38.6684H75.129V37.8184Z" fill="black"/>
<path d="M76.3985 36.1289V39.0889H75.9785V36.1289H76.3985Z" fill="black"/>
<defs>
<linearGradient id="paint0_linear_10360_5" x1="7" y1="13.03" x2="91.19" y2="13.03" gradientUnits="userSpaceOnUse">
<stop stop-color="#7D7D7D"/>
<stop offset="0.23" stop-color="#878787"/>
<stop offset="0.62" stop-color="#A4A4A4"/>
<stop offset="1" stop-color="#C6C6C6"/>
</linearGradient>
<linearGradient id="paint1_linear_10360_5" x1="-120.56" y1="25.8894" x2="-119.56" y2="25.8894" gradientUnits="userSpaceOnUse">
<stop stop-color="#7D7D7D"/>
<stop offset="0.23" stop-color="#878787"/>
<stop offset="0.62" stop-color="#A4A4A4"/>
<stop offset="1" stop-color="#C6C6C6"/>
</linearGradient>
<linearGradient id="paint2_linear_10360_5" x1="-120.56" y1="38.7507" x2="-119.56" y2="38.7507" gradientUnits="userSpaceOnUse">
<stop stop-color="#7D7D7D"/>
<stop offset="0.23" stop-color="#878787"/>
<stop offset="0.62" stop-color="#A4A4A4"/>
<stop offset="1" stop-color="#C6C6C6"/>
</linearGradient>
</defs>
</svg>
