<svg width="113" height="71" viewBox="0 0 113 71" fill="none" xmlns="http://www.w3.org/2000/svg">
<path d="M72.6505 67.4199H70.0605V70.0199H72.6505V67.4199Z" fill="#E1E1E1"/>
<path d="M72.6505 64.8301H70.0605V67.4201H72.6505V64.8301Z" fill="#E1E1E1"/>
<path d="M72.6505 62.2305H70.0605V64.8205H72.6505V62.2305Z" fill="#E1E1E1"/>
<path d="M72.6505 59.6406H70.0605V62.2406H72.6505V59.6406Z" fill="#E1E1E1"/>
<path d="M72.6505 57.0391H70.0605V59.6291H72.6505V57.0391Z" fill="#E1E1E1"/>
<path d="M72.6505 54.4492H70.0605V57.0392H72.6505V54.4492Z" fill="#E1E1E1"/>
<path d="M72.6505 51.8496H70.0605V54.4496H72.6505V51.8496Z" fill="#E1E1E1"/>
<path d="M72.6505 49.2598H70.0605V51.8498H72.6505V49.2598Z" fill="#E1E1E1"/>
<path d="M72.6505 46.6699H70.0605V49.2599H72.6505V46.6699Z" fill="#E1E1E1"/>
<path d="M72.6505 44.0703H70.0605V46.6703H72.6505V44.0703Z" fill="#E1E1E1"/>
<path d="M72.6505 41.4805H70.0605V44.0705H72.6505V41.4805Z" fill="#E1E1E1"/>
<path d="M72.6505 38.8809H70.0605V41.4709H72.6505V38.8809Z" fill="#E1E1E1"/>
<path d="M72.6505 36.2891H70.0605V38.8891H72.6505V36.2891Z" fill="#E1E1E1"/>
<path d="M72.6505 33.6895H70.0605V36.2794H72.6505V33.6895Z" fill="#E1E1E1"/>
<path d="M72.6505 31.0996H70.0605V33.6896H72.6505V31.0996Z" fill="#E1E1E1"/>
<path d="M72.6505 28.5H70.0605V31.1H72.6505V28.5Z" fill="#E1E1E1"/>
<path d="M72.6505 25.9102H70.0605V28.5002H72.6505V25.9102Z" fill="#E1E1E1"/>
<path d="M72.6505 23.3105H70.0605V25.9006H72.6505V23.3105Z" fill="#E1E1E1"/>
<path d="M72.6505 20.7207H70.0605V23.3207H72.6505V20.7207Z" fill="#E1E1E1"/>
<path d="M72.6505 18.1191H70.0605V20.7091H72.6505V18.1191Z" fill="#E1E1E1"/>
<path d="M72.6505 15.5293H70.0605V18.1193H72.6505V15.5293Z" fill="#E1E1E1"/>
<path d="M72.6505 12.9297H70.0605V15.5297H72.6505V12.9297Z" fill="#E1E1E1"/>
<path d="M70.0609 67.4199H67.4609V70.0199H70.0609V67.4199Z" fill="#C0BFBF"/>
<path d="M70.0609 64.8301H67.4609V67.4201H70.0609V64.8301Z" fill="#C0BFBF"/>
<path d="M70.0609 62.2305H67.4609V64.8205H70.0609V62.2305Z" fill="#C0BFBF"/>
<path d="M70.0609 59.6406H67.4609V62.2406H70.0609V59.6406Z" fill="#C0BFBF"/>
<path d="M70.0609 57.0391H67.4609V59.6291H70.0609V57.0391Z" fill="#C0BFBF"/>
<path d="M70.0609 54.4492H67.4609V57.0392H70.0609V54.4492Z" fill="#C0BFBF"/>
<path d="M70.0609 51.8496H67.4609V54.4496H70.0609V51.8496Z" fill="#C0BFBF"/>
<path d="M70.0609 49.2598H67.4609V51.8498H70.0609V49.2598Z" fill="#C0BFBF"/>
<path d="M70.0609 46.6699H67.4609V49.2599H70.0609V46.6699Z" fill="#C0BFBF"/>
<path d="M70.0609 44.0703H67.4609V46.6703H70.0609V44.0703Z" fill="#C0BFBF"/>
<path d="M70.0609 41.4805H67.4609V44.0705H70.0609V41.4805Z" fill="#C0BFBF"/>
<path d="M70.0609 38.8809H67.4609V41.4709H70.0609V38.8809Z" fill="#C0BFBF"/>
<path d="M70.0609 36.2891H67.4609V38.8891H70.0609V36.2891Z" fill="#C0BFBF"/>
<path d="M70.0609 33.6895H67.4609V36.2794H70.0609V33.6895Z" fill="#C0BFBF"/>
<path d="M70.0609 31.0996H67.4609V33.6896H70.0609V31.0996Z" fill="#C0BFBF"/>
<path d="M70.0609 28.5H67.4609V31.1H70.0609V28.5Z" fill="#C0BFBF"/>
<path d="M70.0609 25.9102H67.4609V28.5002H70.0609V25.9102Z" fill="#C0BFBF"/>
<path d="M70.0609 23.3105H67.4609V25.9006H70.0609V23.3105Z" fill="#C0BFBF"/>
<path d="M70.0609 20.7207H67.4609V23.3207H70.0609V20.7207Z" fill="#C0BFBF"/>
<path d="M70.0609 18.1191H67.4609V20.7091H70.0609V18.1191Z" fill="#C0BFBF"/>
<path d="M70.0609 15.5293H67.4609V18.1193H70.0609V15.5293Z" fill="#E1E1E1"/>
<path d="M67.4591 67.4199H64.8691V70.0199H67.4591V67.4199Z" fill="#C0BFBF"/>
<path d="M67.4591 64.8301H64.8691V67.4201H67.4591V64.8301Z" fill="#C0BFBF"/>
<path d="M67.4591 62.2305H64.8691V64.8205H67.4591V62.2305Z" fill="#C0BFBF"/>
<path d="M67.4591 59.6406H64.8691V62.2406H67.4591V59.6406Z" fill="#C0BFBF"/>
<path d="M67.4591 57.0391H64.8691V59.6291H67.4591V57.0391Z" fill="#C0BFBF"/>
<path d="M67.4591 54.4492H64.8691V57.0392H67.4591V54.4492Z" fill="#C0BFBF"/>
<path d="M67.4591 51.8496H64.8691V54.4496H67.4591V51.8496Z" fill="#C0BFBF"/>
<path d="M67.4591 49.2598H64.8691V51.8498H67.4591V49.2598Z" fill="#C0BFBF"/>
<path d="M67.4591 46.6699H64.8691V49.2599H67.4591V46.6699Z" fill="#C0BFBF"/>
<path d="M67.4591 44.0703H64.8691V46.6703H67.4591V44.0703Z" fill="#C0BFBF"/>
<path d="M67.4591 41.4805H64.8691V44.0705H67.4591V41.4805Z" fill="#C0BFBF"/>
<path d="M67.4591 38.8809H64.8691V41.4709H67.4591V38.8809Z" fill="#C0BFBF"/>
<path d="M67.4591 36.2891H64.8691V38.8891H67.4591V36.2891Z" fill="#C0BFBF"/>
<path d="M67.4591 33.6895H64.8691V36.2794H67.4591V33.6895Z" fill="#C0BFBF"/>
<path d="M67.4591 31.0996H64.8691V33.6896H67.4591V31.0996Z" fill="#C0BFBF"/>
<path d="M67.4591 28.5H64.8691V31.1H67.4591V28.5Z" fill="#C0BFBF"/>
<path d="M67.4591 25.9102H64.8691V28.5002H67.4591V25.9102Z" fill="#C0BFBF"/>
<path d="M67.4591 23.3105H64.8691V25.9006H67.4591V23.3105Z" fill="#C0BFBF"/>
<path d="M67.4591 20.7207H64.8691V23.3207H67.4591V20.7207Z" fill="#C0BFBF"/>
<path d="M67.4591 18.1191H64.8691V20.7091H67.4591V18.1191Z" fill="#C0BFBF"/>
<path d="M67.4591 15.5293H64.8691V18.1193H67.4591V15.5293Z" fill="#E1E1E1"/>
<path d="M64.8693 15.5293H62.2793V18.1193H64.8693V15.5293Z" fill="#E1E1E1"/>
<path d="M62.2797 15.5293H59.6797V18.1193H62.2797V15.5293Z" fill="#E1E1E1"/>
<path d="M59.6798 15.5293H57.0898V18.1193H59.6798V15.5293Z" fill="#E1E1E1"/>
<path d="M57.0802 15.5293H54.4902V18.1193H57.0802V15.5293Z" fill="#E1E1E1"/>
<path d="M54.5004 15.5293H51.9004V18.1193H54.5004V15.5293Z" fill="#E1E1E1"/>
<path d="M51.8908 15.5293H49.3008V18.1193H51.8908V15.5293Z" fill="#E1E1E1"/>
<path d="M49.3009 15.5293H46.7109V18.1193H49.3009V15.5293Z" fill="#E1E1E1"/>
<path d="M46.7094 15.5293H44.1094V18.1193H46.7094V15.5293Z" fill="#E1E1E1"/>
<path d="M44.1095 15.5293H41.5195V18.1193H44.1095V15.5293Z" fill="#E1E1E1"/>
<path d="M41.5099 15.5293H38.9199V18.1193H41.5099V15.5293Z" fill="#E1E1E1"/>
<path d="M70.059 12.9297H67.459V15.5297H70.059V12.9297Z" fill="#565252"/>
<path d="M70.059 10.3398H67.459V12.9298H70.059V10.3398Z" fill="#565252"/>
<path d="M70.059 7.74023H67.459V10.3302H70.059V7.74023Z" fill="#565252"/>
<path d="M67.4591 12.9297H64.8691V15.5297H67.4591V12.9297Z" fill="#565252"/>
<path d="M67.4591 10.3398H64.8691V12.9298H67.4591V10.3398Z" fill="#9C9B9B"/>
<path d="M67.4591 7.74023H64.8691V10.3302H67.4591V7.74023Z" fill="#9C9B9B"/>
<path d="M64.8693 12.9297H62.2793V15.5297H64.8693V12.9297Z" fill="#565252"/>
<path d="M64.8693 10.3398H62.2793V12.9298H64.8693V10.3398Z" fill="#9C9B9B"/>
<path d="M64.8693 7.74023H62.2793V10.3302H64.8693V7.74023Z" fill="#9C9B9B"/>
<path d="M62.2797 12.9297H59.6797V15.5297H62.2797V12.9297Z" fill="#565252"/>
<path d="M62.2797 10.3398H59.6797V12.9298H62.2797V10.3398Z" fill="#9C9B9B"/>
<path d="M62.2797 7.74023H59.6797V10.3302H62.2797V7.74023Z" fill="#9C9B9B"/>
<path d="M59.6798 12.9297H57.0898V15.5297H59.6798V12.9297Z" fill="#565252"/>
<path d="M59.6798 10.3398H57.0898V12.9298H59.6798V10.3398Z" fill="#9C9B9B"/>
<path d="M59.6798 7.74023H57.0898V10.3302H59.6798V7.74023Z" fill="#9C9B9B"/>
<path d="M57.0802 12.9297H54.4902V15.5297H57.0802V12.9297Z" fill="#565252"/>
<path d="M57.0802 10.3398H54.4902V12.9298H57.0802V10.3398Z" fill="#9C9B9B"/>
<path d="M57.0802 7.74023H54.4902V10.3302H57.0802V7.74023Z" fill="#9C9B9B"/>
<path d="M54.5004 12.9297H51.9004V15.5297H54.5004V12.9297Z" fill="#565252"/>
<path d="M54.5004 10.3398H51.9004V12.9298H54.5004V10.3398Z" fill="#9C9B9B"/>
<path d="M54.5004 7.74023H51.9004V10.3302H54.5004V7.74023Z" fill="#9C9B9B"/>
<path d="M51.8908 12.9297H49.3008V15.5297H51.8908V12.9297Z" fill="#565252"/>
<path d="M51.8908 10.3398H49.3008V12.9298H51.8908V10.3398Z" fill="#9C9B9B"/>
<path d="M51.8908 7.74023H49.3008V10.3302H51.8908V7.74023Z" fill="#9C9B9B"/>
<path d="M49.299 12.9297H46.709V15.5297H49.299V12.9297Z" fill="#565252"/>
<path d="M49.299 10.3398H46.709V12.9298H49.299V10.3398Z" fill="#9C9B9B"/>
<path d="M49.299 7.74023H46.709V10.3302H49.299V7.74023Z" fill="#9C9B9B"/>
<path d="M46.7094 12.9297H44.1094V15.5297H46.7094V12.9297Z" fill="#565252"/>
<path d="M46.7094 10.3398H44.1094V12.9298H46.7094V10.3398Z" fill="#9C9B9B"/>
<path d="M46.7094 7.74023H44.1094V10.3302H46.7094V7.74023Z" fill="#9C9B9B"/>
<path d="M44.1095 12.9297H41.5195V15.5297H44.1095V12.9297Z" fill="#565252"/>
<path d="M44.1095 10.3398H41.5195V12.9298H44.1095V10.3398Z" fill="#9C9B9B"/>
<path d="M44.1095 7.74023H41.5195V10.3302H44.1095V7.74023Z" fill="#9C9B9B"/>
<path d="M41.5099 12.9297H38.9199V15.5297H41.5099V12.9297Z" fill="#565252"/>
<path d="M41.5099 10.3398H38.9199V12.9298H41.5099V10.3398Z" fill="#565252"/>
<path d="M41.5099 7.74023H38.9199V10.3302H41.5099V7.74023Z" fill="#565252"/>
<path d="M70.059 5.18945H67.459V7.78946H70.059V5.18945Z" fill="#565252"/>
<path d="M70.059 2.58984H67.459V5.17984H70.059V2.58984Z" fill="#565252"/>
<path d="M70.059 0H67.459V2.59H70.059V0Z" fill="#565252"/>
<path d="M67.4591 5.18945H64.8691V7.78946H67.4591V5.18945Z" fill="#9C9B9B"/>
<path d="M67.4591 2.58984H64.8691V5.17984H67.4591V2.58984Z" fill="#9C9B9B"/>
<path d="M67.4591 0H64.8691V2.59H67.4591V0Z" fill="#565252"/>
<path d="M64.8693 5.18945H62.2793V7.78946H64.8693V5.18945Z" fill="#9C9B9B"/>
<path d="M64.8693 2.58984H62.2793V5.17984H64.8693V2.58984Z" fill="#9C9B9B"/>
<path d="M64.8693 0H62.2793V2.59H64.8693V0Z" fill="#565252"/>
<path d="M62.2797 5.18945H59.6797V7.78946H62.2797V5.18945Z" fill="#9C9B9B"/>
<path d="M62.2797 2.58984H59.6797V5.17984H62.2797V2.58984Z" fill="#9C9B9B"/>
<path d="M62.2797 0H59.6797V2.59H62.2797V0Z" fill="#565252"/>
<path d="M59.6798 5.18945H57.0898V7.78946H59.6798V5.18945Z" fill="#9C9B9B"/>
<path d="M59.6798 2.58984H57.0898V5.17984H59.6798V2.58984Z" fill="#9C9B9B"/>
<path d="M59.6798 0H57.0898V2.59H59.6798V0Z" fill="#565252"/>
<path d="M57.0802 5.18945H54.4902V7.78946H57.0802V5.18945Z" fill="#9C9B9B"/>
<path d="M57.0802 2.58984H54.4902V5.17984H57.0802V2.58984Z" fill="#9C9B9B"/>
<path d="M57.0802 0H54.4902V2.59H57.0802V0Z" fill="#565252"/>
<path d="M54.5004 5.18945H51.9004V7.78946H54.5004V5.18945Z" fill="#9C9B9B"/>
<path d="M54.5004 2.58984H51.9004V5.17984H54.5004V2.58984Z" fill="#9C9B9B"/>
<path d="M54.5004 0H51.9004V2.59H54.5004V0Z" fill="#565252"/>
<path d="M51.8908 5.18945H49.3008V7.78946H51.8908V5.18945Z" fill="#9C9B9B"/>
<path d="M51.8908 2.58984H49.3008V5.17984H51.8908V2.58984Z" fill="#9C9B9B"/>
<path d="M51.8908 0H49.3008V2.59H51.8908V0Z" fill="#565252"/>
<path d="M49.299 5.18945H46.709V7.78946H49.299V5.18945Z" fill="#9C9B9B"/>
<path d="M49.299 2.58984H46.709V5.17984H49.299V2.58984Z" fill="#9C9B9B"/>
<path d="M49.299 0H46.709V2.59H49.299V0Z" fill="#565252"/>
<path d="M46.7094 5.18945H44.1094V7.78946H46.7094V5.18945Z" fill="#9C9B9B"/>
<path d="M46.7094 2.58984H44.1094V5.17984H46.7094V2.58984Z" fill="#9C9B9B"/>
<path d="M46.7094 0H44.1094V2.59H46.7094V0Z" fill="#565252"/>
<path d="M44.1095 5.18945H41.5195V7.78946H44.1095V5.18945Z" fill="#9C9B9B"/>
<path d="M44.1095 2.58984H41.5195V5.17984H44.1095V2.58984Z" fill="#9C9B9B"/>
<path d="M44.1095 0H41.5195V2.59H44.1095V0Z" fill="#565252"/>
<path d="M41.5099 5.18945H38.9199V7.78946H41.5099V5.18945Z" fill="#565252"/>
<path d="M41.5099 2.58984H38.9199V5.17984H41.5099V2.58984Z" fill="#565252"/>
<path d="M41.5099 0H38.9199V2.59H41.5099V0Z" fill="#565252"/>
<path d="M38.9301 67.4199H36.3301V70.0199H38.9301V67.4199Z" fill="#E1E1E1"/>
<path d="M38.9301 64.8301H36.3301V67.4201H38.9301V64.8301Z" fill="#E1E1E1"/>
<path d="M38.9301 62.2305H36.3301V64.8205H38.9301V62.2305Z" fill="#E1E1E1"/>
<path d="M38.9301 59.6406H36.3301V62.2406H38.9301V59.6406Z" fill="#E1E1E1"/>
<path d="M38.9301 57.0391H36.3301V59.6291H38.9301V57.0391Z" fill="#E1E1E1"/>
<path d="M38.9301 54.4492H36.3301V57.0392H38.9301V54.4492Z" fill="#E1E1E1"/>
<path d="M38.9301 51.8496H36.3301V54.4496H38.9301V51.8496Z" fill="#E1E1E1"/>
<path d="M38.9301 49.2598H36.3301V51.8498H38.9301V49.2598Z" fill="#E1E1E1"/>
<path d="M38.9301 46.6699H36.3301V49.2599H38.9301V46.6699Z" fill="#E1E1E1"/>
<path d="M38.9301 44.0703H36.3301V46.6703H38.9301V44.0703Z" fill="#E1E1E1"/>
<path d="M38.9301 41.4805H36.3301V44.0705H38.9301V41.4805Z" fill="#E1E1E1"/>
<path d="M38.9301 38.8809H36.3301V41.4709H38.9301V38.8809Z" fill="#E1E1E1"/>
<path d="M38.9301 36.2891H36.3301V38.8891H38.9301V36.2891Z" fill="#E1E1E1"/>
<path d="M38.9301 33.6895H36.3301V36.2794H38.9301V33.6895Z" fill="#E1E1E1"/>
<path d="M38.9301 31.0996H36.3301V33.6896H38.9301V31.0996Z" fill="#E1E1E1"/>
<path d="M38.9301 28.5H36.3301V31.1H38.9301V28.5Z" fill="#E1E1E1"/>
<path d="M38.9301 25.9102H36.3301V28.5002H38.9301V25.9102Z" fill="#E1E1E1"/>
<path d="M38.9301 23.3105H36.3301V25.9006H38.9301V23.3105Z" fill="#E1E1E1"/>
<path d="M38.9301 20.7207H36.3301V23.3207H38.9301V20.7207Z" fill="#E1E1E1"/>
<path d="M38.9301 18.1191H36.3301V20.7091H38.9301V18.1191Z" fill="#E1E1E1"/>
<path d="M38.9301 15.5293H36.3301V18.1193H38.9301V15.5293Z" fill="#E1E1E1"/>
<path d="M38.9301 12.9297H36.3301V15.5297H38.9301V12.9297Z" fill="#E1E1E1"/>
<path d="M36.3205 67.4199H33.7305V70.0199H36.3205V67.4199Z" fill="#C0BFBF"/>
<path d="M36.3205 64.8301H33.7305V67.4201H36.3205V64.8301Z" fill="#C0BFBF"/>
<path d="M36.3205 62.2305H33.7305V64.8205H36.3205V62.2305Z" fill="#C0BFBF"/>
<path d="M36.3205 59.6406H33.7305V62.2406H36.3205V59.6406Z" fill="#C0BFBF"/>
<path d="M36.3205 57.0391H33.7305V59.6291H36.3205V57.0391Z" fill="#C0BFBF"/>
<path d="M36.3205 54.4492H33.7305V57.0392H36.3205V54.4492Z" fill="#C0BFBF"/>
<path d="M36.3205 51.8496H33.7305V54.4496H36.3205V51.8496Z" fill="#C0BFBF"/>
<path d="M36.3205 49.2598H33.7305V51.8498H36.3205V49.2598Z" fill="#C0BFBF"/>
<path d="M36.3205 46.6699H33.7305V49.2599H36.3205V46.6699Z" fill="#C0BFBF"/>
<path d="M36.3205 44.0703H33.7305V46.6703H36.3205V44.0703Z" fill="#C0BFBF"/>
<path d="M36.3205 41.4805H33.7305V44.0705H36.3205V41.4805Z" fill="#C0BFBF"/>
<path d="M36.3205 38.8809H33.7305V41.4709H36.3205V38.8809Z" fill="#C0BFBF"/>
<path d="M36.3205 36.2891H33.7305V38.8891H36.3205V36.2891Z" fill="#C0BFBF"/>
<path d="M36.3205 33.6895H33.7305V36.2794H36.3205V33.6895Z" fill="#C0BFBF"/>
<path d="M36.3205 31.0996H33.7305V33.6896H36.3205V31.0996Z" fill="#C0BFBF"/>
<path d="M36.3205 28.5H33.7305V31.1H36.3205V28.5Z" fill="#C0BFBF"/>
<path d="M36.3205 25.9102H33.7305V28.5002H36.3205V25.9102Z" fill="#C0BFBF"/>
<path d="M36.3205 23.3105H33.7305V25.9006H36.3205V23.3105Z" fill="#C0BFBF"/>
<path d="M36.3205 20.7207H33.7305V23.3207H36.3205V20.7207Z" fill="#C0BFBF"/>
<path d="M36.3205 18.1191H33.7305V20.7091H36.3205V18.1191Z" fill="#C0BFBF"/>
<path d="M36.3205 15.5293H33.7305V18.1193H36.3205V15.5293Z" fill="#C0BFBF"/>
<path d="M36.3205 12.9297H33.7305V15.5297H36.3205V12.9297Z" fill="#C0BFBF"/>
<path d="M33.7306 67.4199H31.1406V70.0199H33.7306V67.4199Z" fill="#C0BFBF"/>
<path d="M33.7306 64.8301H31.1406V67.4201H33.7306V64.8301Z" fill="#C0BFBF"/>
<path d="M33.7306 62.2305H31.1406V64.8205H33.7306V62.2305Z" fill="#C0BFBF"/>
<path d="M33.7306 59.6406H31.1406V62.2406H33.7306V59.6406Z" fill="#C0BFBF"/>
<path d="M33.7306 57.0391H31.1406V59.6291H33.7306V57.0391Z" fill="#C0BFBF"/>
<path d="M33.7306 54.4492H31.1406V57.0392H33.7306V54.4492Z" fill="#C0BFBF"/>
<path d="M33.7306 51.8496H31.1406V54.4496H33.7306V51.8496Z" fill="#C0BFBF"/>
<path d="M33.7306 49.2598H31.1406V51.8498H33.7306V49.2598Z" fill="#C0BFBF"/>
<path d="M33.7306 46.6699H31.1406V49.2599H33.7306V46.6699Z" fill="#C0BFBF"/>
<path d="M33.7306 44.0703H31.1406V46.6703H33.7306V44.0703Z" fill="#C0BFBF"/>
<path d="M33.7306 41.4805H31.1406V44.0705H33.7306V41.4805Z" fill="#C0BFBF"/>
<path d="M33.7306 38.8809H31.1406V41.4709H33.7306V38.8809Z" fill="#C0BFBF"/>
<path d="M33.7306 36.2891H31.1406V38.8891H33.7306V36.2891Z" fill="#C0BFBF"/>
<path d="M33.7306 33.6895H31.1406V36.2794H33.7306V33.6895Z" fill="#C0BFBF"/>
<path d="M33.7306 31.0996H31.1406V33.6896H33.7306V31.0996Z" fill="#C0BFBF"/>
<path d="M33.7306 28.5H31.1406V31.1H33.7306V28.5Z" fill="#C0BFBF"/>
<path d="M33.7306 25.9102H31.1406V28.5002H33.7306V25.9102Z" fill="#C0BFBF"/>
<path d="M33.7306 23.3105H31.1406V25.9006H33.7306V23.3105Z" fill="#C0BFBF"/>
<path d="M33.7306 20.7207H31.1406V23.3207H33.7306V20.7207Z" fill="#C0BFBF"/>
<path d="M33.7306 18.1191H31.1406V20.7091H33.7306V18.1191Z" fill="#C0BFBF"/>
<path d="M33.7306 15.5293H31.1406V18.1193H33.7306V15.5293Z" fill="#C0BFBF"/>
<path d="M33.7306 12.9297H31.1406V15.5297H33.7306V12.9297Z" fill="#C0BFBF"/>
<path d="M28.5392 67.4199H25.9492V70.0199H28.5392V67.4199Z" fill="#E1E1E1"/>
<path d="M28.5392 64.8301H25.9492V67.4201H28.5392V64.8301Z" fill="#E1E1E1"/>
<path d="M28.5392 62.2305H25.9492V64.8205H28.5392V62.2305Z" fill="#E1E1E1"/>
<path d="M28.5392 59.6406H25.9492V62.2406H28.5392V59.6406Z" fill="#E1E1E1"/>
<path d="M28.5392 57.0391H25.9492V59.6291H28.5392V57.0391Z" fill="#E1E1E1"/>
<path d="M28.5392 54.4492H25.9492V57.0392H28.5392V54.4492Z" fill="#E1E1E1"/>
<path d="M28.5392 51.8496H25.9492V54.4496H28.5392V51.8496Z" fill="#E1E1E1"/>
<path d="M28.5392 49.2598H25.9492V51.8498H28.5392V49.2598Z" fill="#E1E1E1"/>
<path d="M28.5392 46.6699H25.9492V49.2599H28.5392V46.6699Z" fill="#E1E1E1"/>
<path d="M28.5392 41.4805H25.9492V44.0705H28.5392V41.4805Z" fill="#CAC9C9"/>
<path d="M28.5392 38.8809H25.9492V41.4709H28.5392V38.8809Z" fill="#CAC9C9"/>
<path d="M28.5392 36.2891H25.9492V38.8891H28.5392V36.2891Z" fill="#CAC9C9"/>
<path d="M28.5392 33.6895H25.9492V36.2794H28.5392V33.6895Z" fill="#CAC9C9"/>
<path d="M28.5392 31.0996H25.9492V33.6896H28.5392V31.0996Z" fill="#CAC9C9"/>
<path d="M28.5392 28.5H25.9492V31.1H28.5392V28.5Z" fill="#CAC9C9"/>
<path d="M25.9396 67.4199H23.3496V70.0199H25.9396V67.4199Z" fill="#E1E1E1"/>
<path d="M25.9396 64.8301H23.3496V67.4201H25.9396V64.8301Z" fill="#4C4C4B"/>
<path d="M25.9396 62.2305H23.3496V64.8205H25.9396V62.2305Z" fill="#4C4C4B"/>
<path d="M25.9396 59.6406H23.3496V62.2406H25.9396V59.6406Z" fill="#4C4C4B"/>
<path d="M25.9396 57.0391H23.3496V59.6291H25.9396V57.0391Z" fill="#4C4C4B"/>
<path d="M25.9396 54.4492H23.3496V57.0392H25.9396V54.4492Z" fill="#4C4C4B"/>
<path d="M25.9396 51.8496H23.3496V54.4496H25.9396V51.8496Z" fill="#4C4C4B"/>
<path d="M25.9396 49.2598H23.3496V51.8498H25.9396V49.2598Z" fill="#4C4C4B"/>
<path d="M25.9396 46.6699H23.3496V49.2599H25.9396V46.6699Z" fill="#E1E1E1"/>
<path d="M25.9396 41.4805H23.3496V44.0705H25.9396V41.4805Z" fill="#CAC9C9"/>
<path d="M25.9396 38.8809H23.3496V41.4709H25.9396V38.8809Z" fill="#64C6F2"/>
<path d="M25.9396 36.2891H23.3496V38.8891H25.9396V36.2891Z" fill="#9BD7F6"/>
<path d="M25.9396 33.6895H23.3496V36.2794H25.9396V33.6895Z" fill="#D8EEFC"/>
<path d="M25.9396 31.0996H23.3496V33.6896H25.9396V31.0996Z" fill="#64C6F2"/>
<path d="M25.9396 28.5H23.3496V31.1H25.9396V28.5Z" fill="#CAC9C9"/>
<path d="M23.3597 67.4199H20.7598V70.0199H23.3597V67.4199Z" fill="#E1E1E1"/>
<path d="M23.3597 64.8301H20.7598V67.4201H23.3597V64.8301Z" fill="#6A6A6A"/>
<path d="M23.3597 62.2305H20.7598V64.8205H23.3597V62.2305Z" fill="#6A6A6A"/>
<path d="M23.3597 59.6406H20.7598V62.2406H23.3597V59.6406Z" fill="#6A6A6A"/>
<path d="M23.3597 57.0391H20.7598V59.6291H23.3597V57.0391Z" fill="#6A6A6A"/>
<path d="M23.3597 54.4492H20.7598V57.0392H23.3597V54.4492Z" fill="#6A6A6A"/>
<path d="M23.3597 51.8496H20.7598V54.4496H23.3597V51.8496Z" fill="#6A6A6A"/>
<path d="M23.3597 49.2598H20.7598V51.8498H23.3597V49.2598Z" fill="#6A6A6A"/>
<path d="M23.3597 46.6699H20.7598V49.2599H23.3597V46.6699Z" fill="#E1E1E1"/>
<path d="M23.3597 41.4805H20.7598V44.0705H23.3597V41.4805Z" fill="#CAC9C9"/>
<path d="M23.3597 38.8809H20.7598V41.4709H23.3597V38.8809Z" fill="#9BD7F6"/>
<path d="M23.3597 36.2891H20.7598V38.8891H23.3597V36.2891Z" fill="#D8EEFC"/>
<path d="M23.3597 33.6895H20.7598V36.2794H23.3597V33.6895Z" fill="#64C6F2"/>
<path d="M23.3597 31.0996H20.7598V33.6896H23.3597V31.0996Z" fill="#9BD7F6"/>
<path d="M23.3597 28.5H20.7598V31.1H23.3597V28.5Z" fill="#CAC9C9"/>
<path d="M20.7502 67.4199H18.1602V70.0199H20.7502V67.4199Z" fill="#E1E1E1"/>
<path d="M20.7502 64.8301H18.1602V67.4201H20.7502V64.8301Z" fill="#4C4C4B"/>
<path d="M20.7502 62.2305H18.1602V64.8205H20.7502V62.2305Z" fill="#4C4C4B"/>
<path d="M20.7502 59.6406H18.1602V62.2406H20.7502V59.6406Z" fill="#4C4C4B"/>
<path d="M20.7502 57.0391H18.1602V59.6291H20.7502V57.0391Z" fill="#4C4C4B"/>
<path d="M20.7502 54.4492H18.1602V57.0392H20.7502V54.4492Z" fill="#4C4C4B"/>
<path d="M20.7502 51.8496H18.1602V54.4496H20.7502V51.8496Z" fill="#4C4C4B"/>
<path d="M20.7502 49.2598H18.1602V51.8498H20.7502V49.2598Z" fill="#4C4C4B"/>
<path d="M20.7502 46.6699H18.1602V49.2599H20.7502V46.6699Z" fill="#E1E1E1"/>
<path d="M20.7502 41.4805H18.1602V44.0705H20.7502V41.4805Z" fill="#CAC9C9"/>
<path d="M20.7502 38.8809H18.1602V41.4709H20.7502V38.8809Z" fill="#D8EEFC"/>
<path d="M20.7502 36.2891H18.1602V38.8891H20.7502V36.2891Z" fill="#64C6F2"/>
<path d="M20.7502 33.6895H18.1602V36.2794H20.7502V33.6895Z" fill="#9BD7F6"/>
<path d="M20.7502 31.0996H18.1602V33.6896H20.7502V31.0996Z" fill="#9BD7F6"/>
<path d="M20.7502 28.5H18.1602V31.1H20.7502V28.5Z" fill="#CAC9C9"/>
<path d="M18.1603 67.4199H15.5703V70.0199H18.1603V67.4199Z" fill="#E1E1E1"/>
<path d="M18.1603 64.8301H15.5703V67.4201H18.1603V64.8301Z" fill="#6A6A6A"/>
<path d="M18.1603 62.2305H15.5703V64.8205H18.1603V62.2305Z" fill="#6A6A6A"/>
<path d="M18.1603 59.6406H15.5703V62.2406H18.1603V59.6406Z" fill="#6A6A6A"/>
<path d="M18.1603 57.0391H15.5703V59.6291H18.1603V57.0391Z" fill="#6A6A6A"/>
<path d="M18.1603 54.4492H15.5703V57.0392H18.1603V54.4492Z" fill="#6A6A6A"/>
<path d="M18.1603 51.8496H15.5703V54.4496H18.1603V51.8496Z" fill="#6A6A6A"/>
<path d="M18.1603 49.2598H15.5703V51.8498H18.1603V49.2598Z" fill="#6A6A6A"/>
<path d="M18.1603 46.6699H15.5703V49.2599H18.1603V46.6699Z" fill="#E1E1E1"/>
<path d="M18.1603 44.0703H15.5703V46.6703H18.1603V44.0703Z" fill="#CAC9C9"/>
<path d="M18.1603 41.4805H15.5703V44.0705H18.1603V41.4805Z" fill="#CAC9C9"/>
<path d="M18.1603 38.8809H15.5703V41.4709H18.1603V38.8809Z" fill="#64C6F2"/>
<path d="M18.1603 36.2891H15.5703V38.8891H18.1603V36.2891Z" fill="#9BD7F6"/>
<path d="M18.1603 33.6895H15.5703V36.2794H18.1603V33.6895Z" fill="#9BD7F6"/>
<path d="M18.1603 31.0996H15.5703V33.6896H18.1603V31.0996Z" fill="#D8EEFC"/>
<path d="M18.1603 28.5H15.5703V31.1H18.1603V28.5Z" fill="#CAC9C9"/>
<path d="M15.5707 67.4199H12.9707V70.0199H15.5707V67.4199Z" fill="#E1E1E1"/>
<path d="M15.5707 64.8301H12.9707V67.4201H15.5707V64.8301Z" fill="#4C4C4B"/>
<path d="M15.5707 62.2305H12.9707V64.8205H15.5707V62.2305Z" fill="#4C4C4B"/>
<path d="M15.5707 59.6406H12.9707V62.2406H15.5707V59.6406Z" fill="#4C4C4B"/>
<path d="M15.5707 57.0391H12.9707V59.6291H15.5707V57.0391Z" fill="#4C4C4B"/>
<path d="M15.5707 54.4492H12.9707V57.0392H15.5707V54.4492Z" fill="#4C4C4B"/>
<path d="M15.5707 51.8496H12.9707V54.4496H15.5707V51.8496Z" fill="#4C4C4B"/>
<path d="M15.5707 49.2598H12.9707V51.8498H15.5707V49.2598Z" fill="#4C4C4B"/>
<path d="M15.5707 46.6699H12.9707V49.2599H15.5707V46.6699Z" fill="#E1E1E1"/>
<path d="M15.5707 41.4805H12.9707V44.0705H15.5707V41.4805Z" fill="#CAC9C9"/>
<path d="M15.5707 38.8809H12.9707V41.4709H15.5707V38.8809Z" fill="#9BD7F6"/>
<path d="M15.5707 36.2891H12.9707V38.8891H15.5707V36.2891Z" fill="#9BD7F6"/>
<path d="M15.5707 33.6895H12.9707V36.2794H15.5707V33.6895Z" fill="#D8EEFC"/>
<path d="M15.5707 31.0996H12.9707V33.6896H15.5707V31.0996Z" fill="#64C6F2"/>
<path d="M15.5707 28.5H12.9707V31.1H15.5707V28.5Z" fill="#CAC9C9"/>
<path d="M12.9709 67.4199H10.3809V70.0199H12.9709V67.4199Z" fill="#E1E1E1"/>
<path d="M12.9709 64.8301H10.3809V67.4201H12.9709V64.8301Z" fill="#6A6A6A"/>
<path d="M12.9709 62.2305H10.3809V64.8205H12.9709V62.2305Z" fill="#6A6A6A"/>
<path d="M12.9709 59.6406H10.3809V62.2406H12.9709V59.6406Z" fill="#6A6A6A"/>
<path d="M12.9709 57.0391H10.3809V59.6291H12.9709V57.0391Z" fill="#6A6A6A"/>
<path d="M12.9709 54.4492H10.3809V57.0392H12.9709V54.4492Z" fill="#6A6A6A"/>
<path d="M12.9709 51.8496H10.3809V54.4496H12.9709V51.8496Z" fill="#6A6A6A"/>
<path d="M12.9709 49.2598H10.3809V51.8498H12.9709V49.2598Z" fill="#6A6A6A"/>
<path d="M12.9709 46.6699H10.3809V49.2599H12.9709V46.6699Z" fill="#E1E1E1"/>
<path d="M12.9709 41.4805H10.3809V44.0705H12.9709V41.4805Z" fill="#CAC9C9"/>
<path d="M12.9709 38.8809H10.3809V41.4709H12.9709V38.8809Z" fill="#9BD7F6"/>
<path d="M12.9709 36.2891H10.3809V38.8891H12.9709V36.2891Z" fill="#D8EEFC"/>
<path d="M12.9709 33.6895H10.3809V36.2794H12.9709V33.6895Z" fill="#64C6F2"/>
<path d="M12.9709 31.0996H10.3809V33.6896H12.9709V31.0996Z" fill="#9BD7F6"/>
<path d="M12.9709 28.5H10.3809V31.1H12.9709V28.5Z" fill="#CAC9C9"/>
<path d="M10.3791 67.4199H7.78906V70.0199H10.3791V67.4199Z" fill="#E1E1E1"/>
<path d="M10.3791 64.8301H7.78906V67.4201H10.3791V64.8301Z" fill="#E1E1E1"/>
<path d="M10.3791 62.2305H7.78906V64.8205H10.3791V62.2305Z" fill="#E1E1E1"/>
<path d="M10.3791 59.6406H7.78906V62.2406H10.3791V59.6406Z" fill="#E1E1E1"/>
<path d="M10.3791 57.0391H7.78906V59.6291H10.3791V57.0391Z" fill="#E1E1E1"/>
<path d="M10.3791 54.4492H7.78906V57.0392H10.3791V54.4492Z" fill="#E1E1E1"/>
<path d="M10.3791 51.8496H7.78906V54.4496H10.3791V51.8496Z" fill="#E1E1E1"/>
<path d="M10.3791 49.2598H7.78906V51.8498H10.3791V49.2598Z" fill="#E1E1E1"/>
<path d="M10.3791 46.6699H7.78906V49.2599H10.3791V46.6699Z" fill="#E1E1E1"/>
<path d="M10.3791 41.4805H7.78906V44.0705H10.3791V41.4805Z" fill="#CAC9C9"/>
<path d="M10.3791 38.8809H7.78906V41.4709H10.3791V38.8809Z" fill="#D8EEFC"/>
<path d="M10.3791 36.2891H7.78906V38.8891H10.3791V36.2891Z" fill="#64C6F2"/>
<path d="M10.3791 33.6895H7.78906V36.2794H10.3791V33.6895Z" fill="#9BD7F6"/>
<path d="M10.3791 31.0996H7.78906V33.6896H10.3791V31.0996Z" fill="#64C6F2"/>
<path d="M10.3791 28.5H7.78906V31.1H10.3791V28.5Z" fill="#CAC9C9"/>
<path d="M7.78944 67.4199H5.18945V70.0199H7.78944V67.4199Z" fill="#C0BFBF"/>
<path d="M7.78944 64.8301H5.18945V67.4201H7.78944V64.8301Z" fill="#C0BFBF"/>
<path d="M7.78944 62.2305H5.18945V64.8205H7.78944V62.2305Z" fill="#C0BFBF"/>
<path d="M7.78944 59.6406H5.18945V62.2406H7.78944V59.6406Z" fill="#C0BFBF"/>
<path d="M7.78944 57.0391H5.18945V59.6291H7.78944V57.0391Z" fill="#C0BFBF"/>
<path d="M7.78944 54.4492H5.18945V57.0392H7.78944V54.4492Z" fill="#C0BFBF"/>
<path d="M7.78944 51.8496H5.18945V54.4496H7.78944V51.8496Z" fill="#C0BFBF"/>
<path d="M7.78944 49.2598H5.18945V51.8498H7.78944V49.2598Z" fill="#C0BFBF"/>
<path d="M7.78944 46.6699H5.18945V49.2599H7.78944V46.6699Z" fill="#C0BFBF"/>
<path d="M7.78944 41.4805H5.18945V44.0705H7.78944V41.4805Z" fill="#CAC9C9"/>
<path d="M7.78944 38.8809H5.18945V41.4709H7.78944V38.8809Z" fill="#CAC9C9"/>
<path d="M7.78944 36.2891H5.18945V38.8891H7.78944V36.2891Z" fill="#CAC9C9"/>
<path d="M7.78944 33.6895H5.18945V36.2794H7.78944V33.6895Z" fill="#CAC9C9"/>
<path d="M7.78944 31.0996H5.18945V33.6896H7.78944V31.0996Z" fill="#CAC9C9"/>
<path d="M7.78944 28.5H5.18945V31.1H7.78944V28.5Z" fill="#CAC9C9"/>
<path d="M5.17984 67.4199H2.58984V70.0199H5.17984V67.4199Z" fill="#C0BFBF"/>
<path d="M5.17984 64.8301H2.58984V67.4201H5.17984V64.8301Z" fill="#C0BFBF"/>
<path d="M5.17984 62.2305H2.58984V64.8205H5.17984V62.2305Z" fill="#C0BFBF"/>
<path d="M5.17984 59.6406H2.58984V62.2406H5.17984V59.6406Z" fill="#C0BFBF"/>
<path d="M5.17984 57.0391H2.58984V59.6291H5.17984V57.0391Z" fill="#C0BFBF"/>
<path d="M5.17984 54.4492H2.58984V57.0392H5.17984V54.4492Z" fill="#C0BFBF"/>
<path d="M5.17984 51.8496H2.58984V54.4496H5.17984V51.8496Z" fill="#C0BFBF"/>
<path d="M5.17984 49.2598H2.58984V51.8498H5.17984V49.2598Z" fill="#C0BFBF"/>
<path d="M5.17984 46.6699H2.58984V49.2599H5.17984V46.6699Z" fill="#C0BFBF"/>
<path d="M2.59 67.4199H0V70.0199H2.59V67.4199Z" fill="#C0BFBF"/>
<path d="M2.59 64.8301H0V67.4201H2.59V64.8301Z" fill="#C0BFBF"/>
<path d="M2.59 62.2305H0V64.8205H2.59V62.2305Z" fill="#C0BFBF"/>
<path d="M2.59 59.6406H0V62.2406H2.59V59.6406Z" fill="#C0BFBF"/>
<path d="M2.59 57.0391H0V59.6291H2.59V57.0391Z" fill="#C0BFBF"/>
<path d="M2.59 54.4492H0V57.0392H2.59V54.4492Z" fill="#C0BFBF"/>
<path d="M2.59 51.8496H0V54.4496H2.59V51.8496Z" fill="#C0BFBF"/>
<path d="M2.59 49.2598H0V51.8498H2.59V49.2598Z" fill="#C0BFBF"/>
<path d="M2.59 46.6699H0V49.2599H2.59V46.6699Z" fill="#C0BFBF"/>
<path d="M78.5591 45.959H77.2891V47.229H78.5591V45.959Z" fill="#C0BFBF"/>
<path d="M78.5591 44.6895H77.2891V45.9594H78.5591V44.6895Z" fill="#C0BFBF"/>
<path d="M79.8286 47.2305H78.5586V48.5005H79.8286V47.2305Z" fill="#E1E1E1"/>
<path d="M79.8286 45.959H78.5586V47.229H79.8286V45.959Z" fill="#C0BFBF"/>
<path d="M79.8286 44.6895H78.5586V45.9594H79.8286V44.6895Z" fill="#C0BFBF"/>
<path d="M81.0981 68.7793H79.8281V70.0493H81.0981V68.7793Z" fill="#C0BFBF"/>
<path d="M81.0981 67.5098H79.8281V68.7798H81.0981V67.5098Z" fill="#E1E1E1"/>
<path d="M81.0981 66.2402H79.8281V67.5102H81.0981V66.2402Z" fill="#E1E1E1"/>
<path d="M81.0981 64.9805H79.8281V66.2505H81.0981V64.9805Z" fill="#E1E1E1"/>
<path d="M81.0981 63.709H79.8281V64.979H81.0981V63.709Z" fill="#E1E1E1"/>
<path d="M81.0981 62.4395H79.8281V63.7094H81.0981V62.4395Z" fill="#E1E1E1"/>
<path d="M81.0981 61.1699H79.8281V62.4399H81.0981V61.1699Z" fill="#E1E1E1"/>
<path d="M81.0981 59.9004H79.8281V61.1704H81.0981V59.9004Z" fill="#E1E1E1"/>
<path d="M81.0981 58.6406H79.8281V59.9106H81.0981V58.6406Z" fill="#E1E1E1"/>
<path d="M81.0981 57.3691H79.8281V58.6391H81.0981V57.3691Z" fill="#E1E1E1"/>
<path d="M81.0981 56.0996H79.8281V57.3696H81.0981V56.0996Z" fill="#E1E1E1"/>
<path d="M81.0981 54.8301H79.8281V56.1001H81.0981V54.8301Z" fill="#E1E1E1"/>
<path d="M81.0981 53.5703H79.8281V54.8403H81.0981V53.5703Z" fill="#E1E1E1"/>
<path d="M81.0981 52.2988H79.8281V53.5688H81.0981V52.2988Z" fill="#E1E1E1"/>
<path d="M81.0981 51.0293H79.8281V52.2993H81.0981V51.0293Z" fill="#E1E1E1"/>
<path d="M81.0981 49.7598H79.8281V51.0298H81.0981V49.7598Z" fill="#E1E1E1"/>
<path d="M81.0981 48.4902H79.8281V49.7602H81.0981V48.4902Z" fill="#C0BFBF"/>
<path d="M81.0981 47.2305H79.8281V48.5005H81.0981V47.2305Z" fill="#E1E1E1"/>
<path d="M81.0981 45.959H79.8281V47.229H81.0981V45.959Z" fill="#C0BFBF"/>
<path d="M81.0981 44.6895H79.8281V45.9594H81.0981V44.6895Z" fill="#C0BFBF"/>
<path d="M82.3598 68.7793H81.0898V70.0493H82.3598V68.7793Z" fill="#C0BFBF"/>
<path d="M82.3598 67.5098H81.0898V68.7798H82.3598V67.5098Z" fill="#E1E1E1"/>
<path d="M82.3598 66.2402H81.0898V67.5102H82.3598V66.2402Z" fill="#E1E1E1"/>
<path d="M82.3598 64.9805H81.0898V66.2505H82.3598V64.9805Z" fill="#E1E1E1"/>
<path d="M82.3598 63.709H81.0898V64.979H82.3598V63.709Z" fill="#E1E1E1"/>
<path d="M82.3598 62.4395H81.0898V63.7094H82.3598V62.4395Z" fill="#E1E1E1"/>
<path d="M82.3598 61.1699H81.0898V62.4399H82.3598V61.1699Z" fill="#E1E1E1"/>
<path d="M82.3598 59.9004H81.0898V61.1704H82.3598V59.9004Z" fill="#E1E1E1"/>
<path d="M82.3598 58.6406H81.0898V59.9106H82.3598V58.6406Z" fill="#E1E1E1"/>
<path d="M82.3598 57.3691H81.0898V58.6391H82.3598V57.3691Z" fill="#E1E1E1"/>
<path d="M82.3598 56.0996H81.0898V57.3696H82.3598V56.0996Z" fill="#E1E1E1"/>
<path d="M82.3598 54.8301H81.0898V56.1001H82.3598V54.8301Z" fill="#E1E1E1"/>
<path d="M82.3598 53.5703H81.0898V54.8403H82.3598V53.5703Z" fill="#E1E1E1"/>
<path d="M82.3598 52.2988H81.0898V53.5688H82.3598V52.2988Z" fill="#E1E1E1"/>
<path d="M82.3598 51.0293H81.0898V52.2993H82.3598V51.0293Z" fill="#E1E1E1"/>
<path d="M82.3598 49.7598H81.0898V51.0298H82.3598V49.7598Z" fill="#E1E1E1"/>
<path d="M82.3598 48.4902H81.0898V49.7602H82.3598V48.4902Z" fill="#C0BFBF"/>
<path d="M82.3598 47.2305H81.0898V48.5005H82.3598V47.2305Z" fill="#E1E1E1"/>
<path d="M82.3598 45.959H81.0898V47.229H82.3598V45.959Z" fill="#C0BFBF"/>
<path d="M82.3598 44.6895H81.0898V45.9594H82.3598V44.6895Z" fill="#C0BFBF"/>
<path d="M83.6294 68.7793H82.3594V70.0493H83.6294V68.7793Z" fill="#C0BFBF"/>
<path d="M83.6294 67.5098H82.3594V68.7798H83.6294V67.5098Z" fill="#E1E1E1"/>
<path d="M83.6294 66.2402H82.3594V67.5102H83.6294V66.2402Z" fill="#E1E1E1"/>
<path d="M83.6294 64.9805H82.3594V66.2505H83.6294V64.9805Z" fill="#E1E1E1"/>
<path d="M83.6294 63.709H82.3594V64.979H83.6294V63.709Z" fill="#E1E1E1"/>
<path d="M83.6294 62.4395H82.3594V63.7094H83.6294V62.4395Z" fill="#E1E1E1"/>
<path d="M83.6294 61.1699H82.3594V62.4399H83.6294V61.1699Z" fill="#E1E1E1"/>
<path d="M83.6294 59.9004H82.3594V61.1704H83.6294V59.9004Z" fill="#E1E1E1"/>
<path d="M83.6294 58.6406H82.3594V59.9106H83.6294V58.6406Z" fill="#E1E1E1"/>
<path d="M83.6294 57.3691H82.3594V58.6391H83.6294V57.3691Z" fill="#E1E1E1"/>
<path d="M83.6294 56.0996H82.3594V57.3696H83.6294V56.0996Z" fill="#E1E1E1"/>
<path d="M83.6294 54.8301H82.3594V56.1001H83.6294V54.8301Z" fill="#E1E1E1"/>
<path d="M83.6294 53.5703H82.3594V54.8403H83.6294V53.5703Z" fill="#E1E1E1"/>
<path d="M83.6294 52.2988H82.3594V53.5688H83.6294V52.2988Z" fill="#E1E1E1"/>
<path d="M83.6294 51.0293H82.3594V52.2993H83.6294V51.0293Z" fill="#E1E1E1"/>
<path d="M83.6294 49.7598H82.3594V51.0298H83.6294V49.7598Z" fill="#E1E1E1"/>
<path d="M83.6294 48.4902H82.3594V49.7602H83.6294V48.4902Z" fill="#C0BFBF"/>
<path d="M83.6294 47.2305H82.3594V48.5005H83.6294V47.2305Z" fill="#E1E1E1"/>
<path d="M83.6294 45.959H82.3594V47.229H83.6294V45.959Z" fill="#C0BFBF"/>
<path d="M83.6294 44.6895H82.3594V45.9594H83.6294V44.6895Z" fill="#C0BFBF"/>
<path d="M84.8989 68.7793H83.6289V70.0493H84.8989V68.7793Z" fill="#C0BFBF"/>
<path d="M84.8989 67.5098H83.6289V68.7798H84.8989V67.5098Z" fill="#E1E1E1"/>
<path d="M84.8989 66.2402H83.6289V67.5102H84.8989V66.2402Z" fill="#E1E1E1"/>
<path d="M84.8989 64.9805H83.6289V66.2505H84.8989V64.9805Z" fill="#E1E1E1"/>
<path d="M84.8989 63.709H83.6289V64.979H84.8989V63.709Z" fill="#E1E1E1"/>
<path d="M84.8989 62.4395H83.6289V63.7094H84.8989V62.4395Z" fill="#E1E1E1"/>
<path d="M84.8989 61.1699H83.6289V62.4399H84.8989V61.1699Z" fill="#E1E1E1"/>
<path d="M84.8989 59.9004H83.6289V61.1704H84.8989V59.9004Z" fill="#E1E1E1"/>
<path d="M84.8989 58.6406H83.6289V59.9106H84.8989V58.6406Z" fill="#E1E1E1"/>
<path d="M84.8989 57.3691H83.6289V58.6391H84.8989V57.3691Z" fill="#E1E1E1"/>
<path d="M84.8989 56.0996H83.6289V57.3696H84.8989V56.0996Z" fill="#E1E1E1"/>
<path d="M84.8989 54.8301H83.6289V56.1001H84.8989V54.8301Z" fill="#E1E1E1"/>
<path d="M84.8989 53.5703H83.6289V54.8403H84.8989V53.5703Z" fill="#E1E1E1"/>
<path d="M84.8989 52.2988H83.6289V53.5688H84.8989V52.2988Z" fill="#E1E1E1"/>
<path d="M84.8989 51.0293H83.6289V52.2993H84.8989V51.0293Z" fill="#E1E1E1"/>
<path d="M84.8989 49.7598H83.6289V51.0298H84.8989V49.7598Z" fill="#E1E1E1"/>
<path d="M84.8989 48.4902H83.6289V49.7602H84.8989V48.4902Z" fill="#C0BFBF"/>
<path d="M84.8989 47.2305H83.6289V48.5005H84.8989V47.2305Z" fill="#E1E1E1"/>
<path d="M84.8989 45.959H83.6289V47.229H84.8989V45.959Z" fill="#C0BFBF"/>
<path d="M84.8989 44.6895H83.6289V45.9594H84.8989V44.6895Z" fill="#C0BFBF"/>
<path d="M84.8989 19.3301H83.6289V20.6001H84.8989V19.3301Z" fill="#1D1D1B"/>
<path d="M86.1684 68.7793H84.8984V70.0493H86.1684V68.7793Z" fill="#C0BFBF"/>
<path d="M86.1684 67.5098H84.8984V68.7798H86.1684V67.5098Z" fill="#E1E1E1"/>
<path d="M86.1684 66.2402H84.8984V67.5102H86.1684V66.2402Z" fill="#E1E1E1"/>
<path d="M86.1684 64.9805H84.8984V66.2505H86.1684V64.9805Z" fill="#E1E1E1"/>
<path d="M86.1684 63.709H84.8984V64.979H86.1684V63.709Z" fill="#E1E1E1"/>
<path d="M86.1684 62.4395H84.8984V63.7094H86.1684V62.4395Z" fill="#E1E1E1"/>
<path d="M86.1684 61.1699H84.8984V62.4399H86.1684V61.1699Z" fill="#E1E1E1"/>
<path d="M86.1684 59.9004H84.8984V61.1704H86.1684V59.9004Z" fill="#E1E1E1"/>
<path d="M86.1684 58.6406H84.8984V59.9106H86.1684V58.6406Z" fill="#E1E1E1"/>
<path d="M86.1684 57.3691H84.8984V58.6391H86.1684V57.3691Z" fill="#E1E1E1"/>
<path d="M86.1684 56.0996H84.8984V57.3696H86.1684V56.0996Z" fill="#E1E1E1"/>
<path d="M86.1684 54.8301H84.8984V56.1001H86.1684V54.8301Z" fill="#E1E1E1"/>
<path d="M86.1684 53.5703H84.8984V54.8403H86.1684V53.5703Z" fill="#E1E1E1"/>
<path d="M86.1684 52.2988H84.8984V53.5688H86.1684V52.2988Z" fill="#E1E1E1"/>
<path d="M86.1684 51.0293H84.8984V52.2993H86.1684V51.0293Z" fill="#E1E1E1"/>
<path d="M86.1684 49.7598H84.8984V51.0298H86.1684V49.7598Z" fill="#E1E1E1"/>
<path d="M86.1684 48.4902H84.8984V49.7602H86.1684V48.4902Z" fill="#C0BFBF"/>
<path d="M86.1684 47.2305H84.8984V48.5005H86.1684V47.2305Z" fill="#E1E1E1"/>
<path d="M86.1684 45.959H84.8984V47.229H86.1684V45.959Z" fill="#C0BFBF"/>
<path d="M86.1684 44.6895H84.8984V45.9594H86.1684V44.6895Z" fill="#C0BFBF"/>
<path d="M86.1684 19.3301H84.8984V20.6001H86.1684V19.3301Z" fill="#1D1D1B"/>
<path d="M87.4399 68.7793H86.1699V70.0493H87.4399V68.7793Z" fill="#C0BFBF"/>
<path d="M87.4399 67.5098H86.1699V68.7798H87.4399V67.5098Z" fill="#E1E1E1"/>
<path d="M87.4399 66.2402H86.1699V67.5102H87.4399V66.2402Z" fill="#E1E1E1"/>
<path d="M87.4399 64.9805H86.1699V66.2505H87.4399V64.9805Z" fill="#E1E1E1"/>
<path d="M87.4399 63.709H86.1699V64.979H87.4399V63.709Z" fill="#E1E1E1"/>
<path d="M87.4399 62.4395H86.1699V63.7094H87.4399V62.4395Z" fill="#E1E1E1"/>
<path d="M87.4399 61.1699H86.1699V62.4399H87.4399V61.1699Z" fill="#E1E1E1"/>
<path d="M87.4399 59.9004H86.1699V61.1704H87.4399V59.9004Z" fill="#E1E1E1"/>
<path d="M87.4399 58.6406H86.1699V59.9106H87.4399V58.6406Z" fill="#E1E1E1"/>
<path d="M87.4399 57.3691H86.1699V58.6391H87.4399V57.3691Z" fill="#E1E1E1"/>
<path d="M87.4399 56.0996H86.1699V57.3696H87.4399V56.0996Z" fill="#E1E1E1"/>
<path d="M87.4399 54.8301H86.1699V56.1001H87.4399V54.8301Z" fill="#E1E1E1"/>
<path d="M87.4399 53.5703H86.1699V54.8403H87.4399V53.5703Z" fill="#E1E1E1"/>
<path d="M87.4399 52.2988H86.1699V53.5688H87.4399V52.2988Z" fill="#E1E1E1"/>
<path d="M87.4399 51.0293H86.1699V52.2993H87.4399V51.0293Z" fill="#E1E1E1"/>
<path d="M87.4399 49.7598H86.1699V51.0298H87.4399V49.7598Z" fill="#E1E1E1"/>
<path d="M87.4399 48.4902H86.1699V49.7602H87.4399V48.4902Z" fill="#C0BFBF"/>
<path d="M87.4399 47.2305H86.1699V48.5005H87.4399V47.2305Z" fill="#E1E1E1"/>
<path d="M87.4399 45.959H86.1699V47.229H87.4399V45.959Z" fill="#C0BFBF"/>
<path d="M87.4399 44.6895H86.1699V45.9594H87.4399V44.6895Z" fill="#C0BFBF"/>
<path d="M87.4399 19.3301H86.1699V20.6001H87.4399V19.3301Z" fill="#1D1D1B"/>
<path d="M87.4399 14.2598H86.1699V15.5298H87.4399V14.2598Z" fill="#41556C"/>
<path d="M88.6997 68.7793H87.4297V70.0493H88.6997V68.7793Z" fill="#C0BFBF"/>
<path d="M88.6997 67.5098H87.4297V68.7798H88.6997V67.5098Z" fill="#E1E1E1"/>
<path d="M88.6997 66.2402H87.4297V67.5102H88.6997V66.2402Z" fill="#E1E1E1"/>
<path d="M88.6997 64.9805H87.4297V66.2505H88.6997V64.9805Z" fill="#E1E1E1"/>
<path d="M88.6997 63.709H87.4297V64.979H88.6997V63.709Z" fill="#E1E1E1"/>
<path d="M88.6997 62.4395H87.4297V63.7094H88.6997V62.4395Z" fill="#E1E1E1"/>
<path d="M88.6997 61.1699H87.4297V62.4399H88.6997V61.1699Z" fill="#E1E1E1"/>
<path d="M88.6997 59.9004H87.4297V61.1704H88.6997V59.9004Z" fill="#E1E1E1"/>
<path d="M88.6997 58.6406H87.4297V59.9106H88.6997V58.6406Z" fill="#E1E1E1"/>
<path d="M88.6997 57.3691H87.4297V58.6391H88.6997V57.3691Z" fill="#E1E1E1"/>
<path d="M88.6997 56.0996H87.4297V57.3696H88.6997V56.0996Z" fill="#E1E1E1"/>
<path d="M88.6997 54.8301H87.4297V56.1001H88.6997V54.8301Z" fill="#E1E1E1"/>
<path d="M88.6997 53.5703H87.4297V54.8403H88.6997V53.5703Z" fill="#E1E1E1"/>
<path d="M88.6997 52.2988H87.4297V53.5688H88.6997V52.2988Z" fill="#E1E1E1"/>
<path d="M88.6997 51.0293H87.4297V52.2993H88.6997V51.0293Z" fill="#E1E1E1"/>
<path d="M88.6997 49.7598H87.4297V51.0298H88.6997V49.7598Z" fill="#E1E1E1"/>
<path d="M88.6997 48.4902H87.4297V49.7602H88.6997V48.4902Z" fill="#C0BFBF"/>
<path d="M88.6997 47.2305H87.4297V48.5005H88.6997V47.2305Z" fill="#E1E1E1"/>
<path d="M88.6997 45.959H87.4297V47.229H88.6997V45.959Z" fill="#C0BFBF"/>
<path d="M88.6997 44.6895H87.4297V45.9594H88.6997V44.6895Z" fill="#C0BFBF"/>
<path d="M88.6997 43.4199H87.4297V44.6899H88.6997V43.4199Z" fill="#DAEFFC"/>
<path d="M88.6997 42.1504H87.4297V43.4204H88.6997V42.1504Z" fill="#DAEFFC"/>
<path d="M88.6997 40.8906H87.4297V42.1606H88.6997V40.8906Z" fill="#DAEFFC"/>
<path d="M88.6997 39.6191H87.4297V40.8891H88.6997V39.6191Z" fill="#DAEFFC"/>
<path d="M88.6997 38.3496H87.4297V39.6196H88.6997V38.3496Z" fill="#DAEFFC"/>
<path d="M88.6997 37.0801H87.4297V38.3501H88.6997V37.0801Z" fill="#DAEFFC"/>
<path d="M88.6997 35.8203H87.4297V37.0903H88.6997V35.8203Z" fill="#DAEFFC"/>
<path d="M88.6997 34.5488H87.4297V35.8188H88.6997V34.5488Z" fill="#DAEFFC"/>
<path d="M88.6997 28.209H87.4297V29.479H88.6997V28.209Z" fill="#F6A85E"/>
<path d="M88.6997 26.9395H87.4297V28.2094H88.6997V26.9395Z" fill="#F6A85E"/>
<path d="M88.6997 23.1406H87.4297V24.4106H88.6997V23.1406Z" fill="#F6A85E"/>
<path d="M88.6997 21.8691H87.4297V23.1391H88.6997V21.8691Z" fill="#F6A85E"/>
<path d="M88.6997 20.5996H87.4297V21.8696H88.6997V20.5996Z" fill="#F6A85E"/>
<path d="M88.6997 19.3301H87.4297V20.6001H88.6997V19.3301Z" fill="#1D1D1B"/>
<path d="M88.6997 14.2598H87.4297V15.5298H88.6997V14.2598Z" fill="#41556C"/>
<path d="M89.9692 68.7793H88.6992V70.0493H89.9692V68.7793Z" fill="#C0BFBF"/>
<path d="M89.9692 67.5098H88.6992V68.7798H89.9692V67.5098Z" fill="#E1E1E1"/>
<path d="M89.9692 66.2402H88.6992V67.5102H89.9692V66.2402Z" fill="#E1E1E1"/>
<path d="M89.9692 64.9805H88.6992V66.2505H89.9692V64.9805Z" fill="#E1E1E1"/>
<path d="M89.9692 63.709H88.6992V64.979H89.9692V63.709Z" fill="#E1E1E1"/>
<path d="M89.9692 62.4395H88.6992V63.7094H89.9692V62.4395Z" fill="#E1E1E1"/>
<path d="M89.9692 61.1699H88.6992V62.4399H89.9692V61.1699Z" fill="#E1E1E1"/>
<path d="M89.9692 59.9004H88.6992V61.1704H89.9692V59.9004Z" fill="#E1E1E1"/>
<path d="M89.9692 58.6406H88.6992V59.9106H89.9692V58.6406Z" fill="#E1E1E1"/>
<path d="M89.9692 57.3691H88.6992V58.6391H89.9692V57.3691Z" fill="#E1E1E1"/>
<path d="M89.9692 56.0996H88.6992V57.3696H89.9692V56.0996Z" fill="#E1E1E1"/>
<path d="M89.9692 54.8301H88.6992V56.1001H89.9692V54.8301Z" fill="#E1E1E1"/>
<path d="M89.9692 53.5703H88.6992V54.8403H89.9692V53.5703Z" fill="#E1E1E1"/>
<path d="M89.9692 52.2988H88.6992V53.5688H89.9692V52.2988Z" fill="#E1E1E1"/>
<path d="M89.9692 51.0293H88.6992V52.2993H89.9692V51.0293Z" fill="#E1E1E1"/>
<path d="M89.9692 49.7598H88.6992V51.0298H89.9692V49.7598Z" fill="#E1E1E1"/>
<path d="M89.9692 48.4902H88.6992V49.7602H89.9692V48.4902Z" fill="#C0BFBF"/>
<path d="M89.9692 47.2305H88.6992V48.5005H89.9692V47.2305Z" fill="#E1E1E1"/>
<path d="M89.9692 45.959H88.6992V47.229H89.9692V45.959Z" fill="#C0BFBF"/>
<path d="M89.9692 44.6895H88.6992V45.9594H89.9692V44.6895Z" fill="#C0BFBF"/>
<path d="M89.9692 43.4199H88.6992V44.6899H89.9692V43.4199Z" fill="#DAEFFC"/>
<path d="M89.9692 42.1504H88.6992V43.4204H89.9692V42.1504Z" fill="#DAEFFC"/>
<path d="M89.9692 40.8906H88.6992V42.1606H89.9692V40.8906Z" fill="#DAEFFC"/>
<path d="M89.9692 39.6191H88.6992V40.8891H89.9692V39.6191Z" fill="#DAEFFC"/>
<path d="M89.9692 38.3496H88.6992V39.6196H89.9692V38.3496Z" fill="#F8AF00"/>
<path d="M89.9692 37.0801H88.6992V38.3501H89.9692V37.0801Z" fill="#F8AF00"/>
<path d="M89.9692 35.8203H88.6992V37.0903H89.9692V35.8203Z" fill="#DAEFFC"/>
<path d="M89.9692 34.5488H88.6992V35.8188H89.9692V34.5488Z" fill="#DAEFFC"/>
<path d="M89.9692 33.2793H88.6992V34.5493H89.9692V33.2793Z" fill="#334457"/>
<path d="M89.9692 29.4805H88.6992V30.7505H89.9692V29.4805Z" fill="#F6A85E"/>
<path d="M89.9692 28.209H88.6992V29.479H89.9692V28.209Z" fill="#FBC677"/>
<path d="M89.9692 26.9395H88.6992V28.2094H89.9692V26.9395Z" fill="#FBC677"/>
<path d="M89.9692 25.6699H88.6992V26.9399H89.9692V25.6699Z" fill="#F6A85E"/>
<path d="M89.9692 24.4004H88.6992V25.6704H89.9692V24.4004Z" fill="#F6A85E"/>
<path d="M89.9692 23.1406H88.6992V24.4106H89.9692V23.1406Z" fill="#FBC677"/>
<path d="M89.9692 21.8691H88.6992V23.1391H89.9692V21.8691Z" fill="#FBC677"/>
<path d="M89.9692 20.5996H88.6992V21.8696H89.9692V20.5996Z" fill="#F6A85E"/>
<path d="M89.9692 19.3301H88.6992V20.6001H89.9692V19.3301Z" fill="#1D1D1B"/>
<path d="M89.9692 18.0605H88.6992V19.3305H89.9692V18.0605Z" fill="#41556C"/>
<path d="M89.9692 16.7988H88.6992V18.0688H89.9692V16.7988Z" fill="#41556C"/>
<path d="M89.9692 15.5293H88.6992V16.7993H89.9692V15.5293Z" fill="#41556C"/>
<path d="M89.9692 14.2598H88.6992V15.5298H89.9692V14.2598Z" fill="#41556C"/>
<path d="M91.2387 68.7793H89.9688V70.0493H91.2387V68.7793Z" fill="#C0BFBF"/>
<path d="M91.2387 67.5098H89.9688V68.7798H91.2387V67.5098Z" fill="#E1E1E1"/>
<path d="M91.2387 66.2402H89.9688V67.5102H91.2387V66.2402Z" fill="#E1E1E1"/>
<path d="M91.2387 64.9805H89.9688V66.2505H91.2387V64.9805Z" fill="#E1E1E1"/>
<path d="M91.2387 63.709H89.9688V64.979H91.2387V63.709Z" fill="#E1E1E1"/>
<path d="M91.2387 62.4395H89.9688V63.7094H91.2387V62.4395Z" fill="#E1E1E1"/>
<path d="M91.2387 61.1699H89.9688V62.4399H91.2387V61.1699Z" fill="#E1E1E1"/>
<path d="M91.2387 59.9004H89.9688V61.1704H91.2387V59.9004Z" fill="#E1E1E1"/>
<path d="M91.2387 58.6406H89.9688V59.9106H91.2387V58.6406Z" fill="#E1E1E1"/>
<path d="M91.2387 57.3691H89.9688V58.6391H91.2387V57.3691Z" fill="#E1E1E1"/>
<path d="M91.2387 56.0996H89.9688V57.3696H91.2387V56.0996Z" fill="#E1E1E1"/>
<path d="M91.2387 54.8301H89.9688V56.1001H91.2387V54.8301Z" fill="#E1E1E1"/>
<path d="M91.2387 53.5703H89.9688V54.8403H91.2387V53.5703Z" fill="#E1E1E1"/>
<path d="M91.2387 52.2988H89.9688V53.5688H91.2387V52.2988Z" fill="#E1E1E1"/>
<path d="M91.2387 51.0293H89.9688V52.2993H91.2387V51.0293Z" fill="#E1E1E1"/>
<path d="M91.2387 49.7598H89.9688V51.0298H91.2387V49.7598Z" fill="#E1E1E1"/>
<path d="M91.2387 48.4902H89.9688V49.7602H91.2387V48.4902Z" fill="#C0BFBF"/>
<path d="M91.2387 47.2305H89.9688V48.5005H91.2387V47.2305Z" fill="#E1E1E1"/>
<path d="M91.2387 45.959H89.9688V47.229H91.2387V45.959Z" fill="#C0BFBF"/>
<path d="M91.2387 44.6895H89.9688V45.9594H91.2387V44.6895Z" fill="#C0BFBF"/>
<path d="M91.2387 43.4199H89.9688V44.6899H91.2387V43.4199Z" fill="#DAEFFC"/>
<path d="M91.2387 42.1504H89.9688V43.4204H91.2387V42.1504Z" fill="#DAEFFC"/>
<path d="M91.2387 40.8906H89.9688V42.1606H91.2387V40.8906Z" fill="#DAEFFC"/>
<path d="M91.2387 39.6191H89.9688V40.8891H91.2387V39.6191Z" fill="#DAEFFC"/>
<path d="M91.2387 38.3496H89.9688V39.6196H91.2387V38.3496Z" fill="#F8AF00"/>
<path d="M91.2387 37.0801H89.9688V38.3501H91.2387V37.0801Z" fill="#FFEC00"/>
<path d="M91.2387 35.8203H89.9688V37.0903H91.2387V35.8203Z" fill="#9BD7F6"/>
<path d="M91.2387 34.5488H89.9688V35.8188H91.2387V34.5488Z" fill="#9BD7F6"/>
<path d="M91.2387 33.2793H89.9688V34.5493H91.2387V33.2793Z" fill="#334457"/>
<path d="M91.2387 30.7402H89.9688V32.0102H91.2387V30.7402Z" fill="#F6A85E"/>
<path d="M91.2387 29.4805H89.9688V30.7505H91.2387V29.4805Z" fill="#FBC677"/>
<path d="M91.2387 28.209H89.9688V29.479H91.2387V28.209Z" fill="#FBC677"/>
<path d="M91.2387 26.9395H89.9688V28.2094H91.2387V26.9395Z" fill="#FBC677"/>
<path d="M91.2387 25.6699H89.9688V26.9399H91.2387V25.6699Z" fill="#FBC677"/>
<path d="M91.2387 24.4004H89.9688V25.6704H91.2387V24.4004Z" fill="#FBC677"/>
<path d="M91.2387 23.1406H89.9688V24.4106H91.2387V23.1406Z" fill="#1D1D1B"/>
<path d="M91.2387 21.8691H89.9688V23.1391H91.2387V21.8691Z" fill="#1D1D1B"/>
<path d="M91.2387 20.5996H89.9688V21.8696H91.2387V20.5996Z" fill="#F6A85E"/>
<path d="M91.2387 19.3301H89.9688V20.6001H91.2387V19.3301Z" fill="#41556C"/>
<path d="M91.2387 18.0605H89.9688V19.3305H91.2387V18.0605Z" fill="#F8AF00"/>
<path d="M91.2387 16.7988H89.9688V18.0688H91.2387V16.7988Z" fill="#F8AF00"/>
<path d="M91.2387 15.5293H89.9688V16.7993H91.2387V15.5293Z" fill="#41556C"/>
<path d="M91.2387 14.2598H89.9688V15.5298H91.2387V14.2598Z" fill="#41556C"/>
<path d="M92.5083 68.7793H91.2383V70.0493H92.5083V68.7793Z" fill="#C0BFBF"/>
<path d="M92.5083 67.5098H91.2383V68.7798H92.5083V67.5098Z" fill="#E1E1E1"/>
<path d="M92.5083 66.2402H91.2383V67.5102H92.5083V66.2402Z" fill="#E1E1E1"/>
<path d="M92.5083 64.9805H91.2383V66.2505H92.5083V64.9805Z" fill="#E1E1E1"/>
<path d="M92.5083 63.709H91.2383V64.979H92.5083V63.709Z" fill="#E1E1E1"/>
<path d="M92.5083 62.4395H91.2383V63.7094H92.5083V62.4395Z" fill="#E1E1E1"/>
<path d="M92.5083 61.1699H91.2383V62.4399H92.5083V61.1699Z" fill="#E1E1E1"/>
<path d="M92.5083 59.9004H91.2383V61.1704H92.5083V59.9004Z" fill="#E1E1E1"/>
<path d="M92.5083 58.6406H91.2383V59.9106H92.5083V58.6406Z" fill="#E1E1E1"/>
<path d="M92.5083 57.3691H91.2383V58.6391H92.5083V57.3691Z" fill="#E1E1E1"/>
<path d="M92.5083 56.0996H91.2383V57.3696H92.5083V56.0996Z" fill="#E1E1E1"/>
<path d="M92.5083 54.8301H91.2383V56.1001H92.5083V54.8301Z" fill="#E1E1E1"/>
<path d="M92.5083 53.5703H91.2383V54.8403H92.5083V53.5703Z" fill="#E1E1E1"/>
<path d="M92.5083 52.2988H91.2383V53.5688H92.5083V52.2988Z" fill="#E1E1E1"/>
<path d="M92.5083 51.0293H91.2383V52.2993H92.5083V51.0293Z" fill="#E1E1E1"/>
<path d="M92.5083 49.7598H91.2383V51.0298H92.5083V49.7598Z" fill="#E1E1E1"/>
<path d="M92.5083 48.4902H91.2383V49.7602H92.5083V48.4902Z" fill="#C0BFBF"/>
<path d="M92.5083 47.2305H91.2383V48.5005H92.5083V47.2305Z" fill="#E1E1E1"/>
<path d="M92.5083 45.959H91.2383V47.229H92.5083V45.959Z" fill="#C0BFBF"/>
<path d="M92.5083 44.6895H91.2383V45.9594H92.5083V44.6895Z" fill="#C0BFBF"/>
<path d="M92.5083 43.4199H91.2383V44.6899H92.5083V43.4199Z" fill="#DAEFFC"/>
<path d="M92.5083 42.1504H91.2383V43.4204H92.5083V42.1504Z" fill="#DAEFFC"/>
<path d="M92.5083 40.8906H91.2383V42.1606H92.5083V40.8906Z" fill="#9BD7F6"/>
<path d="M92.5083 39.6191H91.2383V40.8891H92.5083V39.6191Z" fill="white"/>
<path d="M92.5083 38.3496H91.2383V39.6196H92.5083V38.3496Z" fill="white"/>
<path d="M92.5083 37.0801H91.2383V38.3501H92.5083V37.0801Z" fill="white"/>
<path d="M92.5083 35.8203H91.2383V37.0903H92.5083V35.8203Z" fill="white"/>
<path d="M92.5083 34.5488H91.2383V35.8188H92.5083V34.5488Z" fill="white"/>
<path d="M92.5083 33.2793H91.2383V34.5493H92.5083V33.2793Z" fill="white"/>
<path d="M92.5083 30.7402H91.2383V32.0102H92.5083V30.7402Z" fill="#F6A85E"/>
<path d="M92.5083 29.4805H91.2383V30.7505H92.5083V29.4805Z" fill="#FBC677"/>
<path d="M92.5083 28.209H91.2383V29.479H92.5083V28.209Z" fill="#1D1D1B"/>
<path d="M92.5083 26.9395H91.2383V28.2094H92.5083V26.9395Z" fill="#FBC677"/>
<path d="M92.5083 25.6699H91.2383V26.9399H92.5083V25.6699Z" fill="#F6A85E"/>
<path d="M92.5083 24.4004H91.2383V25.6704H92.5083V24.4004Z" fill="#FBC677"/>
<path d="M92.5083 23.1406H91.2383V24.4106H92.5083V23.1406Z" fill="#FBC677"/>
<path d="M92.5083 21.8691H91.2383V23.1391H92.5083V21.8691Z" fill="#FBC677"/>
<path d="M92.5083 20.5996H91.2383V21.8696H92.5083V20.5996Z" fill="#F6A85E"/>
<path d="M92.5083 19.3301H91.2383V20.6001H92.5083V19.3301Z" fill="#41556C"/>
<path d="M92.5083 18.0605H91.2383V19.3305H92.5083V18.0605Z" fill="#FFCA00"/>
<path d="M92.5083 16.7988H91.2383V18.0688H92.5083V16.7988Z" fill="#FFEC00"/>
<path d="M92.5083 15.5293H91.2383V16.7993H92.5083V15.5293Z" fill="#41556C"/>
<path d="M92.5083 14.2598H91.2383V15.5298H92.5083V14.2598Z" fill="#41556C"/>
<path d="M93.7798 68.7793H92.5098V70.0493H93.7798V68.7793Z" fill="#C0BFBF"/>
<path d="M93.7798 67.5098H92.5098V68.7798H93.7798V67.5098Z" fill="#E1E1E1"/>
<path d="M93.7798 66.2402H92.5098V67.5102H93.7798V66.2402Z" fill="#E1E1E1"/>
<path d="M93.7798 64.9805H92.5098V66.2505H93.7798V64.9805Z" fill="#E1E1E1"/>
<path d="M93.7798 63.709H92.5098V64.979H93.7798V63.709Z" fill="#E1E1E1"/>
<path d="M93.7798 62.4395H92.5098V63.7094H93.7798V62.4395Z" fill="#E1E1E1"/>
<path d="M93.7798 61.1699H92.5098V62.4399H93.7798V61.1699Z" fill="#E1E1E1"/>
<path d="M93.7798 59.9004H92.5098V61.1704H93.7798V59.9004Z" fill="#E1E1E1"/>
<path d="M93.7798 58.6406H92.5098V59.9106H93.7798V58.6406Z" fill="#E1E1E1"/>
<path d="M93.7798 57.3691H92.5098V58.6391H93.7798V57.3691Z" fill="#E1E1E1"/>
<path d="M93.7798 56.0996H92.5098V57.3696H93.7798V56.0996Z" fill="#E1E1E1"/>
<path d="M93.7798 54.8301H92.5098V56.1001H93.7798V54.8301Z" fill="#E1E1E1"/>
<path d="M93.7798 53.5703H92.5098V54.8403H93.7798V53.5703Z" fill="#E1E1E1"/>
<path d="M93.7798 52.2988H92.5098V53.5688H93.7798V52.2988Z" fill="#E1E1E1"/>
<path d="M93.7798 51.0293H92.5098V52.2993H93.7798V51.0293Z" fill="#E1E1E1"/>
<path d="M93.7798 49.7598H92.5098V51.0298H93.7798V49.7598Z" fill="#E1E1E1"/>
<path d="M93.7798 48.4902H92.5098V49.7602H93.7798V48.4902Z" fill="#C0BFBF"/>
<path d="M93.7798 47.2305H92.5098V48.5005H93.7798V47.2305Z" fill="#E1E1E1"/>
<path d="M93.7798 45.959H92.5098V47.229H93.7798V45.959Z" fill="#C0BFBF"/>
<path d="M93.7798 44.6895H92.5098V45.9594H93.7798V44.6895Z" fill="#C0BFBF"/>
<path d="M93.7798 43.4199H92.5098V44.6899H93.7798V43.4199Z" fill="#DAEFFC"/>
<path d="M93.7798 42.1504H92.5098V43.4204H93.7798V42.1504Z" fill="#DAEFFC"/>
<path d="M93.7798 40.8906H92.5098V42.1606H93.7798V40.8906Z" fill="#334457"/>
<path d="M93.7798 39.6191H92.5098V40.8891H93.7798V39.6191Z" fill="#334457"/>
<path d="M93.7798 38.3496H92.5098V39.6196H93.7798V38.3496Z" fill="#334457"/>
<path d="M93.7798 37.0801H92.5098V38.3501H93.7798V37.0801Z" fill="#334457"/>
<path d="M93.7798 35.8203H92.5098V37.0903H93.7798V35.8203Z" fill="#FBC677"/>
<path d="M93.7798 34.5488H92.5098V35.8188H93.7798V34.5488Z" fill="#FBC677"/>
<path d="M93.7798 33.2793H92.5098V34.5493H93.7798V33.2793Z" fill="#FBC677"/>
<path d="M93.7798 32.0098H92.5098V33.2798H93.7798V32.0098Z" fill="#F6A85E"/>
<path d="M93.7798 30.7402H92.5098V32.0102H93.7798V30.7402Z" fill="#F6A85E"/>
<path d="M93.7798 29.4805H92.5098V30.7505H93.7798V29.4805Z" fill="#FBC677"/>
<path d="M93.7798 28.209H92.5098V29.479H93.7798V28.209Z" fill="#1D1D1B"/>
<path d="M93.7798 26.9395H92.5098V28.2094H93.7798V26.9395Z" fill="#FBC677"/>
<path d="M93.7798 25.6699H92.5098V26.9399H93.7798V25.6699Z" fill="#FBC677"/>
<path d="M93.7798 24.4004H92.5098V25.6704H93.7798V24.4004Z" fill="#FBC677"/>
<path d="M93.7798 23.1406H92.5098V24.4106H93.7798V23.1406Z" fill="#FBC677"/>
<path d="M93.7798 21.8691H92.5098V23.1391H93.7798V21.8691Z" fill="#FBC677"/>
<path d="M93.7798 20.5996H92.5098V21.8696H93.7798V20.5996Z" fill="#F6A85E"/>
<path d="M93.7798 19.3301H92.5098V20.6001H93.7798V19.3301Z" fill="#334457"/>
<path d="M93.7798 18.0605H92.5098V19.3305H93.7798V18.0605Z" fill="#334457"/>
<path d="M93.7798 16.7988H92.5098V18.0688H93.7798V16.7988Z" fill="#334457"/>
<path d="M93.7798 15.5293H92.5098V16.7993H93.7798V15.5293Z" fill="#41556C"/>
<path d="M93.7798 14.2598H92.5098V15.5298H93.7798V14.2598Z" fill="#41556C"/>
<path d="M95.0396 68.7793H93.7695V70.0493H95.0396V68.7793Z" fill="#C0BFBF"/>
<path d="M95.0396 67.5098H93.7695V68.7798H95.0396V67.5098Z" fill="#E1E1E1"/>
<path d="M95.0396 66.2402H93.7695V67.5102H95.0396V66.2402Z" fill="#E1E1E1"/>
<path d="M95.0396 64.9805H93.7695V66.2505H95.0396V64.9805Z" fill="#E1E1E1"/>
<path d="M95.0396 63.709H93.7695V64.979H95.0396V63.709Z" fill="#E1E1E1"/>
<path d="M95.0396 62.4395H93.7695V63.7094H95.0396V62.4395Z" fill="#E1E1E1"/>
<path d="M95.0396 61.1699H93.7695V62.4399H95.0396V61.1699Z" fill="#E1E1E1"/>
<path d="M95.0396 59.9004H93.7695V61.1704H95.0396V59.9004Z" fill="#E1E1E1"/>
<path d="M95.0396 58.6406H93.7695V59.9106H95.0396V58.6406Z" fill="#E1E1E1"/>
<path d="M95.0396 57.3691H93.7695V58.6391H95.0396V57.3691Z" fill="#E1E1E1"/>
<path d="M95.0396 56.0996H93.7695V57.3696H95.0396V56.0996Z" fill="#E1E1E1"/>
<path d="M95.0396 54.8301H93.7695V56.1001H95.0396V54.8301Z" fill="#E1E1E1"/>
<path d="M95.0396 53.5703H93.7695V54.8403H95.0396V53.5703Z" fill="#E1E1E1"/>
<path d="M95.0396 52.2988H93.7695V53.5688H95.0396V52.2988Z" fill="#E1E1E1"/>
<path d="M95.0396 51.0293H93.7695V52.2993H95.0396V51.0293Z" fill="#E1E1E1"/>
<path d="M95.0396 49.7598H93.7695V51.0298H95.0396V49.7598Z" fill="#E1E1E1"/>
<path d="M95.0396 48.4902H93.7695V49.7602H95.0396V48.4902Z" fill="#C0BFBF"/>
<path d="M95.0396 47.2305H93.7695V48.5005H95.0396V47.2305Z" fill="#E1E1E1"/>
<path d="M95.0396 45.959H93.7695V47.229H95.0396V45.959Z" fill="#C0BFBF"/>
<path d="M95.0396 44.6895H93.7695V45.9594H95.0396V44.6895Z" fill="#C0BFBF"/>
<path d="M95.0396 43.4199H93.7695V44.6899H95.0396V43.4199Z" fill="#DAEFFC"/>
<path d="M95.0396 42.1504H93.7695V43.4204H95.0396V42.1504Z" fill="#DAEFFC"/>
<path d="M95.0396 40.8906H93.7695V42.1606H95.0396V40.8906Z" fill="#9BD7F6"/>
<path d="M95.0396 39.6191H93.7695V40.8891H95.0396V39.6191Z" fill="white"/>
<path d="M95.0396 38.3496H93.7695V39.6196H95.0396V38.3496Z" fill="white"/>
<path d="M95.0396 37.0801H93.7695V38.3501H95.0396V37.0801Z" fill="white"/>
<path d="M95.0396 35.8203H93.7695V37.0903H95.0396V35.8203Z" fill="white"/>
<path d="M95.0396 34.5488H93.7695V35.8188H95.0396V34.5488Z" fill="#FBC677"/>
<path d="M95.0396 33.2793H93.7695V34.5493H95.0396V33.2793Z" fill="#FBC677"/>
<path d="M95.0396 32.0098H93.7695V33.2798H95.0396V32.0098Z" fill="#F6A85E"/>
<path d="M95.0396 30.7402H93.7695V32.0102H95.0396V30.7402Z" fill="#F6A85E"/>
<path d="M95.0396 29.4805H93.7695V30.7505H95.0396V29.4805Z" fill="#FBC677"/>
<path d="M95.0396 28.209H93.7695V29.479H95.0396V28.209Z" fill="#1D1D1B"/>
<path d="M95.0396 26.9395H93.7695V28.2094H95.0396V26.9395Z" fill="#FBC677"/>
<path d="M95.0396 25.6699H93.7695V26.9399H95.0396V25.6699Z" fill="#FBC677"/>
<path d="M95.0396 24.4004H93.7695V25.6704H95.0396V24.4004Z" fill="#FBC677"/>
<path d="M95.0396 23.1406H93.7695V24.4106H95.0396V23.1406Z" fill="#1D1D1B"/>
<path d="M95.0396 21.8691H93.7695V23.1391H95.0396V21.8691Z" fill="#1D1D1B"/>
<path d="M95.0396 20.5996H93.7695V21.8696H95.0396V20.5996Z" fill="#F6A85E"/>
<path d="M95.0396 19.3301H93.7695V20.6001H95.0396V19.3301Z" fill="#334457"/>
<path d="M95.0396 18.0605H93.7695V19.3305H95.0396V18.0605Z" fill="#334457"/>
<path d="M95.0396 16.7988H93.7695V18.0688H95.0396V16.7988Z" fill="#334457"/>
<path d="M95.0396 15.5293H93.7695V16.7993H95.0396V15.5293Z" fill="#41556C"/>
<path d="M95.0396 14.2598H93.7695V15.5298H95.0396V14.2598Z" fill="#41556C"/>
<path d="M96.3091 68.7793H95.0391V70.0493H96.3091V68.7793Z" fill="#C0BFBF"/>
<path d="M96.3091 67.5098H95.0391V68.7798H96.3091V67.5098Z" fill="#E1E1E1"/>
<path d="M96.3091 66.2402H95.0391V67.5102H96.3091V66.2402Z" fill="#E1E1E1"/>
<path d="M96.3091 64.9805H95.0391V66.2505H96.3091V64.9805Z" fill="#E1E1E1"/>
<path d="M96.3091 63.709H95.0391V64.979H96.3091V63.709Z" fill="#E1E1E1"/>
<path d="M96.3091 62.4395H95.0391V63.7094H96.3091V62.4395Z" fill="#E1E1E1"/>
<path d="M96.3091 61.1699H95.0391V62.4399H96.3091V61.1699Z" fill="#E1E1E1"/>
<path d="M96.3091 59.9004H95.0391V61.1704H96.3091V59.9004Z" fill="#E1E1E1"/>
<path d="M96.3091 58.6406H95.0391V59.9106H96.3091V58.6406Z" fill="#E1E1E1"/>
<path d="M96.3091 57.3691H95.0391V58.6391H96.3091V57.3691Z" fill="#E1E1E1"/>
<path d="M96.3091 56.0996H95.0391V57.3696H96.3091V56.0996Z" fill="#E1E1E1"/>
<path d="M96.3091 54.8301H95.0391V56.1001H96.3091V54.8301Z" fill="#E1E1E1"/>
<path d="M96.3091 53.5703H95.0391V54.8403H96.3091V53.5703Z" fill="#E1E1E1"/>
<path d="M96.3091 52.2988H95.0391V53.5688H96.3091V52.2988Z" fill="#E1E1E1"/>
<path d="M96.3091 51.0293H95.0391V52.2993H96.3091V51.0293Z" fill="#E1E1E1"/>
<path d="M96.3091 49.7598H95.0391V51.0298H96.3091V49.7598Z" fill="#E1E1E1"/>
<path d="M96.3091 48.4902H95.0391V49.7602H96.3091V48.4902Z" fill="#C0BFBF"/>
<path d="M96.3091 47.2305H95.0391V48.5005H96.3091V47.2305Z" fill="#E1E1E1"/>
<path d="M96.3091 45.959H95.0391V47.229H96.3091V45.959Z" fill="#C0BFBF"/>
<path d="M96.3091 44.6895H95.0391V45.9594H96.3091V44.6895Z" fill="#C0BFBF"/>
<path d="M96.3091 43.4199H95.0391V44.6899H96.3091V43.4199Z" fill="#DAEFFC"/>
<path d="M96.3091 42.1504H95.0391V43.4204H96.3091V42.1504Z" fill="#DAEFFC"/>
<path d="M96.3091 40.8906H95.0391V42.1606H96.3091V40.8906Z" fill="#DAEFFC"/>
<path d="M96.3091 39.6191H95.0391V40.8891H96.3091V39.6191Z" fill="#DAEFFC"/>
<path d="M96.3091 38.3496H95.0391V39.6196H96.3091V38.3496Z" fill="#DAEFFC"/>
<path d="M96.3091 37.0801H95.0391V38.3501H96.3091V37.0801Z" fill="#9BD7F6"/>
<path d="M96.3091 35.8203H95.0391V37.0903H96.3091V35.8203Z" fill="white"/>
<path d="M96.3091 34.5488H95.0391V35.8188H96.3091V34.5488Z" fill="white"/>
<path d="M96.3091 33.2793H95.0391V34.5493H96.3091V33.2793Z" fill="white"/>
<path d="M96.3091 30.7402H95.0391V32.0102H96.3091V30.7402Z" fill="#F6A85E"/>
<path d="M96.3091 29.4805H95.0391V30.7505H96.3091V29.4805Z" fill="#FBC677"/>
<path d="M96.3091 28.209H95.0391V29.479H96.3091V28.209Z" fill="#FBC677"/>
<path d="M96.3091 26.9395H95.0391V28.2094H96.3091V26.9395Z" fill="#FBC677"/>
<path d="M96.3091 25.6699H95.0391V26.9399H96.3091V25.6699Z" fill="#FBC677"/>
<path d="M96.3091 24.4004H95.0391V25.6704H96.3091V24.4004Z" fill="#FBC677"/>
<path d="M96.3091 23.1406H95.0391V24.4106H96.3091V23.1406Z" fill="#FBC677"/>
<path d="M96.3091 21.8691H95.0391V23.1391H96.3091V21.8691Z" fill="#FBC677"/>
<path d="M96.3091 20.5996H95.0391V21.8696H96.3091V20.5996Z" fill="#F6A85E"/>
<path d="M96.3091 19.3301H95.0391V20.6001H96.3091V19.3301Z" fill="#334457"/>
<path d="M96.3091 18.0605H95.0391V19.3305H96.3091V18.0605Z" fill="#334457"/>
<path d="M96.3091 16.7988H95.0391V18.0688H96.3091V16.7988Z" fill="#334457"/>
<path d="M96.3091 15.5293H95.0391V16.7993H96.3091V15.5293Z" fill="#41556C"/>
<path d="M96.3091 14.2598H95.0391V15.5298H96.3091V14.2598Z" fill="#41556C"/>
<path d="M97.5786 68.7793H96.3086V70.0493H97.5786V68.7793Z" fill="#C0BFBF"/>
<path d="M97.5786 67.5098H96.3086V68.7798H97.5786V67.5098Z" fill="#E1E1E1"/>
<path d="M97.5786 66.2402H96.3086V67.5102H97.5786V66.2402Z" fill="#E1E1E1"/>
<path d="M97.5786 64.9805H96.3086V66.2505H97.5786V64.9805Z" fill="#E1E1E1"/>
<path d="M97.5786 63.709H96.3086V64.979H97.5786V63.709Z" fill="#E1E1E1"/>
<path d="M97.5786 62.4395H96.3086V63.7094H97.5786V62.4395Z" fill="#E1E1E1"/>
<path d="M97.5786 61.1699H96.3086V62.4399H97.5786V61.1699Z" fill="#E1E1E1"/>
<path d="M97.5786 59.9004H96.3086V61.1704H97.5786V59.9004Z" fill="#E1E1E1"/>
<path d="M97.5786 58.6406H96.3086V59.9106H97.5786V58.6406Z" fill="#E1E1E1"/>
<path d="M97.5786 57.3691H96.3086V58.6391H97.5786V57.3691Z" fill="#E1E1E1"/>
<path d="M97.5786 56.0996H96.3086V57.3696H97.5786V56.0996Z" fill="#E1E1E1"/>
<path d="M97.5786 54.8301H96.3086V56.1001H97.5786V54.8301Z" fill="#E1E1E1"/>
<path d="M97.5786 53.5703H96.3086V54.8403H97.5786V53.5703Z" fill="#E1E1E1"/>
<path d="M97.5786 52.2988H96.3086V53.5688H97.5786V52.2988Z" fill="#E1E1E1"/>
<path d="M97.5786 51.0293H96.3086V52.2993H97.5786V51.0293Z" fill="#E1E1E1"/>
<path d="M97.5786 49.7598H96.3086V51.0298H97.5786V49.7598Z" fill="#E1E1E1"/>
<path d="M97.5786 48.4902H96.3086V49.7602H97.5786V48.4902Z" fill="#C0BFBF"/>
<path d="M97.5786 47.2305H96.3086V48.5005H97.5786V47.2305Z" fill="#E1E1E1"/>
<path d="M97.5786 45.959H96.3086V47.229H97.5786V45.959Z" fill="#C0BFBF"/>
<path d="M97.5786 44.6895H96.3086V45.9594H97.5786V44.6895Z" fill="#C0BFBF"/>
<path d="M97.5786 43.4199H96.3086V44.6899H97.5786V43.4199Z" fill="#9BD7F6"/>
<path d="M97.5786 42.1504H96.3086V43.4204H97.5786V42.1504Z" fill="#9BD7F6"/>
<path d="M97.5786 40.8906H96.3086V42.1606H97.5786V40.8906Z" fill="#9BD7F6"/>
<path d="M97.5786 39.6191H96.3086V40.8891H97.5786V39.6191Z" fill="#9BD7F6"/>
<path d="M97.5786 38.3496H96.3086V39.6196H97.5786V38.3496Z" fill="#DAEFFC"/>
<path d="M97.5786 37.0801H96.3086V38.3501H97.5786V37.0801Z" fill="#9BD7F6"/>
<path d="M97.5786 35.8203H96.3086V37.0903H97.5786V35.8203Z" fill="#9BD7F6"/>
<path d="M97.5786 34.5488H96.3086V35.8188H97.5786V34.5488Z" fill="#9BD7F6"/>
<path d="M97.5786 33.2793H96.3086V34.5493H97.5786V33.2793Z" fill="#334457"/>
<path d="M97.5786 30.7402H96.3086V32.0102H97.5786V30.7402Z" fill="#F6A85E"/>
<path d="M97.5786 29.4805H96.3086V30.7505H97.5786V29.4805Z" fill="#FBC677"/>
<path d="M97.5786 28.209H96.3086V29.479H97.5786V28.209Z" fill="#FBC677"/>
<path d="M97.5786 26.9395H96.3086V28.2094H97.5786V26.9395Z" fill="#FBC677"/>
<path d="M97.5786 25.6699H96.3086V26.9399H97.5786V25.6699Z" fill="#FBC677"/>
<path d="M97.5786 24.4004H96.3086V25.6704H97.5786V24.4004Z" fill="#FBC677"/>
<path d="M97.5786 23.1406H96.3086V24.4106H97.5786V23.1406Z" fill="#FBC677"/>
<path d="M97.5786 21.8691H96.3086V23.1391H97.5786V21.8691Z" fill="#FBC677"/>
<path d="M97.5786 20.5996H96.3086V21.8696H97.5786V20.5996Z" fill="#F6A85E"/>
<path d="M97.5786 19.3301H96.3086V20.6001H97.5786V19.3301Z" fill="#334457"/>
<path d="M97.5786 18.0605H96.3086V19.3305H97.5786V18.0605Z" fill="#334457"/>
<path d="M97.5786 16.7988H96.3086V18.0688H97.5786V16.7988Z" fill="#334457"/>
<path d="M97.5786 15.5293H96.3086V16.7993H97.5786V15.5293Z" fill="#41556C"/>
<path d="M97.5786 14.2598H96.3086V15.5298H97.5786V14.2598Z" fill="#41556C"/>
<path d="M98.8481 68.7793H97.5781V70.0493H98.8481V68.7793Z" fill="#C0BFBF"/>
<path d="M98.8481 67.5098H97.5781V68.7798H98.8481V67.5098Z" fill="#E1E1E1"/>
<path d="M98.8481 66.2402H97.5781V67.5102H98.8481V66.2402Z" fill="#E1E1E1"/>
<path d="M98.8481 64.9805H97.5781V66.2505H98.8481V64.9805Z" fill="#E1E1E1"/>
<path d="M98.8481 63.709H97.5781V64.979H98.8481V63.709Z" fill="#E1E1E1"/>
<path d="M98.8481 62.4395H97.5781V63.7094H98.8481V62.4395Z" fill="#E1E1E1"/>
<path d="M98.8481 61.1699H97.5781V62.4399H98.8481V61.1699Z" fill="#E1E1E1"/>
<path d="M98.8481 59.9004H97.5781V61.1704H98.8481V59.9004Z" fill="#E1E1E1"/>
<path d="M98.8481 58.6406H97.5781V59.9106H98.8481V58.6406Z" fill="#E1E1E1"/>
<path d="M98.8481 57.3691H97.5781V58.6391H98.8481V57.3691Z" fill="#E1E1E1"/>
<path d="M98.8481 56.0996H97.5781V57.3696H98.8481V56.0996Z" fill="#E1E1E1"/>
<path d="M98.8481 54.8301H97.5781V56.1001H98.8481V54.8301Z" fill="#E1E1E1"/>
<path d="M98.8481 53.5703H97.5781V54.8403H98.8481V53.5703Z" fill="#E1E1E1"/>
<path d="M98.8481 52.2988H97.5781V53.5688H98.8481V52.2988Z" fill="#E1E1E1"/>
<path d="M98.8481 51.0293H97.5781V52.2993H98.8481V51.0293Z" fill="#E1E1E1"/>
<path d="M98.8481 49.7598H97.5781V51.0298H98.8481V49.7598Z" fill="#E1E1E1"/>
<path d="M98.8481 48.4902H97.5781V49.7602H98.8481V48.4902Z" fill="#C0BFBF"/>
<path d="M98.8481 47.2305H97.5781V48.5005H98.8481V47.2305Z" fill="#E1E1E1"/>
<path d="M98.8481 45.959H97.5781V47.229H98.8481V45.959Z" fill="#C0BFBF"/>
<path d="M98.8481 44.6895H97.5781V45.9594H98.8481V44.6895Z" fill="#C0BFBF"/>
<path d="M98.8481 43.4199H97.5781V44.6899H98.8481V43.4199Z" fill="#9BD7F6"/>
<path d="M98.8481 42.1504H97.5781V43.4204H98.8481V42.1504Z" fill="#9BD7F6"/>
<path d="M98.8481 40.8906H97.5781V42.1606H98.8481V40.8906Z" fill="#9BD7F6"/>
<path d="M98.8481 39.6191H97.5781V40.8891H98.8481V39.6191Z" fill="#9BD7F6"/>
<path d="M98.8481 38.3496H97.5781V39.6196H98.8481V38.3496Z" fill="#DAEFFC"/>
<path d="M98.8481 37.0801H97.5781V38.3501H98.8481V37.0801Z" fill="#DAEFFC"/>
<path d="M98.8481 35.8203H97.5781V37.0903H98.8481V35.8203Z" fill="#DAEFFC"/>
<path d="M98.8481 34.5488H97.5781V35.8188H98.8481V34.5488Z" fill="#DAEFFC"/>
<path d="M98.8481 33.2793H97.5781V34.5493H98.8481V33.2793Z" fill="#334457"/>
<path d="M98.8481 29.4805H97.5781V30.7505H98.8481V29.4805Z" fill="#F6A85E"/>
<path d="M98.8481 28.209H97.5781V29.479H98.8481V28.209Z" fill="#F6A85E"/>
<path d="M98.8481 26.9395H97.5781V28.2094H98.8481V26.9395Z" fill="#F6A85E"/>
<path d="M98.8481 25.6699H97.5781V26.9399H98.8481V25.6699Z" fill="#F6A85E"/>
<path d="M98.8481 24.4004H97.5781V25.6704H98.8481V24.4004Z" fill="#F6A85E"/>
<path d="M98.8481 23.1406H97.5781V24.4106H98.8481V23.1406Z" fill="#F6A85E"/>
<path d="M98.8481 21.8691H97.5781V23.1391H98.8481V21.8691Z" fill="#F6A85E"/>
<path d="M98.8481 20.5996H97.5781V21.8696H98.8481V20.5996Z" fill="#F6A85E"/>
<path d="M98.8481 19.3301H97.5781V20.6001H98.8481V19.3301Z" fill="#334457"/>
<path d="M98.8481 18.0605H97.5781V19.3305H98.8481V18.0605Z" fill="#334457"/>
<path d="M98.8481 16.7988H97.5781V18.0688H98.8481V16.7988Z" fill="#334457"/>
<path d="M98.8481 15.5293H97.5781V16.7993H98.8481V15.5293Z" fill="#41556C"/>
<path d="M100.11 68.7793H98.8398V70.0493H100.11V68.7793Z" fill="#C0BFBF"/>
<path d="M100.11 67.5098H98.8398V68.7798H100.11V67.5098Z" fill="#E1E1E1"/>
<path d="M100.11 66.2402H98.8398V67.5102H100.11V66.2402Z" fill="#E1E1E1"/>
<path d="M100.11 64.9805H98.8398V66.2505H100.11V64.9805Z" fill="#E1E1E1"/>
<path d="M100.11 63.709H98.8398V64.979H100.11V63.709Z" fill="#E1E1E1"/>
<path d="M100.11 62.4395H98.8398V63.7094H100.11V62.4395Z" fill="#E1E1E1"/>
<path d="M100.11 61.1699H98.8398V62.4399H100.11V61.1699Z" fill="#E1E1E1"/>
<path d="M100.11 59.9004H98.8398V61.1704H100.11V59.9004Z" fill="#E1E1E1"/>
<path d="M100.11 58.6406H98.8398V59.9106H100.11V58.6406Z" fill="#E1E1E1"/>
<path d="M100.11 57.3691H98.8398V58.6391H100.11V57.3691Z" fill="#E1E1E1"/>
<path d="M100.11 56.0996H98.8398V57.3696H100.11V56.0996Z" fill="#E1E1E1"/>
<path d="M100.11 54.8301H98.8398V56.1001H100.11V54.8301Z" fill="#E1E1E1"/>
<path d="M100.11 53.5703H98.8398V54.8403H100.11V53.5703Z" fill="#E1E1E1"/>
<path d="M100.11 52.2988H98.8398V53.5688H100.11V52.2988Z" fill="#E1E1E1"/>
<path d="M100.11 51.0293H98.8398V52.2993H100.11V51.0293Z" fill="#E1E1E1"/>
<path d="M100.11 49.7598H98.8398V51.0298H100.11V49.7598Z" fill="#E1E1E1"/>
<path d="M100.11 48.4902H98.8398V49.7602H100.11V48.4902Z" fill="#C0BFBF"/>
<path d="M100.11 47.2305H98.8398V48.5005H100.11V47.2305Z" fill="#E1E1E1"/>
<path d="M100.11 45.959H98.8398V47.229H100.11V45.959Z" fill="#C0BFBF"/>
<path d="M100.11 44.6895H98.8398V45.9594H100.11V44.6895Z" fill="#C0BFBF"/>
<path d="M100.11 43.4199H98.8398V44.6899H100.11V43.4199Z" fill="#DAEFFC"/>
<path d="M100.11 42.1504H98.8398V43.4204H100.11V42.1504Z" fill="#DAEFFC"/>
<path d="M100.11 40.8906H98.8398V42.1606H100.11V40.8906Z" fill="#DAEFFC"/>
<path d="M100.11 39.6191H98.8398V40.8891H100.11V39.6191Z" fill="#DAEFFC"/>
<path d="M100.11 38.3496H98.8398V39.6196H100.11V38.3496Z" fill="#DAEFFC"/>
<path d="M100.11 37.0801H98.8398V38.3501H100.11V37.0801Z" fill="#DAEFFC"/>
<path d="M100.11 35.8203H98.8398V37.0903H100.11V35.8203Z" fill="#DAEFFC"/>
<path d="M100.11 34.5488H98.8398V35.8188H100.11V34.5488Z" fill="#DAEFFC"/>
<path d="M100.11 33.2793H98.8398V34.5493H100.11V33.2793Z" fill="#334457"/>
<path d="M100.11 28.209H98.8398V29.479H100.11V28.209Z" fill="#F6A85E"/>
<path d="M100.11 26.9395H98.8398V28.2094H100.11V26.9395Z" fill="#F6A85E"/>
<path d="M100.11 25.6699H98.8398V26.9399H100.11V25.6699Z" fill="#F6A85E"/>
<path d="M100.11 24.4004H98.8398V25.6704H100.11V24.4004Z" fill="#F6A85E"/>
<path d="M100.11 23.1406H98.8398V24.4106H100.11V23.1406Z" fill="#F6A85E"/>
<path d="M100.11 21.8691H98.8398V23.1391H100.11V21.8691Z" fill="#F6A85E"/>
<path d="M100.11 20.5996H98.8398V21.8696H100.11V20.5996Z" fill="#645247"/>
<path d="M100.11 19.3301H98.8398V20.6001H100.11V19.3301Z" fill="#334457"/>
<path d="M100.11 18.0605H98.8398V19.3305H100.11V18.0605Z" fill="#334457"/>
<path d="M100.11 16.7988H98.8398V18.0688H100.11V16.7988Z" fill="#334457"/>
<path d="M100.11 15.5293H98.8398V16.7993H100.11V15.5293Z" fill="#41556C"/>
<path d="M101.379 68.7793H100.109V70.0493H101.379V68.7793Z" fill="#C0BFBF"/>
<path d="M101.379 67.5098H100.109V68.7798H101.379V67.5098Z" fill="#E1E1E1"/>
<path d="M101.379 66.2402H100.109V67.5102H101.379V66.2402Z" fill="#E1E1E1"/>
<path d="M101.379 64.9805H100.109V66.2505H101.379V64.9805Z" fill="#E1E1E1"/>
<path d="M101.379 63.709H100.109V64.979H101.379V63.709Z" fill="#E1E1E1"/>
<path d="M101.379 62.4395H100.109V63.7094H101.379V62.4395Z" fill="#E1E1E1"/>
<path d="M101.379 61.1699H100.109V62.4399H101.379V61.1699Z" fill="#E1E1E1"/>
<path d="M101.379 59.9004H100.109V61.1704H101.379V59.9004Z" fill="#E1E1E1"/>
<path d="M101.379 58.6406H100.109V59.9106H101.379V58.6406Z" fill="#E1E1E1"/>
<path d="M101.379 57.3691H100.109V58.6391H101.379V57.3691Z" fill="#E1E1E1"/>
<path d="M101.379 56.0996H100.109V57.3696H101.379V56.0996Z" fill="#E1E1E1"/>
<path d="M101.379 54.8301H100.109V56.1001H101.379V54.8301Z" fill="#E1E1E1"/>
<path d="M101.379 53.5703H100.109V54.8403H101.379V53.5703Z" fill="#E1E1E1"/>
<path d="M101.379 52.2988H100.109V53.5688H101.379V52.2988Z" fill="#E1E1E1"/>
<path d="M101.379 51.0293H100.109V52.2993H101.379V51.0293Z" fill="#E1E1E1"/>
<path d="M101.379 49.7598H100.109V51.0298H101.379V49.7598Z" fill="#E1E1E1"/>
<path d="M101.379 48.4902H100.109V49.7602H101.379V48.4902Z" fill="#C0BFBF"/>
<path d="M101.379 47.2305H100.109V48.5005H101.379V47.2305Z" fill="#E1E1E1"/>
<path d="M101.379 45.959H100.109V47.229H101.379V45.959Z" fill="#C0BFBF"/>
<path d="M101.379 44.6895H100.109V45.9594H101.379V44.6895Z" fill="#C0BFBF"/>
<path d="M101.379 43.4199H100.109V44.6899H101.379V43.4199Z" fill="#9BD7F6"/>
<path d="M101.379 42.1504H100.109V43.4204H101.379V42.1504Z" fill="#9BD7F6"/>
<path d="M101.379 40.8906H100.109V42.1606H101.379V40.8906Z" fill="#9BD7F6"/>
<path d="M101.379 39.6191H100.109V40.8891H101.379V39.6191Z" fill="#9BD7F6"/>
<path d="M101.379 38.3496H100.109V39.6196H101.379V38.3496Z" fill="#9BD7F6"/>
<path d="M101.379 37.0801H100.109V38.3501H101.379V37.0801Z" fill="#9BD7F6"/>
<path d="M101.379 35.8203H100.109V37.0903H101.379V35.8203Z" fill="#9BD7F6"/>
<path d="M101.379 34.5488H100.109V35.8188H101.379V34.5488Z" fill="#9BD7F6"/>
<path d="M101.379 25.6699H100.109V26.9399H101.379V25.6699Z" fill="#483A32"/>
<path d="M101.379 24.4004H100.109V25.6704H101.379V24.4004Z" fill="#483A32"/>
<path d="M101.379 23.1406H100.109V24.4106H101.379V23.1406Z" fill="#483A32"/>
<path d="M101.379 21.8691H100.109V23.1391H101.379V21.8691Z" fill="#645247"/>
<path d="M101.379 20.5996H100.109V21.8696H101.379V20.5996Z" fill="#645247"/>
<path d="M101.379 19.3301H100.109V20.6001H101.379V19.3301Z" fill="#334457"/>
<path d="M101.379 18.0605H100.109V19.3305H101.379V18.0605Z" fill="#334457"/>
<path d="M101.379 16.7988H100.109V18.0688H101.379V16.7988Z" fill="#334457"/>
<path d="M101.379 15.5293H100.109V16.7993H101.379V15.5293Z" fill="#41556C"/>
<path d="M102.649 68.7793H101.379V70.0493H102.649V68.7793Z" fill="#C0BFBF"/>
<path d="M102.649 67.5098H101.379V68.7798H102.649V67.5098Z" fill="#E1E1E1"/>
<path d="M102.649 66.2402H101.379V67.5102H102.649V66.2402Z" fill="#E1E1E1"/>
<path d="M102.649 64.9805H101.379V66.2505H102.649V64.9805Z" fill="#E1E1E1"/>
<path d="M102.649 63.709H101.379V64.979H102.649V63.709Z" fill="#E1E1E1"/>
<path d="M102.649 62.4395H101.379V63.7094H102.649V62.4395Z" fill="#E1E1E1"/>
<path d="M102.649 61.1699H101.379V62.4399H102.649V61.1699Z" fill="#E1E1E1"/>
<path d="M102.649 59.9004H101.379V61.1704H102.649V59.9004Z" fill="#E1E1E1"/>
<path d="M102.649 58.6406H101.379V59.9106H102.649V58.6406Z" fill="#E1E1E1"/>
<path d="M102.649 57.3691H101.379V58.6391H102.649V57.3691Z" fill="#E1E1E1"/>
<path d="M102.649 56.0996H101.379V57.3696H102.649V56.0996Z" fill="#E1E1E1"/>
<path d="M102.649 54.8301H101.379V56.1001H102.649V54.8301Z" fill="#E1E1E1"/>
<path d="M102.649 53.5703H101.379V54.8403H102.649V53.5703Z" fill="#E1E1E1"/>
<path d="M102.649 52.2988H101.379V53.5688H102.649V52.2988Z" fill="#E1E1E1"/>
<path d="M102.649 51.0293H101.379V52.2993H102.649V51.0293Z" fill="#E1E1E1"/>
<path d="M102.649 49.7598H101.379V51.0298H102.649V49.7598Z" fill="#E1E1E1"/>
<path d="M102.649 48.4902H101.379V49.7602H102.649V48.4902Z" fill="#C0BFBF"/>
<path d="M102.649 47.2305H101.379V48.5005H102.649V47.2305Z" fill="#E1E1E1"/>
<path d="M102.649 45.959H101.379V47.229H102.649V45.959Z" fill="#C0BFBF"/>
<path d="M102.649 44.6895H101.379V45.9594H102.649V44.6895Z" fill="#C0BFBF"/>
<path d="M102.649 24.4004H101.379V25.6704H102.649V24.4004Z" fill="#483A32"/>
<path d="M102.649 23.1406H101.379V24.4106H102.649V23.1406Z" fill="#483A32"/>
<path d="M102.649 21.8691H101.379V23.1391H102.649V21.8691Z" fill="#483A32"/>
<path d="M102.649 15.5293H101.379V16.7993H102.649V15.5293Z" fill="#41556C"/>
<path d="M103.918 68.7793H102.648V70.0493H103.918V68.7793Z" fill="#C0BFBF"/>
<path d="M103.918 67.5098H102.648V68.7798H103.918V67.5098Z" fill="#E1E1E1"/>
<path d="M103.918 66.2402H102.648V67.5102H103.918V66.2402Z" fill="#E1E1E1"/>
<path d="M103.918 64.9805H102.648V66.2505H103.918V64.9805Z" fill="#E1E1E1"/>
<path d="M103.918 63.709H102.648V64.979H103.918V63.709Z" fill="#E1E1E1"/>
<path d="M103.918 62.4395H102.648V63.7094H103.918V62.4395Z" fill="#E1E1E1"/>
<path d="M103.918 61.1699H102.648V62.4399H103.918V61.1699Z" fill="#E1E1E1"/>
<path d="M103.918 59.9004H102.648V61.1704H103.918V59.9004Z" fill="#E1E1E1"/>
<path d="M103.918 58.6406H102.648V59.9106H103.918V58.6406Z" fill="#E1E1E1"/>
<path d="M103.918 57.3691H102.648V58.6391H103.918V57.3691Z" fill="#E1E1E1"/>
<path d="M103.918 56.0996H102.648V57.3696H103.918V56.0996Z" fill="#E1E1E1"/>
<path d="M103.918 54.8301H102.648V56.1001H103.918V54.8301Z" fill="#E1E1E1"/>
<path d="M103.918 53.5703H102.648V54.8403H103.918V53.5703Z" fill="#E1E1E1"/>
<path d="M103.918 52.2988H102.648V53.5688H103.918V52.2988Z" fill="#E1E1E1"/>
<path d="M103.918 51.0293H102.648V52.2993H103.918V51.0293Z" fill="#E1E1E1"/>
<path d="M103.918 49.7598H102.648V51.0298H103.918V49.7598Z" fill="#E1E1E1"/>
<path d="M103.918 48.4902H102.648V49.7602H103.918V48.4902Z" fill="#C0BFBF"/>
<path d="M103.918 47.2305H102.648V48.5005H103.918V47.2305Z" fill="#E1E1E1"/>
<path d="M103.918 45.959H102.648V47.229H103.918V45.959Z" fill="#C0BFBF"/>
<path d="M103.918 44.6895H102.648V45.9594H103.918V44.6895Z" fill="#C0BFBF"/>
<path d="M105.19 68.7793H103.92V70.0493H105.19V68.7793Z" fill="#C0BFBF"/>
<path d="M105.19 67.5098H103.92V68.7798H105.19V67.5098Z" fill="#E1E1E1"/>
<path d="M105.19 66.2402H103.92V67.5102H105.19V66.2402Z" fill="#E1E1E1"/>
<path d="M105.19 64.9805H103.92V66.2505H105.19V64.9805Z" fill="#E1E1E1"/>
<path d="M105.19 63.709H103.92V64.979H105.19V63.709Z" fill="#E1E1E1"/>
<path d="M105.19 62.4395H103.92V63.7094H105.19V62.4395Z" fill="#E1E1E1"/>
<path d="M105.19 61.1699H103.92V62.4399H105.19V61.1699Z" fill="#E1E1E1"/>
<path d="M105.19 59.9004H103.92V61.1704H105.19V59.9004Z" fill="#E1E1E1"/>
<path d="M105.19 58.6406H103.92V59.9106H105.19V58.6406Z" fill="#E1E1E1"/>
<path d="M105.19 57.3691H103.92V58.6391H105.19V57.3691Z" fill="#E1E1E1"/>
<path d="M105.19 56.0996H103.92V57.3696H105.19V56.0996Z" fill="#E1E1E1"/>
<path d="M105.19 54.8301H103.92V56.1001H105.19V54.8301Z" fill="#E1E1E1"/>
<path d="M105.19 53.5703H103.92V54.8403H105.19V53.5703Z" fill="#E1E1E1"/>
<path d="M105.19 52.2988H103.92V53.5688H105.19V52.2988Z" fill="#E1E1E1"/>
<path d="M105.19 51.0293H103.92V52.2993H105.19V51.0293Z" fill="#E1E1E1"/>
<path d="M105.19 49.7598H103.92V51.0298H105.19V49.7598Z" fill="#E1E1E1"/>
<path d="M105.19 48.4902H103.92V49.7602H105.19V48.4902Z" fill="#C0BFBF"/>
<path d="M105.19 47.2305H103.92V48.5005H105.19V47.2305Z" fill="#E1E1E1"/>
<path d="M105.19 45.959H103.92V47.229H105.19V45.959Z" fill="#C0BFBF"/>
<path d="M105.19 44.6895H103.92V45.9594H105.19V44.6895Z" fill="#C0BFBF"/>
<path d="M105.19 40.8906H103.92V42.1606H105.19V40.8906Z" fill="#CAC9C9"/>
<path d="M105.19 39.6191H103.92V40.8891H105.19V39.6191Z" fill="#CAC9C9"/>
<path d="M105.19 38.3496H103.92V39.6196H105.19V38.3496Z" fill="#CAC9C9"/>
<path d="M105.19 37.0801H103.92V38.3501H105.19V37.0801Z" fill="#CAC9C9"/>
<path d="M105.19 35.8203H103.92V37.0903H105.19V35.8203Z" fill="#CAC9C9"/>
<path d="M105.19 34.5488H103.92V35.8188H105.19V34.5488Z" fill="#CAC9C9"/>
<path d="M105.19 33.2793H103.92V34.5493H105.19V33.2793Z" fill="#CAC9C9"/>
<path d="M106.45 68.7793H105.18V70.0493H106.45V68.7793Z" fill="#C0BFBF"/>
<path d="M106.45 67.5098H105.18V68.7798H106.45V67.5098Z" fill="#E1E1E1"/>
<path d="M106.45 66.2402H105.18V67.5102H106.45V66.2402Z" fill="#E1E1E1"/>
<path d="M106.45 64.9805H105.18V66.2505H106.45V64.9805Z" fill="#E1E1E1"/>
<path d="M106.45 63.709H105.18V64.979H106.45V63.709Z" fill="#E1E1E1"/>
<path d="M106.45 62.4395H105.18V63.7094H106.45V62.4395Z" fill="#E1E1E1"/>
<path d="M106.45 61.1699H105.18V62.4399H106.45V61.1699Z" fill="#E1E1E1"/>
<path d="M106.45 59.9004H105.18V61.1704H106.45V59.9004Z" fill="#E1E1E1"/>
<path d="M106.45 58.6406H105.18V59.9106H106.45V58.6406Z" fill="#E1E1E1"/>
<path d="M106.45 57.3691H105.18V58.6391H106.45V57.3691Z" fill="#E1E1E1"/>
<path d="M106.45 56.0996H105.18V57.3696H106.45V56.0996Z" fill="#E1E1E1"/>
<path d="M106.45 54.8301H105.18V56.1001H106.45V54.8301Z" fill="#E1E1E1"/>
<path d="M106.45 53.5703H105.18V54.8403H106.45V53.5703Z" fill="#E1E1E1"/>
<path d="M106.45 52.2988H105.18V53.5688H106.45V52.2988Z" fill="#E1E1E1"/>
<path d="M106.45 51.0293H105.18V52.2993H106.45V51.0293Z" fill="#E1E1E1"/>
<path d="M106.45 49.7598H105.18V51.0298H106.45V49.7598Z" fill="#E1E1E1"/>
<path d="M106.45 48.4902H105.18V49.7602H106.45V48.4902Z" fill="#C0BFBF"/>
<path d="M106.45 47.2305H105.18V48.5005H106.45V47.2305Z" fill="#E1E1E1"/>
<path d="M106.45 45.959H105.18V47.229H106.45V45.959Z" fill="#C0BFBF"/>
<path d="M106.45 44.6895H105.18V45.9594H106.45V44.6895Z" fill="#C0BFBF"/>
<path d="M106.45 40.8906H105.18V42.1606H106.45V40.8906Z" fill="#CAC9C9"/>
<path d="M106.45 39.6191H105.18V40.8891H106.45V39.6191Z" fill="white"/>
<path d="M106.45 38.3496H105.18V39.6196H106.45V38.3496Z" fill="white"/>
<path d="M106.45 37.0801H105.18V38.3501H106.45V37.0801Z" fill="white"/>
<path d="M106.45 35.8203H105.18V37.0903H106.45V35.8203Z" fill="white"/>
<path d="M106.45 34.5488H105.18V35.8188H106.45V34.5488Z" fill="white"/>
<path d="M106.45 33.2793H105.18V34.5493H106.45V33.2793Z" fill="#CAC9C9"/>
<path d="M107.719 68.7793H106.449V70.0493H107.719V68.7793Z" fill="#C0BFBF"/>
<path d="M107.719 67.5098H106.449V68.7798H107.719V67.5098Z" fill="#C0BFBF"/>
<path d="M107.719 66.2402H106.449V67.5102H107.719V66.2402Z" fill="#C0BFBF"/>
<path d="M107.719 64.9805H106.449V66.2505H107.719V64.9805Z" fill="#C0BFBF"/>
<path d="M107.719 63.709H106.449V64.979H107.719V63.709Z" fill="#C0BFBF"/>
<path d="M107.719 62.4395H106.449V63.7094H107.719V62.4395Z" fill="#C0BFBF"/>
<path d="M107.719 61.1699H106.449V62.4399H107.719V61.1699Z" fill="#C0BFBF"/>
<path d="M107.719 59.9004H106.449V61.1704H107.719V59.9004Z" fill="#C0BFBF"/>
<path d="M107.719 58.6406H106.449V59.9106H107.719V58.6406Z" fill="#C0BFBF"/>
<path d="M107.719 57.3691H106.449V58.6391H107.719V57.3691Z" fill="#C0BFBF"/>
<path d="M107.719 56.0996H106.449V57.3696H107.719V56.0996Z" fill="#C0BFBF"/>
<path d="M107.719 54.8301H106.449V56.1001H107.719V54.8301Z" fill="#C0BFBF"/>
<path d="M107.719 53.5703H106.449V54.8403H107.719V53.5703Z" fill="#C0BFBF"/>
<path d="M107.719 52.2988H106.449V53.5688H107.719V52.2988Z" fill="#C0BFBF"/>
<path d="M107.719 51.0293H106.449V52.2993H107.719V51.0293Z" fill="#C0BFBF"/>
<path d="M107.719 49.7598H106.449V51.0298H107.719V49.7598Z" fill="#C0BFBF"/>
<path d="M107.719 48.4902H106.449V49.7602H107.719V48.4902Z" fill="#C0BFBF"/>
<path d="M107.719 47.2305H106.449V48.5005H107.719V47.2305Z" fill="#E1E1E1"/>
<path d="M107.719 45.959H106.449V47.229H107.719V45.959Z" fill="#C0BFBF"/>
<path d="M107.719 44.6895H106.449V45.9594H107.719V44.6895Z" fill="#C0BFBF"/>
<path d="M107.719 43.4199H106.449V44.6899H107.719V43.4199Z" fill="#6D6D6C"/>
<path d="M107.719 42.1504H106.449V43.4204H107.719V42.1504Z" fill="#6D6D6C"/>
<path d="M107.719 40.8906H106.449V42.1606H107.719V40.8906Z" fill="#CAC9C9"/>
<path d="M107.719 39.6191H106.449V40.8891H107.719V39.6191Z" fill="white"/>
<path d="M107.719 38.3496H106.449V39.6196H107.719V38.3496Z" fill="white"/>
<path d="M107.719 37.0801H106.449V38.3501H107.719V37.0801Z" fill="white"/>
<path d="M107.719 35.8203H106.449V37.0903H107.719V35.8203Z" fill="white"/>
<path d="M107.719 34.5488H106.449V35.8188H107.719V34.5488Z" fill="white"/>
<path d="M107.719 33.2793H106.449V34.5493H107.719V33.2793Z" fill="#CAC9C9"/>
<path d="M108.989 68.7793H107.719V70.0493H108.989V68.7793Z" fill="#C0BFBF"/>
<path d="M108.989 67.5098H107.719V68.7798H108.989V67.5098Z" fill="#C0BFBF"/>
<path d="M108.989 66.2402H107.719V67.5102H108.989V66.2402Z" fill="#C0BFBF"/>
<path d="M108.989 64.9805H107.719V66.2505H108.989V64.9805Z" fill="#C0BFBF"/>
<path d="M108.989 63.709H107.719V64.979H108.989V63.709Z" fill="#C0BFBF"/>
<path d="M108.989 62.4395H107.719V63.7094H108.989V62.4395Z" fill="#C0BFBF"/>
<path d="M108.989 61.1699H107.719V62.4399H108.989V61.1699Z" fill="#C0BFBF"/>
<path d="M108.989 59.9004H107.719V61.1704H108.989V59.9004Z" fill="#C0BFBF"/>
<path d="M108.989 58.6406H107.719V59.9106H108.989V58.6406Z" fill="#C0BFBF"/>
<path d="M108.989 57.3691H107.719V58.6391H108.989V57.3691Z" fill="#C0BFBF"/>
<path d="M108.989 56.0996H107.719V57.3696H108.989V56.0996Z" fill="#C0BFBF"/>
<path d="M108.989 54.8301H107.719V56.1001H108.989V54.8301Z" fill="#C0BFBF"/>
<path d="M108.989 53.5703H107.719V54.8403H108.989V53.5703Z" fill="#C0BFBF"/>
<path d="M108.989 52.2988H107.719V53.5688H108.989V52.2988Z" fill="#C0BFBF"/>
<path d="M108.989 51.0293H107.719V52.2993H108.989V51.0293Z" fill="#C0BFBF"/>
<path d="M108.989 49.7598H107.719V51.0298H108.989V49.7598Z" fill="#C0BFBF"/>
<path d="M108.989 48.4902H107.719V49.7602H108.989V48.4902Z" fill="#C0BFBF"/>
<path d="M108.989 47.2305H107.719V48.5005H108.989V47.2305Z" fill="#C0BFBF"/>
<path d="M108.989 45.959H107.719V47.229H108.989V45.959Z" fill="#9C9B9B"/>
<path d="M108.989 44.6895H107.719V45.9594H108.989V44.6895Z" fill="#9C9B9B"/>
<path d="M108.989 40.8906H107.719V42.1606H108.989V40.8906Z" fill="#CAC9C9"/>
<path d="M108.989 39.6191H107.719V40.8891H108.989V39.6191Z" fill="white"/>
<path d="M108.989 38.3496H107.719V39.6196H108.989V38.3496Z" fill="white"/>
<path d="M108.989 37.0801H107.719V38.3501H108.989V37.0801Z" fill="white"/>
<path d="M108.989 35.8203H107.719V37.0903H108.989V35.8203Z" fill="white"/>
<path d="M108.989 34.5488H107.719V35.8188H108.989V34.5488Z" fill="white"/>
<path d="M108.989 33.2793H107.719V34.5493H108.989V33.2793Z" fill="#CAC9C9"/>
<path d="M110.258 68.7793H108.988V70.0493H110.258V68.7793Z" fill="#C0BFBF"/>
<path d="M110.258 67.5098H108.988V68.7798H110.258V67.5098Z" fill="#C0BFBF"/>
<path d="M110.258 66.2402H108.988V67.5102H110.258V66.2402Z" fill="#C0BFBF"/>
<path d="M110.258 64.9805H108.988V66.2505H110.258V64.9805Z" fill="#C0BFBF"/>
<path d="M110.258 63.709H108.988V64.979H110.258V63.709Z" fill="#C0BFBF"/>
<path d="M110.258 62.4395H108.988V63.7094H110.258V62.4395Z" fill="#C0BFBF"/>
<path d="M110.258 61.1699H108.988V62.4399H110.258V61.1699Z" fill="#C0BFBF"/>
<path d="M110.258 59.9004H108.988V61.1704H110.258V59.9004Z" fill="#C0BFBF"/>
<path d="M110.258 58.6406H108.988V59.9106H110.258V58.6406Z" fill="#C0BFBF"/>
<path d="M110.258 57.3691H108.988V58.6391H110.258V57.3691Z" fill="#C0BFBF"/>
<path d="M110.258 56.0996H108.988V57.3696H110.258V56.0996Z" fill="#C0BFBF"/>
<path d="M110.258 54.8301H108.988V56.1001H110.258V54.8301Z" fill="#C0BFBF"/>
<path d="M110.258 53.5703H108.988V54.8403H110.258V53.5703Z" fill="#C0BFBF"/>
<path d="M110.258 52.2988H108.988V53.5688H110.258V52.2988Z" fill="#C0BFBF"/>
<path d="M110.258 51.0293H108.988V52.2993H110.258V51.0293Z" fill="#C0BFBF"/>
<path d="M110.258 49.7598H108.988V51.0298H110.258V49.7598Z" fill="#C0BFBF"/>
<path d="M110.258 48.4902H108.988V49.7602H110.258V48.4902Z" fill="#C0BFBF"/>
<path d="M110.258 47.2305H108.988V48.5005H110.258V47.2305Z" fill="#C0BFBF"/>
<path d="M110.258 45.959H108.988V47.229H110.258V45.959Z" fill="#9C9B9B"/>
<path d="M110.258 44.6895H108.988V45.9594H110.258V44.6895Z" fill="#9C9B9B"/>
<path d="M110.258 40.8906H108.988V42.1606H110.258V40.8906Z" fill="#CAC9C9"/>
<path d="M110.258 39.6191H108.988V40.8891H110.258V39.6191Z" fill="#CAC9C9"/>
<path d="M110.258 38.3496H108.988V39.6196H110.258V38.3496Z" fill="#CAC9C9"/>
<path d="M110.258 37.0801H108.988V38.3501H110.258V37.0801Z" fill="#CAC9C9"/>
<path d="M110.258 35.8203H108.988V37.0903H110.258V35.8203Z" fill="#CAC9C9"/>
<path d="M110.258 34.5488H108.988V35.8188H110.258V34.5488Z" fill="#CAC9C9"/>
<path d="M110.258 33.2793H108.988V34.5493H110.258V33.2793Z" fill="#CAC9C9"/>
<path d="M111.53 68.7793H110.26V70.0493H111.53V68.7793Z" fill="#C0BFBF"/>
<path d="M111.53 67.5098H110.26V68.7798H111.53V67.5098Z" fill="#C0BFBF"/>
<path d="M111.53 66.2402H110.26V67.5102H111.53V66.2402Z" fill="#C0BFBF"/>
<path d="M111.53 64.9805H110.26V66.2505H111.53V64.9805Z" fill="#C0BFBF"/>
<path d="M111.53 63.709H110.26V64.979H111.53V63.709Z" fill="#C0BFBF"/>
<path d="M111.53 62.4395H110.26V63.7094H111.53V62.4395Z" fill="#C0BFBF"/>
<path d="M111.53 61.1699H110.26V62.4399H111.53V61.1699Z" fill="#C0BFBF"/>
<path d="M111.53 59.9004H110.26V61.1704H111.53V59.9004Z" fill="#C0BFBF"/>
<path d="M111.53 58.6406H110.26V59.9106H111.53V58.6406Z" fill="#C0BFBF"/>
<path d="M111.53 57.3691H110.26V58.6391H111.53V57.3691Z" fill="#C0BFBF"/>
<path d="M111.53 56.0996H110.26V57.3696H111.53V56.0996Z" fill="#C0BFBF"/>
<path d="M111.53 54.8301H110.26V56.1001H111.53V54.8301Z" fill="#C0BFBF"/>
<path d="M111.53 53.5703H110.26V54.8403H111.53V53.5703Z" fill="#C0BFBF"/>
<path d="M111.53 52.2988H110.26V53.5688H111.53V52.2988Z" fill="#C0BFBF"/>
<path d="M111.53 51.0293H110.26V52.2993H111.53V51.0293Z" fill="#C0BFBF"/>
<path d="M111.53 49.7598H110.26V51.0298H111.53V49.7598Z" fill="#C0BFBF"/>
<path d="M111.53 48.4902H110.26V49.7602H111.53V48.4902Z" fill="#C0BFBF"/>
<path d="M111.53 47.2305H110.26V48.5005H111.53V47.2305Z" fill="#C0BFBF"/>
<path d="M111.53 45.959H110.26V47.229H111.53V45.959Z" fill="#9C9B9B"/>
<path d="M111.53 44.6895H110.26V45.9594H111.53V44.6895Z" fill="#9C9B9B"/>
<path d="M112.79 47.2305H111.52V48.5005H112.79V47.2305Z" fill="#C0BFBF"/>
<path d="M112.79 45.959H111.52V47.229H112.79V45.959Z" fill="#9C9B9B"/>
<path d="M112.79 44.6895H111.52V45.9594H112.79V44.6895Z" fill="#9C9B9B"/>
<path d="M52.2489 5.92047H53.1789V4.98047H52.2489H51.3089H50.3789V5.92047H51.3089H52.2489Z" fill="#2C2C2C"/>
<path d="M53.1794 6.84992H52.2495H51.3094H50.3795V5.91992H49.4395V6.84992V7.77992V8.71992V9.64993V10.5899H50.3795V9.64993V8.71992V7.77992H51.3094H52.2495H53.1794V8.71992V9.64993V10.5899H54.1094V9.64993V8.71992V7.77992V6.84992V5.91992H53.1794V6.84992Z" fill="#2C2C2C"/>
<path d="M63.9699 4.98047H63.0399H62.1099H61.1699V5.92047V6.85047V7.78047V8.72047V9.65047V10.5905H62.1099H63.0399H63.9699H64.9099H65.8399V9.65047H64.9099H63.9699H63.0399H62.1099V8.72047V7.78047H63.0399H63.9699H64.9099V6.85047H63.9699H63.0399H62.1099V5.92047H63.0399H63.9699H64.9099H65.8399V4.98047H64.9099H63.9699Z" fill="#2C2C2C"/>
<path d="M46.3798 5.92047H47.3098H48.2498V4.98047H47.3098H46.3798H45.4497H44.5098V5.92047H45.4497H46.3798Z" fill="#2C2C2C"/>
<path d="M44.5101 7.77992V6.84992V5.91992H43.5801V6.84992V7.77992V8.71992V9.64993H44.5101V8.71992V7.77992Z" fill="#2C2C2C"/>
<path d="M48.2492 8.71961V7.77961V6.84961H47.3092H46.3792H45.4492V7.77961H46.3792H47.3092V8.71961V9.64961H48.2492V8.71961Z" fill="#2C2C2C"/>
<path d="M45.4497 10.5904H46.3798H47.3098V9.65039H46.3798H45.4497H44.5098V10.5904H45.4497Z" fill="#2C2C2C"/>
<path d="M57.1805 5.92047V6.85047V7.78047V8.72047V9.65047V10.5905H58.1105V9.65047V8.72047V7.78047V6.85047V5.92047H59.0406H59.9805V4.98047H59.0406H58.1105H57.1805H56.2405H55.3105V5.92047H56.2405H57.1805Z" fill="#2C2C2C"/>
</svg>
