<svg width="30" height="27" viewBox="0 0 30 27" fill="none" xmlns="http://www.w3.org/2000/svg">
<path d="M28.4877 9.19356L27.7344 9.75586L28.2967 10.5091L29.0499 9.94684L28.4877 9.19356Z" fill="black"/>
<path d="M27.9212 8.45333L27.168 9.01562L27.7303 9.7689L28.4835 9.20661L27.9212 8.45333Z" fill="black"/>
<path d="M27.3646 7.70724L26.6113 8.26953L27.1736 9.02281L27.9269 8.46051L27.3646 7.70724Z" fill="black"/>
<path d="M26.806 6.95138L26.0527 7.51367L26.615 8.26695L27.3683 7.70466L26.806 6.95138Z" fill="black"/>
<path d="M26.2337 6.19747L25.4805 6.75977L26.0428 7.51304L26.796 6.95075L26.2337 6.19747Z" fill="black"/>
<path d="M25.6752 5.44161L24.9219 6.00391L25.4842 6.75718L26.2374 6.19489L25.6752 5.44161Z" fill="black"/>
<path d="M25.1185 4.69552L24.3652 5.25781L24.9275 6.01109L25.6808 5.44879L25.1185 4.69552Z" fill="black"/>
<path d="M24.5619 3.93966L23.8086 4.50195L24.3709 5.25523L25.1242 4.69293L24.5619 3.93966Z" fill="black"/>
<path d="M24.0033 3.19356L23.25 3.75586L23.8123 4.50914L24.5656 3.94684L24.0033 3.19356Z" fill="black"/>
<path d="M23.4369 2.44747L22.6836 3.00977L23.2459 3.76304L23.9992 3.20075L23.4369 2.44747Z" fill="black"/>
<path d="M22.8783 1.69161L22.125 2.25391L22.6873 3.00718L23.4406 2.44489L22.8783 1.69161Z" fill="black"/>
<path d="M22.3216 0.945517L21.5684 1.50781L22.1307 2.26109L22.8839 1.69879L22.3216 0.945517Z" fill="black"/>
<path d="M21.765 0.187723L21.0117 0.75L21.574 1.50328L22.3273 0.940999L21.765 0.187723Z" fill="black"/>
<path d="M28.2904 10.5119L27.5371 11.0742L28.0994 11.8275L28.8527 11.2652L28.2904 10.5119Z" fill="black"/>
<path d="M27.7337 9.76583L26.9805 10.3281L27.5428 11.0814L28.296 10.5191L27.7337 9.76583Z" fill="#FFB806"/>
<path d="M27.1752 9.00997L26.4219 9.57227L26.9842 10.3255L27.7374 9.76325L27.1752 9.00997Z" fill="#FFB806"/>
<path d="M26.6185 8.26388L25.8652 8.82617L26.4275 9.57945L27.1808 9.01715L26.6185 8.26388Z" fill="#FFB806"/>
<path d="M26.0502 7.50802L25.2969 8.07031L25.8592 8.82359L26.6124 8.26129L26.0502 7.50802Z" fill="#FFB806"/>
<path d="M25.4877 6.75411L24.7344 7.31641L25.2967 8.06968L26.0499 7.50739L25.4877 6.75411Z" fill="#FFB806"/>
<path d="M24.931 5.99825L24.1777 6.56055L24.74 7.31382L25.4933 6.75153L24.931 5.99825Z" fill="#FFB806"/>
<path d="M24.3724 5.25216L23.6191 5.81445L24.1814 6.56773L24.9347 6.00543L24.3724 5.25216Z" fill="#FFB806"/>
<path d="M23.806 4.50606L23.0527 5.06836L23.615 5.82164L24.3683 5.25934L23.806 4.50606Z" fill="#FFB806"/>
<path d="M23.2474 3.7502L22.4941 4.3125L23.0564 5.06578L23.8097 4.50348L23.2474 3.7502Z" fill="#FFB806"/>
<path d="M22.6908 3.00411L21.9375 3.56641L22.4998 4.31968L23.2531 3.75739L22.6908 3.00411Z" fill="#FFB806"/>
<path d="M22.1322 2.24825L21.3789 2.81055L21.9412 3.56382L22.6945 3.00153L22.1322 2.24825Z" fill="#FFB806"/>
<path d="M21.5658 1.50216L20.8125 2.06445L21.3748 2.81773L22.1281 2.25543L21.5658 1.50216Z" fill="#FFB806"/>
<path d="M21.0091 0.746317L20.2559 1.30859L20.8182 2.06187L21.5714 1.49959L21.0091 0.746317Z" fill="#FFB806"/>
<path d="M20.4505 0.000204861L19.6973 0.5625L20.2596 1.31578L21.0128 0.753482L20.4505 0.000204861Z" fill="black"/>
<path d="M27.5443 11.0705L26.791 11.6328L27.3533 12.3861L28.1066 11.8238L27.5443 11.0705Z" fill="black"/>
<path d="M26.9877 10.3244L26.2344 10.8867L26.7967 11.64L27.5499 11.0777L26.9877 10.3244Z" fill="#FFB806"/>
<path d="M26.4193 9.56856L25.666 10.1309L26.2283 10.8841L26.9816 10.3218L26.4193 9.56856Z" fill="#FFF803"/>
<path d="M25.8627 8.82247L25.1094 9.38477L25.6717 10.138L26.4249 9.57575L25.8627 8.82247Z" fill="#FFF803"/>
<path d="M25.3041 8.07638L24.5508 8.63867L25.1131 9.39195L25.8664 8.82965L25.3041 8.07638Z" fill="#FFF803"/>
<path d="M24.7474 7.32052L23.9941 7.88281L24.5564 8.63609L25.3097 8.07379L24.7474 7.32052Z" fill="#FFF803"/>
<path d="M24.1732 6.56661L23.4199 7.12891L23.9822 7.88218L24.7355 7.31989L24.1732 6.56661Z" fill="#FFF803"/>
<path d="M23.6166 5.8088L22.8633 6.37109L23.4256 7.12437L24.1789 6.56208L23.6166 5.8088Z" fill="#FFF803"/>
<path d="M23.0599 5.0627L22.3066 5.625L22.8689 6.37828L23.6222 5.81598L23.0599 5.0627Z" fill="#FFF803"/>
<path d="M22.5013 4.30685L21.748 4.86914L22.3103 5.62242L23.0636 5.06012L22.5013 4.30685Z" fill="#FFF803"/>
<path d="M21.9349 3.56075L21.1816 4.12305L21.7439 4.87633L22.4972 4.31403L21.9349 3.56075Z" fill="#FFF803"/>
<path d="M21.3763 2.81466L20.623 3.37695L21.1853 4.13023L21.9386 3.56794L21.3763 2.81466Z" fill="#FFF803"/>
<path d="M20.8197 2.0588L20.0664 2.62109L20.6287 3.37437L21.382 2.81208L20.8197 2.0588Z" fill="#FFF803"/>
<path d="M20.263 1.31272L19.5098 1.875L20.0721 2.62828L20.8253 2.066L20.263 1.31272Z" fill="#FFB806"/>
<path d="M19.7045 0.556845L18.9512 1.11914L19.5135 1.87242L20.2667 1.31012L19.7045 0.556845Z" fill="black"/>
<path d="M26.7884 11.6272L26.0352 12.1895L26.5975 12.9427L27.3507 12.3805L26.7884 11.6272Z" fill="black"/>
<path d="M26.2318 10.8811L25.4785 11.4434L26.0408 12.1966L26.7941 11.6343L26.2318 10.8811Z" fill="#FFB806"/>
<path d="M25.6732 10.135L24.9199 10.6973L25.4822 11.4505L26.2355 10.8882L25.6732 10.135Z" fill="#FFF803"/>
<path d="M25.1166 9.37911L24.3633 9.94141L24.9256 10.6947L25.6789 10.1324L25.1166 9.37911Z" fill="#FFF803"/>
<path d="M24.5482 8.63302L23.7949 9.19531L24.3572 9.94859L25.1105 9.3863L24.5482 8.63302Z" fill="#FFF803"/>
<path d="M23.9916 7.87716L23.2383 8.43945L23.8006 9.19273L24.5539 8.63044L23.9916 7.87716Z" fill="#FFF803"/>
<path d="M23.4271 7.12325L22.6738 7.68555L23.2361 8.43882L23.9894 7.87653L23.4271 7.12325Z" fill="#FFF803"/>
<path d="M22.8705 6.36739L22.1172 6.92969L22.6795 7.68296L23.4328 7.12067L22.8705 6.36739Z" fill="#FFF803"/>
<path d="M22.3138 5.6213L21.5605 6.18359L22.1228 6.93687L22.8761 6.37457L22.3138 5.6213Z" fill="#FFF803"/>
<path d="M21.7455 4.8752L20.9922 5.4375L21.5545 6.19078L22.3078 5.62848L21.7455 4.8752Z" fill="#FFF803"/>
<path d="M21.1888 4.11935L20.4355 4.68164L20.9978 5.43492L21.7511 4.87262L21.1888 4.11935Z" fill="#FFF803"/>
<path d="M20.6302 3.37325L19.877 3.93555L20.4392 4.68882L21.1925 4.12653L20.6302 3.37325Z" fill="#FFF803"/>
<path d="M20.0736 2.61739L19.3203 3.17969L19.8826 3.93296L20.6359 3.37067L20.0736 2.61739Z" fill="#FFF803"/>
<path d="M19.5052 1.87132L18.752 2.43359L19.3142 3.18687L20.0675 2.62459L19.5052 1.87132Z" fill="#FFB806"/>
<path d="M18.9486 1.1252L18.1953 1.6875L18.7576 2.44078L19.5109 1.87848L18.9486 1.1252Z" fill="black"/>
<path d="M26.0423 12.1955L25.2891 12.7578L25.8514 13.5111L26.6046 12.9488L26.0423 12.1955Z" fill="black"/>
<path d="M25.4857 11.4377L24.7324 12L25.2947 12.7533L26.048 12.191L25.4857 11.4377Z" fill="#FFB806"/>
<path d="M24.9173 10.6936L24.1641 11.2559L24.7264 12.0091L25.4796 11.4468L24.9173 10.6936Z" fill="#FFF803"/>
<path d="M24.3607 9.93575L23.6074 10.498L24.1697 11.2513L24.923 10.689L24.3607 9.93575Z" fill="#FFF803"/>
<path d="M23.8021 9.18966L23.0488 9.75195L23.6111 10.5052L24.3644 9.94293L23.8021 9.18966Z" fill="#FFF803"/>
<path d="M23.2455 8.44356L22.4922 9.00586L23.0545 9.75914L23.8078 9.19684L23.2455 8.44356Z" fill="#FFF803"/>
<path d="M22.6888 7.6877L21.9355 8.25L22.4978 9.00328L23.2511 8.44098L22.6888 7.6877Z" fill="#FFF803"/>
<path d="M22.1146 6.9338L21.3613 7.49609L21.9236 8.24937L22.6769 7.68707L22.1146 6.9338Z" fill="#FFF803"/>
<path d="M21.558 6.17794L20.8047 6.74023L21.367 7.49351L22.1203 6.93121L21.558 6.17794Z" fill="#FFF803"/>
<path d="M20.9994 5.43185L20.2461 5.99414L20.8084 6.74742L21.5617 6.18512L20.9994 5.43185Z" fill="#FFF803"/>
<path d="M20.4427 4.67599L19.6895 5.23828L20.2517 5.99156L21.005 5.42926L20.4427 4.67599Z" fill="#FFF803"/>
<path d="M19.8744 3.92989L19.1211 4.49219L19.6834 5.24546L20.4367 4.68317L19.8744 3.92989Z" fill="#FFF803"/>
<path d="M19.3177 3.1838L18.5645 3.74609L19.1267 4.49937L19.88 3.93707L19.3177 3.1838Z" fill="#FFF803"/>
<path d="M18.7611 2.42796L18.0078 2.99023L18.5701 3.74351L19.3234 3.18123L18.7611 2.42796Z" fill="#FFB806"/>
<path d="M18.2025 1.68185L17.4492 2.24414L18.0115 2.99742L18.7648 2.43512L18.2025 1.68185Z" fill="black"/>
<path d="M25.2962 12.7522L24.543 13.3145L25.1053 14.0677L25.8585 13.5055L25.2962 12.7522Z" fill="black"/>
<path d="M24.7298 12.0061L23.9766 12.5684L24.5389 13.3216L25.2921 12.7593L24.7298 12.0061Z" fill="#FFB806"/>
<path d="M24.1712 11.2502L23.418 11.8125L23.9803 12.5658L24.7335 12.0035L24.1712 11.2502Z" fill="#FFF803"/>
<path d="M23.6146 10.5041L22.8613 11.0664L23.4236 11.8197L24.1769 11.2574L23.6146 10.5041Z" fill="#FFF803"/>
<path d="M23.056 9.74825L22.3027 10.3105L22.865 11.0638L23.6183 10.5015L23.056 9.74825Z" fill="#FFF803"/>
<path d="M22.4896 9.00216L21.7363 9.56445L22.2986 10.3177L23.0519 9.75543L22.4896 9.00216Z" fill="#FFF803"/>
<path d="M21.931 8.2463L21.1777 8.80859L21.74 9.56187L22.4933 8.99957L21.931 8.2463Z" fill="#FFF803"/>
<path d="M21.3685 7.49239L20.6152 8.05469L21.1775 8.80797L21.9308 8.24567L21.3685 7.49239Z" fill="#FFF803"/>
<path d="M20.8119 6.7463L20.0586 7.30859L20.6209 8.06187L21.3742 7.49958L20.8119 6.7463Z" fill="#FFF803"/>
<path d="M20.2435 5.99044L19.4902 6.55273L20.0525 7.30601L20.8058 6.74372L20.2435 5.99044Z" fill="#FFF803"/>
<path d="M19.6869 5.24435L18.9336 5.80664L19.4959 6.55992L20.2492 5.99762L19.6869 5.24435Z" fill="#FFF803"/>
<path d="M19.1283 4.48849L18.375 5.05078L18.9373 5.80406L19.6906 5.24176L19.1283 4.48849Z" fill="#FFF803"/>
<path d="M18.5716 3.74239L17.8184 4.30469L18.3807 5.05797L19.1339 4.49567L18.5716 3.74239Z" fill="#FFF803"/>
<path d="M18.015 2.98655L17.2617 3.54883L17.824 4.30211L18.5773 3.73983L18.015 2.98655Z" fill="#FFB806"/>
<path d="M17.4466 2.24044L16.6934 2.80273L17.2557 3.55601L18.0089 2.99372L17.4466 2.24044Z" fill="black"/>
<path d="M24.5404 13.3088L23.7871 13.8711L24.3494 14.6244L25.1027 14.0621L24.5404 13.3088Z" fill="black"/>
<path d="M23.9837 12.5627L23.2305 13.125L23.7928 13.8783L24.546 13.316L23.9837 12.5627Z" fill="#FFF803"/>
<path d="M23.4252 11.8068L22.6719 12.3691L23.2342 13.1224L23.9874 12.5601L23.4252 11.8068Z" fill="#FFF803"/>
<path d="M22.8587 11.0608L22.1055 11.623L22.6678 12.3763L23.421 11.814L22.8587 11.0608Z" fill="#FFF803"/>
<path d="M22.3002 10.3049L21.5469 10.8672L22.1092 11.6205L22.8624 11.0582L22.3002 10.3049Z" fill="#FFF803"/>
<path d="M21.7435 9.5588L20.9902 10.1211L21.5525 10.8744L22.3058 10.3121L21.7435 9.5588Z" fill="#FFF803"/>
<path d="M21.1849 8.8127L20.4316 9.375L20.9939 10.1283L21.7472 9.56598L21.1849 8.8127Z" fill="#FFF803"/>
<path d="M20.6185 8.05685L19.8652 8.61914L20.4275 9.37242L21.1808 8.81012L20.6185 8.05685Z" fill="#FFF803"/>
<path d="M20.056 7.30294L19.3027 7.86523L19.865 8.61851L20.6183 8.05621L20.056 7.30294Z" fill="#FFF803"/>
<path d="M19.4974 6.54708L18.7441 7.10938L19.3064 7.86265L20.0597 7.30036L19.4974 6.54708Z" fill="#FFF803"/>
<path d="M18.9408 5.80099L18.1875 6.36328L18.7498 7.11656L19.5031 6.55426L18.9408 5.80099Z" fill="#FFF803"/>
<path d="M18.3822 5.04513L17.6289 5.60742L18.1912 6.3607L18.9445 5.7984L18.3822 5.04513Z" fill="#FFF803"/>
<path d="M17.8158 4.29903L17.0625 4.86133L17.6248 5.6146L18.3781 5.05231L17.8158 4.29903Z" fill="#FFF803"/>
<path d="M17.2572 3.55296L16.5039 4.11523L17.0662 4.86851L17.8195 4.30623L17.2572 3.55296Z" fill="#FFB806"/>
<path d="M16.7005 2.79708L15.9473 3.35938L16.5096 4.11265L17.2628 3.55036L16.7005 2.79708Z" fill="black"/>
<path d="M23.2259 13.1213L22.4727 13.6836L23.0349 14.4369L23.7882 13.8746L23.2259 13.1213Z" fill="black"/>
<path d="M22.6693 12.3752L21.916 12.9375L22.4783 13.6908L23.2316 13.1285L22.6693 12.3752Z" fill="#FFB806"/>
<path d="M22.1127 11.6193L21.3594 12.1816L21.9217 12.9349L22.6749 12.3726L22.1127 11.6193Z" fill="#FFF803"/>
<path d="M21.5541 10.8733L20.8008 11.4355L21.3631 12.1888L22.1164 11.6265L21.5541 10.8733Z" fill="#FFF803"/>
<path d="M20.9974 10.1174L20.2441 10.6797L20.8064 11.433L21.5597 10.8707L20.9974 10.1174Z" fill="#FFF803"/>
<path d="M20.4291 9.3713L19.6758 9.93359L20.2381 10.6869L20.9914 10.1246L20.4291 9.3713Z" fill="#FFF803"/>
<path d="M19.8724 8.61544L19.1191 9.17773L19.6814 9.93101L20.4347 9.36871L19.8724 8.61544Z" fill="#FFF803"/>
<path d="M19.3099 7.86153L18.5566 8.42383L19.1189 9.1771L19.8722 8.61481L19.3099 7.86153Z" fill="#FFF803"/>
<path d="M18.7513 7.11544L17.998 7.67773L18.5603 8.43101L19.3136 7.86871L18.7513 7.11544Z" fill="#FFF803"/>
<path d="M18.1849 6.35763L17.4316 6.91992L17.9939 7.6732L18.7472 7.1109L18.1849 6.35763Z" fill="#FFF803"/>
<path d="M17.6263 5.61153L16.873 6.17383L17.4353 6.9271L18.1886 6.36481L17.6263 5.61153Z" fill="#FFF803"/>
<path d="M17.0697 4.85567L16.3164 5.41797L16.8787 6.17124L17.632 5.60895L17.0697 4.85567Z" fill="#FFB806"/>
<path d="M16.513 4.1096L15.7598 4.67188L16.3221 5.42515L17.0753 4.86287L16.513 4.1096Z" fill="black"/>
<path d="M21.9232 12.9318L21.1699 13.4941L21.7322 14.2474L22.4855 13.6851L21.9232 12.9318Z" fill="black"/>
<path d="M21.3666 12.176L20.6133 12.7383L21.1756 13.4916L21.9289 12.9293L21.3666 12.176Z" fill="#FFB806"/>
<path d="M20.7982 11.4299L20.0449 11.9922L20.6072 12.7455L21.3605 12.1832L20.7982 11.4299Z" fill="#FFF803"/>
<path d="M20.2416 10.674L19.4883 11.2363L20.0506 11.9896L20.8039 11.4273L20.2416 10.674Z" fill="#FFF803"/>
<path d="M19.683 9.92794L18.9297 10.4902L19.492 11.2435L20.2453 10.6812L19.683 9.92794Z" fill="#FFF803"/>
<path d="M19.1263 9.18185L18.373 9.74414L18.9353 10.4974L19.6886 9.93512L19.1263 9.18185Z" fill="#FFF803"/>
<path d="M18.5599 8.42599L17.8066 8.98828L18.3689 9.74156L19.1222 9.17926L18.5599 8.42599Z" fill="#FFF803"/>
<path d="M17.9955 7.67208L17.2422 8.23438L17.8045 8.98765L18.5578 8.42536L17.9955 7.67208Z" fill="#FFF803"/>
<path d="M17.4388 6.91622L16.6855 7.47852L17.2478 8.23179L18.0011 7.6695L17.4388 6.91622Z" fill="#FFF803"/>
<path d="M16.8802 6.17013L16.127 6.73242L16.6892 7.4857L17.4425 6.92341L16.8802 6.17013Z" fill="#FFB806"/>
<path d="M16.3138 5.42403L15.5605 5.98633L16.1228 6.73961L16.8761 6.17731L16.3138 5.42403Z" fill="black"/>
<path d="M21.1673 13.4904L20.4141 14.0527L20.9764 14.806L21.7296 14.2437L21.1673 13.4904Z" fill="black"/>
<path d="M20.6107 12.7443L19.8574 13.3066L20.4197 14.0599L21.173 13.4976L20.6107 12.7443Z" fill="#FFB806"/>
<path d="M20.0521 11.9885L19.2988 12.5508L19.8611 13.3041L20.6144 12.7418L20.0521 11.9885Z" fill="#FFB806"/>
<path d="M19.4955 11.2424L18.7422 11.8047L19.3045 12.558L20.0578 11.9957L19.4955 11.2424Z" fill="#FFB806"/>
<path d="M18.9271 10.4846L18.1738 11.0469L18.7361 11.8002L19.4894 11.2379L18.9271 10.4846Z" fill="#FFF803"/>
<path d="M18.3705 9.73849L17.6172 10.3008L18.1795 11.0541L18.9328 10.4918L18.3705 9.73849Z" fill="#FFB806"/>
<path d="M17.8138 8.98263L17.0605 9.54492L17.6228 10.2982L18.3761 9.73591L17.8138 8.98263Z" fill="#FFB806"/>
<path d="M17.2494 8.22872L16.4961 8.79102L17.0584 9.54429L17.8117 8.982L17.2494 8.22872Z" fill="#FFF803"/>
<path d="M16.6927 7.48263L15.9395 8.04492L16.5017 8.7982L17.255 8.2359L16.6927 7.48263Z" fill="#FFB806"/>
<path d="M16.1244 6.72677L15.3711 7.28906L15.9334 8.04234L16.6867 7.48004L16.1244 6.72677Z" fill="#FFB806"/>
<path d="M15.5677 5.98067L14.8145 6.54297L15.3767 7.29624L16.13 6.73395L15.5677 5.98067Z" fill="black"/>
<path d="M20.4212 14.0471L19.668 14.6094L20.2303 15.3627L20.9835 14.8004L20.4212 14.0471Z" fill="black"/>
<path d="M19.8646 13.301L19.1113 13.8633L19.6736 14.6166L20.4269 14.0543L19.8646 13.301Z" fill="#FFB806"/>
<path d="M19.2962 12.5451L18.543 13.1074L19.1053 13.8607L19.8585 13.2984L19.2962 12.5451Z" fill="#FFF803"/>
<path d="M18.7396 11.799L17.9863 12.3613L18.5486 13.1146L19.3019 12.5523L18.7396 11.799Z" fill="#FFF803"/>
<path d="M18.181 11.0529L17.4277 11.6152L17.99 12.3685L18.7433 11.8062L18.181 11.0529Z" fill="#FFF803"/>
<path d="M17.6244 10.2971L16.8711 10.8594L17.4334 11.6127L18.1867 11.0504L17.6244 10.2971Z" fill="#FFF803"/>
<path d="M17.0677 9.55099L16.3145 10.1133L16.8767 10.8666L17.63 10.3043L17.0677 9.55099Z" fill="#FFF803"/>
<path d="M16.4994 8.79513L15.7461 9.35742L16.3084 10.1107L17.0617 9.5484L16.4994 8.79513Z" fill="#FFF803"/>
<path d="M15.9369 8.04122L15.1836 8.60352L15.7459 9.35679L16.4992 8.7945L15.9369 8.04122Z" fill="#FFF803"/>
<path d="M15.3783 7.28536L14.625 7.84766L15.1873 8.60093L15.9406 8.03864L15.3783 7.28536Z" fill="#FFB806"/>
<path d="M14.8216 6.53927L14.0684 7.10156L14.6307 7.85484L15.3839 7.29255L14.8216 6.53927Z" fill="black"/>
<path d="M20.2318 15.3596L19.4785 15.9219L20.0408 16.6752L20.7941 16.1129L20.2318 15.3596Z" fill="black"/>
<path d="M19.6654 14.6037L18.9121 15.166L19.4744 15.9193L20.2277 15.357L19.6654 14.6037Z" fill="#FFB806"/>
<path d="M19.1087 13.8576L18.3555 14.4199L18.9178 15.1732L19.671 14.6109L19.1087 13.8576Z" fill="#FFB806"/>
<path d="M18.5502 13.1115L17.7969 13.6738L18.3592 14.4271L19.1124 13.8648L18.5502 13.1115Z" fill="#FFF803"/>
<path d="M17.9935 12.3557L17.2402 12.918L17.8025 13.6712L18.5558 13.1089L17.9935 12.3557Z" fill="#FFF803"/>
<path d="M17.4349 11.6096L16.6816 12.1719L17.2439 12.9252L17.9972 12.3629L17.4349 11.6096Z" fill="#FFF803"/>
<path d="M16.8685 10.8537L16.1152 11.416L16.6775 12.1693L17.4308 11.607L16.8685 10.8537Z" fill="#FFF803"/>
<path d="M16.3099 10.1076L15.5566 10.6699L16.1189 11.4232L16.8722 10.8609L16.3099 10.1076Z" fill="#FFF803"/>
<path d="M15.7533 9.35177L15 9.91406L15.5623 10.6673L16.3156 10.105L15.7533 9.35177Z" fill="#FFF803"/>
<path d="M15.1908 8.59786L14.4375 9.16016L14.9998 9.91343L15.7531 9.35114L15.1908 8.59786Z" fill="#FFF803"/>
<path d="M14.6224 7.85177L13.8691 8.41406L14.4314 9.16734L15.1847 8.60504L14.6224 7.85177Z" fill="#FFB806"/>
<path d="M14.0658 7.09591L13.3125 7.6582L13.8748 8.41148L14.6281 7.84918L14.0658 7.09591Z" fill="#FFB806"/>
<path d="M13.5072 6.34983L12.7539 6.91211L13.3162 7.66539L14.0695 7.10311L13.5072 6.34983Z" fill="black"/>
<path d="M20.0443 16.6741L19.291 17.2363L19.8533 17.9896L20.6066 17.4273L20.0443 16.6741Z" fill="black"/>
<path d="M19.4759 15.9182L18.7227 16.4805L19.285 17.2337L20.0382 16.6715L19.4759 15.9182Z" fill="#FFB806"/>
<path d="M18.9193 15.1721L18.166 15.7344L18.7283 16.4877L19.4816 15.9254L18.9193 15.1721Z" fill="#FFB806"/>
<path d="M18.3627 14.4162L17.6094 14.9785L18.1717 15.7318L18.9249 15.1695L18.3627 14.4162Z" fill="#FFF803"/>
<path d="M17.8041 13.6701L17.0508 14.2324L17.6131 14.9857L18.3664 14.4234L17.8041 13.6701Z" fill="#FFF803"/>
<path d="M17.2377 12.9143L16.4844 13.4766L17.0467 14.2298L17.7999 13.6675L17.2377 12.9143Z" fill="#FFF803"/>
<path d="M16.6791 12.1682L15.9258 12.7305L16.4881 13.4837L17.2414 12.9215L16.6791 12.1682Z" fill="#FFF803"/>
<path d="M16.1224 11.4221L15.3691 11.9844L15.9314 12.7377L16.6847 12.1754L16.1224 11.4221Z" fill="#FFF803"/>
<path d="M15.5658 10.6662L14.8125 11.2285L15.3748 11.9818L16.1281 11.4195L15.5658 10.6662Z" fill="#FFF803"/>
<path d="M14.9974 9.92013L14.2441 10.4824L14.8064 11.2357L15.5597 10.6734L14.9974 9.92013Z" fill="#FFF803"/>
<path d="M14.4408 9.16427L13.6875 9.72656L14.2498 10.4798L15.0031 9.91755L14.4408 9.16427Z" fill="#FFF803"/>
<path d="M13.8763 8.41036L13.123 8.97266L13.6853 9.72593L14.4386 9.16364L13.8763 8.41036Z" fill="#FFF803"/>
<path d="M13.3119 7.66036L12.5586 8.22266L13.1209 8.97593L13.8742 8.41364L13.3119 7.66036Z" fill="#FFB806"/>
<path d="M12.7533 6.91427L12 7.47656L12.5623 8.22984L13.3156 7.66754L12.7533 6.91427Z" fill="#FFB806"/>
<path d="M12.1869 6.16817L11.4336 6.73047L11.9959 7.48374L12.7492 6.92145L12.1869 6.16817Z" fill="black"/>
<path d="M19.2884 17.2307L18.5352 17.793L19.0974 18.5462L19.8507 17.984L19.2884 17.2307Z" fill="black"/>
<path d="M18.7298 16.4748L17.9766 17.0371L18.5389 17.7904L19.2921 17.2281L18.7298 16.4748Z" fill="#FFB806"/>
<path d="M18.1732 15.7287L17.4199 16.291L17.9822 17.0443L18.7355 16.482L18.1732 15.7287Z" fill="#FFF803"/>
<path d="M17.6068 14.9826L16.8535 15.5449L17.4158 16.2982L18.1691 15.7359L17.6068 14.9826Z" fill="#FFF803"/>
<path d="M17.0482 14.2268L16.2949 14.7891L16.8572 15.5423L17.6105 14.98L17.0482 14.2268Z" fill="#FFF803"/>
<path d="M16.4916 13.4807L15.7383 14.043L16.3006 14.7962L17.0539 14.2339L16.4916 13.4807Z" fill="#FFF803"/>
<path d="M15.933 12.7248L15.1797 13.2871L15.742 14.0404L16.4953 13.4781L15.933 12.7248Z" fill="#FFF803"/>
<path d="M15.3666 11.9787L14.6133 12.541L15.1756 13.2943L15.9289 12.732L15.3666 11.9787Z" fill="#FFF803"/>
<path d="M14.808 11.2229L14.0547 11.7852L14.617 12.5384L15.3703 11.9761L14.808 11.2229Z" fill="#FFF803"/>
<path d="M14.2513 10.4768L13.498 11.0391L14.0603 11.7923L14.8136 11.23L14.2513 10.4768Z" fill="#FFF803"/>
<path d="M13.6869 9.73653L12.9336 10.2988L13.4959 11.0521L14.2492 10.4898L13.6869 9.73653Z" fill="#FFF803"/>
<path d="M13.1224 8.97286L12.3691 9.53516L12.9314 10.2884L13.6847 9.72614L13.1224 8.97286Z" fill="#FFF803"/>
<path d="M12.556 8.22677L11.8027 8.78906L12.365 9.54234L13.1183 8.98005L12.556 8.22677Z" fill="#FFF803"/>
<path d="M11.9974 7.47091L11.2441 8.0332L11.8064 8.78648L12.5597 8.22419L11.9974 7.47091Z" fill="#FFB806"/>
<path d="M11.4408 6.72481L10.6875 7.28711L11.2498 8.04039L12.0031 7.47809L11.4408 6.72481Z" fill="black"/>
<path d="M18.5423 17.7893L17.7891 18.3516L18.3514 19.1048L19.1046 18.5426L18.5423 17.7893Z" fill="black"/>
<path d="M17.974 17.0432L17.2207 17.6055L17.783 18.3587L18.5363 17.7965L17.974 17.0432Z" fill="#FFB806"/>
<path d="M17.4173 16.2873L16.6641 16.8496L17.2264 17.6029L17.9796 17.0406L17.4173 16.2873Z" fill="#FFF803"/>
<path d="M16.8607 15.5412L16.1074 16.1035L16.6697 16.8568L17.423 16.2945L16.8607 15.5412Z" fill="#FFF803"/>
<path d="M16.3021 14.7854L15.5488 15.3477L16.1111 16.1009L16.8644 15.5386L16.3021 14.7854Z" fill="#FFF803"/>
<path d="M15.7455 14.0393L14.9922 14.6016L15.5545 15.3548L16.3078 14.7925L15.7455 14.0393Z" fill="#FFF803"/>
<path d="M15.1771 13.2834L14.4238 13.8457L14.9861 14.599L15.7394 14.0367L15.1771 13.2834Z" fill="#A35500"/>
<path d="M14.6205 12.5373L13.8672 13.0996L14.4295 13.8529L15.1828 13.2906L14.6205 12.5373Z" fill="#A35500"/>
<path d="M14.0541 11.7971L13.3008 12.3594L13.8631 13.1127L14.6164 12.5504L14.0541 11.7971Z" fill="#A35500"/>
<path d="M13.4974 11.0412L12.7441 11.6035L13.3064 12.3568L14.0597 11.7945L13.4974 11.0412Z" fill="#FFF803"/>
<path d="M12.9291 10.2951L12.1758 10.8574L12.7381 11.6107L13.4914 11.0484L12.9291 10.2951Z" fill="#FFF803"/>
<path d="M12.3724 9.53731L11.6191 10.0996L12.1814 10.8529L12.9347 10.2906L12.3724 9.53731Z" fill="#FFF803"/>
<path d="M11.8099 8.78341L11.0566 9.3457L11.6189 10.099L12.3722 9.53668L11.8099 8.78341Z" fill="#FFF803"/>
<path d="M11.2513 8.02755L10.498 8.58984L11.0603 9.34312L11.8136 8.78082L11.2513 8.02755Z" fill="#FFB806"/>
<path d="M10.6849 7.28145L9.93164 7.84375L10.4939 8.59703L11.2472 8.03473L10.6849 7.28145Z" fill="black"/>
<path d="M17.7865 18.3459L17.0332 18.9082L17.5955 19.6615L18.3488 19.0992L17.7865 18.3459Z" fill="black"/>
<path d="M17.2279 17.5998L16.4746 18.1621L17.0369 18.9154L17.7902 18.3531L17.2279 17.5998Z" fill="#FFB806"/>
<path d="M16.6712 16.844L15.918 17.4062L16.4803 18.1595L17.2335 17.5972L16.6712 16.844Z" fill="#FFF803"/>
<path d="M16.1146 16.0979L15.3613 16.6602L15.9236 17.4134L16.6769 16.8511L16.1146 16.0979Z" fill="#FFF803"/>
<path d="M15.5462 15.3518L14.793 15.9141L15.3553 16.6673L16.1085 16.105L15.5462 15.3518Z" fill="#A35500"/>
<path d="M14.9896 14.5959L14.2363 15.1582L14.7986 15.9115L15.5519 15.3492L14.9896 14.5959Z" fill="#A35500"/>
<path d="M14.4232 13.8557L13.6699 14.418L14.2322 15.1712L14.9855 14.6089L14.4232 13.8557Z" fill="#FFF803"/>
<path d="M13.8666 13.0998L13.1133 13.6621L13.6756 14.4154L14.4289 13.8531L13.8666 13.0998Z" fill="#FFF803"/>
<path d="M13.2982 12.3537L12.5449 12.916L13.1072 13.6693L13.8605 13.107L13.2982 12.3537Z" fill="#A35500"/>
<path d="M12.7416 11.5979L11.9883 12.1602L12.5506 12.9134L13.3039 12.3511L12.7416 11.5979Z" fill="#FFF803"/>
<path d="M12.1849 10.8518L11.4316 11.4141L11.9939 12.1673L12.7472 11.605L12.1849 10.8518Z" fill="#FFF803"/>
<path d="M11.6263 10.1057L10.873 10.668L11.4353 11.4212L12.1886 10.8589L11.6263 10.1057Z" fill="#FFF803"/>
<path d="M11.0541 9.342L10.3008 9.9043L10.8631 10.6576L11.6164 10.0953L11.0541 9.342Z" fill="#FFF803"/>
<path d="M10.4955 8.59591L9.74219 9.1582L10.3045 9.91148L11.0578 9.34918L10.4955 8.59591Z" fill="#FFB806"/>
<path d="M9.93883 7.84005L9.18555 8.40234L9.74784 9.15562L10.5011 8.59332L9.93883 7.84005Z" fill="black"/>
<path d="M17.0404 18.9026L16.2871 19.4648L16.8494 20.2181L17.6027 19.6558L17.0404 18.9026Z" fill="black"/>
<path d="M16.4818 18.1584L15.7285 18.7207L16.2908 19.474L17.0441 18.9117L16.4818 18.1584Z" fill="#FFB806"/>
<path d="M15.9154 17.4123L15.1621 17.9746L15.7244 18.7279L16.4777 18.1656L15.9154 17.4123Z" fill="#FFF803"/>
<path d="M15.3568 16.6545L14.6035 17.2168L15.1658 17.9701L15.9191 17.4078L15.3568 16.6545Z" fill="#FFF803"/>
<path d="M14.7923 15.9162L14.0391 16.4785L14.6014 17.2318L15.3546 16.6695L14.7923 15.9162Z" fill="#FFF803"/>
<path d="M14.2357 15.1584L13.4824 15.7207L14.0447 16.474L14.798 15.9117L14.2357 15.1584Z" fill="#FFF803"/>
<path d="M13.6673 14.4123L12.9141 14.9746L13.4764 15.7279L14.2296 15.1656L13.6673 14.4123Z" fill="#FFF803"/>
<path d="M13.1107 13.6565L12.3574 14.2188L12.9197 14.972L13.673 14.4097L13.1107 13.6565Z" fill="#FFF803"/>
<path d="M12.5521 12.9104L11.7988 13.4727L12.3611 14.2259L13.1144 13.6636L12.5521 12.9104Z" fill="#A35500"/>
<path d="M11.9955 12.1643L11.2422 12.7266L11.8045 13.4798L12.5578 12.9175L11.9955 12.1643Z" fill="#FFF803"/>
<path d="M11.4388 11.4084L10.6855 11.9707L11.2478 12.724L12.0011 12.1617L11.4388 11.4084Z" fill="#FFF803"/>
<path d="M10.8705 10.6623L10.1172 11.2246L10.6795 11.9779L11.4328 11.4156L10.8705 10.6623Z" fill="#FFF803"/>
<path d="M10.3138 9.90645L9.56055 10.4688L10.1228 11.222L10.8761 10.6597L10.3138 9.90645Z" fill="#FFF803"/>
<path d="M9.74937 9.15255L8.99609 9.71484L9.55839 10.4681L10.3117 9.90583L9.74937 9.15255Z" fill="#FFB806"/>
<path d="M9.19273 8.40645L8.43945 8.96875L9.00175 9.72203L9.75503 9.15973L9.19273 8.40645Z" fill="black"/>
<path d="M16.2845 19.4709L15.5312 20.0332L16.0935 20.7865L16.8468 20.2242L16.2845 19.4709Z" fill="black"/>
<path d="M15.7259 18.715L14.9727 19.2773L15.535 20.0306L16.2882 19.4683L15.7259 18.715Z" fill="#FFB806"/>
<path d="M15.1615 17.9748L14.4082 18.5371L14.9705 19.2904L15.7238 18.7281L15.1615 17.9748Z" fill="#FFF803"/>
<path d="M14.6029 17.219L13.8496 17.7812L14.4119 18.5345L15.1652 17.9722L14.6029 17.219Z" fill="#FFF803"/>
<path d="M14.0365 16.4729L13.2832 17.0352L13.8455 17.7884L14.5988 17.2262L14.0365 16.4729Z" fill="#A35500"/>
<path d="M13.4779 15.7268L12.7246 16.2891L13.2869 17.0423L14.0402 16.48L13.4779 15.7268Z" fill="#FFF803"/>
<path d="M12.9212 14.9709L12.168 15.5332L12.7303 16.2865L13.4835 15.7242L12.9212 14.9709Z" fill="#FFF803"/>
<path d="M12.3646 14.2248L11.6113 14.7871L12.1736 15.5404L12.9269 14.9781L12.3646 14.2248Z" fill="#FFF803"/>
<path d="M11.806 13.469L11.0527 14.0312L11.615 14.7845L12.3683 14.2222L11.806 13.469Z" fill="#FFF803"/>
<path d="M11.2396 12.7229L10.4863 13.2852L11.0486 14.0384L11.8019 13.4761L11.2396 12.7229Z" fill="#FFF803"/>
<path d="M10.681 11.967L9.92773 12.5293L10.49 13.2826L11.2433 12.7203L10.681 11.967Z" fill="#FFF803"/>
<path d="M10.1244 11.2209L9.37109 11.7832L9.93339 12.5365L10.6867 11.9742L10.1244 11.2209Z" fill="#FFF803"/>
<path d="M9.56773 10.4748L8.81445 11.0371L9.37675 11.7904L10.13 11.2281L9.56773 10.4748Z" fill="#FFF803"/>
<path d="M8.99351 9.71114L8.24023 10.2734L8.80253 11.0267L9.55581 10.4644L8.99351 9.71114Z" fill="#FFB806"/>
<path d="M8.43687 8.96505L7.68359 9.52734L8.24589 10.2806L8.99917 9.71832L8.43687 8.96505Z" fill="black"/>
<path d="M15.5306 20.0334L14.7773 20.5957L15.3396 21.349L16.0929 20.7867L15.5306 20.0334Z" fill="black"/>
<path d="M14.972 19.2873L14.2188 19.8496L14.781 20.6029L15.5343 20.0406L14.972 19.2873Z" fill="#FFB806"/>
<path d="M14.4154 18.5315L13.6621 19.0938L14.2244 19.847L14.9777 19.2847L14.4154 18.5315Z" fill="#FFF803"/>
<path d="M13.847 17.7854L13.0938 18.3477L13.656 19.1009L14.4093 18.5386L13.847 17.7854Z" fill="#FFF803"/>
<path d="M13.2904 17.0295L12.5371 17.5918L13.0994 18.3451L13.8527 17.7828L13.2904 17.0295Z" fill="#FFF803"/>
<path d="M12.7337 16.2834L11.9805 16.8457L12.5428 17.599L13.296 17.0367L12.7337 16.2834Z" fill="#FFF803"/>
<path d="M12.1752 15.5275L11.4219 16.0898L11.9842 16.8431L12.7374 16.2808L12.1752 15.5275Z" fill="#FFF803"/>
<path d="M11.6087 14.7815L10.8555 15.3438L11.4178 16.097L12.171 15.5347L11.6087 14.7815Z" fill="#FFF803"/>
<path d="M11.0502 14.0354L10.2969 14.5977L10.8592 15.3509L11.6124 14.7886L11.0502 14.0354Z" fill="#FFF803"/>
<path d="M10.4935 13.2795L9.74023 13.8418L10.3025 14.5951L11.0558 14.0328L10.4935 13.2795Z" fill="#FFF803"/>
<path d="M9.93492 12.5334L9.18164 13.0957L9.74393 13.849L10.4972 13.2867L9.93492 12.5334Z" fill="#FFF803"/>
<path d="M9.36851 11.7775L8.61523 12.3398L9.17753 13.0931L9.93081 12.5308L9.36851 11.7775Z" fill="#FFF803"/>
<path d="M8.81187 11.0315L8.05859 11.5938L8.62089 12.347L9.37417 11.7847L8.81187 11.0315Z" fill="#FFF803"/>
<path d="M8.25328 10.2756L7.5 10.8379L8.06229 11.5912L8.81557 11.0289L8.25328 10.2756Z" fill="#FFB806"/>
<path d="M7.69078 9.52169L6.9375 10.084L7.49979 10.8373L8.25307 10.275L7.69078 9.52169Z" fill="black"/>
<path d="M14.7845 20.592L14.0312 21.1543L14.5935 21.9076L15.3468 21.3453L14.7845 20.592Z" fill="black"/>
<path d="M14.2162 19.8459L13.4629 20.4082L14.0252 21.1615L14.7785 20.5992L14.2162 19.8459Z" fill="#FFB806"/>
<path d="M13.6595 19.09L12.9062 19.6523L13.4685 20.4056L14.2218 19.8433L13.6595 19.09Z" fill="#FFF803"/>
<path d="M13.1009 18.344L12.3477 18.9062L12.9099 19.6595L13.6632 19.0972L13.1009 18.344Z" fill="#FFF803"/>
<path d="M12.5443 17.5881L11.791 18.1504L12.3533 18.9037L13.1066 18.3414L12.5443 17.5881Z" fill="#A35500"/>
<path d="M11.9759 16.842L11.2227 17.4043L11.7849 18.1576L12.5382 17.5953L11.9759 16.842Z" fill="#A35500"/>
<path d="M11.4193 16.0959L10.666 16.6582L11.2283 17.4115L11.9816 16.8492L11.4193 16.0959Z" fill="#A35500"/>
<path d="M10.8627 15.34L10.1094 15.9023L10.6717 16.6556L11.4249 16.0933L10.8627 15.34Z" fill="#FFF803"/>
<path d="M10.3041 14.594L9.55078 15.1562L10.1131 15.9095L10.8664 15.3472L10.3041 14.594Z" fill="#FFF803"/>
<path d="M9.73765 13.8381L8.98438 14.4004L9.54667 15.1537L10.2999 14.5914L9.73765 13.8381Z" fill="#A35500"/>
<path d="M9.17906 13.092L8.42578 13.6543L8.98807 14.4076L9.74135 13.8453L9.17906 13.092Z" fill="#FFF803"/>
<path d="M8.62242 12.3361L7.86914 12.8984L8.43143 13.6517L9.18471 13.0894L8.62242 12.3361Z" fill="#FFF803"/>
<path d="M8.06578 11.59L7.3125 12.1523L7.87479 12.9056L8.62807 12.3433L8.06578 11.59Z" fill="#FFF803"/>
<path d="M7.50718 10.844L6.75391 11.4062L7.3162 12.1595L8.06948 11.5972L7.50718 10.844Z" fill="#FFB806"/>
<path d="M6.93492 10.0783L6.18164 10.6406L6.74394 11.3939L7.49721 10.8316L6.93492 10.0783Z" fill="black"/>
<path d="M14.0287 21.1486L13.2754 21.7109L13.8377 22.4642L14.591 21.9019L14.0287 21.1486Z" fill="black"/>
<path d="M13.4701 20.4025L12.7168 20.9648L13.2791 21.7181L14.0324 21.1558L13.4701 20.4025Z" fill="#FFB806"/>
<path d="M12.9134 19.6565L12.1602 20.2188L12.7225 20.972L13.4757 20.4097L12.9134 19.6565Z" fill="#FFF803"/>
<path d="M12.3451 18.9006L11.5918 19.4629L12.1541 20.2162L12.9074 19.6539L12.3451 18.9006Z" fill="#FFF803"/>
<path d="M11.7884 18.1545L11.0352 18.7168L11.5975 19.4701L12.3507 18.9078L11.7884 18.1545Z" fill="#FFF803"/>
<path d="M11.2298 17.3986L10.4766 17.9609L11.0389 18.7142L11.7921 18.1519L11.2298 17.3986Z" fill="#FFF803"/>
<path d="M10.6732 16.6525L9.91992 17.2148L10.4822 17.9681L11.2355 17.4058L10.6732 16.6525Z" fill="#FFF803"/>
<path d="M10.1166 15.8967L9.36328 16.459L9.92558 17.2123L10.6789 16.65L10.1166 15.8967Z" fill="#FFF803"/>
<path d="M9.5482 15.1506L8.79492 15.7129L9.35722 16.4662L10.1105 15.9039L9.5482 15.1506Z" fill="#FFF803"/>
<path d="M8.99156 14.4045L8.23828 14.9668L8.80058 15.7201L9.55386 15.1578L8.99156 14.4045Z" fill="#A35500"/>
<path d="M8.43297 13.6486L7.67969 14.2109L8.24198 14.9642L8.99526 14.4019L8.43297 13.6486Z" fill="#FFF803"/>
<path d="M7.87633 12.9025L7.12305 13.4648L7.68534 14.2181L8.43862 13.6558L7.87633 12.9025Z" fill="#FFF803"/>
<path d="M7.30992 12.1467L6.55664 12.709L7.11894 13.4623L7.87221 12.9L7.30992 12.1467Z" fill="#FFF803"/>
<path d="M6.75133 11.4006L5.99805 11.9629L6.56034 12.7162L7.31362 12.1539L6.75133 11.4006Z" fill="#FFB806"/>
<path d="M6.19468 10.6447L5.44141 11.207L6.0037 11.9603L6.75698 11.398L6.19468 10.6447Z" fill="black"/>
<path d="M13.2826 21.717L12.5293 22.2793L13.0916 23.0326L13.8449 22.4703L13.2826 21.717Z" fill="black"/>
<path d="M12.7142 20.9611L11.9609 21.5234L12.5232 22.2767L13.2765 21.7144L12.7142 20.9611Z" fill="#FFB806"/>
<path d="M12.1576 20.215L11.4043 20.7773L11.9666 21.5306L12.7199 20.9683L12.1576 20.215Z" fill="#FFF803"/>
<path d="M11.599 19.4592L10.8457 20.0215L11.408 20.7748L12.1613 20.2125L11.599 19.4592Z" fill="#FFF803"/>
<path d="M11.0423 18.7131L10.2891 19.2754L10.8514 20.0287L11.6046 19.4664L11.0423 18.7131Z" fill="#A35500"/>
<path d="M10.4857 17.9572L9.73242 18.5195L10.2947 19.2728L11.048 18.7105L10.4857 17.9572Z" fill="#A35500"/>
<path d="M9.91734 17.2111L9.16406 17.7734L9.72636 18.5267L10.4796 17.9644L9.91734 17.2111Z" fill="#A35500"/>
<path d="M9.3607 16.465L8.60742 17.0273L9.16971 17.7806L9.92299 17.2183L9.3607 16.465Z" fill="#A35500"/>
<path d="M8.80211 15.7072L8.04883 16.2695L8.61112 17.0228L9.3644 16.4605L8.80211 15.7072Z" fill="#A35500"/>
<path d="M8.24547 14.9631L7.49219 15.5254L8.05448 16.2787L8.80776 15.7164L8.24547 14.9631Z" fill="#A35500"/>
<path d="M7.67711 14.2053L6.92383 14.7676L7.48612 15.5209L8.2394 14.9586L7.67711 14.2053Z" fill="#FFF803"/>
<path d="M7.12047 13.4592L6.36719 14.0215L6.92948 14.7748L7.68276 14.2125L7.12047 13.4592Z" fill="#FFF803"/>
<path d="M6.56383 12.7131L5.81055 13.2754L6.37284 14.0287L7.12612 13.4664L6.56383 12.7131Z" fill="#FFF803"/>
<path d="M6.00523 11.9572L5.25195 12.5195L5.81425 13.2728L6.56752 12.7105L6.00523 11.9572Z" fill="#FFB806"/>
<path d="M5.43883 11.2111L4.68555 11.7734L5.24784 12.5267L6.00112 11.9644L5.43883 11.2111Z" fill="black"/>
<path d="M12.5248 22.2736L11.7715 22.8359L12.3338 23.5892L13.0871 23.0269L12.5248 22.2736Z" fill="black"/>
<path d="M11.9681 21.5178L11.2148 22.0801L11.7771 22.8334L12.5304 22.2711L11.9681 21.5178Z" fill="#FFB806"/>
<path d="M11.4115 20.7717L10.6582 21.334L11.2205 22.0873L11.9738 21.525L11.4115 20.7717Z" fill="#FFF803"/>
<path d="M10.8529 20.0256L10.0996 20.5879L10.6619 21.3412L11.4152 20.7789L10.8529 20.0256Z" fill="#FFF803"/>
<path d="M10.2865 19.2698L9.5332 19.832L10.0955 20.5853L10.8488 20.023L10.2865 19.2698Z" fill="#FFF803"/>
<path d="M9.72789 18.5236L8.97461 19.0859L9.5369 19.8392L10.2902 19.2769L9.72789 18.5236Z" fill="#FFF803"/>
<path d="M9.17125 17.7678L8.41797 18.3301L8.98026 19.0834L9.73354 18.5211L9.17125 17.7678Z" fill="#FFF803"/>
<path d="M8.61461 17.0217L7.86133 17.584L8.42362 18.3373L9.1769 17.775L8.61461 17.0217Z" fill="#FFF803"/>
<path d="M8.04625 16.2658L7.29297 16.8281L7.85526 17.5814L8.60854 17.0191L8.04625 16.2658Z" fill="#FFF803"/>
<path d="M7.48961 15.5197L6.73633 16.082L7.29862 16.8353L8.0519 16.273L7.48961 15.5197Z" fill="#A35500"/>
<path d="M6.93101 14.7736L6.17773 15.3359L6.74003 16.0892L7.49331 15.5269L6.93101 14.7736Z" fill="#FFF803"/>
<path d="M6.37437 14.0178L5.62109 14.5801L6.18339 15.3334L6.93667 14.7711L6.37437 14.0178Z" fill="#FFF803"/>
<path d="M5.80601 13.2717L5.05273 13.834L5.61503 14.5873L6.36831 14.025L5.80601 13.2717Z" fill="#FFF803"/>
<path d="M5.24937 12.5158L4.49609 13.0781L5.05839 13.8314L5.81167 13.2691L5.24937 12.5158Z" fill="#FFB806"/>
<path d="M4.69273 11.7697L3.93945 12.332L4.50175 13.0853L5.25502 12.523L4.69273 11.7697Z" fill="black"/>
<path d="M11.7787 22.8303L11.0254 23.3926L11.5877 24.1459L12.341 23.5836L11.7787 22.8303Z" fill="black"/>
<path d="M11.222 22.0861L10.4688 22.6484L11.031 23.4017L11.7843 22.8394L11.222 22.0861Z" fill="#FFB806"/>
<path d="M10.6556 21.3283L9.90234 21.8906L10.4646 22.6439L11.2179 22.0816L10.6556 21.3283Z" fill="#FFF803"/>
<path d="M10.097 20.5822L9.34375 21.1445L9.90605 21.8978L10.6593 21.3355L10.097 20.5822Z" fill="#FFF803"/>
<path d="M9.54036 19.8264L8.78711 20.3887L9.3494 21.142L10.1027 20.5797L9.54036 19.8264Z" fill="#FFF803"/>
<path d="M8.98179 19.0803L8.22852 19.6426L8.79081 20.3959L9.54409 19.8336L8.98179 19.0803Z" fill="#FFF803"/>
<path d="M8.41539 18.3342L7.66211 18.8965L8.2244 19.6498L8.97768 19.0875L8.41539 18.3342Z" fill="#FFF803"/>
<path d="M7.85875 17.5783L7.10547 18.1406L7.66776 18.8939L8.42104 18.3316L7.85875 17.5783Z" fill="#FFF803"/>
<path d="M7.30015 16.8322L6.54688 17.3945L7.10917 18.1478L7.86245 17.5855L7.30015 16.8322Z" fill="#FFF803"/>
<path d="M6.74351 16.0764L5.99023 16.6387L6.55253 17.392L7.30581 16.8297L6.74351 16.0764Z" fill="#A35500"/>
<path d="M6.18492 15.3303L5.43164 15.8926L5.99394 16.6459L6.74721 16.0836L6.18492 15.3303Z" fill="#FFF803"/>
<path d="M5.61851 14.5744L4.86523 15.1367L5.42753 15.89L6.18081 15.3277L5.61851 14.5744Z" fill="#FFF803"/>
<path d="M5.05992 13.8283L4.30664 14.3906L4.86894 15.1439L5.62221 14.5816L5.05992 13.8283Z" fill="#FFF803"/>
<path d="M4.50328 13.0822L3.75 13.6445L4.3123 14.3978L5.06557 13.8355L4.50328 13.0822Z" fill="#FFB806"/>
<path d="M3.94664 12.3264L3.19336 12.8887L3.75565 13.642L4.50893 13.0797L3.94664 12.3264Z" fill="black"/>
<path d="M11.0228 23.3889L10.2695 23.9512L10.8318 24.7044L11.5851 24.1422L11.0228 23.3889Z" fill="black"/>
<path d="M10.4662 22.6428L9.71289 23.2051L10.2752 23.9584L11.0285 23.3961L10.4662 22.6428Z" fill="#FFB806"/>
<path d="M9.90953 21.8869L9.15625 22.4492L9.71854 23.2025L10.4718 22.6402L9.90953 21.8869Z" fill="#FFF803"/>
<path d="M9.35093 21.1408L8.59766 21.7031L9.15995 22.4564L9.91323 21.8941L9.35093 21.1408Z" fill="#FFF803"/>
<path d="M8.7845 20.3948L8.03125 20.957L8.59354 21.7103L9.3468 21.148L8.7845 20.3948Z" fill="#FFF803"/>
<path d="M8.22593 19.6389L7.47266 20.2012L8.03495 20.9544L8.78823 20.3922L8.22593 19.6389Z" fill="#FFF803"/>
<path d="M7.66929 18.8928L6.91602 19.4551L7.47831 20.2084L8.23159 19.6461L7.66929 18.8928Z" fill="#FFF803"/>
<path d="M7.11265 18.1369L6.35938 18.6992L6.92167 19.4525L7.67495 18.8902L7.11265 18.1369Z" fill="#FFF803"/>
<path d="M6.55406 17.3908L5.80078 17.9531L6.36307 18.7064L7.11635 18.1441L6.55406 17.3908Z" fill="#FFF803"/>
<path d="M5.98765 16.635L5.23438 17.1973L5.79667 17.9505L6.54995 17.3882L5.98765 16.635Z" fill="#FFF803"/>
<path d="M5.42906 15.8889L4.67578 16.4512L5.23807 17.2044L5.99135 16.6422L5.42906 15.8889Z" fill="#FFF803"/>
<path d="M4.87242 15.1428L4.11914 15.7051L4.68143 16.4584L5.43471 15.8961L4.87242 15.1428Z" fill="#FFF803"/>
<path d="M4.31578 14.3869L3.5625 14.9492L4.12479 15.7025L4.87807 15.1402L4.31578 14.3869Z" fill="#FFF803"/>
<path d="M3.74742 13.6408L2.99414 14.2031L3.55643 14.9564L4.30971 14.3941L3.74742 13.6408Z" fill="#FFB806"/>
<path d="M3.19078 12.885L2.4375 13.4473L2.99979 14.2005L3.75307 13.6382L3.19078 12.885Z" fill="black"/>
<path d="M10.2767 23.9553L9.52344 24.5176L10.0857 25.2709L10.839 24.7086L10.2767 23.9553Z" fill="black"/>
<path d="M9.72008 23.1994L8.9668 23.7617L9.52909 24.515L10.2824 23.9527L9.72008 23.1994Z" fill="#FFB806"/>
<path d="M9.16343 22.4533L8.41016 23.0156L8.97245 23.7689L9.72573 23.2066L9.16343 22.4533Z" fill="#FFF803"/>
<path d="M8.59508 21.6975L7.8418 22.2598L8.40409 23.013L9.15737 22.4507L8.59508 21.6975Z" fill="#FFF803"/>
<path d="M8.03841 20.9514L7.28516 21.5137L7.84745 22.267L8.60071 21.7047L8.03841 20.9514Z" fill="#FFF803"/>
<path d="M7.47984 20.1955L6.72656 20.7578L7.28886 21.5111L8.04214 20.9488L7.47984 20.1955Z" fill="#FFF803"/>
<path d="M6.9232 19.4494L6.16992 20.0117L6.73222 20.765L7.4855 20.2027L6.9232 19.4494Z" fill="#FFF803"/>
<path d="M6.35484 18.7033L5.60156 19.2656L6.16386 20.0189L6.91714 19.4566L6.35484 18.7033Z" fill="#FFF803"/>
<path d="M5.7982 17.9475L5.04492 18.5098L5.60722 19.263L6.3605 18.7007L5.7982 17.9475Z" fill="#FFF803"/>
<path d="M5.24156 17.2014L4.48828 17.7637L5.05058 18.517L5.80386 17.9547L5.24156 17.2014Z" fill="#FFF803"/>
<path d="M4.68297 16.4455L3.92969 17.0078L4.49198 17.7611L5.24526 17.1988L4.68297 16.4455Z" fill="#FFF803"/>
<path d="M4.11656 15.6994L3.36328 16.2617L3.92558 17.015L4.67886 16.4527L4.11656 15.6994Z" fill="#FFF803"/>
<path d="M3.55797 14.9436L2.80469 15.5059L3.36698 16.2591L4.12026 15.6968L3.55797 14.9436Z" fill="#FFF803"/>
<path d="M3.00133 14.1975L2.24805 14.7598L2.81034 15.513L3.56362 14.9507L3.00133 14.1975Z" fill="#FFB806"/>
<path d="M2.44468 13.4514L1.69141 14.0137L2.2537 14.767L3.00698 14.2047L2.44468 13.4514Z" fill="black"/>
<path d="M9.53843 24.5217L8.78516 25.084L9.34745 25.8373L10.1007 25.275L9.53843 24.5217Z" fill="black"/>
<path d="M8.96422 23.758L8.21094 24.3203L8.77323 25.0736L9.52651 24.5113L8.96422 23.758Z" fill="#FFB806"/>
<path d="M8.40758 23.0119L7.6543 23.5742L8.21659 24.3275L8.96987 23.7652L8.40758 23.0119Z" fill="#FFB806"/>
<path d="M7.84898 22.2658L7.0957 22.8281L7.658 23.5814L8.41127 23.0191L7.84898 22.2658Z" fill="#FFF803"/>
<path d="M7.29232 21.51L6.53906 22.0723L7.10136 22.8255L7.85461 22.2633L7.29232 21.51Z" fill="#FFB806"/>
<path d="M6.72398 20.7639L5.9707 21.3262L6.533 22.0794L7.28627 21.5172L6.72398 20.7639Z" fill="#FFF803"/>
<path d="M6.16734 20.008L5.41406 20.5703L5.97636 21.3236L6.72963 20.7613L6.16734 20.008Z" fill="#FFB806"/>
<path d="M5.6107 19.2619L4.85742 19.8242L5.41971 20.5775L6.17299 20.0152L5.6107 19.2619Z" fill="#FFF803"/>
<path d="M5.05211 18.5061L4.29883 19.0684L4.86112 19.8216L5.6144 19.2593L5.05211 18.5061Z" fill="#FFB806"/>
<path d="M4.4857 17.76L3.73242 18.3223L4.29471 19.0755L5.04799 18.5132L4.4857 17.76Z" fill="#FFF803"/>
<path d="M3.92711 17.0139L3.17383 17.5762L3.73612 18.3294L4.4894 17.7672L3.92711 17.0139Z" fill="#FFB806"/>
<path d="M3.37047 16.258L2.61719 16.8203L3.17948 17.5736L3.93276 17.0113L3.37047 16.258Z" fill="#FFF803"/>
<path d="M2.81187 15.5119L2.05859 16.0742L2.62089 16.8275L3.37417 16.2652L2.81187 15.5119Z" fill="#FFB806"/>
<path d="M2.25523 14.7541L1.50195 15.3164L2.06425 16.0697L2.81752 15.5074L2.25523 14.7541Z" fill="#FFB806"/>
<path d="M1.68883 14.008L0.935547 14.5703L1.49784 15.3236L2.25112 14.7613L1.68883 14.008Z" fill="black"/>
<path d="M8.78062 25.0783L8.02734 25.6406L8.58964 26.3939L9.34292 25.8316L8.78062 25.0783Z" fill="black"/>
<path d="M8.21812 24.3244L7.46484 24.8867L8.02714 25.64L8.78042 25.0777L8.21812 24.3244Z" fill="#FFB806"/>
<path d="M7.66148 23.5686L6.9082 24.1309L7.4705 24.8841L8.22377 24.3218L7.66148 23.5686Z" fill="black"/>
<path d="M7.09312 22.8225L6.33984 23.3848L6.90214 24.138L7.65542 23.5757L7.09312 22.8225Z" fill="#FFB806"/>
<path d="M6.53646 22.0666L5.7832 22.6289L6.3455 23.3822L7.09875 22.8199L6.53646 22.0666Z" fill="black"/>
<path d="M5.97789 21.3205L5.22461 21.8828L5.7869 22.6361L6.54018 22.0738L5.97789 21.3205Z" fill="#FFB806"/>
<path d="M5.42125 20.5647L4.66797 21.127L5.23026 21.8802L5.98354 21.3179L5.42125 20.5647Z" fill="black"/>
<path d="M4.86461 19.8186L4.11133 20.3809L4.67362 21.1341L5.4269 20.5718L4.86461 19.8186Z" fill="#FFB806"/>
<path d="M4.29625 19.0725L3.54297 19.6348L4.10526 20.388L4.85854 19.8257L4.29625 19.0725Z" fill="black"/>
<path d="M3.73961 18.3166L2.98633 18.8789L3.54862 19.6322L4.3019 19.0699L3.73961 18.3166Z" fill="#FFB806"/>
<path d="M3.18101 17.5705L2.42773 18.1328L2.99003 18.8861L3.74331 18.3238L3.18101 17.5705Z" fill="black"/>
<path d="M2.62437 16.8147L1.87109 17.377L2.43339 18.1302L3.18667 17.5679L2.62437 16.8147Z" fill="#FFB806"/>
<path d="M2.05601 16.0686L1.30273 16.6309L1.86503 17.3841L2.61831 16.8218L2.05601 16.0686Z" fill="black"/>
<path d="M1.49937 15.3127L0.746094 15.875L1.30839 16.6283L2.06167 16.066L1.49937 15.3127Z" fill="#FFB806"/>
<path d="M0.942732 14.5666L0.189453 15.1289L0.751746 15.8822L1.50502 15.3199L0.942732 14.5666Z" fill="black"/>
<path d="M7.46812 24.8908L6.71484 25.4531L7.27714 26.2064L8.03042 25.6441L7.46812 24.8908Z" fill="black"/>
<path d="M6.34703 23.3811L5.59375 23.9434L6.15605 24.6966L6.90932 24.1343L6.34703 23.3811Z" fill="black"/>
<path d="M5.23179 21.8772L4.47852 22.4395L5.04081 23.1927L5.79409 22.6304L5.23179 21.8772Z" fill="black"/>
<path d="M4.10679 20.3752L3.35352 20.9375L3.91581 21.6908L4.66909 21.1285L4.10679 20.3752Z" fill="black"/>
<path d="M2.99351 18.8733L2.24023 19.4355L2.80253 20.1888L3.55581 19.6265L2.99351 18.8733Z" fill="black"/>
<path d="M1.86851 17.3811L1.11523 17.9434L1.67753 18.6966L2.43081 18.1343L1.86851 17.3811Z" fill="black"/>
<path d="M0.753279 15.8791L0 16.4414L0.562295 17.1947L1.31557 16.6324L0.753279 15.8791Z" fill="black"/>
</svg>
