<svg width="20" height="19" viewBox="0 0 20 19" fill="none" xmlns="http://www.w3.org/2000/svg">
<path d="M9.11002 17.2695H8.75V17.6095H9.11002V17.2695Z" fill="#F2A12C"/>
<path d="M9.46936 16.25H9.10938V16.59H9.46936V16.25Z" fill="#F2A12C"/>
<path d="M2.19006 12.8496H1.83008V13.1896H2.19006V12.8496Z" fill="#F6EBC6"/>
<path d="M10.5692 11.8301H10.2092H9.8392H9.47922V12.1701V12.5101V12.8501V13.1901V13.5301V13.8701V14.2101V14.5501V14.8901V15.2301V15.5701H9.10922V15.9101V16.2501H9.47922V16.5901H9.10922V16.2501H8.74921V16.5901H8.37921V16.9301H8.01923V17.2701V17.6101H7.65921H7.28922V17.9501H6.92923V18.2901H6.5592H6.19922V18.6301H6.5592H6.92923H7.28922H7.65921V18.2901H8.01923H8.37921V17.9501H8.74921V17.6101V17.2701H9.10922V17.6101H9.47922V17.2701V16.9301H9.8392V16.5901H10.2092V16.2501V15.9101H10.5692V15.5701V15.2301H10.9292V14.8901V14.5501V14.2101V13.8701V13.5301V13.1901V12.8501V12.5101V12.1701V11.8301H10.5692Z" fill="#F2A12C"/>
<path d="M6.92923 18.2793V18.2893H6.19922V18.6293H7.65921V18.2893H8.37921V18.2793H6.92923Z" fill="#231F20"/>
<path d="M9.11002 10.8105H8.75V11.1506H9.11002V10.8105Z" fill="white"/>
<path d="M8.74991 11.8295V10.8095H8.38992V10.4695H8.02991V10.1295H7.66992V9.78954H7.30991V9.44953H6.94992V9.10954H6.21991V8.76953H3.30991V9.10954H2.57993V9.44953H2.21991V9.78954H1.85992V10.1295H1.49991V10.4695H1.13992V11.1495H0.779907V11.8295H0.419922V15.2295H0.779907V15.9095H1.13992V16.5895H1.49991V16.9295H1.85992V17.2695H2.21991V17.6095H2.57993V17.9495H3.30991V18.2895H6.21991V17.9495H6.94992V17.6095H7.30991V17.2695H7.66992V16.9295H8.02991V16.5895H8.38992V16.2495H8.74991V15.5695H9.10992V11.8295H8.74991ZM1.82993 12.1695V11.4895H2.18991V11.1495H2.54993V10.8095H2.90991V10.4695H3.26993V10.1295H6.17993V10.4695H6.53992V10.8095H6.89993V11.1495H7.25992V11.4895H7.6199V12.1695H7.97992V14.8895H7.6199V15.5695H7.25992V15.9095H6.89993V16.2495H6.53992V16.5895H6.17993V16.9295H3.26993V16.5895H2.90991V16.2495H2.54993V15.9095H2.18991V15.5695H1.82993V14.8895H1.46991V12.1695H1.82993Z" fill="#FCCA24"/>
<path d="M2.54947 11.8287H2.18945V12.1687V12.5087V12.8487V13.1887V13.5287V13.8687V14.2087V14.5487H2.54947V14.8887V15.2287H2.91946V15.5687H3.27945V15.9087H3.64948H4.00946V16.2487H4.37946H4.73947H5.09946H5.46945H5.82947V15.9087H6.19946H6.55945V15.5687H6.92947V15.2287H7.28946V14.8887V14.5487H7.65945V14.2087V13.8687V13.5287V13.1887V12.8487V12.5087H7.28946V12.1687V11.8287V11.4887H6.92947V11.1488H6.55945V10.8087H6.19946H5.82947V10.4688H5.46945H5.09946H4.73947H4.37946H4.00946H3.64948V10.8087H3.27945H2.91946V11.1488H2.54947V11.4887V11.8287Z" fill="#FCCA24"/>
<path d="M10.2094 10.8089V10.4689V10.1289H9.83936V10.4689H9.47937H9.10938V10.8089V11.1489V11.4889H9.47937V11.1489H9.83936H10.2094V11.4889V11.8289H10.5694V11.4889V11.1489V10.8089H10.2094Z" fill="#F2A12C"/>
<path d="M9.47922 9.78969V9.44968H9.10922H8.74921V9.10969H8.37921V8.76968H8.01923H7.65921V8.42969H7.28922H6.92923H6.5592H6.19922V8.76968H6.5592H6.92923V9.10969H7.28922V9.44968H7.65921V9.78969H8.01923V10.1297H8.37921H8.74921H9.10922H9.47922H9.8392V9.78969H9.47922Z" fill="#F2A12C"/>
<path d="M10.2094 10.8089V10.4689V10.1289H9.83936V10.4689H9.47937H9.10938V10.8089V11.1489V11.4889H9.47937V11.1489H9.83936H10.2094V11.4889V11.8289H10.5694V11.4889V11.1489V10.8089H10.2094Z" fill="#F2A12C"/>
<path d="M10.2099 10.8089V10.4689V10.1289H9.83984V10.4689V10.8089H10.2099V11.1489V11.4889V11.8289H10.5699V11.4889V11.1489V10.8089H10.2099Z" fill="#231F20"/>
<path d="M8.73892 9.10938H8.37891V9.44937H8.73892V9.10938Z" fill="#231F20"/>
<path d="M8.75 9.78922H9.11002H9.48001V9.44922H9.11002H8.75V9.78922Z" fill="#231F20"/>
<path d="M8.02017 9.10954H8.38016V8.76953H8.02017H7.66016V9.10954H8.02017Z" fill="#231F20"/>
<path d="M9.8385 9.78906H9.47852V10.1291H9.8385V9.78906Z" fill="#231F20"/>
<path d="M6.5592 8.76968H6.92923H7.28922H7.65921V8.42969H7.28922H6.92923H6.5592H6.19922V8.76968H6.5592Z" fill="#231F20"/>
<path d="M9.11002 16.25H8.75V16.59H9.11002V16.25Z" fill="#231F20"/>
<path d="M10.569 11.8301H10.209H10.569V12.1701V12.5101V12.8501V13.1901V13.5301V13.8701V14.2101V14.5501V14.8901V15.2301H10.929V14.8901V14.5501V14.2101V13.8701V13.5301V13.1901V12.8501V12.5101V12.1701V11.8301H10.569Z" fill="#231F20"/>
<path d="M9.10938 16.9297V17.2697V17.6097H9.47937V17.2697V16.9297H9.10938Z" fill="#231F20"/>
<path d="M9.8385 16.5898H9.47852V16.9298H9.8385V16.5898Z" fill="#231F20"/>
<path d="M10.2099 15.2305V15.5705V15.9105H9.83984V16.2505V16.5905H10.2099V16.2505V15.9105H10.5699V15.5705V15.2305H10.2099Z" fill="#231F20"/>
<path d="M7.65906 18.291H7.28906V18.631H7.65906V18.291Z" fill="#231F20"/>
<path d="M8.7489 17.6095V17.2695H8.37891V17.6095V17.9495H8.7489V17.6095Z" fill="#231F20"/>
<path d="M8.37952 17.9492H8.01953V18.2892H8.37952V17.9492Z" fill="#231F20"/>
<path d="M6.19931 17.9492V18.2892H5.82932H5.4693H5.0993H4.73932H4.3793H4.00931H3.64932H3.2793V18.6292H3.64932H4.00931H4.3793H4.73932H5.0993H5.4693H5.82932H6.19931V18.2892H6.5593H6.92932V17.9492H6.5593H6.19931Z" fill="#231F20"/>
<path d="M7.28967 17.6094H6.92969V17.9494H7.28967V17.6094Z" fill="#231F20"/>
<path d="M7.65906 17.2697H7.28906V17.6097H7.65906H8.01907V17.2697V16.9297H7.65906V17.2697Z" fill="#231F20"/>
<path d="M8.37952 16.5898H8.01953V16.9298H8.37952V16.5898Z" fill="#231F20"/>
<path d="M8.74088 16.25H8.38086V16.59H8.74088V16.25Z" fill="#231F20"/>
<path d="M8.75 15.9103V16.2503H9.11002V15.9103V15.5703H8.75V15.9103Z" fill="#231F20"/>
<path d="M9.10938 12.1699V12.5099V12.8499V13.1899V13.5299V13.8699V14.2099V14.5499V14.8899V15.2299V15.5699H9.47937V15.2299V14.8899V14.5499V14.2099V13.8699V13.5299V13.1899V12.8499V12.5099V12.1699H9.10938Z" fill="#231F20"/>
<path d="M8.75 11.4904V11.8304H9.11002V11.4904V11.1504H8.75V11.4904Z" fill="#231F20"/>
<path d="M8.74088 10.4688H8.38086V10.8087H8.74088V10.4688Z" fill="#231F20"/>
<path d="M6.92056 15.9102H6.56055V16.2502H6.92056V15.9102Z" fill="#231F20"/>
<path d="M7.28967 12.1702V12.5102H7.65967V12.8502V13.1902V13.5302V13.8702V14.2102V14.5502H7.28967V14.8902V15.2302H6.92969V15.5702V15.9102H7.28967V15.5702H7.65967V15.2302V14.8902H8.01968V14.5502V14.2102V13.8702V13.5302V13.1902V12.8502V12.5102V12.1702H7.65967V11.8302V11.4902H7.28967V11.8302V12.1702Z" fill="#231F20"/>
<path d="M7.28967 11.1504H6.92969V11.4904H7.28967V11.1504Z" fill="#231F20"/>
<path d="M6.92056 10.8105H6.56055V11.1506H6.92056V10.8105Z" fill="#231F20"/>
<path d="M8.37952 10.1289H8.01953V10.4689H8.37952V10.1289Z" fill="#231F20"/>
<path d="M8.02017 9.78906H7.66016V10.1291H8.02017V9.78906Z" fill="#231F20"/>
<path d="M7.64908 9.44922H7.28906V9.78922H7.64908V9.44922Z" fill="#231F20"/>
<path d="M7.28967 9.10938H6.92969V9.44937H7.28967V9.10938Z" fill="#231F20"/>
<path d="M6.19922 9.10954H6.5592H6.92923V8.76953H6.5592H6.19922V9.10954Z" fill="#231F20"/>
<path d="M2.92078 17.9492H2.55078V18.2892H2.92078H3.28076V17.9492H2.92078Z" fill="#231F20"/>
<path d="M2.54947 17.6094H2.18945V17.9494H2.54947V17.6094Z" fill="#231F20"/>
<path d="M1.83093 17.2697V16.9297H1.46094V17.2697V17.6097H1.83093H2.19092V17.2697H1.83093Z" fill="#231F20"/>
<path d="M1.45963 16.5898H1.09961V16.9298H1.45963V16.5898Z" fill="#231F20"/>
<path d="M3.64993 16.93H4.00992H4.37991H4.73993H5.09991H5.46991H5.82993H6.19992V16.59H6.55991V16.25H6.19992H5.82993V16.59H5.46991H5.09991H4.73993H4.37991H4.00992H3.64993V16.25H3.27991H2.91992V16.59H3.27991V16.93H3.64993Z" fill="#231F20"/>
<path d="M2.91077 15.9102H2.55078V16.2502H2.91077V15.9102Z" fill="#231F20"/>
<path d="M1.10046 15.9102H0.730469V16.2502V16.5902H1.10046V16.2502V15.9102Z" fill="#231F20"/>
<path d="M0.729156 15.2305H0.369141V15.5705V15.9105H0.729156V15.5705V15.2305Z" fill="#231F20"/>
<path d="M0.369995 14.5499V14.2099V13.8699V13.5299V13.1899V12.8499V12.5099V12.1699H0V12.5099V12.8499V13.1899V13.5299V13.8699V14.2099V14.5499V14.8899H0.369995V14.5499Z" fill="#231F20"/>
<path d="M2.55093 15.2304H2.19092V14.8904V14.5504H1.83093V14.2104V13.8704V13.5304V13.1904V12.8504V12.5104H2.19092V12.1704V11.8304H2.55093V11.4904V11.1504H2.19092V11.4904H1.83093V11.8304V12.1704H1.46094V12.5104V12.8504V13.1904V13.5304V13.8704V14.2104V14.5504V14.8904H1.83093V15.2304V15.5704H2.19092V15.9104H2.55093V15.5704V15.2304Z" fill="#231F20"/>
<path d="M0.729156 11.4904V11.1504H0.369141V11.4904V11.8304H0.729156V11.4904Z" fill="#231F20"/>
<path d="M2.91077 10.8105H2.55078V11.1506H2.91077V10.8105Z" fill="#231F20"/>
<path d="M1.10046 10.8087V10.4688H0.730469V10.8087V11.1488H1.10046V10.8087Z" fill="#231F20"/>
<path d="M3.64993 10.8089V10.4689H4.00992H4.37991H4.73993H5.09991H5.46991H5.82993V10.8089H6.19992H6.55991V10.4689H6.19992V10.1289H5.82993H5.46991H5.09991H4.73993H4.37991H4.00992H3.64993H3.27991V10.4689H2.91992V10.8089H3.27991H3.64993Z" fill="#231F20"/>
<path d="M1.45963 10.1289H1.09961V10.4689H1.45963V10.1289Z" fill="#231F20"/>
<path d="M1.82092 9.78906H1.46094V10.1291H1.82092V9.78906Z" fill="#231F20"/>
<path d="M2.19006 9.44922H1.83008V9.78922H2.19006V9.44922Z" fill="#231F20"/>
<path d="M2.54947 9.10938H2.18945V9.44937H2.54947V9.10938Z" fill="#231F20"/>
<path d="M3.28076 9.10954V8.76953H2.92078H2.55078V9.10954H2.92078H3.28076Z" fill="#231F20"/>
<path d="M4.00931 8.76968H4.3793H4.73932H5.0993H5.4693H5.82932H6.19931V8.42969H5.82932H5.4693H5.0993H4.73932H4.3793H4.00931H3.64932H3.2793V8.76968H3.64932H4.00931Z" fill="#231F20"/>
<path d="M9.83936 11.1484H9.47937V11.4884H9.10938V11.8284V12.1684H9.47937V11.8284H9.83936H10.2094V11.4884V11.1484H9.83936Z" fill="white"/>
<path d="M9.48087 10.1289H9.11087H8.75085H8.38086V10.4689H8.75085V10.8089H9.11087V10.4689H9.48087H9.84085V10.1289H9.48087Z" fill="white"/>
<path d="M5.10077 16.2485H4.74078H4.38077H4.01077V15.9085H3.65079H3.28076V15.5685H2.92078V15.2285H2.55078V15.5685V15.9085H2.92078V16.2485H3.28076H3.65079V16.5885H4.01077H4.38077H4.74078H5.10077H5.47076H5.83078V16.2485H5.47076H5.10077Z" fill="white"/>
<path d="M5.83008 15.9082V16.2482H6.20007H6.56006V15.9082H6.20007H5.83008Z" fill="white"/>
<path d="M6.92056 15.5684H6.56055V15.9084H6.92056V15.5684Z" fill="white"/>
<path d="M2.54947 14.5488H2.18945V14.8888V15.2288H2.54947V14.8888V14.5488Z" fill="white"/>
<path d="M2.19006 13.8695V13.5295V13.1895H1.83008V13.5295V13.8695V14.2095V14.5495H2.19006V14.2095V13.8695Z" fill="white"/>
<path d="M2.19006 12.5098H1.83008V12.8498H2.19006V12.5098Z" fill="white"/>
<path d="M17.9694 16.9297H17.6094V17.2697H17.9694V16.9297Z" fill="#F2A12C"/>
<path d="M18.3288 15.9102H17.9688V16.2502H18.3288V15.9102Z" fill="#F2A12C"/>
<path d="M11.0495 12.5098H10.6895V12.8498H11.0495V12.5098Z" fill="#F6EBC6"/>
<path d="M19.4286 11.4902H19.0686H18.6986H18.3386V11.8302V12.1702V12.5102V12.8502V13.1902V13.5302V13.8702V14.2102V14.5502V14.8902V15.2302H17.9686V15.5702V15.9102H18.3386V16.2502H17.9686V15.9102H17.6086V16.2502H17.2386V16.5902H16.8786V16.9302V17.2702H16.5186H16.1486V17.6102H15.7886V17.9502H15.4186H15.0586V18.2902H15.4186H15.7886H16.1486H16.5186V17.9502H16.8786H17.2386V17.6102H17.6086V17.2702V16.9302H17.9686V17.2702H18.3386V16.9302V16.5902H18.6986V16.2502H19.0686V15.9102V15.5702H19.4286V15.2302V14.8902H19.7886V14.5502V14.2102V13.8702V13.5302V13.1902V12.8502V12.5102V12.1702V11.8302V11.4902H19.4286Z" fill="#F2A12C"/>
<path d="M15.7886 17.9395V17.9495H15.0586V18.2895H16.5186V17.9495H17.2386V17.9395H15.7886Z" fill="#231F20"/>
<path d="M17.9694 10.4707H17.6094V10.8107H17.9694V10.4707Z" fill="white"/>
<path d="M17.6093 11.4897V10.4697H17.2493V10.1297H16.8893V9.78969H16.5293V9.44968H16.1693V9.10969H15.8093V8.76968H15.0793V8.42969H12.1693V8.76968H11.4393V9.10969H11.0793V9.44968H10.7193V9.78969H10.3593V10.1297H9.9993V10.8097H9.63931V11.4897H9.2793V14.8897H9.63931V15.5697H9.9993V16.2497H10.3593V16.5897H10.7193V16.9297H11.0793V17.2697H11.4393V17.6097H12.1693V17.9497H15.0793V17.6097H15.8093V17.2697H16.1693V16.9297H16.5293V16.5897H16.8893V16.2497H17.2493V15.9097H17.6093V15.2297H17.9693V11.4897H17.6093ZM10.6893 11.8297V11.1497H11.0493V10.8097H11.4093V10.4697H11.7693V10.1297H12.1293V9.78969H15.0393V10.1297H15.3993V10.4697H15.7593V10.8097H16.1193V11.1497H16.4793V11.8297H16.8393V14.5497H16.4793V15.2297H16.1193V15.5697H15.7593V15.9097H15.3993V16.2497H15.0393V16.5897H12.1293V16.2497H11.7693V15.9097H11.4093V15.5697H11.0493V15.2297H10.6893V14.5497H10.3293V11.8297H10.6893Z" fill="#FCCA24"/>
<path d="M11.4088 11.4889H11.0488V11.8289V12.1689V12.5089V12.8489V13.1889V13.5289V13.8689V14.2089H11.4088V14.5489V14.8889H11.7788V15.2289H12.1388V15.5689H12.5088H12.8688V15.9089H13.2388H13.5988H13.9588H14.3288H14.6888V15.5689H15.0588H15.4188V15.2289H15.7888V14.8889H16.1488V14.5489V14.2089H16.5188V13.8689V13.5289V13.1889V12.8489V12.5089V12.1689H16.1488V11.8289V11.4889V11.1489H15.7888V10.8089H15.4188V10.4689H15.0588H14.6888V10.1289H14.3288H13.9588H13.5988H13.2388H12.8688H12.5088V10.4689H12.1388H11.7788V10.8089H11.4088V11.1489V11.4889Z" fill="#FCCA24"/>
<path d="M19.0688 10.4691V10.1291V9.78906H18.6988V10.1291H18.3387H17.9688V10.4691V10.8091V11.1491H18.3387V10.8091H18.6988H19.0688V11.1491V11.4891H19.4288V11.1491V10.8091V10.4691H19.0688Z" fill="#F2A12C"/>
<path d="M18.3386 9.44984V9.10985H17.9686H17.6086V8.76984H17.2386V8.42985H16.8786H16.5186V8.08984H16.1486H15.7886H15.4186H15.0586V8.42985H15.4186H15.7886V8.76984H16.1486V9.10985H16.5186V9.44984H16.8786V9.78985H17.2386H17.6086H17.9686H18.3386H18.6986V9.44984H18.3386Z" fill="#F2A12C"/>
<path d="M19.0688 10.4691V10.1291V9.78906H18.6988V10.1291H18.3387H17.9688V10.4691V10.8091V11.1491H18.3387V10.8091H18.6988H19.0688V11.1491V11.4891H19.4288V11.1491V10.8091V10.4691H19.0688Z" fill="#F2A12C"/>
<path d="M19.0692 10.4691V10.1291V9.78906H18.6992V10.1291V10.4691H19.0692V10.8091V11.1491V11.4891H19.4292V11.1491V10.8091V10.4691H19.0692Z" fill="#231F20"/>
<path d="M17.5983 8.76953H17.2383V9.10954H17.5983V8.76953Z" fill="#231F20"/>
<path d="M17.6094 9.44937H17.9694H18.3394V9.10938H17.9694H17.6094V9.44937Z" fill="#231F20"/>
<path d="M16.8795 8.76968H17.2395V8.42969H16.8795H16.5195V8.76968H16.8795Z" fill="#231F20"/>
<path d="M18.6979 9.44922H18.3379V9.78922H18.6979V9.44922Z" fill="#231F20"/>
<path d="M15.4186 8.42985H15.7886H16.1486H16.5186V8.08984H16.1486H15.7886H15.4186H15.0586V8.42985H15.4186Z" fill="#231F20"/>
<path d="M17.9694 15.9102H17.6094V16.2502H17.9694V15.9102Z" fill="#231F20"/>
<path d="M19.4284 11.4902H19.0684H19.4284V11.8302V12.1702V12.5102V12.8502V13.1902V13.5302V13.8702V14.2102V14.5502V14.8902H19.7884V14.5502V14.2102V13.8702V13.5302V13.1902V12.8502V12.5102V12.1702V11.8302V11.4902H19.4284Z" fill="#231F20"/>
<path d="M17.9688 16.5898V16.9298V17.2698H18.3387V16.9298V16.5898H17.9688Z" fill="#231F20"/>
<path d="M18.6979 16.25H18.3379V16.59H18.6979V16.25Z" fill="#231F20"/>
<path d="M19.0692 14.8906V15.2306V15.5706H18.6992V15.9106V16.2506H19.0692V15.9106V15.5706H19.4292V15.2306V14.8906H19.0692Z" fill="#231F20"/>
<path d="M16.5184 17.9512H16.1484V18.2912H16.5184V17.9512Z" fill="#231F20"/>
<path d="M17.6083 17.2697V16.9297H17.2383V17.2697V17.6097H17.6083V17.2697Z" fill="#231F20"/>
<path d="M17.2389 17.6094H16.8789V17.9494H17.2389V17.6094Z" fill="#231F20"/>
<path d="M15.0587 17.6094V17.9494H14.6887H14.3287H13.9587H13.5987H13.2387H12.8687H12.5087H12.1387V18.2894H12.5087H12.8687H13.2387H13.5987H13.9587H14.3287H14.6887H15.0587V17.9494H15.4187H15.7887V17.6094H15.4187H15.0587Z" fill="#231F20"/>
<path d="M16.1491 17.2695H15.7891V17.6095H16.1491V17.2695Z" fill="#231F20"/>
<path d="M16.5184 16.9298H16.1484V17.2698H16.5184H16.8784V16.9298V16.5898H16.5184V16.9298Z" fill="#231F20"/>
<path d="M17.2389 16.25H16.8789V16.59H17.2389V16.25Z" fill="#231F20"/>
<path d="M17.6002 15.9102H17.2402V16.2502H17.6002V15.9102Z" fill="#231F20"/>
<path d="M17.6094 15.5705V15.9105H17.9694V15.5705V15.2305H17.6094V15.5705Z" fill="#231F20"/>
<path d="M17.9688 11.8301V12.1701V12.5101V12.8501V13.1901V13.5301V13.8701V14.2101V14.5501V14.8901V15.2301H18.3387V14.8901V14.5501V14.2101V13.8701V13.5301V13.1901V12.8501V12.5101V12.1701V11.8301H17.9688Z" fill="#231F20"/>
<path d="M17.6094 11.1506V11.4905H17.9694V11.1506V10.8105H17.6094V11.1506Z" fill="#231F20"/>
<path d="M17.6002 10.1289H17.2402V10.4689H17.6002V10.1289Z" fill="#231F20"/>
<path d="M15.7799 15.5703H15.4199V15.9103H15.7799V15.5703Z" fill="#231F20"/>
<path d="M16.1491 11.8304V12.1704H16.5191V12.5104V12.8504V13.1904V13.5304V13.8704V14.2104H16.1491V14.5504V14.8904H15.7891V15.2304V15.5704H16.1491V15.2304H16.5191V14.8904V14.5504H16.8791V14.2104V13.8704V13.5304V13.1904V12.8504V12.5104V12.1704V11.8304H16.5191V11.4904V11.1504H16.1491V11.4904V11.8304Z" fill="#231F20"/>
<path d="M16.1491 10.8105H15.7891V11.1506H16.1491V10.8105Z" fill="#231F20"/>
<path d="M15.7799 10.4707H15.4199V10.8107H15.7799V10.4707Z" fill="#231F20"/>
<path d="M17.2389 9.78906H16.8789V10.1291H17.2389V9.78906Z" fill="#231F20"/>
<path d="M16.8795 9.44922H16.5195V9.78922H16.8795V9.44922Z" fill="#231F20"/>
<path d="M16.5084 9.10938H16.1484V9.44937H16.5084V9.10938Z" fill="#231F20"/>
<path d="M16.1491 8.76953H15.7891V9.10954H16.1491V8.76953Z" fill="#231F20"/>
<path d="M15.0586 8.76968H15.4186H15.7886V8.42969H15.4186H15.0586V8.76968Z" fill="#231F20"/>
<path d="M11.7802 17.6094H11.4102V17.9494H11.7802H12.1402V17.6094H11.7802Z" fill="#231F20"/>
<path d="M11.4088 17.2695H11.0488V17.6095H11.4088V17.2695Z" fill="#231F20"/>
<path d="M10.6903 16.9298V16.5898H10.3203V16.9298V17.2698H10.6903H11.0503V16.9298H10.6903Z" fill="#231F20"/>
<path d="M10.319 16.25H9.95898V16.59H10.319V16.25Z" fill="#231F20"/>
<path d="M12.5093 16.5902H12.8693H13.2393H13.5993H13.9593H14.3293H14.6893H15.0593V16.2502H15.4193V15.9102H15.0593H14.6893V16.2502H14.3293H13.9593H13.5993H13.2393H12.8693H12.5093V15.9102H12.1393H11.7793V16.2502H12.1393V16.5902H12.5093Z" fill="#231F20"/>
<path d="M11.7702 15.5703H11.4102V15.9103H11.7702V15.5703Z" fill="#231F20"/>
<path d="M9.95987 15.5703H9.58984V15.9103V16.2503H9.95987V15.9103V15.5703Z" fill="#231F20"/>
<path d="M9.5885 14.8906H9.22852V15.2306V15.5706H9.5885V15.2306V14.8906Z" fill="#231F20"/>
<path d="M9.22937 14.2101V13.8701V13.5301V13.1901V12.8501V12.5101V12.1701V11.8301H8.85938V12.1701V12.5101V12.8501V13.1901V13.5301V13.8701V14.2101V14.5501H9.22937V14.2101Z" fill="#231F20"/>
<path d="M11.4103 14.8905H11.0503V14.5505V14.2105H10.6903V13.8705V13.5305V13.1905V12.8505V12.5105V12.1705H11.0503V11.8305V11.4905H11.4103V11.1506V10.8105H11.0503V11.1506H10.6903V11.4905V11.8305H10.3203V12.1705V12.5105V12.8505V13.1905V13.5305V13.8705V14.2105V14.5505H10.6903V14.8905V15.2305H11.0503V15.5705H11.4103V15.2305V14.8905Z" fill="#231F20"/>
<path d="M9.5885 11.1506V10.8105H9.22852V11.1506V11.4905H9.5885V11.1506Z" fill="#231F20"/>
<path d="M11.7702 10.4707H11.4102V10.8107H11.7702V10.4707Z" fill="#231F20"/>
<path d="M9.95987 10.4689V10.1289H9.58984V10.4689V10.8089H9.95987V10.4689Z" fill="#231F20"/>
<path d="M12.5093 10.4691V10.1291H12.8693H13.2393H13.5993H13.9593H14.3293H14.6893V10.4691H15.0593H15.4193V10.1291H15.0593V9.78906H14.6893H14.3293H13.9593H13.5993H13.2393H12.8693H12.5093H12.1393V10.1291H11.7793V10.4691H12.1393H12.5093Z" fill="#231F20"/>
<path d="M10.319 9.78906H9.95898V10.1291H10.319V9.78906Z" fill="#231F20"/>
<path d="M10.6803 9.44922H10.3203V9.78922H10.6803V9.44922Z" fill="#231F20"/>
<path d="M11.0495 9.10938H10.6895V9.44937H11.0495V9.10938Z" fill="#231F20"/>
<path d="M11.4088 8.76953H11.0488V9.10954H11.4088V8.76953Z" fill="#231F20"/>
<path d="M12.1402 8.76968V8.42969H11.7802H11.4102V8.76968H11.7802H12.1402Z" fill="#231F20"/>
<path d="M12.8687 8.42985H13.2387H13.5987H13.9587H14.3287H14.6887H15.0587V8.08984H14.6887H14.3287H13.9587H13.5987H13.2387H12.8687H12.5087H12.1387V8.42985H12.5087H12.8687Z" fill="#231F20"/>
<path d="M18.6988 10.8086H18.3387V11.1486H17.9688V11.4886V11.8286H18.3387V11.4886H18.6988H19.0688V11.1486V10.8086H18.6988Z" fill="white"/>
<path d="M18.3402 9.78906H17.9702H17.6102H17.2402V10.1291H17.6102V10.4691H17.9702V10.1291H18.3402H18.7002V9.78906H18.3402Z" fill="white"/>
<path d="M13.9602 15.9087H13.6002H13.2402H12.8701V15.5687H12.5102H12.1402V15.2287H11.7802V14.8887H11.4102V15.2287V15.5687H11.7802V15.9087H12.1402H12.5102V16.2487H12.8701H13.2402H13.6002H13.9602H14.3302H14.6902V15.9087H14.3302H13.9602Z" fill="white"/>
<path d="M14.6895 15.5684V15.9084H15.0594H15.4195V15.5684H15.0594H14.6895Z" fill="white"/>
<path d="M15.7799 15.2285H15.4199V15.5685H15.7799V15.2285Z" fill="white"/>
<path d="M11.4088 14.209H11.0488V14.549V14.889H11.4088V14.549V14.209Z" fill="white"/>
<path d="M11.0495 13.5296V13.1896V12.8496H10.6895V13.1896V13.5296V13.8696V14.2096H11.0495V13.8696V13.5296Z" fill="white"/>
<path d="M11.0495 12.1699H10.6895V12.5099H11.0495V12.1699Z" fill="white"/>
<path d="M13.2292 8.84961H12.8691V9.18961H13.2292V8.84961Z" fill="#F2A12C"/>
<path d="M13.5983 7.83008H13.2383V8.17008H13.5983V7.83008Z" fill="#F2A12C"/>
<path d="M6.3092 4.41992H5.94922V4.75992H6.3092V4.41992Z" fill="#F6EBC6"/>
<path d="M14.6884 3.40039H14.3284H13.9684H13.5984V3.74039V4.08038V4.42039V4.76038V5.10039V5.44038V5.78039V6.12038V6.46039V6.80038V7.14039H13.2384V7.48038V7.83038H13.5984V8.17039H13.2384V7.83038H12.8683V8.17039H12.5084V8.51038H12.1384V8.85039V9.19038H11.7784H11.4084V9.53039H11.0484V9.87038H10.6884H10.3184V10.2104H10.6884H11.0484H11.4084H11.7784V9.87038H12.1384H12.5084V9.53039H12.8683V9.19038V8.85039H13.2384V9.19038H13.5984V8.85039V8.51038H13.9684V8.17039H14.3284V7.83038V7.48038H14.6884V7.14039V6.80038H15.0583V6.46039V6.12038V5.78039V5.44038V5.10039V4.76038V4.42039V4.08038V3.74039V3.40039H14.6884Z" fill="#F2A12C"/>
<path d="M11.0484 9.85938V9.86937H10.3184V10.2094H11.7784V9.86937H12.5084V9.85938H11.0484Z" fill="#231F20"/>
<path d="M13.2292 2.38086H12.8691V2.72086H13.2292V2.38086Z" fill="white"/>
<path d="M12.869 3.39985V2.37984H12.5091V2.03985H12.1491V1.69984H11.7891V1.35985H11.4291V1.01984H11.0691V0.679848H10.3391V0.339844H7.42908V0.679848H6.69907V1.01984H6.33905V1.35985H5.97906V1.69984H5.61905V2.03985H5.25906V2.71985H4.89908V3.39985H4.53906V6.79984H4.89908V7.47984H5.25906V8.15984H5.61905V8.49985H5.97906V8.83984H6.33905V9.17985H6.69907V9.51984H7.42908V9.85985H10.3391V9.51984H11.0691V9.17985H11.4291V8.83984H11.7891V8.49985H12.1491V8.15984H12.5091V7.81985H12.869V7.13985H13.2291V3.39985H12.869ZM5.94907 3.73985V3.05984H6.30905V2.71985H6.66907V2.37984H7.02905V2.03985H7.38907V1.69984H10.2991V2.03985H10.6591V2.37984H11.0191V2.71985H11.3791V3.05984H11.7391V3.73985H12.0991V6.45985H11.7391V7.13985H11.3791V7.47984H11.0191V7.81985H10.6591V8.15984H10.2991V8.49985H7.38907V8.15984H7.02905V7.81985H6.66907V7.47984H6.30905V7.13985H5.94907V6.45985H5.58905V3.73985H5.94907Z" fill="#FCCA24"/>
<path d="M6.67862 3.39906H6.30859V3.73906V4.07906V4.41906V4.75906V5.09906V5.43906V5.77906V6.11906H6.67862V6.45906V6.79906H7.0386V7.13906H7.4086V7.47906H7.76862H8.13861V7.82906H8.4986H8.85861H9.22861H9.58859H9.95862V7.47906H10.3186H10.6886V7.13906H11.0486V6.79906H11.4086V6.45906V6.11906H11.7786V5.77906V5.43906V5.09906V4.75906V4.41906V4.07906H11.4086V3.73906V3.39906V3.05906H11.0486V2.71906H10.6886V2.37906H10.3186H9.95862V2.03906H9.58859H9.22861H8.85861H8.4986H8.13861H7.76862V2.37906H7.4086H7.0386V2.71906H6.67862V3.05906V3.39906Z" fill="#FCCA24"/>
<path d="M14.3283 2.37922V2.03922V1.69922H13.9683V2.03922H13.5983H13.2383V2.37922V2.71922V3.05922H13.5983V2.71922H13.9683H14.3283V3.05922V3.39922H14.6883V3.05922V2.71922V2.37922H14.3283Z" fill="#F2A12C"/>
<path d="M13.5984 1.36V1.02H13.2384H12.8683V0.68H12.5084V0.339996H12.1384H11.7784V0H11.4084H11.0484H10.6884H10.3184V0.339996H10.6884H11.0484V0.68H11.4084V1.02H11.7784V1.36H12.1384V1.7H12.5084H12.8683H13.2384H13.5984H13.9684V1.36H13.5984Z" fill="#F2A12C"/>
<path d="M14.3283 2.37922V2.03922V1.69922H13.9683V2.03922H13.5983H13.2383V2.37922V2.71922V3.05922H13.5983V2.71922H13.9683H14.3283V3.05922V3.39922H14.6883V3.05922V2.71922V2.37922H14.3283Z" fill="#F2A12C"/>
<path d="M14.3288 2.37922V2.03922V1.69922H13.9688V2.03922V2.37922H14.3288V2.71922V3.05922V3.39922H14.6888V3.05922V2.71922V2.37922H14.3288Z" fill="#231F20"/>
<path d="M12.8678 0.679688H12.5078V1.01968H12.8678V0.679688Z" fill="#231F20"/>
<path d="M12.8691 1.35954H13.2392H13.5992V1.01953H13.2392H12.8691V1.35954Z" fill="#231F20"/>
<path d="M12.1393 0.679848H12.5093V0.339844H12.1393H11.7793V0.679848H12.1393Z" fill="#231F20"/>
<path d="M13.9577 1.35938H13.5977V1.69937H13.9577V1.35938Z" fill="#231F20"/>
<path d="M10.6884 0.339996H11.0484H11.4084H11.7784V0H11.4084H11.0484H10.6884H10.3184V0.339996H10.6884Z" fill="#231F20"/>
<path d="M13.2392 7.83008H12.8691V8.17008H13.2392V7.83008Z" fill="#231F20"/>
<path d="M14.6881 3.40039H14.3281H14.6881V3.74039V4.08038V4.42039V4.76038V5.10039V5.44038V5.78039V6.12038V6.46039V6.80038H15.0581V6.46039V6.12038V5.78039V5.44038V5.10039V4.76038V4.42039V4.08038V3.74039V3.40039H14.6881Z" fill="#231F20"/>
<path d="M13.2383 8.50977V8.84977V9.18977H13.5983V8.84977V8.50977H13.2383Z" fill="#231F20"/>
<path d="M13.9577 8.16992H13.5977V8.50992H13.9577V8.16992Z" fill="#231F20"/>
<path d="M14.3288 6.80078V7.14079V7.48078H13.9688V7.83078V8.17078H14.3288V7.83078V7.48078H14.6888V7.14079V6.80078H14.3288Z" fill="#231F20"/>
<path d="M11.7782 9.87109H11.4082V10.2111H11.7782V9.87109Z" fill="#231F20"/>
<path d="M12.8678 9.18961V8.84961H12.5078V9.18961V9.52961H12.8678V9.18961Z" fill="#231F20"/>
<path d="M12.4987 9.53125H12.1387V9.87125H12.4987V9.53125Z" fill="#231F20"/>
<path d="M10.3182 9.5293V9.86929H9.95822H9.5882H9.22821H8.85822H8.4982H8.13821H7.76822H7.4082V10.2093H7.76822H8.13821H8.4982H8.85822H9.22821H9.5882H9.95822H10.3182V9.86929H10.6882H11.0482V9.5293H10.6882H10.3182Z" fill="#231F20"/>
<path d="M11.4088 9.18945H11.0488V9.52946H11.4088V9.18945Z" fill="#231F20"/>
<path d="M11.7782 8.84977H11.4082V9.18977H11.7782H12.1382V8.84977V8.50977H11.7782V8.84977Z" fill="#231F20"/>
<path d="M12.4987 8.16992H12.1387V8.50992H12.4987V8.16992Z" fill="#231F20"/>
<path d="M12.8698 7.83008H12.5098V8.17008H12.8698V7.83008Z" fill="#231F20"/>
<path d="M12.8691 7.48062V7.83062H13.2392V7.48062V7.14062H12.8691V7.48062Z" fill="#231F20"/>
<path d="M13.2383 3.74023V4.08023V4.42023V4.76023V5.10023V5.44023V5.78024V6.12023V6.46024V6.80023V7.14024H13.5983V6.80023V6.46024V6.12023V5.78024V5.44023V5.10023V4.76023V4.42023V4.08023V3.74023H13.2383Z" fill="#231F20"/>
<path d="M12.8691 3.0607V3.4007H13.2392V3.0607V2.7207H12.8691V3.0607Z" fill="#231F20"/>
<path d="M12.8698 2.03906H12.5098V2.37906H12.8698V2.03906Z" fill="#231F20"/>
<path d="M11.0495 7.48047H10.6895V7.82047H11.0495V7.48047Z" fill="#231F20"/>
<path d="M11.4088 3.74055V4.08054H11.7788V4.42055V4.76054V5.10055V5.44054V5.78055V6.12054H11.4088V6.46055V6.80054H11.0488V7.14055V7.48055H11.4088V7.14055H11.7788V6.80054V6.46055H12.1388V6.12054V5.78055V5.44054V5.10055V4.76054V4.42055V4.08054V3.74055H11.7788V3.40055V3.06055H11.4088V3.40055V3.74055Z" fill="#231F20"/>
<path d="M11.4088 2.7207H11.0488V3.0607H11.4088V2.7207Z" fill="#231F20"/>
<path d="M11.0495 2.38086H10.6895V2.72086H11.0495V2.38086Z" fill="#231F20"/>
<path d="M12.4987 1.69922H12.1387V2.03922H12.4987V1.69922Z" fill="#231F20"/>
<path d="M12.1393 1.35938H11.7793V1.69937H12.1393V1.35938Z" fill="#231F20"/>
<path d="M11.7682 1.01953H11.4082V1.35954H11.7682V1.01953Z" fill="#231F20"/>
<path d="M11.4088 0.679688H11.0488V1.01968H11.4088V0.679688Z" fill="#231F20"/>
<path d="M10.3184 0.679848H10.6884H11.0484V0.339844H10.6884H10.3184V0.679848Z" fill="#231F20"/>
<path d="M7.03967 9.5293H6.67969V9.86929H7.03967H7.40967V9.5293H7.03967Z" fill="#231F20"/>
<path d="M6.66861 9.18945H6.30859V9.52946H6.66861V9.18945Z" fill="#231F20"/>
<path d="M5.94986 8.84977V8.50977H5.58984V8.84977V9.18977H5.94986H6.30984V8.84977H5.94986Z" fill="#231F20"/>
<path d="M5.57877 8.16992H5.21875V8.50992H5.57877V8.16992Z" fill="#231F20"/>
<path d="M7.76907 8.51008H8.13907H8.49905H8.85907H9.22906H9.58905H9.95908H10.3191V8.17008H10.6891V7.83008H10.3191H9.95908V8.17008H9.58905H9.22906H8.85907H8.49905H8.13907H7.76907V7.83008H7.40906H7.03906V8.17008H7.40906V8.51008H7.76907Z" fill="#231F20"/>
<path d="M7.03967 7.48047H6.67969V7.82047H7.03967V7.48047Z" fill="#231F20"/>
<path d="M5.21936 7.48047H4.85938V7.83047V8.17047H5.21936V7.83047V7.48047Z" fill="#231F20"/>
<path d="M4.85828 6.80078H4.48828V7.14079V7.48078H4.85828V7.14079V6.80078Z" fill="#231F20"/>
<path d="M4.48892 6.12023V5.78024V5.44023V5.10023V4.76023V4.42023V4.08023V3.74023H4.12891V4.08023V4.42023V4.76023V5.10023V5.44023V5.78024V6.12023V6.46024H4.48892V6.12023Z" fill="#231F20"/>
<path d="M6.67987 6.8007H6.30984V6.4607V6.1207H5.94986V5.7807V5.4407V5.1007V4.7607V4.4207V4.0807H6.30984V3.7407V3.4007H6.67987V3.0607V2.7207H6.30984V3.0607H5.94986V3.4007V3.7407H5.58984V4.0807V4.4207V4.7607V5.1007V5.4407V5.7807V6.1207V6.4607H5.94986V6.8007V7.1407H6.30984V7.4807H6.67987V7.1407V6.8007Z" fill="#231F20"/>
<path d="M4.85828 3.0607V2.7207H4.48828V3.0607V3.4007H4.85828V3.0607Z" fill="#231F20"/>
<path d="M7.03967 2.38086H6.67969V2.72086H7.03967V2.38086Z" fill="#231F20"/>
<path d="M5.21936 2.37906V2.03906H4.85938V2.37906V2.71906H5.21936V2.37906Z" fill="#231F20"/>
<path d="M7.76907 2.37922V2.03922H8.13907H8.49905H8.85907H9.22906H9.58905H9.95908V2.37922H10.3191H10.6891V2.03922H10.3191V1.69922H9.95908H9.58905H9.22906H8.85907H8.49905H8.13907H7.76907H7.40906V2.03922H7.03906V2.37922H7.40906H7.76907Z" fill="#231F20"/>
<path d="M5.57877 1.69922H5.21875V2.03922H5.57877V1.69922Z" fill="#231F20"/>
<path d="M5.94986 1.35938H5.58984V1.69937H5.94986V1.35938Z" fill="#231F20"/>
<path d="M6.3092 1.01953H5.94922V1.35954H6.3092V1.01953Z" fill="#231F20"/>
<path d="M6.66861 0.679688H6.30859V1.01968H6.66861V0.679688Z" fill="#231F20"/>
<path d="M7.40967 0.679848V0.339844H7.03967H6.67969V0.679848H7.03967H7.40967Z" fill="#231F20"/>
<path d="M8.13821 0.339996H8.4982H8.85822H9.22821H9.5882H9.95822H10.3182V0H9.95822H9.5882H9.22821H8.85822H8.4982H8.13821H7.76822H7.4082V0.339996H7.76822H8.13821Z" fill="#231F20"/>
<path d="M13.9683 2.71875H13.5983V3.05875H13.2383V3.39875V3.73875H13.5983V3.39875H13.9683H14.3283V3.05875V2.71875H13.9683Z" fill="white"/>
<path d="M13.5998 1.69922H13.2398H12.8698H12.5098V2.03922H12.8698V2.37922H13.2398V2.03922H13.5998H13.9698V1.69922H13.5998Z" fill="white"/>
<path d="M9.22968 7.82883H8.85968H8.49966H8.13968V7.47883H7.76968H7.40967V7.13883H7.03967V6.79883H6.67969V7.13883V7.47883H7.03967V7.82883H7.40967H7.76968V8.16883H8.13968H8.49966H8.85968H9.22968H9.58966H9.95969V7.82883H9.58966H9.22968Z" fill="white"/>
<path d="M9.95898 7.47852V7.82851H10.319H10.689V7.47852H10.319H9.95898Z" fill="white"/>
<path d="M11.0495 7.13867H10.6895V7.47867H11.0495V7.13867Z" fill="white"/>
<path d="M6.67862 6.11914H6.30859V6.45914V6.79914H6.67862V6.45914V6.11914Z" fill="white"/>
<path d="M6.3092 5.43977V5.09977V4.75977H5.94922V5.09977V5.43977V5.77977V6.11977H6.3092V5.77977V5.43977Z" fill="white"/>
<path d="M6.3092 4.08008H5.94922V4.42008H6.3092V4.08008Z" fill="white"/>
</svg>
