<svg width="26" height="22" viewBox="0 0 26 22" fill="none" xmlns="http://www.w3.org/2000/svg">
<path d="M13.2146 20.3044L12.6133 21.0527L13.3617 21.654L13.9629 20.9056L13.2146 20.3044Z" fill="#C0BFBF"/>
<path d="M13.8239 19.5563L13.2227 20.3047L13.971 20.906L14.5723 20.1576L13.8239 19.5563Z" fill="#C0BFBF"/>
<path d="M14.4314 18.8004L13.8301 19.5488L14.5785 20.1501L15.1797 19.4017L14.4314 18.8004Z" fill="#C0BFBF"/>
<path d="M15.0329 18.0544L14.4316 18.8027L15.18 19.404L15.7813 18.6556L15.0329 18.0544Z" fill="#C0BFBF"/>
<path d="M15.6345 17.3063L15.0332 18.0547L15.7816 18.656L16.3829 17.9076L15.6345 17.3063Z" fill="#C0BFBF"/>
<path d="M16.2341 16.5446L15.6328 17.293L16.3812 17.8942L16.9825 17.1459L16.2341 16.5446Z" fill="#C0BFBF"/>
<path d="M16.8357 15.7965L16.2344 16.5449L16.9827 17.1462L17.584 16.3978L16.8357 15.7965Z" fill="#C0BFBF"/>
<path d="M17.4372 15.0505L16.8359 15.7988L17.5843 16.4001L18.1856 15.6517L17.4372 15.0505Z" fill="#C0BFBF"/>
<path d="M18.0446 14.2946L17.4434 15.043L18.1917 15.6442L18.793 14.8959L18.0446 14.2946Z" fill="#C0BFBF"/>
<path d="M18.6443 13.5465L18.043 14.2949L18.7913 14.8962L19.3926 14.1478L18.6443 13.5465Z" fill="#C0BFBF"/>
<path d="M19.2556 12.8005L18.6543 13.5488L19.4027 14.1501L20.0039 13.4017L19.2556 12.8005Z" fill="#C0BFBF"/>
<path d="M19.863 12.0446L19.2617 12.793L20.0101 13.3942L20.6114 12.6459L19.863 12.0446Z" fill="#C0BFBF"/>
<path d="M20.4646 11.2965L19.8633 12.0449L20.6117 12.6462L21.2129 11.8978L20.4646 11.2965Z" fill="#C0BFBF"/>
<path d="M21.0661 10.5485L20.4648 11.2969L21.2132 11.8982L21.8145 11.1498L21.0661 10.5485Z" fill="#C0BFBF"/>
<path d="M21.6657 9.78873L21.0645 10.5371L21.8128 11.1384L22.4141 10.39L21.6657 9.78873Z" fill="#C0BFBF"/>
<path d="M22.2673 9.04069L21.666 9.78906L22.4144 10.3903L23.0157 9.64197L22.2673 9.04069Z" fill="#C0BFBF"/>
<path d="M22.8669 8.28287L22.2656 9.03125L23.014 9.63253L23.6153 8.88415L22.8669 8.28287Z" fill="#C0BFBF"/>
<path d="M23.4743 7.52701L22.873 8.27539L23.6214 8.87667L24.2227 8.12829L23.4743 7.52701Z" fill="#C0BFBF"/>
<path d="M24.0759 6.78093L23.4746 7.5293L24.223 8.13057L24.8243 7.38221L24.0759 6.78093Z" fill="#C0BFBF"/>
<path d="M24.6775 6.03287L24.0762 6.78125L24.8245 7.38253L25.4258 6.63415L24.6775 6.03287Z" fill="#C0BFBF"/>
<path d="M12.4665 19.7028L11.8652 20.4512L12.6136 21.0524L13.2149 20.3041L12.4665 19.7028Z" fill="#C0BFBF"/>
<path d="M13.07 18.9489L12.4688 19.6973L13.2171 20.2985L13.8184 19.5502L13.07 18.9489Z" fill="white"/>
<path d="M13.6716 18.2008L13.0703 18.9492L13.8187 19.5505L14.42 18.8021L13.6716 18.2008Z" fill="white"/>
<path d="M14.2771 17.4469L13.6758 18.1953L14.4242 18.7966L15.0254 18.0482L14.2771 17.4469Z" fill="white"/>
<path d="M14.8786 16.6989L14.2773 17.4473L15.0257 18.0485L15.627 17.3002L14.8786 16.6989Z" fill="white"/>
<path d="M15.4802 15.9508L14.8789 16.6992L15.6273 17.3005L16.2286 16.5521L15.4802 15.9508Z" fill="white"/>
<path d="M16.0876 15.1969L15.4863 15.9453L16.2347 16.5466L16.836 15.7982L16.0876 15.1969Z" fill="white"/>
<path d="M16.6892 14.4489L16.0879 15.1973L16.8363 15.7985L17.4375 15.0502L16.6892 14.4489Z" fill="white"/>
<path d="M17.2907 13.7008L16.6895 14.4492L17.4378 15.0505L18.0391 14.3021L17.2907 13.7008Z" fill="white"/>
<path d="M17.8982 12.9469L17.2969 13.6953L18.0452 14.2966L18.6465 13.5482L17.8982 12.9469Z" fill="white"/>
<path d="M18.4978 12.1989L17.8965 12.9473L18.6449 13.5485L19.2461 12.8002L18.4978 12.1989Z" fill="white"/>
<path d="M19.1013 11.445L18.5 12.1934L19.2484 12.7946L19.8497 12.0463L19.1013 11.445Z" fill="white"/>
<path d="M19.7087 10.6891L19.1074 11.4375L19.8558 12.0388L20.4571 11.2904L19.7087 10.6891Z" fill="white"/>
<path d="M20.3103 9.93131L19.709 10.6797L20.4574 11.281L21.0586 10.5326L20.3103 9.93131Z" fill="white"/>
<path d="M20.9118 9.18523L20.3105 9.93359L21.0589 10.5349L21.6602 9.7865L20.9118 9.18523Z" fill="white"/>
<path d="M21.5192 8.42937L20.918 9.17773L21.6663 9.77901L22.2676 9.03064L21.5192 8.42937Z" fill="white"/>
<path d="M22.1208 7.68131L21.5195 8.42969L22.2679 9.03097L22.8692 8.28259L22.1208 7.68131Z" fill="white"/>
<path d="M22.7204 6.93523L22.1191 7.68359L22.8675 8.28487L23.4688 7.5365L22.7204 6.93523Z" fill="white"/>
<path d="M23.3278 6.17937L22.7266 6.92773L23.4749 7.52901L24.0762 6.78064L23.3278 6.17937Z" fill="white"/>
<path d="M23.9294 5.43131L23.3281 6.17969L24.0765 6.78097L24.6778 6.03259L23.9294 5.43131Z" fill="#C0BFBF"/>
<path d="M11.7106 19.0954L11.1094 19.8438L11.8577 20.445L12.459 19.6967L11.7106 19.0954Z" fill="#C0BFBF"/>
<path d="M12.322 18.3473L11.7207 19.0957L12.4691 19.697L13.0704 18.9486L12.322 18.3473Z" fill="white"/>
<path d="M12.9235 17.6012L12.3223 18.3496L13.0706 18.9509L13.6719 18.2025L12.9235 17.6012Z" fill="white"/>
<path d="M13.531 16.8454L12.9297 17.5938L13.6781 18.195L14.2793 17.4467L13.531 16.8454Z" fill="white"/>
<path d="M14.1325 16.0973L13.5312 16.8457L14.2796 17.447L14.8809 16.6986L14.1325 16.0973Z" fill="white"/>
<path d="M14.7321 15.3512L14.1309 16.0996L14.8792 16.7009L15.4805 15.9525L14.7321 15.3512Z" fill="white"/>
<path d="M15.3396 14.5954L14.7383 15.3438L15.4867 15.945L16.0879 15.1966L15.3396 14.5954Z" fill="white"/>
<path d="M15.9411 13.8473L15.3398 14.5957L16.0882 15.197L16.6895 14.4486L15.9411 13.8473Z" fill="white"/>
<path d="M16.5349 13.0934L15.9336 13.8418L16.682 14.4431L17.2833 13.6947L16.5349 13.0934Z" fill="white"/>
<path d="M17.1423 12.3278L16.541 13.0762L17.2894 13.6774L17.8907 12.9291L17.1423 12.3278Z" fill="white"/>
<path d="M17.7439 11.5817L17.1426 12.3301L17.891 12.9314L18.4922 12.183L17.7439 11.5817Z" fill="#929191"/>
<path d="M18.3552 10.8337L17.7539 11.582L18.5023 12.1833L19.1036 11.4349L18.3552 10.8337Z" fill="#929191"/>
<path d="M18.9626 10.0778L18.3613 10.8262L19.1097 11.4274L19.711 10.6791L18.9626 10.0778Z" fill="#929191"/>
<path d="M19.5622 9.3317L18.9609 10.0801L19.7093 10.6814L20.3106 9.93298L19.5622 9.3317Z" fill="#929191"/>
<path d="M20.1638 8.58366L19.5625 9.33203L20.3109 9.93331L20.9121 9.18494L20.1638 8.58366Z" fill="#929191"/>
<path d="M20.7712 7.8278L20.1699 8.57617L20.9183 9.17745L21.5196 8.42908L20.7712 7.8278Z" fill="#929191"/>
<path d="M21.3728 7.07975L20.7715 7.82812L21.5199 8.4294L22.1211 7.68102L21.3728 7.07975Z" fill="#929191"/>
<path d="M21.9665 6.3278L21.3652 7.07617L22.1136 7.67745L22.7149 6.92908L21.9665 6.3278Z" fill="#929191"/>
<path d="M22.5739 5.57194L21.9727 6.32031L22.721 6.92159L23.3223 6.17323L22.5739 5.57194Z" fill="#929191"/>
<path d="M23.1735 4.82389L22.5723 5.57227L23.3206 6.17355L23.9219 5.42517L23.1735 4.82389Z" fill="#C0BFBF"/>
<path d="M10.3552 19.2497L9.75391 19.998L10.5023 20.5993L11.1036 19.851L10.3552 19.2497Z" fill="#C0BFBF"/>
<path d="M10.9568 18.5016L10.3555 19.25L11.1038 19.8513L11.7051 19.1029L10.9568 18.5016Z" fill="#C0BFBF"/>
<path d="M11.5642 17.7477L10.9629 18.4961L11.7113 19.0974L12.3125 18.349L11.5642 17.7477Z" fill="#C0BFBF"/>
<path d="M12.1755 16.9997L11.5742 17.748L12.3226 18.3493L12.9239 17.6009L12.1755 16.9997Z" fill="#C0BFBF"/>
<path d="M12.7771 16.2516L12.1758 17L12.9242 17.6013L13.5254 16.8529L12.7771 16.2516Z" fill="#C0BFBF"/>
<path d="M13.3845 15.4958L12.7832 16.2441L13.5316 16.8454L14.1328 16.0971L13.3845 15.4958Z" fill="#C0BFBF"/>
<path d="M13.9782 14.7438L13.377 15.4922L14.1253 16.0935L14.7266 15.3451L13.9782 14.7438Z" fill="#C0BFBF"/>
<path d="M14.5857 13.9782L13.9844 14.7266L14.7328 15.3278L15.334 14.5795L14.5857 13.9782Z" fill="#C0BFBF"/>
<path d="M15.1853 13.2301L14.584 13.9785L15.3324 14.5798L15.9336 13.8314L15.1853 13.2301Z" fill="#C0BFBF"/>
<path d="M15.7868 12.4821L15.1855 13.2305L15.9339 13.8317L16.5352 13.0834L15.7868 12.4821Z" fill="#C0BFBF"/>
<path d="M16.3943 11.7282L15.793 12.4766L16.5413 13.0778L17.1426 12.3295L16.3943 11.7282Z" fill="#C0BFBF"/>
<path d="M16.9958 10.9801L16.3945 11.7285L17.1429 12.3298L17.7442 11.5814L16.9958 10.9801Z" fill="#C0BFBF"/>
<path d="M17.5974 10.2321L16.9961 10.9805L17.7445 11.5817L18.3458 10.8334L17.5974 10.2321Z" fill="#C0BFBF"/>
<path d="M18.2146 9.47818L17.6133 10.2266L18.3617 10.8278L18.9629 10.0795L18.2146 9.47818Z" fill="#C0BFBF"/>
<path d="M18.8161 8.73014L18.2148 9.47852L18.9632 10.0798L19.5645 9.33142L18.8161 8.73014Z" fill="#C0BFBF"/>
<path d="M19.4079 7.97624L18.8066 8.72461L19.555 9.32589L20.1563 8.57752L19.4079 7.97624Z" fill="#C0BFBF"/>
<path d="M20.0153 7.22038L19.4141 7.96875L20.1624 8.57003L20.7637 7.82166L20.0153 7.22038Z" fill="white"/>
<path d="M20.6169 6.47232L20.0156 7.2207L20.764 7.82198L21.3653 7.0736L20.6169 6.47232Z" fill="white"/>
<path d="M21.2185 5.72624L20.6172 6.47461L21.3656 7.07589L21.9668 6.32752L21.2185 5.72624Z" fill="white"/>
<path d="M21.8259 4.97038L21.2246 5.71875L21.973 6.32003L22.5743 5.57166L21.8259 4.97038Z" fill="white"/>
<path d="M22.4275 4.22232L21.8262 4.9707L22.5745 5.57198L23.1758 4.8236L22.4275 4.22232Z" fill="#C0BFBF"/>
<path d="M9.60909 18.6481L9.00781 19.3965L9.75619 19.9978L10.3575 19.2494L9.60909 18.6481Z" fill="#C0BFBF"/>
<path d="M10.2087 17.902L9.60742 18.6504L10.3558 19.2517L10.9571 18.5033L10.2087 17.902Z" fill="#00548A"/>
<path d="M10.8083 17.1403L10.207 17.8887L10.9554 18.4899L11.5567 17.7416L10.8083 17.1403Z" fill="#00548A"/>
<path d="M11.4196 16.3825L10.8184 17.1309L11.5667 17.7321L12.168 16.9838L11.4196 16.3825Z" fill="#00548A"/>
<path d="M12.0212 15.6344L11.4199 16.3828L12.1683 16.9841L12.7696 16.2357L12.0212 15.6344Z" fill="#00548A"/>
<path d="M12.6286 14.8786L12.0273 15.627L12.7757 16.2282L13.377 15.4799L12.6286 14.8786Z" fill="#00548A"/>
<path d="M13.2302 14.1325L12.6289 14.8809L13.3773 15.4821L13.9786 14.7338L13.2302 14.1325Z" fill="#00548A"/>
<path d="M13.8317 13.3844L13.2305 14.1328L13.9788 14.7341L14.5801 13.9857L13.8317 13.3844Z" fill="#00548A"/>
<path d="M14.4392 12.6286L13.8379 13.377L14.5863 13.9782L15.1875 13.2299L14.4392 12.6286Z" fill="#00548A"/>
<path d="M15.0388 11.8825L14.4375 12.6309L15.1859 13.2321L15.7872 12.4838L15.0388 11.8825Z" fill="#00548A"/>
<path d="M15.6403 11.1344L15.0391 11.8828L15.7874 12.4841L16.3887 11.7357L15.6403 11.1344Z" fill="#00548A"/>
<path d="M16.2399 10.3727L15.6387 11.1211L16.387 11.7224L16.9883 10.974L16.2399 10.3727Z" fill="#00548A"/>
<path d="M16.8415 9.62467L16.2402 10.373L16.9886 10.9743L17.5899 10.2259L16.8415 9.62467Z" fill="#00548A"/>
<path d="M17.4528 8.87857L16.8516 9.62695L17.5999 10.2282L18.2012 9.47985L17.4528 8.87857Z" fill="#00548A"/>
<path d="M18.0603 8.12271L17.459 8.87109L18.2074 9.47237L18.8086 8.72399L18.0603 8.12271Z" fill="#00548A"/>
<path d="M18.6618 7.37468L18.0605 8.12305L18.8089 8.72433L19.4102 7.97596L18.6618 7.37468Z" fill="#00548A"/>
<path d="M19.2614 6.62662L18.6602 7.375L19.4085 7.97628L20.0098 7.2279L19.2614 6.62662Z" fill="white"/>
<path d="M19.8689 5.87271L19.2676 6.62109L20.016 7.22237L20.6172 6.47399L19.8689 5.87271Z" fill="#929191"/>
<path d="M20.4704 5.12468L19.8691 5.87305L20.6175 6.47433L21.2188 5.72596L20.4704 5.12468Z" fill="#929191"/>
<path d="M21.072 4.37662L20.4707 5.125L21.2191 5.72628L21.8204 4.9779L21.072 4.37662Z" fill="#929191"/>
<path d="M21.6794 3.62271L21.0781 4.37109L21.8265 4.97237L22.4278 4.22399L21.6794 3.62271Z" fill="#C0BFBF"/>
<path d="M8.85323 18.0309L8.25195 18.7793L9.00033 19.3806L9.6016 18.6322L8.85323 18.0309Z" fill="#C0BFBF"/>
<path d="M9.4548 17.2829L8.85352 18.0312L9.60189 18.6325L10.2032 17.8841L9.4548 17.2829Z" fill="#00548A"/>
<path d="M10.0622 16.529L9.46094 17.2773L10.2093 17.8786L10.8106 17.1302L10.0622 16.529Z" fill="#00548A"/>
<path d="M10.6735 15.7809L10.0723 16.5293L10.8206 17.1306L11.4219 16.3822L10.6735 15.7809Z" fill="#00548A"/>
<path d="M11.2731 15.0329L10.6719 15.7812L11.4202 16.3825L12.0215 15.6342L11.2731 15.0329Z" fill="#00548A"/>
<path d="M11.8806 14.279L11.2793 15.0273L12.0277 15.6286L12.6289 14.8803L11.8806 14.279Z" fill="#00548A"/>
<path d="M12.4821 13.5309L11.8809 14.2793L12.6292 14.8806L13.2305 14.1322L12.4821 13.5309Z" fill="#00548A"/>
<path d="M13.0837 12.7829L12.4824 13.5312L13.2308 14.1325L13.8321 13.3842L13.0837 12.7829Z" fill="#00548A"/>
<path d="M13.6911 12.027L13.0898 12.7754L13.8382 13.3767L14.4395 12.6283L13.6911 12.027Z" fill="#00548A"/>
<path d="M14.2849 11.2751L13.6836 12.0234L14.432 12.6247L15.0333 11.8763L14.2849 11.2751Z" fill="#00548A"/>
<path d="M14.8864 10.527L14.2852 11.2754L15.0335 11.8767L15.6348 11.1283L14.8864 10.527Z" fill="white"/>
<path d="M15.4939 9.77116L14.8926 10.5195L15.641 11.1208L16.2422 10.3724L15.4939 9.77116Z" fill="white"/>
<path d="M16.0935 9.0231L15.4922 9.77148L16.2406 10.3728L16.8418 9.62438L16.0935 9.0231Z" fill="#00548A"/>
<path d="M16.7048 8.27701L16.1035 9.02539L16.8519 9.62667L17.4532 8.87829L16.7048 8.27701Z" fill="white"/>
<path d="M17.3122 7.52115L16.7109 8.26953L17.4593 8.87081L18.0606 8.12243L17.3122 7.52115Z" fill="#00548A"/>
<path d="M17.9138 6.77312L17.3125 7.52148L18.0609 8.12276L18.6621 7.37439L17.9138 6.77312Z" fill="#00548A"/>
<path d="M18.5153 6.02701L17.9141 6.77539L18.6624 7.37667L19.2637 6.62829L18.5153 6.02701Z" fill="white"/>
<path d="M19.1228 5.27115L18.5215 6.01953L19.2699 6.62081L19.8711 5.87243L19.1228 5.27115Z" fill="white"/>
<path d="M19.7165 4.51726L19.1152 5.26562L19.8636 5.8669L20.4649 5.11854L19.7165 4.51726Z" fill="white"/>
<path d="M20.3161 3.7692L19.7148 4.51758L20.4632 5.11886L21.0645 4.37048L20.3161 3.7692Z" fill="white"/>
<path d="M20.9235 3.01529L20.3223 3.76367L21.0706 4.36495L21.6719 3.61657L20.9235 3.01529Z" fill="#C0BFBF"/>
<path d="M8.10518 17.4294L7.50391 18.1777L8.25228 18.779L8.85355 18.0306L8.10518 17.4294Z" fill="#C0BFBF"/>
<path d="M8.70675 16.6833L8.10547 17.4316L8.85384 18.0329L9.45513 17.2845L8.70675 16.6833Z" fill="#00548A"/>
<path d="M9.31417 15.9274L8.71289 16.6758L9.46126 17.2771L10.0625 16.5287L9.31417 15.9274Z" fill="#00548A"/>
<path d="M9.91574 15.1794L9.31445 15.9277L10.0628 16.529L10.6641 15.7806L9.91574 15.1794Z" fill="#00548A"/>
<path d="M10.5271 14.4333L9.92578 15.1816L10.6742 15.7829L11.2754 15.0346L10.5271 14.4333Z" fill="#00548A"/>
<path d="M11.1345 13.6774L10.5332 14.4258L11.2816 15.0271L11.8828 14.2787L11.1345 13.6774Z" fill="#00548A"/>
<path d="M11.7282 12.9235L11.127 13.6719L11.8753 14.2732L12.4766 13.5248L11.7282 12.9235Z" fill="#00548A"/>
<path d="M12.3278 12.1755L11.7266 12.9238L12.4749 13.5251L13.0762 12.7767L12.3278 12.1755Z" fill="#00548A"/>
<path d="M12.9353 11.4196L12.334 12.168L13.0824 12.7692L13.6836 12.0209L12.9353 11.4196Z" fill="#00548A"/>
<path d="M13.5368 10.6735L12.9355 11.4219L13.6839 12.0232L14.2852 11.2748L13.5368 10.6735Z" fill="white"/>
<path d="M14.1384 9.92546L13.5371 10.6738L14.2855 11.2751L14.8868 10.5267L14.1384 9.92546Z" fill="#00548A"/>
<path d="M14.7458 9.1696L14.1445 9.91797L14.8929 10.5192L15.4942 9.77088L14.7458 9.1696Z" fill="#00548A"/>
<path d="M15.3474 8.4235L14.7461 9.17188L15.4945 9.77315L16.0958 9.02477L15.3474 8.4235Z" fill="white"/>
<path d="M15.9568 7.67545L15.3555 8.42383L16.1038 9.02511L16.7051 8.27673L15.9568 7.67545Z" fill="#00548A"/>
<path d="M16.5642 6.91959L15.9629 7.66797L16.7113 8.26925L17.3125 7.52087L16.5642 6.91959Z" fill="#00548A"/>
<path d="M17.1579 6.16569L16.5566 6.91406L17.305 7.51534L17.9063 6.76697L17.1579 6.16569Z" fill="#00548A"/>
<path d="M17.7595 5.41959L17.1582 6.16797L17.9066 6.76925L18.5079 6.02087L17.7595 5.41959Z" fill="white"/>
<path d="M18.3669 4.66373L17.7656 5.41211L18.514 6.01339L19.1153 5.26501L18.3669 4.66373Z" fill="#929191"/>
<path d="M18.9685 3.91569L18.3672 4.66406L19.1156 5.26534L19.7168 4.51697L18.9685 3.91569Z" fill="#929191"/>
<path d="M19.57 3.16764L18.9688 3.91602L19.7171 4.51729L20.3184 3.76891L19.57 3.16764Z" fill="#929191"/>
<path d="M20.1775 2.41373L19.5762 3.16211L20.3245 3.76339L20.9258 3.01501L20.1775 2.41373Z" fill="#C0BFBF"/>
<path d="M7.35909 16.8298L6.75781 17.5781L7.50619 18.1794L8.10746 17.431L7.35909 16.8298Z" fill="#C0BFBF"/>
<path d="M7.9587 16.0817L7.35742 16.8301L8.1058 17.4314L8.70708 16.683L7.9587 16.0817Z" fill="#00548A"/>
<path d="M8.55245 15.3278L7.95117 16.0762L8.69955 16.6775L9.30083 15.9291L8.55245 15.3278Z" fill="#00548A"/>
<path d="M9.15988 14.5719L8.55859 15.3203L9.30697 15.9216L9.90825 15.1732L9.15988 14.5719Z" fill="#00548A"/>
<path d="M9.77119 13.8259L9.16992 14.5742L9.9183 15.1755L10.5196 14.4271L9.77119 13.8259Z" fill="#00548A"/>
<path d="M10.3728 13.0778L9.77148 13.8262L10.5199 14.4275L11.1211 13.6791L10.3728 13.0778Z" fill="#00548A"/>
<path d="M10.9802 12.3219L10.3789 13.0703L11.1273 13.6716L11.7286 12.9232L10.9802 12.3219Z" fill="#00548A"/>
<path d="M11.5817 11.5739L10.9805 12.3223L11.7288 12.9235L12.3301 12.1752L11.5817 11.5739Z" fill="#00548A"/>
<path d="M12.1814 10.8278L11.5801 11.5762L12.3285 12.1775L12.9297 11.4291L12.1814 10.8278Z" fill="#00548A"/>
<path d="M12.7888 10.0719L12.1875 10.8203L12.9359 11.4216L13.5372 10.6732L12.7888 10.0719Z" fill="#00548A"/>
<path d="M13.3903 9.3239L12.7891 10.0723L13.5374 10.6735L14.1387 9.92518L13.3903 9.3239Z" fill="#00548A"/>
<path d="M13.9841 8.56998L13.3828 9.31836L14.1312 9.91964L14.7325 9.17126L13.9841 8.56998Z" fill="#00548A"/>
<path d="M14.5915 7.81607L13.9902 8.56445L14.7386 9.16573L15.3399 8.41735L14.5915 7.81607Z" fill="#00548A"/>
<path d="M15.1931 7.06803L14.5918 7.81641L15.3402 8.41768L15.9415 7.6693L15.1931 7.06803Z" fill="#00548A"/>
<path d="M15.8044 6.31999L15.2031 7.06836L15.9515 7.66964L16.5528 6.92127L15.8044 6.31999Z" fill="#00548A"/>
<path d="M16.4118 5.56609L15.8105 6.31445L16.5589 6.91573L17.1602 6.16736L16.4118 5.56609Z" fill="#00548A"/>
<path d="M17.0114 4.81803L16.4102 5.56641L17.1585 6.16768L17.7598 5.4193L17.0114 4.81803Z" fill="white"/>
<path d="M17.613 4.06999L17.0117 4.81836L17.7601 5.41964L18.3614 4.67127L17.613 4.06999Z" fill="white"/>
<path d="M18.2204 3.31413L17.6191 4.0625L18.3675 4.66378L18.9688 3.91541L18.2204 3.31413Z" fill="white"/>
<path d="M18.822 2.56803L18.2207 3.31641L18.9691 3.91768L19.5704 3.1693L18.822 2.56803Z" fill="white"/>
<path d="M19.4235 1.81998L18.8223 2.56836L19.5706 3.16964L20.1719 2.42126L19.4235 1.81998Z" fill="#C0BFBF"/>
<path d="M6.60323 16.2223L6.00195 16.9707L6.75033 17.572L7.3516 16.8236L6.60323 16.2223Z" fill="#C0BFBF"/>
<path d="M7.2048 15.4743L6.60352 16.2227L7.35189 16.8239L7.95317 16.0756L7.2048 15.4743Z" fill="#00548A"/>
<path d="M7.80441 14.7262L7.20312 15.4746L7.9515 16.0759L8.55278 15.3275L7.80441 14.7262Z" fill="#00548A"/>
<path d="M8.41183 13.9704L7.81055 14.7188L8.55892 15.32L9.1602 14.5716L8.41183 13.9704Z" fill="#00548A"/>
<path d="M9.02315 13.2243L8.42188 13.9727L9.17025 14.5739L9.77152 13.8256L9.02315 13.2243Z" fill="#00548A"/>
<path d="M9.62472 12.4762L9.02344 13.2246L9.77181 13.8259L10.3731 13.0775L9.62472 12.4762Z" fill="#00548A"/>
<path d="M10.2321 11.7204L9.63086 12.4688L10.3792 13.07L10.9805 12.3216L10.2321 11.7204Z" fill="#00548A"/>
<path d="M10.8337 10.9743L10.2324 11.7227L10.9808 12.3239L11.5821 11.5756L10.8337 10.9743Z" fill="#00548A"/>
<path d="M11.4275 10.2204L10.8262 10.9688L11.5745 11.57L12.1758 10.8217L11.4275 10.2204Z" fill="#00548A"/>
<path d="M12.0349 9.46451L11.4336 10.2129L12.182 10.8142L12.7833 10.0658L12.0349 9.46451Z" fill="#00548A"/>
<path d="M12.6345 8.71648L12.0332 9.46484L12.7816 10.0661L13.3829 9.31776L12.6345 8.71648Z" fill="white"/>
<path d="M13.236 7.97037L12.6348 8.71875L13.3831 9.32003L13.9844 8.57165L13.236 7.97037Z" fill="white"/>
<path d="M13.8435 7.21451L13.2422 7.96289L13.9906 8.56417L14.5918 7.81579L13.8435 7.21451Z" fill="#00548A"/>
<path d="M14.445 6.46646L13.8438 7.21484L14.5921 7.81612L15.1934 7.06774L14.445 6.46646Z" fill="white"/>
<path d="M15.0564 5.71843L14.4551 6.4668L15.2035 7.06808L15.8047 6.31971L15.0564 5.71843Z" fill="#00548A"/>
<path d="M15.6638 4.96452L15.0625 5.71289L15.8109 6.31417L16.4121 5.5658L15.6638 4.96452Z" fill="#00548A"/>
<path d="M16.2653 4.21646L15.6641 4.96484L16.4124 5.56612L17.0137 4.81774L16.2653 4.21646Z" fill="white"/>
<path d="M16.8649 3.46843L16.2637 4.2168L17.012 4.81808L17.6133 4.06971L16.8649 3.46843Z" fill="#929191"/>
<path d="M17.4646 2.70671L16.8633 3.45508L17.6117 4.05636L18.2129 3.30799L17.4646 2.70671Z" fill="#929191"/>
<path d="M18.0661 1.9606L17.4648 2.70898L18.2132 3.31026L18.8145 2.56188L18.0661 1.9606Z" fill="#929191"/>
<path d="M18.6677 1.21256L18.0664 1.96094L18.8148 2.56222L19.4161 1.81384L18.6677 1.21256Z" fill="#C0BFBF"/>
<path d="M5.85518 15.6208L5.25391 16.3691L6.00228 16.9704L6.60356 16.2221L5.85518 15.6208Z" fill="#C0BFBF"/>
<path d="M6.45675 14.8727L5.85547 15.6211L6.60385 16.2224L7.20513 15.474L6.45675 14.8727Z" fill="#00548A"/>
<path d="M7.05831 14.1247L6.45703 14.873L7.20541 15.4743L7.80669 14.7259L7.05831 14.1247Z" fill="#00548A"/>
<path d="M7.66574 13.3708L7.06445 14.1191L7.81283 14.7204L8.41411 13.972L7.66574 13.3708Z" fill="#00548A"/>
<path d="M8.27705 12.6227L7.67578 13.3711L8.42416 13.9724L9.02543 13.224L8.27705 12.6227Z" fill="#00548A"/>
<path d="M8.86886 11.8688L8.26758 12.6172L9.01595 13.2185L9.61723 12.4701L8.86886 11.8688Z" fill="#00548A"/>
<path d="M9.47628 11.1129L8.875 11.8613L9.62337 12.4626L10.2247 11.7142L9.47628 11.1129Z" fill="#00548A"/>
<path d="M10.0778 10.3669L9.47656 11.1152L10.2249 11.7165L10.8262 10.9681L10.0778 10.3669Z" fill="#00548A"/>
<path d="M10.6794 9.61881L10.0781 10.3672L10.8265 10.9685L11.4278 10.2201L10.6794 9.61881Z" fill="#00548A"/>
<path d="M11.2868 8.86295L10.6855 9.61133L11.4339 10.2126L12.0352 9.46423L11.2868 8.86295Z" fill="white"/>
<path d="M11.8884 8.11687L11.2871 8.86523L12.0355 9.46651L12.6368 8.71814L11.8884 8.11687Z" fill="#00548A"/>
<path d="M12.488 7.36881L11.8867 8.11719L12.6351 8.71847L13.2364 7.97009L12.488 7.36881Z" fill="#00548A"/>
<path d="M13.0954 6.61295L12.4941 7.36133L13.2425 7.96261L13.8438 7.21423L13.0954 6.61295Z" fill="white"/>
<path d="M13.697 5.8649L13.0957 6.61328L13.8441 7.21456L14.4454 6.46618L13.697 5.8649Z" fill="#00548A"/>
<path d="M14.3083 5.11882L13.707 5.86719L14.4554 6.46847L15.0567 5.7201L14.3083 5.11882Z" fill="#00548A"/>
<path d="M14.9079 4.3571L14.3066 5.10547L15.055 5.70675L15.6563 4.95838L14.9079 4.3571Z" fill="#00548A"/>
<path d="M15.5095 3.60904L14.9082 4.35742L15.6566 4.9587L16.2579 4.21032L15.5095 3.60904Z" fill="white"/>
<path d="M16.111 2.86101L15.5098 3.60938L16.2581 4.21065L16.8594 3.46229L16.111 2.86101Z" fill="#929191"/>
<path d="M16.7185 2.1071L16.1172 2.85547L16.8656 3.45675L17.4668 2.70838L16.7185 2.1071Z" fill="#929191"/>
<path d="M17.3181 1.35904L16.7168 2.10742L17.4652 2.7087L18.0665 1.96032L17.3181 1.35904Z" fill="#929191"/>
<path d="M17.9196 0.60123L17.3184 1.34961L18.0667 1.95089L18.668 1.20251L17.9196 0.60123Z" fill="#C0BFBF"/>
<path d="M5.10128 15.027L4.5 15.7754L5.24837 16.3767L5.84966 15.6283L5.10128 15.027Z" fill="#C0BFBF"/>
<path d="M5.7087 14.2712L5.10742 15.0195L5.8558 15.6208L6.45708 14.8724L5.7087 14.2712Z" fill="#00548A"/>
<path d="M6.30245 13.5172L5.70117 14.2656L6.44955 14.8669L7.05083 14.1185L6.30245 13.5172Z" fill="#00548A"/>
<path d="M6.90401 12.7712L6.30273 13.5195L7.05111 14.1208L7.65238 13.3724L6.90401 12.7712Z" fill="#00548A"/>
<path d="M7.51143 12.0153L6.91016 12.7637L7.65853 13.3649L8.2598 12.6166L7.51143 12.0153Z" fill="#00548A"/>
<path d="M8.12277 11.2672L7.52148 12.0156L8.26986 12.6169L8.87114 11.8685L8.12277 11.2672Z" fill="#00548A"/>
<path d="M8.72237 10.5212L8.12109 11.2695L8.86947 11.8708L9.47074 11.1224L8.72237 10.5212Z" fill="#00548A"/>
<path d="M9.32979 9.7653L8.72852 10.5137L9.47689 11.1149L10.0782 10.3666L9.32979 9.7653Z" fill="#00548A"/>
<path d="M9.93136 9.01725L9.33008 9.76562L10.0785 10.3669L10.6797 9.61852L9.93136 9.01725Z" fill="#00548A"/>
<path d="M10.5329 8.26921L9.93164 9.01758L10.68 9.61886L11.2813 8.87049L10.5329 8.26921Z" fill="#00548A"/>
<path d="M11.1403 7.5153L10.5391 8.26367L11.2874 8.86495L11.8887 8.11658L11.1403 7.5153Z" fill="#00548A"/>
<path d="M11.7341 6.76139L11.1328 7.50977L11.8812 8.11104L12.4825 7.36266L11.7341 6.76139Z" fill="#00548A"/>
<path d="M12.3357 6.01334L11.7344 6.76172L12.4827 7.363L13.084 6.61462L12.3357 6.01334Z" fill="#00548A"/>
<path d="M12.9431 5.25748L12.3418 6.00586L13.0902 6.60714L13.6915 5.85876L12.9431 5.25748Z" fill="#00548A"/>
<path d="M13.5524 4.5114L12.9512 5.25977L13.6995 5.86104L14.3008 5.11268L13.5524 4.5114Z" fill="#00548A"/>
<path d="M14.154 3.76334L13.5527 4.51172L14.3011 5.113L14.9024 4.36462L14.154 3.76334Z" fill="#00548A"/>
<path d="M14.7614 2.99771L14.1602 3.74609L14.9085 4.34737L15.5098 3.59899L14.7614 2.99771Z" fill="#C0BFBF"/>
<path d="M15.363 2.24968L14.7617 2.99805L15.5101 3.59932L16.1114 2.85096L15.363 2.24968Z" fill="#C0BFBF"/>
<path d="M15.9646 1.50357L15.3633 2.25195L16.1117 2.85323L16.7129 2.10485L15.9646 1.50357Z" fill="#C0BFBF"/>
<path d="M16.572 0.747714L15.9707 1.49609L16.7191 2.09737L17.3204 1.34899L16.572 0.747714Z" fill="#C0BFBF"/>
<path d="M17.1735 -0.000332726L16.5723 0.748047L17.3206 1.34932L17.9219 0.600945L17.1735 -0.000332726Z" fill="#C0BFBF"/>
<path d="M4.34737 14.4196L3.74609 15.168L4.49447 15.7692L5.09575 15.0209L4.34737 14.4196Z" fill="#C0BFBF"/>
<path d="M4.95479 13.6637L4.35352 14.4121L5.10189 15.0134L5.70317 14.265L4.95479 13.6637Z" fill="#00548A"/>
<path d="M5.55441 12.9176L4.95312 13.666L5.7015 14.2673L6.30278 13.5189L5.55441 12.9176Z" fill="#00548A"/>
<path d="M6.15596 12.1696L5.55469 12.918L6.30306 13.5192L6.90433 12.7709L6.15596 12.1696Z" fill="#00548A"/>
<path d="M6.76338 11.4137L6.16211 12.1621L6.91048 12.7634L7.51176 12.015L6.76338 11.4137Z" fill="#00548A"/>
<path d="M7.37472 10.6676L6.77344 11.416L7.52181 12.0173L8.12309 11.2689L7.37472 10.6676Z" fill="#00548A"/>
<path d="M7.97627 9.9196L7.375 10.668L8.12337 11.2692L8.72465 10.5209L7.97627 9.9196Z" fill="#00548A"/>
<path d="M8.58369 9.16374L7.98242 9.91211L8.7308 10.5134L9.33207 9.76502L8.58369 9.16374Z" fill="#00548A"/>
<path d="M9.17745 8.40982L8.57617 9.1582L9.32455 9.75948L9.92583 9.0111L9.17745 8.40982Z" fill="#00548A"/>
<path d="M9.77705 7.66179L9.17578 8.41016L9.92415 9.01143L10.5254 8.26307L9.77705 7.66179Z" fill="white"/>
<path d="M10.3845 6.90788L9.7832 7.65625L10.5316 8.25753L11.1328 7.50916L10.3845 6.90788Z" fill="white"/>
<path d="M10.986 6.15982L10.3848 6.9082L11.1331 7.50948L11.7344 6.7611L10.986 6.15982Z" fill="white"/>
<path d="M11.5876 5.41178L10.9863 6.16016L11.7347 6.76143L12.336 6.01305L11.5876 5.41178Z" fill="white"/>
<path d="M12.195 4.6481L11.5938 5.39648L12.3421 5.99776L12.9434 5.24938L12.195 4.6481Z" fill="#00548A"/>
<path d="M12.7966 3.90007L12.1953 4.64844L12.9437 5.24972L13.545 4.50135L12.7966 3.90007Z" fill="#00548A"/>
<path d="M13.4079 3.15201L12.8066 3.90039L13.555 4.50167L14.1563 3.75329L13.4079 3.15201Z" fill="#00548A"/>
<path d="M3.59932 13.818L2.99805 14.5664L3.74642 15.1677L4.3477 14.4193L3.59932 13.818Z" fill="#C0BFBF"/>
<path d="M4.20675 13.0641L3.60547 13.8125L4.35384 14.4138L4.95512 13.6654L4.20675 13.0641Z" fill="#00548A"/>
<path d="M4.80831 12.3161L4.20703 13.0645L4.9554 13.6657L5.55669 12.9174L4.80831 12.3161Z" fill="#00548A"/>
<path d="M5.40791 11.568L4.80664 12.3164L5.55501 12.9177L6.15629 12.1693L5.40791 11.568Z" fill="#00548A"/>
<path d="M6.01534 10.8122L5.41406 11.5605L6.16244 12.1618L6.76371 11.4135L6.01534 10.8122Z" fill="#00548A"/>
<path d="M6.61886 10.0602L6.01758 10.8086L6.76595 11.4099L7.36724 10.6615L6.61886 10.0602Z" fill="#00548A"/>
<path d="M7.22041 9.31218L6.61914 10.0605L7.36752 10.6618L7.96879 9.91346L7.22041 9.31218Z" fill="#00548A"/>
<path d="M7.82784 8.55632L7.22656 9.30469L7.97494 9.90597L8.57621 9.1576L7.82784 8.55632Z" fill="#00548A"/>
<path d="M8.42941 7.80826L7.82812 8.55664L8.5765 9.15792L9.17778 8.40954L8.42941 7.80826Z" fill="#00548A"/>
<path d="M9.03096 7.06218L8.42969 7.81055L9.17806 8.41183L9.77934 7.66346L9.03096 7.06218Z" fill="white"/>
<path d="M9.63838 6.29655L9.03711 7.04492L9.78549 7.6462L10.3868 6.89783L9.63838 6.29655Z" fill="white"/>
<path d="M10.238 5.5485L9.63672 6.29688L10.3851 6.89816L10.9864 6.14978L10.238 5.5485Z" fill="white"/>
<path d="M10.8396 4.80045L10.2383 5.54883L10.9867 6.15011L11.5879 5.40173L10.8396 4.80045Z" fill="white"/>
<path d="M11.447 4.04654L10.8457 4.79492L11.5941 5.3962L12.1954 4.64782L11.447 4.04654Z" fill="white"/>
<path d="M12.0485 3.29851L11.4473 4.04688L12.1956 4.64816L12.7969 3.89979L12.0485 3.29851Z" fill="#00548A"/>
<path d="M12.6521 2.54459L12.0508 3.29297L12.7992 3.89425L13.4004 3.14587L12.6521 2.54459Z" fill="#00548A"/>
<path d="M2.85128 13.2165L2.25 13.9648L2.99838 14.5661L3.59965 13.8178L2.85128 13.2165Z" fill="#C0BFBF"/>
<path d="M3.45284 12.4704L2.85156 13.2188L3.59994 13.82L4.20122 13.0717L3.45284 12.4704Z" fill="#00548A"/>
<path d="M4.05245 11.7087L3.45117 12.457L4.19955 13.0583L4.80082 12.3099L4.05245 11.7087Z" fill="#00548A"/>
<path d="M4.65401 10.9606L4.05273 11.709L4.80111 12.3103L5.40239 11.5619L4.65401 10.9606Z" fill="#00548A"/>
<path d="M5.25363 10.2126L4.65234 10.9609L5.40072 11.5622L6.002 10.8138L5.25363 10.2126Z" fill="#00548A"/>
<path d="M5.87277 9.45865L5.27148 10.207L6.01986 10.8083L6.62114 10.0599L5.87277 9.45865Z" fill="#00548A"/>
<path d="M6.47237 8.70085L5.87109 9.44922L6.61947 10.0505L7.22074 9.30213L6.47237 8.70085Z" fill="#00548A"/>
<path d="M7.07394 7.95279L6.47266 8.70117L7.22103 9.30245L7.82231 8.55407L7.07394 7.95279Z" fill="#00548A"/>
<path d="M7.68136 7.19889L7.08008 7.94727L7.82845 8.54854L8.42973 7.80016L7.68136 7.19889Z" fill="#00548A"/>
<path d="M8.28291 6.45085L7.68164 7.19922L8.43001 7.8005L9.03129 7.05213L8.28291 6.45085Z" fill="#00548A"/>
<path d="M8.88448 5.7028L8.2832 6.45117L9.03158 7.05245L9.63285 6.30408L8.88448 5.7028Z" fill="#00548A"/>
<path d="M9.4841 4.94107L8.88281 5.68945L9.63119 6.29073L10.2325 5.54235L9.4841 4.94107Z" fill="#00548A"/>
<path d="M10.0837 4.19303L9.48242 4.94141L10.2308 5.54268L10.8321 4.7943L10.0837 4.19303Z" fill="#00548A"/>
<path d="M10.6853 3.44694L10.084 4.19531L10.8324 4.79659L11.4336 4.04822L10.6853 3.44694Z" fill="#00548A"/>
<path d="M11.2927 2.69109L10.6914 3.43945L11.4398 4.04073L12.0411 3.29236L11.2927 2.69109Z" fill="#00548A"/>
<path d="M11.8943 1.94303L11.293 2.69141L12.0413 3.29268L12.6426 2.5443L11.8943 1.94303Z" fill="#00548A"/>
<path d="M2.09542 12.611L1.49414 13.3594L2.24251 13.9607L2.84379 13.2123L2.09542 12.611Z" fill="#C0BFBF"/>
<path d="M2.69698 11.863L2.0957 12.6113L2.84408 13.2126L3.44535 12.4642L2.69698 11.863Z" fill="#00548A"/>
<path d="M3.3044 11.1071L2.70312 11.8555L3.4515 12.4567L4.05278 11.7084L3.3044 11.1071Z" fill="#00548A"/>
<path d="M3.90597 10.3493L3.30469 11.0977L4.05306 11.6989L4.65434 10.9506L3.90597 10.3493Z" fill="#00548A"/>
<path d="M4.50753 9.60318L3.90625 10.3516L4.65462 10.9528L5.25591 10.2045L4.50753 9.60318Z" fill="#00548A"/>
<path d="M5.11495 8.84732L4.51367 9.5957L5.26205 10.197L5.86333 9.4486L5.11495 8.84732Z" fill="#00548A"/>
<path d="M5.72627 8.09929L5.125 8.84766L5.87337 9.44893L6.47465 8.70057L5.72627 8.09929Z" fill="#00548A"/>
<path d="M6.32589 7.35123L5.72461 8.09961L6.47298 8.70089L7.07427 7.95251L6.32589 7.35123Z" fill="#00548A"/>
<path d="M6.9255 6.59146L6.32422 7.33984L7.07259 7.94112L7.67388 7.19274L6.9255 6.59146Z" fill="#00548A"/>
<path d="M7.52705 5.84343L6.92578 6.5918L7.67415 7.19307L8.27543 6.44471L7.52705 5.84343Z" fill="#00548A"/>
<path d="M8.12862 5.09538L7.52734 5.84375L8.27572 6.44503L8.87699 5.69666L8.12862 5.09538Z" fill="#00548A"/>
<path d="M8.73605 4.33951L8.13477 5.08789L8.88314 5.68917L9.48442 4.94079L8.73605 4.33951Z" fill="white"/>
<path d="M9.33761 3.59342L8.73633 4.3418L9.4847 4.94307L10.086 4.1947L9.33761 3.59342Z" fill="white"/>
<path d="M9.93916 2.84538L9.33789 3.59375L10.0863 4.19503L10.6875 3.44666L9.93916 2.84538Z" fill="white"/>
<path d="M10.5446 2.08952L9.94336 2.83789L10.6917 3.43917L11.293 2.6908L10.5446 2.08952Z" fill="#00548A"/>
<path d="M11.1462 1.34342L10.5449 2.0918L11.2933 2.69307L11.8946 1.9447L11.1462 1.34342Z" fill="#00548A"/>
<path d="M1.34932 11.9997L0.748047 12.748L1.49642 13.3493L2.0977 12.601L1.34932 11.9997Z" fill="#C0BFBF"/>
<path d="M1.94893 11.2516L1.34766 12L2.09603 12.6013L2.69731 11.8529L1.94893 11.2516Z" fill="#00548A"/>
<path d="M2.55636 10.4958L1.95508 11.2441L2.70345 11.8454L3.30473 11.097L2.55636 10.4958Z" fill="#00548A"/>
<path d="M3.15792 9.74772L2.55664 10.4961L3.30501 11.0974L3.90629 10.349L3.15792 9.74772Z" fill="#00548A"/>
<path d="M3.75949 9.00162L3.1582 9.75L3.90658 10.3513L4.50786 9.6029L3.75949 9.00162Z" fill="#00548A"/>
<path d="M4.3591 8.2399L3.75781 8.98828L4.50619 9.58956L5.10747 8.84118L4.3591 8.2399Z" fill="#00548A"/>
<path d="M4.97041 7.49187L4.36914 8.24023L5.11751 8.84151L5.71879 8.09314L4.97041 7.49187Z" fill="#00548A"/>
<path d="M5.57199 6.74381L4.9707 7.49219L5.71908 8.09347L6.32036 7.34509L5.57199 6.74381Z" fill="#00548A"/>
<path d="M6.17941 5.9899L5.57812 6.73828L6.3265 7.33956L6.92778 6.59118L6.17941 5.9899Z" fill="#00548A"/>
<path d="M6.77901 5.24187L6.17773 5.99023L6.92611 6.59151L7.52738 5.84314L6.77901 5.24187Z" fill="white"/>
<path d="M7.38057 4.49382L6.7793 5.24219L7.52767 5.84347L8.12894 5.0951L7.38057 4.49382Z" fill="white"/>
<path d="M7.988 3.7399L7.38672 4.48828L8.13509 5.08956L8.73638 4.34118L7.988 3.7399Z" fill="white"/>
<path d="M8.58956 2.99185L7.98828 3.74023L8.73665 4.34151L9.33794 3.59313L8.58956 2.99185Z" fill="white"/>
<path d="M9.19112 2.24382L8.58984 2.99219L9.33822 3.59347L9.93949 2.8451L9.19112 2.24382Z" fill="white"/>
<path d="M9.79854 1.48796L9.19727 2.23633L9.94564 2.83761L10.5469 2.08924L9.79854 1.48796Z" fill="#00548A"/>
<path d="M10.3923 0.735995L9.79102 1.48438L10.5394 2.08566L11.1407 1.33728L10.3923 0.735995Z" fill="#00548A"/>
<path d="M0.601278 11.3981L0 12.1465L0.748374 12.7478L1.34965 11.9994L0.601278 11.3981Z" fill="#C0BFBF"/>
<path d="M1.20284 10.6501L0.601562 11.3984L1.34994 11.9997L1.95121 11.2513L1.20284 10.6501Z" fill="#00548A"/>
<path d="M1.79659 9.89616L1.19531 10.6445L1.94369 11.2458L2.54497 10.4974L1.79659 9.89616Z" fill="#00548A"/>
<path d="M2.40401 9.1403L1.80273 9.88867L2.55111 10.49L3.15239 9.74158L2.40401 9.1403Z" fill="#00548A"/>
<path d="M3.00363 8.3942L2.40234 9.14258L3.15072 9.74386L3.752 8.99548L3.00363 8.3942Z" fill="#00548A"/>
<path d="M3.60518 7.64616L3.00391 8.39453L3.75228 8.99581L4.35356 8.24744L3.60518 7.64616Z" fill="#00548A"/>
<path d="M4.2126 6.8903L3.61133 7.63867L4.3597 8.23995L4.96098 7.49158L4.2126 6.8903Z" fill="#00548A"/>
<path d="M4.82393 6.1442L4.22266 6.89258L4.97103 7.49386L5.57231 6.74548L4.82393 6.1442Z" fill="#00548A"/>
<path d="M5.4255 5.39615L4.82422 6.14453L5.5726 6.74581L6.17388 5.99743L5.4255 5.39615Z" fill="#00548A"/>
<path d="M6.03291 4.6403L5.43164 5.38867L6.18002 5.98995L6.78129 5.24158L6.03291 4.6403Z" fill="#00548A"/>
<path d="M6.63448 3.89421L6.0332 4.64258L6.78158 5.24386L7.38285 4.49549L6.63448 3.89421Z" fill="#00548A"/>
<path d="M7.22628 3.14029L6.625 3.88867L7.37337 4.48995L7.97466 3.74157L7.22628 3.14029Z" fill="#00548A"/>
<path d="M7.8337 2.38443L7.23242 3.13281L7.9808 3.73409L8.58208 2.98571L7.8337 2.38443Z" fill="#00548A"/>
<path d="M8.43526 1.6364L7.83398 2.38477L8.58236 2.98604L9.18363 2.23768L8.43526 1.6364Z" fill="#00548A"/>
<path d="M9.04268 0.880539L8.44141 1.62891L9.18978 2.23018L9.79105 1.48182L9.04268 0.880539Z" fill="#00548A"/>
<path d="M9.64425 0.134433L9.04297 0.882812L9.79134 1.48409L10.3926 0.735711L9.64425 0.134433Z" fill="#00548A"/>
</svg>
