<svg width="42" height="14" viewBox="0 0 42 14" fill="none" xmlns="http://www.w3.org/2000/svg">
<path d="M4.31915 0.619141L3.08913 1.22914L1.84914 1.84914L1.23914 3.07915L0.619141 4.31915V9.24915L1.23914 10.4791L1.84914 11.7091L3.08913 12.3291L4.31915 12.9491H37.6091L38.8491 12.3291L40.0791 11.7091L40.6991 10.4791L41.3091 9.24915V4.31915L40.6991 3.07915L40.0791 1.84914L38.8491 1.22914L37.6091 0.619141H4.31915Z" fill="#51A2E7"/>
<path d="M7.40906 1.23047H6.78906V1.85047H7.40906V1.23047Z" fill="white"/>
<path d="M6.78993 1.23047H6.16992V1.85047H6.78993V1.23047Z" fill="white"/>
<path d="M6.16882 1.23047H5.54883V1.85047H6.16882V1.23047Z" fill="white"/>
<path d="M5.55945 1.23047H4.93945V1.85047H5.55945V1.23047Z" fill="white"/>
<path d="M4.94031 1.84961H4.32031V2.46961H4.94031V1.84961Z" fill="white"/>
<path d="M4.31923 1.84961H3.69922V2.46961H4.31923V1.84961Z" fill="white"/>
<path d="M3.70985 2.4707H3.08984V3.0907H3.70985V2.4707Z" fill="white"/>
<path d="M3.08875 2.4707H2.46875V3.0907H3.08875V2.4707Z" fill="white"/>
<path d="M3.08875 3.08008H2.46875V3.70007H3.08875V3.08008Z" fill="white"/>
<path d="M2.4696 3.70117H1.84961V4.32117H2.4696V3.70117Z" fill="white"/>
<path d="M1.23914 7.40039H0.619141V8.02039H1.23914V7.40039Z" fill="#0077DB"/>
<path d="M1.23914 8.01953H0.619141V8.63953H1.23914V8.01953Z" fill="#0077DB"/>
<path d="M41.3192 7.40039H40.6992V8.02039H41.3192V7.40039Z" fill="#0077DB"/>
<path d="M41.3192 8.01953H40.6992V8.63953H41.3192V8.01953Z" fill="#0077DB"/>
<path d="M1.85828 8.63086H1.23828V9.25086H1.85828V8.63086Z" fill="#0077DB"/>
<path d="M2.46765 9.86133H1.84766V10.4813H2.46765V9.86133Z" fill="#0077DB"/>
<path d="M3.08875 9.86133H2.46875V10.4813H3.08875V9.86133Z" fill="#0077DB"/>
<path d="M3.7079 10.4805H3.08789V11.1005H3.7079V10.4805Z" fill="#0077DB"/>
<path d="M4.31923 10.4805H3.69922V11.1005H4.31923V10.4805Z" fill="#0077DB"/>
<path d="M4.93835 11.1016H4.31836V11.7216H4.93835V11.1016Z" fill="#0077DB"/>
<path d="M5.5575 11.1016H4.9375V11.7216H5.5575V11.1016Z" fill="#0077DB"/>
<path d="M6.16882 11.1016H5.54883V11.7216H6.16882V11.1016Z" fill="#0077DB"/>
<path d="M6.78798 11.1016H6.16797V11.7216H6.78798V11.1016Z" fill="#0077DB"/>
<path d="M7.40906 11.1016H6.78906V11.7216H7.40906V11.1016Z" fill="#0077DB"/>
<path d="M8.01843 11.1016H7.39844V11.7216H8.01843V11.1016Z" fill="#0077DB"/>
<path d="M8.63757 11.1016H8.01758V11.7216H8.63757V11.1016Z" fill="#0077DB"/>
<path d="M9.25868 11.1016H8.63867V11.7216H9.25868V11.1016Z" fill="#0077DB"/>
<path d="M9.86804 11.1016H9.24805V11.7216H9.86804V11.1016Z" fill="#0077DB"/>
<path d="M10.4892 11.1016H9.86914V11.7216H10.4892V11.1016Z" fill="#0077DB"/>
<path d="M11.1083 11.1016H10.4883V11.7216H11.1083V11.1016Z" fill="#0077DB"/>
<path d="M11.7177 11.1016H11.0977V11.7216H11.7177V11.1016Z" fill="#0077DB"/>
<path d="M12.3387 11.1016H11.7188V11.7216H12.3387V11.1016Z" fill="#0077DB"/>
<path d="M12.9579 11.1016H12.3379V11.7216H12.9579V11.1016Z" fill="#0077DB"/>
<path d="M13.5692 11.1016H12.9492V11.7216H13.5692V11.1016Z" fill="#0077DB"/>
<path d="M14.1884 11.1016H13.5684V11.7216H14.1884V11.1016Z" fill="#0077DB"/>
<path d="M14.8075 11.1016H14.1875V11.7216H14.8075V11.1016Z" fill="#0077DB"/>
<path d="M15.4188 11.1016H14.7988V11.7216H15.4188V11.1016Z" fill="#0077DB"/>
<path d="M16.038 11.1016H15.418V11.7216H16.038V11.1016Z" fill="#0077DB"/>
<path d="M16.6591 11.1016H16.0391V11.7216H16.6591V11.1016Z" fill="#0077DB"/>
<path d="M17.2684 11.1016H16.6484V11.7216H17.2684V11.1016Z" fill="#0077DB"/>
<path d="M17.8876 11.1016H17.2676V11.7216H17.8876V11.1016Z" fill="#0077DB"/>
<path d="M18.4989 11.1016H17.8789V11.7216H18.4989V11.1016Z" fill="#0077DB"/>
<path d="M19.118 11.1016H18.498V11.7216H19.118V11.1016Z" fill="#0077DB"/>
<path d="M19.7392 11.1016H19.1191V11.7216H19.7392V11.1016Z" fill="#0077DB"/>
<path d="M20.3485 11.1016H19.7285V11.7216H20.3485V11.1016Z" fill="#0077DB"/>
<path d="M20.9677 11.1016H20.3477V11.7216H20.9677V11.1016Z" fill="#0077DB"/>
<path d="M21.5887 11.1016H20.9688V11.7216H21.5887V11.1016Z" fill="#0077DB"/>
<path d="M22.1981 11.1016H21.5781V11.7216H22.1981V11.1016Z" fill="#0077DB"/>
<path d="M22.8192 11.1016H22.1992V11.7216H22.8192V11.1016Z" fill="#0077DB"/>
<path d="M23.4384 11.1016H22.8184V11.7216H23.4384V11.1016Z" fill="#0077DB"/>
<path d="M24.0477 11.1016H23.4277V11.7216H24.0477V11.1016Z" fill="#0077DB"/>
<path d="M24.6688 11.1016H24.0488V11.7216H24.6688V11.1016Z" fill="#0077DB"/>
<path d="M25.288 11.1016H24.668V11.7216H25.288V11.1016Z" fill="#0077DB"/>
<path d="M25.8974 11.1016H25.2773V11.7216H25.8974V11.1016Z" fill="#0077DB"/>
<path d="M26.5184 11.1016H25.8984V11.7216H26.5184V11.1016Z" fill="#0077DB"/>
<path d="M1.85828 9.25H1.23828V9.87H1.85828V9.25Z" fill="#0077DB"/>
<path d="M40.6981 8.63086H40.0781V9.25086H40.6981V8.63086Z" fill="#0077DB"/>
<path d="M40.079 9.86133H39.459V10.4813H40.079V9.86133Z" fill="#0077DB"/>
<path d="M39.4677 9.86133H38.8477V10.4813H39.4677V9.86133Z" fill="#0077DB"/>
<path d="M38.8485 10.4805H38.2285V11.1005H38.8485V10.4805Z" fill="#0077DB"/>
<path d="M38.2274 10.4805H37.6074V11.1005H38.2274V10.4805Z" fill="#0077DB"/>
<path d="M37.618 11.1016H36.998V11.7216H37.618V11.1016Z" fill="#0077DB"/>
<path d="M36.9989 11.1016H36.3789V11.7216H36.9989V11.1016Z" fill="#0077DB"/>
<path d="M36.3778 11.1016H35.7578V11.7216H36.3778V11.1016Z" fill="#0077DB"/>
<path d="M35.7684 11.1016H35.1484V11.7216H35.7684V11.1016Z" fill="#0077DB"/>
<path d="M35.1474 11.1016H34.5273V11.7216H35.1474V11.1016Z" fill="#0077DB"/>
<path d="M34.538 11.1016H33.918V11.7216H34.538V11.1016Z" fill="#0077DB"/>
<path d="M33.9188 11.1016H33.2988V11.7216H33.9188V11.1016Z" fill="#0077DB"/>
<path d="M33.2977 11.1016H32.6777V11.7216H33.2977V11.1016Z" fill="#0077DB"/>
<path d="M32.6884 11.1016H32.0684V11.7216H32.6884V11.1016Z" fill="#0077DB"/>
<path d="M32.0692 11.1016H31.4492V11.7216H32.0692V11.1016Z" fill="#0077DB"/>
<path d="M31.4481 11.1016H30.8281V11.7216H31.4481V11.1016Z" fill="#0077DB"/>
<path d="M30.8387 11.1016H30.2188V11.7216H30.8387V11.1016Z" fill="#0077DB"/>
<path d="M30.2177 11.1016H29.5977V11.7216H30.2177V11.1016Z" fill="#0077DB"/>
<path d="M29.5985 11.1016H28.9785V11.7216H29.5985V11.1016Z" fill="#0077DB"/>
<path d="M28.9892 11.1016H28.3691V11.7216H28.9892V11.1016Z" fill="#0077DB"/>
<path d="M28.368 11.1016H27.748V11.7216H28.368V11.1016Z" fill="#0077DB"/>
<path d="M27.7489 11.1016H27.1289V11.7216H27.7489V11.1016Z" fill="#0077DB"/>
<path d="M27.1376 11.1016H26.5176V11.7216H27.1376V11.1016Z" fill="#0077DB"/>
<path d="M40.6981 9.25H40.0781V9.87H40.6981V9.25Z" fill="#0077DB"/>
<path d="M1.23914 8.01953H0.619141V8.63953H1.23914V8.01953Z" fill="#0077DB"/>
<path d="M1.23914 8.62891H0.619141V9.24891H1.23914V8.62891Z" fill="#0077DB"/>
<path d="M41.3192 8.01953H40.6992V8.63953H41.3192V8.01953Z" fill="#0077DB"/>
<path d="M41.3192 8.62891H40.6992V9.24891H41.3192V8.62891Z" fill="#0077DB"/>
<path d="M1.85828 9.25H1.23828V9.87H1.85828V9.25Z" fill="#0077DB"/>
<path d="M2.46765 10.4805H1.84766V11.1005H2.46765V10.4805Z" fill="#0077DB"/>
<path d="M3.08875 10.4805H2.46875V11.1005H3.08875V10.4805Z" fill="#0077DB"/>
<path d="M3.7079 11.0996H3.08789V11.7196H3.7079V11.0996Z" fill="#0077DB"/>
<path d="M4.31923 11.0996H3.69922V11.7196H4.31923V11.0996Z" fill="#0077DB"/>
<path d="M4.93835 11.7109H4.31836V12.3309H4.93835V11.7109Z" fill="#0077DB"/>
<path d="M5.5575 11.7109H4.9375V12.3309H5.5575V11.7109Z" fill="#0077DB"/>
<path d="M6.16882 11.7109H5.54883V12.3309H6.16882V11.7109Z" fill="#0077DB"/>
<path d="M6.78798 11.7109H6.16797V12.3309H6.78798V11.7109Z" fill="#0077DB"/>
<path d="M7.40906 11.7109H6.78906V12.3309H7.40906V11.7109Z" fill="#0077DB"/>
<path d="M8.01843 11.7109H7.39844V12.3309H8.01843V11.7109Z" fill="#0077DB"/>
<path d="M8.63757 11.7109H8.01758V12.3309H8.63757V11.7109Z" fill="#0077DB"/>
<path d="M9.25868 11.7109H8.63867V12.3309H9.25868V11.7109Z" fill="#0077DB"/>
<path d="M9.86804 11.7109H9.24805V12.3309H9.86804V11.7109Z" fill="#0077DB"/>
<path d="M10.4892 11.7109H9.86914V12.3309H10.4892V11.7109Z" fill="#0077DB"/>
<path d="M11.1083 11.7109H10.4883V12.3309H11.1083V11.7109Z" fill="#0077DB"/>
<path d="M11.7177 11.7109H11.0977V12.3309H11.7177V11.7109Z" fill="#0077DB"/>
<path d="M12.3387 11.7109H11.7188V12.3309H12.3387V11.7109Z" fill="#0077DB"/>
<path d="M12.9579 11.7109H12.3379V12.3309H12.9579V11.7109Z" fill="#0077DB"/>
<path d="M13.5692 11.7109H12.9492V12.3309H13.5692V11.7109Z" fill="#0077DB"/>
<path d="M14.1884 11.7109H13.5684V12.3309H14.1884V11.7109Z" fill="#0077DB"/>
<path d="M14.8075 11.7109H14.1875V12.3309H14.8075V11.7109Z" fill="#0077DB"/>
<path d="M15.4188 11.7109H14.7988V12.3309H15.4188V11.7109Z" fill="#0077DB"/>
<path d="M16.038 11.7109H15.418V12.3309H16.038V11.7109Z" fill="#0077DB"/>
<path d="M16.6591 11.7109H16.0391V12.3309H16.6591V11.7109Z" fill="#0077DB"/>
<path d="M17.2684 11.7109H16.6484V12.3309H17.2684V11.7109Z" fill="#0077DB"/>
<path d="M17.8876 11.7109H17.2676V12.3309H17.8876V11.7109Z" fill="#0077DB"/>
<path d="M18.4989 11.7109H17.8789V12.3309H18.4989V11.7109Z" fill="#0077DB"/>
<path d="M19.118 11.7109H18.498V12.3309H19.118V11.7109Z" fill="#0077DB"/>
<path d="M19.7392 11.7109H19.1191V12.3309H19.7392V11.7109Z" fill="#0077DB"/>
<path d="M20.3485 11.7109H19.7285V12.3309H20.3485V11.7109Z" fill="#0077DB"/>
<path d="M20.9677 11.7109H20.3477V12.3309H20.9677V11.7109Z" fill="#0077DB"/>
<path d="M21.5887 11.7109H20.9688V12.3309H21.5887V11.7109Z" fill="#0077DB"/>
<path d="M22.1981 11.7109H21.5781V12.3309H22.1981V11.7109Z" fill="#0077DB"/>
<path d="M22.8192 11.7109H22.1992V12.3309H22.8192V11.7109Z" fill="#0077DB"/>
<path d="M23.4384 11.7109H22.8184V12.3309H23.4384V11.7109Z" fill="#0077DB"/>
<path d="M24.0477 11.7109H23.4277V12.3309H24.0477V11.7109Z" fill="#0077DB"/>
<path d="M24.6688 11.7109H24.0488V12.3309H24.6688V11.7109Z" fill="#0077DB"/>
<path d="M25.288 11.7109H24.668V12.3309H25.288V11.7109Z" fill="#0077DB"/>
<path d="M25.8974 11.7109H25.2773V12.3309H25.8974V11.7109Z" fill="#0077DB"/>
<path d="M26.5184 11.7109H25.8984V12.3309H26.5184V11.7109Z" fill="#0077DB"/>
<path d="M1.85828 9.85938H1.23828V10.4794H1.85828V9.85938Z" fill="#0077DB"/>
<path d="M40.6981 9.25H40.0781V9.87H40.6981V9.25Z" fill="#0077DB"/>
<path d="M40.079 10.4805H39.459V11.1005H40.079V10.4805Z" fill="#0077DB"/>
<path d="M39.4677 10.4805H38.8477V11.1005H39.4677V10.4805Z" fill="#0077DB"/>
<path d="M38.8485 11.0996H38.2285V11.7196H38.8485V11.0996Z" fill="#0077DB"/>
<path d="M38.2274 11.0996H37.6074V11.7196H38.2274V11.0996Z" fill="#0077DB"/>
<path d="M37.618 11.7109H36.998V12.3309H37.618V11.7109Z" fill="#0077DB"/>
<path d="M36.9989 11.7109H36.3789V12.3309H36.9989V11.7109Z" fill="#0077DB"/>
<path d="M36.3778 11.7109H35.7578V12.3309H36.3778V11.7109Z" fill="#0077DB"/>
<path d="M35.7684 11.7109H35.1484V12.3309H35.7684V11.7109Z" fill="#0077DB"/>
<path d="M35.1474 11.7109H34.5273V12.3309H35.1474V11.7109Z" fill="#0077DB"/>
<path d="M34.538 11.7109H33.918V12.3309H34.538V11.7109Z" fill="#0077DB"/>
<path d="M33.9188 11.7109H33.2988V12.3309H33.9188V11.7109Z" fill="#0077DB"/>
<path d="M33.2977 11.7109H32.6777V12.3309H33.2977V11.7109Z" fill="#0077DB"/>
<path d="M32.6884 11.7109H32.0684V12.3309H32.6884V11.7109Z" fill="#0077DB"/>
<path d="M32.0692 11.7109H31.4492V12.3309H32.0692V11.7109Z" fill="#0077DB"/>
<path d="M31.4481 11.7109H30.8281V12.3309H31.4481V11.7109Z" fill="#0077DB"/>
<path d="M30.8387 11.7109H30.2188V12.3309H30.8387V11.7109Z" fill="#0077DB"/>
<path d="M30.2177 11.7109H29.5977V12.3309H30.2177V11.7109Z" fill="#0077DB"/>
<path d="M29.5985 11.7109H28.9785V12.3309H29.5985V11.7109Z" fill="#0077DB"/>
<path d="M28.9892 11.7109H28.3691V12.3309H28.9892V11.7109Z" fill="#0077DB"/>
<path d="M28.368 11.7109H27.748V12.3309H28.368V11.7109Z" fill="#0077DB"/>
<path d="M27.7489 11.7109H27.1289V12.3309H27.7489V11.7109Z" fill="#0077DB"/>
<path d="M27.1376 11.7109H26.5176V12.3309H27.1376V11.7109Z" fill="#0077DB"/>
<path d="M40.6981 9.85938H40.0781V10.4794H40.6981V9.85938Z" fill="#0077DB"/>
<path d="M1.23914 8.63086H0.619141V9.25086H1.23914V8.63086Z" fill="#0077DB"/>
<path d="M1.23914 9.25H0.619141V9.87H1.23914V9.25Z" fill="#0077DB"/>
<path d="M41.3192 8.63086H40.6992V9.25086H41.3192V8.63086Z" fill="#0077DB"/>
<path d="M41.3192 9.25H40.6992V9.87H41.3192V9.25Z" fill="#0077DB"/>
<path d="M1.85828 9.86133H1.23828V10.4813H1.85828V9.86133Z" fill="#0077DB"/>
<path d="M2.46765 11.1016H1.84766V11.7216H2.46765V11.1016Z" fill="#0077DB"/>
<path d="M3.08875 11.1016H2.46875V11.7216H3.08875V11.1016Z" fill="#0077DB"/>
<path d="M3.7079 11.7109H3.08789V12.3309H3.7079V11.7109Z" fill="#0077DB"/>
<path d="M4.31923 11.7109H3.69922V12.3309H4.31923V11.7109Z" fill="#0077DB"/>
<path d="M4.93835 12.332H4.31836V12.952H4.93835V12.332Z" fill="#0077DB"/>
<path d="M5.5575 12.332H4.9375V12.952H5.5575V12.332Z" fill="#0077DB"/>
<path d="M6.16882 12.332H5.54883V12.952H6.16882V12.332Z" fill="#0077DB"/>
<path d="M6.78798 12.332H6.16797V12.952H6.78798V12.332Z" fill="#0077DB"/>
<path d="M7.40906 12.332H6.78906V12.952H7.40906V12.332Z" fill="#0077DB"/>
<path d="M8.01843 12.332H7.39844V12.952H8.01843V12.332Z" fill="#0077DB"/>
<path d="M8.63757 12.332H8.01758V12.952H8.63757V12.332Z" fill="#0077DB"/>
<path d="M9.25868 12.332H8.63867V12.952H9.25868V12.332Z" fill="#0077DB"/>
<path d="M9.86804 12.332H9.24805V12.952H9.86804V12.332Z" fill="#0077DB"/>
<path d="M10.4892 12.332H9.86914V12.952H10.4892V12.332Z" fill="#0077DB"/>
<path d="M11.1083 12.332H10.4883V12.952H11.1083V12.332Z" fill="#0077DB"/>
<path d="M11.7177 12.332H11.0977V12.952H11.7177V12.332Z" fill="#0077DB"/>
<path d="M12.3387 12.332H11.7188V12.952H12.3387V12.332Z" fill="#0077DB"/>
<path d="M12.9579 12.332H12.3379V12.952H12.9579V12.332Z" fill="#0077DB"/>
<path d="M13.5692 12.332H12.9492V12.952H13.5692V12.332Z" fill="#0077DB"/>
<path d="M14.1884 12.332H13.5684V12.952H14.1884V12.332Z" fill="#0077DB"/>
<path d="M14.8075 12.332H14.1875V12.952H14.8075V12.332Z" fill="#0077DB"/>
<path d="M15.4188 12.332H14.7988V12.952H15.4188V12.332Z" fill="#0077DB"/>
<path d="M16.038 12.332H15.418V12.952H16.038V12.332Z" fill="#0077DB"/>
<path d="M16.6591 12.332H16.0391V12.952H16.6591V12.332Z" fill="#0077DB"/>
<path d="M17.2684 12.332H16.6484V12.952H17.2684V12.332Z" fill="#0077DB"/>
<path d="M17.8876 12.332H17.2676V12.952H17.8876V12.332Z" fill="#0077DB"/>
<path d="M18.4989 12.332H17.8789V12.952H18.4989V12.332Z" fill="#0077DB"/>
<path d="M19.118 12.332H18.498V12.952H19.118V12.332Z" fill="#0077DB"/>
<path d="M19.7392 12.332H19.1191V12.952H19.7392V12.332Z" fill="#0077DB"/>
<path d="M20.3485 12.332H19.7285V12.952H20.3485V12.332Z" fill="#0077DB"/>
<path d="M20.9677 12.332H20.3477V12.952H20.9677V12.332Z" fill="#0077DB"/>
<path d="M21.5887 12.332H20.9688V12.952H21.5887V12.332Z" fill="#0077DB"/>
<path d="M22.1981 12.332H21.5781V12.952H22.1981V12.332Z" fill="#0077DB"/>
<path d="M22.8192 12.332H22.1992V12.952H22.8192V12.332Z" fill="#0077DB"/>
<path d="M23.4384 12.332H22.8184V12.952H23.4384V12.332Z" fill="#0077DB"/>
<path d="M24.0477 12.332H23.4277V12.952H24.0477V12.332Z" fill="#0077DB"/>
<path d="M24.6688 12.332H24.0488V12.952H24.6688V12.332Z" fill="#0077DB"/>
<path d="M25.288 12.332H24.668V12.952H25.288V12.332Z" fill="#0077DB"/>
<path d="M25.8974 12.332H25.2773V12.952H25.8974V12.332Z" fill="#0077DB"/>
<path d="M26.5184 12.332H25.8984V12.952H26.5184V12.332Z" fill="#0077DB"/>
<path d="M1.85828 10.4805H1.23828V11.1005H1.85828V10.4805Z" fill="#0077DB"/>
<path d="M40.6981 9.86133H40.0781V10.4813H40.6981V9.86133Z" fill="#0077DB"/>
<path d="M40.079 11.1016H39.459V11.7216H40.079V11.1016Z" fill="#0077DB"/>
<path d="M39.4677 11.1016H38.8477V11.7216H39.4677V11.1016Z" fill="#0077DB"/>
<path d="M38.8485 11.7109H38.2285V12.3309H38.8485V11.7109Z" fill="#0077DB"/>
<path d="M38.2274 11.7109H37.6074V12.3309H38.2274V11.7109Z" fill="#0077DB"/>
<path d="M37.618 12.332H36.998V12.952H37.618V12.332Z" fill="#0077DB"/>
<path d="M36.9989 12.332H36.3789V12.952H36.9989V12.332Z" fill="#0077DB"/>
<path d="M36.3778 12.332H35.7578V12.952H36.3778V12.332Z" fill="#0077DB"/>
<path d="M35.7684 12.332H35.1484V12.952H35.7684V12.332Z" fill="#0077DB"/>
<path d="M35.1474 12.332H34.5273V12.952H35.1474V12.332Z" fill="#0077DB"/>
<path d="M34.538 12.332H33.918V12.952H34.538V12.332Z" fill="#0077DB"/>
<path d="M33.9188 12.332H33.2988V12.952H33.9188V12.332Z" fill="#0077DB"/>
<path d="M33.2977 12.332H32.6777V12.952H33.2977V12.332Z" fill="#0077DB"/>
<path d="M32.6884 12.332H32.0684V12.952H32.6884V12.332Z" fill="#0077DB"/>
<path d="M32.0692 12.332H31.4492V12.952H32.0692V12.332Z" fill="#0077DB"/>
<path d="M31.4481 12.332H30.8281V12.952H31.4481V12.332Z" fill="#0077DB"/>
<path d="M30.8387 12.332H30.2188V12.952H30.8387V12.332Z" fill="#0077DB"/>
<path d="M30.2177 12.332H29.5977V12.952H30.2177V12.332Z" fill="#0077DB"/>
<path d="M29.5985 12.332H28.9785V12.952H29.5985V12.332Z" fill="#0077DB"/>
<path d="M28.9892 12.332H28.3691V12.952H28.9892V12.332Z" fill="#0077DB"/>
<path d="M28.368 12.332H27.748V12.952H28.368V12.332Z" fill="#0077DB"/>
<path d="M27.7489 12.332H27.1289V12.952H27.7489V12.332Z" fill="#0077DB"/>
<path d="M27.1376 12.332H26.5176V12.952H27.1376V12.332Z" fill="#0077DB"/>
<path d="M40.6981 10.4805H40.0781V11.1005H40.6981V10.4805Z" fill="#0077DB"/>
<path d="M41.9306 4.32031H41.3105V4.94032H41.9306V4.32031Z" fill="#000600"/>
<path d="M41.9306 4.92969H41.3105V5.54968H41.9306V4.92969Z" fill="#000600"/>
<path d="M41.9306 5.55078H41.3105V6.17078H41.9306V5.55078Z" fill="#000600"/>
<path d="M41.3192 9.25H40.6992V9.87H41.3192V9.25Z" fill="#000600"/>
<path d="M41.3192 9.85938H40.6992V10.4794H41.3192V9.85938Z" fill="#000600"/>
<path d="M40.7001 10.4805H40.0801V11.1005H40.7001V10.4805Z" fill="#000600"/>
<path d="M40.0809 11.7109H39.4609V12.3309H40.0809V11.7109Z" fill="#000600"/>
<path d="M39.4696 11.7109H38.8496V12.3309H39.4696V11.7109Z" fill="#000600"/>
<path d="M38.8505 12.3301H38.2305V12.9501H38.8505V12.3301Z" fill="#000600"/>
<path d="M38.2294 12.3301H37.6094V12.9501H38.2294V12.3301Z" fill="#000600"/>
<path d="M37.62 12.9492H37V13.5692H37.62V12.9492Z" fill="#000600"/>
<path d="M37.0009 12.9492H36.3809V13.5692H37.0009V12.9492Z" fill="#000600"/>
<path d="M36.3798 12.9492H35.7598V13.5692H36.3798V12.9492Z" fill="#000600"/>
<path d="M35.7704 12.9492H35.1504V13.5692H35.7704V12.9492Z" fill="#000600"/>
<path d="M35.1493 12.9492H34.5293V13.5692H35.1493V12.9492Z" fill="#000600"/>
<path d="M34.5399 12.9492H33.9199V13.5692H34.5399V12.9492Z" fill="#000600"/>
<path d="M33.9208 12.9492H33.3008V13.5692H33.9208V12.9492Z" fill="#000600"/>
<path d="M33.2997 12.9492H32.6797V13.5692H33.2997V12.9492Z" fill="#000600"/>
<path d="M32.6903 12.9492H32.0703V13.5692H32.6903V12.9492Z" fill="#000600"/>
<path d="M32.0692 12.9492H31.4492V13.5692H32.0692V12.9492Z" fill="#000600"/>
<path d="M31.4501 12.9492H30.8301V13.5692H31.4501V12.9492Z" fill="#000600"/>
<path d="M30.8407 12.9492H30.2207V13.5692H30.8407V12.9492Z" fill="#000600"/>
<path d="M30.2196 12.9492H29.5996V13.5692H30.2196V12.9492Z" fill="#000600"/>
<path d="M29.6005 12.9492H28.9805V13.5692H29.6005V12.9492Z" fill="#000600"/>
<path d="M28.9892 12.9492H28.3691V13.5692H28.9892V12.9492Z" fill="#000600"/>
<path d="M28.37 12.9492H27.75V13.5692H28.37V12.9492Z" fill="#000600"/>
<path d="M27.7509 12.9492H27.1309V13.5692H27.7509V12.9492Z" fill="#000600"/>
<path d="M27.1395 12.9492H26.5195V13.5692H27.1395V12.9492Z" fill="#000600"/>
<path d="M26.5204 12.9492H25.9004V13.5692H26.5204V12.9492Z" fill="#000600"/>
<path d="M25.8993 12.9492H25.2793V13.5692H25.8993V12.9492Z" fill="#000600"/>
<path d="M25.2899 12.9492H24.6699V13.5692H25.2899V12.9492Z" fill="#000600"/>
<path d="M24.6708 12.9492H24.0508V13.5692H24.6708V12.9492Z" fill="#000600"/>
<path d="M24.0497 12.9492H23.4297V13.5692H24.0497V12.9492Z" fill="#000600"/>
<path d="M23.4403 12.9492H22.8203V13.5692H23.4403V12.9492Z" fill="#000600"/>
<path d="M22.8192 12.9492H22.1992V13.5692H22.8192V12.9492Z" fill="#000600"/>
<path d="M22.2001 12.9492H21.5801V13.5692H22.2001V12.9492Z" fill="#000600"/>
<path d="M21.5907 12.9492H20.9707V13.5692H21.5907V12.9492Z" fill="#000600"/>
<path d="M20.9696 12.9492H20.3496V13.5692H20.9696V12.9492Z" fill="#000600"/>
<path d="M20.3505 12.9492H19.7305V13.5692H20.3505V12.9492Z" fill="#000600"/>
<path d="M19.7392 12.9492H19.1191V13.5692H19.7392V12.9492Z" fill="#000600"/>
<path d="M19.12 12.9492H18.5V13.5692H19.12V12.9492Z" fill="#000600"/>
<path d="M18.5009 12.9492H17.8809V13.5692H18.5009V12.9492Z" fill="#000600"/>
<path d="M17.8895 12.9492H17.2695V13.5692H17.8895V12.9492Z" fill="#000600"/>
<path d="M17.2704 12.9492H16.6504V13.5692H17.2704V12.9492Z" fill="#000600"/>
<path d="M16.6591 12.9492H16.0391V13.5692H16.6591V12.9492Z" fill="#000600"/>
<path d="M16.0399 12.9492H15.4199V13.5692H16.0399V12.9492Z" fill="#000600"/>
<path d="M41.9306 8.63086H41.3105V9.25086H41.9306V8.63086Z" fill="#000600"/>
<path d="M41.9306 8.01953H41.3105V8.63953H41.9306V8.01953Z" fill="#000600"/>
<path d="M41.9306 7.40039H41.3105V8.02039H41.9306V7.40039Z" fill="#000600"/>
<path d="M41.9306 6.7793H41.3105V7.3993H41.9306V6.7793Z" fill="#000600"/>
<path d="M41.9306 6.16992H41.3105V6.78992H41.9306V6.16992Z" fill="#000600"/>
<path d="M40.7001 11.0996H40.0801V11.7196H40.7001V11.0996Z" fill="#000600"/>
<path d="M0.620003 4.32031H0V4.94032H0.620003V4.32031Z" fill="#000600"/>
<path d="M0.620003 4.92969H0V5.54968H0.620003V4.92969Z" fill="#000600"/>
<path d="M0.620003 5.55078H0V6.17078H0.620003V5.55078Z" fill="#000600"/>
<path d="M41.3192 3.69922H40.6992V4.31922H41.3192V3.69922Z" fill="#000600"/>
<path d="M41.3192 3.08008H40.6992V3.70007H41.3192V3.08008Z" fill="#000600"/>
<path d="M1.23914 3.69922H0.619141V4.31922H1.23914V3.69922Z" fill="#000600"/>
<path d="M1.23914 3.08008H0.619141V3.70007H1.23914V3.08008Z" fill="#000600"/>
<path d="M40.6981 2.4707H40.0781V3.0907H40.6981V2.4707Z" fill="#000600"/>
<path d="M40.079 1.23047H39.459V1.85047H40.079V1.23047Z" fill="#000600"/>
<path d="M39.4677 1.23047H38.8477V1.85047H39.4677V1.23047Z" fill="#000600"/>
<path d="M38.8485 0.619141H38.2285V1.23914H38.8485V0.619141Z" fill="#000600"/>
<path d="M38.2274 0.619141H37.6074V1.23914H38.2274V0.619141Z" fill="#000600"/>
<path d="M37.618 0H36.998V0.619995H37.618V0Z" fill="#000600"/>
<path d="M36.9989 0H36.3789V0.619995H36.9989V0Z" fill="#000600"/>
<path d="M36.3778 0H35.7578V0.619995H36.3778V0Z" fill="#000600"/>
<path d="M35.7684 0H35.1484V0.619995H35.7684V0Z" fill="#000600"/>
<path d="M35.1474 0H34.5273V0.619995H35.1474V0Z" fill="#000600"/>
<path d="M34.538 0H33.918V0.619995H34.538V0Z" fill="#000600"/>
<path d="M33.9188 0H33.2988V0.619995H33.9188V0Z" fill="#000600"/>
<path d="M33.2977 0H32.6777V0.619995H33.2977V0Z" fill="#000600"/>
<path d="M32.6884 0H32.0684V0.619995H32.6884V0Z" fill="#000600"/>
<path d="M32.0692 0H31.4492V0.619995H32.0692V0Z" fill="#000600"/>
<path d="M31.4481 0H30.8281V0.619995H31.4481V0Z" fill="#000600"/>
<path d="M30.8387 0H30.2188V0.619995H30.8387V0Z" fill="#000600"/>
<path d="M30.2177 0H29.5977V0.619995H30.2177V0Z" fill="#000600"/>
<path d="M29.5985 0H28.9785V0.619995H29.5985V0Z" fill="#000600"/>
<path d="M28.9892 0H28.3691V0.619995H28.9892V0Z" fill="#000600"/>
<path d="M28.368 0H27.748V0.619995H28.368V0Z" fill="#000600"/>
<path d="M27.7489 0H27.1289V0.619995H27.7489V0Z" fill="#000600"/>
<path d="M27.1376 0H26.5176V0.619995H27.1376V0Z" fill="#000600"/>
<path d="M26.5184 0H25.8984V0.619995H26.5184V0Z" fill="#000600"/>
<path d="M25.8974 0H25.2773V0.619995H25.8974V0Z" fill="#000600"/>
<path d="M25.288 0H24.668V0.619995H25.288V0Z" fill="#000600"/>
<path d="M24.6688 0H24.0488V0.619995H24.6688V0Z" fill="#000600"/>
<path d="M24.0477 0H23.4277V0.619995H24.0477V0Z" fill="#000600"/>
<path d="M23.4384 0H22.8184V0.619995H23.4384V0Z" fill="#000600"/>
<path d="M22.8192 0H22.1992V0.619995H22.8192V0Z" fill="#000600"/>
<path d="M22.1981 0H21.5781V0.619995H22.1981V0Z" fill="#000600"/>
<path d="M21.5887 0H20.9688V0.619995H21.5887V0Z" fill="#000600"/>
<path d="M20.9677 0H20.3477V0.619995H20.9677V0Z" fill="#000600"/>
<path d="M20.3485 0H19.7285V0.619995H20.3485V0Z" fill="#000600"/>
<path d="M19.7392 0H19.1191V0.619995H19.7392V0Z" fill="#000600"/>
<path d="M19.118 0H18.498V0.619995H19.118V0Z" fill="#000600"/>
<path d="M18.4989 0H17.8789V0.619995H18.4989V0Z" fill="#000600"/>
<path d="M17.8876 0H17.2676V0.619995H17.8876V0Z" fill="#000600"/>
<path d="M17.2684 0H16.6484V0.619995H17.2684V0Z" fill="#000600"/>
<path d="M16.6591 0H16.0391V0.619995H16.6591V0Z" fill="#000600"/>
<path d="M16.038 0H15.418V0.619995H16.038V0Z" fill="#000600"/>
<path d="M40.6981 1.84961H40.0781V2.46961H40.6981V1.84961Z" fill="#000600"/>
<path d="M1.85828 2.4707H1.23828V3.0907H1.85828V2.4707Z" fill="#000600"/>
<path d="M2.46765 1.23047H1.84766V1.85047H2.46765V1.23047Z" fill="#000600"/>
<path d="M3.08875 1.23047H2.46875V1.85047H3.08875V1.23047Z" fill="#000600"/>
<path d="M3.7079 0.619141H3.08789V1.23914H3.7079V0.619141Z" fill="#000600"/>
<path d="M4.31923 0.619141H3.69922V1.23914H4.31923V0.619141Z" fill="#000600"/>
<path d="M4.93835 0H4.31836V0.619995H4.93835V0Z" fill="#000600"/>
<path d="M5.5575 0H4.9375V0.619995H5.5575V0Z" fill="#000600"/>
<path d="M6.16882 0H5.54883V0.619995H6.16882V0Z" fill="#000600"/>
<path d="M6.78798 0H6.16797V0.619995H6.78798V0Z" fill="#000600"/>
<path d="M7.40906 0H6.78906V0.619995H7.40906V0Z" fill="#000600"/>
<path d="M8.01843 0H7.39844V0.619995H8.01843V0Z" fill="#000600"/>
<path d="M8.63757 0H8.01758V0.619995H8.63757V0Z" fill="#000600"/>
<path d="M9.25868 0H8.63867V0.619995H9.25868V0Z" fill="#000600"/>
<path d="M9.86804 0H9.24805V0.619995H9.86804V0Z" fill="#000600"/>
<path d="M10.4892 0H9.86914V0.619995H10.4892V0Z" fill="#000600"/>
<path d="M11.1083 0H10.4883V0.619995H11.1083V0Z" fill="#000600"/>
<path d="M11.7177 0H11.0977V0.619995H11.7177V0Z" fill="#000600"/>
<path d="M12.3387 0H11.7188V0.619995H12.3387V0Z" fill="#000600"/>
<path d="M12.9579 0H12.3379V0.619995H12.9579V0Z" fill="#000600"/>
<path d="M13.5692 0H12.9492V0.619995H13.5692V0Z" fill="#000600"/>
<path d="M14.1884 0H13.5684V0.619995H14.1884V0Z" fill="#000600"/>
<path d="M14.8075 0H14.1875V0.619995H14.8075V0Z" fill="#000600"/>
<path d="M15.4188 0H14.7988V0.619995H15.4188V0Z" fill="#000600"/>
<path d="M1.85828 1.84961H1.23828V2.46961H1.85828V1.84961Z" fill="#000600"/>
<path d="M1.23914 6.7793H0.619141V7.3993H1.23914V6.7793Z" fill="#000600"/>
<path d="M1.23914 7.39844H0.619141V8.01843H1.23914V7.39844Z" fill="#000600"/>
<path d="M41.3192 6.7793H40.6992V7.3993H41.3192V6.7793Z" fill="#000600"/>
<path d="M41.3192 7.39844H40.6992V8.01843H41.3192V7.39844Z" fill="#000600"/>
<path d="M1.85828 8.01953H1.23828V8.63953H1.85828V8.01953Z" fill="#000600"/>
<path d="M2.46765 9.25H1.84766V9.87H2.46765V9.25Z" fill="#000600"/>
<path d="M3.08875 9.25H2.46875V9.87H3.08875V9.25Z" fill="#000600"/>
<path d="M3.7079 9.85938H3.08789V10.4794H3.7079V9.85938Z" fill="#000600"/>
<path d="M4.31923 9.85938H3.69922V10.4794H4.31923V9.85938Z" fill="#000600"/>
<path d="M4.93835 10.4805H4.31836V11.1005H4.93835V10.4805Z" fill="#000600"/>
<path d="M5.5575 10.4805H4.9375V11.1005H5.5575V10.4805Z" fill="#000600"/>
<path d="M6.16882 10.4805H5.54883V11.1005H6.16882V10.4805Z" fill="#000600"/>
<path d="M6.78798 10.4805H6.16797V11.1005H6.78798V10.4805Z" fill="#000600"/>
<path d="M7.40906 10.4805H6.78906V11.1005H7.40906V10.4805Z" fill="#000600"/>
<path d="M8.01843 10.4805H7.39844V11.1005H8.01843V10.4805Z" fill="#000600"/>
<path d="M8.63757 10.4805H8.01758V11.1005H8.63757V10.4805Z" fill="#000600"/>
<path d="M9.25868 10.4805H8.63867V11.1005H9.25868V10.4805Z" fill="#000600"/>
<path d="M9.86804 10.4805H9.24805V11.1005H9.86804V10.4805Z" fill="#000600"/>
<path d="M10.4892 10.4805H9.86914V11.1005H10.4892V10.4805Z" fill="#000600"/>
<path d="M11.1083 10.4805H10.4883V11.1005H11.1083V10.4805Z" fill="#000600"/>
<path d="M11.7177 10.4805H11.0977V11.1005H11.7177V10.4805Z" fill="#000600"/>
<path d="M12.3387 10.4805H11.7188V11.1005H12.3387V10.4805Z" fill="#000600"/>
<path d="M12.9579 10.4805H12.3379V11.1005H12.9579V10.4805Z" fill="#000600"/>
<path d="M13.5692 10.4805H12.9492V11.1005H13.5692V10.4805Z" fill="#000600"/>
<path d="M14.1884 10.4805H13.5684V11.1005H14.1884V10.4805Z" fill="#000600"/>
<path d="M14.8075 10.4805H14.1875V11.1005H14.8075V10.4805Z" fill="#000600"/>
<path d="M15.4188 10.4805H14.7988V11.1005H15.4188V10.4805Z" fill="#000600"/>
<path d="M16.038 10.4805H15.418V11.1005H16.038V10.4805Z" fill="#000600"/>
<path d="M16.6591 10.4805H16.0391V11.1005H16.6591V10.4805Z" fill="#000600"/>
<path d="M17.2684 10.4805H16.6484V11.1005H17.2684V10.4805Z" fill="#000600"/>
<path d="M17.8876 10.4805H17.2676V11.1005H17.8876V10.4805Z" fill="#000600"/>
<path d="M18.4989 10.4805H17.8789V11.1005H18.4989V10.4805Z" fill="#000600"/>
<path d="M19.118 10.4805H18.498V11.1005H19.118V10.4805Z" fill="#000600"/>
<path d="M19.7392 10.4805H19.1191V11.1005H19.7392V10.4805Z" fill="#000600"/>
<path d="M20.3485 10.4805H19.7285V11.1005H20.3485V10.4805Z" fill="#000600"/>
<path d="M20.9677 10.4805H20.3477V11.1005H20.9677V10.4805Z" fill="#000600"/>
<path d="M21.5887 10.4805H20.9688V11.1005H21.5887V10.4805Z" fill="#000600"/>
<path d="M22.1981 10.4805H21.5781V11.1005H22.1981V10.4805Z" fill="#000600"/>
<path d="M22.8192 10.4805H22.1992V11.1005H22.8192V10.4805Z" fill="#000600"/>
<path d="M23.4384 10.4805H22.8184V11.1005H23.4384V10.4805Z" fill="#000600"/>
<path d="M24.0477 10.4805H23.4277V11.1005H24.0477V10.4805Z" fill="#000600"/>
<path d="M24.6688 10.4805H24.0488V11.1005H24.6688V10.4805Z" fill="#000600"/>
<path d="M25.288 10.4805H24.668V11.1005H25.288V10.4805Z" fill="#000600"/>
<path d="M25.8974 10.4805H25.2773V11.1005H25.8974V10.4805Z" fill="#000600"/>
<path d="M26.5184 10.4805H25.8984V11.1005H26.5184V10.4805Z" fill="#000600"/>
<path d="M1.85828 8.62891H1.23828V9.24891H1.85828V8.62891Z" fill="#000600"/>
<path d="M40.6981 8.01953H40.0781V8.63953H40.6981V8.01953Z" fill="#000600"/>
<path d="M40.079 9.25H39.459V9.87H40.079V9.25Z" fill="#000600"/>
<path d="M39.4677 9.25H38.8477V9.87H39.4677V9.25Z" fill="#000600"/>
<path d="M38.8485 9.85938H38.2285V10.4794H38.8485V9.85938Z" fill="#000600"/>
<path d="M38.2274 9.85938H37.6074V10.4794H38.2274V9.85938Z" fill="#000600"/>
<path d="M37.618 10.4805H36.998V11.1005H37.618V10.4805Z" fill="#000600"/>
<path d="M36.9989 10.4805H36.3789V11.1005H36.9989V10.4805Z" fill="#000600"/>
<path d="M36.3778 10.4805H35.7578V11.1005H36.3778V10.4805Z" fill="#000600"/>
<path d="M35.7684 10.4805H35.1484V11.1005H35.7684V10.4805Z" fill="#000600"/>
<path d="M35.1474 10.4805H34.5273V11.1005H35.1474V10.4805Z" fill="#000600"/>
<path d="M34.538 10.4805H33.918V11.1005H34.538V10.4805Z" fill="#000600"/>
<path d="M33.9188 10.4805H33.2988V11.1005H33.9188V10.4805Z" fill="#000600"/>
<path d="M33.2977 10.4805H32.6777V11.1005H33.2977V10.4805Z" fill="#000600"/>
<path d="M32.6884 10.4805H32.0684V11.1005H32.6884V10.4805Z" fill="#000600"/>
<path d="M32.0692 10.4805H31.4492V11.1005H32.0692V10.4805Z" fill="#000600"/>
<path d="M31.4481 10.4805H30.8281V11.1005H31.4481V10.4805Z" fill="#000600"/>
<path d="M30.8387 10.4805H30.2188V11.1005H30.8387V10.4805Z" fill="#000600"/>
<path d="M30.2177 10.4805H29.5977V11.1005H30.2177V10.4805Z" fill="#000600"/>
<path d="M29.5985 10.4805H28.9785V11.1005H29.5985V10.4805Z" fill="#000600"/>
<path d="M28.9892 10.4805H28.3691V11.1005H28.9892V10.4805Z" fill="#000600"/>
<path d="M28.368 10.4805H27.748V11.1005H28.368V10.4805Z" fill="#000600"/>
<path d="M27.7489 10.4805H27.1289V11.1005H27.7489V10.4805Z" fill="#000600"/>
<path d="M27.1376 10.4805H26.5176V11.1005H27.1376V10.4805Z" fill="#000600"/>
<path d="M40.6981 8.62891H40.0781V9.24891H40.6981V8.62891Z" fill="#000600"/>
<path d="M1.23914 9.25H0.619141V9.87H1.23914V9.25Z" fill="#000600"/>
<path d="M1.23914 9.85938H0.619141V10.4794H1.23914V9.85938Z" fill="#000600"/>
<path d="M1.86023 10.4805H1.24023V11.1005H1.86023V10.4805Z" fill="#000600"/>
<path d="M2.4696 11.7109H1.84961V12.3309H2.4696V11.7109Z" fill="#000600"/>
<path d="M3.0907 11.7109H2.4707V12.3309H3.0907V11.7109Z" fill="#000600"/>
<path d="M3.70985 12.3301H3.08984V12.9501H3.70985V12.3301Z" fill="#000600"/>
<path d="M4.31923 12.3301H3.69922V12.9501H4.31923V12.3301Z" fill="#000600"/>
<path d="M4.94031 12.9492H4.32031V13.5692H4.94031V12.9492Z" fill="#000600"/>
<path d="M5.55945 12.9492H4.93945V13.5692H5.55945V12.9492Z" fill="#000600"/>
<path d="M6.17078 12.9492H5.55078V13.5692H6.17078V12.9492Z" fill="#000600"/>
<path d="M6.78993 12.9492H6.16992V13.5692H6.78993V12.9492Z" fill="#000600"/>
<path d="M7.40906 12.9492H6.78906V13.5692H7.40906V12.9492Z" fill="#000600"/>
<path d="M8.03015 12.9492H7.41016V13.5692H8.03015V12.9492Z" fill="#000600"/>
<path d="M8.64931 12.9492H8.0293V13.5692H8.64931V12.9492Z" fill="#000600"/>
<path d="M9.27039 12.9492H8.65039V13.5692H9.27039V12.9492Z" fill="#000600"/>
<path d="M9.87 12.9492H9.25V13.5692H9.87V12.9492Z" fill="#000600"/>
<path d="M10.4892 12.9492H9.86914V13.5692H10.4892V12.9492Z" fill="#000600"/>
<path d="M11.1102 12.9492H10.4902V13.5692H11.1102V12.9492Z" fill="#000600"/>
<path d="M11.7196 12.9492H11.0996V13.5692H11.7196V12.9492Z" fill="#000600"/>
<path d="M12.3407 12.9492H11.7207V13.5692H12.3407V12.9492Z" fill="#000600"/>
<path d="M12.9599 12.9492H12.3398V13.5692H12.9599V12.9492Z" fill="#000600"/>
<path d="M13.5692 12.9492H12.9492V13.5692H13.5692V12.9492Z" fill="#000600"/>
<path d="M14.1903 12.9492H13.5703V13.5692H14.1903V12.9492Z" fill="#000600"/>
<path d="M14.8094 12.9492H14.1895V13.5692H14.8094V12.9492Z" fill="#000600"/>
<path d="M15.4208 12.9492H14.8008V13.5692H15.4208V12.9492Z" fill="#000600"/>
<path d="M0.620003 8.63086H0V9.25086H0.620003V8.63086Z" fill="#000600"/>
<path d="M0.620003 8.01953H0V8.63953H0.620003V8.01953Z" fill="#000600"/>
<path d="M0.620003 7.40039H0V8.02039H0.620003V7.40039Z" fill="#000600"/>
<path d="M0.620003 6.7793H0V7.3993H0.620003V6.7793Z" fill="#000600"/>
<path d="M0.620003 6.16992H0V6.78992H0.620003V6.16992Z" fill="#000600"/>
<path d="M1.86023 11.0996H1.24023V11.7196H1.86023V11.0996Z" fill="#000600"/>
<g style="mix-blend-mode:screen" opacity="0.28">
<path d="M40.7001 3.08008H40.0801V3.70007H40.7001V3.08008Z" fill="white"/>
<path d="M40.7001 3.69922H40.0801V4.31922H40.7001V3.69922Z" fill="white"/>
<path d="M41.3192 4.31836H40.6992V4.93836H41.3192V4.31836Z" fill="white"/>
<path d="M41.3192 4.92969H40.6992V5.54968H41.3192V4.92969Z" fill="white"/>
<path d="M41.3192 5.54883H40.6992V6.16883H41.3192V5.54883Z" fill="white"/>
<path d="M41.3192 6.16992H40.6992V6.78992H41.3192V6.16992Z" fill="white"/>
<path d="M40.079 1.84961H39.459V2.46961H40.079V1.84961Z" fill="white"/>
<path d="M40.079 2.46875H39.459V3.08875H40.079V2.46875Z" fill="white"/>
<path d="M39.4696 1.84961H38.8496V2.46961H39.4696V1.84961Z" fill="white"/>
<path d="M38.8485 1.22852H38.2285V1.84852H38.8485V1.22852Z" fill="white"/>
<path d="M38.2294 1.22852H37.6094V1.84852H38.2294V1.22852Z" fill="white"/>
<path d="M37.62 0.619141H37V1.23914H37.62V0.619141Z" fill="white"/>
<path d="M36.9989 0.619141H36.3789V1.23914H36.9989V0.619141Z" fill="white"/>
<path d="M36.3798 0.619141H35.7598V1.23914H36.3798V0.619141Z" fill="white"/>
<path d="M35.7684 0.619141H35.1484V1.23914H35.7684V0.619141Z" fill="white"/>
<path d="M35.1493 0.619141H34.5293V1.23914H35.1493V0.619141Z" fill="white"/>
<path d="M34.5399 0.619141H33.9199V1.23914H34.5399V0.619141Z" fill="white"/>
<path d="M33.9188 0.619141H33.2988V1.23914H33.9188V0.619141Z" fill="white"/>
<path d="M33.2997 0.619141H32.6797V1.23914H33.2997V0.619141Z" fill="white"/>
<path d="M32.6884 0.619141H32.0684V1.23914H32.6884V0.619141Z" fill="white"/>
<path d="M32.0692 0.619141H31.4492V1.23914H32.0692V0.619141Z" fill="white"/>
<path d="M31.4501 0.619141H30.8301V1.23914H31.4501V0.619141Z" fill="white"/>
<path d="M30.8387 0.619141H30.2188V1.23914H30.8387V0.619141Z" fill="white"/>
<path d="M30.2196 0.619141H29.5996V1.23914H30.2196V0.619141Z" fill="white"/>
<path d="M29.5985 0.619141H28.9785V1.23914H29.5985V0.619141Z" fill="white"/>
<path d="M28.9892 0.619141H28.3691V1.23914H28.9892V0.619141Z" fill="white"/>
<path d="M28.37 0.619141H27.75V1.23914H28.37V0.619141Z" fill="white"/>
<path d="M27.7489 0.619141H27.1289V1.23914H27.7489V0.619141Z" fill="white"/>
<path d="M27.1395 0.619141H26.5195V1.23914H27.1395V0.619141Z" fill="white"/>
<path d="M26.5184 0.619141H25.8984V1.23914H26.5184V0.619141Z" fill="white"/>
<path d="M25.8993 0.619141H25.2793V1.23914H25.8993V0.619141Z" fill="white"/>
<path d="M25.2899 0.619141H24.6699V1.23914H25.2899V0.619141Z" fill="white"/>
<path d="M24.6688 0.619141H24.0488V1.23914H24.6688V0.619141Z" fill="white"/>
<path d="M24.0497 0.619141H23.4297V1.23914H24.0497V0.619141Z" fill="white"/>
<path d="M23.4384 0.619141H22.8184V1.23914H23.4384V0.619141Z" fill="white"/>
<path d="M22.8192 0.619141H22.1992V1.23914H22.8192V0.619141Z" fill="white"/>
<path d="M22.2001 0.619141H21.5801V1.23914H22.2001V0.619141Z" fill="white"/>
<path d="M21.5887 0.619141H20.9688V1.23914H21.5887V0.619141Z" fill="white"/>
<path d="M20.9696 0.619141H20.3496V1.23914H20.9696V0.619141Z" fill="white"/>
<path d="M20.3485 0.619141H19.7285V1.23914H20.3485V0.619141Z" fill="white"/>
<path d="M19.7392 0.619141H19.1191V1.23914H19.7392V0.619141Z" fill="white"/>
<path d="M19.12 0.619141H18.5V1.23914H19.12V0.619141Z" fill="white"/>
<path d="M18.4989 0.619141H17.8789V1.23914H18.4989V0.619141Z" fill="white"/>
<path d="M17.8895 0.619141H17.2695V1.23914H17.8895V0.619141Z" fill="white"/>
<path d="M17.2684 0.619141H16.6484V1.23914H17.2684V0.619141Z" fill="white"/>
<path d="M16.6591 0.619141H16.0391V1.23914H16.6591V0.619141Z" fill="white"/>
<path d="M16.0399 0.619141H15.4199V1.23914H16.0399V0.619141Z" fill="white"/>
<path d="M1.85828 3.08008H1.23828V3.70007H1.85828V3.08008Z" fill="white"/>
<path d="M2.4696 3.08008H1.84961V3.70007H2.4696V3.08008Z" fill="white"/>
<path d="M1.85828 3.69922H1.23828V4.31922H1.85828V3.69922Z" fill="white"/>
<path d="M1.85828 4.31836H1.23828V4.93836H1.85828V4.31836Z" fill="white"/>
<path d="M1.23914 4.31836H0.619141V4.93836H1.23914V4.31836Z" fill="white"/>
<path d="M1.23914 4.92969H0.619141V5.54968H1.23914V4.92969Z" fill="white"/>
<path d="M1.23914 5.54883H0.619141V6.16883H1.23914V5.54883Z" fill="white"/>
<path d="M1.23914 6.16992H0.619141V6.78992H1.23914V6.16992Z" fill="white"/>
<path d="M2.4696 1.84961H1.84961V2.46961H2.4696V1.84961Z" fill="white"/>
<path d="M2.4696 2.46875H1.84961V3.08875H2.4696V2.46875Z" fill="white"/>
<path d="M3.08875 1.84961H2.46875V2.46961H3.08875V1.84961Z" fill="white"/>
<path d="M3.70985 1.84961H3.08984V2.46961H3.70985V1.84961Z" fill="white"/>
<path d="M3.70985 1.22852H3.08984V1.84852H3.70985V1.22852Z" fill="white"/>
<path d="M4.31923 1.22852H3.69922V1.84852H4.31923V1.22852Z" fill="white"/>
<path d="M4.93835 0.619141H4.31836V1.23914H4.93835V0.619141Z" fill="white"/>
<path d="M4.93835 1.22852H4.31836V1.84852H4.93835V1.22852Z" fill="white"/>
<path d="M5.55945 0.619141H4.93945V1.23914H5.55945V0.619141Z" fill="white"/>
<path d="M6.16882 0.619141H5.54883V1.23914H6.16882V0.619141Z" fill="white"/>
<path d="M6.78993 0.619141H6.16992V1.23914H6.78993V0.619141Z" fill="white"/>
<path d="M7.40906 0.619141H6.78906V1.23914H7.40906V0.619141Z" fill="white"/>
<path d="M8.01843 0.619141H7.39844V1.23914H8.01843V0.619141Z" fill="white"/>
<path d="M8.63953 0.619141H8.01953V1.23914H8.63953V0.619141Z" fill="white"/>
<path d="M9.25868 0.619141H8.63867V1.23914H9.25868V0.619141Z" fill="white"/>
<path d="M9.87 0.619141H9.25V1.23914H9.87V0.619141Z" fill="white"/>
<path d="M10.4892 0.619141H9.86914V1.23914H10.4892V0.619141Z" fill="white"/>
<path d="M11.1083 0.619141H10.4883V1.23914H11.1083V0.619141Z" fill="white"/>
<path d="M11.7196 0.619141H11.0996V1.23914H11.7196V0.619141Z" fill="white"/>
<path d="M12.3387 0.619141H11.7188V1.23914H12.3387V0.619141Z" fill="white"/>
<path d="M12.9599 0.619141H12.3398V1.23914H12.9599V0.619141Z" fill="white"/>
<path d="M13.5692 0.619141H12.9492V1.23914H13.5692V0.619141Z" fill="white"/>
<path d="M14.1884 0.619141H13.5684V1.23914H14.1884V0.619141Z" fill="white"/>
<path d="M14.8094 0.619141H14.1895V1.23914H14.8094V0.619141Z" fill="white"/>
<path d="M15.4188 0.619141H14.7988V1.23914H15.4188V0.619141Z" fill="white"/>
</g>
<path d="M1.86023 7.40039H1.24023V8.02039H1.86023V7.40039Z" fill="#0077DB"/>
<path d="M2.4696 8.63086H1.84961V9.25086H2.4696V8.63086Z" fill="#0077DB"/>
<path d="M2.4696 8.01953H1.84961V8.63953H2.4696V8.01953Z" fill="#0077DB"/>
<path d="M3.0907 8.63086H2.4707V9.25086H3.0907V8.63086Z" fill="#0077DB"/>
<path d="M3.70985 9.25H3.08984V9.87H3.70985V9.25Z" fill="#0077DB"/>
<path d="M4.32118 9.25H3.70117V9.87H4.32118V9.25Z" fill="#0077DB"/>
<path d="M4.94031 9.86133H4.32031V10.4813H4.94031V9.86133Z" fill="#0077DB"/>
<path d="M5.55945 9.86133H4.93945V10.4813H5.55945V9.86133Z" fill="#0077DB"/>
<path d="M6.17078 9.86133H5.55078V10.4813H6.17078V9.86133Z" fill="#0077DB"/>
<path d="M6.78993 9.86133H6.16992V10.4813H6.78993V9.86133Z" fill="#0077DB"/>
<path d="M7.41101 9.86133H6.79102V10.4813H7.41101V9.86133Z" fill="#0077DB"/>
<path d="M8.02039 9.86133H7.40039V10.4813H8.02039V9.86133Z" fill="#0077DB"/>
<path d="M8.63953 9.86133H8.01953V10.4813H8.63953V9.86133Z" fill="#0077DB"/>
<path d="M9.26064 9.86133H8.64062V10.4813H9.26064V9.86133Z" fill="#0077DB"/>
<path d="M9.87 9.86133H9.25V10.4813H9.87V9.86133Z" fill="#0077DB"/>
<path d="M10.4911 9.86133H9.87109V10.4813H10.4911V9.86133Z" fill="#0077DB"/>
<path d="M11.1102 9.86133H10.4902V10.4813H11.1102V9.86133Z" fill="#0077DB"/>
<path d="M11.7196 9.86133H11.0996V10.4813H11.7196V9.86133Z" fill="#0077DB"/>
<path d="M12.3407 9.86133H11.7207V10.4813H12.3407V9.86133Z" fill="#0077DB"/>
<path d="M12.9599 9.86133H12.3398V10.4813H12.9599V9.86133Z" fill="#0077DB"/>
<path d="M13.5712 9.86133H12.9512V10.4813H13.5712V9.86133Z" fill="#0077DB"/>
<path d="M14.1903 9.86133H13.5703V10.4813H14.1903V9.86133Z" fill="#0077DB"/>
<path d="M14.8094 9.86133H14.1895V10.4813H14.8094V9.86133Z" fill="#0077DB"/>
<path d="M15.4208 9.86133H14.8008V10.4813H15.4208V9.86133Z" fill="#0077DB"/>
<path d="M16.0399 9.86133H15.4199V10.4813H16.0399V9.86133Z" fill="#0077DB"/>
<path d="M16.661 9.86133H16.041V10.4813H16.661V9.86133Z" fill="#0077DB"/>
<path d="M17.2704 9.86133H16.6504V10.4813H17.2704V9.86133Z" fill="#0077DB"/>
<path d="M17.8895 9.86133H17.2695V10.4813H17.8895V9.86133Z" fill="#0077DB"/>
<path d="M18.5009 9.86133H17.8809V10.4813H18.5009V9.86133Z" fill="#0077DB"/>
<path d="M19.12 9.86133H18.5V10.4813H19.12V9.86133Z" fill="#0077DB"/>
<path d="M19.7411 9.86133H19.1211V10.4813H19.7411V9.86133Z" fill="#0077DB"/>
<path d="M20.3505 9.86133H19.7305V10.4813H20.3505V9.86133Z" fill="#0077DB"/>
<path d="M20.9696 9.86133H20.3496V10.4813H20.9696V9.86133Z" fill="#0077DB"/>
<path d="M21.5907 9.86133H20.9707V10.4813H21.5907V9.86133Z" fill="#0077DB"/>
<path d="M22.2001 9.86133H21.5801V10.4813H22.2001V9.86133Z" fill="#0077DB"/>
<path d="M22.8212 9.86133H22.2012V10.4813H22.8212V9.86133Z" fill="#0077DB"/>
<path d="M23.4403 9.86133H22.8203V10.4813H23.4403V9.86133Z" fill="#0077DB"/>
<path d="M24.0497 9.86133H23.4297V10.4813H24.0497V9.86133Z" fill="#0077DB"/>
<path d="M24.6708 9.86133H24.0508V10.4813H24.6708V9.86133Z" fill="#0077DB"/>
<path d="M25.2899 9.86133H24.6699V10.4813H25.2899V9.86133Z" fill="#0077DB"/>
<path d="M25.8993 9.86133H25.2793V10.4813H25.8993V9.86133Z" fill="#0077DB"/>
<path d="M26.5204 9.86133H25.9004V10.4813H26.5204V9.86133Z" fill="#0077DB"/>
<path d="M40.7001 7.40039H40.0801V8.02039H40.7001V7.40039Z" fill="#0077DB"/>
<path d="M40.0809 8.63086H39.4609V9.25086H40.0809V8.63086Z" fill="#0077DB"/>
<path d="M40.0809 8.01953H39.4609V8.63953H40.0809V8.01953Z" fill="#0077DB"/>
<path d="M39.4696 8.63086H38.8496V9.25086H39.4696V8.63086Z" fill="#0077DB"/>
<path d="M38.8505 9.25H38.2305V9.87H38.8505V9.25Z" fill="#0077DB"/>
<path d="M38.2294 9.25H37.6094V9.87H38.2294V9.25Z" fill="#0077DB"/>
<path d="M37.62 9.86133H37V10.4813H37.62V9.86133Z" fill="#0077DB"/>
<path d="M37.0009 9.86133H36.3809V10.4813H37.0009V9.86133Z" fill="#0077DB"/>
<path d="M36.3798 9.86133H35.7598V10.4813H36.3798V9.86133Z" fill="#0077DB"/>
<path d="M35.7704 9.86133H35.1504V10.4813H35.7704V9.86133Z" fill="#0077DB"/>
<path d="M35.1493 9.86133H34.5293V10.4813H35.1493V9.86133Z" fill="#0077DB"/>
<path d="M34.5399 9.86133H33.9199V10.4813H34.5399V9.86133Z" fill="#0077DB"/>
<path d="M33.9208 9.86133H33.3008V10.4813H33.9208V9.86133Z" fill="#0077DB"/>
<path d="M33.2997 9.86133H32.6797V10.4813H33.2997V9.86133Z" fill="#0077DB"/>
<path d="M32.6903 9.86133H32.0703V10.4813H32.6903V9.86133Z" fill="#0077DB"/>
<path d="M32.0712 9.86133H31.4512V10.4813H32.0712V9.86133Z" fill="#0077DB"/>
<path d="M31.4501 9.86133H30.8301V10.4813H31.4501V9.86133Z" fill="#0077DB"/>
<path d="M30.8407 9.86133H30.2207V10.4813H30.8407V9.86133Z" fill="#0077DB"/>
<path d="M30.2196 9.86133H29.5996V10.4813H30.2196V9.86133Z" fill="#0077DB"/>
<path d="M29.6005 9.86133H28.9805V10.4813H29.6005V9.86133Z" fill="#0077DB"/>
<path d="M28.9911 9.86133H28.3711V10.4813H28.9911V9.86133Z" fill="#0077DB"/>
<path d="M28.37 9.86133H27.75V10.4813H28.37V9.86133Z" fill="#0077DB"/>
<path d="M27.7509 9.86133H27.1309V10.4813H27.7509V9.86133Z" fill="#0077DB"/>
<path d="M27.1395 9.86133H26.5195V10.4813H27.1395V9.86133Z" fill="#0077DB"/>
<g style="mix-blend-mode:screen" opacity="0.28">
<path d="M40.7001 6.7793H40.0801V7.3993H40.7001V6.7793Z" fill="white"/>
<path d="M40.079 7.39844H39.459V8.01843H40.079V7.39844Z" fill="white"/>
<path d="M39.4696 8.01953H38.8496V8.63953H39.4696V8.01953Z" fill="white"/>
<path d="M38.8485 8.62891H38.2285V9.24891H38.8485V8.62891Z" fill="white"/>
<path d="M38.2294 8.62891H37.6094V9.24891H38.2294V8.62891Z" fill="white"/>
<path d="M37.62 9.25H37V9.87H37.62V9.25Z" fill="white"/>
<path d="M36.9989 9.25H36.3789V9.87H36.9989V9.25Z" fill="white"/>
<path d="M36.3798 9.25H35.7598V9.87H36.3798V9.25Z" fill="white"/>
<path d="M35.7684 9.25H35.1484V9.87H35.7684V9.25Z" fill="white"/>
<path d="M35.1493 9.25H34.5293V9.87H35.1493V9.25Z" fill="white"/>
</g>
<path d="M9.15883 4.33789V4.95789H9.77882V6.19789H9.15883V6.81789H7.29883V6.19789H9.15883V4.95789H7.91882V4.33789H9.15883Z" fill="black"/>
<path d="M12.2684 4.33789V4.95789H12.8884V6.19789H13.5084V6.81789H10.3984V6.19789H12.2584V4.95789H11.0184V4.33789H12.2584H12.2684Z" fill="black"/>
<path d="M17.2391 6.19789V6.81789H13.5091C13.2991 6.60789 13.2991 6.40789 13.5091 6.19789H15.9991V4.95789H14.1391V4.33789H15.9991V4.95789H16.619V6.19789H17.2391ZM15.3791 7.44789V8.06789H14.7591V7.44789H15.3791Z" fill="black"/>
<path d="M19.7295 6.81789H17.2395C17.0295 6.60789 17.0295 6.40789 17.2395 6.19789H17.8595V4.95789H18.4795V4.33789H19.7195V4.95789H20.3395V6.19789H19.7195V6.81789H19.7295ZM19.7295 4.95789H18.4895V6.19789H19.7295V4.95789Z" fill="black"/>
<path d="M24.6987 4.33789V4.95789H23.4588V6.19789H24.6987V6.81789H22.8387V8.05789H24.6987V8.67789H22.8387V8.05789H22.2188V6.81789H22.8387V4.95789H23.4588V4.33789H24.6987Z" fill="black"/>
<path d="M27.1784 4.33789V4.95789H27.7984V7.44789H27.1784V8.06789H25.3184V7.44789H27.1784V6.8279H25.9384V6.20789H25.3184V4.9679H25.9384V4.34789H27.1784V4.33789ZM27.1784 6.19789V4.95789H25.9384V6.19789H27.1784Z" fill="black"/>
<path d="M29.6697 6.81922V7.43922H29.0497V8.05922H28.4297V7.43922H29.0497V4.94922H29.6697V6.18922H30.2897V6.80922H29.6697V6.81922Z" fill="black"/>
<path d="M33.3886 6.19875V4.95875H34.0086V6.19875H33.3886V6.81875H30.2786C30.0686 6.60875 30.0686 6.40875 30.2786 6.19875H30.8986V4.95875H31.5186V6.19875H32.1386V4.95875H32.7586V6.19875H33.3786H33.3886ZM32.1486 3.71875V4.33875H31.5286V3.71875H32.1486ZM32.7686 2.46875V3.08875H32.1486V2.46875H32.7686ZM33.3886 3.71875V4.33875H32.7686V3.71875H33.3886Z" fill="black"/>
</svg>
