<svg width="72" height="21" viewBox="0 0 72 21" fill="none" xmlns="http://www.w3.org/2000/svg">
<path d="M63.9096 1.85938L67.6296 3.71938L69.4796 7.42937V12.9994L67.6296 16.7094L63.9096 18.5694H7.41961L3.70961 16.7094L1.84961 12.9994V7.42937L3.70961 3.71938L7.41961 1.85938H63.9096Z" fill="#FDB913"/>
<path d="M63.9193 16.709H9.2793V18.569H63.9193V16.709Z" fill="#FFAC33"/>
<path d="M65.7702 14.8594H63.9102V16.7194H65.7702V14.8594Z" fill="#FFAC33"/>
<path d="M67.6295 14.8594H65.7695V16.7194H67.6295V14.8594Z" fill="#FFAC33"/>
<path d="M69.4909 11.1387H67.6309V12.9987H69.4909V11.1387Z" fill="#FFAC33"/>
<path d="M69.4909 13H67.6309V14.86H69.4909V13Z" fill="#FFAC33"/>
<path d="M71.3405 9.28906H69.4805V11.1491H71.3405V9.28906Z" fill="#FFAC33"/>
<path d="M9.27992 16.709H7.41992V18.569H9.27992V16.709Z" fill="#FFAC33"/>
<path d="M7.42055 14.8594H5.56055V16.7194H7.42055V14.8594Z" fill="#FFAC33"/>
<path d="M5.57094 14.8594H3.71094V16.7194H5.57094V14.8594Z" fill="#FFAC33"/>
<path d="M3.70961 13H1.84961V14.86H3.70961V13Z" fill="#FFAC33"/>
<path d="M3.70961 11.1387H1.84961V12.9987H3.70961V11.1387Z" fill="#FFAC33"/>
<path d="M1.86 9.28906H0V11.1491H1.86V9.28906Z" fill="#FFAC33"/>
<path d="M63.9193 14.8594H9.2793V16.7194H63.9193V14.8594Z" fill="#FFAC33"/>
<path d="M65.7702 12.998H63.9102V14.858H65.7702V12.998Z" fill="#FFAC33"/>
<path d="M67.6295 12.998H65.7695V14.858H67.6295V12.998Z" fill="#FFAC33"/>
<path d="M69.4889 11.1387H67.6289V12.9987H69.4889V11.1387Z" fill="#FFAC33"/>
<path d="M9.27992 14.8594H7.41992V16.7194H9.27992V14.8594Z" fill="#FFAC33"/>
<path d="M7.42055 12.998H5.56055V14.858H7.42055V12.998Z" fill="#FFAC33"/>
<path d="M5.56898 12.998H3.70898V14.858H5.56898V12.998Z" fill="#FFAC33"/>
<path d="M3.70961 11.1387H1.84961V12.9987H3.70961V11.1387Z" fill="#FFAC33"/>
<path d="M63.9193 0H9.2793V1.86H63.9193V0Z" fill="#000600"/>
<path d="M63.9193 18.5703H9.2793V20.4303H63.9193V18.5703Z" fill="#000600"/>
<path d="M65.7702 1.85938H63.9102V3.71938H65.7702V1.85938Z" fill="#000600"/>
<path d="M67.6295 1.85938H65.7695V3.71938H67.6295V1.85938Z" fill="#000600"/>
<path d="M65.7702 16.7109H63.9102V18.5709H65.7702V16.7109Z" fill="#000600"/>
<path d="M67.6295 16.7109H65.7695V18.5709H67.6295V16.7109Z" fill="#000600"/>
<path d="M69.4909 3.7207H67.6309V5.5807H69.4909V3.7207Z" fill="#000600"/>
<path d="M69.4909 5.57031H67.6309V7.43031H69.4909V5.57031Z" fill="#000600"/>
<path d="M69.4909 13H67.6309V14.86H69.4909V13Z" fill="#000600"/>
<path d="M69.4909 14.8594H67.6309V16.7194H69.4909V14.8594Z" fill="#000600"/>
<path d="M71.3405 7.42969H69.4805V9.28969H71.3405V7.42969Z" fill="#000600"/>
<path d="M71.3405 9.28906H69.4805V11.1491H71.3405V9.28906Z" fill="#000600"/>
<path d="M71.3405 11.1406H69.4805V13.0006H71.3405V11.1406Z" fill="#000600"/>
<path d="M9.27992 18.5703H7.41992V20.4303H9.27992V18.5703Z" fill="#000600"/>
<path d="M9.27992 0H7.41992V1.86H9.27992V0Z" fill="#000600"/>
<path d="M7.42055 16.7109H5.56055V18.5709H7.42055V16.7109Z" fill="#000600"/>
<path d="M5.57094 16.7109H3.71094V18.5709H5.57094V16.7109Z" fill="#000600"/>
<path d="M7.42055 1.85938H5.56055V3.71938H7.42055V1.85938Z" fill="#000600"/>
<path d="M5.57094 1.85938H3.71094V3.71938H5.57094V1.85938Z" fill="#000600"/>
<path d="M3.70961 14.8594H1.84961V16.7194H3.70961V14.8594Z" fill="#000600"/>
<path d="M3.70961 13H1.84961V14.86H3.70961V13Z" fill="#000600"/>
<path d="M3.70961 5.57031H1.84961V7.43031H3.70961V5.57031Z" fill="#000600"/>
<path d="M3.70961 3.7207H1.84961V5.5807H3.70961V3.7207Z" fill="#000600"/>
<path d="M1.86 11.1406H0V13.0006H1.86V11.1406Z" fill="#000600"/>
<g style="mix-blend-mode:screen" opacity="0.31">
<path d="M62.0619 1.88086H7.42188V3.74086H62.0619V1.88086Z" fill="white"/>
<path d="M7.42055 3.74023H5.56055V5.60023H7.42055V3.74023Z" fill="white"/>
<path d="M9.28188 3.74023H7.42188V5.60023H9.28188V3.74023Z" fill="white"/>
<path d="M5.57094 3.74023H3.71094V5.60023H5.57094V3.74023Z" fill="white"/>
<path d="M63.9205 1.88086H62.0605V3.74086H63.9205V1.88086Z" fill="white"/>
<path d="M63.9205 3.7207H62.0605V5.5807H63.9205V3.7207Z" fill="white"/>
<path d="M65.7702 3.74023H63.9102V5.60023H65.7702V3.74023Z" fill="white"/>
<path d="M67.6315 3.74023H65.7715V5.60023H67.6315V3.74023Z" fill="white"/>
<path d="M5.57094 5.60156H3.71094V7.46156H5.57094V5.60156Z" fill="white"/>
<path d="M67.6315 5.60156H65.7715V7.46156H67.6315V5.60156Z" fill="white"/>
</g>
<path d="M1.86 9.28906H0V11.1491H1.86V9.28906Z" fill="#000600"/>
<path d="M1.86 7.42969H0V9.28969H1.86V7.42969Z" fill="#000600"/>
<path d="M11.1393 3.74023H9.2793V5.60023H11.1393V3.74023Z" fill="white"/>
<path d="M9.28969 5.58008H7.42969V7.44008H9.28969V5.58008Z" fill="white"/>
<path d="M7.42055 5.58008H5.56055V7.44008H7.42055V5.58008Z" fill="white"/>
</svg>
