<svg width="96" height="31" viewBox="0 0 96 31" fill="none" xmlns="http://www.w3.org/2000/svg">
<path d="M9.82039 1.41016L7.02039 2.81016L4.21039 4.21015L2.80038 7.02016L1.40039 9.83015V21.0602L2.80038 23.8702L4.21039 26.6802L7.02039 28.0802L9.82039 29.4902H85.6404L88.4504 28.0802L91.2604 26.6802L92.6604 23.8702L94.0604 21.0602V9.83015L92.6604 7.02016L91.2604 4.21015L88.4504 2.81016L85.6404 1.41016H9.82039Z" fill="#FDB913"/>
<path d="M16.8512 2.81055H15.4512V4.21054H16.8512V2.81055Z" fill="white"/>
<path d="M15.441 2.81055H14.041V4.21054H15.441V2.81055Z" fill="white"/>
<path d="M14.0309 2.81055H12.6309V4.21054H14.0309V2.81055Z" fill="white"/>
<path d="M12.6305 2.81055H11.2305V4.21054H12.6305V2.81055Z" fill="white"/>
<path d="M11.2203 4.21094H9.82031V5.61094H11.2203V4.21094Z" fill="white"/>
<path d="M9.82187 4.21094H8.42188V5.61094H9.82187V4.21094Z" fill="white"/>
<path d="M8.42149 5.62109H7.02148V7.0211H8.42149V5.62109Z" fill="white"/>
<path d="M7.01132 5.62109H5.61133V7.0211H7.01132V5.62109Z" fill="white"/>
<path d="M7.01132 7.02148H5.61133V8.42149H7.01132V7.02148Z" fill="white"/>
<path d="M5.61095 8.42969H4.21094V9.82969H5.61095V8.42969Z" fill="white"/>
<path d="M2.80038 16.8496H1.40039V18.2496H2.80038V16.8496Z" fill="#F7941D"/>
<path d="M2.80038 18.25H1.40039V19.65H2.80038V18.25Z" fill="#F7941D"/>
<path d="M94.0602 16.8496H92.6602V18.2496H94.0602V16.8496Z" fill="#F7941D"/>
<path d="M94.0602 18.25H92.6602V19.65H94.0602V18.25Z" fill="#F7941D"/>
<path d="M4.20079 19.6602H2.80078V21.0602H4.20079V19.6602Z" fill="#F7941D"/>
<path d="M5.61095 22.4707H4.21094V23.8707H5.61095V22.4707Z" fill="#F7941D"/>
<path d="M7.01132 22.4707H5.61133V23.8707H7.01132V22.4707Z" fill="#F7941D"/>
<path d="M8.42149 23.8711H7.02148V25.2711H8.42149V23.8711Z" fill="#F7941D"/>
<path d="M9.81992 23.8711H8.41992V25.2711H9.81992V23.8711Z" fill="#F7941D"/>
<path d="M11.2203 25.2695H9.82031V26.6695H11.2203V25.2695Z" fill="#F7941D"/>
<path d="M12.6305 25.2695H11.2305V26.6695H12.6305V25.2695Z" fill="#F7941D"/>
<path d="M14.0309 25.2695H12.6309V26.6695H14.0309V25.2695Z" fill="#F7941D"/>
<path d="M15.441 25.2695H14.041V26.6695H15.441V25.2695Z" fill="#F7941D"/>
<path d="M16.8414 25.2695H15.4414V26.6695H16.8414V25.2695Z" fill="#F7941D"/>
<path d="M18.2398 25.2695H16.8398V26.6695H18.2398V25.2695Z" fill="#F7941D"/>
<path d="M19.65 25.2695H18.25V26.6695H19.65V25.2695Z" fill="#F7941D"/>
<path d="M21.0504 25.2695H19.6504V26.6695H21.0504V25.2695Z" fill="#F7941D"/>
<path d="M22.4605 25.2695H21.0605V26.6695H22.4605V25.2695Z" fill="#F7941D"/>
<path d="M23.8609 25.2695H22.4609V26.6695H23.8609V25.2695Z" fill="#F7941D"/>
<path d="M25.2613 25.2695H23.8613V26.6695H25.2613V25.2695Z" fill="#F7941D"/>
<path d="M26.6715 25.2695H25.2715V26.6695H26.6715V25.2695Z" fill="#F7941D"/>
<path d="M28.0699 25.2695H26.6699V26.6695H28.0699V25.2695Z" fill="#F7941D"/>
<path d="M29.4801 25.2695H28.0801V26.6695H29.4801V25.2695Z" fill="#F7941D"/>
<path d="M30.8805 25.2695H29.4805V26.6695H30.8805V25.2695Z" fill="#F7941D"/>
<path d="M32.2809 25.2695H30.8809V26.6695H32.2809V25.2695Z" fill="#F7941D"/>
<path d="M33.691 25.2695H32.291V26.6695H33.691V25.2695Z" fill="#F7941D"/>
<path d="M35.0914 25.2695H33.6914V26.6695H35.0914V25.2695Z" fill="#F7941D"/>
<path d="M36.5016 25.2695H35.1016V26.6695H36.5016V25.2695Z" fill="#F7941D"/>
<path d="M37.9 25.2695H36.5V26.6695H37.9V25.2695Z" fill="#F7941D"/>
<path d="M39.3004 25.2695H37.9004V26.6695H39.3004V25.2695Z" fill="#F7941D"/>
<path d="M40.7105 25.2695H39.3105V26.6695H40.7105V25.2695Z" fill="#F7941D"/>
<path d="M42.1109 25.2695H40.7109V26.6695H42.1109V25.2695Z" fill="#F7941D"/>
<path d="M43.5211 25.2695H42.1211V26.6695H43.5211V25.2695Z" fill="#F7941D"/>
<path d="M44.9215 25.2695H43.5215V26.6695H44.9215V25.2695Z" fill="#F7941D"/>
<path d="M46.3199 25.2695H44.9199V26.6695H46.3199V25.2695Z" fill="#F7941D"/>
<path d="M47.7301 25.2695H46.3301V26.6695H47.7301V25.2695Z" fill="#F7941D"/>
<path d="M49.1305 25.2695H47.7305V26.6695H49.1305V25.2695Z" fill="#F7941D"/>
<path d="M50.5406 25.2695H49.1406V26.6695H50.5406V25.2695Z" fill="#F7941D"/>
<path d="M51.941 25.2695H50.541V26.6695H51.941V25.2695Z" fill="#F7941D"/>
<path d="M53.3414 25.2695H51.9414V26.6695H53.3414V25.2695Z" fill="#F7941D"/>
<path d="M54.7516 25.2695H53.3516V26.6695H54.7516V25.2695Z" fill="#F7941D"/>
<path d="M56.15 25.2695H54.75V26.6695H56.15V25.2695Z" fill="#F7941D"/>
<path d="M57.5602 25.2695H56.1602V26.6695H57.5602V25.2695Z" fill="#F7941D"/>
<path d="M58.9605 25.2695H57.5605V26.6695H58.9605V25.2695Z" fill="#F7941D"/>
<path d="M60.3609 25.2695H58.9609V26.6695H60.3609V25.2695Z" fill="#F7941D"/>
<path d="M4.20079 21.0605H2.80078V22.4605H4.20079V21.0605Z" fill="#F7941D"/>
<path d="M92.6617 19.6602H91.2617V21.0602H92.6617V19.6602Z" fill="#F7941D"/>
<path d="M91.2516 22.4707H89.8516V23.8707H91.2516V22.4707Z" fill="#F7941D"/>
<path d="M89.8512 22.4707H88.4512V23.8707H89.8512V22.4707Z" fill="#F7941D"/>
<path d="M88.441 23.8711H87.041V25.2711H88.441V23.8711Z" fill="#F7941D"/>
<path d="M87.0406 23.8711H85.6406V25.2711H87.0406V23.8711Z" fill="#F7941D"/>
<path d="M85.6402 25.2695H84.2402V26.6695H85.6402V25.2695Z" fill="#F7941D"/>
<path d="M84.2301 25.2695H82.8301V26.6695H84.2301V25.2695Z" fill="#F7941D"/>
<path d="M82.8316 25.2695H81.4316V26.6695H82.8316V25.2695Z" fill="#F7941D"/>
<path d="M81.4215 25.2695H80.0215V26.6695H81.4215V25.2695Z" fill="#F7941D"/>
<path d="M80.0211 25.2695H78.6211V26.6695H80.0211V25.2695Z" fill="#F7941D"/>
<path d="M78.6207 25.2695H77.2207V26.6695H78.6207V25.2695Z" fill="#F7941D"/>
<path d="M77.2105 25.2695H75.8105V26.6695H77.2105V25.2695Z" fill="#F7941D"/>
<path d="M75.8102 25.2695H74.4102V26.6695H75.8102V25.2695Z" fill="#F7941D"/>
<path d="M74.4 25.2695H73V26.6695H74.4V25.2695Z" fill="#F7941D"/>
<path d="M73.0016 25.2695H71.6016V26.6695H73.0016V25.2695Z" fill="#F7941D"/>
<path d="M71.6012 25.2695H70.2012V26.6695H71.6012V25.2695Z" fill="#F7941D"/>
<path d="M70.191 25.2695H68.791V26.6695H70.191V25.2695Z" fill="#F7941D"/>
<path d="M68.7906 25.2695H67.3906V26.6695H68.7906V25.2695Z" fill="#F7941D"/>
<path d="M67.3805 25.2695H65.9805V26.6695H67.3805V25.2695Z" fill="#F7941D"/>
<path d="M65.9801 25.2695H64.5801V26.6695H65.9801V25.2695Z" fill="#F7941D"/>
<path d="M64.5816 25.2695H63.1816V26.6695H64.5816V25.2695Z" fill="#F7941D"/>
<path d="M63.1715 25.2695H61.7715V26.6695H63.1715V25.2695Z" fill="#F7941D"/>
<path d="M61.7711 25.2695H60.3711V26.6695H61.7711V25.2695Z" fill="#F7941D"/>
<path d="M92.6617 21.0605H91.2617V22.4605H92.6617V21.0605Z" fill="#F7941D"/>
<path d="M2.80038 18.25H1.40039V19.65H2.80038V18.25Z" fill="#F7941D"/>
<path d="M2.80038 19.6602H1.40039V21.0602H2.80038V19.6602Z" fill="#F7941D"/>
<path d="M94.0602 18.25H92.6602V19.65H94.0602V18.25Z" fill="#F7941D"/>
<path d="M94.0602 19.6602H92.6602V21.0602H94.0602V19.6602Z" fill="#F7941D"/>
<path d="M4.20079 21.0605H2.80078V22.4605H4.20079V21.0605Z" fill="#F7941D"/>
<path d="M5.61095 23.8711H4.21094V25.2711H5.61095V23.8711Z" fill="#F7941D"/>
<path d="M7.01132 23.8711H5.61133V25.2711H7.01132V23.8711Z" fill="#F7941D"/>
<path d="M8.42149 25.2715H7.02148V26.6715H8.42149V25.2715Z" fill="#F7941D"/>
<path d="M9.81992 25.2715H8.41992V26.6715H9.81992V25.2715Z" fill="#F7941D"/>
<path d="M11.2203 26.6797H9.82031V28.0797H11.2203V26.6797Z" fill="#F7941D"/>
<path d="M12.6305 26.6797H11.2305V28.0797H12.6305V26.6797Z" fill="#F7941D"/>
<path d="M14.0309 26.6797H12.6309V28.0797H14.0309V26.6797Z" fill="#F7941D"/>
<path d="M15.441 26.6797H14.041V28.0797H15.441V26.6797Z" fill="#F7941D"/>
<path d="M16.8414 26.6797H15.4414V28.0797H16.8414V26.6797Z" fill="#F7941D"/>
<path d="M18.2398 26.6797H16.8398V28.0797H18.2398V26.6797Z" fill="#F7941D"/>
<path d="M19.65 26.6797H18.25V28.0797H19.65V26.6797Z" fill="#F7941D"/>
<path d="M21.0504 26.6797H19.6504V28.0797H21.0504V26.6797Z" fill="#F7941D"/>
<path d="M22.4605 26.6797H21.0605V28.0797H22.4605V26.6797Z" fill="#F7941D"/>
<path d="M23.8609 26.6797H22.4609V28.0797H23.8609V26.6797Z" fill="#F7941D"/>
<path d="M25.2613 26.6797H23.8613V28.0797H25.2613V26.6797Z" fill="#F7941D"/>
<path d="M26.6715 26.6797H25.2715V28.0797H26.6715V26.6797Z" fill="#F7941D"/>
<path d="M28.0699 26.6797H26.6699V28.0797H28.0699V26.6797Z" fill="#F7941D"/>
<path d="M29.4801 26.6797H28.0801V28.0797H29.4801V26.6797Z" fill="#F7941D"/>
<path d="M30.8805 26.6797H29.4805V28.0797H30.8805V26.6797Z" fill="#F7941D"/>
<path d="M32.2809 26.6797H30.8809V28.0797H32.2809V26.6797Z" fill="#F7941D"/>
<path d="M33.691 26.6797H32.291V28.0797H33.691V26.6797Z" fill="#F7941D"/>
<path d="M35.0914 26.6797H33.6914V28.0797H35.0914V26.6797Z" fill="#F7941D"/>
<path d="M36.5016 26.6797H35.1016V28.0797H36.5016V26.6797Z" fill="#F7941D"/>
<path d="M37.9 26.6797H36.5V28.0797H37.9V26.6797Z" fill="#F7941D"/>
<path d="M39.3004 26.6797H37.9004V28.0797H39.3004V26.6797Z" fill="#F7941D"/>
<path d="M40.7105 26.6797H39.3105V28.0797H40.7105V26.6797Z" fill="#F7941D"/>
<path d="M42.1109 26.6797H40.7109V28.0797H42.1109V26.6797Z" fill="#F7941D"/>
<path d="M43.5211 26.6797H42.1211V28.0797H43.5211V26.6797Z" fill="#F7941D"/>
<path d="M44.9215 26.6797H43.5215V28.0797H44.9215V26.6797Z" fill="#F7941D"/>
<path d="M46.3199 26.6797H44.9199V28.0797H46.3199V26.6797Z" fill="#F7941D"/>
<path d="M47.7301 26.6797H46.3301V28.0797H47.7301V26.6797Z" fill="#F7941D"/>
<path d="M49.1305 26.6797H47.7305V28.0797H49.1305V26.6797Z" fill="#F7941D"/>
<path d="M50.5406 26.6797H49.1406V28.0797H50.5406V26.6797Z" fill="#F7941D"/>
<path d="M51.941 26.6797H50.541V28.0797H51.941V26.6797Z" fill="#F7941D"/>
<path d="M53.3414 26.6797H51.9414V28.0797H53.3414V26.6797Z" fill="#F7941D"/>
<path d="M54.7516 26.6797H53.3516V28.0797H54.7516V26.6797Z" fill="#F7941D"/>
<path d="M56.15 26.6797H54.75V28.0797H56.15V26.6797Z" fill="#F7941D"/>
<path d="M57.5602 26.6797H56.1602V28.0797H57.5602V26.6797Z" fill="#F7941D"/>
<path d="M58.9605 26.6797H57.5605V28.0797H58.9605V26.6797Z" fill="#F7941D"/>
<path d="M60.3609 26.6797H58.9609V28.0797H60.3609V26.6797Z" fill="#F7941D"/>
<path d="M4.20079 22.4707H2.80078V23.8707H4.20079V22.4707Z" fill="#F7941D"/>
<path d="M92.6617 21.0605H91.2617V22.4605H92.6617V21.0605Z" fill="#F7941D"/>
<path d="M91.2516 23.8711H89.8516V25.2711H91.2516V23.8711Z" fill="#F7941D"/>
<path d="M89.8512 23.8711H88.4512V25.2711H89.8512V23.8711Z" fill="#F7941D"/>
<path d="M88.441 25.2715H87.041V26.6715H88.441V25.2715Z" fill="#F7941D"/>
<path d="M87.0406 25.2715H85.6406V26.6715H87.0406V25.2715Z" fill="#F7941D"/>
<path d="M85.6402 26.6797H84.2402V28.0797H85.6402V26.6797Z" fill="#F7941D"/>
<path d="M84.2301 26.6797H82.8301V28.0797H84.2301V26.6797Z" fill="#F7941D"/>
<path d="M82.8316 26.6797H81.4316V28.0797H82.8316V26.6797Z" fill="#F7941D"/>
<path d="M81.4215 26.6797H80.0215V28.0797H81.4215V26.6797Z" fill="#F7941D"/>
<path d="M80.0211 26.6797H78.6211V28.0797H80.0211V26.6797Z" fill="#F7941D"/>
<path d="M78.6207 26.6797H77.2207V28.0797H78.6207V26.6797Z" fill="#F7941D"/>
<path d="M77.2105 26.6797H75.8105V28.0797H77.2105V26.6797Z" fill="#F7941D"/>
<path d="M75.8102 26.6797H74.4102V28.0797H75.8102V26.6797Z" fill="#F7941D"/>
<path d="M74.4 26.6797H73V28.0797H74.4V26.6797Z" fill="#F7941D"/>
<path d="M73.0016 26.6797H71.6016V28.0797H73.0016V26.6797Z" fill="#F7941D"/>
<path d="M71.6012 26.6797H70.2012V28.0797H71.6012V26.6797Z" fill="#F7941D"/>
<path d="M70.191 26.6797H68.791V28.0797H70.191V26.6797Z" fill="#F7941D"/>
<path d="M68.7906 26.6797H67.3906V28.0797H68.7906V26.6797Z" fill="#F7941D"/>
<path d="M67.3805 26.6797H65.9805V28.0797H67.3805V26.6797Z" fill="#F7941D"/>
<path d="M65.9801 26.6797H64.5801V28.0797H65.9801V26.6797Z" fill="#F7941D"/>
<path d="M64.5816 26.6797H63.1816V28.0797H64.5816V26.6797Z" fill="#F7941D"/>
<path d="M63.1715 26.6797H61.7715V28.0797H63.1715V26.6797Z" fill="#F7941D"/>
<path d="M61.7711 26.6797H60.3711V28.0797H61.7711V26.6797Z" fill="#F7941D"/>
<path d="M92.6617 22.4707H91.2617V23.8707H92.6617V22.4707Z" fill="#F7941D"/>
<path d="M2.80038 19.6602H1.40039V21.0602H2.80038V19.6602Z" fill="#F7941D"/>
<path d="M2.80038 21.0605H1.40039V22.4605H2.80038V21.0605Z" fill="#F7941D"/>
<path d="M94.0602 19.6602H92.6602V21.0602H94.0602V19.6602Z" fill="#F7941D"/>
<path d="M94.0602 21.0605H92.6602V22.4605H94.0602V21.0605Z" fill="#F7941D"/>
<path d="M4.20079 22.4707H2.80078V23.8707H4.20079V22.4707Z" fill="#F7941D"/>
<path d="M5.61095 25.2715H4.21094V26.6715H5.61095V25.2715Z" fill="#F7941D"/>
<path d="M7.01132 25.2715H5.61133V26.6715H7.01132V25.2715Z" fill="#F7941D"/>
<path d="M8.42149 26.6816H7.02148V28.0816H8.42149V26.6816Z" fill="#F7941D"/>
<path d="M9.81992 26.6816H8.41992V28.0816H9.81992V26.6816Z" fill="#F7941D"/>
<path d="M11.2203 28.0801H9.82031V29.4801H11.2203V28.0801Z" fill="#F7941D"/>
<path d="M12.6305 28.0801H11.2305V29.4801H12.6305V28.0801Z" fill="#F7941D"/>
<path d="M14.0309 28.0801H12.6309V29.4801H14.0309V28.0801Z" fill="#F7941D"/>
<path d="M15.441 28.0801H14.041V29.4801H15.441V28.0801Z" fill="#F7941D"/>
<path d="M16.8414 28.0801H15.4414V29.4801H16.8414V28.0801Z" fill="#F7941D"/>
<path d="M18.2398 28.0801H16.8398V29.4801H18.2398V28.0801Z" fill="#F7941D"/>
<path d="M19.65 28.0801H18.25V29.4801H19.65V28.0801Z" fill="#F7941D"/>
<path d="M21.0504 28.0801H19.6504V29.4801H21.0504V28.0801Z" fill="#F7941D"/>
<path d="M22.4605 28.0801H21.0605V29.4801H22.4605V28.0801Z" fill="#F7941D"/>
<path d="M23.8609 28.0801H22.4609V29.4801H23.8609V28.0801Z" fill="#F7941D"/>
<path d="M25.2613 28.0801H23.8613V29.4801H25.2613V28.0801Z" fill="#F7941D"/>
<path d="M26.6715 28.0801H25.2715V29.4801H26.6715V28.0801Z" fill="#F7941D"/>
<path d="M28.0699 28.0801H26.6699V29.4801H28.0699V28.0801Z" fill="#F7941D"/>
<path d="M29.4801 28.0801H28.0801V29.4801H29.4801V28.0801Z" fill="#F7941D"/>
<path d="M30.8805 28.0801H29.4805V29.4801H30.8805V28.0801Z" fill="#F7941D"/>
<path d="M32.2809 28.0801H30.8809V29.4801H32.2809V28.0801Z" fill="#F7941D"/>
<path d="M33.691 28.0801H32.291V29.4801H33.691V28.0801Z" fill="#F7941D"/>
<path d="M35.0914 28.0801H33.6914V29.4801H35.0914V28.0801Z" fill="#F7941D"/>
<path d="M36.5016 28.0801H35.1016V29.4801H36.5016V28.0801Z" fill="#F7941D"/>
<path d="M37.9 28.0801H36.5V29.4801H37.9V28.0801Z" fill="#F7941D"/>
<path d="M39.3004 28.0801H37.9004V29.4801H39.3004V28.0801Z" fill="#F7941D"/>
<path d="M40.7105 28.0801H39.3105V29.4801H40.7105V28.0801Z" fill="#F7941D"/>
<path d="M42.1109 28.0801H40.7109V29.4801H42.1109V28.0801Z" fill="#F7941D"/>
<path d="M43.5211 28.0801H42.1211V29.4801H43.5211V28.0801Z" fill="#F7941D"/>
<path d="M44.9215 28.0801H43.5215V29.4801H44.9215V28.0801Z" fill="#F7941D"/>
<path d="M46.3199 28.0801H44.9199V29.4801H46.3199V28.0801Z" fill="#F7941D"/>
<path d="M47.7301 28.0801H46.3301V29.4801H47.7301V28.0801Z" fill="#F7941D"/>
<path d="M49.1305 28.0801H47.7305V29.4801H49.1305V28.0801Z" fill="#F7941D"/>
<path d="M50.5406 28.0801H49.1406V29.4801H50.5406V28.0801Z" fill="#F7941D"/>
<path d="M51.941 28.0801H50.541V29.4801H51.941V28.0801Z" fill="#F7941D"/>
<path d="M53.3414 28.0801H51.9414V29.4801H53.3414V28.0801Z" fill="#F7941D"/>
<path d="M54.7516 28.0801H53.3516V29.4801H54.7516V28.0801Z" fill="#F7941D"/>
<path d="M56.15 28.0801H54.75V29.4801H56.15V28.0801Z" fill="#F7941D"/>
<path d="M57.5602 28.0801H56.1602V29.4801H57.5602V28.0801Z" fill="#F7941D"/>
<path d="M58.9605 28.0801H57.5605V29.4801H58.9605V28.0801Z" fill="#F7941D"/>
<path d="M60.3609 28.0801H58.9609V29.4801H60.3609V28.0801Z" fill="#F7941D"/>
<path d="M4.20079 23.8711H2.80078V25.2711H4.20079V23.8711Z" fill="#F7941D"/>
<path d="M92.6617 22.4707H91.2617V23.8707H92.6617V22.4707Z" fill="#F7941D"/>
<path d="M91.2516 25.2715H89.8516V26.6715H91.2516V25.2715Z" fill="#F7941D"/>
<path d="M89.8512 25.2715H88.4512V26.6715H89.8512V25.2715Z" fill="#F7941D"/>
<path d="M88.441 26.6816H87.041V28.0816H88.441V26.6816Z" fill="#F7941D"/>
<path d="M87.0406 26.6816H85.6406V28.0816H87.0406V26.6816Z" fill="#F7941D"/>
<path d="M85.6402 28.0801H84.2402V29.4801H85.6402V28.0801Z" fill="#F7941D"/>
<path d="M84.2301 28.0801H82.8301V29.4801H84.2301V28.0801Z" fill="#F7941D"/>
<path d="M82.8316 28.0801H81.4316V29.4801H82.8316V28.0801Z" fill="#F7941D"/>
<path d="M81.4215 28.0801H80.0215V29.4801H81.4215V28.0801Z" fill="#F7941D"/>
<path d="M80.0211 28.0801H78.6211V29.4801H80.0211V28.0801Z" fill="#F7941D"/>
<path d="M78.6207 28.0801H77.2207V29.4801H78.6207V28.0801Z" fill="#F7941D"/>
<path d="M77.2105 28.0801H75.8105V29.4801H77.2105V28.0801Z" fill="#F7941D"/>
<path d="M75.8102 28.0801H74.4102V29.4801H75.8102V28.0801Z" fill="#F7941D"/>
<path d="M74.4 28.0801H73V29.4801H74.4V28.0801Z" fill="#F7941D"/>
<path d="M73.0016 28.0801H71.6016V29.4801H73.0016V28.0801Z" fill="#F7941D"/>
<path d="M71.6012 28.0801H70.2012V29.4801H71.6012V28.0801Z" fill="#F7941D"/>
<path d="M70.191 28.0801H68.791V29.4801H70.191V28.0801Z" fill="#F7941D"/>
<path d="M68.7906 28.0801H67.3906V29.4801H68.7906V28.0801Z" fill="#F7941D"/>
<path d="M67.3805 28.0801H65.9805V29.4801H67.3805V28.0801Z" fill="#F7941D"/>
<path d="M65.9801 28.0801H64.5801V29.4801H65.9801V28.0801Z" fill="#F7941D"/>
<path d="M64.5816 28.0801H63.1816V29.4801H64.5816V28.0801Z" fill="#F7941D"/>
<path d="M63.1715 28.0801H61.7715V29.4801H63.1715V28.0801Z" fill="#F7941D"/>
<path d="M61.7711 28.0801H60.3711V29.4801H61.7711V28.0801Z" fill="#F7941D"/>
<path d="M92.6617 23.8711H91.2617V25.2711H92.6617V23.8711Z" fill="#F7941D"/>
<path d="M95.4605 9.83008H94.0605V11.2301H95.4605V9.83008Z" fill="#000600"/>
<path d="M95.4605 11.2305H94.0605V12.6305H95.4605V11.2305Z" fill="#000600"/>
<path d="M95.4605 12.6406H94.0605V14.0406H95.4605V12.6406Z" fill="#000600"/>
<path d="M94.0602 21.0605H92.6602V22.4605H94.0602V21.0605Z" fill="#000600"/>
<path d="M94.0602 22.4707H92.6602V23.8707H94.0602V22.4707Z" fill="#000600"/>
<path d="M92.6598 23.8691H91.2598V25.2691H92.6598V23.8691Z" fill="#000600"/>
<path d="M91.2496 26.6797H89.8496V28.0797H91.2496V26.6797Z" fill="#000600"/>
<path d="M89.8492 26.6797H88.4492V28.0797H89.8492V26.6797Z" fill="#000600"/>
<path d="M88.4391 28.0801H87.0391V29.4801H88.4391V28.0801Z" fill="#000600"/>
<path d="M87.0406 28.0801H85.6406V29.4801H87.0406V28.0801Z" fill="#000600"/>
<path d="M85.6402 29.4902H84.2402V30.8902H85.6402V29.4902Z" fill="#000600"/>
<path d="M84.2301 29.4902H82.8301V30.8902H84.2301V29.4902Z" fill="#000600"/>
<path d="M82.8297 29.4902H81.4297V30.8902H82.8297V29.4902Z" fill="#000600"/>
<path d="M81.4195 29.4902H80.0195V30.8902H81.4195V29.4902Z" fill="#000600"/>
<path d="M80.0191 29.4902H78.6191V30.8902H80.0191V29.4902Z" fill="#000600"/>
<path d="M78.6207 29.4902H77.2207V30.8902H78.6207V29.4902Z" fill="#000600"/>
<path d="M77.2105 29.4902H75.8105V30.8902H77.2105V29.4902Z" fill="#000600"/>
<path d="M75.8102 29.4902H74.4102V30.8902H75.8102V29.4902Z" fill="#000600"/>
<path d="M74.4 29.4902H73V30.8902H74.4V29.4902Z" fill="#000600"/>
<path d="M72.9996 29.4902H71.5996V30.8902H72.9996V29.4902Z" fill="#000600"/>
<path d="M71.5992 29.4902H70.1992V30.8902H71.5992V29.4902Z" fill="#000600"/>
<path d="M70.1891 29.4902H68.7891V30.8902H70.1891V29.4902Z" fill="#000600"/>
<path d="M68.7906 29.4902H67.3906V30.8902H68.7906V29.4902Z" fill="#000600"/>
<path d="M67.3805 29.4902H65.9805V30.8902H67.3805V29.4902Z" fill="#000600"/>
<path d="M65.9801 29.4902H64.5801V30.8902H65.9801V29.4902Z" fill="#000600"/>
<path d="M64.5797 29.4902H63.1797V30.8902H64.5797V29.4902Z" fill="#000600"/>
<path d="M63.1695 29.4902H61.7695V30.8902H63.1695V29.4902Z" fill="#000600"/>
<path d="M61.7691 29.4902H60.3691V30.8902H61.7691V29.4902Z" fill="#000600"/>
<path d="M60.3609 29.4902H58.9609V30.8902H60.3609V29.4902Z" fill="#000600"/>
<path d="M58.9605 29.4902H57.5605V30.8902H58.9605V29.4902Z" fill="#000600"/>
<path d="M57.5602 29.4902H56.1602V30.8902H57.5602V29.4902Z" fill="#000600"/>
<path d="M56.15 29.4902H54.75V30.8902H56.15V29.4902Z" fill="#000600"/>
<path d="M54.7496 29.4902H53.3496V30.8902H54.7496V29.4902Z" fill="#000600"/>
<path d="M53.3395 29.4902H51.9395V30.8902H53.3395V29.4902Z" fill="#000600"/>
<path d="M51.9391 29.4902H50.5391V30.8902H51.9391V29.4902Z" fill="#000600"/>
<path d="M50.5406 29.4902H49.1406V30.8902H50.5406V29.4902Z" fill="#000600"/>
<path d="M49.1305 29.4902H47.7305V30.8902H49.1305V29.4902Z" fill="#000600"/>
<path d="M47.7301 29.4902H46.3301V30.8902H47.7301V29.4902Z" fill="#000600"/>
<path d="M46.3199 29.4902H44.9199V30.8902H46.3199V29.4902Z" fill="#000600"/>
<path d="M44.9195 29.4902H43.5195V30.8902H44.9195V29.4902Z" fill="#000600"/>
<path d="M43.5191 29.4902H42.1191V30.8902H43.5191V29.4902Z" fill="#000600"/>
<path d="M42.1109 29.4902H40.7109V30.8902H42.1109V29.4902Z" fill="#000600"/>
<path d="M40.7105 29.4902H39.3105V30.8902H40.7105V29.4902Z" fill="#000600"/>
<path d="M39.3004 29.4902H37.9004V30.8902H39.3004V29.4902Z" fill="#000600"/>
<path d="M37.9 29.4902H36.5V30.8902H37.9V29.4902Z" fill="#000600"/>
<path d="M36.4996 29.4902H35.0996V30.8902H36.4996V29.4902Z" fill="#000600"/>
<path d="M95.4605 19.6602H94.0605V21.0602H95.4605V19.6602Z" fill="#000600"/>
<path d="M95.4605 18.25H94.0605V19.65H95.4605V18.25Z" fill="#000600"/>
<path d="M95.4605 16.8496H94.0605V18.2496H95.4605V16.8496Z" fill="#000600"/>
<path d="M95.4605 15.4492H94.0605V16.8492H95.4605V15.4492Z" fill="#000600"/>
<path d="M95.4605 14.0391H94.0605V15.4391H95.4605V14.0391Z" fill="#000600"/>
<path d="M92.6598 25.2695H91.2598V26.6695H92.6598V25.2695Z" fill="#000600"/>
<path d="M1.39999 9.83008H0V11.2301H1.39999V9.83008Z" fill="#000600"/>
<path d="M1.39999 11.2305H0V12.6305H1.39999V11.2305Z" fill="#000600"/>
<path d="M1.39999 12.6406H0V14.0406H1.39999V12.6406Z" fill="#000600"/>
<path d="M94.0602 8.42969H92.6602V9.82969H94.0602V8.42969Z" fill="#000600"/>
<path d="M94.0602 7.01953H92.6602V8.41953H94.0602V7.01953Z" fill="#000600"/>
<path d="M2.80038 8.42969H1.40039V9.82969H2.80038V8.42969Z" fill="#000600"/>
<path d="M2.80038 7.01953H1.40039V8.41953H2.80038V7.01953Z" fill="#000600"/>
<path d="M92.6617 5.61914H91.2617V7.01914H92.6617V5.61914Z" fill="#000600"/>
<path d="M91.2516 2.81055H89.8516V4.21054H91.2516V2.81055Z" fill="#000600"/>
<path d="M89.8512 2.81055H88.4512V4.21054H89.8512V2.81055Z" fill="#000600"/>
<path d="M88.441 1.41016H87.041V2.81016H88.441V1.41016Z" fill="#000600"/>
<path d="M87.0406 1.41016H85.6406V2.81016H87.0406V1.41016Z" fill="#000600"/>
<path d="M85.6402 0H84.2402V1.4H85.6402V0Z" fill="#000600"/>
<path d="M84.2301 0H82.8301V1.4H84.2301V0Z" fill="#000600"/>
<path d="M82.8316 0H81.4316V1.4H82.8316V0Z" fill="#000600"/>
<path d="M81.4215 0H80.0215V1.4H81.4215V0Z" fill="#000600"/>
<path d="M80.0211 0H78.6211V1.4H80.0211V0Z" fill="#000600"/>
<path d="M78.6207 0H77.2207V1.4H78.6207V0Z" fill="#000600"/>
<path d="M77.2105 0H75.8105V1.4H77.2105V0Z" fill="#000600"/>
<path d="M75.8102 0H74.4102V1.4H75.8102V0Z" fill="#000600"/>
<path d="M74.4 0H73V1.4H74.4V0Z" fill="#000600"/>
<path d="M73.0016 0H71.6016V1.4H73.0016V0Z" fill="#000600"/>
<path d="M71.6012 0H70.2012V1.4H71.6012V0Z" fill="#000600"/>
<path d="M70.191 0H68.791V1.4H70.191V0Z" fill="#000600"/>
<path d="M68.7906 0H67.3906V1.4H68.7906V0Z" fill="#000600"/>
<path d="M67.3805 0H65.9805V1.4H67.3805V0Z" fill="#000600"/>
<path d="M65.9801 0H64.5801V1.4H65.9801V0Z" fill="#000600"/>
<path d="M64.5816 0H63.1816V1.4H64.5816V0Z" fill="#000600"/>
<path d="M63.1715 0H61.7715V1.4H63.1715V0Z" fill="#000600"/>
<path d="M61.7711 0H60.3711V1.4H61.7711V0Z" fill="#000600"/>
<path d="M60.3609 0H58.9609V1.4H60.3609V0Z" fill="#000600"/>
<path d="M58.9605 0H57.5605V1.4H58.9605V0Z" fill="#000600"/>
<path d="M57.5602 0H56.1602V1.4H57.5602V0Z" fill="#000600"/>
<path d="M56.15 0H54.75V1.4H56.15V0Z" fill="#000600"/>
<path d="M54.7516 0H53.3516V1.4H54.7516V0Z" fill="#000600"/>
<path d="M53.3414 0H51.9414V1.4H53.3414V0Z" fill="#000600"/>
<path d="M51.941 0H50.541V1.4H51.941V0Z" fill="#000600"/>
<path d="M50.5406 0H49.1406V1.4H50.5406V0Z" fill="#000600"/>
<path d="M49.1305 0H47.7305V1.4H49.1305V0Z" fill="#000600"/>
<path d="M47.7301 0H46.3301V1.4H47.7301V0Z" fill="#000600"/>
<path d="M46.3199 0H44.9199V1.4H46.3199V0Z" fill="#000600"/>
<path d="M44.9215 0H43.5215V1.4H44.9215V0Z" fill="#000600"/>
<path d="M43.5211 0H42.1211V1.4H43.5211V0Z" fill="#000600"/>
<path d="M42.1109 0H40.7109V1.4H42.1109V0Z" fill="#000600"/>
<path d="M40.7105 0H39.3105V1.4H40.7105V0Z" fill="#000600"/>
<path d="M39.3004 0H37.9004V1.4H39.3004V0Z" fill="#000600"/>
<path d="M37.9 0H36.5V1.4H37.9V0Z" fill="#000600"/>
<path d="M36.5016 0H35.1016V1.4H36.5016V0Z" fill="#000600"/>
<path d="M92.6617 4.21094H91.2617V5.61094H92.6617V4.21094Z" fill="#000600"/>
<path d="M4.20079 5.61914H2.80078V7.01914H4.20079V5.61914Z" fill="#000600"/>
<path d="M5.61095 2.81055H4.21094V4.21054H5.61095V2.81055Z" fill="#000600"/>
<path d="M7.01132 2.81055H5.61133V4.21054H7.01132V2.81055Z" fill="#000600"/>
<path d="M8.42149 1.41016H7.02148V2.81016H8.42149V1.41016Z" fill="#000600"/>
<path d="M9.81992 1.41016H8.41992V2.81016H9.81992V1.41016Z" fill="#000600"/>
<path d="M11.2203 0H9.82031V1.4H11.2203V0Z" fill="#000600"/>
<path d="M12.6305 0H11.2305V1.4H12.6305V0Z" fill="#000600"/>
<path d="M14.0309 0H12.6309V1.4H14.0309V0Z" fill="#000600"/>
<path d="M15.441 0H14.041V1.4H15.441V0Z" fill="#000600"/>
<path d="M16.8414 0H15.4414V1.4H16.8414V0Z" fill="#000600"/>
<path d="M18.2398 0H16.8398V1.4H18.2398V0Z" fill="#000600"/>
<path d="M19.65 0H18.25V1.4H19.65V0Z" fill="#000600"/>
<path d="M21.0504 0H19.6504V1.4H21.0504V0Z" fill="#000600"/>
<path d="M22.4605 0H21.0605V1.4H22.4605V0Z" fill="#000600"/>
<path d="M23.8609 0H22.4609V1.4H23.8609V0Z" fill="#000600"/>
<path d="M25.2613 0H23.8613V1.4H25.2613V0Z" fill="#000600"/>
<path d="M26.6715 0H25.2715V1.4H26.6715V0Z" fill="#000600"/>
<path d="M28.0699 0H26.6699V1.4H28.0699V0Z" fill="#000600"/>
<path d="M29.4801 0H28.0801V1.4H29.4801V0Z" fill="#000600"/>
<path d="M30.8805 0H29.4805V1.4H30.8805V0Z" fill="#000600"/>
<path d="M32.2809 0H30.8809V1.4H32.2809V0Z" fill="#000600"/>
<path d="M33.691 0H32.291V1.4H33.691V0Z" fill="#000600"/>
<path d="M35.0914 0H33.6914V1.4H35.0914V0Z" fill="#000600"/>
<path d="M4.20079 4.21094H2.80078V5.61094H4.20079V4.21094Z" fill="#000600"/>
<path d="M2.80038 15.4492H1.40039V16.8492H2.80038V15.4492Z" fill="#000600"/>
<path d="M2.80038 16.8496H1.40039V18.2496H2.80038V16.8496Z" fill="#000600"/>
<path d="M94.0602 15.4492H92.6602V16.8492H94.0602V15.4492Z" fill="#000600"/>
<path d="M94.0602 16.8496H92.6602V18.2496H94.0602V16.8496Z" fill="#000600"/>
<path d="M4.20079 18.25H2.80078V19.65H4.20079V18.25Z" fill="#000600"/>
<path d="M5.61095 21.0605H4.21094V22.4605H5.61095V21.0605Z" fill="#000600"/>
<path d="M7.01132 21.0605H5.61133V22.4605H7.01132V21.0605Z" fill="#000600"/>
<path d="M8.42149 22.4707H7.02148V23.8707H8.42149V22.4707Z" fill="#000600"/>
<path d="M9.81992 22.4707H8.41992V23.8707H9.81992V22.4707Z" fill="#000600"/>
<path d="M11.2203 23.8691H9.82031V25.2691H11.2203V23.8691Z" fill="#000600"/>
<path d="M12.6305 23.8691H11.2305V25.2691H12.6305V23.8691Z" fill="#000600"/>
<path d="M14.0309 23.8691H12.6309V25.2691H14.0309V23.8691Z" fill="#000600"/>
<path d="M15.441 23.8691H14.041V25.2691H15.441V23.8691Z" fill="#000600"/>
<path d="M16.8414 23.8691H15.4414V25.2691H16.8414V23.8691Z" fill="#000600"/>
<path d="M18.2398 23.8691H16.8398V25.2691H18.2398V23.8691Z" fill="#000600"/>
<path d="M19.65 23.8691H18.25V25.2691H19.65V23.8691Z" fill="#000600"/>
<path d="M21.0504 23.8691H19.6504V25.2691H21.0504V23.8691Z" fill="#000600"/>
<path d="M22.4605 23.8691H21.0605V25.2691H22.4605V23.8691Z" fill="#000600"/>
<path d="M23.8609 23.8691H22.4609V25.2691H23.8609V23.8691Z" fill="#000600"/>
<path d="M25.2613 23.8691H23.8613V25.2691H25.2613V23.8691Z" fill="#000600"/>
<path d="M26.6715 23.8691H25.2715V25.2691H26.6715V23.8691Z" fill="#000600"/>
<path d="M28.0699 23.8691H26.6699V25.2691H28.0699V23.8691Z" fill="#000600"/>
<path d="M29.4801 23.8691H28.0801V25.2691H29.4801V23.8691Z" fill="#000600"/>
<path d="M30.8805 23.8691H29.4805V25.2691H30.8805V23.8691Z" fill="#000600"/>
<path d="M32.2809 23.8691H30.8809V25.2691H32.2809V23.8691Z" fill="#000600"/>
<path d="M33.691 23.8691H32.291V25.2691H33.691V23.8691Z" fill="#000600"/>
<path d="M35.0914 23.8691H33.6914V25.2691H35.0914V23.8691Z" fill="#000600"/>
<path d="M36.5016 23.8691H35.1016V25.2691H36.5016V23.8691Z" fill="#000600"/>
<path d="M37.9 23.8691H36.5V25.2691H37.9V23.8691Z" fill="#000600"/>
<path d="M39.3004 23.8691H37.9004V25.2691H39.3004V23.8691Z" fill="#000600"/>
<path d="M40.7105 23.8691H39.3105V25.2691H40.7105V23.8691Z" fill="#000600"/>
<path d="M42.1109 23.8691H40.7109V25.2691H42.1109V23.8691Z" fill="#000600"/>
<path d="M43.5211 23.8691H42.1211V25.2691H43.5211V23.8691Z" fill="#000600"/>
<path d="M44.9215 23.8691H43.5215V25.2691H44.9215V23.8691Z" fill="#000600"/>
<path d="M46.3199 23.8691H44.9199V25.2691H46.3199V23.8691Z" fill="#000600"/>
<path d="M47.7301 23.8691H46.3301V25.2691H47.7301V23.8691Z" fill="#000600"/>
<path d="M49.1305 23.8691H47.7305V25.2691H49.1305V23.8691Z" fill="#000600"/>
<path d="M50.5406 23.8691H49.1406V25.2691H50.5406V23.8691Z" fill="#000600"/>
<path d="M51.941 23.8691H50.541V25.2691H51.941V23.8691Z" fill="#000600"/>
<path d="M53.3414 23.8691H51.9414V25.2691H53.3414V23.8691Z" fill="#000600"/>
<path d="M54.7516 23.8691H53.3516V25.2691H54.7516V23.8691Z" fill="#000600"/>
<path d="M56.15 23.8691H54.75V25.2691H56.15V23.8691Z" fill="#000600"/>
<path d="M57.5602 23.8691H56.1602V25.2691H57.5602V23.8691Z" fill="#000600"/>
<path d="M58.9605 23.8691H57.5605V25.2691H58.9605V23.8691Z" fill="#000600"/>
<path d="M60.3609 23.8691H58.9609V25.2691H60.3609V23.8691Z" fill="#000600"/>
<path d="M4.20079 19.6602H2.80078V21.0602H4.20079V19.6602Z" fill="#000600"/>
<path d="M92.6617 18.25H91.2617V19.65H92.6617V18.25Z" fill="#000600"/>
<path d="M91.2516 21.0605H89.8516V22.4605H91.2516V21.0605Z" fill="#000600"/>
<path d="M89.8512 21.0605H88.4512V22.4605H89.8512V21.0605Z" fill="#000600"/>
<path d="M88.441 22.4707H87.041V23.8707H88.441V22.4707Z" fill="#000600"/>
<path d="M87.0406 22.4707H85.6406V23.8707H87.0406V22.4707Z" fill="#000600"/>
<path d="M85.6402 23.8691H84.2402V25.2691H85.6402V23.8691Z" fill="#000600"/>
<path d="M84.2301 23.8691H82.8301V25.2691H84.2301V23.8691Z" fill="#000600"/>
<path d="M82.8316 23.8691H81.4316V25.2691H82.8316V23.8691Z" fill="#000600"/>
<path d="M81.4215 23.8691H80.0215V25.2691H81.4215V23.8691Z" fill="#000600"/>
<path d="M80.0211 23.8691H78.6211V25.2691H80.0211V23.8691Z" fill="#000600"/>
<path d="M78.6207 23.8691H77.2207V25.2691H78.6207V23.8691Z" fill="#000600"/>
<path d="M77.2105 23.8691H75.8105V25.2691H77.2105V23.8691Z" fill="#000600"/>
<path d="M75.8102 23.8691H74.4102V25.2691H75.8102V23.8691Z" fill="#000600"/>
<path d="M74.4 23.8691H73V25.2691H74.4V23.8691Z" fill="#000600"/>
<path d="M73.0016 23.8691H71.6016V25.2691H73.0016V23.8691Z" fill="#000600"/>
<path d="M71.6012 23.8691H70.2012V25.2691H71.6012V23.8691Z" fill="#000600"/>
<path d="M70.191 23.8691H68.791V25.2691H70.191V23.8691Z" fill="#000600"/>
<path d="M68.7906 23.8691H67.3906V25.2691H68.7906V23.8691Z" fill="#000600"/>
<path d="M67.3805 23.8691H65.9805V25.2691H67.3805V23.8691Z" fill="#000600"/>
<path d="M65.9801 23.8691H64.5801V25.2691H65.9801V23.8691Z" fill="#000600"/>
<path d="M64.5816 23.8691H63.1816V25.2691H64.5816V23.8691Z" fill="#000600"/>
<path d="M63.1715 23.8691H61.7715V25.2691H63.1715V23.8691Z" fill="#000600"/>
<path d="M61.7711 23.8691H60.3711V25.2691H61.7711V23.8691Z" fill="#000600"/>
<path d="M92.6617 19.6602H91.2617V21.0602H92.6617V19.6602Z" fill="#000600"/>
<path d="M2.80038 21.0605H1.40039V22.4605H2.80038V21.0605Z" fill="#000600"/>
<path d="M2.80038 22.4707H1.40039V23.8707H2.80038V22.4707Z" fill="#000600"/>
<path d="M4.20079 23.8691H2.80078V25.2691H4.20079V23.8691Z" fill="#000600"/>
<path d="M5.61095 26.6797H4.21094V28.0797H5.61095V26.6797Z" fill="#000600"/>
<path d="M7.00937 26.6797H5.60938V28.0797H7.00937V26.6797Z" fill="#000600"/>
<path d="M8.41954 28.0801H7.01953V29.4801H8.41954V28.0801Z" fill="#000600"/>
<path d="M9.81992 28.0801H8.41992V29.4801H9.81992V28.0801Z" fill="#000600"/>
<path d="M11.2203 29.4902H9.82031V30.8902H11.2203V29.4902Z" fill="#000600"/>
<path d="M12.6305 29.4902H11.2305V30.8902H12.6305V29.4902Z" fill="#000600"/>
<path d="M14.0309 29.4902H12.6309V30.8902H14.0309V29.4902Z" fill="#000600"/>
<path d="M15.4391 29.4902H14.0391V30.8902H15.4391V29.4902Z" fill="#000600"/>
<path d="M16.8492 29.4902H15.4492V30.8902H16.8492V29.4902Z" fill="#000600"/>
<path d="M18.2594 29.4902H16.8594V30.8902H18.2594V29.4902Z" fill="#000600"/>
<path d="M19.6695 29.4902H18.2695V30.8902H19.6695V29.4902Z" fill="#000600"/>
<path d="M21.0699 29.4902H19.6699V30.8902H21.0699V29.4902Z" fill="#000600"/>
<path d="M22.4605 29.4902H21.0605V30.8902H22.4605V29.4902Z" fill="#000600"/>
<path d="M23.8609 29.4902H22.4609V30.8902H23.8609V29.4902Z" fill="#000600"/>
<path d="M25.2594 29.4902H23.8594V30.8902H25.2594V29.4902Z" fill="#000600"/>
<path d="M26.6695 29.4902H25.2695V30.8902H26.6695V29.4902Z" fill="#000600"/>
<path d="M28.0699 29.4902H26.6699V30.8902H28.0699V29.4902Z" fill="#000600"/>
<path d="M29.4801 29.4902H28.0801V30.8902H29.4801V29.4902Z" fill="#000600"/>
<path d="M30.8805 29.4902H29.4805V30.8902H30.8805V29.4902Z" fill="#000600"/>
<path d="M32.2809 29.4902H30.8809V30.8902H32.2809V29.4902Z" fill="#000600"/>
<path d="M33.6891 29.4902H32.2891V30.8902H33.6891V29.4902Z" fill="#000600"/>
<path d="M35.0895 29.4902H33.6895V30.8902H35.0895V29.4902Z" fill="#000600"/>
<path d="M1.39999 19.6602H0V21.0602H1.39999V19.6602Z" fill="#000600"/>
<path d="M1.39999 18.25H0V19.65H1.39999V18.25Z" fill="#000600"/>
<path d="M1.39999 16.8496H0V18.2496H1.39999V16.8496Z" fill="#000600"/>
<path d="M1.39999 15.4492H0V16.8492H1.39999V15.4492Z" fill="#000600"/>
<path d="M1.39999 14.0391H0V15.4391H1.39999V14.0391Z" fill="#000600"/>
<path d="M4.20079 25.2695H2.80078V26.6695H4.20079V25.2695Z" fill="#000600"/>
<g style="mix-blend-mode:screen" opacity="0.28">
<path d="M92.6598 7.01953H91.2598V8.41953H92.6598V7.01953Z" fill="white"/>
<path d="M92.6598 8.42969H91.2598V9.82969H92.6598V8.42969Z" fill="white"/>
<path d="M94.0602 9.83008H92.6602V11.2301H94.0602V9.83008Z" fill="white"/>
<path d="M94.0602 11.2305H92.6602V12.6305H94.0602V11.2305Z" fill="white"/>
<path d="M94.0602 12.6406H92.6602V14.0406H94.0602V12.6406Z" fill="white"/>
<path d="M94.0602 14.041H92.6602V15.441H94.0602V14.041Z" fill="white"/>
<path d="M91.2496 4.21094H89.8496V5.61094H91.2496V4.21094Z" fill="white"/>
<path d="M91.2496 5.62109H89.8496V7.0211H91.2496V5.62109Z" fill="white"/>
<path d="M89.8512 4.21094H88.4512V5.61094H89.8512V4.21094Z" fill="white"/>
<path d="M88.441 2.81055H87.041V4.21054H88.441V2.81055Z" fill="white"/>
<path d="M87.0406 2.81055H85.6406V4.21054H87.0406V2.81055Z" fill="white"/>
<path d="M85.6402 1.41016H84.2402V2.81016H85.6402V1.41016Z" fill="white"/>
<path d="M84.2301 1.41016H82.8301V2.81016H84.2301V1.41016Z" fill="white"/>
<path d="M82.8297 1.41016H81.4297V2.81016H82.8297V1.41016Z" fill="white"/>
<path d="M81.4195 1.41016H80.0195V2.81016H81.4195V1.41016Z" fill="white"/>
<path d="M80.0211 1.41016H78.6211V2.81016H80.0211V1.41016Z" fill="white"/>
<path d="M78.6207 1.41016H77.2207V2.81016H78.6207V1.41016Z" fill="white"/>
<path d="M77.2105 1.41016H75.8105V2.81016H77.2105V1.41016Z" fill="white"/>
<path d="M75.8102 1.41016H74.4102V2.81016H75.8102V1.41016Z" fill="white"/>
<path d="M74.4 1.41016H73V2.81016H74.4V1.41016Z" fill="white"/>
<path d="M72.9996 1.41016H71.5996V2.81016H72.9996V1.41016Z" fill="white"/>
<path d="M71.6012 1.41016H70.2012V2.81016H71.6012V1.41016Z" fill="white"/>
<path d="M70.191 1.41016H68.791V2.81016H70.191V1.41016Z" fill="white"/>
<path d="M68.7906 1.41016H67.3906V2.81016H68.7906V1.41016Z" fill="white"/>
<path d="M67.3805 1.41016H65.9805V2.81016H67.3805V1.41016Z" fill="white"/>
<path d="M65.9801 1.41016H64.5801V2.81016H65.9801V1.41016Z" fill="white"/>
<path d="M64.5797 1.41016H63.1797V2.81016H64.5797V1.41016Z" fill="white"/>
<path d="M63.1695 1.41016H61.7695V2.81016H63.1695V1.41016Z" fill="white"/>
<path d="M61.7711 1.41016H60.3711V2.81016H61.7711V1.41016Z" fill="white"/>
<path d="M60.3609 1.41016H58.9609V2.81016H60.3609V1.41016Z" fill="white"/>
<path d="M58.9605 1.41016H57.5605V2.81016H58.9605V1.41016Z" fill="white"/>
<path d="M57.5602 1.41016H56.1602V2.81016H57.5602V1.41016Z" fill="white"/>
<path d="M56.15 1.41016H54.75V2.81016H56.15V1.41016Z" fill="white"/>
<path d="M54.7496 1.41016H53.3496V2.81016H54.7496V1.41016Z" fill="white"/>
<path d="M53.3395 1.41016H51.9395V2.81016H53.3395V1.41016Z" fill="white"/>
<path d="M51.941 1.41016H50.541V2.81016H51.941V1.41016Z" fill="white"/>
<path d="M50.5406 1.41016H49.1406V2.81016H50.5406V1.41016Z" fill="white"/>
<path d="M49.1305 1.41016H47.7305V2.81016H49.1305V1.41016Z" fill="white"/>
<path d="M47.7301 1.41016H46.3301V2.81016H47.7301V1.41016Z" fill="white"/>
<path d="M46.3199 1.41016H44.9199V2.81016H46.3199V1.41016Z" fill="white"/>
<path d="M44.9195 1.41016H43.5195V2.81016H44.9195V1.41016Z" fill="white"/>
<path d="M43.5211 1.41016H42.1211V2.81016H43.5211V1.41016Z" fill="white"/>
<path d="M42.1109 1.41016H40.7109V2.81016H42.1109V1.41016Z" fill="white"/>
<path d="M40.7105 1.41016H39.3105V2.81016H40.7105V1.41016Z" fill="white"/>
<path d="M39.3004 1.41016H37.9004V2.81016H39.3004V1.41016Z" fill="white"/>
<path d="M37.9 1.41016H36.5V2.81016H37.9V1.41016Z" fill="white"/>
<path d="M36.4996 1.41016H35.0996V2.81016H36.4996V1.41016Z" fill="white"/>
<path d="M4.20079 7.01953H2.80078V8.41953H4.20079V7.01953Z" fill="white"/>
<path d="M5.61095 7.01953H4.21094V8.41953H5.61095V7.01953Z" fill="white"/>
<path d="M4.20079 8.42969H2.80078V9.82969H4.20079V8.42969Z" fill="white"/>
<path d="M4.20079 9.83008H2.80078V11.2301H4.20079V9.83008Z" fill="white"/>
<path d="M2.80038 9.83008H1.40039V11.2301H2.80038V9.83008Z" fill="white"/>
<path d="M2.80038 11.2305H1.40039V12.6305H2.80038V11.2305Z" fill="white"/>
<path d="M2.80038 12.6406H1.40039V14.0406H2.80038V12.6406Z" fill="white"/>
<path d="M2.80038 14.041H1.40039V15.441H2.80038V14.041Z" fill="white"/>
<path d="M5.61095 4.21094H4.21094V5.61094H5.61095V4.21094Z" fill="white"/>
<path d="M5.61095 5.62109H4.21094V7.0211H5.61095V5.62109Z" fill="white"/>
<path d="M7.01132 4.21094H5.61133V5.61094H7.01132V4.21094Z" fill="white"/>
<path d="M8.41954 4.21094H7.01953V5.61094H8.41954V4.21094Z" fill="white"/>
<path d="M8.41954 2.81055H7.01953V4.21054H8.41954V2.81055Z" fill="white"/>
<path d="M9.81992 2.81055H8.41992V4.21054H9.81992V2.81055Z" fill="white"/>
<path d="M11.2203 1.41016H9.82031V2.81016H11.2203V1.41016Z" fill="white"/>
<path d="M11.2203 2.81055H9.82031V4.21054H11.2203V2.81055Z" fill="white"/>
<path d="M12.6305 1.41016H11.2305V2.81016H12.6305V1.41016Z" fill="white"/>
<path d="M14.0309 1.41016H12.6309V2.81016H14.0309V1.41016Z" fill="white"/>
<path d="M15.441 1.41016H14.041V2.81016H15.441V1.41016Z" fill="white"/>
<path d="M16.8395 1.41016H15.4395V2.81016H16.8395V1.41016Z" fill="white"/>
<path d="M18.2398 1.41016H16.8398V2.81016H18.2398V1.41016Z" fill="white"/>
<path d="M19.65 1.41016H18.25V2.81016H19.65V1.41016Z" fill="white"/>
<path d="M21.0504 1.41016H19.6504V2.81016H21.0504V1.41016Z" fill="white"/>
<path d="M22.4605 1.41016H21.0605V2.81016H22.4605V1.41016Z" fill="white"/>
<path d="M23.8609 1.41016H22.4609V2.81016H23.8609V1.41016Z" fill="white"/>
<path d="M25.2613 1.41016H23.8613V2.81016H25.2613V1.41016Z" fill="white"/>
<path d="M26.6695 1.41016H25.2695V2.81016H26.6695V1.41016Z" fill="white"/>
<path d="M28.0699 1.41016H26.6699V2.81016H28.0699V1.41016Z" fill="white"/>
<path d="M29.4801 1.41016H28.0801V2.81016H29.4801V1.41016Z" fill="white"/>
<path d="M30.8805 1.41016H29.4805V2.81016H30.8805V1.41016Z" fill="white"/>
<path d="M32.2809 1.41016H30.8809V2.81016H32.2809V1.41016Z" fill="white"/>
<path d="M33.691 1.41016H32.291V2.81016H33.691V1.41016Z" fill="white"/>
<path d="M35.0895 1.41016H33.6895V2.81016H35.0895V1.41016Z" fill="white"/>
</g>
<path d="M4.20079 16.8496H2.80078V18.2496H4.20079V16.8496Z" fill="#F7941D"/>
<path d="M5.61095 19.6602H4.21094V21.0602H5.61095V19.6602Z" fill="#F7941D"/>
<path d="M5.61095 18.25H4.21094V19.65H5.61095V18.25Z" fill="#F7941D"/>
<path d="M7.01132 19.6602H5.61133V21.0602H7.01132V19.6602Z" fill="#F7941D"/>
<path d="M8.42149 21.0605H7.02148V22.4605H8.42149V21.0605Z" fill="#F7941D"/>
<path d="M9.81992 21.0605H8.41992V22.4605H9.81992V21.0605Z" fill="#F7941D"/>
<path d="M11.2203 22.4688H9.82031V23.8688H11.2203V22.4688Z" fill="#F7941D"/>
<path d="M12.6305 22.4688H11.2305V23.8688H12.6305V22.4688Z" fill="#F7941D"/>
<path d="M14.0309 22.4688H12.6309V23.8688H14.0309V22.4688Z" fill="#F7941D"/>
<path d="M15.441 22.4688H14.041V23.8688H15.441V22.4688Z" fill="#F7941D"/>
<path d="M16.8414 22.4688H15.4414V23.8688H16.8414V22.4688Z" fill="#F7941D"/>
<path d="M18.2398 22.4688H16.8398V23.8688H18.2398V22.4688Z" fill="#F7941D"/>
<path d="M19.65 22.4688H18.25V23.8688H19.65V22.4688Z" fill="#F7941D"/>
<path d="M21.0504 22.4688H19.6504V23.8688H21.0504V22.4688Z" fill="#F7941D"/>
<path d="M22.4605 22.4688H21.0605V23.8688H22.4605V22.4688Z" fill="#F7941D"/>
<path d="M23.8609 22.4688H22.4609V23.8688H23.8609V22.4688Z" fill="#F7941D"/>
<path d="M25.2613 22.4688H23.8613V23.8688H25.2613V22.4688Z" fill="#F7941D"/>
<path d="M26.6715 22.4688H25.2715V23.8688H26.6715V22.4688Z" fill="#F7941D"/>
<path d="M28.0699 22.4688H26.6699V23.8688H28.0699V22.4688Z" fill="#F7941D"/>
<path d="M29.4801 22.4688H28.0801V23.8688H29.4801V22.4688Z" fill="#F7941D"/>
<path d="M30.8805 22.4688H29.4805V23.8688H30.8805V22.4688Z" fill="#F7941D"/>
<path d="M32.2809 22.4688H30.8809V23.8688H32.2809V22.4688Z" fill="#F7941D"/>
<path d="M33.691 22.4688H32.291V23.8688H33.691V22.4688Z" fill="#F7941D"/>
<path d="M35.0914 22.4688H33.6914V23.8688H35.0914V22.4688Z" fill="#F7941D"/>
<path d="M36.5016 22.4688H35.1016V23.8688H36.5016V22.4688Z" fill="#F7941D"/>
<path d="M37.9 22.4688H36.5V23.8688H37.9V22.4688Z" fill="#F7941D"/>
<path d="M39.3004 22.4688H37.9004V23.8688H39.3004V22.4688Z" fill="#F7941D"/>
<path d="M40.7105 22.4688H39.3105V23.8688H40.7105V22.4688Z" fill="#F7941D"/>
<path d="M42.1109 22.4688H40.7109V23.8688H42.1109V22.4688Z" fill="#F7941D"/>
<path d="M43.5211 22.4688H42.1211V23.8688H43.5211V22.4688Z" fill="#F7941D"/>
<path d="M44.9215 22.4688H43.5215V23.8688H44.9215V22.4688Z" fill="#F7941D"/>
<path d="M46.3199 22.4688H44.9199V23.8688H46.3199V22.4688Z" fill="#F7941D"/>
<path d="M47.7301 22.4688H46.3301V23.8688H47.7301V22.4688Z" fill="#F7941D"/>
<path d="M49.1305 22.4688H47.7305V23.8688H49.1305V22.4688Z" fill="#F7941D"/>
<path d="M50.5406 22.4688H49.1406V23.8688H50.5406V22.4688Z" fill="#F7941D"/>
<path d="M51.941 22.4688H50.541V23.8688H51.941V22.4688Z" fill="#F7941D"/>
<path d="M53.3414 22.4688H51.9414V23.8688H53.3414V22.4688Z" fill="#F7941D"/>
<path d="M54.7516 22.4688H53.3516V23.8688H54.7516V22.4688Z" fill="#F7941D"/>
<path d="M56.15 22.4688H54.75V23.8688H56.15V22.4688Z" fill="#F7941D"/>
<path d="M57.5602 22.4688H56.1602V23.8688H57.5602V22.4688Z" fill="#F7941D"/>
<path d="M58.9605 22.4688H57.5605V23.8688H58.9605V22.4688Z" fill="#F7941D"/>
<path d="M60.3609 22.4688H58.9609V23.8688H60.3609V22.4688Z" fill="#F7941D"/>
<path d="M92.6617 16.8496H91.2617V18.2496H92.6617V16.8496Z" fill="#F7941D"/>
<path d="M91.2516 19.6602H89.8516V21.0602H91.2516V19.6602Z" fill="#F7941D"/>
<path d="M91.2516 18.25H89.8516V19.65H91.2516V18.25Z" fill="#F7941D"/>
<path d="M89.8512 19.6602H88.4512V21.0602H89.8512V19.6602Z" fill="#F7941D"/>
<path d="M88.441 21.0605H87.041V22.4605H88.441V21.0605Z" fill="#F7941D"/>
<path d="M87.0406 21.0605H85.6406V22.4605H87.0406V21.0605Z" fill="#F7941D"/>
<path d="M85.6402 22.4688H84.2402V23.8688H85.6402V22.4688Z" fill="#F7941D"/>
<path d="M84.2301 22.4688H82.8301V23.8688H84.2301V22.4688Z" fill="#F7941D"/>
<path d="M82.8316 22.4688H81.4316V23.8688H82.8316V22.4688Z" fill="#F7941D"/>
<path d="M81.4215 22.4688H80.0215V23.8688H81.4215V22.4688Z" fill="#F7941D"/>
<path d="M80.0211 22.4688H78.6211V23.8688H80.0211V22.4688Z" fill="#F7941D"/>
<path d="M78.6207 22.4688H77.2207V23.8688H78.6207V22.4688Z" fill="#F7941D"/>
<path d="M77.2105 22.4688H75.8105V23.8688H77.2105V22.4688Z" fill="#F7941D"/>
<path d="M75.8102 22.4688H74.4102V23.8688H75.8102V22.4688Z" fill="#F7941D"/>
<path d="M74.4 22.4688H73V23.8688H74.4V22.4688Z" fill="#F7941D"/>
<path d="M73.0016 22.4688H71.6016V23.8688H73.0016V22.4688Z" fill="#F7941D"/>
<path d="M71.6012 22.4688H70.2012V23.8688H71.6012V22.4688Z" fill="#F7941D"/>
<path d="M70.191 22.4688H68.791V23.8688H70.191V22.4688Z" fill="#F7941D"/>
<path d="M68.7906 22.4688H67.3906V23.8688H68.7906V22.4688Z" fill="#F7941D"/>
<path d="M67.3805 22.4688H65.9805V23.8688H67.3805V22.4688Z" fill="#F7941D"/>
<path d="M65.9801 22.4688H64.5801V23.8688H65.9801V22.4688Z" fill="#F7941D"/>
<path d="M64.5816 22.4688H63.1816V23.8688H64.5816V22.4688Z" fill="#F7941D"/>
<path d="M63.1715 22.4688H61.7715V23.8688H63.1715V22.4688Z" fill="#F7941D"/>
<path d="M61.7711 22.4688H60.3711V23.8688H61.7711V22.4688Z" fill="#F7941D"/>
<g style="mix-blend-mode:screen" opacity="0.28">
<path d="M92.6598 15.4492H91.2598V16.8492H92.6598V15.4492Z" fill="white"/>
<path d="M91.2496 16.8496H89.8496V18.2496H91.2496V16.8496Z" fill="white"/>
<path d="M89.8492 18.25H88.4492V19.65H89.8492V18.25Z" fill="white"/>
<path d="M88.4391 19.6602H87.0391V21.0602H88.4391V19.6602Z" fill="white"/>
<path d="M87.0387 19.6602H85.6387V21.0602H87.0387V19.6602Z" fill="white"/>
<path d="M85.6383 21.0586H84.2383V22.4586H85.6383V21.0586Z" fill="white"/>
<path d="M84.2301 21.0586H82.8301V22.4586H84.2301V21.0586Z" fill="white"/>
<path d="M82.8297 21.0586H81.4297V22.4586H82.8297V21.0586Z" fill="white"/>
<path d="M81.4195 21.0586H80.0195V22.4586H81.4195V21.0586Z" fill="white"/>
<path d="M80.0191 21.0586H78.6191V22.4586H80.0191V21.0586Z" fill="white"/>
</g>
<path d="M23.6598 17.8883V19.6683H16.5398V17.8883H14.7598V10.7683H16.5398V17.8883H23.6598V16.1083H20.0998V14.3283H18.3198V10.7683H20.0998V8.98828H25.4398V10.7683H20.0998V14.3283H25.4398V17.8883H23.6598Z" fill="black"/>
<path d="M30.7807 10.7592V17.8792H29.0007V19.6592H27.2207V17.8792H29.0007V10.7592H30.7807ZM30.7807 7.19922V8.97922H29.0007V7.19922H30.7807Z" fill="black"/>
<path d="M34.3405 16.1084V14.3284H32.5605V3.64844H34.3405V14.3284H36.1205V16.1084H34.3405Z" fill="black"/>
<path d="M39.6802 14.3178V10.7578H41.4602V14.3178H39.6802V16.0978H36.1202C35.5302 15.5078 35.5302 14.9078 36.1202 14.3178H39.6802ZM39.6802 17.8878V19.6678H37.9002V17.8878H39.6802Z" fill="black"/>
<path d="M53.9305 8.97852V10.7585H50.3705V14.3185H53.9305V16.0985H48.5905V19.6585H53.9305V21.4385H48.5905V19.6585H46.8105V16.0985H48.5905V10.7585H50.3705V8.97852H53.9305Z" fill="black"/>
<path d="M61.0607 8.97852V10.7585H62.8407V17.8785H61.0607V19.6585H55.7207V17.8785H61.0607V16.0985H57.5007V14.3185H55.7207V10.7585H57.5007V8.97852H61.0607ZM61.0607 14.3185V10.7585H57.5007V14.3185H61.0607Z" fill="black"/>
<path d="M68.1791 16.1095V17.8895H66.3991V19.6695H64.6191V17.8895H66.3991V10.7695H68.1791V14.3295H69.9591V16.1095H68.1791Z" fill="black"/>
<path d="M78.8601 14.3187V10.7587H80.6401V14.3187H78.8601V16.0987H69.9601C69.3701 15.5087 69.3701 14.9087 69.9601 14.3187H71.7401V10.7587H73.5201V14.3187H75.3001V10.7587H77.0801V14.3187H78.8601ZM75.3001 7.19868V8.97868H73.5201V7.19868H75.3001ZM77.0801 3.63867V5.41868H75.3001V3.63867H77.0801ZM78.8601 7.19868V8.97868H77.0801V7.19868H78.8601Z" fill="black"/>
</svg>
