<svg width="30" height="31" viewBox="0 0 30 31" fill="none" xmlns="http://www.w3.org/2000/svg">
<path d="M14.1007 0H13.2207V0.880005H14.1007V0Z" fill="black"/>
<path d="M14.9796 0H14.0996V0.880005H14.9796V0Z" fill="black"/>
<path d="M15.8702 0H14.9902V0.880005H15.8702V0Z" fill="black"/>
<path d="M16.7491 0H15.8691V0.880005H16.7491V0Z" fill="black"/>
<path d="M17.63 0H16.75V0.880005H17.63V0Z" fill="black"/>
<path d="M18.5109 0H17.6309V0.880005H18.5109V0Z" fill="black"/>
<path d="M19.3898 0H18.5098V0.880005H19.3898V0Z" fill="black"/>
<path d="M20.2706 0H19.3906V0.880005H20.2706V0Z" fill="black"/>
<path d="M13.2198 0.880859H12.3398V1.76086H13.2198V0.880859Z" fill="black"/>
<path d="M14.1007 0.880859H13.2207V1.76086H14.1007V0.880859Z" fill="#458867"/>
<path d="M14.9796 0.880859H14.0996V1.76086H14.9796V0.880859Z" fill="#458867"/>
<path d="M15.8702 0.880859H14.9902V1.76086H15.8702V0.880859Z" fill="#458867"/>
<path d="M16.7491 0.880859H15.8691V1.76086H16.7491V0.880859Z" fill="#458867"/>
<path d="M17.63 0.880859H16.75V1.76086H17.63V0.880859Z" fill="#458867"/>
<path d="M18.5109 0.880859H17.6309V1.76086H18.5109V0.880859Z" fill="#458867"/>
<path d="M19.3898 0.880859H18.5098V1.76086H19.3898V0.880859Z" fill="#458867"/>
<path d="M20.2706 0.880859H19.3906V1.76086H20.2706V0.880859Z" fill="#458867"/>
<path d="M21.1495 0.880859H20.2695V1.76086H21.1495V0.880859Z" fill="black"/>
<path d="M12.3409 1.75977H11.4609V2.63976H12.3409V1.75977Z" fill="black"/>
<path d="M13.2198 1.75977H12.3398V2.63976H13.2198V1.75977Z" fill="#70B859"/>
<path d="M14.1007 1.75977H13.2207V2.63976H14.1007V1.75977Z" fill="#458867"/>
<path d="M14.9796 1.75977H14.0996V2.63976H14.9796V1.75977Z" fill="#70B859"/>
<path d="M15.8702 1.75977H14.9902V2.63976H15.8702V1.75977Z" fill="#458867"/>
<path d="M16.7491 1.75977H15.8691V2.63976H16.7491V1.75977Z" fill="#70B859"/>
<path d="M17.63 1.75977H16.75V2.63976H17.63V1.75977Z" fill="#458867"/>
<path d="M18.5109 1.75977H17.6309V2.63976H18.5109V1.75977Z" fill="#70B859"/>
<path d="M19.3898 1.75977H18.5098V2.63976H19.3898V1.75977Z" fill="#458867"/>
<path d="M20.2706 1.75977H19.3906V2.63976H20.2706V1.75977Z" fill="black"/>
<path d="M21.1495 1.75977H20.2695V2.63976H21.1495V1.75977Z" fill="#458867"/>
<path d="M22.0402 1.75977H21.1602V2.63976H22.0402V1.75977Z" fill="black"/>
<path d="M11.4601 2.64062H10.5801V3.52063H11.4601V2.64062Z" fill="black"/>
<path d="M12.3409 2.64062H11.4609V3.52063H12.3409V2.64062Z" fill="#70B859"/>
<path d="M13.2198 2.64062H12.3398V3.52063H13.2198V2.64062Z" fill="#458867"/>
<path d="M14.1007 2.64062H13.2207V3.52063H14.1007V2.64062Z" fill="#70B859"/>
<path d="M14.9796 2.64062H14.0996V3.52063H14.9796V2.64062Z" fill="#70B859"/>
<path d="M15.8702 2.64062H14.9902V3.52063H15.8702V2.64062Z" fill="#70B859"/>
<path d="M16.7491 2.64062H15.8691V3.52063H16.7491V2.64062Z" fill="#70B859"/>
<path d="M17.63 2.64062H16.75V3.52063H17.63V2.64062Z" fill="#70B859"/>
<path d="M18.5109 2.64062H17.6309V3.52063H18.5109V2.64062Z" fill="#458867"/>
<path d="M19.3898 2.64062H18.5098V3.52063H19.3898V2.64062Z" fill="#70B859"/>
<path d="M20.2706 2.64062H19.3906V3.52063H20.2706V2.64062Z" fill="#458867"/>
<path d="M21.1495 2.64062H20.2695V3.52063H21.1495V2.64062Z" fill="black"/>
<path d="M22.0402 2.64062H21.1602V3.52063H22.0402V2.64062Z" fill="#458867"/>
<path d="M22.9191 2.64062H22.0391V3.52063H22.9191V2.64062Z" fill="black"/>
<path d="M10.5792 3.51953H9.69922V4.39953H10.5792V3.51953Z" fill="black"/>
<path d="M11.4601 3.51953H10.5801V4.39953H11.4601V3.51953Z" fill="#70B859"/>
<path d="M12.3409 3.51953H11.4609V4.39953H12.3409V3.51953Z" fill="#458867"/>
<path d="M13.2198 3.51953H12.3398V4.39953H13.2198V3.51953Z" fill="#70B859"/>
<path d="M14.1007 3.51953H13.2207V4.39953H14.1007V3.51953Z" fill="#A0E070"/>
<path d="M14.9796 3.51953H14.0996V4.39953H14.9796V3.51953Z" fill="#70B859"/>
<path d="M15.8702 3.51953H14.9902V4.39953H15.8702V3.51953Z" fill="#A0E070"/>
<path d="M16.7491 3.51953H15.8691V4.39953H16.7491V3.51953Z" fill="#70B859"/>
<path d="M17.63 3.51953H16.75V4.39953H17.63V3.51953Z" fill="#70B859"/>
<path d="M18.5109 3.51953H17.6309V4.39953H18.5109V3.51953Z" fill="#70B859"/>
<path d="M19.3898 3.51953H18.5098V4.39953H19.3898V3.51953Z" fill="#458867"/>
<path d="M20.2706 3.51953H19.3906V4.39953H20.2706V3.51953Z" fill="#70B859"/>
<path d="M21.1495 3.51953H20.2695V4.39953H21.1495V3.51953Z" fill="#458867"/>
<path d="M22.0402 3.51953H21.1602V4.39953H22.0402V3.51953Z" fill="black"/>
<path d="M22.9191 3.51953H22.0391V4.39953H22.9191V3.51953Z" fill="#458867"/>
<path d="M23.7999 3.51953H22.9199V4.39953H23.7999V3.51953Z" fill="black"/>
<path d="M10.5792 4.41016H9.69922V5.29015H10.5792V4.41016Z" fill="black"/>
<path d="M11.4601 4.41016H10.5801V5.29015H11.4601V4.41016Z" fill="#458867"/>
<path d="M12.3409 4.41016H11.4609V5.29015H12.3409V4.41016Z" fill="#70B859"/>
<path d="M13.2198 4.41016H12.3398V5.29015H13.2198V4.41016Z" fill="#A0E070"/>
<path d="M14.1007 4.41016H13.2207V5.29015H14.1007V4.41016Z" fill="#70B859"/>
<path d="M14.9796 4.41016H14.0996V5.29015H14.9796V4.41016Z" fill="#A0E070"/>
<path d="M15.8702 4.41016H14.9902V5.29015H15.8702V4.41016Z" fill="#70B859"/>
<path d="M16.7491 4.41016H15.8691V5.29015H16.7491V4.41016Z" fill="#A0E070"/>
<path d="M17.63 4.41016H16.75V5.29015H17.63V4.41016Z" fill="#70B859"/>
<path d="M18.5109 4.41016H17.6309V5.29015H18.5109V4.41016Z" fill="#70B859"/>
<path d="M19.3898 4.41016H18.5098V5.29015H19.3898V4.41016Z" fill="#70B859"/>
<path d="M20.2706 4.41016H19.3906V5.29015H20.2706V4.41016Z" fill="#458867"/>
<path d="M21.1495 4.41016H20.2695V5.29015H21.1495V4.41016Z" fill="#458867"/>
<path d="M22.0402 4.41016H21.1602V5.29015H22.0402V4.41016Z" fill="black"/>
<path d="M22.9191 4.41016H22.0391V5.29015H22.9191V4.41016Z" fill="#458867"/>
<path d="M23.7999 4.41016H22.9199V5.29015H23.7999V4.41016Z" fill="black"/>
<path d="M10.5792 5.28906H9.69922V6.16906H10.5792V5.28906Z" fill="black"/>
<path d="M11.4601 5.28906H10.5801V6.16906H11.4601V5.28906Z" fill="#70B859"/>
<path d="M12.3409 5.28906H11.4609V6.16906H12.3409V5.28906Z" fill="#A0E070"/>
<path d="M13.2198 5.28906H12.3398V6.16906H13.2198V5.28906Z" fill="#70B859"/>
<path d="M14.1007 5.28906H13.2207V6.16906H14.1007V5.28906Z" fill="#A0E070"/>
<path d="M14.9796 5.28906H14.0996V6.16906H14.9796V5.28906Z" fill="#A0E070"/>
<path d="M15.8702 5.28906H14.9902V6.16906H15.8702V5.28906Z" fill="#A0E070"/>
<path d="M16.7491 5.28906H15.8691V6.16906H16.7491V5.28906Z" fill="#70B859"/>
<path d="M17.63 5.28906H16.75V6.16906H17.63V5.28906Z" fill="#A0E070"/>
<path d="M18.5109 5.28906H17.6309V6.16906H18.5109V5.28906Z" fill="#70B859"/>
<path d="M19.3898 5.28906H18.5098V6.16906H19.3898V5.28906Z" fill="#70B859"/>
<path d="M20.2706 5.28906H19.3906V6.16906H20.2706V5.28906Z" fill="#70B859"/>
<path d="M21.1495 5.28906H20.2695V6.16906H21.1495V5.28906Z" fill="#458867"/>
<path d="M22.0402 5.28906H21.1602V6.16906H22.0402V5.28906Z" fill="black"/>
<path d="M22.9191 5.28906H22.0391V6.16906H22.9191V5.28906Z" fill="#458867"/>
<path d="M23.7999 5.28906H22.9199V6.16906H23.7999V5.28906Z" fill="black"/>
<path d="M10.5792 6.16992H9.69922V7.04993H10.5792V6.16992Z" fill="black"/>
<path d="M11.4601 6.16992H10.5801V7.04993H11.4601V6.16992Z" fill="#458867"/>
<path d="M12.3409 6.16992H11.4609V7.04993H12.3409V6.16992Z" fill="#70B859"/>
<path d="M13.2198 6.16992H12.3398V7.04993H13.2198V6.16992Z" fill="#A0E070"/>
<path d="M14.1007 6.16992H13.2207V7.04993H14.1007V6.16992Z" fill="#A0E070"/>
<path d="M14.9796 6.16992H14.0996V7.04993H14.9796V6.16992Z" fill="#A0E070"/>
<path d="M15.8702 6.16992H14.9902V7.04993H15.8702V6.16992Z" fill="#A0E070"/>
<path d="M16.7491 6.16992H15.8691V7.04993H16.7491V6.16992Z" fill="#A0E070"/>
<path d="M17.63 6.16992H16.75V7.04993H17.63V6.16992Z" fill="#70B859"/>
<path d="M18.5109 6.16992H17.6309V7.04993H18.5109V6.16992Z" fill="#70B859"/>
<path d="M19.3898 6.16992H18.5098V7.04993H19.3898V6.16992Z" fill="#70B859"/>
<path d="M20.2706 6.16992H19.3906V7.04993H20.2706V6.16992Z" fill="#458867"/>
<path d="M21.1495 6.16992H20.2695V7.04993H21.1495V6.16992Z" fill="#458867"/>
<path d="M22.0402 6.16992H21.1602V7.04993H22.0402V6.16992Z" fill="black"/>
<path d="M22.9191 6.16992H22.0391V7.04993H22.9191V6.16992Z" fill="#458867"/>
<path d="M23.7999 6.16992H22.9199V7.04993H23.7999V6.16992Z" fill="black"/>
<path d="M10.5792 7.05078H9.69922V7.93078H10.5792V7.05078Z" fill="black"/>
<path d="M11.4601 7.05078H10.5801V7.93078H11.4601V7.05078Z" fill="#70B859"/>
<path d="M12.3409 7.05078H11.4609V7.93078H12.3409V7.05078Z" fill="#A0E070"/>
<path d="M13.2198 7.05078H12.3398V7.93078H13.2198V7.05078Z" fill="#70B859"/>
<path d="M14.1007 7.05078H13.2207V7.93078H14.1007V7.05078Z" fill="#A0E070"/>
<path d="M14.9796 7.05078H14.0996V7.93078H14.9796V7.05078Z" fill="#A0E070"/>
<path d="M15.8702 7.05078H14.9902V7.93078H15.8702V7.05078Z" fill="#A0E070"/>
<path d="M16.7491 7.05078H15.8691V7.93078H16.7491V7.05078Z" fill="#70B859"/>
<path d="M17.63 7.05078H16.75V7.93078H17.63V7.05078Z" fill="#A0E070"/>
<path d="M18.5109 7.05078H17.6309V7.93078H18.5109V7.05078Z" fill="#70B859"/>
<path d="M19.3898 7.05078H18.5098V7.93078H19.3898V7.05078Z" fill="#70B859"/>
<path d="M20.2706 7.05078H19.3906V7.93078H20.2706V7.05078Z" fill="#70B859"/>
<path d="M21.1495 7.05078H20.2695V7.93078H21.1495V7.05078Z" fill="#458867"/>
<path d="M22.0402 7.05078H21.1602V7.93078H22.0402V7.05078Z" fill="black"/>
<path d="M22.9191 7.05078H22.0391V7.93078H22.9191V7.05078Z" fill="#458867"/>
<path d="M23.7999 7.05078H22.9199V7.93078H23.7999V7.05078Z" fill="black"/>
<path d="M10.5792 7.92969H9.69922V8.80969H10.5792V7.92969Z" fill="black"/>
<path d="M11.4601 7.92969H10.5801V8.80969H11.4601V7.92969Z" fill="#458867"/>
<path d="M12.3409 7.92969H11.4609V8.80969H12.3409V7.92969Z" fill="#70B859"/>
<path d="M13.2198 7.92969H12.3398V8.80969H13.2198V7.92969Z" fill="#A0E070"/>
<path d="M14.1007 7.92969H13.2207V8.80969H14.1007V7.92969Z" fill="#A0E070"/>
<path d="M14.9796 7.92969H14.0996V8.80969H14.9796V7.92969Z" fill="#A0E070"/>
<path d="M15.8702 7.92969H14.9902V8.80969H15.8702V7.92969Z" fill="#A0E070"/>
<path d="M16.7491 7.92969H15.8691V8.80969H16.7491V7.92969Z" fill="#A0E070"/>
<path d="M17.63 7.92969H16.75V8.80969H17.63V7.92969Z" fill="#70B859"/>
<path d="M18.5109 7.92969H17.6309V8.80969H18.5109V7.92969Z" fill="#70B859"/>
<path d="M19.3898 7.92969H18.5098V8.80969H19.3898V7.92969Z" fill="#70B859"/>
<path d="M20.2706 7.92969H19.3906V8.80969H20.2706V7.92969Z" fill="#458867"/>
<path d="M21.1495 7.92969H20.2695V8.80969H21.1495V7.92969Z" fill="#458867"/>
<path d="M22.0402 7.92969H21.1602V8.80969H22.0402V7.92969Z" fill="black"/>
<path d="M22.9191 7.92969H22.0391V8.80969H22.9191V7.92969Z" fill="#458867"/>
<path d="M23.7999 7.92969H22.9199V8.80969H23.7999V7.92969Z" fill="black"/>
<path d="M10.5792 8.81055H9.69922V9.69054H10.5792V8.81055Z" fill="black"/>
<path d="M11.4601 8.81055H10.5801V9.69054H11.4601V8.81055Z" fill="#70B859"/>
<path d="M12.3409 8.81055H11.4609V9.69054H12.3409V8.81055Z" fill="#A0E070"/>
<path d="M13.2198 8.81055H12.3398V9.69054H13.2198V8.81055Z" fill="#70B859"/>
<path d="M14.1007 8.81055H13.2207V9.69054H14.1007V8.81055Z" fill="#A0E070"/>
<path d="M14.9796 8.81055H14.0996V9.69054H14.9796V8.81055Z" fill="#A0E070"/>
<path d="M15.8702 8.81055H14.9902V9.69054H15.8702V8.81055Z" fill="#A0E070"/>
<path d="M16.7491 8.81055H15.8691V9.69054H16.7491V8.81055Z" fill="#70B859"/>
<path d="M17.63 8.81055H16.75V9.69054H17.63V8.81055Z" fill="#A0E070"/>
<path d="M18.5109 8.81055H17.6309V9.69054H18.5109V8.81055Z" fill="#70B859"/>
<path d="M19.3898 8.81055H18.5098V9.69054H19.3898V8.81055Z" fill="#70B859"/>
<path d="M20.2706 8.81055H19.3906V9.69054H20.2706V8.81055Z" fill="#70B859"/>
<path d="M21.1495 8.81055H20.2695V9.69054H21.1495V8.81055Z" fill="#458867"/>
<path d="M22.0402 8.81055H21.1602V9.69054H22.0402V8.81055Z" fill="black"/>
<path d="M22.9191 8.81055H22.0391V9.69054H22.9191V8.81055Z" fill="#458867"/>
<path d="M23.7999 8.81055H22.9199V9.69054H23.7999V8.81055Z" fill="black"/>
<path d="M10.5792 9.68945H9.69922V10.5695H10.5792V9.68945Z" fill="black"/>
<path d="M11.4601 9.68945H10.5801V10.5695H11.4601V9.68945Z" fill="#458867"/>
<path d="M12.3409 9.68945H11.4609V10.5695H12.3409V9.68945Z" fill="#70B859"/>
<path d="M13.2198 9.68945H12.3398V10.5695H13.2198V9.68945Z" fill="#A0E070"/>
<path d="M14.1007 9.68945H13.2207V10.5695H14.1007V9.68945Z" fill="#A0E070"/>
<path d="M14.9796 9.68945H14.0996V10.5695H14.9796V9.68945Z" fill="#A0E070"/>
<path d="M15.8702 9.68945H14.9902V10.5695H15.8702V9.68945Z" fill="#A0E070"/>
<path d="M16.7491 9.68945H15.8691V10.5695H16.7491V9.68945Z" fill="#A0E070"/>
<path d="M17.63 9.68945H16.75V10.5695H17.63V9.68945Z" fill="#70B859"/>
<path d="M18.5109 9.68945H17.6309V10.5695H18.5109V9.68945Z" fill="#70B859"/>
<path d="M19.3898 9.68945H18.5098V10.5695H19.3898V9.68945Z" fill="#70B859"/>
<path d="M20.2706 9.68945H19.3906V10.5695H20.2706V9.68945Z" fill="#458867"/>
<path d="M21.1495 9.68945H20.2695V10.5695H21.1495V9.68945Z" fill="#458867"/>
<path d="M22.0402 9.68945H21.1602V10.5695H22.0402V9.68945Z" fill="black"/>
<path d="M22.9191 9.68945H22.0391V10.5695H22.9191V9.68945Z" fill="#458867"/>
<path d="M23.7999 9.68945H22.9199V10.5695H23.7999V9.68945Z" fill="black"/>
<path d="M10.5792 10.5703H9.69922V11.4503H10.5792V10.5703Z" fill="black"/>
<path d="M11.4601 10.5703H10.5801V11.4503H11.4601V10.5703Z" fill="#70B859"/>
<path d="M12.3409 10.5703H11.4609V11.4503H12.3409V10.5703Z" fill="#A0E070"/>
<path d="M13.2198 10.5703H12.3398V11.4503H13.2198V10.5703Z" fill="#70B859"/>
<path d="M14.1007 10.5703H13.2207V11.4503H14.1007V10.5703Z" fill="#A0E070"/>
<path d="M14.9796 10.5703H14.0996V11.4503H14.9796V10.5703Z" fill="#A0E070"/>
<path d="M15.8702 10.5703H14.9902V11.4503H15.8702V10.5703Z" fill="#A0E070"/>
<path d="M16.7491 10.5703H15.8691V11.4503H16.7491V10.5703Z" fill="#70B859"/>
<path d="M17.63 10.5703H16.75V11.4503H17.63V10.5703Z" fill="#A0E070"/>
<path d="M18.5109 10.5703H17.6309V11.4503H18.5109V10.5703Z" fill="#70B859"/>
<path d="M19.3898 10.5703H18.5098V11.4503H19.3898V10.5703Z" fill="#70B859"/>
<path d="M20.2706 10.5703H19.3906V11.4503H20.2706V10.5703Z" fill="#70B859"/>
<path d="M21.1495 10.5703H20.2695V11.4503H21.1495V10.5703Z" fill="#458867"/>
<path d="M22.0402 10.5703H21.1602V11.4503H22.0402V10.5703Z" fill="black"/>
<path d="M22.9191 10.5703H22.0391V11.4503H22.9191V10.5703Z" fill="#458867"/>
<path d="M23.7999 10.5703H22.9199V11.4503H23.7999V10.5703Z" fill="black"/>
<path d="M10.5792 11.4609H9.69922V12.3409H10.5792V11.4609Z" fill="black"/>
<path d="M11.4601 11.4609H10.5801V12.3409H11.4601V11.4609Z" fill="#458867"/>
<path d="M12.3409 11.4609H11.4609V12.3409H12.3409V11.4609Z" fill="#70B859"/>
<path d="M13.2198 11.4609H12.3398V12.3409H13.2198V11.4609Z" fill="#A0E070"/>
<path d="M14.1007 11.4609H13.2207V12.3409H14.1007V11.4609Z" fill="#A0E070"/>
<path d="M14.9796 11.4609H14.0996V12.3409H14.9796V11.4609Z" fill="#A0E070"/>
<path d="M15.8702 11.4609H14.9902V12.3409H15.8702V11.4609Z" fill="#A0E070"/>
<path d="M16.7491 11.4609H15.8691V12.3409H16.7491V11.4609Z" fill="#A0E070"/>
<path d="M17.63 11.4609H16.75V12.3409H17.63V11.4609Z" fill="#70B859"/>
<path d="M18.5109 11.4609H17.6309V12.3409H18.5109V11.4609Z" fill="#70B859"/>
<path d="M19.3898 11.4609H18.5098V12.3409H19.3898V11.4609Z" fill="#70B859"/>
<path d="M20.2706 11.4609H19.3906V12.3409H20.2706V11.4609Z" fill="#458867"/>
<path d="M21.1495 11.4609H20.2695V12.3409H21.1495V11.4609Z" fill="#458867"/>
<path d="M22.0402 11.4609H21.1602V12.3409H22.0402V11.4609Z" fill="black"/>
<path d="M22.9191 11.4609H22.0391V12.3409H22.9191V11.4609Z" fill="#458867"/>
<path d="M23.7999 11.4609H22.9199V12.3409H23.7999V11.4609Z" fill="black"/>
<path d="M10.5792 12.3398H9.69922V13.2198H10.5792V12.3398Z" fill="black"/>
<path d="M11.4601 12.3398H10.5801V13.2198H11.4601V12.3398Z" fill="#70B859"/>
<path d="M12.3409 12.3398H11.4609V13.2198H12.3409V12.3398Z" fill="#A0E070"/>
<path d="M13.2198 12.3398H12.3398V13.2198H13.2198V12.3398Z" fill="#70B859"/>
<path d="M14.1007 12.3398H13.2207V13.2198H14.1007V12.3398Z" fill="#A0E070"/>
<path d="M14.9796 12.3398H14.0996V13.2198H14.9796V12.3398Z" fill="#A0E070"/>
<path d="M15.8702 12.3398H14.9902V13.2198H15.8702V12.3398Z" fill="#A0E070"/>
<path d="M16.7491 12.3398H15.8691V13.2198H16.7491V12.3398Z" fill="#70B859"/>
<path d="M17.63 12.3398H16.75V13.2198H17.63V12.3398Z" fill="#A0E070"/>
<path d="M18.5109 12.3398H17.6309V13.2198H18.5109V12.3398Z" fill="#70B859"/>
<path d="M19.3898 12.3398H18.5098V13.2198H19.3898V12.3398Z" fill="#70B859"/>
<path d="M20.2706 12.3398H19.3906V13.2198H20.2706V12.3398Z" fill="#70B859"/>
<path d="M21.1495 12.3398H20.2695V13.2198H21.1495V12.3398Z" fill="#458867"/>
<path d="M22.0402 12.3398H21.1602V13.2198H22.0402V12.3398Z" fill="black"/>
<path d="M22.9191 12.3398H22.0391V13.2198H22.9191V12.3398Z" fill="#458867"/>
<path d="M23.7999 12.3398H22.9199V13.2198H23.7999V12.3398Z" fill="black"/>
<path d="M10.5792 13.2207H9.69922V14.1007H10.5792V13.2207Z" fill="black"/>
<path d="M11.4601 13.2207H10.5801V14.1007H11.4601V13.2207Z" fill="#458867"/>
<path d="M12.3409 13.2207H11.4609V14.1007H12.3409V13.2207Z" fill="#70B859"/>
<path d="M13.2198 13.2207H12.3398V14.1007H13.2198V13.2207Z" fill="#A0E070"/>
<path d="M14.1007 13.2207H13.2207V14.1007H14.1007V13.2207Z" fill="#A0E070"/>
<path d="M14.9796 13.2207H14.0996V14.1007H14.9796V13.2207Z" fill="#A0E070"/>
<path d="M15.8702 13.2207H14.9902V14.1007H15.8702V13.2207Z" fill="#A0E070"/>
<path d="M16.7491 13.2207H15.8691V14.1007H16.7491V13.2207Z" fill="#A0E070"/>
<path d="M17.63 13.2207H16.75V14.1007H17.63V13.2207Z" fill="#70B859"/>
<path d="M18.5109 13.2207H17.6309V14.1007H18.5109V13.2207Z" fill="#70B859"/>
<path d="M19.3898 13.2207H18.5098V14.1007H19.3898V13.2207Z" fill="#70B859"/>
<path d="M20.2706 13.2207H19.3906V14.1007H20.2706V13.2207Z" fill="#458867"/>
<path d="M21.1495 13.2207H20.2695V14.1007H21.1495V13.2207Z" fill="#458867"/>
<path d="M22.0402 13.2207H21.1602V14.1007H22.0402V13.2207Z" fill="black"/>
<path d="M22.9191 13.2207H22.0391V14.1007H22.9191V13.2207Z" fill="#458867"/>
<path d="M23.7999 13.2207H22.9199V14.1007H23.7999V13.2207Z" fill="black"/>
<path d="M10.5792 14.0996H9.69922V14.9796H10.5792V14.0996Z" fill="black"/>
<path d="M11.4601 14.0996H10.5801V14.9796H11.4601V14.0996Z" fill="#70B859"/>
<path d="M12.3409 14.0996H11.4609V14.9796H12.3409V14.0996Z" fill="#A0E070"/>
<path d="M13.2198 14.0996H12.3398V14.9796H13.2198V14.0996Z" fill="#70B859"/>
<path d="M14.1007 14.0996H13.2207V14.9796H14.1007V14.0996Z" fill="#A0E070"/>
<path d="M14.9796 14.0996H14.0996V14.9796H14.9796V14.0996Z" fill="#A0E070"/>
<path d="M15.8702 14.0996H14.9902V14.9796H15.8702V14.0996Z" fill="#A0E070"/>
<path d="M16.7491 14.0996H15.8691V14.9796H16.7491V14.0996Z" fill="#70B859"/>
<path d="M17.63 14.0996H16.75V14.9796H17.63V14.0996Z" fill="#A0E070"/>
<path d="M18.5109 14.0996H17.6309V14.9796H18.5109V14.0996Z" fill="#70B859"/>
<path d="M19.3898 14.0996H18.5098V14.9796H19.3898V14.0996Z" fill="#70B859"/>
<path d="M20.2706 14.0996H19.3906V14.9796H20.2706V14.0996Z" fill="#70B859"/>
<path d="M21.1495 14.0996H20.2695V14.9796H21.1495V14.0996Z" fill="#458867"/>
<path d="M22.0402 14.0996H21.1602V14.9796H22.0402V14.0996Z" fill="black"/>
<path d="M22.9191 14.0996H22.0391V14.9796H22.9191V14.0996Z" fill="#458867"/>
<path d="M23.7999 14.0996H22.9199V14.9796H23.7999V14.0996Z" fill="black"/>
<path d="M10.5792 14.9805H9.69922V15.8605H10.5792V14.9805Z" fill="black"/>
<path d="M11.4601 14.9805H10.5801V15.8605H11.4601V14.9805Z" fill="#458867"/>
<path d="M12.3409 14.9805H11.4609V15.8605H12.3409V14.9805Z" fill="#70B859"/>
<path d="M13.2198 14.9805H12.3398V15.8605H13.2198V14.9805Z" fill="#A0E070"/>
<path d="M14.1007 14.9805H13.2207V15.8605H14.1007V14.9805Z" fill="#70B859"/>
<path d="M14.9796 14.9805H14.0996V15.8605H14.9796V14.9805Z" fill="#A0E070"/>
<path d="M15.8702 14.9805H14.9902V15.8605H15.8702V14.9805Z" fill="#70B859"/>
<path d="M16.7491 14.9805H15.8691V15.8605H16.7491V14.9805Z" fill="#A0E070"/>
<path d="M17.63 14.9805H16.75V15.8605H17.63V14.9805Z" fill="#70B859"/>
<path d="M18.5109 14.9805H17.6309V15.8605H18.5109V14.9805Z" fill="#70B859"/>
<path d="M19.3898 14.9805H18.5098V15.8605H19.3898V14.9805Z" fill="#70B859"/>
<path d="M20.2706 14.9805H19.3906V15.8605H20.2706V14.9805Z" fill="#458867"/>
<path d="M21.1495 14.9805H20.2695V15.8605H21.1495V14.9805Z" fill="#458867"/>
<path d="M22.0402 14.9805H21.1602V15.8605H22.0402V14.9805Z" fill="black"/>
<path d="M22.9191 14.9805H22.0391V15.8605H22.9191V14.9805Z" fill="#458867"/>
<path d="M23.7999 14.9805H22.9199V15.8605H23.7999V14.9805Z" fill="black"/>
<path d="M10.5792 15.8594H9.69922V16.7394H10.5792V15.8594Z" fill="black"/>
<path d="M11.4601 15.8594H10.5801V16.7394H11.4601V15.8594Z" fill="#70B859"/>
<path d="M12.3409 15.8594H11.4609V16.7394H12.3409V15.8594Z" fill="#458867"/>
<path d="M13.2198 15.8594H12.3398V16.7394H13.2198V15.8594Z" fill="#70B859"/>
<path d="M14.1007 15.8594H13.2207V16.7394H14.1007V15.8594Z" fill="#A0E070"/>
<path d="M14.9796 15.8594H14.0996V16.7394H14.9796V15.8594Z" fill="#70B859"/>
<path d="M15.8702 15.8594H14.9902V16.7394H15.8702V15.8594Z" fill="#A0E070"/>
<path d="M16.7491 15.8594H15.8691V16.7394H16.7491V15.8594Z" fill="#70B859"/>
<path d="M17.63 15.8594H16.75V16.7394H17.63V15.8594Z" fill="#70B859"/>
<path d="M18.5109 15.8594H17.6309V16.7394H18.5109V15.8594Z" fill="#70B859"/>
<path d="M19.3898 15.8594H18.5098V16.7394H19.3898V15.8594Z" fill="#458867"/>
<path d="M20.2706 15.8594H19.3906V16.7394H20.2706V15.8594Z" fill="#70B859"/>
<path d="M21.1495 15.8594H20.2695V16.7394H21.1495V15.8594Z" fill="#458867"/>
<path d="M22.0402 15.8594H21.1602V16.7394H22.0402V15.8594Z" fill="black"/>
<path d="M22.9191 15.8594H22.0391V16.7394H22.9191V15.8594Z" fill="#458867"/>
<path d="M23.7999 15.8594H22.9199V16.7394H23.7999V15.8594Z" fill="black"/>
<path d="M10.5792 16.7402H9.69922V17.6202H10.5792V16.7402Z" fill="black"/>
<path d="M11.4601 16.7402H10.5801V17.6202H11.4601V16.7402Z" fill="#458867"/>
<path d="M12.3409 16.7402H11.4609V17.6202H12.3409V16.7402Z" fill="#70B859"/>
<path d="M13.2198 16.7402H12.3398V17.6202H13.2198V16.7402Z" fill="#458867"/>
<path d="M14.1007 16.7402H13.2207V17.6202H14.1007V16.7402Z" fill="#70B859"/>
<path d="M14.9796 16.7402H14.0996V17.6202H14.9796V16.7402Z" fill="#70B859"/>
<path d="M15.8702 16.7402H14.9902V17.6202H15.8702V16.7402Z" fill="#70B859"/>
<path d="M16.7491 16.7402H15.8691V17.6202H16.7491V16.7402Z" fill="#70B859"/>
<path d="M17.63 16.7402H16.75V17.6202H17.63V16.7402Z" fill="#70B859"/>
<path d="M18.5109 16.7402H17.6309V17.6202H18.5109V16.7402Z" fill="#458867"/>
<path d="M19.3898 16.7402H18.5098V17.6202H19.3898V16.7402Z" fill="#70B859"/>
<path d="M20.2706 16.7402H19.3906V17.6202H20.2706V16.7402Z" fill="#458867"/>
<path d="M21.1495 16.7402H20.2695V17.6202H21.1495V16.7402Z" fill="#458867"/>
<path d="M22.0402 16.7402H21.1602V17.6202H22.0402V16.7402Z" fill="black"/>
<path d="M22.9191 16.7402H22.0391V17.6202H22.9191V16.7402Z" fill="#458867"/>
<path d="M23.7999 16.7402H22.9199V17.6202H23.7999V16.7402Z" fill="black"/>
<path d="M11.4601 17.6191H10.5801V18.4991H11.4601V17.6191Z" fill="black"/>
<path d="M12.3409 17.6191H11.4609V18.4991H12.3409V17.6191Z" fill="#458867"/>
<path d="M13.2198 17.6191H12.3398V18.4991H13.2198V17.6191Z" fill="#70B859"/>
<path d="M14.1007 17.6191H13.2207V18.4991H14.1007V17.6191Z" fill="#458867"/>
<path d="M14.9796 17.6191H14.0996V18.4991H14.9796V17.6191Z" fill="#70B859"/>
<path d="M15.8702 17.6191H14.9902V18.4991H15.8702V17.6191Z" fill="#458867"/>
<path d="M16.7491 17.6191H15.8691V18.4991H16.7491V17.6191Z" fill="#70B859"/>
<path d="M17.63 17.6191H16.75V18.4991H17.63V17.6191Z" fill="#458867"/>
<path d="M18.5109 17.6191H17.6309V18.4991H18.5109V17.6191Z" fill="#70B859"/>
<path d="M19.3898 17.6191H18.5098V18.4991H19.3898V17.6191Z" fill="#458867"/>
<path d="M20.2706 17.6191H19.3906V18.4991H20.2706V17.6191Z" fill="#458867"/>
<path d="M21.1495 17.6191H20.2695V18.4991H21.1495V17.6191Z" fill="black"/>
<path d="M22.0402 17.6191H21.1602V18.4991H22.0402V17.6191Z" fill="#458867"/>
<path d="M22.9191 17.6191H22.0391V18.4991H22.9191V17.6191Z" fill="black"/>
<path d="M12.3409 18.5098H11.4609V19.3898H12.3409V18.5098Z" fill="black"/>
<path d="M13.2198 18.5098H12.3398V19.3898H13.2198V18.5098Z" fill="#458867"/>
<path d="M14.1007 18.5098H13.2207V19.3898H14.1007V18.5098Z" fill="#458867"/>
<path d="M14.9796 18.5098H14.0996V19.3898H14.9796V18.5098Z" fill="black"/>
<path d="M15.8702 18.5098H14.9902V19.3898H15.8702V18.5098Z" fill="#458867"/>
<path d="M16.7491 18.5098H15.8691V19.3898H16.7491V18.5098Z" fill="black"/>
<path d="M17.63 18.5098H16.75V19.3898H17.63V18.5098Z" fill="#458867"/>
<path d="M18.5109 18.5098H17.6309V19.3898H18.5109V18.5098Z" fill="black"/>
<path d="M19.3898 18.5098H18.5098V19.3898H19.3898V18.5098Z" fill="#458867"/>
<path d="M20.2706 18.5098H19.3906V19.3898H20.2706V18.5098Z" fill="black"/>
<path d="M21.1495 18.5098H20.2695V19.3898H21.1495V18.5098Z" fill="#458867"/>
<path d="M22.0402 18.5098H21.1602V19.3898H22.0402V18.5098Z" fill="black"/>
<path d="M13.2198 19.3906H12.3398V20.2706H13.2198V19.3906Z" fill="black"/>
<path d="M14.1007 19.3906H13.2207V20.2706H14.1007V19.3906Z" fill="#458867"/>
<path d="M14.9796 19.3906H14.0996V20.2706H14.9796V19.3906Z" fill="#458867"/>
<path d="M15.8702 19.3906H14.9902V20.2706H15.8702V19.3906Z" fill="black"/>
<path d="M16.7491 19.3906H15.8691V20.2706H16.7491V19.3906Z" fill="#458867"/>
<path d="M17.63 19.3906H16.75V20.2706H17.63V19.3906Z" fill="black"/>
<path d="M18.5109 19.3906H17.6309V20.2706H18.5109V19.3906Z" fill="#458867"/>
<path d="M19.3898 19.3906H18.5098V20.2706H19.3898V19.3906Z" fill="black"/>
<path d="M20.2706 19.3906H19.3906V20.2706H20.2706V19.3906Z" fill="#458867"/>
<path d="M21.1495 19.3906H20.2695V20.2706H21.1495V19.3906Z" fill="black"/>
<path d="M14.1007 20.2695H13.2207V21.1495H14.1007V20.2695Z" fill="black"/>
<path d="M14.9796 20.2695H14.0996V21.1495H14.9796V20.2695Z" fill="#612B39"/>
<path d="M15.8702 20.2695H14.9902V21.1495H15.8702V20.2695Z" fill="#612B39"/>
<path d="M16.7491 20.2695H15.8691V21.1495H16.7491V20.2695Z" fill="#612B39"/>
<path d="M17.63 20.2695H16.75V21.1495H17.63V20.2695Z" fill="#612B39"/>
<path d="M18.5109 20.2695H17.6309V21.1495H18.5109V20.2695Z" fill="#612B39"/>
<path d="M19.3898 20.2695H18.5098V21.1495H19.3898V20.2695Z" fill="#612B39"/>
<path d="M20.2706 20.2695H19.3906V21.1495H20.2706V20.2695Z" fill="black"/>
<path d="M14.9796 21.1504H14.0996V22.0304H14.9796V21.1504Z" fill="#612B39"/>
<path d="M15.8702 21.1504H14.9902V22.0304H15.8702V21.1504Z" fill="#904447"/>
<path d="M16.7491 21.1504H15.8691V22.0304H16.7491V21.1504Z" fill="#904447"/>
<path d="M17.63 21.1504H16.75V22.0304H17.63V21.1504Z" fill="#612B39"/>
<path d="M18.5109 21.1504H17.6309V22.0304H18.5109V21.1504Z" fill="#612B39"/>
<path d="M19.3898 21.1504H18.5098V22.0304H19.3898V21.1504Z" fill="#612B39"/>
<path d="M14.9796 22.0293H14.0996V22.9093H14.9796V22.0293Z" fill="#612B39"/>
<path d="M15.8702 22.0293H14.9902V22.9093H15.8702V22.0293Z" fill="#904447"/>
<path d="M16.7491 22.0293H15.8691V22.9093H16.7491V22.0293Z" fill="#904447"/>
<path d="M17.63 22.0293H16.75V22.9093H17.63V22.0293Z" fill="#612B39"/>
<path d="M18.5109 22.0293H17.6309V22.9093H18.5109V22.0293Z" fill="#612B39"/>
<path d="M19.3898 22.0293H18.5098V22.9093H19.3898V22.0293Z" fill="#612B39"/>
<path d="M4.4093 22.9102H3.5293V23.7902H4.4093V22.9102Z" fill="black"/>
<path d="M5.29016 22.9102H4.41016V23.7902H5.29016V22.9102Z" fill="black"/>
<path d="M6.16906 22.9102H5.28906V23.7902H6.16906V22.9102Z" fill="black"/>
<path d="M7.04992 22.9102H6.16992V23.7902H7.04992V22.9102Z" fill="black"/>
<path d="M7.93078 22.9102H7.05078V23.7902H7.93078V22.9102Z" fill="black"/>
<path d="M8.81945 22.9102H7.93945V23.7902H8.81945V22.9102Z" fill="black"/>
<path d="M9.70031 22.9102H8.82031V23.7902H9.70031V22.9102Z" fill="black"/>
<path d="M10.5792 22.9102H9.69922V23.7902H10.5792V22.9102Z" fill="black"/>
<path d="M14.9796 22.9102H14.0996V23.7902H14.9796V22.9102Z" fill="#612B39"/>
<path d="M15.8702 22.9102H14.9902V23.7902H15.8702V22.9102Z" fill="#904447"/>
<path d="M16.7491 22.9102H15.8691V23.7902H16.7491V22.9102Z" fill="#904447"/>
<path d="M17.63 22.9102H16.75V23.7902H17.63V22.9102Z" fill="#612B39"/>
<path d="M18.5109 22.9102H17.6309V23.7902H18.5109V22.9102Z" fill="#612B39"/>
<path d="M19.3898 22.9102H18.5098V23.7902H19.3898V22.9102Z" fill="#612B39"/>
<path d="M3.53039 23.7891H2.65039V24.6691H3.53039V23.7891Z" fill="black"/>
<path d="M4.4093 23.7891H3.5293V24.6691H4.4093V23.7891Z" fill="#458867"/>
<path d="M5.29016 23.7891H4.41016V24.6691H5.29016V23.7891Z" fill="#458867"/>
<path d="M6.16906 23.7891H5.28906V24.6691H6.16906V23.7891Z" fill="#458867"/>
<path d="M7.04992 23.7891H6.16992V24.6691H7.04992V23.7891Z" fill="#458867"/>
<path d="M7.93078 23.7891H7.05078V24.6691H7.93078V23.7891Z" fill="#458867"/>
<path d="M8.81945 23.7891H7.93945V24.6691H8.81945V23.7891Z" fill="#458867"/>
<path d="M9.70031 23.7891H8.82031V24.6691H9.70031V23.7891Z" fill="#458867"/>
<path d="M10.5792 23.7891H9.69922V24.6691H10.5792V23.7891Z" fill="#458867"/>
<path d="M11.4601 23.7891H10.5801V24.6691H11.4601V23.7891Z" fill="black"/>
<path d="M14.9796 23.7891H14.0996V24.6691H14.9796V23.7891Z" fill="#612B39"/>
<path d="M15.8702 23.7891H14.9902V24.6691H15.8702V23.7891Z" fill="#904447"/>
<path d="M16.7491 23.7891H15.8691V24.6691H16.7491V23.7891Z" fill="#904447"/>
<path d="M17.63 23.7891H16.75V24.6691H17.63V23.7891Z" fill="#612B39"/>
<path d="M18.5109 23.7891H17.6309V24.6691H18.5109V23.7891Z" fill="#612B39"/>
<path d="M19.3898 23.7891H18.5098V24.6691H19.3898V23.7891Z" fill="#612B39"/>
<path d="M2.64953 24.6797H1.76953V25.5597H2.64953V24.6797Z" fill="black"/>
<path d="M3.53039 24.6797H2.65039V25.5597H3.53039V24.6797Z" fill="#70B859"/>
<path d="M4.4093 24.6797H3.5293V25.5597H4.4093V24.6797Z" fill="#458867"/>
<path d="M5.29016 24.6797H4.41016V25.5597H5.29016V24.6797Z" fill="#70B859"/>
<path d="M6.16906 24.6797H5.28906V25.5597H6.16906V24.6797Z" fill="#458867"/>
<path d="M7.04992 24.6797H6.16992V25.5597H7.04992V24.6797Z" fill="#70B859"/>
<path d="M7.93078 24.6797H7.05078V25.5597H7.93078V24.6797Z" fill="#458867"/>
<path d="M8.81945 24.6797H7.93945V25.5597H8.81945V24.6797Z" fill="#70B859"/>
<path d="M9.70031 24.6797H8.82031V25.5597H9.70031V24.6797Z" fill="#458867"/>
<path d="M10.5792 24.6797H9.69922V25.5597H10.5792V24.6797Z" fill="black"/>
<path d="M11.4601 24.6797H10.5801V25.5597H11.4601V24.6797Z" fill="#458867"/>
<path d="M12.3409 24.6797H11.4609V25.5597H12.3409V24.6797Z" fill="black"/>
<path d="M14.9796 24.6797H14.0996V25.5597H14.9796V24.6797Z" fill="#612B39"/>
<path d="M15.8702 24.6797H14.9902V25.5597H15.8702V24.6797Z" fill="#904447"/>
<path d="M16.7491 24.6797H15.8691V25.5597H16.7491V24.6797Z" fill="#904447"/>
<path d="M17.63 24.6797H16.75V25.5597H17.63V24.6797Z" fill="#612B39"/>
<path d="M18.5109 24.6797H17.6309V25.5597H18.5109V24.6797Z" fill="#612B39"/>
<path d="M19.3898 24.6797H18.5098V25.5597H19.3898V24.6797Z" fill="#612B39"/>
<path d="M22.9191 24.6797H22.0391V25.5597H22.9191V24.6797Z" fill="black"/>
<path d="M23.7999 24.6797H22.9199V25.5597H23.7999V24.6797Z" fill="black"/>
<path d="M24.6808 24.6797H23.8008V25.5597H24.6808V24.6797Z" fill="black"/>
<path d="M25.5597 24.6797H24.6797V25.5597H25.5597V24.6797Z" fill="black"/>
<path d="M26.4405 24.6797H25.5605V25.5597H26.4405V24.6797Z" fill="black"/>
<path d="M27.3195 24.6797H26.4395V25.5597H27.3195V24.6797Z" fill="black"/>
<path d="M1.77063 25.5605H0.890625V26.4405H1.77063V25.5605Z" fill="black"/>
<path d="M2.64953 25.5605H1.76953V26.4405H2.64953V25.5605Z" fill="#70B859"/>
<path d="M3.53039 25.5605H2.65039V26.4405H3.53039V25.5605Z" fill="#458867"/>
<path d="M4.4093 25.5605H3.5293V26.4405H4.4093V25.5605Z" fill="#70B859"/>
<path d="M5.29016 25.5605H4.41016V26.4405H5.29016V25.5605Z" fill="#70B859"/>
<path d="M6.16906 25.5605H5.28906V26.4405H6.16906V25.5605Z" fill="#70B859"/>
<path d="M7.04992 25.5605H6.16992V26.4405H7.04992V25.5605Z" fill="#70B859"/>
<path d="M7.93078 25.5605H7.05078V26.4405H7.93078V25.5605Z" fill="#70B859"/>
<path d="M8.81945 25.5605H7.93945V26.4405H8.81945V25.5605Z" fill="#458867"/>
<path d="M9.70031 25.5605H8.82031V26.4405H9.70031V25.5605Z" fill="#70B859"/>
<path d="M10.5792 25.5605H9.69922V26.4405H10.5792V25.5605Z" fill="#458867"/>
<path d="M11.4601 25.5605H10.5801V26.4405H11.4601V25.5605Z" fill="black"/>
<path d="M12.3409 25.5605H11.4609V26.4405H12.3409V25.5605Z" fill="#458867"/>
<path d="M13.2198 25.5605H12.3398V26.4405H13.2198V25.5605Z" fill="black"/>
<path d="M14.9796 25.5605H14.0996V26.4405H14.9796V25.5605Z" fill="#612B39"/>
<path d="M15.8702 25.5605H14.9902V26.4405H15.8702V25.5605Z" fill="#904447"/>
<path d="M16.7491 25.5605H15.8691V26.4405H16.7491V25.5605Z" fill="#904447"/>
<path d="M17.63 25.5605H16.75V26.4405H17.63V25.5605Z" fill="#612B39"/>
<path d="M18.5109 25.5605H17.6309V26.4405H18.5109V25.5605Z" fill="#612B39"/>
<path d="M19.3898 25.5605H18.5098V26.4405H19.3898V25.5605Z" fill="#612B39"/>
<path d="M22.0402 25.5605H21.1602V26.4405H22.0402V25.5605Z" fill="black"/>
<path d="M22.9191 25.5605H22.0391V26.4405H22.9191V25.5605Z" fill="#458867"/>
<path d="M23.7999 25.5605H22.9199V26.4405H23.7999V25.5605Z" fill="#458867"/>
<path d="M24.6808 25.5605H23.8008V26.4405H24.6808V25.5605Z" fill="#458867"/>
<path d="M25.5597 25.5605H24.6797V26.4405H25.5597V25.5605Z" fill="#458867"/>
<path d="M26.4405 25.5605H25.5605V26.4405H26.4405V25.5605Z" fill="#458867"/>
<path d="M27.3195 25.5605H26.4395V26.4405H27.3195V25.5605Z" fill="#458867"/>
<path d="M28.2003 25.5605H27.3203V26.4405H28.2003V25.5605Z" fill="black"/>
<path d="M0.879999 26.4395H0V27.3195H0.879999V26.4395Z" fill="black"/>
<path d="M1.77063 26.4395H0.890625V27.3195H1.77063V26.4395Z" fill="#70B859"/>
<path d="M2.64953 26.4395H1.76953V27.3195H2.64953V26.4395Z" fill="#458867"/>
<path d="M3.53039 26.4395H2.65039V27.3195H3.53039V26.4395Z" fill="#70B859"/>
<path d="M4.4093 26.4395H3.5293V27.3195H4.4093V26.4395Z" fill="#A0E070"/>
<path d="M5.29016 26.4395H4.41016V27.3195H5.29016V26.4395Z" fill="#70B859"/>
<path d="M6.16906 26.4395H5.28906V27.3195H6.16906V26.4395Z" fill="#A0E070"/>
<path d="M7.04992 26.4395H6.16992V27.3195H7.04992V26.4395Z" fill="#70B859"/>
<path d="M7.93078 26.4395H7.05078V27.3195H7.93078V26.4395Z" fill="#70B859"/>
<path d="M8.81945 26.4395H7.93945V27.3195H8.81945V26.4395Z" fill="#70B859"/>
<path d="M9.70031 26.4395H8.82031V27.3195H9.70031V26.4395Z" fill="#458867"/>
<path d="M10.5792 26.4395H9.69922V27.3195H10.5792V26.4395Z" fill="#70B859"/>
<path d="M11.4601 26.4395H10.5801V27.3195H11.4601V26.4395Z" fill="#458867"/>
<path d="M12.3409 26.4395H11.4609V27.3195H12.3409V26.4395Z" fill="black"/>
<path d="M13.2198 26.4395H12.3398V27.3195H13.2198V26.4395Z" fill="#458867"/>
<path d="M14.1007 26.4395H13.2207V27.3195H14.1007V26.4395Z" fill="black"/>
<path d="M14.9796 26.4395H14.0996V27.3195H14.9796V26.4395Z" fill="#612B39"/>
<path d="M15.8702 26.4395H14.9902V27.3195H15.8702V26.4395Z" fill="#904447"/>
<path d="M16.7491 26.4395H15.8691V27.3195H16.7491V26.4395Z" fill="#904447"/>
<path d="M17.63 26.4395H16.75V27.3195H17.63V26.4395Z" fill="#612B39"/>
<path d="M18.5109 26.4395H17.6309V27.3195H18.5109V26.4395Z" fill="#612B39"/>
<path d="M19.3898 26.4395H18.5098V27.3195H19.3898V26.4395Z" fill="#612B39"/>
<path d="M21.1495 26.4395H20.2695V27.3195H21.1495V26.4395Z" fill="black"/>
<path d="M22.0402 26.4395H21.1602V27.3195H22.0402V26.4395Z" fill="#458867"/>
<path d="M22.9191 26.4395H22.0391V27.3195H22.9191V26.4395Z" fill="#70B859"/>
<path d="M23.7999 26.4395H22.9199V27.3195H23.7999V26.4395Z" fill="#458867"/>
<path d="M24.6808 26.4395H23.8008V27.3195H24.6808V26.4395Z" fill="#70B859"/>
<path d="M25.5597 26.4395H24.6797V27.3195H25.5597V26.4395Z" fill="#458867"/>
<path d="M26.4405 26.4395H25.5605V27.3195H26.4405V26.4395Z" fill="#458867"/>
<path d="M27.3195 26.4395H26.4395V27.3195H27.3195V26.4395Z" fill="black"/>
<path d="M28.2003 26.4395H27.3203V27.3195H28.2003V26.4395Z" fill="#458867"/>
<path d="M29.0909 26.4395H28.2109V27.3195H29.0909V26.4395Z" fill="black"/>
<path d="M0.879999 27.3203H0V28.2003H0.879999V27.3203Z" fill="black"/>
<path d="M1.77063 27.3203H0.890625V28.2003H1.77063V27.3203Z" fill="#458867"/>
<path d="M2.64953 27.3203H1.76953V28.2003H2.64953V27.3203Z" fill="#70B859"/>
<path d="M3.53039 27.3203H2.65039V28.2003H3.53039V27.3203Z" fill="#A0E070"/>
<path d="M4.4093 27.3203H3.5293V28.2003H4.4093V27.3203Z" fill="#70B859"/>
<path d="M5.29016 27.3203H4.41016V28.2003H5.29016V27.3203Z" fill="#A0E070"/>
<path d="M6.16906 27.3203H5.28906V28.2003H6.16906V27.3203Z" fill="#70B859"/>
<path d="M7.04992 27.3203H6.16992V28.2003H7.04992V27.3203Z" fill="#A0E070"/>
<path d="M7.93078 27.3203H7.05078V28.2003H7.93078V27.3203Z" fill="#70B859"/>
<path d="M8.81945 27.3203H7.93945V28.2003H8.81945V27.3203Z" fill="#70B859"/>
<path d="M9.70031 27.3203H8.82031V28.2003H9.70031V27.3203Z" fill="#70B859"/>
<path d="M10.5792 27.3203H9.69922V28.2003H10.5792V27.3203Z" fill="#458867"/>
<path d="M11.4601 27.3203H10.5801V28.2003H11.4601V27.3203Z" fill="#458867"/>
<path d="M12.3409 27.3203H11.4609V28.2003H12.3409V27.3203Z" fill="black"/>
<path d="M13.2198 27.3203H12.3398V28.2003H13.2198V27.3203Z" fill="#458867"/>
<path d="M14.1007 27.3203H13.2207V28.2003H14.1007V27.3203Z" fill="black"/>
<path d="M14.9796 27.3203H14.0996V28.2003H14.9796V27.3203Z" fill="#612B39"/>
<path d="M15.8702 27.3203H14.9902V28.2003H15.8702V27.3203Z" fill="#904447"/>
<path d="M16.7491 27.3203H15.8691V28.2003H16.7491V27.3203Z" fill="#904447"/>
<path d="M17.63 27.3203H16.75V28.2003H17.63V27.3203Z" fill="#612B39"/>
<path d="M18.5109 27.3203H17.6309V28.2003H18.5109V27.3203Z" fill="#612B39"/>
<path d="M19.3898 27.3203H18.5098V28.2003H19.3898V27.3203Z" fill="#612B39"/>
<path d="M20.2706 27.3203H19.3906V28.2003H20.2706V27.3203Z" fill="black"/>
<path d="M21.1495 27.3203H20.2695V28.2003H21.1495V27.3203Z" fill="#458867"/>
<path d="M22.0402 27.3203H21.1602V28.2003H22.0402V27.3203Z" fill="#70B859"/>
<path d="M22.9191 27.3203H22.0391V28.2003H22.9191V27.3203Z" fill="#458867"/>
<path d="M23.7999 27.3203H22.9199V28.2003H23.7999V27.3203Z" fill="#70B859"/>
<path d="M24.6808 27.3203H23.8008V28.2003H24.6808V27.3203Z" fill="#70B859"/>
<path d="M25.5597 27.3203H24.6797V28.2003H25.5597V27.3203Z" fill="#70B859"/>
<path d="M26.4405 27.3203H25.5605V28.2003H26.4405V27.3203Z" fill="#458867"/>
<path d="M27.3195 27.3203H26.4395V28.2003H27.3195V27.3203Z" fill="#458867"/>
<path d="M28.2003 27.3203H27.3203V28.2003H28.2003V27.3203Z" fill="black"/>
<path d="M29.0909 27.3203H28.2109V28.2003H29.0909V27.3203Z" fill="#458867"/>
<path d="M29.9698 27.3203H29.0898V28.2003H29.9698V27.3203Z" fill="black"/>
<path d="M0.879999 28.1992H0V29.0792H0.879999V28.1992Z" fill="black"/>
<path d="M1.77063 28.1992H0.890625V29.0792H1.77063V28.1992Z" fill="#70B859"/>
<path d="M2.64953 28.1992H1.76953V29.0792H2.64953V28.1992Z" fill="#A0E070"/>
<path d="M3.53039 28.1992H2.65039V29.0792H3.53039V28.1992Z" fill="#70B859"/>
<path d="M4.4093 28.1992H3.5293V29.0792H4.4093V28.1992Z" fill="#A0E070"/>
<path d="M5.29016 28.1992H4.41016V29.0792H5.29016V28.1992Z" fill="#A0E070"/>
<path d="M6.16906 28.1992H5.28906V29.0792H6.16906V28.1992Z" fill="#A0E070"/>
<path d="M7.04992 28.1992H6.16992V29.0792H7.04992V28.1992Z" fill="#70B859"/>
<path d="M7.93078 28.1992H7.05078V29.0792H7.93078V28.1992Z" fill="#A0E070"/>
<path d="M8.81945 28.1992H7.93945V29.0792H8.81945V28.1992Z" fill="#70B859"/>
<path d="M9.70031 28.1992H8.82031V29.0792H9.70031V28.1992Z" fill="#70B859"/>
<path d="M10.5792 28.1992H9.69922V29.0792H10.5792V28.1992Z" fill="#70B859"/>
<path d="M11.4601 28.1992H10.5801V29.0792H11.4601V28.1992Z" fill="#458867"/>
<path d="M12.3409 28.1992H11.4609V29.0792H12.3409V28.1992Z" fill="black"/>
<path d="M13.2198 28.1992H12.3398V29.0792H13.2198V28.1992Z" fill="#458867"/>
<path d="M14.1007 28.1992H13.2207V29.0792H14.1007V28.1992Z" fill="black"/>
<path d="M14.9796 28.1992H14.0996V29.0792H14.9796V28.1992Z" fill="#612B39"/>
<path d="M15.8702 28.1992H14.9902V29.0792H15.8702V28.1992Z" fill="#904447"/>
<path d="M16.7491 28.1992H15.8691V29.0792H16.7491V28.1992Z" fill="#904447"/>
<path d="M17.63 28.1992H16.75V29.0792H17.63V28.1992Z" fill="#612B39"/>
<path d="M18.5109 28.1992H17.6309V29.0792H18.5109V28.1992Z" fill="#612B39"/>
<path d="M19.3898 28.1992H18.5098V29.0792H19.3898V28.1992Z" fill="#612B39"/>
<path d="M20.2706 28.1992H19.3906V29.0792H20.2706V28.1992Z" fill="black"/>
<path d="M21.1495 28.1992H20.2695V29.0792H21.1495V28.1992Z" fill="#70B859"/>
<path d="M22.0402 28.1992H21.1602V29.0792H22.0402V28.1992Z" fill="#458867"/>
<path d="M22.9191 28.1992H22.0391V29.0792H22.9191V28.1992Z" fill="#70B859"/>
<path d="M23.7999 28.1992H22.9199V29.0792H23.7999V28.1992Z" fill="#A0E070"/>
<path d="M24.6808 28.1992H23.8008V29.0792H24.6808V28.1992Z" fill="#70B859"/>
<path d="M25.5597 28.1992H24.6797V29.0792H25.5597V28.1992Z" fill="#458867"/>
<path d="M26.4405 28.1992H25.5605V29.0792H26.4405V28.1992Z" fill="#70B859"/>
<path d="M27.3195 28.1992H26.4395V29.0792H27.3195V28.1992Z" fill="#458867"/>
<path d="M28.2003 28.1992H27.3203V29.0792H28.2003V28.1992Z" fill="black"/>
<path d="M29.0909 28.1992H28.2109V29.0792H29.0909V28.1992Z" fill="#458867"/>
<path d="M29.9698 28.1992H29.0898V29.0792H29.9698V28.1992Z" fill="black"/>
<path d="M0.879999 29.0801H0V29.9601H0.879999V29.0801Z" fill="black"/>
<path d="M1.77063 29.0801H0.890625V29.9601H1.77063V29.0801Z" fill="#458867"/>
<path d="M2.64953 29.0801H1.76953V29.9601H2.64953V29.0801Z" fill="#70B859"/>
<path d="M3.53039 29.0801H2.65039V29.9601H3.53039V29.0801Z" fill="#A0E070"/>
<path d="M4.4093 29.0801H3.5293V29.9601H4.4093V29.0801Z" fill="#A0E070"/>
<path d="M5.29016 29.0801H4.41016V29.9601H5.29016V29.0801Z" fill="#A0E070"/>
<path d="M6.16906 29.0801H5.28906V29.9601H6.16906V29.0801Z" fill="#A0E070"/>
<path d="M7.04992 29.0801H6.16992V29.9601H7.04992V29.0801Z" fill="#A0E070"/>
<path d="M7.93078 29.0801H7.05078V29.9601H7.93078V29.0801Z" fill="#70B859"/>
<path d="M8.81945 29.0801H7.93945V29.9601H8.81945V29.0801Z" fill="#70B859"/>
<path d="M9.70031 29.0801H8.82031V29.9601H9.70031V29.0801Z" fill="#70B859"/>
<path d="M10.5792 29.0801H9.69922V29.9601H10.5792V29.0801Z" fill="#458867"/>
<path d="M11.4601 29.0801H10.5801V29.9601H11.4601V29.0801Z" fill="#458867"/>
<path d="M12.3409 29.0801H11.4609V29.9601H12.3409V29.0801Z" fill="black"/>
<path d="M13.2198 29.0801H12.3398V29.9601H13.2198V29.0801Z" fill="#458867"/>
<path d="M14.1007 29.0801H13.2207V29.9601H14.1007V29.0801Z" fill="black"/>
<path d="M14.9796 29.0801H14.0996V29.9601H14.9796V29.0801Z" fill="#612B39"/>
<path d="M15.8702 29.0801H14.9902V29.9601H15.8702V29.0801Z" fill="#904447"/>
<path d="M16.7491 29.0801H15.8691V29.9601H16.7491V29.0801Z" fill="#904447"/>
<path d="M17.63 29.0801H16.75V29.9601H17.63V29.0801Z" fill="#612B39"/>
<path d="M18.5109 29.0801H17.6309V29.9601H18.5109V29.0801Z" fill="#612B39"/>
<path d="M19.3898 29.0801H18.5098V29.9601H19.3898V29.0801Z" fill="#612B39"/>
<path d="M20.2706 29.0801H19.3906V29.9601H20.2706V29.0801Z" fill="black"/>
<path d="M21.1495 29.0801H20.2695V29.9601H21.1495V29.0801Z" fill="#458867"/>
<path d="M22.0402 29.0801H21.1602V29.9601H22.0402V29.0801Z" fill="#70B859"/>
<path d="M22.9191 29.0801H22.0391V29.9601H22.9191V29.0801Z" fill="#A0E070"/>
<path d="M23.7999 29.0801H22.9199V29.9601H23.7999V29.0801Z" fill="#70B859"/>
<path d="M24.6808 29.0801H23.8008V29.9601H24.6808V29.0801Z" fill="#A0E070"/>
<path d="M25.5597 29.0801H24.6797V29.9601H25.5597V29.0801Z" fill="#70B859"/>
<path d="M26.4405 29.0801H25.5605V29.9601H26.4405V29.0801Z" fill="#458867"/>
<path d="M27.3195 29.0801H26.4395V29.9601H27.3195V29.0801Z" fill="#458867"/>
<path d="M28.2003 29.0801H27.3203V29.9601H28.2003V29.0801Z" fill="black"/>
<path d="M29.0909 29.0801H28.2109V29.9601H29.0909V29.0801Z" fill="#458867"/>
<path d="M29.9698 29.0801H29.0898V29.9601H29.9698V29.0801Z" fill="black"/>
<path d="M0.879999 29.9609H0V30.8409H0.879999V29.9609Z" fill="black"/>
<path d="M1.77063 29.9609H0.890625V30.8409H1.77063V29.9609Z" fill="black"/>
<path d="M2.64953 29.9609H1.76953V30.8409H2.64953V29.9609Z" fill="black"/>
<path d="M3.53039 29.9609H2.65039V30.8409H3.53039V29.9609Z" fill="black"/>
<path d="M4.4093 29.9609H3.5293V30.8409H4.4093V29.9609Z" fill="black"/>
<path d="M5.29016 29.9609H4.41016V30.8409H5.29016V29.9609Z" fill="black"/>
<path d="M6.16906 29.9609H5.28906V30.8409H6.16906V29.9609Z" fill="black"/>
<path d="M7.04992 29.9609H6.16992V30.8409H7.04992V29.9609Z" fill="black"/>
<path d="M7.93078 29.9609H7.05078V30.8409H7.93078V29.9609Z" fill="black"/>
<path d="M8.81945 29.9609H7.93945V30.8409H8.81945V29.9609Z" fill="black"/>
<path d="M9.70031 29.9609H8.82031V30.8409H9.70031V29.9609Z" fill="black"/>
<path d="M10.5792 29.9609H9.69922V30.8409H10.5792V29.9609Z" fill="black"/>
<path d="M11.4601 29.9609H10.5801V30.8409H11.4601V29.9609Z" fill="black"/>
<path d="M12.3409 29.9609H11.4609V30.8409H12.3409V29.9609Z" fill="black"/>
<path d="M13.2198 29.9609H12.3398V30.8409H13.2198V29.9609Z" fill="black"/>
<path d="M14.1007 29.9609H13.2207V30.8409H14.1007V29.9609Z" fill="black"/>
<path d="M14.9796 29.9609H14.0996V30.8409H14.9796V29.9609Z" fill="black"/>
<path d="M15.8702 29.9609H14.9902V30.8409H15.8702V29.9609Z" fill="black"/>
<path d="M16.7491 29.9609H15.8691V30.8409H16.7491V29.9609Z" fill="black"/>
<path d="M17.63 29.9609H16.75V30.8409H17.63V29.9609Z" fill="black"/>
<path d="M18.5109 29.9609H17.6309V30.8409H18.5109V29.9609Z" fill="black"/>
<path d="M19.3898 29.9609H18.5098V30.8409H19.3898V29.9609Z" fill="black"/>
<path d="M20.2706 29.9609H19.3906V30.8409H20.2706V29.9609Z" fill="black"/>
<path d="M21.1495 29.9609H20.2695V30.8409H21.1495V29.9609Z" fill="black"/>
<path d="M22.0402 29.9609H21.1602V30.8409H22.0402V29.9609Z" fill="black"/>
<path d="M22.9191 29.9609H22.0391V30.8409H22.9191V29.9609Z" fill="black"/>
<path d="M23.7999 29.9609H22.9199V30.8409H23.7999V29.9609Z" fill="black"/>
<path d="M24.6808 29.9609H23.8008V30.8409H24.6808V29.9609Z" fill="black"/>
<path d="M25.5597 29.9609H24.6797V30.8409H25.5597V29.9609Z" fill="black"/>
<path d="M26.4405 29.9609H25.5605V30.8409H26.4405V29.9609Z" fill="black"/>
<path d="M27.3195 29.9609H26.4395V30.8409H27.3195V29.9609Z" fill="black"/>
<path d="M28.2003 29.9609H27.3203V30.8409H28.2003V29.9609Z" fill="black"/>
<path d="M29.0909 29.9609H28.2109V30.8409H29.0909V29.9609Z" fill="black"/>
<path d="M29.9698 29.9609H29.0898V30.8409H29.9698V29.9609Z" fill="black"/>
</svg>
