<svg width="24" height="24" viewBox="0 0 24 24" fill="none" xmlns="http://www.w3.org/2000/svg">
<path d="M8.41998 1.69L5.04999 3.37L3.37 5.06L1.67999 8.42V15.16L3.37 18.53L5.04999 20.22L8.41998 21.9H15.16L18.53 20.22L20.22 18.53L21.9 15.16V8.42L20.22 5.06L18.53 3.37L15.16 1.69H8.41998Z" fill="#FDB913"/>
<path d="M5.04999 16.85H3.37V18.53L5.04999 18.53V16.85Z" fill="#FFAC33"/>
<path d="M3.35999 13.48H1.67999V15.16H3.35999V13.48Z" fill="#FFAC33"/>
<path d="M5.04999 15.16H3.37V16.84H5.04999V15.16Z" fill="#FFAC33"/>
<path d="M6.72998 18.53H5.04999V20.21H6.72998V18.53Z" fill="#FFAC33"/>
<path d="M8.41998 18.53H6.73999V20.21H8.41998V18.53Z" fill="#FFAC33"/>
<path d="M18.53 18.53H16.85V20.21H18.53V18.53Z" fill="#FFAC33"/>
<path d="M20.21 16.85H18.53V18.53H20.21V16.85Z" fill="#FFAC33"/>
<path d="M20.21 15.16H18.53V16.84H20.21V15.16Z" fill="#FFAC33"/>
<path d="M21.9 13.48H20.22V15.16H21.9V13.48Z" fill="#FFAC33"/>
<path d="M16.84 18.53H15.16V20.21H16.84V18.53Z" fill="#FFAC33"/>
<path d="M10.1 20.22H8.41998V21.9H10.1V20.22Z" fill="#FFAC33"/>
<path d="M11.79 20.22H10.11V21.9H11.79V20.22Z" fill="#FFAC33"/>
<path d="M13.47 20.22H11.79V21.9H13.47V20.22Z" fill="#FFAC33"/>
<path d="M15.16 20.22H13.48V21.9H15.16V20.22Z" fill="#FFAC33"/>
<path d="M20.21 5.06H18.53V6.74H20.21V5.06Z" fill="white"/>
<path d="M21.9 8.42H20.22V10.1H21.9V8.42Z" fill="white"/>
<path d="M20.21 6.74H18.53V8.42H20.21V6.74Z" fill="white"/>
<path d="M18.53 3.37H16.85V5.05H18.53V3.37Z" fill="white"/>
<path d="M16.84 3.37H15.16V5.05H16.84V3.37Z" fill="white"/>
<path d="M6.72998 3.37H5.04999V5.05H6.72998V3.37Z" fill="white"/>
<path d="M5.04999 5.06H3.37V6.74H5.04999V5.06Z" fill="white"/>
<path d="M5.04999 6.74H3.37V8.42H5.04999V6.74Z" fill="white"/>
<path d="M3.35999 8.42H1.67999V10.1H3.35999V8.42Z" fill="white"/>
<path d="M8.41998 3.37H6.73999V5.05H8.41998V3.37Z" fill="white"/>
<path d="M15.16 1.69H13.48V3.37H15.16V1.69Z" fill="white"/>
<path d="M13.47 1.69H11.79V3.37H13.47V1.69Z" fill="white"/>
<path d="M11.79 1.69H10.11V3.37H11.79V1.69Z" fill="white"/>
<path d="M10.1 1.69H8.41998V3.37H10.1V1.69Z" fill="white"/>
<path d="M6.72998 1.69H5.04999V3.37H6.72998V1.69Z" fill="#000600"/>
<path d="M5.04999 3.37H3.37V5.05H5.04999V3.37Z" fill="#000600"/>
<path d="M5.04999 18.53L3.37 18.53V20.21H5.04999V18.53Z" fill="#000600"/>
<path d="M3.35999 5.06H1.67999V6.74H3.35999V5.06Z" fill="#000600"/>
<path d="M3.35999 6.74H1.67999V8.42H3.35999V6.74Z" fill="#000600"/>
<path d="M3.35999 15.16H1.67999V16.84H3.35999V15.16Z" fill="#000600"/>
<path d="M3.35999 16.85H1.67999V18.53H3.35999V16.85Z" fill="#000600"/>
<path d="M1.67999 8.42H0V10.1H1.67999V8.42Z" fill="#000600"/>
<path d="M1.67999 10.11H0V11.79H1.67999V10.11Z" fill="#000600"/>
<path d="M1.67999 11.79H0V13.47H1.67999V11.79Z" fill="#000600"/>
<path d="M1.67999 13.48H0V15.16H1.67999V13.48Z" fill="#000600"/>
<path d="M8.41998 1.69H6.73999V3.37H8.41998V1.69Z" fill="#000600"/>
<path d="M6.72998 20.22H5.04999V21.9H6.72998V20.22Z" fill="#000600"/>
<path d="M8.41998 20.22H6.73999V21.9H8.41998V20.22Z" fill="#000600"/>
<path d="M18.53 20.22H16.85V21.9H18.53V20.22Z" fill="#000600"/>
<path d="M20.21 18.53H18.53V20.21H20.21V18.53Z" fill="#000600"/>
<path d="M20.21 3.37H18.53V5.05H20.21V3.37Z" fill="#000600"/>
<path d="M21.9 16.85H20.22V18.53L21.9 18.53V16.85Z" fill="#000600"/>
<path d="M21.9 15.16H20.22V16.84H21.9V15.16Z" fill="#000600"/>
<path d="M21.9 6.74H20.22V8.42H21.9V6.74Z" fill="#000600"/>
<path d="M21.9 5.06H20.22V6.74H21.9V5.06Z" fill="#000600"/>
<path d="M23.58 13.48H21.9V15.16H23.58V13.48Z" fill="#000600"/>
<path d="M23.58 11.79H21.9V13.47H23.58V11.79Z" fill="#000600"/>
<path d="M23.58 10.11H21.9V11.79H23.58V10.11Z" fill="#000600"/>
<path d="M23.58 8.42H21.9V10.1H23.58V8.42Z" fill="#000600"/>
<path d="M16.84 20.22H15.16V21.9H16.84V20.22Z" fill="#000600"/>
<path d="M18.53 1.69H16.85V3.37H18.53V1.69Z" fill="#000600"/>
<path d="M16.84 1.69H15.16V3.37H16.84V1.69Z" fill="#000600"/>
<path d="M10.1 0H8.41998V1.68H10.1V0Z" fill="#000600"/>
<path d="M11.79 0H10.11V1.68H11.79V0Z" fill="#000600"/>
<path d="M13.47 0H11.79V1.68H13.47V0Z" fill="#000600"/>
<path d="M15.16 0H13.48V1.68H15.16V0Z" fill="#000600"/>
<path d="M10.1 21.9H8.41998V23.58H10.1V21.9Z" fill="#000600"/>
<path d="M11.79 21.9H10.11V23.58H11.79V21.9Z" fill="#000600"/>
<path d="M13.47 21.9H11.79V23.58H13.47V21.9Z" fill="#000600"/>
<path d="M15.16 21.9H13.48V23.58H15.16V21.9Z" fill="#000600"/>
<path d="M18.08 15.18H19.04V8.41H18.08V15.18Z" fill="black"/>
<path d="M18.08 15.18H17.11V16.15H18.08V15.18Z" fill="black"/>
<path d="M18.08 7.44H17.11V8.41H18.08V7.44Z" fill="black"/>
<path d="M16.14 14.21H17.11V9.38H16.14V14.21Z" fill="black"/>
<path d="M16.15 14.21H15.18V15.18H16.15V14.21Z" fill="black"/>
<path d="M16.15 8.41H15.18V9.38H16.15V8.41Z" fill="black"/>
<path d="M14.21 13.24H15.18V10.34H14.21V13.24Z" fill="black"/>
<path d="M14.21 13.24H13.24V14.21H14.21V13.24Z" fill="black"/>
<path d="M14.21 9.38H13.24V10.35H14.21V9.38Z" fill="black"/>
<path d="M9.37 8.41V9.38H8.40997V10.34H5.50998V13.24H8.40997V14.21H9.37V15.18H10.34V8.41H9.37Z" fill="#FDB913"/>
<path d="M9.37 7.44V8.41H10.34V15.18H9.37V16.15H11.31V7.44H9.37Z" fill="black"/>
<path d="M9.37997 14.21H8.40997V15.18H9.37997V14.21Z" fill="black"/>
<path d="M9.37997 8.41H8.40997V9.38H9.37997V8.41Z" fill="black"/>
<path d="M5.50998 13.24V10.34H8.40997V9.38H4.53998V14.21H8.40997V13.24H5.50998Z" fill="black"/>
</svg>
