<svg width="53" height="31" viewBox="0 0 53 31" fill="none" xmlns="http://www.w3.org/2000/svg">
<path d="M7.22063 10.799C8.12598 10.037 8.3969 8.88692 8.3969 7.76694C8.3969 5.94459 7.17515 5.15312 5.5912 4.68984L4.83636 4.4663C4.32332 4.30204 3.52399 4.04805 3.52399 3.39103C3.52399 2.73401 4.24807 2.44989 4.79088 2.44989C5.05918 2.44989 5.32257 2.49071 5.57648 2.56522C6.33197 2.78682 7.14047 2.44794 7.50006 1.75367L7.92017 0.942763C7.92508 0.933692 7.92148 0.922028 7.91265 0.917169C6.90358 0.354751 5.50907 0 4.3688 0C2.09054 0 0.44639 1.49319 0.44639 3.77947C0.44639 6.06576 1.66879 6.43833 3.52399 6.96057C4.15743 7.14005 5.3193 7.42353 5.3193 8.24545C5.3193 9.06737 4.5805 9.38065 3.88586 9.38065C2.87548 9.38065 2.00057 8.85744 1.26111 8.21597L0.00238743 10.5609C-0.00252049 10.5693 0.000424343 10.5803 0.00860421 10.5858C1.16753 11.3864 2.56498 11.8603 3.9922 11.8603C5.13869 11.8597 6.33033 11.5464 7.2203 10.799H7.22063Z" fill="white"/>
<path d="M11.6742 9.94062V7.58598C11.6742 6.62961 11.9912 5.80834 13.1076 5.80834C14.4652 5.80834 14.3448 7.09257 14.3448 7.82475V11.5394C14.3448 11.5504 14.3533 11.5589 14.3644 11.5589H15.4559C16.3583 11.5589 17.0903 10.8341 17.0903 9.94062V6.82432C17.0903 4.94171 16.2608 3.64258 14.1792 3.64258C13.1116 3.64258 12.3436 3.95456 11.7108 4.87368C11.7072 4.87918 11.701 4.8821 11.6948 4.8821C11.6837 4.8821 11.6752 4.87368 11.6752 4.86266V3.91536C11.6752 3.905 11.6667 3.89593 11.6555 3.89593H8.94932C8.93819 3.89593 8.92969 3.905 8.92969 3.91536V11.5398C8.92969 11.5508 8.93819 11.5592 8.94932 11.5592H10.0408C10.9432 11.5592 11.6745 10.8348 11.6745 9.94094L11.6742 9.94062Z" fill="white"/>
<path d="M23.8493 10.7172C23.8529 10.7117 23.8591 10.7081 23.8653 10.7081C23.8765 10.7081 23.885 10.7165 23.885 10.7276V11.5404C23.885 11.5514 23.8941 11.5598 23.9046 11.5598H24.9961C25.8992 11.5598 26.6311 10.8351 26.6311 9.94159V3.91666C26.6311 3.90629 26.6226 3.89722 26.6115 3.89722H23.9046C23.8941 3.89722 23.885 3.90629 23.885 3.91666V4.59214C23.885 4.60996 23.8627 4.61839 23.8509 4.60446C23.2754 3.95845 22.3589 3.64258 21.4863 3.64258C19.1933 3.64258 17.6094 5.52519 17.6094 7.72076C17.6094 9.91632 19.2234 11.8135 21.5171 11.8135C22.4182 11.8135 23.3647 11.4727 23.8496 10.7169L23.8493 10.7172ZM20.4455 7.73631C20.4455 6.79581 21.0943 6.0037 22.2101 6.0037C23.3258 6.0037 23.9753 6.79516 23.9753 7.73631C23.9753 8.67745 23.3264 9.45466 22.2101 9.45466C21.0937 9.45401 20.4455 8.70725 20.4455 7.73631Z" fill="white"/>
<path d="M32.5822 3.6429C31.6804 3.6429 30.7485 3.99895 30.2496 4.75445C30.246 4.75996 30.2398 4.76288 30.2335 4.76288C30.2224 4.76288 30.2139 4.75445 30.2139 4.74344V3.89657H27.4688V14.7911H28.5796C29.482 14.7911 30.2139 14.0664 30.2139 13.1729V10.8341C30.2139 10.8322 30.2169 10.8306 30.2182 10.8328C30.8065 11.5015 31.7242 11.8135 32.6129 11.8135C34.9059 11.8135 36.4898 9.96136 36.4898 7.75056C36.4892 5.55467 34.8899 3.64258 32.5822 3.64258V3.6429ZM31.8882 9.45336C30.7718 9.45336 30.123 8.70596 30.123 7.73501C30.123 6.76406 30.7718 6.0024 31.8882 6.0024C33.0046 6.0024 33.6534 6.79387 33.6534 7.73501C33.6527 8.70661 33.0046 9.45336 31.8882 9.45336Z" fill="white"/>
<path d="M42.1059 3.64258C41.2042 3.64258 40.2723 3.99862 39.7733 4.75413C39.7697 4.75964 39.7635 4.76255 39.7573 4.76255C39.7462 4.76255 39.7377 4.75413 39.7377 4.74312V3.91569C39.7377 3.90532 39.7292 3.89625 39.718 3.89625H37.0118C37.0007 3.89625 36.9922 3.90532 36.9922 3.91569V14.7717C36.9922 14.7827 37.0007 14.7911 37.0118 14.7911H38.1033C39.0057 14.7911 39.7377 14.0664 39.7377 13.1729V10.8785C39.7377 10.8607 39.7599 10.8523 39.7717 10.8662C40.3613 11.5122 41.2631 11.8135 42.1363 11.8135C44.4293 11.8135 46.0133 9.96135 46.0133 7.75056C46.0126 5.55467 44.4139 3.64258 42.1056 3.64258H42.1059ZM41.4119 9.45304C40.2955 9.45304 39.6474 8.70563 39.6474 7.73469C39.6474 6.76374 40.2955 6.00208 41.4119 6.00208C42.5283 6.00208 43.1772 6.79354 43.1772 7.73469C43.1772 8.70628 42.5283 9.45304 41.4119 9.45304Z" fill="white"/>
<path d="M49.2358 0.298828L47.375 7.37408H48.9213C49.6699 7.37408 50.3237 6.87225 50.5112 6.15465L52.0542 0.298828H49.2358Z" fill="white"/>
<path d="M48.2921 8.37109C47.3331 8.37109 46.5547 9.14183 46.5547 10.0907C46.5547 11.0397 47.3331 11.811 48.2921 11.811C49.2511 11.811 50.0288 11.0403 50.0288 10.0907C50.0295 9.14118 49.2511 8.37109 48.2921 8.37109Z" fill="white"/>
<path d="M47.4439 0.441052H47.4471L47.6624 1.03587H47.7586L47.9739 0.441052H47.9782V1.03587H48.1398V0.298828H47.8787L47.7105 0.734896L47.5433 0.298828H47.2812V1.03587H47.4439V0.441052Z" fill="white"/>
<path d="M46.7821 1.03587H46.9604V0.441052H47.1868V0.298828H46.5547V0.441052H46.7821V1.03587Z" fill="white"/>
<path d="M4.75787 15.7754H0.0390625V27.0681H3.00377V23.324H4.75852C6.03883 23.324 7.02009 22.9948 7.70033 22.3359C8.38122 21.6769 8.72118 20.7481 8.72118 19.55C8.72118 18.352 8.38122 17.4231 7.70033 16.7642C7.01944 16.1045 6.03818 15.7754 4.75787 15.7754ZM3.98634 20.957H3.00312V18.1417H3.98634C5.07492 18.1417 5.62002 18.6108 5.62002 19.5494C5.62002 20.4879 5.07492 20.957 3.98634 20.957Z" fill="white"/>
<path d="M15.5504 20.1479C14.9147 19.4792 14.1134 19.1445 13.1452 19.1445C12.5703 19.1445 12.0455 19.2521 11.5724 19.4669C11.0986 19.6814 10.6899 19.9742 10.347 20.3432C10.0041 20.7126 9.7365 21.1444 9.54574 21.6385C9.35401 22.1325 9.25781 22.6541 9.25781 23.2036C9.25781 23.7929 9.35597 24.3375 9.55262 24.8364C9.74926 25.336 10.0244 25.7701 10.3771 26.1391C10.7299 26.5084 11.1431 26.7955 11.6175 27.0002C12.0913 27.2043 12.6106 27.3074 13.176 27.3074C14.1739 27.3074 14.9657 26.9429 15.5504 26.2143V27.0679H18.3031V19.3839H15.5504V20.1479ZM15.4974 23.9076C15.4012 24.1175 15.2753 24.3022 15.1189 24.4616C14.9628 24.6216 14.776 24.746 14.5593 24.8354C14.3427 24.9252 14.1134 24.9699 13.8716 24.9699C13.6298 24.9699 13.385 24.9252 13.1678 24.8354C12.9512 24.7457 12.7644 24.621 12.6083 24.4616C12.4522 24.3015 12.3289 24.1146 12.2376 23.8998C12.1469 23.6853 12.1018 23.4534 12.1018 23.2036C12.1018 22.9538 12.1469 22.7419 12.2376 22.5369C12.3282 22.3328 12.4522 22.1497 12.6083 21.9903C12.7644 21.8309 12.9512 21.7059 13.1678 21.6155C13.3844 21.5257 13.6187 21.481 13.8716 21.481C14.1245 21.481 14.3427 21.5257 14.5593 21.6155C14.776 21.7052 14.9628 21.8299 15.1189 21.9903C15.2749 22.1504 15.4012 22.3373 15.4974 22.5521C15.593 22.7666 15.6411 22.9937 15.6411 23.2337C15.6411 23.4738 15.593 23.6973 15.4974 23.9073V23.9076Z" fill="white"/>
<path d="M24.3188 23.3305L22.2464 19.3906H19.0703L22.8213 26.0256L20.1743 30.9085H23.245L29.4771 19.3906H26.3304L24.3188 23.3305Z" fill="white"/>
</svg>
