<svg width="155" height="32" viewBox="0 0 155 32" fill="none" xmlns="http://www.w3.org/2000/svg">
<path d="M8.53581 9.03122C8.66781 9.03122 8.75581 9.29522 8.75581 9.64722V10.2082C8.75581 10.5602 8.65681 10.8242 8.53581 10.8242L8.26081 10.8022C7.85381 12.5952 5.79681 13.6072 3.75081 13.6072C1.13281 13.6072 -0.000187926 12.6282 -0.000187926 10.7912C-0.000187926 9.98822 0.164812 9.13022 0.637812 6.71022L2.23281 7.07322C1.91381 8.42622 1.59481 9.82322 1.59481 10.6372C1.59481 11.5832 2.08981 11.8142 3.71781 11.8142C4.96081 11.8142 6.04981 11.3852 6.45681 10.8462C6.22581 10.8242 5.93981 10.8132 5.62081 10.8132C5.15881 10.8132 4.59781 10.8242 4.00381 10.8682L4.19081 9.08622C5.10381 9.05322 5.89581 9.03122 6.54481 9.03122H8.53581ZM8.10071 10.8242C7.97971 10.8242 7.88071 10.5602 7.88071 10.2082V9.64722C7.88071 9.29522 7.96871 9.03122 8.10071 9.03122H8.85971C9.88271 9.03122 10.6637 8.84422 10.6637 8.20622C10.6637 7.66722 10.5537 6.74322 10.3777 5.72022L11.9727 5.18122C12.1597 6.56722 12.2587 7.70022 12.2587 8.53622C12.2587 9.86722 10.9167 10.8242 8.85971 10.8242H8.10071ZM9.75071 12.8702C9.51971 13.2772 9.20071 13.6622 8.83771 13.9922L7.79271 13.1782C8.02371 12.7272 8.36471 12.3312 8.74971 12.0012L9.75071 12.8702ZM9.92671 13.2002C10.1687 12.7492 10.5207 12.3642 10.9057 12.0342L11.8957 12.8922C11.6427 13.3102 11.3347 13.7062 10.9827 14.0142L9.92671 13.2002ZM8.95871 15.1032C9.20071 14.6522 9.54171 14.2672 9.90471 13.9372L10.9277 14.7952C10.6967 15.1912 10.3667 15.6092 10.0037 15.9062L8.95871 15.1032ZM26.4954 9.03122C26.6274 9.03122 26.7154 9.29522 26.7154 9.64722V10.2082C26.7154 10.5602 26.6164 10.8242 26.4954 10.8242H25.8354C25.2194 10.8242 24.6804 10.6042 24.2514 10.1972C23.1844 10.7582 21.6224 11.0772 19.7084 11.0772C16.8594 11.0772 15.7814 10.3622 15.7814 8.32722C15.7814 7.79922 15.9244 6.96322 16.1774 5.95122L17.7284 6.30322C17.5304 7.23822 17.4094 7.87622 17.4094 8.31622C17.4094 9.19622 17.9484 9.28422 19.8074 9.28422C21.4464 9.28422 22.7444 9.05322 23.4594 8.73422C23.4374 8.54722 23.4154 8.31622 23.4044 8.01922L23.3274 6.35822L24.9334 6.14922L24.9774 7.33722C25.0324 8.81122 25.1314 9.03122 25.8464 9.03122H26.4954ZM19.8514 12.8702C19.6204 13.2772 19.3014 13.6622 18.9384 13.9922L17.8934 13.1782C18.1244 12.7272 18.4654 12.3312 18.8504 12.0012L19.8514 12.8702ZM20.0274 13.2002C20.2694 12.7492 20.6214 12.3642 21.0064 12.0342L21.9964 12.8922C21.7434 13.3102 21.4354 13.7062 21.0834 14.0142L20.0274 13.2002ZM19.0594 15.1032C19.3014 14.6522 19.6424 14.2672 20.0054 13.9372L21.0284 14.7952C20.7974 15.1912 20.4674 15.6092 20.1044 15.9062L19.0594 15.1032ZM29.6162 4.09222C29.3412 4.57622 28.9782 4.95022 28.5932 5.32422L27.4272 4.41122C27.7462 3.91622 28.0652 3.49822 28.4832 3.12422L29.6162 4.09222ZM30.7162 9.03122C30.8482 9.03122 30.9362 9.29522 30.9362 9.64722V10.2082C30.9362 10.5602 30.8372 10.8242 30.7162 10.8242H30.2982C29.6052 10.8242 28.9562 10.5052 28.5272 10.0322C28.0432 10.5162 27.3502 10.8242 26.6242 10.8242H26.0522C25.9312 10.8242 25.8322 10.5602 25.8322 10.2082V9.64722C25.8322 9.29522 25.9202 9.03122 26.0522 9.03122H26.6572C27.3392 9.03122 27.6912 8.69022 27.6912 7.97522V6.27022L29.2972 6.08322V7.33722C29.2972 8.65722 29.5722 9.03122 30.4632 9.03122H30.7162ZM39.6463 5.17022C39.8443 6.52322 39.9433 7.67822 39.9433 8.53622C39.9433 9.77922 38.6343 10.8242 36.9293 10.8242C36.3903 10.8242 35.8953 10.6042 35.4883 10.3402C35.0263 10.6042 34.3993 10.8242 33.8163 10.8242C33.1233 10.8242 32.5183 10.5712 32.0893 10.1422C31.6163 10.5492 30.9563 10.8242 30.2743 10.8242C30.1533 10.8242 30.0543 10.5602 30.0543 10.2082V9.64722C30.0543 9.29522 30.1423 9.03122 30.2743 9.03122C30.8903 9.03122 31.4953 8.67922 31.5393 7.98622L31.6383 6.54522L33.2443 6.50122L33.1453 8.31622C33.1453 8.75622 33.3323 9.03122 33.8273 9.03122C35.1033 9.03122 35.1913 7.98622 35.1913 6.24822L36.8193 6.14922C36.8083 7.06222 36.7423 7.99722 36.4783 8.87722C36.6873 8.97622 36.8853 9.03122 37.0723 9.03122C37.8203 9.03122 38.3703 8.69022 38.3703 8.23922C38.3703 7.70022 38.2383 6.83122 38.0513 5.72022L39.6463 5.17022ZM43.106 10.9672L41.511 10.8242C41.61 9.97722 41.654 9.21822 41.654 8.00822C41.654 6.69922 41.61 4.87322 41.511 1.84822L43.139 1.55122C43.205 4.58722 43.249 6.63322 43.249 8.11822C43.249 9.40522 43.205 10.2632 43.106 10.9672ZM55.772 2.37622C55.497 2.86022 55.134 3.23422 54.749 3.60822L53.583 2.69522C53.902 2.20022 54.221 1.78222 54.639 1.40822L55.772 2.37622ZM57.708 9.03122C57.84 9.03122 57.928 9.29522 57.928 9.64722V10.2082C57.928 10.5602 57.829 10.8242 57.708 10.8242H57.037C55.838 10.8242 55.222 10.7582 54.694 10.5602C53.704 10.8902 52.296 11.0772 50.767 11.0772C47.918 11.0772 46.84 10.3622 46.84 8.32722C46.84 7.79922 46.983 6.96322 47.236 5.95122L48.787 6.30322C48.589 7.23822 48.468 7.87622 48.468 8.31622C48.468 9.19622 49.007 9.28422 50.866 9.28422H52.747C52.23 8.88822 51.889 8.39322 51.889 7.92022C51.889 6.40222 53.528 4.52122 54.749 4.52122C55.783 4.52122 56.63 5.25822 57.015 6.45722C57.147 6.86422 57.213 7.30422 57.213 7.74422C57.213 7.90922 57.202 8.07422 57.18 8.23922C57.136 8.54722 56.96 8.81122 56.718 9.03122H56.993H57.708ZM54.749 6.10522C54.353 6.10522 53.484 7.33722 53.484 7.84322C53.484 8.05222 54.133 8.58022 54.727 8.91022C55.035 8.64622 55.42 8.25022 55.684 7.95322V7.87622C55.684 6.99622 55.244 6.10522 54.749 6.10522ZM61.9351 9.03122C62.0671 9.03122 62.1551 9.29522 62.1551 9.64722V10.2082C62.1551 10.5602 62.0561 10.8242 61.9351 10.8242H61.5171C60.8241 10.8242 60.1751 10.5052 59.7461 10.0322C59.2621 10.5162 58.5691 10.8242 57.8431 10.8242H57.2711C57.1501 10.8242 57.0511 10.5602 57.0511 10.2082V9.64722C57.0511 9.29522 57.1391 9.03122 57.2711 9.03122H57.8761C58.5581 9.03122 58.9101 8.69022 58.9101 7.97522V6.27022L60.5161 6.08322V7.33722C60.5161 8.65722 60.7911 9.03122 61.6821 9.03122H61.9351ZM57.0731 13.3322C57.3921 12.8372 57.7111 12.4192 58.1291 12.0452L59.2621 13.0132C58.9871 13.4972 58.6241 13.8712 58.2391 14.2452L57.0731 13.3322ZM59.2841 13.4422C59.6031 12.9582 59.9221 12.5292 60.3621 12.1442L61.4731 13.1122C61.1981 13.6072 60.8351 13.9812 60.4611 14.3442L59.2841 13.4422ZM65.7282 2.37622C65.4532 2.86022 65.0902 3.23422 64.7052 3.60822L63.5392 2.69522C63.8582 2.20022 64.1772 1.78222 64.5952 1.40822L65.7282 2.37622ZM67.5872 9.03122C67.7192 9.03122 67.8072 9.29522 67.8072 9.64722V10.2082C67.8072 10.5602 67.7082 10.8242 67.5872 10.8242H66.9162C65.7502 10.8242 65.1452 10.7692 64.6282 10.5822C64.1772 10.7362 63.6382 10.8242 63.1102 10.8242H61.4932C61.3722 10.8242 61.2732 10.5602 61.2732 10.2082V9.64722C61.2732 9.29522 61.3612 9.03122 61.4932 9.03122H62.3292C61.9882 8.69022 61.7682 8.29422 61.7682 7.92022C61.7682 6.40222 63.4072 4.52122 64.6282 4.52122C65.6622 4.52122 66.5202 5.25822 66.8942 6.45722C67.0262 6.86422 67.0922 7.30422 67.0922 7.74422C67.0922 7.90922 67.0812 8.07422 67.0592 8.23922C67.0152 8.54722 66.8392 8.81122 66.5972 9.03122H66.8722H67.5872ZM64.6282 6.10522C64.2322 6.10522 63.3632 7.33722 63.3632 7.84322C63.3632 8.05222 64.0122 8.58022 64.6062 8.91022C64.9142 8.64622 65.2992 8.25022 65.5632 7.95322V7.87622C65.5632 6.99622 65.1232 6.10522 64.6282 6.10522ZM71.4011 3.04722C71.1261 3.53122 70.7631 3.90522 70.3781 4.27922L69.2121 3.36622C69.5311 2.87122 69.8501 2.45322 70.2681 2.07922L71.4011 3.04722ZM76.4721 9.03122C76.6041 9.03122 76.6921 9.29522 76.6921 9.64722V10.2082C76.6921 10.5602 76.5931 10.8242 76.4721 10.8242H74.8661C73.4361 10.8242 72.7541 10.1312 72.4021 9.49322C71.4671 10.1422 70.2571 10.8242 68.2991 10.8242H67.1441C67.0231 10.8242 66.9241 10.5602 66.9241 10.2082V9.64722C66.9241 9.29522 67.0121 9.03122 67.1441 9.03122H68.2661C70.0371 9.03122 71.1041 8.38222 71.9731 7.82122C72.0501 7.76622 72.1271 7.72222 72.2151 7.66722C72.0061 7.54622 71.8191 7.42522 71.6431 7.30422C70.9721 6.85322 70.3781 6.60022 69.9821 6.60022C69.5201 6.60022 69.2891 6.82022 69.0361 7.53522L67.5181 6.97422C67.8261 6.13822 68.2991 4.87322 69.9821 4.87322C70.7961 4.87322 71.6541 5.40122 72.6111 6.00622C73.0291 6.27022 73.4581 6.53422 73.9201 6.77622C74.3931 6.61122 74.9101 6.50122 75.5041 6.50122L75.3611 8.27222C74.8661 8.27222 74.3381 8.40422 73.7991 8.63522C74.0081 8.85522 74.3381 9.03122 74.8661 9.03122H76.4721ZM78.0413 3.11322C77.7663 3.59722 77.4033 3.97122 77.0183 4.34522L75.8523 3.43222C76.1713 2.93722 76.4903 2.51922 76.9083 2.14522L78.0413 3.11322ZM80.2523 3.21222C79.9773 3.70722 79.6143 4.08122 79.2403 4.44422L78.0633 3.54222C78.3823 3.05822 78.7013 2.62922 79.1413 2.24422L80.2523 3.21222ZM78.3053 5.72022L79.9003 5.18122C80.0873 6.56722 80.1863 7.70022 80.1863 8.53622C80.1863 9.86722 78.8443 10.8242 76.7873 10.8242H76.0283C75.9073 10.8242 75.8083 10.5602 75.8083 10.2082V9.64722C75.8083 9.29522 75.8963 9.03122 76.0283 9.03122H76.7873C77.8103 9.03122 78.5913 8.84422 78.5913 8.20622C78.5913 7.66722 78.4813 6.74322 78.3053 5.72022ZM85.0009 9.03122C85.1329 9.03122 85.2209 9.29522 85.2209 9.64722V10.2082C85.2209 10.5602 85.1219 10.8242 85.0009 10.8242H84.9129C84.5389 10.8242 84.1209 10.8022 83.8569 10.5162C83.8239 10.8462 83.7909 11.0112 83.7359 11.1542C83.2629 12.4522 81.1179 13.8492 79.1269 14.1572L78.9729 12.3422C80.1609 12.2102 82.0639 11.0112 82.0969 10.4172C82.1629 9.02022 82.1189 8.17322 81.9319 6.71022L83.6699 6.35822L83.8459 8.16222C83.9009 8.70122 84.1869 9.03122 84.5609 9.03122H85.0009ZM87.4557 -0.000781775C88.1047 -0.000781775 88.6877 0.780218 88.6877 1.62722C88.6877 2.60622 88.1817 3.10122 86.8507 3.46422L85.2337 3.90422L84.9147 2.80422L86.3447 2.50722C86.0917 2.35322 85.9377 2.14422 85.9377 1.82522C85.9377 0.945219 86.6967 -0.000781775 87.4557 -0.000781775ZM87.4227 1.04422C87.1477 1.04422 86.9387 1.66022 86.9387 1.78122C86.9387 1.91322 87.2687 1.95722 87.5877 1.95722H87.7197C87.7307 1.90222 87.7307 1.82522 87.7307 1.74822C87.7307 1.46222 87.5767 1.04422 87.4227 1.04422ZM84.1184 10.8242C83.9974 10.8242 83.8984 10.5602 83.8984 10.2082V9.64722C83.8984 9.29522 83.9864 9.03122 84.1184 9.03122H84.8774C85.9004 9.03122 86.6814 8.84422 86.6814 8.20622C86.6814 7.66722 86.5714 6.74322 86.3954 5.72022L87.9904 5.18122C88.1774 6.56722 88.2764 7.70022 88.2764 8.53622C88.2764 9.86722 86.9344 10.8242 84.8774 10.8242H84.1184ZM85.7684 12.8702C85.5374 13.2772 85.2184 13.6622 84.8554 13.9922L83.8104 13.1782C84.0414 12.7272 84.3824 12.3312 84.7674 12.0012L85.7684 12.8702ZM85.9444 13.2002C86.1864 12.7492 86.5384 12.3642 86.9234 12.0342L87.9134 12.8922C87.6604 13.3102 87.3524 13.7062 87.0004 14.0142L85.9444 13.2002ZM84.9764 15.1032C85.2184 14.6522 85.5594 14.2672 85.9224 13.9372L86.9454 14.7952C86.7144 15.1912 86.3844 15.6092 86.0214 15.9062L84.9764 15.1032ZM98.0691 9.03122C98.2011 9.03122 98.2891 9.29522 98.2891 9.64722V10.2082C98.2891 10.5602 98.1901 10.8242 98.0691 10.8242H97.3431C96.7051 10.8242 96.2101 10.5602 95.8581 10.0432C95.2641 10.2082 94.6591 10.2852 94.1091 10.2852C92.8221 10.2852 91.7991 9.85622 91.7991 8.83322C91.7991 8.22822 92.0521 5.78622 94.5931 4.71922L94.4061 4.04822L95.8471 2.93722C96.5071 4.70822 96.8701 7.40322 96.9691 8.16222C97.0571 8.83322 97.1561 9.03122 97.3431 9.03122H98.0691ZM94.0761 8.61322C94.5271 8.61322 95.0441 8.53622 95.4621 8.39322C95.3631 7.74422 95.1981 6.86422 95.0661 6.22622C94.2521 6.61122 93.4491 7.59022 93.4491 8.38222C93.4491 8.49222 93.4491 8.54722 93.5811 8.56922C93.6801 8.59122 93.8671 8.61322 94.0761 8.61322ZM105.74 9.03122C105.872 9.03122 105.96 9.29522 105.96 9.64722V10.2082C105.96 10.5602 105.861 10.8242 105.74 10.8242H103.309C102.726 10.8242 102.231 10.7252 101.791 10.5162C101.362 10.7142 100.889 10.8242 100.394 10.8242H97.6334C97.5124 10.8242 97.4134 10.5602 97.4134 10.2082V9.64722C97.4134 9.29522 97.5014 9.03122 97.6334 9.03122H100.339C99.8994 8.51422 99.2504 7.88722 98.8764 7.63422L98.2494 7.96422L97.8754 6.27022C99.1514 5.29122 100.691 4.81822 102.022 4.81822C103.705 4.81822 105.047 5.57722 105.047 7.01822C105.047 7.81022 104.53 8.50322 103.738 9.03122H105.74ZM102.132 6.43522C101.516 6.43522 100.801 6.54522 100.196 6.77622C100.977 7.34822 101.604 8.11822 101.989 8.67922C103.001 7.88722 103.463 7.43622 103.463 7.02922C103.463 6.61122 102.88 6.43522 102.132 6.43522ZM113.015 9.03122C113.147 9.03122 113.235 9.29522 113.235 9.64722V10.2082C113.235 10.5602 113.136 10.8242 113.015 10.8242H112.707C112.146 10.8242 111.684 10.7032 111.321 10.4612C111.079 10.9342 110.683 11.3302 110.034 11.3302C109.165 11.3302 107.999 10.8352 107.174 10.1642C106.734 10.5822 106.162 10.8242 105.557 10.8242H105.304C105.183 10.8242 105.084 10.5602 105.084 10.2082V9.64722C105.084 9.29522 105.172 9.03122 105.304 9.03122H105.546C105.975 9.03122 106.195 8.82222 106.371 8.19522C106.954 6.11622 107.724 5.23622 109.275 5.23622C110.518 5.23622 111.453 6.10522 111.739 7.75522C111.937 8.88822 112.102 9.03122 112.707 9.03122H113.015ZM109.154 6.86422C108.725 6.86422 108.153 7.34822 107.933 8.58022C108.494 9.09722 109.275 9.47122 110.023 9.57022C110.144 9.28422 110.21 8.93222 110.21 8.58022C110.21 7.66722 109.836 6.86422 109.154 6.86422ZM119.595 6.89722C120.002 6.78722 120.442 6.72122 120.937 6.72122L120.794 8.49222C119.991 8.49222 119.089 8.75622 118.209 9.33922C117.142 10.0432 115.965 10.8242 113.732 10.8242H112.577C112.456 10.8242 112.357 10.5602 112.357 10.2082V9.64722C112.357 9.29522 112.445 9.03122 112.577 9.03122H113.699C115.47 9.03122 116.46 8.49222 117.406 7.93122L117.747 7.73322C117.505 7.59022 117.285 7.44722 117.076 7.30422C116.405 6.85322 115.811 6.60022 115.415 6.60022C114.953 6.60022 114.722 6.82022 114.469 7.53522L112.951 6.97422C113.259 6.13822 113.732 4.87322 115.415 4.87322C116.229 4.87322 117.087 5.40122 118.044 6.00622C118.528 6.31422 119.034 6.63322 119.595 6.89722ZM115.294 13.2882C115.613 12.7932 115.932 12.3752 116.35 12.0012L117.483 12.9692C117.208 13.4532 116.845 13.8272 116.46 14.2012L115.294 13.2882ZM125.91 10.9342C125.019 10.8902 124.458 10.3402 124.458 9.38322C124.458 8.77822 124.843 7.82122 125.294 7.16122L126.493 7.93122C126.229 8.33822 125.888 8.98722 125.888 9.22922C125.888 9.35022 125.943 9.42722 126.086 9.42722H126.581L126.405 10.9562L125.91 10.9342ZM128.338 12.3532C129.537 12.2212 131.462 11.0112 131.462 10.3292C131.462 9.04222 131.363 8.16222 131.066 6.68822L132.76 6.28122C133.024 7.50222 133.189 9.09722 133.189 10.2082C133.189 10.7032 133.156 10.9892 133.101 11.1542C132.639 12.4522 130.483 13.8492 128.492 14.1572L128.338 12.3532ZM137.633 2.44222C137.358 2.92622 136.995 3.30022 136.61 3.67422L135.444 2.76122C135.763 2.26622 136.082 1.84822 136.5 1.47422L137.633 2.44222ZM136.192 4.23522C138.986 5.44522 139.987 7.18322 139.987 8.92122C139.987 10.1862 138.623 11.0442 136.61 11.0552C135.895 11.0552 135.092 10.9452 134.256 10.6922L134.542 8.97622C135.334 9.19622 135.983 9.26222 136.621 9.26222C137.38 9.26222 137.985 9.16322 138.392 8.97622V8.93222C138.392 7.57922 137.336 6.58922 135.62 5.87422L136.192 4.23522ZM143.838 3.25622H142.881C142.364 3.25622 141.836 3.17922 141.484 3.01422C141.319 2.93722 141.209 2.90422 141.11 2.90422C140.923 2.90422 140.846 3.08022 140.725 3.39922L139.284 2.57422C139.713 1.63922 140.197 1.23222 140.901 1.23222C141.165 1.23222 141.451 1.28722 141.792 1.38622C142.155 1.49622 142.606 1.59522 143.057 1.59522H143.926L143.838 3.25622ZM142.716 10.9672L141.121 10.8242C141.22 9.97722 141.264 9.21822 141.264 8.29422C141.264 7.27122 141.22 6.16022 141.132 4.37822L142.76 4.08122C142.826 5.81922 142.859 7.15022 142.859 8.34922C142.859 9.39422 142.815 10.2522 142.716 10.9672ZM153.149 1.57322L154.403 2.66222C152.027 5.26922 151.202 7.88722 151.081 10.9892L149.475 10.7802C149.475 7.78822 148.705 5.48922 146.45 2.53022L147.781 1.55122C149.398 3.85022 150.047 5.23622 150.355 6.65522C150.674 5.18122 151.345 3.86122 153.149 1.57322ZM72.7034 19.3762C72.4284 19.8602 72.0654 20.2342 71.6804 20.6082L70.5144 19.6952C70.8334 19.2002 71.1524 18.7822 71.5704 18.4082L72.7034 19.3762ZM74.6394 26.0312C74.7714 26.0312 74.8594 26.2952 74.8594 26.6472V27.2082C74.8594 27.5602 74.7604 27.8242 74.6394 27.8242H73.9684C72.7694 27.8242 72.1534 27.7582 71.6254 27.5602C70.6354 27.8902 69.2274 28.0772 67.6984 28.0772C64.8494 28.0772 63.7714 27.3622 63.7714 25.3272C63.7714 24.7992 63.9144 23.9632 64.1674 22.9512L65.7184 23.3032C65.5204 24.2382 65.3994 24.8762 65.3994 25.3162C65.3994 26.1962 65.9384 26.2842 67.7974 26.2842H69.6784C69.1614 25.8882 68.8204 25.3932 68.8204 24.9202C68.8204 23.4022 70.4594 21.5212 71.6804 21.5212C72.7144 21.5212 73.5614 22.2582 73.9464 23.4572C74.0784 23.8642 74.1444 24.3042 74.1444 24.7442C74.1444 24.9092 74.1334 25.0742 74.1114 25.2392C74.0674 25.5472 73.8914 25.8112 73.6494 26.0312H73.9244H74.6394ZM71.6804 23.1052C71.2844 23.1052 70.4154 24.3372 70.4154 24.8432C70.4154 25.0522 71.0644 25.5802 71.6584 25.9102C71.9664 25.6462 72.3514 25.2502 72.6154 24.9532V24.8762C72.6154 23.9962 72.1754 23.1052 71.6804 23.1052ZM78.8665 26.0312C78.9985 26.0312 79.0865 26.2952 79.0865 26.6472V27.2082C79.0865 27.5602 78.9875 27.8242 78.8665 27.8242H78.4485C77.7555 27.8242 77.1065 27.5052 76.6775 27.0322C76.1935 27.5162 75.5005 27.8242 74.7745 27.8242H74.2025C74.0815 27.8242 73.9825 27.5602 73.9825 27.2082V26.6472C73.9825 26.2952 74.0705 26.0312 74.2025 26.0312H74.8075C75.4895 26.0312 75.8415 25.6902 75.8415 24.9752V23.2702L77.4475 23.0832V24.3372C77.4475 25.6572 77.7225 26.0312 78.6135 26.0312H78.8665ZM74.0045 30.3322C74.3235 29.8372 74.6425 29.4192 75.0605 29.0452L76.1935 30.0132C75.9185 30.4972 75.5555 30.8712 75.1705 31.2452L74.0045 30.3322ZM76.2155 30.4422C76.5345 29.9582 76.8535 29.5292 77.2935 29.1442L78.4045 30.1122C78.1295 30.6072 77.7665 30.9812 77.3925 31.3442L76.2155 30.4422ZM82.6597 19.3762C82.3847 19.8602 82.0217 20.2342 81.6367 20.6082L80.4707 19.6952C80.7897 19.2002 81.1087 18.7822 81.5267 18.4082L82.6597 19.3762ZM84.5187 26.0312C84.6507 26.0312 84.7387 26.2952 84.7387 26.6472V27.2082C84.7387 27.5602 84.6397 27.8242 84.5187 27.8242H83.8477C82.6817 27.8242 82.0767 27.7692 81.5597 27.5822C81.1087 27.7362 80.5697 27.8242 80.0417 27.8242H78.4247C78.3037 27.8242 78.2047 27.5602 78.2047 27.2082V26.6472C78.2047 26.2952 78.2927 26.0312 78.4247 26.0312H79.2607C78.9197 25.6902 78.6997 25.2942 78.6997 24.9202C78.6997 23.4022 80.3387 21.5212 81.5597 21.5212C82.5937 21.5212 83.4517 22.2582 83.8257 23.4572C83.9577 23.8642 84.0237 24.3042 84.0237 24.7442C84.0237 24.9092 84.0127 25.0742 83.9907 25.2392C83.9467 25.5472 83.7707 25.8112 83.5287 26.0312H83.8037H84.5187ZM81.5597 23.1052C81.1637 23.1052 80.2947 24.3372 80.2947 24.8432C80.2947 25.0522 80.9437 25.5802 81.5377 25.9102C81.8457 25.6462 82.2307 25.2502 82.4947 24.9532V24.8762C82.4947 23.9962 82.0547 23.1052 81.5597 23.1052ZM88.3325 20.0472C88.0575 20.5312 87.6945 20.9052 87.3095 21.2792L86.1435 20.3662C86.4625 19.8712 86.7815 19.4532 87.1995 19.0792L88.3325 20.0472ZM93.4035 26.0312C93.5355 26.0312 93.6235 26.2952 93.6235 26.6472V27.2082C93.6235 27.5602 93.5245 27.8242 93.4035 27.8242H91.7975C90.3675 27.8242 89.6855 27.1312 89.3335 26.4932C88.3985 27.1422 87.1885 27.8242 85.2305 27.8242H84.0755C83.9545 27.8242 83.8555 27.5602 83.8555 27.2082V26.6472C83.8555 26.2952 83.9435 26.0312 84.0755 26.0312H85.1975C86.9685 26.0312 88.0355 25.3822 88.9045 24.8212C88.9815 24.7662 89.0585 24.7222 89.1465 24.6672C88.9375 24.5462 88.7505 24.4252 88.5745 24.3042C87.9035 23.8532 87.3095 23.6002 86.9135 23.6002C86.4515 23.6002 86.2205 23.8202 85.9675 24.5352L84.4495 23.9742C84.7575 23.1382 85.2305 21.8732 86.9135 21.8732C87.7275 21.8732 88.5855 22.4012 89.5425 23.0062C89.9605 23.2702 90.3895 23.5342 90.8515 23.7762C91.3245 23.6112 91.8415 23.5012 92.4355 23.5012L92.2925 25.2722C91.7975 25.2722 91.2695 25.4042 90.7305 25.6352C90.9395 25.8552 91.2695 26.0312 91.7975 26.0312H93.4035ZM94.9727 20.1132C94.6977 20.5972 94.3347 20.9712 93.9497 21.3452L92.7837 20.4322C93.1027 19.9372 93.4217 19.5192 93.8397 19.1452L94.9727 20.1132ZM97.1837 20.2122C96.9087 20.7072 96.5457 21.0812 96.1717 21.4442L94.9947 20.5422C95.3137 20.0582 95.6327 19.6292 96.0727 19.2442L97.1837 20.2122ZM95.2367 22.7202L96.8317 22.1812C97.0187 23.5672 97.1177 24.7002 97.1177 25.5362C97.1177 26.8672 95.7757 27.8242 93.7187 27.8242H92.9597C92.8387 27.8242 92.7397 27.5602 92.7397 27.2082V26.6472C92.7397 26.2952 92.8277 26.0312 92.9597 26.0312H93.7187C94.7417 26.0312 95.5227 25.8442 95.5227 25.2062C95.5227 24.6672 95.4127 23.7432 95.2367 22.7202ZM107.141 26.0312C107.273 26.0312 107.361 26.2952 107.361 26.6472V27.2082C107.361 27.5602 107.262 27.8242 107.141 27.8242H106.668C106.085 27.8242 105.612 27.6152 105.271 27.2302C104.633 27.7362 103.665 28.0112 102.587 28.0222C101.96 28.0222 101.289 27.9232 100.64 27.7142L100.904 26.0312C101.619 26.1522 102.114 26.2292 102.576 26.2292C103.401 26.2292 104.127 26.0312 104.578 25.7672C104.413 24.6782 103.973 22.9182 103.544 21.6752L104.963 20.7622C105.447 21.9612 105.997 24.5242 106.107 25.2942C106.184 25.8112 106.36 26.0312 106.701 26.0312H107.141ZM113.135 21.9062C115.841 21.9062 116.468 24.6232 116.468 25.4372C116.468 26.9882 114.708 27.8572 111.617 27.8572C110.176 27.8572 109.175 27.6152 108.581 27.0762C108.119 27.5272 107.426 27.8242 106.7 27.8242C106.579 27.8242 106.48 27.5602 106.48 27.2082V26.6472C106.48 26.2952 106.568 26.0312 106.7 26.0312C107.305 26.0312 107.646 25.6902 107.668 25.2282L107.778 23.3252L109.274 23.2812C109.23 24.0182 109.208 24.4252 109.208 24.8212C109.208 24.9312 109.219 25.0412 109.23 25.1292C109.912 23.8752 111.298 21.9062 113.135 21.9062ZM111.65 26.0642C113.487 26.0642 114.851 25.7012 114.851 25.3932C114.851 24.8652 114.389 23.5562 113.135 23.5562C112.068 23.5562 110.924 25.0742 110.308 26.0202C110.66 26.0642 111.1 26.0642 111.65 26.0642ZM115.478 29.3532C116.677 29.2212 118.602 28.0112 118.602 27.3292C118.602 26.0422 118.503 25.1622 118.206 23.6882L119.9 23.2812C120.164 24.5022 120.329 26.0972 120.329 27.2082C120.329 27.7032 120.296 27.9892 120.241 28.1542C119.779 29.4522 117.623 30.8492 115.632 31.1572L115.478 29.3532ZM123.332 21.2352C126.126 22.4452 127.127 24.1832 127.127 25.9212C127.127 27.1862 125.763 28.0442 123.75 28.0552C123.035 28.0552 122.232 27.9452 121.396 27.6922L121.682 25.9762C122.474 26.1962 123.123 26.2622 123.761 26.2622C124.52 26.2622 125.125 26.1632 125.532 25.9762V25.9322C125.532 24.5792 124.476 23.5892 122.76 22.8742L123.332 21.2352ZM136.437 27.5162L134.919 28.1322C134.655 27.2522 134.578 25.9212 134.556 24.3922C134.182 24.4692 133.764 24.5022 133.258 24.5022C132.279 24.5022 130.541 24.3702 130.541 22.3902C130.541 20.3882 131.872 18.5512 133.357 18.5512C135.073 18.5512 136.074 20.1462 136.074 22.6102C136.074 25.2062 136.195 26.7462 136.437 27.5162ZM132.147 22.3792C132.147 22.8192 132.279 22.8192 133.313 22.8192C133.786 22.8192 134.182 22.7862 134.556 22.7202V22.5002C134.556 21.3452 134.248 20.1572 133.401 20.1572C132.719 20.1572 132.147 21.5322 132.147 22.3792ZM139.977 27.4172C138.569 27.4172 137.557 26.3942 137.557 24.9862C137.557 23.5892 138.602 22.5662 139.988 22.5662C141.363 22.5662 142.397 23.5892 142.397 24.9752C142.397 26.3722 141.396 27.4172 139.977 27.4172ZM139.999 25.8662C140.659 25.8662 140.857 25.6902 140.857 24.9862C140.857 24.3482 140.681 24.0952 140.054 24.0952C139.273 24.0952 139.097 24.3482 139.097 24.9862C139.097 25.6682 139.273 25.8662 139.999 25.8662ZM148.515 26.0312C148.647 26.0312 148.735 26.2952 148.735 26.6472V27.2082C148.735 27.5602 148.636 27.8242 148.515 27.8242C146.37 27.8242 145.644 27.0762 145.644 24.8212V22.9622V18.8482L147.239 18.5512V24.8762C147.239 25.8552 147.481 26.0312 147.976 26.0312H148.515ZM150.085 20.1132C149.81 20.5972 149.447 20.9712 149.062 21.3452L147.896 20.4322C148.215 19.9372 148.534 19.5192 148.952 19.1452L150.085 20.1132ZM152.296 20.2122C152.021 20.7072 151.658 21.0812 151.284 21.4442L150.107 20.5422C150.426 20.0582 150.745 19.6292 151.185 19.2442L152.296 20.2122ZM150.349 22.7202L151.944 22.1812C152.131 23.5672 152.23 24.7002 152.23 25.5362C152.23 26.8672 150.888 27.8242 148.831 27.8242H148.072C147.951 27.8242 147.852 27.5602 147.852 27.2082V26.6472C147.852 26.2952 147.94 26.0312 148.072 26.0312H148.831C149.854 26.0312 150.635 25.8442 150.635 25.2062C150.635 24.6672 150.525 23.7432 150.349 22.7202Z" fill="white"/>
</svg>
