<svg width="91" height="24" viewBox="0 0 91 24" fill="none" xmlns="http://www.w3.org/2000/svg">
<rect x="0.5" y="0.5" width="89.3203" height="22.0293" rx="11.0146" fill="#EAB751" stroke="#9EF9FB"/>
<path d="M24.7526 12.283C24.7526 12.4217 24.7829 12.5213 24.8436 12.582C24.9129 12.6427 25.0213 12.673 25.1686 12.673H25.6236C25.7103 12.673 25.7536 13.063 25.7536 13.843C25.7536 14.6143 25.7103 15 25.6236 15H25.2206C24.9866 15 24.8176 14.9653 24.7136 14.896C24.6443 15.5027 24.4493 16.04 24.1286 16.508C23.8079 16.9847 23.3789 17.3573 22.8416 17.626C22.3129 17.8947 21.7063 18.029 21.0216 18.029H20.4626C19.3273 18.029 18.4389 17.6953 17.7976 17.028C17.1649 16.3693 16.8486 15.455 16.8486 14.285V11.555H19.0716V14.233C19.0716 14.727 19.1843 15.0953 19.4096 15.338C19.6436 15.5807 20.0076 15.702 20.5016 15.702H21.0216C21.5069 15.702 21.8796 15.585 22.1396 15.351C22.4083 15.1257 22.5426 14.8093 22.5426 14.402V10.255H24.7526V12.283ZM19.2016 10.411V8.656H21.4636V10.411H19.2016ZM28.6871 12.673C28.7911 12.673 28.8778 12.6427 28.9471 12.582C29.0251 12.5127 29.0641 12.426 29.0641 12.322V10.255H31.2351V12.439C31.2351 13.2277 31.0011 13.8517 30.5331 14.311C30.0738 14.7703 29.4498 15 28.6611 15H25.6191C25.5325 15 25.4891 14.6143 25.4891 13.843C25.4891 13.063 25.5325 12.673 25.6191 12.673H28.6871ZM29.5711 15.962V17.717H25.7491V15.962H29.5711ZM34.8029 6.667V12.673H35.5439C35.6653 12.673 35.7606 12.6383 35.8299 12.569C35.9079 12.4997 35.9469 12.4043 35.9469 12.283V6.667H38.1699V12.218C38.1699 12.5213 38.3173 12.673 38.6119 12.673H39.0539C39.0973 12.673 39.1276 12.7423 39.1449 12.881C39.1709 13.0197 39.1839 13.3403 39.1839 13.843C39.1839 14.3283 39.1709 14.6447 39.1449 14.792C39.1276 14.9307 39.0973 15 39.0539 15H38.5989C38.2349 15 37.9316 14.961 37.6889 14.883C37.4549 14.805 37.2599 14.675 37.1039 14.493C36.9219 14.675 36.7096 14.805 36.4669 14.883C36.2329 14.961 35.9556 15 35.6349 15H32.5929V6.667H34.8029ZM42.7818 12.439C42.7818 13.2277 42.5478 13.8517 42.0798 14.311C41.6204 14.7703 40.9964 15 40.2078 15H39.0508C38.9641 15 38.9208 14.6143 38.9208 13.843C38.9208 13.063 38.9641 12.673 39.0508 12.673H40.2078C40.3291 12.673 40.4244 12.6427 40.4938 12.582C40.5718 12.5127 40.6108 12.426 40.6108 12.322V10.255H42.7818V12.439ZM40.1038 9.293V7.538H42.3658V9.293H40.1038ZM44.7813 6.602C44.4693 6.602 44.27 6.71467 44.1833 6.94L43.8583 7.785L42.4933 7.135L42.9613 5.926C43.0913 5.59667 43.2343 5.34967 43.3903 5.185C43.5377 5.01167 43.724 4.89467 43.9493 4.834C44.1747 4.77333 44.4823 4.743 44.8723 4.743H47.9143V6.602H44.7813ZM46.9523 7.629V15H44.7423V7.629H46.9523ZM53.2983 12.673C53.4109 12.673 53.5063 12.647 53.5843 12.595C53.6623 12.543 53.7013 12.4737 53.7013 12.387C53.7013 12.3263 53.6579 12.1833 53.5713 11.958C53.4933 11.724 53.3893 11.438 53.2593 11.1C53.1293 10.762 53.0209 10.4847 52.9343 10.268L52.4273 8.955L54.5073 7.967L56.0543 12.231C56.1583 12.5257 56.3316 12.673 56.5743 12.673H56.9773C57.0639 12.673 57.1073 13.063 57.1073 13.843C57.1073 14.3457 57.0943 14.6663 57.0683 14.805C57.0423 14.935 57.0119 15 56.9773 15H56.3923C55.7423 15 55.2656 14.8223 54.9623 14.467C54.7629 14.6663 54.5593 14.805 54.3513 14.883C54.1519 14.961 53.9223 15 53.6623 15H50.5033L50.3343 12.673H53.2983ZM60.0446 12.673C60.1486 12.673 60.2352 12.6427 60.3046 12.582C60.3826 12.5127 60.4216 12.426 60.4216 12.322V10.255H62.5926V12.439C62.5926 13.2277 62.3586 13.8517 61.8906 14.311C61.4312 14.7703 60.8072 15 60.0186 15H56.9766C56.8899 15 56.8466 14.6143 56.8466 13.843C56.8466 13.063 56.8899 12.673 56.9766 12.673H60.0446ZM60.9286 15.962V17.717H57.1066V15.962H60.9286ZM62.6499 15.702C63.1353 15.702 63.5036 15.5893 63.7549 15.364C64.0063 15.1473 64.1319 14.8267 64.1319 14.402V10.255H66.3549V12.244C66.3549 12.4 66.3853 12.5127 66.4459 12.582C66.5153 12.6427 66.6323 12.673 66.7969 12.673H67.2259C67.3126 12.673 67.3559 13.063 67.3559 13.843C67.3559 14.6143 67.3126 15 67.2259 15H66.9789C66.7016 15 66.4849 14.9523 66.3289 14.857C66.2683 15.4637 66.0863 16.0053 65.7829 16.482C65.4883 16.9587 65.0853 17.3357 64.5739 17.613C64.0626 17.8903 63.4689 18.029 62.7929 18.029H62.2209L62.0389 15.702H62.6499ZM68.2357 12.673C68.877 12.673 69.4187 12.6297 69.8607 12.543C70.3027 12.4563 70.7707 12.296 71.2647 12.062L71.6417 11.854C71.5897 11.6633 71.516 11.5333 71.4207 11.464C71.3253 11.3947 71.191 11.36 71.0177 11.36H68.0797L68.2747 9.124H71.5637C72.0663 9.124 72.4823 9.228 72.8117 9.436C73.1497 9.644 73.44 9.995 73.6827 10.489C73.9253 10.9743 74.1507 11.6503 74.3587 12.517L71.5117 14.168C71.0003 14.4713 70.4933 14.688 69.9907 14.818C69.488 14.9393 68.864 15 68.1187 15H67.2217C67.135 15 67.0917 14.6143 67.0917 13.843C67.0917 13.063 67.135 12.673 67.2217 12.673H68.2357ZM69.4447 8.097V6.342H71.7067V8.097H69.4447Z" fill="white"/>
</svg>
