<svg width="177" height="52" viewBox="0 0 177 52" fill="none" xmlns="http://www.w3.org/2000/svg">
<path d="M170.668 0C173.982 0 176.668 2.68629 176.668 6V37.5752C176.668 40.8889 173.982 43.5752 170.668 43.5752H21.9902L21.9072 51.4209L13.3164 43.5752H6C2.68633 43.5752 6.18312e-05 40.8889 0 37.5752V6C6.83656e-07 2.68629 2.68629 1.8579e-08 6 0H170.668Z" fill="#EAB751"/>
<path d="M22.4516 18.3086C21.6836 18.3086 21.2996 17.9206 21.2996 17.1446C21.2996 16.7446 21.3956 16.4606 21.5876 16.2926C21.7876 16.1246 22.0756 16.0406 22.4516 16.0406C22.8276 16.0406 23.1116 16.1246 23.3036 16.2926C23.4956 16.4606 23.5916 16.7446 23.5916 17.1446C23.5916 17.9206 23.2116 18.3086 22.4516 18.3086ZM25.3556 18.3086C24.5876 18.3086 24.2036 17.9206 24.2036 17.1446C24.2036 16.7446 24.2996 16.4606 24.4916 16.2926C24.6916 16.1246 24.9796 16.0406 25.3556 16.0406C25.7316 16.0406 26.0156 16.1246 26.2076 16.2926C26.3996 16.4606 26.4956 16.7446 26.4956 17.1446C26.4956 17.9206 26.1156 18.3086 25.3556 18.3086ZM19.5356 18.3086C18.7676 18.3086 18.3836 17.9206 18.3836 17.1446C18.3836 16.7446 18.4796 16.4606 18.6716 16.2926C18.8716 16.1246 19.1596 16.0406 19.5356 16.0406C19.9116 16.0406 20.1956 16.1246 20.3876 16.2926C20.5796 16.4606 20.6756 16.7446 20.6756 17.1446C20.6756 17.9206 20.2956 18.3086 19.5356 18.3086ZM34.9609 15.8006C34.9609 15.9286 34.9889 16.0206 35.0449 16.0766C35.1089 16.1326 35.2089 16.1606 35.3449 16.1606H35.7649C35.8449 16.1606 35.8849 16.5206 35.8849 17.2406C35.8849 17.9526 35.8449 18.3086 35.7649 18.3086H35.3929C35.1769 18.3086 35.0209 18.2766 34.9249 18.2126C34.8609 18.7726 34.6809 19.2686 34.3849 19.7006C34.0889 20.1406 33.6929 20.4846 33.1969 20.7326C32.7089 20.9806 32.1489 21.1046 31.5169 21.1046H31.0009C29.9529 21.1046 29.1329 20.7966 28.5409 20.1806C27.9569 19.5726 27.6649 18.7286 27.6649 17.6486V15.1286H29.7169V17.6006C29.7169 18.0566 29.8209 18.3966 30.0289 18.6206C30.2449 18.8446 30.5809 18.9566 31.0369 18.9566H31.5169C31.9649 18.9566 32.3089 18.8486 32.5489 18.6326C32.7969 18.4246 32.9209 18.1326 32.9209 17.7566V13.9286H34.9609V15.8006ZM29.8369 14.0726V12.4526H31.9249V14.0726H29.8369ZM38.6168 16.1606C38.7368 16.1606 38.8328 16.1366 38.9048 16.0886C38.9768 16.0406 39.0128 15.9766 39.0128 15.8966C39.0128 15.7686 38.9328 15.6246 38.7728 15.4646L36.3968 13.1366V11.6006L41.1968 9.81259L41.7008 11.8406L39.0848 12.8246L40.3328 14.0726C40.7168 14.4566 40.9768 14.8046 41.1128 15.1166C41.2568 15.4286 41.3288 15.7806 41.3288 16.1726C41.3288 16.8686 41.1088 17.4006 40.6688 17.7686C40.2368 18.1286 39.6528 18.3086 38.9168 18.3086H35.7608C35.6808 18.3086 35.6408 17.9526 35.6408 17.2406C35.6408 16.5206 35.6808 16.1606 35.7608 16.1606H38.6168ZM50.5471 16.1606C50.6591 16.1606 50.7471 16.1286 50.8111 16.0646C50.8831 16.0006 50.9191 15.9126 50.9191 15.8006V13.9286H52.9711V15.9566C52.9711 16.7006 52.7631 17.2806 52.3471 17.6966C51.9311 18.1046 51.3591 18.3086 50.6311 18.3086H47.0551C46.3111 18.3086 45.7391 18.1086 45.3391 17.7086C44.9391 17.3006 44.7391 16.7206 44.7391 15.9686V13.9286H46.7911V15.6926C46.7911 15.8526 46.8231 15.9726 46.8871 16.0526C46.9591 16.1246 47.0751 16.1606 47.2351 16.1606H50.5471ZM47.8111 20.8166V19.1966H49.8991V20.8166H47.8111ZM57.0058 16.1606C57.0458 16.1606 57.0738 16.2246 57.0898 16.3526C57.1138 16.4806 57.1258 16.7766 57.1258 17.2406C57.1258 17.6886 57.1138 17.9806 57.0898 18.1166C57.0738 18.2446 57.0458 18.3086 57.0058 18.3086H56.4538C55.7098 18.3086 55.1498 18.1046 54.7738 17.6966C54.3978 17.2806 54.2098 16.6886 54.2098 15.9206V10.6166H56.2498V15.7526C56.2498 15.8966 56.2778 16.0006 56.3338 16.0646C56.3898 16.1286 56.4818 16.1606 56.6098 16.1606H57.0058ZM61.0149 12.8846C61.4229 12.8846 61.7709 12.9606 62.0589 13.1126C62.3549 13.2566 62.6189 13.5246 62.8509 13.9166C63.0829 14.3086 63.2909 14.8606 63.4749 15.5726L62.7669 16.0526C62.7909 16.0846 62.8909 16.1126 63.0669 16.1366C63.2509 16.1526 63.3989 16.1606 63.5109 16.1606H64.2309C64.3109 16.1606 64.3509 16.5206 64.3509 17.2406C64.3509 17.7046 64.3389 18.0006 64.3149 18.1286C64.2909 18.2486 64.2629 18.3086 64.2309 18.3086H63.2829C62.8509 18.3086 62.4829 18.2286 62.1789 18.0686C61.8829 17.9086 61.6229 17.6486 61.3989 17.2886L60.9669 17.5406C60.4949 17.8206 60.0269 18.0206 59.5629 18.1406C59.0989 18.2526 58.5229 18.3086 57.8349 18.3086H57.0069C56.9269 18.3086 56.8869 17.9526 56.8869 17.2406C56.8869 16.5206 56.9269 16.1606 57.0069 16.1606H57.9429C58.5349 16.1606 59.0349 16.1206 59.4429 16.0406C59.8509 15.9606 60.2829 15.8126 60.7389 15.5966L61.0869 15.4046C61.0389 15.2286 60.9709 15.1086 60.8829 15.0446C60.7949 14.9806 60.6709 14.9486 60.5109 14.9486H57.7989L57.9789 12.8846H61.0149ZM59.0589 11.9366V10.3166H61.1469V11.9366H59.0589ZM66.2776 16.1606C66.5256 16.1606 66.6496 16.0566 66.6496 15.8486V13.9286H68.6896V15.8246C68.6896 16.0486 68.8136 16.1606 69.0616 16.1606H69.3736C69.4536 16.1606 69.4936 16.5206 69.4936 17.2406C69.4936 17.9526 69.4536 18.3086 69.3736 18.3086H68.9656C68.3496 18.3086 67.9016 18.1526 67.6216 17.8406C67.4696 18.0086 67.2896 18.1286 67.0816 18.2006C66.8736 18.2726 66.6056 18.3086 66.2776 18.3086H64.2256C64.1456 18.3086 64.1056 17.9526 64.1056 17.2406C64.1056 16.5206 64.1456 16.1606 64.2256 16.1606H66.2776ZM68.5216 11.4206V13.0406H64.9936V11.4206H68.5216ZM72.8141 15.9446C72.8141 16.6726 72.5981 17.2486 72.1661 17.6726C71.7421 18.0966 71.1661 18.3086 70.4381 18.3086H69.3701C69.2901 18.3086 69.2501 17.9526 69.2501 17.2406C69.2501 16.5206 69.2901 16.1606 69.3701 16.1606H70.4381C70.5501 16.1606 70.6381 16.1326 70.7021 16.0766C70.7741 16.0126 70.8101 15.9326 70.8101 15.8366V13.9286H72.8141V15.9446ZM70.3421 13.0406V11.4206H72.4301V13.0406H70.3421ZM74.0614 10.6166H76.1014V18.3086H74.0614V10.6166ZM84.4912 17.6966C84.4912 18.7686 84.2112 19.6046 83.6512 20.2046C83.0912 20.8046 82.3192 21.1046 81.3352 21.1046H79.5832L79.4152 18.9926H81.6472C81.9192 18.9926 82.1272 18.9286 82.2712 18.8006C82.4152 18.6806 82.4872 18.5166 82.4872 18.3086H82.0192C81.1152 18.3086 80.4672 18.1206 80.0752 17.7446C79.6912 17.3606 79.4992 16.7366 79.4992 15.8726C79.4992 15.3526 79.6032 14.8926 79.8112 14.4926C80.0192 14.0846 80.3112 13.7646 80.6872 13.5326C81.0632 13.3006 81.4952 13.1846 81.9832 13.1846C82.7752 13.1846 83.3912 13.4286 83.8312 13.9166C84.2712 14.4046 84.4912 15.0926 84.4912 15.9806V17.6966ZM81.4552 15.7646C81.4552 15.9566 81.4992 16.0926 81.5872 16.1726C81.6752 16.2526 81.8272 16.2926 82.0432 16.2926H82.5352V15.8486C82.5352 15.3846 82.3472 15.1526 81.9712 15.1526C81.8032 15.1526 81.6752 15.2086 81.5872 15.3206C81.4992 15.4326 81.4552 15.5806 81.4552 15.7646ZM88.6209 17.7206C88.6209 18.3766 88.4849 18.9606 88.2129 19.4726C87.9489 19.9846 87.5689 20.3846 87.0729 20.6726C86.5769 20.9606 85.9969 21.1046 85.3329 21.1046H84.8049L84.6369 18.9566H85.2009C85.6489 18.9566 85.9889 18.8526 86.2209 18.6446C86.4529 18.4446 86.5689 18.1486 86.5689 17.7566V13.9286H88.6209V17.7206ZM97.6448 16.1606C97.8928 16.1606 98.0168 16.0566 98.0168 15.8486V13.9286H100.069V15.8246C100.069 16.0486 100.193 16.1606 100.441 16.1606H100.753C100.833 16.1606 100.873 16.5206 100.873 17.2406C100.873 17.9526 100.833 18.3086 100.753 18.3086H100.333C99.7088 18.3086 99.2648 18.1526 99.0008 17.8406C98.8488 18.0086 98.6648 18.1286 98.4488 18.2006C98.2408 18.2726 97.9728 18.3086 97.6448 18.3086H94.1528C93.4088 18.3086 92.8368 18.1086 92.4368 17.7086C92.0368 17.3006 91.8368 16.7206 91.8368 15.9686V13.9286H93.8888V15.6926C93.8888 15.8526 93.9208 15.9726 93.9848 16.0526C94.0568 16.1246 94.1728 16.1606 94.3328 16.1606H97.6448ZM97.7168 11.5526V13.1726H94.1888V11.5526H97.7168ZM108.445 14.4446C108.949 14.9806 109.201 15.5566 109.201 16.1726C109.201 16.5806 109.105 16.9486 108.913 17.2766C108.721 17.5966 108.445 17.8486 108.085 18.0326C107.725 18.2166 107.305 18.3086 106.825 18.3086H105.361C104.969 18.3086 104.661 18.3006 104.437 18.2846C104.213 18.2606 104.013 18.2126 103.837 18.1406C103.621 18.2126 103.377 18.2606 103.105 18.2846C102.841 18.3006 102.529 18.3086 102.169 18.3086H100.753C100.673 18.3086 100.633 17.9526 100.633 17.2406C100.633 16.5206 100.673 16.1606 100.753 16.1606H101.689C101.633 16.0806 101.589 15.9646 101.557 15.8126C101.525 15.6526 101.509 15.4926 101.509 15.3326C101.509 14.9086 101.617 14.5126 101.833 14.1446C102.057 13.7766 102.357 13.4846 102.733 13.2686C103.117 13.0446 103.541 12.9326 104.005 12.9326C104.253 12.9326 104.481 12.9726 104.689 13.0526L105.961 11.7806L108.445 14.4446ZM106.669 16.1606C106.957 16.1606 107.101 16.0686 107.101 15.8846C107.101 15.7646 107.017 15.6166 106.849 15.4406L106.225 14.8166C106.249 14.9366 106.261 15.0526 106.261 15.1646C106.261 15.3566 106.237 15.5406 106.189 15.7166C106.141 15.8926 106.077 16.0406 105.997 16.1606H106.669ZM103.861 16.1966C104.245 15.9886 104.437 15.7166 104.437 15.3806C104.437 15.2286 104.385 15.1046 104.281 15.0086C104.185 14.9046 104.053 14.8526 103.885 14.8526C103.717 14.8526 103.581 14.9046 103.477 15.0086C103.381 15.1046 103.333 15.2286 103.333 15.3806C103.333 15.7246 103.509 15.9966 103.861 16.1966ZM110.436 10.6166H112.476V18.3086H110.436V10.6166ZM119.548 16.1606C119.628 16.1606 119.668 16.5206 119.668 17.2406C119.668 17.9526 119.628 18.3086 119.548 18.3086H118.756C118.668 19.1886 118.348 19.8726 117.796 20.3606C117.252 20.8566 116.536 21.1046 115.648 21.1046H113.896L113.728 18.9926H115.96C116.232 18.9926 116.44 18.9286 116.584 18.8006C116.728 18.6806 116.8 18.5166 116.8 18.3086H116.332C115.428 18.3086 114.78 18.1206 114.388 17.7446C114.004 17.3606 113.812 16.7366 113.812 15.8726C113.812 15.3526 113.916 14.8926 114.124 14.4926C114.332 14.0846 114.624 13.7646 115 13.5326C115.376 13.3006 115.808 13.1846 116.296 13.1846C117.088 13.1846 117.704 13.4286 118.144 13.9166C118.584 14.4046 118.804 15.0926 118.804 15.9806V16.1606H119.548ZM115.768 15.7646C115.768 15.9566 115.812 16.0926 115.9 16.1726C115.988 16.2526 116.14 16.2926 116.356 16.2926H116.848V15.8486C116.848 15.3846 116.66 15.1526 116.284 15.1526C116.116 15.1526 115.988 15.2086 115.9 15.3206C115.812 15.4326 115.768 15.5806 115.768 15.7646ZM123.558 12.8846C123.966 12.8846 124.314 12.9606 124.602 13.1126C124.898 13.2566 125.162 13.5246 125.394 13.9166C125.626 14.3086 125.834 14.8606 126.018 15.5726L125.31 16.0526C125.334 16.0846 125.434 16.1126 125.61 16.1366C125.794 16.1526 125.942 16.1606 126.054 16.1606H126.774C126.854 16.1606 126.894 16.5206 126.894 17.2406C126.894 17.7046 126.882 18.0006 126.858 18.1286C126.834 18.2486 126.806 18.3086 126.774 18.3086H125.826C125.394 18.3086 125.026 18.2286 124.722 18.0686C124.426 17.9086 124.166 17.6486 123.942 17.2886L123.51 17.5406C123.038 17.8206 122.57 18.0206 122.106 18.1406C121.642 18.2526 121.066 18.3086 120.378 18.3086H119.55C119.47 18.3086 119.43 17.9526 119.43 17.2406C119.43 16.5206 119.47 16.1606 119.55 16.1606H120.486C121.078 16.1606 121.578 16.1206 121.986 16.0406C122.394 15.9606 122.826 15.8126 123.282 15.5966L123.63 15.4046C123.582 15.2286 123.514 15.1086 123.426 15.0446C123.338 14.9806 123.214 14.9486 123.054 14.9486H120.342L120.522 12.8846H123.558ZM121.602 11.9366V10.3166H123.69V11.9366H121.602ZM127.237 16.1606C127.341 16.1606 127.429 16.1286 127.501 16.0646C127.573 16.0006 127.609 15.9126 127.609 15.8006V10.6166H129.649V15.9446C129.649 16.6886 129.441 17.2686 129.025 17.6846C128.617 18.1006 128.049 18.3086 127.321 18.3086H126.769C126.689 18.3086 126.649 17.9526 126.649 17.2406C126.649 16.5206 126.689 16.1606 126.769 16.1606H127.237ZM135.6 14.2406C135.928 14.6326 136.156 14.9886 136.284 15.3086C136.412 15.6206 136.476 15.9366 136.476 16.2566C136.476 16.8726 136.268 17.3686 135.852 17.7446C135.436 18.1206 134.868 18.3086 134.148 18.3086H130.86L130.704 16.1606H133.716C133.836 16.1606 133.932 16.1366 134.004 16.0886C134.084 16.0406 134.124 15.9766 134.124 15.8966C134.124 15.7846 134.048 15.6406 133.896 15.4646L132.036 13.2566L133.572 11.7686L135.6 14.2406ZM145.36 18.2846C145.36 18.1726 145.328 18.0926 145.264 18.0446C145.2 17.9886 145.112 17.9606 145 17.9606H142.684V15.4526C142.684 14.6926 142.904 14.0846 143.344 13.6286C143.784 13.1646 144.372 12.9326 145.108 12.9326H146.98L147.088 15.0206H145.144C145.024 15.0206 144.924 15.0566 144.844 15.1286C144.764 15.2006 144.724 15.3046 144.724 15.4406V15.8486H145.324C146.708 15.8486 147.4 16.5526 147.4 17.9606C147.4 18.5366 147.252 19.0646 146.956 19.5446C146.668 20.0246 146.26 20.4046 145.732 20.6846C145.212 20.9646 144.62 21.1046 143.956 21.1046H143.02C141.972 21.1046 141.152 20.7966 140.56 20.1806C139.976 19.5726 139.684 18.7286 139.684 17.6486V15.1286H141.736V17.6006C141.736 18.0566 141.84 18.3966 142.048 18.6206C142.264 18.8446 142.6 18.9566 143.056 18.9566H144.04C144.496 18.9566 144.828 18.8966 145.036 18.7766C145.252 18.6566 145.36 18.4926 145.36 18.2846ZM150.691 10.6166V16.1606H151.375C151.487 16.1606 151.575 16.1286 151.639 16.0646C151.711 16.0006 151.747 15.9126 151.747 15.8006V10.6166H153.799V15.7406C153.799 16.0206 153.935 16.1606 154.207 16.1606H154.615C154.655 16.1606 154.683 16.2246 154.699 16.3526C154.723 16.4806 154.735 16.7766 154.735 17.2406C154.735 17.6886 154.723 17.9806 154.699 18.1166C154.683 18.2446 154.655 18.3086 154.615 18.3086H154.195C153.859 18.3086 153.579 18.2726 153.355 18.2006C153.139 18.1286 152.959 18.0086 152.815 17.8406C152.647 18.0086 152.451 18.1286 152.227 18.2006C152.011 18.2726 151.755 18.3086 151.459 18.3086H148.651V10.6166H150.691ZM157.408 10.6166V13.7246C157.632 13.4766 157.884 13.2926 158.164 13.1726C158.444 13.0526 158.732 12.9926 159.028 12.9926C159.492 12.9926 159.904 13.1046 160.264 13.3286C160.624 13.5446 160.904 13.8526 161.104 14.2526C161.304 14.6446 161.404 15.0926 161.404 15.5966C161.404 16.4206 161.156 17.0806 160.66 17.5766C160.172 18.0646 159.512 18.3086 158.68 18.3086H154.612C154.532 18.3086 154.492 17.9526 154.492 17.2406C154.492 16.5206 154.532 16.1606 154.612 16.1606H155.356V10.6166H157.408ZM158.728 16.1966C158.936 16.1966 159.1 16.1446 159.22 16.0406C159.34 15.9286 159.4 15.7806 159.4 15.5966C159.4 15.4366 159.348 15.3046 159.244 15.2006C159.148 15.0886 159.02 15.0326 158.86 15.0326C158.516 15.0326 158.008 15.4206 157.336 16.1966H158.728ZM18.7624 29.0286C18.6584 28.2366 18.5824 27.5646 18.5344 27.0126C18.4944 26.4526 18.4744 25.8206 18.4744 25.1166V23.6166H20.5384V25.1166C20.5384 25.8366 20.5184 26.4766 20.4784 27.0366C20.4384 27.5966 20.3664 28.2606 20.2624 29.0286H18.7624ZM19.5064 31.5846C18.7384 31.5846 18.3544 31.2326 18.3544 30.5286C18.3544 30.1686 18.4504 29.9126 18.6424 29.7606C18.8424 29.6006 19.1304 29.5206 19.5064 29.5206C19.8824 29.5206 20.1664 29.6006 20.3584 29.7606C20.5504 29.9126 20.6464 30.1686 20.6464 30.5286C20.6464 31.2326 20.2664 31.5846 19.5064 31.5846ZM24.3674 29.1606C24.4714 29.1606 24.5594 29.1366 24.6314 29.0886C24.7034 29.0406 24.7394 28.9766 24.7394 28.8966C24.7394 28.8406 24.6994 28.7086 24.6194 28.5006C24.5474 28.2846 24.4514 28.0206 24.3314 27.7086C24.2114 27.3966 24.1114 27.1406 24.0314 26.9406L23.5634 25.7286L25.4834 24.8166L26.9114 28.7526C27.0074 29.0246 27.1674 29.1606 27.3914 29.1606H27.7634C27.8434 29.1606 27.8834 29.5206 27.8834 30.2406C27.8834 30.7046 27.8714 31.0006 27.8474 31.1286C27.8234 31.2486 27.7954 31.3086 27.7634 31.3086H27.2234C26.6234 31.3086 26.1834 31.1446 25.9034 30.8166C25.7194 31.0006 25.5314 31.1286 25.3394 31.2006C25.1554 31.2726 24.9434 31.3086 24.7034 31.3086H21.7874L21.6314 29.1606H24.3674ZM28.5067 29.1606C28.7867 29.1606 28.9267 29.0446 28.9267 28.8126V26.9286H30.9307V28.8126C30.9307 29.0446 31.0627 29.1606 31.3267 29.1606C31.5987 29.1606 31.7347 29.0446 31.7347 28.8126V26.9286H33.7387V28.8006C33.7387 28.9126 33.7707 29.0006 33.8347 29.0646C33.9067 29.1286 34.0027 29.1606 34.1227 29.1606C34.2427 29.1606 34.3347 29.1286 34.3987 29.0646C34.4707 29.0006 34.5067 28.9126 34.5067 28.8006V26.9286H36.5107V28.8966C36.5107 29.6406 36.2947 30.2286 35.8627 30.6606C35.4307 31.0926 34.8427 31.3086 34.0987 31.3086C33.4587 31.3086 32.9907 31.1446 32.6947 30.8166C32.5427 30.9846 32.3587 31.1086 32.1427 31.1886C31.9347 31.2686 31.6587 31.3086 31.3147 31.3086C30.6507 31.3086 30.1787 31.1446 29.8987 30.8166C29.7467 30.9846 29.5627 31.1086 29.3467 31.1886C29.1307 31.2686 28.8507 31.3086 28.5067 31.3086H27.7627C27.6827 31.3086 27.6427 30.9526 27.6427 30.2406C27.6427 29.5206 27.6827 29.1606 27.7627 29.1606H28.5067ZM33.5347 22.3806V23.9886H31.8547V22.3806H33.5347ZM34.4587 24.4206V26.0406H30.9307V24.4206H34.4587ZM40.9651 29.8926C40.8211 29.7406 40.7131 29.5486 40.6411 29.3166C40.5691 29.0846 40.5331 28.8366 40.5331 28.5726C40.5331 28.0926 40.6371 27.6606 40.8451 27.2766C41.0531 26.8846 41.3411 26.5806 41.7091 26.3646C42.0851 26.1406 42.5131 26.0286 42.9931 26.0286C43.3211 26.0286 43.6371 26.0726 43.9411 26.1606C44.2531 26.2486 44.5811 26.3966 44.9251 26.6046L44.3011 28.3566C43.7891 28.1646 43.3811 28.0686 43.0771 28.0686C42.9091 28.0686 42.7691 28.1166 42.6571 28.2126C42.5531 28.3086 42.5011 28.4366 42.5011 28.5966C42.5011 28.7646 42.5491 28.8966 42.6451 28.9926C42.7411 29.0886 42.8851 29.1366 43.0771 29.1366H45.1771L45.0211 31.2966H42.8851C42.5491 31.2966 42.2811 31.3846 42.0811 31.5606C41.8891 31.7446 41.7931 31.9926 41.7931 32.3046C41.7931 32.6166 41.9051 32.8526 42.1291 33.0126C42.3611 33.1726 42.7051 33.2526 43.1611 33.2526H45.3811L45.2131 35.4006H43.1011C40.8611 35.4006 39.7411 34.3886 39.7411 32.3646C39.7411 31.8686 39.8451 31.4046 40.0531 30.9726C40.2691 30.5406 40.5731 30.1806 40.9651 29.8926ZM51.6259 30.6966C51.6259 31.7686 51.3459 32.6046 50.7859 33.2046C50.2259 33.8046 49.4539 34.1046 48.4699 34.1046H46.7179L46.5499 31.9926H48.7819C49.0539 31.9926 49.2619 31.9286 49.4059 31.8006C49.5499 31.6806 49.6219 31.5166 49.6219 31.3086H49.1539C48.2499 31.3086 47.6019 31.1206 47.2099 30.7446C46.8259 30.3606 46.6339 29.7366 46.6339 28.8726C46.6339 28.3526 46.7379 27.8926 46.9459 27.4926C47.1539 27.0846 47.4459 26.7646 47.8219 26.5326C48.1979 26.3006 48.6299 26.1846 49.1179 26.1846C49.9099 26.1846 50.5259 26.4286 50.9659 26.9166C51.4059 27.4046 51.6259 28.0926 51.6259 28.9806V30.6966ZM48.5899 28.7646C48.5899 28.9566 48.6339 29.0926 48.7219 29.1726C48.8099 29.2526 48.9619 29.2926 49.1779 29.2926H49.6699V28.8486C49.6699 28.3846 49.4819 28.1526 49.1059 28.1526C48.9379 28.1526 48.8099 28.2086 48.7219 28.3206C48.6339 28.4326 48.5899 28.5806 48.5899 28.7646ZM52.3356 31.9566C52.7836 31.9566 53.1236 31.8526 53.3556 31.6446C53.5876 31.4446 53.7036 31.1486 53.7036 30.7566V26.9286H55.7556V28.7646C55.7556 28.9086 55.7836 29.0126 55.8396 29.0766C55.9036 29.1326 56.0116 29.1606 56.1636 29.1606H56.5596C56.6396 29.1606 56.6796 29.5206 56.6796 30.2406C56.6796 30.9526 56.6396 31.3086 56.5596 31.3086H56.3316C56.0756 31.3086 55.8756 31.2646 55.7316 31.1766C55.6756 31.7366 55.5076 32.2366 55.2276 32.6766C54.9556 33.1166 54.5836 33.4646 54.1116 33.7206C53.6396 33.9766 53.0916 34.1046 52.4676 34.1046H51.9396L51.7716 31.9566H52.3356ZM57.2997 29.1606C57.5797 29.1606 57.7197 29.0446 57.7197 28.8126V26.9286H59.7237V28.8126C59.7237 29.0446 59.8557 29.1606 60.1197 29.1606C60.3917 29.1606 60.5277 29.0446 60.5277 28.8126V26.9286H62.5317V28.8006C62.5317 28.9126 62.5637 29.0006 62.6277 29.0646C62.6997 29.1286 62.7957 29.1606 62.9157 29.1606C63.0357 29.1606 63.1277 29.1286 63.1917 29.0646C63.2637 29.0006 63.2997 28.9126 63.2997 28.8006V26.9286H65.3037V28.8966C65.3037 29.6406 65.0877 30.2286 64.6557 30.6606C64.2237 31.0926 63.6357 31.3086 62.8917 31.3086C62.2517 31.3086 61.7837 31.1446 61.4877 30.8166C61.3357 30.9846 61.1517 31.1086 60.9357 31.1886C60.7277 31.2686 60.4517 31.3086 60.1077 31.3086C59.4437 31.3086 58.9717 31.1446 58.6917 30.8166C58.5397 30.9846 58.3557 31.1086 58.1397 31.1886C57.9237 31.2686 57.6437 31.3086 57.2997 31.3086H56.5557C56.4757 31.3086 56.4357 30.9526 56.4357 30.2406C56.4357 29.5206 56.4757 29.1606 56.5557 29.1606H57.2997ZM62.3277 22.3806V23.9886H60.6477V22.3806H62.3277ZM63.2517 24.4206V26.0406H59.7237V24.4206H63.2517ZM76.778 29.1606C76.858 29.1606 76.898 29.5206 76.898 30.2406C76.898 30.9526 76.858 31.3086 76.778 31.3086H76.082C76.098 31.3406 76.106 31.3806 76.106 31.4286C76.074 31.9566 75.914 32.4206 75.626 32.8206C75.346 33.2286 74.958 33.5446 74.462 33.7686C73.966 33.9926 73.402 34.1046 72.77 34.1046H71.87C70.822 34.1046 70.002 33.7966 69.41 33.1806C68.826 32.5726 68.534 31.7286 68.534 30.6486V28.1286H70.586V30.6006C70.586 31.0566 70.69 31.3966 70.898 31.6206C71.114 31.8446 71.45 31.9566 71.906 31.9566H72.938C73.362 31.9566 73.662 31.9126 73.838 31.8246C74.014 31.7366 74.102 31.6046 74.102 31.4286C74.102 31.2206 73.99 31.1166 73.766 31.1166H71.666L71.834 29.1606H76.778ZM80.2263 28.9446C80.2263 29.6726 80.0103 30.2486 79.5783 30.6726C79.1543 31.0966 78.5783 31.3086 77.8503 31.3086H76.7823C76.7023 31.3086 76.6623 30.9526 76.6623 30.2406C76.6623 29.5206 76.7023 29.1606 76.7823 29.1606H77.8503C77.9623 29.1606 78.0503 29.1326 78.1143 29.0766C78.1863 29.0126 78.2223 28.9326 78.2223 28.8366V26.9286H80.2263V28.9446ZM76.6983 33.8166V32.1966H78.7863V33.8166H76.6983ZM86.4775 30.6966C86.4775 31.7686 86.1975 32.6046 85.6375 33.2046C85.0775 33.8046 84.3055 34.1046 83.3215 34.1046H81.5695L81.4015 31.9926H83.6335C83.9055 31.9926 84.1135 31.9286 84.2575 31.8006C84.4015 31.6806 84.4735 31.5166 84.4735 31.3086H84.0055C83.1015 31.3086 82.4535 31.1206 82.0615 30.7446C81.6775 30.3606 81.4855 29.7366 81.4855 28.8726C81.4855 28.3526 81.5895 27.8926 81.7975 27.4926C82.0055 27.0846 82.2975 26.7646 82.6735 26.5326C83.0495 26.3006 83.4815 26.1846 83.9695 26.1846C84.7615 26.1846 85.3775 26.4286 85.8175 26.9166C86.2575 27.4046 86.4775 28.0926 86.4775 28.9806V30.6966ZM83.4415 28.7646C83.4415 28.9566 83.4855 29.0926 83.5735 29.1726C83.6615 29.2526 83.8135 29.2926 84.0295 29.2926H84.5215V28.8486C84.5215 28.3846 84.3335 28.1526 83.9575 28.1526C83.7895 28.1526 83.6615 28.2086 83.5735 28.3206C83.4855 28.4326 83.4415 28.5806 83.4415 28.7646ZM90.6072 30.7206C90.6072 31.3766 90.4712 31.9606 90.1992 32.4726C89.9352 32.9846 89.5552 33.3846 89.0592 33.6726C88.5632 33.9606 87.9832 34.1046 87.3192 34.1046H86.7912L86.6232 31.9566H87.1872C87.6352 31.9566 87.9752 31.8526 88.2072 31.6446C88.4392 31.4446 88.5552 31.1486 88.5552 30.7566V26.9286H90.6072V30.7206ZM102.067 29.1606C102.147 29.1606 102.187 29.5206 102.187 30.2406C102.187 30.9526 102.147 31.3086 102.067 31.3086H101.371C101.387 31.3406 101.395 31.3806 101.395 31.4286C101.363 31.9566 101.203 32.4206 100.915 32.8206C100.635 33.2286 100.247 33.5446 99.7511 33.7686C99.2551 33.9926 98.6911 34.1046 98.0591 34.1046H97.1591C96.1111 34.1046 95.2911 33.7966 94.6991 33.1806C94.1151 32.5726 93.8231 31.7286 93.8231 30.6486V28.1286H95.8751V30.6006C95.8751 31.0566 95.9791 31.3966 96.1871 31.6206C96.4031 31.8446 96.7391 31.9566 97.1951 31.9566H98.2271C98.6511 31.9566 98.9511 31.9126 99.1271 31.8246C99.3031 31.7366 99.3911 31.6046 99.3911 31.4286C99.3911 31.2206 99.2791 31.1166 99.0551 31.1166H96.9551L97.1231 29.1606H102.067ZM104.903 29.1606C104.999 29.1606 105.079 29.1326 105.143 29.0766C105.215 29.0126 105.251 28.9326 105.251 28.8366V26.9286H107.255V28.9446C107.255 29.6726 107.039 30.2486 106.607 30.6726C106.183 31.0966 105.607 31.3086 104.879 31.3086H102.071C101.991 31.3086 101.951 30.9526 101.951 30.2406C101.951 29.5206 101.991 29.1606 102.071 29.1606H104.903ZM105.719 32.1966V33.8166H102.191V32.1966H105.719ZM110.549 23.6166V29.1606H111.233C111.345 29.1606 111.433 29.1286 111.497 29.0646C111.569 29.0006 111.605 28.9126 111.605 28.8006V23.6166H113.657V28.7406C113.657 29.0206 113.793 29.1606 114.065 29.1606H114.473C114.513 29.1606 114.541 29.2246 114.557 29.3526C114.581 29.4806 114.593 29.7766 114.593 30.2406C114.593 30.6886 114.581 30.9806 114.557 31.1166C114.541 31.2446 114.513 31.3086 114.473 31.3086H114.053C113.717 31.3086 113.437 31.2726 113.213 31.2006C112.997 31.1286 112.817 31.0086 112.673 30.8406C112.505 31.0086 112.309 31.1286 112.085 31.2006C111.869 31.2726 111.613 31.3086 111.317 31.3086H108.509V23.6166H110.549ZM117.266 23.6166V26.7246C117.49 26.4766 117.742 26.2926 118.022 26.1726C118.302 26.0526 118.59 25.9926 118.886 25.9926C119.35 25.9926 119.762 26.1046 120.122 26.3286C120.482 26.5446 120.762 26.8526 120.962 27.2526C121.162 27.6446 121.262 28.0926 121.262 28.5966C121.262 29.4206 121.014 30.0806 120.518 30.5766C120.03 31.0646 119.37 31.3086 118.538 31.3086H114.47C114.39 31.3086 114.35 30.9526 114.35 30.2406C114.35 29.5206 114.39 29.1606 114.47 29.1606H115.214V23.6166H117.266ZM118.586 29.1966C118.794 29.1966 118.958 29.1446 119.078 29.0406C119.198 28.9286 119.258 28.7806 119.258 28.5966C119.258 28.4366 119.206 28.3046 119.102 28.2006C119.006 28.0886 118.878 28.0326 118.718 28.0326C118.374 28.0326 117.866 28.4206 117.194 29.1966H118.586ZM130.155 31.2846C130.155 31.1726 130.123 31.0926 130.059 31.0446C129.995 30.9886 129.907 30.9606 129.795 30.9606H127.479V28.4526C127.479 27.6926 127.699 27.0846 128.139 26.6286C128.579 26.1646 129.167 25.9326 129.903 25.9326H131.775L131.883 28.0206H129.939C129.819 28.0206 129.719 28.0566 129.639 28.1286C129.559 28.2006 129.519 28.3046 129.519 28.4406V28.8486H130.119C131.503 28.8486 132.195 29.5526 132.195 30.9606C132.195 31.5366 132.047 32.0646 131.751 32.5446C131.463 33.0246 131.055 33.4046 130.527 33.6846C130.007 33.9646 129.415 34.1046 128.751 34.1046H127.815C126.767 34.1046 125.947 33.7966 125.355 33.1806C124.771 32.5726 124.479 31.7286 124.479 30.6486V28.1286H126.531V30.6006C126.531 31.0566 126.635 31.3966 126.843 31.6206C127.059 31.8446 127.395 31.9566 127.851 31.9566H128.835C129.291 31.9566 129.623 31.8966 129.831 31.7766C130.047 31.6566 130.155 31.4926 130.155 31.2846ZM138.318 28.7406C138.318 29.0206 138.438 29.1606 138.678 29.1606H139.122C139.162 29.1606 139.19 29.2246 139.206 29.3526C139.23 29.4806 139.242 29.7766 139.242 30.2406C139.242 30.6886 139.23 30.9806 139.206 31.1166C139.19 31.2446 139.162 31.3086 139.122 31.3086H138.642C137.81 31.3086 137.278 31.0046 137.046 30.3966C136.71 30.6766 136.222 30.8166 135.582 30.8166C134.886 30.8166 134.342 30.6126 133.95 30.2046C133.558 29.7886 133.362 29.1686 133.362 28.3446C133.362 27.8966 133.462 27.4686 133.662 27.0606C133.862 26.6526 134.146 26.3246 134.514 26.0766C134.882 25.8206 135.306 25.6926 135.786 25.6926H136.278V24.9126H138.318V28.7406ZM135.33 28.2966C135.33 28.6246 135.494 28.7886 135.822 28.7886C136.182 28.7886 136.362 28.6406 136.362 28.3446V27.6966H135.954C135.73 27.6966 135.57 27.7446 135.474 27.8406C135.378 27.9366 135.33 28.0886 135.33 28.2966ZM140.266 29.1606C140.514 29.1606 140.638 29.0566 140.638 28.8486V26.9286H142.678V28.8246C142.678 29.0486 142.806 29.1606 143.062 29.1606H143.362C143.442 29.1606 143.482 29.5206 143.482 30.2406C143.482 30.9526 143.442 31.3086 143.362 31.3086H142.954C142.33 31.3086 141.886 31.1526 141.622 30.8406C141.47 31.0086 141.286 31.1286 141.07 31.2006C140.862 31.2726 140.594 31.3086 140.266 31.3086H139.126C139.046 31.3086 139.006 30.9526 139.006 30.2406C139.006 29.5206 139.046 29.1606 139.126 29.1606H140.266ZM142.738 24.4206V26.0406H139.21V24.4206H142.738ZM144.28 29.1606C144.224 29.0486 144.176 28.9086 144.136 28.7406C144.104 28.5646 144.088 28.3926 144.088 28.2246C144.088 27.7606 144.2 27.3406 144.424 26.9646C144.648 26.5886 144.952 26.2926 145.336 26.0766C145.72 25.8526 146.144 25.7406 146.608 25.7406C147.096 25.7406 147.528 25.8446 147.904 26.0526C148.288 26.2606 148.584 26.5486 148.792 26.9166C149 27.2846 149.104 27.7006 149.104 28.1646C149.104 28.5566 149.016 28.8886 148.84 29.1606H149.872C149.912 29.1606 149.94 29.2246 149.956 29.3526C149.98 29.4806 149.992 29.7766 149.992 30.2406C149.992 30.6886 149.98 30.9806 149.956 31.1166C149.94 31.2446 149.912 31.3086 149.872 31.3086H148.204C147.788 31.3086 147.452 31.2886 147.196 31.2486C146.948 31.2086 146.74 31.1406 146.572 31.0446C146.276 31.2206 145.76 31.3086 145.024 31.3086H143.356C143.276 31.3086 143.236 30.9526 143.236 30.2406C143.236 29.5206 143.276 29.1606 143.356 29.1606H144.28ZM146.608 27.7446C146.432 27.7446 146.292 27.8006 146.188 27.9126C146.092 28.0166 146.044 28.1526 146.044 28.3206C146.044 28.4726 146.096 28.6286 146.2 28.7886C146.304 28.9406 146.44 29.0646 146.608 29.1606C146.784 29.0806 146.924 28.9606 147.028 28.8006C147.132 28.6406 147.184 28.4806 147.184 28.3206C147.184 28.1446 147.132 28.0046 147.028 27.9006C146.932 27.7966 146.792 27.7446 146.608 27.7446ZM145.564 24.9126V23.2926H147.652V24.9126H145.564ZM157.564 27.4446C158.068 27.9806 158.32 28.5566 158.32 29.1726C158.32 29.5806 158.224 29.9486 158.032 30.2766C157.84 30.5966 157.564 30.8486 157.204 31.0326C156.844 31.2166 156.424 31.3086 155.944 31.3086H154.48C154.088 31.3086 153.78 31.3006 153.556 31.2846C153.332 31.2606 153.132 31.2126 152.956 31.1406C152.74 31.2126 152.496 31.2606 152.224 31.2846C151.96 31.3006 151.648 31.3086 151.288 31.3086H149.872C149.792 31.3086 149.752 30.9526 149.752 30.2406C149.752 29.5206 149.792 29.1606 149.872 29.1606H150.808C150.752 29.0806 150.708 28.9646 150.676 28.8126C150.644 28.6526 150.628 28.4926 150.628 28.3326C150.628 27.9086 150.736 27.5126 150.952 27.1446C151.176 26.7766 151.476 26.4846 151.852 26.2686C152.236 26.0446 152.66 25.9326 153.124 25.9326C153.372 25.9326 153.6 25.9726 153.808 26.0526L155.08 24.7806L157.564 27.4446ZM155.788 29.1606C156.076 29.1606 156.22 29.0686 156.22 28.8846C156.22 28.7646 156.136 28.6166 155.968 28.4406L155.344 27.8166C155.368 27.9366 155.38 28.0526 155.38 28.1646C155.38 28.3566 155.356 28.5406 155.308 28.7166C155.26 28.8926 155.196 29.0406 155.116 29.1606H155.788ZM152.98 29.1966C153.364 28.9886 153.556 28.7166 153.556 28.3806C153.556 28.2286 153.504 28.1046 153.4 28.0086C153.304 27.9046 153.172 27.8526 153.004 27.8526C152.836 27.8526 152.7 27.9046 152.596 28.0086C152.5 28.1046 152.452 28.2286 152.452 28.3806C152.452 28.7246 152.628 28.9966 152.98 29.1966Z" fill="white"/>
</svg>
