<svg width="93" height="35" viewBox="0 0 93 35" fill="none" xmlns="http://www.w3.org/2000/svg">
<path d="M3.56198 10.8289C3.56198 10.943 3.50494 11 3.39087 11H3.0242C2.71457 11 2.42124 10.943 2.1442 10.8289C1.87531 10.7067 1.63901 10.5478 1.43531 10.3522C1.23161 10.1485 1.06864 9.91222 0.946422 9.64333C0.832348 9.3663 0.775311 9.07296 0.775311 8.76333V2.51778H2.29087V8.72667C2.29087 8.86519 2.33568 8.98333 2.42531 9.08111C2.52309 9.17074 2.64124 9.21556 2.77976 9.21556H3.39087C3.43976 9.21556 3.4805 9.23593 3.51309 9.27667C3.54568 9.30926 3.56198 9.35 3.56198 9.39889V10.8289ZM6.63739 11C6.35221 11 6.07925 10.947 5.81851 10.8411C5.56591 10.727 5.33776 10.5478 5.13406 10.3033C4.92221 10.5478 4.68999 10.727 4.43739 10.8411C4.1848 10.947 3.91591 11 3.63073 11H3.38628C3.34554 11 3.30888 10.9837 3.27628 10.9511C3.23554 10.9104 3.21517 10.8696 3.21517 10.8289V9.39889C3.21517 9.35 3.23554 9.30926 3.27628 9.27667C3.30888 9.23593 3.34554 9.21556 3.38628 9.21556H3.87517C4.01369 9.20741 4.12776 9.15852 4.21739 9.06889C4.31517 8.97111 4.36406 8.85296 4.36406 8.71444V6.42889H5.87962V8.71444C5.87962 8.85296 5.92851 8.97111 6.02628 9.06889C6.13221 9.16667 6.24221 9.21556 6.35628 9.21556H6.77184C6.91036 9.21556 7.02851 9.17074 7.12628 9.08111C7.23221 8.99148 7.29739 8.87741 7.32184 8.73889L7.77406 6.44111L9.28962 6.71L8.89851 8.64111C8.86591 8.79593 8.89851 8.93037 8.99628 9.04444C9.09406 9.15852 9.21628 9.21556 9.36295 9.21556H9.83962C9.97814 9.21556 10.0922 9.17074 10.1818 9.08111C10.2796 8.98333 10.3285 8.86519 10.3285 8.72667V6.11111H11.8441V8.70222C11.8441 8.85704 11.8889 8.98333 11.9785 9.08111C12.0763 9.17074 12.1944 9.21556 12.333 9.21556H12.8096C12.9237 9.21556 12.9807 9.27259 12.9807 9.38667V10.8167C12.9807 10.8656 12.9644 10.9104 12.9318 10.9511C12.9074 10.9837 12.8667 11 12.8096 11H12.5774C12.2841 11 12.0111 10.947 11.7585 10.8411C11.5059 10.727 11.2778 10.5478 11.0741 10.3033C10.8704 10.5478 10.6341 10.727 10.3652 10.8411C10.1044 10.947 9.82739 11 9.53406 11C9.27332 11 9.00443 10.9511 8.72739 10.8533C8.45036 10.7474 8.22221 10.5641 8.04295 10.3033C7.84739 10.5641 7.62739 10.7474 7.38295 10.8533C7.14665 10.9511 6.89814 11 6.63739 11ZM13.0478 12.4667H14.5633V13.9944H13.0478V12.4667ZM15.1989 12.4667H16.7266V13.9944H15.1989V12.4667ZM16.0178 9.21556C16.1563 9.21556 16.2704 9.17074 16.36 9.08111C16.4578 8.98333 16.5066 8.86519 16.5066 8.72667V6.08667H18.0222V8.71444C18.0222 9.03222 17.9611 9.32963 17.8389 9.60667C17.7248 9.8837 17.5618 10.1281 17.35 10.34C17.1463 10.5437 16.9059 10.7067 16.6289 10.8289C16.3518 10.943 16.0544 11 15.7366 11H12.8155C12.7666 11 12.7259 10.9837 12.6933 10.9511C12.6607 10.9104 12.6444 10.8696 12.6444 10.8289V9.41111C12.6444 9.36222 12.6607 9.31741 12.6933 9.27667C12.7259 9.23593 12.7666 9.21556 12.8155 9.21556H16.0178ZM17.9354 14.1656L17.471 12.7356L19.3287 12.1367C19.6139 12.0389 19.8461 11.8678 20.0254 11.6233C20.2047 11.3789 20.2943 11.1019 20.2943 10.7922V6.44111H21.8099V10.6333C21.8099 10.9674 21.7569 11.2852 21.651 11.5867C21.5532 11.8963 21.4106 12.1774 21.2232 12.43C21.0439 12.6907 20.8239 12.9148 20.5632 13.1022C20.3106 13.2978 20.0295 13.4485 19.7199 13.5544L17.9354 14.1656ZM28.8769 2.51778V8.47C28.8769 8.75519 28.8239 9.0363 28.718 9.31333C28.6121 9.58222 28.4654 9.82667 28.278 10.0467C28.0906 10.2585 27.8665 10.4419 27.6058 10.5967C27.345 10.7433 27.0598 10.837 26.7502 10.8778L23.2058 11.3789L22.998 9.75333L24.3302 9.58222L23.7313 3.22667L25.2713 3.01889L25.8335 9.38667L26.6524 9.27667C26.848 9.25222 27.015 9.16259 27.1535 9.00778C27.2921 8.84481 27.3613 8.66963 27.3613 8.48222V2.51778H28.8769ZM38.4368 10.8289C38.4368 10.943 38.3798 11 38.2657 11H37.6791C37.3531 11 37.0517 10.9389 36.7746 10.8167C36.5057 10.6944 36.2694 10.5274 36.0657 10.3156C35.8946 10.4622 35.7031 10.5885 35.4913 10.6944C35.2794 10.7922 35.0513 10.8615 34.8068 10.9022L31.2624 11.3911L31.0546 9.76556L32.3868 9.59444L31.788 3.21444L33.328 3.03111L33.878 9.39889L34.7091 9.28889C34.9046 9.26444 35.0717 9.17481 35.2102 9.02C35.3568 8.85704 35.4302 8.68185 35.4302 8.49444V2.51778H36.9335V8.72667C36.9335 8.84074 36.9743 8.95074 37.0557 9.05667C37.1454 9.16259 37.2594 9.21556 37.398 9.21556H38.2657C38.3798 9.21556 38.4368 9.27259 38.4368 9.38667V10.8289ZM46.2681 8.67778C46.2681 8.99556 46.207 9.29704 46.0848 9.58222C45.9626 9.86741 45.7955 10.1159 45.5837 10.3278C45.38 10.5315 45.1355 10.6944 44.8504 10.8167C44.5652 10.9389 44.2637 11 43.9459 11H38.2626C38.1485 11 38.0915 10.943 38.0915 10.8289V9.38667C38.0915 9.34593 38.1078 9.30926 38.1404 9.27667C38.173 9.23593 38.2137 9.21556 38.2626 9.21556H39.0693L40.3281 7.85889V2.51778H41.8315V5.69556C41.8315 5.78519 41.8193 5.87481 41.7948 5.96444C41.7785 6.05407 41.7622 6.13556 41.7459 6.20889C41.7133 6.29037 41.6807 6.37185 41.6481 6.45333C41.6644 6.46148 41.6848 6.45333 41.7093 6.42889C42.2144 6.06222 42.7807 5.87889 43.4081 5.87889H44.1659C44.4593 5.87889 44.7322 5.93593 44.9848 6.05C45.2455 6.15593 45.4696 6.30259 45.657 6.49C45.8444 6.67741 45.9911 6.90148 46.097 7.16222C46.2111 7.41481 46.2681 7.68778 46.2681 7.98111V8.67778ZM44.227 9.21556C44.3737 9.21556 44.4959 9.16667 44.5937 9.06889C44.6996 8.96296 44.7526 8.84074 44.7526 8.70222V8.10333C44.7526 7.96481 44.7037 7.84667 44.6059 7.74889C44.5081 7.65111 44.39 7.60222 44.2515 7.60222H43.1515C42.7604 7.60222 42.4304 7.74481 42.1615 8.03L41.0859 9.21556H44.227ZM50.2661 7.82222C50.2173 7.86296 50.1643 7.91185 50.1073 7.96889C50.0584 8.02593 50.0339 8.11148 50.0339 8.22556V8.73889C50.0339 8.79593 50.0461 8.86519 50.0706 8.94667C50.1032 9.02 50.148 9.09333 50.205 9.16667C50.2621 9.24 50.3354 9.30111 50.425 9.35C50.5147 9.39074 50.6165 9.41111 50.7306 9.41111H51.3661C51.5047 9.41111 51.6187 9.38667 51.7084 9.33778C51.8061 9.28074 51.8795 9.21963 51.9284 9.15444C51.9854 9.08111 52.0221 9.01185 52.0384 8.94667C52.0628 8.87333 52.075 8.82037 52.075 8.78778V8.27444C52.075 8.20926 52.0547 8.13593 52.0139 8.05444C51.9813 7.96481 51.9161 7.88741 51.8184 7.82222C51.7776 7.79778 51.7084 7.75704 51.6106 7.7C51.5128 7.64296 51.415 7.58185 51.3173 7.51667C51.195 7.44333 51.0687 7.36593 50.9384 7.28444L50.2661 7.82222ZM49.7161 4.64444C49.7161 4.64444 49.7569 4.67296 49.8384 4.73C49.928 4.77889 50.038 4.84815 50.1684 4.93778C50.3069 5.02741 50.4617 5.12926 50.6328 5.24333C50.8121 5.35741 50.9913 5.47556 51.1706 5.59778C51.6024 5.88296 52.0873 6.20481 52.625 6.56333C52.8124 6.68556 52.9673 6.82 53.0895 6.96667C53.2198 7.11333 53.3217 7.26407 53.395 7.41889C53.4684 7.5737 53.5173 7.72852 53.5417 7.88333C53.5743 8.03815 53.5906 8.18481 53.5906 8.32333V8.72667C53.5906 8.99556 53.5417 9.27259 53.4439 9.55778C53.3543 9.83481 53.2076 10.0915 53.0039 10.3278C52.8084 10.5641 52.5558 10.7596 52.2461 10.9144C51.9447 11.0611 51.5821 11.1344 51.1584 11.1344H50.9017C50.5024 11.1344 50.1521 11.0611 49.8506 10.9144C49.5573 10.7596 49.3087 10.5641 49.105 10.3278C48.9095 10.0915 48.7628 9.83074 48.665 9.54556C48.5673 9.26037 48.5184 8.98741 48.5184 8.72667V8.36C48.5265 7.94444 48.6284 7.57778 48.8239 7.26C49.0276 6.94222 49.2558 6.71407 49.5084 6.57556C49.5491 6.55111 49.5817 6.53074 49.6061 6.51444C49.6387 6.49815 49.6632 6.48593 49.6795 6.47778C49.7039 6.46963 49.7202 6.46148 49.7284 6.45333L48.8973 5.90333L49.7161 4.64444ZM52.7162 14.1656L52.2518 12.7356L54.1096 12.1367C54.3947 12.0389 54.627 11.8678 54.8062 11.6233C54.9855 11.3789 55.0751 11.1019 55.0751 10.7922V6.44111H56.5907V10.6333C56.5907 10.9674 56.5377 11.2852 56.4318 11.5867C56.334 11.8963 56.1914 12.1774 56.004 12.43C55.8247 12.6907 55.6047 12.9148 55.344 13.1022C55.0914 13.2978 54.8103 13.4485 54.5007 13.5544L52.7162 14.1656ZM59.3677 11H57.8521V2.51778H59.3677V11ZM62.4205 11C62.1027 11 61.8094 10.9348 61.5405 10.8044C61.2797 10.6659 61.0557 10.4867 60.8683 10.2667C60.689 10.0467 60.5586 9.79407 60.4771 9.50889C60.4038 9.21556 60.3957 8.91815 60.4527 8.61667L60.6605 7.49222C60.7012 7.25593 60.7827 7.04 60.9049 6.84444C61.0271 6.64889 61.1738 6.47778 61.3449 6.33111C61.5242 6.18444 61.7238 6.07037 61.9438 5.98889C62.1638 5.90741 62.392 5.86667 62.6283 5.86667H63.3127C63.606 5.86667 63.879 5.9237 64.1316 6.03778C64.3842 6.1437 64.6042 6.29444 64.7916 6.49C64.9871 6.67741 65.1379 6.90148 65.2438 7.16222C65.3579 7.41481 65.4149 7.68778 65.4149 7.98111V9.21556H66.2338C66.3479 9.21556 66.4049 9.27259 66.4049 9.38667V10.8289C66.4049 10.943 66.3479 11 66.2338 11H65.4027C65.4027 11.0326 65.3986 11.0693 65.3905 11.11C65.366 11.3952 65.2968 11.6641 65.1827 11.9167C65.0768 12.1693 64.9301 12.4015 64.7427 12.6133C64.5634 12.8333 64.3516 13.0248 64.1071 13.1878C63.8708 13.3507 63.6101 13.4811 63.3249 13.5789L61.5405 14.19L61.0883 12.76L62.8971 12.1489C63.1823 12.0511 63.4186 11.8963 63.606 11.6844C63.7934 11.4726 63.8871 11.2119 63.8871 10.9022V10.8289C63.7812 10.8778 63.6549 10.9185 63.5083 10.9511C63.3697 10.9837 63.2312 11 63.0927 11H62.4205ZM62.2127 9.21556H63.8994V7.96889C63.8994 7.87111 63.8627 7.78556 63.7894 7.71222C63.7242 7.63889 63.6386 7.59815 63.5327 7.59H62.4816C62.3023 7.59 62.1842 7.69185 62.1271 7.89556L61.9316 8.88556C61.9153 8.96704 61.9357 9.04444 61.9927 9.11778C62.0497 9.18296 62.1231 9.21556 62.2127 9.21556ZM69.5647 11C69.2714 11 68.9944 10.947 68.7336 10.8411C68.481 10.727 68.257 10.5519 68.0614 10.3156C67.8496 10.5519 67.6133 10.727 67.3525 10.8411C67.0999 10.947 66.827 11 66.5336 11H66.2281C66.1792 11 66.1385 10.9837 66.1059 10.9511C66.0733 10.9104 66.057 10.8696 66.057 10.8289V9.39889C66.057 9.35 66.0773 9.30926 66.1181 9.27667C66.1588 9.23593 66.1955 9.21556 66.2281 9.21556H66.8147C66.9533 9.21556 67.0673 9.16667 67.157 9.06889C67.2547 8.96296 67.3036 8.84074 67.3036 8.70222V6.42889H68.807V8.70222C68.807 8.84074 68.8518 8.96296 68.9414 9.06889C69.0392 9.16667 69.1573 9.21556 69.2959 9.21556H69.6625C69.801 9.21556 69.9233 9.17481 70.0292 9.09333C70.1351 9.0037 70.2003 8.88963 70.2247 8.75111L70.6892 6.45333L72.2292 6.72222L71.8381 8.64111C71.8055 8.77963 71.8381 8.91 71.9359 9.03222C72.0336 9.15444 72.1518 9.21556 72.2903 9.21556H73.2436V6.11111H74.7592V9.37444C74.7592 9.59444 74.7144 9.80222 74.6247 9.99778C74.5433 10.1933 74.4251 10.3685 74.2703 10.5233C74.1236 10.67 73.9525 10.7881 73.757 10.8778C73.5614 10.9593 73.3536 11 73.1336 11H72.2903C72.0296 11 71.7892 10.947 71.5692 10.8411C71.3492 10.7352 71.1496 10.5559 70.9703 10.3033C70.7747 10.5641 70.5547 10.7474 70.3103 10.8533C70.074 10.9511 69.8255 11 69.5647 11ZM72.547 5.43889H71.0192V3.91111H72.547V5.43889ZM70.3836 5.43889H68.8559V3.91111H70.3836V5.43889ZM71.447 3.45889H69.9192V1.93111H71.447V3.45889ZM77.8176 11C77.4998 11 77.2065 10.9348 76.9376 10.8044C76.6769 10.6659 76.4528 10.4867 76.2654 10.2667C76.0861 10.0467 75.9558 9.79407 75.8743 9.50889C75.8009 9.21556 75.7928 8.91815 75.8498 8.61667L76.0576 7.49222C76.0984 7.25593 76.1798 7.04 76.3021 6.84444C76.4243 6.64889 76.5709 6.47778 76.7421 6.33111C76.9213 6.18444 77.1209 6.07037 77.3409 5.98889C77.5609 5.90741 77.7891 5.86667 78.0254 5.86667H78.7098C79.0032 5.86667 79.2761 5.9237 79.5287 6.03778C79.7813 6.1437 80.0013 6.29444 80.1887 6.49C80.3843 6.67741 80.535 6.90148 80.6409 7.16222C80.755 7.41481 80.8121 7.68778 80.8121 7.98111V9.21556H81.6309C81.745 9.21556 81.8021 9.27259 81.8021 9.38667V10.8289C81.8021 10.943 81.745 11 81.6309 11H80.7998C80.7998 11.0326 80.7958 11.0693 80.7876 11.11C80.7632 11.3952 80.6939 11.6641 80.5798 11.9167C80.4739 12.1693 80.3272 12.4015 80.1398 12.6133C79.9606 12.8333 79.7487 13.0248 79.5043 13.1878C79.268 13.3507 79.0072 13.4811 78.7221 13.5789L76.9376 14.19L76.4854 12.76L78.2943 12.1489C78.5795 12.0511 78.8158 11.8963 79.0032 11.6844C79.1906 11.4726 79.2843 11.2119 79.2843 10.9022V10.8289C79.1784 10.8778 79.0521 10.9185 78.9054 10.9511C78.7669 10.9837 78.6284 11 78.4898 11H77.8176ZM77.6098 9.21556H79.2965V7.96889C79.2965 7.87111 79.2598 7.78556 79.1865 7.71222C79.1213 7.63889 79.0358 7.59815 78.9298 7.59H77.8787C77.6995 7.59 77.5813 7.69185 77.5243 7.89556L77.3287 8.88556C77.3124 8.96704 77.3328 9.04444 77.3898 9.11778C77.4469 9.18296 77.5202 9.21556 77.6098 9.21556ZM84.3752 7.51667L83.2874 6.47778L87.003 2.12667L88.0908 3.12889L85.7808 5.86667H90.3763C90.6615 5.86667 90.9304 5.9237 91.183 6.03778C91.4437 6.1437 91.6678 6.29444 91.8552 6.49C92.0508 6.67741 92.2015 6.90148 92.3074 7.16222C92.4215 7.41481 92.4785 7.68778 92.4785 7.98111V8.88556C92.4785 9.18704 92.4174 9.46815 92.2952 9.72889C92.1811 9.98963 92.0223 10.2137 91.8185 10.4011C91.623 10.5885 91.3948 10.7352 91.1341 10.8411C90.8734 10.947 90.6004 11 90.3152 11H81.6252C81.5111 11 81.4541 10.943 81.4541 10.8289V9.38667C81.4541 9.34593 81.4704 9.30926 81.503 9.27667C81.5356 9.23593 81.5763 9.21556 81.6252 9.21556H90.633C90.7063 9.21556 90.7797 9.17889 90.853 9.10556C90.9263 9.03222 90.963 8.93852 90.963 8.82444V7.95667C90.963 7.83444 90.9182 7.73259 90.8285 7.65111C90.7471 7.56148 90.6493 7.51667 90.5352 7.51667H84.3752ZM82.1997 5.03556L85.1819 1.52778L85.8908 2.23667L82.9819 5.64667L82.1997 5.03556Z" fill="white"/>
<path d="M16.4688 27.8756C16.6481 27.7941 16.811 27.7044 16.9577 27.6067C17.1125 27.5007 17.2429 27.3948 17.3488 27.2889C17.4629 27.1748 17.5525 27.0607 17.6177 26.9467C17.6829 26.8326 17.7155 26.7226 17.7155 26.6167V26.2133C17.7155 26.0504 17.6829 25.8996 17.6177 25.7611C17.5607 25.6226 17.4792 25.5044 17.3733 25.4067C17.2755 25.3007 17.1533 25.2193 17.0066 25.1622C16.8681 25.097 16.7173 25.0644 16.5544 25.0644H16.3955C16.2407 25.0644 16.0899 25.097 15.9433 25.1622C15.8047 25.2193 15.6825 25.3007 15.5766 25.4067C15.4788 25.5044 15.3973 25.6226 15.3321 25.7611C15.2751 25.8996 15.2466 26.0463 15.2466 26.2011V26.6167C15.2466 26.8448 15.3647 27.0689 15.601 27.2889C15.8373 27.5089 16.1266 27.7044 16.4688 27.8756ZM18.5466 26.5189C18.5466 26.8041 18.4733 27.073 18.3266 27.3256C18.1881 27.57 18.0007 27.79 17.7644 27.9856C17.8214 27.9937 17.8866 27.9978 17.9599 27.9978C18.0333 27.9978 18.0944 27.9978 18.1433 27.9978H19.1699C19.2188 27.9978 19.2596 28.0181 19.2921 28.0589C19.3247 28.0915 19.341 28.1281 19.341 28.1689V28.8289C19.341 28.943 19.284 29 19.1699 29H18.131C17.854 29 17.5933 28.9796 17.3488 28.9389C17.1044 28.89 16.811 28.7963 16.4688 28.6578C16.2977 28.7311 16.1429 28.7922 16.0044 28.8411C15.8658 28.8819 15.7314 28.9144 15.601 28.9389C15.4707 28.9633 15.3403 28.9796 15.2099 28.9878C15.0877 28.9959 14.9573 29 14.8188 29H11.0055C10.6795 29 10.3781 28.943 10.101 28.8289C9.83214 28.7148 9.59992 28.5559 9.40436 28.3522C9.20881 28.1485 9.05399 27.9122 8.93992 27.6433C8.83399 27.3744 8.78103 27.0852 8.78103 26.7756V24.8689H9.62436V26.7389C9.62436 27.1056 9.73844 27.407 9.96659 27.6433C10.2029 27.8796 10.5084 27.9978 10.8833 27.9978H14.8066C14.8636 27.9978 14.9247 27.9978 14.9899 27.9978C15.0633 27.9978 15.1284 27.9937 15.1855 27.9856C14.9492 27.79 14.7577 27.57 14.611 27.3256C14.4725 27.073 14.4033 26.8041 14.4033 26.5189V26.1522C14.4033 25.8752 14.4562 25.6144 14.5621 25.37C14.6681 25.1256 14.8107 24.9137 14.9899 24.7344C15.1773 24.547 15.3933 24.4004 15.6377 24.2944C15.8821 24.1885 16.1388 24.1356 16.4077 24.1356H16.5544C16.8314 24.1356 17.0881 24.1885 17.3244 24.2944C17.5688 24.4004 17.7807 24.543 17.9599 24.7222C18.1392 24.9015 18.2818 25.1133 18.3877 25.3578C18.4936 25.6022 18.5466 25.8589 18.5466 26.1278V26.5189ZM15.9555 21.6544H16.9944V22.6933H15.9555V21.6544ZM19.9498 31.5056H20.9886V30.4667H19.9498V31.5056ZM21.6242 31.5056H22.6631V30.4667H21.6242V31.5056ZM23.5675 28.8289C23.5675 28.943 23.5105 29 23.3964 29H22.6386C22.5001 29 22.3616 28.9796 22.2231 28.9389C22.0846 28.8981 21.9542 28.8411 21.832 28.7678C21.7098 28.6944 21.6038 28.6089 21.5142 28.5111C21.4246 28.4133 21.3635 28.3074 21.3309 28.1933C21.1923 28.4296 20.9927 28.6252 20.732 28.78C20.4794 28.9267 20.2105 29 19.9253 29H19.1675C19.0535 29 18.9964 28.943 18.9964 28.8289V28.1811C18.9964 28.1322 19.0127 28.0915 19.0453 28.0589C19.0779 28.0181 19.1186 27.9978 19.1675 27.9978H19.962C20.1983 27.9978 20.402 27.9244 20.5731 27.7778C20.7523 27.6311 20.8664 27.4478 20.9153 27.2278L21.2942 25.2967L22.1253 25.4311L21.8075 27.0444C21.7831 27.1667 21.7872 27.2889 21.8198 27.4111C21.8523 27.5252 21.9094 27.627 21.9909 27.7167C22.0723 27.7981 22.1701 27.8674 22.2842 27.9244C22.3983 27.9733 22.5205 27.9978 22.6509 27.9978H23.3964C23.4453 27.9978 23.4861 28.0181 23.5186 28.0589C23.5512 28.0915 23.5675 28.1322 23.5675 28.1811V28.8289ZM24.8839 26.58C24.8839 26.8407 24.998 27.077 25.2261 27.2889C25.4543 27.5007 25.7476 27.6963 26.1061 27.8756C26.4646 27.6963 26.7621 27.5007 26.9983 27.2889C27.2346 27.077 27.3528 26.8407 27.3528 26.58V26.2256C27.3528 26.0626 27.3202 25.9119 27.255 25.7733C27.198 25.6348 27.1165 25.5167 27.0106 25.4189C26.9046 25.313 26.7824 25.2315 26.6439 25.1744C26.5054 25.1093 26.3546 25.0767 26.1917 25.0767H26.0206C25.8658 25.0767 25.7191 25.1093 25.5806 25.1744C25.4421 25.2315 25.3198 25.313 25.2139 25.4189C25.1161 25.5167 25.0346 25.6348 24.9695 25.7733C24.9124 25.9119 24.8839 26.0626 24.8839 26.2256V26.58ZM24.0528 26.1522C24.0528 25.8752 24.1058 25.6144 24.2117 25.37C24.3176 25.1256 24.4602 24.9137 24.6395 24.7344C24.8269 24.547 25.0387 24.4004 25.275 24.2944C25.5195 24.1885 25.7761 24.1356 26.045 24.1356H26.1917C26.4687 24.1356 26.7254 24.1885 26.9617 24.2944C27.2061 24.4004 27.418 24.547 27.5972 24.7344C27.7765 24.9137 27.9191 25.1256 28.025 25.37C28.1309 25.6063 28.1839 25.863 28.1839 26.14V26.5189C28.1839 26.8122 28.1106 27.0811 27.9639 27.3256C27.8254 27.57 27.638 27.7941 27.4017 27.9978H27.7683H28.8439C28.8846 27.9978 28.9213 28.0181 28.9539 28.0589C28.9946 28.0915 29.015 28.1322 29.015 28.1811V28.8289C29.015 28.8696 28.9946 28.9104 28.9539 28.9511C28.9213 28.9837 28.8846 29 28.8439 29H27.7683C27.4832 29 27.2061 28.9756 26.9372 28.9267C26.6765 28.8696 26.3995 28.7841 26.1061 28.67C25.8209 28.7841 25.5439 28.8696 25.275 28.9267C25.0143 28.9756 24.7413 29 24.4561 29H23.3928C23.3439 29 23.3032 28.9837 23.2706 28.9511C23.238 28.9104 23.2217 28.8696 23.2217 28.8289V28.1811C23.2217 28.1322 23.238 28.0915 23.2706 28.0589C23.3032 28.0181 23.3439 27.9978 23.3928 27.9978H24.4683H24.835C24.5987 27.7941 24.4072 27.57 24.2606 27.3256C24.1221 27.0811 24.0528 26.8122 24.0528 26.5189V26.1522ZM25.5683 22.6933H26.6072V21.6544H25.5683V22.6933ZM30.7052 21.8378H31.7441V22.8767H30.7052V21.8378ZM28.8474 29C28.7334 29 28.6763 28.943 28.6763 28.8289V28.1811C28.6763 28.1404 28.6926 28.0996 28.7252 28.0589C28.7578 28.0181 28.7985 27.9978 28.8474 27.9978H30.8397C31.2308 27.9978 31.6056 27.9326 31.9641 27.8022C32.3308 27.6719 32.6567 27.4763 32.9419 27.2156L34.0174 26.2133C34.1152 26.1237 34.1885 26.0667 34.2374 26.0422L31.3163 25.1744C31.1615 25.1256 31.0148 25.1419 30.8763 25.2233C30.746 25.2967 30.6563 25.4067 30.6074 25.5533L30.2897 26.5311L29.5563 26.3233L29.8374 25.3578C29.8945 25.1622 29.9841 24.9911 30.1063 24.8444C30.2367 24.6896 30.3834 24.5674 30.5463 24.4778C30.7174 24.3881 30.8967 24.3352 31.0841 24.3189C31.2797 24.2944 31.4711 24.3107 31.6585 24.3678L36.3763 25.7856L36.1197 26.6044L35.6308 26.4578C35.4271 26.417 35.256 26.417 35.1174 26.4578C34.9789 26.4985 34.8485 26.5678 34.7263 26.6656L34.7141 27.1178C34.7141 27.3622 34.7997 27.57 34.9708 27.7411C35.15 27.9122 35.3619 27.9978 35.6063 27.9978H37.2197C37.2685 27.9978 37.3093 28.0181 37.3419 28.0589C37.3745 28.0915 37.3908 28.1281 37.3908 28.1689V28.8289C37.3908 28.943 37.3337 29 37.2197 29H35.753C35.5085 29 35.2845 28.9593 35.0808 28.8778C34.8771 28.7881 34.6978 28.67 34.543 28.5233C34.3882 28.3685 34.2619 28.1893 34.1641 27.9856C34.0745 27.7737 34.0174 27.5496 33.993 27.3133L33.1497 28.0956C32.8237 28.3889 32.453 28.613 32.0374 28.7678C31.63 28.9226 31.2063 29 30.7663 29H28.8474ZM38.6933 27.9978C38.9377 27.9978 39.1455 27.9122 39.3166 27.7411C39.4877 27.57 39.5733 27.3663 39.5733 27.13V24.8811H40.4166V27.13C40.4166 27.3907 40.3677 27.6352 40.27 27.8633C40.1722 28.0915 40.0377 28.2911 39.8666 28.4622C39.6955 28.6252 39.4959 28.7556 39.2677 28.8533C39.0477 28.9511 38.8074 29 38.5466 29H37.2144C37.1003 29 37.0433 28.943 37.0433 28.8289V28.1811C37.0433 28.1322 37.0596 28.0915 37.0922 28.0589C37.1248 28.0181 37.1655 27.9978 37.2144 27.9978H38.6933ZM37.6911 23.4511H38.73V22.4122H37.6911V23.4511ZM39.3655 23.4511H40.4044V22.4122H39.3655V23.4511ZM49.6093 27.9978H49.8659C49.9148 27.9978 49.9556 28.0181 49.9882 28.0589C50.0207 28.0915 50.037 28.1322 50.037 28.1811V28.8289C50.037 28.943 49.98 29 49.8659 29H49.6337C49.3241 29 49.043 28.9226 48.7904 28.7678C48.5378 28.6048 48.3341 28.3767 48.1793 28.0833C48.0163 28.3767 47.7963 28.6048 47.5193 28.7678C47.2504 28.9226 46.9611 29 46.6515 29H44.977C44.7978 29 44.6267 28.9674 44.4637 28.9022C44.3089 28.8289 44.1704 28.7311 44.0482 28.6089C43.9341 28.4867 43.8404 28.3481 43.767 28.1933C43.7019 28.0304 43.6693 27.8593 43.6693 27.68V26.3844H44.3904V27.46C44.3904 27.6067 44.4311 27.733 44.5126 27.8389C44.5941 27.9448 44.7163 27.9978 44.8793 27.9978H46.6637C46.8348 27.9978 46.9896 27.9611 47.1282 27.8878C47.2667 27.8144 47.3808 27.7167 47.4704 27.5944C47.5682 27.4722 47.6333 27.3378 47.6659 27.1911C47.6985 27.0363 47.6945 26.8815 47.6537 26.7267L46.7493 23.4389L47.5437 23.1456L48.7048 27.3011C48.7619 27.5048 48.8719 27.6719 49.0348 27.8022C49.2059 27.9326 49.3974 27.9978 49.6093 27.9978ZM57.0163 27.9978C57.2363 27.9978 57.4237 27.9244 57.5785 27.7778C57.7334 27.6311 57.8108 27.4396 57.8108 27.2033V26.4333C57.8108 26.197 57.7293 25.9974 57.5663 25.8344C57.4115 25.6715 57.2159 25.59 56.9797 25.59H56.1485C55.8797 25.59 55.6393 25.6389 55.4274 25.7367C55.2156 25.8344 55.0282 25.977 54.8652 26.1644L53.1541 27.9978H57.0163ZM52.1274 26.8978C52.1274 27.0363 52.1397 27.1504 52.1641 27.24C52.1967 27.3296 52.2293 27.403 52.2619 27.46C52.3026 27.5089 52.3352 27.5456 52.3597 27.57C52.3922 27.5944 52.4085 27.6067 52.4085 27.6067L54.3885 25.4556C54.6248 25.203 54.8978 25.0074 55.2074 24.8689C55.5252 24.7304 55.8552 24.6611 56.1974 24.6611H56.943C57.1793 24.6611 57.3993 24.7059 57.603 24.7956C57.8148 24.8852 57.9982 25.0074 58.153 25.1622C58.3078 25.317 58.43 25.5004 58.5197 25.7122C58.6093 25.9159 58.6541 26.1359 58.6541 26.3722V27.24C58.6541 27.4844 58.6093 27.7126 58.5197 27.9244C58.43 28.1363 58.3037 28.3237 58.1408 28.4867C57.9859 28.6415 57.8026 28.7678 57.5908 28.8656C57.3789 28.9552 57.1508 29 56.9063 29H53.1908C53.0441 29 52.8934 28.9837 52.7385 28.9511C52.5837 28.9104 52.4371 28.8574 52.2985 28.7922C52.1682 28.727 52.0459 28.6456 51.9319 28.5478C51.8259 28.4419 51.7445 28.3237 51.6874 28.1933C51.5245 28.4541 51.3167 28.6537 51.0641 28.7922C50.8115 28.9307 50.5345 29 50.233 29H49.8663C49.8174 29 49.7767 28.9837 49.7441 28.9511C49.7115 28.9104 49.6952 28.8656 49.6952 28.8167V28.1811C49.6952 28.1322 49.7115 28.0915 49.7441 28.0589C49.7767 28.0181 49.8174 27.9978 49.8663 27.9978H50.3919C50.6363 27.9978 50.8441 27.9122 51.0152 27.7411C51.1945 27.57 51.2841 27.3622 51.2841 27.1178V25.4189H52.1274V26.8978ZM58.0968 32.0433L57.828 31.2122L59.3191 30.7233C59.6613 30.6093 59.9383 30.4015 60.1502 30.1C60.3702 29.7985 60.4802 29.4644 60.4802 29.0978V25.2233H61.3113V29.0244C61.3113 29.3096 61.2665 29.5826 61.1768 29.8433C61.0954 30.1122 60.9731 30.3567 60.8102 30.5767C60.6554 30.8048 60.4639 31.0004 60.2357 31.1633C60.0157 31.3344 59.7713 31.4689 59.5024 31.5667L58.0968 32.0433ZM64.4684 29C64.2892 29 64.1181 28.9674 63.9551 28.9022C63.7921 28.8289 63.6495 28.7311 63.5273 28.6089C63.4133 28.4867 63.3195 28.3441 63.2462 28.1811C63.181 28.0181 63.1484 27.847 63.1484 27.6678V26.3722H63.8695V27.4844C63.8695 27.623 63.9103 27.7452 63.9918 27.8511C64.0733 27.9489 64.1955 27.9978 64.3584 27.9978H66.2773C66.5218 27.9978 66.7214 27.9448 66.8762 27.8389C67.031 27.733 67.1451 27.6067 67.2184 27.46C67.2918 27.3052 67.3244 27.1381 67.3162 26.9589C67.3081 26.7796 67.2633 26.6167 67.1818 26.47L65.7762 23.9644L66.4851 23.4878L67.8784 25.9811C68.0821 26.3315 68.1799 26.69 68.1718 27.0567C68.1718 27.4152 68.0903 27.737 67.9273 28.0222C67.7725 28.3074 67.5444 28.5437 67.2429 28.7311C66.9495 28.9104 66.6114 29 66.2284 29H64.4684ZM73.7907 22.0944L71.7619 23.4267L71.2852 22.6444L73.8641 20.9333H74.8296V29H73.7907V22.0944ZM79.3853 29.1222C78.8882 29.1222 78.4523 29.0489 78.0775 28.9022C77.7027 28.7474 77.3931 28.503 77.1486 28.1689C76.9042 27.8348 76.7208 27.407 76.5986 26.8856C76.4764 26.3559 76.4153 25.7122 76.4153 24.9544C76.4153 24.2048 76.4764 23.5652 76.5986 23.0356C76.7208 22.5059 76.9042 22.0741 77.1486 21.74C77.3931 21.4059 77.6986 21.1656 78.0653 21.0189C78.4319 20.8641 78.8638 20.7867 79.3608 20.7867C79.8579 20.7867 80.2897 20.8641 80.6564 21.0189C81.0312 21.1737 81.3408 21.4181 81.5853 21.7522C81.8379 22.0863 82.0253 22.5181 82.1475 23.0478C82.2697 23.5693 82.3308 24.2048 82.3308 24.9544C82.3308 25.7122 82.2697 26.3559 82.1475 26.8856C82.0253 27.407 81.8419 27.8348 81.5975 28.1689C81.3531 28.503 81.0434 28.7474 80.6686 28.9022C80.3019 29.0489 79.8742 29.1222 79.3853 29.1222ZM79.3853 28.1933C79.7194 28.1933 80.0045 28.1404 80.2408 28.0344C80.4771 27.9204 80.6686 27.737 80.8153 27.4844C80.9701 27.2319 81.0801 26.9019 81.1453 26.4944C81.2186 26.0789 81.2553 25.5656 81.2553 24.9544C81.2553 24.3433 81.2186 23.8341 81.1453 23.4267C81.0801 23.0111 80.9701 22.677 80.8153 22.4244C80.6686 22.1719 80.4771 21.9926 80.2408 21.8867C80.0045 21.7726 79.7194 21.7156 79.3853 21.7156C79.0512 21.7156 78.7619 21.7726 78.5175 21.8867C78.2812 21.9926 78.0856 22.1719 77.9308 22.4244C77.7842 22.677 77.6742 23.0111 77.6008 23.4267C77.5275 23.8341 77.4908 24.3433 77.4908 24.9544C77.4908 25.5656 77.5275 26.0789 77.6008 26.4944C77.6742 26.9019 77.7842 27.2319 77.9308 27.4844C78.0856 27.737 78.2812 27.9204 78.5175 28.0344C78.7619 28.1404 79.0512 28.1933 79.3853 28.1933Z" fill="#29FDB0"/>
</svg>
