<svg width="106" height="35" viewBox="0 0 106 35" fill="none" xmlns="http://www.w3.org/2000/svg">
<path d="M8.91411 9.02C9.1993 8.92222 9.43152 8.80407 9.61078 8.66556C9.79819 8.51889 9.89189 8.3763 9.89189 8.23778V7.90778C9.89189 7.67148 9.80634 7.47593 9.63523 7.32111C9.47226 7.15815 9.27263 7.07667 9.03634 7.07667H8.77967C8.54337 7.07667 8.33967 7.15815 8.16856 7.32111C8.0056 7.47593 7.92411 7.67148 7.92411 7.90778V8.23778C7.92411 8.3763 8.01782 8.51889 8.20523 8.66556C8.39263 8.80407 8.62893 8.92222 8.91411 9.02ZM11.383 8.12778C11.383 8.49444 11.2893 8.86519 11.1019 9.24C11.1508 9.23185 11.2241 9.22778 11.3219 9.22778C11.4197 9.21963 11.4849 9.21556 11.5174 9.21556H11.8597C11.9086 9.21556 11.9493 9.23593 11.9819 9.27667C12.0145 9.30926 12.0308 9.35 12.0308 9.39889V10.8289C12.0308 10.8778 12.0104 10.9185 11.9697 10.9511C11.9371 10.9837 11.9004 11 11.8597 11H10.5763C10.4215 11 10.283 10.9959 10.1608 10.9878C10.0386 10.9715 9.91634 10.947 9.79411 10.9144C9.67189 10.8737 9.54152 10.8248 9.403 10.7678C9.26448 10.7026 9.10152 10.6252 8.91411 10.5356C8.73486 10.6252 8.57597 10.7026 8.43745 10.7678C8.29893 10.8248 8.16448 10.8737 8.03411 10.9144C7.91189 10.947 7.78967 10.9715 7.66745 10.9878C7.54523 10.9959 7.40671 11 7.25189 11H3.48745C3.13708 11 2.803 10.9348 2.48522 10.8044C2.1756 10.6659 1.90263 10.4826 1.66634 10.2544C1.43819 10.0181 1.25485 9.74519 1.11634 9.43556C0.977817 9.11778 0.908558 8.7837 0.908558 8.43333V6.07444H2.42411V8.28667C2.42411 8.53926 2.51374 8.75926 2.693 8.94667C2.88041 9.12593 3.10041 9.21556 3.353 9.21556H6.23745C6.31893 9.21556 6.40041 9.21963 6.48189 9.22778C6.57152 9.22778 6.64893 9.22778 6.71411 9.22778C6.52671 8.86926 6.433 8.50259 6.433 8.12778V7.77333C6.433 7.44741 6.50226 7.13778 6.64078 6.84444C6.7793 6.55111 6.95856 6.29444 7.17856 6.07444C7.40671 5.85444 7.66337 5.67926 7.94856 5.54889C8.24189 5.41852 8.5393 5.35333 8.84078 5.35333H9.04856C9.37448 5.35333 9.67597 5.41444 9.953 5.53667C10.2382 5.65889 10.4867 5.82593 10.6986 6.03778C10.9104 6.24963 11.0774 6.49815 11.1997 6.78333C11.3219 7.06852 11.383 7.37 11.383 7.68778V8.12778ZM8.10745 2.82333H9.63523V4.35111H8.10745V2.82333ZM12.5104 13.9944H14.0137V12.4667H12.5104V13.9944ZM14.6493 13.9944H16.1771V12.4667H14.6493V13.9944ZM16.9471 10.8289C16.9471 10.8696 16.9308 10.9104 16.8982 10.9511C16.8656 10.9837 16.8249 11 16.776 11H15.6882C15.4356 11 15.183 10.9389 14.9304 10.8167C14.686 10.6944 14.5026 10.5274 14.3804 10.3156C14.2256 10.5274 14.0137 10.6944 13.7449 10.8167C13.4841 10.9389 13.2234 11 12.9626 11H11.8626C11.8219 11 11.7852 10.9837 11.7526 10.9511C11.7119 10.9185 11.6915 10.8778 11.6915 10.8289V9.39889C11.6915 9.35 11.7119 9.30926 11.7526 9.27667C11.7852 9.23593 11.8219 9.21556 11.8626 9.21556H13.1093C13.2478 9.21556 13.37 9.17481 13.476 9.09333C13.5819 9.0037 13.6471 8.88963 13.6715 8.75111L14.1482 6.45333L15.6271 6.72222L15.2482 8.65333C15.2156 8.80815 15.2441 8.94259 15.3337 9.05667C15.4234 9.16259 15.5456 9.21556 15.7004 9.21556H16.776C16.8249 9.21556 16.8656 9.23593 16.8982 9.27667C16.9308 9.30926 16.9471 9.35 16.9471 9.39889V10.8289ZM20.9724 9.21556C21.0131 9.21556 21.0498 9.23185 21.0824 9.26444C21.1231 9.28889 21.1435 9.32963 21.1435 9.38667V10.8289C21.1435 10.8778 21.1231 10.9185 21.0824 10.9511C21.0498 10.9837 21.0131 11 20.9724 11H20.3735C20.0883 11 19.8154 10.9511 19.5546 10.8533C19.302 10.7474 19.0779 10.5885 18.8824 10.3767C18.6787 10.5885 18.4465 10.7474 18.1857 10.8533C17.925 10.9511 17.652 11 17.3668 11H16.7802C16.6661 11 16.6091 10.943 16.6091 10.8289V9.38667C16.6091 9.27259 16.6661 9.21556 16.7802 9.21556H17.6357C17.7742 9.21556 17.8883 9.17074 17.9779 9.08111C18.0757 8.98333 18.1246 8.86519 18.1246 8.72667V2.51778H19.6402V8.78778C19.6565 8.91 19.7094 9.01185 19.7991 9.09333C19.8887 9.17481 19.9987 9.21556 20.1291 9.21556H20.9724ZM30.5641 8.72667C30.5641 8.86519 30.613 8.98333 30.7107 9.08111C30.8085 9.17074 30.9267 9.21556 31.0652 9.21556H31.9207C31.9615 9.21556 31.9981 9.23185 32.0307 9.26444C32.0715 9.29704 32.0918 9.33778 32.0918 9.38667V10.8289C32.0918 10.943 32.0348 11 31.9207 11H31.3218C31.0367 11 30.7678 10.9511 30.5152 10.8533C30.2707 10.7556 30.0507 10.6252 29.8552 10.4622C29.6515 10.6252 29.4233 10.7556 29.1707 10.8533C28.9263 10.9511 28.6737 11 28.413 11H20.9696C20.8555 11 20.7985 10.943 20.7985 10.8289V9.38667C20.7985 9.34593 20.8148 9.30926 20.8474 9.27667C20.88 9.23593 20.9207 9.21556 20.9696 9.21556H28.6818C28.7715 9.21556 28.857 9.17889 28.9385 9.10556C29.02 9.03222 29.0607 8.93852 29.0607 8.82444V7.95667C29.0607 7.83444 29.0159 7.73259 28.9263 7.65111C28.8367 7.56148 28.7348 7.51667 28.6207 7.51667H22.473L21.3852 6.47778L25.1007 2.12667L26.1885 3.12889L23.8663 5.86667H28.4618C28.7552 5.86667 29.0281 5.9237 29.2807 6.03778C29.5333 6.1437 29.7533 6.29444 29.9407 6.49C30.1363 6.67741 30.287 6.90148 30.393 7.16222C30.507 7.41481 30.5641 7.68778 30.5641 7.98111V8.72667ZM33.7111 9.21556C33.8496 9.21556 33.9637 9.17074 34.0533 9.08111C34.1511 8.98333 34.2 8.86519 34.2 8.72667V6.08667H35.7155V8.71444C35.7155 9.03222 35.6544 9.32963 35.5322 9.60667C35.4181 9.8837 35.2552 10.1281 35.0433 10.34C34.8396 10.5437 34.5992 10.7067 34.3222 10.8289C34.0452 10.943 33.7478 11 33.43 11H31.9266C31.8778 11 31.837 10.9837 31.8044 10.9511C31.7718 10.9104 31.7555 10.8696 31.7555 10.8289V9.39889C31.7555 9.35 31.7718 9.30926 31.8044 9.27667C31.837 9.23593 31.8778 9.21556 31.9266 9.21556H33.7111ZM34.1755 5.08444H35.7033V3.55667H34.1755V5.08444ZM41.7602 10.6456C41.7602 10.9796 41.7113 11.2974 41.6135 11.5989C41.5157 11.9085 41.3732 12.1896 41.1857 12.4422C41.0065 12.703 40.7865 12.9311 40.5257 13.1267C40.2732 13.3222 39.988 13.473 39.6702 13.5789L37.8857 14.19L37.4335 12.76L39.2424 12.1489C39.5276 12.0511 39.7639 11.8922 39.9513 11.6722C40.1387 11.4604 40.2324 11.1996 40.2324 10.89V10.8289C40.1346 10.8859 40.0124 10.9307 39.8657 10.9633C39.7191 10.9878 39.5765 11 39.438 11H38.7657C38.448 11 38.1546 10.9348 37.8857 10.8044C37.625 10.6659 37.4009 10.4867 37.2135 10.2667C37.0343 10.0385 36.9039 9.78185 36.8224 9.49667C36.7491 9.21148 36.7409 8.91815 36.798 8.61667L37.0057 7.49222C37.0465 7.25593 37.128 7.04 37.2502 6.84444C37.3724 6.64889 37.5191 6.47778 37.6902 6.33111C37.8694 6.18444 38.0691 6.07037 38.2891 5.98889C38.5091 5.90741 38.7372 5.86667 38.9735 5.86667H39.658C39.9513 5.86667 40.2243 5.9237 40.4769 6.03778C40.7294 6.1437 40.9494 6.29444 41.1369 6.49C41.3324 6.67741 41.4832 6.90148 41.5891 7.16222C41.7032 7.41481 41.7602 7.68778 41.7602 7.98111V10.6456ZM40.2446 9.21556V7.96889C40.2446 7.87111 40.208 7.78556 40.1346 7.71222C40.0694 7.63889 39.9839 7.59815 39.878 7.59H38.8269C38.6476 7.59 38.5294 7.69185 38.4724 7.89556L38.2769 8.88556C38.2606 8.96704 38.2809 9.04444 38.338 9.11778C38.395 9.18296 38.4683 9.21556 38.558 9.21556H40.2446ZM51.4368 10.8289C51.4368 10.943 51.3798 11 51.2657 11H50.6791C50.3531 11 50.0517 10.9389 49.7746 10.8167C49.5057 10.6944 49.2694 10.5274 49.0657 10.3156C48.8946 10.4622 48.7031 10.5885 48.4913 10.6944C48.2794 10.7922 48.0513 10.8615 47.8068 10.9022L44.2624 11.3911L44.0546 9.76556L45.3868 9.59444L44.788 3.21444L46.328 3.03111L46.878 9.39889L47.7091 9.28889C47.9046 9.26444 48.0717 9.17481 48.2102 9.02C48.3568 8.85704 48.4302 8.68185 48.4302 8.49444V2.51778H49.9335V8.72667C49.9335 8.84074 49.9743 8.95074 50.0557 9.05667C50.1454 9.16259 50.2594 9.21556 50.398 9.21556H51.2657C51.3798 9.21556 51.4368 9.27259 51.4368 9.38667V10.8289ZM59.2681 8.67778C59.2681 8.99556 59.207 9.29704 59.0848 9.58222C58.9626 9.86741 58.7955 10.1159 58.5837 10.3278C58.38 10.5315 58.1355 10.6944 57.8504 10.8167C57.5652 10.9389 57.2637 11 56.9459 11H51.2626C51.1485 11 51.0915 10.943 51.0915 10.8289V9.38667C51.0915 9.34593 51.1078 9.30926 51.1404 9.27667C51.173 9.23593 51.2137 9.21556 51.2626 9.21556H52.0693L53.3281 7.85889V2.51778H54.8315V5.69556C54.8315 5.78519 54.8193 5.87481 54.7948 5.96444C54.7785 6.05407 54.7622 6.13556 54.7459 6.20889C54.7133 6.29037 54.6807 6.37185 54.6481 6.45333C54.6644 6.46148 54.6848 6.45333 54.7093 6.42889C55.2144 6.06222 55.7807 5.87889 56.4081 5.87889H57.1659C57.4593 5.87889 57.7322 5.93593 57.9848 6.05C58.2455 6.15593 58.4696 6.30259 58.657 6.49C58.8444 6.67741 58.9911 6.90148 59.097 7.16222C59.2111 7.41481 59.2681 7.68778 59.2681 7.98111V8.67778ZM57.227 9.21556C57.3737 9.21556 57.4959 9.16667 57.5937 9.06889C57.6996 8.96296 57.7526 8.84074 57.7526 8.70222V8.10333C57.7526 7.96481 57.7037 7.84667 57.6059 7.74889C57.5081 7.65111 57.39 7.60222 57.2515 7.60222H56.1515C55.7604 7.60222 55.4304 7.74481 55.1615 8.03L54.0859 9.21556H57.227ZM63.2661 7.82222C63.2173 7.86296 63.1643 7.91185 63.1073 7.96889C63.0584 8.02593 63.0339 8.11148 63.0339 8.22556V8.73889C63.0339 8.79593 63.0461 8.86519 63.0706 8.94667C63.1032 9.02 63.148 9.09333 63.205 9.16667C63.2621 9.24 63.3354 9.30111 63.425 9.35C63.5147 9.39074 63.6165 9.41111 63.7306 9.41111H64.3661C64.5047 9.41111 64.6187 9.38667 64.7084 9.33778C64.8061 9.28074 64.8795 9.21963 64.9284 9.15444C64.9854 9.08111 65.0221 9.01185 65.0384 8.94667C65.0628 8.87333 65.075 8.82037 65.075 8.78778V8.27444C65.075 8.20926 65.0547 8.13593 65.0139 8.05444C64.9813 7.96481 64.9161 7.88741 64.8184 7.82222C64.7776 7.79778 64.7084 7.75704 64.6106 7.7C64.5128 7.64296 64.415 7.58185 64.3173 7.51667C64.195 7.44333 64.0687 7.36593 63.9384 7.28444L63.2661 7.82222ZM62.7161 4.64444C62.7161 4.64444 62.7569 4.67296 62.8384 4.73C62.928 4.77889 63.038 4.84815 63.1684 4.93778C63.3069 5.02741 63.4617 5.12926 63.6328 5.24333C63.8121 5.35741 63.9913 5.47556 64.1706 5.59778C64.6024 5.88296 65.0873 6.20481 65.625 6.56333C65.8124 6.68556 65.9673 6.82 66.0895 6.96667C66.2198 7.11333 66.3217 7.26407 66.395 7.41889C66.4684 7.5737 66.5173 7.72852 66.5417 7.88333C66.5743 8.03815 66.5906 8.18481 66.5906 8.32333V8.72667C66.5906 8.99556 66.5417 9.27259 66.4439 9.55778C66.3543 9.83481 66.2076 10.0915 66.0039 10.3278C65.8084 10.5641 65.5558 10.7596 65.2461 10.9144C64.9447 11.0611 64.5821 11.1344 64.1584 11.1344H63.9017C63.5024 11.1344 63.1521 11.0611 62.8506 10.9144C62.5573 10.7596 62.3087 10.5641 62.105 10.3278C61.9095 10.0915 61.7628 9.83074 61.665 9.54556C61.5673 9.26037 61.5184 8.98741 61.5184 8.72667V8.36C61.5265 7.94444 61.6284 7.57778 61.8239 7.26C62.0276 6.94222 62.2558 6.71407 62.5084 6.57556C62.5491 6.55111 62.5817 6.53074 62.6061 6.51444C62.6387 6.49815 62.6632 6.48593 62.6795 6.47778C62.7039 6.46963 62.7202 6.46148 62.7284 6.45333L61.8973 5.90333L62.7161 4.64444ZM65.7162 14.1656L65.2518 12.7356L67.1096 12.1367C67.3947 12.0389 67.627 11.8678 67.8062 11.6233C67.9855 11.3789 68.0751 11.1019 68.0751 10.7922V6.44111H69.5907V10.6333C69.5907 10.9674 69.5377 11.2852 69.4318 11.5867C69.334 11.8963 69.1914 12.1774 69.004 12.43C68.8247 12.6907 68.6047 12.9148 68.344 13.1022C68.0914 13.2978 67.8103 13.4485 67.5007 13.5544L65.7162 14.1656ZM72.3677 11H70.8521V2.51778H72.3677V11ZM75.4205 11C75.1027 11 74.8094 10.9348 74.5405 10.8044C74.2797 10.6659 74.0557 10.4867 73.8683 10.2667C73.689 10.0467 73.5586 9.79407 73.4771 9.50889C73.4038 9.21556 73.3957 8.91815 73.4527 8.61667L73.6605 7.49222C73.7012 7.25593 73.7827 7.04 73.9049 6.84444C74.0271 6.64889 74.1738 6.47778 74.3449 6.33111C74.5242 6.18444 74.7238 6.07037 74.9438 5.98889C75.1638 5.90741 75.392 5.86667 75.6283 5.86667H76.3127C76.606 5.86667 76.879 5.9237 77.1316 6.03778C77.3842 6.1437 77.6042 6.29444 77.7916 6.49C77.9871 6.67741 78.1379 6.90148 78.2438 7.16222C78.3579 7.41481 78.4149 7.68778 78.4149 7.98111V9.21556H79.2338C79.3479 9.21556 79.4049 9.27259 79.4049 9.38667V10.8289C79.4049 10.943 79.3479 11 79.2338 11H78.4027C78.4027 11.0326 78.3986 11.0693 78.3905 11.11C78.366 11.3952 78.2968 11.6641 78.1827 11.9167C78.0768 12.1693 77.9301 12.4015 77.7427 12.6133C77.5634 12.8333 77.3516 13.0248 77.1071 13.1878C76.8709 13.3507 76.6101 13.4811 76.3249 13.5789L74.5405 14.19L74.0883 12.76L75.8971 12.1489C76.1823 12.0511 76.4186 11.8963 76.606 11.6844C76.7934 11.4726 76.8871 11.2119 76.8871 10.9022V10.8289C76.7812 10.8778 76.6549 10.9185 76.5083 10.9511C76.3697 10.9837 76.2312 11 76.0927 11H75.4205ZM75.2127 9.21556H76.8994V7.96889C76.8994 7.87111 76.8627 7.78556 76.7894 7.71222C76.7242 7.63889 76.6386 7.59815 76.5327 7.59H75.4816C75.3023 7.59 75.1842 7.69185 75.1271 7.89556L74.9316 8.88556C74.9153 8.96704 74.9357 9.04444 74.9927 9.11778C75.0497 9.18296 75.1231 9.21556 75.2127 9.21556ZM82.5647 11C82.2714 11 81.9944 10.947 81.7336 10.8411C81.481 10.727 81.257 10.5519 81.0614 10.3156C80.8496 10.5519 80.6133 10.727 80.3525 10.8411C80.0999 10.947 79.827 11 79.5336 11H79.2281C79.1792 11 79.1385 10.9837 79.1059 10.9511C79.0733 10.9104 79.057 10.8696 79.057 10.8289V9.39889C79.057 9.35 79.0773 9.30926 79.1181 9.27667C79.1588 9.23593 79.1955 9.21556 79.2281 9.21556H79.8147C79.9533 9.21556 80.0673 9.16667 80.157 9.06889C80.2547 8.96296 80.3036 8.84074 80.3036 8.70222V6.42889H81.807V8.70222C81.807 8.84074 81.8518 8.96296 81.9414 9.06889C82.0392 9.16667 82.1573 9.21556 82.2959 9.21556H82.6625C82.801 9.21556 82.9233 9.17481 83.0292 9.09333C83.1351 9.0037 83.2003 8.88963 83.2247 8.75111L83.6892 6.45333L85.2292 6.72222L84.8381 8.64111C84.8055 8.77963 84.8381 8.91 84.9359 9.03222C85.0336 9.15444 85.1518 9.21556 85.2903 9.21556H86.2436V6.11111H87.7592V9.37444C87.7592 9.59444 87.7144 9.80222 87.6247 9.99778C87.5433 10.1933 87.4251 10.3685 87.2703 10.5233C87.1236 10.67 86.9525 10.7881 86.757 10.8778C86.5614 10.9593 86.3536 11 86.1336 11H85.2903C85.0296 11 84.7892 10.947 84.5692 10.8411C84.3492 10.7352 84.1496 10.5559 83.9703 10.3033C83.7747 10.5641 83.5547 10.7474 83.3103 10.8533C83.074 10.9511 82.8255 11 82.5647 11ZM85.547 5.43889H84.0192V3.91111H85.547V5.43889ZM83.3836 5.43889H81.8559V3.91111H83.3836V5.43889ZM84.447 3.45889H82.9192V1.93111H84.447V3.45889ZM90.8176 11C90.4998 11 90.2065 10.9348 89.9376 10.8044C89.6769 10.6659 89.4528 10.4867 89.2654 10.2667C89.0861 10.0467 88.9558 9.79407 88.8743 9.50889C88.8009 9.21556 88.7928 8.91815 88.8498 8.61667L89.0576 7.49222C89.0984 7.25593 89.1798 7.04 89.3021 6.84444C89.4243 6.64889 89.5709 6.47778 89.7421 6.33111C89.9213 6.18444 90.1209 6.07037 90.3409 5.98889C90.5609 5.90741 90.7891 5.86667 91.0254 5.86667H91.7098C92.0032 5.86667 92.2761 5.9237 92.5287 6.03778C92.7813 6.1437 93.0013 6.29444 93.1887 6.49C93.3843 6.67741 93.535 6.90148 93.6409 7.16222C93.755 7.41481 93.8121 7.68778 93.8121 7.98111V9.21556H94.6309C94.745 9.21556 94.8021 9.27259 94.8021 9.38667V10.8289C94.8021 10.943 94.745 11 94.6309 11H93.7998C93.7998 11.0326 93.7958 11.0693 93.7876 11.11C93.7632 11.3952 93.6939 11.6641 93.5798 11.9167C93.4739 12.1693 93.3272 12.4015 93.1398 12.6133C92.9606 12.8333 92.7487 13.0248 92.5043 13.1878C92.268 13.3507 92.0072 13.4811 91.7221 13.5789L89.9376 14.19L89.4854 12.76L91.2943 12.1489C91.5795 12.0511 91.8158 11.8963 92.0032 11.6844C92.1906 11.4726 92.2843 11.2119 92.2843 10.9022V10.8289C92.1784 10.8778 92.0521 10.9185 91.9054 10.9511C91.7669 10.9837 91.6284 11 91.4898 11H90.8176ZM90.6098 9.21556H92.2965V7.96889C92.2965 7.87111 92.2598 7.78556 92.1865 7.71222C92.1213 7.63889 92.0358 7.59815 91.9298 7.59H90.8787C90.6995 7.59 90.5813 7.69185 90.5243 7.89556L90.3287 8.88556C90.3124 8.96704 90.3328 9.04444 90.3898 9.11778C90.4469 9.18296 90.5202 9.21556 90.6098 9.21556ZM97.3752 7.51667L96.2874 6.47778L100.003 2.12667L101.091 3.12889L98.7808 5.86667H103.376C103.662 5.86667 103.93 5.9237 104.183 6.03778C104.444 6.1437 104.668 6.29444 104.855 6.49C105.051 6.67741 105.202 6.90148 105.307 7.16222C105.422 7.41481 105.479 7.68778 105.479 7.98111V8.88556C105.479 9.18704 105.417 9.46815 105.295 9.72889C105.181 9.98963 105.022 10.2137 104.819 10.4011C104.623 10.5885 104.395 10.7352 104.134 10.8411C103.873 10.947 103.6 11 103.315 11H94.6252C94.5111 11 94.4541 10.943 94.4541 10.8289V9.38667C94.4541 9.34593 94.4704 9.30926 94.503 9.27667C94.5356 9.23593 94.5763 9.21556 94.6252 9.21556H103.633C103.706 9.21556 103.78 9.17889 103.853 9.10556C103.926 9.03222 103.963 8.93852 103.963 8.82444V7.95667C103.963 7.83444 103.918 7.73259 103.829 7.65111C103.747 7.56148 103.649 7.51667 103.535 7.51667H97.3752ZM95.1997 5.03556L98.1819 1.52778L98.8908 2.23667L95.9819 5.64667L95.1997 5.03556Z" fill="white"/>
<path d="M35.0766 27.1789C35.3781 27.073 35.6225 26.9426 35.8099 26.7878C36.0055 26.6248 36.1032 26.4578 36.1032 26.2867V25.9933C36.1032 25.7326 36.0136 25.5167 35.8344 25.3456C35.6632 25.1663 35.4473 25.0767 35.1866 25.0767H34.9544C34.7018 25.0767 34.4858 25.1663 34.3066 25.3456C34.1273 25.5167 34.0377 25.7285 34.0377 25.9811V26.2867C34.0377 26.4578 34.1355 26.6248 34.331 26.7878C34.5266 26.9426 34.7751 27.073 35.0766 27.1789ZM37.4477 26.2256C37.4477 26.633 37.3132 27.0281 37.0444 27.4111H37.5088H37.961C38.0099 27.4111 38.0507 27.4315 38.0832 27.4722C38.1158 27.5048 38.1321 27.5456 38.1321 27.5944V28.8289C38.1321 28.8778 38.1118 28.9185 38.071 28.9511C38.0384 28.9837 38.0018 29 37.961 29H36.7388C36.5921 29 36.4577 28.9959 36.3355 28.9878C36.2132 28.9715 36.091 28.947 35.9688 28.9144C35.8466 28.8737 35.7121 28.8207 35.5655 28.7556C35.4269 28.6904 35.264 28.6048 35.0766 28.4989C34.8892 28.6048 34.7221 28.6904 34.5755 28.7556C34.4369 28.8207 34.3066 28.8737 34.1844 28.9144C34.0621 28.947 33.9399 28.9715 33.8177 28.9878C33.6955 28.9959 33.5569 29 33.4021 29H29.6499C29.3077 29 28.9818 28.9348 28.6721 28.8044C28.3707 28.6741 28.1058 28.4989 27.8777 28.2789C27.6495 28.0507 27.4703 27.7859 27.3399 27.4844C27.2095 27.183 27.1444 26.8611 27.1444 26.5189V24.2822H28.4888V26.3967C28.4888 26.6819 28.5866 26.9222 28.7821 27.1178C28.9777 27.3133 29.2181 27.4111 29.5032 27.4111H32.6444H33.0966C32.8277 27.0281 32.6932 26.633 32.6932 26.2256V25.8711C32.6932 25.5615 32.7584 25.2681 32.8888 24.9911C33.0192 24.7059 33.1903 24.4574 33.4021 24.2456C33.614 24.0337 33.8584 23.8667 34.1355 23.7444C34.4207 23.6141 34.7099 23.5489 35.0032 23.5489H35.1988C35.5084 23.5489 35.7977 23.61 36.0666 23.7322C36.3436 23.8463 36.584 24.0052 36.7877 24.2089C36.9914 24.4126 37.1503 24.653 37.2644 24.93C37.3866 25.1989 37.4477 25.4881 37.4477 25.7978V26.2256ZM34.3432 21.0311H35.7488V22.4367H34.3432V21.0311ZM38.5393 31.8722H39.9326V30.4667H38.5393V31.8722ZM40.5682 31.8722H41.9737V30.4667H40.5682V31.8722ZM42.7193 28.8289C42.7193 28.8696 42.703 28.9104 42.6704 28.9511C42.6378 28.9837 42.5971 29 42.5482 29H41.6193C41.3585 29 41.0978 28.9307 40.8371 28.7922C40.5763 28.6456 40.4011 28.4744 40.3115 28.2789C40.2545 28.3767 40.173 28.4704 40.0671 28.56C39.9611 28.6415 39.843 28.7189 39.7126 28.7922C39.5904 28.8574 39.456 28.9104 39.3093 28.9511C39.1708 28.9837 39.0322 29 38.8937 29H37.9648C37.8508 29 37.7937 28.943 37.7937 28.8289V27.5944C37.7937 27.5456 37.81 27.5048 37.8426 27.4722C37.8752 27.4315 37.916 27.4111 37.9648 27.4111H39.016C39.1789 27.4111 39.3215 27.3622 39.4437 27.2644C39.566 27.1667 39.6434 27.0363 39.676 26.8733L40.1282 24.6733L41.4482 24.9056L41.0815 26.7511C41.0408 26.9222 41.0774 27.077 41.1915 27.2156C41.3056 27.3459 41.4522 27.4111 41.6315 27.4111H42.5482C42.5971 27.4111 42.6378 27.4315 42.6704 27.4722C42.703 27.5048 42.7193 27.5456 42.7193 27.5944V28.8289ZM44.4915 26.2867C44.4915 26.4578 44.5852 26.6207 44.7726 26.7756C44.9682 26.9304 45.2208 27.0648 45.5304 27.1789C45.8319 27.0648 46.0763 26.9304 46.2637 26.7756C46.4593 26.6207 46.5571 26.4578 46.5571 26.2867V25.9811C46.5571 25.7285 46.4674 25.5167 46.2882 25.3456C46.1089 25.1663 45.893 25.0767 45.6404 25.0767H45.4082C45.1556 25.0767 44.9397 25.1663 44.7604 25.3456C44.5811 25.5167 44.4915 25.7285 44.4915 25.9811V26.2867ZM43.196 25.8589C43.196 25.533 43.2571 25.2315 43.3793 24.9544C43.5097 24.6693 43.6767 24.4248 43.8804 24.2211C44.0922 24.0093 44.3326 23.8463 44.6015 23.7322C44.8785 23.61 45.1637 23.5489 45.4571 23.5489H45.6526C45.9623 23.5489 46.2515 23.61 46.5204 23.7322C46.7974 23.8463 47.0378 24.0052 47.2415 24.2089C47.4452 24.4126 47.6041 24.653 47.7182 24.93C47.8404 25.1989 47.9015 25.4881 47.9015 25.7978V26.2256C47.9015 26.633 47.7671 27.0281 47.4982 27.4111H47.8893H48.5371C48.5941 27.4111 48.6348 27.4315 48.6593 27.4722C48.6919 27.5048 48.7082 27.5456 48.7082 27.5944V28.8289C48.7082 28.8696 48.6919 28.9104 48.6593 28.9511C48.6267 28.9837 48.586 29 48.5371 29H47.1926C47.046 29 46.9115 28.9959 46.7893 28.9878C46.6671 28.9715 46.5408 28.947 46.4104 28.9144C46.2882 28.8737 46.1578 28.8207 46.0193 28.7556C45.8808 28.6904 45.7178 28.6048 45.5304 28.4989C45.343 28.6048 45.18 28.6904 45.0415 28.7556C44.903 28.8207 44.7726 28.8737 44.6504 28.9144C44.5282 28.947 44.406 28.9715 44.2837 28.9878C44.1615 28.9959 44.0271 29 43.8804 29H42.5482C42.4341 29 42.3771 28.943 42.3771 28.8289V27.5944C42.3771 27.5456 42.3934 27.5048 42.426 27.4722C42.4504 27.4315 42.4911 27.4111 42.5482 27.4111H43.2204H43.5871C43.3263 27.0363 43.196 26.6411 43.196 26.2256V25.8589ZM44.8337 22.4367H46.2393V21.0311H44.8337V22.4367ZM50.3977 21.2022H51.8033V22.6078H50.3977V21.2022ZM48.5399 29C48.4259 29 48.3688 28.943 48.3688 28.8289V27.5944C48.3688 27.5537 48.3892 27.513 48.4299 27.4722C48.4625 27.4315 48.4992 27.4111 48.5399 27.4111H50.7277C51.0699 27.4111 51.4081 27.3581 51.7422 27.2522C52.0762 27.1381 52.3614 26.9548 52.5977 26.7022L53.3066 25.9444C53.3473 25.9037 53.384 25.867 53.4166 25.8344C53.4492 25.8019 53.4696 25.7856 53.4777 25.7856L50.911 25.0156C50.8296 24.9911 50.7562 24.9993 50.691 25.04C50.634 25.0726 50.5892 25.1256 50.5566 25.1989L50.0922 26.4211L48.9188 26.1033L49.2366 24.9789C49.3099 24.7263 49.424 24.5104 49.5788 24.3311C49.7336 24.1519 49.9129 24.0133 50.1166 23.9156C50.3203 23.8096 50.5362 23.7485 50.7644 23.7322C50.9925 23.7078 51.2125 23.7281 51.4244 23.7933L56.2888 25.2478L55.8855 26.5067L55.311 26.3356C55.1725 26.303 55.0544 26.2948 54.9566 26.3111C54.867 26.3274 54.7814 26.36 54.6999 26.4089V26.8244C54.6999 26.9874 54.757 27.1259 54.871 27.24C54.9851 27.3541 55.1236 27.4111 55.2866 27.4111H56.9122C57.0262 27.4111 57.0833 27.4681 57.0833 27.5822V28.8289C57.0833 28.943 57.0262 29 56.9122 29H55.5066C55.0177 29 54.6022 28.8615 54.2599 28.5844C53.9259 28.2993 53.6936 27.9367 53.5633 27.4967L53.0744 27.9856C52.724 28.3359 52.3166 28.5926 51.8522 28.7556C51.3877 28.9185 50.911 29 50.4222 29H48.5399ZM58.9847 27.4111C59.1476 27.4111 59.2862 27.3541 59.4002 27.24C59.5143 27.1178 59.5713 26.9752 59.5713 26.8122V24.2822H60.9158V26.8122C60.9158 27.1137 60.8588 27.3989 60.7447 27.6678C60.6306 27.9285 60.4717 28.1607 60.268 28.3644C60.0725 28.56 59.8402 28.7148 59.5713 28.8289C59.3106 28.943 59.0295 29 58.728 29H56.9069C56.858 29 56.8173 28.9837 56.7847 28.9511C56.7521 28.9104 56.7358 28.8696 56.7358 28.8289V27.5944C56.7358 27.5456 56.7521 27.5048 56.7847 27.4722C56.8173 27.4315 56.858 27.4111 56.9069 27.4111H58.9847ZM57.4691 23.17H58.8747V21.7644H57.4691V23.17ZM59.5102 23.17H60.9158V21.7644H59.5102V23.17ZM68.3976 20.0411C68.5035 21.2063 68.7032 22.2778 68.9965 23.2556C69.298 24.2252 69.6076 25.0685 69.9254 25.7856C70.3002 26.6167 70.7076 27.3663 71.1476 28.0344L69.962 29.0122C69.5465 28.3278 69.1758 27.6433 68.8498 26.9589C68.7113 26.6656 68.5728 26.36 68.4343 26.0422C68.3039 25.7244 68.1858 25.4067 68.0798 25.0889C67.982 24.7711 67.9006 24.4574 67.8354 24.1478C67.7702 23.8381 67.7376 23.5448 67.7376 23.2678C67.7376 23.6344 67.6806 24.0337 67.5665 24.4656C67.4606 24.8893 67.3261 25.313 67.1632 25.7367C67.0002 26.1604 66.8209 26.5719 66.6254 26.9711C66.438 27.3622 66.2587 27.7085 66.0876 28.01C65.9246 28.3115 65.7861 28.5559 65.672 28.7433C65.5661 28.9226 65.5132 29.0122 65.5132 29.0122L64.3276 28.0344C64.7024 27.5293 65.065 26.8937 65.4154 26.1278C65.7087 25.4759 66.0102 24.6489 66.3198 23.6467C66.6376 22.6363 66.8902 21.4344 67.0776 20.0411H68.3976ZM73.3618 29.0978L76.2218 20.4567L77.1141 20.7744L74.2541 29.3911L73.3618 29.0978ZM73.4718 24.3433C72.4941 24.3433 72.0052 23.7485 72.0052 22.5589C72.0052 21.3774 72.4941 20.7867 73.4718 20.7867C74.4496 20.7867 74.9385 21.3774 74.9385 22.5589C74.9385 23.7485 74.4496 24.3433 73.4718 24.3433ZM73.4718 23.3656C73.7244 23.3656 73.8507 23.0967 73.8507 22.5589C73.8507 22.0293 73.7244 21.7644 73.4718 21.7644C73.2192 21.7644 73.0929 22.0293 73.0929 22.5589C73.0929 23.0967 73.2192 23.3656 73.4718 23.3656ZM77.0285 29.1467C76.0426 29.1467 75.5496 28.5519 75.5496 27.3622C75.5496 26.1807 76.0426 25.59 77.0285 25.59C78.0144 25.59 78.5074 26.1807 78.5074 27.3622C78.5074 28.5519 78.0144 29.1467 77.0285 29.1467ZM77.0285 28.1689C77.2892 28.1689 77.4196 27.9 77.4196 27.3622C77.4196 26.8326 77.2892 26.5678 77.0285 26.5678C76.7678 26.5678 76.6374 26.8326 76.6374 27.3622C76.6374 27.9 76.7678 28.1689 77.0285 28.1689Z" fill="#29FDB0"/>
</svg>
