<svg width="109" height="35" viewBox="0 0 109 35" fill="none" xmlns="http://www.w3.org/2000/svg">
<path d="M4.36775 10.8289C4.36775 10.943 4.31071 11 4.19664 11H3.82997C3.52034 11 3.22701 10.943 2.94997 10.8289C2.68108 10.7067 2.44479 10.5478 2.24108 10.3522C2.03738 10.1485 1.87442 9.91222 1.75219 9.64333C1.63812 9.3663 1.58108 9.07296 1.58108 8.76333V2.51778H3.09664V8.72667C3.09664 8.86519 3.14145 8.98333 3.23108 9.08111C3.32886 9.17074 3.44701 9.21556 3.58553 9.21556H4.19664C4.24553 9.21556 4.28627 9.23593 4.31886 9.27667C4.35145 9.30926 4.36775 9.35 4.36775 9.39889V10.8289ZM4.83983 13.9944H6.34317V12.4667H4.83983V13.9944ZM6.97872 13.9944H8.5065V12.4667H6.97872V13.9944ZM9.2765 10.8289C9.2765 10.8696 9.2602 10.9104 9.22761 10.9511C9.19502 10.9837 9.15428 11 9.10539 11H8.01761C7.76502 11 7.51242 10.9389 7.25983 10.8167C7.01539 10.6944 6.83205 10.5274 6.70983 10.3156C6.55502 10.5274 6.34317 10.6944 6.07428 10.8167C5.81354 10.9389 5.55279 11 5.29205 11H4.19205C4.15131 11 4.11465 10.9837 4.08205 10.9511C4.04131 10.9185 4.02094 10.8778 4.02094 10.8289V9.39889C4.02094 9.35 4.04131 9.30926 4.08205 9.27667C4.11465 9.23593 4.15131 9.21556 4.19205 9.21556H5.43872C5.57724 9.21556 5.69946 9.17481 5.80539 9.09333C5.91131 9.0037 5.9765 8.88963 6.00094 8.75111L6.47761 6.45333L7.9565 6.72222L7.57761 8.65333C7.54502 8.80815 7.57354 8.94259 7.66317 9.05667C7.75279 9.16259 7.87502 9.21556 8.02983 9.21556H9.10539C9.15428 9.21556 9.19502 9.23593 9.22761 9.27667C9.2602 9.30926 9.2765 9.35 9.2765 9.39889V10.8289ZM10.894 9.21556C11.0326 9.21556 11.1466 9.17074 11.2363 9.08111C11.334 8.98333 11.3829 8.86519 11.3829 8.72667V6.08667H12.8985V8.71444C12.8985 9.03222 12.8374 9.32963 12.7151 9.60667C12.6011 9.8837 12.4381 10.1281 12.2263 10.34C12.0226 10.5437 11.7822 10.7067 11.5051 10.8289C11.2281 10.943 10.9307 11 10.6129 11H9.10959C9.0607 11 9.01996 10.9837 8.98737 10.9511C8.95477 10.9104 8.93848 10.8696 8.93848 10.8289V9.39889C8.93848 9.35 8.95477 9.30926 8.98737 9.27667C9.01996 9.23593 9.0607 9.21556 9.10959 9.21556H10.894ZM11.3585 5.08444H12.8863V3.55667H11.3585V5.08444ZM12.0333 14.1656L11.5688 12.7356L13.4266 12.1367C13.7118 12.0389 13.944 11.8678 14.1233 11.6233C14.3025 11.3789 14.3922 11.1019 14.3922 10.7922V6.44111H15.9077V10.6333C15.9077 10.9674 15.8548 11.2852 15.7488 11.5867C15.6511 11.8963 15.5085 12.1774 15.3211 12.43C15.1418 12.6907 14.9218 12.9148 14.6611 13.1022C14.4085 13.2978 14.1274 13.4485 13.8177 13.5544L12.0333 14.1656ZM19.9559 10.8289C19.9559 10.943 19.8988 11 19.7847 11H19.4181C19.1084 11 18.8151 10.943 18.5381 10.8289C18.2692 10.7067 18.0329 10.5478 17.8292 10.3522C17.6255 10.1485 17.4625 9.91222 17.3403 9.64333C17.2262 9.3663 17.1692 9.07296 17.1692 8.76333V2.51778H18.6847V8.72667C18.6847 8.86519 18.7296 8.98333 18.8192 9.08111C18.917 9.17074 19.0351 9.21556 19.1736 9.21556H19.7847C19.8336 9.21556 19.8744 9.23593 19.907 9.27667C19.9396 9.30926 19.9559 9.35 19.9559 9.39889V10.8289ZM21.5646 9.21556C21.7031 9.21556 21.8172 9.17074 21.9068 9.08111C22.0046 8.98333 22.0535 8.86519 22.0535 8.72667V6.08667H23.5691V8.71444C23.5691 9.03222 23.5079 9.32963 23.3857 9.60667C23.2716 9.8837 23.1087 10.1281 22.8968 10.34C22.6931 10.5437 22.4528 10.7067 22.1757 10.8289C21.8987 10.943 21.6013 11 21.2835 11H19.7802C19.7313 11 19.6905 10.9837 19.6579 10.9511C19.6253 10.9104 19.6091 10.8696 19.6091 10.8289V9.39889C19.6091 9.35 19.6253 9.30926 19.6579 9.27667C19.6905 9.23593 19.7313 9.21556 19.7802 9.21556H21.5646ZM22.0291 5.08444H23.5568V3.55667H22.0291V5.08444ZM31.1029 5.87889C31.3962 5.87889 31.6692 5.93593 31.9218 6.05C32.1825 6.15593 32.4066 6.30667 32.594 6.50222C32.7896 6.68963 32.9403 6.90963 33.0462 7.16222C33.1603 7.41481 33.2173 7.68778 33.2173 7.98111V9.38667C33.2173 9.60667 33.1725 9.81444 33.0829 10.01C33.0014 10.2056 32.8833 10.3767 32.7285 10.5233C32.5818 10.67 32.4107 10.7881 32.2151 10.8778C32.0196 10.9593 31.8118 11 31.5918 11H30.2107C29.8929 11 29.5996 10.9348 29.3307 10.8044C29.0699 10.6659 28.8499 10.4867 28.6707 10.2667C28.4914 10.0467 28.3611 9.79407 28.2796 9.50889C28.1981 9.21556 28.1859 8.91407 28.2429 8.60444L28.4262 7.60222H27.8518C27.7214 7.60222 27.6073 7.64704 27.5096 7.73667C27.4118 7.8263 27.3629 7.94037 27.3629 8.07889V14.08H25.8596V8.16444C25.8596 7.84667 25.9166 7.54926 26.0307 7.27222C26.1529 6.99518 26.3159 6.75481 26.5196 6.55111C26.7314 6.33926 26.9759 6.1763 27.2529 6.06222C27.5299 5.94 27.8273 5.87889 28.1451 5.87889H31.1029ZM31.7018 9.22778V7.96889C31.7099 7.87111 31.6733 7.78556 31.5918 7.71222C31.5185 7.63889 31.4329 7.60222 31.3351 7.60222H29.9907L29.734 8.88556C29.7177 8.97519 29.7381 9.05667 29.7951 9.13C29.8522 9.19519 29.9255 9.22778 30.0151 9.22778H31.7018ZM36.2221 6.42889V8.8C36.2221 8.92222 36.271 9.02407 36.3688 9.10556C36.4666 9.17889 36.5766 9.21556 36.6988 9.21556H37.481C37.5951 9.21556 37.6521 9.27259 37.6521 9.38667V10.8289C37.6521 10.943 37.5951 11 37.481 11H36.9432C36.821 11 36.6906 10.9756 36.5521 10.9267C36.4136 10.8696 36.2995 10.7841 36.2099 10.67V10.8778C36.2099 11.1956 36.1569 11.493 36.051 11.77C35.9451 12.047 35.7984 12.2996 35.611 12.5278C35.4317 12.7559 35.2158 12.9556 34.9632 13.1267C34.7106 13.3059 34.4336 13.4444 34.1321 13.5422L32.3477 14.1411L31.8832 12.7233L33.741 12.1244C34.0343 12.0348 34.2666 11.8637 34.4377 11.6111C34.6169 11.3585 34.7066 11.0774 34.7066 10.7678V6.42889H36.2221ZM39.7665 13.9944H41.2942V12.4667H39.7665V13.9944ZM41.9298 13.9944H43.4576V12.4667H41.9298V13.9944ZM40.8176 15.9744H42.3453V14.4467H40.8176V15.9744ZM37.3098 9.39889C37.3098 9.35815 37.3302 9.31741 37.3709 9.27667C37.4035 9.23593 37.4402 9.21556 37.4809 9.21556H39.7909C40.125 9.21556 40.4509 9.16259 40.7687 9.05667C41.0946 8.95074 41.3676 8.77556 41.5876 8.53111L42.1742 7.84667C42.1905 7.82222 42.2068 7.80185 42.2231 7.78556C42.2394 7.76926 42.2557 7.75296 42.272 7.73667C42.2883 7.72852 42.3005 7.7163 42.3087 7.7L39.8398 6.96667C39.7746 6.94222 39.7176 6.9463 39.6687 6.97889C39.6198 7.00333 39.5872 7.04407 39.5709 7.10111L39.1065 8.37222L37.7987 8.01778L38.1287 6.85667C38.2102 6.58778 38.3324 6.35963 38.4953 6.17222C38.6665 5.97667 38.8579 5.82593 39.0698 5.72C39.2898 5.61407 39.5179 5.55296 39.7542 5.53667C39.9905 5.51222 40.2187 5.53259 40.4387 5.59778L45.3398 7.06444L44.912 8.47L44.252 8.27444C44.0646 8.2337 43.9179 8.22963 43.812 8.26222C43.7142 8.29481 43.6083 8.36815 43.4942 8.48222L42.1498 9.94889C41.8076 10.3237 41.392 10.5926 40.9031 10.7556C40.4142 10.9185 39.9131 11 39.3998 11H37.4809C37.3668 11 37.3098 10.943 37.3098 10.8289V9.39889ZM52.4707 10.6456C52.4707 10.9796 52.4218 11.2974 52.324 11.5989C52.2262 11.9085 52.0837 12.1896 51.8962 12.4422C51.717 12.703 51.497 12.9311 51.2362 13.1267C50.9837 13.3222 50.6985 13.473 50.3807 13.5789L48.5962 14.19L48.144 12.76L49.9529 12.1489C50.2381 12.0511 50.4744 11.8922 50.6618 11.6722C50.8492 11.4604 50.9429 11.1996 50.9429 10.89V10.8289C50.8451 10.8859 50.7229 10.9307 50.5762 10.9633C50.4296 10.9878 50.287 11 50.1485 11H49.4762C49.1585 11 48.8651 10.9348 48.5962 10.8044C48.3355 10.6659 48.1114 10.4867 47.924 10.2667C47.7448 10.0385 47.6144 9.78185 47.5329 9.49667C47.4596 9.21148 47.4514 8.91815 47.5085 8.61667L47.7162 7.49222C47.757 7.25593 47.8385 7.04 47.9607 6.84444C48.0829 6.64889 48.2296 6.47778 48.4007 6.33111C48.58 6.18444 48.7796 6.07037 48.9996 5.98889C49.2196 5.90741 49.4477 5.86667 49.684 5.86667H50.3685C50.6618 5.86667 50.9348 5.9237 51.1874 6.03778C51.44 6.1437 51.66 6.29444 51.8474 6.49C52.0429 6.67741 52.1937 6.90148 52.2996 7.16222C52.4137 7.41481 52.4707 7.68778 52.4707 7.98111V10.6456ZM50.9551 9.21556V7.96889C50.9551 7.87111 50.9185 7.78556 50.8451 7.71222C50.78 7.63889 50.6944 7.59815 50.5885 7.59H49.5374C49.3581 7.59 49.24 7.69185 49.1829 7.89556L48.9874 8.88556C48.9711 8.96704 48.9914 9.04444 49.0485 9.11778C49.1055 9.18296 49.1788 9.21556 49.2685 9.21556H50.9551ZM62.1473 10.8289C62.1473 10.943 62.0903 11 61.9762 11H61.3896C61.0636 11 60.7622 10.9389 60.4851 10.8167C60.2162 10.6944 59.9799 10.5274 59.7762 10.3156C59.6051 10.4622 59.4136 10.5885 59.2018 10.6944C58.9899 10.7922 58.7618 10.8615 58.5173 10.9022L54.9729 11.3911L54.7651 9.76556L56.0973 9.59444L55.4985 3.21444L57.0385 3.03111L57.5885 9.39889L58.4196 9.28889C58.6151 9.26444 58.7822 9.17481 58.9207 9.02C59.0673 8.85704 59.1407 8.68185 59.1407 8.49444V2.51778H60.644V8.72667C60.644 8.84074 60.6848 8.95074 60.7662 9.05667C60.8559 9.16259 60.9699 9.21556 61.1085 9.21556H61.9762C62.0903 9.21556 62.1473 9.27259 62.1473 9.38667V10.8289ZM69.9786 8.67778C69.9786 8.99556 69.9175 9.29704 69.7953 9.58222C69.6731 9.86741 69.5061 10.1159 69.2942 10.3278C69.0905 10.5315 68.8461 10.6944 68.5609 10.8167C68.2757 10.9389 67.9742 11 67.6564 11H61.9731C61.859 11 61.802 10.943 61.802 10.8289V9.38667C61.802 9.34593 61.8183 9.30926 61.8509 9.27667C61.8835 9.23593 61.9242 9.21556 61.9731 9.21556H62.7798L64.0386 7.85889V2.51778H65.542V5.69556C65.542 5.78519 65.5298 5.87481 65.5053 5.96444C65.489 6.05407 65.4727 6.13556 65.4564 6.20889C65.4238 6.29037 65.3912 6.37185 65.3586 6.45333C65.3749 6.46148 65.3953 6.45333 65.4198 6.42889C65.9249 6.06222 66.4912 5.87889 67.1186 5.87889H67.8764C68.1698 5.87889 68.4427 5.93593 68.6953 6.05C68.9561 6.15593 69.1801 6.30259 69.3675 6.49C69.5549 6.67741 69.7016 6.90148 69.8075 7.16222C69.9216 7.41481 69.9786 7.68778 69.9786 7.98111V8.67778ZM67.9375 9.21556C68.0842 9.21556 68.2064 9.16667 68.3042 9.06889C68.4101 8.96296 68.4631 8.84074 68.4631 8.70222V8.10333C68.4631 7.96481 68.4142 7.84667 68.3164 7.74889C68.2186 7.65111 68.1005 7.60222 67.962 7.60222H66.862C66.4709 7.60222 66.1409 7.74481 65.872 8.03L64.7964 9.21556H67.9375ZM78.4622 9.21556H78.8289C78.8696 9.21556 78.9063 9.23593 78.9389 9.27667C78.9796 9.30926 79 9.35 79 9.39889V10.8289C79 10.8696 78.9837 10.9104 78.9511 10.9511C78.9185 10.9837 78.8778 11 78.8289 11H78.5844C78.2585 11 77.9692 10.9389 77.7166 10.8167C77.4641 10.6944 77.2563 10.56 77.0933 10.4133C76.8815 10.5926 76.6411 10.7352 76.3722 10.8411C76.1115 10.947 75.8263 11 75.5166 11H73.94C73.7037 11 73.4796 10.9552 73.2678 10.8656C73.0641 10.7759 72.8848 10.6537 72.73 10.4989C72.5752 10.3359 72.4529 10.1526 72.3633 9.94889C72.2737 9.73704 72.2289 9.51296 72.2289 9.27667V7.59H73.5V8.95889C73.5 9.03222 73.5244 9.09333 73.5733 9.14222C73.6222 9.19111 73.6833 9.21556 73.7566 9.21556H75.5411C75.7611 9.21556 75.9404 9.13815 76.0789 8.98333C76.2174 8.82037 76.2663 8.63296 76.2255 8.42111L75.2233 4.80333L76.6655 4.27778L77.9366 8.81222C77.9692 8.9263 78.0344 9.02407 78.1322 9.10556C78.23 9.17889 78.34 9.21556 78.4622 9.21556ZM80.7086 5.45111H82.2364V3.92333H80.7086V5.45111ZM83.7153 10.8289C83.7153 10.8696 83.699 10.9104 83.6664 10.9511C83.6338 10.9837 83.5931 11 83.5442 11H82.5542C82.3016 11 82.049 10.9389 81.7964 10.8167C81.5519 10.6944 81.3686 10.5274 81.2464 10.3156C81.0916 10.5274 80.8797 10.6944 80.6108 10.8167C80.3501 10.9389 80.0893 11 79.8286 11H78.8264C78.7856 11 78.749 10.9837 78.7164 10.9511C78.6756 10.9185 78.6553 10.8778 78.6553 10.8289V9.39889C78.6553 9.35 78.6756 9.30926 78.7164 9.27667C78.749 9.23593 78.7856 9.21556 78.8264 9.21556H79.9753C80.1138 9.21556 80.236 9.17481 80.3419 9.09333C80.4479 9.0037 80.5131 8.88963 80.5375 8.75111L81.0142 6.45333L82.4931 6.72222L82.1142 8.65333C82.0816 8.80815 82.1101 8.94259 82.1997 9.05667C82.2893 9.16259 82.4116 9.21556 82.5664 9.21556H83.5442C83.5931 9.21556 83.6338 9.23593 83.6664 9.27667C83.699 9.30926 83.7153 9.35 83.7153 9.39889V10.8289ZM85.191 14.0067H86.7188V12.4789H85.191V14.0067ZM88.4299 10.8289C88.4299 10.8696 88.4136 10.9104 88.381 10.9511C88.3484 10.9837 88.3077 11 88.2588 11H87.2688C87.0162 11 86.7636 10.9389 86.511 10.8167C86.2666 10.6944 86.0832 10.5274 85.961 10.3156C85.8062 10.5274 85.5943 10.6944 85.3255 10.8167C85.0647 10.9389 84.804 11 84.5432 11H83.541C83.5003 11 83.4636 10.9837 83.431 10.9511C83.3903 10.9185 83.3699 10.8778 83.3699 10.8289V9.39889C83.3699 9.35 83.3903 9.30926 83.431 9.27667C83.4636 9.23593 83.5003 9.21556 83.541 9.21556H84.6899C84.8284 9.21556 84.9506 9.17481 85.0566 9.09333C85.1625 9.0037 85.2277 8.88963 85.2521 8.75111L85.7288 6.45333L87.2077 6.72222L86.8288 8.65333C86.7962 8.80815 86.8247 8.94259 86.9143 9.05667C87.004 9.16259 87.1262 9.21556 87.281 9.21556H88.2588C88.3077 9.21556 88.3484 9.23593 88.381 9.27667C88.4136 9.30926 88.4299 9.35 88.4299 9.39889V10.8289ZM88.5979 5.45111H90.1256V3.92333H88.5979V5.45111ZM90.7612 5.45111H92.289V3.92333H90.7612V5.45111ZM93.1445 10.8289C93.1445 10.8696 93.1282 10.9104 93.0956 10.9511C93.063 10.9837 93.0223 11 92.9734 11H91.9834C91.7308 11 91.4782 10.9389 91.2256 10.8167C90.9812 10.6944 90.7979 10.5274 90.6756 10.3156C90.5208 10.5274 90.309 10.6944 90.0401 10.8167C89.7793 10.9389 89.5186 11 89.2579 11H88.2556C88.2149 11 88.1782 10.9837 88.1456 10.9511C88.1049 10.9185 88.0845 10.8778 88.0845 10.8289V9.39889C88.0845 9.35 88.1049 9.30926 88.1456 9.27667C88.1782 9.23593 88.2149 9.21556 88.2556 9.21556H89.4045C89.543 9.21556 89.6653 9.17481 89.7712 9.09333C89.8771 9.0037 89.9423 8.88963 89.9667 8.75111L90.4434 6.45333L91.9223 6.72222L91.5434 8.65333C91.5108 8.80815 91.5393 8.94259 91.629 9.05667C91.7186 9.16259 91.8408 9.21556 91.9956 9.21556H92.9734C93.0223 9.21556 93.063 9.23593 93.0956 9.27667C93.1282 9.30926 93.1445 9.35 93.1445 9.39889V10.8289ZM96.3069 11C96.0136 11 95.7366 10.947 95.4758 10.8411C95.2232 10.727 94.9992 10.5519 94.8036 10.3156C94.5917 10.5519 94.3555 10.727 94.0947 10.8411C93.8421 10.947 93.5692 11 93.2758 11H92.9703C92.9214 11 92.8806 10.9837 92.848 10.9511C92.8155 10.9104 92.7992 10.8696 92.7992 10.8289V9.39889C92.7992 9.35 92.8195 9.30926 92.8603 9.27667C92.8929 9.23593 92.9295 9.21556 92.9703 9.21556H93.5569C93.6955 9.21556 93.8095 9.16667 93.8992 9.06889C93.9969 8.96296 94.0458 8.84074 94.0458 8.70222V6.42889H95.5492V8.70222C95.5492 8.84074 95.594 8.96296 95.6836 9.06889C95.7814 9.16667 95.8995 9.21556 96.038 9.21556H96.4169C96.5555 9.21556 96.6777 9.17481 96.7836 9.09333C96.8895 9.0037 96.9588 8.88963 96.9914 8.75111L97.4558 6.45333L98.9714 6.72222L98.5803 8.64111C98.5477 8.77963 98.5803 8.91 98.678 9.03222C98.7758 9.15444 98.894 9.21556 99.0325 9.21556H99.9858V6.11111H101.501V9.37444C101.501 9.59444 101.457 9.80222 101.367 9.99778C101.285 10.1933 101.167 10.3685 101.012 10.5233C100.866 10.67 100.695 10.7881 100.499 10.8778C100.304 10.9593 100.096 11 99.8758 11H99.0325C98.7718 11 98.5314 10.947 98.3114 10.8411C98.0914 10.7352 97.8918 10.5559 97.7125 10.3033C97.5169 10.5641 97.2969 10.7474 97.0525 10.8533C96.8162 10.9511 96.5677 11 96.3069 11ZM104.376 11C104.14 11 103.916 10.9552 103.704 10.8656C103.492 10.7759 103.309 10.6537 103.154 10.4989C102.999 10.3359 102.877 10.1526 102.788 9.94889C102.698 9.73704 102.653 9.51296 102.653 9.27667V7.59H103.936V8.97111C103.936 9.04444 103.961 9.10556 104.01 9.15444C104.059 9.19519 104.116 9.21556 104.181 9.21556H106.21C106.348 9.21556 106.471 9.18704 106.576 9.13C106.691 9.06481 106.776 8.98333 106.833 8.88556C106.89 8.77963 106.919 8.66556 106.919 8.54333C106.927 8.41296 106.894 8.28667 106.821 8.16444L105.269 5.40222L106.552 4.57111L108.202 7.49222C108.414 7.86704 108.508 8.26222 108.483 8.67778C108.467 9.08519 108.365 9.46407 108.178 9.81444C107.99 10.1567 107.725 10.4419 107.383 10.67C107.041 10.89 106.65 11 106.21 11H104.376Z" fill="white"/>
<path d="M36.4175 27.1789C36.719 27.073 36.9634 26.9426 37.1508 26.7878C37.3464 26.6248 37.4442 26.4578 37.4442 26.2867V25.9933C37.4442 25.7326 37.3545 25.5167 37.1753 25.3456C37.0042 25.1663 36.7883 25.0767 36.5275 25.0767H36.2953C36.0427 25.0767 35.8268 25.1663 35.6475 25.3456C35.4682 25.5167 35.3786 25.7285 35.3786 25.9811V26.2867C35.3786 26.4578 35.4764 26.6248 35.672 26.7878C35.8675 26.9426 36.116 27.073 36.4175 27.1789ZM38.7886 26.2256C38.7886 26.633 38.6542 27.0281 38.3853 27.4111H38.8497H39.302C39.3508 27.4111 39.3916 27.4315 39.4242 27.4722C39.4568 27.5048 39.4731 27.5456 39.4731 27.5944V28.8289C39.4731 28.8778 39.4527 28.9185 39.412 28.9511C39.3794 28.9837 39.3427 29 39.302 29H38.0797C37.9331 29 37.7986 28.9959 37.6764 28.9878C37.5542 28.9715 37.432 28.947 37.3097 28.9144C37.1875 28.8737 37.0531 28.8207 36.9064 28.7556C36.7679 28.6904 36.6049 28.6048 36.4175 28.4989C36.2301 28.6048 36.0631 28.6904 35.9164 28.7556C35.7779 28.8207 35.6475 28.8737 35.5253 28.9144C35.4031 28.947 35.2808 28.9715 35.1586 28.9878C35.0364 28.9959 34.8979 29 34.7431 29H30.9908C30.6486 29 30.3227 28.9348 30.0131 28.8044C29.7116 28.6741 29.4468 28.4989 29.2186 28.2789C28.9905 28.0507 28.8112 27.7859 28.6808 27.4844C28.5505 27.183 28.4853 26.8611 28.4853 26.5189V24.2822H29.8297V26.3967C29.8297 26.6819 29.9275 26.9222 30.1231 27.1178C30.3186 27.3133 30.559 27.4111 30.8442 27.4111H33.9853H34.4375C34.1686 27.0281 34.0342 26.633 34.0342 26.2256V25.8711C34.0342 25.5615 34.0994 25.2681 34.2297 24.9911C34.3601 24.7059 34.5312 24.4574 34.7431 24.2456C34.9549 24.0337 35.1994 23.8667 35.4764 23.7444C35.7616 23.6141 36.0508 23.5489 36.3442 23.5489H36.5397C36.8494 23.5489 37.1386 23.61 37.4075 23.7322C37.6845 23.8463 37.9249 24.0052 38.1286 24.2089C38.3323 24.4126 38.4912 24.653 38.6053 24.93C38.7275 25.1989 38.7886 25.4881 38.7886 25.7978V26.2256ZM35.6842 21.0311H37.0897V22.4367H35.6842V21.0311ZM39.8802 31.8722H41.2736V30.4667H39.8802V31.8722ZM41.9091 31.8722H43.3147V30.4667H41.9091V31.8722ZM44.0602 28.8289C44.0602 28.8696 44.0439 28.9104 44.0113 28.9511C43.9787 28.9837 43.938 29 43.8891 29H42.9602C42.6995 29 42.4387 28.9307 42.178 28.7922C41.9173 28.6456 41.7421 28.4744 41.6524 28.2789C41.5954 28.3767 41.5139 28.4704 41.408 28.56C41.3021 28.6415 41.1839 28.7189 41.0536 28.7922C40.9313 28.8574 40.7969 28.9104 40.6502 28.9511C40.5117 28.9837 40.3732 29 40.2347 29H39.3058C39.1917 29 39.1347 28.943 39.1347 28.8289V27.5944C39.1347 27.5456 39.151 27.5048 39.1836 27.4722C39.2161 27.4315 39.2569 27.4111 39.3058 27.4111H40.3569C40.5198 27.4111 40.6624 27.3622 40.7847 27.2644C40.9069 27.1667 40.9843 27.0363 41.0169 26.8733L41.4691 24.6733L42.7891 24.9056L42.4224 26.7511C42.3817 26.9222 42.4184 27.077 42.5324 27.2156C42.6465 27.3459 42.7932 27.4111 42.9724 27.4111H43.8891C43.938 27.4111 43.9787 27.4315 44.0113 27.4722C44.0439 27.5048 44.0602 27.5456 44.0602 27.5944V28.8289ZM45.8324 26.2867C45.8324 26.4578 45.9261 26.6207 46.1136 26.7756C46.3091 26.9304 46.5617 27.0648 46.8713 27.1789C47.1728 27.0648 47.4173 26.9304 47.6047 26.7756C47.8002 26.6207 47.898 26.4578 47.898 26.2867V25.9811C47.898 25.7285 47.8084 25.5167 47.6291 25.3456C47.4498 25.1663 47.2339 25.0767 46.9813 25.0767H46.7491C46.4965 25.0767 46.2806 25.1663 46.1013 25.3456C45.9221 25.5167 45.8324 25.7285 45.8324 25.9811V26.2867ZM44.5369 25.8589C44.5369 25.533 44.598 25.2315 44.7202 24.9544C44.8506 24.6693 45.0176 24.4248 45.2213 24.2211C45.4332 24.0093 45.6736 23.8463 45.9424 23.7322C46.2195 23.61 46.5047 23.5489 46.798 23.5489H46.9936C47.3032 23.5489 47.5924 23.61 47.8613 23.7322C48.1384 23.8463 48.3787 24.0052 48.5824 24.2089C48.7861 24.4126 48.945 24.653 49.0591 24.93C49.1813 25.1989 49.2424 25.4881 49.2424 25.7978V26.2256C49.2424 26.633 49.108 27.0281 48.8391 27.4111H49.2302H49.878C49.935 27.4111 49.9758 27.4315 50.0002 27.4722C50.0328 27.5048 50.0491 27.5456 50.0491 27.5944V28.8289C50.0491 28.8696 50.0328 28.9104 50.0002 28.9511C49.9676 28.9837 49.9269 29 49.878 29H48.5336C48.3869 29 48.2524 28.9959 48.1302 28.9878C48.008 28.9715 47.8817 28.947 47.7513 28.9144C47.6291 28.8737 47.4987 28.8207 47.3602 28.7556C47.2217 28.6904 47.0587 28.6048 46.8713 28.4989C46.6839 28.6048 46.521 28.6904 46.3824 28.7556C46.2439 28.8207 46.1136 28.8737 45.9913 28.9144C45.8691 28.947 45.7469 28.9715 45.6247 28.9878C45.5024 28.9959 45.368 29 45.2213 29H43.8891C43.775 29 43.718 28.943 43.718 28.8289V27.5944C43.718 27.5456 43.7343 27.5048 43.7669 27.4722C43.7913 27.4315 43.8321 27.4111 43.8891 27.4111H44.5613H44.928C44.6673 27.0363 44.5369 26.6411 44.5369 26.2256V25.8589ZM46.1747 22.4367H47.5802V21.0311H46.1747V22.4367ZM51.7386 21.2022H53.1442V22.6078H51.7386V21.2022ZM49.8809 29C49.7668 29 49.7097 28.943 49.7097 28.8289V27.5944C49.7097 27.5537 49.7301 27.513 49.7709 27.4722C49.8035 27.4315 49.8401 27.4111 49.8809 27.4111H52.0686C52.4109 27.4111 52.749 27.3581 53.0831 27.2522C53.4172 27.1381 53.7023 26.9548 53.9386 26.7022L54.6475 25.9444C54.6883 25.9037 54.7249 25.867 54.7575 25.8344C54.7901 25.8019 54.8105 25.7856 54.8186 25.7856L52.252 25.0156C52.1705 24.9911 52.0972 24.9993 52.032 25.04C51.9749 25.0726 51.9301 25.1256 51.8975 25.1989L51.4331 26.4211L50.2597 26.1033L50.5775 24.9789C50.6509 24.7263 50.7649 24.5104 50.9197 24.3311C51.0746 24.1519 51.2538 24.0133 51.4575 23.9156C51.6612 23.8096 51.8772 23.7485 52.1053 23.7322C52.3335 23.7078 52.5535 23.7281 52.7653 23.7933L57.6297 25.2478L57.2264 26.5067L56.652 26.3356C56.5135 26.303 56.3953 26.2948 56.2975 26.3111C56.2079 26.3274 56.1223 26.36 56.0409 26.4089V26.8244C56.0409 26.9874 56.0979 27.1259 56.212 27.24C56.326 27.3541 56.4646 27.4111 56.6275 27.4111H58.2531C58.3672 27.4111 58.4242 27.4681 58.4242 27.5822V28.8289C58.4242 28.943 58.3672 29 58.2531 29H56.8475C56.3586 29 55.9431 28.8615 55.6009 28.5844C55.2668 28.2993 55.0346 27.9367 54.9042 27.4967L54.4153 27.9856C54.0649 28.3359 53.6575 28.5926 53.1931 28.7556C52.7286 28.9185 52.252 29 51.7631 29H49.8809ZM60.3256 27.4111C60.4886 27.4111 60.6271 27.3541 60.7412 27.24C60.8552 27.1178 60.9123 26.9752 60.9123 26.8122V24.2822H62.2567V26.8122C62.2567 27.1137 62.1997 27.3989 62.0856 27.6678C61.9715 27.9285 61.8126 28.1607 61.6089 28.3644C61.4134 28.56 61.1812 28.7148 60.9123 28.8289C60.6515 28.943 60.3704 29 60.0689 29H58.2478C58.1989 29 58.1582 28.9837 58.1256 28.9511C58.093 28.9104 58.0767 28.8696 58.0767 28.8289V27.5944C58.0767 27.5456 58.093 27.5048 58.1256 27.4722C58.1582 27.4315 58.1989 27.4111 58.2478 27.4111H60.3256ZM58.8101 23.17H60.2156V21.7644H58.8101V23.17ZM60.8512 23.17H62.2567V21.7644H60.8512V23.17ZM66.4752 29V23.6589C66.4752 22.9174 66.4019 22.1881 66.2552 21.4711L66.0352 20.4444L67.4896 20.1878L67.7096 21.3C67.7911 21.6993 67.8482 22.0985 67.8808 22.4978C67.9215 22.8889 67.9419 23.28 67.9419 23.6711V29H66.4752ZM71.8941 23.7689C72.1712 23.7689 72.4319 23.8219 72.6764 23.9278C72.9208 24.0337 73.1327 24.1763 73.3119 24.3556C73.4993 24.5348 73.646 24.7467 73.7519 24.9911C73.8578 25.2356 73.9108 25.4963 73.9108 25.7733V26.3967C73.9108 26.6737 73.8578 26.9344 73.7519 27.1789C73.646 27.4152 73.4993 27.627 73.3119 27.8144C73.1327 27.9937 72.9208 28.1363 72.6764 28.2422C72.4319 28.3481 72.1712 28.4011 71.8941 28.4011H71.2952C71.0264 28.4011 70.7697 28.3481 70.5252 28.2422C70.2808 28.1363 70.0649 27.9937 69.8775 27.8144C69.6982 27.627 69.5556 27.4152 69.4497 27.1789C69.3438 26.9344 69.2908 26.6737 69.2908 26.3967V25.7733C69.2908 25.4963 69.3438 25.2356 69.4497 24.9911C69.5556 24.7467 69.6982 24.5348 69.8775 24.3556C70.0567 24.1763 70.2686 24.0337 70.513 23.9278C70.7575 23.8219 71.0182 23.7689 71.2952 23.7689H71.8941ZM72.4319 26.3478V25.7611C72.4319 25.6226 72.3871 25.5126 72.2975 25.4311C72.2078 25.3415 72.0938 25.2967 71.9552 25.2967H71.2464C71.1078 25.2967 70.9938 25.3415 70.9041 25.4311C70.8145 25.5207 70.7697 25.6307 70.7697 25.7611V26.3478C70.7697 26.4781 70.8145 26.5881 70.9041 26.6778C70.9938 26.7674 71.1078 26.8122 71.2464 26.8122H71.9552C72.1019 26.8122 72.216 26.7674 72.2975 26.6778C72.3871 26.5881 72.4319 26.4781 72.4319 26.3478ZM76.3618 29.0978L79.2218 20.4567L80.1141 20.7744L77.2541 29.3911L76.3618 29.0978ZM76.4718 24.3433C75.4941 24.3433 75.0052 23.7485 75.0052 22.5589C75.0052 21.3774 75.4941 20.7867 76.4718 20.7867C77.4496 20.7867 77.9385 21.3774 77.9385 22.5589C77.9385 23.7485 77.4496 24.3433 76.4718 24.3433ZM76.4718 23.3656C76.7244 23.3656 76.8507 23.0967 76.8507 22.5589C76.8507 22.0293 76.7244 21.7644 76.4718 21.7644C76.2192 21.7644 76.0929 22.0293 76.0929 22.5589C76.0929 23.0967 76.2192 23.3656 76.4718 23.3656ZM80.0285 29.1467C79.0426 29.1467 78.5496 28.5519 78.5496 27.3622C78.5496 26.1807 79.0426 25.59 80.0285 25.59C81.0144 25.59 81.5074 26.1807 81.5074 27.3622C81.5074 28.5519 81.0144 29.1467 80.0285 29.1467ZM80.0285 28.1689C80.2892 28.1689 80.4196 27.9 80.4196 27.3622C80.4196 26.8326 80.2892 26.5678 80.0285 26.5678C79.7678 26.5678 79.6374 26.8326 79.6374 27.3622C79.6374 27.9 79.7678 28.1689 80.0285 28.1689Z" fill="#29FDB0"/>
</svg>
