<svg width="176" height="67" viewBox="0 0 176 67" fill="none" xmlns="http://www.w3.org/2000/svg">
<path d="M12.2988 54.6403C12.4044 54.6403 12.4571 55.0519 12.4571 55.875C12.4571 56.6771 12.4044 57.0781 12.2988 57.0781H11.1116C11.1644 57.152 11.1907 57.2628 11.1907 57.4106C11.1696 58.0754 10.9744 58.6664 10.605 59.1835C10.2357 59.7006 9.71855 60.1017 9.05369 60.3866C8.39939 60.6715 7.6501 60.814 6.80583 60.814H5.61858C4.2361 60.814 3.16493 60.413 2.40509 59.6109C1.65581 58.8194 1.28116 57.7166 1.28116 56.3025V53.0573H3.624V56.2391C3.624 56.9568 3.78758 57.4897 4.11473 57.838C4.44189 58.1968 4.95372 58.3762 5.65024 58.3762H6.93247C7.62899 58.3762 8.13028 58.2918 8.43632 58.1229C8.74237 57.9646 8.89539 57.7272 8.89539 57.4106C8.89539 57.2311 8.8479 57.1045 8.75292 57.0306C8.65794 56.9462 8.50492 56.904 8.29385 56.904H5.5236L5.71356 54.6403H12.2988ZM16.0966 54.6403C16.2971 54.6403 16.4606 54.5823 16.5873 54.4662C16.7245 54.3501 16.7931 54.1971 16.7931 54.0071V51.4743H19.0884V54.1179C19.0884 55.0361 18.814 55.759 18.2653 56.2866C17.727 56.8143 16.9989 57.0781 16.0807 57.0781H12.2974C12.1918 57.0781 12.1391 56.6771 12.1391 55.875C12.1391 55.0519 12.1918 54.6403 12.2974 54.6403H16.0966ZM17.0147 58.5187V60.4816H12.4557V58.5187H17.0147ZM24.5229 54.6403C24.5757 54.6403 24.6126 54.7142 24.6338 54.8619C24.6654 55.0097 24.6812 55.3474 24.6812 55.875C24.6812 56.3816 24.6654 56.7088 24.6338 56.8565C24.6126 57.0043 24.5757 57.0781 24.5229 57.0781H23.8897C22.961 57.0781 22.254 56.8143 21.7685 56.2866C21.2936 55.759 21.0562 55.0044 21.0562 54.0229V46.8994H23.399V53.8488C23.399 54.1232 23.4518 54.3237 23.5573 54.4503C23.6628 54.577 23.8317 54.6403 24.0639 54.6403H24.5229ZM29.0211 54.1179C29.0211 55.0361 28.7467 55.759 28.198 56.2866C27.6598 56.8143 26.9316 57.0781 26.0134 57.0781H24.5254C24.4199 57.0781 24.3671 56.6771 24.3671 55.875C24.3671 55.0519 24.4199 54.6403 24.5254 54.6403H26.0134C26.2245 54.6403 26.3934 54.5823 26.52 54.4662C26.6572 54.3501 26.7258 54.1971 26.7258 54.0071V51.4743H29.0211V54.1179ZM28.0713 58.5187V60.4816H23.5123V58.5187H28.0713ZM37.3603 56.3499C37.3603 57.743 36.991 58.8353 36.2522 59.6268C35.5135 60.4183 34.5004 60.814 33.2129 60.814H30.9808L30.7909 58.4078H33.482C33.978 58.4078 34.3632 58.2865 34.6376 58.0438C34.9225 57.8116 35.065 57.4897 35.065 57.0781H34.1785C33.0071 57.0781 32.1681 56.8354 31.6615 56.3499C31.1655 55.8539 30.9175 55.0677 30.9175 53.9913C30.9175 53.3159 31.0494 52.7143 31.3133 52.1867C31.5877 51.6484 31.9676 51.2316 32.453 50.9361C32.949 50.63 33.5136 50.477 34.1468 50.477C35.1494 50.477 35.9356 50.7989 36.5055 51.4426C37.0754 52.0758 37.3603 52.9623 37.3603 54.1021V56.3499ZM33.197 53.8805C33.197 54.1865 33.2709 54.4081 33.4187 54.5453C33.577 54.672 33.8461 54.7353 34.226 54.7353H35.0966V54.0071C35.0966 53.5955 35.0069 53.2842 34.8275 53.0731C34.6587 52.8621 34.4159 52.7565 34.0993 52.7565C33.8039 52.7565 33.577 52.8621 33.4187 53.0731C33.2709 53.2736 33.197 53.5428 33.197 53.8805ZM42.8364 56.3974C42.8364 57.2628 42.657 58.0279 42.2982 58.6928C41.9499 59.3682 41.4486 59.8906 40.7943 60.26C40.1506 60.6293 39.396 60.814 38.5306 60.814H37.9291L37.7391 58.3762H38.4357C39.1005 58.3762 39.6071 58.2073 39.9553 57.8696C40.3141 57.5425 40.4936 57.0623 40.4936 56.4291V51.4743H42.8364V56.3974ZM54.2868 54.6403C54.1496 54.4715 54.0441 54.2551 53.9702 53.9913C53.8963 53.7169 53.8594 53.4425 53.8594 53.1681C53.8594 52.5771 54.0019 52.0336 54.2868 51.5376C54.5717 51.0416 54.9622 50.6511 55.4582 50.3662C55.9542 50.0813 56.503 49.9388 57.1045 49.9388C57.7377 49.9388 58.2971 50.076 58.7825 50.3504C59.2785 50.6142 59.6585 50.9836 59.9223 51.4585C60.1967 51.9334 60.3339 52.4769 60.3339 53.089C60.3339 53.7222 60.165 54.2393 59.8273 54.6403H61.442C61.5475 54.6403 61.6003 55.0519 61.6003 55.875C61.6003 56.6771 61.5475 57.0781 61.442 57.0781H59.2733C58.6928 57.0781 58.2337 57.057 57.896 57.0148C57.5583 56.962 57.2892 56.8723 57.0887 56.7457C56.7193 56.9673 56.007 57.0781 54.9517 57.0781H50.82C49.8597 57.0781 49.1209 56.8196 48.6038 56.3025C48.0867 55.7853 47.8282 55.0466 47.8282 54.0863V51.4743H50.171V53.7697C50.171 54.0651 50.2343 54.2868 50.361 54.4345C50.4876 54.5717 50.6987 54.6403 50.9942 54.6403H54.2868ZM57.1045 54.6403C57.4211 54.4926 57.6639 54.292 57.8327 54.0388C58.0121 53.7749 58.1018 53.5058 58.1018 53.2314C58.1018 52.9254 58.0121 52.6879 57.8327 52.5191C57.6639 52.3397 57.4211 52.25 57.1045 52.25C56.7985 52.25 56.5558 52.345 56.3764 52.5349C56.2075 52.7143 56.1231 52.9465 56.1231 53.2314C56.1231 53.5058 56.2075 53.7697 56.3764 54.0229C56.5558 54.2762 56.7985 54.482 57.1045 54.6403ZM55.8856 48.5932V46.6303H58.3235V48.5932H55.8856ZM63.1194 54.6403C63.3411 54.6403 63.5152 54.5875 63.6418 54.482C63.7685 54.3659 63.8318 54.2076 63.8318 54.0071V51.4743H66.1588V53.9596C66.1588 54.4134 66.3963 54.6403 66.8712 54.6403H67.3777C67.4833 54.6403 67.536 55.0466 67.536 55.8592C67.536 56.6718 67.4833 57.0781 67.3777 57.0781H66.7603C65.895 57.0781 65.2987 56.846 64.9716 56.3816C64.771 56.6243 64.523 56.8037 64.2275 56.9198C63.9321 57.0254 63.5627 57.0781 63.1194 57.0781H61.4415C61.3359 57.0781 61.2832 56.6771 61.2832 55.875C61.2832 55.0519 61.3359 54.6403 61.4415 54.6403H63.1194ZM64.7658 58.5187V60.4816H60.2067V58.5187H64.7658ZM68.8816 54.6403C68.7444 54.4715 68.6336 54.2551 68.5491 53.9913C68.4753 53.7169 68.4383 53.4425 68.4383 53.1681C68.4383 52.5771 68.5808 52.0336 68.8657 51.5376C69.1507 51.0416 69.5411 50.6511 70.0372 50.3662C70.5332 50.0813 71.0872 49.9388 71.6993 49.9388C72.3325 49.9388 72.8918 50.076 73.3773 50.3504C73.8733 50.6142 74.2532 50.9836 74.517 51.4585C74.7914 51.9334 74.9286 52.4769 74.9286 53.089C74.9286 53.7011 74.7598 54.2182 74.4221 54.6403H76.0209C76.0737 54.6403 76.1106 54.7142 76.1317 54.8619C76.1634 55.0097 76.1792 55.3474 76.1792 55.875C76.1792 56.3816 76.1634 56.7088 76.1317 56.8565C76.1106 57.0043 76.0737 57.0781 76.0209 57.0781H73.8522C73.2718 57.0781 72.8127 57.057 72.475 57.0148C72.1478 56.962 71.8787 56.8723 71.6676 56.7457C71.2983 56.9673 70.5912 57.0781 69.5464 57.0781H67.3777C67.2722 57.0781 67.2194 56.6771 67.2194 55.875C67.2194 55.0519 67.2722 54.6403 67.3777 54.6403H68.8816ZM71.6993 52.25C71.3933 52.25 71.1505 52.345 70.9711 52.5349C70.8023 52.7143 70.7178 52.9465 70.7178 53.2314C70.7178 53.5058 70.8023 53.7697 70.9711 54.0229C71.1505 54.2762 71.3933 54.482 71.6993 54.6403C72.0159 54.4926 72.2586 54.2868 72.4275 54.0229C72.6069 53.7591 72.6966 53.4953 72.6966 53.2314C72.6966 52.9254 72.6069 52.6879 72.4275 52.5191C72.2586 52.3397 72.0159 52.25 71.6993 52.25ZM70.4804 48.5932V46.6303H72.9182V48.5932H70.4804ZM81.2748 50.0813C81.8764 50.0813 82.3724 50.1868 82.7629 50.3979C83.1639 50.6089 83.5122 50.9783 83.8076 51.506C84.1031 52.0231 84.367 52.7565 84.5991 53.7063L83.6335 54.3395C83.6968 54.4345 83.8393 54.5084 84.0609 54.5612C84.2825 54.6139 84.5042 54.6403 84.7258 54.6403H85.6756C85.7811 54.6403 85.8339 55.0519 85.8339 55.875C85.8339 56.3922 85.8181 56.7246 85.7864 56.8723C85.7547 57.0095 85.7178 57.0781 85.6756 57.0781H84.5358C83.9448 57.0781 83.4541 56.9673 83.0636 56.7457C82.6732 56.5241 82.3196 56.1494 82.003 55.6218L81.4173 55.9859C80.7525 56.3974 80.1034 56.6824 79.4702 56.8407C78.837 56.999 78.0508 57.0781 77.1116 57.0781H76.0193C75.9138 57.0781 75.861 56.6771 75.861 55.875C75.861 55.0519 75.9138 54.6403 76.0193 54.6403H77.2224C78.0033 54.6403 78.6576 54.5875 79.1853 54.482C79.7235 54.3765 80.2828 54.176 80.8633 53.8805L81.8764 53.2948C81.792 52.9782 81.6653 52.7618 81.4965 52.6457C81.3382 52.5296 81.0954 52.4716 80.7683 52.4716H77.159L77.3965 50.0813H81.2748ZM78.932 48.6407V46.6778H81.3698V48.6407H78.932ZM90.1769 54.1179C90.1769 55.0361 89.9025 55.759 89.3537 56.2866C88.8155 56.8143 88.0873 57.0781 87.1692 57.0781H85.6812C85.5756 57.0781 85.5229 56.6771 85.5229 55.875C85.5229 55.0519 85.5756 54.6403 85.6812 54.6403H87.1692C87.3802 54.6403 87.5491 54.5823 87.6757 54.4662C87.8129 54.3501 87.8815 54.1971 87.8815 54.0071V51.4743H90.1769V54.1179ZM90.541 48.0867V50.0496H85.9819V48.0867H90.541ZM96.5091 57.0781C96.0553 57.0781 95.7176 56.962 95.496 56.7299C95.2744 56.4977 95.1636 56.0808 95.1636 55.4793C95.1636 54.5295 95.2269 53.8383 95.3535 53.4056C95.4802 52.9623 95.7123 52.651 96.0501 52.4716C96.3983 52.2816 96.9576 52.1339 97.728 52.0284V53.4214C97.3059 53.4953 97.0157 53.5639 96.8574 53.6272C96.6991 53.68 96.5935 53.7644 96.5408 53.8805C96.4986 53.986 96.4775 54.176 96.4775 54.4503C96.9418 54.4503 97.2848 54.5453 97.5064 54.7353C97.728 54.9147 97.8388 55.2366 97.8388 55.7009C97.8388 56.6191 97.3956 57.0781 96.5091 57.0781ZM110.695 54.6403C110.801 54.6403 110.854 55.0519 110.854 55.875C110.854 56.6771 110.801 57.0781 110.695 57.0781H109.508C109.561 57.152 109.587 57.2628 109.587 57.4106C109.566 58.0754 109.371 58.6664 109.001 59.1835C108.632 59.7006 108.115 60.1017 107.45 60.3866C106.796 60.6715 106.047 60.814 105.202 60.814H104.015C102.633 60.814 101.561 60.413 100.802 59.6109C100.052 58.8194 99.6776 57.7166 99.6776 56.3025V53.0573H102.02V56.2391C102.02 56.9568 102.184 57.4897 102.511 57.838C102.838 58.1968 103.35 58.3762 104.047 58.3762H105.329C106.025 58.3762 106.527 58.2918 106.833 58.1229C107.139 57.9646 107.292 57.7272 107.292 57.4106C107.292 57.2311 107.244 57.1045 107.149 57.0306C107.054 56.9462 106.901 56.904 106.69 56.904H103.92L104.11 54.6403H110.695ZM114.493 54.6403C114.694 54.6403 114.857 54.5823 114.984 54.4662C115.121 54.3501 115.19 54.1971 115.19 54.0071V51.4743H117.485V54.1179C117.485 55.0361 117.21 55.759 116.662 56.2866C116.123 56.8143 115.395 57.0781 114.477 57.0781H110.694C110.588 57.0781 110.535 56.6771 110.535 55.875C110.535 55.0519 110.588 54.6403 110.694 54.6403H114.493ZM115.411 58.5187V60.4816H110.852V58.5187H115.411ZM121.795 46.8994V54.6403H122.999C123.21 54.6403 123.378 54.5823 123.505 54.4662C123.642 54.3501 123.711 54.1865 123.711 53.9754V46.8994H126.038V53.8963C126.038 54.3923 126.281 54.6403 126.766 54.6403H127.273C127.325 54.6403 127.362 54.7142 127.383 54.8619C127.415 55.0097 127.431 55.3474 127.431 55.875C127.431 56.3816 127.415 56.7088 127.383 56.8565C127.362 57.0043 127.325 57.0781 127.273 57.0781H126.719C125.832 57.0781 125.225 56.846 124.898 56.3816C124.497 56.846 123.885 57.0781 123.062 57.0781H119.453V46.8994H121.795ZM130.717 46.8994V51.5535C131.466 50.6459 132.337 50.1921 133.329 50.1921C133.93 50.1921 134.463 50.3345 134.928 50.6195C135.402 50.9044 135.772 51.3055 136.036 51.8226C136.299 52.3291 136.431 52.9148 136.431 53.5797C136.431 54.6456 136.11 55.4951 135.466 56.1283C134.833 56.7615 133.978 57.0781 132.901 57.0781H127.266C127.16 57.0781 127.108 56.6771 127.108 55.875C127.108 55.0519 127.16 54.6403 127.266 54.6403H128.374V46.8994H130.717ZM132.933 54.672C133.313 54.672 133.608 54.577 133.819 54.387C134.031 54.1865 134.136 53.9174 134.136 53.5797C134.136 53.2736 134.041 53.0204 133.851 52.8199C133.672 52.6193 133.434 52.5191 133.139 52.5191C132.79 52.5191 132.411 52.6985 131.999 53.0573C131.598 53.4056 131.134 53.9438 130.606 54.672H132.933ZM147.843 53.7855C147.843 54.3554 148.06 54.6403 148.492 54.6403H149.031C149.083 54.6403 149.12 54.7142 149.142 54.8619C149.173 55.0097 149.189 55.3474 149.189 55.875C149.189 56.3816 149.173 56.7088 149.142 56.8565C149.12 57.0043 149.083 57.0781 149.031 57.0781H148.477C147.326 57.0781 146.603 56.6665 146.308 55.8434C145.865 56.2128 145.216 56.3974 144.361 56.3974C143.422 56.3974 142.699 56.1336 142.192 55.6059C141.686 55.0677 141.432 54.2709 141.432 53.2156C141.432 52.6246 141.564 52.0706 141.828 51.5535C142.092 51.0258 142.467 50.6037 142.952 50.2871C143.448 49.9599 144.013 49.7963 144.646 49.7963H145.516V48.7674H147.843V53.7855ZM143.712 53.1839C143.712 53.7644 143.997 54.0546 144.567 54.0546C144.894 54.0546 145.142 53.9913 145.311 53.8646C145.49 53.738 145.58 53.5586 145.58 53.3264V52.1075H144.772C144.065 52.1075 143.712 52.4663 143.712 53.1839ZM150.71 54.6403C150.932 54.6403 151.106 54.5875 151.232 54.482C151.359 54.3659 151.422 54.2076 151.422 54.0071V51.4743H153.749V53.9596C153.749 54.4134 153.987 54.6403 154.462 54.6403H154.968C155.074 54.6403 155.127 55.0466 155.127 55.8592C155.127 56.6718 155.074 57.0781 154.968 57.0781H154.351C153.486 57.0781 152.889 56.846 152.562 56.3816C152.362 56.6243 152.114 56.8037 151.818 56.9198C151.523 57.0254 151.153 57.0781 150.71 57.0781H149.032C148.927 57.0781 148.874 56.6771 148.874 55.875C148.874 55.0519 148.927 54.6403 149.032 54.6403H150.71ZM153.829 48.0867V50.0496H149.27V48.0867H153.829ZM156.472 54.6403C156.335 54.4715 156.224 54.2551 156.14 53.9913C156.066 53.7169 156.029 53.4425 156.029 53.1681C156.029 52.5771 156.171 52.0336 156.456 51.5376C156.741 51.0416 157.132 50.6511 157.628 50.3662C158.124 50.0813 158.678 49.9388 159.29 49.9388C159.923 49.9388 160.482 50.076 160.968 50.3504C161.464 50.6142 161.844 50.9836 162.108 51.4585C162.382 51.9334 162.519 52.4769 162.519 53.089C162.519 53.7011 162.35 54.2182 162.013 54.6403H163.612C163.664 54.6403 163.701 54.7142 163.722 54.8619C163.754 55.0097 163.77 55.3474 163.77 55.875C163.77 56.3816 163.754 56.7088 163.722 56.8565C163.701 57.0043 163.664 57.0781 163.612 57.0781H161.443C160.862 57.0781 160.403 57.057 160.066 57.0148C159.738 56.962 159.469 56.8723 159.258 56.7457C158.889 56.9673 158.182 57.0781 157.137 57.0781H154.968C154.863 57.0781 154.81 56.6771 154.81 55.875C154.81 55.0519 154.863 54.6403 154.968 54.6403H156.472ZM159.29 52.25C158.984 52.25 158.741 52.345 158.562 52.5349C158.393 52.7143 158.308 52.9465 158.308 53.2314C158.308 53.5058 158.393 53.7697 158.562 54.0229C158.741 54.2762 158.984 54.482 159.29 54.6403C159.607 54.4926 159.849 54.2868 160.018 54.0229C160.197 53.7591 160.287 53.4953 160.287 53.2314C160.287 52.9254 160.197 52.6879 160.018 52.5191C159.849 52.3397 159.607 52.25 159.29 52.25ZM158.071 48.5932V46.6303H160.509V48.5932H158.071ZM173.678 52.0284C174.047 52.4294 174.311 52.8199 174.469 53.1998C174.638 53.5797 174.723 53.9754 174.723 54.387C174.723 55.1891 174.448 55.8381 173.899 56.3341C173.361 56.8301 172.622 57.0781 171.683 57.0781H169.847C169.245 57.0781 168.797 57.0623 168.501 57.0306C168.216 56.999 167.963 56.9251 167.742 56.809C167.499 56.9145 167.203 56.9884 166.855 57.0306C166.517 57.0623 166.074 57.0781 165.525 57.0781H163.61C163.504 57.0781 163.452 56.6771 163.452 55.875C163.452 55.0519 163.504 54.6403 163.61 54.6403H165.082C164.966 54.4926 164.871 54.292 164.797 54.0388C164.723 53.7855 164.686 53.5322 164.686 53.2789C164.686 52.6985 164.829 52.1655 165.114 51.6801C165.399 51.1946 165.789 50.8147 166.285 50.5403C166.781 50.2554 167.33 50.1129 167.931 50.1129C168.269 50.1129 168.602 50.171 168.929 50.2871L168.85 50.2079L170.448 48.5616L173.678 52.0284ZM171.572 54.6403C172.1 54.6403 172.364 54.4767 172.364 54.1496C172.364 54.0229 172.332 53.9016 172.269 53.7855C172.206 53.6694 172.079 53.5164 171.889 53.3264L170.781 52.1867C170.876 52.4716 170.923 52.7724 170.923 53.089C170.923 53.3845 170.871 53.6747 170.765 53.9596C170.67 54.234 170.538 54.4609 170.369 54.6403H171.572ZM167.757 54.672C168.443 54.3237 168.786 53.8699 168.786 53.3106C168.786 53.0362 168.697 52.8093 168.517 52.6299C168.338 52.4505 168.1 52.3608 167.805 52.3608C167.509 52.3608 167.272 52.4505 167.092 52.6299C166.924 52.8093 166.839 53.0362 166.839 53.3106C166.839 53.891 167.145 54.3448 167.757 54.672Z" fill="#354545"/>
<path d="M32.4769 18V17.1391L34.1987 16.7274V6.17202L32.4769 5.76028V4.89939H37.8482C40.8925 4.89939 42.4147 5.95991 42.4147 8.08096C42.4147 8.76719 42.2088 9.36607 41.7971 9.87762C41.3978 10.3892 40.8489 10.7572 40.1502 10.9818V11.0192C41.1733 11.2064 41.9593 11.5869 42.5083 12.1609C43.0697 12.7348 43.3504 13.4522 43.3504 14.3131C43.3504 15.436 42.9325 16.3344 42.0965 17.0081C41.2606 17.6694 40.1314 18 38.7091 18H32.4769ZM36.5007 16.8584H38.1289C39.0397 16.8584 39.7447 16.64 40.2437 16.2033C40.7428 15.7667 40.9923 15.1366 40.9923 14.3131C40.9923 13.552 40.7303 12.9407 40.2063 12.479C39.6948 12.0174 38.9711 11.7866 38.0353 11.7866H36.5007V16.8584ZM36.5007 10.6075H37.5675C38.2911 10.6075 38.8838 10.4016 39.3454 9.98991C39.8195 9.5657 40.0566 8.98553 40.0566 8.2494C40.0566 7.50079 39.8195 6.94558 39.3454 6.58375C38.8838 6.22192 38.2537 6.04101 37.4552 6.04101H36.5007V10.6075ZM44.4745 18V17.1952L46.0653 16.8209V4.5438H44.4745V3.73905L47.469 3.02787H48.3111V16.8209L49.9019 17.1952V18H44.4745ZM50.9506 15.6793C50.9506 13.5208 52.8657 12.4416 56.6961 12.4416V11.7866C56.6961 10.7011 56.5402 10.0149 56.2282 9.7279C55.9288 9.42846 55.4547 9.27873 54.8059 9.27873L52.6162 11.1503C52.3168 10.9631 52.061 10.7011 51.8489 10.3642C51.6493 10.0149 51.5432 9.6468 51.5307 9.26002C52.0548 8.97305 52.6287 8.75471 53.2525 8.60499C53.8764 8.44279 54.494 8.36169 55.1053 8.36169C57.6631 8.36169 58.9419 9.43469 58.9419 11.5807V16.7835H60.4017V17.4011C60.1148 17.6756 59.7966 17.8877 59.4472 18.0374C59.0979 18.1996 58.7548 18.2807 58.4179 18.2807C57.6818 18.2807 57.139 17.9626 56.7897 17.3263C55.9537 17.9626 55.0117 18.2807 53.9637 18.2807C53.1402 18.2807 52.4291 18.0624 51.8302 17.6257C51.2438 17.189 50.9506 16.5402 50.9506 15.6793ZM53.3087 15.6045C53.3087 16.0661 53.4584 16.4092 53.7578 16.6338C54.0698 16.8584 54.4628 16.9707 54.9369 16.9707C55.6231 16.9707 56.2095 16.7586 56.6961 16.3344V13.3961C55.5732 13.3961 54.7248 13.6019 54.1509 14.0137C53.5894 14.4129 53.3087 14.9432 53.3087 15.6045ZM61.4265 13.3586C61.4265 11.8739 61.8757 10.6699 62.774 9.74661C63.6848 8.82333 64.7828 8.36169 66.0679 8.36169C67.1783 8.36169 68.1765 8.6237 69.0623 9.14773C69.0498 9.57194 68.9251 9.96496 68.688 10.3268C68.4509 10.6761 68.1827 10.9319 67.8832 11.0941L66.0866 9.39103H65.9743C65.338 9.50332 64.8015 9.90881 64.3648 10.6075C63.9281 11.2937 63.7098 12.1983 63.7098 13.3212C63.7098 14.6063 64.003 15.5483 64.5894 16.1472C65.1883 16.7461 65.9743 17.0455 66.9475 17.0455C67.7086 17.0455 68.4073 16.8709 69.0436 16.5215L69.3617 17.4385C68.3137 18 67.2469 18.2807 66.1615 18.2807C64.814 18.2807 63.6848 17.8503 62.774 16.9894C61.8757 16.116 61.4265 14.9058 61.4265 13.3586ZM70.1896 18V17.1952L71.7804 16.8209V4.5438H70.1896V3.73905L73.184 3.02787H74.0262V16.8209L75.2427 17.1952V18H70.1896ZM74.3444 13.4896L77.7692 9.76533L76.5153 9.44717V8.64242H80.745V9.44717L79.098 9.82147L76.4966 12.6662L79.5846 16.8397L81.1193 17.1952V18H77.6382L74.3444 13.4896ZM86.4841 18V17.1391L88.2059 16.7274V6.17202L86.4841 5.76028V4.89939H96.1411V8.73599H95.2802L94.4942 6.1533L90.5078 6.00358V10.7947L94.5503 10.4578V12.1234L90.5078 11.8053V16.7274L92.6039 17.1391V18H86.4841ZM97.2637 18V17.1952L98.8545 16.8209V10.1583H97.2637V9.35359L100.258 8.64242H101.082V9.80276C102.092 8.84205 103.265 8.36169 104.6 8.36169C104.675 8.59875 104.712 8.86076 104.712 9.14773C104.712 9.60937 104.656 10.0211 104.544 10.3829L102.167 10.1771C101.793 10.3517 101.431 10.5638 101.082 10.8134V16.8209L103.047 17.1952V18H97.2637ZM109.862 5.79771C109.862 6.18449 109.725 6.51513 109.45 6.78962C109.188 7.05163 108.864 7.18264 108.477 7.18264C108.09 7.18264 107.759 7.05163 107.485 6.78962C107.223 6.51513 107.092 6.18449 107.092 5.79771C107.092 5.41093 107.223 5.08654 107.485 4.82452C107.759 4.55004 108.09 4.41279 108.477 4.41279C108.864 4.41279 109.188 4.5438 109.45 4.80581C109.725 5.06782 109.862 5.39846 109.862 5.79771ZM105.726 18V17.1952L107.317 16.8209V10.1583H105.726V9.35359L108.72 8.64242H109.544V16.8209L111.134 17.1952V18H105.726ZM112.327 13.6581C112.327 11.9737 112.844 10.6699 113.88 9.74661C114.916 8.82333 116.169 8.36169 117.642 8.36169C118.166 8.36169 118.621 8.41784 119.008 8.53013V4.5438H117.417V3.73905L120.412 3.02787H121.254V16.7835H122.714V17.4011L122.414 17.6444C122.289 17.7442 122.052 17.8752 121.703 18.0374C121.366 18.1996 121.035 18.2807 120.711 18.2807C120.574 18.2807 120.437 18.262 120.299 18.2246C120.175 18.1996 120.062 18.1622 119.962 18.1123C119.863 18.0624 119.769 18.0062 119.682 17.9439C119.594 17.869 119.52 17.8004 119.457 17.738C119.407 17.6756 119.351 17.607 119.289 17.5321C119.239 17.4573 119.201 17.3949 119.176 17.345C119.151 17.2951 119.12 17.2389 119.083 17.1765L119.045 17.1017C118.297 17.8877 117.373 18.2807 116.276 18.2807C115.19 18.2807 114.261 17.8877 113.487 17.1017C112.713 16.3032 112.327 15.1553 112.327 13.6581ZM114.629 13.5832C114.629 14.6562 114.866 15.4735 115.34 16.0349C115.826 16.5964 116.4 16.8771 117.062 16.8771C117.76 16.8771 118.409 16.6463 119.008 16.1846V9.57818C118.621 9.45341 118.222 9.39103 117.81 9.39103C116.862 9.39103 116.095 9.74661 115.508 10.4578C114.922 11.169 114.629 12.2108 114.629 13.5832ZM123.728 15.6793C123.728 13.5208 125.643 12.4416 129.473 12.4416V11.7866C129.473 10.7011 129.317 10.0149 129.005 9.7279C128.706 9.42846 128.232 9.27873 127.583 9.27873L125.393 11.1503C125.094 10.9631 124.838 10.7011 124.626 10.3642C124.426 10.0149 124.32 9.6468 124.308 9.26002C124.832 8.97305 125.406 8.75471 126.03 8.60499C126.653 8.44279 127.271 8.36169 127.882 8.36169C130.44 8.36169 131.719 9.43469 131.719 11.5807V16.7835H133.179V17.4011C132.892 17.6756 132.574 17.8877 132.224 18.0374C131.875 18.1996 131.532 18.2807 131.195 18.2807C130.459 18.2807 129.916 17.9626 129.567 17.3263C128.731 17.9626 127.789 18.2807 126.741 18.2807C125.917 18.2807 125.206 18.0624 124.607 17.6257C124.021 17.189 123.728 16.5402 123.728 15.6793ZM126.086 15.6045C126.086 16.0661 126.236 16.4092 126.535 16.6338C126.847 16.8584 127.24 16.9707 127.714 16.9707C128.4 16.9707 128.987 16.7586 129.473 16.3344V13.3961C128.35 13.3961 127.502 13.6019 126.928 14.0137C126.367 14.4129 126.086 14.9432 126.086 15.6045ZM133.125 9.44717V8.64242H138.234V9.44717L136.793 9.7279L139.451 15.6606L141.697 9.82147L140.2 9.44717V8.64242H144.336V9.44717L142.857 9.84019L137.561 23.5958C136.999 23.5958 136.575 23.5147 136.288 23.3525C136.014 23.1903 135.801 22.9907 135.652 22.7537L138.328 18.5053L134.398 9.80276L133.125 9.44717Z" fill="white"/>
<path d="M28.3827 40.5405C28.211 40.5405 28.1251 40.4009 28.1251 40.1218C28.1251 39.7352 28.2754 39.1769 28.576 38.4468C28.8981 37.7382 29.3491 36.847 29.9289 35.7733L32.1836 31.5538C30.8093 32.7348 29.1129 33.7978 27.0943 34.7426C25.8059 35.3653 24.4423 35.87 23.0036 36.2565C21.5649 36.643 20.1798 36.8363 18.8484 36.8363C16.5293 36.8363 14.7255 36.2994 13.4371 35.2258C12.1486 34.1521 11.5044 32.7348 11.5044 30.974C11.5044 27.6885 13.4908 24.3493 17.4634 20.9565C18.4297 20.1405 19.5249 19.3675 20.7489 18.6373C21.9729 17.9072 23.2613 17.2738 24.6141 16.7369C25.967 16.1786 27.3198 15.7491 28.6726 15.4485C30.0255 15.1264 31.3032 14.9653 32.5057 14.9653C33.515 14.9653 34.4598 15.1049 35.3402 15.3841C36.2421 15.6632 36.9722 16.0712 37.5305 16.6081C38.1103 17.1235 38.4002 17.7677 38.4002 18.5407C38.4002 19.1849 38.1855 19.8184 37.756 20.4411C37.3265 21.0639 36.7682 21.6222 36.0811 22.1161C35.4154 22.61 34.6853 23.0072 33.8907 23.3079C33.1177 23.6085 32.3661 23.7588 31.636 23.7588C29.6819 23.7588 28.6834 22.7066 28.6404 20.6022C28.5975 19.5285 28.78 18.9917 29.188 18.9917C29.5531 18.9917 29.6926 19.4533 29.6067 20.3767C29.392 22.1376 30.1329 23.018 31.8293 23.018C32.4091 23.018 33.0318 22.9106 33.6975 22.6959C34.3632 22.4811 34.9752 22.1805 35.5335 21.794C36.1133 21.4075 36.5857 20.978 36.9507 20.5056C37.3158 20.0331 37.4983 19.5392 37.4983 19.0239C37.4983 18.3797 37.2621 17.8643 36.7897 17.4778C36.3387 17.0698 35.7482 16.7691 35.0181 16.5759C34.3095 16.3826 33.5472 16.286 32.7312 16.286C30.9918 16.286 29.2417 16.5651 27.4809 17.1235C25.72 17.6603 24.0236 18.4226 22.3916 19.4104C20.7596 20.3767 19.2779 21.5041 17.9465 22.7925C14.8758 25.7988 13.3404 28.5582 13.3404 31.0706C13.3404 32.5738 13.8988 33.7763 15.0154 34.6782C16.1535 35.5586 17.6352 35.9988 19.4604 35.9988C20.9206 35.9988 22.4131 35.7197 23.9377 35.1613C25.4623 34.603 26.9118 33.9266 28.2861 33.1321C31.0777 31.5645 33.1714 29.9003 34.5672 28.1394L35.5013 26.7544C35.2221 26.7544 34.6745 26.7866 33.8585 26.851C33.064 26.9154 31.9796 27.0013 30.6053 27.1087C29.1665 27.2161 28.0284 27.3234 27.191 27.4308C26.375 27.5167 25.8596 27.5811 25.6449 27.6241C25.3872 27.6885 25.1295 27.7207 24.8718 27.7207C24.1632 27.7207 23.8089 27.5489 23.8089 27.2053C23.8089 26.6685 24.7537 26.1961 26.6434 25.7881C27.3091 25.6378 28.3398 25.5304 29.7356 25.466C31.1314 25.3801 32.8922 25.3371 35.0181 25.3371C38.5827 25.3371 40.9878 25.4874 42.2333 25.7881C42.4265 25.8096 42.5232 25.8632 42.5232 25.9491C42.5232 26.1639 41.7823 26.3357 40.3006 26.4645L38.7223 26.5933C38.1211 26.6578 37.7023 26.69 37.4661 26.69C35.2758 29.546 32.4413 33.991 28.9625 40.0251C28.7693 40.3687 28.576 40.5405 28.3827 40.5405ZM40.047 35.6445C39.5101 35.6445 39.0914 35.3976 38.7908 34.9037C38.4901 34.3883 38.3398 33.8944 38.3398 33.422C38.3398 32.1336 39.2739 30.3298 41.1421 28.0106C43.0318 25.67 44.5565 24.4997 45.716 24.4997C46.8112 24.4997 47.3588 25.0795 47.3588 26.239C47.3588 26.4108 47.3373 26.5933 47.2943 26.7866C47.2729 26.9799 47.2407 27.1839 47.1977 27.3986C47.2407 27.463 47.348 27.4952 47.5198 27.4952C48.0996 27.4952 48.7868 27.2912 49.5813 26.8832C49.5598 27.2483 48.7116 27.7744 47.0367 28.4616C47.2729 29.1702 46.5642 30.523 44.9108 32.5201C43.2143 34.603 41.7649 35.6445 40.5623 35.6445H40.047ZM40.6268 34.6782C41.5501 34.6782 42.7312 33.83 44.1699 32.1336C45.5657 30.4801 46.2636 29.2883 46.2636 28.5582C45.92 28.3649 45.4906 27.871 44.9752 27.0765C44.2451 27.0765 43.1929 27.9569 41.8186 29.7178C40.4657 31.4357 39.8108 32.7563 39.8537 33.6797C39.8752 34.3453 40.1329 34.6782 40.6268 34.6782ZM50.1691 35.6445C49.5464 35.6445 48.9666 35.4942 48.4298 35.1936C47.8929 34.8714 47.6245 34.3453 47.6245 33.6152C47.6245 32.606 47.9788 31.4034 48.6874 30.0077C49.4176 28.6119 50.2443 27.1624 51.1677 25.6592C53.6801 21.5792 55.4624 19.5392 56.5146 19.5392C56.7293 19.5392 56.9441 19.6251 57.1588 19.7969C57.395 19.9472 57.5239 20.119 57.5453 20.3123L55.2906 23.3401C54.4102 24.5211 53.6157 25.6163 52.907 26.6256C52.1984 27.6133 51.5864 28.5045 51.071 29.299C50.8133 29.707 50.5234 30.1687 50.2013 30.6841C49.8792 31.1994 49.5893 31.7363 49.3317 32.2946C49.0954 32.8314 48.9773 33.379 48.9773 33.9373C48.9773 34.195 49.0525 34.4312 49.2028 34.646C49.3531 34.8392 49.6216 34.9359 50.0081 34.9359C50.6952 34.9359 51.5971 34.5708 52.7138 33.8407C53.8304 33.0891 54.9363 32.0584 56.0314 30.7485C56.1388 30.6197 56.2569 30.5016 56.3858 30.3942C56.5146 30.2868 56.622 30.2331 56.7079 30.2331C56.8152 30.2331 56.8689 30.2976 56.8689 30.4264C56.8689 30.4908 56.7938 30.6197 56.6434 30.8129C56.5146 30.9847 56.4072 31.1243 56.3213 31.2317L55.5483 32.1013C55.1188 32.5738 54.6034 33.0891 54.0022 33.6474C53.4224 34.2058 52.7997 34.6782 52.134 35.0647C51.4898 35.4512 50.8348 35.6445 50.1691 35.6445ZM57.7117 35.7411C57.0675 35.7411 56.5199 35.5693 56.0689 35.2258C55.618 34.8607 55.3603 34.4205 55.2959 33.9051C55.21 33.218 55.3066 32.5308 55.5858 31.8437C55.8864 31.135 56.2837 30.4586 56.7776 29.8144C57.2929 29.1702 57.8405 28.5689 58.4203 28.0106C60.6965 25.7344 62.7473 24.5963 64.5725 24.5963C65.1953 24.5963 65.614 24.7573 65.8287 25.0795C65.9146 25.1868 66.0113 25.4338 66.1186 25.8203C68.5237 21.9121 70.1986 19.958 71.1435 19.958C71.3582 19.958 71.5837 20.0117 71.8199 20.119C72.0561 20.2264 72.1742 20.366 72.1742 20.5378C72.1742 20.6451 72.1205 20.7847 72.0131 20.9565C71.3689 21.751 70.7247 22.5456 70.0805 23.3401C69.4363 24.1131 68.8028 24.8969 68.1801 25.6914C67.1279 27.0228 66.2797 28.1824 65.6355 29.1702C64.9913 30.158 64.5296 30.9954 64.2504 31.6826C64.1645 31.8973 64.0786 32.1658 63.9927 32.4879C63.9283 32.7885 63.8961 33.0999 63.8961 33.422C63.8961 33.83 63.982 34.1843 64.1538 34.4849C64.3256 34.7856 64.6369 34.9359 65.0879 34.9359C65.7965 34.9359 66.6662 34.5923 67.6969 33.9051C68.7277 33.218 69.9302 32.0906 71.3045 30.523C71.3904 30.4371 71.4656 30.362 71.53 30.2976C71.6159 30.2331 71.7018 30.1902 71.7877 30.1687C71.9809 30.1258 72.0776 30.1687 72.0776 30.2976C72.0776 30.362 72.0131 30.4801 71.8843 30.6519C71.2186 31.4464 70.4778 32.2302 69.6618 33.0032C68.8458 33.7763 68.0083 34.4205 67.1494 34.9359C66.3119 35.4298 65.5281 35.6767 64.798 35.6767C64.0679 35.6767 63.5525 35.4298 63.2519 34.9359C62.9513 34.442 62.8009 33.8837 62.8009 33.2609C62.8009 32.6167 62.919 32.0262 63.1553 31.4893L60.5462 34.0984C59.9664 34.6782 59.4296 35.0969 58.9357 35.3546C58.4633 35.6123 58.0553 35.7411 57.7117 35.7411ZM57.4218 35.0325C58.3452 35.0325 59.8805 33.7656 62.0279 31.2317C62.1353 31.1028 62.511 30.6304 63.1553 29.8144C63.7995 28.9769 64.7121 27.7637 65.8931 26.1746C65.7428 25.9169 65.4851 25.7881 65.1201 25.7881C63.7887 25.7881 62.0064 26.8403 59.7732 28.9447C57.6687 30.8988 56.6165 32.5416 56.6165 33.8729C56.6165 34.646 56.8849 35.0325 57.4218 35.0325ZM72.2321 35.9988C71.5449 35.9988 70.9222 35.7841 70.3639 35.3546C69.8056 34.9037 69.5264 34.3131 69.5264 33.583C69.5264 32.0584 70.4605 30.319 72.3287 28.3649C74.2399 26.3893 75.947 25.4016 77.4502 25.4016C77.9441 25.4016 78.3413 25.5411 78.642 25.8203C78.9641 26.078 79.1251 26.4001 79.1251 26.7866C79.1251 27.9891 78.1695 29.1702 76.2584 30.3298C74.562 31.3605 73.134 31.8759 71.9744 31.8759C71.8026 31.8759 71.6523 31.8544 71.5234 31.8114C71.2013 32.3912 71.0403 33.0032 71.0403 33.6474C71.0403 34.7641 71.5664 35.3224 72.6186 35.3224C73.6923 35.3224 75.0773 34.603 76.7738 33.1643C78.0837 32.1121 79.2003 30.9954 80.1237 29.8144C80.3169 29.5567 80.4887 29.4279 80.639 29.4279C80.7679 29.4279 80.8323 29.4923 80.8323 29.6211C80.8323 29.75 80.7464 29.9325 80.5746 30.1687C79.9733 30.9632 79.3291 31.6933 78.642 32.359C77.9548 33.0247 77.214 33.6367 76.4194 34.195C74.766 35.3976 73.3702 35.9988 72.2321 35.9988ZM72.4253 31.1672C73.2413 31.1672 74.3043 30.7592 75.6142 29.9432C76.0437 29.6426 76.4624 29.3098 76.8704 28.9447C77.2999 28.5582 77.6434 28.1717 77.9011 27.7851C78.1803 27.3986 78.3199 27.055 78.3199 26.7544C78.3199 26.4752 78.0944 26.3357 77.6434 26.3357C76.9992 26.3357 76.0973 26.8188 74.9378 27.7851C74.3794 28.2576 73.8426 28.7729 73.3272 29.3312C72.8119 29.8896 72.3717 30.4801 72.0066 31.1028C72.1354 31.1458 72.275 31.1672 72.4253 31.1672ZM87.0758 35.6445C86.4961 35.6445 86.0881 35.4834 85.8518 35.1613C85.6156 34.8178 85.4975 34.399 85.4975 33.9051C85.4975 32.6597 85.927 31.3283 86.7859 29.911L88.8474 26.5611C87.3872 27.6348 85.9377 28.9769 84.499 30.5874C84.1125 31.0169 83.6723 31.5216 83.1784 32.1013C82.7059 32.6811 82.1798 33.3468 81.6001 34.0984C80.827 35.1077 80.3653 35.6123 80.215 35.6123C79.9144 35.6123 79.6674 35.4834 79.4742 35.2258C79.2809 34.9466 79.1843 34.6997 79.1843 34.4849C79.1843 34.3131 79.2379 34.0018 79.3453 33.5508C79.4527 33.0784 79.5815 32.6704 79.7318 32.3268C79.8822 31.9618 80.0325 31.6074 80.1828 31.2639C80.3546 30.8988 80.5156 30.5445 80.6659 30.2009L78.7333 32.2302C78.6904 32.2731 78.5615 32.402 78.3468 32.6167C78.1321 32.8314 77.9603 32.9388 77.8314 32.9388C77.7241 32.9388 77.6704 32.8637 77.6704 32.7133C77.6704 32.6704 77.6918 32.6167 77.7348 32.5523C77.7563 32.4664 77.8207 32.3698 77.9281 32.2624C78.2502 31.9403 78.583 31.5967 78.9266 31.2317C79.2702 30.8666 79.6245 30.4479 79.9895 29.9754C80.1828 29.7392 80.4727 29.3849 80.8592 28.9125C81.2457 28.4186 81.6645 27.8925 82.1154 27.3342C82.5878 26.7759 83.0281 26.2605 83.4361 25.7881C83.5434 25.6378 83.6615 25.5411 83.7904 25.4982C83.9192 25.4338 84.0051 25.4016 84.0481 25.4016C84.6278 25.4016 84.9177 25.627 84.9177 26.078C84.9177 26.2068 84.8855 26.3357 84.8211 26.4645C82.8885 29.1272 81.7289 31.1565 81.3424 32.5523C83.8333 30.0613 85.8304 28.1931 87.3335 26.9477C88.8582 25.6807 89.9426 25.0472 90.5868 25.0472C90.9304 25.0472 91.1881 25.1009 91.3598 25.2083C91.5531 25.3157 91.6497 25.5197 91.6497 25.8203C91.6497 25.9277 91.639 26.0136 91.6175 26.078C91.5531 26.2283 91.1129 26.8296 90.2969 27.8818C89.803 28.483 89.3628 29.0306 88.9763 29.5245C88.6112 30.0184 88.3106 30.4479 88.0744 30.8129C87.6878 31.4142 87.3979 31.9832 87.2047 32.5201C87.0114 33.0354 86.9148 33.4757 86.9148 33.8407C86.9148 33.991 86.9363 34.1736 86.9792 34.3883C87.0222 34.603 87.151 34.7104 87.3657 34.7104C87.8596 34.7104 88.6327 34.2809 89.6849 33.422C90.1788 32.9925 90.6405 32.563 91.0699 32.1336C91.4994 31.6826 91.9074 31.2424 92.2939 30.8129C92.3798 30.727 92.5194 30.566 92.7127 30.3298C92.9059 30.0721 93.024 29.9432 93.067 29.9432C93.1529 29.9432 93.1958 30.0291 93.1958 30.2009C93.1958 30.2868 93.1422 30.4371 93.0348 30.6519C92.9489 30.8451 92.8523 30.9954 92.7449 31.1028C92.5087 31.382 92.1544 31.7685 91.6819 32.2624C91.231 32.7563 90.7156 33.2609 90.1358 33.7763C89.5775 34.2917 89.0299 34.7319 88.4931 35.0969C87.9563 35.462 87.4838 35.6445 87.0758 35.6445ZM105.228 39.1877C104.842 39.1877 104.649 38.9407 104.649 38.4468C104.649 37.9744 104.842 37.3731 105.228 36.643L111.445 27.6885C113.356 24.9399 114.774 22.6851 115.697 20.9243C116.62 19.1635 117.082 17.918 117.082 17.1879C117.082 16.8443 116.953 16.5866 116.695 16.4148C116.438 16.243 116.137 16.1249 115.794 16.0605C115.45 15.9961 115.128 15.9639 114.827 15.9639C113.002 15.9639 110.457 17.0805 107.193 19.3138C106.27 19.9365 105.422 20.6344 104.649 21.4075C103.876 22.1805 103.156 23.0072 102.491 23.8877C101.202 25.6485 100.558 27.1302 100.558 28.3327C100.558 29.2561 100.987 29.8144 101.846 30.0077C102.168 30.0936 102.534 30.1365 102.942 30.1365C103.715 30.1365 104.488 29.9432 105.261 29.5567C106.034 29.1702 106.785 28.6763 107.515 28.075C108.074 27.6026 108.396 27.3664 108.482 27.3664C108.568 27.3664 108.6 27.4416 108.578 27.5919C108.45 28.0428 108.138 28.4723 107.644 28.8803C107.15 29.2883 106.56 29.6641 105.873 30.0077C105.186 30.3298 104.488 30.5874 103.779 30.7807C103.092 30.9525 102.48 31.0384 101.943 31.0384C101.084 31.0384 100.332 30.8237 99.6883 30.3942C99.0441 29.9432 98.722 29.2883 98.722 28.4293C98.722 27.1194 99.4843 25.5089 101.009 23.5978C102.469 21.751 104.273 20.1083 106.42 18.6696C107.301 18.0683 108.331 17.4992 109.512 16.9624C110.694 16.4041 111.885 15.9531 113.088 15.6096C114.29 15.2445 115.364 15.062 116.309 15.062C118.005 15.062 118.854 15.6203 118.854 16.7369C118.854 18.0898 117.834 20.4197 115.794 23.7266C114.355 26.0028 112.454 28.7085 110.092 31.8437C108.138 34.442 107.15 35.7411 107.129 35.7411C107.193 35.7411 108.224 34.6352 110.221 32.4234C111.445 31.0491 112.594 29.8251 113.668 28.7514C114.763 27.6563 115.772 26.7007 116.695 25.8847C117.146 25.4767 117.694 24.9721 118.338 24.3708C118.982 23.7481 119.734 23.0287 120.593 22.2127C121.344 21.5256 122.075 20.9028 122.783 20.3445C123.513 19.7862 124.179 19.507 124.78 19.507C125.403 19.507 125.811 19.6573 126.004 19.958C124.029 22.406 122.182 25.4016 120.464 28.9447C119.24 31.4786 118.628 33.4005 118.628 34.7104C118.628 35.4834 118.832 36.0418 119.24 36.3853C119.648 36.7289 120.185 36.9007 120.851 36.9007C121.581 36.9007 122.343 36.6967 123.138 36.2887C123.954 35.8807 124.759 35.3546 125.553 34.7104C126.348 34.0662 127.089 33.3898 127.776 32.6811C130.245 30.1902 132.21 27.4952 133.67 24.5963C134.808 22.3201 135.378 20.5056 135.378 19.1527C135.378 19.0239 135.367 18.9058 135.345 18.7984C135.345 18.691 135.335 18.5944 135.313 18.5085C134.862 18.5085 134.379 18.2723 133.864 17.7999C133.542 17.5422 133.38 17.2738 133.38 16.9946C133.38 16.7369 133.488 16.5222 133.703 16.3504C133.917 16.1786 134.164 16.0927 134.443 16.0927C134.851 16.0927 135.152 16.2752 135.345 16.6403C135.431 16.8121 135.603 17.0268 135.861 17.2845C136.032 17.4563 136.108 17.5851 136.086 17.671C136.215 17.8643 136.43 17.9609 136.73 17.9609C137.031 17.9609 137.31 17.8321 137.568 17.5744C137.847 17.3167 138.148 17.1879 138.47 17.1879C138.642 17.1879 138.727 17.2523 138.727 17.3811C138.727 17.6173 138.523 17.8428 138.115 18.0576C137.901 18.2079 137.643 18.3045 137.342 18.3475C137.171 18.3689 136.999 18.3904 136.827 18.4119C136.655 18.4119 136.483 18.3904 136.312 18.3475C136.569 19.2064 136.698 19.8399 136.698 20.2479C136.698 21.9658 135.882 24.1883 134.25 26.9154C133.434 28.2898 132.5 29.5889 131.448 30.8129C130.396 32.0369 129.215 33.1858 127.905 34.2594C125.306 36.4498 122.998 37.5449 120.979 37.5449C118.768 37.5449 117.662 36.5142 117.662 34.4527C117.662 33.4864 117.866 32.3912 118.274 31.1672C118.682 29.9218 119.165 28.687 119.723 27.463L122.042 22.406C121.098 23.1361 120.324 23.7373 119.723 24.2098C119.143 24.6607 118.65 25.0472 118.242 25.3693C117.855 25.6914 117.479 26.0243 117.114 26.3679C116.771 26.69 116.352 27.0872 115.858 27.5597C115.321 28.0965 114.602 28.8696 113.7 29.8788C112.798 30.8666 111.746 32.1013 110.543 33.583L106.807 38.1569C106.592 38.4146 106.345 38.6508 106.066 38.8656C105.787 39.0803 105.508 39.1877 105.228 39.1877ZM136.433 35.9988C135.746 35.9988 135.123 35.7841 134.565 35.3546C134.006 34.9037 133.727 34.3131 133.727 33.583C133.727 32.0584 134.661 30.319 136.53 28.3649C138.441 26.3893 140.148 25.4016 141.651 25.4016C142.145 25.4016 142.542 25.5411 142.843 25.8203C143.165 26.078 143.326 26.4001 143.326 26.7866C143.326 27.9891 142.37 29.1702 140.459 30.3298C138.763 31.3605 137.335 31.8759 136.175 31.8759C136.003 31.8759 135.853 31.8544 135.724 31.8114C135.402 32.3912 135.241 33.0032 135.241 33.6474C135.241 34.7641 135.767 35.3224 136.819 35.3224C137.893 35.3224 139.278 34.603 140.975 33.1643C142.284 32.1121 143.401 30.9954 144.324 29.8144C144.518 29.5567 144.69 29.4279 144.84 29.4279C144.969 29.4279 145.033 29.4923 145.033 29.6211C145.033 29.75 144.947 29.9325 144.775 30.1687C144.174 30.9632 143.53 31.6933 142.843 32.359C142.156 33.0247 141.415 33.6367 140.62 34.195C138.967 35.3976 137.571 35.9988 136.433 35.9988ZM136.626 31.1672C137.442 31.1672 138.505 30.7592 139.815 29.9432C140.244 29.6426 140.663 29.3098 141.071 28.9447C141.501 28.5582 141.844 28.1717 142.102 27.7851C142.381 27.3986 142.521 27.055 142.521 26.7544C142.521 26.4752 142.295 26.3357 141.844 26.3357C141.2 26.3357 140.298 26.8188 139.139 27.7851C138.58 28.2576 138.043 28.7729 137.528 29.3312C137.013 29.8896 136.572 30.4801 136.207 31.1028C136.336 31.1458 136.476 31.1672 136.626 31.1672ZM144.706 35.9988C144.019 35.9988 143.396 35.7841 142.838 35.3546C142.279 34.9037 142 34.3131 142 33.583C142 32.0584 142.934 30.319 144.802 28.3649C146.714 26.3893 148.421 25.4016 149.924 25.4016C150.418 25.4016 150.815 25.5411 151.116 25.8203C151.438 26.078 151.599 26.4001 151.599 26.7866C151.599 27.9891 150.643 29.1702 148.732 30.3298C147.036 31.3605 145.608 31.8759 144.448 31.8759C144.276 31.8759 144.126 31.8544 143.997 31.8114C143.675 32.3912 143.514 33.0032 143.514 33.6474C143.514 34.7641 144.04 35.3224 145.092 35.3224C146.166 35.3224 147.551 34.603 149.247 33.1643C150.557 32.1121 151.674 30.9954 152.597 29.8144C152.791 29.5567 152.962 29.4279 153.113 29.4279C153.242 29.4279 153.306 29.4923 153.306 29.6211C153.306 29.75 153.22 29.9325 153.048 30.1687C152.447 30.9632 151.803 31.6933 151.116 32.359C150.428 33.0247 149.688 33.6367 148.893 34.195C147.24 35.3976 145.844 35.9988 144.706 35.9988ZM144.899 31.1672C145.715 31.1672 146.778 30.7592 148.088 29.9432C148.517 29.6426 148.936 29.3098 149.344 28.9447C149.774 28.5582 150.117 28.1717 150.375 27.7851C150.654 27.3986 150.794 27.055 150.794 26.7544C150.794 26.4752 150.568 26.3357 150.117 26.3357C149.473 26.3357 148.571 26.8188 147.411 27.7851C146.853 28.2576 146.316 28.7729 145.801 29.3312C145.286 29.8896 144.845 30.4801 144.48 31.1028C144.609 31.1458 144.749 31.1672 144.899 31.1672ZM157.939 35.9666C157.23 35.9666 156.597 35.7626 156.039 35.3546C155.502 34.9466 155.029 34.4312 154.621 33.8085C154.235 33.1858 153.902 32.563 153.623 31.9403C153.472 32.1336 153.311 32.3805 153.14 32.6811C152.989 32.9818 152.807 33.3361 152.592 33.7441L151.593 35.7411C150.82 35.4405 150.434 35.0325 150.434 34.5171C150.434 33.5938 151.84 31.0277 154.653 26.8188C157.381 22.7388 159.26 20.3338 160.29 19.6037C160.398 19.5392 160.569 19.507 160.806 19.507C161.471 19.507 161.804 19.6788 161.804 20.0224C161.804 20.0868 161.654 20.323 161.353 20.731C161.053 21.1176 160.677 21.59 160.226 22.1483C159.775 22.7066 159.313 23.2757 158.841 23.8555C158.39 24.4138 157.993 24.9077 157.649 25.3371C157.305 25.7451 157.112 26.0028 157.069 26.1102C159.023 25.1009 160.58 24.5963 161.74 24.5963C162.191 24.5963 162.599 24.7251 162.964 24.9828C163.35 25.2405 163.651 25.5519 163.866 25.9169C164.08 26.282 164.166 26.6363 164.123 26.9799C163.952 28.2039 163.093 29.2131 161.547 30.0077C160.301 30.6733 159.163 31.0062 158.132 31.0062C157.016 31.0062 156.243 30.8666 155.813 30.5874C155.684 30.566 155.577 30.5982 155.491 30.6841C155.427 30.7485 155.416 30.8559 155.459 31.0062C156.06 33.6689 157.059 35.0003 158.454 35.0003C159.141 35.0003 160.054 34.603 161.192 33.8085C162.352 33.014 163.576 31.8544 164.864 30.3298C165.015 30.1794 165.154 30.1043 165.283 30.1043C165.39 30.1043 165.444 30.1687 165.444 30.2976C165.444 30.4049 165.369 30.566 165.219 30.7807C164.596 31.5323 163.866 32.3161 163.028 33.1321C162.212 33.9266 161.364 34.603 160.484 35.1613C159.603 35.6982 158.755 35.9666 157.939 35.9666ZM156.071 30.1687C157.037 30.1687 158.304 29.7714 159.872 28.9769C161.675 28.075 162.577 27.1194 162.577 26.1102C162.577 25.9384 162.481 25.7666 162.287 25.5948C162.094 25.423 161.89 25.3371 161.675 25.3371C160.516 25.3371 159.163 25.7881 157.617 26.69C155.92 27.7207 154.89 28.8481 154.525 30.0721C154.761 30.0721 155.061 30.0936 155.427 30.1365C155.813 30.158 156.028 30.1687 156.071 30.1687Z" fill="url(#paint0_linear_10843_6)"/>
<defs>
<linearGradient id="paint0_linear_10843_6" x1="11.5" y1="29.5801" x2="164.5" y2="29.5801" gradientUnits="userSpaceOnUse">
<stop stop-color="#CC9D3B"/>
<stop offset="0.543269" stop-color="#F3E4A2"/>
<stop offset="1" stop-color="#C59F35"/>
</linearGradient>
</defs>
</svg>
