<svg width="100" height="35" viewBox="0 0 100 35" fill="none" xmlns="http://www.w3.org/2000/svg">
<path d="M9.61007 9.02C9.89526 8.92222 10.1275 8.80407 10.3067 8.66556C10.4941 8.51889 10.5879 8.3763 10.5879 8.23778V7.90778C10.5879 7.67148 10.5023 7.47593 10.3312 7.32111C10.1682 7.15815 9.96859 7.07667 9.7323 7.07667H9.47563C9.23933 7.07667 9.03563 7.15815 8.86452 7.32111C8.70156 7.47593 8.62008 7.67148 8.62008 7.90778V8.23778C8.62008 8.3763 8.71378 8.51889 8.90119 8.66556C9.08859 8.80407 9.32489 8.92222 9.61007 9.02ZM12.079 8.12778C12.079 8.49444 11.9853 8.86519 11.7979 9.24C11.8467 9.23185 11.9201 9.22778 12.0179 9.22778C12.1156 9.21963 12.1808 9.21556 12.2134 9.21556H12.5556C12.6045 9.21556 12.6453 9.23593 12.6779 9.27667C12.7104 9.30926 12.7267 9.35 12.7267 9.39889V10.8289C12.7267 10.8778 12.7064 10.9185 12.6656 10.9511C12.633 10.9837 12.5964 11 12.5556 11H11.2723C11.1175 11 10.979 10.9959 10.8567 10.9878C10.7345 10.9715 10.6123 10.947 10.4901 10.9144C10.3679 10.8737 10.2375 10.8248 10.099 10.7678C9.96045 10.7026 9.79748 10.6252 9.61007 10.5356C9.43082 10.6252 9.27193 10.7026 9.13341 10.7678C8.99489 10.8248 8.86045 10.8737 8.73008 10.9144C8.60785 10.947 8.48563 10.9715 8.36341 10.9878C8.24119 10.9959 8.10267 11 7.94785 11H4.18341C3.83304 11 3.49896 10.9348 3.18119 10.8044C2.87156 10.6659 2.59859 10.4826 2.3623 10.2544C2.13415 10.0181 1.95082 9.74519 1.8123 9.43556C1.67378 9.11778 1.60452 8.7837 1.60452 8.43333V6.07444H3.12007V8.28667C3.12007 8.53926 3.2097 8.75926 3.38896 8.94667C3.57637 9.12593 3.79637 9.21556 4.04896 9.21556H6.93341C7.01489 9.21556 7.09637 9.21963 7.17785 9.22778C7.26748 9.22778 7.34489 9.22778 7.41007 9.22778C7.22267 8.86926 7.12896 8.50259 7.12896 8.12778V7.77333C7.12896 7.44741 7.19822 7.13778 7.33674 6.84444C7.47526 6.55111 7.65452 6.29444 7.87452 6.07444C8.10267 5.85444 8.35933 5.67926 8.64452 5.54889C8.93785 5.41852 9.23526 5.35333 9.53674 5.35333H9.74452C10.0704 5.35333 10.3719 5.41444 10.649 5.53667C10.9341 5.65889 11.1827 5.82593 11.3945 6.03778C11.6064 6.24963 11.7734 6.49815 11.8956 6.78333C12.0179 7.06852 12.079 7.37 12.079 7.68778V8.12778ZM8.80341 2.82333H10.3312V4.35111H8.80341V2.82333ZM13.2064 13.9944H14.7097V12.4667H13.2064V13.9944ZM15.3453 13.9944H16.873V12.4667H15.3453V13.9944ZM17.643 10.8289C17.643 10.8696 17.6267 10.9104 17.5941 10.9511C17.5616 10.9837 17.5208 11 17.4719 11H16.3841C16.1316 11 15.879 10.9389 15.6264 10.8167C15.3819 10.6944 15.1986 10.5274 15.0764 10.3156C14.9216 10.5274 14.7097 10.6944 14.4408 10.8167C14.1801 10.9389 13.9193 11 13.6586 11H12.5586C12.5179 11 12.4812 10.9837 12.4486 10.9511C12.4079 10.9185 12.3875 10.8778 12.3875 10.8289V9.39889C12.3875 9.35 12.4079 9.30926 12.4486 9.27667C12.4812 9.23593 12.5179 9.21556 12.5586 9.21556H13.8053C13.9438 9.21556 14.066 9.17481 14.1719 9.09333C14.2779 9.0037 14.343 8.88963 14.3675 8.75111L14.8441 6.45333L16.323 6.72222L15.9441 8.65333C15.9116 8.80815 15.9401 8.94259 16.0297 9.05667C16.1193 9.16259 16.2416 9.21556 16.3964 9.21556H17.4719C17.5208 9.21556 17.5616 9.23593 17.5941 9.27667C17.6267 9.30926 17.643 9.35 17.643 9.39889V10.8289ZM21.6683 9.21556C21.7091 9.21556 21.7458 9.23185 21.7783 9.26444C21.8191 9.28889 21.8395 9.32963 21.8395 9.38667V10.8289C21.8395 10.8778 21.8191 10.9185 21.7783 10.9511C21.7458 10.9837 21.7091 11 21.6683 11H21.0695C20.7843 11 20.5113 10.9511 20.2506 10.8533C19.998 10.7474 19.7739 10.5885 19.5783 10.3767C19.3746 10.5885 19.1424 10.7474 18.8817 10.8533C18.6209 10.9511 18.348 11 18.0628 11H17.4761C17.3621 11 17.305 10.943 17.305 10.8289V9.38667C17.305 9.27259 17.3621 9.21556 17.4761 9.21556H18.3317C18.4702 9.21556 18.5843 9.17074 18.6739 9.08111C18.7717 8.98333 18.8206 8.86519 18.8206 8.72667V2.51778H20.3361V8.78778C20.3524 8.91 20.4054 9.01185 20.495 9.09333C20.5846 9.17481 20.6946 9.21556 20.825 9.21556H21.6683ZM31.26 8.72667C31.26 8.86519 31.3089 8.98333 31.4067 9.08111C31.5045 9.17074 31.6226 9.21556 31.7611 9.21556H32.6167C32.6574 9.21556 32.6941 9.23185 32.7267 9.26444C32.7674 9.29704 32.7878 9.33778 32.7878 9.38667V10.8289C32.7878 10.943 32.7308 11 32.6167 11H32.0178C31.7326 11 31.4637 10.9511 31.2111 10.8533C30.9667 10.7556 30.7467 10.6252 30.5511 10.4622C30.3474 10.6252 30.1193 10.7556 29.8667 10.8533C29.6222 10.9511 29.3697 11 29.1089 11H21.6656C21.5515 11 21.4945 10.943 21.4945 10.8289V9.38667C21.4945 9.34593 21.5108 9.30926 21.5434 9.27667C21.5759 9.23593 21.6167 9.21556 21.6656 9.21556H29.3778C29.4674 9.21556 29.553 9.17889 29.6345 9.10556C29.7159 9.03222 29.7567 8.93852 29.7567 8.82444V7.95667C29.7567 7.83444 29.7119 7.73259 29.6222 7.65111C29.5326 7.56148 29.4308 7.51667 29.3167 7.51667H23.1689L22.0811 6.47778L25.7967 2.12667L26.8845 3.12889L24.5622 5.86667H29.1578C29.4511 5.86667 29.7241 5.9237 29.9767 6.03778C30.2293 6.1437 30.4493 6.29444 30.6367 6.49C30.8322 6.67741 30.983 6.90148 31.0889 7.16222C31.203 7.41481 31.26 7.68778 31.26 7.98111V8.72667ZM34.4071 9.21556C34.5456 9.21556 34.6596 9.17074 34.7493 9.08111C34.8471 8.98333 34.8959 8.86519 34.8959 8.72667V6.08667H36.4115V8.71444C36.4115 9.03222 36.3504 9.32963 36.2282 9.60667C36.1141 9.8837 35.9511 10.1281 35.7393 10.34C35.5356 10.5437 35.2952 10.7067 35.0182 10.8289C34.7411 10.943 34.4437 11 34.1259 11H32.6226C32.5737 11 32.533 10.9837 32.5004 10.9511C32.4678 10.9104 32.4515 10.8696 32.4515 10.8289V9.39889C32.4515 9.35 32.4678 9.30926 32.5004 9.27667C32.533 9.23593 32.5737 9.21556 32.6226 9.21556H34.4071ZM34.8715 5.08444H36.3993V3.55667H34.8715V5.08444ZM42.4562 10.6456C42.4562 10.9796 42.4073 11.2974 42.3095 11.5989C42.2117 11.9085 42.0691 12.1896 41.8817 12.4422C41.7024 12.703 41.4824 12.9311 41.2217 13.1267C40.9691 13.3222 40.6839 13.473 40.3661 13.5789L38.5817 14.19L38.1295 12.76L39.9384 12.1489C40.2236 12.0511 40.4599 11.8922 40.6473 11.6722C40.8347 11.4604 40.9284 11.1996 40.9284 10.89V10.8289C40.8306 10.8859 40.7084 10.9307 40.5617 10.9633C40.415 10.9878 40.2724 11 40.1339 11H39.4617C39.1439 11 38.8506 10.9348 38.5817 10.8044C38.321 10.6659 38.0969 10.4867 37.9095 10.2667C37.7302 10.0385 37.5999 9.78185 37.5184 9.49667C37.445 9.21148 37.4369 8.91815 37.4939 8.61667L37.7017 7.49222C37.7424 7.25593 37.8239 7.04 37.9461 6.84444C38.0684 6.64889 38.215 6.47778 38.3861 6.33111C38.5654 6.18444 38.765 6.07037 38.985 5.98889C39.205 5.90741 39.4332 5.86667 39.6695 5.86667H40.3539C40.6473 5.86667 40.9202 5.9237 41.1728 6.03778C41.4254 6.1437 41.6454 6.29444 41.8328 6.49C42.0284 6.67741 42.1791 6.90148 42.285 7.16222C42.3991 7.41481 42.4562 7.68778 42.4562 7.98111V10.6456ZM40.9406 9.21556V7.96889C40.9406 7.87111 40.9039 7.78556 40.8306 7.71222C40.7654 7.63889 40.6799 7.59815 40.5739 7.59H39.5228C39.3436 7.59 39.2254 7.69185 39.1684 7.89556L38.9728 8.88556C38.9565 8.96704 38.9769 9.04444 39.0339 9.11778C39.091 9.18296 39.1643 9.21556 39.2539 9.21556H40.9406ZM52.1328 10.8289C52.1328 10.943 52.0758 11 51.9617 11H51.375C51.0491 11 50.7476 10.9389 50.4706 10.8167C50.2017 10.6944 49.9654 10.5274 49.7617 10.3156C49.5906 10.4622 49.3991 10.5885 49.1873 10.6944C48.9754 10.7922 48.7473 10.8615 48.5028 10.9022L44.9584 11.3911L44.7506 9.76556L46.0828 9.59444L45.4839 3.21444L47.0239 3.03111L47.5739 9.39889L48.405 9.28889C48.6006 9.26444 48.7676 9.17481 48.9061 9.02C49.0528 8.85704 49.1261 8.68185 49.1261 8.49444V2.51778H50.6295V8.72667C50.6295 8.84074 50.6702 8.95074 50.7517 9.05667C50.8413 9.16259 50.9554 9.21556 51.0939 9.21556H51.9617C52.0758 9.21556 52.1328 9.27259 52.1328 9.38667V10.8289ZM59.9641 8.67778C59.9641 8.99556 59.903 9.29704 59.7808 9.58222C59.6585 9.86741 59.4915 10.1159 59.2797 10.3278C59.076 10.5315 58.8315 10.6944 58.5463 10.8167C58.2611 10.9389 57.9597 11 57.6419 11H51.9585C51.8445 11 51.7874 10.943 51.7874 10.8289V9.38667C51.7874 9.34593 51.8037 9.30926 51.8363 9.27667C51.8689 9.23593 51.9097 9.21556 51.9585 9.21556H52.7652L54.0241 7.85889V2.51778H55.5274V5.69556C55.5274 5.78519 55.5152 5.87481 55.4908 5.96444C55.4745 6.05407 55.4582 6.13556 55.4419 6.20889C55.4093 6.29037 55.3767 6.37185 55.3441 6.45333C55.3604 6.46148 55.3808 6.45333 55.4052 6.42889C55.9104 6.06222 56.4767 5.87889 57.1041 5.87889H57.8619C58.1552 5.87889 58.4282 5.93593 58.6808 6.05C58.9415 6.15593 59.1656 6.30259 59.353 6.49C59.5404 6.67741 59.6871 6.90148 59.793 7.16222C59.9071 7.41481 59.9641 7.68778 59.9641 7.98111V8.67778ZM57.923 9.21556C58.0697 9.21556 58.1919 9.16667 58.2897 9.06889C58.3956 8.96296 58.4485 8.84074 58.4485 8.70222V8.10333C58.4485 7.96481 58.3997 7.84667 58.3019 7.74889C58.2041 7.65111 58.086 7.60222 57.9474 7.60222H56.8474C56.4563 7.60222 56.1263 7.74481 55.8574 8.03L54.7819 9.21556H57.923ZM65.4166 6.42889V8.8C65.4166 8.92222 65.4654 9.02407 65.5632 9.10556C65.661 9.17889 65.771 9.21556 65.8932 9.21556H66.6754C66.7895 9.21556 66.8466 9.27259 66.8466 9.38667V10.8289C66.8466 10.943 66.7895 11 66.6754 11H66.1377C66.0154 11 65.8851 10.9756 65.7466 10.9267C65.608 10.8696 65.494 10.7841 65.4043 10.67V10.8778C65.4043 11.1956 65.3514 11.493 65.2454 11.77C65.1395 12.047 64.9928 12.2996 64.8054 12.5278C64.6262 12.7559 64.4103 12.9556 64.1577 13.1267C63.9051 13.3059 63.628 13.4444 63.3266 13.5422L61.5421 14.1411L61.0777 12.7233L62.9354 12.1244C63.2288 12.0348 63.461 11.8637 63.6321 11.6111C63.8114 11.3585 63.901 11.0774 63.901 10.7678V6.42889H65.4166ZM67.0176 5.45111H68.5453V3.92333H67.0176V5.45111ZM69.1809 5.45111H70.7087V3.92333H69.1809V5.45111ZM71.5642 10.8289C71.5642 10.8696 71.5479 10.9104 71.5153 10.9511C71.4828 10.9837 71.442 11 71.3931 11H70.4031C70.1505 11 69.8979 10.9389 69.6453 10.8167C69.4009 10.6944 69.2176 10.5274 69.0953 10.3156C68.9405 10.5274 68.7287 10.6944 68.4598 10.8167C68.1991 10.9389 67.9383 11 67.6776 11H66.6753C66.6346 11 66.5979 10.9837 66.5653 10.9511C66.5246 10.9185 66.5042 10.8778 66.5042 10.8289V9.39889C66.5042 9.35 66.5246 9.30926 66.5653 9.27667C66.5979 9.23593 66.6346 9.21556 66.6753 9.21556H67.8242C67.9628 9.21556 68.085 9.17481 68.1909 9.09333C68.2968 9.0037 68.362 8.88963 68.3865 8.75111L68.8631 6.45333L70.342 6.72222L69.9631 8.65333C69.9305 8.80815 69.9591 8.94259 70.0487 9.05667C70.1383 9.16259 70.2605 9.21556 70.4153 9.21556H71.3931C71.442 9.21556 71.4828 9.23593 71.5153 9.27667C71.5479 9.30926 71.5642 9.35 71.5642 9.39889V10.8289ZM74.6533 11C74.3681 11 74.0952 10.947 73.8344 10.8411C73.5818 10.727 73.3537 10.5478 73.15 10.3033C72.9463 10.5478 72.7181 10.727 72.4655 10.8411C72.2129 10.947 71.944 11 71.6589 11H71.39C71.3492 11 71.3126 10.9837 71.28 10.9511C71.2392 10.9104 71.2189 10.8696 71.2189 10.8289V9.39889C71.2189 9.35 71.2392 9.30926 71.28 9.27667C71.3207 9.23593 71.3615 9.21556 71.4022 9.21556H71.9033C72.0418 9.21556 72.1559 9.16667 72.2455 9.06889C72.3433 8.97111 72.3922 8.85296 72.3922 8.71444V6.42889H73.8955V8.76333C73.8955 8.90185 73.9444 9.01185 74.0422 9.09333C74.1481 9.17481 74.2581 9.21556 74.3722 9.21556H74.7877C74.9263 9.21556 75.0485 9.17074 75.1544 9.08111C75.2603 8.99148 75.3255 8.87741 75.35 8.73889L75.8022 6.44111L77.3177 6.71L76.9389 8.64111C76.8981 8.79593 76.9266 8.93037 77.0244 9.04444C77.1222 9.15852 77.2444 9.21556 77.3911 9.21556H77.8555C77.994 9.21556 78.1081 9.17074 78.1977 9.08111C78.2955 8.98333 78.3444 8.86519 78.3444 8.72667V6.11111H79.86V8.71444C79.86 8.86926 79.9048 8.99148 79.9944 9.08111C80.0922 9.17074 80.2103 9.21556 80.3489 9.21556H80.8377C80.9518 9.21556 81.0089 9.27259 81.0089 9.38667V10.8167C81.0089 10.8656 80.9926 10.9104 80.96 10.9511C80.9355 10.9837 80.8948 11 80.8377 11H80.6055C80.3122 11 80.0352 10.947 79.7744 10.8411C79.5218 10.727 79.2977 10.5478 79.1022 10.3033C78.8985 10.5478 78.6622 10.727 78.3933 10.8411C78.1326 10.947 77.8596 11 77.5744 11C77.3137 11 77.0407 10.9511 76.7555 10.8533C76.4785 10.7474 76.2503 10.5641 76.0711 10.3033C75.8755 10.5641 75.6555 10.7474 75.4111 10.8533C75.1748 10.9511 74.9222 11 74.6533 11ZM77.6966 5.46333H76.1689V3.93556H77.6966V5.46333ZM75.5333 5.46333H74.0055V3.93556H75.5333V5.46333ZM76.5966 3.48333H75.0689V1.95556H76.5966V3.48333ZM81.4175 5.03556L84.3998 1.52778L85.1086 2.23667L82.1998 5.64667L81.4175 5.03556ZM91.6964 8.71444C91.6964 8.85296 91.7412 8.97111 91.8309 9.06889C91.9287 9.16667 92.0468 9.21556 92.1853 9.21556H93.0409C93.0898 9.21556 93.1305 9.23593 93.1631 9.27667C93.1957 9.30926 93.212 9.34593 93.212 9.38667L93.2242 10.8289C93.2242 10.8778 93.2038 10.9185 93.1631 10.9511C93.1305 10.9837 93.0898 11 93.0409 11H92.442C92.1649 11 91.9001 10.9511 91.6475 10.8533C91.4031 10.7556 91.179 10.6252 90.9753 10.4622C90.7798 10.6252 90.5557 10.7556 90.3031 10.8533C90.0586 10.9511 89.802 11 89.5331 11H80.8431C80.729 11 80.672 10.943 80.672 10.8289V9.38667C80.672 9.34593 80.6883 9.30926 80.7209 9.27667C80.7453 9.23593 80.7861 9.21556 80.8431 9.21556H89.8142C89.9038 9.21556 89.9853 9.17889 90.0586 9.10556C90.1401 9.03222 90.1809 8.93852 90.1809 8.82444V7.95667C90.1809 7.83444 90.1361 7.73259 90.0464 7.65111C89.9649 7.56148 89.8672 7.51667 89.7531 7.51667H83.5931L82.5053 6.47778L86.2209 2.12667L87.3087 3.12889L84.9986 5.86667H89.5942C89.8875 5.86667 90.1605 5.9237 90.4131 6.03778C90.6657 6.1437 90.8857 6.29444 91.0731 6.49C91.2687 6.67741 91.4194 6.90148 91.5253 7.16222C91.6394 7.41481 91.6964 7.68778 91.6964 7.98111V8.71444ZM94.8259 9.21556C94.9644 9.21556 95.0785 9.17074 95.1681 9.08111C95.2659 8.98333 95.3148 8.86519 95.3148 8.72667V6.08667H96.8303V8.71444C96.8303 9.03222 96.7692 9.32963 96.647 9.60667C96.5329 9.8837 96.37 10.1281 96.1581 10.34C95.9544 10.5437 95.714 10.7067 95.437 10.8289C95.16 10.943 94.8626 11 94.5448 11H93.0415C92.9926 11 92.9518 10.9837 92.9192 10.9511C92.8866 10.9104 92.8703 10.8696 92.8703 10.8289V9.39889C92.8703 9.35 92.8866 9.30926 92.9192 9.27667C92.9518 9.23593 92.9926 9.21556 93.0415 9.21556H94.8259ZM95.2903 5.08444H96.8181V3.55667H95.2903V5.08444ZM99.4894 11H97.9739V2.51778H99.4894V11Z" fill="white"/>
<path d="M33.0766 27.1789C33.3781 27.073 33.6225 26.9426 33.8099 26.7878C34.0055 26.6248 34.1032 26.4578 34.1032 26.2867V25.9933C34.1032 25.7326 34.0136 25.5167 33.8344 25.3456C33.6632 25.1663 33.4473 25.0767 33.1866 25.0767H32.9544C32.7018 25.0767 32.4858 25.1663 32.3066 25.3456C32.1273 25.5167 32.0377 25.7285 32.0377 25.9811V26.2867C32.0377 26.4578 32.1355 26.6248 32.331 26.7878C32.5266 26.9426 32.7751 27.073 33.0766 27.1789ZM35.4477 26.2256C35.4477 26.633 35.3132 27.0281 35.0444 27.4111H35.5088H35.961C36.0099 27.4111 36.0507 27.4315 36.0832 27.4722C36.1158 27.5048 36.1321 27.5456 36.1321 27.5944V28.8289C36.1321 28.8778 36.1118 28.9185 36.071 28.9511C36.0384 28.9837 36.0018 29 35.961 29H34.7388C34.5921 29 34.4577 28.9959 34.3355 28.9878C34.2132 28.9715 34.091 28.947 33.9688 28.9144C33.8466 28.8737 33.7121 28.8207 33.5655 28.7556C33.4269 28.6904 33.264 28.6048 33.0766 28.4989C32.8892 28.6048 32.7221 28.6904 32.5755 28.7556C32.4369 28.8207 32.3066 28.8737 32.1844 28.9144C32.0621 28.947 31.9399 28.9715 31.8177 28.9878C31.6955 28.9959 31.5569 29 31.4021 29H27.6499C27.3077 29 26.9818 28.9348 26.6721 28.8044C26.3707 28.6741 26.1058 28.4989 25.8777 28.2789C25.6495 28.0507 25.4703 27.7859 25.3399 27.4844C25.2095 27.183 25.1444 26.8611 25.1444 26.5189V24.2822H26.4888V26.3967C26.4888 26.6819 26.5866 26.9222 26.7821 27.1178C26.9777 27.3133 27.2181 27.4111 27.5032 27.4111H30.6444H31.0966C30.8277 27.0281 30.6932 26.633 30.6932 26.2256V25.8711C30.6932 25.5615 30.7584 25.2681 30.8888 24.9911C31.0192 24.7059 31.1903 24.4574 31.4021 24.2456C31.614 24.0337 31.8584 23.8667 32.1355 23.7444C32.4207 23.6141 32.7099 23.5489 33.0032 23.5489H33.1988C33.5084 23.5489 33.7977 23.61 34.0666 23.7322C34.3436 23.8463 34.584 24.0052 34.7877 24.2089C34.9914 24.4126 35.1503 24.653 35.2644 24.93C35.3866 25.1989 35.4477 25.4881 35.4477 25.7978V26.2256ZM32.3432 21.0311H33.7488V22.4367H32.3432V21.0311ZM36.5393 31.8722H37.9326V30.4667H36.5393V31.8722ZM38.5682 31.8722H39.9737V30.4667H38.5682V31.8722ZM40.7193 28.8289C40.7193 28.8696 40.703 28.9104 40.6704 28.9511C40.6378 28.9837 40.5971 29 40.5482 29H39.6193C39.3585 29 39.0978 28.9307 38.8371 28.7922C38.5763 28.6456 38.4011 28.4744 38.3115 28.2789C38.2545 28.3767 38.173 28.4704 38.0671 28.56C37.9611 28.6415 37.843 28.7189 37.7126 28.7922C37.5904 28.8574 37.456 28.9104 37.3093 28.9511C37.1708 28.9837 37.0322 29 36.8937 29H35.9648C35.8508 29 35.7937 28.943 35.7937 28.8289V27.5944C35.7937 27.5456 35.81 27.5048 35.8426 27.4722C35.8752 27.4315 35.916 27.4111 35.9648 27.4111H37.016C37.1789 27.4111 37.3215 27.3622 37.4437 27.2644C37.566 27.1667 37.6434 27.0363 37.676 26.8733L38.1282 24.6733L39.4482 24.9056L39.0815 26.7511C39.0408 26.9222 39.0774 27.077 39.1915 27.2156C39.3056 27.3459 39.4522 27.4111 39.6315 27.4111H40.5482C40.5971 27.4111 40.6378 27.4315 40.6704 27.4722C40.703 27.5048 40.7193 27.5456 40.7193 27.5944V28.8289ZM42.4915 26.2867C42.4915 26.4578 42.5852 26.6207 42.7726 26.7756C42.9682 26.9304 43.2208 27.0648 43.5304 27.1789C43.8319 27.0648 44.0763 26.9304 44.2637 26.7756C44.4593 26.6207 44.5571 26.4578 44.5571 26.2867V25.9811C44.5571 25.7285 44.4674 25.5167 44.2882 25.3456C44.1089 25.1663 43.893 25.0767 43.6404 25.0767H43.4082C43.1556 25.0767 42.9397 25.1663 42.7604 25.3456C42.5811 25.5167 42.4915 25.7285 42.4915 25.9811V26.2867ZM41.196 25.8589C41.196 25.533 41.2571 25.2315 41.3793 24.9544C41.5097 24.6693 41.6767 24.4248 41.8804 24.2211C42.0922 24.0093 42.3326 23.8463 42.6015 23.7322C42.8785 23.61 43.1637 23.5489 43.4571 23.5489H43.6526C43.9623 23.5489 44.2515 23.61 44.5204 23.7322C44.7974 23.8463 45.0378 24.0052 45.2415 24.2089C45.4452 24.4126 45.6041 24.653 45.7182 24.93C45.8404 25.1989 45.9015 25.4881 45.9015 25.7978V26.2256C45.9015 26.633 45.7671 27.0281 45.4982 27.4111H45.8893H46.5371C46.5941 27.4111 46.6348 27.4315 46.6593 27.4722C46.6919 27.5048 46.7082 27.5456 46.7082 27.5944V28.8289C46.7082 28.8696 46.6919 28.9104 46.6593 28.9511C46.6267 28.9837 46.586 29 46.5371 29H45.1926C45.046 29 44.9115 28.9959 44.7893 28.9878C44.6671 28.9715 44.5408 28.947 44.4104 28.9144C44.2882 28.8737 44.1578 28.8207 44.0193 28.7556C43.8808 28.6904 43.7178 28.6048 43.5304 28.4989C43.343 28.6048 43.18 28.6904 43.0415 28.7556C42.903 28.8207 42.7726 28.8737 42.6504 28.9144C42.5282 28.947 42.406 28.9715 42.2837 28.9878C42.1615 28.9959 42.0271 29 41.8804 29H40.5482C40.4341 29 40.3771 28.943 40.3771 28.8289V27.5944C40.3771 27.5456 40.3934 27.5048 40.426 27.4722C40.4504 27.4315 40.4911 27.4111 40.5482 27.4111H41.2204H41.5871C41.3263 27.0363 41.196 26.6411 41.196 26.2256V25.8589ZM42.8337 22.4367H44.2393V21.0311H42.8337V22.4367ZM48.3977 21.2022H49.8033V22.6078H48.3977V21.2022ZM46.5399 29C46.4259 29 46.3688 28.943 46.3688 28.8289V27.5944C46.3688 27.5537 46.3892 27.513 46.4299 27.4722C46.4625 27.4315 46.4992 27.4111 46.5399 27.4111H48.7277C49.0699 27.4111 49.4081 27.3581 49.7422 27.2522C50.0762 27.1381 50.3614 26.9548 50.5977 26.7022L51.3066 25.9444C51.3473 25.9037 51.384 25.867 51.4166 25.8344C51.4492 25.8019 51.4696 25.7856 51.4777 25.7856L48.911 25.0156C48.8296 24.9911 48.7562 24.9993 48.691 25.04C48.634 25.0726 48.5892 25.1256 48.5566 25.1989L48.0922 26.4211L46.9188 26.1033L47.2366 24.9789C47.3099 24.7263 47.424 24.5104 47.5788 24.3311C47.7336 24.1519 47.9129 24.0133 48.1166 23.9156C48.3203 23.8096 48.5362 23.7485 48.7644 23.7322C48.9925 23.7078 49.2125 23.7281 49.4244 23.7933L54.2888 25.2478L53.8855 26.5067L53.311 26.3356C53.1725 26.303 53.0544 26.2948 52.9566 26.3111C52.867 26.3274 52.7814 26.36 52.6999 26.4089V26.8244C52.6999 26.9874 52.757 27.1259 52.871 27.24C52.9851 27.3541 53.1236 27.4111 53.2866 27.4111H54.9122C55.0262 27.4111 55.0833 27.4681 55.0833 27.5822V28.8289C55.0833 28.943 55.0262 29 54.9122 29H53.5066C53.0177 29 52.6022 28.8615 52.2599 28.5844C51.9259 28.2993 51.6936 27.9367 51.5633 27.4967L51.0744 27.9856C50.724 28.3359 50.3166 28.5926 49.8522 28.7556C49.3877 28.9185 48.911 29 48.4222 29H46.5399ZM56.9847 27.4111C57.1476 27.4111 57.2862 27.3541 57.4002 27.24C57.5143 27.1178 57.5713 26.9752 57.5713 26.8122V24.2822H58.9158V26.8122C58.9158 27.1137 58.8588 27.3989 58.7447 27.6678C58.6306 27.9285 58.4717 28.1607 58.268 28.3644C58.0725 28.56 57.8402 28.7148 57.5713 28.8289C57.3106 28.943 57.0295 29 56.728 29H54.9069C54.858 29 54.8173 28.9837 54.7847 28.9511C54.7521 28.9104 54.7358 28.8696 54.7358 28.8289V27.5944C54.7358 27.5456 54.7521 27.5048 54.7847 27.4722C54.8173 27.4315 54.858 27.4111 54.9069 27.4111H56.9847ZM55.4691 23.17H56.8747V21.7644H55.4691V23.17ZM57.5102 23.17H58.9158V21.7644H57.5102V23.17ZM65.0776 29C64.8902 27.5985 64.6376 26.3967 64.3198 25.3944C64.0102 24.3841 63.7087 23.557 63.4154 22.9133C63.065 22.1474 62.7024 21.5119 62.3276 21.0067L63.5132 20.0289C63.5132 20.0289 63.5661 20.1226 63.672 20.31C63.7861 20.4893 63.9246 20.7296 64.0876 21.0311C64.2587 21.3326 64.438 21.683 64.6254 22.0822C64.8209 22.4733 65.0002 22.8807 65.1632 23.3044C65.3261 23.7281 65.4606 24.1559 65.5665 24.5878C65.6806 25.0115 65.7376 25.4067 65.7376 25.7733C65.7376 25.4963 65.7702 25.203 65.8354 24.8933C65.9006 24.5837 65.982 24.27 66.0798 23.9522C66.1858 23.6263 66.3039 23.3044 66.4343 22.9867C66.5728 22.6689 66.7113 22.3633 66.8498 22.07C67.1758 21.3937 67.5465 20.7133 67.962 20.0289L69.1476 21.0067C68.7076 21.6748 68.3002 22.4244 67.9254 23.2556C67.6076 23.9726 67.298 24.8159 66.9965 25.7856C66.7032 26.7552 66.5035 27.8267 66.3976 29H65.0776ZM71.3618 29.0978L74.2218 20.4567L75.1141 20.7744L72.2541 29.3911L71.3618 29.0978ZM71.4718 24.3433C70.4941 24.3433 70.0052 23.7485 70.0052 22.5589C70.0052 21.3774 70.4941 20.7867 71.4718 20.7867C72.4496 20.7867 72.9385 21.3774 72.9385 22.5589C72.9385 23.7485 72.4496 24.3433 71.4718 24.3433ZM71.4718 23.3656C71.7244 23.3656 71.8507 23.0967 71.8507 22.5589C71.8507 22.0293 71.7244 21.7644 71.4718 21.7644C71.2192 21.7644 71.0929 22.0293 71.0929 22.5589C71.0929 23.0967 71.2192 23.3656 71.4718 23.3656ZM75.0285 29.1467C74.0426 29.1467 73.5496 28.5519 73.5496 27.3622C73.5496 26.1807 74.0426 25.59 75.0285 25.59C76.0144 25.59 76.5074 26.1807 76.5074 27.3622C76.5074 28.5519 76.0144 29.1467 75.0285 29.1467ZM75.0285 28.1689C75.2892 28.1689 75.4196 27.9 75.4196 27.3622C75.4196 26.8326 75.2892 26.5678 75.0285 26.5678C74.7678 26.5678 74.6374 26.8326 74.6374 27.3622C74.6374 27.9 74.7678 28.1689 75.0285 28.1689Z" fill="#29FDB0"/>
</svg>
