<svg width="98" height="35" viewBox="0 0 98 35" fill="none" xmlns="http://www.w3.org/2000/svg">
<path d="M1.49038 7.63889C1.49038 7.3863 1.53112 7.14185 1.6126 6.90556C1.70223 6.66926 1.82038 6.45333 1.96704 6.25778C2.12186 6.05407 2.30519 5.87889 2.51704 5.73222C2.72889 5.58556 2.96112 5.4837 3.21371 5.42667L4.77815 5.06V4.16778H6.29371V8.65333C6.29371 8.8 6.35482 8.93037 6.47704 9.04444C6.59926 9.15852 6.74186 9.21556 6.90482 9.21556H7.27149C7.38556 9.21556 7.4426 9.27259 7.4426 9.38667V10.8289C7.4426 10.8778 7.42223 10.9185 7.38149 10.9511C7.34889 10.9837 7.31223 11 7.27149 11H6.90482C6.48112 11 6.11852 10.8981 5.81704 10.6944C5.52371 10.4826 5.27926 10.2056 5.08371 9.86333C4.97778 9.93667 4.83926 9.9937 4.66815 10.0344C4.50519 10.067 4.35445 10.0833 4.21593 10.0833H3.16482C2.94482 10.0833 2.73297 10.0385 2.52926 9.94889C2.32556 9.85926 2.1463 9.74111 1.99149 9.59444C1.83667 9.43963 1.71445 9.26037 1.62482 9.05667C1.53519 8.85296 1.49038 8.64111 1.49038 8.42111V7.63889ZM4.77815 6.68556L3.62926 6.95444C3.44186 7.00333 3.29112 7.10111 3.17704 7.24778C3.06297 7.39444 3.00593 7.56556 3.00593 7.76111V8.29889H4.77815V6.68556ZM7.92404 13.9944H9.42737V12.4667H7.92404V13.9944ZM10.0629 13.9944H11.5907V12.4667H10.0629V13.9944ZM12.3607 10.8289C12.3607 10.8696 12.3444 10.9104 12.3118 10.9511C12.2792 10.9837 12.2385 11 12.1896 11H11.1018C10.8492 11 10.5966 10.9389 10.344 10.8167C10.0996 10.6944 9.91626 10.5274 9.79404 10.3156C9.63922 10.5274 9.42737 10.6944 9.15848 10.8167C8.89774 10.9389 8.637 11 8.37626 11H7.27626C7.23552 11 7.19885 10.9837 7.16626 10.9511C7.12552 10.9185 7.10515 10.8778 7.10515 10.8289V9.39889C7.10515 9.35 7.12552 9.30926 7.16626 9.27667C7.19885 9.23593 7.23552 9.21556 7.27626 9.21556H8.52293C8.66145 9.21556 8.78367 9.17481 8.88959 9.09333C8.99552 9.0037 9.06071 8.88963 9.08515 8.75111L9.56182 6.45333L11.0407 6.72222L10.6618 8.65333C10.6292 8.80815 10.6577 8.94259 10.7474 9.05667C10.837 9.16259 10.9592 9.21556 11.114 9.21556H12.1896C12.2385 9.21556 12.2792 9.23593 12.3118 9.27667C12.3444 9.30926 12.3607 9.35 12.3607 9.39889V10.8289ZM14.4671 9.21556C14.6056 9.21556 14.7197 9.17074 14.8094 9.08111C14.9071 8.98333 14.956 8.86519 14.956 8.72667V6.08667H16.4716V8.71444C16.4716 9.03222 16.4105 9.32963 16.2882 9.60667C16.1742 9.8837 16.0112 10.1281 15.7994 10.34C15.5956 10.5437 15.3553 10.7067 15.0782 10.8289C14.8012 10.943 14.5038 11 14.186 11H12.1938C12.1449 11 12.1042 10.9837 12.0716 10.9511C12.039 10.9104 12.0227 10.8696 12.0227 10.8289V9.41111C12.0227 9.36222 12.039 9.31741 12.0716 9.27667C12.1042 9.23593 12.1449 9.21556 12.1938 9.21556H14.4671ZM12.7927 5.08444H14.3205V3.55667H12.7927V5.08444ZM14.956 5.08444H16.4838V3.55667H14.956V5.08444ZM15.6188 14.1656L15.1543 12.7356L17.0121 12.1367C17.2973 12.0389 17.5295 11.8678 17.7088 11.6233C17.888 11.3789 17.9777 11.1019 17.9777 10.7922V6.44111H19.4932V10.6333C19.4932 10.9674 19.4403 11.2852 19.3343 11.5867C19.2366 11.8963 19.094 12.1774 18.9066 12.43C18.7273 12.6907 18.5073 12.9148 18.2466 13.1022C17.994 13.2978 17.7129 13.4485 17.4032 13.5544L15.6188 14.1656ZM23.5414 10.8289C23.5414 10.943 23.4843 11 23.3703 11H23.0036C22.694 11 22.4006 10.943 22.1236 10.8289C21.8547 10.7067 21.6184 10.5478 21.4147 10.3522C21.211 10.1485 21.048 9.91222 20.9258 9.64333C20.8117 9.3663 20.7547 9.07296 20.7547 8.76333V2.51778H22.2703V8.72667C22.2703 8.86519 22.3151 8.98333 22.4047 9.08111C22.5025 9.17074 22.6206 9.21556 22.7591 9.21556H23.3703C23.4191 9.21556 23.4599 9.23593 23.4925 9.27667C23.5251 9.30926 23.5414 9.35 23.5414 9.39889V10.8289ZM24.869 7.51667L23.7812 6.47778L27.4968 2.12667L28.5846 3.12889L26.2623 5.86667H30.8579C31.1512 5.86667 31.4242 5.9237 31.6768 6.03778C31.9375 6.1437 32.1616 6.29444 32.349 6.49C32.5446 6.67741 32.6953 6.90148 32.8012 7.16222C32.9153 7.41481 32.9723 7.68778 32.9723 7.98111V8.88556C32.9723 9.18704 32.9112 9.46815 32.789 9.72889C32.6749 9.98963 32.516 10.2137 32.3123 10.4011C32.1086 10.5885 31.8764 10.7352 31.6157 10.8411C31.3631 10.947 31.0942 11 30.809 11H23.3657C23.3249 11 23.2883 10.9837 23.2557 10.9511C23.2149 10.9185 23.1946 10.8778 23.1946 10.8289V9.38667C23.1946 9.28889 23.2516 9.23185 23.3657 9.21556H31.0779C31.1675 9.21556 31.2531 9.18296 31.3346 9.11778C31.416 9.05259 31.4568 8.95889 31.4568 8.83667V7.95667C31.4568 7.83444 31.412 7.73259 31.3223 7.65111C31.2327 7.56148 31.1309 7.51667 31.0168 7.51667H24.869ZM36.5411 8.06667L35.2089 7.71222L35.5389 6.55111C35.6122 6.29037 35.7304 6.0663 35.8934 5.87889C36.0645 5.69148 36.2559 5.54481 36.4678 5.43889C36.6796 5.32481 36.9037 5.25556 37.14 5.23111C37.3845 5.20667 37.6208 5.22704 37.8489 5.29222L42.6645 6.73444L42.2489 8.15222L41.4056 7.93222C41.2915 7.90778 41.1978 7.89963 41.1245 7.90778C41.0511 7.91593 40.9941 7.92407 40.9534 7.93222V8.72667C40.9534 8.86519 41.0022 8.98333 41.1 9.08111C41.1978 9.17074 41.3159 9.21556 41.4545 9.21556H43.1656C43.2145 9.21556 43.2511 9.23593 43.2756 9.27667C43.3082 9.30926 43.3285 9.34593 43.3367 9.38667V10.8289C43.3367 10.8696 43.3204 10.9104 43.2878 10.9511C43.2552 10.9837 43.2145 11 43.1656 11H41.7845C41.483 11 41.2059 10.947 40.9534 10.8411C40.7008 10.727 40.4848 10.5763 40.3056 10.3889C40.1263 10.2015 39.9837 9.98556 39.8778 9.74111C39.78 9.49667 39.723 9.23593 39.7067 8.95889V8.86111L37.7022 10.3156C37.5067 10.4541 37.3559 10.6333 37.25 10.8533C37.1522 11.0652 37.1034 11.2893 37.1034 11.5256C37.1034 11.7537 37.1441 11.9656 37.2256 12.1611C37.3152 12.3648 37.4334 12.54 37.58 12.6867C37.7348 12.8415 37.91 12.9596 38.1056 13.0411C38.3093 13.1307 38.5252 13.1756 38.7534 13.1756H42.0167V14.96H38.7656C38.3011 14.96 37.8652 14.8704 37.4578 14.6911C37.0504 14.52 36.6959 14.2837 36.3945 13.9822C36.093 13.6889 35.8526 13.3426 35.6734 12.9433C35.5022 12.5522 35.4167 12.1326 35.4167 11.6844C35.4167 11.1956 35.5185 10.7474 35.7222 10.34C35.9341 9.93259 36.2234 9.59852 36.59 9.33778C36.8182 9.17481 37.03 9.02407 37.2256 8.88556C37.4211 8.73889 37.6126 8.5963 37.8 8.45778C37.9874 8.31926 38.1708 8.18481 38.35 8.05444C38.5374 7.91593 38.7289 7.77333 38.9245 7.62667C39.0141 7.56148 39.1119 7.49222 39.2178 7.41889C39.3319 7.34556 39.3971 7.30481 39.4134 7.29667L37.25 6.66111C37.193 6.64481 37.1359 6.64889 37.0789 6.67333C37.03 6.69778 36.9974 6.74259 36.9811 6.80778L36.5411 8.06667ZM37.8611 10.67H38.8022V11.6111H37.8611V10.67ZM39.1567 10.67H40.0978V11.6111H39.1567V10.67ZM38.5211 11.8556H39.4622V12.7967H38.5211V11.8556ZM43.8149 13.9944H45.3182V12.4667H43.8149V13.9944ZM45.9538 13.9944H47.4815V12.4667H45.9538V13.9944ZM48.2515 10.8289C48.2515 10.8696 48.2353 10.9104 48.2027 10.9511C48.1701 10.9837 48.1293 11 48.0804 11H46.9927C46.7401 11 46.4875 10.9389 46.2349 10.8167C45.9904 10.6944 45.8071 10.5274 45.6849 10.3156C45.5301 10.5274 45.3182 10.6944 45.0493 10.8167C44.7886 10.9389 44.5278 11 44.2671 11H43.1671C43.1264 11 43.0897 10.9837 43.0571 10.9511C43.0164 10.9185 42.996 10.8778 42.996 10.8289V9.39889C42.996 9.35 43.0164 9.30926 43.0571 9.27667C43.0897 9.23593 43.1264 9.21556 43.1671 9.21556H44.4138C44.5523 9.21556 44.6745 9.17481 44.7804 9.09333C44.8864 9.0037 44.9515 8.88963 44.976 8.75111L45.4527 6.45333L46.9315 6.72222L46.5527 8.65333C46.5201 8.80815 46.5486 8.94259 46.6382 9.05667C46.7278 9.16259 46.8501 9.21556 47.0049 9.21556H48.0804C48.1293 9.21556 48.1701 9.23593 48.2027 9.27667C48.2353 9.30926 48.2515 9.35 48.2515 9.39889V10.8289ZM51.2869 9.21556C51.4254 9.21556 51.5395 9.17074 51.6291 9.08111C51.7269 8.98333 51.7757 8.86519 51.7757 8.72667V6.08667H53.2913V8.71444C53.2913 9.03222 53.2302 9.32963 53.108 9.60667C52.9939 9.8837 52.8309 10.1281 52.6191 10.34C52.4154 10.5437 52.175 10.7067 51.898 10.8289C51.6209 10.943 51.3235 11 51.0057 11H48.0846C48.0357 11 47.995 10.9837 47.9624 10.9511C47.9298 10.9104 47.9135 10.8696 47.9135 10.8289V9.41111C47.9135 9.36222 47.9298 9.31741 47.9624 9.27667C47.995 9.23593 48.0357 9.21556 48.0846 9.21556H51.2869ZM48.4757 13.9944H50.0035V12.4667H48.4757V13.9944ZM50.6391 13.9944H52.1669V12.4667H50.6391V13.9944ZM49.5269 15.9744H51.0546V14.4467H49.5269V15.9744ZM61.8047 9.21556H62.1713C62.2121 9.21556 62.2487 9.23593 62.2813 9.27667C62.3221 9.30926 62.3424 9.35 62.3424 9.39889V10.8289C62.3424 10.8696 62.3261 10.9104 62.2935 10.9511C62.261 10.9837 62.2202 11 62.1713 11H61.9269C61.601 11 61.3117 10.9389 61.0591 10.8167C60.8065 10.6944 60.5987 10.56 60.4358 10.4133C60.2239 10.5926 59.9835 10.7352 59.7147 10.8411C59.4539 10.947 59.1687 11 58.8591 11H57.2824C57.0461 11 56.8221 10.9552 56.6102 10.8656C56.4065 10.7759 56.2272 10.6537 56.0724 10.4989C55.9176 10.3359 55.7954 10.1526 55.7058 9.94889C55.6161 9.73704 55.5713 9.51296 55.5713 9.27667V7.59H56.8424V8.95889C56.8424 9.03222 56.8669 9.09333 56.9158 9.14222C56.9647 9.19111 57.0258 9.21556 57.0991 9.21556H58.8835C59.1035 9.21556 59.2828 9.13815 59.4213 8.98333C59.5598 8.82037 59.6087 8.63296 59.568 8.42111L58.5658 4.80333L60.008 4.27778L61.2791 8.81222C61.3117 8.9263 61.3769 9.02407 61.4747 9.10556C61.5724 9.17889 61.6824 9.21556 61.8047 9.21556ZM64.0511 5.45111H65.5788V3.92333H64.0511V5.45111ZM67.0577 10.8289C67.0577 10.8696 67.0414 10.9104 67.0088 10.9511C66.9762 10.9837 66.9355 11 66.8866 11H65.8966C65.644 11 65.3914 10.9389 65.1388 10.8167C64.8944 10.6944 64.7111 10.5274 64.5888 10.3156C64.434 10.5274 64.2222 10.6944 63.9533 10.8167C63.6925 10.9389 63.4318 11 63.1711 11H62.1688C62.1281 11 62.0914 10.9837 62.0588 10.9511C62.0181 10.9185 61.9977 10.8778 61.9977 10.8289V9.39889C61.9977 9.35 62.0181 9.30926 62.0588 9.27667C62.0914 9.23593 62.1281 9.21556 62.1688 9.21556H63.3177C63.4562 9.21556 63.5785 9.17481 63.6844 9.09333C63.7903 9.0037 63.8555 8.88963 63.8799 8.75111L64.3566 6.45333L65.8355 6.72222L65.4566 8.65333C65.424 8.80815 65.4525 8.94259 65.5422 9.05667C65.6318 9.16259 65.754 9.21556 65.9088 9.21556H66.8866C66.9355 9.21556 66.9762 9.23593 67.0088 9.27667C67.0414 9.30926 67.0577 9.35 67.0577 9.39889V10.8289ZM68.5335 14.0067H70.0612V12.4789H68.5335V14.0067ZM71.7724 10.8289C71.7724 10.8696 71.7561 10.9104 71.7235 10.9511C71.6909 10.9837 71.6501 11 71.6012 11H70.6112C70.3587 11 70.1061 10.9389 69.8535 10.8167C69.609 10.6944 69.4257 10.5274 69.3035 10.3156C69.1487 10.5274 68.9368 10.6944 68.6679 10.8167C68.4072 10.9389 68.1464 11 67.8857 11H66.8835C66.8427 11 66.8061 10.9837 66.7735 10.9511C66.7327 10.9185 66.7124 10.8778 66.7124 10.8289V9.39889C66.7124 9.35 66.7327 9.30926 66.7735 9.27667C66.8061 9.23593 66.8427 9.21556 66.8835 9.21556H68.0324C68.1709 9.21556 68.2931 9.17481 68.399 9.09333C68.505 9.0037 68.5701 8.88963 68.5946 8.75111L69.0712 6.45333L70.5501 6.72222L70.1712 8.65333C70.1387 8.80815 70.1672 8.94259 70.2568 9.05667C70.3464 9.16259 70.4687 9.21556 70.6235 9.21556H71.6012C71.6501 9.21556 71.6909 9.23593 71.7235 9.27667C71.7561 9.30926 71.7724 9.35 71.7724 9.39889V10.8289ZM73.3825 9.21556C73.5211 9.21556 73.6351 9.17074 73.7248 9.08111C73.8225 8.98333 73.8714 8.86519 73.8714 8.72667V6.08667H75.387V8.71444C75.387 9.03222 75.3259 9.32963 75.2036 9.60667C75.0896 9.8837 74.9266 10.1281 74.7148 10.34C74.5111 10.5437 74.2707 10.7067 73.9936 10.8289C73.7166 10.943 73.4192 11 73.1014 11H71.5981C71.5492 11 71.5085 10.9837 71.4759 10.9511C71.4433 10.9104 71.427 10.8696 71.427 10.8289V9.39889C71.427 9.35 71.4433 9.30926 71.4759 9.27667C71.5085 9.23593 71.5492 9.21556 71.5981 9.21556H73.3825ZM73.847 5.08444H75.3748V3.55667H73.847V5.08444ZM78.2539 11C78.0176 11 77.7935 10.9552 77.5816 10.8656C77.3698 10.7759 77.1864 10.6537 77.0316 10.4989C76.8768 10.3359 76.7546 10.1526 76.665 9.94889C76.5753 9.73704 76.5305 9.51296 76.5305 9.27667V7.59H77.8139V8.97111C77.8139 9.04444 77.8383 9.10556 77.8872 9.15444C77.9361 9.19519 77.9931 9.21556 78.0583 9.21556H80.0872C80.2257 9.21556 80.3479 9.18704 80.4539 9.13C80.5679 9.06481 80.6535 8.98333 80.7105 8.88556C80.7676 8.77963 80.7961 8.66556 80.7961 8.54333C80.8042 8.41296 80.7716 8.28667 80.6983 8.16444L79.1461 5.40222L80.4294 4.57111L82.0794 7.49222C82.2913 7.86704 82.385 8.26222 82.3605 8.67778C82.3442 9.08519 82.2424 9.46407 82.055 9.81444C81.8676 10.1567 81.6027 10.4419 81.2605 10.67C80.9183 10.89 80.5272 11 80.0872 11H78.2539ZM85.3664 6.42889V8.8C85.3664 8.92222 85.4153 9.02407 85.5131 9.10556C85.6109 9.17889 85.7209 9.21556 85.8431 9.21556H86.6253C86.7394 9.21556 86.7964 9.27259 86.7964 9.38667V10.8289C86.7964 10.943 86.7394 11 86.6253 11H86.0875C85.9653 11 85.8349 10.9756 85.6964 10.9267C85.5579 10.8696 85.4438 10.7841 85.3542 10.67V10.8778C85.3542 11.1956 85.3012 11.493 85.1953 11.77C85.0894 12.047 84.9427 12.2996 84.7553 12.5278C84.5761 12.7559 84.3601 12.9556 84.1075 13.1267C83.8549 13.3059 83.5779 13.4444 83.2764 13.5422L81.492 14.1411L81.0275 12.7233L82.8853 12.1244C83.1786 12.0348 83.4109 11.8637 83.582 11.6111C83.7612 11.3585 83.8509 11.0774 83.8509 10.7678V6.42889H85.3664ZM89.3752 7.51667L88.2874 6.47778L92.003 2.12667L93.0908 3.12889L90.7808 5.86667H95.3763C95.6615 5.86667 95.9304 5.9237 96.183 6.03778C96.4437 6.1437 96.6678 6.29444 96.8552 6.49C97.0508 6.67741 97.2015 6.90148 97.3074 7.16222C97.4215 7.41481 97.4786 7.68778 97.4786 7.98111V8.88556C97.4786 9.18704 97.4174 9.46815 97.2952 9.72889C97.1811 9.98963 97.0223 10.2137 96.8186 10.4011C96.623 10.5885 96.3949 10.7352 96.1341 10.8411C95.8734 10.947 95.6004 11 95.3152 11H86.6252C86.5111 11 86.4541 10.943 86.4541 10.8289V9.38667C86.4541 9.34593 86.4704 9.30926 86.503 9.27667C86.5356 9.23593 86.5763 9.21556 86.6252 9.21556H95.633C95.7063 9.21556 95.7797 9.17889 95.853 9.10556C95.9263 9.03222 95.963 8.93852 95.963 8.82444V7.95667C95.963 7.83444 95.9182 7.73259 95.8286 7.65111C95.7471 7.56148 95.6493 7.51667 95.5352 7.51667H89.3752ZM87.1997 5.03556L90.1819 1.52778L90.8908 2.23667L87.9819 5.64667L87.1997 5.03556Z" fill="white"/>
<path d="M31.0766 27.1789C31.3781 27.073 31.6225 26.9426 31.8099 26.7878C32.0055 26.6248 32.1032 26.4578 32.1032 26.2867V25.9933C32.1032 25.7326 32.0136 25.5167 31.8344 25.3456C31.6632 25.1663 31.4473 25.0767 31.1866 25.0767H30.9544C30.7018 25.0767 30.4858 25.1663 30.3066 25.3456C30.1273 25.5167 30.0377 25.7285 30.0377 25.9811V26.2867C30.0377 26.4578 30.1355 26.6248 30.331 26.7878C30.5266 26.9426 30.7751 27.073 31.0766 27.1789ZM33.4477 26.2256C33.4477 26.633 33.3132 27.0281 33.0444 27.4111H33.5088H33.961C34.0099 27.4111 34.0507 27.4315 34.0832 27.4722C34.1158 27.5048 34.1321 27.5456 34.1321 27.5944V28.8289C34.1321 28.8778 34.1118 28.9185 34.071 28.9511C34.0384 28.9837 34.0018 29 33.961 29H32.7388C32.5921 29 32.4577 28.9959 32.3355 28.9878C32.2132 28.9715 32.091 28.947 31.9688 28.9144C31.8466 28.8737 31.7121 28.8207 31.5655 28.7556C31.4269 28.6904 31.264 28.6048 31.0766 28.4989C30.8892 28.6048 30.7221 28.6904 30.5755 28.7556C30.4369 28.8207 30.3066 28.8737 30.1844 28.9144C30.0621 28.947 29.9399 28.9715 29.8177 28.9878C29.6955 28.9959 29.5569 29 29.4021 29H25.6499C25.3077 29 24.9818 28.9348 24.6721 28.8044C24.3707 28.6741 24.1058 28.4989 23.8777 28.2789C23.6495 28.0507 23.4703 27.7859 23.3399 27.4844C23.2095 27.183 23.1444 26.8611 23.1444 26.5189V24.2822H24.4888V26.3967C24.4888 26.6819 24.5866 26.9222 24.7821 27.1178C24.9777 27.3133 25.2181 27.4111 25.5032 27.4111H28.6444H29.0966C28.8277 27.0281 28.6932 26.633 28.6932 26.2256V25.8711C28.6932 25.5615 28.7584 25.2681 28.8888 24.9911C29.0192 24.7059 29.1903 24.4574 29.4021 24.2456C29.614 24.0337 29.8584 23.8667 30.1355 23.7444C30.4207 23.6141 30.7099 23.5489 31.0032 23.5489H31.1988C31.5084 23.5489 31.7977 23.61 32.0666 23.7322C32.3436 23.8463 32.584 24.0052 32.7877 24.2089C32.9914 24.4126 33.1503 24.653 33.2644 24.93C33.3866 25.1989 33.4477 25.4881 33.4477 25.7978V26.2256ZM30.3432 21.0311H31.7488V22.4367H30.3432V21.0311ZM34.5393 31.8722H35.9326V30.4667H34.5393V31.8722ZM36.5682 31.8722H37.9737V30.4667H36.5682V31.8722ZM38.7193 28.8289C38.7193 28.8696 38.703 28.9104 38.6704 28.9511C38.6378 28.9837 38.5971 29 38.5482 29H37.6193C37.3585 29 37.0978 28.9307 36.8371 28.7922C36.5763 28.6456 36.4011 28.4744 36.3115 28.2789C36.2545 28.3767 36.173 28.4704 36.0671 28.56C35.9611 28.6415 35.843 28.7189 35.7126 28.7922C35.5904 28.8574 35.456 28.9104 35.3093 28.9511C35.1708 28.9837 35.0322 29 34.8937 29H33.9648C33.8508 29 33.7937 28.943 33.7937 28.8289V27.5944C33.7937 27.5456 33.81 27.5048 33.8426 27.4722C33.8752 27.4315 33.916 27.4111 33.9648 27.4111H35.016C35.1789 27.4111 35.3215 27.3622 35.4437 27.2644C35.566 27.1667 35.6434 27.0363 35.676 26.8733L36.1282 24.6733L37.4482 24.9056L37.0815 26.7511C37.0408 26.9222 37.0774 27.077 37.1915 27.2156C37.3056 27.3459 37.4522 27.4111 37.6315 27.4111H38.5482C38.5971 27.4111 38.6378 27.4315 38.6704 27.4722C38.703 27.5048 38.7193 27.5456 38.7193 27.5944V28.8289ZM40.4915 26.2867C40.4915 26.4578 40.5852 26.6207 40.7726 26.7756C40.9682 26.9304 41.2208 27.0648 41.5304 27.1789C41.8319 27.0648 42.0763 26.9304 42.2637 26.7756C42.4593 26.6207 42.5571 26.4578 42.5571 26.2867V25.9811C42.5571 25.7285 42.4674 25.5167 42.2882 25.3456C42.1089 25.1663 41.893 25.0767 41.6404 25.0767H41.4082C41.1556 25.0767 40.9397 25.1663 40.7604 25.3456C40.5811 25.5167 40.4915 25.7285 40.4915 25.9811V26.2867ZM39.196 25.8589C39.196 25.533 39.2571 25.2315 39.3793 24.9544C39.5097 24.6693 39.6767 24.4248 39.8804 24.2211C40.0922 24.0093 40.3326 23.8463 40.6015 23.7322C40.8785 23.61 41.1637 23.5489 41.4571 23.5489H41.6526C41.9623 23.5489 42.2515 23.61 42.5204 23.7322C42.7974 23.8463 43.0378 24.0052 43.2415 24.2089C43.4452 24.4126 43.6041 24.653 43.7182 24.93C43.8404 25.1989 43.9015 25.4881 43.9015 25.7978V26.2256C43.9015 26.633 43.7671 27.0281 43.4982 27.4111H43.8893H44.5371C44.5941 27.4111 44.6348 27.4315 44.6593 27.4722C44.6919 27.5048 44.7082 27.5456 44.7082 27.5944V28.8289C44.7082 28.8696 44.6919 28.9104 44.6593 28.9511C44.6267 28.9837 44.586 29 44.5371 29H43.1926C43.046 29 42.9115 28.9959 42.7893 28.9878C42.6671 28.9715 42.5408 28.947 42.4104 28.9144C42.2882 28.8737 42.1578 28.8207 42.0193 28.7556C41.8808 28.6904 41.7178 28.6048 41.5304 28.4989C41.343 28.6048 41.18 28.6904 41.0415 28.7556C40.903 28.8207 40.7726 28.8737 40.6504 28.9144C40.5282 28.947 40.406 28.9715 40.2837 28.9878C40.1615 28.9959 40.0271 29 39.8804 29H38.5482C38.4341 29 38.3771 28.943 38.3771 28.8289V27.5944C38.3771 27.5456 38.3934 27.5048 38.426 27.4722C38.4504 27.4315 38.4911 27.4111 38.5482 27.4111H39.2204H39.5871C39.3263 27.0363 39.196 26.6411 39.196 26.2256V25.8589ZM40.8337 22.4367H42.2393V21.0311H40.8337V22.4367ZM46.3977 21.2022H47.8033V22.6078H46.3977V21.2022ZM44.5399 29C44.4259 29 44.3688 28.943 44.3688 28.8289V27.5944C44.3688 27.5537 44.3892 27.513 44.4299 27.4722C44.4625 27.4315 44.4992 27.4111 44.5399 27.4111H46.7277C47.0699 27.4111 47.4081 27.3581 47.7422 27.2522C48.0762 27.1381 48.3614 26.9548 48.5977 26.7022L49.3066 25.9444C49.3473 25.9037 49.384 25.867 49.4166 25.8344C49.4492 25.8019 49.4696 25.7856 49.4777 25.7856L46.911 25.0156C46.8296 24.9911 46.7562 24.9993 46.691 25.04C46.634 25.0726 46.5892 25.1256 46.5566 25.1989L46.0922 26.4211L44.9188 26.1033L45.2366 24.9789C45.3099 24.7263 45.424 24.5104 45.5788 24.3311C45.7336 24.1519 45.9129 24.0133 46.1166 23.9156C46.3203 23.8096 46.5362 23.7485 46.7644 23.7322C46.9925 23.7078 47.2125 23.7281 47.4244 23.7933L52.2888 25.2478L51.8855 26.5067L51.311 26.3356C51.1725 26.303 51.0544 26.2948 50.9566 26.3111C50.867 26.3274 50.7814 26.36 50.6999 26.4089V26.8244C50.6999 26.9874 50.757 27.1259 50.871 27.24C50.9851 27.3541 51.1236 27.4111 51.2866 27.4111H52.9122C53.0262 27.4111 53.0833 27.4681 53.0833 27.5822V28.8289C53.0833 28.943 53.0262 29 52.9122 29H51.5066C51.0177 29 50.6022 28.8615 50.2599 28.5844C49.9259 28.2993 49.6936 27.9367 49.5633 27.4967L49.0744 27.9856C48.724 28.3359 48.3166 28.5926 47.8522 28.7556C47.3877 28.9185 46.911 29 46.4222 29H44.5399ZM54.9847 27.4111C55.1476 27.4111 55.2862 27.3541 55.4002 27.24C55.5143 27.1178 55.5713 26.9752 55.5713 26.8122V24.2822H56.9158V26.8122C56.9158 27.1137 56.8588 27.3989 56.7447 27.6678C56.6306 27.9285 56.4717 28.1607 56.268 28.3644C56.0725 28.56 55.8402 28.7148 55.5713 28.8289C55.3106 28.943 55.0295 29 54.728 29H52.9069C52.858 29 52.8173 28.9837 52.7847 28.9511C52.7521 28.9104 52.7358 28.8696 52.7358 28.8289V27.5944C52.7358 27.5456 52.7521 27.5048 52.7847 27.4722C52.8173 27.4315 52.858 27.4111 52.9069 27.4111H54.9847ZM53.4691 23.17H54.8747V21.7644H53.4691V23.17ZM55.5102 23.17H56.9158V21.7644H55.5102V23.17ZM63.0776 29C62.8902 27.5985 62.6376 26.3967 62.3198 25.3944C62.0102 24.3841 61.7087 23.557 61.4154 22.9133C61.065 22.1474 60.7024 21.5119 60.3276 21.0067L61.5132 20.0289C61.5132 20.0289 61.5661 20.1226 61.672 20.31C61.7861 20.4893 61.9246 20.7296 62.0876 21.0311C62.2587 21.3326 62.438 21.683 62.6254 22.0822C62.8209 22.4733 63.0002 22.8807 63.1632 23.3044C63.3261 23.7281 63.4606 24.1559 63.5665 24.5878C63.6806 25.0115 63.7376 25.4067 63.7376 25.7733C63.7376 25.4963 63.7702 25.203 63.8354 24.8933C63.9006 24.5837 63.982 24.27 64.0798 23.9522C64.1858 23.6263 64.3039 23.3044 64.4343 22.9867C64.5728 22.6689 64.7113 22.3633 64.8498 22.07C65.1758 21.3937 65.5465 20.7133 65.962 20.0289L67.1476 21.0067C66.7076 21.6748 66.3002 22.4244 65.9254 23.2556C65.6076 23.9726 65.298 24.8159 64.9965 25.7856C64.7032 26.7552 64.5035 27.8267 64.3976 29H63.0776ZM69.3618 29.0978L72.2218 20.4567L73.1141 20.7744L70.2541 29.3911L69.3618 29.0978ZM69.4718 24.3433C68.4941 24.3433 68.0052 23.7485 68.0052 22.5589C68.0052 21.3774 68.4941 20.7867 69.4718 20.7867C70.4496 20.7867 70.9385 21.3774 70.9385 22.5589C70.9385 23.7485 70.4496 24.3433 69.4718 24.3433ZM69.4718 23.3656C69.7244 23.3656 69.8507 23.0967 69.8507 22.5589C69.8507 22.0293 69.7244 21.7644 69.4718 21.7644C69.2192 21.7644 69.0929 22.0293 69.0929 22.5589C69.0929 23.0967 69.2192 23.3656 69.4718 23.3656ZM73.0285 29.1467C72.0426 29.1467 71.5496 28.5519 71.5496 27.3622C71.5496 26.1807 72.0426 25.59 73.0285 25.59C74.0144 25.59 74.5074 26.1807 74.5074 27.3622C74.5074 28.5519 74.0144 29.1467 73.0285 29.1467ZM73.0285 28.1689C73.2892 28.1689 73.4196 27.9 73.4196 27.3622C73.4196 26.8326 73.2892 26.5678 73.0285 26.5678C72.7678 26.5678 72.6374 26.8326 72.6374 27.3622C72.6374 27.9 72.7678 28.1689 73.0285 28.1689Z" fill="#29FDB0"/>
</svg>
