<svg width="121" height="35" viewBox="0 0 121 35" fill="none" xmlns="http://www.w3.org/2000/svg">
<path d="M6.09774 12.0756C6.35033 12.0756 6.56626 11.99 6.74552 11.8189C6.92478 11.6478 7.01441 11.4359 7.01441 11.1833V11H4.58218V9.21556H9.47107C9.58515 9.21556 9.64218 9.26852 9.64218 9.37444V10.8167C9.64218 10.8656 9.62589 10.9104 9.59329 10.9511C9.5607 10.9837 9.51996 11 9.47107 11H8.48107C8.50552 11.0244 8.51774 11.0978 8.51774 11.22V11.3422C8.51774 11.7007 8.44848 12.0307 8.30996 12.3322C8.17959 12.6419 7.99626 12.9107 7.75996 13.1389C7.52367 13.367 7.24663 13.5422 6.92885 13.6644C6.61107 13.7948 6.26885 13.86 5.90218 13.86H3.82441C3.43329 13.86 3.06663 13.7867 2.72441 13.64C2.38218 13.4933 2.0807 13.2896 1.81996 13.0289C1.56737 12.7763 1.36366 12.4748 1.20885 12.1244C1.06218 11.7822 0.98885 11.4156 0.98885 11.0244V7.7H2.50441V10.8044C2.50441 10.9756 2.537 11.1385 2.60218 11.2933C2.66737 11.4481 2.757 11.5826 2.87107 11.6967C2.99329 11.8189 3.13181 11.9126 3.28663 11.9778C3.44144 12.043 3.60441 12.0756 3.77552 12.0756H6.09774ZM9.80222 12.4667H11.33V13.9944H9.80222V12.4667ZM11.7456 9.21556C11.8841 9.21556 11.9981 9.17074 12.0878 9.08111C12.1856 8.98333 12.2344 8.86519 12.2344 8.72667V6.08667H13.75V8.71444C13.75 9.03222 13.6889 9.32963 13.5667 9.60667C13.4526 9.8837 13.2896 10.1281 13.0778 10.34C12.8741 10.5437 12.6337 10.7067 12.3567 10.8289C12.0796 10.943 11.7822 11 11.4644 11H9.47222C9.42333 11 9.38259 10.9837 9.35 10.9511C9.3174 10.9104 9.30111 10.8696 9.30111 10.8289V9.41111C9.30111 9.36222 9.3174 9.31741 9.35 9.27667C9.38259 9.23593 9.42333 9.21556 9.47222 9.21556H11.7456ZM19.7951 10.6456C19.7951 10.9796 19.7462 11.2974 19.6485 11.5989C19.5507 11.9085 19.4081 12.1896 19.2207 12.4422C19.0414 12.703 18.8214 12.9311 18.5607 13.1267C18.3081 13.3222 18.0229 13.473 17.7051 13.5789L15.9207 14.19L15.4685 12.76L17.2773 12.1489C17.5625 12.0511 17.7988 11.8922 17.9862 11.6722C18.1736 11.4604 18.2673 11.1996 18.2673 10.89V10.8289C18.1696 10.8859 18.0473 10.9307 17.9007 10.9633C17.754 10.9878 17.6114 11 17.4729 11H16.8007C16.4829 11 16.1896 10.9348 15.9207 10.8044C15.6599 10.6659 15.4359 10.4867 15.2485 10.2667C15.0692 10.0385 14.9388 9.78185 14.8573 9.49667C14.784 9.21148 14.7759 8.91815 14.8329 8.61667L15.0407 7.49222C15.0814 7.25593 15.1629 7.04 15.2851 6.84444C15.4073 6.64889 15.554 6.47778 15.7251 6.33111C15.9044 6.18444 16.104 6.07037 16.324 5.98889C16.544 5.90741 16.7722 5.86667 17.0085 5.86667H17.6929C17.9862 5.86667 18.2592 5.9237 18.5118 6.03778C18.7644 6.1437 18.9844 6.29444 19.1718 6.49C19.3673 6.67741 19.5181 6.90148 19.624 7.16222C19.7381 7.41481 19.7951 7.68778 19.7951 7.98111V10.6456ZM18.2796 9.21556V7.96889C18.2796 7.87111 18.2429 7.78556 18.1696 7.71222C18.1044 7.63889 18.0188 7.59815 17.9129 7.59H16.8618C16.6825 7.59 16.5644 7.69185 16.5073 7.89556L16.3118 8.88556C16.2955 8.96704 16.3159 9.04444 16.3729 9.11778C16.4299 9.18296 16.5033 9.21556 16.5929 9.21556H18.2796ZM20.4048 14.1656L19.9404 12.7356L21.7981 12.1367C22.0833 12.0389 22.3155 11.8678 22.4948 11.6233C22.6741 11.3789 22.7637 11.1019 22.7637 10.7922V6.44111H24.2792V10.6333C24.2792 10.9674 24.2263 11.2852 24.1204 11.5867C24.0226 11.8963 23.88 12.1774 23.6926 12.43C23.5133 12.6907 23.2933 12.9148 23.0326 13.1022C22.78 13.2978 22.4989 13.4485 22.1892 13.5544L20.4048 14.1656ZM29.841 6.42889V8.8C29.841 8.92222 29.8899 9.02407 29.9877 9.10556C30.0855 9.17889 30.1955 9.21556 30.3177 9.21556H31.0999C31.214 9.21556 31.271 9.27259 31.271 9.38667V10.8289C31.271 10.943 31.214 11 31.0999 11H30.5621C30.4399 11 30.3095 10.9756 30.171 10.9267C30.0325 10.8696 29.9184 10.7841 29.8288 10.67V10.8778C29.8288 11.1956 29.7758 11.493 29.6699 11.77C29.564 12.047 29.4173 12.2996 29.2299 12.5278C29.0507 12.7559 28.8347 12.9556 28.5821 13.1267C28.3295 13.3059 28.0525 13.4444 27.751 13.5422L25.9666 14.1411L25.5021 12.7233L27.3599 12.1244C27.6533 12.0348 27.8855 11.8637 28.0566 11.6111C28.2358 11.3585 28.3255 11.0774 28.3255 10.7678V6.42889H29.841ZM31.442 5.45111H32.9698V3.92333H31.442V5.45111ZM33.6054 5.45111H35.1332V3.92333H33.6054V5.45111ZM35.9887 10.8289C35.9887 10.8696 35.9724 10.9104 35.9398 10.9511C35.9072 10.9837 35.8665 11 35.8176 11H34.8276C34.575 11 34.3224 10.9389 34.0698 10.8167C33.8254 10.6944 33.642 10.5274 33.5198 10.3156C33.365 10.5274 33.1532 10.6944 32.8843 10.8167C32.6235 10.9389 32.3628 11 32.102 11H31.0998C31.0591 11 31.0224 10.9837 30.9898 10.9511C30.9491 10.9185 30.9287 10.8778 30.9287 10.8289V9.39889C30.9287 9.35 30.9491 9.30926 30.9898 9.27667C31.0224 9.23593 31.0591 9.21556 31.0998 9.21556H32.2487C32.3872 9.21556 32.5095 9.17481 32.6154 9.09333C32.7213 9.0037 32.7865 8.88963 32.8109 8.75111L33.2876 6.45333L34.7665 6.72222L34.3876 8.65333C34.355 8.80815 34.3835 8.94259 34.4732 9.05667C34.5628 9.16259 34.685 9.21556 34.8398 9.21556H35.8176C35.8665 9.21556 35.9072 9.23593 35.9398 9.27667C35.9724 9.30926 35.9887 9.35 35.9887 9.39889V10.8289ZM36.4622 13.9944H37.9656V12.4667H36.4622V13.9944ZM38.6011 13.9944H40.1289V12.4667H38.6011V13.9944ZM40.8989 10.8289C40.8989 10.8696 40.8826 10.9104 40.85 10.9511C40.8174 10.9837 40.7767 11 40.7278 11H39.64C39.3874 11 39.1348 10.9389 38.8822 10.8167C38.6378 10.6944 38.4544 10.5274 38.3322 10.3156C38.1774 10.5274 37.9656 10.6944 37.6967 10.8167C37.4359 10.9389 37.1752 11 36.9144 11H35.8144C35.7737 11 35.737 10.9837 35.7044 10.9511C35.6637 10.9185 35.6433 10.8778 35.6433 10.8289V9.39889C35.6433 9.35 35.6637 9.30926 35.7044 9.27667C35.737 9.23593 35.7737 9.21556 35.8144 9.21556H37.0611C37.1996 9.21556 37.3219 9.17481 37.4278 9.09333C37.5337 9.0037 37.5989 8.88963 37.6233 8.75111L38.1 6.45333L39.5789 6.72222L39.2 8.65333C39.1674 8.80815 39.1959 8.94259 39.2856 9.05667C39.3752 9.16259 39.4974 9.21556 39.6522 9.21556H40.7278C40.7767 9.21556 40.8174 9.23593 40.85 9.27667C40.8826 9.30926 40.8989 9.35 40.8989 9.39889V10.8289ZM40.5609 9.38667C40.5609 9.27259 40.6179 9.21556 40.732 9.21556H41.5264C41.6649 9.21556 41.779 9.17074 41.8686 9.08111C41.9664 8.98333 42.0153 8.86519 42.0153 8.72667V2.51778H43.5187V8.72667C43.5187 9.0363 43.4575 9.32963 43.3353 9.60667C43.2212 9.8837 43.0583 10.1281 42.8464 10.34C42.6427 10.5437 42.4024 10.7067 42.1253 10.8289C41.8564 10.943 41.5631 11 41.2453 11H40.732C40.6912 11 40.6546 10.9837 40.622 10.9511C40.5812 10.9185 40.5609 10.8778 40.5609 10.8289V9.38667ZM46.5923 11C46.2746 11 45.9812 10.9348 45.7123 10.8044C45.4516 10.6659 45.2275 10.4867 45.0401 10.2667C44.8609 10.0467 44.7305 9.79407 44.649 9.50889C44.5757 9.21556 44.5675 8.91815 44.6246 8.61667L44.8323 7.49222C44.8731 7.25593 44.9546 7.04 45.0768 6.84444C45.199 6.64889 45.3457 6.47778 45.5168 6.33111C45.6961 6.18444 45.8957 6.07037 46.1157 5.98889C46.3357 5.90741 46.5638 5.86667 46.8001 5.86667H47.4846C47.7779 5.86667 48.0509 5.9237 48.3035 6.03778C48.5561 6.1437 48.7761 6.29444 48.9635 6.49C49.159 6.67741 49.3098 6.90148 49.4157 7.16222C49.5298 7.41481 49.5868 7.68778 49.5868 7.98111V9.21556H50.4057C50.5198 9.21556 50.5768 9.27259 50.5768 9.38667V10.8289C50.5768 10.943 50.5198 11 50.4057 11H49.5746C49.5746 11.0326 49.5705 11.0693 49.5623 11.11C49.5379 11.3952 49.4686 11.6641 49.3546 11.9167C49.2486 12.1693 49.102 12.4015 48.9146 12.6133C48.7353 12.8333 48.5235 13.0248 48.279 13.1878C48.0427 13.3507 47.782 13.4811 47.4968 13.5789L45.7123 14.19L45.2601 12.76L47.069 12.1489C47.3542 12.0511 47.5905 11.8963 47.7779 11.6844C47.9653 11.4726 48.059 11.2119 48.059 10.9022V10.8289C47.9531 10.8778 47.8268 10.9185 47.6801 10.9511C47.5416 10.9837 47.4031 11 47.2646 11H46.5923ZM46.3846 9.21556H48.0712V7.96889C48.0712 7.87111 48.0346 7.78556 47.9612 7.71222C47.8961 7.63889 47.8105 7.59815 47.7046 7.59H46.6535C46.4742 7.59 46.3561 7.69185 46.299 7.89556L46.1035 8.88556C46.0872 8.96704 46.1075 9.04444 46.1646 9.11778C46.2216 9.18296 46.2949 9.21556 46.3846 9.21556ZM53.7366 11C53.4433 11 53.1662 10.947 52.9055 10.8411C52.6529 10.727 52.4288 10.5519 52.2333 10.3156C52.0214 10.5519 51.7851 10.727 51.5244 10.8411C51.2718 10.947 50.9988 11 50.7055 11H50.4C50.3511 11 50.3103 10.9837 50.2777 10.9511C50.2451 10.9104 50.2288 10.8696 50.2288 10.8289V9.39889C50.2288 9.35 50.2492 9.30926 50.29 9.27667C50.3225 9.23593 50.3592 9.21556 50.4 9.21556H50.9866C51.1251 9.21556 51.2392 9.16667 51.3288 9.06889C51.4266 8.96296 51.4755 8.84074 51.4755 8.70222V6.42889H52.9788V8.70222C52.9788 8.84074 53.0237 8.96296 53.1133 9.06889C53.2111 9.16667 53.3292 9.21556 53.4677 9.21556H53.8466C53.9851 9.21556 54.1074 9.17481 54.2133 9.09333C54.3192 9.0037 54.3885 8.88963 54.4211 8.75111L54.8855 6.45333L56.4011 6.72222L56.01 8.64111C55.9774 8.77963 56.01 8.91 56.1077 9.03222C56.2055 9.15444 56.3237 9.21556 56.4622 9.21556H57.4155V6.11111H58.9311V9.37444C58.9311 9.59444 58.8862 9.80222 58.7966 9.99778C58.7151 10.1933 58.597 10.3685 58.4422 10.5233C58.2955 10.67 58.1244 10.7881 57.9288 10.8778C57.7333 10.9593 57.5255 11 57.3055 11H56.4622C56.2014 11 55.9611 10.947 55.7411 10.8411C55.5211 10.7352 55.3214 10.5559 55.1422 10.3033C54.9466 10.5641 54.7266 10.7474 54.4822 10.8533C54.2459 10.9511 53.9974 11 53.7366 11ZM68.4898 10.8289C68.4898 10.943 68.4328 11 68.3187 11H67.732C67.4061 11 67.1046 10.9389 66.8276 10.8167C66.5587 10.6944 66.3224 10.5274 66.1187 10.3156C65.9476 10.4622 65.7561 10.5885 65.5442 10.6944C65.3324 10.7922 65.1042 10.8615 64.8598 10.9022L61.3154 11.3911L61.1076 9.76556L62.4398 9.59444L61.8409 3.21444L63.3809 3.03111L63.9309 9.39889L64.762 9.28889C64.9576 9.26444 65.1246 9.17481 65.2631 9.02C65.4098 8.85704 65.4831 8.68185 65.4831 8.49444V2.51778H66.9865V8.72667C66.9865 8.84074 67.0272 8.95074 67.1087 9.05667C67.1983 9.16259 67.3124 9.21556 67.4509 9.21556H68.3187C68.4328 9.21556 68.4898 9.27259 68.4898 9.38667V10.8289ZM76.3211 8.67778C76.3211 8.99556 76.26 9.29704 76.1378 9.58222C76.0155 9.86741 75.8485 10.1159 75.6366 10.3278C75.4329 10.5315 75.1885 10.6944 74.9033 10.8167C74.6181 10.9389 74.3166 11 73.9989 11H68.3155C68.2015 11 68.1444 10.943 68.1444 10.8289V9.38667C68.1444 9.34593 68.1607 9.30926 68.1933 9.27667C68.2259 9.23593 68.2666 9.21556 68.3155 9.21556H69.1222L70.3811 7.85889V2.51778H71.8844V5.69556C71.8844 5.78519 71.8722 5.87481 71.8478 5.96444C71.8315 6.05407 71.8152 6.13556 71.7989 6.20889C71.7663 6.29037 71.7337 6.37185 71.7011 6.45333C71.7174 6.46148 71.7378 6.45333 71.7622 6.42889C72.2674 6.06222 72.8337 5.87889 73.4611 5.87889H74.2189C74.5122 5.87889 74.7852 5.93593 75.0378 6.05C75.2985 6.15593 75.5226 6.30259 75.71 6.49C75.8974 6.67741 76.0441 6.90148 76.15 7.16222C76.2641 7.41481 76.3211 7.68778 76.3211 7.98111V8.67778ZM74.28 9.21556C74.4266 9.21556 74.5489 9.16667 74.6466 9.06889C74.7526 8.96296 74.8055 8.84074 74.8055 8.70222V8.10333C74.8055 7.96481 74.7566 7.84667 74.6589 7.74889C74.5611 7.65111 74.4429 7.60222 74.3044 7.60222H73.2044C72.8133 7.60222 72.4833 7.74481 72.2144 8.03L71.1389 9.21556H74.28ZM84.8046 9.21556H85.1713C85.2121 9.21556 85.2487 9.23593 85.2813 9.27667C85.3221 9.30926 85.3424 9.35 85.3424 9.39889V10.8289C85.3424 10.8696 85.3261 10.9104 85.2935 10.9511C85.2609 10.9837 85.2202 11 85.1713 11H84.9269C84.6009 11 84.3117 10.9389 84.0591 10.8167C83.8065 10.6944 83.5987 10.56 83.4358 10.4133C83.2239 10.5926 82.9835 10.7352 82.7146 10.8411C82.4539 10.947 82.1687 11 81.8591 11H80.2824C80.0461 11 79.8221 10.9552 79.6102 10.8656C79.4065 10.7759 79.2272 10.6537 79.0724 10.4989C78.9176 10.3359 78.7954 10.1526 78.7058 9.94889C78.6161 9.73704 78.5713 9.51296 78.5713 9.27667V7.59H79.8424V8.95889C79.8424 9.03222 79.8669 9.09333 79.9158 9.14222C79.9646 9.19111 80.0258 9.21556 80.0991 9.21556H81.8835C82.1035 9.21556 82.2828 9.13815 82.4213 8.98333C82.5598 8.82037 82.6087 8.63296 82.568 8.42111L81.5658 4.80333L83.008 4.27778L84.2791 8.81222C84.3117 8.9263 84.3769 9.02407 84.4746 9.10556C84.5724 9.17889 84.6824 9.21556 84.8046 9.21556ZM87.0511 5.45111H88.5788V3.92333H87.0511V5.45111ZM90.0577 10.8289C90.0577 10.8696 90.0414 10.9104 90.0088 10.9511C89.9762 10.9837 89.9355 11 89.8866 11H88.8966C88.644 11 88.3914 10.9389 88.1388 10.8167C87.8944 10.6944 87.7111 10.5274 87.5888 10.3156C87.434 10.5274 87.2222 10.6944 86.9533 10.8167C86.6925 10.9389 86.4318 11 86.1711 11H85.1688C85.1281 11 85.0914 10.9837 85.0588 10.9511C85.0181 10.9185 84.9977 10.8778 84.9977 10.8289V9.39889C84.9977 9.35 85.0181 9.30926 85.0588 9.27667C85.0914 9.23593 85.1281 9.21556 85.1688 9.21556H86.3177C86.4562 9.21556 86.5785 9.17481 86.6844 9.09333C86.7903 9.0037 86.8555 8.88963 86.8799 8.75111L87.3566 6.45333L88.8355 6.72222L88.4566 8.65333C88.424 8.80815 88.4525 8.94259 88.5422 9.05667C88.6318 9.16259 88.754 9.21556 88.9088 9.21556H89.8866C89.9355 9.21556 89.9762 9.23593 90.0088 9.27667C90.0414 9.30926 90.0577 9.35 90.0577 9.39889V10.8289ZM91.5335 14.0067H93.0612V12.4789H91.5335V14.0067ZM94.7724 10.8289C94.7724 10.8696 94.7561 10.9104 94.7235 10.9511C94.6909 10.9837 94.6501 11 94.6012 11H93.6112C93.3586 11 93.1061 10.9389 92.8535 10.8167C92.609 10.6944 92.4257 10.5274 92.3035 10.3156C92.1486 10.5274 91.9368 10.6944 91.6679 10.8167C91.4072 10.9389 91.1464 11 90.8857 11H89.8835C89.8427 11 89.8061 10.9837 89.7735 10.9511C89.7327 10.9185 89.7123 10.8778 89.7123 10.8289V9.39889C89.7123 9.35 89.7327 9.30926 89.7735 9.27667C89.8061 9.23593 89.8427 9.21556 89.8835 9.21556H91.0323C91.1709 9.21556 91.2931 9.17481 91.399 9.09333C91.5049 9.0037 91.5701 8.88963 91.5946 8.75111L92.0712 6.45333L93.5501 6.72222L93.1712 8.65333C93.1386 8.80815 93.1672 8.94259 93.2568 9.05667C93.3464 9.16259 93.4686 9.21556 93.6235 9.21556H94.6012C94.6501 9.21556 94.6909 9.23593 94.7235 9.27667C94.7561 9.30926 94.7724 9.35 94.7724 9.39889V10.8289ZM96.3825 9.21556C96.521 9.21556 96.6351 9.17074 96.7248 9.08111C96.8225 8.98333 96.8714 8.86519 96.8714 8.72667V6.08667H98.387V8.71444C98.387 9.03222 98.3259 9.32963 98.2036 9.60667C98.0896 9.8837 97.9266 10.1281 97.7148 10.34C97.511 10.5437 97.2707 10.7067 96.9936 10.8289C96.7166 10.943 96.4192 11 96.1014 11H94.5981C94.5492 11 94.5085 10.9837 94.4759 10.9511C94.4433 10.9104 94.427 10.8696 94.427 10.8289V9.39889C94.427 9.35 94.4433 9.30926 94.4759 9.27667C94.5085 9.23593 94.5492 9.21556 94.5981 9.21556H96.3825ZM96.847 5.08444H98.3748V3.55667H96.847V5.08444ZM101.254 11C101.018 11 100.793 10.9552 100.582 10.8656C100.37 10.7759 100.186 10.6537 100.032 10.4989C99.8768 10.3359 99.7546 10.1526 99.665 9.94889C99.5753 9.73704 99.5305 9.51296 99.5305 9.27667V7.59H100.814V8.97111C100.814 9.04444 100.838 9.10556 100.887 9.15444C100.936 9.19519 100.993 9.21556 101.058 9.21556H103.087C103.226 9.21556 103.348 9.18704 103.454 9.13C103.568 9.06481 103.653 8.98333 103.711 8.88556C103.768 8.77963 103.796 8.66556 103.796 8.54333C103.804 8.41296 103.772 8.28667 103.698 8.16444L102.146 5.40222L103.429 4.57111L105.079 7.49222C105.291 7.86704 105.385 8.26222 105.361 8.67778C105.344 9.08519 105.242 9.46407 105.055 9.81444C104.868 10.1567 104.603 10.4419 104.261 10.67C103.918 10.89 103.527 11 103.087 11H101.254ZM108.366 6.42889V8.8C108.366 8.92222 108.415 9.02407 108.513 9.10556C108.611 9.17889 108.721 9.21556 108.843 9.21556H109.625C109.739 9.21556 109.796 9.27259 109.796 9.38667V10.8289C109.796 10.943 109.739 11 109.625 11H109.088C108.965 11 108.835 10.9756 108.696 10.9267C108.558 10.8696 108.444 10.7841 108.354 10.67V10.8778C108.354 11.1956 108.301 11.493 108.195 11.77C108.089 12.047 107.943 12.2996 107.755 12.5278C107.576 12.7559 107.36 12.9556 107.108 13.1267C106.855 13.3059 106.578 13.4444 106.276 13.5422L104.492 14.1411L104.028 12.7233L105.885 12.1244C106.179 12.0348 106.411 11.8637 106.582 11.6111C106.761 11.3585 106.851 11.0774 106.851 10.7678V6.42889H108.366ZM112.375 7.51667L111.287 6.47778L115.003 2.12667L116.091 3.12889L113.781 5.86667H118.376C118.662 5.86667 118.93 5.9237 119.183 6.03778C119.444 6.1437 119.668 6.29444 119.855 6.49C120.051 6.67741 120.202 6.90148 120.307 7.16222C120.422 7.41481 120.479 7.68778 120.479 7.98111V8.88556C120.479 9.18704 120.417 9.46815 120.295 9.72889C120.181 9.98963 120.022 10.2137 119.819 10.4011C119.623 10.5885 119.395 10.7352 119.134 10.8411C118.873 10.947 118.6 11 118.315 11H109.625C109.511 11 109.454 10.943 109.454 10.8289V9.38667C109.454 9.34593 109.47 9.30926 109.503 9.27667C109.536 9.23593 109.576 9.21556 109.625 9.21556H118.633C118.706 9.21556 118.78 9.17889 118.853 9.10556C118.926 9.03222 118.963 8.93852 118.963 8.82444V7.95667C118.963 7.83444 118.918 7.73259 118.829 7.65111C118.747 7.56148 118.649 7.51667 118.535 7.51667H112.375ZM110.2 5.03556L113.182 1.52778L113.891 2.23667L110.982 5.64667L110.2 5.03556Z" fill="white"/>
<path d="M43.0766 27.1789C43.3781 27.073 43.6225 26.9426 43.8099 26.7878C44.0055 26.6248 44.1032 26.4578 44.1032 26.2867V25.9933C44.1032 25.7326 44.0136 25.5167 43.8344 25.3456C43.6632 25.1663 43.4473 25.0767 43.1866 25.0767H42.9544C42.7018 25.0767 42.4858 25.1663 42.3066 25.3456C42.1273 25.5167 42.0377 25.7285 42.0377 25.9811V26.2867C42.0377 26.4578 42.1355 26.6248 42.331 26.7878C42.5266 26.9426 42.7751 27.073 43.0766 27.1789ZM45.4477 26.2256C45.4477 26.633 45.3132 27.0281 45.0444 27.4111H45.5088H45.961C46.0099 27.4111 46.0507 27.4315 46.0832 27.4722C46.1158 27.5048 46.1321 27.5456 46.1321 27.5944V28.8289C46.1321 28.8778 46.1118 28.9185 46.071 28.9511C46.0384 28.9837 46.0018 29 45.961 29H44.7388C44.5921 29 44.4577 28.9959 44.3355 28.9878C44.2132 28.9715 44.091 28.947 43.9688 28.9144C43.8466 28.8737 43.7121 28.8207 43.5655 28.7556C43.4269 28.6904 43.264 28.6048 43.0766 28.4989C42.8892 28.6048 42.7221 28.6904 42.5755 28.7556C42.4369 28.8207 42.3066 28.8737 42.1844 28.9144C42.0621 28.947 41.9399 28.9715 41.8177 28.9878C41.6955 28.9959 41.5569 29 41.4021 29H37.6499C37.3077 29 36.9818 28.9348 36.6721 28.8044C36.3707 28.6741 36.1058 28.4989 35.8777 28.2789C35.6495 28.0507 35.4703 27.7859 35.3399 27.4844C35.2095 27.183 35.1444 26.8611 35.1444 26.5189V24.2822H36.4888V26.3967C36.4888 26.6819 36.5866 26.9222 36.7821 27.1178C36.9777 27.3133 37.2181 27.4111 37.5032 27.4111H40.6444H41.0966C40.8277 27.0281 40.6932 26.633 40.6932 26.2256V25.8711C40.6932 25.5615 40.7584 25.2681 40.8888 24.9911C41.0192 24.7059 41.1903 24.4574 41.4021 24.2456C41.614 24.0337 41.8584 23.8667 42.1355 23.7444C42.4207 23.6141 42.7099 23.5489 43.0032 23.5489H43.1988C43.5084 23.5489 43.7977 23.61 44.0666 23.7322C44.3436 23.8463 44.584 24.0052 44.7877 24.2089C44.9914 24.4126 45.1503 24.653 45.2644 24.93C45.3866 25.1989 45.4477 25.4881 45.4477 25.7978V26.2256ZM42.3432 21.0311H43.7488V22.4367H42.3432V21.0311ZM46.5393 31.8722H47.9326V30.4667H46.5393V31.8722ZM48.5682 31.8722H49.9737V30.4667H48.5682V31.8722ZM50.7193 28.8289C50.7193 28.8696 50.703 28.9104 50.6704 28.9511C50.6378 28.9837 50.5971 29 50.5482 29H49.6193C49.3585 29 49.0978 28.9307 48.8371 28.7922C48.5763 28.6456 48.4011 28.4744 48.3115 28.2789C48.2545 28.3767 48.173 28.4704 48.0671 28.56C47.9611 28.6415 47.843 28.7189 47.7126 28.7922C47.5904 28.8574 47.456 28.9104 47.3093 28.9511C47.1708 28.9837 47.0322 29 46.8937 29H45.9648C45.8508 29 45.7937 28.943 45.7937 28.8289V27.5944C45.7937 27.5456 45.81 27.5048 45.8426 27.4722C45.8752 27.4315 45.916 27.4111 45.9648 27.4111H47.016C47.1789 27.4111 47.3215 27.3622 47.4437 27.2644C47.566 27.1667 47.6434 27.0363 47.676 26.8733L48.1282 24.6733L49.4482 24.9056L49.0815 26.7511C49.0408 26.9222 49.0774 27.077 49.1915 27.2156C49.3056 27.3459 49.4522 27.4111 49.6315 27.4111H50.5482C50.5971 27.4111 50.6378 27.4315 50.6704 27.4722C50.703 27.5048 50.7193 27.5456 50.7193 27.5944V28.8289ZM52.4915 26.2867C52.4915 26.4578 52.5852 26.6207 52.7726 26.7756C52.9682 26.9304 53.2208 27.0648 53.5304 27.1789C53.8319 27.0648 54.0763 26.9304 54.2637 26.7756C54.4593 26.6207 54.5571 26.4578 54.5571 26.2867V25.9811C54.5571 25.7285 54.4674 25.5167 54.2882 25.3456C54.1089 25.1663 53.893 25.0767 53.6404 25.0767H53.4082C53.1556 25.0767 52.9397 25.1663 52.7604 25.3456C52.5811 25.5167 52.4915 25.7285 52.4915 25.9811V26.2867ZM51.196 25.8589C51.196 25.533 51.2571 25.2315 51.3793 24.9544C51.5097 24.6693 51.6767 24.4248 51.8804 24.2211C52.0922 24.0093 52.3326 23.8463 52.6015 23.7322C52.8785 23.61 53.1637 23.5489 53.4571 23.5489H53.6526C53.9623 23.5489 54.2515 23.61 54.5204 23.7322C54.7974 23.8463 55.0378 24.0052 55.2415 24.2089C55.4452 24.4126 55.6041 24.653 55.7182 24.93C55.8404 25.1989 55.9015 25.4881 55.9015 25.7978V26.2256C55.9015 26.633 55.7671 27.0281 55.4982 27.4111H55.8893H56.5371C56.5941 27.4111 56.6348 27.4315 56.6593 27.4722C56.6919 27.5048 56.7082 27.5456 56.7082 27.5944V28.8289C56.7082 28.8696 56.6919 28.9104 56.6593 28.9511C56.6267 28.9837 56.586 29 56.5371 29H55.1926C55.046 29 54.9115 28.9959 54.7893 28.9878C54.6671 28.9715 54.5408 28.947 54.4104 28.9144C54.2882 28.8737 54.1578 28.8207 54.0193 28.7556C53.8808 28.6904 53.7178 28.6048 53.5304 28.4989C53.343 28.6048 53.18 28.6904 53.0415 28.7556C52.903 28.8207 52.7726 28.8737 52.6504 28.9144C52.5282 28.947 52.406 28.9715 52.2837 28.9878C52.1615 28.9959 52.0271 29 51.8804 29H50.5482C50.4341 29 50.3771 28.943 50.3771 28.8289V27.5944C50.3771 27.5456 50.3934 27.5048 50.426 27.4722C50.4504 27.4315 50.4911 27.4111 50.5482 27.4111H51.2204H51.5871C51.3263 27.0363 51.196 26.6411 51.196 26.2256V25.8589ZM52.8337 22.4367H54.2393V21.0311H52.8337V22.4367ZM58.3977 21.2022H59.8033V22.6078H58.3977V21.2022ZM56.5399 29C56.4259 29 56.3688 28.943 56.3688 28.8289V27.5944C56.3688 27.5537 56.3892 27.513 56.4299 27.4722C56.4625 27.4315 56.4992 27.4111 56.5399 27.4111H58.7277C59.0699 27.4111 59.4081 27.3581 59.7422 27.2522C60.0762 27.1381 60.3614 26.9548 60.5977 26.7022L61.3066 25.9444C61.3473 25.9037 61.384 25.867 61.4166 25.8344C61.4492 25.8019 61.4696 25.7856 61.4777 25.7856L58.911 25.0156C58.8296 24.9911 58.7562 24.9993 58.691 25.04C58.634 25.0726 58.5892 25.1256 58.5566 25.1989L58.0922 26.4211L56.9188 26.1033L57.2366 24.9789C57.3099 24.7263 57.424 24.5104 57.5788 24.3311C57.7336 24.1519 57.9129 24.0133 58.1166 23.9156C58.3203 23.8096 58.5362 23.7485 58.7644 23.7322C58.9925 23.7078 59.2125 23.7281 59.4244 23.7933L64.2888 25.2478L63.8855 26.5067L63.311 26.3356C63.1725 26.303 63.0544 26.2948 62.9566 26.3111C62.867 26.3274 62.7814 26.36 62.6999 26.4089V26.8244C62.6999 26.9874 62.757 27.1259 62.871 27.24C62.9851 27.3541 63.1236 27.4111 63.2866 27.4111H64.9122C65.0262 27.4111 65.0833 27.4681 65.0833 27.5822V28.8289C65.0833 28.943 65.0262 29 64.9122 29H63.5066C63.0177 29 62.6022 28.8615 62.2599 28.5844C61.9259 28.2993 61.6936 27.9367 61.5633 27.4967L61.0744 27.9856C60.724 28.3359 60.3166 28.5926 59.8522 28.7556C59.3877 28.9185 58.911 29 58.4222 29H56.5399ZM66.9847 27.4111C67.1476 27.4111 67.2862 27.3541 67.4002 27.24C67.5143 27.1178 67.5713 26.9752 67.5713 26.8122V24.2822H68.9158V26.8122C68.9158 27.1137 68.8588 27.3989 68.7447 27.6678C68.6306 27.9285 68.4717 28.1607 68.268 28.3644C68.0725 28.56 67.8402 28.7148 67.5713 28.8289C67.3106 28.943 67.0295 29 66.728 29H64.9069C64.858 29 64.8173 28.9837 64.7847 28.9511C64.7521 28.9104 64.7358 28.8696 64.7358 28.8289V27.5944C64.7358 27.5456 64.7521 27.5048 64.7847 27.4722C64.8173 27.4315 64.858 27.4111 64.9069 27.4111H66.9847ZM65.4691 23.17H66.8747V21.7644H65.4691V23.17ZM67.5102 23.17H68.9158V21.7644H67.5102V23.17ZM76.3976 20.0411C76.5035 21.2063 76.7032 22.2778 76.9965 23.2556C77.298 24.2252 77.6076 25.0685 77.9254 25.7856C78.3002 26.6167 78.7076 27.3663 79.1476 28.0344L77.962 29.0122C77.5465 28.3278 77.1758 27.6433 76.8498 26.9589C76.7113 26.6656 76.5728 26.36 76.4343 26.0422C76.3039 25.7244 76.1858 25.4067 76.0798 25.0889C75.982 24.7711 75.9006 24.4574 75.8354 24.1478C75.7702 23.8381 75.7376 23.5448 75.7376 23.2678C75.7376 23.6344 75.6806 24.0337 75.5665 24.4656C75.4606 24.8893 75.3261 25.313 75.1632 25.7367C75.0002 26.1604 74.8209 26.5719 74.6254 26.9711C74.438 27.3622 74.2587 27.7085 74.0876 28.01C73.9246 28.3115 73.7861 28.5559 73.672 28.7433C73.5661 28.9226 73.5132 29.0122 73.5132 29.0122L72.3276 28.0344C72.7024 27.5293 73.065 26.8937 73.4154 26.1278C73.7087 25.4759 74.0102 24.6489 74.3198 23.6467C74.6376 22.6363 74.8902 21.4344 75.0776 20.0411H76.3976ZM81.3618 29.0978L84.2218 20.4567L85.1141 20.7744L82.2541 29.3911L81.3618 29.0978ZM81.4718 24.3433C80.4941 24.3433 80.0052 23.7485 80.0052 22.5589C80.0052 21.3774 80.4941 20.7867 81.4718 20.7867C82.4496 20.7867 82.9385 21.3774 82.9385 22.5589C82.9385 23.7485 82.4496 24.3433 81.4718 24.3433ZM81.4718 23.3656C81.7244 23.3656 81.8507 23.0967 81.8507 22.5589C81.8507 22.0293 81.7244 21.7644 81.4718 21.7644C81.2192 21.7644 81.0929 22.0293 81.0929 22.5589C81.0929 23.0967 81.2192 23.3656 81.4718 23.3656ZM85.0285 29.1467C84.0426 29.1467 83.5496 28.5519 83.5496 27.3622C83.5496 26.1807 84.0426 25.59 85.0285 25.59C86.0144 25.59 86.5074 26.1807 86.5074 27.3622C86.5074 28.5519 86.0144 29.1467 85.0285 29.1467ZM85.0285 28.1689C85.2892 28.1689 85.4196 27.9 85.4196 27.3622C85.4196 26.8326 85.2892 26.5678 85.0285 26.5678C84.7678 26.5678 84.6374 26.8326 84.6374 27.3622C84.6374 27.9 84.7678 28.1689 85.0285 28.1689Z" fill="#29FDB0"/>
</svg>
