<svg width="85" height="20" viewBox="0 0 85 20" fill="none" xmlns="http://www.w3.org/2000/svg">
<rect width="84.1645" height="19.7805" rx="9.89023" fill="#EC1944"/>
<path d="M12.1924 6.50684V11.3289H13.07C13.2272 11.3289 13.3531 11.288 13.4474 11.2062C13.5481 11.1182 13.5984 10.9986 13.5984 10.8477V6.50684H14.8063V10.9043C14.8063 11.4264 14.6522 11.8385 14.3439 12.1405C14.0356 12.4361 13.6141 12.584 13.0794 12.584H10.9845V6.50684H12.1924ZM18.1906 11.3289C18.2221 11.3289 18.2441 11.3698 18.2567 11.4516C18.2755 11.5334 18.285 11.7095 18.285 11.98C18.285 12.2317 18.2755 12.3953 18.2567 12.4707C18.2441 12.5462 18.2221 12.584 18.1906 12.584H17.8509C17.3225 12.584 16.9198 12.433 16.643 12.131C16.3725 11.8228 16.2373 11.3855 16.2373 10.8193V6.50684H17.4451V10.7344C17.4451 10.9357 17.4829 11.0867 17.5584 11.1874C17.6402 11.2817 17.766 11.3289 17.9358 11.3289H18.1906ZM20.6932 11.3289C20.8882 11.3289 21.0361 11.2975 21.1367 11.2346C21.2437 11.1716 21.2972 11.0836 21.2972 10.9703C21.2972 10.8634 21.272 10.769 21.2217 10.6872C21.1776 10.6055 21.1021 10.5111 20.9952 10.4041L18.9475 8.40359V7.42219L22.5239 6.04445L22.8636 7.21458L20.429 8.12993L21.9011 9.59259C22.1213 9.81907 22.2817 10.0518 22.3824 10.2909C22.4893 10.5237 22.5428 10.7753 22.5428 11.0458C22.5428 11.5051 22.3824 11.8762 22.0615 12.1593C21.747 12.4424 21.3035 12.584 20.731 12.584H18.1925C18.1296 12.584 18.0982 12.3827 18.0982 11.98C18.0982 11.546 18.1296 11.3289 18.1925 11.3289H20.6932ZM30.6099 11.3289C30.6728 11.3289 30.7042 11.546 30.7042 11.98C30.7042 12.3827 30.6728 12.584 30.6099 12.584H29.7795C29.8235 12.6343 29.8455 12.7318 29.8455 12.8765C29.8455 13.2603 29.7354 13.6 29.5152 13.8957C29.295 14.1913 28.9899 14.421 28.5999 14.5845C28.2098 14.7544 27.76 14.8393 27.2505 14.8393H26.5427C25.7249 14.8393 25.0926 14.6034 24.646 14.1316C24.2056 13.666 23.9854 13.0118 23.9854 12.1688V10.2815H25.1838V12.1405C25.1838 12.6186 25.2939 12.9772 25.5141 13.2162C25.7343 13.4616 26.0772 13.5843 26.5427 13.5843H27.2693C28.1878 13.5843 28.6471 13.3483 28.6471 12.8765C28.6471 12.7444 28.6125 12.65 28.5433 12.5934C28.4741 12.5431 28.3608 12.5179 28.2035 12.5179H26.5521L26.6654 11.3289H30.6099ZM33.7292 8.49795C34.1192 8.49795 34.4369 8.56401 34.6823 8.69612C34.9276 8.82823 35.1321 9.05157 35.2956 9.36612C35.4592 9.67438 35.607 10.1179 35.7392 10.6967L35.1447 11.0741C35.2013 11.1559 35.2925 11.2188 35.4183 11.2629C35.5441 11.3069 35.692 11.3289 35.8618 11.3289H36.428C36.4909 11.3289 36.5224 11.546 36.5224 11.98C36.5224 12.238 36.513 12.4047 36.4941 12.4802C36.4752 12.5494 36.4532 12.584 36.428 12.584H35.7958C35.4435 12.584 35.1478 12.5148 34.9087 12.3764C34.676 12.238 34.4652 12.0021 34.2765 11.6686L33.9179 11.8951C33.4901 12.1593 33.0812 12.3418 32.6911 12.4424C32.3011 12.5368 31.8198 12.584 31.2474 12.584H30.6057C30.5428 12.584 30.5113 12.3827 30.5113 11.98C30.5113 11.546 30.5428 11.3289 30.6057 11.3289H31.304C31.7821 11.3289 32.1753 11.2975 32.4835 11.2346C32.7981 11.1716 33.1221 11.0458 33.4555 10.8571L34.3331 10.357C34.2702 10.1179 34.1758 9.95748 34.05 9.87569C33.9305 9.78762 33.748 9.74358 33.5027 9.74358H31.3417L31.4833 8.49795H33.7292ZM32.1344 14.6412V13.5654H33.4178V14.6412H32.1344ZM39.0815 10.9043C39.0815 11.4264 38.9242 11.8385 38.6096 12.1405C38.3014 12.4361 37.883 12.584 37.3546 12.584H36.4298C36.3669 12.584 36.3354 12.3827 36.3354 11.98C36.3354 11.546 36.3669 11.3289 36.4298 11.3289H37.3546C37.5119 11.3289 37.6377 11.288 37.732 11.2062C37.8327 11.1182 37.883 10.9986 37.883 10.8477V9.33781H39.0815V10.9043ZM38.5153 13.5654V14.6412H35.8542V13.5654H38.5153ZM43.9003 9.6209C44.1331 9.89142 44.2966 10.1368 44.391 10.357C44.4854 10.5771 44.5326 10.8099 44.5326 11.0553C44.5326 11.5019 44.3721 11.87 44.0513 12.1593C43.7367 12.4424 43.2964 12.584 42.7302 12.584H40.1729L40.0785 11.3289H42.6736C42.8686 11.3289 43.0196 11.2975 43.1265 11.2346C43.2335 11.1716 43.2869 11.0836 43.2869 10.9703C43.2869 10.8885 43.2649 10.8099 43.2209 10.7344C43.1768 10.6526 43.0951 10.5425 42.9755 10.4041L41.3524 8.49795L42.2206 7.63923L43.9003 9.6209ZM50.0987 12.2348C50.0987 12.7507 49.9949 13.2037 49.7873 13.5937C49.5797 13.99 49.2809 14.2951 48.8908 14.509C48.5071 14.7292 48.0604 14.8393 47.5509 14.8393H47.2489L47.1451 13.5843H47.532C47.9661 13.5843 48.3026 13.4647 48.5417 13.2257C48.7807 12.9929 48.9003 12.6626 48.9003 12.2348V9.33781H50.0987V12.2348ZM48.8154 8.35641V7.28064H50.0987V8.35641H48.8154ZM51.4493 6.50684H52.6571V12.584H51.4493V6.50684ZM58.0358 11.3289C58.193 11.3289 58.3189 11.2975 58.4132 11.2346C58.5076 11.1716 58.5548 11.0836 58.5548 10.9703C58.5548 10.8885 58.5139 10.7376 58.4321 10.5174C58.3566 10.2909 58.171 9.78447 57.8753 8.99809L57.5734 8.18655L58.6869 7.6581L59.7815 10.7155C59.857 10.9357 59.9419 11.093 60.0363 11.1874C60.137 11.2817 60.2691 11.3289 60.4326 11.3289H60.678C60.7409 11.3289 60.7724 11.546 60.7724 11.98C60.7724 12.238 60.7629 12.4047 60.744 12.4802C60.7252 12.5494 60.7032 12.584 60.678 12.584H60.376C60.0992 12.584 59.8664 12.5462 59.6777 12.4707C59.489 12.389 59.3349 12.26 59.2153 12.0838C59.0958 12.26 58.9417 12.389 58.7529 12.4707C58.5705 12.5462 58.344 12.584 58.0735 12.584H55.922L55.8276 11.3289H58.0358ZM62.978 11.3289C63.129 11.3289 63.2517 11.288 63.346 11.2062C63.4467 11.1182 63.497 10.9986 63.497 10.8477V9.33781H64.6955V10.9043C64.6955 11.4264 64.5382 11.8385 64.2236 12.1405C63.9154 12.4361 63.497 12.584 62.9686 12.584H60.6755C60.6126 12.584 60.5811 12.3827 60.5811 11.98C60.5811 11.546 60.6126 11.3289 60.6755 11.3289H62.978ZM63.431 13.5654V14.6412H60.7698V13.5654H63.431ZM65.0228 13.5843C65.4569 13.5843 65.7934 13.4647 66.0325 13.2257C66.2716 12.9929 66.3911 12.6626 66.3911 12.2348V9.33781H67.5895V10.7627C67.5895 10.9578 67.6367 11.1024 67.7311 11.1968C67.8317 11.2849 67.989 11.3289 68.2029 11.3289H68.3728C68.4357 11.3289 68.4671 11.546 68.4671 11.98C68.4671 12.3827 68.4357 12.584 68.3728 12.584H68.2218C68.0897 12.584 67.967 12.5683 67.8538 12.5368C67.7405 12.4991 67.6524 12.4487 67.5895 12.3858C67.5707 12.8576 67.4543 13.2791 67.2404 13.6503C67.0328 14.0215 66.7402 14.3109 66.3628 14.5185C65.9853 14.7324 65.5449 14.8393 65.0417 14.8393H64.7397L64.6359 13.5843H65.0228ZM69.0686 11.3289C69.5468 11.3289 69.9399 11.2975 70.2482 11.2346C70.5628 11.1716 70.8868 11.0458 71.2202 10.8571L72.0978 10.357C72.0349 10.1179 71.9405 9.95748 71.8147 9.87569C71.6951 9.78762 71.5127 9.74358 71.2674 9.74358H69.1064L69.2479 8.49795H71.4938C71.8902 8.49795 72.211 8.56716 72.4564 8.70556C72.7017 8.83767 72.9062 9.06729 73.0697 9.39443C73.2396 9.71527 73.3906 10.1682 73.5227 10.7533L71.6826 11.8951C71.2548 12.1593 70.8459 12.3418 70.4558 12.4424C70.0658 12.5368 69.5845 12.584 69.012 12.584H68.3703C68.3074 12.584 68.276 12.3827 68.276 11.98C68.276 11.546 68.3074 11.3289 68.3703 11.3289H69.0686ZM70.2199 7.54486V6.46909H71.5033V7.54486H70.2199Z" fill="white"/>
</svg>
