<svg width="104" height="18" viewBox="0 0 104 18" fill="none" xmlns="http://www.w3.org/2000/svg">
<rect width="103.334" height="17.772" rx="8.88599" fill="black"/>
<path d="M10.6064 11.5661C10.9844 11.5661 11.2724 11.4701 11.4704 11.2781C11.6744 11.0921 11.7764 10.8191 11.7764 10.4591V7.64212H13.1084V9.01012C13.1084 9.16012 13.1444 9.27112 13.2164 9.34312C13.2884 9.40912 13.4024 9.44212 13.5584 9.44212H13.7834C13.8434 9.44212 13.8734 9.67612 13.8734 10.1441C13.8734 10.6001 13.8434 10.8281 13.7834 10.8281H13.6304C13.3964 10.8281 13.2194 10.7771 13.0994 10.6751C13.0694 11.1131 12.9524 11.5031 12.7484 11.8451C12.5504 12.1931 12.2714 12.4631 11.9114 12.6551C11.5574 12.8531 11.1404 12.9521 10.6604 12.9521H10.3184L10.2104 11.5661H10.6064ZM16.5889 6.85012C16.9309 6.85012 17.2129 6.91012 17.4349 7.03012C17.6629 7.15012 17.8609 7.36012 18.0289 7.66012C18.1969 7.95412 18.3469 8.37112 18.4789 8.91112L17.9299 9.27112C17.9659 9.32512 18.0469 9.36712 18.1729 9.39712C18.2989 9.42712 18.4249 9.44212 18.5509 9.44212H19.0909C19.1509 9.44212 19.1809 9.67612 19.1809 10.1441C19.1809 10.4381 19.1719 10.6271 19.1539 10.7111C19.1359 10.7891 19.1149 10.8281 19.0909 10.8281H18.4429C18.1069 10.8281 17.8279 10.7651 17.6059 10.6391C17.3839 10.5131 17.1829 10.3001 17.0029 10.0001L16.6699 10.2071C16.2919 10.4411 15.9229 10.6031 15.5629 10.6931C15.2029 10.7831 14.7559 10.8281 14.2219 10.8281H13.6009C13.5409 10.8281 13.5109 10.6001 13.5109 10.1441C13.5109 9.67612 13.5409 9.44212 13.6009 9.44212H14.2849C14.7289 9.44212 15.1009 9.41212 15.4009 9.35212C15.7069 9.29212 16.0249 9.17812 16.3549 9.01012L16.9309 8.67712C16.8829 8.49712 16.8109 8.37412 16.7149 8.30812C16.6249 8.24212 16.4869 8.20912 16.3009 8.20912H14.2489L14.3839 6.85012H16.5889ZM15.2569 6.03112V4.91512H16.6429V6.03112H15.2569ZM21.47 9.14512C21.47 9.66712 21.314 10.0781 21.002 10.3781C20.696 10.6781 20.282 10.8281 19.76 10.8281H18.914C18.854 10.8281 18.824 10.6001 18.824 10.1441C18.824 9.67612 18.854 9.44212 18.914 9.44212H19.76C19.88 9.44212 19.976 9.40912 20.048 9.34312C20.126 9.27712 20.165 9.19012 20.165 9.08212V7.64212H21.47V9.14512ZM18.941 12.7631V11.6471H20.327V12.7631H18.941ZM27.6172 9.44212C27.5392 9.34612 27.4792 9.22312 27.4372 9.07312C27.3952 8.91712 27.3742 8.76112 27.3742 8.60512C27.3742 8.26912 27.4552 7.96012 27.6172 7.67812C27.7792 7.39612 28.0012 7.17412 28.2832 7.01212C28.5652 6.85012 28.8772 6.76912 29.2192 6.76912C29.5792 6.76912 29.8972 6.84712 30.1732 7.00312C30.4552 7.15312 30.6712 7.36312 30.8212 7.63312C30.9772 7.90312 31.0552 8.21212 31.0552 8.56012C31.0552 8.92012 30.9592 9.21412 30.7672 9.44212H31.6852C31.7452 9.44212 31.7752 9.67612 31.7752 10.1441C31.7752 10.6001 31.7452 10.8281 31.6852 10.8281H30.4522C30.1222 10.8281 29.8612 10.8161 29.6692 10.7921C29.4772 10.7621 29.3242 10.7111 29.2102 10.6391C29.0002 10.7651 28.5952 10.8281 27.9952 10.8281H25.6462C25.1002 10.8281 24.6802 10.6811 24.3862 10.3871C24.0922 10.0931 23.9452 9.67312 23.9452 9.12712V7.64212H25.2772V8.94712C25.2772 9.11512 25.3132 9.24112 25.3852 9.32512C25.4572 9.40312 25.5772 9.44212 25.7452 9.44212H27.6172ZM29.2192 9.44212C29.3992 9.35812 29.5372 9.24412 29.6332 9.10012C29.7352 8.95012 29.7862 8.79712 29.7862 8.64112C29.7862 8.46712 29.7352 8.33212 29.6332 8.23612C29.5372 8.13412 29.3992 8.08312 29.2192 8.08312C29.0452 8.08312 28.9072 8.13712 28.8052 8.24512C28.7092 8.34712 28.6612 8.47912 28.6612 8.64112C28.6612 8.79712 28.7092 8.94712 28.8052 9.09112C28.9072 9.23512 29.0452 9.35212 29.2192 9.44212ZM28.5262 6.00412V4.88812H29.9122V6.00412H28.5262ZM32.4589 9.44212C32.5849 9.44212 32.6839 9.41212 32.7559 9.35212C32.8279 9.28612 32.8639 9.19612 32.8639 9.08212V7.64212H34.1869V9.05512C34.1869 9.31312 34.3219 9.44212 34.5919 9.44212H34.8799C34.9399 9.44212 34.9699 9.67312 34.9699 10.1351C34.9699 10.5971 34.9399 10.8281 34.8799 10.8281H34.5289C34.0369 10.8281 33.6979 10.6961 33.5119 10.4321C33.3979 10.5701 33.2569 10.6721 33.0889 10.7381C32.9209 10.7981 32.7109 10.8281 32.4589 10.8281H31.5049C31.4449 10.8281 31.4149 10.6001 31.4149 10.1441C31.4149 9.67612 31.4449 9.44212 31.5049 9.44212H32.4589ZM33.3949 11.6471V12.7631H30.8029V11.6471H33.3949ZM35.5549 9.44212C35.4769 9.34612 35.4139 9.22312 35.3659 9.07312C35.3239 8.91712 35.3029 8.76112 35.3029 8.60512C35.3029 8.26912 35.3839 7.96012 35.5459 7.67812C35.7079 7.39612 35.9299 7.17412 36.2119 7.01212C36.4939 6.85012 36.8089 6.76912 37.1569 6.76912C37.5169 6.76912 37.8349 6.84712 38.1109 7.00312C38.3929 7.15312 38.6089 7.36312 38.7589 7.63312C38.9149 7.90312 38.9929 8.21212 38.9929 8.56012C38.9929 8.90812 38.8969 9.20212 38.7049 9.44212H39.6139C39.6439 9.44212 39.6649 9.48412 39.6769 9.56812C39.6949 9.65212 39.7039 9.84412 39.7039 10.1441C39.7039 10.4321 39.6949 10.6181 39.6769 10.7021C39.6649 10.7861 39.6439 10.8281 39.6139 10.8281H38.3809C38.0509 10.8281 37.7899 10.8161 37.5979 10.7921C37.4119 10.7621 37.2589 10.7111 37.1389 10.6391C36.9289 10.7651 36.5269 10.8281 35.9329 10.8281H34.6999C34.6399 10.8281 34.6099 10.6001 34.6099 10.1441C34.6099 9.67612 34.6399 9.44212 34.6999 9.44212H35.5549ZM37.1569 8.08312C36.9829 8.08312 36.8449 8.13712 36.7429 8.24512C36.6469 8.34712 36.5989 8.47912 36.5989 8.64112C36.5989 8.79712 36.6469 8.94712 36.7429 9.09112C36.8449 9.23512 36.9829 9.35212 37.1569 9.44212C37.3369 9.35812 37.4749 9.24112 37.5709 9.09112C37.6729 8.94112 37.7239 8.79112 37.7239 8.64112C37.7239 8.46712 37.6729 8.33212 37.5709 8.23612C37.4749 8.13412 37.3369 8.08312 37.1569 8.08312ZM36.4639 6.00412V4.88812H37.8499V6.00412H36.4639ZM42.421 6.85012C42.763 6.85012 43.045 6.91012 43.267 7.03012C43.495 7.15012 43.693 7.36012 43.861 7.66012C44.029 7.95412 44.179 8.37112 44.311 8.91112L43.762 9.27112C43.798 9.32512 43.879 9.36712 44.005 9.39712C44.131 9.42712 44.257 9.44212 44.383 9.44212H44.923C44.983 9.44212 45.013 9.67612 45.013 10.1441C45.013 10.4381 45.004 10.6271 44.986 10.7111C44.968 10.7891 44.947 10.8281 44.923 10.8281H44.275C43.939 10.8281 43.66 10.7651 43.438 10.6391C43.216 10.5131 43.015 10.3001 42.835 10.0001L42.502 10.2071C42.124 10.4411 41.755 10.6031 41.395 10.6931C41.035 10.7831 40.588 10.8281 40.054 10.8281H39.433C39.373 10.8281 39.343 10.6001 39.343 10.1441C39.343 9.67612 39.373 9.44212 39.433 9.44212H40.117C40.561 9.44212 40.933 9.41212 41.233 9.35212C41.539 9.29212 41.857 9.17812 42.187 9.01012L42.763 8.67712C42.715 8.49712 42.643 8.37412 42.547 8.30812C42.457 8.24212 42.319 8.20912 42.133 8.20912H40.081L40.216 6.85012H42.421ZM41.089 6.03112V4.91512H42.475V6.03112H41.089ZM47.3021 9.14512C47.3021 9.66712 47.1461 10.0781 46.8341 10.3781C46.5281 10.6781 46.1141 10.8281 45.5921 10.8281H44.7461C44.6861 10.8281 44.6561 10.6001 44.6561 10.1441C44.6561 9.67612 44.6861 9.44212 44.7461 9.44212H45.5921C45.7121 9.44212 45.8081 9.40912 45.8801 9.34312C45.9581 9.27712 45.9971 9.19012 45.9971 9.08212V7.64212H47.3021V9.14512ZM47.5091 5.71612V6.83212H44.9171V5.71612H47.5091ZM51.8203 9.44212C51.8503 9.44212 51.8713 9.48412 51.8833 9.56812C51.9013 9.65212 51.9103 9.84412 51.9103 10.1441C51.9103 10.4321 51.9013 10.6181 51.8833 10.7021C51.8713 10.7861 51.8503 10.8281 51.8203 10.8281H51.4603C50.9323 10.8281 50.5303 10.6781 50.2543 10.3781C49.9843 10.0781 49.8493 9.64912 49.8493 9.09112V5.04112H51.1813V8.99212C51.1813 9.14812 51.2113 9.26212 51.2713 9.33412C51.3313 9.40612 51.4273 9.44212 51.5593 9.44212H51.8203ZM54.1977 9.14512C54.1977 9.66712 54.0417 10.0781 53.7297 10.3781C53.4237 10.6781 53.0097 10.8281 52.4877 10.8281H51.6417C51.5817 10.8281 51.5517 10.6001 51.5517 10.1441C51.5517 9.67612 51.5817 9.44212 51.6417 9.44212H52.4877C52.6077 9.44212 52.7037 9.40912 52.7757 9.34312C52.8537 9.27712 52.8927 9.19012 52.8927 9.08212V7.64212H54.1977V9.14512ZM51.6687 12.7631V11.6471H53.0547V12.7631H51.6687ZM57.4378 10.8281C57.1798 10.8281 56.9878 10.7621 56.8618 10.6301C56.7358 10.4981 56.6728 10.2611 56.6728 9.91912C56.6728 9.37912 56.7088 8.98612 56.7808 8.74012C56.8528 8.48812 56.9848 8.31112 57.1768 8.20912C57.3748 8.10112 57.6928 8.01712 58.1308 7.95712V8.74912C57.8908 8.79112 57.7258 8.83012 57.6358 8.86612C57.5458 8.89612 57.4858 8.94412 57.4558 9.01012C57.4318 9.07012 57.4198 9.17812 57.4198 9.33412C57.6838 9.33412 57.8788 9.38812 58.0048 9.49612C58.1308 9.59812 58.1938 9.78112 58.1938 10.0451C58.1938 10.5671 57.9418 10.8281 57.4378 10.8281ZM61.5252 12.9521C60.7392 12.9521 60.1302 12.7241 59.6982 12.2681C59.2722 11.8181 59.0592 11.1911 59.0592 10.3871V8.54212H60.3912V10.3511C60.3912 10.7591 60.4842 11.0621 60.6702 11.2601C60.8562 11.4641 61.1472 11.5661 61.5432 11.5661H61.9032C62.2932 11.5661 62.5962 11.4701 62.8122 11.2781C63.0282 11.0861 63.1362 10.8131 63.1362 10.4591V7.64212H64.4592V10.3511C64.4592 10.8791 64.3542 11.3381 64.1442 11.7281C63.9342 12.1241 63.6342 12.4271 63.2442 12.6371C62.8602 12.8471 62.4132 12.9521 61.9032 12.9521H61.5252ZM60.8052 7.62412V6.50812H62.1912V7.62412H60.8052ZM66.7256 5.04112V9.44212H67.4096C67.5296 9.44212 67.6256 9.40912 67.6976 9.34312C67.7756 9.27712 67.8146 9.18412 67.8146 9.06412V5.04112H69.1376V9.14512C69.1376 9.67312 68.9846 10.0871 68.6786 10.3871C68.3786 10.6811 67.9676 10.8281 67.4456 10.8281H65.3936V5.04112H66.7256ZM70.1443 5.04112H71.4763V10.8281H70.1443V5.04112ZM79.4277 9.06412C79.4277 9.31612 79.5627 9.44212 79.8327 9.44212H80.1027C80.1627 9.44212 80.1927 9.67612 80.1927 10.1441C80.1927 10.6001 80.1627 10.8281 80.1027 10.8281H79.8687C79.6647 10.8281 79.5117 10.7951 79.4097 10.7291C79.3797 11.1611 79.2537 11.5451 79.0317 11.8811C78.8157 12.2171 78.5217 12.4781 78.1497 12.6641C77.7777 12.8561 77.3517 12.9521 76.8717 12.9521H76.4937C75.7077 12.9521 75.0987 12.7241 74.6667 12.2681C74.2407 11.8181 74.0277 11.1911 74.0277 10.3871V8.54212H75.3597V10.3511C75.3597 10.7591 75.4527 11.0621 75.6387 11.2601C75.8247 11.4641 76.1157 11.5661 76.5117 11.5661H76.8717C77.2617 11.5661 77.5647 11.4701 77.7807 11.2781C77.9967 11.0861 78.1047 10.8131 78.1047 10.4591V7.64212H79.4277V9.06412ZM75.7737 7.62412V6.50812H77.1597V7.62412H75.7737ZM81.5193 9.44212C81.6453 9.44212 81.7443 9.41212 81.8163 9.35212C81.8883 9.28612 81.9243 9.19612 81.9243 9.08212V7.64212H83.2473V9.05512C83.2473 9.31312 83.3793 9.44212 83.6433 9.44212H83.9403C84.0003 9.44212 84.0303 9.67312 84.0303 10.1351C84.0303 10.5971 84.0003 10.8281 83.9403 10.8281H83.5803C83.1003 10.8281 82.7613 10.6961 82.5633 10.4321C82.4493 10.5701 82.3083 10.6721 82.1403 10.7381C81.9783 10.7981 81.7713 10.8281 81.5193 10.8281H79.9263C79.8663 10.8281 79.8363 10.6001 79.8363 10.1441C79.8363 9.67612 79.8663 9.44212 79.9263 9.44212H81.5193ZM82.3023 11.6471V12.7631H79.7103V11.6471H82.3023ZM84.0239 9.44212C84.1499 9.44212 84.2429 9.41512 84.3029 9.36112C84.3629 9.30712 84.3929 9.21712 84.3929 9.09112V8.89312C84.3929 8.30512 84.5609 7.84012 84.8969 7.49812C85.2329 7.15612 85.6889 6.98512 86.2649 6.98512C86.8409 6.98512 87.2849 7.15312 87.5969 7.48912C87.9089 7.81912 88.0649 8.29312 88.0649 8.91112V9.03712C88.0649 9.18112 88.0949 9.28612 88.1549 9.35212C88.2209 9.41212 88.3139 9.44212 88.4339 9.44212H88.6949C88.7549 9.44212 88.7849 9.67612 88.7849 10.1441C88.7849 10.6001 88.7549 10.8281 88.6949 10.8281H88.4519C87.9539 10.8281 87.6089 10.6991 87.4169 10.4411C87.1409 10.6991 86.7389 10.8281 86.2109 10.8281C85.9409 10.8281 85.7099 10.7921 85.5179 10.7201C85.3259 10.6481 85.1819 10.5521 85.0859 10.4321C84.9719 10.5701 84.8279 10.6721 84.6539 10.7381C84.4859 10.7981 84.2759 10.8281 84.0239 10.8281H83.7629C83.7029 10.8281 83.6729 10.6001 83.6729 10.1441C83.6729 9.67612 83.7029 9.44212 83.7629 9.44212H84.0239ZM86.7779 8.91112C86.7779 8.50312 86.5919 8.29912 86.2199 8.29912C85.8539 8.29912 85.6709 8.50312 85.6709 8.91112C85.6709 9.09112 85.7159 9.23212 85.8059 9.33412C85.9019 9.43012 86.0399 9.47812 86.2199 9.47812C86.4119 9.47812 86.5529 9.43312 86.6429 9.34312C86.7329 9.24712 86.7779 9.10312 86.7779 8.91112ZM94.2376 7.95712C94.4475 8.18512 94.5975 8.40712 94.6876 8.62312C94.7836 8.83912 94.8316 9.06412 94.8316 9.29812C94.8316 9.75412 94.6756 10.1231 94.3636 10.4051C94.0576 10.6871 93.6376 10.8281 93.1036 10.8281H92.0596C91.7175 10.8281 91.4625 10.8191 91.2945 10.8011C91.1325 10.7831 90.9885 10.7411 90.8625 10.6751C90.7245 10.7351 90.5565 10.7771 90.3585 10.8011C90.1665 10.8191 89.9145 10.8281 89.6025 10.8281H88.5135C88.4535 10.8281 88.4235 10.6001 88.4235 10.1441C88.4235 9.67612 88.4535 9.44212 88.5135 9.44212H89.3505C89.2845 9.35812 89.2305 9.24412 89.1885 9.10012C89.1465 8.95612 89.1255 8.81212 89.1255 8.66812C89.1255 8.33812 89.2065 8.03512 89.3685 7.75912C89.5305 7.48312 89.7525 7.26712 90.0345 7.11112C90.3165 6.94912 90.6285 6.86812 90.9705 6.86812C91.1625 6.86812 91.3515 6.90112 91.5376 6.96712L91.4926 6.92212L92.4015 5.98612L94.2376 7.95712ZM93.0405 9.44212C93.3406 9.44212 93.4906 9.34912 93.4906 9.16312C93.4906 9.09112 93.4726 9.02212 93.4366 8.95612C93.4006 8.89012 93.3285 8.80312 93.2205 8.69512L92.5905 8.04712C92.6445 8.20912 92.6715 8.38012 92.6715 8.56012C92.6715 8.72812 92.6415 8.89312 92.5816 9.05512C92.5275 9.21112 92.4525 9.34012 92.3565 9.44212H93.0405ZM90.8716 9.46012C91.2616 9.26212 91.4566 9.00412 91.4566 8.68612C91.4566 8.53012 91.4055 8.40112 91.3035 8.29912C91.2015 8.19712 91.0665 8.14612 90.8985 8.14612C90.7305 8.14612 90.5955 8.19712 90.4935 8.29912C90.3975 8.40112 90.3495 8.53012 90.3495 8.68612C90.3495 9.01612 90.5235 9.27412 90.8716 9.46012Z" fill="white"/>
</svg>
