<svg width="92" height="47" viewBox="0 0 92 47" fill="none" xmlns="http://www.w3.org/2000/svg">
<rect x="0.681641" y="5.34375" width="90.9629" height="16.5391" fill="#429BDA"/>
<path d="M7.32063 14.1664C7.37729 14.1664 7.41696 14.2684 7.43963 14.4724C7.47363 14.6764 7.49063 15.1411 7.49063 15.8664C7.49063 16.5917 7.47363 17.0564 7.43963 17.2604C7.41696 17.4644 7.37729 17.5664 7.32063 17.5664H6.47063C5.38263 17.5664 4.55529 17.2661 3.98863 16.6654C3.43329 16.0647 3.15563 15.2034 3.15563 14.0814V6.68641H6.38563V13.8264C6.38563 13.9511 6.40829 14.0417 6.45363 14.0984C6.51029 14.1437 6.60096 14.1664 6.72563 14.1664H7.32063ZM8.68129 14.1664C9.50862 14.1664 10.2113 14.1154 10.7893 14.0134C11.3786 13.9001 12.0076 13.6961 12.6763 13.4014C12.631 13.2427 12.5686 13.1351 12.4893 13.0784C12.41 13.0104 12.3023 12.9764 12.1663 12.9764H8.34129L8.59629 9.74641H13.0163C13.651 9.74641 14.1836 9.88807 14.6143 10.1714C15.0563 10.4547 15.436 10.9307 15.7533 11.5994C16.082 12.2567 16.388 13.1691 16.6713 14.3364L12.7613 16.5464C12.138 16.9091 11.509 17.1697 10.8743 17.3284C10.2396 17.4871 9.45196 17.5664 8.51129 17.5664H7.32129C7.20796 17.5664 7.15129 16.9997 7.15129 15.8664C7.15129 15.1411 7.16829 14.6764 7.20229 14.4724C7.23629 14.2684 7.27596 14.1664 7.32129 14.1664H8.68129ZM9.61629 21.0514V18.5864H12.8463V21.0514H9.61629ZM21.1776 17.5664C20.1123 17.5664 19.2906 17.2774 18.7126 16.6994C18.146 16.1101 17.8626 15.2657 17.8626 14.1664V11.1914H21.0926V13.7414C21.0926 13.8774 21.121 13.9851 21.1776 14.0644C21.2456 14.1324 21.359 14.1664 21.5176 14.1664H26.1926C26.2946 14.1664 26.374 14.1437 26.4306 14.0984C26.4986 14.0417 26.5326 13.9794 26.5326 13.9114C26.5326 13.7981 26.4476 13.6564 26.2776 13.4864L23.0476 10.3414V7.96141L30.0176 5.41141L30.7826 8.64141L27.3826 9.91641L28.7426 11.2764C29.6153 12.1491 30.2953 12.7894 30.7826 13.1974C31.2813 13.5941 31.6836 13.8547 31.9896 13.9794C32.307 14.1041 32.6696 14.1664 33.0776 14.1664C33.191 14.1664 33.2476 14.7331 33.2476 15.8664C33.2476 16.9997 33.191 17.5664 33.0776 17.5664C32.341 17.5664 31.763 17.5437 31.3436 17.4984C30.9356 17.4417 30.5956 17.3454 30.3236 17.2094C30.0516 17.0621 29.791 16.8411 29.5416 16.5464C29.3036 16.8524 28.941 17.1017 28.4536 17.2944C27.9663 17.4757 27.411 17.5664 26.7876 17.5664H21.1776ZM38.0003 14.0814C38.0003 15.1467 37.683 15.9967 37.0483 16.6314C36.425 17.2547 35.5806 17.5664 34.5153 17.5664H33.0703C32.957 17.5664 32.9003 16.9997 32.9003 15.8664C32.9003 15.1411 32.9173 14.6764 32.9513 14.4724C32.9853 14.2684 33.025 14.1664 33.0703 14.1664H34.5153C34.606 14.1664 34.6853 14.1437 34.7533 14.0984C34.8213 14.0417 34.8553 13.9737 34.8553 13.8944V11.1914H38.0003V14.0814ZM36.9803 18.5864V21.0514H31.8803V18.5864H36.9803ZM46.8483 16.6314C46.8483 17.5607 46.6556 18.3937 46.2703 19.1304C45.8963 19.8671 45.3523 20.4394 44.6383 20.8474C43.9356 21.2667 43.1139 21.4764 42.1733 21.4764H41.3233L41.0683 18.0764H41.9183C43.0516 18.0764 43.6183 17.6231 43.6183 16.7164V11.1914H46.8483V16.6314ZM43.6183 10.1714V7.70641H46.8483V10.1714H43.6183ZM48.2953 6.68641H51.5253V17.5664H48.2953V6.68641ZM57.3166 17.5664C56.7159 17.5664 56.2682 17.4134 55.9736 17.1074C55.6789 16.8014 55.5316 16.2461 55.5316 15.4414C55.5316 14.3081 55.6166 13.4751 55.7866 12.9424C55.9679 12.4097 56.2852 12.0301 56.7386 11.8034C57.2032 11.5767 57.9342 11.4011 58.9316 11.2764V13.1464C58.3989 13.2371 58.0249 13.3164 57.8096 13.3844C57.5942 13.4524 57.4582 13.5374 57.4016 13.6394C57.3449 13.7414 57.3166 13.9171 57.3166 14.1664C57.9059 14.1664 58.3479 14.2854 58.6426 14.5234C58.9486 14.7614 59.1016 15.1807 59.1016 15.7814C59.1016 16.9714 58.5066 17.5664 57.3166 17.5664ZM64.7122 14.1664C64.7689 14.1664 64.8086 14.2684 64.8312 14.4724C64.8652 14.6764 64.8822 15.1411 64.8822 15.8664C64.8822 16.5917 64.8652 17.0564 64.8312 17.2604C64.8086 17.4644 64.7689 17.5664 64.7122 17.5664H63.8622C62.7742 17.5664 61.9469 17.2661 61.3802 16.6654C60.8249 16.0647 60.5472 15.2034 60.5472 14.0814V6.68641H63.7772V13.8264C63.7772 13.9511 63.7999 14.0417 63.8452 14.0984C63.9019 14.1437 63.9926 14.1664 64.1172 14.1664H64.7122ZM70.4079 9.74641C70.9406 9.74641 71.4052 9.84841 71.8019 10.0524C72.1986 10.2451 72.5669 10.6134 72.9069 11.1574C73.2469 11.7014 73.5586 12.4777 73.8419 13.4864L72.8729 14.1664H73.8079H74.8279C74.9412 14.1664 74.9979 14.7331 74.9979 15.8664C74.9979 16.6031 74.9809 17.0734 74.9469 17.2774C74.9129 17.4701 74.8732 17.5664 74.8279 17.5664H73.3829C72.7822 17.5664 72.2666 17.4587 71.8359 17.2434C71.4052 17.0167 71.0426 16.6711 70.7479 16.2064L70.1529 16.5464C69.5296 16.9091 68.9006 17.1697 68.2659 17.3284C67.6312 17.4871 66.8436 17.5664 65.9029 17.5664H64.7129C64.5996 17.5664 64.5429 16.9997 64.5429 15.8664C64.5429 15.1411 64.5599 14.6764 64.5939 14.4724C64.6279 14.2684 64.6676 14.1664 64.7129 14.1664H66.0729C66.9002 14.1664 67.6029 14.1154 68.1809 14.0134C68.7702 13.9001 69.3992 13.6961 70.0679 13.4014C70.0226 13.2427 69.9602 13.1351 69.8809 13.0784C69.8016 13.0104 69.6939 12.9764 69.5579 12.9764H65.7329L65.9879 9.74641H70.4079ZM67.0079 21.0514V18.5864H70.2379V21.0514H67.0079ZM78.6482 14.1664C78.7502 14.1664 78.8296 14.1437 78.8862 14.0984C78.9542 14.0417 78.9882 13.9794 78.9882 13.9114C78.9882 13.7981 78.9032 13.6564 78.7332 13.4864L75.5032 10.3414V7.96141L82.4732 5.41141L83.2382 8.64141L79.8382 9.91641L81.1982 11.2764C82.0709 12.1491 82.7509 12.7894 83.2382 13.1974C83.7369 13.5941 84.1392 13.8547 84.4452 13.9794C84.7626 14.1041 85.1252 14.1664 85.5332 14.1664C85.6466 14.1664 85.7032 14.7331 85.7032 15.8664C85.7032 16.9997 85.6466 17.5664 85.5332 17.5664C84.7966 17.5664 84.2186 17.5437 83.7992 17.4984C83.3912 17.4417 83.0512 17.3454 82.7792 17.2094C82.5072 17.0621 82.2466 16.8411 81.9972 16.5464C81.7592 16.8524 81.3966 17.1017 80.9092 17.2944C80.4219 17.4757 79.8666 17.5664 79.2432 17.5664H74.8232C74.7099 17.5664 74.6532 16.9997 74.6532 15.8664C74.6532 15.1411 74.6702 14.6764 74.7042 14.4724C74.7382 14.2684 74.7779 14.1664 74.8232 14.1664H78.6482ZM90.4613 14.0814C90.4613 15.1467 90.1439 15.9967 89.5093 16.6314C88.8859 17.2547 88.0416 17.5664 86.9763 17.5664H85.5312C85.4179 17.5664 85.3612 16.9997 85.3612 15.8664C85.3612 15.1411 85.3782 14.6764 85.4122 14.4724C85.4462 14.2684 85.4859 14.1664 85.5312 14.1664H86.9763C87.0669 14.1664 87.1463 14.1437 87.2143 14.0984C87.2823 14.0417 87.3163 13.9737 87.3163 13.8944V11.1914H90.4613V14.0814ZM89.4413 18.5864V21.0514H84.3412V18.5864H89.4413Z" fill="white"/>
<path d="M56.7446 30.3457C56.7446 29.9324 56.8579 29.6224 57.0846 29.4157H56.6346C56.2479 29.4157 55.9446 29.519 55.7246 29.7257C55.5113 29.9257 55.4046 30.209 55.4046 30.5757V35.0357H54.5746V30.5757C54.5746 29.969 54.7646 29.4857 55.1446 29.1257C55.5246 28.759 56.0379 28.5757 56.6846 28.5757H58.7346C59.2946 28.5757 59.7179 28.719 60.0046 29.0057C60.2979 29.2857 60.4446 29.6824 60.4446 30.1957V30.8857C60.4446 31.439 60.2846 31.8624 59.9646 32.1557C59.6446 32.449 59.1813 32.5957 58.5746 32.5957C57.9746 32.5957 57.5179 32.4524 57.2046 32.1657C56.8979 31.879 56.7446 31.479 56.7446 30.9657V30.3457ZM58.6046 31.7357C59.2779 31.7357 59.6146 31.449 59.6146 30.8757V30.2757C59.6146 30.009 59.5346 29.799 59.3746 29.6457C59.2213 29.4924 59.0079 29.4157 58.7346 29.4157H58.4146C58.1413 29.4157 57.9313 29.4957 57.7846 29.6557C57.6446 29.8157 57.5746 30.029 57.5746 30.2957V30.8057C57.5746 31.1324 57.6579 31.369 57.8246 31.5157C57.9979 31.6624 58.2579 31.7357 58.6046 31.7357ZM62.8905 32.3057C62.8905 32.859 62.7805 33.3424 62.5605 33.7557C62.3405 34.169 62.0305 34.4857 61.6305 34.7057C61.2372 34.9257 60.7839 35.0357 60.2705 35.0357H59.5705L59.4905 34.1757H60.2505C60.8172 34.1757 61.2605 34.009 61.5805 33.6757C61.9005 33.349 62.0605 32.8924 62.0605 32.3057V29.3757H62.8905V32.3057ZM61.8705 28.1757V27.3457H62.9305V28.1757H61.8705ZM63.9922 26.1257H64.8222V32.5957H63.9922V26.1257ZM70.6789 31.7357C70.7122 31.7357 70.7356 31.7657 70.7489 31.8257C70.7689 31.879 70.7789 31.9957 70.7789 32.1757C70.7789 32.349 70.7689 32.4624 70.7489 32.5157C70.7356 32.569 70.7122 32.5957 70.6789 32.5957H69.7189C69.6589 33.3557 69.3989 33.9524 68.9389 34.3857C68.4789 34.819 67.8789 35.0357 67.1389 35.0357H65.9089L65.8289 34.1757H67.1489C67.6822 34.1757 68.1056 34.0324 68.4189 33.7457C68.7389 33.4657 68.9022 33.0824 68.9089 32.5957H67.9089C67.2222 32.5957 66.7256 32.4557 66.4189 32.1757C66.1189 31.889 65.9689 31.4457 65.9689 30.8457C65.9689 30.4324 66.0489 30.0657 66.2089 29.7457C66.3689 29.419 66.5922 29.169 66.8789 28.9957C67.1722 28.8157 67.5022 28.7257 67.8689 28.7257C68.4489 28.7257 68.9056 28.919 69.2389 29.3057C69.5722 29.6924 69.7389 30.2224 69.7389 30.8957V31.7357H70.6789ZM66.7989 30.7957C66.7989 31.1357 66.8822 31.379 67.0489 31.5257C67.2222 31.6657 67.5256 31.7357 67.9589 31.7357H68.9089V30.9557C68.9089 30.4957 68.8156 30.149 68.6289 29.9157C68.4422 29.6824 68.1722 29.5657 67.8189 29.5657C67.5122 29.5657 67.2656 29.679 67.0789 29.9057C66.8922 30.1324 66.7989 30.429 66.7989 30.7957ZM70.3858 31.7357C70.6258 31.7357 70.8191 31.669 70.9658 31.5357C71.1124 31.4024 71.1858 31.2224 71.1858 30.9957V26.1257H72.0258V31.0057C72.0258 31.499 71.8758 31.889 71.5758 32.1757C71.2758 32.4557 70.8791 32.5957 70.3858 32.5957H70.0758C70.0091 32.5957 69.9758 32.4557 69.9758 32.1757C69.9758 31.8824 70.0091 31.7357 70.0758 31.7357H70.3858ZM78.7002 30.7357C78.7002 31.089 78.7602 31.3457 78.8802 31.5057C79.0068 31.659 79.1902 31.7357 79.4302 31.7357H79.6702C79.7035 31.7357 79.7268 31.7657 79.7402 31.8257C79.7602 31.879 79.7702 31.9957 79.7702 32.1757C79.7702 32.349 79.7602 32.4624 79.7402 32.5157C79.7268 32.569 79.7035 32.5957 79.6702 32.5957H79.4302C78.6902 32.5957 78.2435 32.279 78.0902 31.6457C77.9502 31.799 77.7502 31.9157 77.4902 31.9957C77.2302 32.069 76.9535 32.1057 76.6602 32.1057C76.0935 32.1057 75.6602 31.9524 75.3602 31.6457C75.0602 31.339 74.9102 30.889 74.9102 30.2957C74.9102 29.9224 74.9902 29.5824 75.1502 29.2757C75.3168 28.9624 75.5468 28.7157 75.8402 28.5357C76.1402 28.349 76.4802 28.2557 76.8602 28.2557H77.8702V27.5657H78.7002V30.7357ZM75.7402 30.2757C75.7402 30.9224 76.0635 31.2457 76.7102 31.2457C77.0635 31.2457 77.3435 31.1824 77.5502 31.0557C77.7635 30.9224 77.8702 30.7457 77.8702 30.5257V29.0957H76.8602C76.5135 29.0957 76.2402 29.199 76.0402 29.4057C75.8402 29.6124 75.7402 29.9024 75.7402 30.2757ZM79.2968 31.7357C79.7701 31.7357 80.0068 31.5224 80.0068 31.0957V30.6857C80.0068 30.0457 80.1768 29.5424 80.5168 29.1757C80.8568 28.809 81.3235 28.6257 81.9168 28.6257C82.5101 28.6257 82.9668 28.799 83.2868 29.1457C83.6068 29.4924 83.7668 29.9924 83.7668 30.6457V30.9257C83.7668 31.2124 83.8235 31.419 83.9368 31.5457C84.0501 31.6724 84.2235 31.7357 84.4568 31.7357H84.7068C84.7735 31.7357 84.8068 31.8824 84.8068 32.1757C84.8068 32.4557 84.7735 32.5957 84.7068 32.5957H84.4568C83.8768 32.5957 83.5001 32.3824 83.3268 31.9557C83.1935 32.1624 82.9968 32.3224 82.7368 32.4357C82.4835 32.5424 82.2001 32.5957 81.8868 32.5957C81.1935 32.5957 80.7268 32.389 80.4868 31.9757C80.3735 32.189 80.2235 32.3457 80.0368 32.4457C79.8501 32.5457 79.6035 32.5957 79.2968 32.5957H79.0668C79.0001 32.5957 78.9668 32.4557 78.9668 32.1757C78.9668 31.8824 79.0001 31.7357 79.0668 31.7357H79.2968ZM82.9368 30.6457C82.9368 29.859 82.5868 29.4657 81.8868 29.4657C81.5335 29.4657 81.2701 29.5657 81.0968 29.7657C80.9235 29.9657 80.8368 30.2724 80.8368 30.6857C80.8368 31.0124 80.9268 31.269 81.1068 31.4557C81.2935 31.6424 81.5535 31.7357 81.8868 31.7357C82.5868 31.7357 82.9368 31.3724 82.9368 30.6457ZM85.6813 31.7357C85.4747 31.589 85.3047 31.3924 85.1713 31.1457C85.0447 30.8924 84.9813 30.6357 84.9813 30.3757C84.9813 30.0157 85.0647 29.6924 85.2313 29.4057C85.4047 29.1124 85.638 28.8857 85.9313 28.7257C86.2247 28.559 86.5547 28.4757 86.9213 28.4757C87.2613 28.4757 87.5713 28.5557 87.8513 28.7157C88.1313 28.8757 88.3513 29.0957 88.5113 29.3757C88.678 29.649 88.7613 29.9557 88.7613 30.2957C88.7613 30.589 88.688 30.8624 88.5413 31.1157C88.4013 31.3624 88.198 31.569 87.9313 31.7357H89.4113C89.698 31.7357 89.918 31.679 90.0713 31.5657C90.2247 31.4524 90.3013 31.299 90.3013 31.1057C90.3013 30.979 90.268 30.8524 90.2013 30.7257C90.1413 30.5924 90.028 30.439 89.8613 30.2657L87.8313 28.1357L88.4313 27.5257L90.5013 29.7357C90.9213 30.1824 91.1313 30.6424 91.1313 31.1157C91.1313 31.5624 90.978 31.9224 90.6713 32.1957C90.3647 32.4624 89.9447 32.5957 89.4113 32.5957H88.2813C87.848 32.5957 87.5313 32.5857 87.3313 32.5657C87.138 32.5457 86.9813 32.5024 86.8613 32.4357C86.7413 32.4957 86.5713 32.539 86.3513 32.5657C86.138 32.5857 85.8213 32.5957 85.4013 32.5957H84.1113C84.0447 32.5957 84.0113 32.4557 84.0113 32.1757C84.0113 31.8824 84.0447 31.7357 84.1113 31.7357H85.6813ZM86.8213 31.7157C87.188 31.5624 87.468 31.369 87.6613 31.1357C87.8613 30.9024 87.9613 30.649 87.9613 30.3757C87.9613 30.0624 87.858 29.809 87.6513 29.6157C87.4513 29.4157 87.1913 29.3157 86.8713 29.3157C86.5513 29.3157 86.288 29.4157 86.0813 29.6157C85.8813 29.809 85.7813 30.0624 85.7813 30.3757C85.7813 30.6624 85.868 30.919 86.0413 31.1457C86.2213 31.3724 86.4813 31.5624 86.8213 31.7157ZM26.8563 41.9457C26.8563 41.5657 26.9596 41.189 27.1663 40.8157C27.3796 40.4357 27.7429 39.9924 28.2563 39.4857L27.8163 39.0357L28.4063 38.4057C29.0729 39.0324 29.5729 39.5424 29.9063 39.9357C30.2463 40.3224 30.4796 40.659 30.6063 40.9457C30.7329 41.2257 30.7963 41.5257 30.7963 41.8457C30.7963 42.199 30.7096 42.5157 30.5363 42.7957C30.3629 43.0757 30.1196 43.2957 29.8063 43.4557C29.4996 43.6157 29.1463 43.6957 28.7463 43.6957C28.1796 43.6957 27.7229 43.5357 27.3763 43.2157C27.0296 42.889 26.8563 42.4657 26.8563 41.9457ZM29.9663 41.8457C29.9663 41.5657 29.8829 41.2924 29.7163 41.0257C29.5563 40.7524 29.2596 40.4157 28.8263 40.0157C28.4063 40.4224 28.1096 40.769 27.9363 41.0557C27.7696 41.3357 27.6863 41.6157 27.6863 41.8957C27.6863 42.169 27.7829 42.3957 27.9763 42.5757C28.1763 42.749 28.4429 42.8357 28.7763 42.8357C29.1229 42.8357 29.4063 42.7424 29.6263 42.5557C29.8529 42.369 29.9663 42.1324 29.9663 41.8457ZM33.7034 42.7357C33.7367 42.7357 33.76 42.7657 33.7734 42.8257C33.7934 42.879 33.8034 42.9957 33.8034 43.1757C33.8034 43.349 33.7934 43.4624 33.7734 43.5157C33.76 43.569 33.7367 43.5957 33.7034 43.5957H33.4434C32.9367 43.5957 32.55 43.4457 32.2834 43.1457C32.0234 42.839 31.8934 42.4057 31.8934 41.8457V37.1257H32.7234V41.8057C32.7234 42.4257 32.9767 42.7357 33.4834 42.7357H33.7034ZM37.2982 35.5057L37.4682 36.0457L34.0482 37.4657V36.8657L37.2982 35.5057ZM35.8782 42.7357C36.1649 42.7357 36.3882 42.679 36.5482 42.5657C36.7149 42.4524 36.7982 42.299 36.7982 42.1057C36.7982 41.9724 36.7649 41.8424 36.6982 41.7157C36.6382 41.5824 36.5349 41.4424 36.3882 41.2957L34.0382 38.9657V38.2457L37.6882 36.7957L37.9382 37.5957L35.0182 38.7457L36.9982 40.7357C37.6315 41.3757 38.0982 41.829 38.3982 42.0957C38.6982 42.3624 38.9349 42.5357 39.1082 42.6157C39.2815 42.6957 39.4782 42.7357 39.6982 42.7357C39.7649 42.7357 39.7982 42.8824 39.7982 43.1757C39.7982 43.4557 39.7649 43.5957 39.6982 43.5957C39.4115 43.5957 39.1715 43.569 38.9782 43.5157C38.7915 43.4557 38.5882 43.3457 38.3682 43.1857C38.1549 43.019 37.8715 42.759 37.5182 42.4057C37.4915 42.759 37.3315 43.0457 37.0382 43.2657C36.7515 43.4857 36.3649 43.5957 35.8782 43.5957H33.1082C33.0415 43.5957 33.0082 43.4557 33.0082 43.1757C33.0082 42.8824 33.0415 42.7357 33.1082 42.7357H35.8782ZM39.88 42.7357C40.1733 42.7357 40.4 42.6657 40.56 42.5257C40.7267 42.3857 40.81 42.1924 40.81 41.9457V40.3757H41.65V41.9457C41.65 42.4724 41.9467 42.7357 42.54 42.7357C42.8333 42.7357 43.06 42.6657 43.22 42.5257C43.3867 42.3857 43.47 42.1924 43.47 41.9457V40.3757H44.3V41.9457C44.3 42.199 44.37 42.3957 44.51 42.5357C44.6567 42.669 44.87 42.7357 45.15 42.7357C45.4233 42.7357 45.6333 42.6657 45.78 42.5257C45.9333 42.3857 46.01 42.1924 46.01 41.9457V40.3757H46.84V41.9457C46.84 42.4724 47.1033 42.7357 47.63 42.7357H47.92C47.9933 42.7357 48.03 42.8824 48.03 43.1757C48.03 43.349 48.02 43.4624 48 43.5157C47.98 43.569 47.9533 43.5957 47.92 43.5957H47.63C46.99 43.5957 46.5767 43.399 46.39 43.0057C46.1567 43.399 45.7433 43.5957 45.15 43.5957C44.4767 43.5957 44.0433 43.389 43.85 42.9757C43.6033 43.389 43.1667 43.5957 42.54 43.5957C41.8333 43.5957 41.3833 43.389 41.19 42.9757C40.9433 43.389 40.5067 43.5957 39.88 43.5957H39.1C39.0333 43.5957 39 43.4557 39 43.1757C39 42.8824 39.0333 42.7357 39.1 42.7357H39.88ZM44.32 37.0157V37.8057H43.41V37.0157H44.32ZM45.18 38.3857V39.1757H42.54V38.3857H45.18ZM50.0081 42.0057C50.0081 42.499 49.8581 42.889 49.5581 43.1757C49.2581 43.4557 48.8615 43.5957 48.3681 43.5957H47.3281C47.2615 43.5957 47.2281 43.4557 47.2281 43.1757C47.2281 42.8824 47.2615 42.7357 47.3281 42.7357H48.3681C48.6081 42.7357 48.8015 42.6724 48.9481 42.5457C49.1015 42.4124 49.1781 42.229 49.1781 41.9957V40.3757H50.0081V42.0057ZM48.4881 39.1757V38.3457H49.5481V39.1757H48.4881ZM51.1047 37.1257H51.9347V43.5957H51.1047V37.1257ZM56.8414 40.7657C57.0547 41.0124 57.2081 41.2457 57.3014 41.4657C57.3947 41.679 57.4414 41.8957 57.4414 42.1157C57.4414 42.5557 57.2881 42.9124 56.9814 43.1857C56.6747 43.459 56.2447 43.5957 55.6914 43.5957H52.8414L52.7614 42.7357H55.6914C55.9847 42.7357 56.2114 42.679 56.3714 42.5657C56.5314 42.4524 56.6114 42.299 56.6114 42.1057C56.6114 41.9857 56.5781 41.8657 56.5114 41.7457C56.4514 41.619 56.3481 41.469 56.2014 41.2957L54.3314 39.1457L54.9214 38.5557L56.8414 40.7657ZM64.0303 43.2757C64.0303 43.8424 63.9236 44.3324 63.7103 44.7457C63.497 45.159 63.1936 45.4757 62.8003 45.6957C62.4136 45.9224 61.957 46.0357 61.4303 46.0357H60.2003L60.1203 45.1757H61.4403C61.9736 45.1757 62.397 45.0324 62.7103 44.7457C63.0303 44.4657 63.1936 44.0824 63.2003 43.5957H62.2003C61.5136 43.5957 61.017 43.4557 60.7103 43.1757C60.4103 42.889 60.2603 42.4457 60.2603 41.8457C60.2603 41.4324 60.3403 41.0657 60.5003 40.7457C60.6603 40.419 60.8836 40.169 61.1703 39.9957C61.4636 39.8157 61.7936 39.7257 62.1603 39.7257C62.7403 39.7257 63.197 39.919 63.5303 40.3057C63.8636 40.6924 64.0303 41.2224 64.0303 41.8957V43.2757ZM61.0903 41.7957C61.0903 42.1357 61.1736 42.379 61.3403 42.5257C61.5136 42.6657 61.817 42.7357 62.2503 42.7357H63.2003V41.9557C63.2003 41.4957 63.107 41.149 62.9203 40.9157C62.7336 40.6824 62.4636 40.5657 62.1103 40.5657C61.8036 40.5657 61.557 40.679 61.3703 40.9057C61.1836 41.1324 61.0903 41.429 61.0903 41.7957ZM70.6033 41.7357C70.6033 42.089 70.6633 42.3457 70.7833 42.5057C70.9099 42.659 71.0933 42.7357 71.3333 42.7357H71.5733C71.6066 42.7357 71.6299 42.7657 71.6433 42.8257C71.6633 42.879 71.6733 42.9957 71.6733 43.1757C71.6733 43.349 71.6633 43.4624 71.6433 43.5157C71.6299 43.569 71.6066 43.5957 71.5733 43.5957H71.3333C70.5933 43.5957 70.1466 43.279 69.9933 42.6457C69.8533 42.799 69.6533 42.9157 69.3933 42.9957C69.1333 43.069 68.8566 43.1057 68.5633 43.1057C67.9966 43.1057 67.5633 42.9524 67.2633 42.6457C66.9633 42.339 66.8133 41.889 66.8133 41.2957C66.8133 40.9224 66.8933 40.5824 67.0533 40.2757C67.2199 39.9624 67.4499 39.7157 67.7433 39.5357C68.0433 39.349 68.3833 39.2557 68.7633 39.2557H69.7733V38.5657H70.6033V41.7357ZM67.6433 41.2757C67.6433 41.9224 67.9666 42.2457 68.6133 42.2457C68.9666 42.2457 69.2466 42.1824 69.4533 42.0557C69.6666 41.9224 69.7733 41.7457 69.7733 41.5257V40.0957H68.7633C68.4166 40.0957 68.1433 40.199 67.9433 40.4057C67.7433 40.6124 67.6433 40.9024 67.6433 41.2757ZM71.7499 42.7357C72.0433 42.7357 72.2699 42.6657 72.4299 42.5257C72.5966 42.3857 72.6799 42.1924 72.6799 41.9457V40.3757H73.5199V41.9457C73.5199 42.4724 73.8166 42.7357 74.4099 42.7357C74.7033 42.7357 74.9299 42.6657 75.0899 42.5257C75.2566 42.3857 75.3399 42.1924 75.3399 41.9457V40.3757H76.1699V41.9457C76.1699 42.199 76.2399 42.3957 76.3799 42.5357C76.5266 42.669 76.7399 42.7357 77.0199 42.7357C77.2999 42.7357 77.5133 42.669 77.6599 42.5357C77.8066 42.3957 77.8799 42.199 77.8799 41.9457V40.3757H78.7099V41.9257C78.7099 42.4457 78.5566 42.8557 78.2499 43.1557C77.9499 43.449 77.5399 43.5957 77.0199 43.5957C76.3466 43.5957 75.9133 43.389 75.7199 42.9757C75.4733 43.389 75.0366 43.5957 74.4099 43.5957C73.7033 43.5957 73.2533 43.389 73.0599 42.9757C72.8133 43.389 72.3766 43.5957 71.7499 43.5957H70.9699C70.9033 43.5957 70.8699 43.4557 70.8699 43.1757C70.8699 42.8824 70.9033 42.7357 70.9699 42.7357H71.7499ZM81.1601 43.3057C81.1601 43.859 81.0501 44.3424 80.8301 44.7557C80.6101 45.169 80.3001 45.4857 79.9001 45.7057C79.5067 45.9257 79.0534 46.0357 78.5401 46.0357H77.8401L77.7601 45.1757H78.5201C79.0867 45.1757 79.5301 45.009 79.8501 44.6757C80.1701 44.349 80.3301 43.8924 80.3301 43.3057V40.3757H81.1601V43.3057ZM84.3017 42.7357C84.5351 42.7357 84.7217 42.6857 84.8617 42.5857C85.0084 42.4857 85.0817 42.3557 85.0817 42.1957C85.0817 42.0624 85.0284 41.8424 84.9217 41.5357C84.8151 41.229 84.5351 40.4557 84.0817 39.2157C84.0617 39.1624 84.0417 39.1124 84.0217 39.0657C84.0017 39.0124 83.9851 38.9657 83.9717 38.9257L84.7417 38.5757L85.9117 41.8957C86.0184 42.2024 86.1384 42.419 86.2717 42.5457C86.4051 42.6724 86.5884 42.7357 86.8217 42.7357H87.0317C87.0984 42.7357 87.1317 42.8824 87.1317 43.1757C87.1317 43.3557 87.1217 43.4724 87.1017 43.5257C87.0884 43.5724 87.0651 43.5957 87.0317 43.5957H86.7917C86.4851 43.5957 86.2317 43.5457 86.0317 43.4457C85.8317 43.3457 85.6751 43.1857 85.5617 42.9657C85.4351 43.1857 85.2684 43.3457 85.0617 43.4457C84.8617 43.5457 84.6084 43.5957 84.3017 43.5957H81.9617L81.8817 42.7357H84.3017ZM86.6655 42.7357C87.1389 42.7357 87.3755 42.5224 87.3755 42.0957V41.6857C87.3755 41.0457 87.5455 40.5424 87.8855 40.1757C88.2255 39.809 88.6922 39.6257 89.2855 39.6257C89.8789 39.6257 90.3355 39.799 90.6555 40.1457C90.9755 40.4924 91.1355 40.9924 91.1355 41.6457C91.1355 42.2657 90.9689 42.7457 90.6355 43.0857C90.3022 43.4257 89.8422 43.5957 89.2555 43.5957C88.5622 43.5957 88.0955 43.389 87.8555 42.9757C87.7422 43.189 87.5922 43.3457 87.4055 43.4457C87.2189 43.5457 86.9722 43.5957 86.6655 43.5957H86.4355C86.3689 43.5957 86.3355 43.4557 86.3355 43.1757C86.3355 42.8824 86.3689 42.7357 86.4355 42.7357H86.6655ZM90.3055 41.6457C90.3055 40.859 89.9555 40.4657 89.2555 40.4657C88.9022 40.4657 88.6389 40.5657 88.4655 40.7657C88.2922 40.9657 88.2055 41.2724 88.2055 41.6857C88.2055 42.0124 88.2955 42.269 88.4755 42.4557C88.6622 42.6424 88.9222 42.7357 89.2555 42.7357C89.9555 42.7357 90.3055 42.3724 90.3055 41.6457Z" fill="black"/>
</svg>
