<svg width="72" height="22" viewBox="0 0 72 22" fill="none" xmlns="http://www.w3.org/2000/svg">
<g filter="url(#filter0_d_11421_47)">
<rect width="70" height="19.0898" rx="5" fill="white"/>
</g>
<path d="M9.42258 11.5508H8.46979C8.00233 11.5508 7.5665 11.5219 7.16228 11.4642C6.76082 11.4064 6.40885 11.3033 6.10638 11.1548C5.8039 11.0036 5.56743 10.7918 5.39694 10.5196C5.22921 10.2474 5.14534 9.89543 5.14534 9.46372C5.14534 9.20249 5.17421 8.94951 5.23196 8.70478C5.2897 8.46006 5.36119 8.23458 5.44644 8.02835L6.50647 8.42431C6.45972 8.5563 6.41023 8.71166 6.35798 8.89039C6.30573 9.06638 6.27961 9.23549 6.27961 9.39772C6.27961 9.59571 6.34011 9.75382 6.4611 9.87206C6.58209 9.9903 6.7457 10.0783 6.95193 10.136C7.15816 10.191 7.39189 10.2281 7.65311 10.2474C7.91434 10.2639 8.18657 10.2721 8.46979 10.2721H9.43496C9.70168 10.2721 9.93404 10.2611 10.132 10.2391C10.33 10.2172 10.495 10.1814 10.627 10.1319C10.759 10.0824 10.858 10.0164 10.9239 9.93393C10.9899 9.84868 11.0229 9.74419 11.0229 9.62045C11.0229 9.43347 10.9996 9.22311 10.9528 8.98938C10.9088 8.75566 10.8593 8.5343 10.8043 8.32532L11.9592 8.03659C12.0142 8.30332 12.0568 8.56592 12.0871 8.8244C12.1201 9.08288 12.1366 9.33173 12.1366 9.57096C12.1366 9.99167 12.0665 10.3326 11.9262 10.5939C11.786 10.8551 11.5908 11.0545 11.3405 11.1919C11.0931 11.3294 10.8057 11.4243 10.4785 11.4765C10.1513 11.526 9.7993 11.5508 9.42258 11.5508ZM9.36896 6.93532L10.099 7.66125L9.36896 8.39544L8.6389 7.66125L9.36896 6.93532ZM7.96659 6.93532L8.7049 7.66125L7.96659 8.39544L7.24478 7.66125L7.96659 6.93532ZM13.3949 11.5508C13.2409 11.5508 13.0883 11.5453 12.9371 11.5343C12.7886 11.5205 12.6374 11.5082 12.4834 11.4972V10.2639C12.6539 10.2804 12.8299 10.2941 13.0113 10.3051C13.1956 10.3134 13.3509 10.3175 13.4774 10.3175C13.5159 10.3175 13.5517 10.3175 13.5847 10.3175C13.6204 10.3175 13.6548 10.3175 13.6878 10.3175C13.6878 10.3175 13.6685 10.2309 13.63 10.0577C13.5915 9.88168 13.5352 9.64795 13.4609 9.35648C13.3894 9.065 13.3028 8.74328 13.2011 8.39131C13.1021 8.03659 12.9907 7.67913 12.867 7.31891C12.746 6.95594 12.6154 6.6191 12.4751 6.30837L13.564 5.84229C13.7043 6.17226 13.8376 6.52973 13.9641 6.91469C14.0906 7.29691 14.2061 7.675 14.3106 8.04897C14.4178 8.42019 14.51 8.75978 14.587 9.06775C14.6667 9.37573 14.7272 9.6232 14.7684 9.81019C14.8124 9.99442 14.8344 10.0865 14.8344 10.0865C14.9884 10.015 15.1122 9.90918 15.2056 9.76894C15.3019 9.6287 15.3706 9.45822 15.4119 9.25749C15.4559 9.054 15.4779 8.82302 15.4779 8.56455V5.74742H16.6616V8.61817C16.6616 9.11862 16.597 9.54209 16.4678 9.88855C16.3385 10.235 16.1639 10.5182 15.944 10.7382C15.724 10.9555 15.4724 11.1232 15.1891 11.2414C14.9087 11.3597 14.6145 11.4408 14.3065 11.4848C13.9985 11.5288 13.6947 11.5508 13.3949 11.5508ZM18.7985 8.06134C19.068 8.06134 19.3045 8.12321 19.508 8.24695C19.7142 8.37069 19.8874 8.53842 20.0277 8.75016C20.1707 8.95914 20.2834 9.19562 20.3659 9.45959C20.4484 9.72357 20.502 9.99442 20.5268 10.2721H20.799V11.5508H20.4443C20.3315 11.988 20.15 12.3551 19.8998 12.6521C19.6496 12.949 19.332 13.1896 18.947 13.3739C18.5648 13.5609 18.1138 13.7052 17.5941 13.807L17.1528 12.6191C17.4855 12.5531 17.799 12.4678 18.0932 12.3633C18.3902 12.2616 18.6432 12.142 18.8522 12.0045C19.0611 11.867 19.2 11.7158 19.2687 11.5508H18.9346C18.3737 11.5508 17.9434 11.4325 17.6436 11.1961C17.3467 10.9596 17.1982 10.5719 17.1982 10.0329C17.1982 9.82943 17.2298 9.61358 17.293 9.38535C17.3563 9.15712 17.4525 8.94264 17.5818 8.74191C17.7138 8.54117 17.8801 8.37756 18.0808 8.25108C18.2843 8.12459 18.5236 8.06134 18.7985 8.06134ZM18.9346 10.2721H19.4255C19.4145 10.1842 19.3952 10.0865 19.3677 9.9793C19.3402 9.87206 19.3017 9.76757 19.2522 9.66582C19.2055 9.56408 19.1436 9.48159 19.0666 9.41835C18.9924 9.35235 18.9003 9.31936 18.7903 9.31936C18.672 9.31936 18.5772 9.35648 18.5057 9.43072C18.4342 9.50496 18.3833 9.59433 18.3531 9.69882C18.3228 9.80056 18.3077 9.89543 18.3077 9.98342C18.3077 10.1209 18.3682 10.2034 18.4892 10.2309C18.6102 10.2584 18.7587 10.2721 18.9346 10.2721ZM25.456 8.98114C25.2965 8.98114 25.137 9.02101 24.9776 9.10075C24.8181 9.17774 24.6627 9.27948 24.5115 9.40597C24.363 9.53246 24.2228 9.67132 24.0908 9.82256C23.9615 9.9738 23.8447 10.1237 23.7402 10.2721H24.0578C24.3135 10.2721 24.5623 10.2653 24.8043 10.2515C25.0491 10.235 25.269 10.2034 25.4643 10.1567C25.6595 10.1072 25.8135 10.0357 25.9262 9.94217C26.0417 9.84868 26.0995 9.72357 26.0995 9.56683C26.0995 9.3881 26.0376 9.24649 25.9139 9.142C25.7901 9.03476 25.6375 8.98114 25.456 8.98114ZM23.9959 11.5508H23.7773C23.4886 11.5508 23.2218 11.5357 22.9771 11.5054C22.7324 11.4724 22.511 11.4174 22.313 11.3404C22.1151 11.2634 21.9432 11.1603 21.7975 11.0311C21.6435 11.1906 21.4593 11.3171 21.2448 11.4105C21.033 11.504 20.7732 11.5508 20.4652 11.5508H20.2961L20.3002 10.2721H20.4652C20.7842 10.2721 20.9945 10.2268 21.0963 10.136C21.198 10.0453 21.2489 9.86381 21.2489 9.59158C21.2489 9.42935 21.2448 9.26848 21.2365 9.109C21.2283 8.94951 21.2173 8.79553 21.2035 8.64704L22.3007 8.51093L22.3832 9.72357C22.3914 9.82256 22.4093 9.90643 22.4368 9.97517C22.467 10.0439 22.5069 10.0879 22.5564 10.1072C22.7324 9.81844 22.9207 9.53384 23.1215 9.25336C23.325 8.97289 23.5449 8.71853 23.7814 8.4903C24.0179 8.25932 24.2723 8.07509 24.5445 7.9376C24.8167 7.80012 25.1109 7.73137 25.4271 7.73137C25.7819 7.73137 26.0953 7.80699 26.3676 7.95823C26.6425 8.10671 26.857 8.31294 27.011 8.57692C27.1677 8.83815 27.2461 9.13925 27.2461 9.48022C27.2461 9.59021 27.2351 9.72357 27.2131 9.88031C27.1939 10.037 27.1581 10.1622 27.1059 10.2556C27.1471 10.2584 27.1925 10.2611 27.242 10.2639C27.2915 10.2666 27.3465 10.2694 27.407 10.2721C27.4675 10.2721 27.5321 10.2721 27.6008 10.2721H27.7246V11.5508H27.605C27.2805 11.5508 27.0069 11.5068 26.7842 11.4188C26.5642 11.3281 26.3648 11.2236 26.1861 11.1053C25.8864 11.2346 25.5468 11.3418 25.1673 11.427C24.7878 11.5095 24.3974 11.5508 23.9959 11.5508ZM32.8188 8.74191V9.88855C32.6538 9.90505 32.4888 9.94355 32.3239 10.004C32.1616 10.0618 32.0241 10.114 31.9114 10.1608C31.9526 10.191 32.0255 10.2144 32.13 10.2309C32.2372 10.2474 32.361 10.2584 32.5012 10.2639C32.6415 10.2694 32.7817 10.2721 32.9219 10.2721H33.1488V11.5508H32.9054C32.5782 11.5508 32.2895 11.5233 32.0393 11.4683C31.7918 11.4133 31.5842 11.3184 31.4164 11.1837C31.2515 11.0462 31.1277 10.8578 31.0452 10.6186C30.7125 10.7946 30.3784 10.9541 30.0429 11.0971C29.7075 11.2373 29.3638 11.3487 29.0118 11.4312C28.6626 11.5109 28.2968 11.5508 27.9146 11.5508H27.2258V10.2721H27.927C28.1827 10.2721 28.4247 10.2556 28.6529 10.2226C28.8812 10.1869 29.108 10.1347 29.3335 10.0659C29.5617 9.99442 29.801 9.90505 30.0512 9.79781C30.3042 9.68782 30.5819 9.55858 30.8844 9.4101C30.6699 9.33035 30.4815 9.25886 30.3193 9.19562C30.1571 9.13237 30.0154 9.07875 29.8945 9.03476C29.7762 8.98801 29.6772 8.95364 29.5975 8.93164C29.5177 8.90689 29.4545 8.89452 29.4077 8.89452C29.262 8.89452 29.13 8.94126 29.0118 9.03476C28.8935 9.1255 28.7987 9.21761 28.7272 9.31111L28.488 9.6122L27.5104 9.13375L27.7166 8.79553C27.9119 8.47381 28.1497 8.20433 28.4302 7.9871C28.7107 7.76987 29.0379 7.66125 29.4119 7.66125C29.5686 7.66125 29.7501 7.697 29.9563 7.76849C30.1626 7.83999 30.3853 7.92935 30.6245 8.03659C30.8637 8.14383 31.1085 8.25108 31.3587 8.35832C31.6117 8.46556 31.8619 8.5563 32.1094 8.63054C32.3569 8.70204 32.5933 8.73916 32.8188 8.74191ZM35.3517 9.30698C35.2417 9.30698 35.1427 9.3441 35.0547 9.41835C34.9695 9.48984 34.8952 9.57508 34.832 9.67407C34.7687 9.77306 34.7165 9.86518 34.6752 9.95042C34.7522 10.0192 34.8251 10.0783 34.8938 10.1278C34.9653 10.1773 35.0313 10.2185 35.0918 10.2515C35.1881 10.3038 35.2747 10.3395 35.3517 10.3588C35.4287 10.378 35.4974 10.3876 35.5579 10.3876C35.6926 10.3876 35.7875 10.3354 35.8425 10.2309C35.8975 10.1264 35.925 10.0123 35.925 9.88855C35.925 9.73457 35.8741 9.59983 35.7724 9.48434C35.6706 9.3661 35.5304 9.30698 35.3517 9.30698ZM35.5497 11.6456C35.3572 11.6456 35.1729 11.6168 34.997 11.559C34.8237 11.504 34.6546 11.4298 34.4896 11.3363C34.3274 11.2401 34.1679 11.1356 34.0112 11.0228C33.9149 11.1163 33.8159 11.2029 33.7142 11.2827C33.6125 11.3624 33.4915 11.427 33.3512 11.4765C33.2137 11.526 33.0391 11.5508 32.8274 11.5508H32.6459V10.2721H32.8068C32.9333 10.2721 33.0474 10.2199 33.1491 10.1154C33.2536 10.0109 33.3567 9.87618 33.4585 9.7112C33.5602 9.54346 33.6674 9.36748 33.7802 9.18324C33.8957 8.99901 34.0235 8.8244 34.1638 8.65941C34.3068 8.49168 34.4717 8.35557 34.6587 8.25108C34.8457 8.14658 35.0629 8.09434 35.3104 8.09434C35.6651 8.09434 35.9717 8.17821 36.2302 8.34594C36.4887 8.51368 36.6867 8.73366 36.8242 9.00588C36.9644 9.27811 37.0345 9.57233 37.0345 9.88855C37.0345 10.2185 36.9795 10.5169 36.8695 10.7836C36.7623 11.0476 36.5987 11.2579 36.3787 11.4147C36.1615 11.5687 35.8851 11.6456 35.5497 11.6456ZM41.4898 9.88443C41.4898 9.80469 41.4513 9.71394 41.3743 9.6122C41.3001 9.50771 41.2079 9.40597 41.0979 9.30698C40.9907 9.20524 40.8876 9.12 40.7886 9.05125C40.7061 9.12275 40.6181 9.21074 40.5246 9.31523C40.4311 9.41697 40.3514 9.52146 40.2854 9.6287C40.2194 9.73319 40.1864 9.82668 40.1864 9.90918C40.1864 10.0302 40.2455 10.1209 40.3638 10.1814C40.4847 10.2419 40.6415 10.2721 40.834 10.2721C41.0429 10.2721 41.2038 10.2419 41.3165 10.1814C41.432 10.1182 41.4898 10.0192 41.4898 9.88443ZM39.9142 8.29645L39.7492 8.15208L40.4916 7.20342C40.7336 7.39315 40.9783 7.58701 41.2258 7.78499C41.4733 7.98022 41.7015 8.18646 41.9105 8.40369C42.1195 8.61817 42.2872 8.84777 42.4137 9.0925C42.5429 9.33448 42.6076 9.59433 42.6076 9.87206C42.6076 10.2185 42.5306 10.5155 42.3766 10.763C42.2253 11.0105 42.0164 11.2016 41.7496 11.3363C41.4829 11.4683 41.1791 11.5343 40.8381 11.5343C40.2524 11.5343 39.8097 11.3913 39.51 11.1053C39.213 10.8166 39.0645 10.4564 39.0645 10.0247C39.0645 9.6727 39.1484 9.36473 39.3161 9.10075C39.4838 8.83402 39.6832 8.56592 39.9142 8.29645ZM45.2683 9.71532C45.2683 9.64658 45.2518 9.55721 45.2188 9.44722C45.1885 9.33448 45.1583 9.24374 45.128 9.17499L44.299 7.34366L45.3425 6.8322L46.3861 9.23274C46.4603 9.40047 46.5263 9.56408 46.584 9.72357C46.6445 9.88305 46.716 10.015 46.7985 10.1195C46.881 10.2213 46.9896 10.2721 47.1244 10.2721H47.2976V11.5508H47.1244C46.9181 11.5508 46.738 11.5247 46.584 11.4724C46.4328 11.4174 46.2994 11.3445 46.1839 11.2538C46.0685 11.1603 45.964 11.0558 45.8705 10.9403C45.7302 11.0668 45.5735 11.1754 45.4003 11.2662C45.227 11.3569 45.0318 11.427 44.8146 11.4765C44.6001 11.5233 44.3581 11.5467 44.0886 11.5467C43.8384 11.5467 43.6267 11.5384 43.4534 11.5219C43.283 11.5054 43.1056 11.4752 42.9214 11.4312V10.1525C43.0918 10.1938 43.2761 10.2268 43.4741 10.2515C43.6748 10.2735 43.859 10.2845 44.0268 10.2845C44.2055 10.2845 44.3897 10.2694 44.5795 10.2391C44.7719 10.2089 44.9342 10.1525 45.0662 10.07C45.2009 9.98755 45.2683 9.86931 45.2683 9.71532ZM48.4281 9.33173C48.4281 9.43347 48.4597 9.52971 48.5229 9.62045C48.5889 9.70845 48.6701 9.78544 48.7663 9.85143C48.8625 9.91743 48.9574 9.96417 49.0509 9.99167C49.1086 9.98342 49.1843 9.95317 49.2778 9.90093C49.3712 9.84868 49.4551 9.78131 49.5294 9.69882C49.6063 9.61358 49.6448 9.52284 49.6448 9.4266C49.6448 9.32485 49.6187 9.22724 49.5665 9.13375C49.5142 9.03751 49.4441 8.95914 49.3561 8.89864C49.2681 8.8354 49.1691 8.80378 49.0591 8.80378C48.8942 8.80378 48.747 8.8574 48.6178 8.96464C48.4913 9.07188 48.4281 9.19424 48.4281 9.33173ZM48.7704 8.08609L49.3066 7.02193C49.8236 7.26391 50.2828 7.48389 50.6843 7.68188C51.0857 7.87986 51.4253 8.07784 51.703 8.27582C51.9808 8.47106 52.1911 8.68554 52.3341 8.91927C52.4771 9.15299 52.5486 9.42797 52.5486 9.74419C52.5486 10.3161 52.3781 10.7534 52.0371 11.0558C51.6962 11.3583 51.2438 11.5095 50.6801 11.5095C50.4876 11.5095 50.2869 11.493 50.0779 11.46C49.8717 11.4243 49.6737 11.3817 49.484 11.3322C49.2943 11.2799 49.1265 11.2318 48.9808 11.1878C48.7306 11.2731 48.4473 11.3555 48.1311 11.4353C47.8149 11.5123 47.5055 11.5508 47.2031 11.5508H46.7947V10.2721H47.1494C47.2237 10.2721 47.2952 10.2721 47.3639 10.2721C47.4354 10.2694 47.5055 10.2666 47.5743 10.2639C47.533 10.1952 47.4945 10.1085 47.4588 10.004C47.423 9.8968 47.3942 9.78406 47.3722 9.66582C47.3502 9.54758 47.3392 9.43897 47.3392 9.33998C47.3392 9.109 47.3983 8.87664 47.5165 8.64292C47.6348 8.40919 47.8163 8.21395 48.061 8.05722C48.3057 7.90048 48.6164 7.82211 48.9932 7.82211C49.2461 7.82211 49.4964 7.88261 49.7438 8.0036C49.9913 8.12459 50.1962 8.29232 50.3584 8.5068C50.5206 8.71853 50.6018 8.96601 50.6018 9.24924C50.6018 9.38672 50.588 9.51734 50.5605 9.64108C50.533 9.76482 50.4945 9.88031 50.445 9.98755C50.3983 10.0948 50.3433 10.1924 50.28 10.2804C50.4093 10.3051 50.5316 10.323 50.6471 10.334C50.7654 10.3423 50.8451 10.3464 50.8864 10.3464C51.0156 10.3464 51.1435 10.3093 51.27 10.235C51.3992 10.158 51.4638 10.0068 51.4638 9.78131C51.4638 9.74282 51.4528 9.69745 51.4308 9.6452C51.4116 9.59021 51.3593 9.52284 51.2741 9.44309C51.1888 9.3606 51.0513 9.26024 50.8616 9.142C50.6719 9.02101 50.4079 8.87389 50.0697 8.70066C49.7315 8.52743 49.2984 8.32257 48.7704 8.08609ZM53.0851 5.74742H54.2771V9.48434C54.2771 9.75932 54.3129 9.96005 54.3844 10.0865C54.4586 10.2103 54.6277 10.2721 54.8917 10.2721H54.9948V11.5508H54.8917C54.2593 11.5508 53.8001 11.3885 53.5141 11.0641C53.2281 10.7369 53.0851 10.2501 53.0851 9.60395V5.74742ZM58.2495 5.57006L58.9342 6.25475L58.2495 6.93944L57.5648 6.25475L58.2495 5.57006ZM58.9754 6.62597L59.6601 7.31066L58.9754 7.99535L58.2907 7.31066L58.9754 6.62597ZM57.5277 6.62597L58.2124 7.31066L57.5277 7.99535L56.843 7.31066L57.5277 6.62597ZM59.524 11.5508C59.282 11.5508 59.0744 11.5013 58.9012 11.4023C58.7307 11.3006 58.5863 11.1809 58.4681 11.0435C58.3306 11.1782 58.1739 11.2964 57.9979 11.3982C57.8219 11.4999 57.6115 11.5508 57.3668 11.5508C57.0946 11.5508 56.8622 11.5054 56.6698 11.4147C56.48 11.3212 56.3233 11.2002 56.1995 11.0517C56.0428 11.2029 55.86 11.3239 55.651 11.4147C55.442 11.5054 55.1821 11.5508 54.8714 11.5508H54.4919V10.2721H54.8797C55.0749 10.2721 55.2303 10.2611 55.3457 10.2391C55.464 10.2144 55.5492 10.1608 55.6015 10.0783C55.6565 9.99305 55.684 9.85968 55.684 9.6782C55.684 9.63695 55.6812 9.56133 55.6757 9.45134C55.6702 9.3386 55.662 9.21761 55.651 9.08838C55.6427 8.95639 55.6345 8.84227 55.6262 8.74603L56.7275 8.60992L56.8182 9.77306C56.832 9.9463 56.8829 10.0728 56.9709 10.1525C57.0616 10.2323 57.1963 10.2721 57.3751 10.2721C57.5923 10.2721 57.7367 10.2309 57.8082 10.1484C57.8796 10.0659 57.9154 9.90918 57.9154 9.6782C57.9154 9.6397 57.9126 9.56546 57.9071 9.45547C57.9016 9.34273 57.8934 9.22036 57.8824 9.08838C57.8741 8.95639 57.8659 8.84227 57.8576 8.74603L58.9589 8.60992L59.0497 9.77306C59.0607 9.93255 59.1005 10.0563 59.1693 10.1443C59.238 10.2295 59.3535 10.2721 59.5157 10.2721C59.623 10.2721 59.7055 10.2488 59.7632 10.202C59.8237 10.1553 59.865 10.0879 59.887 9.99992C59.9117 9.90918 59.9241 9.80194 59.9241 9.6782C59.9241 9.57921 59.9172 9.42797 59.9035 9.22449C59.8925 9.02101 59.8801 8.8354 59.8663 8.66766L60.9676 8.53155L61.0584 9.77306C61.0721 9.96555 61.1257 10.0975 61.2192 10.169C61.3127 10.2378 61.4612 10.2721 61.6647 10.2721H61.7884V11.5508H61.6729C61.4255 11.5508 61.2041 11.5082 61.0089 11.4229C60.8164 11.3377 60.6596 11.2263 60.5387 11.0888C60.4287 11.2153 60.2884 11.3239 60.1179 11.4147C59.9502 11.5054 59.7522 11.5508 59.524 11.5508ZM63.9954 9.30698C63.8854 9.30698 63.7865 9.3441 63.6985 9.41835C63.6132 9.48984 63.539 9.57508 63.4757 9.67407C63.4125 9.77306 63.3602 9.86518 63.319 9.95042C63.396 10.0192 63.4689 10.0783 63.5376 10.1278C63.6091 10.1773 63.6751 10.2185 63.7356 10.2515C63.8318 10.3038 63.9184 10.3395 63.9954 10.3588C64.0724 10.378 64.1412 10.3876 64.2017 10.3876C64.3364 10.3876 64.4313 10.3354 64.4863 10.2309C64.5413 10.1264 64.5688 10.0123 64.5688 9.88855C64.5688 9.73457 64.5179 9.59983 64.4161 9.48434C64.3144 9.3661 64.1742 9.30698 63.9954 9.30698ZM64.1934 11.6456C64.0009 11.6456 63.8167 11.6168 63.6407 11.559C63.4675 11.504 63.2984 11.4298 63.1334 11.3363C62.9711 11.2401 62.8117 11.1356 62.6549 11.0228C62.5587 11.1163 62.4597 11.2029 62.358 11.2827C62.2562 11.3624 62.1352 11.427 61.995 11.4765C61.8575 11.526 61.6829 11.5508 61.4712 11.5508H61.2897V10.2721H61.4505C61.577 10.2721 61.6911 10.2199 61.7929 10.1154C61.8974 10.0109 62.0005 9.87618 62.1022 9.7112C62.204 9.54346 62.3112 9.36748 62.4239 9.18324C62.5394 8.99901 62.6673 8.8244 62.8075 8.65941C62.9505 8.49168 63.1155 8.35557 63.3025 8.25108C63.4895 8.14658 63.7067 8.09434 63.9542 8.09434C64.3089 8.09434 64.6155 8.17821 64.874 8.34594C65.1325 8.51368 65.3304 8.73366 65.4679 9.00588C65.6082 9.27811 65.6783 9.57233 65.6783 9.88855C65.6783 10.2185 65.6233 10.5169 65.5133 10.7836C65.4061 11.0476 65.2424 11.2579 65.0225 11.4147C64.8052 11.5687 64.5289 11.6456 64.1934 11.6456Z" fill="#161819"/>
<defs>
<filter id="filter0_d_11421_47" x="0" y="0" width="72" height="21.0898" filterUnits="userSpaceOnUse" color-interpolation-filters="sRGB">
<feFlood flood-opacity="0" result="BackgroundImageFix"/>
<feColorMatrix in="SourceAlpha" type="matrix" values="0 0 0 0 0 0 0 0 0 0 0 0 0 0 0 0 0 0 127 0" result="hardAlpha"/>
<feOffset dx="1" dy="1"/>
<feGaussianBlur stdDeviation="0.5"/>
<feComposite in2="hardAlpha" operator="out"/>
<feColorMatrix type="matrix" values="0 0 0 0 0 0 0 0 0 0 0 0 0 0 0 0 0 0 0.25 0"/>
<feBlend mode="normal" in2="BackgroundImageFix" result="effect1_dropShadow_11421_47"/>
<feBlend mode="normal" in="SourceGraphic" in2="effect1_dropShadow_11421_47" result="shape"/>
</filter>
</defs>
</svg>
