<svg width="22" height="24" viewBox="0 0 22 24" fill="none" xmlns="http://www.w3.org/2000/svg">
<g clip-path="url(#clip0_11478_4)">
<path d="M12.9844 5.81378C12.7714 5.9373 12.5968 6.10553 12.4669 6.30784C12.4392 6.29294 12.4115 6.28442 12.3817 6.27803C11.9089 5.95008 11.2679 5.9011 10.7462 6.20136C10.4864 6.35043 10.282 6.56978 10.1499 6.82959C9.67503 6.49737 9.03403 6.45478 8.51016 6.75718C8.26526 6.89773 8.06934 7.10004 7.9373 7.33855L6.42105 4.71493C6.09523 4.14846 5.37117 3.95467 4.80471 4.28262C4.23824 4.60845 4.04445 5.3325 4.37241 5.89897L8.90839 13.5015C8.90839 13.5015 6.29328 11.7106 6.28476 11.7063C5.83968 11.5061 4.66841 10.9269 4.16371 11.6786C3.58446 12.5411 4.15306 13.3397 5.46487 14.3342C5.46487 14.3342 11.4191 20.0798 12.5329 19.4366C13.0759 19.1236 18.8769 15.7738 18.8769 15.7738C18.9855 15.7099 19.5115 14.0765 17.5395 10.6607C16.5003 8.85907 15.0735 6.37386 15.0735 6.37386C14.6518 5.64555 13.717 5.39426 12.9886 5.81591L12.9844 5.81378Z" fill="white"/>
<path d="M7.79688 7.09766L10.0372 10.9756" stroke="black" stroke-width="0.63887" stroke-linecap="round" stroke-linejoin="round"/>
<path d="M12.9844 5.81378C12.7714 5.9373 12.5968 6.10553 12.4669 6.30784C12.4392 6.29294 12.4115 6.28442 12.3817 6.27803C11.9089 5.95008 11.2679 5.9011 10.7462 6.20137C10.4864 6.35043 10.282 6.56978 10.1499 6.82959C9.67503 6.49737 9.03403 6.45478 8.51016 6.75718C8.26526 6.89773 8.06934 7.10004 7.9373 7.33855L6.42105 4.71493C6.09523 4.14846 5.37117 3.95467 4.80471 4.28262C4.23824 4.60845 4.04445 5.3325 4.37241 5.89897L8.90839 13.5015C8.90839 13.5015 6.29328 11.7106 6.28476 11.7063C5.83968 11.5061 4.66841 10.9269 4.16371 11.6786C3.58446 12.5411 4.15306 13.3397 5.46487 14.3342C5.46487 14.3342 11.4191 20.0798 12.5329 19.4366C13.0759 19.1236 18.8769 15.7738 18.8769 15.7738C18.9855 15.7099 19.5115 14.0765 17.5395 10.6607C16.5003 8.85907 15.0735 6.37386 15.0735 6.37386C14.6518 5.64555 13.717 5.39426 12.9886 5.81591L12.9844 5.81378Z" stroke="black" stroke-width="0.63887" stroke-linecap="round" stroke-linejoin="round"/>
<path d="M10.1797 6.85156L11.9323 9.88407" stroke="black" stroke-width="0.63887" stroke-linecap="round" stroke-linejoin="round"/>
<path d="M12.4609 6.31836L13.9027 8.81421" stroke="black" stroke-width="0.63887" stroke-linecap="round" stroke-linejoin="round"/>
<path d="M2.74219 0.839844L4.16474 3.30162" stroke="black" stroke-width="0.63887" stroke-linecap="round" stroke-linejoin="round"/>
<path d="M0.320312 4.00195L3.06533 4.73878" stroke="black" stroke-width="0.63887" stroke-linecap="round" stroke-linejoin="round"/>
<path d="M0.835938 7.95362L3.29772 6.5332" stroke="black" stroke-width="0.63887" stroke-linecap="round" stroke-linejoin="round"/>
<path d="M9.85809 2.74609L7.39844 4.16865" stroke="black" stroke-width="0.63887" stroke-linecap="round" stroke-linejoin="round"/>
<path d="M6.69564 0.320312L5.96094 3.06533" stroke="black" stroke-width="0.63887" stroke-linecap="round" stroke-linejoin="round"/>
<path d="M19.968 14.6371L11.0547 19.7832L12.8297 22.8576L21.743 17.7115L19.968 14.6371Z" fill="white" stroke="black" stroke-width="0.6" stroke-linecap="round" stroke-linejoin="round"/>
</g>
<defs>
<clipPath id="clip0_11478_4">
<rect width="22.0048" height="23.1186" fill="white"/>
</clipPath>
</defs>
</svg>
