<svg width="98" height="20" viewBox="0 0 98 20" fill="none" xmlns="http://www.w3.org/2000/svg">
<path d="M11.8995 6.7497C11.6955 6.52304 11.5029 6.35304 11.3215 6.2397C11.1515 6.12637 10.9759 6.0697 10.7945 6.0697C10.4772 6.0697 10.1089 6.2397 9.68953 6.5797C9.2702 6.9197 8.90187 7.3107 8.58453 7.7527C8.27853 8.1947 8.12553 8.54037 8.12553 8.7897C8.12553 9.10704 8.4202 9.32237 9.00953 9.4357L11.1855 9.8097C12.2282 9.99104 12.7495 10.586 12.7495 11.5947C12.7495 12.286 12.5795 12.9434 12.2395 13.5667C11.8995 14.2014 11.4179 14.734 10.7945 15.1647C10.0805 15.6974 9.19087 16.1054 8.12553 16.3887C7.07153 16.6834 6.0232 16.8307 4.98053 16.8307C3.31453 16.8307 2.06786 16.4907 1.24053 15.8107C0.413198 15.1307 -0.000468664 14.139 -0.000468664 12.8357C-0.000468664 11.6117 0.311198 9.95704 0.934531 7.8717L2.53253 8.3137C2.12453 9.8777 1.92053 11.0564 1.92053 11.8497C1.92053 12.6317 2.20953 13.238 2.78753 13.6687C3.36553 14.0994 4.2382 14.3147 5.40553 14.3147C6.4142 14.3147 7.3322 14.207 8.15953 13.9917C8.98687 13.7764 9.63853 13.527 10.1145 13.2437C10.6019 12.9604 10.8455 12.7394 10.8455 12.5807C10.8455 12.49 10.7832 12.4107 10.6585 12.3427C10.5452 12.2747 10.3242 12.2124 9.99553 12.1557L8.24453 11.8497C7.54187 11.7364 7.0262 11.504 6.69753 11.1527C6.36886 10.79 6.20453 10.314 6.20453 9.7247C6.20453 8.9087 6.47086 8.03604 7.00353 7.1067C7.54753 6.16604 8.21053 5.37837 8.99253 4.7437C9.77453 4.0977 10.4885 3.7747 11.1345 3.7747C12.0072 3.7747 12.7325 4.31304 13.3105 5.3897L11.8995 6.7497ZM15.862 13.4647L15.488 0.170703L17.613 0.000702679L17.528 13.2947L15.862 13.4647ZM26.4518 13.3457C26.3158 14.037 26.0665 14.632 25.7038 15.1307C25.3411 15.6407 24.8425 16.077 24.2078 16.4397C22.8365 17.233 20.6378 17.76 17.6118 18.0207L17.4418 17.1537L17.1528 15.7257C19.0568 15.567 20.5698 15.3687 21.6918 15.1307C22.8138 14.8927 23.6185 14.615 24.1058 14.2977C24.6045 13.9804 24.8765 13.6064 24.9218 13.1757C24.0151 13.255 23.1651 13.2947 22.3718 13.2947C21.5785 13.2947 20.9778 13.0964 20.5698 12.6997C20.1618 12.2917 19.9578 11.725 19.9578 10.9997C19.9578 10.195 20.0938 9.43004 20.3658 8.7047C20.6491 7.97937 21.0345 7.3957 21.5218 6.9537C22.0091 6.5117 22.5645 6.2907 23.1878 6.2907C24.1171 6.2907 24.8765 6.7157 25.4658 7.5657C26.0551 8.40437 26.4121 9.49237 26.5368 10.8297H27.6078L27.3528 13.3457H26.4518ZM21.5728 10.0647C21.5728 10.6314 21.9695 10.9147 22.7628 10.9147C23.4201 10.9147 24.0775 10.8977 24.7348 10.8637C24.5875 10.1157 24.3551 9.5377 24.0378 9.1297C23.7318 8.71037 23.3465 8.5007 22.8818 8.5007C22.5078 8.5007 22.1961 8.66504 21.9468 8.9937C21.6975 9.31104 21.5728 9.66804 21.5728 10.0647ZM31.0662 5.2707C31.3496 5.2707 31.6839 5.33304 32.0692 5.4577C32.4546 5.58237 33.0042 5.78637 33.7182 6.0697C34.7382 6.4777 35.6506 6.8177 36.4552 7.0897C37.2599 7.35037 38.1269 7.5487 39.0562 7.6847L38.6312 9.5207C38.0986 9.5547 37.5092 9.71337 36.8632 9.9967C36.9992 10.3027 37.2599 10.518 37.6452 10.6427C38.0419 10.7674 38.6822 10.8297 39.5662 10.8297H39.8552L39.6002 13.3457H39.3112C38.4952 13.3457 37.8322 13.2607 37.3222 13.0907C36.8236 12.9207 36.4326 12.643 36.1492 12.2577C35.8659 11.8724 35.6619 11.351 35.5372 10.6937L35.0952 10.9487C34.2226 11.436 33.4462 11.844 32.7662 12.1727C32.0862 12.49 31.2816 12.7677 30.3522 13.0057C29.4342 13.2324 28.4369 13.3457 27.3602 13.3457C27.3149 13.3457 27.2696 13.2607 27.2242 13.0907C27.1789 12.9094 27.1562 12.6544 27.1562 12.3257C27.1562 11.8044 27.2072 11.4247 27.3092 11.1867C27.3999 10.9487 27.5019 10.8297 27.6152 10.8297C28.9866 10.8297 30.2219 10.688 31.3212 10.4047C32.4319 10.11 33.7126 9.62837 35.1632 8.9597C34.3926 8.74437 33.4349 8.4157 32.2902 7.9737C31.8709 7.8037 31.5592 7.6847 31.3552 7.6167C31.1512 7.5487 30.9699 7.5147 30.8112 7.5147C30.6412 7.5147 30.4712 7.60537 30.3012 7.7867C30.1426 7.96804 29.9159 8.31937 29.6212 8.8407L28.3462 8.0247C28.7089 7.32204 29.0206 6.77804 29.2812 6.3927C29.5532 6.00737 29.8309 5.72404 30.1142 5.5427C30.3976 5.36137 30.7149 5.2707 31.0662 5.2707ZM30.3012 3.2647V1.1397H32.5962V3.2647H30.3012ZM43.9136 6.1547C44.2423 7.90004 44.4066 9.11837 44.4066 9.8097C44.4066 10.4217 44.2536 11.0224 43.9476 11.6117C43.6529 12.1897 43.2393 12.6034 42.7066 12.8527C42.0153 13.1814 40.9783 13.3457 39.5956 13.3457C39.5503 13.3457 39.5049 13.2607 39.4596 13.0907C39.4143 12.9094 39.3916 12.6544 39.3916 12.3257C39.3916 11.8044 39.4426 11.4247 39.5446 11.1867C39.6353 10.9487 39.7373 10.8297 39.8506 10.8297C41.6413 10.8297 42.5366 10.6314 42.5366 10.2347C42.5366 9.9627 42.4743 9.47537 42.3496 8.7727C42.2249 8.07004 42.0719 7.39004 41.8906 6.7327L43.9136 6.1547ZM40.1566 17.2217V15.0967H42.4516V17.2217H40.1566ZM62.1854 13.3457C62.2307 13.4477 62.2534 13.5724 62.2534 13.7197C62.2534 14.2297 62.1344 14.717 61.8964 15.1817C61.6697 15.6464 61.3241 16.0657 60.8594 16.4397C60.1907 16.9724 59.2727 17.4087 58.1054 17.7487C56.9381 18.1 55.7594 18.2757 54.5694 18.2757C52.9034 18.2757 51.6567 17.9357 50.8294 17.2557C50.0021 16.5757 49.5884 15.584 49.5884 14.2807C49.5884 13.0567 49.9001 11.402 50.5234 9.3167L52.1214 9.7587C51.7134 11.3227 51.5094 12.5014 51.5094 13.2947C51.5094 14.0767 51.7984 14.683 52.3764 15.1137C52.9544 15.5444 53.8271 15.7597 54.9944 15.7597C55.9351 15.7597 56.8191 15.6634 57.6464 15.4707C58.4851 15.278 59.1594 15.0514 59.6694 14.7907C60.1794 14.53 60.4344 14.3034 60.4344 14.1107C60.4344 13.9634 60.3211 13.833 60.0944 13.7197C59.8677 13.6064 59.4597 13.4874 58.8704 13.3627C58.2924 13.238 57.4367 13.0907 56.3034 12.9207L56.7794 10.7447C57.9694 10.8014 59.6524 10.8297 61.8284 10.8297H63.1884L62.9334 13.3457H62.1854ZM66.6434 5.2707C66.9267 5.2707 67.2667 5.3387 67.6634 5.4747C68.06 5.59937 68.604 5.80337 69.2954 6.0867C70.2814 6.48337 71.1824 6.8177 71.9984 7.0897C72.8144 7.35037 73.6757 7.5487 74.5824 7.6847L74.0384 9.8437C73.7324 9.79837 73.4887 9.7757 73.3074 9.7757C73.058 9.7757 72.7747 9.85504 72.4574 10.0137C72.14 10.161 71.6754 10.4104 71.0634 10.7617C70.1794 11.2717 69.3747 11.7024 68.6494 12.0537C67.9354 12.3937 67.0854 12.694 66.0994 12.9547C65.1134 13.2154 64.0594 13.3457 62.9374 13.3457C62.892 13.3457 62.8467 13.2607 62.8014 13.0907C62.756 12.9094 62.7334 12.6544 62.7334 12.3257C62.7334 11.8044 62.7844 11.4247 62.8864 11.1867C62.977 10.9487 63.079 10.8297 63.1924 10.8297C64.5637 10.8297 65.799 10.688 66.8984 10.4047C68.009 10.11 69.2897 9.62837 70.7404 8.9597C69.9697 8.74437 69.012 8.4157 67.8674 7.9737C67.448 7.8037 67.1364 7.6847 66.9324 7.6167C66.7284 7.5487 66.547 7.5147 66.3884 7.5147C66.2184 7.5147 66.0484 7.60537 65.8784 7.7867C65.7197 7.96804 65.493 8.31937 65.1984 8.8407L63.9234 8.0247C64.286 7.32204 64.5977 6.77804 64.8584 6.3927C65.1304 6.00737 65.408 5.72404 65.6914 5.5427C65.9747 5.36137 66.292 5.2707 66.6434 5.2707ZM66.7624 15.0117H66.9324H69.3634V16.8307H66.9324H66.7624H64.3484V15.0117H66.7624ZM65.7934 19.5167V17.6467H67.9184V19.5167H65.7934ZM86.8674 13.3457C86.1081 13.3457 85.5641 13.1984 85.2354 12.9037C84.9521 14.4677 84.0057 15.6634 82.3964 16.4907C81.1837 17.114 79.5291 17.624 77.4324 18.0207L76.7524 15.8957C79.3591 15.431 81.1441 14.904 82.1074 14.3147C83.0707 13.7254 83.5524 13.0907 83.5524 12.4107C83.5524 12.0594 83.4787 11.4644 83.3314 10.6257C83.1954 9.7757 83.0141 8.9087 82.7874 8.0247L84.7594 7.3957C84.9521 8.43837 85.1221 9.18637 85.2694 9.6397C85.4281 10.093 85.6377 10.4047 85.8984 10.5747C86.1704 10.7447 86.5784 10.8297 87.1224 10.8297L86.8674 13.3457ZM89.7502 3.7407C90.8609 4.4547 92.1699 5.2367 93.6772 6.0867C94.7312 6.67604 95.5132 7.14637 96.0232 7.4977C96.5446 7.8377 96.9526 8.21737 97.2472 8.6367C97.5532 9.0447 97.7062 9.5207 97.7062 10.0647C97.7062 10.654 97.5872 11.2264 97.3492 11.7817C97.1112 12.3257 96.7882 12.7677 96.3802 13.1077C95.9836 13.4364 95.5472 13.6007 95.0712 13.6007C94.5726 13.6007 93.8642 13.51 92.9462 13.3287C92.0396 13.136 91.2122 12.9037 90.4642 12.6317C89.3309 13.1077 88.1296 13.3457 86.8602 13.3457C86.8149 13.3457 86.7696 13.2607 86.7242 13.0907C86.6789 12.9094 86.6562 12.6544 86.6562 12.3257C86.6562 11.8044 86.7072 11.4247 86.8092 11.1867C86.8999 10.9487 87.0019 10.8297 87.1152 10.8297C87.5686 10.8297 87.8972 10.824 88.1012 10.8127C88.0106 10.518 87.9652 10.229 87.9652 9.9457C87.9652 9.27704 88.1352 8.61404 88.4752 7.9567C88.8152 7.29937 89.2572 6.75537 89.8012 6.3247L88.8152 5.6957L89.7502 3.7407ZM89.5802 9.1807C89.5802 9.43004 89.6879 9.66237 89.9032 9.8777C90.1299 10.093 90.4642 10.2687 90.9062 10.4047C91.4389 10.2574 91.8412 10.076 92.1132 9.8607C92.3852 9.64537 92.5212 9.43004 92.5212 9.2147C92.5212 8.7387 92.4022 8.30804 92.1642 7.9227C91.9376 7.53737 91.6372 7.3447 91.2632 7.3447C91.0026 7.3447 90.7419 7.45804 90.4812 7.6847C90.2206 7.90004 90.0052 8.15504 89.8352 8.4497C89.6652 8.74437 89.5802 8.98804 89.5802 9.1807ZM93.0142 10.8637C94.2382 11.181 95.0656 11.3397 95.4962 11.3397C95.6662 11.3397 95.8079 11.2604 95.9212 11.1017C96.0346 10.943 96.0912 10.7277 96.0912 10.4557C96.0912 10.161 95.9326 9.88904 95.6152 9.6397C95.2979 9.39037 94.7312 9.05037 93.9152 8.6197V8.7557C93.9152 9.4697 93.6149 10.1724 93.0142 10.8637Z" fill="white"/>
</svg>
