<svg width="89" height="19" viewBox="0 0 89 19" fill="none" xmlns="http://www.w3.org/2000/svg">
<path d="M11.8995 6.7497C11.6955 6.52304 11.5029 6.35304 11.3215 6.2397C11.1515 6.12637 10.9759 6.0697 10.7945 6.0697C10.4772 6.0697 10.1089 6.2397 9.68953 6.5797C9.2702 6.9197 8.90187 7.3107 8.58453 7.7527C8.27853 8.1947 8.12553 8.54037 8.12553 8.7897C8.12553 9.10704 8.4202 9.32237 9.00953 9.4357L11.1855 9.8097C12.2282 9.99104 12.7495 10.586 12.7495 11.5947C12.7495 12.286 12.5795 12.9434 12.2395 13.5667C11.8995 14.2014 11.4179 14.734 10.7945 15.1647C10.0805 15.6974 9.19087 16.1054 8.12553 16.3887C7.07153 16.6834 6.0232 16.8307 4.98053 16.8307C3.31453 16.8307 2.06786 16.4907 1.24053 15.8107C0.413198 15.1307 -0.000468664 14.139 -0.000468664 12.8357C-0.000468664 11.6117 0.311198 9.95704 0.934531 7.8717L2.53253 8.3137C2.12453 9.8777 1.92053 11.0564 1.92053 11.8497C1.92053 12.6317 2.20953 13.238 2.78753 13.6687C3.36553 14.0994 4.2382 14.3147 5.40553 14.3147C6.4142 14.3147 7.3322 14.207 8.15953 13.9917C8.98687 13.7764 9.63853 13.527 10.1145 13.2437C10.6019 12.9604 10.8455 12.7394 10.8455 12.5807C10.8455 12.49 10.7832 12.4107 10.6585 12.3427C10.5452 12.2747 10.3242 12.2124 9.99553 12.1557L8.24453 11.8497C7.54187 11.7364 7.0262 11.504 6.69753 11.1527C6.36886 10.79 6.20453 10.314 6.20453 9.7247C6.20453 8.9087 6.47086 8.03604 7.00353 7.1067C7.54753 6.16604 8.21053 5.37837 8.99253 4.7437C9.77453 4.0977 10.4885 3.7747 11.1345 3.7747C12.0072 3.7747 12.7325 4.31304 13.3105 5.3897L11.8995 6.7497ZM15.862 13.4647L15.488 0.170703L17.613 0.000702679L17.528 13.2947L15.862 13.4647ZM26.4518 13.3457C26.3158 14.037 26.0665 14.632 25.7038 15.1307C25.3411 15.6407 24.8425 16.077 24.2078 16.4397C22.8365 17.233 20.6378 17.76 17.6118 18.0207L17.4418 17.1537L17.1528 15.7257C19.0568 15.567 20.5698 15.3687 21.6918 15.1307C22.8138 14.8927 23.6185 14.615 24.1058 14.2977C24.6045 13.9804 24.8765 13.6064 24.9218 13.1757C24.0151 13.255 23.1651 13.2947 22.3718 13.2947C21.5785 13.2947 20.9778 13.0964 20.5698 12.6997C20.1618 12.2917 19.9578 11.725 19.9578 10.9997C19.9578 10.195 20.0938 9.43004 20.3658 8.7047C20.6491 7.97937 21.0345 7.3957 21.5218 6.9537C22.0091 6.5117 22.5645 6.2907 23.1878 6.2907C24.1171 6.2907 24.8765 6.7157 25.4658 7.5657C26.0551 8.40437 26.4121 9.49237 26.5368 10.8297H27.6078L27.3528 13.3457H26.4518ZM21.5728 10.0647C21.5728 10.6314 21.9695 10.9147 22.7628 10.9147C23.4201 10.9147 24.0775 10.8977 24.7348 10.8637C24.5875 10.1157 24.3551 9.5377 24.0378 9.1297C23.7318 8.71037 23.3465 8.5007 22.8818 8.5007C22.5078 8.5007 22.1961 8.66504 21.9468 8.9937C21.6975 9.31104 21.5728 9.66804 21.5728 10.0647ZM31.0662 5.2707C31.3496 5.2707 31.6839 5.33304 32.0692 5.4577C32.4546 5.58237 33.0042 5.78637 33.7182 6.0697C34.7382 6.4777 35.6506 6.8177 36.4552 7.0897C37.2599 7.35037 38.1269 7.5487 39.0562 7.6847L38.6312 9.5207C38.0986 9.5547 37.5092 9.71337 36.8632 9.9967C36.9992 10.3027 37.2599 10.518 37.6452 10.6427C38.0419 10.7674 38.6822 10.8297 39.5662 10.8297H39.8552L39.6002 13.3457H39.3112C38.4952 13.3457 37.8322 13.2607 37.3222 13.0907C36.8236 12.9207 36.4326 12.643 36.1492 12.2577C35.8659 11.8724 35.6619 11.351 35.5372 10.6937L35.0952 10.9487C34.2226 11.436 33.4462 11.844 32.7662 12.1727C32.0862 12.49 31.2816 12.7677 30.3522 13.0057C29.4342 13.2324 28.4369 13.3457 27.3602 13.3457C27.3149 13.3457 27.2696 13.2607 27.2242 13.0907C27.1789 12.9094 27.1562 12.6544 27.1562 12.3257C27.1562 11.8044 27.2072 11.4247 27.3092 11.1867C27.3999 10.9487 27.5019 10.8297 27.6152 10.8297C28.9866 10.8297 30.2219 10.688 31.3212 10.4047C32.4319 10.11 33.7126 9.62837 35.1632 8.9597C34.3926 8.74437 33.4349 8.4157 32.2902 7.9737C31.8709 7.8037 31.5592 7.6847 31.3552 7.6167C31.1512 7.5487 30.9699 7.5147 30.8112 7.5147C30.6412 7.5147 30.4712 7.60537 30.3012 7.7867C30.1426 7.96804 29.9159 8.31937 29.6212 8.8407L28.3462 8.0247C28.7089 7.32204 29.0206 6.77804 29.2812 6.3927C29.5532 6.00737 29.8309 5.72404 30.1142 5.5427C30.3976 5.36137 30.7149 5.2707 31.0662 5.2707ZM30.3012 3.2647V1.1397H32.5962V3.2647H30.3012ZM43.9136 6.1547C44.2423 7.90004 44.4066 9.11837 44.4066 9.8097C44.4066 10.4217 44.2536 11.0224 43.9476 11.6117C43.6529 12.1897 43.2393 12.6034 42.7066 12.8527C42.0153 13.1814 40.9783 13.3457 39.5956 13.3457C39.5503 13.3457 39.5049 13.2607 39.4596 13.0907C39.4143 12.9094 39.3916 12.6544 39.3916 12.3257C39.3916 11.8044 39.4426 11.4247 39.5446 11.1867C39.6353 10.9487 39.7373 10.8297 39.8506 10.8297C41.6413 10.8297 42.5366 10.6314 42.5366 10.2347C42.5366 9.9627 42.4743 9.47537 42.3496 8.7727C42.2249 8.07004 42.0719 7.39004 41.8906 6.7327L43.9136 6.1547ZM40.1566 17.2217V15.0967H42.4516V17.2217H40.1566ZM53.4644 13.3457C52.2971 13.3457 51.4074 13.0397 50.7954 12.4277C50.1834 11.8044 49.8604 10.8467 49.8264 9.5547L49.5544 0.170703L51.6794 0.000702679L51.6284 8.2797C51.6284 9.14104 51.7927 9.78137 52.1214 10.2007C52.4501 10.62 52.9827 10.8297 53.7194 10.8297L53.4644 13.3457ZM57.1639 5.2707C57.4472 5.2707 57.7872 5.3387 58.1839 5.4747C58.5806 5.59937 59.1246 5.80337 59.8159 6.0867C60.8019 6.48337 61.7029 6.8177 62.5189 7.0897C63.3349 7.35037 64.1962 7.5487 65.1029 7.6847L64.5589 9.8437C64.2529 9.79837 64.0092 9.7757 63.8279 9.7757C63.5786 9.7757 63.2952 9.85504 62.9779 10.0137C62.6606 10.161 62.1959 10.4104 61.5839 10.7617C60.6999 11.2717 59.8952 11.7024 59.1699 12.0537C58.4559 12.3937 57.6059 12.694 56.6199 12.9547C55.6339 13.2154 54.5799 13.3457 53.4579 13.3457C53.4126 13.3457 53.3672 13.2607 53.3219 13.0907C53.2766 12.9094 53.2539 12.6544 53.2539 12.3257C53.2539 11.8044 53.3049 11.4247 53.4069 11.1867C53.4976 10.9487 53.5996 10.8297 53.7129 10.8297C55.0842 10.8297 56.3196 10.688 57.4189 10.4047C58.5296 10.11 59.8102 9.62837 61.2609 8.9597C60.4902 8.74437 59.5326 8.4157 58.3879 7.9737C57.9686 7.8037 57.6569 7.6847 57.4529 7.6167C57.2489 7.5487 57.0676 7.5147 56.9089 7.5147C56.7389 7.5147 56.5689 7.60537 56.3989 7.7867C56.2402 7.96804 56.0136 8.31937 55.7189 8.8407L54.4439 8.0247C54.8066 7.32204 55.1182 6.77804 55.3789 6.3927C55.6509 6.00737 55.9286 5.72404 56.2119 5.5427C56.4952 5.36137 56.8126 5.2707 57.1639 5.2707ZM56.2289 17.1367V15.0117H58.5239V17.1367H56.2289ZM77.3879 13.3457C76.6286 13.3457 76.0846 13.1984 75.7559 12.9037C75.4726 14.4677 74.5262 15.6634 72.9169 16.4907C71.7042 17.114 70.0496 17.624 67.9529 18.0207L67.2729 15.8957C69.8796 15.431 71.6646 14.904 72.6279 14.3147C73.5912 13.7254 74.0729 13.0907 74.0729 12.4107C74.0729 12.0594 73.9992 11.4644 73.8519 10.6257C73.7159 9.7757 73.5346 8.9087 73.3079 8.0247L75.2799 7.3957C75.4726 8.43837 75.6426 9.18637 75.7899 9.6397C75.9486 10.093 76.1582 10.4047 76.4189 10.5747C76.6909 10.7447 77.0989 10.8297 77.6429 10.8297L77.3879 13.3457ZM80.2707 3.7407C81.3814 4.4547 82.6904 5.2367 84.1977 6.0867C85.2517 6.67604 86.0337 7.14637 86.5437 7.4977C87.0651 7.8377 87.4731 8.21737 87.7677 8.6367C88.0737 9.0447 88.2267 9.5207 88.2267 10.0647C88.2267 10.654 88.1077 11.2264 87.8697 11.7817C87.6317 12.3257 87.3087 12.7677 86.9007 13.1077C86.5041 13.4364 86.0677 13.6007 85.5917 13.6007C85.0931 13.6007 84.3847 13.51 83.4667 13.3287C82.5601 13.136 81.7327 12.9037 80.9847 12.6317C79.8514 13.1077 78.6501 13.3457 77.3807 13.3457C77.3354 13.3457 77.2901 13.2607 77.2447 13.0907C77.1994 12.9094 77.1767 12.6544 77.1767 12.3257C77.1767 11.8044 77.2277 11.4247 77.3297 11.1867C77.4204 10.9487 77.5224 10.8297 77.6357 10.8297C78.0891 10.8297 78.4177 10.824 78.6217 10.8127C78.5311 10.518 78.4857 10.229 78.4857 9.9457C78.4857 9.27704 78.6557 8.61404 78.9957 7.9567C79.3357 7.29937 79.7777 6.75537 80.3217 6.3247L79.3357 5.6957L80.2707 3.7407ZM80.1007 9.1807C80.1007 9.43004 80.2084 9.66237 80.4237 9.8777C80.6504 10.093 80.9847 10.2687 81.4267 10.4047C81.9594 10.2574 82.3617 10.076 82.6337 9.8607C82.9057 9.64537 83.0417 9.43004 83.0417 9.2147C83.0417 8.7387 82.9227 8.30804 82.6847 7.9227C82.4581 7.53737 82.1577 7.3447 81.7837 7.3447C81.5231 7.3447 81.2624 7.45804 81.0017 7.6847C80.7411 7.90004 80.5257 8.15504 80.3557 8.4497C80.1857 8.74437 80.1007 8.98804 80.1007 9.1807ZM83.5347 10.8637C84.7587 11.181 85.5861 11.3397 86.0167 11.3397C86.1867 11.3397 86.3284 11.2604 86.4417 11.1017C86.5551 10.943 86.6117 10.7277 86.6117 10.4557C86.6117 10.161 86.4531 9.88904 86.1357 9.6397C85.8184 9.39037 85.2517 9.05037 84.4357 8.6197V8.7557C84.4357 9.4697 84.1354 10.1724 83.5347 10.8637Z" fill="white"/>
</svg>
