<svg width="105" height="19" viewBox="0 0 105 19" fill="none" xmlns="http://www.w3.org/2000/svg">
<path d="M11.8995 7.14033C11.6955 6.91366 11.5029 6.74366 11.3215 6.63033C11.1515 6.51699 10.9759 6.46033 10.7945 6.46033C10.4772 6.46033 10.1089 6.63033 9.68953 6.97033C9.2702 7.31033 8.90187 7.70133 8.58453 8.14333C8.27853 8.58533 8.12553 8.93099 8.12553 9.18033C8.12553 9.49766 8.4202 9.71299 9.00953 9.82633L11.1855 10.2003C12.2282 10.3817 12.7495 10.9767 12.7495 11.9853C12.7495 12.6767 12.5795 13.334 12.2395 13.9573C11.8995 14.592 11.4179 15.1247 10.7945 15.5553C10.0805 16.088 9.19087 16.496 8.12553 16.7793C7.07153 17.074 6.0232 17.2213 4.98053 17.2213C3.31453 17.2213 2.06786 16.8813 1.24053 16.2013C0.413198 15.5213 -0.000468664 14.5297 -0.000468664 13.2263C-0.000468664 12.0023 0.311198 10.3477 0.934531 8.26233L2.53253 8.70433C2.12453 10.2683 1.92053 11.447 1.92053 12.2403C1.92053 13.0223 2.20953 13.6287 2.78753 14.0593C3.36553 14.49 4.2382 14.7053 5.40553 14.7053C6.4142 14.7053 7.3322 14.5977 8.15953 14.3823C8.98687 14.167 9.63853 13.9177 10.1145 13.6343C10.6019 13.351 10.8455 13.13 10.8455 12.9713C10.8455 12.8807 10.7832 12.8013 10.6585 12.7333C10.5452 12.6653 10.3242 12.603 9.99553 12.5463L8.24453 12.2403C7.54187 12.127 7.0262 11.8947 6.69753 11.5433C6.36886 11.1807 6.20453 10.7047 6.20453 10.1153C6.20453 9.29933 6.47086 8.42666 7.00353 7.49733C7.54753 6.55666 8.21053 5.76899 8.99253 5.13433C9.77453 4.48833 10.4885 4.16533 11.1345 4.16533C12.0072 4.16533 12.7325 4.70366 13.3105 5.78033L11.8995 7.14033ZM15.862 13.8553L15.488 0.561328L17.613 0.391328L17.528 13.6853L15.862 13.8553ZM26.4518 13.7363C26.3158 14.4277 26.0665 15.0227 25.7038 15.5213C25.3411 16.0313 24.8425 16.4677 24.2078 16.8303C22.8365 17.6237 20.6378 18.1507 17.6118 18.4113L17.4418 17.5443L17.1528 16.1163C19.0568 15.9577 20.5698 15.7593 21.6918 15.5213C22.8138 15.2833 23.6185 15.0057 24.1058 14.6883C24.6045 14.371 24.8765 13.997 24.9218 13.5663C24.0151 13.6457 23.1651 13.6853 22.3718 13.6853C21.5785 13.6853 20.9778 13.487 20.5698 13.0903C20.1618 12.6823 19.9578 12.1157 19.9578 11.3903C19.9578 10.5857 20.0938 9.82066 20.3658 9.09533C20.6491 8.36999 21.0345 7.78633 21.5218 7.34433C22.0091 6.90233 22.5645 6.68133 23.1878 6.68133C24.1171 6.68133 24.8765 7.10633 25.4658 7.95633C26.0551 8.79499 26.4121 9.88299 26.5368 11.2203H27.6078L27.3528 13.7363H26.4518ZM21.5728 10.4553C21.5728 11.022 21.9695 11.3053 22.7628 11.3053C23.4201 11.3053 24.0775 11.2883 24.7348 11.2543C24.5875 10.5063 24.3551 9.92833 24.0378 9.52033C23.7318 9.10099 23.3465 8.89133 22.8818 8.89133C22.5078 8.89133 22.1961 9.05566 21.9468 9.38433C21.6975 9.70166 21.5728 10.0587 21.5728 10.4553ZM31.0662 5.66133C31.3496 5.66133 31.6839 5.72366 32.0692 5.84833C32.4546 5.97299 33.0042 6.17699 33.7182 6.46033C34.7382 6.86833 35.6506 7.20833 36.4552 7.48033C37.2599 7.74099 38.1269 7.93933 39.0562 8.07533L38.6312 9.91133C38.0986 9.94533 37.5092 10.104 36.8632 10.3873C36.9992 10.6933 37.2599 10.9087 37.6452 11.0333C38.0419 11.158 38.6822 11.2203 39.5662 11.2203H39.8552L39.6002 13.7363H39.3112C38.4952 13.7363 37.8322 13.6513 37.3222 13.4813C36.8236 13.3113 36.4326 13.0337 36.1492 12.6483C35.8659 12.263 35.6619 11.7417 35.5372 11.0843L35.0952 11.3393C34.2226 11.8267 33.4462 12.2347 32.7662 12.5633C32.0862 12.8807 31.2816 13.1583 30.3522 13.3963C29.4342 13.623 28.4369 13.7363 27.3602 13.7363C27.3149 13.7363 27.2696 13.6513 27.2242 13.4813C27.1789 13.3 27.1562 13.045 27.1562 12.7163C27.1562 12.195 27.2072 11.8153 27.3092 11.5773C27.3999 11.3393 27.5019 11.2203 27.6152 11.2203C28.9866 11.2203 30.2219 11.0787 31.3212 10.7953C32.4319 10.5007 33.7126 10.019 35.1632 9.35033C34.3926 9.13499 33.4349 8.80633 32.2902 8.36433C31.8709 8.19433 31.5592 8.07533 31.3552 8.00733C31.1512 7.93933 30.9699 7.90533 30.8112 7.90533C30.6412 7.90533 30.4712 7.99599 30.3012 8.17733C30.1426 8.35866 29.9159 8.70999 29.6212 9.23133L28.3462 8.41533C28.7089 7.71266 29.0206 7.16866 29.2812 6.78333C29.5532 6.39799 29.8309 6.11466 30.1142 5.93333C30.3976 5.75199 30.7149 5.66133 31.0662 5.66133ZM30.3012 3.65533V1.53033H32.5962V3.65533H30.3012ZM43.9136 6.54533C44.2423 8.29066 44.4066 9.50899 44.4066 10.2003C44.4066 10.8123 44.2536 11.413 43.9476 12.0023C43.6529 12.5803 43.2393 12.994 42.7066 13.2433C42.0153 13.572 40.9783 13.7363 39.5956 13.7363C39.5503 13.7363 39.5049 13.6513 39.4596 13.4813C39.4143 13.3 39.3916 13.045 39.3916 12.7163C39.3916 12.195 39.4426 11.8153 39.5446 11.5773C39.6353 11.3393 39.7373 11.2203 39.8506 11.2203C41.6413 11.2203 42.5366 11.022 42.5366 10.6253C42.5366 10.3533 42.4743 9.86599 42.3496 9.16333C42.2249 8.46066 42.0719 7.78066 41.8906 7.12333L43.9136 6.54533ZM40.1566 17.6123V15.4873H42.4516V17.6123H40.1566ZM64.5484 13.7363C62.9844 13.7363 62.0551 13.198 61.7604 12.1213C61.5564 12.4387 61.1201 12.7447 60.4514 13.0393C59.7941 13.3227 58.9667 13.555 57.9694 13.7363C56.9834 13.9063 55.9067 13.9913 54.7394 13.9913C52.8581 13.9913 51.5264 13.6967 50.7444 13.1073C49.9737 12.518 49.5884 11.6793 49.5884 10.5913C49.5884 9.72999 49.8434 8.55133 50.3534 7.05533L51.8664 7.53133C51.7644 7.89399 51.6794 8.26233 51.6114 8.63633C51.5434 8.99899 51.5094 9.29366 51.5094 9.52033C51.5094 10.121 51.7814 10.597 52.3254 10.9483C52.8694 11.2997 53.7987 11.4753 55.1134 11.4753C56.3261 11.4753 57.3971 11.396 58.3264 11.2373C59.2557 11.0787 59.9697 10.8803 60.4684 10.6423C60.9784 10.4043 61.2334 10.1607 61.2334 9.91133V8.00733L62.9334 7.87133V9.26533C62.9334 9.93399 63.0807 10.427 63.3754 10.7443C63.6814 11.0617 64.1574 11.2203 64.8034 11.2203L64.5484 13.7363ZM56.3034 4.79433H56.4734H58.9044V6.63033H56.4734H56.3034H53.8894V4.79433H56.3034ZM68.7637 3.40033C69.4551 3.40033 70.0501 3.64966 70.5487 4.14833C71.0474 4.63566 71.4271 5.32699 71.6877 6.22233C71.9484 7.11766 72.0787 8.16033 72.0787 9.35033C72.0787 10.223 71.8974 11.022 71.5347 11.7473C71.1721 12.4727 70.6734 12.9657 70.0387 13.2263C69.2227 13.5663 67.8061 13.7363 65.7887 13.7363H64.5477C64.5024 13.7363 64.4571 13.6513 64.4117 13.4813C64.3664 13.3 64.3437 13.045 64.3437 12.7163C64.3437 12.195 64.3947 11.8153 64.4967 11.5773C64.5874 11.3393 64.6894 11.2203 64.8027 11.2203H66.1627C68.1687 11.2203 69.4891 11.0957 70.1237 10.8463C70.3504 10.7443 70.4637 10.5177 70.4637 10.1663C70.4637 9.87166 70.4581 9.65633 70.4467 9.52033C70.0954 9.62233 69.7044 9.70733 69.2737 9.77533C68.8431 9.83199 68.4294 9.86033 68.0327 9.86033C67.2394 9.86033 66.6444 9.67333 66.2477 9.29933C65.8511 8.92533 65.6527 8.39266 65.6527 7.70133C65.6527 6.98733 65.7831 6.30166 66.0437 5.64433C66.3044 4.97566 66.6727 4.43733 67.1487 4.02933C67.6247 3.60999 68.1631 3.40033 68.7637 3.40033ZM67.2677 6.93633C67.2677 7.17433 67.3584 7.36699 67.5397 7.51433C67.7324 7.66166 68.0101 7.73533 68.3727 7.73533C69.0074 7.73533 69.6251 7.67866 70.2257 7.56533C70.0671 6.85133 69.8347 6.31866 69.5287 5.96733C69.2341 5.61599 68.8771 5.44033 68.4577 5.44033C68.1177 5.44033 67.8344 5.59333 67.6077 5.89933C67.3811 6.19399 67.2677 6.53966 67.2677 6.93633ZM68.4577 0.000327647H68.6277H71.0587V1.83633H68.6277H68.4577H66.0437V0.000327647H68.4577ZM77.5745 6.68133C78.2772 6.68133 78.8835 6.93066 79.3935 7.42933C79.9035 7.91666 80.2945 8.58533 80.5665 9.43533C80.8385 10.274 80.9745 11.209 80.9745 12.2403C80.9745 13.351 80.7875 14.2747 80.4135 15.0113C80.0395 15.748 79.4332 16.3543 78.5945 16.8303C77.2232 17.6237 75.0245 18.1507 71.9985 18.4113L71.8285 17.5443L71.5395 16.1163C73.5115 15.9463 75.0642 15.7367 76.1975 15.4873C77.3308 15.2493 78.1298 14.9603 78.5945 14.6203C79.0705 14.2917 79.3085 13.895 79.3085 13.4303V13.3283C78.5265 13.5663 77.6765 13.6853 76.7585 13.6853C75.9652 13.6853 75.3645 13.487 74.9565 13.0903C74.5485 12.6823 74.3445 12.1157 74.3445 11.3903C74.3445 10.5857 74.4805 9.82066 74.7525 9.09533C75.0358 8.36999 75.4212 7.78633 75.9085 7.34433C76.3958 6.90233 76.9512 6.68133 77.5745 6.68133ZM75.9595 10.4553C75.9595 11.022 76.3562 11.3053 77.1495 11.3053C77.8295 11.3053 78.4755 11.2487 79.0875 11.1353C78.9402 10.41 78.7078 9.85466 78.3905 9.46933C78.0845 9.08399 77.7105 8.89133 77.2685 8.89133C76.8945 8.89133 76.5828 9.05566 76.3335 9.38433C76.0842 9.70166 75.9595 10.0587 75.9595 10.4553ZM93.6076 13.7363C92.8483 13.7363 92.3043 13.589 91.9756 13.2943C91.6923 14.8583 90.746 16.054 89.1366 16.8813C87.924 17.5047 86.2693 18.0147 84.1726 18.4113L83.4926 16.2863C86.0993 15.8217 87.8843 15.2947 88.8476 14.7053C89.811 14.116 90.2926 13.4813 90.2926 12.8013C90.2926 12.45 90.219 11.855 90.0716 11.0163C89.9356 10.1663 89.7543 9.29933 89.5276 8.41533L91.4996 7.78633C91.6923 8.82899 91.8623 9.57699 92.0096 10.0303C92.1683 10.4837 92.378 10.7953 92.6386 10.9653C92.9106 11.1353 93.3186 11.2203 93.8626 11.2203L93.6076 13.7363ZM96.4905 4.13133C97.6011 4.84533 98.9101 5.62733 100.417 6.47733C101.471 7.06666 102.253 7.53699 102.763 7.88833C103.285 8.22833 103.693 8.60799 103.987 9.02733C104.293 9.43533 104.446 9.91133 104.446 10.4553C104.446 11.0447 104.327 11.617 104.089 12.1723C103.851 12.7163 103.528 13.1583 103.12 13.4983C102.724 13.827 102.287 13.9913 101.811 13.9913C101.313 13.9913 100.604 13.9007 99.6865 13.7193C98.7798 13.5267 97.9525 13.2943 97.2045 13.0223C96.0711 13.4983 94.8698 13.7363 93.6005 13.7363C93.5551 13.7363 93.5098 13.6513 93.4645 13.4813C93.4191 13.3 93.3965 13.045 93.3965 12.7163C93.3965 12.195 93.4475 11.8153 93.5495 11.5773C93.6401 11.3393 93.7421 11.2203 93.8555 11.2203C94.3088 11.2203 94.6375 11.2147 94.8415 11.2033C94.7508 10.9087 94.7055 10.6197 94.7055 10.3363C94.7055 9.66766 94.8755 9.00466 95.2155 8.34733C95.5555 7.68999 95.9975 7.14599 96.5415 6.71533L95.5555 6.08633L96.4905 4.13133ZM96.3205 9.57133C96.3205 9.82066 96.4281 10.053 96.6435 10.2683C96.8701 10.4837 97.2045 10.6593 97.6465 10.7953C98.1791 10.648 98.5815 10.4667 98.8535 10.2513C99.1255 10.036 99.2615 9.82066 99.2615 9.60533C99.2615 9.12933 99.1425 8.69866 98.9045 8.31333C98.6778 7.92799 98.3775 7.73533 98.0035 7.73533C97.7428 7.73533 97.4821 7.84866 97.2215 8.07533C96.9608 8.29066 96.7455 8.54566 96.5755 8.84033C96.4055 9.13499 96.3205 9.37866 96.3205 9.57133ZM99.7545 11.2543C100.978 11.5717 101.806 11.7303 102.236 11.7303C102.406 11.7303 102.548 11.651 102.661 11.4923C102.775 11.3337 102.831 11.1183 102.831 10.8463C102.831 10.5517 102.673 10.2797 102.355 10.0303C102.038 9.78099 101.471 9.44099 100.655 9.01033V9.14633C100.655 9.86033 100.355 10.563 99.7545 11.2543Z" fill="white"/>
</svg>
