<svg width="85" height="20" viewBox="0 0 85 20" fill="none" xmlns="http://www.w3.org/2000/svg">
<path d="M75.35 0H9.64C4.31598 0 0 4.31598 0 9.64C0 14.964 4.31598 19.28 9.64 19.28H75.35C80.674 19.28 84.99 14.964 84.99 9.64C84.99 4.31598 80.674 0 75.35 0Z" fill="white"/>
<path d="M15.6547 10.9506C15.6574 10.9506 15.6597 10.9529 15.6597 10.9556C15.6591 11.3734 15.5891 11.7218 15.4497 12.0206C15.3097 12.3206 15.0997 12.5706 14.8197 12.7806C14.5197 13.0006 14.1097 13.2006 13.5797 13.3606C13.0497 13.5206 12.5297 13.6006 12.0097 13.6006C11.2397 13.6006 10.6597 13.4406 10.2697 13.1106C9.87969 12.7806 9.67969 12.3006 9.67969 11.6706C9.67969 11.1569 9.79341 10.484 10.0209 9.65183C10.0789 9.43929 10.2995 9.31694 10.5121 9.37491C10.7267 9.43345 10.8533 9.65397 10.8017 9.87038C10.667 10.436 10.5997 10.8706 10.5997 11.1906C10.5997 11.5806 10.7397 11.8606 11.0097 12.0706C11.2797 12.2806 11.6797 12.3806 12.1997 12.3806C12.5097 12.3806 12.8297 12.3406 13.1697 12.2706C13.5097 12.2006 13.8197 12.1006 14.0897 11.9906C14.3597 11.8806 14.5497 11.7606 14.6597 11.6406C14.7297 11.5706 14.7597 11.4406 14.7597 11.2606C14.7597 11.0006 14.7197 10.6306 14.6497 10.1306C14.6023 9.79238 14.5458 9.4633 14.4833 9.14336C14.4331 8.88691 14.5819 8.63178 14.8318 8.5553C15.1185 8.46752 15.4185 8.64879 15.4658 8.94491C15.5898 9.72054 15.6493 10.3857 15.6497 10.9457C15.6497 10.9484 15.6519 10.9506 15.6547 10.9506ZM12.6047 10.6506C12.3203 10.6506 12.0897 10.4201 12.0897 10.1356C12.0897 9.8512 12.3203 9.62062 12.6047 9.62062H12.6847C12.9691 9.62062 13.1997 9.8512 13.1997 10.1356C13.1997 10.4201 12.9691 10.6506 12.6847 10.6506H12.6047Z" fill="#424143"/>
<path d="M17.2699 11.4705C16.9699 11.1705 16.8199 10.7105 16.7999 10.0905L16.6838 6.04292C16.676 5.77274 16.8816 5.54402 17.1511 5.52309C17.4466 5.50014 17.6987 5.73454 17.6972 6.03092L17.6799 9.48047C17.6799 9.90047 17.7599 10.2105 17.9199 10.4105C17.9581 10.4582 18.002 10.5002 18.0514 10.5366C18.3419 10.7501 18.6593 11.0214 18.624 11.3802C18.5933 11.6924 18.3269 11.9433 18.021 11.8734C17.7201 11.8046 17.4731 11.6736 17.2799 11.4805L17.2699 11.4705Z" fill="#424143"/>
<path d="M22.5647 11.805C22.5616 11.8018 22.5577 11.7994 22.5535 11.798C22.3155 11.7177 22.0675 11.5784 21.7999 11.3802C21.6645 11.2799 21.5166 11.1544 21.356 11.0039C21.1325 10.7942 20.7257 10.8991 20.5499 11.1502C20.4099 11.3502 20.2399 11.5002 20.0399 11.6002C19.8499 11.7002 19.6299 11.7802 19.3699 11.8302C19.1099 11.8802 18.8399 11.9102 18.5599 11.9102C18.5399 11.9102 18.5199 11.8702 18.4899 11.7802C18.4699 11.7002 18.4599 11.5702 18.4599 11.4102C18.4599 11.1602 18.4799 10.9802 18.5299 10.8702C18.5799 10.7602 18.6299 10.7002 18.6799 10.7002C19.0799 10.7002 19.3999 10.6602 19.6499 10.5802C19.8999 10.5002 20.0199 10.3902 20.0199 10.2502C20.0199 10.0902 19.9199 9.89016 19.7099 9.64016C19.5618 9.46386 19.3044 9.2279 18.9375 8.93227C18.6248 8.68031 18.466 8.28068 18.539 7.88582C18.6022 7.54406 18.829 7.25501 19.1459 7.11229L22.2432 5.71738C22.5151 5.59493 22.8309 5.75293 22.8959 6.04394C22.9448 6.26275 22.8325 6.48566 22.6277 6.57672L21.2191 7.20273C20.4018 7.56599 20.2811 8.68516 20.9399 9.29016C21.3799 9.68016 21.7399 9.98016 22.0199 10.1802C22.2899 10.3802 22.5399 10.5102 22.7599 10.5902C22.7815 10.598 22.8034 10.6054 22.8254 10.6123C23.1693 10.7203 23.4593 11.0111 23.424 11.3699C23.3933 11.6821 23.1283 11.9289 22.82 11.8703C22.7364 11.8544 22.6556 11.8349 22.577 11.8122C22.5723 11.8109 22.5681 11.8084 22.5647 11.805ZM19.6476 6.26469C19.4646 6.34705 19.254 6.22931 19.2283 6.03026C19.2115 5.89956 19.2821 5.77322 19.4024 5.71922L21.4185 4.81351C21.5933 4.735 21.7957 4.83925 21.8333 5.02713C21.8606 5.16349 21.79 5.30061 21.6632 5.35768L19.6476 6.26469Z" fill="#424143"/>
<path d="M23.91 12.7697H24.73C24.973 12.7697 25.17 12.9667 25.17 13.2097C25.17 13.4527 24.973 13.6497 24.73 13.6497H23.19C22.947 13.6497 22.75 13.4527 22.75 13.2097C22.75 12.9667 22.947 12.7697 23.19 12.7697H23.92H23.91ZM25.635 10.2047C25.6318 10.2079 25.63 10.2122 25.63 10.2168C25.6289 10.5141 25.5588 10.792 25.41 11.0797C25.26 11.3597 25.06 11.5597 24.81 11.6797C24.48 11.8397 23.98 11.9197 23.31 11.9197C23.29 11.9197 23.27 11.8797 23.24 11.7897C23.22 11.7097 23.21 11.5797 23.21 11.4197C23.21 11.1697 23.23 10.9797 23.28 10.8697C23.33 10.7597 23.38 10.6997 23.43 10.6997C24.29 10.6997 24.73 10.5997 24.73 10.4097C24.73 10.2797 24.7 10.0397 24.64 9.69969C24.609 9.52404 24.5753 9.35106 24.5376 9.18074C24.4796 8.91859 24.6287 8.65005 24.8869 8.57629C25.1625 8.49755 25.447 8.67231 25.4952 8.95484C25.5909 9.5157 25.6392 9.92833 25.64 10.1927C25.64 10.1973 25.6382 10.2015 25.635 10.2047Z" fill="#424143"/>
<path d="M26.8296 11.7707C26.8241 11.7707 26.8195 11.7663 26.8194 11.7607L26.6536 6.03284C26.6458 5.76286 26.8513 5.53427 27.1205 5.51335C27.4161 5.4904 27.668 5.72505 27.6661 6.02145L27.6348 10.8867C27.6319 11.3439 27.2846 11.7252 26.8296 11.7707Z" fill="#424143"/>
<path d="M30.1751 10.23C30.1724 10.23 30.1704 10.2324 30.1707 10.235C30.2202 10.6226 30.2401 10.921 30.2401 11.15C30.2401 11.66 30.1301 12.11 29.9001 12.48C29.6701 12.85 29.3101 13.17 28.8101 13.43C28.3121 13.6832 27.6716 13.9008 26.8706 14.0768C26.6083 14.1344 26.3487 13.9783 26.2667 13.7226C26.1681 13.4146 26.3646 13.0913 26.6813 13.0258C27.618 12.8321 28.279 12.613 28.6701 12.38C29.1401 12.1 29.3701 11.79 29.3701 11.46C29.3701 11.29 29.3401 11 29.2701 10.59C29.2241 10.3208 29.1695 10.043 29.1063 9.7566C29.0496 9.49963 29.1967 9.2398 29.4484 9.16277C29.7318 9.07601 30.0284 9.25518 30.0776 9.54747C30.1167 9.77966 30.1512 10.0055 30.1794 10.225C30.1798 10.2277 30.1777 10.23 30.1751 10.23Z" fill="#424143"/>
<path d="M37.3401 12.8805C37.0501 13.0905 36.6801 13.2605 36.2201 13.4005C35.7601 13.5405 35.3001 13.6105 34.8201 13.6105C34.0901 13.6105 33.5301 13.4505 33.1501 13.1205C32.7701 12.7905 32.5801 12.3105 32.5801 11.6805C32.5801 11.1667 32.6938 10.4938 32.9212 9.66167C32.9793 9.44914 33.1999 9.32678 33.4125 9.38476C33.6271 9.44329 33.7537 9.66381 33.7021 9.88023C33.5674 10.4459 33.5001 10.8804 33.5001 11.2005C33.5001 11.5905 33.6301 11.8705 33.8901 12.0805C34.1501 12.2905 34.5201 12.3905 35.0201 12.3905C35.4601 12.3905 35.8901 12.3205 36.3301 12.1805C36.7601 12.0405 37.0801 11.8805 37.2801 11.7005C37.3101 11.6705 37.3401 11.6205 37.3601 11.5505C37.3801 11.4805 37.3901 11.4105 37.3801 11.3205L37.2518 6.04129C37.2452 5.7717 37.4507 5.54411 37.7196 5.52322C38.0158 5.50022 38.2682 5.73553 38.2661 6.0326L38.2301 11.0605C38.2201 11.8905 37.9201 12.4905 37.3401 12.8805Z" fill="#424143"/>
<path d="M39.9096 11.4705C39.6096 11.1705 39.4596 10.7105 39.4396 10.0905L39.3234 6.04292C39.3157 5.77274 39.5213 5.54402 39.7908 5.52309C40.0863 5.50014 40.3383 5.73454 40.3368 6.03091L40.3196 9.48047C40.3196 9.90047 40.3996 10.2105 40.5596 10.4105C40.5978 10.4582 40.6416 10.5002 40.6911 10.5366C40.9815 10.7501 41.299 11.0214 41.2637 11.3802C41.233 11.6924 40.9665 11.9433 40.6607 11.8734C40.3597 11.8046 40.1127 11.6736 39.9196 11.4805L39.9096 11.4705Z" fill="#424143"/>
<path d="M47.4846 9.50984C47.4899 9.50284 47.501 9.50605 47.5017 9.51478C47.5306 9.85411 47.5496 10.1456 47.5496 10.3798C47.5496 10.8598 47.4396 11.2298 47.2296 11.5098C47.0096 11.7898 46.7396 11.9198 46.3996 11.9198C46.0596 11.9198 45.7996 11.8698 45.5696 11.7598C45.5645 11.7574 45.5595 11.755 45.5545 11.7525C45.3063 11.6305 44.867 11.6462 44.6196 11.7698C44.4196 11.8698 44.1996 11.9298 43.9496 11.9298C43.6796 11.9298 43.4396 11.8798 43.2496 11.7698C43.0327 11.6443 42.6271 11.6 42.4053 11.7169C42.3625 11.7394 42.3173 11.7604 42.2696 11.7798C41.9996 11.8798 41.6496 11.9398 41.1996 11.9398C41.1796 11.9398 41.1596 11.8998 41.1296 11.8098C41.1096 11.7298 41.0996 11.5998 41.0996 11.4398C41.0996 11.1898 41.1196 10.9998 41.1696 10.8898C41.2196 10.7798 41.2696 10.7198 41.3196 10.7198C41.7496 10.7198 42.0696 10.6598 42.2696 10.5398C42.4696 10.4198 42.5696 10.2098 42.5696 9.92984V9.79633C42.5696 9.58342 42.7326 9.40593 42.9447 9.38782C43.1841 9.36739 43.3896 9.55614 43.3896 9.79633V9.93984C43.3896 10.1898 43.4396 10.3798 43.5496 10.5198C43.6596 10.6598 43.8196 10.7298 44.0396 10.7298C44.2396 10.7298 44.4096 10.6598 44.5296 10.5298C44.6496 10.3998 44.7096 10.2198 44.7096 10.0198V9.88633C44.7096 9.67342 44.8726 9.49593 45.0847 9.47782C45.3241 9.45739 45.5296 9.64614 45.5296 9.88633V9.94984C45.5296 10.1998 45.6096 10.3898 45.7596 10.5298C45.9196 10.6698 46.1296 10.7398 46.4096 10.7398C46.5496 10.7398 46.6196 10.6798 46.6196 10.5598C46.6196 10.4198 46.5996 10.1798 46.5496 9.85984C46.5219 9.68269 46.4943 9.50247 46.4632 9.31919C46.4201 9.06501 46.5712 8.8151 46.8191 8.74428L47.0836 8.6687C47.2298 8.62693 47.3795 8.72332 47.399 8.87412C47.4241 9.06815 47.4478 9.2802 47.4675 9.50492C47.4682 9.51365 47.4794 9.51685 47.4846 9.50984Z" fill="#424143"/>
<path d="M50.0149 10.23C50.0123 10.23 50.0102 10.2324 50.0106 10.235C50.0601 10.6226 50.0799 10.921 50.0799 11.15C50.0799 11.66 49.9699 12.11 49.7399 12.48C49.5099 12.85 49.1499 13.17 48.6499 13.43C48.1519 13.6832 47.5114 13.9008 46.7104 14.0768C46.4482 14.1344 46.1885 13.9783 46.1066 13.7226C46.0079 13.4146 46.2045 13.0913 46.5211 13.0258C47.4579 12.8321 48.1189 12.613 48.5099 12.38C48.9799 12.1 49.2099 11.79 49.2099 11.46C49.2099 11.29 49.1799 11 49.1099 10.59C49.064 10.3208 49.0094 10.043 48.9462 9.7566C48.8895 9.49963 49.0366 9.2398 49.2882 9.16277C49.5716 9.07601 49.8682 9.25518 49.9174 9.54747C49.9565 9.77966 49.9911 10.0055 50.0193 10.225C50.0196 10.2277 50.0176 10.23 50.0149 10.23Z" fill="#424143"/>
<path d="M51.2798 11.9805C51.2743 11.9805 51.2697 11.976 51.2696 11.9705L51.1034 6.04244C51.0958 5.77248 51.3013 5.54404 51.5706 5.52313C51.8662 5.50017 52.1183 5.73488 52.1164 6.0314L52.0849 11.0965C52.082 11.5536 51.7347 11.935 51.2798 11.9805Z" fill="#424143"/>
<path d="M55.0795 11.4705C54.7795 11.1705 54.6295 10.7105 54.6095 10.0905L54.4933 6.04292C54.4856 5.77274 54.6912 5.54402 54.9607 5.52309C55.2562 5.50014 55.5082 5.73454 55.5067 6.03091L55.4895 9.48047C55.4895 9.90047 55.5695 10.2105 55.7295 10.4105C55.7677 10.4582 55.8115 10.5002 55.861 10.5366C56.1514 10.7501 56.4689 11.0214 56.4336 11.3802C56.4029 11.6924 56.1365 11.9433 55.8306 11.8734C55.5297 11.8046 55.2826 11.6736 55.0895 11.4805L55.0795 11.4705Z" fill="#424143"/>
<path d="M58.6945 10.2047C58.6913 10.2079 58.6895 10.2122 58.6895 10.2168C58.6884 10.5141 58.6184 10.792 58.4695 11.0797C58.3195 11.3597 58.1195 11.5597 57.8695 11.6797C57.5395 11.8397 57.0395 11.9197 56.3695 11.9197C56.3495 11.9197 56.3295 11.8797 56.2995 11.7897C56.2795 11.7097 56.2695 11.5797 56.2695 11.4197C56.2695 11.1697 56.2895 10.9797 56.3395 10.8697C56.3895 10.7597 56.4395 10.6997 56.4895 10.6997C57.3495 10.6997 57.7895 10.5997 57.7895 10.4097C57.7895 10.2797 57.7595 10.0397 57.6995 9.69969C57.6685 9.52404 57.6349 9.35106 57.5972 9.18074C57.5391 8.91859 57.6883 8.65005 57.9464 8.57629C58.222 8.49755 58.5065 8.67231 58.5547 8.95484C58.6504 9.5157 58.6987 9.92833 58.6995 10.1927C58.6995 10.1973 58.6977 10.2015 58.6945 10.2047ZM57.1545 13.7897C56.8701 13.7897 56.6395 13.5591 56.6395 13.2747C56.6395 12.9903 56.8701 12.7597 57.1545 12.7597H57.2345C57.519 12.7597 57.7495 12.9903 57.7495 13.2747C57.7495 13.5591 57.519 13.7897 57.2345 13.7897H57.1545Z" fill="#424143"/>
<path d="M64.6492 11.7198C64.6492 11.7136 64.646 11.7078 64.6407 11.7045C64.5851 11.6701 64.5325 11.6315 64.4832 11.5887C64.2703 11.4039 63.8929 11.3348 63.6612 11.4953C63.5235 11.5907 63.3695 11.6789 63.1992 11.7598C62.7992 11.9498 62.4192 12.0398 62.0392 12.0398C61.6592 12.0398 61.4092 11.9398 61.2192 11.7398C61.0392 11.5398 60.9492 11.2498 60.9492 10.8698C60.9492 10.7199 60.9492 10.5664 60.9535 10.405C60.9587 10.2122 61.1115 10.0581 61.3041 10.0478C61.3559 10.0451 61.4076 10.0426 61.4594 10.0402C61.5957 10.0341 61.7092 10.1433 61.7092 10.2798C61.7092 10.4698 61.7492 10.6098 61.8392 10.6998C61.9292 10.7898 62.0692 10.8298 62.2592 10.8298C62.5192 10.8298 62.7892 10.7698 63.0592 10.6498C63.5527 10.4304 63.7012 9.8392 63.5627 9.31724C63.454 8.90726 63.3337 8.5022 63.1995 8.10206C63.1223 7.87178 63.2231 7.61784 63.4403 7.50922C63.7026 7.37806 64.0229 7.51077 64.1053 7.79225C64.1353 7.89476 64.1636 7.99726 64.1892 8.09977C64.2592 8.37977 64.3492 8.73977 64.4392 9.17977L64.5092 9.47976C64.5892 9.80976 64.6792 10.0698 64.7792 10.2498C64.8792 10.4298 64.9992 10.5498 65.1492 10.6198C65.4241 10.7572 65.6831 10.9849 65.6531 11.2907L65.6433 11.3895C65.6126 11.7017 65.3459 11.9543 65.0404 11.883C64.8946 11.8489 64.7663 11.7996 64.6578 11.7349C64.6524 11.7317 64.6492 11.726 64.6492 11.7198Z" fill="#424143"/>
<path d="M65.4696 12.7695H66.2896C66.5326 12.7695 66.7296 12.9664 66.7296 13.2095C66.7296 13.4525 66.5326 13.6495 66.2896 13.6495H64.7496C64.5066 13.6495 64.3096 13.4525 64.3096 13.2095C64.3096 12.9664 64.5066 12.7695 64.7496 12.7695H65.4796H65.4696ZM67.8846 10.2095C67.8818 10.2095 67.8796 10.2117 67.8796 10.2145C67.8788 10.5126 67.8087 10.7911 67.6596 11.0795C67.5096 11.3595 67.3096 11.5595 67.0596 11.6795C66.7296 11.8395 66.2396 11.9195 65.5996 11.9195C65.5796 11.9195 65.5596 11.8795 65.5296 11.7895C65.5096 11.7095 65.4996 11.5795 65.4996 11.4195C65.4996 11.1695 65.5196 10.9795 65.5696 10.8695C65.6196 10.7595 65.6696 10.6995 65.7196 10.6995C66.5596 10.6995 66.9796 10.5995 66.9796 10.4095C66.9796 10.2995 66.9496 10.0695 66.8796 9.71945C66.8426 9.5344 66.8055 9.35493 66.7685 9.17958C66.7139 8.92069 66.8677 8.66284 67.1221 8.59016C67.4054 8.50921 67.6979 8.68894 67.7473 8.97942C67.8416 9.53417 67.889 9.94255 67.8896 10.2045C67.8896 10.2073 67.8873 10.2095 67.8846 10.2095Z" fill="#424143"/>
<path d="M70.881 11.902C70.6578 11.8708 70.4024 12.0411 70.3448 12.259C70.2896 12.4677 70.2107 12.6571 70.1099 12.8308C69.9299 13.1408 69.6499 13.4008 69.2799 13.6308C69.0007 13.7924 68.6567 13.9379 68.2441 14.0671C67.975 14.1514 67.7169 14.0731 67.6144 13.8105C67.4951 13.5048 67.6528 13.1038 67.9666 13.0077C68.2789 12.9121 68.5358 12.8164 68.7399 12.7208C69.0599 12.5708 69.2799 12.4108 69.3999 12.2608C69.5199 12.1108 69.5799 11.9408 69.5799 11.7608C69.5799 11.4608 69.5499 11.1008 69.4799 10.6708C69.4324 10.3858 69.3757 10.0916 69.3098 9.78817C69.2561 9.54115 69.3967 9.2918 69.6377 9.21568C69.9147 9.12822 70.204 9.30429 70.2675 9.5877C70.3193 9.81853 70.3681 9.99956 70.4099 10.1308C70.4799 10.3508 70.5899 10.5008 70.7099 10.5808C70.9817 10.762 71.2722 10.9826 71.2402 11.3077L71.2046 11.6697C71.1906 11.8122 71.0228 11.9218 70.881 11.902Z" fill="#424143"/>
<path d="M73.415 8.10953C73.4142 8.10953 73.4139 8.11076 73.4148 8.11103C73.6043 8.17119 73.8628 8.27069 74.2 8.40953C74.68 8.59953 75.11 8.75953 75.51 8.88953C75.723 8.96053 75.945 9.02259 76.1743 9.07406C76.4843 9.14366 76.6927 9.44887 76.6156 9.7571L76.5853 9.87852C76.5367 10.0727 76.3502 10.1895 76.15 10.1895C76.03 10.1895 75.89 10.2295 75.74 10.2995C75.59 10.3695 75.36 10.4995 75.07 10.6695C74.64 10.9195 74.26 11.1195 73.91 11.2895C73.56 11.4595 73.15 11.5995 72.67 11.7295C72.19 11.8595 71.68 11.9195 71.14 11.9195C71.12 11.9195 71.1 11.8795 71.07 11.7895C71.05 11.7095 71.04 11.5795 71.04 11.4195C71.04 11.1695 71.06 10.9795 71.11 10.8695C71.16 10.7595 71.21 10.6995 71.26 10.6995C71.92 10.6995 72.52 10.6295 73.05 10.4895C73.2039 10.4489 73.3654 10.4006 73.5343 10.3448C74.0063 10.1887 73.9728 9.50132 73.51 9.31953C73.31 9.23953 73.16 9.17953 73.06 9.14953C72.96 9.11953 72.87 9.09953 72.8 9.09953C72.72 9.09953 72.64 9.13953 72.56 9.22953C72.5231 9.27113 72.4797 9.32981 72.4299 9.40558C72.3137 9.58248 72.0798 9.645 71.9006 9.53229C71.7367 9.42923 71.6794 9.2168 71.7737 9.04779C71.8839 8.85052 71.9816 8.68882 72.07 8.55953C72.2 8.36953 72.33 8.23953 72.47 8.14953C72.61 8.05953 72.76 8.01953 72.93 8.01953C73.0689 8.01953 73.2273 8.04903 73.4152 8.10802C73.4161 8.10829 73.4159 8.10953 73.415 8.10953ZM73.065 7.04953C72.7806 7.04953 72.55 6.81896 72.55 6.53453C72.55 6.2501 72.7806 6.01953 73.065 6.01953H73.145C73.4295 6.01953 73.66 6.2501 73.66 6.53453C73.66 6.81896 73.4295 7.04953 73.145 7.04953H73.065Z" fill="#424143"/>
</svg>
