<svg width="149" height="51" viewBox="0 0 149 51" fill="none" xmlns="http://www.w3.org/2000/svg">
<path fill-rule="evenodd" clip-rule="evenodd" d="M130.81 36.8553H134.66V44.8253H139.05C139.88 44.8253 140.33 44.2153 140.1 43.4253C139.65 41.8453 137.74 41.2253 135.9 41.2253V36.8653L143.95 33.4453V37.5353L140.33 39.0653C141.97 39.9953 143.22 41.1153 143.62 42.4253C144.12 44.1853 143.84 46.2253 142.35 47.6453C141.08 48.7053 140.16 48.7953 139.04 48.8753L130.8 48.8553H130.78L130.8 36.8753L130.81 36.8553Z" fill="white"/>
<path fill-rule="evenodd" clip-rule="evenodd" d="M125.76 36.8555V43.8755C125.76 44.3655 125.39 44.7655 124.92 44.8155L122.92 36.8555H119.08L121.11 44.7655H121.1V44.8255H119.65L120.63 48.8455H122.34H125.01C127.55 48.8255 129.61 46.7355 129.61 44.1655V36.8555H125.77H125.76Z" fill="white"/>
<path fill-rule="evenodd" clip-rule="evenodd" d="M149 48.8746H145.14V38.1146L149 36.4746V48.8746Z" fill="white"/>
<path d="M148.43 32.7251C148.11 32.3951 147.68 32.2051 147.21 32.2051H147.19C146.73 32.2051 146.29 32.3851 145.97 32.7051C145.64 33.0351 145.46 33.4651 145.45 33.9351C145.45 34.4351 145.61 34.8951 145.9 35.2351C145.74 35.3051 145.66 35.3351 145.48 35.4151C145.16 35.5451 145 35.9051 145.13 36.2351C145.23 36.4851 145.46 36.6351 145.71 36.6351C145.79 36.6351 145.87 36.6251 145.94 36.5951C146.8 36.2251 147.78 35.8351 148.17 35.5351C148.2 35.5151 148.28 35.4551 148.32 35.4051C148.77 34.9851 148.92 34.6251 148.92 33.9251C148.92 33.4551 148.74 33.0651 148.42 32.7351L148.43 32.7251ZM147.2 34.5951C146.86 34.5951 146.59 34.3151 146.6 33.9751C146.6 33.6351 146.88 33.3651 147.22 33.3651C147.56 33.3651 147.83 33.6451 147.82 33.9851C147.82 34.3251 147.54 34.5951 147.2 34.5951Z" fill="white"/>
<path d="M112.95 36.8555H112.64V48.8855H112.95V36.8555Z" fill="white"/>
<path d="M0.289648 44.0552C0.239648 42.8652 0.169648 39.9852 0.139648 38.9452L1.25965 38.8652C1.25965 39.6852 1.25965 42.6852 1.25965 43.4652C1.25965 44.3052 1.58965 44.7452 2.36965 44.7452L2.23965 46.0552C0.939648 46.0552 0.339648 45.3852 0.309648 44.0552H0.289648Z" fill="white"/>
<path d="M2.12988 45.6059C2.12988 45.0159 2.25988 44.7559 2.35988 44.7559H3.71988L3.58988 46.0659H2.22988C2.17988 46.0659 2.12988 45.9059 2.12988 45.6159V45.6059Z" fill="white"/>
<path d="M9.36926 44.2858C9.36926 45.2258 8.74926 46.1158 7.95926 46.1158C7.43926 46.1158 6.46926 45.9058 5.70926 45.6458C5.10926 45.9058 4.39926 46.0558 3.58926 46.0558C3.53926 46.0558 3.48926 45.8958 3.48926 45.6058C3.48926 45.0158 3.61926 44.7558 3.71926 44.7558H4.27926C4.20926 44.5958 4.16926 44.4058 4.16926 44.2158C4.16926 43.4958 4.56926 42.7458 5.11926 42.2958L4.61926 41.9758L5.11926 40.9258C7.72926 42.6258 9.35926 43.0158 9.35926 44.2958L9.36926 44.2858ZM5.81926 44.5158C6.30926 44.3558 6.59926 44.1058 6.59926 43.8358C6.59926 43.3358 6.30926 42.8358 5.93926 42.8358C5.48926 42.8358 5.01926 43.5158 5.01926 43.8258C5.01926 44.1158 5.29926 44.3558 5.81926 44.5158ZM8.17926 44.9458C8.38926 44.9458 8.49926 44.7458 8.49926 44.4658C8.49926 44.1358 8.05926 43.8758 7.33926 43.4958V43.5558C7.33926 43.9858 7.18926 44.3958 6.92926 44.7258C7.42926 44.8558 7.92926 44.9458 8.17926 44.9458Z" fill="white"/>
<path d="M17.3697 45.1866C17.0197 45.7266 15.4797 46.1966 13.4797 46.1966C11.4797 46.1966 10.7197 45.5066 10.7197 44.4066C10.7197 43.9766 10.8597 43.3366 11.1197 42.5166L11.9297 42.7566C11.7997 43.2266 11.7297 43.6266 11.7297 43.8466C11.7297 44.4566 12.1997 44.8866 13.6497 44.8866C15.9097 44.8866 17.0797 44.4266 17.0797 44.0366V43.0366L17.9697 42.9566V43.7366C17.9697 44.3766 18.2297 44.7566 19.0097 44.7566L18.8797 46.0666C18.0097 46.0666 17.5097 45.7766 17.3597 45.1966L17.3697 45.1866ZM15.8797 41.6566H12.8897V40.5566H15.8797V41.6566Z" fill="white"/>
<path d="M21.84 44.1753C21.84 44.8653 21.47 45.4653 20.88 45.7653C20.44 46.0153 19.55 46.0553 18.89 46.0553C18.84 46.0553 18.79 45.8953 18.79 45.6053C18.79 45.0153 18.92 44.7553 19.02 44.7553C20.34 44.7553 20.91 44.6053 20.91 44.4253C20.91 43.9853 20.56 43.4653 19.34 41.8953L19.58 40.7053L23.73 38.9453L23.93 39.9853L20.43 41.4753C21.5 42.9653 21.86 43.5653 21.86 44.1853L21.84 44.1753Z" fill="white"/>
<path d="M24.8092 45.2157C24.8092 46.2857 24.3392 47.1557 23.2392 47.7357C22.5892 48.0857 21.6392 48.3857 20.5092 48.5957C20.4192 48.3357 20.2592 47.7957 20.1592 47.4657C23.2892 46.8857 23.8592 46.1357 23.8592 45.5457C23.8592 45.1357 23.6692 44.0857 23.4492 43.1757L24.4992 42.8457C24.7092 43.9157 24.8192 44.7757 24.8192 45.2057L24.8092 45.2157Z" fill="white"/>
<path d="M26.2994 44.0552C26.2494 42.8652 26.1794 39.9852 26.1494 38.9452L27.2694 38.8652C27.2694 39.6852 27.2694 42.6852 27.2694 43.4652C27.2694 44.3052 27.5994 44.7452 28.3794 44.7452L28.2494 46.0552C26.9494 46.0552 26.3494 45.3852 26.3194 44.0552H26.2994Z" fill="white"/>
<path d="M32.6501 42.985C32.7801 43.425 32.8601 44.015 32.8601 44.565C32.8601 45.235 32.3301 46.055 31.7201 46.055C31.1701 46.055 30.1701 45.755 29.8001 45.215C29.3601 45.855 28.8801 46.055 28.2201 46.055C28.1701 46.055 28.1201 45.895 28.1201 45.605C28.1201 45.015 28.2501 44.755 28.3501 44.755C28.8901 44.755 29.1901 44.625 29.6001 43.825C30.2701 42.515 30.6701 42.125 31.5701 42.125C32.1401 42.125 32.4801 42.395 32.6401 42.985H32.6501ZM31.8401 44.765C31.9001 44.765 31.9301 44.715 31.9301 44.585C31.9301 44.425 31.8701 43.845 31.7601 43.545C31.7101 43.385 31.5801 43.235 31.4001 43.235C30.9101 43.235 30.7001 43.435 30.3601 44.175C30.6801 44.535 31.4401 44.765 31.8501 44.765H31.8401Z" fill="white"/>
<path d="M35.6498 45.8165C35.4998 46.6265 35.0198 47.2665 34.1298 47.7365C33.4798 48.0865 32.5298 48.3865 31.3998 48.5965C31.3098 48.3365 31.1498 47.7965 31.0498 47.4665C34.1798 46.8865 34.7498 46.1365 34.7498 45.5465C34.7498 45.1365 34.5598 44.0865 34.3398 43.2265L35.3798 42.8965C35.4298 43.2565 35.5298 43.7165 35.6198 44.0365C35.7598 44.5465 36.0098 44.7365 36.6798 44.7365L36.5498 46.0465C36.1198 46.0465 35.8298 45.9665 35.6498 45.8065V45.8165Z" fill="white"/>
<path d="M39.0892 44.1854C39.0892 44.8254 38.7392 45.5354 38.1992 45.7954C37.7392 46.0154 37.0892 46.0554 36.5492 46.0554C36.4992 46.0554 36.4492 45.8954 36.4492 45.6054C36.4492 45.0154 36.5792 44.7554 36.6792 44.7554C37.7592 44.7554 38.1092 44.6354 38.1092 44.4554C38.1092 44.1954 37.9492 43.2354 37.7792 42.5754L38.8292 42.2754C38.9292 42.7854 39.0792 43.7954 39.0792 44.1954L39.0892 44.1854Z" fill="white"/>
<path d="M44.1201 46.0564C43.9701 46.8364 43.5801 47.3864 42.9001 47.7664C42.2001 48.1664 41.2201 48.4564 39.8701 48.6064L39.6201 47.4264C42.2501 47.1164 43.2801 46.6864 43.3201 45.9564C42.9101 45.9964 42.3901 46.0064 41.9701 46.0064C41.0901 46.0064 40.6601 45.5464 40.6601 44.7964C40.6601 43.4564 41.3801 42.3164 42.3601 42.3164C43.4601 42.3164 44.0401 43.4864 44.1601 44.7364H45.0301L44.9001 46.0464H44.1201V46.0564ZM42.1601 44.8164C42.4901 44.8164 42.8501 44.8164 43.2201 44.7764C43.0701 43.9664 42.7201 43.4664 42.2301 43.4664C41.8101 43.4664 41.5201 43.9064 41.5201 44.3464C41.5201 44.6264 41.7201 44.8064 42.1601 44.8064V44.8164Z" fill="white"/>
<path d="M51.86 44.385C51.86 45.455 51.31 46.055 50.61 46.055C49.96 46.055 49.4 45.805 49.18 45.385C48.92 45.825 48.45 46.055 47.93 46.055C47.37 46.055 46.88 45.815 46.71 45.375C46.42 45.825 45.86 46.055 44.85 46.055C44.8 46.055 44.75 45.895 44.75 45.605C44.75 45.015 44.88 44.755 44.98 44.755C45.97 44.755 46.41 44.495 46.41 43.845V43.305L47.31 43.225V43.895C47.31 44.415 47.55 44.745 48.04 44.745C48.5 44.745 48.8 44.395 48.8 43.945V43.395L49.7 43.315V43.875C49.7 44.415 50.06 44.745 50.67 44.745C50.81 44.745 50.9 44.665 50.9 44.535C50.9 44.205 50.77 43.315 50.65 42.675L51.7 42.375C51.8 42.985 51.88 43.855 51.88 44.385H51.86Z" fill="white"/>
<path d="M58.6197 45.2151C58.6197 46.2851 58.1497 47.1551 57.0497 47.7351C56.3997 48.0851 55.4497 48.3851 54.3197 48.5951C54.2297 48.3351 54.0697 47.7951 53.9697 47.4651C57.0997 46.8851 57.6697 46.1351 57.6697 45.5451C57.6697 45.1351 57.4797 44.0851 57.2597 43.1751L58.3097 42.8451C58.5197 43.9151 58.6297 44.7751 58.6297 45.2051L58.6197 45.2151ZM58.3597 41.7451H56.9597V40.4551H58.3597V41.7451Z" fill="white"/>
<path d="M60.7595 46.0252L59.8795 46.1052L59.6895 38.9452L60.8095 38.8652L60.7595 46.0252Z" fill="white"/>
<path d="M70.93 45.8965C70.87 46.8065 70.55 47.3265 70.05 47.6865C69.36 48.1965 68.02 48.6265 66.91 48.6265C65.14 48.6265 64.29 47.8365 64.29 46.5065C64.29 45.8965 64.45 44.9765 64.78 43.8665L65.63 44.0865C65.41 44.9265 65.3 45.6065 65.3 46.0065C65.3 46.8265 65.91 47.3165 67.11 47.3165C68.18 47.3165 69.46 46.8765 69.86 46.4865C69.94 46.3965 70 46.2365 70 46.0665C70 45.4565 69.8 44.1565 69.61 43.2165L70.66 42.8965C70.9 44.5165 71.09 44.7665 72.06 44.7665L71.93 46.0765C71.44 46.0765 71.13 46.0265 70.93 45.8965Z" fill="white"/>
<path d="M74.4701 44.2166C74.4701 44.8566 74.1201 45.5666 73.5801 45.8266C73.1201 46.0466 72.4701 46.0866 71.9301 46.0866C71.8801 46.0866 71.8301 45.9266 71.8301 45.6366C71.8301 45.0466 71.9601 44.7866 72.0601 44.7866C73.1401 44.7866 73.4901 44.6666 73.4901 44.4866C73.4901 44.2266 73.3301 43.2666 73.1601 42.6066L74.2101 42.3066C74.3101 42.8166 74.4601 43.8266 74.4601 44.2266L74.4701 44.2166Z" fill="white"/>
<path d="M77.8096 43.9552C78.4496 43.4452 78.6496 42.8152 78.6396 41.9052L78.5696 38.9852L79.6596 38.8652V43.2452C79.6396 44.3252 79.9796 44.7552 80.7496 44.7552L80.6196 46.0652C79.4996 46.0652 78.9196 45.6652 78.8396 44.2852V44.2252C78.7296 44.4552 78.5796 44.6752 78.4096 44.8452C77.8696 45.3852 77.0396 45.8252 75.8196 46.2552C75.7696 46.1052 75.4796 45.4052 75.3496 45.0852C76.0196 44.8752 76.5696 44.6752 76.9996 44.4652C76.6196 43.1352 75.9296 41.6152 75.0596 40.1852L75.9896 39.4852C76.8196 40.9552 77.4596 42.5452 77.8196 43.9752L77.8096 43.9552Z" fill="white"/>
<path d="M83.1595 44.1854C83.1595 44.8254 82.8095 45.5354 82.2695 45.7954C81.8095 46.0154 81.1595 46.0554 80.6195 46.0554C80.5695 46.0554 80.5195 45.8954 80.5195 45.6054C80.5195 45.0154 80.6495 44.7554 80.7495 44.7554C81.8295 44.7554 82.1795 44.6354 82.1795 44.4554C82.1795 44.1954 82.0195 43.2354 81.8495 42.5754L82.8995 42.2754C82.9995 42.7854 83.1495 43.7954 83.1495 44.1954L83.1595 44.1854Z" fill="white"/>
<path d="M85.03 38.8859C84.59 38.8859 84.16 38.8059 83.89 38.6759L83.58 39.3959L83.04 39.0259L83.39 38.2659C83.58 37.8759 83.74 37.7559 83.93 37.7559C84.2 37.7559 84.46 37.9459 85.26 37.9459C85.7 37.9459 86.26 37.8759 86.61 37.7559L86.67 38.5359C86.25 38.7459 85.6 38.8859 85.03 38.8859ZM85.52 46.0259L84.64 46.1059L84.45 40.1059L85.57 40.0259L85.52 46.0259Z" fill="white"/>
<path d="M92.3693 45.1053C91.8393 45.7453 90.8493 46.1853 89.9793 46.1853C89.2093 46.1853 88.8193 45.7553 88.8193 44.9353C88.8193 44.7753 88.8193 44.3153 88.8493 44.0653L89.6893 44.0153V44.2653C89.6893 44.6953 89.8393 44.8753 90.2793 44.8753C90.8493 44.8753 91.5093 44.5953 92.0093 44.1353C91.8093 43.2853 91.5693 42.4453 91.2093 41.4253L92.1693 40.9453C92.4393 41.7753 92.6293 42.5753 92.8193 43.4553C93.0693 44.5353 93.4093 44.7553 94.1093 44.7553L93.9793 46.0653C93.1393 46.0653 92.6393 45.8153 92.3593 45.1253L92.3693 45.1053Z" fill="white"/>
<path d="M96.5296 44.1854C96.5296 44.8254 96.1796 45.5354 95.6396 45.7954C95.1796 46.0154 94.5296 46.0554 93.9896 46.0554C93.9396 46.0554 93.8896 45.8954 93.8896 45.6054C93.8896 45.0154 94.0197 44.7554 94.1197 44.7554C95.1997 44.7554 95.5497 44.6354 95.5497 44.4554C95.5497 44.1954 95.3897 43.2354 95.2197 42.5754L96.2696 42.2754C96.3696 42.7854 96.5196 43.7954 96.5196 44.1954L96.5296 44.1854Z" fill="white"/>
<path d="M99.51 45.8562C99.42 47.1962 98.74 48.0063 96.43 48.6463L96 47.5262C98.13 46.9462 98.55 46.4363 98.55 45.8863C98.55 45.1463 98.36 44.0962 98.14 43.2362L99.18 42.9062C99.23 43.2663 99.33 43.7263 99.42 44.0463C99.56 44.5563 99.81 44.7463 100.48 44.7463L100.35 46.0563C99.96 46.0563 99.69 45.9962 99.5 45.8562H99.51Z" fill="white"/>
<path d="M99.8196 45.6059C99.8196 45.0159 99.9496 44.7559 100.05 44.7559H101.41L101.28 46.0659C101.28 46.0659 100.04 46.0859 99.9196 46.0259C99.7996 45.9659 99.8196 45.8959 99.8196 45.6059Z" fill="white"/>
<path d="M107.509 43.136L107.229 44.236L106.869 44.196C106.099 44.196 104.269 46.056 101.289 46.056C101.239 46.056 101.189 45.896 101.189 45.606C101.189 45.016 101.319 44.756 101.419 44.756C102.849 44.756 103.939 44.496 105.509 43.756C104.119 43.376 103.549 42.996 103.179 42.996C102.979 42.996 102.839 43.136 102.529 43.706L101.839 43.276C102.379 42.216 102.729 41.836 103.289 41.836C104.029 41.836 105.519 42.836 107.529 43.146L107.509 43.136ZM102.479 40.706V39.416H103.879V40.706H102.479Z" fill="white"/>
<path d="M95.2097 47.666H92.2197V48.766H95.2097V47.666Z" fill="white"/>
<path d="M74.6394 47.666H71.6494V48.766H74.6394V47.666Z" fill="white"/>
<path d="M38.5798 47.666H35.5898V48.766H38.5798V47.666Z" fill="white"/>
<path d="M82.7301 40.0254H81.3301V41.3154H82.7301V40.0254Z" fill="white"/>
<path d="M68.2799 41.2852H66.8799V42.5752H68.2799V41.2852Z" fill="white"/>
<path d="M37.7799 49.375H36.3799V50.665H37.7799V49.375Z" fill="white"/>
<path d="M1.95 12.495L1.355 3.655L4.415 3.4L3.99 12.325L1.95 12.495ZM3.055 13.09C3.599 13.09 4.058 13.2827 4.432 13.668C4.81733 14.042 5.01 14.501 5.01 15.045C5.01 15.589 4.81733 16.0537 4.432 16.439C4.058 16.813 3.599 17 3.055 17C2.511 17 2.04633 16.813 1.661 16.439C1.287 16.0537 1.1 15.589 1.1 15.045C1.1 14.501 1.287 14.042 1.661 13.668C2.04633 13.2827 2.511 13.09 3.055 13.09ZM29.4913 17C28.0747 17 27.168 16.592 26.7713 15.776C26.5673 16.1613 26.2897 16.4617 25.9383 16.677C25.5983 16.8923 25.2243 17 24.8163 17C24.295 17 23.8587 16.8923 23.5073 16.677C23.1673 16.4617 22.918 16.1613 22.7593 15.776C22.5553 16.1613 22.238 16.4617 21.8073 16.677C21.388 16.8923 20.9177 17 20.3963 17C19.909 17 19.535 16.9093 19.2743 16.728C19.2177 17.4307 19.025 18.0823 18.6963 18.683C18.379 19.295 17.9257 19.8107 17.3363 20.23C16.7243 20.672 15.9027 21.0347 14.8713 21.318C13.8513 21.6127 12.803 21.76 11.7263 21.76C10.0943 21.76 8.84766 21.3917 7.98633 20.655C7.13633 19.9183 6.71133 18.8133 6.71133 17.34C6.71133 15.98 7.05133 14.195 7.73133 11.985L9.85633 12.58C9.64099 13.396 9.48799 14.059 9.39733 14.569C9.30666 15.0677 9.26133 15.5097 9.26133 15.895C9.26133 17.425 10.2813 18.19 12.3213 18.19C13.1487 18.19 14.01 18.071 14.9053 17.833C15.812 17.6063 16.4523 17.3287 16.8263 17C16.9963 16.8413 17.0813 16.6147 17.0813 16.32C17.0813 15.8667 16.9963 15.113 16.8263 14.059C16.6677 13.005 16.4693 11.9737 16.2313 10.965L18.8663 10.115C18.9797 11.0443 19.1043 11.747 19.2403 12.223C19.3877 12.6877 19.569 13.005 19.7843 13.175C19.9997 13.345 20.2887 13.43 20.6513 13.43C21.0367 13.43 21.3313 13.311 21.5353 13.073C21.7393 12.835 21.8413 12.5007 21.8413 12.07V11.05L24.0513 10.88V11.9C24.0513 12.92 24.3913 13.43 25.0713 13.43C25.366 13.43 25.5813 13.294 25.7173 13.022C25.8533 12.75 25.9213 12.3193 25.9213 11.73V10.37L28.1313 10.2V11.475C28.1313 12.1777 28.2673 12.682 28.5393 12.988C28.8227 13.2827 29.2533 13.43 29.8313 13.43L29.4913 17ZM21.4163 5.355V3.145H23.9663V5.355H21.4163ZM22.6063 6.205H22.7763H25.5813V8.5H22.7763H22.6063H19.8013V6.205H22.6063ZM40.204 17C38.9233 17 38.113 16.6203 37.773 15.861C37.5463 16.2917 37.2573 16.6317 36.906 16.881C36.566 17.1303 36.192 17.255 35.784 17.255C35.172 17.255 34.5203 17.085 33.829 16.745C33.1377 16.405 32.6277 16.0027 32.299 15.538C31.9023 16.082 31.4717 16.4617 31.007 16.677C30.5537 16.8923 30.0493 17 29.494 17C29.4373 17 29.3807 16.8697 29.324 16.609C29.2673 16.337 29.239 15.9573 29.239 15.47C29.239 14.6993 29.307 14.1667 29.443 13.872C29.5677 13.5773 29.698 13.43 29.834 13.43C30.1853 13.43 30.4687 13.3903 30.684 13.311C30.9107 13.2317 31.1147 13.0787 31.296 12.852C31.4887 12.6253 31.7097 12.2797 31.959 11.815C32.5937 10.625 33.2567 9.775 33.948 9.265C34.6507 8.755 35.4893 8.5 36.464 8.5C37.0307 8.5 37.467 8.64167 37.773 8.925C38.0903 9.20833 38.3 9.66167 38.402 10.285C38.5607 11.203 38.7137 11.8773 38.861 12.308C39.0197 12.7387 39.218 13.0333 39.456 13.192C39.7053 13.3507 40.068 13.43 40.544 13.43L40.204 17ZM33.761 12.665C34.0103 12.9257 34.3957 13.1637 34.917 13.379C35.4383 13.583 35.8973 13.685 36.294 13.685C36.396 13.685 36.4583 13.634 36.481 13.532C36.515 13.43 36.532 13.2543 36.532 13.005C36.532 12.461 36.4867 12.087 36.396 11.883C36.3167 11.6677 36.1693 11.56 35.954 11.56C35.3987 11.56 34.951 11.645 34.611 11.815C34.2823 11.985 33.999 12.2683 33.761 12.665ZM45.132 8.585C45.472 10.455 45.642 11.7583 45.642 12.495C45.642 13.311 45.4437 14.0987 45.047 14.858C44.6617 15.6173 44.1233 16.1613 43.432 16.49C43.0353 16.6827 42.5707 16.8187 42.038 16.898C41.5167 16.966 40.9047 17 40.202 17C40.1453 17 40.0887 16.8697 40.032 16.609C39.9753 16.337 39.947 15.9573 39.947 15.47C39.947 14.6993 40.015 14.1667 40.151 13.872C40.2757 13.5773 40.406 13.43 40.542 13.43C42.242 13.43 43.092 13.2317 43.092 12.835C43.092 12.4383 42.8653 11.2767 42.412 9.35L45.132 8.585ZM41.902 7.48V4.93H44.622V7.48H41.902ZM54.7644 17C54.4244 18.394 53.6197 19.4423 52.3504 20.145C51.5797 20.5643 50.6334 20.9043 49.5114 21.165C48.3894 21.437 47.0407 21.6353 45.4654 21.76C45.318 21.0233 45.1197 19.975 44.8704 18.615C47.5677 18.4337 49.5227 18.1787 50.7354 17.85C51.9594 17.5213 52.6337 17.1247 52.7584 16.66C51.9197 16.7733 51.047 16.83 50.1404 16.83C49.2564 16.83 48.582 16.592 48.1174 16.116C47.6527 15.64 47.4204 14.9713 47.4204 14.11C47.4204 13.192 47.579 12.3193 47.8964 11.492C48.225 10.6533 48.6727 9.97333 49.2394 9.452C49.806 8.93067 50.4464 8.67 51.1604 8.67C52.135 8.67 52.9567 9.08367 53.6254 9.911C54.294 10.727 54.719 11.9 54.9004 13.43H55.8354L55.4954 17H54.7644ZM49.5454 12.835C49.5454 13.0617 49.6247 13.2317 49.7834 13.345C49.9534 13.4583 50.2424 13.515 50.6504 13.515L52.4864 13.481C52.1804 12.257 51.5967 11.645 50.7354 11.645C50.418 11.645 50.1404 11.7753 49.9024 12.036C49.6644 12.2967 49.5454 12.563 49.5454 12.835ZM69.177 8.84C69.4037 10.4267 69.517 11.73 69.517 12.75C69.517 14.0647 69.2394 15.1017 68.684 15.861C68.14 16.6203 67.3977 17 66.457 17C65.7204 17 65.1027 16.8867 64.604 16.66C64.1054 16.422 63.7597 16.1217 63.567 15.759C63.363 16.1443 63.0457 16.4503 62.615 16.677C62.1844 16.8923 61.7084 17 61.187 17C60.575 17 60.065 16.8867 59.657 16.66C59.249 16.422 58.9827 16.099 58.858 15.691C58.586 16.1557 58.1837 16.49 57.651 16.694C57.1297 16.898 56.41 17 55.492 17C55.4354 17 55.3787 16.8697 55.322 16.609C55.2654 16.337 55.237 15.9573 55.237 15.47C55.237 14.6993 55.305 14.1667 55.441 13.872C55.5657 13.5773 55.696 13.43 55.832 13.43C56.58 13.43 57.1354 13.328 57.498 13.124C57.8607 12.92 58.042 12.5687 58.042 12.07V10.88L60.252 10.71V11.9C60.252 12.92 60.6487 13.43 61.442 13.43C61.8274 13.43 62.122 13.311 62.326 13.073C62.53 12.835 62.632 12.5007 62.632 12.07V11.05L64.842 10.88V11.9C64.842 12.41 64.9837 12.7953 65.267 13.056C65.5617 13.3053 65.9867 13.43 66.542 13.43C66.8254 13.43 66.967 13.3167 66.967 13.09C66.967 12.818 66.9217 12.376 66.831 11.764C66.7404 11.1407 66.6157 10.421 66.457 9.605L69.177 8.84ZM74.2817 10.03C74.463 10.9593 74.6047 11.8773 74.7067 12.784C74.82 13.6793 74.8767 14.433 74.8767 15.045C74.8767 16.2803 74.6217 17.2947 74.1117 18.088C73.613 18.8813 72.7913 19.567 71.6467 20.145C70.4113 20.757 68.6263 21.2953 66.2917 21.76L65.3567 18.87C67.204 18.5413 68.6433 18.207 69.6747 17.867C70.706 17.527 71.42 17.187 71.8167 16.847C72.2133 16.4957 72.4117 16.1217 72.4117 15.725C72.4117 15.3737 72.338 14.7503 72.1907 13.855C72.0433 12.9597 71.8337 11.968 71.5617 10.88L74.2817 10.03ZM89.6607 17C89.6607 17.5893 89.519 18.1503 89.2357 18.683C88.9637 19.2157 88.567 19.703 88.0457 20.145C87.445 20.6663 86.578 21.0913 85.4447 21.42C84.3114 21.76 83.1384 21.93 81.9257 21.93C80.135 21.93 78.792 21.5617 77.8967 20.825C77.0127 20.0997 76.5707 18.9947 76.5707 17.51C76.5707 16.15 76.9107 14.365 77.5907 12.155L79.7157 12.75C79.5004 13.566 79.3474 14.229 79.2567 14.739C79.166 15.2377 79.1207 15.6797 79.1207 16.065C79.1207 16.813 79.387 17.3797 79.9197 17.765C80.4637 18.1617 81.3307 18.36 82.5207 18.36C83.3934 18.36 84.1867 18.292 84.9007 18.156C85.6147 18.0313 86.1757 17.8727 86.5837 17.68C86.9917 17.4873 87.1957 17.3173 87.1957 17.17C87.1957 17.0793 87.088 17 86.8727 16.932C86.6574 16.8527 86.2607 16.7677 85.6827 16.677C85.1047 16.5863 84.249 16.4673 83.1157 16.32L83.7107 13.345C84.9574 13.4017 86.9124 13.43 89.5757 13.43H90.6807L90.3407 17H89.6607ZM96.8837 8.415C97.5184 8.415 98.0284 8.59067 98.4137 8.942C98.799 9.282 99.0824 9.81467 99.2637 10.54C99.3544 10.8913 99.4337 11.3277 99.5017 11.849C99.5697 12.359 99.6037 12.801 99.6037 13.175C99.6037 13.8663 99.4734 14.518 99.2127 15.13C98.952 15.742 98.6064 16.235 98.1757 16.609C97.7564 16.983 97.3257 17.17 96.8837 17.17C96.147 17.17 95.4104 17 94.6737 16.66C93.937 16.32 93.427 15.9403 93.1437 15.521C92.7357 16.065 92.2994 16.4503 91.8347 16.677C91.37 16.8923 90.8714 17 90.3387 17C90.282 17 90.2254 16.8697 90.1687 16.609C90.112 16.337 90.0837 15.9573 90.0837 15.47C90.0837 14.6993 90.1517 14.1667 90.2877 13.872C90.4124 13.5773 90.5427 13.43 90.6787 13.43C91.03 13.43 91.3134 13.3903 91.5287 13.311C91.7554 13.2203 91.9594 13.0673 92.1407 12.852C92.3334 12.6253 92.5544 12.2797 92.8037 11.815C93.3024 10.9083 93.7444 10.217 94.1297 9.741C94.515 9.25367 94.9174 8.91367 95.3367 8.721C95.7674 8.517 96.283 8.415 96.8837 8.415ZM94.6227 12.631C94.7474 12.8463 95.0874 13.0617 95.6427 13.277C96.198 13.4923 96.6967 13.6 97.1387 13.6C97.2974 13.6 97.3767 13.515 97.3767 13.345C97.3767 13.1523 97.3484 12.9143 97.2917 12.631C97.2464 12.3363 97.1954 12.0927 97.1387 11.9C97.014 11.5033 96.7874 11.305 96.4587 11.305C96.164 11.305 95.9204 11.339 95.7277 11.407C95.535 11.475 95.3537 11.6053 95.1837 11.798C95.025 11.9793 94.838 12.257 94.6227 12.631ZM108.794 14.45V11.9H111.514V14.45H108.794ZM116.104 9.18C116.319 10.4833 116.472 11.5657 116.563 12.427C116.653 13.277 116.699 14.1213 116.699 14.96C116.699 16.898 115.99 18.3713 114.574 19.38C113.95 19.822 113.123 20.1847 112.092 20.468C111.06 20.7627 109.989 20.91 108.879 20.91C107.247 20.91 106 20.5417 105.139 19.805C104.289 19.0683 103.864 17.9633 103.864 16.49C103.864 15.13 104.204 13.345 104.884 11.135L107.009 11.73C106.793 12.546 106.64 13.209 106.55 13.719C106.459 14.2177 106.414 14.6597 106.414 15.045C106.414 16.575 107.434 17.34 109.474 17.34C110.301 17.34 111.162 17.2267 112.058 17C112.964 16.762 113.605 16.4787 113.979 16.15C114.149 15.9913 114.234 15.7647 114.234 15.47C114.234 15.0167 114.154 14.263 113.996 13.209C113.837 12.1437 113.633 11.084 113.384 10.03L116.104 9.18ZM122.742 17C121.495 17 120.515 16.6657 119.801 15.997C119.087 15.317 118.707 14.263 118.662 12.835L118.322 3.655L121.212 3.4C121.2 4.488 121.183 5.92733 121.161 7.718C121.149 9.49733 121.138 10.5797 121.127 10.965C121.127 11.8377 121.274 12.4667 121.569 12.852C121.875 13.2373 122.379 13.43 123.082 13.43L122.742 17ZM124.19 5.355L124.02 3.825L129.46 1.445L129.715 2.975L124.19 5.355ZM132.69 17C132.089 17 131.551 16.932 131.075 16.796C130.61 16.66 130.106 16.3937 129.562 15.997C129.018 15.589 128.383 14.9827 127.658 14.178C127.477 14.6767 127.216 15.13 126.876 15.538C126.547 15.9347 126.134 16.252 125.635 16.49C125.193 16.694 124.74 16.83 124.275 16.898C123.822 16.966 123.312 17 122.745 17C122.688 17 122.632 16.8697 122.575 16.609C122.518 16.337 122.49 15.9573 122.49 15.47C122.49 14.6993 122.558 14.1667 122.694 13.872C122.819 13.5773 122.949 13.43 123.085 13.43C123.788 13.43 124.343 13.3733 124.751 13.26C125.17 13.1467 125.38 13.005 125.38 12.835C125.38 12.6197 125.165 12.2797 124.734 11.815C124.303 11.3503 123.555 10.7553 122.49 10.03L123.085 6.97L131.33 3.4L131.84 6.12L125.465 8.755C126.134 9.231 126.984 9.911 128.015 10.795C128.888 11.5543 129.585 12.1153 130.106 12.478C130.639 12.8407 131.12 13.09 131.551 13.226C131.982 13.362 132.475 13.43 133.03 13.43L132.69 17ZM137.619 8.585C137.959 10.455 138.129 11.7583 138.129 12.495C138.129 13.311 137.931 14.0987 137.534 14.858C137.149 15.6173 136.611 16.1613 135.919 16.49C135.523 16.6827 135.058 16.8187 134.525 16.898C134.004 16.966 133.392 17 132.689 17C132.633 17 132.576 16.8697 132.519 16.609C132.463 16.337 132.434 15.9573 132.434 15.47C132.434 14.6993 132.502 14.1667 132.638 13.872C132.763 13.5773 132.893 13.43 133.029 13.43C134.729 13.43 135.579 13.2317 135.579 12.835C135.579 12.4383 135.353 11.2767 134.899 9.35L137.619 8.585ZM134.049 18.445H134.219H137.024V20.74H134.219H134.049H131.244V18.445H134.049ZM140.248 16.32L139.738 3.655L142.628 3.4L142.458 16.065L140.248 16.32ZM147.561 10.03C147.742 10.9593 147.884 11.8773 147.986 12.784C148.099 13.6793 148.156 14.433 148.156 15.045C148.156 16.2803 147.901 17.2947 147.391 18.088C146.892 18.8813 146.071 19.567 144.926 20.145C143.691 20.757 141.906 21.2953 139.571 21.76L138.636 18.87C140.483 18.5413 141.923 18.207 142.954 17.867C143.985 17.527 144.699 17.187 145.096 16.847C145.493 16.4957 145.691 16.1217 145.691 15.725C145.691 15.3737 145.617 14.7503 145.47 13.855C145.323 12.9597 145.113 11.968 144.841 10.88L147.561 10.03Z" fill="white"/>
</svg>
