<svg width="75" height="18" viewBox="0 0 75 18" fill="none" xmlns="http://www.w3.org/2000/svg">
<g filter="url(#filter0_d_9999_138)">
<path d="M65.295 1.125H7.69498C4.06647 1.125 1.125 4.06649 1.125 7.695C1.125 11.3235 4.06647 14.265 7.69498 14.265H65.295C68.9235 14.265 71.865 11.3235 71.865 7.695C71.865 4.06649 68.9235 1.125 65.295 1.125Z" fill="white"/>
<path d="M65.295 1.125H7.69498C4.06647 1.125 1.125 4.06649 1.125 7.695C1.125 11.3235 4.06647 14.265 7.69498 14.265H65.295C68.9235 14.265 71.865 11.3235 71.865 7.695C71.865 4.06649 68.9235 1.125 65.295 1.125Z" stroke="#EC1C24" stroke-width="0.25" stroke-miterlimit="10"/>
</g>
<path d="M6.4258 8.61364V6.24484H7.5162V8.46324C7.5162 8.56351 7.53375 8.65625 7.56884 8.74148C7.60895 8.82671 7.66159 8.90191 7.72676 8.96708C7.79193 9.03225 7.86713 9.08239 7.95236 9.11748C8.03759 9.15257 8.12783 9.17012 8.22308 9.17012H9.59172C9.74713 9.17012 9.87748 9.11748 9.98276 9.0122C10.0931 8.90191 10.1482 8.76905 10.1482 8.61364V6.13204H11.2386V7.64356C11.2386 7.69871 11.2511 7.74633 11.2762 7.78644C11.3063 7.82655 11.3464 7.8466 11.3965 7.8466H11.8552C11.8853 7.8466 11.9104 7.85913 11.9304 7.8842C11.9555 7.90425 11.968 7.92681 11.968 7.95188V9.01972C11.968 9.0498 11.9555 9.07487 11.9304 9.09492C11.9104 9.11497 11.8853 9.125 11.8552 9.125H11.7048C11.5895 9.125 11.4868 9.10745 11.3965 9.07236C11.3113 9.03225 11.2536 8.99716 11.2236 8.96708V9.07988C11.2236 9.26537 11.1784 9.44084 11.0882 9.60628C10.998 9.77172 10.8751 9.91711 10.7197 10.0424C10.5693 10.1678 10.3939 10.2655 10.1933 10.3357C9.9978 10.4109 9.79225 10.4485 9.57668 10.4485H8.26068C8.005 10.4485 7.76436 10.4009 7.53876 10.3056C7.31817 10.2104 7.12516 10.08 6.95972 9.9146C6.79428 9.74916 6.66393 9.55364 6.56868 9.32804C6.47343 9.10745 6.4258 8.86932 6.4258 8.61364ZM8.3434 5.11684H9.321V6.13204H8.3434V5.11684ZM12.9059 6.97428L12.1314 6.2298L14.5302 3.4098L15.3123 4.13172L13.9136 5.78612H16.6885C16.879 5.78612 17.057 5.82372 17.2224 5.89892C17.3929 5.96911 17.5408 6.06687 17.6661 6.1922C17.7914 6.31753 17.8892 6.46543 17.9594 6.63588C18.0346 6.80132 18.0722 6.9818 18.0722 7.17732V7.7338C18.0722 7.93433 18.0321 8.11983 17.9518 8.29028C17.8716 8.46073 17.7638 8.60863 17.6285 8.73396C17.4981 8.85929 17.3477 8.95705 17.1773 9.02724C17.0068 9.09241 16.8289 9.125 16.6434 9.125H11.8531C11.8281 9.125 11.8055 9.11497 11.7854 9.09492C11.7604 9.06985 11.7478 9.04479 11.7478 9.01972V7.95188C11.7478 7.92681 11.7579 7.90425 11.7779 7.8842C11.798 7.85913 11.823 7.8466 11.8531 7.8466H16.8539C16.879 7.8466 16.9066 7.83657 16.9366 7.81652C16.9717 7.79647 16.9893 7.76137 16.9893 7.71124V7.14724C16.9893 7.09711 16.9717 7.057 16.9366 7.02692C16.9016 6.99183 16.8614 6.97428 16.8163 6.97428H12.9059ZM22.43 8.8242C22.43 9.03977 22.3974 9.24532 22.3322 9.44084C22.2671 9.63636 22.1743 9.81684 22.054 9.98228C21.9387 10.1477 21.7983 10.2931 21.6329 10.4184C21.4674 10.5438 21.2845 10.6415 21.0839 10.7117L19.8958 11.1178L19.5724 10.1176L20.7606 9.71156C20.926 9.65641 21.0614 9.57369 21.1666 9.4634C21.2769 9.35311 21.3321 9.21023 21.3321 9.03476V8.99716C21.2619 9.03727 21.1742 9.06985 21.0689 9.09492C20.9686 9.11497 20.8684 9.125 20.7681 9.125H20.4898C20.2843 9.125 20.0913 9.07988 19.9108 8.98964C19.7353 8.8994 19.5874 8.78159 19.4671 8.6362C19.3468 8.49081 19.2591 8.32537 19.2039 8.13988C19.1538 7.94937 19.1488 7.75385 19.1889 7.55332L19.3242 6.86148C19.3543 6.70607 19.407 6.56319 19.4822 6.43284C19.5624 6.30249 19.6601 6.18969 19.7754 6.09444C19.8908 5.99919 20.0211 5.92399 20.1665 5.86884C20.3119 5.81369 20.4648 5.78612 20.6252 5.78612H21.0388C21.2293 5.78612 21.4098 5.82372 21.5802 5.89892C21.7507 5.96911 21.8986 6.06687 22.0239 6.1922C22.1493 6.31753 22.247 6.46543 22.3172 6.63588C22.3924 6.80633 22.43 6.98681 22.43 7.17732V8.8242ZM21.3471 7.8466V7.1698C21.3371 7.08959 21.292 7.04447 21.2118 7.03444H20.5049C20.4447 7.02943 20.4021 7.06452 20.377 7.13972L20.2567 7.74884C20.2517 7.77391 20.2567 7.79647 20.2718 7.81652C20.2918 7.83657 20.3144 7.8466 20.3394 7.8466H21.3471ZM22.7443 11.1103L22.4209 10.1101L23.6467 9.689C23.8121 9.63385 23.945 9.53609 24.0452 9.39572C24.1455 9.26036 24.1956 9.10495 24.1956 8.92948V6.14708H25.2785V8.81668C25.2785 9.03225 25.2459 9.2378 25.1807 9.43332C25.1156 9.63385 25.0228 9.81684 24.9025 9.98228C24.7872 10.1477 24.6468 10.2931 24.4814 10.4184C24.3159 10.5438 24.133 10.639 23.9324 10.7042L22.7443 11.1103ZM28.3165 10.4485C28.0608 10.4485 27.8201 10.4009 27.5945 10.3056C27.374 10.2104 27.1809 10.08 27.0155 9.9146C26.8501 9.74916 26.7197 9.55364 26.6245 9.32804C26.5292 9.10745 26.4816 8.86932 26.4816 8.61364V6.24484H27.572V8.47076C27.572 8.57103 27.5895 8.66377 27.6246 8.749C27.6647 8.83423 27.7149 8.90943 27.775 8.9746C27.8402 9.03476 27.9154 9.08239 28.0006 9.11748C28.0858 9.15257 28.1761 9.17012 28.2713 9.17012H29.6475C29.8029 9.17012 29.9333 9.11748 30.0385 9.0122C30.1488 8.90191 30.204 8.76905 30.204 8.61364V6.13204H31.2944V8.79412C31.2944 9.01972 31.2493 9.23279 31.159 9.43332C31.0738 9.63385 30.956 9.80932 30.8056 9.95972C30.6552 10.1101 30.4797 10.2279 30.2792 10.3132C30.0786 10.4034 29.8631 10.4485 29.6325 10.4485H28.3165ZM28.3992 5.11684H29.3768V6.13204H28.3992V5.11684ZM35.12 8.8242C35.12 9.03977 35.0874 9.24532 35.0222 9.44084C34.9571 9.63636 34.8643 9.81684 34.744 9.98228C34.6287 10.1477 34.4883 10.2931 34.3229 10.4184C34.1574 10.5438 33.9745 10.6415 33.7739 10.7117L32.5858 11.1178L32.2624 10.1176L33.4506 9.71156C33.616 9.65641 33.7514 9.57369 33.8566 9.4634C33.9669 9.35311 34.0221 9.21023 34.0221 9.03476V8.99716C33.9519 9.03727 33.8642 9.06985 33.7589 9.09492C33.6586 9.11497 33.5584 9.125 33.4581 9.125H33.1798C32.9743 9.125 32.7813 9.07988 32.6008 8.98964C32.4253 8.8994 32.2774 8.78159 32.1571 8.6362C32.0368 8.49081 31.9491 8.32537 31.8939 8.13988C31.8438 7.94937 31.8388 7.75385 31.8789 7.55332L32.0142 6.86148C32.0443 6.70607 32.097 6.56319 32.1722 6.43284C32.2524 6.30249 32.3501 6.18969 32.4654 6.09444C32.5808 5.99919 32.7111 5.92399 32.8565 5.86884C33.0019 5.81369 33.1548 5.78612 33.3152 5.78612H33.7288C33.9193 5.78612 34.0998 5.82372 34.2702 5.89892C34.4407 5.96911 34.5886 6.06687 34.7139 6.1922C34.8393 6.31753 34.937 6.46543 35.0072 6.63588C35.0824 6.80633 35.12 6.98681 35.12 7.17732V8.8242ZM34.0371 7.8466V7.1698C34.0271 7.08959 33.982 7.04447 33.9018 7.03444H33.1949C33.1347 7.02943 33.0921 7.06452 33.067 7.13972L32.9467 7.74884C32.9417 7.77391 32.9467 7.79647 32.9618 7.81652C32.9818 7.83657 33.0044 7.8466 33.0294 7.8466H34.0371ZM36.8029 9.125H35.72V3.81588H36.8029V9.125ZM37.9305 6.9442C37.9305 6.78879 37.9581 6.63588 38.0132 6.48548C38.0684 6.33007 38.1436 6.18719 38.2388 6.05684C38.3391 5.92649 38.4594 5.81369 38.5998 5.71844C38.7401 5.61817 38.893 5.55049 39.0585 5.5154L39.9834 5.30484V4.78596H41.0738V7.59092C41.0738 7.65609 41.1014 7.71625 41.1566 7.7714C41.2117 7.82153 41.2794 7.8466 41.3596 7.8466H41.51C41.5802 7.8466 41.6153 7.87919 41.6153 7.94436V9.01972C41.6153 9.08991 41.5802 9.125 41.51 9.125H41.3596C41.0889 9.125 40.8608 9.05983 40.6753 8.92948C40.4898 8.79913 40.3319 8.62617 40.2015 8.4106C40.1313 8.46073 40.0336 8.49833 39.9082 8.5234C39.7879 8.54847 39.6826 8.561 39.5924 8.561H39.0886C38.9432 8.561 38.8003 8.52841 38.6599 8.46324C38.5196 8.39807 38.3942 8.31284 38.2839 8.20756C38.1786 8.10228 38.0934 7.98196 38.0282 7.8466C37.9631 7.70623 37.9305 7.56335 37.9305 7.41796V6.9442ZM39.9834 6.44036L39.3518 6.58324C39.2515 6.60831 39.1688 6.65844 39.1036 6.73364C39.0384 6.80884 39.0058 6.89908 39.0058 7.00436V7.3202H39.9834V6.44036ZM42.4246 7.8466C42.4848 7.8466 42.5349 7.82655 42.575 7.78644C42.6151 7.74132 42.6352 7.69119 42.6352 7.63604V5.91396H43.7181V7.62852C43.7181 7.83407 43.678 8.02959 43.5977 8.21508C43.5225 8.39556 43.4173 8.55348 43.2819 8.68884C43.1465 8.8242 42.9861 8.93199 42.8006 9.0122C42.6201 9.0874 42.4271 9.125 42.2216 9.125H41.5072C41.4771 9.125 41.452 9.11497 41.432 9.09492C41.4119 9.06985 41.4019 9.04479 41.4019 9.01972V7.96692C41.4019 7.93684 41.4119 7.90927 41.432 7.8842C41.452 7.85913 41.4771 7.8466 41.5072 7.8466H42.4246ZM41.5222 10.0274H42.4998V11.0426H41.5222V10.0274ZM48.0744 8.8242C48.0744 9.03977 48.0418 9.24532 47.9766 9.44084C47.9114 9.63636 47.8187 9.81684 47.6984 9.98228C47.5831 10.1477 47.4427 10.2931 47.2773 10.4184C47.1118 10.5438 46.9288 10.6415 46.7283 10.7117L45.5401 11.1178L45.2168 10.1176L46.4049 9.71156C46.5704 9.65641 46.7057 9.57369 46.811 9.4634C46.9213 9.35311 46.9765 9.21023 46.9765 9.03476V8.99716C46.9063 9.03727 46.8185 9.06985 46.7133 9.09492C46.613 9.11497 46.5127 9.125 46.4125 9.125H46.1342C45.9287 9.125 45.7357 9.07988 45.5552 8.98964C45.3797 8.8994 45.2318 8.78159 45.1115 8.6362C44.9912 8.49081 44.9034 8.32537 44.8483 8.13988C44.7982 7.94937 44.7932 7.75385 44.8333 7.55332L44.9686 6.86148C44.9987 6.70607 45.0513 6.56319 45.1265 6.43284C45.2068 6.30249 45.3045 6.18969 45.4198 6.09444C45.5351 5.99919 45.6655 5.92399 45.8109 5.86884C45.9562 5.81369 46.1092 5.78612 46.2696 5.78612H46.6832C46.8737 5.78612 47.0542 5.82372 47.2246 5.89892C47.3951 5.96911 47.543 6.06687 47.6683 6.1922C47.7936 6.31753 47.8914 6.46543 47.9616 6.63588C48.0368 6.80633 48.0744 6.98681 48.0744 7.17732V8.8242ZM46.9915 7.8466V7.1698C46.9815 7.08959 46.9364 7.04447 46.8561 7.03444H46.1493C46.0891 7.02943 46.0465 7.06452 46.0214 7.13972L45.9011 7.74884C45.8961 7.77391 45.9011 7.79647 45.9161 7.81652C45.9362 7.83657 45.9588 7.8466 45.9838 7.8466H46.9915ZM48.3886 11.1103L48.0653 10.1101L49.291 9.689C49.4565 9.63385 49.5893 9.53609 49.6896 9.39572C49.7899 9.26036 49.84 9.10495 49.84 8.92948V6.14708H50.9229V8.81668C50.9229 9.03225 50.8903 9.2378 50.8251 9.43332C50.7599 9.63385 50.6672 9.81684 50.5469 9.98228C50.4316 10.1477 50.2912 10.2931 50.1258 10.4184C49.9603 10.5438 49.7773 10.639 49.5768 10.7042L48.3886 11.1103ZM52.126 8.61364V6.24484H53.2164V8.46324C53.2164 8.56351 53.2339 8.65625 53.269 8.74148C53.3091 8.82671 53.3617 8.90191 53.4269 8.96708C53.4921 9.03225 53.5673 9.08239 53.6525 9.11748C53.7377 9.15257 53.828 9.17012 53.9232 9.17012H55.2919C55.4473 9.17012 55.5776 9.11748 55.6829 9.0122C55.7932 8.90191 55.8484 8.76905 55.8484 8.61364V6.13204H56.9388V7.64356C56.9388 7.69871 56.9513 7.74633 56.9764 7.78644C57.0064 7.82655 57.0465 7.8466 57.0967 7.8466H57.5554C57.5855 7.8466 57.6105 7.85913 57.6306 7.8842C57.6557 7.90425 57.6682 7.92681 57.6682 7.95188V9.01972C57.6682 9.0498 57.6557 9.07487 57.6306 9.09492C57.6105 9.11497 57.5855 9.125 57.5554 9.125H57.405C57.2897 9.125 57.1869 9.10745 57.0967 9.07236C57.0115 9.03225 56.9538 8.99716 56.9237 8.96708V9.07988C56.9237 9.26537 56.8786 9.44084 56.7884 9.60628C56.6981 9.77172 56.5753 9.91711 56.4199 10.0424C56.2695 10.1678 56.094 10.2655 55.8935 10.3357C55.698 10.4109 55.4924 10.4485 55.2768 10.4485H53.9608C53.7052 10.4485 53.4645 10.4009 53.2389 10.3056C53.0183 10.2104 52.8253 10.08 52.6599 9.9146C52.4944 9.74916 52.3641 9.55364 52.2688 9.32804C52.1736 9.10745 52.126 8.86932 52.126 8.61364ZM54.0436 5.11684H55.0212V6.13204H54.0436V5.11684ZM57.7338 10.0274H58.7114V11.0426H57.7338V10.0274ZM58.7114 10.0274H59.689V11.0426H58.7114V10.0274ZM59.2829 7.8466C59.343 7.8466 59.3932 7.82655 59.4333 7.78644C59.4734 7.74132 59.4934 7.69119 59.4934 7.63604V5.91396H60.5763V7.62852C60.5763 7.83407 60.5362 8.02959 60.456 8.21508C60.3808 8.39556 60.2755 8.55348 60.1402 8.68884C60.0048 8.8242 59.8444 8.93199 59.6589 9.0122C59.4784 9.0874 59.2854 9.125 59.0798 9.125H57.5533C57.5232 9.125 57.4981 9.11497 57.4781 9.09492C57.458 9.06985 57.448 9.04479 57.448 9.01972V7.96692C57.448 7.93684 57.458 7.90927 57.4781 7.8842C57.4981 7.85913 57.5232 7.8466 57.5533 7.8466H59.2829ZM62.1829 9.125H61.1V3.81588H62.1829V9.125ZM63.0247 11.1103L62.7014 10.1026L63.9271 9.689C64.0926 9.63385 64.2254 9.53609 64.3257 9.39572C64.426 9.26036 64.4761 9.10495 64.4761 8.92948V6.14708H65.559V8.81668C65.559 9.03225 65.5264 9.2378 65.4612 9.43332C65.396 9.63385 65.3033 9.81684 65.183 9.98228C65.0677 10.1477 64.9273 10.2931 64.7618 10.4184C64.5964 10.5438 64.4134 10.639 64.2129 10.7042L63.0247 11.1103ZM64.5212 4.52276H65.4988V5.53796H64.5212V4.52276ZM67.2427 9.125H66.1599V3.81588H67.2427V9.125Z" fill="#EA2429"/>
<defs>
<filter id="filter0_d_9999_138" x="0" y="0" width="74.9902" height="17.3906" filterUnits="userSpaceOnUse" color-interpolation-filters="sRGB">
<feFlood flood-opacity="0" result="BackgroundImageFix"/>
<feColorMatrix in="SourceAlpha" type="matrix" values="0 0 0 0 0 0 0 0 0 0 0 0 0 0 0 0 0 0 127 0" result="hardAlpha"/>
<feOffset dx="1" dy="1"/>
<feGaussianBlur stdDeviation="1"/>
<feColorMatrix type="matrix" values="0 0 0 0 0.239216 0 0 0 0 0 0 0 0 0 0 0 0 0 0.63 0"/>
<feBlend mode="normal" in2="BackgroundImageFix" result="effect1_dropShadow_9999_138"/>
<feBlend mode="normal" in="SourceGraphic" in2="effect1_dropShadow_9999_138" result="shape"/>
</filter>
</defs>
</svg>
