<svg width="71" height="35" viewBox="0 0 71 35" fill="none" xmlns="http://www.w3.org/2000/svg">
<path d="M46.79 2.46595C50.15 0.265951 54.38 -0.504049 58.3 0.325951C62.43 1.16595 66.15 3.81595 68.31 7.43595C70.5 11.006 71.09 15.486 69.97 19.516C68.49 24.936 63.7299 29.146 58.2899 30.346C56.0799 30.906 53.8 30.736 51.55 30.756H39.81C39.81 26.416 39.81 22.086 39.81 17.746C39.81 16.116 39.67 14.476 39.97 12.876C40.64 8.64595 43.19 4.77595 46.79 2.46595ZM47.87 13.586C47.49 14.846 47.5699 16.166 47.5699 17.466C47.5699 21.876 47.5699 26.286 47.5699 30.696C48.9699 28.116 50.37 25.546 51.77 22.966C53.46 22.916 55.18 23.126 56.83 22.696C59.24 22.066 61.36 20.276 62.26 17.926C63.14 15.696 62.78 13.066 61.42 11.106C59.82 8.71595 56.78 7.37595 53.94 7.89595C51.03 8.38595 48.63 10.766 47.86 13.576L47.87 13.586Z" fill="white"/>
<path d="M33.5898 32.0352H36.1299C36.1299 32.8852 36.1299 33.7252 36.1299 34.5752H33.5898C33.5898 33.7252 33.5898 32.8852 33.5898 32.0352Z" fill="white"/>
<path d="M30.3105 32.0352H32.8505C32.8505 32.8852 32.8505 33.7252 32.8505 34.5752H30.3105C30.3105 33.7252 30.3105 32.8852 30.3105 32.0352Z" fill="white"/>
<path d="M27.0195 32.0352H29.5595C29.5595 32.8852 29.5595 33.7252 29.5595 34.5752H27.0195C27.0195 33.7252 27.0195 32.8852 27.0195 32.0352Z" fill="white"/>
<path d="M2.05078 16.2754H4.59079C4.59079 17.1254 4.59079 17.9654 4.59079 18.8154H2.05078C2.05078 17.9654 2.05078 17.1254 2.05078 16.2754Z" fill="white"/>
<path d="M6.69951 16.2756H9.22951C9.22951 19.7556 9.22951 23.5256 9.22951 27.0156C9.18951 27.5756 9.6495 28.1456 10.2395 28.1456C12.6295 28.1656 12.5495 28.1456 14.9395 28.1456C15.5695 28.2056 16.1395 27.6356 16.0895 27.0056C16.0895 23.5256 16.0895 19.7556 16.0895 16.2656H18.6195C18.6195 19.8056 18.6195 23.6256 18.6195 27.1656C18.6295 28.9856 17.0495 30.6156 15.2395 30.6756C12.6995 30.6856 12.6395 30.6756 10.0995 30.6756C8.2795 30.6256 6.6795 28.9856 6.6895 27.1656C6.6895 23.6256 6.6895 19.8056 6.6895 16.2656L6.69951 16.2756Z" fill="white"/>
<path d="M20.7598 16.2756H23.2998C23.2998 19.7556 23.2998 23.5256 23.2998 27.0056C23.2498 27.5756 23.7098 28.1456 24.2998 28.1456C27.8398 28.1656 28.9098 28.1456 32.4498 28.1456C33.0798 28.2056 33.6398 27.6356 33.5798 27.0056C33.5798 25.2156 33.5798 24.7956 33.5798 22.9956H36.1198C36.1198 24.8856 36.1298 25.4056 36.1198 27.2956C36.0498 29.1056 34.4198 30.6856 32.6098 30.6756C28.9798 30.6756 27.8098 30.6756 24.1798 30.6756C22.3598 30.6256 20.7498 28.9956 20.7598 27.1656C20.7598 23.6256 20.7598 19.8056 20.7598 16.2656V16.2756Z" fill="white"/>
<path d="M2.04001 20.1855H4.59001C4.59001 22.4255 4.59001 24.9355 4.59001 27.1755C4.59001 28.6355 3.57001 30.0155 2.20001 30.4855C1.50001 30.7555 0.73 30.6855 0 30.6955V28.1755C0.4 28.1655 0.810001 28.1755 1.22 28.1355C1.73 28.0355 2.10001 27.5255 2.06001 27.0155C2.06001 24.8355 2.06001 22.3755 2.06001 20.1955L2.04001 20.1855Z" fill="white"/>
</svg>
