<svg width="685" height="348" viewBox="0 0 685 348" fill="none" xmlns="http://www.w3.org/2000/svg">
<mask id="mask0_496_12082" style="mask-type:alpha" maskUnits="userSpaceOnUse" x="-319" y="-488" width="1004" height="981">
<g clip-path="url(#clip0_496_12082)">
<rect width="846.927" height="557.11" transform="translate(-318.656 75.9033) rotate(-41.6714)" fill="url(#paint0_linear_496_12082)"/>
<path d="M305.384 29.4271C297.495 40.711 292.312 62.1707 292.312 62.1707C292.312 62.1707 299.668 50.1077 317.796 35.467C339.012 18.3332 360.968 24.1804 381.189 6.18186C400.819 -11.2898 392.635 -35.1653 392.635 -35.1653C392.635 -35.1653 394.325 -23.6025 369.523 -3.53739C347.628 14.1755 319.093 9.82062 305.384 29.4271Z" stroke="#575753" stroke-width="1.50164" stroke-linejoin="round"/>
<path d="M308.474 50.957C304.965 55.5448 302.372 64.4291 302.372 64.4291C302.372 64.4291 305.922 58.2539 310.908 54.8212C319.309 49.0374 327.628 51.6625 334.907 44.5172C339.476 40.0309 343.689 30.6692 343.689 30.6692C343.689 30.6692 338.272 35.7194 334.217 38.0954C324.306 43.9007 315.3 42.0301 308.474 50.957Z" stroke="#575753" stroke-width="1.50164" stroke-linejoin="round"/>
<path d="M328.69 -5.38094C317.596 2.48277 308.191 17.89 308.191 17.89C308.191 17.89 321.029 7.4687 332.936 3.90675C347.336 -0.401224 359.43 -3.59306 368.841 -9.95921C376.617 -15.219 382.234 -29.9208 382.234 -29.9208C382.234 -29.9208 373.384 -24.0539 363.597 -20.3686C349.713 -15.1406 340.793 -13.9604 328.69 -5.38094Z" stroke="#575753" stroke-width="1.50164" stroke-linejoin="round"/>
<path d="M-93.483 121.099C-101.373 132.383 -106.555 153.843 -106.555 153.843C-106.555 153.843 -99.1995 141.78 -81.0709 127.139C-59.8551 110.006 -37.8993 115.853 -17.6779 97.8542C1.95158 80.3826 -6.23236 56.507 -6.23236 56.507C-6.23236 56.507 -4.54212 68.0699 -29.3442 88.135C-51.2387 105.848 -79.7743 101.493 -93.483 121.099Z" stroke="#575753" stroke-width="1.50164" stroke-linejoin="round"/>
<path d="M140.165 236.796C132.276 248.08 127.093 269.539 127.093 269.539C127.093 269.539 134.449 257.476 152.578 242.836C173.793 225.702 195.749 231.549 215.971 213.551C235.6 196.079 227.416 172.203 227.416 172.203C227.416 172.203 229.106 183.766 204.304 203.831C182.41 221.544 153.874 217.189 140.165 236.796Z" stroke="#575753" stroke-width="1.50164" stroke-linejoin="round"/>
<path d="M143.247 258.326C139.738 262.913 137.145 271.798 137.145 271.798C137.145 271.798 140.695 265.623 145.681 262.19C154.082 256.406 162.402 259.031 169.68 251.886C174.25 247.4 178.463 238.038 178.463 238.038C178.463 238.038 173.046 243.088 168.99 245.464C159.08 251.269 150.074 249.399 143.247 258.326Z" stroke="#575753" stroke-width="1.50164" stroke-linejoin="round"/>
<path d="M163.463 201.987C152.369 209.851 142.964 225.258 142.964 225.258C142.964 225.258 155.802 214.837 167.709 211.275C182.11 206.967 194.204 203.775 203.615 197.409C211.39 192.149 217.007 177.447 217.007 177.447C217.007 177.447 208.157 183.314 198.37 187C184.486 192.228 175.566 193.408 163.463 201.987Z" stroke="#575753" stroke-width="1.50164" stroke-linejoin="round"/>
<path d="M200.322 317.939C192.432 329.223 187.249 350.682 187.249 350.682C187.249 350.682 194.605 338.619 212.734 323.979C233.95 306.845 255.905 312.692 276.127 294.694C295.756 277.222 287.572 253.346 287.572 253.346C287.572 253.346 289.263 264.909 264.461 284.974C242.566 302.687 214.03 298.332 200.322 317.939Z" stroke="#575753" stroke-width="1.50164" stroke-linejoin="round"/>
<path d="M203.411 339.469C199.902 344.056 197.309 352.941 197.309 352.941C197.309 352.941 200.859 346.766 205.845 343.333C214.246 337.549 222.566 340.174 229.844 333.029C234.414 328.543 238.627 319.181 238.627 319.181C238.627 319.181 233.21 324.231 229.154 326.607C219.244 332.412 210.238 330.542 203.411 339.469Z" stroke="#575753" stroke-width="1.50164" stroke-linejoin="round"/>
<path d="M223.627 283.131C212.533 290.994 203.128 306.402 203.128 306.402C203.128 306.402 215.966 295.98 227.873 292.418C242.274 288.11 254.368 284.919 263.779 278.553C271.554 273.293 277.171 258.591 277.171 258.591C277.171 258.591 268.321 264.458 258.534 268.143C244.651 273.371 235.73 274.551 223.627 283.131Z" stroke="#575753" stroke-width="1.50164" stroke-linejoin="round"/>
<path d="M250.119 175.119C242.229 186.403 237.046 207.863 237.046 207.863C237.046 207.863 244.402 195.8 262.531 181.159C283.747 164.025 305.702 169.872 325.924 151.874C345.553 134.402 337.369 110.527 337.369 110.527C337.369 110.527 339.059 122.089 314.257 142.155C292.363 159.867 263.827 155.513 250.119 175.119Z" stroke="#575753" stroke-width="1.50164" stroke-linejoin="round"/>
<path d="M253.2 196.649C249.691 201.237 247.098 210.122 247.098 210.122C247.098 210.122 250.648 203.946 255.634 200.514C264.035 194.73 272.355 197.355 279.633 190.21C284.203 185.723 288.416 176.362 288.416 176.362C288.416 176.362 282.999 181.412 278.943 183.788C269.033 189.593 260.027 187.722 253.2 196.649Z" stroke="#575753" stroke-width="1.50164" stroke-linejoin="round"/>
<path d="M273.416 140.31C262.323 148.174 252.918 163.581 252.918 163.581C252.918 163.581 265.755 153.16 277.662 149.598C292.063 145.29 304.157 142.098 313.568 135.732C321.343 130.472 326.961 115.771 326.961 115.771C326.961 115.771 318.11 121.638 308.324 125.323C294.44 130.551 285.519 131.731 273.416 140.31Z" stroke="#575753" stroke-width="1.50164" stroke-linejoin="round"/>
<path d="M312.517 254.265C304.627 265.549 299.445 287.009 299.445 287.009C299.445 287.009 306.801 274.946 324.929 260.305C346.145 243.171 368.101 249.018 388.322 231.02C407.952 213.548 399.768 189.673 399.768 189.673C399.768 189.673 401.458 201.235 376.656 221.301C354.761 239.013 326.226 234.659 312.517 254.265Z" stroke="#575753" stroke-width="1.50164" stroke-linejoin="round"/>
<path d="M315.599 275.795C312.09 280.383 309.497 289.267 309.497 289.267C309.497 289.267 313.047 283.092 318.033 279.66C326.434 273.876 334.753 276.501 342.032 269.356C346.601 264.869 350.814 255.508 350.814 255.508C350.814 255.508 345.397 260.558 341.342 262.934C331.431 268.739 322.425 266.868 315.599 275.795Z" stroke="#575753" stroke-width="1.50164" stroke-linejoin="round"/>
<path d="M335.815 219.456C324.721 227.32 315.316 242.727 315.316 242.727C315.316 242.727 328.154 232.306 340.061 228.744C354.461 224.436 366.555 221.244 375.966 214.878C383.742 209.618 389.359 194.917 389.359 194.917C389.359 194.917 380.509 200.784 370.722 204.469C356.838 209.697 347.918 210.877 335.815 219.456Z" stroke="#575753" stroke-width="1.50164" stroke-linejoin="round"/>
<path d="M483.853 51.5067C475.963 62.7906 470.781 84.2503 470.781 84.2503C470.781 84.2503 478.136 72.1873 496.265 57.5466C517.481 40.4128 539.437 46.26 559.658 28.2615C579.288 10.7898 571.104 -13.0857 571.104 -13.0857C571.104 -13.0857 572.794 -1.5229 547.992 18.5422C526.097 36.2551 497.562 31.9002 483.853 51.5067Z" stroke="#575753" stroke-width="1.50164" stroke-linejoin="round"/>
<path d="M486.934 73.0366C483.426 77.6244 480.833 86.5087 480.833 86.5087C480.833 86.5087 484.383 80.3335 489.369 76.9008C497.77 71.117 506.089 73.7421 513.368 66.5968C517.937 62.1105 522.15 52.7488 522.15 52.7488C522.15 52.7488 516.733 57.799 512.677 60.175C502.767 65.9803 493.761 64.1097 486.934 73.0366Z" stroke="#575753" stroke-width="1.50164" stroke-linejoin="round"/>
<path d="M507.15 16.6982C496.057 24.5619 486.652 39.9691 486.652 39.9691C486.652 39.9691 499.49 29.5478 511.397 25.9859C525.797 21.6779 537.891 18.486 547.302 12.1199C555.078 6.86008 560.695 -7.84172 560.695 -7.84172C560.695 -7.84172 551.845 -1.97475 542.058 1.71051C528.174 6.93852 519.254 8.11872 507.15 16.6982Z" stroke="#575753" stroke-width="1.50164" stroke-linejoin="round"/>
<path d="M366.548 111.692C358.659 122.976 353.476 144.435 353.476 144.435C353.476 144.435 360.832 132.372 378.96 117.732C400.176 100.598 422.132 106.445 442.353 88.4465C461.983 70.9749 453.799 47.0993 453.799 47.0993C453.799 47.0993 455.489 58.6622 430.687 78.7273C408.793 96.4401 380.257 92.0853 366.548 111.692Z" stroke="#575753" stroke-width="1.50164" stroke-linejoin="round"/>
<path d="M369.638 133.222C366.129 137.809 363.536 146.694 363.536 146.694C363.536 146.694 367.086 140.519 372.072 137.086C380.473 131.302 388.792 133.927 396.071 126.782C400.641 122.296 404.853 112.934 404.853 112.934C404.853 112.934 399.437 117.984 395.381 120.36C385.47 126.165 376.465 124.295 369.638 133.222Z" stroke="#575753" stroke-width="1.50164" stroke-linejoin="round"/>
<path d="M389.854 76.8837C378.76 84.7474 369.355 100.155 369.355 100.155C369.355 100.155 382.193 89.7334 394.1 86.1714C408.5 81.8634 420.594 78.6716 430.005 72.3054C437.781 67.0456 443.398 52.3438 443.398 52.3438C443.398 52.3438 434.548 58.2108 424.761 61.8961C410.877 67.1241 401.957 68.3043 389.854 76.8837Z" stroke="#575753" stroke-width="1.50164" stroke-linejoin="round"/>
<path d="M417.205 -27.8864C409.315 -16.6025 404.132 4.85723 404.132 4.85723C404.132 4.85723 411.488 -7.20578 429.617 -21.8464C450.832 -38.9803 472.788 -33.1331 493.01 -51.1316C512.639 -68.6033 504.455 -92.4788 504.455 -92.4788C504.455 -92.4788 506.145 -80.916 481.343 -60.8509C459.449 -43.138 430.913 -47.4929 417.205 -27.8864Z" stroke="#575753" stroke-width="1.50164" stroke-linejoin="round"/>
<path d="M420.286 -6.3565C416.777 -1.7687 414.184 7.11564 414.184 7.11564C414.184 7.11564 417.734 0.940412 422.72 -2.49227C431.121 -8.27611 439.441 -5.65093 446.719 -12.7963C451.289 -17.2826 455.502 -26.6443 455.502 -26.6443C455.502 -26.6443 450.085 -21.594 446.029 -19.2181C436.119 -13.4128 427.113 -15.2834 420.286 -6.3565Z" stroke="#575753" stroke-width="1.50164" stroke-linejoin="round"/>
<path d="M79.3764 148.171C71.4868 159.455 66.3041 180.914 66.3041 180.914C66.3041 180.914 73.6599 168.851 91.7885 154.211C113.004 137.077 134.96 142.924 155.182 124.926C174.811 107.454 166.627 83.5783 166.627 83.5783C166.627 83.5783 168.317 95.1412 143.515 115.206C121.621 132.919 93.0851 128.564 79.3764 148.171Z" stroke="#575753" stroke-width="1.50164" stroke-linejoin="round"/>
<path d="M82.4579 169.701C78.9493 174.288 76.3563 183.173 76.3563 183.173C76.3563 183.173 79.9063 176.998 84.8922 173.565C93.2932 167.781 101.613 170.406 108.891 163.261C113.461 158.775 117.674 149.413 117.674 149.413C117.674 149.413 112.257 154.463 108.201 156.839C98.2907 162.644 89.2849 160.774 82.4579 169.701Z" stroke="#575753" stroke-width="1.50164" stroke-linejoin="round"/>
<path d="M102.674 113.363C91.5804 121.226 82.1753 136.634 82.1753 136.634C82.1753 136.634 95.013 126.212 106.92 122.65C121.321 118.342 133.415 115.151 142.826 108.784C150.601 103.525 156.218 88.8228 156.218 88.8228C156.218 88.8228 147.368 94.6898 137.581 98.3751C123.697 103.603 114.777 104.783 102.674 113.363Z" stroke="#575753" stroke-width="1.50164" stroke-linejoin="round"/>
<path d="M280.102 80.0743C292.224 73.546 314.14 70.886 314.14 70.886C314.14 70.886 301.306 76.7939 284.662 93.103C265.184 112.189 268.447 134.675 248.225 152.674C228.596 170.145 205.83 159.249 205.83 159.249C205.83 159.249 217.119 162.268 239.924 139.959C260.056 120.266 259.038 91.4177 280.102 80.0743Z" stroke="#575753" stroke-width="1.50164" stroke-linejoin="round"/>
<path d="M301.135 85.6304C306.098 82.6774 315.223 81.1318 315.223 81.1318C315.223 81.1318 308.678 83.9419 304.691 88.4963C297.972 96.1701 299.615 104.738 291.674 111.139C286.688 115.158 276.901 118.257 276.901 118.257C276.901 118.257 282.545 113.462 285.376 109.709C292.291 100.539 291.477 91.3765 301.135 85.6304Z" stroke="#575753" stroke-width="1.50164" stroke-linejoin="round"/>
<path d="M242.833 99.1786C251.93 89.0715 268.324 81.516 268.324 81.516C268.324 81.516 256.484 93.059 251.566 104.473C245.618 118.277 241.045 129.919 233.631 138.529C227.505 145.642 212.252 149.517 212.252 149.517C212.252 149.517 219.105 141.407 223.9 132.113C230.702 118.929 232.909 110.206 242.833 99.1786Z" stroke="#575753" stroke-width="1.50164" stroke-linejoin="round"/>
<path d="M511.602 -41.5419C523.724 -48.0702 545.64 -50.7302 545.64 -50.7302C545.64 -50.7302 532.806 -44.8223 516.162 -28.5132C496.684 -9.42678 499.947 13.0588 479.725 31.0574C460.096 48.529 437.33 37.6324 437.33 37.6324C437.33 37.6324 448.619 40.6517 471.424 18.343C491.556 -1.3505 490.538 -30.1986 511.602 -41.5419Z" stroke="#575753" stroke-width="1.50164" stroke-linejoin="round"/>
<path d="M532.635 -35.9853C537.598 -38.9384 546.723 -40.484 546.723 -40.484C546.723 -40.484 540.178 -37.6738 536.191 -33.1194C529.472 -25.4456 531.115 -16.8778 523.174 -10.4769C518.188 -6.45803 508.401 -3.35897 508.401 -3.35897C508.401 -3.35897 514.045 -8.15372 516.876 -11.9069C523.791 -21.0772 522.977 -30.2392 532.635 -35.9853Z" stroke="#575753" stroke-width="1.50164" stroke-linejoin="round"/>
<path d="M474.333 -22.4371C483.43 -32.5442 499.824 -40.0997 499.824 -40.0997C499.824 -40.0997 487.984 -28.5567 483.066 -17.143C477.118 -3.33869 472.545 8.30377 465.131 16.9133C459.005 24.0266 443.752 27.9014 443.752 27.9014C443.752 27.9014 450.605 19.7911 455.4 10.4974C462.202 -2.68678 464.409 -11.4101 474.333 -22.4371Z" stroke="#575753" stroke-width="1.50164" stroke-linejoin="round"/>
<path d="M576.133 37.7281C588.255 31.1998 610.171 28.5398 610.171 28.5398C610.171 28.5398 597.337 34.4477 580.693 50.7568C561.215 69.8432 564.478 92.3288 544.257 110.327C524.627 127.799 501.861 116.902 501.861 116.902C501.861 116.902 513.15 119.922 535.955 97.613C556.087 77.9195 555.069 49.0715 576.133 37.7281Z" stroke="#575753" stroke-width="1.50164" stroke-linejoin="round"/>
<path d="M538.857 56.8319C547.954 46.7248 564.347 39.1693 564.347 39.1693C564.347 39.1693 552.508 50.7123 547.59 62.1261C541.641 75.9304 537.069 87.5728 529.655 96.1823C523.529 103.296 508.275 107.17 508.275 107.17C508.275 107.17 515.128 99.0601 519.923 89.7665C526.726 76.5823 528.932 67.8589 538.857 56.8319Z" stroke="#575753" stroke-width="1.50164" stroke-linejoin="round"/>
<path d="M117.25 283.326C129.373 276.797 151.288 274.138 151.288 274.138C151.288 274.138 138.454 280.045 121.81 296.354C102.333 315.441 105.595 337.926 85.3737 355.925C65.7442 373.397 42.9784 362.5 42.9784 362.5C42.9784 362.5 54.2674 365.519 77.0724 343.211C97.2041 323.517 96.1866 294.669 117.25 283.326Z" stroke="#575753" stroke-width="1.50164" stroke-linejoin="round"/>
<path d="M138.283 288.882C143.247 285.929 152.372 284.383 152.372 284.383C152.372 284.383 145.827 287.193 141.839 291.748C135.12 299.422 136.763 307.989 128.823 314.39C123.837 318.409 114.05 321.508 114.05 321.508C114.05 321.508 119.694 316.713 122.524 312.96C129.439 303.79 128.625 294.628 138.283 288.882Z" stroke="#575753" stroke-width="1.50164" stroke-linejoin="round"/>
<path d="M79.9818 302.43C89.0785 292.323 105.472 284.767 105.472 284.767C105.472 284.767 93.6329 296.31 88.7146 307.724C82.7662 321.529 78.1939 333.171 70.7797 341.78C64.6539 348.894 49.4001 352.769 49.4001 352.769C49.4001 352.769 56.2534 344.658 61.0484 335.365C67.8507 322.18 70.0571 313.457 79.9818 302.43Z" stroke="#575753" stroke-width="1.50164" stroke-linejoin="round"/>
<path d="M177.289 366.588C189.412 360.06 211.327 357.4 211.327 357.4C211.327 357.4 198.493 363.308 181.85 379.617C162.372 398.703 165.634 421.189 145.413 439.187C125.783 456.659 103.017 445.762 103.017 445.762C103.017 445.762 114.306 448.782 137.111 426.473C157.243 406.779 156.226 377.931 177.289 366.588Z" stroke="#575753" stroke-width="1.50164" stroke-linejoin="round"/>
<path d="M222.438 -7.30652C234.56 -13.8348 256.476 -16.4948 256.476 -16.4948C256.476 -16.4948 243.642 -10.587 226.998 5.72211C207.52 24.8086 210.783 47.2942 190.561 65.2927C170.932 82.7644 148.166 71.8677 148.166 71.8677C148.166 71.8677 159.455 74.887 182.26 52.5783C202.392 32.8848 201.374 4.03679 222.438 -7.30652Z" stroke="#575753" stroke-width="1.50164" stroke-linejoin="round"/>
<path d="M243.471 -1.74993C248.434 -4.70301 257.559 -6.24861 257.559 -6.24861C257.559 -6.24861 251.014 -3.43843 247.027 1.11593C240.308 8.78974 241.951 17.3576 234.01 23.7584C229.024 27.7773 219.237 30.8764 219.237 30.8764C219.237 30.8764 224.881 26.0816 227.712 22.3285C234.627 13.1581 233.813 3.99613 243.471 -1.74993Z" stroke="#575753" stroke-width="1.50164" stroke-linejoin="round"/>
<path d="M185.169 11.7982C194.266 1.6911 210.66 -5.86435 210.66 -5.86435C210.66 -5.86435 198.82 5.67866 193.902 17.0924C187.954 30.8967 183.381 42.5391 175.967 51.1487C169.841 58.262 154.588 62.1368 154.588 62.1368C154.588 62.1368 161.441 54.0265 166.236 44.7328C173.038 31.5486 175.245 22.8252 185.169 11.7982Z" stroke="#575753" stroke-width="1.50164" stroke-linejoin="round"/>
<path d="M56.461 194.701C68.5835 188.172 90.4994 185.513 90.4994 185.513C90.4994 185.513 77.6649 191.42 61.0214 207.729C41.5435 226.816 44.806 249.301 24.5846 267.3C4.95518 284.772 -17.8106 273.875 -17.8106 273.875C-17.8106 273.875 -6.52171 276.894 16.2834 254.586C36.415 234.892 35.3976 206.044 56.461 194.701Z" stroke="#575753" stroke-width="1.50164" stroke-linejoin="round"/>
<path d="M77.4942 200.257C82.4578 197.304 91.5828 195.758 91.5828 195.758C91.5828 195.758 85.0377 198.568 81.0502 203.123C74.3314 210.797 75.9744 219.364 68.0335 225.765C63.0477 229.784 53.2607 232.883 53.2607 232.883C53.2607 232.883 58.9048 228.088 61.7349 224.335C68.65 215.165 67.8361 206.003 77.4942 200.257Z" stroke="#575753" stroke-width="1.50164" stroke-linejoin="round"/>
<path d="M19.1927 213.805C28.2895 203.698 44.6832 196.142 44.6832 196.142C44.6832 196.142 32.8438 207.685 27.9256 219.099C21.9772 232.904 17.4048 244.546 9.99059 253.155C3.86485 260.269 -11.389 264.144 -11.389 264.144C-11.389 264.144 -4.53562 256.033 0.259375 246.74C7.06167 233.555 9.26802 224.832 19.1927 213.805Z" stroke="#575753" stroke-width="1.50164" stroke-linejoin="round"/>
<path d="M163.672 143.501C175.794 136.972 197.71 134.312 197.71 134.312C197.71 134.312 184.876 140.22 168.232 156.529C148.754 175.616 152.017 198.101 131.796 216.1C112.166 233.571 89.4003 222.675 89.4003 222.675C89.4003 222.675 100.689 225.694 123.494 203.385C143.626 183.692 142.609 154.844 163.672 143.501Z" stroke="#575753" stroke-width="1.50164" stroke-linejoin="round"/>
<path d="M184.705 149.057C189.669 146.104 198.794 144.559 198.794 144.559C198.794 144.559 192.249 147.369 188.261 151.923C181.542 159.597 183.185 168.165 175.244 174.566C170.259 178.584 160.472 181.684 160.472 181.684C160.472 181.684 166.116 176.889 168.946 173.136C175.861 163.965 175.047 154.803 184.705 149.057Z" stroke="#575753" stroke-width="1.50164" stroke-linejoin="round"/>
<path d="M126.404 162.605C135.5 152.498 151.894 144.943 151.894 144.943C151.894 144.943 140.055 156.486 135.136 167.9C129.188 181.704 124.616 193.346 117.202 201.956C111.076 209.069 95.8219 212.944 95.8219 212.944C95.8219 212.944 102.675 204.834 107.47 195.54C114.273 182.356 116.479 173.632 126.404 162.605Z" stroke="#575753" stroke-width="1.50164" stroke-linejoin="round"/>
<path d="M393.172 19.6417C405.294 13.1134 427.21 10.4534 427.21 10.4534C427.21 10.4534 414.376 16.3612 397.732 32.6704C378.254 51.7568 381.517 74.2424 361.296 92.2409C341.666 109.713 318.9 98.816 318.9 98.816C318.9 98.816 330.189 101.835 352.994 79.5266C373.126 59.8331 372.109 30.985 393.172 19.6417Z" stroke="#575753" stroke-width="1.50164" stroke-linejoin="round"/>
<path d="M414.205 25.1978C419.169 22.2447 428.294 20.6991 428.294 20.6991C428.294 20.6991 421.749 23.5093 417.761 28.0637C411.042 35.7375 412.685 44.3053 404.744 50.7062C399.759 54.7251 389.972 57.8241 389.972 57.8241C389.972 57.8241 395.616 53.0294 398.446 49.2763C405.361 40.1059 404.547 30.9439 414.205 25.1978Z" stroke="#575753" stroke-width="1.50164" stroke-linejoin="round"/>
<path d="M355.904 38.7465C365 28.6393 381.394 21.0839 381.394 21.0839C381.394 21.0839 369.555 32.6269 364.636 44.0406C358.688 57.8449 354.116 69.4874 346.702 78.0969C340.576 85.2102 325.322 89.085 325.322 89.085C325.322 89.085 332.175 80.9747 336.97 71.681C343.773 58.4968 345.979 49.7735 355.904 38.7465Z" stroke="#575753" stroke-width="1.50164" stroke-linejoin="round"/>
<path d="M454.453 99.7867C466.576 93.2584 488.492 90.5984 488.492 90.5984C488.492 90.5984 475.657 96.5063 459.014 112.815C439.536 131.902 442.798 154.387 422.577 172.386C402.947 189.858 380.182 178.961 380.182 178.961C380.182 178.961 391.47 181.98 414.276 159.672C434.407 139.978 433.39 111.13 454.453 99.7867Z" stroke="#575753" stroke-width="1.50164" stroke-linejoin="round"/>
<path d="M475.486 105.343C480.45 102.39 489.575 100.844 489.575 100.844C489.575 100.844 483.03 103.654 479.042 108.209C472.324 115.883 473.967 124.45 466.026 130.851C461.04 134.87 451.253 137.969 451.253 137.969C451.253 137.969 456.897 133.174 459.727 129.421C466.642 120.251 465.828 111.089 475.486 105.343Z" stroke="#575753" stroke-width="1.50164" stroke-linejoin="round"/>
<path d="M417.185 118.891C426.282 108.784 442.675 101.229 442.675 101.229C442.675 101.229 430.836 112.772 425.918 124.186C419.969 137.99 415.397 149.632 407.983 158.242C401.857 165.355 386.603 169.23 386.603 169.23C386.603 169.23 393.457 161.12 398.252 151.826C405.054 138.642 407.26 129.919 417.185 118.891Z" stroke="#575753" stroke-width="1.50164" stroke-linejoin="round"/>
<path d="M653.625 -69.4442C665.748 -75.9725 687.663 -78.6325 687.663 -78.6325C687.663 -78.6325 674.829 -72.7247 658.185 -56.4156C638.708 -37.3291 641.97 -14.8435 621.749 3.15501C602.119 20.6267 579.353 9.73005 579.353 9.73005C579.353 9.73005 590.642 12.7493 613.447 -9.55938C633.579 -29.2528 632.562 -58.1009 653.625 -69.4442Z" stroke="#575753" stroke-width="1.50164" stroke-linejoin="round"/>
<path d="M616.357 -50.34C625.454 -60.4471 641.847 -68.0025 641.847 -68.0025C641.847 -68.0025 630.008 -56.4595 625.09 -45.0458C619.141 -31.2415 614.569 -19.5991 607.155 -10.9895C601.029 -3.87622 585.775 -0.00138359 585.775 -0.00138359C585.775 -0.00138359 592.628 -8.11173 597.423 -17.4054C604.226 -30.5896 606.432 -39.3129 616.357 -50.34Z" stroke="#575753" stroke-width="1.50164" stroke-linejoin="round"/>
<path d="M227.953 227.01C240.076 220.482 261.992 217.822 261.992 217.822C261.992 217.822 249.157 223.729 232.514 240.039C213.036 259.125 216.298 281.611 196.077 299.609C176.447 317.081 153.682 306.184 153.682 306.184C153.682 306.184 164.97 309.203 187.776 286.895C207.907 267.201 206.89 238.353 227.953 227.01Z" stroke="#575753" stroke-width="1.50164" stroke-linejoin="round"/>
<path d="M248.986 232.566C253.95 229.613 263.075 228.068 263.075 228.068C263.075 228.068 256.53 230.878 252.542 235.432C245.824 243.106 247.467 251.674 239.526 258.075C234.54 262.094 224.753 265.193 224.753 265.193C224.753 265.193 230.397 260.398 233.227 256.645C240.142 247.475 239.328 238.313 248.986 232.566Z" stroke="#575753" stroke-width="1.50164" stroke-linejoin="round"/>
<path d="M190.685 246.115C199.782 236.008 216.175 228.452 216.175 228.452C216.175 228.452 204.336 239.995 199.418 251.409C193.469 265.213 188.897 276.856 181.483 285.465C175.357 292.578 160.103 296.453 160.103 296.453C160.103 296.453 166.957 288.343 171.752 279.049C178.554 265.865 180.76 257.142 190.685 246.115Z" stroke="#575753" stroke-width="1.50164" stroke-linejoin="round"/>
<path d="M340.141 163.337C352.263 156.808 374.179 154.148 374.179 154.148C374.179 154.148 361.345 160.056 344.701 176.365C325.223 195.452 328.486 217.937 308.264 235.936C288.635 253.407 265.869 242.511 265.869 242.511C265.869 242.511 277.158 245.53 299.963 223.221C320.095 203.528 319.077 174.68 340.141 163.337Z" stroke="#575753" stroke-width="1.50164" stroke-linejoin="round"/>
<path d="M361.174 168.893C366.137 165.94 375.263 164.394 375.263 164.394C375.263 164.394 368.717 167.205 364.73 171.759C358.011 179.433 359.654 188.001 351.713 194.402C346.727 198.42 336.94 201.519 336.94 201.519C336.94 201.519 342.585 196.725 345.415 192.972C352.33 183.801 351.516 174.639 361.174 168.893Z" stroke="#575753" stroke-width="1.50164" stroke-linejoin="round"/>
<path d="M302.872 182.441C311.969 172.334 328.363 164.779 328.363 164.779C328.363 164.779 316.524 176.322 311.605 187.735C305.657 201.54 301.085 213.182 293.67 221.792C287.545 228.905 272.291 232.78 272.291 232.78C272.291 232.78 279.144 224.67 283.939 215.376C290.741 202.192 292.948 193.468 302.872 182.441Z" stroke="#575753" stroke-width="1.50164" stroke-linejoin="round"/>
<path d="M333.383 -67.8607C345.505 -74.389 367.421 -77.049 367.421 -77.049C367.421 -77.049 354.587 -71.1412 337.943 -54.8321C318.465 -35.7456 321.728 -13.26 301.507 4.73851C281.877 22.2102 259.111 11.3135 259.111 11.3135C259.111 11.3135 270.4 14.3328 293.205 -7.97588C313.337 -27.6693 312.319 -56.5174 333.383 -67.8607Z" stroke="#575753" stroke-width="1.50164" stroke-linejoin="round"/>
<path d="M296.115 -48.7565C305.211 -58.8636 321.605 -66.419 321.605 -66.419C321.605 -66.419 309.766 -54.876 304.847 -43.4623C298.899 -29.658 294.327 -18.0156 286.912 -9.40604C280.787 -2.29273 265.533 1.58211 265.533 1.58211C265.533 1.58211 272.386 -6.52823 277.181 -15.8219C283.984 -29.0061 286.19 -37.7294 296.115 -48.7565Z" stroke="#575753" stroke-width="1.50164" stroke-linejoin="round"/>
<path d="M-6.8202 112.313C5.30229 105.784 27.2181 103.124 27.2181 103.124C27.2181 103.124 14.3837 109.032 -2.25987 125.341C-21.7377 144.428 -18.4752 166.913 -38.6966 184.912C-58.3261 202.383 -81.0919 191.487 -81.0919 191.487C-81.0919 191.487 -69.803 194.506 -46.9979 172.197C-26.8663 152.504 -27.8837 123.656 -6.8202 112.313Z" stroke="#575753" stroke-width="1.50164" stroke-linejoin="round"/>
<path d="M14.2129 117.869C19.1765 114.916 28.3016 113.371 28.3016 113.371C28.3016 113.371 21.7564 116.181 17.7689 120.735C11.0501 128.409 12.6932 136.977 4.75223 143.378C-0.233598 147.396 -10.0206 150.496 -10.0206 150.496C-10.0206 150.496 -4.3764 145.701 -1.5463 141.948C5.36875 132.777 4.5548 123.615 14.2129 117.869Z" stroke="#575753" stroke-width="1.50164" stroke-linejoin="round"/>
<path d="M3.06261 344.755C15.1851 338.227 37.1009 335.567 37.1009 335.567C37.1009 335.567 24.2665 341.475 7.62295 357.784C-11.8549 376.871 -8.59239 399.356 -28.8138 417.355C-48.4433 434.826 -71.2091 423.93 -71.2091 423.93C-71.2091 423.93 -59.9201 426.949 -37.1151 404.64C-16.9834 384.947 -18.0009 356.099 3.06261 344.755Z" stroke="#575753" stroke-width="1.50164" stroke-linejoin="round"/>
<path d="M24.0957 350.312C29.0593 347.359 38.1844 345.813 38.1844 345.813C38.1844 345.813 31.6393 348.624 27.6517 353.178C20.933 360.852 22.576 369.42 14.635 375.82C9.64921 379.839 -0.137761 382.938 -0.137761 382.938C-0.137761 382.938 5.50641 378.144 8.33651 374.391C15.2516 365.22 14.4376 356.058 24.0957 350.312Z" stroke="#575753" stroke-width="1.50164" stroke-linejoin="round"/>
<path d="M-34.2057 363.86C-25.109 353.753 -8.71528 346.198 -8.71528 346.198C-8.71528 346.198 -20.5546 357.741 -25.4729 369.154C-31.4213 382.959 -35.9936 394.601 -43.4078 403.211C-49.5336 410.324 -64.7874 414.199 -64.7874 414.199C-64.7874 414.199 -57.9341 406.088 -53.1391 396.795C-46.3368 383.611 -44.1304 374.887 -34.2057 363.86Z" stroke="#575753" stroke-width="1.50164" stroke-linejoin="round"/>
<path d="M105.125 52.8815C117.248 46.3531 139.163 43.6932 139.163 43.6932C139.163 43.6932 126.329 49.601 109.685 65.9101C90.2076 84.9966 93.4701 107.482 73.2487 125.481C53.6192 142.952 30.8534 132.056 30.8534 132.056C30.8534 132.056 42.1424 135.075 64.9474 112.766C85.0791 93.0728 84.0616 64.2248 105.125 52.8815Z" stroke="#575753" stroke-width="1.50164" stroke-linejoin="round"/>
<path d="M126.158 58.4376C131.122 55.4845 140.247 53.9389 140.247 53.9389C140.247 53.9389 133.702 56.7491 129.714 61.3034C122.995 68.9772 124.638 77.5451 116.698 83.9459C111.712 87.9648 101.925 91.0639 101.925 91.0639C101.925 91.0639 107.569 86.2691 110.399 82.516C117.314 73.3456 116.5 64.1836 126.158 58.4376Z" stroke="#575753" stroke-width="1.50164" stroke-linejoin="round"/>
<path d="M67.8568 71.9857C76.9535 61.8786 93.3472 54.3231 93.3472 54.3231C93.3472 54.3231 81.5079 65.8662 76.5896 77.2799C70.6412 91.0842 66.0689 102.727 58.6547 111.336C52.5289 118.449 37.2751 122.324 37.2751 122.324C37.2751 122.324 44.1284 114.214 48.9234 104.92C55.7257 91.7361 57.9321 83.0127 67.8568 71.9857Z" stroke="#575753" stroke-width="1.50164" stroke-linejoin="round"/>
<path d="M43.2189 -34.7479C55.3414 -41.2763 77.2572 -43.9362 77.2572 -43.9362C77.2572 -43.9362 64.4228 -38.0284 47.7792 -21.7193C28.3013 -2.63284 31.5639 19.8528 11.3424 37.8513C-8.28701 55.3229 -31.0528 44.4263 -31.0528 44.4263C-31.0528 44.4263 -19.7639 47.4456 3.04117 25.1369C23.1728 5.44344 22.1554 -23.4046 43.2189 -34.7479Z" stroke="#575753" stroke-width="1.50164" stroke-linejoin="round"/>
<path d="M64.252 -29.1918C69.2156 -32.1449 78.3406 -33.6905 78.3406 -33.6905C78.3406 -33.6905 71.7955 -30.8803 67.808 -26.326C61.0892 -18.6522 62.7322 -10.0843 54.7913 -3.68345C49.8055 0.335426 40.0185 3.43448 40.0185 3.43448C40.0185 3.43448 45.6627 -1.36026 48.4928 -5.11339C55.4078 -14.2838 54.5939 -23.4458 64.252 -29.1918Z" stroke="#575753" stroke-width="1.50164" stroke-linejoin="round"/>
<path d="M5.95053 -15.6432C15.0473 -25.7503 31.441 -33.3058 31.441 -33.3058C31.441 -33.3058 19.6017 -21.7627 14.6834 -10.349C8.73498 3.45526 4.16263 15.0977 -3.2516 23.7072C-9.37734 30.8206 -24.6312 34.6954 -24.6312 34.6954C-24.6312 34.6954 -17.7778 26.5851 -12.9828 17.2914C-6.18052 4.10716 -3.97416 -4.61616 5.95053 -15.6432Z" stroke="#575753" stroke-width="1.50164" stroke-linejoin="round"/>
<path d="M193.314 90.9808C185.424 102.265 180.242 123.724 180.242 123.724C180.242 123.724 187.597 111.661 205.726 97.0208C226.942 79.8869 248.898 85.7341 269.119 67.7356C288.748 50.2639 280.565 26.3884 280.565 26.3884C280.565 26.3884 282.255 37.9512 257.453 58.0163C235.558 75.7292 207.023 71.3743 193.314 90.9808Z" stroke="#575753" stroke-width="1.50164" stroke-linejoin="round"/>
<path d="M196.403 112.511C192.895 117.098 190.302 125.983 190.302 125.983C190.302 125.983 193.852 119.808 198.838 116.375C207.238 110.591 215.558 113.216 222.836 106.071C227.406 101.585 231.619 92.2229 231.619 92.2229C231.619 92.2229 226.202 97.2732 222.146 99.6491C212.236 105.454 203.23 103.584 196.403 112.511Z" stroke="#575753" stroke-width="1.50164" stroke-linejoin="round"/>
<path d="M216.619 56.1728C205.526 64.0365 196.121 79.4438 196.121 79.4438C196.121 79.4438 208.958 69.0224 220.865 65.4605C235.266 61.1525 247.36 57.9607 256.771 51.5945C264.547 46.3347 270.164 31.6329 270.164 31.6329C270.164 31.6329 261.314 37.4999 251.527 41.1851C237.643 46.4131 228.722 47.5933 216.619 56.1728Z" stroke="#575753" stroke-width="1.50164" stroke-linejoin="round"/>
<path d="M-43.3267 -28.0807C-51.2164 -16.7968 -56.3991 4.66289 -56.3991 4.66289C-56.3991 4.66289 -49.0432 -7.40011 -30.9146 -22.0408C-9.69881 -39.1746 12.257 -33.3274 32.4784 -51.3259C52.1078 -68.7976 43.9239 -92.6731 43.9239 -92.6731C43.9239 -92.6731 45.6141 -81.1103 20.8121 -61.0452C-1.08244 -43.3323 -29.618 -47.6872 -43.3267 -28.0807Z" stroke="#575753" stroke-width="1.50164" stroke-linejoin="round"/>
<path d="M29.3452 295.231C21.4555 306.515 16.2728 327.974 16.2728 327.974C16.2728 327.974 23.6287 315.911 41.7573 301.271C62.9731 284.137 84.9288 289.984 105.15 271.986C124.78 254.514 116.596 230.638 116.596 230.638C116.596 230.638 118.286 242.201 93.4839 262.266C71.5894 279.979 43.0538 275.624 29.3452 295.231Z" stroke="#575753" stroke-width="1.50164" stroke-linejoin="round"/>
<path d="M32.4266 316.761C28.9181 321.348 26.325 330.233 26.325 330.233C26.325 330.233 29.875 324.058 34.8609 320.625C43.2619 314.841 51.5815 317.466 58.8598 310.321C63.4296 305.835 67.6423 296.473 67.6423 296.473C67.6423 296.473 62.2256 301.523 58.1697 303.899C48.2595 309.704 39.2536 307.834 32.4266 316.761Z" stroke="#575753" stroke-width="1.50164" stroke-linejoin="round"/>
<path d="M52.6426 260.422C41.5491 268.286 32.1441 283.693 32.1441 283.693C32.1441 283.693 44.9818 273.272 56.8887 269.71C71.2895 265.402 83.3835 262.21 92.7945 255.844C100.57 250.584 106.187 235.882 106.187 235.882C106.187 235.882 97.3369 241.749 87.5501 245.435C73.6662 250.663 64.7459 251.843 52.6426 260.422Z" stroke="#575753" stroke-width="1.50164" stroke-linejoin="round"/>
<path d="M88.3842 377.372C80.4946 388.656 75.3119 410.116 75.3119 410.116C75.3119 410.116 82.6677 398.053 100.796 383.412C122.012 366.278 143.968 372.125 164.189 354.127C183.819 336.655 175.635 312.78 175.635 312.78C175.635 312.78 177.325 324.342 152.523 344.407C130.628 362.12 102.093 357.765 88.3842 377.372Z" stroke="#575753" stroke-width="1.50164" stroke-linejoin="round"/>
<path d="M111.682 342.563C100.588 350.427 91.1832 365.834 91.1832 365.834C91.1832 365.834 104.021 355.413 115.928 351.851C130.329 347.543 142.423 344.351 151.834 337.985C159.609 332.725 165.226 318.024 165.226 318.024C165.226 318.024 156.376 323.89 146.589 327.576C132.705 332.804 123.785 333.984 111.682 342.563Z" stroke="#575753" stroke-width="1.50164" stroke-linejoin="round"/>
<path d="M134.775 0.358709C126.885 11.6427 121.702 33.1023 121.702 33.1023C121.702 33.1023 129.058 21.0393 147.187 6.39868C168.403 -10.7352 190.359 -4.88795 210.58 -22.8865C230.209 -40.3581 222.025 -64.2337 222.025 -64.2337C222.025 -64.2337 223.716 -52.6708 198.914 -32.6057C177.019 -14.8929 148.484 -19.2477 134.775 0.358709Z" stroke="#575753" stroke-width="1.50164" stroke-linejoin="round"/>
<path d="M137.856 21.8891C134.348 26.4769 131.755 35.3612 131.755 35.3612C131.755 35.3612 135.305 29.186 140.291 25.7533C148.692 19.9695 157.011 22.5947 164.289 15.4493C168.859 10.963 173.072 1.6013 173.072 1.6013C173.072 1.6013 167.655 6.65157 163.599 9.0275C153.689 14.8328 144.683 12.9622 137.856 21.8891Z" stroke="#575753" stroke-width="1.50164" stroke-linejoin="round"/>
<path d="M158.072 -34.4498C146.979 -26.5861 137.574 -11.1788 137.574 -11.1788C137.574 -11.1788 150.411 -21.6001 162.318 -25.1621C176.719 -29.4701 188.813 -32.6619 198.224 -39.0281C206 -44.2879 211.617 -58.9897 211.617 -58.9897C211.617 -58.9897 202.767 -53.1227 192.98 -49.4374C179.096 -44.2094 170.176 -43.0292 158.072 -34.4498Z" stroke="#575753" stroke-width="1.50164" stroke-linejoin="round"/>
<path d="M-82.483 352.544C-90.3726 363.828 -95.5553 385.287 -95.5553 385.287C-95.5553 385.287 -88.1995 373.224 -70.0709 358.584C-48.8551 341.45 -26.8993 347.297 -6.67787 329.299C12.9516 311.827 4.76764 287.951 4.76764 287.951C4.76764 287.951 6.45788 299.514 -18.3442 319.579C-40.2387 337.292 -68.7743 332.937 -82.483 352.544Z" stroke="#575753" stroke-width="1.50164" stroke-linejoin="round"/>
<path d="M16.4702 59.4227C8.58051 70.7066 3.3978 92.1663 3.3978 92.1663C3.3978 92.1663 10.7537 80.1033 28.8823 65.4626C50.0981 48.3288 72.0538 54.176 92.2753 36.1775C111.905 18.7058 103.721 -5.16972 103.721 -5.16972C103.721 -5.16972 105.411 6.39312 80.6089 26.4582C58.7144 44.1711 30.1788 39.8162 16.4702 59.4227Z" stroke="#575753" stroke-width="1.50164" stroke-linejoin="round"/>
<path d="M19.5516 80.9531C16.0431 85.5409 13.45 94.4252 13.45 94.4252C13.45 94.4252 17 88.25 21.9859 84.8173C30.3869 79.0335 38.7065 81.6586 45.9848 74.5133C50.5546 70.027 54.7673 60.6653 54.7673 60.6653C54.7673 60.6653 49.3506 65.7155 45.2947 68.0915C35.3845 73.8968 26.3786 72.0262 19.5516 80.9531Z" stroke="#575753" stroke-width="1.50164" stroke-linejoin="round"/>
<path d="M39.7676 24.6142C28.6741 32.4779 19.2691 47.8852 19.2691 47.8852C19.2691 47.8852 32.1068 37.4638 44.0137 33.9019C58.4145 29.5939 70.5085 26.4021 79.9195 20.0359C87.695 14.7761 93.3121 0.0742929 93.3121 0.0742929C93.3121 0.0742929 84.4619 5.94126 74.6751 9.62653C60.7912 14.8545 51.8709 16.0347 39.7676 24.6142Z" stroke="#575753" stroke-width="1.50164" stroke-linejoin="round"/>
<path d="M-29.2017 204.609C-37.0914 215.893 -42.2741 237.353 -42.2741 237.353C-42.2741 237.353 -34.9182 225.29 -16.7896 210.649C4.42619 193.515 26.382 199.363 46.6034 181.364C66.2328 163.892 58.0489 140.017 58.0489 140.017C58.0489 140.017 59.7391 151.58 34.9371 171.645C13.0426 189.358 -15.493 185.003 -29.2017 204.609Z" stroke="#575753" stroke-width="1.50164" stroke-linejoin="round"/>
<path d="M-26.1202 226.139C-29.6288 230.727 -32.2219 239.611 -32.2219 239.611C-32.2219 239.611 -28.6718 233.436 -23.6859 230.003C-15.285 224.219 -6.96536 226.845 0.312919 219.699C4.8827 215.213 9.09545 205.851 9.09545 205.851C9.09545 205.851 3.67871 210.902 -0.377204 213.277C-10.2874 219.083 -19.2933 217.212 -26.1202 226.139Z" stroke="#575753" stroke-width="1.50164" stroke-linejoin="round"/>
<path d="M-5.90423 169.801C-16.9978 177.665 -26.4028 193.072 -26.4028 193.072C-26.4028 193.072 -13.5651 182.651 -1.65813 179.089C12.7426 174.781 24.8367 171.589 34.2477 165.223C42.0232 159.963 47.6402 145.261 47.6402 145.261C47.6402 145.261 38.7901 151.128 29.0032 154.814C15.1193 160.042 6.199 161.222 -5.90423 169.801Z" stroke="#575753" stroke-width="1.50164" stroke-linejoin="round"/>
</g>
</mask>
<g mask="url(#mask0_496_12082)">
<rect x="-480.781" y="65.4106" width="1172.78" height="852.933" transform="rotate(-41.6714 -480.781 65.4106)" fill="url(#paint1_linear_496_12082)"/>
</g>
<defs>
<linearGradient id="paint0_linear_496_12082" x1="409.366" y1="-7.54687e-07" x2="408.035" y2="557.111" gradientUnits="userSpaceOnUse">
<stop stop-color="#FEF7D7" stop-opacity="0.74"/>
<stop offset="1" stop-color="#FEF7D7" stop-opacity="0"/>
</linearGradient>
<linearGradient id="paint1_linear_496_12082" x1="84.4343" y1="87.3355" x2="108.093" y2="792.49" gradientUnits="userSpaceOnUse">
<stop offset="0.470993" stop-color="#FEF7D7" stop-opacity="0.84"/>
<stop offset="1" stop-color="#FDF6AB" stop-opacity="0"/>
</linearGradient>
<clipPath id="clip0_496_12082">
<rect width="846.927" height="557.11" fill="white" transform="translate(-318.656 75.9033) rotate(-41.6714)"/>
</clipPath>
</defs>
</svg>
