<?xml version="1.0" encoding="UTF-8"?>
<svg id="c" xmlns="http://www.w3.org/2000/svg" xmlns:xlink="http://www.w3.org/1999/xlink" viewBox="0 0 191 58.20712"><defs><style>.e{fill:#fff;}.f{fill:#f0b90b;}.g{fill:#0b0d10;}</style><symbol id="a" viewBox="0 0 113.96289 73.03125"><g><path class="f" d="M103.66748,0H10.29541C4.60938,0,0,4.60938,0,10.29541V62.73584c0,5.68604,4.60938,10.29541,10.29541,10.29541H103.66748c5.68604,0,10.29541-4.60938,10.29541-10.29541v-4.24023h-12.22266c-.54541,3.85742-4.09521,6.56641-7.96777,6.06006-3.89746-.50977-6.64355-4.08252-6.13379-7.97949,.50928-3.89746,4.08203-6.64355,7.97949-6.13428,3.24365,.42432,5.68799,2.97119,6.12354,6.06006h12.22119V10.29541c0-5.68604-4.60938-10.29541-10.29541-10.29541ZM39.14355,.00049h1.99365V7.54688l3.94482,3.94531c1.43555-1.08008,3.27783-1.62158,5.19971-1.37012,3.89746,.50977,6.64355,4.08203,6.13379,7.97949-.50977,3.89697-4.08203,6.64307-7.97949,6.13379-3.89697-.50977-6.64355-4.08203-6.13379-7.97949,.16504-1.26367,.65381-2.40479,1.36963-3.35449l-4.52832-4.52832V.00049ZM19.95557,16.25586c.42383-3.24365,2.9707-5.68848,6.05957-6.12354V.00049h1.99365V10.13379c3.85791,.54492,6.56641,4.09521,6.06006,7.96777-.50977,3.89697-4.08252,6.64307-7.97949,6.13379-3.89746-.50977-6.64355-4.08203-6.13379-7.97949Zm81.00879,3.31934c-18.63721,20.47412-41.29053,35.6084-58.22217,44.18848-2.68652,1.3623-5.2334,.92627-7.73877-.66602-8.41748-5.35254-18.4458-14.1333-25.41992-25.86523-.61719-1.03857-1.07959-2.81348,.65967-3.9541,1.37061-.90039,3.00146-.28174,3.78662,.80908,4.31396,5.99902,11.83105,10.57764,20.11768,11.66309,5.14355,.6709,11.21045-.45312,14.68164-1.7207,17.13867-6.25488,33.34521-16.65771,49.04053-28.9585,.47754-.37305,2.21289-.75146,3.42676,.62451,1.43164,1.62402,.08008,3.42822-.33203,3.87939Z"/><path class="g" d="M26.08936,24.23535c3.89697,.50928,7.46973-2.23682,7.97949-6.13379,.50635-3.87256-2.20215-7.42285-6.06006-7.96777V.00049h-1.99365V10.13232c-3.08887,.43506-5.63574,2.87988-6.05957,6.12354-.50977,3.89746,2.23633,7.46973,6.13379,7.97949Z"/><path class="g" d="M42.30225,16.25586c-.50977,3.89746,2.23682,7.46973,6.13379,7.97949,3.89746,.50928,7.46973-2.23682,7.97949-6.13379,.50977-3.89746-2.23633-7.46973-6.13379-7.97949-1.92188-.25146-3.76416,.29004-5.19971,1.37012l-3.94482-3.94531V.00049h-1.99365V8.37305l4.52832,4.52832c-.71582,.94971-1.20459,2.09082-1.36963,3.35449Z"/><path class="g" d="M95.61816,50.44189c-3.89746-.50928-7.47021,2.23682-7.97949,6.13428-.50977,3.89697,2.23633,7.46973,6.13379,7.97949,3.87256,.50635,7.42236-2.20264,7.96777-6.06006h12.22266v-1.99365h-12.22119c-.43555-3.08887-2.87988-5.63574-6.12354-6.06006Z"/><path class="g" d="M97.86963,15.07129c-15.69531,12.30078-31.90186,22.70361-49.04053,28.9585-3.47119,1.26758-9.53809,2.3916-14.68164,1.7207-8.28662-1.08545-15.80371-5.66406-20.11768-11.66309-.78516-1.09082-2.41602-1.70947-3.78662-.80908-1.73926,1.14062-1.27686,2.91553-.65967,3.9541,6.97412,11.73193,17.00244,20.5127,25.41992,25.86523,2.50537,1.59229,5.05225,2.02832,7.73877,.66602,16.93164-8.58008,39.58496-23.71436,58.22217-44.18848,.41211-.45117,1.76367-2.25537,.33203-3.87939-1.21387-1.37598-2.94922-.99756-3.42676-.62451Z"/></g></symbol></defs><g id="d"><g><g><path class="e" d="M77.96493,16.57158c.25944,.26323,.56213,.47308,.90805,.62896,.34593,.15635,.72068,.23417,1.12426,.23417s.77833-.07782,1.12426-.23417c.34593-.15588,.64861-.36573,.90805-.62896,.25945-.26335,.46123-.57059,.60537-.92167,.14413-.35108,.2162-.72143,.2162-1.11183,0-.85808-.27386-1.56029-.82158-2.10657-.54772-.54586-1.22516-.81923-2.03231-.81923s-1.4846,.27337-2.03231,.81923c-.54772,.54628-.82157,1.24848-.82157,2.10657,0,.3904,.07206,.76075,.2162,1.11183,.14413,.35108,.34593,.65832,.60537,.92167Z"/><path class="e" d="M89.38049,12.43152c-.54772-.54586-1.22516-.81923-2.03231-.81923s-1.4846,.27337-2.03231,.81923c-.54772,.54628-.82158,1.24848-.82158,2.10657,0,.3904,.07207,.76075,.2162,1.11183,.14414,.35108,.34593,.65832,.60537,.92167,.25944,.26323,.56213,.47308,.90805,.62896,.34593,.15635,.72068,.23417,1.12426,.23417s.77833-.07782,1.12426-.23417c.34593-.15588,.64861-.36573,.90805-.62896,.25944-.26335,.46123-.57059,.60537-.92167,.14413-.35108,.2162-.72143,.2162-1.11183,0-.85808-.27385-1.56029-.82157-2.10657Z"/><path class="e" d="M30.54366,41.29653c-.80717,0-1.48461,.27332-2.03232,.81923-.54771,.54628-.82157,1.24854-.82157,2.10657,0,.3904,.07207,.76075,.21621,1.11177,.14413,.35113,.34592,.65838,.60536,.92173,.25946,.26323,.56213,.47308,.90805,.62896,.34593,.15635,.72069,.23405,1.12427,.23405s.77834-.0777,1.12426-.23405c.34592-.15588,.64861-.36573,.90805-.62896,.25944-.26335,.46123-.57059,.60537-.92173,.14414-.35102,.2162-.72137,.2162-1.11177,0-.85803-.27385-1.56029-.82157-2.10657-.54771-.54592-1.22516-.81923-2.03231-.81923Z"/><path class="e" d="M37.89458,41.29653c-.80715,0-1.4846,.27332-2.03231,.81923-.54771,.54628-.82157,1.24854-.82157,2.10657,0,.3904,.07207,.76075,.21621,1.11177,.14413,.35113,.34592,.65838,.60536,.92173,.25944,.26323,.56213,.47308,.90805,.62896,.34593,.15635,.72069,.23405,1.12426,.23405s.77834-.0777,1.12426-.23405c.34593-.15588,.64862-.36573,.90806-.62896,.25944-.26335,.46123-.57059,.60537-.92173,.14414-.35102,.2162-.72137,.2162-1.11177,0-.85803-.27385-1.56029-.82157-2.10657-.54771-.54592-1.22516-.81923-2.03232-.81923Z"/><path class="e" d="M70.73447,41.29653c-.80717,0-1.4846,.27332-2.03232,.81923-.54772,.54628-.82157,1.24854-.82157,2.10657,0,.3904,.07207,.76075,.2162,1.11177,.14413,.35113,.34593,.65838,.60537,.92173,.25945,.26323,.56213,.47308,.90805,.62896,.34593,.15635,.72068,.23405,1.12427,.23405s.77833-.0777,1.12426-.23405c.34593-.15588,.64861-.36573,.90805-.62896,.25944-.26335,.46123-.57059,.60537-.92173,.14413-.35102,.2162-.72137,.2162-1.11177,0-.85803-.27385-1.56029-.82157-2.10657-.54772-.54592-1.22516-.81923-2.03231-.81923Z"/><path class="e" d="M85.7726,32.19474c0,.79041-.63354,1.43336-1.41231,1.43336h-10.97289v-12.92547h-4.42831v12.92547l-7.44876,.00004c-1.14432-8.53273-6.90813-10.98877-12.45562-12.86879l-1.27937,4.30276c5.66878,1.99332,8.21968,3.93355,9.28873,8.56603l-11.99406-.00004v4.49452h39.29028c3.22054,0,5.84062-2.65925,5.84062-5.92788v-11.49211h-4.42831v11.49211Z"/><path class="e" d="M37.37873,20.70268v11.4921c0,.79041-.63356,1.4333-1.41232,1.4333h-9.46128V11.57349h-4.47909v22.25714c0,4.91781-3.928,8.90463-8.77346,8.90463h-.00005c-4.84546,0-8.7735-3.98682-8.7735-8.90463v-.18239H0v.13735c0,7.4286,5.93337,13.45073,13.25254,13.45073h.00005c5.82201,0,10.75559-3.81599,12.53511-9.11375h10.17872c3.22054,0,5.84065-2.65924,5.84065-5.92779v-11.4921h-4.42833Z"/></g><use width="113.96289" height="73.03125" transform="translate(101.5077) scale(.78528 .79702)" xlink:href="#a"/></g></g></svg>