<svg width="133" height="57" viewBox="0 0 133 57" fill="none" xmlns="http://www.w3.org/2000/svg">
<path d="M13.3809 13.3846C12.9134 13.3846 12.4713 13.2931 12.0546 13.1102C11.638 12.9374 11.2721 12.6935 10.957 12.3785C10.6521 12.0736 10.4082 11.7128 10.2253 11.2961C10.0525 10.8794 9.96613 10.4373 9.96613 9.96981V5.94523L11.643 5.96047V9.7259C11.643 9.95965 11.6888 10.1782 11.7802 10.3814C11.8717 10.5847 11.9937 10.7625 12.1461 10.915C12.2986 11.0674 12.4764 11.1843 12.6797 11.2656C12.8829 11.3571 13.0964 11.4028 13.3199 11.4028H16.064C16.4502 11.4028 16.7754 11.2707 17.0396 11.0064C17.3039 10.7422 17.436 10.4221 17.436 10.046V0.27423H19.1129V8.0185C19.1129 8.22176 19.184 8.39453 19.3263 8.53682C19.4686 8.66894 19.6414 8.735 19.8446 8.735H20.7898C20.8508 8.735 20.9016 8.7604 20.9423 8.81122C20.9829 8.85187 21.0032 8.89761 21.0032 8.94842V10.4881C21.0032 10.5491 20.9829 10.605 20.9423 10.6558C20.9016 10.6965 20.8508 10.7168 20.7898 10.7168H20.119C19.9056 10.7168 19.7176 10.6863 19.555 10.6253C19.3924 10.5644 19.2399 10.4373 19.0977 10.2442V10.5186C19.0977 10.8235 19.0265 11.1436 18.8842 11.479C18.742 11.8144 18.5387 12.1244 18.2744 12.409C18.0204 12.6935 17.7053 12.9273 17.3293 13.1102C16.9532 13.2931 16.5264 13.3846 16.0487 13.3846H13.3809ZM24.2889 8.735C24.4922 8.735 24.665 8.66385 24.8072 8.52157C24.9495 8.36912 25.0207 8.19127 25.0207 7.98801V4.83237H26.6976V7.98801C26.6976 8.36404 26.6264 8.71975 26.4842 9.05513C26.3419 9.38035 26.1437 9.67 25.8896 9.92408C25.6457 10.168 25.3561 10.3611 25.0207 10.5034C24.6955 10.6457 24.3448 10.7168 23.9688 10.7168H20.7827C20.7217 10.7168 20.6709 10.6965 20.6302 10.6558C20.5896 10.605 20.5692 10.5542 20.5692 10.5034V8.96367C20.5692 8.90269 20.5896 8.85187 20.6302 8.81122C20.6709 8.7604 20.7217 8.735 20.7827 8.735H24.2889ZM21.0113 14.2993H22.7492V12.5462H21.0113V14.2993ZM23.5419 14.2993H25.2951V12.5462H23.5419V14.2993ZM30.6075 10.7168C30.2314 10.7168 29.8859 10.6406 29.5708 10.4881C29.2558 10.3255 28.9915 10.1121 28.7781 9.84785C28.5647 9.58361 28.4072 9.2838 28.3055 8.94842C28.2141 8.60288 28.2039 8.24717 28.275 7.8813L28.5342 6.49404C28.585 6.21963 28.6816 5.96556 28.8238 5.73181C28.9763 5.48789 29.1541 5.27955 29.3574 5.10678C29.5607 4.934 29.7893 4.80188 30.0434 4.71042C30.3077 4.60878 30.5821 4.55797 30.8666 4.55797H31.7203C32.0659 4.55797 32.3911 4.62403 32.696 4.75615C33.0009 4.88827 33.2651 5.0712 33.4887 5.30496C33.7123 5.52854 33.8901 5.79278 34.0223 6.09768C34.1544 6.40257 34.2204 6.72779 34.2204 7.07333V8.735H35.2876C35.4298 8.735 35.501 8.80614 35.501 8.94842V10.5034C35.501 10.6457 35.4298 10.7168 35.2876 10.7168H34.2052C34.2052 10.727 34.2052 10.7524 34.2052 10.793C34.2052 10.8337 34.2001 10.8845 34.19 10.9455C34.129 11.6162 33.8698 12.2209 33.4125 12.7596C32.9653 13.2982 32.3911 13.6895 31.6898 13.9334L29.6013 14.6499L29.083 13.0492L31.2325 12.3327C31.6187 12.2006 31.9287 11.9872 32.1624 11.6925C32.4063 11.3977 32.5283 11.0471 32.5283 10.6406V10.5339C32.4165 10.5847 32.2793 10.6304 32.1167 10.6711C31.9541 10.7016 31.7915 10.7168 31.6289 10.7168H30.6075ZM30.394 8.735H32.5435V7.05809C32.5435 6.89548 32.4876 6.75828 32.3758 6.64648C32.2641 6.52453 32.1268 6.46355 31.9642 6.46355H30.7294C30.5871 6.46355 30.4652 6.50928 30.3636 6.60075C30.2619 6.69222 30.1959 6.80909 30.1654 6.95138L29.9215 8.17094C29.891 8.31323 29.9215 8.44535 30.0129 8.56731C30.1146 8.6791 30.2416 8.735 30.394 8.735ZM35.2829 8.735H37.5391C37.6814 8.735 37.7525 8.80614 37.7525 8.94842V10.5034C37.7525 10.6457 37.6814 10.7168 37.5391 10.7168H35.2829C35.1406 10.7168 35.0695 10.6457 35.0695 10.5034V8.94842C35.0695 8.80614 35.1406 8.735 35.2829 8.735ZM37.5458 8.735H39.802C39.9443 8.735 40.0154 8.80614 40.0154 8.94842V10.5034C40.0154 10.6457 39.9443 10.7168 39.802 10.7168H37.5458C37.4035 10.7168 37.3324 10.6457 37.3324 10.5034V8.94842C37.3324 8.80614 37.4035 8.735 37.5458 8.735ZM39.8087 8.735H42.0649C42.2072 8.735 42.2783 8.80614 42.2783 8.94842V10.5034C42.2783 10.6457 42.2072 10.7168 42.0649 10.7168H39.8087C39.6664 10.7168 39.5952 10.6457 39.5952 10.5034V8.94842C39.5952 8.80614 39.6664 8.735 39.8087 8.735ZM42.0715 8.735H44.3277C44.47 8.735 44.5412 8.80614 44.5412 8.94842V10.5034C44.5412 10.6457 44.47 10.7168 44.3277 10.7168H42.0715C41.9293 10.7168 41.8581 10.6457 41.8581 10.5034V8.94842C41.8581 8.80614 41.9293 8.735 42.0715 8.735ZM44.3344 8.735H46.5906C46.7329 8.735 46.804 8.80614 46.804 8.94842V10.5034C46.804 10.6457 46.7329 10.7168 46.5906 10.7168H44.3344C44.1921 10.7168 44.121 10.6457 44.121 10.5034V8.94842C44.121 8.80614 44.1921 8.735 44.3344 8.735ZM46.5973 8.735H48.8535C48.9958 8.735 49.0669 8.80614 49.0669 8.94842V10.5034C49.0669 10.6457 48.9958 10.7168 48.8535 10.7168H46.5973C46.455 10.7168 46.3839 10.6457 46.3839 10.5034V8.94842C46.3839 8.80614 46.455 8.735 46.5973 8.735ZM48.8602 8.735H51.1164C51.2587 8.735 51.3298 8.80614 51.3298 8.94842V10.5034C51.3298 10.6457 51.2587 10.7168 51.1164 10.7168H48.8602C48.7179 10.7168 48.6467 10.6457 48.6467 10.5034V8.94842C48.6467 8.80614 48.7179 8.735 48.8602 8.735ZM51.123 8.735H53.3792C53.5215 8.735 53.5927 8.80614 53.5927 8.94842V10.5034C53.5927 10.6457 53.5215 10.7168 53.3792 10.7168H51.123C50.9808 10.7168 50.9096 10.6457 50.9096 10.5034V8.94842C50.9096 8.80614 50.9808 8.735 51.123 8.735ZM53.3859 10.7168C53.2436 10.7168 53.1725 10.6457 53.1725 10.5034V8.96367C53.1725 8.91285 53.1979 8.86203 53.2487 8.81122C53.2894 8.7604 53.3351 8.735 53.3859 8.735H56.1147C56.5415 8.735 56.9633 8.66894 57.38 8.53682C57.7967 8.39453 58.1524 8.16586 58.4471 7.85081L59.3313 6.90564C59.3821 6.85483 59.4279 6.80909 59.4685 6.76844C59.5092 6.72779 59.5346 6.70746 59.5447 6.70746L56.3434 5.74705C56.2417 5.71656 56.1503 5.72672 56.069 5.77754C55.9978 5.81819 55.9419 5.88425 55.9013 5.97572L55.322 7.50018L53.8585 7.10382L54.2549 5.70132C54.3463 5.38626 54.4886 5.11694 54.6817 4.89335C54.8748 4.66976 55.0984 4.49699 55.3525 4.37503C55.6065 4.24291 55.8759 4.16669 56.1604 4.14636C56.445 4.11588 56.7194 4.14128 56.9836 4.22259L63.051 6.0367L62.5479 7.60689L61.8314 7.39347C61.6587 7.35282 61.5113 7.34265 61.3893 7.36298C61.2775 7.38331 61.1708 7.42396 61.0692 7.48494V8.00325C61.0692 8.20652 61.1403 8.37929 61.2826 8.52157C61.4249 8.66385 61.5977 8.735 61.8009 8.735H63.8285C63.9708 8.735 64.0419 8.80614 64.0419 8.94842V10.5034C64.0419 10.6457 63.9708 10.7168 63.8285 10.7168H62.0753C61.4656 10.7168 60.9472 10.544 60.5204 10.1985C60.1037 9.84277 59.8141 9.39051 59.6514 8.84171L59.0417 9.45149C58.6047 9.88851 58.0965 10.2086 57.5172 10.4119C56.9379 10.6152 56.3434 10.7168 55.7336 10.7168H53.3859ZM66.4135 8.735C66.6168 8.735 66.7895 8.66385 66.9318 8.52157C67.0741 8.36912 67.1453 8.19127 67.1453 7.98801V4.83237H68.8222V7.98801C68.8222 8.36404 68.751 8.71975 68.6087 9.05513C68.4665 9.38035 68.2683 9.67 68.0142 9.92408C67.7703 10.168 67.4806 10.3611 67.1453 10.5034C66.82 10.6457 66.4694 10.7168 66.0934 10.7168H63.8219C63.761 10.7168 63.7101 10.6965 63.6695 10.6558C63.6288 10.605 63.6085 10.5542 63.6085 10.5034V8.96367C63.6085 8.90269 63.6288 8.85187 63.6695 8.81122C63.7101 8.7604 63.761 8.735 63.8219 8.735H66.4135ZM64.5232 3.44511H66.2763V1.69198H64.5232V3.44511ZM67.069 3.44511H68.8222V1.69198H67.069V3.44511ZM75.4313 13.3999C74.9638 13.3999 74.5217 13.3084 74.105 13.1254C73.6883 12.9527 73.3225 12.7088 73.0074 12.3937C72.7025 12.0888 72.4586 11.728 72.2757 11.3113C72.1029 10.8947 72.0165 10.4526 72.0165 9.98506V5.51838H73.6934V9.74114C73.6934 9.97489 73.7341 10.1934 73.8154 10.3967C73.9068 10.5999 74.0288 10.7778 74.1812 10.9302C74.3337 11.0827 74.5115 11.1995 74.7148 11.2808C74.9181 11.3723 75.1366 11.418 75.3703 11.418H78.0991C78.4853 11.418 78.8105 11.2859 79.0748 11.0217C79.339 10.7574 79.4711 10.4322 79.4711 10.046V5.27447H81.148V10.3357C81.148 10.7625 81.0667 11.1589 80.9041 11.5248C80.7415 11.9008 80.523 12.226 80.2486 12.5004C79.9742 12.7748 79.649 12.9933 79.2729 13.1559C78.9071 13.3185 78.5107 13.3999 78.0839 13.3999H75.4313ZM75.7057 3.52133H77.4588V5.27447H75.7057V3.52133ZM86.1633 10.5034C86.1633 10.6457 86.0921 10.7168 85.9499 10.7168H85.5078C85.1419 10.7168 84.7963 10.6507 84.4711 10.5186C84.1459 10.3763 83.8613 10.1832 83.6174 9.93932C83.3735 9.69541 83.1804 9.41084 83.0381 9.08562C82.8958 8.7604 82.8247 8.41486 82.8247 8.04899V0.27423H84.5016V8.00325C84.5016 8.20652 84.5728 8.37929 84.715 8.52157C84.8573 8.66385 85.0301 8.735 85.2334 8.735H85.9499C86.0108 8.735 86.0616 8.7604 86.1023 8.81122C86.143 8.85187 86.1633 8.90269 86.1633 8.96367V10.5034ZM85.9445 8.735H88.2007C88.343 8.735 88.4141 8.80614 88.4141 8.94842V10.5034C88.4141 10.6457 88.343 10.7168 88.2007 10.7168H85.9445C85.8022 10.7168 85.7311 10.6457 85.7311 10.5034V8.94842C85.7311 8.80614 85.8022 8.735 85.9445 8.735ZM88.2074 8.735H90.4636C90.6059 8.735 90.677 8.80614 90.677 8.94842V10.5034C90.677 10.6457 90.6059 10.7168 90.4636 10.7168H88.2074C88.0651 10.7168 87.9939 10.6457 87.9939 10.5034V8.94842C87.9939 8.80614 88.0651 8.735 88.2074 8.735ZM90.4702 8.735H92.7264C92.8687 8.735 92.9399 8.80614 92.9399 8.94842V10.5034C92.9399 10.6457 92.8687 10.7168 92.7264 10.7168H90.4702C90.328 10.7168 90.2568 10.6457 90.2568 10.5034V8.94842C90.2568 8.80614 90.328 8.735 90.4702 8.735ZM92.7331 8.735H94.9893C95.1316 8.735 95.2027 8.80614 95.2027 8.94842V10.5034C95.2027 10.6457 95.1316 10.7168 94.9893 10.7168H92.7331C92.5908 10.7168 92.5197 10.6457 92.5197 10.5034V8.94842C92.5197 8.80614 92.5908 8.735 92.7331 8.735ZM94.996 8.735H97.2522C97.3945 8.735 97.4656 8.80614 97.4656 8.94842V10.5034C97.4656 10.6457 97.3945 10.7168 97.2522 10.7168H94.996C94.8537 10.7168 94.7826 10.6457 94.7826 10.5034V8.94842C94.7826 8.80614 94.8537 8.735 94.996 8.735ZM97.2589 8.735H99.5151C99.6574 8.735 99.7285 8.80614 99.7285 8.94842V10.5034C99.7285 10.6457 99.6574 10.7168 99.5151 10.7168H97.2589C97.1166 10.7168 97.0454 10.6457 97.0454 10.5034V8.94842C97.0454 8.80614 97.1166 8.735 97.2589 8.735ZM111.214 8.00325C111.214 8.20652 111.286 8.37929 111.428 8.52157C111.57 8.66385 111.743 8.735 111.946 8.735H112.891C112.952 8.735 113.003 8.7604 113.044 8.81122C113.084 8.85187 113.105 8.89761 113.105 8.94842V10.4881C113.105 10.5491 113.084 10.605 113.044 10.6558C113.003 10.6965 112.952 10.7168 112.891 10.7168H112.236C111.88 10.7168 111.55 10.6558 111.245 10.5339C110.94 10.4017 110.671 10.2239 110.437 10.0003C110.203 10.2239 109.929 10.4017 109.614 10.5339C109.309 10.6558 108.989 10.7168 108.653 10.7168H99.5217C99.4608 10.7168 99.4099 10.6965 99.3693 10.6558C99.3286 10.605 99.3083 10.5542 99.3083 10.5034V8.94842C99.3083 8.88744 99.3286 8.83663 99.3693 8.79597C99.4099 8.74516 99.4608 8.72483 99.5217 8.735H108.943C109.095 8.735 109.233 8.6791 109.355 8.56731C109.476 8.45551 109.537 8.31323 109.537 8.14046V7.05809C109.537 6.87515 109.471 6.72271 109.339 6.60075C109.207 6.46863 109.05 6.40257 108.867 6.40257H101.351L100.147 5.24398L104.629 -0.000172691L105.833 1.12793L102.906 4.57321H108.714C109.06 4.57321 109.38 4.63927 109.675 4.77139C109.98 4.90351 110.244 5.08137 110.467 5.30496C110.701 5.52854 110.884 5.79278 111.016 6.09768C111.148 6.40257 111.214 6.72779 111.214 7.07333V8.00325ZM116.351 8.735H118.501V7.05809C118.501 6.89548 118.445 6.75828 118.333 6.64648C118.221 6.53469 118.084 6.47879 117.921 6.47879H116.686C116.544 6.47879 116.422 6.52453 116.321 6.61599C116.219 6.6973 116.153 6.80909 116.122 6.95138L115.879 8.17094C115.848 8.31323 115.879 8.44535 115.97 8.56731C116.072 8.6791 116.199 8.735 116.351 8.735ZM114.186 8.06423L114.491 6.49404C114.542 6.21963 114.639 5.96556 114.781 5.73181C114.933 5.48789 115.111 5.28463 115.314 5.12202C115.518 4.94925 115.746 4.81713 116 4.72566C116.265 4.62403 116.539 4.57321 116.824 4.57321H117.677C118.023 4.57321 118.348 4.63927 118.653 4.77139C118.958 4.90351 119.222 5.08137 119.446 5.30496C119.669 5.52854 119.847 5.79278 119.979 6.09768C120.111 6.40257 120.177 6.72779 120.177 7.07333V8.85695C120.177 9.11103 120.127 9.35494 120.025 9.58869C119.934 9.81228 119.801 10.0105 119.629 10.1832C119.466 10.3458 119.273 10.478 119.049 10.5796C118.826 10.6711 118.587 10.7168 118.333 10.7168H116.565C116.26 10.7168 115.97 10.6558 115.696 10.5339C115.421 10.4017 115.172 10.1731 114.949 9.84785C114.715 10.1731 114.456 10.4017 114.171 10.5339C113.887 10.6558 113.582 10.7168 113.256 10.7168H112.891C112.748 10.7168 112.677 10.6457 112.677 10.5034V8.94842C112.677 8.80614 112.748 8.735 112.891 8.735H113.378C113.582 8.735 113.754 8.67402 113.897 8.55206C114.049 8.4301 114.146 8.26749 114.186 8.06423ZM123.536 10.7168H121.859V0.27423H123.536V10.7168ZM48.4589 35.7414L47.8034 33.7138L50.2883 32.8601C50.6237 32.7483 50.893 32.5502 51.0962 32.2656C51.2995 31.9912 51.4011 31.6761 51.4011 31.3204V25.6799H53.5964V31.0918C53.5964 31.5288 53.5303 31.9455 53.3982 32.3418C53.2661 32.7483 53.078 33.1193 52.8341 33.4547C52.6004 33.7901 52.3158 34.0848 51.9804 34.3389C51.645 34.5929 51.2741 34.786 50.8676 34.9182L48.4589 35.7414ZM57.1469 31.7168C56.8319 31.7168 56.5321 31.6558 56.2475 31.5339C55.9629 31.4119 55.7139 31.2442 55.5005 31.0308C55.2871 30.8174 55.1194 30.5684 54.9974 30.2838C54.8755 29.9992 54.8145 29.6994 54.8145 29.3844V27.0977H56.6439V28.8813C56.6439 29.0439 56.7302 29.1252 56.903 29.1252H59.4489C59.7538 29.1252 59.9723 29.0236 60.1044 28.8203C60.2365 28.6069 60.2213 28.3528 60.0587 28.0581L58.0768 24.4756L59.9519 23.2713L62.0252 26.9757C62.2894 27.4534 62.4114 27.9717 62.3911 28.5307C62.3809 29.0795 62.2539 29.5927 62.01 30.0704C61.766 30.5379 61.4256 30.9292 60.9886 31.2442C60.5516 31.5593 60.0485 31.7168 59.4794 31.7168H57.1469ZM12.4505 55.3999C11.983 55.3999 11.5409 55.3084 11.1242 55.1254C10.7075 54.9527 10.3416 54.7088 10.0266 54.3937C9.72168 54.0888 9.47777 53.728 9.29483 53.3113C9.12206 52.8947 9.03568 52.4526 9.03568 51.9851V47.5184H10.7126V51.7411C10.7126 51.9749 10.7532 52.1934 10.8345 52.3967C10.926 52.5999 11.048 52.7778 11.2004 52.9302C11.3529 53.0827 11.5307 53.1995 11.734 53.2808C11.9372 53.3723 12.1557 53.418 12.3895 53.418H15.1183C15.5045 53.418 15.8297 53.2859 16.0939 53.0217C16.3582 52.7574 16.4903 52.4322 16.4903 52.046V47.2745H18.1672V52.3357C18.1672 52.7625 18.0859 53.1589 17.9233 53.5248C17.7607 53.9008 17.5422 54.226 17.2678 54.5004C16.9934 54.7748 16.6682 54.9933 16.2921 55.1559C15.9262 55.3185 15.5299 55.3999 15.103 55.3999H12.4505ZM12.7249 45.5213H14.478V47.2745H12.7249V45.5213ZM21.5208 52.7168H19.8439V42.2742H21.5208V52.7168ZM25.0498 47.2592V50.11C25.0498 50.2929 25.126 50.4453 25.2785 50.5673C25.4309 50.6791 25.5986 50.735 25.7815 50.735H26.8944C27.0367 50.735 27.1078 50.8061 27.1078 50.9484V52.5034C27.1078 52.6457 27.0367 52.7168 26.8944 52.7168H26.0559C25.8832 52.7168 25.7002 52.6863 25.5071 52.6253C25.314 52.5644 25.1616 52.4373 25.0498 52.2442V52.5186C25.0498 52.9048 24.9837 53.2707 24.8516 53.6162C24.7297 53.9719 24.5569 54.2972 24.3333 54.5919C24.1097 54.8866 23.8455 55.1407 23.5406 55.3541C23.2357 55.5777 22.9003 55.7505 22.5344 55.8724L20.4307 56.5889L19.9124 55.0187L22.1076 54.3022C22.4938 54.1803 22.7987 53.9516 23.0223 53.6162C23.256 53.291 23.3729 52.9302 23.3729 52.5339V47.2592H25.0498ZM30.4002 50.735C30.6034 50.735 30.7762 50.6639 30.9185 50.5216C31.0608 50.3691 31.1319 50.1913 31.1319 49.988V46.8324H32.8088V49.988C32.8088 50.364 32.7377 50.7198 32.5954 51.0551C32.4531 51.3804 32.2549 51.67 32.0009 51.9241C31.757 52.168 31.4673 52.3611 31.1319 52.5034C30.8067 52.6457 30.4561 52.7168 30.08 52.7168H26.8939C26.8329 52.7168 26.7821 52.6965 26.7415 52.6558C26.7008 52.605 26.6805 52.5542 26.6805 52.5034V50.9637C26.6805 50.9027 26.7008 50.8519 26.7415 50.8112C26.7821 50.7604 26.8329 50.735 26.8939 50.735H30.4002ZM27.1226 56.2993H28.8605V54.5462H27.1226V56.2993ZM29.6532 56.2993H31.4063V54.5462H29.6532V56.2993ZM36.1699 52.7168H34.493V42.2742H36.1699V52.7168ZM42.9741 47.2592V50.11C42.9741 50.2929 43.0504 50.4453 43.2028 50.5673C43.3552 50.6791 43.5229 50.735 43.7059 50.735H44.8187C44.961 50.735 45.0322 50.8061 45.0322 50.9484V52.5034C45.0322 52.6457 44.961 52.7168 44.8187 52.7168H43.9803C43.8075 52.7168 43.6246 52.6863 43.4315 52.6253C43.2384 52.5644 43.0859 52.4373 42.9741 52.2442V52.5186C42.9741 52.9048 42.9081 53.2707 42.776 53.6162C42.654 53.9719 42.4812 54.2972 42.2576 54.5919C42.034 54.8866 41.7698 55.1407 41.4649 55.3541C41.16 55.5777 40.8246 55.7505 40.4588 55.8724L38.355 56.5889L37.8367 55.0187L40.0319 54.3022C40.4181 54.1803 40.723 53.9516 40.9466 53.6162C41.1803 53.291 41.2972 52.9302 41.2972 52.5339V47.2592H42.9741ZM45.4585 45.4299L49.0258 41.2528L49.849 42.0456L46.358 46.1311L45.4585 45.4299ZM57.7305 50.0033C57.7305 50.2065 57.8016 50.3793 57.9439 50.5216C58.0862 50.6639 58.2589 50.735 58.4622 50.735H59.4074C59.4683 50.735 59.5192 50.7604 59.5598 50.8112C59.6005 50.8519 59.6208 50.8976 59.6208 50.9484V52.4881C59.6208 52.5491 59.6005 52.605 59.5598 52.6558C59.5192 52.6965 59.4683 52.7168 59.4074 52.7168H58.7518C58.3961 52.7168 58.0658 52.6558 57.7609 52.5339C57.456 52.4017 57.1867 52.2239 56.953 52.0003C56.7192 52.2239 56.4448 52.4017 56.1298 52.5339C55.8249 52.6558 55.5047 52.7168 55.1694 52.7168H44.8183C44.7573 52.7168 44.7065 52.6965 44.6658 52.6558C44.6252 52.605 44.6048 52.5542 44.6048 52.5034V50.9484C44.6048 50.8061 44.676 50.735 44.8183 50.735H55.459C55.6114 50.735 55.7487 50.6791 55.8706 50.5673C55.9926 50.4555 56.0535 50.3132 56.0535 50.1405V49.0581C56.0535 48.8752 55.9875 48.7227 55.8554 48.6007C55.7232 48.4686 55.5657 48.4026 55.3828 48.4026H47.8672L46.6629 47.244L51.1448 41.9998L52.3491 43.1279L49.4221 46.5732H55.2303C55.5759 46.5732 55.896 46.6393 56.1907 46.7714C56.4956 46.9035 56.7599 47.0814 56.9835 47.305C57.2172 47.5285 57.4002 47.7928 57.5323 48.0977C57.6644 48.4026 57.7305 48.7278 57.7305 49.0733V50.0033ZM62.9141 50.735C63.1174 50.735 63.2901 50.6639 63.4324 50.5216C63.5747 50.3691 63.6458 50.1913 63.6458 49.988V46.8324H65.3228V49.988C65.3228 50.364 65.2516 50.7198 65.1093 51.0551C64.967 51.3804 64.7689 51.67 64.5148 51.9241C64.2709 52.168 63.9812 52.3611 63.6458 52.5034C63.3206 52.6457 62.97 52.7168 62.594 52.7168H59.4078C59.3469 52.7168 59.296 52.6965 59.2554 52.6558C59.2147 52.605 59.1944 52.5542 59.1944 52.5034V50.9637C59.1944 50.9027 59.2147 50.8519 59.2554 50.8112C59.296 50.7604 59.3469 50.735 59.4078 50.735H62.9141ZM59.6365 56.2993H61.3744V54.5462H59.6365V56.2993ZM62.1671 56.2993H63.9202V54.5462H62.1671V56.2993ZM69.0192 52.7168C68.7448 52.7168 68.4857 52.666 68.2417 52.5644C67.9978 52.4526 67.7844 52.3052 67.6015 52.1223C67.4185 51.9393 67.2712 51.7259 67.1594 51.482C67.0577 51.2279 67.0069 50.9637 67.0069 50.6893V48.7075H68.4399V50.3844C68.4399 50.486 68.4755 50.5724 68.5466 50.6435C68.6178 50.7045 68.6991 50.735 68.7905 50.735H71.3059C71.4888 50.735 71.6515 50.6893 71.7937 50.5978C71.9462 50.5063 72.0631 50.3895 72.1444 50.2472C72.2358 50.1049 72.2816 49.9524 72.2816 49.7898C72.2917 49.6171 72.2511 49.4494 72.1596 49.2868L70.2693 45.9177L71.687 44.9878L73.7146 48.5855C73.9788 49.0428 74.0957 49.5154 74.0652 50.0033C74.0449 50.4911 73.9178 50.9383 73.6841 51.3448C73.4503 51.7411 73.1251 52.0714 72.7084 52.3357C72.2917 52.5898 71.8191 52.7168 71.2907 52.7168H69.0192ZM80.8773 47.2592V50.11C80.8773 50.2929 80.9535 50.4453 81.1059 50.5673C81.2584 50.6791 81.4261 50.735 81.609 50.735H82.7219C82.8641 50.735 82.9353 50.8061 82.9353 50.9484V52.5034C82.9353 52.6457 82.8641 52.7168 82.7219 52.7168H81.8834C81.7106 52.7168 81.5277 52.6863 81.3346 52.6253C81.1415 52.5644 80.9891 52.4373 80.8773 52.2442V52.5186C80.8773 52.9048 80.8112 53.2707 80.6791 53.6162C80.5571 53.9719 80.3844 54.2972 80.1608 54.5919C79.9372 54.8866 79.6729 55.1407 79.368 55.3541C79.0632 55.5777 78.7278 55.7505 78.3619 55.8724L76.2581 56.5889L75.7398 55.0187L77.9351 54.3022C78.3212 54.1803 78.6261 53.9516 78.8497 53.6162C79.0835 53.291 79.2004 52.9302 79.2004 52.5339V47.2592H80.8773ZM83.5903 50.735V49.2105C83.5903 48.865 83.6513 48.5449 83.7733 48.2501C83.9054 47.9452 84.0832 47.681 84.3068 47.4574C84.5304 47.2338 84.7896 47.061 85.0843 46.9391C85.3892 46.807 85.7144 46.7409 86.06 46.7409H86.685C86.9696 46.7409 87.2389 46.7917 87.493 46.8934C87.747 46.9848 87.9757 47.1169 88.179 47.2897C88.3924 47.4523 88.5702 47.6556 88.7125 47.8995C88.8548 48.1332 88.9564 48.3873 89.0174 48.6617L89.2461 49.8356C89.3274 50.2116 89.3172 50.5724 89.2156 50.9179C89.1241 51.2635 88.9666 51.5684 88.743 51.8326C88.5194 52.0968 88.245 52.3103 87.9198 52.4729C87.6048 52.6355 87.2592 52.7168 86.8832 52.7168H86.1819C86.0091 52.7168 85.8516 52.7016 85.7093 52.6711C85.5671 52.6406 85.4197 52.5999 85.2672 52.5491V52.6863C85.2672 52.8896 85.3079 53.0877 85.3892 53.2808C85.4807 53.4739 85.6585 53.5959 85.9228 53.6467L87.7064 53.9821L89.2461 52.0918C89.5815 51.6751 89.9727 51.3448 90.4199 51.1009C90.8773 50.857 91.3702 50.735 91.8987 50.735H92.0816C92.1324 50.735 92.1781 50.7553 92.2188 50.796C92.2696 50.8366 92.295 50.8874 92.295 50.9484V52.5034C92.295 52.6457 92.2239 52.7168 92.0816 52.7168H91.6395C91.4057 52.7168 91.1771 52.7727 90.9535 52.8845C90.7299 52.9963 90.5419 53.1538 90.3894 53.3571C90.3589 53.3977 90.2929 53.4841 90.1913 53.6162C90.0896 53.7483 89.9626 53.9059 89.8101 54.0888C89.6679 54.2819 89.5154 54.4801 89.3528 54.6834C89.2004 54.8866 89.053 55.0746 88.9107 55.2474C88.7786 55.4303 88.6617 55.5828 88.5601 55.7047C88.4686 55.8369 88.4178 55.908 88.4076 55.9182L85.0538 55.034C84.8302 54.973 84.627 54.8714 84.444 54.7291C84.2713 54.5868 84.1188 54.409 83.9867 54.1955C83.8647 53.9923 83.7682 53.7636 83.697 53.5095C83.6361 53.2554 83.6056 52.9912 83.6056 52.7168H82.7214C82.5791 52.7168 82.508 52.6457 82.508 52.5034V50.9484C82.508 50.8061 82.5791 50.735 82.7214 50.735H83.5903ZM85.2672 49.2105V50.735H87.1423C87.2948 50.735 87.4167 50.6791 87.5082 50.5673C87.6098 50.4453 87.6454 50.3081 87.6149 50.1557L87.4167 49.1343C87.3964 48.992 87.3303 48.8752 87.2186 48.7837C87.1068 48.6922 86.9797 48.6465 86.8374 48.6465H85.8313C85.6788 48.6465 85.5467 48.7024 85.4349 48.8142C85.3231 48.926 85.2672 49.0581 85.2672 49.2105ZM96.2168 52.7168C95.8509 52.7168 95.5054 52.6457 95.1802 52.5034C94.8651 52.3509 94.5907 52.1223 94.357 51.8174C94.1131 52.1223 93.8285 52.3509 93.5033 52.5034C93.1882 52.6457 92.8478 52.7168 92.4819 52.7168H92.0855C91.9432 52.7168 91.8721 52.6457 91.8721 52.5034V50.9637C91.8721 50.9027 91.8975 50.8519 91.9483 50.8112C91.989 50.7604 92.0347 50.735 92.0855 50.735H92.7868C92.99 50.735 93.1628 50.6588 93.3051 50.5063C93.4474 50.3539 93.5185 50.176 93.5185 49.9728V47.2592H95.1954V49.988C95.1954 50.1913 95.2666 50.3691 95.4089 50.5216C95.5511 50.6639 95.7239 50.735 95.9272 50.735H96.3235C96.5268 50.735 96.7046 50.674 96.8571 50.5521C97.0095 50.4301 97.1061 50.2675 97.1467 50.0642L97.7108 47.305L99.4029 47.6098L98.9456 49.8965C98.8948 50.11 98.9405 50.3031 99.0828 50.4758C99.2353 50.6486 99.4182 50.735 99.6316 50.735H100.76V46.8476H102.437V50.857C102.437 51.111 102.386 51.3549 102.284 51.5887C102.193 51.8123 102.061 52.0105 101.888 52.1832C101.725 52.3458 101.527 52.478 101.293 52.5796C101.07 52.6711 100.831 52.7168 100.577 52.7168H99.6316C99.3064 52.7168 99.0015 52.6457 98.7169 52.5034C98.4324 52.3611 98.1885 52.1273 97.9852 51.8021C97.7514 52.1273 97.4821 52.3611 97.1772 52.5034C96.8723 52.6457 96.5522 52.7168 96.2168 52.7168ZM99.8755 45.9177H98.1224V44.1646H99.8755V45.9177ZM97.3297 45.9177H95.5765V44.1646H97.3297V45.9177ZM98.5797 43.6005H96.8266V41.8474H98.5797V43.6005ZM106.173 52.7168V46.0549C106.173 45.5976 106.148 45.1453 106.097 44.6981C106.046 44.2408 105.975 43.7834 105.884 43.3261L105.625 42.0456L107.286 41.7254L107.561 43.1127C107.662 43.6107 107.733 44.1087 107.774 44.6067C107.825 45.0945 107.85 45.5823 107.85 46.0701V52.7168H106.173ZM112.769 46.1921C113.114 46.1921 113.439 46.2582 113.744 46.3903C114.049 46.5224 114.313 46.7003 114.537 46.9238C114.771 47.1474 114.954 47.4117 115.086 47.7166C115.218 48.0215 115.284 48.3467 115.284 48.6922V49.4697C115.284 49.8152 115.218 50.1405 115.086 50.4453C114.954 50.7401 114.771 51.0043 114.537 51.2381C114.313 51.4617 114.049 51.6395 113.744 51.7716C113.439 51.9038 113.114 51.9698 112.769 51.9698H112.022C111.686 51.9698 111.366 51.9038 111.061 51.7716C110.756 51.6395 110.487 51.4617 110.253 51.2381C110.03 51.0043 109.852 50.7401 109.72 50.4453C109.588 50.1405 109.522 49.8152 109.522 49.4697V48.6922C109.522 48.3467 109.588 48.0215 109.72 47.7166C109.852 47.4117 110.03 47.1474 110.253 46.9238C110.477 46.7003 110.741 46.5224 111.046 46.3903C111.351 46.2582 111.676 46.1921 112.022 46.1921H112.769ZM113.439 49.4087V48.677C113.439 48.5042 113.384 48.367 113.272 48.2654C113.16 48.1536 113.018 48.0977 112.845 48.0977H111.961C111.788 48.0977 111.646 48.1536 111.534 48.2654C111.422 48.3772 111.366 48.5144 111.366 48.677V49.4087C111.366 49.5713 111.422 49.7085 111.534 49.8203C111.646 49.9321 111.788 49.988 111.961 49.988H112.845C113.028 49.988 113.17 49.9321 113.272 49.8203C113.384 49.7085 113.439 49.5713 113.439 49.4087ZM124.311 52.3967C124.311 52.793 124.25 53.1741 124.128 53.54C124.006 53.916 123.833 54.2565 123.61 54.5614C123.396 54.8765 123.132 55.1509 122.817 55.3846C122.512 55.6184 122.167 55.8013 121.78 55.9334L119.692 56.6499L119.174 55.0492L121.323 54.3327C121.709 54.2006 122.019 53.9872 122.253 53.6925C122.497 53.3977 122.619 53.0471 122.619 52.6406V52.5339C122.507 52.5847 122.37 52.6304 122.207 52.6711C122.045 52.7016 121.882 52.7168 121.72 52.7168H120.698C120.322 52.7168 119.977 52.6406 119.661 52.4881C119.346 52.3255 119.077 52.1121 118.854 51.8479C118.64 51.5836 118.488 51.2838 118.396 50.9484C118.305 50.6029 118.295 50.2472 118.366 49.8813L118.625 48.494C118.676 48.2196 118.772 47.9656 118.915 47.7318C119.067 47.4879 119.245 47.2795 119.448 47.1068C119.651 46.934 119.88 46.8019 120.134 46.7104C120.398 46.6088 120.673 46.558 120.957 46.558H121.811C122.157 46.558 122.482 46.624 122.787 46.7561C123.092 46.8883 123.356 47.0712 123.579 47.305C123.803 47.5285 123.981 47.7928 124.113 48.0977C124.245 48.4026 124.311 48.7278 124.311 49.0733V52.3967ZM122.634 50.735V49.0581C122.634 48.8955 122.578 48.7583 122.467 48.6465C122.355 48.5245 122.218 48.4635 122.055 48.4635H120.82C120.678 48.4635 120.556 48.5093 120.454 48.6007C120.353 48.6922 120.287 48.8091 120.256 48.9514L120.012 50.1709C119.982 50.3132 120.012 50.4453 120.104 50.5673C120.205 50.6791 120.332 50.735 120.485 50.735H122.634Z" fill="white"/>
<path d="M3.71905 34.3999C3.20074 34.3999 2.71291 34.3033 2.25557 34.1102C1.80839 33.9171 1.41711 33.6529 1.08173 33.3175C0.746351 32.9821 0.482111 32.5857 0.289013 32.1284C0.095914 31.6812 -0.000635295 31.1985 -0.000635295 30.6802V25.8781H2.20983V30.3905C2.20983 30.5938 2.24541 30.7818 2.31655 30.9546C2.39785 31.1273 2.49948 31.2798 2.62144 31.4119C2.75356 31.5339 2.90601 31.6304 3.07878 31.7016C3.25155 31.7727 3.43449 31.8083 3.62759 31.8083H6.41735C6.73241 31.8083 6.99665 31.7016 7.21007 31.4881C7.43366 31.2645 7.54545 30.9952 7.54545 30.6802V25.6494H9.75592V31.046C9.75592 31.5034 9.66446 31.9353 9.48152 32.3418C9.30875 32.7483 9.06992 33.1041 8.76502 33.409C8.46013 33.7138 8.10442 33.9527 7.6979 34.1254C7.29138 34.3084 6.85436 34.3999 6.38686 34.3999H3.71905ZM3.88674 23.5914H5.86854V25.6494H3.88674V23.5914ZM14.4623 31.5034C14.4623 31.6457 14.3912 31.7168 14.2489 31.7168H13.944C13.5375 31.7168 13.1513 31.6406 12.7854 31.4881C12.4196 31.3255 12.1045 31.1121 11.8403 30.8479C11.576 30.5836 11.3626 30.2686 11.2 29.9027C11.0475 29.5368 10.9713 29.1506 10.9713 28.7441V20.9388H13.1818V28.6984C13.1818 28.8203 13.2224 28.9219 13.3038 29.0033C13.3851 29.0846 13.4867 29.1252 13.6086 29.1252H14.2489C14.3099 29.1252 14.3607 29.1506 14.4014 29.2014C14.442 29.2421 14.4623 29.2929 14.4623 29.3539V31.5034ZM14.7502 29.1252V27.8599C14.7502 27.4839 14.8213 27.1282 14.9636 26.7928C15.1161 26.4574 15.3143 26.1678 15.5582 25.9238C15.8122 25.6698 16.107 25.4716 16.4424 25.3293C16.7777 25.187 17.1334 25.1159 17.5095 25.1159H17.9973C18.3225 25.1159 18.6274 25.1718 18.912 25.2836C19.2067 25.3852 19.471 25.5326 19.7047 25.7257C19.9385 25.9188 20.1366 26.1474 20.2992 26.4117C20.4619 26.6759 20.5736 26.9656 20.6346 27.2806L20.8785 28.424C20.97 28.8508 20.9598 29.2624 20.8481 29.6588C20.7464 30.045 20.5686 30.3905 20.3145 30.6954C20.0604 31.0003 19.7454 31.2442 19.3693 31.4271C19.0035 31.5999 18.6071 31.6863 18.1802 31.6863H18.1193C17.6721 31.6863 17.2656 31.6202 16.8997 31.4881V31.6558C16.8997 31.7371 16.9251 31.8133 16.9759 31.8845C17.0369 31.9556 17.103 32.0014 17.1741 32.0217L19.0797 32.7077L20.909 30.5582C21.2851 30.111 21.6916 29.7604 22.1286 29.5063C22.5656 29.2522 23.0738 29.1252 23.6531 29.1252H23.8817C23.9325 29.1252 23.9783 29.1455 24.0189 29.1862C24.0698 29.2268 24.0952 29.2777 24.0952 29.3386V31.4881C24.0952 31.5491 24.0748 31.605 24.0342 31.6558C23.9935 31.6965 23.9427 31.7168 23.8817 31.7168H23.3939C23.211 31.7168 23.028 31.7574 22.8451 31.8388C22.6723 31.9302 22.525 32.0623 22.403 32.2351C22.3319 32.3266 22.2201 32.4638 22.0676 32.6467C21.9253 32.8398 21.7627 33.0532 21.5798 33.287C21.3969 33.5207 21.2088 33.7596 21.0157 34.0035C20.8226 34.2474 20.6499 34.4608 20.4974 34.6438C20.345 34.8369 20.223 34.9842 20.1316 35.0859C20.0503 35.1977 20.0248 35.2332 20.0553 35.1926L15.9545 33.8206C15.7818 33.7596 15.6191 33.6529 15.4667 33.5004C15.3244 33.348 15.2025 33.1701 15.1008 32.9669C14.9992 32.7636 14.9179 32.5502 14.8569 32.3266C14.8061 32.103 14.7807 31.8997 14.7807 31.7168H14.2471C14.1862 31.7168 14.1353 31.6965 14.0947 31.6558C14.0439 31.605 14.0185 31.5491 14.0185 31.4881V29.3386C14.0185 29.2777 14.0439 29.2268 14.0947 29.1862C14.1353 29.1455 14.1862 29.1252 14.2471 29.1252H14.7502ZM16.9454 27.8904V29.11H18.5614C18.6223 29.11 18.6681 29.0896 18.6986 29.049C18.7392 28.9982 18.7545 28.9423 18.7443 28.8813L18.5614 27.8904C18.5207 27.7278 18.4242 27.6465 18.2717 27.6465H17.1893C17.1284 27.6465 17.0725 27.6719 17.0217 27.7227C16.9708 27.7634 16.9454 27.8193 16.9454 27.8904ZM26.7605 28.1648C26.7605 28.2969 26.857 28.4341 27.0501 28.5764C27.2534 28.7187 27.5176 28.8457 27.8428 28.9575C28.1681 28.8457 28.4272 28.7187 28.6203 28.5764C28.8134 28.424 28.91 28.2868 28.91 28.1648V27.7075C28.91 27.4635 28.8236 27.2552 28.6508 27.0824C28.478 26.9097 28.2697 26.8233 28.0258 26.8233H27.6447C27.4007 26.8233 27.1924 26.9097 27.0196 27.0824C26.8469 27.245 26.7605 27.4483 26.7605 27.6922V28.1648ZM24.5805 27.494C24.5805 27.0367 24.672 26.6149 24.8549 26.2287C25.0378 25.8324 25.2767 25.4919 25.5714 25.2073C25.8763 24.9228 26.2167 24.6992 26.5928 24.5366C26.979 24.374 27.3702 24.2927 27.7666 24.2927H28.041C28.4679 24.2927 28.8642 24.374 29.2301 24.5366C29.6061 24.689 29.9313 24.9075 30.2057 25.1921C30.4903 25.4665 30.7139 25.7917 30.8765 26.1678C31.0391 26.5336 31.1204 26.93 31.1204 27.3568V27.9361C31.1204 28.1089 31.1153 28.3071 31.1052 28.5307C31.095 28.7441 31.0645 28.9575 31.0137 29.1709C31.034 29.1709 31.095 29.1659 31.1966 29.1557C31.3084 29.1354 31.4202 29.1252 31.532 29.1252H31.8369C31.8979 29.1252 31.9487 29.1506 31.9894 29.2014C32.03 29.2522 32.0503 29.3081 32.0503 29.3691V31.5034C32.0503 31.5542 32.0249 31.605 31.9741 31.6558C31.9335 31.6965 31.8877 31.7168 31.8369 31.7168H30.6174C30.3633 31.7168 30.1244 31.7117 29.9009 31.7016C29.6874 31.6812 29.474 31.6457 29.2606 31.5948C29.0472 31.544 28.8287 31.4729 28.6051 31.3814C28.3815 31.2899 28.1274 31.168 27.8428 31.0155C27.5684 31.168 27.3194 31.2899 27.0958 31.3814C26.8723 31.4729 26.6538 31.544 26.4403 31.5948C26.2269 31.6457 26.0084 31.6812 25.7848 31.7016C25.5714 31.7117 25.3326 31.7168 25.0683 31.7168H23.8792C23.8183 31.7168 23.7725 31.6965 23.742 31.6558C23.7014 31.605 23.676 31.5542 23.6658 31.5034V29.3691C23.6658 29.3081 23.6861 29.2522 23.7268 29.2014C23.7674 29.1506 23.8183 29.1252 23.8792 29.1252H24.1841C24.2959 29.1252 24.4026 29.1354 24.5043 29.1557C24.6161 29.1659 24.6821 29.1709 24.7024 29.1709C24.6516 28.9474 24.6161 28.7289 24.5957 28.5154C24.5856 28.302 24.5805 28.1089 24.5805 27.9361V27.494ZM26.8672 21.1828H28.849V23.2408H26.8672V21.1828ZM40.7773 29.1252C40.9196 29.1252 41.0415 29.0693 41.1432 28.9575C41.2448 28.8457 41.2956 28.7187 41.2956 28.5764V27.9514C41.2956 27.8193 41.2499 27.7075 41.1584 27.616C41.0669 27.5245 40.9552 27.4788 40.823 27.4788H39.1614C38.7447 27.4788 38.3839 27.6414 38.079 27.9666L36.9966 29.1252H40.7773ZM35.1673 27.3263C35.1673 27.4381 35.1774 27.5347 35.1978 27.616C35.2181 27.6871 35.2384 27.7481 35.2587 27.7989C35.2791 27.8497 35.3045 27.8904 35.335 27.9209L36.9661 26.1525C37.3219 25.7663 37.7436 25.4716 38.2314 25.2683C38.7193 25.0651 39.2223 24.9634 39.7407 24.9634H40.6706C41.0568 24.9634 41.4227 25.0397 41.7682 25.1921C42.1137 25.3344 42.4136 25.5326 42.6676 25.7866C42.9217 26.0407 43.1199 26.3405 43.2622 26.6861C43.4146 27.0215 43.4908 27.3822 43.4908 27.7684V28.5459C43.4908 28.9829 43.4045 29.3945 43.2317 29.7807C43.0691 30.1669 42.8455 30.5023 42.5609 30.7869C42.2764 31.0714 41.941 31.3001 41.5548 31.4729C41.1686 31.6355 40.757 31.7168 40.32 31.7168H36.5088C36.3259 31.7168 36.1175 31.7016 35.8838 31.6711C35.6602 31.6406 35.4315 31.5948 35.1978 31.5339C34.9742 31.4729 34.7608 31.3916 34.5575 31.2899C34.3542 31.1883 34.1865 31.0664 34.0544 30.9241C33.7902 31.2086 33.4955 31.4119 33.1702 31.5339C32.845 31.6558 32.5046 31.7168 32.1488 31.7168H31.844C31.783 31.7168 31.7322 31.6965 31.6915 31.6558C31.6509 31.605 31.6305 31.5491 31.6305 31.4881V29.3844C31.6305 29.3234 31.6509 29.2675 31.6915 29.2167C31.722 29.1557 31.7728 29.1252 31.844 29.1252H32.5452C32.6672 29.1252 32.7688 29.0846 32.8501 29.0033C32.9314 28.9118 32.9721 28.8102 32.9721 28.6984V25.8781H35.1673V27.3263ZM46.7524 31.7168H44.5571V20.9541H46.7524V31.7168ZM73.6635 31.5034C73.6635 31.6457 73.5924 31.7168 73.4501 31.7168H73.2214C72.8149 31.7168 72.4338 31.6457 72.0781 31.5034C71.7325 31.3611 71.4276 31.1578 71.1634 30.8936C70.9297 31.0664 70.6756 31.2188 70.4012 31.3509C70.1369 31.4729 69.8524 31.5542 69.5475 31.5948L65.0046 32.1741L64.6997 29.8417L66.3766 29.6283L65.6296 21.6706L67.8706 21.3962L68.5566 29.3386L69.456 29.2319C69.6593 29.2116 69.8371 29.1455 69.9896 29.0337C70.1522 28.9219 70.2335 28.7034 70.2335 28.3782V20.9236H72.4287V28.6831C72.4287 28.7339 72.4541 28.8203 72.5049 28.9423C72.5659 29.0642 72.6523 29.1252 72.7641 29.1252H73.4501C73.5924 29.1252 73.6635 29.1964 73.6635 29.3386V31.5034ZM83.0124 28.5459C83.0124 28.9829 82.926 29.3945 82.7532 29.7807C82.5906 30.1669 82.367 30.5023 82.0825 30.7869C81.7979 31.0714 81.4625 31.3001 81.0763 31.4729C80.6901 31.6355 80.2785 31.7168 79.8415 31.7168H73.454C73.4032 31.7168 73.3575 31.6965 73.3168 31.6558C73.266 31.6152 73.2406 31.5644 73.2406 31.5034V29.3386C73.2406 29.2878 73.2609 29.2421 73.3016 29.2014C73.3422 29.1506 73.393 29.1252 73.454 29.1252H73.7589L75.2834 27.4635V20.9388H77.4786V24.3689C77.4786 24.4908 77.4634 24.6179 77.4329 24.75C77.4024 24.872 77.3719 24.9838 77.3414 25.0854C77.2906 25.2175 77.2398 25.3395 77.189 25.4513C77.189 25.4614 77.1788 25.4868 77.1585 25.5275C77.1585 25.5376 77.1534 25.5478 77.1432 25.558C77.4583 25.3649 77.7937 25.2175 78.1494 25.1159C78.5051 25.0041 78.876 24.9482 79.2622 24.9482H80.1921C80.5885 24.9482 80.9595 25.0244 81.305 25.1769C81.6506 25.3191 81.9453 25.5173 82.1892 25.7714C82.4433 26.0255 82.6415 26.3253 82.7837 26.6708C82.9362 27.0062 83.0124 27.3721 83.0124 27.7684V28.5459ZM80.2989 29.1252C80.4411 29.1252 80.5631 29.0795 80.6647 28.988C80.7664 28.8864 80.8172 28.7644 80.8172 28.6221V27.9361C80.8172 27.804 80.7714 27.6973 80.68 27.616C80.5885 27.5245 80.4767 27.4788 80.3446 27.4788H78.8354C78.3984 27.4788 78.0376 27.6363 77.753 27.9514L76.7011 29.1252H80.2989ZM93.917 28.9728C94.3946 29.0744 94.7757 29.3183 95.0603 29.7045C95.355 30.0907 95.5024 30.5277 95.5024 31.0155V31.4729C95.5024 31.9505 95.4109 32.3977 95.228 32.8144C95.0552 33.2413 94.8113 33.6071 94.4963 33.912C94.1812 34.2271 93.8153 34.4761 93.3986 34.659C92.982 34.8419 92.5348 34.9334 92.0571 34.9334H89.0234C88.5051 34.9334 88.0173 34.8369 87.56 34.6438C87.1128 34.4507 86.7215 34.1864 86.3861 33.851C86.0507 33.5157 85.7865 33.1193 85.5934 32.662C85.4003 32.2148 85.3037 31.732 85.3037 31.2137V27.738H87.499V30.8936C87.499 31.3001 87.6362 31.6406 87.9106 31.915C88.1951 32.1894 88.5356 32.3266 88.932 32.3266H92.362C92.6262 32.3266 92.8498 32.2351 93.0328 32.0522C93.2157 31.8692 93.3072 31.6457 93.3072 31.3814V31.1375L88.932 30.1161V28.18C88.932 27.7532 89.0031 27.3467 89.1454 26.9605C89.2877 26.5641 89.4909 26.2135 89.7552 25.9086C90.0194 25.6037 90.3345 25.3496 90.7003 25.1464C91.0764 24.9431 91.4931 24.811 91.9504 24.75L94.3895 24.4299L94.7554 26.8843L91.9504 27.2349C91.6963 27.2654 91.488 27.367 91.3254 27.5398C91.1628 27.7024 91.0815 27.9107 91.0815 28.1648V28.3782L93.917 28.9728ZM96.143 35.7414L95.4875 33.7138L97.9724 32.8601C98.3078 32.7483 98.5771 32.5502 98.7804 32.2656C98.9836 31.9912 99.0852 31.6761 99.0852 31.3204V25.6799H101.28V31.0918C101.28 31.5288 101.214 31.9455 101.082 32.3418C100.95 32.7483 100.762 33.1193 100.518 33.4547C100.284 33.7901 99.9999 34.0848 99.6645 34.3389C99.3292 34.5929 98.9582 34.786 98.5517 34.9182L96.143 35.7414ZM105.105 31.7168C104.689 31.7168 104.303 31.6304 103.947 31.4576C103.591 31.2747 103.291 31.0359 103.047 30.7411C102.804 30.4362 102.626 30.0958 102.514 29.7198C102.412 29.3336 102.397 28.9372 102.468 28.5307L102.743 27.1282C102.804 26.8131 102.91 26.5235 103.063 26.2592C103.225 25.995 103.423 25.7663 103.657 25.5732C103.891 25.3801 104.155 25.2277 104.45 25.1159C104.745 25.0041 105.055 24.9482 105.38 24.9482H106.218C106.604 24.9482 106.965 25.0244 107.301 25.1769C107.646 25.3191 107.946 25.5173 108.2 25.7714C108.454 26.0255 108.657 26.3253 108.81 26.6708C108.962 27.0164 109.039 27.3822 109.039 27.7684V29.1252H109.572C109.714 29.1252 109.786 29.1913 109.786 29.3234V31.5034C109.786 31.6457 109.714 31.7168 109.572 31.7168H109.023C108.952 32.479 108.663 33.1396 108.154 33.6986C107.656 34.2677 107.042 34.6793 106.31 34.9334L103.901 35.7566L103.246 33.7291L105.654 32.9059C105.979 32.7941 106.254 32.6264 106.477 32.4028C106.701 32.1894 106.813 31.9048 106.813 31.5491V31.4424C106.671 31.5237 106.493 31.5898 106.279 31.6406C106.076 31.6914 105.873 31.7168 105.669 31.7168H105.105ZM104.801 29.1252H106.843L106.828 27.7532C106.828 27.6821 106.803 27.6211 106.752 27.5703C106.701 27.5194 106.64 27.489 106.569 27.4788H105.136C105.014 27.4686 104.928 27.5398 104.877 27.6922L104.633 28.927C104.613 28.9778 104.623 29.0236 104.663 29.0642C104.704 29.1049 104.75 29.1252 104.801 29.1252ZM118.504 29.1252C118.646 29.1252 118.768 29.0744 118.87 28.9728C118.972 28.861 119.022 28.7339 119.022 28.5916V27.9361C119.022 27.804 118.977 27.6973 118.885 27.616C118.794 27.5245 118.682 27.4788 118.55 27.4788H116.888C116.451 27.4788 116.09 27.6363 115.806 27.9514L114.739 29.1252H118.504ZM112.909 27.3263C112.909 27.5601 112.935 27.7176 112.985 27.7989C113.036 27.8701 113.062 27.9107 113.062 27.9209L114.708 26.1525C115.064 25.7663 115.481 25.4716 115.958 25.2683C116.446 25.0549 116.949 24.9482 117.467 24.9482H118.397C118.784 24.9482 119.149 25.0244 119.495 25.1769C119.84 25.3191 120.14 25.5173 120.394 25.7714C120.648 26.0255 120.847 26.3253 120.989 26.6708C121.141 27.0164 121.218 27.3822 121.218 27.7684V28.6984C121.218 28.8102 121.258 28.9118 121.34 29.0033C121.431 29.0846 121.533 29.1252 121.644 29.1252H122.3C122.361 29.1252 122.412 29.1506 122.452 29.2014C122.503 29.2522 122.529 29.3081 122.529 29.3691V31.5034C122.529 31.5542 122.503 31.605 122.452 31.6558C122.412 31.6965 122.361 31.7168 122.3 31.7168H121.995C121.629 31.7168 121.279 31.6609 120.943 31.5491C120.618 31.4271 120.323 31.2595 120.059 31.046C119.774 31.2493 119.459 31.4119 119.114 31.5339C118.778 31.6558 118.423 31.7168 118.047 31.7168H114.236C114.053 31.7168 113.849 31.7016 113.626 31.6711C113.402 31.6406 113.173 31.5948 112.94 31.5339C112.716 31.4729 112.503 31.3916 112.299 31.2899C112.096 31.1883 111.929 31.0664 111.796 30.9241C111.532 31.2086 111.232 31.4119 110.897 31.5339C110.572 31.6558 110.231 31.7168 109.876 31.7168H109.571C109.51 31.7168 109.459 31.6965 109.418 31.6558C109.378 31.605 109.357 31.5542 109.357 31.5034V29.3691C109.357 29.3081 109.383 29.2522 109.433 29.2014C109.484 29.1506 109.53 29.1252 109.571 29.1252H110.287C110.399 29.1252 110.496 29.0896 110.577 29.0185C110.668 28.9372 110.714 28.8356 110.714 28.7136V25.8629H112.909V27.3263ZM116.98 21.8535H118.961V23.9115H116.98V21.8535ZM122.086 29.3691C122.086 29.3081 122.111 29.2522 122.162 29.2014C122.203 29.1506 122.249 29.1252 122.299 29.1252H125.379C125.765 29.1252 126.151 29.0642 126.537 28.9423C126.924 28.8203 127.244 28.6069 127.498 28.302L127.986 27.6007C128.036 27.5398 128.067 27.494 128.077 27.4635C128.087 27.4534 128.097 27.4432 128.108 27.4331L125.196 26.5794C125.104 26.5489 125.043 26.5844 125.013 26.6861L124.434 28.3325L122.574 27.8447L123.016 26.305C123.128 25.9391 123.295 25.6291 123.519 25.375C123.743 25.1108 123.997 24.9126 124.281 24.7805C124.576 24.6382 124.881 24.5518 125.196 24.5213C125.521 24.4908 125.831 24.5213 126.126 24.6128L132.285 26.4574L131.705 28.5002L130.73 28.2105C130.526 28.1597 130.369 28.1394 130.257 28.1496C130.145 28.1597 130.033 28.2359 129.922 28.3782L128.351 30.3295C128.138 30.5836 127.894 30.8021 127.62 30.9851C127.345 31.1578 127.051 31.3001 126.736 31.4119C126.431 31.5135 126.105 31.5898 125.76 31.6406C125.424 31.6914 125.089 31.7168 124.754 31.7168H122.299C122.238 31.7168 122.188 31.6965 122.147 31.6558C122.106 31.605 122.086 31.5542 122.086 31.5034V29.3691Z" fill="#FAE210"/>
</svg>
