<svg width="204" height="86" viewBox="0 0 204 86" fill="none" xmlns="http://www.w3.org/2000/svg">
<g filter="url(#filter0_d_12276_13)">
<path d="M10.69 15.6855H192.44C196.11 15.6855 199.08 18.6655 199.08 22.3255V75.0055C199.08 78.6955 196.08 81.6955 192.39 81.6955H10.69C7 81.6955 4 78.6955 4 75.0055V22.3755C4 18.6855 7 15.6855 10.69 15.6855Z" fill="url(#paint0_linear_12276_13)"/>
</g>
<path d="M10.6904 16.1855H192.44C195.833 16.1858 198.58 18.9411 198.58 22.3252V75.0059C198.58 78.4196 195.803 81.1953 192.39 81.1953H10.6904C7.27668 81.1953 4.50017 78.4196 4.5 75.0059V22.376C4.5 18.9621 7.27657 16.1855 10.6904 16.1855Z" stroke="#2EA1FF"/>
<g filter="url(#filter1_f_12276_13)">
<path d="M10.6904 16.1855H192.44C195.833 16.1858 198.58 18.9411 198.58 22.3252V75.0059C198.58 78.4196 195.803 81.1953 192.39 81.1953H10.6904C7.27668 81.1953 4.50017 78.4196 4.5 75.0059V22.376C4.5 18.9621 7.27657 16.1855 10.6904 16.1855Z" stroke="#2EA1FF"/>
</g>
<rect x="34.3223" y="2" width="134.436" height="27.5625" rx="5" fill="url(#paint1_linear_12276_13)"/>
<rect x="34.8223" y="2.5" width="133.436" height="26.5625" rx="4.5" stroke="#2EA1FF"/>
<g filter="url(#filter2_f_12276_13)">
<rect x="34.8223" y="2.5" width="133.436" height="26.5625" rx="4.5" stroke="#2EA1FF"/>
</g>
<path d="M43.6391 20.0312H42.8391C42.6991 19.7313 42.5624 19.4013 42.4291 19.0413C42.3024 18.6812 42.1924 18.3146 42.0991 17.9412C42.0057 17.5679 41.9291 17.1946 41.8691 16.8212C41.8157 16.4412 41.7891 16.0846 41.7891 15.7512C41.7891 15.0779 41.8791 14.3612 42.0591 13.6012C42.2457 12.8412 42.5057 12.0679 42.8391 11.2812H43.6391C43.5324 11.5679 43.4224 11.9012 43.3091 12.2812C43.1957 12.6546 43.0924 13.0479 42.9991 13.4612C42.9057 13.8679 42.8291 14.2779 42.7691 14.6912C42.7157 15.0979 42.6891 15.4746 42.6891 15.8212C42.6891 16.1212 42.7157 16.4479 42.7691 16.8012C42.8224 17.1479 42.8924 17.5046 42.9791 17.8712C43.0657 18.2379 43.1657 18.6046 43.2791 18.9713C43.3924 19.3446 43.5124 19.6979 43.6391 20.0312ZM45.7271 16.2812C45.6538 16.3412 45.5938 16.4079 45.5471 16.4812C45.5071 16.5546 45.4838 16.6512 45.4771 16.7712V17.1512C45.4771 17.2712 45.5004 17.3879 45.5471 17.5012C45.5938 17.6146 45.6571 17.7146 45.7371 17.8012C45.8238 17.8812 45.9238 17.9479 46.0371 18.0012C46.1504 18.0479 46.2704 18.0712 46.3971 18.0712H46.6771C46.8104 18.0712 46.9338 18.0446 47.0471 17.9912C47.1604 17.9379 47.2571 17.8712 47.3371 17.7912C47.4171 17.7046 47.4804 17.6079 47.5271 17.5012C47.5738 17.3879 47.5971 17.2746 47.5971 17.1612V16.7812C47.5971 16.6879 47.5738 16.5979 47.5271 16.5112C47.4871 16.4179 47.4204 16.3379 47.3271 16.2712C47.3004 16.2512 47.2438 16.2146 47.1571 16.1612C47.0704 16.1012 46.9804 16.0412 46.8871 15.9812C46.7804 15.9079 46.6604 15.8279 46.5271 15.7412L45.7271 16.2812ZM45.6571 14.2912C45.7571 14.3579 45.8638 14.4312 45.9771 14.5112C46.0704 14.5779 46.1771 14.6512 46.2971 14.7312C46.4238 14.8112 46.5538 14.8979 46.6871 14.9912C46.9871 15.1979 47.3304 15.4312 47.7171 15.6912C47.9038 15.8246 48.0438 15.9946 48.1371 16.2012C48.2371 16.4079 48.2871 16.6279 48.2871 16.8612V17.2212C48.2871 17.4346 48.2471 17.6412 48.1671 17.8412C48.0871 18.0412 47.9738 18.2179 47.8271 18.3712C47.6804 18.5246 47.5038 18.6479 47.2971 18.7412C47.0971 18.8279 46.8771 18.8713 46.6371 18.8713H46.4271C46.1871 18.8713 45.9671 18.8279 45.7671 18.7412C45.5671 18.6479 45.3938 18.5246 45.2471 18.3712C45.1071 18.2179 44.9938 18.0412 44.9071 17.8412C44.8271 17.6412 44.7871 17.4346 44.7871 17.2212V16.8812C44.7871 16.6212 44.8404 16.3879 44.9471 16.1812C45.0604 15.9679 45.2071 15.8046 45.3871 15.6912C45.4604 15.6446 45.5304 15.6012 45.5971 15.5612C45.6638 15.5212 45.7238 15.4846 45.7771 15.4512C45.8371 15.4112 45.8971 15.3712 45.9571 15.3312L45.2871 14.8812L45.6571 14.2912ZM50.462 15.7012V17.2712C50.462 17.4646 50.532 17.6279 50.672 17.7612C50.8186 17.8946 50.9886 17.9612 51.182 17.9612H52.182C52.222 17.9612 52.2553 17.9779 52.282 18.0112C52.3086 18.0379 52.322 18.0712 52.322 18.1112V18.6412C52.322 18.7346 52.2753 18.7812 52.182 18.7812H51.302C51.142 18.7812 50.9853 18.7479 50.832 18.6812C50.6786 18.6146 50.5553 18.5146 50.462 18.3812V18.8213C50.462 19.0546 50.4253 19.2779 50.352 19.4913C50.2786 19.7113 50.1753 19.9113 50.042 20.0913C49.9153 20.2713 49.7586 20.4279 49.572 20.5613C49.3853 20.7013 49.182 20.8079 48.962 20.8813L47.822 21.2812L47.602 20.5913L48.812 20.1913C49.1053 20.0979 49.3386 19.9279 49.512 19.6813C49.6853 19.4346 49.772 19.1613 49.772 18.8613V15.7012H50.462ZM53.4016 16.8012C53.4016 17.0146 53.495 17.2079 53.6816 17.3812C53.8683 17.5546 54.1083 17.7146 54.4016 17.8612C54.695 17.7146 54.9383 17.5546 55.1316 17.3812C55.325 17.2079 55.4216 17.0146 55.4216 16.8012V16.5112C55.4216 16.3779 55.395 16.2546 55.3416 16.1413C55.295 16.0279 55.2283 15.9312 55.1416 15.8512C55.055 15.7646 54.955 15.6979 54.8416 15.6512C54.7283 15.5979 54.605 15.5712 54.4716 15.5712H54.3316C54.205 15.5712 54.085 15.5979 53.9716 15.6512C53.8583 15.6979 53.7583 15.7646 53.6716 15.8512C53.5916 15.9312 53.525 16.0279 53.4716 16.1413C53.425 16.2546 53.4016 16.3779 53.4016 16.5112V16.8012ZM52.7216 16.4512C52.7216 16.2246 52.765 16.0112 52.8516 15.8112C52.9383 15.6112 53.055 15.4379 53.2016 15.2912C53.355 15.1379 53.5283 15.0179 53.7216 14.9312C53.9216 14.8446 54.1316 14.8012 54.3516 14.8012H54.4716C54.6983 14.8012 54.9083 14.8446 55.1016 14.9312C55.3016 15.0179 55.475 15.1379 55.6216 15.2912C55.7683 15.4379 55.885 15.6112 55.9716 15.8112C56.0583 16.0046 56.1016 16.2146 56.1016 16.4412V16.7512C56.1016 16.9912 56.0416 17.2112 55.9216 17.4112C55.8083 17.6112 55.655 17.7946 55.4616 17.9612H55.7616H56.6416C56.675 17.9612 56.705 17.9779 56.7316 18.0112C56.765 18.0379 56.7816 18.0712 56.7816 18.1112V18.6412C56.7816 18.6746 56.765 18.7079 56.7316 18.7412C56.705 18.7679 56.675 18.7812 56.6416 18.7812H55.7616C55.5283 18.7812 55.3016 18.7612 55.0816 18.7212C54.8683 18.6746 54.6416 18.6046 54.4016 18.5112C54.1683 18.6046 53.9416 18.6746 53.7216 18.7212C53.5083 18.7612 53.285 18.7812 53.0516 18.7812H52.1816C52.1416 18.7812 52.1083 18.7679 52.0816 18.7412C52.055 18.7079 52.0416 18.6746 52.0416 18.6412V18.1112C52.0416 18.0712 52.055 18.0379 52.0816 18.0112C52.1083 17.9779 52.1416 17.9612 52.1816 17.9612H53.0616H53.3616C53.1683 17.7946 53.0116 17.6112 52.8916 17.4112C52.7783 17.2112 52.7216 16.9912 52.7216 16.7512V16.4512ZM53.2916 13.6312H54.1416V12.7812H53.2916V13.6312ZM54.6616 13.6312H55.5116V12.7812H54.6616V13.6312ZM57.8545 17.9612C58.0545 17.9612 58.2245 17.8912 58.3645 17.7512C58.5045 17.6112 58.5745 17.4446 58.5745 17.2512V15.4112H59.2645V17.2512C59.2645 17.4646 59.2245 17.6646 59.1445 17.8512C59.0645 18.0379 58.9545 18.2012 58.8145 18.3412C58.6745 18.4746 58.5112 18.5812 58.3245 18.6612C58.1445 18.7412 57.9479 18.7812 57.7345 18.7812H56.6445C56.5512 18.7812 56.5045 18.7346 56.5045 18.6412V18.1112C56.5045 18.0712 56.5179 18.0379 56.5445 18.0112C56.5712 17.9779 56.6045 17.9612 56.6445 17.9612H57.8545ZM58.4645 14.2212H59.3145V13.3712H58.4645V14.2212ZM65.7246 15.2412C65.9179 15.2412 66.0979 15.2779 66.2646 15.3512C66.4379 15.4246 66.5879 15.5246 66.7146 15.6512C66.8413 15.7712 66.9413 15.9179 67.0146 16.0912C67.0879 16.2579 67.1246 16.4379 67.1246 16.6312V17.8812C67.1246 18.1546 67.0413 18.3746 66.8746 18.5412C66.7146 18.7012 66.5013 18.7812 66.2346 18.7812H64.9946C64.7879 18.7812 64.5979 18.7379 64.4246 18.6512C64.2513 18.5646 64.1046 18.4479 63.9846 18.3012C63.8646 18.1546 63.7779 17.9879 63.7246 17.8012C63.6713 17.6079 63.6646 17.4112 63.7046 17.2112L63.9246 16.0012H63.3846C63.1846 16.0012 63.0113 16.0779 62.8646 16.2312C62.7246 16.3846 62.6546 16.5612 62.6546 16.7612V21.2713H61.9646V16.7812C61.9646 16.5679 62.0046 16.3679 62.0846 16.1812C62.1713 15.9946 62.2846 15.8312 62.4246 15.6912C62.5646 15.5512 62.7279 15.4412 62.9146 15.3612C63.1013 15.2812 63.3013 15.2412 63.5146 15.2412H65.7246ZM66.4346 17.9612V16.6212C66.4346 16.4479 66.3746 16.3012 66.2546 16.1812C66.1346 16.0612 65.9879 16.0012 65.8146 16.0012H64.6246L64.3846 17.3113C64.3513 17.4846 64.3846 17.6379 64.4846 17.7712C64.5846 17.8979 64.7346 17.9612 64.9346 17.9612H66.4346ZM69.3096 15.7012V17.2712C69.3096 17.4646 69.3796 17.6279 69.5196 17.7612C69.6663 17.8946 69.8363 17.9612 70.0296 17.9612H71.0296C71.0696 17.9612 71.1029 17.9779 71.1296 18.0112C71.1563 18.0379 71.1696 18.0712 71.1696 18.1112V18.6412C71.1696 18.7346 71.1229 18.7812 71.0296 18.7812H70.1496C69.9896 18.7812 69.8329 18.7479 69.6796 18.6812C69.5263 18.6146 69.4029 18.5146 69.3096 18.3812V18.8213C69.3096 19.0546 69.2729 19.2779 69.1996 19.4913C69.1263 19.7113 69.0229 19.9113 68.8896 20.0913C68.7629 20.2713 68.6063 20.4279 68.4196 20.5613C68.2329 20.7013 68.0296 20.8079 67.8096 20.8813L66.6696 21.2812L66.4496 20.5913L67.6596 20.1913C67.9529 20.0979 68.1863 19.9279 68.3596 19.6813C68.5329 19.4346 68.6196 19.1613 68.6196 18.8613V15.7012H69.3096ZM72.5093 15.9912L71.9993 15.5112L74.6293 12.4412L75.1193 12.9013L73.1493 15.2412H77.0893C77.2826 15.2412 77.4626 15.2779 77.6293 15.3512C77.8026 15.4246 77.9526 15.5246 78.0793 15.6512C78.206 15.7712 78.306 15.9179 78.3793 16.0912C78.4526 16.2579 78.4893 16.4379 78.4893 16.6312V17.3812C78.4893 17.5746 78.4526 17.7579 78.3793 17.9312C78.306 18.0979 78.2026 18.2446 78.0693 18.3712C77.9426 18.4979 77.7926 18.5979 77.6193 18.6712C77.4526 18.7446 77.2726 18.7812 77.0793 18.7812H71.0293C70.9893 18.7812 70.956 18.7679 70.9293 18.7412C70.9026 18.7079 70.8893 18.6746 70.8893 18.6412V18.1012C70.8893 18.0079 70.936 17.9612 71.0293 17.9612H77.1793C77.3526 17.9679 77.4993 17.9112 77.6193 17.7912C77.7393 17.6646 77.7993 17.5112 77.7993 17.3312V16.6612C77.7993 16.4746 77.7326 16.3179 77.5993 16.1912C77.4726 16.0579 77.3126 15.9912 77.1193 15.9912H72.5093ZM71.5793 14.3412L73.5993 11.9512L73.9593 12.2812L71.9393 14.6512L71.5793 14.3412ZM81.4743 18.7812V14.6512C81.4743 14.3379 81.4576 14.0312 81.4243 13.7313C81.391 13.4246 81.3443 13.1179 81.2843 12.8112L81.1543 12.2212L81.8343 12.0912L81.9643 12.7712C82.091 13.3846 82.1543 14.0146 82.1543 14.6612V18.7812H81.4743ZM84.6031 20.0312C84.7298 19.6979 84.8498 19.3446 84.9631 18.9713C85.0765 18.6046 85.1765 18.2379 85.2631 17.8712C85.3498 17.5046 85.4198 17.1479 85.4731 16.8012C85.5265 16.4479 85.5531 16.1212 85.5531 15.8212C85.5531 15.4746 85.5231 15.0979 85.4631 14.6912C85.4098 14.2779 85.3365 13.8679 85.2431 13.4612C85.1498 13.0479 85.0465 12.6546 84.9331 12.2812C84.8265 11.9012 84.7165 11.5679 84.6031 11.2812H85.4031C85.7365 12.0679 85.9931 12.8412 86.1731 13.6012C86.3598 14.3612 86.4531 15.0779 86.4531 15.7512C86.4531 16.0846 86.4231 16.4412 86.3631 16.8212C86.3098 17.1946 86.2365 17.5679 86.1431 17.9412C86.0498 18.3146 85.9365 18.6812 85.8031 19.0413C85.6765 19.4013 85.5431 19.7313 85.4031 20.0312H84.6031ZM90.0973 16.2113C90.0506 16.2446 90.0039 16.2912 89.9573 16.3512C89.9173 16.4046 89.8973 16.4812 89.8973 16.5812V17.0012C89.8973 17.0679 89.9106 17.1379 89.9373 17.2112C89.9706 17.2846 90.0139 17.3546 90.0673 17.4212C90.1273 17.4812 90.1973 17.5346 90.2773 17.5812C90.3573 17.6212 90.4506 17.6412 90.5573 17.6412H91.0173C91.1373 17.6412 91.2406 17.6179 91.3273 17.5712C91.4139 17.5179 91.4806 17.4579 91.5273 17.3912C91.5806 17.3246 91.6173 17.2579 91.6373 17.1912C91.6639 17.1179 91.6773 17.0646 91.6773 17.0312V16.6112C91.6773 16.5379 91.6573 16.4646 91.6173 16.3912C91.5839 16.3179 91.5306 16.2579 91.4573 16.2113C91.4306 16.1979 91.3773 16.1646 91.2973 16.1112C91.2239 16.0579 91.1406 16.0046 91.0473 15.9512C90.9473 15.8912 90.8373 15.8212 90.7173 15.7412L90.0973 16.2113ZM89.7473 13.7612L92.0473 15.2912C92.3273 15.4779 92.5173 15.6946 92.6173 15.9412C92.7239 16.1879 92.7773 16.4279 92.7773 16.6612V17.0012C92.7773 17.2212 92.7373 17.4446 92.6573 17.6712C92.5839 17.8912 92.4673 18.0912 92.3073 18.2712C92.1473 18.4512 91.9473 18.6012 91.7073 18.7212C91.4739 18.8346 91.1973 18.8913 90.8773 18.8913H90.6673C90.3673 18.8913 90.1006 18.8346 89.8673 18.7212C89.6339 18.6012 89.4373 18.4512 89.2773 18.2712C89.1173 18.0846 88.9973 17.8812 88.9173 17.6612C88.8373 17.4346 88.7973 17.2146 88.7973 17.0012V16.6912C88.7973 16.5312 88.8173 16.3779 88.8573 16.2312C88.9039 16.0846 88.9639 15.9512 89.0373 15.8312C89.1106 15.7046 89.1906 15.5946 89.2773 15.5012C89.3706 15.4079 89.4673 15.3346 89.5673 15.2812C89.6206 15.2479 89.6639 15.2246 89.6973 15.2112C89.7306 15.1912 89.7573 15.1746 89.7773 15.1612C89.7973 15.1546 89.8106 15.1479 89.8173 15.1412L89.1473 14.6912L89.7473 13.7612ZM95.1419 15.2012V17.0712C95.1419 17.1912 95.1919 17.2912 95.2919 17.3712C95.3919 17.4446 95.5019 17.4812 95.6219 17.4812H96.3519C96.4452 17.4812 96.4919 17.5279 96.4919 17.6212V18.6412C96.4919 18.7346 96.4452 18.7812 96.3519 18.7812H95.8019C95.6885 18.7812 95.5685 18.7612 95.4419 18.7212C95.3152 18.6812 95.2152 18.5979 95.1419 18.4712V18.6512C95.1419 18.9046 95.0985 19.1446 95.0119 19.3713C94.9319 19.6046 94.8185 19.8179 94.6719 20.0113C94.5252 20.2046 94.3519 20.3713 94.1519 20.5113C93.9519 20.6579 93.7319 20.7713 93.4919 20.8513L92.1119 21.3213L91.7719 20.2913L93.2119 19.8213C93.4652 19.7413 93.6652 19.5913 93.8119 19.3713C93.9652 19.1579 94.0419 18.9213 94.0419 18.6612V15.2012H95.1419ZM97.9416 16.5612C97.9416 16.7012 98.0182 16.8346 98.1716 16.9612C98.3316 17.0879 98.5382 17.1979 98.7916 17.2912C99.0382 17.1979 99.2382 17.0879 99.3916 16.9612C99.5516 16.8346 99.6316 16.7012 99.6316 16.5612V16.3112C99.6316 16.1046 99.5582 15.9312 99.4116 15.7912C99.2649 15.6446 99.0882 15.5712 98.8816 15.5712H98.6916C98.4849 15.5712 98.3082 15.6446 98.1616 15.7912C98.0149 15.9312 97.9416 16.1046 97.9416 16.3112V16.5612ZM96.8816 16.2113C96.8816 15.9446 96.9316 15.6979 97.0316 15.4712C97.1382 15.2379 97.2749 15.0379 97.4416 14.8712C97.6149 14.6979 97.8116 14.5646 98.0316 14.4712C98.2582 14.3712 98.4916 14.3212 98.7316 14.3212H98.8916C99.1449 14.3212 99.3816 14.3712 99.6016 14.4712C99.8282 14.5646 100.025 14.6946 100.192 14.8612C100.358 15.0279 100.488 15.2246 100.582 15.4512C100.682 15.6712 100.732 15.9079 100.732 16.1612V16.5112C100.732 16.8446 100.622 17.1679 100.402 17.4812H100.722H101.252C101.298 17.4812 101.332 17.4979 101.352 17.5312C101.378 17.5579 101.392 17.5912 101.392 17.6312V18.6412C101.392 18.6746 101.378 18.7079 101.352 18.7412C101.325 18.7679 101.292 18.7812 101.252 18.7812H100.152C100.032 18.7812 99.9216 18.7779 99.8216 18.7712C99.7216 18.7579 99.6182 18.7379 99.5116 18.7112C99.4116 18.6779 99.3049 18.6346 99.1916 18.5812C99.0782 18.5279 98.9449 18.4579 98.7916 18.3712C98.6382 18.4579 98.5049 18.5279 98.3916 18.5812C98.2782 18.6346 98.1716 18.6779 98.0716 18.7112C97.9716 18.7379 97.8716 18.7579 97.7716 18.7712C97.6716 18.7779 97.5616 18.7812 97.4416 18.7812H96.3516C96.3116 18.7812 96.2782 18.7679 96.2516 18.7412C96.2249 18.7079 96.2116 18.6746 96.2116 18.6412V17.6312C96.2116 17.5912 96.2249 17.5579 96.2516 17.5312C96.2716 17.4979 96.3049 17.4812 96.3516 17.4812H96.9016H97.2016C96.9882 17.1746 96.8816 16.8512 96.8816 16.5112V16.2113ZM97.3716 13.4012H98.5216V12.2512H97.3716V13.4012ZM99.0416 13.4012H100.192V12.2512H99.0416V13.4012ZM102.954 17.4812C103.087 17.4812 103.201 17.4346 103.294 17.3412C103.387 17.2412 103.434 17.1246 103.434 16.9912V14.9212H104.534V16.9912C104.534 17.2379 104.487 17.4712 104.394 17.6912C104.301 17.9046 104.171 18.0946 104.004 18.2612C103.844 18.4212 103.654 18.5479 103.434 18.6412C103.221 18.7346 102.991 18.7812 102.744 18.7812H101.254C101.214 18.7812 101.181 18.7679 101.154 18.7412C101.127 18.7079 101.114 18.6746 101.114 18.6412V17.6312C101.114 17.5912 101.127 17.5579 101.154 17.5312C101.181 17.4979 101.214 17.4812 101.254 17.4812H102.954ZM103.384 14.0112H104.534V12.8612H103.384V14.0112ZM112.039 17.1712C112.299 17.2312 112.509 17.3612 112.669 17.5612C112.836 17.7612 112.919 17.9979 112.919 18.2712V18.6212C112.919 18.9013 112.866 19.1646 112.759 19.4113C112.653 19.6646 112.506 19.8846 112.319 20.0713C112.139 20.2579 111.923 20.4046 111.669 20.5113C111.423 20.6179 111.156 20.6713 110.869 20.6713H108.869C108.563 20.6713 108.273 20.6113 107.999 20.4913C107.726 20.3779 107.486 20.2179 107.279 20.0113C107.079 19.8113 106.919 19.5746 106.799 19.3013C106.686 19.0346 106.629 18.7446 106.629 18.4312V16.1413H107.729V18.2712C107.729 18.4246 107.759 18.5679 107.819 18.7012C107.879 18.8346 107.959 18.9513 108.059 19.0513C108.159 19.1513 108.276 19.2279 108.409 19.2813C108.543 19.3413 108.686 19.3713 108.839 19.3713H110.989C111.223 19.3713 111.419 19.2913 111.579 19.1313C111.739 18.9713 111.819 18.7746 111.819 18.5412V18.2812L109.019 17.6212V16.4512C109.019 16.1846 109.063 15.9346 109.149 15.7012C109.243 15.4679 109.369 15.2612 109.529 15.0812C109.689 14.8946 109.879 14.7446 110.099 14.6312C110.319 14.5112 110.559 14.4346 110.819 14.4012L112.219 14.2212L112.399 15.4212L110.799 15.6312C110.593 15.6579 110.419 15.7479 110.279 15.9012C110.146 16.0546 110.079 16.2346 110.079 16.4412V16.7312L112.039 17.1712ZM115.171 18.7812H114.071V11.9312H115.171V18.7812ZM116.268 16.1312C116.268 15.9246 116.301 15.7279 116.368 15.5412C116.435 15.3479 116.528 15.1746 116.648 15.0212C116.768 14.8679 116.908 14.7346 117.068 14.6212C117.235 14.5079 117.418 14.4279 117.618 14.3812L118.938 14.0612V13.3112H120.038V16.9412C120.038 17.0879 120.095 17.2146 120.208 17.3212C120.328 17.4279 120.465 17.4812 120.618 17.4812H120.918C120.951 17.4812 120.981 17.4946 121.008 17.5212C121.041 17.5479 121.058 17.5812 121.058 17.6212V18.6412C121.058 18.6812 121.041 18.7146 121.008 18.7412C120.981 18.7679 120.951 18.7812 120.918 18.7812H120.618C120.278 18.7812 119.988 18.6979 119.748 18.5312C119.508 18.3646 119.311 18.1412 119.158 17.8612C119.085 17.9146 118.985 17.9579 118.858 17.9912C118.731 18.0179 118.615 18.0312 118.508 18.0312H117.528C117.355 18.0312 117.191 17.9979 117.038 17.9312C116.885 17.8646 116.751 17.7746 116.638 17.6612C116.525 17.5479 116.435 17.4146 116.368 17.2612C116.301 17.1079 116.268 16.9446 116.268 16.7712V16.1312ZM118.938 15.2412L117.918 15.4912C117.751 15.5312 117.618 15.6179 117.518 15.7512C117.418 15.8846 117.368 16.0379 117.368 16.2113V16.7312H118.938V15.2412ZM128.392 18.6412C128.392 18.7346 128.345 18.7812 128.252 18.7812H128.022C127.782 18.7812 127.555 18.7346 127.342 18.6412C127.135 18.5412 126.955 18.3879 126.802 18.1812C126.642 18.3879 126.455 18.5412 126.242 18.6412C126.029 18.7346 125.802 18.7812 125.562 18.7812H120.922C120.882 18.7812 120.849 18.7679 120.822 18.7412C120.795 18.7079 120.782 18.6712 120.782 18.6312V17.6212C120.782 17.5279 120.829 17.4812 120.922 17.4812H121.572L122.622 16.3412V11.9312H123.722V14.7512C123.722 14.8179 123.715 14.8879 123.702 14.9612C123.689 15.0279 123.675 15.0879 123.662 15.1412C123.642 15.2012 123.619 15.2612 123.592 15.3212C123.605 15.3146 123.625 15.3012 123.652 15.2812C123.679 15.2546 123.712 15.2246 123.752 15.1912C123.925 15.0579 124.129 14.9512 124.362 14.8712C124.595 14.7912 124.839 14.7512 125.092 14.7512H125.712C125.939 14.7512 126.152 14.7946 126.352 14.8812C126.552 14.9679 126.725 15.0846 126.872 15.2312C127.019 15.3779 127.135 15.5512 127.222 15.7512C127.309 15.9512 127.352 16.1646 127.352 16.3912V17.0112C127.352 17.1446 127.399 17.2579 127.492 17.3512C127.585 17.4379 127.699 17.4812 127.832 17.4812H128.252C128.345 17.4812 128.392 17.5279 128.392 17.6212V18.6412ZM125.772 17.4812C125.905 17.4812 126.019 17.4346 126.112 17.3412C126.205 17.2479 126.252 17.1346 126.252 17.0012V16.4812C126.252 16.3479 126.205 16.2346 126.112 16.1413C126.019 16.0479 125.905 16.0012 125.772 16.0012H124.922C124.582 16.0012 124.292 16.1279 124.052 16.3812L123.032 17.4812H125.772ZM124.672 12.7012H125.822V13.8512H124.672V12.7012ZM128.256 18.7812C128.163 18.7812 128.116 18.7346 128.116 18.6412V17.6312C128.116 17.5979 128.133 17.5646 128.166 17.5312C128.193 17.4979 128.223 17.4812 128.256 17.4812H130.046C130.326 17.4812 130.603 17.4379 130.876 17.3512C131.149 17.2579 131.383 17.1079 131.576 16.9012L132.156 16.2812C132.189 16.2479 132.219 16.2179 132.246 16.1912C132.273 16.1646 132.289 16.1512 132.296 16.1512L130.196 15.5212C130.129 15.5012 130.069 15.5079 130.016 15.5412C129.969 15.5679 129.933 15.6112 129.906 15.6712L129.526 16.6712L128.566 16.4112L128.826 15.4912C128.886 15.2846 128.979 15.1079 129.106 14.9612C129.233 14.8146 129.379 14.7012 129.546 14.6212C129.713 14.5346 129.889 14.4846 130.076 14.4712C130.263 14.4512 130.443 14.4679 130.616 14.5212L134.596 15.7112L134.266 16.7412L133.796 16.6012C133.683 16.5746 133.586 16.5679 133.506 16.5812C133.433 16.5946 133.363 16.6212 133.296 16.6612V17.0012C133.296 17.1346 133.343 17.2479 133.436 17.3412C133.529 17.4346 133.643 17.4812 133.776 17.4812H135.106C135.199 17.4812 135.246 17.5279 135.246 17.6212V18.6412C135.246 18.7346 135.199 18.7812 135.106 18.7812H133.956C133.556 18.7812 133.216 18.6679 132.936 18.4412C132.663 18.2079 132.473 17.9112 132.366 17.5512L131.966 17.9512C131.679 18.2379 131.346 18.4479 130.966 18.5812C130.586 18.7146 130.196 18.7812 129.796 18.7812H128.256ZM134.962 17.6212C134.962 17.5279 135.008 17.4812 135.102 17.4812H135.712C135.845 17.4812 135.958 17.4346 136.052 17.3412C136.145 17.2479 136.192 17.1346 136.192 17.0012V11.9312H137.292V17.0012C137.292 17.2479 137.245 17.4812 137.152 17.7012C137.058 17.9146 136.932 18.1012 136.772 18.2612C136.612 18.4212 136.422 18.5479 136.202 18.6412C135.988 18.7346 135.758 18.7812 135.512 18.7812H135.102C135.068 18.7812 135.038 18.7679 135.012 18.7412C134.978 18.7146 134.962 18.6812 134.962 18.6412V17.6212ZM141.783 14.9212H142.933V13.7712H141.783V14.9212ZM143.453 14.9212H144.603V13.7712H143.453V14.9212ZM140.483 14.9212V16.6612C140.483 16.8946 140.563 17.0912 140.723 17.2512C140.883 17.4046 141.08 17.4812 141.313 17.4812H145.413C145.547 17.4812 145.66 17.4379 145.753 17.3512C145.847 17.2579 145.893 17.1446 145.893 17.0112V15.2112H146.993V17.0012C146.993 17.1346 147.04 17.2479 147.133 17.3412C147.227 17.4346 147.34 17.4812 147.473 17.4812H147.773C147.867 17.4812 147.913 17.5279 147.913 17.6212V18.6412C147.913 18.7346 147.867 18.7812 147.773 18.7812H147.663C147.423 18.7812 147.2 18.7312 146.993 18.6312C146.787 18.5246 146.607 18.3779 146.453 18.1912C146.287 18.3979 146.097 18.5479 145.883 18.6412C145.677 18.7346 145.453 18.7812 145.213 18.7812H141.413C141.133 18.7812 140.87 18.7279 140.623 18.6212C140.377 18.5146 140.16 18.3712 139.973 18.1912C139.793 18.0046 139.65 17.7879 139.543 17.5412C139.437 17.2946 139.383 17.0312 139.383 16.7512V14.9212H140.483ZM147.777 18.7812C147.684 18.7812 147.637 18.7346 147.637 18.6412V17.6212C147.637 17.5279 147.684 17.4812 147.777 17.4812H148.097C148.231 17.4812 148.344 17.4412 148.437 17.3612C148.537 17.2812 148.601 17.1746 148.627 17.0412L148.827 16.0112C148.861 15.8312 148.924 15.6646 149.017 15.5112C149.117 15.3512 149.234 15.2179 149.367 15.1112C149.501 14.9979 149.651 14.9112 149.817 14.8512C149.991 14.7846 150.171 14.7512 150.357 14.7512H150.917C151.144 14.7512 151.357 14.7946 151.557 14.8812C151.757 14.9679 151.931 15.0846 152.077 15.2312C152.224 15.3779 152.341 15.5512 152.427 15.7512C152.514 15.9512 152.557 16.1646 152.557 16.3912V17.0012C152.557 17.1346 152.604 17.2479 152.697 17.3412C152.791 17.4346 152.904 17.4812 153.037 17.4812H153.417C153.511 17.4812 153.557 17.5279 153.557 17.6212V18.6412C153.557 18.6812 153.541 18.7146 153.507 18.7412C153.481 18.7679 153.451 18.7812 153.417 18.7812H153.227C153.034 18.7812 152.847 18.7479 152.667 18.6812C152.494 18.6146 152.334 18.5046 152.187 18.3512C151.974 18.6379 151.694 18.7812 151.347 18.7812H150.187C149.987 18.7812 149.797 18.7379 149.617 18.6512C149.437 18.5646 149.274 18.4146 149.127 18.2012C148.974 18.4146 148.804 18.5646 148.617 18.6512C148.431 18.7379 148.231 18.7812 148.017 18.7812H147.777ZM150.047 17.4812H151.457V16.3812C151.457 16.2746 151.421 16.1846 151.347 16.1112C151.274 16.0379 151.184 16.0012 151.077 16.0012H150.267C150.174 16.0012 150.094 16.0312 150.027 16.0912C149.961 16.1446 149.917 16.2179 149.897 16.3112L149.737 17.1112C149.717 17.2046 149.737 17.2912 149.797 17.3712C149.864 17.4446 149.947 17.4812 150.047 17.4812ZM153.892 21.1313H155.032V19.9813H153.892V21.1313ZM155.552 21.1313H156.702V19.9813H155.552V21.1313ZM157.312 18.6412C157.312 18.6746 157.299 18.7079 157.272 18.7412C157.245 18.7679 157.212 18.7812 157.172 18.7812H156.412C156.199 18.7812 155.985 18.7246 155.772 18.6112C155.559 18.4912 155.415 18.3512 155.342 18.1912C155.295 18.2712 155.229 18.3479 155.142 18.4212C155.055 18.4879 154.959 18.5512 154.852 18.6112C154.752 18.6646 154.642 18.7079 154.522 18.7412C154.409 18.7679 154.295 18.7812 154.182 18.7812H153.422C153.329 18.7812 153.282 18.7346 153.282 18.6412V17.6312C153.282 17.5912 153.295 17.5579 153.322 17.5312C153.349 17.4979 153.382 17.4812 153.422 17.4812H154.282C154.415 17.4812 154.532 17.4412 154.632 17.3612C154.732 17.2812 154.795 17.1746 154.822 17.0412L155.192 15.2412L156.272 15.4312L155.972 16.9412C155.939 17.0812 155.969 17.2079 156.062 17.3212C156.155 17.4279 156.275 17.4812 156.422 17.4812H157.172C157.212 17.4812 157.245 17.4979 157.272 17.5312C157.299 17.5579 157.312 17.5912 157.312 17.6312V18.6412ZM159.052 15.6012H160.402V14.5612C160.402 14.4546 160.365 14.3646 160.292 14.2912C160.219 14.2179 160.129 14.1812 160.022 14.1812H159.252C159.159 14.1812 159.075 14.2112 159.002 14.2712C158.929 14.3312 158.885 14.4079 158.872 14.5012L158.742 15.2112C158.722 15.3112 158.742 15.4012 158.802 15.4812C158.869 15.5612 158.952 15.6012 159.052 15.6012ZM161.502 16.9912C161.502 17.2379 161.455 17.4712 161.362 17.6912C161.269 17.9046 161.139 18.0946 160.972 18.2612C160.812 18.4212 160.622 18.5479 160.402 18.6412C160.189 18.7346 159.959 18.7812 159.712 18.7812H157.172C157.132 18.7812 157.099 18.7679 157.072 18.7412C157.045 18.7079 157.032 18.6712 157.032 18.6312V17.6212C157.032 17.5879 157.045 17.5579 157.072 17.5312C157.092 17.4979 157.125 17.4812 157.172 17.4812H159.922C160.055 17.4812 160.169 17.4346 160.262 17.3412C160.355 17.2479 160.402 17.1346 160.402 17.0012V16.7912C160.202 16.8646 160.002 16.9012 159.802 16.9012H159.212C158.965 16.9012 158.735 16.8479 158.522 16.7412C158.309 16.6346 158.129 16.4946 157.982 16.3212C157.842 16.1412 157.742 15.9379 157.682 15.7112C157.622 15.4846 157.615 15.2479 157.662 15.0012L157.812 14.2012C157.845 14.0146 157.909 13.8446 158.002 13.6912C158.102 13.5379 158.219 13.4046 158.352 13.2912C158.485 13.1779 158.635 13.0912 158.802 13.0312C158.975 12.9646 159.155 12.9312 159.342 12.9312H159.882C160.109 12.9312 160.319 12.9746 160.512 13.0612C160.712 13.1479 160.885 13.2646 161.032 13.4112C161.179 13.5579 161.292 13.7312 161.372 13.9312C161.459 14.1246 161.502 14.3312 161.502 14.5512V16.9912ZM158.152 10.8912H159.302V12.0412H158.152V10.8912ZM159.822 10.8912H160.972V12.0412H159.822V10.8912Z" fill="white"/>
<defs>
<filter id="filter0_d_12276_13" x="3" y="15.6855" width="199.08" height="70.0098" filterUnits="userSpaceOnUse" color-interpolation-filters="sRGB">
<feFlood flood-opacity="0" result="BackgroundImageFix"/>
<feColorMatrix in="SourceAlpha" type="matrix" values="0 0 0 0 0 0 0 0 0 0 0 0 0 0 0 0 0 0 127 0" result="hardAlpha"/>
<feOffset dx="1" dy="2"/>
<feGaussianBlur stdDeviation="1"/>
<feColorMatrix type="matrix" values="0 0 0 0 0.0180177 0 0 0 0 0.125263 0 0 0 0 0.215385 0 0 0 0.84 0"/>
<feBlend mode="normal" in2="BackgroundImageFix" result="effect1_dropShadow_12276_13"/>
<feBlend mode="normal" in="SourceGraphic" in2="effect1_dropShadow_12276_13" result="shape"/>
</filter>
<filter id="filter1_f_12276_13" x="0" y="11.6855" width="203.08" height="74.0098" filterUnits="userSpaceOnUse" color-interpolation-filters="sRGB">
<feFlood flood-opacity="0" result="BackgroundImageFix"/>
<feBlend mode="normal" in="SourceGraphic" in2="BackgroundImageFix" result="shape"/>
<feGaussianBlur stdDeviation="2" result="effect1_foregroundBlur_12276_13"/>
</filter>
<filter id="filter2_f_12276_13" x="32.3223" y="0" width="138.436" height="31.5625" filterUnits="userSpaceOnUse" color-interpolation-filters="sRGB">
<feFlood flood-opacity="0" result="BackgroundImageFix"/>
<feBlend mode="normal" in="SourceGraphic" in2="BackgroundImageFix" result="shape"/>
<feGaussianBlur stdDeviation="1" result="effect1_foregroundBlur_12276_13"/>
</filter>
<linearGradient id="paint0_linear_12276_13" x1="101.54" y1="15.6855" x2="101.54" y2="81.6955" gradientUnits="userSpaceOnUse">
<stop stop-color="#112B50"/>
<stop offset="1" stop-color="#255AA8"/>
</linearGradient>
<linearGradient id="paint1_linear_12276_13" x1="101.54" y1="2" x2="101.54" y2="29.5625" gradientUnits="userSpaceOnUse">
<stop stop-color="#193D72"/>
<stop offset="1" stop-color="#2F74D8"/>
</linearGradient>
</defs>
</svg>
