<svg width="39" height="26" viewBox="0 0 39 26" fill="none" xmlns="http://www.w3.org/2000/svg">
<path d="M4.55604 20.4287V12.5235C4.8921 11.4353 6.43633 11.2193 6.8924 12.3314C6.9164 12.3954 7.01242 12.6355 7.01242 12.6675V16.8521C7.01242 16.9641 7.14844 17.0201 7.22845 16.9401L16.8379 7.42668C17.27 7.24265 17.7021 7.25065 18.0941 7.53869L23.4789 12.9155L31.8402 4.56224C32.9684 3.6501 34.4566 4.9783 33.6405 6.19449L24.159 15.6599C23.735 15.94 23.1509 15.908 22.7348 15.6119L17.358 10.2911L8.94871 18.7164C8.8687 18.7964 8.92471 18.9324 9.03673 18.9324H13.3894C13.3894 18.9324 13.7334 19.0845 13.7815 19.1165C14.6776 19.7006 14.3895 21.1488 13.3254 21.3328C10.837 21.2128 8.1886 21.4928 5.73223 21.3808C5.13213 21.3488 4.74807 20.9567 4.54004 20.4207L4.55604 20.4287Z" stroke="white" stroke-width="0.52" stroke-miterlimit="10"/>
<path d="M4.55604 20.4287V12.5235C4.8921 11.4353 6.43633 11.2193 6.8924 12.3314C6.9164 12.3954 7.01242 12.6355 7.01242 12.6675V16.8521C7.01242 16.9641 7.14844 17.0201 7.22845 16.9401L16.8379 7.42668C17.27 7.24265 17.7021 7.25065 18.0941 7.53869L23.4789 12.9155L31.8402 4.56224C32.9684 3.6501 34.4566 4.9783 33.6405 6.19449L24.159 15.6599C23.735 15.94 23.1509 15.908 22.7348 15.6119L17.358 10.2911L8.94871 18.7164C8.8687 18.7964 8.92471 18.9324 9.03673 18.9324H13.3894C13.3894 18.9324 13.7334 19.0845 13.7815 19.1165C14.6776 19.7006 14.3895 21.1488 13.3254 21.3328C10.837 21.2128 8.1886 21.4928 5.73223 21.3808C5.13213 21.3488 4.74807 20.9567 4.54004 20.4207L4.55604 20.4287Z" stroke="white" stroke-width="0.52" stroke-miterlimit="10"/>
<g filter="url(#filter0_f_10541_2)">
<path d="M4.55604 20.4287V12.5235C4.8921 11.4353 6.43633 11.2193 6.8924 12.3314C6.9164 12.3954 7.01242 12.6355 7.01242 12.6675V16.8521C7.01242 16.9641 7.14844 17.0201 7.22845 16.9401L16.8379 7.42668C17.27 7.24265 17.7021 7.25065 18.0941 7.53869L23.4789 12.9155L31.8402 4.56224C32.9684 3.6501 34.4566 4.9783 33.6405 6.19449L24.159 15.6599C23.735 15.94 23.1509 15.908 22.7348 15.6119L17.358 10.2911L8.94871 18.7164C8.8687 18.7964 8.92471 18.9324 9.03673 18.9324H13.3894C13.3894 18.9324 13.7334 19.0845 13.7815 19.1165C14.6776 19.7006 14.3895 21.1488 13.3254 21.3328C10.837 21.2128 8.1886 21.4928 5.73223 21.3808C5.13213 21.3488 4.74807 20.9567 4.54004 20.4207L4.55604 20.4287Z" stroke="white" stroke-width="0.52" stroke-miterlimit="10"/>
<path d="M4.55604 20.4287V12.5235C4.8921 11.4353 6.43633 11.2193 6.8924 12.3314C6.9164 12.3954 7.01242 12.6355 7.01242 12.6675V16.8521C7.01242 16.9641 7.14844 17.0201 7.22845 16.9401L16.8379 7.42668C17.27 7.24265 17.7021 7.25065 18.0941 7.53869L23.4789 12.9155L31.8402 4.56224C32.9684 3.6501 34.4566 4.9783 33.6405 6.19449L24.159 15.6599C23.735 15.94 23.1509 15.908 22.7348 15.6119L17.358 10.2911L8.94871 18.7164C8.8687 18.7964 8.92471 18.9324 9.03673 18.9324H13.3894C13.3894 18.9324 13.7334 19.0845 13.7815 19.1165C14.6776 19.7006 14.3895 21.1488 13.3254 21.3328C10.837 21.2128 8.1886 21.4928 5.73223 21.3808C5.13213 21.3488 4.74807 20.9567 4.54004 20.4207L4.55604 20.4287Z" stroke="#FF0000" stroke-width="0.52" stroke-miterlimit="10"/>
</g>
<g filter="url(#filter1_f_10541_2)">
<path d="M4.55604 20.4287V12.5235C4.8921 11.4353 6.43633 11.2193 6.8924 12.3314C6.9164 12.3954 7.01242 12.6355 7.01242 12.6675V16.8521C7.01242 16.9641 7.14844 17.0201 7.22845 16.9401L16.8379 7.42668C17.27 7.24265 17.7021 7.25065 18.0941 7.53869L23.4789 12.9155L31.8402 4.56224C32.9684 3.6501 34.4566 4.9783 33.6405 6.19449L24.159 15.6599C23.735 15.94 23.1509 15.908 22.7348 15.6119L17.358 10.2911L8.94871 18.7164C8.8687 18.7964 8.92471 18.9324 9.03673 18.9324H13.3894C13.3894 18.9324 13.7334 19.0845 13.7815 19.1165C14.6776 19.7006 14.3895 21.1488 13.3254 21.3328C10.837 21.2128 8.1886 21.4928 5.73223 21.3808C5.13213 21.3488 4.74807 20.9567 4.54004 20.4207L4.55604 20.4287Z" stroke="white" stroke-width="0.52" stroke-miterlimit="10"/>
<path d="M4.55604 20.4287V12.5235C4.8921 11.4353 6.43633 11.2193 6.8924 12.3314C6.9164 12.3954 7.01242 12.6355 7.01242 12.6675V16.8521C7.01242 16.9641 7.14844 17.0201 7.22845 16.9401L16.8379 7.42668C17.27 7.24265 17.7021 7.25065 18.0941 7.53869L23.4789 12.9155L31.8402 4.56224C32.9684 3.6501 34.4566 4.9783 33.6405 6.19449L24.159 15.6599C23.735 15.94 23.1509 15.908 22.7348 15.6119L17.358 10.2911L8.94871 18.7164C8.8687 18.7964 8.92471 18.9324 9.03673 18.9324H13.3894C13.3894 18.9324 13.7334 19.0845 13.7815 19.1165C14.6776 19.7006 14.3895 21.1488 13.3254 21.3328C10.837 21.2128 8.1886 21.4928 5.73223 21.3808C5.13213 21.3488 4.74807 20.9567 4.54004 20.4207L4.55604 20.4287Z" stroke="#FF0000" stroke-width="0.52" stroke-miterlimit="10"/>
</g>
<g filter="url(#filter2_f_10541_2)">
<path d="M4.50233 20.4287V12.5235C4.83839 11.4353 6.38262 11.2193 6.83869 12.3314C6.86269 12.3954 6.95871 12.6355 6.95871 12.6675V16.8521C6.95871 16.9641 7.09473 17.0201 7.17474 16.9401L16.7842 7.42668C17.2163 7.24265 17.6483 7.25065 18.0404 7.53869L23.4252 12.9155L31.7865 4.56224C32.9147 3.6501 34.4029 4.9783 33.5868 6.19449L24.1053 15.6599C23.6813 15.94 23.0972 15.908 22.6811 15.6119L17.3043 10.2911L8.895 18.7164C8.81499 18.7964 8.871 18.9324 8.98302 18.9324H13.3357C13.3357 18.9324 13.6797 19.0845 13.7277 19.1165C14.6239 19.7006 14.3358 21.1488 13.2717 21.3328C10.7833 21.2128 8.13489 21.4928 5.67851 21.3808C5.07842 21.3488 4.69436 20.9567 4.48633 20.4207L4.50233 20.4287Z" stroke="white" stroke-width="0.52" stroke-miterlimit="10"/>
<path d="M4.50233 20.4287V12.5235C4.83839 11.4353 6.38262 11.2193 6.83869 12.3314C6.86269 12.3954 6.95871 12.6355 6.95871 12.6675V16.8521C6.95871 16.9641 7.09473 17.0201 7.17474 16.9401L16.7842 7.42668C17.2163 7.24265 17.6483 7.25065 18.0404 7.53869L23.4252 12.9155L31.7865 4.56224C32.9147 3.6501 34.4029 4.9783 33.5868 6.19449L24.1053 15.6599C23.6813 15.94 23.0972 15.908 22.6811 15.6119L17.3043 10.2911L8.895 18.7164C8.81499 18.7964 8.871 18.9324 8.98302 18.9324H13.3357C13.3357 18.9324 13.6797 19.0845 13.7277 19.1165C14.6239 19.7006 14.3358 21.1488 13.2717 21.3328C10.7833 21.2128 8.13489 21.4928 5.67851 21.3808C5.07842 21.3488 4.69436 20.9567 4.48633 20.4207L4.50233 20.4287Z" stroke="#FF0000" stroke-width="0.52" stroke-miterlimit="10"/>
</g>
<defs>
<filter id="filter0_f_10541_2" x="0.0537109" y="0" width="38.0859" height="25.668" filterUnits="userSpaceOnUse" color-interpolation-filters="sRGB">
<feFlood flood-opacity="0" result="BackgroundImageFix"/>
<feBlend mode="normal" in="SourceGraphic" in2="BackgroundImageFix" result="shape"/>
<feGaussianBlur stdDeviation="2" result="effect1_foregroundBlur_10541_2"/>
</filter>
<filter id="filter1_f_10541_2" x="0.0537109" y="0" width="38.0859" height="25.668" filterUnits="userSpaceOnUse" color-interpolation-filters="sRGB">
<feFlood flood-opacity="0" result="BackgroundImageFix"/>
<feBlend mode="normal" in="SourceGraphic" in2="BackgroundImageFix" result="shape"/>
<feGaussianBlur stdDeviation="2" result="effect1_foregroundBlur_10541_2"/>
</filter>
<filter id="filter2_f_10541_2" x="0" y="0" width="38.0859" height="25.668" filterUnits="userSpaceOnUse" color-interpolation-filters="sRGB">
<feFlood flood-opacity="0" result="BackgroundImageFix"/>
<feBlend mode="normal" in="SourceGraphic" in2="BackgroundImageFix" result="shape"/>
<feGaussianBlur stdDeviation="2" result="effect1_foregroundBlur_10541_2"/>
</filter>
</defs>
</svg>
