<svg width="108" height="14" viewBox="0 0 108 14" fill="none" xmlns="http://www.w3.org/2000/svg">
<path d="M-0.000468716 6.67234C-0.000468716 6.42434 0.0435313 6.18034 0.131531 5.94034C0.219531 5.69234 0.339531 5.46434 0.491531 5.25634C0.651531 5.04834 0.843531 4.86834 1.06753 4.71634C1.29153 4.55634 1.53553 4.44834 1.79953 4.39234L3.27553 4.05634V3.22834H5.01553V7.70434C5.01553 7.80834 5.05953 7.90434 5.14753 7.99234C5.23553 8.07234 5.34353 8.11234 5.47153 8.11234H5.71153C5.82353 8.11234 5.87953 8.16434 5.87953 8.26834V9.98434C5.87953 10.0963 5.82353 10.1523 5.71153 10.1523H5.47153C5.03953 10.1523 4.67553 10.0483 4.37953 9.84034C4.08353 9.63234 3.83153 9.35634 3.62353 9.01234C3.51153 9.09234 3.35553 9.15234 3.15553 9.19234C2.96353 9.23234 2.79553 9.25234 2.65153 9.25234H1.84753C1.61553 9.25234 1.38753 9.20034 1.16353 9.09634C0.939531 8.99234 0.739531 8.85634 0.563531 8.68834C0.395531 8.52034 0.259531 8.32834 0.155531 8.11234C0.0515313 7.88834 -0.000468716 7.66034 -0.000468716 7.42834V6.67234ZM3.27553 5.86834L2.26753 6.09634C2.10753 6.13634 1.97553 6.21634 1.87153 6.33634C1.76753 6.45634 1.71553 6.60034 1.71553 6.76834V7.27234H3.27553V5.86834ZM7.17103 8.11234C7.26703 8.11234 7.34703 8.08034 7.41103 8.01634C7.47503 7.94434 7.50703 7.86434 7.50703 7.77634V5.02834H9.23503V7.76434C9.23503 8.09234 9.17103 8.40434 9.04303 8.70034C8.92303 8.98834 8.75503 9.24034 8.53903 9.45634C8.32303 9.67234 8.06703 9.84434 7.77103 9.97234C7.48303 10.0923 7.17503 10.1523 6.84703 10.1523H5.70703C5.65903 10.1523 5.61903 10.1363 5.58703 10.1043C5.55503 10.0643 5.53903 10.0243 5.53903 9.98434V8.30434C5.53903 8.25634 5.55503 8.21234 5.58703 8.17234C5.61903 8.13234 5.65903 8.11234 5.70703 8.11234H7.17103ZM5.73103 11.5923H7.29103V13.2123H5.73103V11.5923ZM12.7786 5.02834V7.36834C12.7786 7.57634 12.8506 7.75234 12.9946 7.89634C13.1466 8.04034 13.3266 8.11234 13.5346 8.11234H18.5746C18.6706 8.11234 18.7506 8.08034 18.8146 8.01634C18.8786 7.95234 18.9106 7.87634 18.9106 7.78834V5.37634H20.6506V7.76434C20.6506 7.85234 20.6826 7.93234 20.7466 8.00434C20.8106 8.07634 20.8906 8.11234 20.9866 8.11234H21.3346C21.3746 8.11234 21.4106 8.13234 21.4426 8.17234C21.4826 8.20434 21.5026 8.24034 21.5026 8.28034V9.98434C21.5026 10.0243 21.4826 10.0643 21.4426 10.1043C21.4106 10.1363 21.3746 10.1523 21.3346 10.1523H21.2626C20.9826 10.1523 20.7186 10.1043 20.4706 10.0083C20.2226 9.91234 19.9946 9.75234 19.7866 9.52834C19.5706 9.76034 19.3346 9.92434 19.0786 10.0203C18.8226 10.1083 18.5506 10.1523 18.2626 10.1523H13.7026C13.3346 10.1523 12.9866 10.0843 12.6586 9.94834C12.3386 9.80434 12.0586 9.61234 11.8186 9.37234C11.5786 9.12434 11.3866 8.84034 11.2426 8.52034C11.1066 8.19234 11.0386 7.84434 11.0386 7.47634V5.02834H12.7786ZM14.2786 3.40834H15.8386V5.02834H14.2786V3.40834ZM15.8386 3.40834H17.3986V5.02834H15.8386V3.40834ZM25.6598 9.98434C25.6598 10.0243 25.6398 10.0643 25.5998 10.1043C25.5678 10.1363 25.5278 10.1523 25.4798 10.1523H24.6398C24.3918 10.1523 24.1598 10.1083 23.9438 10.0203C23.7278 9.92434 23.5278 9.76034 23.3438 9.52834C23.1358 9.76034 22.9118 9.92434 22.6718 10.0203C22.4398 10.1083 22.1958 10.1523 21.9398 10.1523H21.3398C21.2998 10.1523 21.2638 10.1363 21.2318 10.1043C21.1918 10.0643 21.1718 10.0243 21.1718 9.98434V8.29234C21.1718 8.24434 21.1918 8.20434 21.2318 8.17234C21.2638 8.13234 21.2998 8.11234 21.3398 8.11234H22.1438C22.2398 8.11234 22.3278 8.08434 22.4078 8.02834C22.4878 7.96434 22.5358 7.88034 22.5518 7.77634L23.0318 5.37634L24.7358 5.68834L24.3398 7.69234C24.3158 7.82034 24.3318 7.92434 24.3878 8.00434C24.4438 8.07634 24.5278 8.11234 24.6398 8.11234H25.4798C25.5278 8.11234 25.5678 8.13234 25.5998 8.17234C25.6398 8.21234 25.6598 8.25234 25.6598 8.29234V9.98434ZM22.5638 11.6043H24.1238V13.2243H22.5638V11.6043ZM28.6688 10.1523C28.3968 10.1523 28.1288 10.1083 27.8648 10.0203C27.6088 9.92434 27.3768 9.76034 27.1688 9.52834C26.9608 9.76034 26.7328 9.92434 26.4848 10.0203C26.2448 10.1083 25.9848 10.1523 25.7048 10.1523H25.4648C25.4168 10.1523 25.3768 10.1363 25.3448 10.1043C25.3128 10.0643 25.2968 10.0243 25.2968 9.98434V8.29234C25.2968 8.24434 25.3168 8.20434 25.3568 8.17234C25.3888 8.13234 25.4248 8.11234 25.4648 8.11234H25.9688C26.0648 8.11234 26.1448 8.08034 26.2088 8.01634C26.2728 7.94434 26.3048 7.86034 26.3048 7.76434V5.38834H28.0328V7.75234C28.0328 7.86434 28.0688 7.95234 28.1408 8.01634C28.2208 8.08034 28.2928 8.11234 28.3568 8.11234H28.8008C28.8968 8.11234 28.9808 8.08434 29.0528 8.02834C29.1328 7.96434 29.1808 7.88034 29.1968 7.77634L29.6768 5.38834L31.4408 5.67634L31.0328 7.69234C31.0008 7.81234 31.0168 7.91234 31.0808 7.99234C31.1448 8.07234 31.2328 8.11234 31.3448 8.11234H32.0168C32.1128 8.11234 32.1928 8.08034 32.2568 8.01634C32.3208 7.94434 32.3528 7.86434 32.3528 7.77634V5.07634H34.0808V7.72834C34.0808 7.98434 34.1928 8.11234 34.4168 8.11234H34.9448C35.0568 8.11234 35.1128 8.16834 35.1128 8.28034V9.98434C35.1128 10.0963 35.0568 10.1523 34.9448 10.1523H34.7048C34.4168 10.1523 34.1448 10.1083 33.8888 10.0203C33.6408 9.92434 33.4128 9.76034 33.2048 9.52834C32.9968 9.75234 32.7568 9.91234 32.4848 10.0083C32.2128 10.1043 31.9368 10.1523 31.6568 10.1523C31.5368 10.1523 31.4008 10.1443 31.2488 10.1283C31.1048 10.1043 30.9568 10.0683 30.8048 10.0203C30.6608 9.97234 30.5208 9.90834 30.3848 9.82834C30.2568 9.74834 30.1448 9.64834 30.0488 9.52834C29.8408 9.76034 29.6208 9.92434 29.3888 10.0203C29.1648 10.1083 28.9248 10.1523 28.6688 10.1523ZM36.8053 4.22434H38.3653V2.60434H36.8053V4.22434ZM36.4093 8.11234C36.5053 8.11234 36.5853 8.08034 36.6493 8.01634C36.7133 7.94434 36.7453 7.86434 36.7453 7.77634V5.02834H38.4733V7.76434C38.4733 8.09234 38.4093 8.40434 38.2813 8.70034C38.1613 8.98834 37.9933 9.24034 37.7773 9.45634C37.5613 9.67234 37.3053 9.84434 37.0093 9.97234C36.7213 10.0923 36.4133 10.1523 36.0853 10.1523H34.9453C34.8973 10.1523 34.8573 10.1363 34.8253 10.1043C34.7933 10.0643 34.7773 10.0243 34.7773 9.98434V8.30434C34.7773 8.25634 34.7933 8.21234 34.8253 8.17234C34.8573 8.13234 34.8973 8.11234 34.9453 8.11234H36.4093ZM42.2089 6.97234C42.1769 6.99634 42.1329 7.03234 42.0769 7.08034C42.0289 7.12834 42.0049 7.20434 42.0049 7.30834V7.81234C42.0049 7.83634 42.0129 7.87634 42.0289 7.93234C42.0449 7.98834 42.0729 8.04434 42.1129 8.10034C42.1609 8.15634 42.2169 8.20434 42.2809 8.24434C42.3529 8.28434 42.4369 8.30034 42.5329 8.29234H43.2649C43.3849 8.29234 43.4809 8.27234 43.5529 8.23234C43.6249 8.19234 43.6769 8.14834 43.7089 8.10034C43.7489 8.05234 43.7729 8.00834 43.7809 7.96834C43.7969 7.92034 43.8049 7.88834 43.8049 7.87234V7.36834C43.8049 7.32834 43.7929 7.27234 43.7689 7.20034C43.7449 7.12034 43.6769 7.04834 43.5649 6.98434C43.5089 6.95234 43.4329 6.91234 43.3369 6.86434C43.2489 6.80834 43.1609 6.75234 43.0729 6.69634C42.9769 6.63234 42.8729 6.56434 42.7609 6.49234L42.2089 6.97234ZM41.5009 3.60034C41.5009 3.60034 41.5449 3.62834 41.6329 3.68434C41.7209 3.74034 41.8329 3.81634 41.9689 3.91234C42.1129 4.00034 42.2729 4.10434 42.4489 4.22434C42.6329 4.33634 42.8169 4.45234 43.0009 4.57234C43.4409 4.86034 43.9409 5.18834 44.5009 5.55634C44.7169 5.69234 44.8889 5.84034 45.0169 6.00034C45.1529 6.16034 45.2609 6.32034 45.3409 6.48034C45.4209 6.64034 45.4729 6.80034 45.4969 6.96034C45.5289 7.12034 45.5449 7.26834 45.5449 7.40434V7.77634C45.5449 8.04034 45.4969 8.32034 45.4009 8.61634C45.3129 8.90434 45.1649 9.17234 44.9569 9.42034C44.7569 9.66834 44.4969 9.87634 44.1769 10.0443C43.8569 10.2043 43.4649 10.2843 43.0009 10.2843H42.7489C42.3169 10.2843 41.9449 10.2043 41.6329 10.0443C41.3289 9.87634 41.0729 9.66834 40.8649 9.42034C40.6649 9.17234 40.5169 8.90434 40.4209 8.61634C40.3249 8.32034 40.2769 8.04434 40.2769 7.78834V7.44034C40.2849 7.00034 40.3929 6.62034 40.6009 6.30034C40.8169 5.97234 41.0569 5.73634 41.3209 5.59234C41.3369 5.57634 41.3529 5.56834 41.3689 5.56834L41.4049 5.54434L40.5769 4.99234L41.5009 3.60034ZM48.3066 5.37634V7.83634C48.3066 7.92434 48.3346 7.99234 48.3906 8.04034C48.4546 8.08834 48.5306 8.11234 48.6186 8.11234H49.1466C49.2586 8.11234 49.3146 8.16834 49.3146 8.28034V9.98434C49.3146 10.0963 49.2586 10.1523 49.1466 10.1523H48.9066C48.8106 10.1523 48.6986 10.1283 48.5706 10.0803C48.4506 10.0243 48.3586 9.96434 48.2946 9.90034V10.0803C48.2946 10.4003 48.2386 10.6923 48.1266 10.9563C48.0226 11.2283 47.8746 11.4723 47.6826 11.6883C47.4906 11.9043 47.2626 12.0923 46.9986 12.2523C46.7346 12.4123 46.4506 12.5443 46.1466 12.6483L44.2626 13.2963L43.7346 11.7003L45.6906 11.0283C45.9626 10.9403 46.1746 10.7843 46.3266 10.5603C46.4866 10.3363 46.5666 10.0843 46.5666 9.80434V5.37634H48.3066ZM50.7444 1.86034H52.3044V3.48034H50.7444V1.86034ZM52.3044 1.86034H53.8644V3.48034H52.3044V1.86034ZM51.4164 7.35634C51.4164 7.46034 51.4924 7.56834 51.6444 7.68034C51.8044 7.79234 52.0124 7.89234 52.2684 7.98034C52.5244 7.89234 52.7284 7.79234 52.8804 7.68034C53.0324 7.56034 53.1084 7.45234 53.1084 7.35634V6.99634C53.1084 6.80434 53.0404 6.64034 52.9044 6.50434C52.7684 6.36834 52.6044 6.30034 52.4124 6.30034H52.1124C51.9204 6.30034 51.7564 6.36834 51.6204 6.50434C51.4844 6.63234 51.4164 6.79234 51.4164 6.98434V7.35634ZM49.7004 6.82834C49.7004 6.46834 49.7724 6.13634 49.9164 5.83234C50.0604 5.52034 50.2484 5.25234 50.4804 5.02834C50.7204 4.80434 50.9884 4.62834 51.2844 4.50034C51.5884 4.37234 51.8964 4.30834 52.2084 4.30834H52.4244C52.7604 4.30834 53.0724 4.37234 53.3604 4.50034C53.6564 4.62034 53.9124 4.79234 54.1284 5.01634C54.3524 5.23234 54.5284 5.48834 54.6564 5.78434C54.7844 6.07234 54.8484 6.38434 54.8484 6.72034V7.17634C54.8484 7.31234 54.8444 7.46834 54.8364 7.64434C54.8284 7.81234 54.8044 7.98034 54.7644 8.14834C54.7804 8.14834 54.8284 8.14434 54.9084 8.13634C54.9964 8.12034 55.0844 8.11234 55.1724 8.11234H55.4124C55.4604 8.11234 55.5004 8.13234 55.5324 8.17234C55.5644 8.21234 55.5804 8.25634 55.5804 8.30434V9.98434C55.5804 10.0243 55.5604 10.0643 55.5204 10.1043C55.4884 10.1363 55.4524 10.1523 55.4124 10.1523H54.4524C54.2524 10.1523 54.0644 10.1483 53.8884 10.1403C53.7204 10.1243 53.5524 10.0963 53.3844 10.0563C53.2164 10.0163 53.0444 9.96034 52.8684 9.88834C52.6924 9.81634 52.4924 9.72034 52.2684 9.60034C52.0524 9.72034 51.8564 9.81634 51.6804 9.88834C51.5044 9.96034 51.3324 10.0163 51.1644 10.0563C50.9964 10.0963 50.8244 10.1243 50.6484 10.1403C50.4804 10.1483 50.2924 10.1523 50.0844 10.1523H49.1484C49.1004 10.1523 49.0644 10.1363 49.0404 10.1043C49.0084 10.0643 48.9884 10.0243 48.9804 9.98434V8.30434C48.9804 8.25634 48.9964 8.21234 49.0284 8.17234C49.0604 8.13234 49.1004 8.11234 49.1484 8.11234H49.3884C49.4764 8.11234 49.5604 8.12034 49.6404 8.13634C49.7284 8.14434 49.7804 8.14834 49.7964 8.14834C49.7564 7.97234 49.7284 7.80034 49.7124 7.63234C49.7044 7.46434 49.7004 7.31234 49.7004 7.17634V6.82834ZM57.278 4.22434H58.838V2.60434H57.278V4.22434ZM56.882 8.11234C56.978 8.11234 57.058 8.08034 57.122 8.01634C57.186 7.94434 57.218 7.86434 57.218 7.77634V5.02834H58.946V7.76434C58.946 8.09234 58.882 8.40434 58.754 8.70034C58.634 8.98834 58.466 9.24034 58.25 9.45634C58.034 9.67234 57.778 9.84434 57.482 9.97234C57.194 10.0923 56.886 10.1523 56.558 10.1523H55.418C55.37 10.1523 55.33 10.1363 55.298 10.1043C55.266 10.0643 55.25 10.0243 55.25 9.98434V8.30434C55.25 8.25634 55.266 8.21234 55.298 8.17234C55.33 8.13234 55.37 8.11234 55.418 8.11234H56.882ZM62.4895 5.02834V7.36834C62.4895 7.57634 62.5615 7.75234 62.7055 7.89634C62.8575 8.04034 63.0375 8.11234 63.2455 8.11234H68.2855C68.3815 8.11234 68.4615 8.08034 68.5255 8.01634C68.5895 7.95234 68.6215 7.87634 68.6215 7.78834V5.37634H70.3615V7.76434C70.3615 7.85234 70.3935 7.93234 70.4575 8.00434C70.5215 8.07634 70.6015 8.11234 70.6975 8.11234H71.0455C71.0855 8.11234 71.1215 8.13234 71.1535 8.17234C71.1935 8.20434 71.2135 8.24034 71.2135 8.28034V9.98434C71.2135 10.0243 71.1935 10.0643 71.1535 10.1043C71.1215 10.1363 71.0855 10.1523 71.0455 10.1523H70.9735C70.6935 10.1523 70.4295 10.1043 70.1815 10.0083C69.9335 9.91234 69.7055 9.75234 69.4975 9.52834C69.2815 9.76034 69.0455 9.92434 68.7895 10.0203C68.5335 10.1083 68.2615 10.1523 67.9735 10.1523H63.4135C63.0455 10.1523 62.6975 10.0843 62.3695 9.94834C62.0495 9.80434 61.7695 9.61234 61.5295 9.37234C61.2895 9.12434 61.0975 8.84034 60.9535 8.52034C60.8175 8.19234 60.7495 7.84434 60.7495 7.47634V5.02834H62.4895ZM63.9895 3.40834H65.5495V5.02834H63.9895V3.40834ZM65.5495 3.40834H67.1095V5.02834H65.5495V3.40834ZM71.0508 10.1523C71.0108 10.1523 70.9748 10.1363 70.9428 10.1043C70.9028 10.0723 70.8828 10.0323 70.8828 9.98434V8.26834C70.8828 8.16434 70.9388 8.11234 71.0508 8.11234H71.4108C71.5148 8.11234 71.6028 8.08434 71.6748 8.02834C71.7468 7.96434 71.7948 7.88434 71.8188 7.78834L72.0588 6.54034C72.1068 6.29234 72.1948 6.06434 72.3228 5.85634C72.4508 5.64834 72.6068 5.46834 72.7908 5.31634C72.9748 5.16434 73.1828 5.04434 73.4148 4.95634C73.6468 4.86834 73.8868 4.82434 74.1348 4.82434H74.8068C75.1108 4.82434 75.3948 4.88434 75.6588 5.00434C75.9308 5.11634 76.1668 5.27234 76.3668 5.47234C76.5668 5.67234 76.7228 5.90834 76.8348 6.18034C76.9548 6.45234 77.0148 6.74034 77.0148 7.04434V7.76434C77.0148 7.86034 77.0468 7.94434 77.1108 8.01634C77.1828 8.08034 77.2628 8.11234 77.3508 8.11234H77.8788C77.9188 8.11234 77.9548 8.12834 77.9868 8.16034C78.0268 8.19234 78.0468 8.23234 78.0468 8.28034V9.97234C78.0468 10.0203 78.0268 10.0643 77.9868 10.1043C77.9548 10.1363 77.9188 10.1523 77.8788 10.1523H77.6388C77.4068 10.1523 77.1748 10.1203 76.9428 10.0563C76.7108 9.99234 76.5148 9.86434 76.3548 9.67234C76.2028 9.85634 76.0268 9.98434 75.8268 10.0563C75.6268 10.1203 75.4308 10.1523 75.2388 10.1523H73.9188C73.6948 10.1523 73.4708 10.1123 73.2468 10.0323C73.0308 9.95234 72.8228 9.78834 72.6228 9.54034C72.4308 9.77234 72.2228 9.93234 71.9988 10.0203C71.7748 10.1083 71.5388 10.1523 71.2908 10.1523H71.0508ZM73.6908 8.11234H75.2868V7.03234C75.2788 6.96834 75.2548 6.91634 75.2148 6.87634C75.1828 6.83634 75.1348 6.81634 75.0708 6.81634H73.9548C73.8508 6.81634 73.7788 6.87234 73.7388 6.98434L73.5588 7.95634C73.5428 7.99634 73.5468 8.03234 73.5708 8.06434C73.6028 8.09634 73.6428 8.11234 73.6908 8.11234ZM82.6828 9.98434C82.6828 10.0243 82.6628 10.0643 82.6228 10.1043C82.5908 10.1363 82.5508 10.1523 82.5028 10.1523H81.5428C81.2948 10.1523 81.0628 10.1083 80.8468 10.0203C80.6308 9.92434 80.4308 9.76034 80.2468 9.52834C80.0388 9.76034 79.8148 9.92434 79.5748 10.0203C79.3428 10.1083 79.0988 10.1523 78.8428 10.1523H77.8828C77.8428 10.1523 77.8068 10.1363 77.7748 10.1043C77.7348 10.0643 77.7148 10.0243 77.7148 9.98434V8.29234C77.7148 8.24434 77.7348 8.20434 77.7748 8.17234C77.8068 8.13234 77.8428 8.11234 77.8828 8.11234H79.0468C79.1428 8.11234 79.2308 8.08434 79.3108 8.02834C79.3908 7.96434 79.4388 7.88034 79.4548 7.77634L79.9348 5.37634L81.6388 5.68834L81.2428 7.69234C81.2188 7.82034 81.2348 7.92434 81.2908 8.00434C81.3468 8.07634 81.4308 8.11234 81.5428 8.11234H82.5028C82.5508 8.11234 82.5908 8.13234 82.6228 8.17234C82.6628 8.21234 82.6828 8.25234 82.6828 8.29234V9.98434ZM78.6508 11.5923H80.2108V13.2123H78.6508V11.5923ZM80.2108 11.5923H81.7708V13.2123H80.2108V11.5923ZM86.352 5.68834V4.53634C86.36 4.48034 86.344 4.43634 86.304 4.40434C86.264 4.37234 86.216 4.35234 86.16 4.34434H85.044C84.916 4.34434 84.84 4.40834 84.816 4.53634L84.66 5.50834C84.652 5.55634 84.66 5.60034 84.684 5.64034C84.716 5.67234 84.756 5.68834 84.804 5.68834H86.352ZM86.064 8.11234C86.144 8.11234 86.212 8.08834 86.268 8.04034C86.324 7.99234 86.352 7.92034 86.352 7.82434V7.27234C86.32 7.30434 86.276 7.33634 86.22 7.36834C86.18 7.39234 86.124 7.41634 86.052 7.44034C85.98 7.45634 85.896 7.46434 85.8 7.46434H85.14C84.796 7.46434 84.48 7.40034 84.192 7.27234C83.912 7.13634 83.676 6.95634 83.484 6.73234C83.292 6.50034 83.156 6.23234 83.076 5.92834C82.996 5.62434 82.988 5.30434 83.052 4.96834L83.196 4.22434C83.244 3.97634 83.332 3.74834 83.46 3.54034C83.588 3.33234 83.744 3.15234 83.928 3.00034C84.112 2.84834 84.32 2.72834 84.552 2.64034C84.784 2.55234 85.024 2.50834 85.272 2.50834H85.908C86.212 2.50834 86.492 2.56834 86.748 2.68834C87.012 2.80034 87.244 2.95634 87.444 3.15634C87.644 3.34834 87.8 3.57634 87.912 3.84034C88.024 4.10434 88.08 4.38434 88.08 4.68034V7.76434C88.08 8.09234 88.016 8.40034 87.888 8.68834C87.768 8.97634 87.6 9.22834 87.384 9.44434C87.168 9.66034 86.912 9.83234 86.616 9.96034C86.328 10.0883 86.02 10.1523 85.692 10.1523H82.5C82.452 10.1523 82.412 10.1363 82.38 10.1043C82.348 10.0643 82.332 10.0243 82.332 9.98434V8.29234C82.332 8.24434 82.348 8.20434 82.38 8.17234C82.404 8.13234 82.444 8.11234 82.5 8.11234H86.064ZM83.964 0.000343561H85.524V1.62034H83.964V0.000343561ZM85.524 0.000343561H87.084V1.62034H85.524V0.000343561ZM96.1103 8.11234H96.4463C96.4863 8.11234 96.5223 8.13234 96.5543 8.17234C96.5943 8.21234 96.6143 8.25634 96.6143 8.30434V9.98434C96.6143 10.0243 96.5983 10.0643 96.5663 10.1043C96.5343 10.1363 96.4943 10.1523 96.4463 10.1523H96.2663C95.9383 10.1523 95.6503 10.0883 95.4023 9.96034C95.1623 9.83234 94.9583 9.68834 94.7903 9.52834C94.5663 9.76034 94.3223 9.92434 94.0583 10.0203C93.7943 10.1083 93.5183 10.1523 93.2303 10.1523H91.7183C91.4703 10.1523 91.2343 10.1043 91.0103 10.0083C90.7863 9.91234 90.5903 9.78434 90.4223 9.62434C90.2543 9.45634 90.1223 9.26034 90.0263 9.03634C89.9303 8.81234 89.8823 8.57634 89.8823 8.32834V6.52834H91.3223V7.92034C91.3223 8.04834 91.3903 8.11234 91.5263 8.11234H93.2543C93.4223 8.11234 93.5703 8.06034 93.6983 7.95634C93.8263 7.84434 93.8663 7.69634 93.8183 7.51234L92.7983 3.85234L94.4423 3.25234L95.7263 7.82434C95.7503 7.91234 95.7983 7.98434 95.8703 8.04034C95.9423 8.08834 96.0223 8.11234 96.1103 8.11234ZM99.6973 10.1523C99.4173 10.1523 99.1493 10.1043 98.8933 10.0083C98.6373 9.91234 98.4053 9.75634 98.1973 9.54034C97.9893 9.75634 97.7533 9.91234 97.4893 10.0083C97.2333 10.1043 96.9653 10.1523 96.6853 10.1523H96.4453C96.3973 10.1523 96.3573 10.1363 96.3253 10.1043C96.2933 10.0643 96.2773 10.0243 96.2773 9.98434V8.29234C96.2773 8.24434 96.2973 8.20434 96.3373 8.17234C96.3773 8.13234 96.4133 8.11234 96.4453 8.11234H97.0093C97.0973 8.11234 97.1733 8.07634 97.2373 8.00434C97.3013 7.92434 97.3373 7.84034 97.3453 7.75234V5.38834H99.0613V7.75234C99.0533 7.84834 99.0813 7.93234 99.1453 8.00434C99.2173 8.07634 99.3013 8.11234 99.3973 8.11234H99.8053C99.9093 8.11234 100.001 8.08434 100.081 8.02834C100.161 7.96434 100.209 7.88034 100.225 7.77634L100.705 5.38834L102.469 5.68834L102.061 7.69234C102.029 7.79634 102.045 7.89234 102.109 7.98034C102.181 8.06834 102.269 8.11234 102.373 8.11234H103.369V5.07634H105.109V8.37634C105.109 8.60834 105.061 8.83234 104.965 9.04834C104.869 9.26434 104.737 9.45634 104.569 9.62434C104.409 9.78434 104.221 9.91234 104.005 10.0083C103.789 10.1043 103.561 10.1523 103.321 10.1523H102.361C102.121 10.1523 101.893 10.1083 101.677 10.0203C101.461 9.93234 101.261 9.77234 101.077 9.54034C100.869 9.77234 100.649 9.93234 100.417 10.0203C100.193 10.1083 99.9533 10.1523 99.6973 10.1523ZM99.5173 2.80834H101.077V4.42834H99.5173V2.80834ZM101.077 2.80834H102.637V4.42834H101.077V2.80834ZM100.261 1.54834H101.821V3.16834H100.261V1.54834ZM103.817 13.3203L103.301 11.7243L105.257 11.0523C105.521 10.9643 105.733 10.8083 105.893 10.5843C106.053 10.3683 106.133 10.1203 106.133 9.84034V5.40034H107.861V9.66034C107.861 10.0043 107.809 10.3323 107.705 10.6443C107.601 10.9643 107.453 11.2563 107.261 11.5203C107.077 11.7843 106.853 12.0163 106.589 12.2163C106.325 12.4163 106.033 12.5683 105.713 12.6723L103.817 13.3203Z" fill="white"/>
</svg>
