<svg width="125" height="33" viewBox="0 0 125 33" fill="none" xmlns="http://www.w3.org/2000/svg">
<path d="M11.132 2.52734H113.124C117.869 2.52734 121.729 5.39682 121.729 8.92551V29.5548H2.52734V8.92551C2.52734 5.39682 6.38642 2.52734 11.132 2.52734Z" fill="#2459A6" stroke="#2FA1FF" stroke-width="1.0107" stroke-miterlimit="10"/>
<g filter="url(#filter0_f_12260_970)">
<path d="M11.132 2.52734H113.124C117.869 2.52734 121.729 5.39682 121.729 8.92551V29.5547H2.52734V8.92551C2.52734 5.39682 6.38642 2.52734 11.132 2.52734Z" stroke="#2FA1FF" stroke-width="1.0107" stroke-miterlimit="10"/>
</g>
<path d="M45.2771 13.5978L40.8651 17.7932C40.7875 17.8673 40.6953 17.926 40.5938 17.9661C40.4923 18.0062 40.3835 18.0269 40.2736 18.0269C40.1637 18.0269 40.0548 18.0062 39.9533 17.9661C39.8518 17.926 39.7597 17.8673 39.6821 17.7932L35.2708 13.5978C35.193 13.524 35.1312 13.4364 35.089 13.3398C35.0469 13.2433 35.0252 13.1398 35.0252 13.0353C35.0252 12.9308 35.0469 12.8273 35.089 12.7308C35.1312 12.6343 35.193 12.5466 35.2708 12.4729L39.6821 8.27741C39.7597 8.20336 39.8518 8.14461 39.9533 8.10452C40.0548 8.06442 40.1637 8.04379 40.2736 8.04379C40.3835 8.04379 40.4923 8.06442 40.5938 8.10452C40.6953 8.14461 40.7875 8.20336 40.8651 8.27741L45.2763 12.4729C45.3542 12.5466 45.416 12.6343 45.4581 12.7308C45.5003 12.8273 45.522 12.9308 45.522 13.0353C45.522 13.1398 45.5003 13.2433 45.4581 13.3398C45.416 13.4364 45.355 13.524 45.2771 13.5978ZM28.0546 8.22581C27.977 8.15176 27.8848 8.09301 27.7833 8.05292C27.6818 8.01282 27.573 7.99219 27.4631 7.99219C27.3532 7.99219 27.2443 8.01282 27.1428 8.05292C27.0413 8.09301 26.9492 8.15176 26.8716 8.22581L22.4612 12.4205C22.3836 12.4945 22.2914 12.5533 22.1899 12.5934C22.0884 12.6335 21.9796 12.6541 21.8697 12.6541C21.7598 12.6541 21.651 12.6335 21.5495 12.5934C21.448 12.5533 21.3558 12.4945 21.2782 12.4205L16.877 8.23613C16.7994 8.16208 16.7073 8.10333 16.6058 8.06324C16.5043 8.02314 16.3954 8.00251 16.2855 8.00251C16.1756 8.00251 16.0668 8.02314 15.9653 8.06324C15.8638 8.10333 15.7716 8.16208 15.694 8.23613L11.2828 12.4308C11.2049 12.5046 11.1431 12.5922 11.101 12.6887C11.0588 12.7852 11.0371 12.8887 11.0371 12.9932C11.0371 13.0978 11.0588 13.2012 11.101 13.2978C11.1431 13.3943 11.2049 13.4819 11.2828 13.5557L22.1139 23.8558C22.1915 23.9299 22.2836 23.9886 22.3851 24.0287C22.4866 24.0688 22.5955 24.0895 22.7054 24.0895C22.8153 24.0895 22.9241 24.0688 23.0256 24.0287C23.1271 23.9886 23.2193 23.9299 23.2969 23.8558L25.1343 22.1086L27.7165 19.6635C27.8736 19.5152 28.0861 19.4319 28.3075 19.4319C28.529 19.4319 28.7414 19.5152 28.8986 19.6635L33.3107 23.859C33.3882 23.9331 33.4804 23.9918 33.5819 24.0319C33.6834 24.072 33.7922 24.0926 33.9021 24.0926C34.0121 24.0926 34.1209 24.072 34.2224 24.0319C34.3239 23.9918 34.4161 23.9331 34.4936 23.859L38.9049 19.6643C38.9827 19.5906 39.0445 19.5029 39.0867 19.4064C39.1289 19.3099 39.1506 19.2064 39.1506 19.1019C39.1506 18.9974 39.1289 18.8939 39.0867 18.7974C39.0445 18.7009 38.9827 18.6132 38.9049 18.5394L28.0546 8.22581Z" fill="white"/>
<path fill-rule="evenodd" clip-rule="evenodd" d="M70.5142 17.2686H71.9284C71.9561 17.2686 71.9833 17.262 72.0077 17.2494C72.0321 17.2369 72.0527 17.2188 72.0679 17.1967C72.0831 17.1747 72.0922 17.1494 72.0945 17.1231C72.0968 17.0969 72.0922 17.0705 72.0812 17.0463L70.7496 14.244C70.7362 14.2164 70.7147 14.1929 70.6877 14.1765C70.6607 14.1601 70.6293 14.1513 70.5972 14.1513C70.5652 14.1513 70.5338 14.1601 70.5068 14.1765C70.4798 14.1929 70.4583 14.2164 70.4449 14.244L67.29 20.891C67.257 20.9604 67.2037 21.0193 67.1365 21.0606C67.0693 21.102 66.991 21.1241 66.911 21.1244H65.2747C65.2047 21.1244 65.1359 21.1078 65.0745 21.0759C65.0131 21.044 64.9611 20.998 64.9232 20.9421C64.8854 20.8861 64.863 20.822 64.858 20.7557C64.8531 20.6893 64.8657 20.6228 64.8948 20.5623L69.3437 11.1885C69.3767 11.1191 69.43 11.0602 69.4972 11.0188C69.5644 10.9775 69.6427 10.9553 69.7227 10.9551H71.4675C71.5476 10.9553 71.6259 10.9775 71.6931 11.0188C71.7603 11.0602 71.8136 11.1191 71.8466 11.1885L76.2963 20.5623C76.3249 20.6229 76.3372 20.6892 76.3321 20.7554C76.3269 20.8216 76.3044 20.8855 76.2667 20.9413C76.2289 20.9972 76.1771 21.0432 76.116 21.0751C76.0548 21.1071 75.9862 21.124 75.9164 21.1244H74.2801C74.2002 21.1251 74.1218 21.1037 74.0543 21.0628C73.9869 21.022 73.9334 20.9634 73.9003 20.8942C73.7475 20.5798 73.4762 20.0209 73.3201 19.7058C73.2867 19.6371 73.233 19.5791 73.1655 19.5389C73.0981 19.4987 73.0198 19.4781 72.9402 19.4795H69.8413C69.7713 19.4796 69.7025 19.4629 69.6411 19.431C69.5797 19.3992 69.5277 19.3531 69.4898 19.2972C69.452 19.2412 69.4296 19.1771 69.4246 19.1108C69.4197 19.0444 69.4323 18.978 69.4614 18.9175L70.131 17.506C70.1639 17.4353 70.2178 17.3753 70.2859 17.3331C70.3541 17.291 70.4328 17.2686 70.5142 17.2686ZM64.7003 11.1924L61.8952 17.113C61.8326 17.244 61.6314 17.2369 61.583 17.0995L59.541 11.2313C59.5134 11.1517 59.46 11.0825 59.3885 11.0336C59.3169 10.9846 59.2309 10.9585 59.1427 10.959H57.4956C57.4065 10.9588 57.3196 10.9858 57.2479 11.0361C57.1761 11.0865 57.1234 11.1574 57.0974 11.2385L55.1772 17.0956C55.1675 17.1264 55.1482 17.1538 55.1218 17.1739C55.0953 17.1941 55.0631 17.2061 55.0293 17.2085C54.9955 17.2108 54.9618 17.2033 54.9326 17.1869C54.9034 17.1706 54.8801 17.1462 54.8658 17.117L51.908 11.1853C51.8737 11.1174 51.8199 11.0602 51.7528 11.0202C51.6857 10.9801 51.6081 10.9589 51.529 10.959H49.9294C49.8589 10.9587 49.7894 10.9753 49.7275 11.0074C49.6656 11.0395 49.6132 11.0859 49.5753 11.1424C49.5374 11.199 49.5151 11.2637 49.5106 11.3306C49.5061 11.3975 49.5195 11.4644 49.5495 11.5251L54.1328 20.8981C54.1996 21.0394 54.3482 21.1284 54.5119 21.1284H56.1749C56.2654 21.1284 56.3535 21.1004 56.4259 21.0487C56.4983 20.9971 56.5511 20.9244 56.5764 20.8418L58.2019 15.5499C58.247 15.3975 58.4732 15.3975 58.5216 15.546L60.274 20.8489C60.3005 20.9296 60.3534 21.0002 60.425 21.0503C60.4966 21.1005 60.5832 21.1275 60.6722 21.1276H62.3344C62.4156 21.1277 62.4951 21.1054 62.5632 21.0634C62.6314 21.0214 62.6853 20.9615 62.7184 20.891L67.1097 11.5171C67.1381 11.4565 67.1502 11.3901 67.1447 11.324C67.1392 11.2578 67.1164 11.194 67.0782 11.1384C67.0401 11.0828 66.9879 11.0372 66.9265 11.0057C66.865 10.9742 66.7963 10.9579 66.7265 10.9583H65.0718C64.9928 10.9593 64.9157 10.9819 64.8498 11.0232C64.7838 11.0646 64.7316 11.123 64.6995 11.1916L64.7003 11.1924ZM79.9588 10.9725H78.4736C78.4188 10.9724 78.3645 10.9826 78.3138 11.0026C78.2632 11.0225 78.2172 11.0517 78.1784 11.0886C78.1397 11.1255 78.1091 11.1693 78.0882 11.2175C78.0674 11.2657 78.0568 11.3174 78.057 11.3695V20.7283C78.057 20.9474 78.2432 21.1244 78.4744 21.1244H83.9268C83.9815 21.1245 84.0357 21.1143 84.0863 21.0945C84.1369 21.0746 84.1829 21.0454 84.2216 21.0086C84.2603 20.9718 84.291 20.9281 84.3119 20.88C84.3328 20.8319 84.3435 20.7803 84.3434 20.7283V19.3168C84.3435 19.2647 84.3328 19.2132 84.3119 19.1651C84.291 19.117 84.2603 19.0732 84.2216 19.0364C84.1829 18.9996 84.1369 18.9705 84.0863 18.9506C84.0357 18.9307 83.9815 18.9205 83.9268 18.9206H80.5415C80.4972 18.9206 80.4547 18.9039 80.4234 18.8741C80.3921 18.8444 80.3745 18.804 80.3745 18.7619V11.3687C80.3746 11.3166 80.3639 11.2649 80.3429 11.2168C80.322 11.1686 80.2912 11.1249 80.2524 11.0881C80.2136 11.0512 80.1676 11.0221 80.1169 11.0023C80.0662 10.9824 80.0119 10.9723 79.9571 10.9725H79.9588ZM86.3119 10.9725H87.7963C88.0267 10.9725 88.2129 11.1496 88.2129 11.3695V18.7619C88.2129 18.804 88.2305 18.8444 88.2618 18.8741C88.2931 18.9039 88.3355 18.9206 88.3798 18.9206H91.7651C91.9955 18.9206 92.1817 19.0977 92.1817 19.3176V20.7283C92.1818 20.7804 92.1711 20.832 92.1501 20.8802C92.1292 20.9283 92.0984 20.9721 92.0597 21.0089C92.0209 21.0457 91.9748 21.0749 91.9241 21.0947C91.8734 21.1145 91.8191 21.1246 91.7643 21.1244H86.3128C86.258 21.1245 86.2038 21.1143 86.1532 21.0945C86.1026 21.0746 86.0566 21.0454 86.0179 21.0086C85.9792 20.9718 85.9486 20.9281 85.9277 20.88C85.9068 20.8319 85.8961 20.7803 85.8962 20.7283V11.3687C85.8962 11.1496 86.0815 10.9725 86.3119 10.9725ZM94.1453 21.1244H100.696C100.751 21.1245 100.805 21.1143 100.856 21.0945C100.906 21.0746 100.952 21.0454 100.991 21.0086C101.03 20.9718 101.061 20.9281 101.081 20.88C101.102 20.8319 101.113 20.7803 101.113 20.7283V19.3168C101.113 19.2647 101.102 19.2132 101.081 19.1651C101.061 19.117 101.03 19.0732 100.991 19.0364C100.952 18.9996 100.906 18.9705 100.856 18.9506C100.805 18.9307 100.751 18.9205 100.696 18.9206H96.2174C96.1731 18.9206 96.1306 18.9039 96.0993 18.8741C96.068 18.8444 96.0504 18.804 96.0504 18.7619V17.3075C96.0504 17.2654 96.068 17.225 96.0993 17.1953C96.1306 17.1655 96.1731 17.1488 96.2174 17.1488H100.696C100.751 17.1489 100.805 17.1387 100.856 17.1187C100.907 17.0988 100.953 17.0696 100.991 17.0327C101.03 16.9958 101.061 16.952 101.082 16.9038C101.102 16.8556 101.113 16.8039 101.113 16.7518V15.3411C101.113 15.2891 101.102 15.2375 101.081 15.1894C101.061 15.1413 101.03 15.0976 100.991 15.0608C100.952 15.024 100.906 14.9948 100.856 14.9749C100.805 14.9551 100.751 14.9449 100.696 14.945H96.2174C96.1731 14.945 96.1306 14.9283 96.0993 14.8985C96.068 14.8687 96.0504 14.8283 96.0504 14.7862V13.3319C96.0504 13.2898 96.068 13.2494 96.0993 13.2196C96.1306 13.1898 96.1731 13.1731 96.2174 13.1731H100.696C100.751 13.1732 100.805 13.163 100.856 13.1431C100.907 13.1232 100.953 13.0939 100.991 13.057C101.03 13.0202 101.061 12.9763 101.082 12.9281C101.102 12.8799 101.113 12.8283 101.113 12.7762V11.3663C101.113 11.3142 101.102 11.2627 101.081 11.2146C101.061 11.1665 101.03 11.1228 100.991 11.086C100.952 11.0491 100.906 11.02 100.856 11.0001C100.805 10.9802 100.751 10.9701 100.696 10.9702H94.1453C94.0905 10.9701 94.0363 10.9802 93.9857 11.0001C93.9351 11.02 93.8892 11.0491 93.8504 11.086C93.8117 11.1228 93.7811 11.1665 93.7602 11.2146C93.7393 11.2627 93.7286 11.3142 93.7287 11.3663V20.7394C93.7287 20.9482 93.9148 21.1252 94.1453 21.1252V21.1244ZM106.599 15.9461C106.621 15.9736 106.632 16.007 106.632 16.0413C106.632 16.0756 106.621 16.109 106.599 16.1366L103.122 20.4877C103.074 20.5463 103.045 20.6164 103.037 20.69C103.029 20.7636 103.044 20.8378 103.078 20.9041C103.112 20.9704 103.166 21.0262 103.232 21.0652C103.298 21.1041 103.374 21.1246 103.452 21.1244H105.309C105.373 21.1248 105.436 21.1109 105.494 21.0839C105.551 21.0569 105.601 21.0174 105.639 20.9688L113.131 11.5957C113.179 11.5371 113.208 11.4669 113.216 11.3933C113.223 11.3196 113.209 11.2453 113.175 11.179C113.14 11.1126 113.087 11.0569 113.02 11.018C112.954 10.9791 112.878 10.9587 112.8 10.959H110.944C110.88 10.9587 110.817 10.9726 110.759 10.9996C110.701 11.0267 110.651 11.066 110.613 11.1146L108.262 14.0535C108.246 14.0732 108.226 14.0892 108.203 14.1003C108.18 14.1113 108.154 14.117 108.128 14.117C108.102 14.117 108.077 14.1113 108.053 14.1003C108.03 14.0892 108.01 14.0732 107.995 14.0535L105.644 11.1146C105.605 11.066 105.555 11.0267 105.497 10.9996C105.44 10.9726 105.376 10.9587 105.312 10.959H103.456C103.379 10.9593 103.303 10.98 103.237 11.0191C103.171 11.0581 103.118 11.1138 103.083 11.1799C103.049 11.246 103.035 11.3199 103.042 11.3934C103.049 11.4669 103.078 11.5369 103.125 11.5957L106.599 15.9461ZM113.135 20.4877L110.431 17.1027C110.415 17.083 110.396 17.067 110.373 17.056C110.35 17.0449 110.324 17.0392 110.299 17.0392C110.273 17.0392 110.248 17.0449 110.225 17.056C110.202 17.067 110.182 17.083 110.167 17.1027L108.924 18.6626C108.902 18.6902 108.891 18.7236 108.891 18.7579C108.891 18.7922 108.902 18.8256 108.924 18.8532L110.617 20.9688C110.694 21.068 110.817 21.1244 110.947 21.1244H112.804C112.882 21.124 112.957 21.1031 113.023 21.0641C113.089 21.025 113.142 20.9693 113.176 20.9032C113.211 20.8371 113.225 20.7632 113.218 20.6898C113.21 20.6165 113.181 20.5465 113.135 20.4877Z" fill="white"/>
<defs>
<filter id="filter0_f_12260_970" x="8.82149e-05" y="8.82149e-05" width="124.256" height="32.0819" filterUnits="userSpaceOnUse" color-interpolation-filters="sRGB">
<feFlood flood-opacity="0" result="BackgroundImageFix"/>
<feBlend mode="normal" in="SourceGraphic" in2="BackgroundImageFix" result="shape"/>
<feGaussianBlur stdDeviation="1.0107" result="effect1_foregroundBlur_12260_970"/>
</filter>
</defs>
</svg>
