<svg width="39" height="26" viewBox="0 0 39 26" fill="none" xmlns="http://www.w3.org/2000/svg">
<path d="M33.5836 5.23931V13.1445C33.2476 14.2327 31.7033 14.4487 31.2472 13.3365C31.2232 13.2725 31.1272 13.0325 31.1272 13.0005V8.81585C31.1272 8.70384 30.9912 8.64783 30.9112 8.72784L21.3017 18.2413C20.8697 18.4253 20.4376 18.4173 20.0455 18.1293L14.6607 12.7525L6.29943 21.1057C5.17126 22.0179 3.68303 20.6897 4.49916 19.4735L13.9806 10.008C14.4047 9.72799 14.9888 9.75999 15.4048 10.056L20.7816 15.3769L29.1909 6.95157C29.2709 6.87156 29.2149 6.73553 29.1029 6.73553H24.7503C24.7503 6.73553 24.4062 6.58351 24.3582 6.55151C23.4621 5.96742 23.7501 4.51919 24.8143 4.33516C27.3026 4.45518 29.951 4.17514 32.4074 4.28716C33.0075 4.31916 33.3916 4.71123 33.5996 5.24731L33.5836 5.23931Z" stroke="white" stroke-width="0.52" stroke-miterlimit="10"/>
<g filter="url(#filter0_f_12274_2)">
<path d="M33.5836 5.23931V13.1445C33.2476 14.2327 31.7033 14.4487 31.2472 13.3365C31.2232 13.2725 31.1272 13.0325 31.1272 13.0005V8.81585C31.1272 8.70384 30.9912 8.64783 30.9112 8.72784L21.3017 18.2413C20.8697 18.4253 20.4376 18.4173 20.0455 18.1293L14.6607 12.7525L6.29943 21.1057C5.17126 22.0179 3.68303 20.6897 4.49916 19.4735L13.9806 10.008C14.4047 9.72799 14.9888 9.75999 15.4048 10.056L20.7816 15.3769L29.1909 6.95157C29.2709 6.87156 29.2149 6.73553 29.1029 6.73553H24.7503C24.7503 6.73553 24.4062 6.58351 24.3582 6.55151C23.4621 5.96742 23.7501 4.51919 24.8143 4.33516C27.3026 4.45518 29.951 4.17514 32.4074 4.28716C33.0075 4.31916 33.3916 4.71123 33.5996 5.24731L33.5836 5.23931Z" stroke="white" stroke-width="0.52" stroke-miterlimit="10"/>
</g>
<defs>
<filter id="filter0_f_12274_2" x="0" y="0" width="38.0859" height="25.668" filterUnits="userSpaceOnUse" color-interpolation-filters="sRGB">
<feFlood flood-opacity="0" result="BackgroundImageFix"/>
<feBlend mode="normal" in="SourceGraphic" in2="BackgroundImageFix" result="shape"/>
<feGaussianBlur stdDeviation="2" result="effect1_foregroundBlur_12274_2"/>
</filter>
</defs>
</svg>
