<svg width="66" height="22" viewBox="0 0 66 22" fill="none" xmlns="http://www.w3.org/2000/svg">
<path d="M11.153 1.00075C5.54566 1.00075 1 5.56387 1 11.1928C1 16.8216 5.54566 21.3848 11.153 21.3848L55.6243 21.3848C61.2317 21.3848 65.7773 16.8216 65.7773 11.1928C65.7773 5.56387 61.2317 1.00075 55.6243 1.00075L11.153 1.00075Z" fill="white" stroke="#367FFF" stroke-width="0.43" stroke-miterlimit="10"/>
<path d="M14.7854 13.0505C14.7854 13.4821 14.6213 13.8471 14.2932 14.1456C13.9681 14.4471 13.5439 14.6703 13.0208 14.8151C12.5006 14.9629 11.9479 15.0368 11.3626 15.0368C10.6 15.0368 10.0296 14.8432 9.65125 14.456C9.27587 14.0688 9.08818 13.4821 9.08818 12.6958C9.08818 12.415 9.11922 11.815 9.18129 10.8958H10.7064C10.6651 11.416 10.637 11.7781 10.6222 11.982C10.6104 12.183 10.6045 12.3456 10.6045 12.4697C10.6045 12.6589 10.6399 12.8052 10.7109 12.9087C10.7818 13.0121 10.8912 13.083 11.039 13.1215C11.1868 13.1628 11.3892 13.1835 11.6464 13.1835C11.9301 13.1835 12.2316 13.1658 12.5508 13.1303C12.873 13.0978 13.176 13.052 13.4597 12.9929L12.9809 9.61006L14.7854 9.11793V13.0505ZM11.5444 8.34648L12.4533 9.26424L11.5444 10.1731L10.6355 9.26424L11.5444 8.34648ZM16.9179 11.4323H18.0485V13.1791H17.6495C16.1125 13.1791 15.3263 12.4402 15.2908 10.9623L15.1888 6.94104L16.9179 6.67502V11.4323ZM20.2963 8.37752C20.6628 8.50757 20.9274 8.64206 21.0899 8.78098C21.2525 8.9199 21.3589 9.10758 21.4091 9.34404C21.4623 9.5805 21.4889 9.94258 21.4889 10.4303V11.4323H22.6727V13.1791H22.3535C22.1082 13.1791 21.8954 13.1569 21.7151 13.1126C21.5348 13.0712 21.3766 13.0121 21.2407 12.9353C21.1077 12.8614 20.9658 12.7638 20.815 12.6426C20.5136 12.8525 20.1337 12.9944 19.6756 13.0683C19.2204 13.1422 18.6795 13.1791 18.0529 13.1791H17.6539V11.4323H18.0529C18.8569 11.4323 19.5396 11.3761 20.1012 11.2638V10.7229C20.1012 10.4332 20.0924 10.2382 20.0746 10.1377C20.0599 10.0372 20.0214 9.96475 19.9594 9.92041C19.8973 9.87607 19.7702 9.82139 19.5781 9.75637L17.9243 9.1933L18.4253 6.62625L20.9702 5.8415V6.40457L21.7461 6.20506L21.5998 7.92086L19.5914 8.12924L20.2963 8.37752ZM25.6876 8.51939V10.9712C25.6876 11.4825 25.5871 11.9007 25.3861 12.2259C25.188 12.551 24.8806 12.7904 24.4639 12.9441C24.0471 13.1008 23.5092 13.1791 22.8501 13.1791H22.2737V11.4323L24.2023 11.4278L23.8654 8.90512L25.6876 8.51939ZM24.6989 13.6934L25.5279 14.456L24.6989 15.2141L23.9806 14.5579L23.2668 15.2097L22.4377 14.4515L23.2668 13.689L23.9851 14.3496L24.6989 13.6934ZM26.06 6.90557L27.8068 6.68389L27.8157 12.6914H26.3349L26.06 6.90557ZM28.1393 13.3032C28.5561 13.2973 28.8975 13.2648 29.1635 13.2057C29.4295 13.1466 29.6571 13.0387 29.8463 12.8821C30.0384 12.7254 30.2039 12.4993 30.3428 12.2037L29.7487 9.48592L31.5532 9.18887C31.5768 9.72385 31.5931 10.0623 31.602 10.2042C31.6197 10.5677 31.633 10.8751 31.6419 11.1263C31.6507 11.3746 31.6552 11.6495 31.6552 11.951C31.6552 12.5421 31.531 13.0757 31.2828 13.5515C31.0345 14.0304 30.6931 14.4057 30.2586 14.6777C29.8271 14.9496 29.3453 15.0855 28.8132 15.0855C28.5886 15.0855 28.364 15.0619 28.1393 15.0146V13.3032ZM38.4253 10.5455C38.2864 10.5988 38.1918 10.6401 38.1415 10.6697C38.0942 10.6992 38.0647 10.7303 38.0529 10.7628C38.041 10.7953 38.0336 10.8559 38.0307 10.9446H39.0947C39.4997 10.9446 39.8071 10.9993 40.0169 11.1086C40.2268 11.215 40.3716 11.3953 40.4514 11.6495C40.5342 11.9037 40.5756 12.2732 40.5756 12.7579C40.5756 13.3491 40.4174 13.8101 40.1012 14.1412C39.7849 14.4752 39.3519 14.7057 38.8021 14.8328C38.2524 14.9629 37.5814 15.0279 36.7893 15.0279C35.9114 15.0279 35.2523 14.8343 34.8119 14.4471C34.3744 14.0599 34.1557 13.4835 34.1557 12.718C34.1557 12.2953 34.2193 11.6717 34.3464 10.847H35.8671C35.8375 11.0539 35.8109 11.2283 35.7873 11.3702C35.7429 11.6599 35.7104 11.883 35.6897 12.0397C35.672 12.1934 35.6631 12.3308 35.6631 12.452C35.6631 12.6589 35.7016 12.8141 35.7784 12.9175C35.8553 13.0239 35.9838 13.0963 36.1641 13.1348C36.3474 13.1761 36.6134 13.1968 36.9622 13.1968H39.2145V12.6914H36.776V11.8313C36.776 10.9357 36.8144 10.3283 36.8913 10.0091C36.9711 9.68691 37.1676 9.42237 37.4809 9.21547C37.7972 9.00561 38.4474 8.68492 39.4317 8.25338L40.0081 9.92928L38.4253 10.5455ZM40.9746 11.2727C40.9746 10.649 41.0204 10.1303 41.112 9.71646C41.2037 9.29971 41.3899 8.96571 41.6707 8.71447C41.9544 8.46324 42.3667 8.33762 42.9076 8.33762C43.6407 8.33762 44.2037 8.59772 44.5968 9.11793C44.9929 9.63814 45.2161 10.4096 45.2663 11.4323H46.2107V13.1791H45.1555C45.0077 13.8205 44.721 14.2919 44.2954 14.5934C43.8697 14.8979 43.286 15.0501 42.5441 15.0501C42.346 15.0501 42.1347 15.0338 41.9101 15.0013C41.6884 14.9718 41.3943 14.9245 41.0278 14.8594V13.5338H42.3756C42.7924 13.5338 43.1175 13.488 43.351 13.3963C43.5845 13.3077 43.7559 13.1732 43.8653 12.9929C43.753 13.0254 43.5993 13.0505 43.4042 13.0683C43.2091 13.086 43.048 13.0949 42.9209 13.0949C42.4687 13.0949 42.1007 13.0343 41.817 12.9131C41.5332 12.7949 41.3219 12.6027 41.183 12.3367C41.044 12.0707 40.9746 11.716 40.9746 11.2727ZM43.6924 11.4367C43.6776 11.1027 43.6377 10.847 43.5727 10.6697C43.5076 10.4923 43.4042 10.3667 43.2623 10.2928C43.1204 10.2189 42.9195 10.182 42.6594 10.182C42.5766 10.182 42.513 10.1835 42.4687 10.1864L42.4332 11.4323L43.6924 11.4367ZM46.2594 11.4323C46.5048 11.4323 46.6762 11.416 46.7737 11.3835C46.8742 11.351 46.9747 11.2697 47.0752 11.1396C47.1787 11.0096 47.359 10.7421 47.6161 10.3372L48.9728 8.20461L49.8196 8.66127C50.3487 8.94502 50.7403 9.19773 50.9945 9.41941C51.2487 9.63814 51.4201 9.86868 51.5088 10.1111C51.5975 10.3505 51.6418 10.6653 51.6418 11.0554C51.6418 11.5342 51.5458 11.9732 51.3536 12.3722C51.1645 12.7683 50.9044 13.0801 50.5733 13.3077C50.2452 13.5382 49.8846 13.6535 49.4915 13.6535C49.128 13.6535 48.7999 13.55 48.5073 13.3431C48.2146 13.1362 47.9811 12.8584 47.8068 12.5096C47.5526 12.7727 47.2939 12.95 47.0309 13.0417C46.7708 13.1333 46.4693 13.1791 46.1264 13.1791H45.8161V11.4323H46.2594ZM49.3452 10.3771L48.6314 11.4323C48.7999 11.5623 48.9536 11.6613 49.0925 11.7293C49.2344 11.7973 49.394 11.8313 49.5713 11.8313C49.7487 11.8313 49.9157 11.7707 50.0723 11.6495C50.229 11.5254 50.362 11.3259 50.4713 11.051L49.3452 10.3771ZM55.3971 7.80115C55.8552 8.28294 56.1981 8.80314 56.4257 9.36178C56.6562 9.92041 56.7715 10.4657 56.7715 10.9978C56.7715 11.453 56.6799 11.8579 56.4966 12.2126C56.3133 12.5643 56.0266 12.8421 55.6365 13.0461C55.2493 13.25 54.7616 13.352 54.1734 13.352C53.4463 13.352 52.9069 13.1939 52.5551 12.8776C52.2064 12.5614 52.0349 12.081 52.0408 11.4367L52.0453 10.6254H53.5926V11.5076H55.3306C55.2833 11.1677 55.1606 10.8086 54.9626 10.4303C54.7645 10.0519 54.503 9.67952 54.1778 9.31301L55.3971 7.80115Z" fill="#192273"/>
</svg>
