<svg width="44" height="37" viewBox="0 0 44 37" fill="none" xmlns="http://www.w3.org/2000/svg">
<path d="M29.8702 11.4629C29.7853 11.5021 29.707 11.5608 29.6352 11.6392C29.5569 11.711 29.5046 11.7893 29.4655 11.8677C29.1913 12.2332 29.002 12.6249 28.9041 13.0362C28.2839 12.638 27.5854 12.4095 26.7172 12.5727C25.392 12.8207 24.5891 13.7999 24.3802 14.9228C23.7926 14.5311 23.1333 14.2961 22.3239 14.394C20.9464 14.5572 20.0848 15.5168 19.8236 16.6461C19.5952 16.4177 19.3667 16.1892 19.1447 15.9672C18.3091 15.1317 17.4018 13.9109 16.3116 13.3756C15.6131 13.0362 14.8885 12.997 14.2292 13.1733L13.9354 12.8795L12.7277 14.0872H12.7343C12.1337 14.753 11.8138 15.6735 12.0096 16.6723C12.2708 17.9778 13.5046 18.9048 14.4054 19.8057C15.4107 20.811 16.416 21.8163 17.4279 22.8281C17.4344 22.8347 17.4475 22.8347 17.454 22.8477C19.2557 24.6494 21.0509 26.4446 22.8526 28.2464C21.5079 28.0505 20.1957 28.1876 19.3275 29.4867C18.4267 30.8314 18.8444 32.6332 20.1174 33.5797C20.718 34.0236 21.3708 34.1607 22.0758 34.3174C24.0995 34.7743 26.1231 35.2313 28.1533 35.6948C29.7396 36.0538 31.3325 36.5369 32.971 36.5761C38.7744 36.7327 43.827 31.197 42.887 25.4459C42.4757 22.913 41.1048 20.9154 39.5577 18.9636C38.0693 17.0835 36.581 15.21 35.0926 13.3299C34.6748 12.8012 34.2766 12.2136 33.8196 11.7175C32.7621 10.5817 31.0713 10.5947 29.8898 11.476L29.8702 11.4629Z" fill="#192273"/>
<path d="M30.7318 10.6009C30.647 10.6401 30.5686 10.6989 30.4968 10.7772C30.4185 10.849 30.3663 10.9273 30.3271 11.0057C30.0529 11.3712 29.8636 11.7629 29.7657 12.1742C29.1455 11.776 28.447 11.5475 27.5788 11.7107C26.2536 11.9588 25.4507 12.9379 25.2418 14.0608C24.6543 13.6691 23.995 13.4341 23.1855 13.532C21.8081 13.6952 20.9464 14.6548 20.6853 15.7841C20.4568 15.5557 20.2283 15.3272 20.0064 15.1052C19.1708 14.2697 18.2634 13.0489 17.1732 12.5136C14.9537 11.43 12.3817 13.3818 12.8648 15.8168C13.1259 17.1224 14.3597 18.0494 15.2605 18.9502L18.283 21.9727C18.283 21.9727 18.3026 21.9792 18.3091 21.9922C20.1108 23.794 21.906 25.5892 23.7077 27.3909C22.363 27.195 21.0508 27.3321 20.1826 28.6312C19.2818 29.976 19.6995 31.7777 20.9725 32.7242C21.5731 33.1681 22.2259 33.3052 22.9309 33.4619C24.9546 33.9189 26.9782 34.3758 29.0084 34.8393C30.5947 35.1983 32.1876 35.6814 33.8261 35.7206C39.6295 35.8773 44.6821 30.3415 43.7421 24.5904C43.3308 22.0575 41.9599 20.06 40.4128 18.1081C38.9244 16.228 37.4361 14.3545 35.9477 12.4745C35.5299 11.9457 35.1317 11.3582 34.6682 10.8621C33.6107 9.72618 31.9199 9.73924 30.7384 10.6205L30.7318 10.6009ZM34.9032 13.5842C36.1239 15.1183 37.3381 16.6589 38.5589 18.193C39.1072 18.8849 39.6621 19.5834 40.2104 20.2754C40.217 20.2884 40.2235 20.2884 40.23 20.295C40.2757 20.3537 40.3214 20.4125 40.3606 20.4778C40.5042 20.6801 40.6413 20.889 40.7719 21.0979C41.1309 21.6724 41.4508 22.2795 41.6988 22.9127C42.3712 24.6034 42.5801 26.4704 42.0383 28.2265C41.2549 30.7789 38.9375 33.0311 36.4112 33.8209C34.7792 34.3301 33.1929 34.1996 31.5674 33.834C29.7265 33.4162 27.8856 32.9984 26.0447 32.5872C25.1374 32.3783 24.2234 32.1759 23.316 31.967C22.6502 31.8169 21.9713 31.732 21.5274 31.1379C21.0574 30.5047 21.1292 29.6039 21.7689 29.1077C22.2455 28.7357 22.8264 28.7226 23.3879 28.8532C24.2234 29.0425 25.0655 29.2318 25.9011 29.4211C26.6257 29.5843 27.1806 28.69 26.6323 28.1481C24.2104 25.7263 21.7885 23.3044 19.3666 20.8825C19.3601 20.876 19.347 20.876 19.3405 20.8629C17.8521 19.3745 16.3442 17.9057 14.8754 16.3978C13.4457 14.9225 15.3911 12.7813 16.9382 14.1848C17.6693 14.8441 18.3417 15.5883 19.0402 16.2868L21.0443 18.2909C21.9843 19.2309 22.9244 20.1709 23.8644 21.111C23.995 21.2415 24.132 21.3786 24.2626 21.5092C24.5433 21.7899 25.059 21.816 25.3397 21.5092C25.6204 21.2024 25.64 20.7324 25.3397 20.4321L22.5392 17.6316C22.5392 17.6316 22.5392 17.6316 22.5392 17.625C21.3772 16.3586 22.7873 14.3349 24.3475 15.2358C24.9937 15.6079 25.5225 16.3325 26.0513 16.8613C26.0513 16.8613 26.0513 16.8613 26.0578 16.8613L28.0684 18.8719L28.3556 19.1591C28.6363 19.4398 29.1521 19.4659 29.4328 19.1591C29.7135 18.8523 29.733 18.3823 29.4328 18.082L27.4221 16.0714C27.3242 15.9735 27.2328 15.8821 27.1349 15.7841C26.0578 14.6026 27.1871 12.6442 28.7669 13.297C29.3479 13.5385 29.8375 14.1456 30.2879 14.6417C30.301 14.6548 30.3075 14.6744 30.3206 14.6874C30.9277 15.2945 31.5413 15.9082 32.1484 16.5153C32.2333 16.6001 32.3181 16.685 32.4095 16.7764C32.6902 17.0571 33.2059 17.0832 33.4866 16.7764C33.7673 16.4696 33.7869 15.9996 33.4866 15.6993C32.8795 15.0922 32.2659 14.4785 31.6588 13.8714C31.6457 13.8584 31.6392 13.8519 31.6262 13.8388C31.0974 13.2578 31.0582 12.4483 31.5935 11.8543C33.0166 10.5618 34.1721 12.6377 34.9163 13.5777L34.9032 13.5842Z" fill="#192273"/>
<path d="M34.9033 13.5855C36.124 15.1195 37.3382 16.6601 38.559 18.1942C39.1073 18.8862 39.6622 19.5847 40.2105 20.2766C40.2171 20.2897 40.2236 20.2897 40.2301 20.2962C40.2758 20.355 40.3215 20.4137 40.3607 20.479C40.5043 20.6814 40.6414 20.8903 40.772 21.0992C41.131 21.6736 41.4509 22.2807 41.6989 22.9139C42.3713 24.6047 42.5802 26.4717 42.0384 28.2277C41.255 30.7802 38.9376 33.0323 36.4113 33.8222C34.7793 34.3314 33.193 34.2008 31.5675 33.8353C29.7266 33.4175 27.8857 32.9997 26.0448 32.5884C25.1375 32.3795 24.2235 32.1771 23.3161 31.9683C22.6503 31.8181 21.9714 31.7332 21.5275 31.1392C21.0575 30.506 21.1293 29.6051 21.769 29.109C22.2456 28.7369 22.8265 28.7238 23.388 28.8544C24.2235 29.0437 25.0656 29.233 25.9012 29.4223C26.6258 29.5855 27.1807 28.6912 26.6324 28.1494C24.2105 25.7275 21.7886 23.3056 19.3667 20.8837C19.3602 20.8772 19.3471 20.8772 19.3406 20.8642C17.8522 19.3758 16.3443 17.907 14.8755 16.399C13.4458 14.9237 15.3912 12.7825 16.9383 14.186C17.6694 14.8454 18.3418 15.5896 19.0403 16.2881L21.0444 18.2921C21.9844 19.2322 22.9245 20.1722 23.8645 21.1122C23.9951 21.2428 24.1321 21.3799 24.2627 21.5104C24.5434 21.7911 25.0591 21.8172 25.3398 21.5104C25.6205 21.2036 25.6401 20.7336 25.3398 20.4333L22.5393 17.6328C22.5393 17.6328 22.5393 17.6328 22.5393 17.6263C21.3773 16.3599 22.7874 14.3362 24.3476 15.237C24.9938 15.6091 25.5226 16.3337 26.0514 16.8625C26.0514 16.8625 26.0514 16.8625 26.0579 16.8625L28.0685 18.8731L28.3557 19.1604C28.6364 19.4411 29.1522 19.4672 29.4329 19.1604C29.7136 18.8535 29.7331 18.3835 29.4329 18.0832L27.4222 16.0726C27.3243 15.9747 27.2329 15.8833 27.135 15.7854C26.0579 14.6038 27.1872 12.6454 28.767 13.2982C29.348 13.5398 29.8376 14.1469 30.288 14.643C30.3011 14.6561 30.3076 14.6756 30.3207 14.6887C30.9278 15.2958 31.5414 15.9094 32.1485 16.5165C32.2334 16.6014 32.3182 16.6863 32.4096 16.7777C32.6903 17.0584 33.206 17.0845 33.4867 16.7777C33.7674 16.4708 33.787 16.0008 33.4867 15.7005C32.8796 15.0934 32.266 14.4798 31.6589 13.8727C31.6458 13.8596 31.6393 13.8531 31.6263 13.8401C31.0975 13.2591 31.0583 12.4496 31.5936 11.8556C33.0167 10.563 34.1722 12.6389 34.9164 13.5789L34.9033 13.5855Z" fill="white"/>
<path d="M4.18939 19.2629L6.50682 16.9455L6.83322 16.6191C7.13351 16.3188 7.15962 15.7639 6.83322 15.4636C6.50682 15.1633 6.00417 15.1372 5.67777 15.4636L3.36034 17.7811C3.24936 17.892 3.14491 17.9965 3.03394 18.1075C2.73365 18.4077 2.70754 18.9626 3.03394 19.2629C3.36034 19.5632 3.86299 19.5893 4.18939 19.2629Z" fill="white"/>
<path d="M1.2644 14.7535C2.33499 14.5316 3.39905 14.3031 4.46964 14.0812C4.61978 14.0485 4.76992 14.0159 4.92007 13.9832C5.33786 13.8984 5.65773 13.4414 5.55328 13.0171C5.4423 12.5863 5.03757 12.2925 4.58714 12.3839C3.51655 12.6058 2.45249 12.8343 1.3819 13.0563C1.23176 13.0889 1.08162 13.1216 0.931473 13.1542C0.513682 13.2391 0.193812 13.696 0.298259 14.1203C0.409235 14.5512 0.813969 14.8449 1.2644 14.7535Z" fill="white"/>
<path d="M7.54405 21.0276C7.766 19.957 7.99448 18.8929 8.21643 17.8223C8.24907 17.6722 8.28171 17.522 8.31435 17.3719C8.39921 16.9541 8.85617 16.6342 9.28049 16.7387C9.71134 16.8497 10.0051 17.2544 9.9137 17.7048C9.69175 18.7754 9.46327 19.8395 9.24132 20.9101C9.20868 21.0602 9.17604 21.2104 9.1434 21.3605C9.05854 21.7783 8.60158 22.0982 8.17726 21.9937C7.74642 21.8827 7.45266 21.478 7.54405 21.0276Z" fill="white"/>
<path d="M18.8184 3.62964C18.0481 4.39994 17.2713 5.17677 16.501 5.94707C16.39 6.05805 16.2855 6.1625 16.1746 6.27347C15.8743 6.57376 15.8482 7.12864 16.1746 7.42892C16.501 7.72921 17.0036 7.75532 17.33 7.42892C18.1003 6.65862 18.8771 5.88179 19.6474 5.11149L19.9738 4.78509C20.2741 4.48481 20.3002 3.92993 19.9738 3.62964C19.6474 3.32935 19.1448 3.30324 18.8184 3.62964Z" fill="white"/>
<path d="M21.7356 8.13975C20.665 8.3617 19.6009 8.59018 18.5303 8.81213C18.3802 8.84477 18.2301 8.87741 18.0799 8.91005C17.6621 8.99492 17.3422 9.45187 17.4467 9.87619C17.5577 10.307 17.9624 10.6008 18.4128 10.5094C19.4834 10.2875 20.5475 10.059 21.6181 9.83702C21.7682 9.80439 21.9184 9.77175 22.0685 9.73911C22.4863 9.65424 22.8062 9.19728 22.7017 8.77297C22.5907 8.34212 22.186 8.04836 21.7356 8.13975Z" fill="white"/>
<path d="M15.4625 1.86108C15.2406 2.93167 15.0121 3.99573 14.7902 5.06632C14.7575 5.21646 14.7249 5.3666 14.6922 5.51675C14.6074 5.93454 14.1504 6.25441 13.7261 6.14996C13.2952 6.03898 13.0015 5.63425 13.0929 5.18382C13.3148 4.11323 13.5433 3.04917 13.7653 1.97858C13.7979 1.82844 13.8305 1.6783 13.8632 1.52815C13.948 1.11036 14.405 0.790491 14.8293 0.894939C15.2602 1.00591 15.5539 1.41065 15.4625 1.86108Z" fill="white"/>
</svg>
