<svg width="45" height="37" viewBox="0 0 45 37" fill="none" xmlns="http://www.w3.org/2000/svg">
<path d="M14.6357 11.4629C14.7205 11.5021 14.7989 11.5608 14.8707 11.6392C14.949 11.711 15.0012 11.7893 15.0404 11.8677C15.3146 12.2332 15.5039 12.6249 15.6018 13.0362C16.222 12.638 16.9205 12.4095 17.7887 12.5727C19.1139 12.8207 19.9168 13.7999 20.1257 14.9228C20.7132 14.5311 21.3725 14.2961 22.182 14.394C23.5594 14.5572 24.4211 15.5168 24.6822 16.6461C24.9107 16.4177 25.1392 16.1892 25.3611 15.9672C26.1967 15.1317 27.1041 13.9109 28.1943 13.3756C28.8928 13.0362 29.6174 12.997 30.2767 13.1733L30.5705 12.8795L31.7781 14.0872H31.7716C32.3722 14.753 32.6921 15.6735 32.4962 16.6723C32.2351 17.9778 31.0013 18.9048 30.1004 19.8057C29.0951 20.811 28.0898 21.8163 27.078 22.8281C27.0715 22.8347 27.0584 22.8347 27.0519 22.8477C25.2502 24.6494 23.455 26.4446 21.6532 28.2464C22.998 28.0505 24.3101 28.1876 25.1783 29.4867C26.0792 30.8314 25.6614 32.6332 24.3885 33.5797C23.7879 34.0236 23.1351 34.1607 22.4301 34.3174C20.4064 34.7743 18.3827 35.2313 16.3525 35.6948C14.7662 36.0538 13.1734 36.5369 11.5349 36.5761C5.7315 36.7327 0.678856 31.197 1.61888 25.4459C2.03015 22.913 3.40102 20.9154 4.94815 18.9636C6.43653 17.0835 7.92491 15.21 9.41328 13.3299C9.83107 12.8012 10.2293 12.2136 10.6862 11.7175C11.7438 10.5817 13.4345 10.5947 14.6161 11.476L14.6357 11.4629Z" fill="#192273"/>
<path d="M13.774 10.6009C13.8589 10.6401 13.9372 10.6989 14.009 10.7772C14.0874 10.849 14.1396 10.9273 14.1788 11.0057C14.4529 11.3712 14.6423 11.7629 14.7402 12.1742C15.3603 11.776 16.0588 11.5475 16.927 11.7107C18.2522 11.9588 19.0552 12.9379 19.2641 14.0608C19.8516 13.6691 20.5109 13.4341 21.3204 13.532C22.6978 13.6952 23.5595 14.6548 23.8206 15.7841C24.0491 15.5557 24.2775 15.3272 24.4995 15.1052C25.3351 14.2697 26.2425 13.0489 27.3326 12.5136C29.5522 11.43 32.1242 13.3818 31.6411 15.8168C31.38 17.1224 30.1462 18.0494 29.2453 18.9502L26.2229 21.9727C26.2229 21.9727 26.2033 21.9792 26.1968 21.9922C24.395 23.794 22.5999 25.5892 20.7981 27.3909C22.1429 27.195 23.455 27.3321 24.3232 28.6312C25.2241 29.976 24.8063 31.7777 23.5334 32.7242C22.9328 33.1681 22.28 33.3052 21.575 33.4619C19.5513 33.9189 17.5276 34.3758 15.4974 34.8393C13.9111 35.1983 12.3183 35.6814 10.6798 35.7206C4.8764 35.8773 -0.176256 30.3415 0.763771 24.5904C1.17503 22.0575 2.54591 20.06 4.09304 18.1081C5.58142 16.228 7.0698 14.3545 8.55818 12.4745C8.97597 11.9457 9.37417 11.3582 9.83766 10.8621C10.8952 9.72618 12.5859 9.73924 13.7675 10.6205L13.774 10.6009ZM9.60265 13.5842C8.38192 15.1183 7.16772 16.6589 5.94699 18.193C5.39864 18.8849 4.84376 19.5834 4.29541 20.2754C4.28888 20.2884 4.28235 20.2884 4.27582 20.295C4.23013 20.3537 4.18443 20.4125 4.14526 20.4778C4.00165 20.6801 3.86456 20.889 3.734 21.0979C3.37496 21.6724 3.05509 22.2795 2.80703 22.9127C2.13465 24.6034 1.92575 26.4704 2.46758 28.2265C3.25093 30.7789 5.56837 33.0311 8.09469 33.8209C9.72669 34.3301 11.313 34.1996 12.9384 33.834C14.7793 33.4162 16.6202 32.9984 18.4611 32.5872C19.3685 32.3783 20.2824 32.1759 21.1898 31.967C21.8557 31.8169 22.5346 31.732 22.9785 31.1379C23.4485 30.5047 23.3767 29.6039 22.7369 29.1077C22.2604 28.7357 21.6794 28.7226 21.118 28.8532C20.2824 29.0425 19.4403 29.2318 18.6047 29.4211C17.8801 29.5843 17.3253 28.69 17.8736 28.1481C20.2955 25.7263 22.7174 23.3044 25.1392 20.8825C25.1458 20.876 25.1588 20.876 25.1653 20.8629C26.6537 19.3745 28.1617 17.9057 29.6305 16.3978C31.0601 14.9225 29.1148 12.7813 27.5676 14.1848C26.8365 14.8441 26.1641 15.5883 25.4656 16.2868L23.4615 18.2909C22.5215 19.2309 21.5815 20.1709 20.6415 21.111C20.5109 21.2415 20.3738 21.3786 20.2433 21.5092C19.9626 21.7899 19.4468 21.816 19.1661 21.5092C18.8854 21.2024 18.8659 20.7324 19.1661 20.4321L21.9666 17.6316C21.9666 17.6316 21.9666 17.6316 21.9666 17.625C23.1286 16.3586 21.7186 14.3349 20.1584 15.2358C19.5121 15.6079 18.9834 16.3325 18.4546 16.8613C18.4546 16.8613 18.4546 16.8613 18.4481 16.8613L16.4374 18.8719L16.1502 19.1591C15.8695 19.4398 15.3538 19.4659 15.0731 19.1591C14.7924 18.8523 14.7728 18.3823 15.0731 18.082L17.0837 16.0714C17.1816 15.9735 17.273 15.8821 17.3709 15.7841C18.4481 14.6026 17.3187 12.6442 15.739 13.297C15.158 13.5385 14.6684 14.1456 14.2179 14.6417C14.2049 14.6548 14.1983 14.6744 14.1853 14.6874C13.5782 15.2945 12.9646 15.9082 12.3575 16.5153C12.2726 16.6001 12.1877 16.685 12.0963 16.7764C11.8156 17.0571 11.2999 17.0832 11.0192 16.7764C10.7385 16.4696 10.7189 15.9996 11.0192 15.6993C11.6263 15.0922 12.24 14.4785 12.8471 13.8714C12.8601 13.8584 12.8666 13.8519 12.8797 13.8388C13.4085 13.2578 13.4476 12.4483 12.9123 11.8543C11.4892 10.5618 10.3338 12.6377 9.5896 13.5777L9.60265 13.5842Z" fill="#192273"/>
<path d="M9.60255 13.5855C8.38182 15.1195 7.16762 16.6601 5.94689 18.1942C5.39854 18.8862 4.84366 19.5847 4.29531 20.2766C4.28878 20.2897 4.28225 20.2897 4.27572 20.2962C4.23003 20.355 4.18433 20.4137 4.14516 20.479C4.00155 20.6814 3.86446 20.8903 3.7339 21.0992C3.37487 21.6736 3.05499 22.2807 2.80693 22.9139C2.13455 24.6047 1.92565 26.4717 2.46748 28.2277C3.25083 30.7802 5.56827 33.0323 8.09459 33.8222C9.72659 34.3314 11.3129 34.2008 12.9384 33.8353C14.7792 33.4175 16.6201 32.9997 18.461 32.5884C19.3684 32.3795 20.2823 32.1771 21.1897 31.9683C21.8556 31.8181 22.5345 31.7332 22.9784 31.1392C23.4484 30.506 23.3766 29.6051 22.7368 29.109C22.2603 28.7369 21.6793 28.7238 21.1179 28.8544C20.2823 29.0437 19.4402 29.233 18.6046 29.4223C17.88 29.5855 17.3252 28.6912 17.8735 28.1494C20.2954 25.7275 22.7173 23.3056 25.1391 20.8837C25.1457 20.8772 25.1587 20.8772 25.1653 20.8642C26.6536 19.3758 28.1616 17.907 29.6304 16.399C31.06 14.9237 29.1147 12.7825 27.5675 14.186C26.8364 14.8454 26.164 15.5896 25.4655 16.2881L23.4614 18.2921C22.5214 19.2322 21.5814 20.1722 20.6414 21.1122C20.5108 21.2428 20.3737 21.3799 20.2432 21.5104C19.9625 21.7911 19.4467 21.8172 19.166 21.5104C18.8853 21.2036 18.8658 20.7336 19.166 20.4333L21.9665 17.6328C21.9665 17.6328 21.9665 17.6328 21.9665 17.6263C23.1285 16.3599 21.7185 14.3362 20.1583 15.237C19.512 15.6091 18.9833 16.3337 18.4545 16.8625C18.4545 16.8625 18.4545 16.8625 18.448 16.8625L16.4373 18.8731L16.1501 19.1604C15.8694 19.4411 15.3537 19.4672 15.073 19.1604C14.7923 18.8535 14.7727 18.3835 15.073 18.0832L17.0836 16.0726C17.1815 15.9747 17.2729 15.8833 17.3708 15.7854C18.448 14.6038 17.3186 12.6454 15.7389 13.2982C15.1579 13.5398 14.6683 14.1469 14.2178 14.643C14.2048 14.6561 14.1983 14.6756 14.1852 14.6887C13.5781 15.2958 12.9645 15.9094 12.3574 16.5165C12.2725 16.6014 12.1876 16.6863 12.0962 16.7777C11.8155 17.0584 11.2998 17.0845 11.0191 16.7777C10.7384 16.4708 10.7188 16.0008 11.0191 15.7005C11.6262 15.0934 12.2399 14.4798 12.847 13.8727C12.86 13.8596 12.8665 13.8531 12.8796 13.8401C13.4084 13.2591 13.4475 12.4496 12.9122 11.8556C11.4891 10.563 10.3337 12.6389 9.5895 13.5789L9.60255 13.5855Z" fill="white"/>
<path d="M40.3165 19.2629L37.999 16.9455L37.6726 16.6191C37.3724 16.3188 37.3462 15.7639 37.6726 15.4636C37.999 15.1633 38.5017 15.1372 38.8281 15.4636L41.1455 17.7811C41.2565 17.892 41.3609 17.9965 41.4719 18.1075C41.7722 18.4077 41.7983 18.9626 41.4719 19.2629C41.1455 19.5632 40.6429 19.5893 40.3165 19.2629Z" fill="white"/>
<path d="M43.2415 14.7535C42.1709 14.5316 41.1068 14.3031 40.0362 14.0812C39.8861 14.0485 39.7359 14.0159 39.5858 13.9832C39.168 13.8984 38.8481 13.4414 38.9526 13.0171C39.0636 12.5863 39.4683 12.2925 39.9187 12.3839C40.9893 12.6058 42.0534 12.8343 43.124 13.0563C43.2741 13.0889 43.4242 13.1216 43.5744 13.1542C43.9922 13.2391 44.312 13.696 44.2076 14.1203C44.0966 14.5512 43.6919 14.8449 43.2415 14.7535Z" fill="white"/>
<path d="M36.9618 21.0276C36.7399 19.957 36.5114 18.8929 36.2894 17.8223C36.2568 17.6722 36.2241 17.522 36.1915 17.3719C36.1066 16.9541 35.6497 16.6342 35.2254 16.7387C34.7945 16.8497 34.5008 17.2544 34.5922 17.7048C34.8141 18.7754 35.0426 19.8395 35.2645 20.9101C35.2972 21.0602 35.3298 21.2104 35.3625 21.3605C35.4473 21.7783 35.9043 22.0982 36.3286 21.9937C36.7594 21.8827 37.0532 21.478 36.9618 21.0276Z" fill="white"/>
<path d="M25.6875 3.62964C26.4578 4.39994 27.2346 5.17677 28.0049 5.94707C28.1159 6.05805 28.2203 6.1625 28.3313 6.27347C28.6316 6.57376 28.6577 7.12864 28.3313 7.42892C28.0049 7.72921 27.5022 7.75532 27.1758 7.42892C26.4055 6.65862 25.6287 5.88179 24.8584 5.11149L24.532 4.78509C24.2317 4.48481 24.2056 3.92993 24.532 3.62964C24.8584 3.32935 25.3611 3.30324 25.6875 3.62964Z" fill="white"/>
<path d="M22.7703 8.13975C23.8409 8.3617 24.9049 8.59018 25.9755 8.81213C26.1257 8.84477 26.2758 8.87741 26.4259 8.91005C26.8437 8.99492 27.1636 9.45187 27.0592 9.87619C26.9482 10.307 26.5435 10.6008 26.093 10.5094C25.0224 10.2875 23.9584 10.059 22.8878 9.83702C22.7376 9.80439 22.5875 9.77175 22.4374 9.73911C22.0196 9.65424 21.6997 9.19728 21.8041 8.77297C21.9151 8.34212 22.3199 8.04836 22.7703 8.13975Z" fill="white"/>
<path d="M29.0433 1.86108C29.2653 2.93167 29.4938 3.99573 29.7157 5.06632C29.7483 5.21646 29.781 5.3666 29.8136 5.51675C29.8985 5.93454 30.3555 6.25441 30.7798 6.14996C31.2106 6.03898 31.5044 5.63425 31.413 5.18382C31.191 4.11323 30.9626 3.04917 30.7406 1.97858C30.708 1.82844 30.6753 1.6783 30.6427 1.52815C30.5578 1.11036 30.1009 0.790491 29.6765 0.894939C29.2457 1.00591 28.9519 1.41065 29.0433 1.86108Z" fill="white"/>
</svg>
