<svg width="78" height="23" viewBox="0 0 78 23" fill="none" xmlns="http://www.w3.org/2000/svg">
<path d="M66.1652 1H11.7829C5.91018 1 1.14941 5.77465 1.14941 11.6645C1.14941 17.5543 5.91018 22.329 11.7829 22.329H66.1652C72.0379 22.329 76.7987 17.5543 76.7987 11.6645C76.7987 5.77465 72.0379 1 66.1652 1Z" fill="#62A91F" stroke="white" stroke-width="0.68" stroke-miterlimit="10"/>
<path d="M11.4541 10.6562L10.7236 9.98828L11.4541 9.31641L12.0869 9.89844L12.7158 9.32031L13.4463 9.99219L12.7158 10.6602L12.083 10.082L11.4541 10.6562ZM16.4229 12.5547V14.0938H16.0088C15.7432 14.0938 15.5114 14.0573 15.3135 13.9844C15.1156 13.9115 14.9124 13.7786 14.7041 13.5859C14.3838 13.8125 13.971 13.9714 13.4658 14.0625C12.9632 14.1536 12.3447 14.1992 11.6104 14.1992C10.9437 14.1992 10.4346 14.1029 10.083 13.9102C9.73405 13.7174 9.50098 13.4622 9.38379 13.1445C9.2666 12.8242 9.20801 12.4271 9.20801 11.9531V10.9961H10.5635V11.918C10.5635 12.1185 10.596 12.2708 10.6611 12.375C10.7288 12.4792 10.846 12.5534 11.0127 12.5977C11.182 12.6393 11.432 12.6602 11.7627 12.6602H14.0752L13.833 10.7266L15.3916 10.4922V12.5547H16.4229ZM18.2314 11.9297C18.2314 11.6745 18.2236 11.5026 18.208 11.4141C18.195 11.3255 18.1611 11.2617 18.1064 11.2227C18.0518 11.1836 17.9398 11.1354 17.7705 11.0781L16.3174 10.582L16.7236 8.51172L19.333 7.91016L19.2041 9.46094L17.4346 9.64453L18.4033 9.86328C18.7288 9.9362 18.9658 10.0365 19.1143 10.1641C19.2627 10.2891 19.3577 10.4609 19.3994 10.6797C19.4437 10.8984 19.4658 11.2292 19.4658 11.6719V12.332C19.4658 12.8242 19.3278 13.1992 19.0518 13.457C18.7783 13.7148 18.4255 13.8854 17.9932 13.9688C17.5609 14.0521 17.0387 14.0938 16.4268 14.0938H16.0752V12.5547H16.4268C16.8356 12.5547 17.1768 12.5482 17.4502 12.5352C17.7236 12.5221 17.984 12.4922 18.2314 12.4453V11.9297ZM19.9658 14.2031C20.333 14.1979 20.6338 14.1693 20.8682 14.1172C21.1025 14.0651 21.3044 13.9701 21.4736 13.832C21.6429 13.694 21.7887 13.4948 21.9111 13.2344L21.4658 10.8398L23.0947 10.5625V12.5547H24.0674V14.0938H23.8916C23.4906 14.0938 23.1755 14.0312 22.9463 13.9062C22.8343 14.2865 22.6611 14.6172 22.4268 14.8984C22.195 15.1797 21.9176 15.3958 21.5947 15.5469C21.2744 15.6979 20.9294 15.7734 20.5596 15.7734C20.3564 15.7734 20.1585 15.7513 19.9658 15.707V14.2031ZM28.4619 9.24609L27.7197 8.5L28.4619 7.75L29.208 8.5L28.4619 9.24609ZM27.8018 10.3594L27.0596 9.61328L27.8018 8.86328L28.458 9.52344L29.0986 8.87891L29.8447 9.62891L29.0986 10.375L28.4424 9.71875L27.8018 10.3594ZM31.4854 10.1641V12.5469C31.4854 12.8828 31.4163 13.1732 31.2783 13.418C31.1403 13.6602 30.9528 13.8438 30.7158 13.9688C30.4814 14.0964 30.2184 14.1602 29.9268 14.1602C29.7158 14.1602 29.4697 14.1211 29.1885 14.043C28.9098 13.9648 28.6676 13.862 28.4619 13.7344C28.0322 14.0182 27.5804 14.1602 27.1064 14.1602C26.6794 14.1602 26.2171 14.0182 25.7197 13.7344C25.501 13.8411 25.2523 13.9271 24.9736 13.9922C24.695 14.0599 24.3929 14.0938 24.0674 14.0938H23.7158V12.5547H25.0283V10.7266H26.4424V12.5547H27.7666V10.7266H29.1807V12.5547H30.2119L29.9385 10.4062L31.4854 10.1641ZM37.4307 11.7734C37.3083 11.8203 37.2249 11.8568 37.1807 11.8828C37.139 11.9089 37.113 11.9362 37.1025 11.9648C37.0921 11.9935 37.0856 12.0469 37.083 12.125H38.0205C38.3773 12.125 38.6481 12.1732 38.833 12.2695C39.0179 12.3633 39.1455 12.5221 39.2158 12.7461C39.2887 12.9701 39.3252 13.2956 39.3252 13.7227C39.3252 14.2435 39.1859 14.6497 38.9072 14.9414C38.6286 15.2357 38.2471 15.4388 37.7627 15.5508C37.2783 15.6654 36.6872 15.7227 35.9893 15.7227C35.2158 15.7227 34.6351 15.5521 34.2471 15.2109C33.8617 14.8698 33.6689 14.362 33.6689 13.6875C33.6689 13.3151 33.7249 12.7656 33.8369 12.0391H35.1768C35.1507 12.2214 35.1273 12.375 35.1064 12.5C35.0674 12.7552 35.0387 12.9518 35.0205 13.0898C35.0049 13.2253 34.9971 13.3464 34.9971 13.4531C34.9971 13.6354 35.0309 13.7721 35.0986 13.8633C35.1663 13.957 35.2796 14.0208 35.4385 14.0547C35.5999 14.0911 35.8343 14.1094 36.1416 14.1094H38.126V13.6641H35.9775V12.9062C35.9775 12.1172 36.0114 11.582 36.0791 11.3008C36.1494 11.0169 36.3226 10.7839 36.5986 10.6016C36.8773 10.4167 37.4502 10.1341 38.3174 9.75391L38.8252 11.2305L37.4307 11.7734ZM39.6104 14.2031C39.9775 14.1979 40.2783 14.1693 40.5127 14.1172C40.7471 14.0651 40.9476 13.9701 41.1143 13.832C41.2835 13.694 41.4294 13.4948 41.5518 13.2344L41.0283 10.8398L42.6182 10.5781C42.639 11.0495 42.6533 11.3477 42.6611 11.4727C42.6768 11.793 42.6885 12.0638 42.6963 12.2852C42.7041 12.5039 42.708 12.7461 42.708 13.0117C42.708 13.5326 42.5986 14.0026 42.3799 14.4219C42.1611 14.8438 41.8604 15.1745 41.4775 15.4141C41.0973 15.6536 40.6729 15.7734 40.2041 15.7734C40.0062 15.7734 39.8083 15.7526 39.6104 15.7109V14.2031ZM43.083 8.56641L44.6221 8.37109L44.6299 13.6641H43.3252L43.083 8.56641ZM48.6182 13.5039C48.2874 13.9987 47.7015 14.2461 46.8604 14.2461C46.2197 14.2461 45.7445 14.1068 45.4346 13.8281C45.1273 13.5495 44.9762 13.1263 44.9814 12.5586L44.9854 11.8203H46.3486V12.6211H47.9189L47.458 10.1406L49.0596 9.71094L49.208 12.5547H50.2041V14.0938H49.8525C49.6051 14.0938 49.3747 14.043 49.1611 13.9414C48.9502 13.8398 48.7692 13.694 48.6182 13.5039ZM49.8564 14.0938V12.5547L51.5557 12.5508L51.2588 10.3281L52.8643 9.98828V12.1484C52.8643 12.599 52.7757 12.9674 52.5986 13.2539C52.4242 13.5404 52.1533 13.7513 51.7861 13.8867C51.4189 14.0247 50.945 14.0938 50.3643 14.0938H49.8564ZM51.6025 14.4727L52.4033 15.2812L51.6025 16.082L50.8018 15.2812L51.6025 14.4727ZM54.7393 12.5547H55.7354V14.0938H55.3838C54.0296 14.0938 53.3369 13.4427 53.3057 12.1406L53.2158 8.59766L54.7393 8.36328V12.5547ZM63.2158 12.5547H63.9463V14.0938H63.5986C63.3799 14.0938 63.1911 14.0625 63.0322 14C62.876 13.9401 62.7236 13.8451 62.5752 13.7148C62.4215 13.8711 62.2419 13.9896 62.0361 14.0703C61.8304 14.1536 61.6143 14.1953 61.3877 14.1953C61.1663 14.1953 60.9463 14.1562 60.7275 14.0781C60.5114 14 60.3135 13.8854 60.1338 13.7344C59.7041 14.0182 59.2523 14.1602 58.7783 14.1602C58.3512 14.1602 57.889 14.0182 57.3916 13.7344C57.1729 13.8411 56.9242 13.9271 56.6455 13.9922C56.3669 14.0599 56.0648 14.0938 55.7393 14.0938H55.3877V12.5547H56.7002V10.7266H58.1143V12.5547H59.4385V10.7266H60.8525V12.5547H61.8838L61.6572 10.75L63.2158 10.5156V12.5547ZM67.8799 12.0039C67.2106 12.7773 66.7445 13.2878 66.4814 13.5352C66.221 13.7826 65.9658 13.9375 65.7158 14C65.4684 14.0625 65.0413 14.0938 64.4346 14.0938H63.5986V12.5547H64.4697C64.9411 12.5547 65.2666 12.5391 65.4463 12.5078C65.6286 12.4766 65.8005 12.3997 65.9619 12.2773C66.126 12.1549 66.4046 11.9023 66.7979 11.5195C66.5036 11.4388 66.2601 11.3789 66.0674 11.3398C65.8773 11.2982 65.7249 11.2773 65.6104 11.2773C65.514 11.2773 65.4333 11.2904 65.3682 11.3164C65.3031 11.3424 65.2393 11.3828 65.1768 11.4375C65.1143 11.4922 65.0192 11.5872 64.8916 11.7227L64.8057 11.8125L64.2236 10.3984C64.4424 10.2318 64.6208 10.1042 64.7588 10.0156C64.8994 9.92448 65.0309 9.85677 65.1533 9.8125C65.2783 9.76823 65.4072 9.74609 65.54 9.74609C65.6833 9.74609 65.8434 9.77083 66.0205 9.82031C66.1976 9.86979 66.4788 9.96224 66.8643 10.0977L67.0986 10.1797C67.3434 10.2656 67.514 10.3229 67.6104 10.3516C67.7093 10.3776 67.807 10.3945 67.9033 10.4023C67.9997 10.4076 68.1663 10.4115 68.4033 10.4141L68.7393 10.418L68.4932 12.1172L67.8799 12.0039Z" fill="white"/>
</svg>
