<svg width="77" height="23" viewBox="0 0 77 23" fill="none" xmlns="http://www.w3.org/2000/svg">
<path d="M65.4143 1H11.0319C5.15921 1 0.398438 5.77465 0.398438 11.6645C0.398438 17.5543 5.15921 22.329 11.0319 22.329H65.4143C71.287 22.329 76.0477 17.5543 76.0477 11.6645C76.0477 5.77465 71.287 1 65.4143 1Z" fill="#1A7AF2" stroke="white" stroke-width="0.68" stroke-miterlimit="10"/>
<path d="M5.92188 15.2441C5.60156 15.2441 5.33333 15.1621 5.11719 14.998C4.90104 14.834 4.74089 14.6113 4.63672 14.3301C4.53255 14.0462 4.48047 13.7246 4.48047 13.3652C4.48047 12.6934 4.79818 11.7324 5.43359 10.4824C6.22786 10.7533 6.79427 10.9733 7.13281 11.1426C7.47135 11.3092 7.71354 11.5215 7.85938 11.7793C8.00781 12.0345 8.08203 12.4043 8.08203 12.8887C8.08203 13.2637 7.97786 13.6348 7.76953 14.002C7.5612 14.3665 7.29036 14.6647 6.95703 14.8965C6.6237 15.1283 6.27865 15.2441 5.92188 15.2441ZM5.77734 12.502C5.71745 12.6556 5.67708 12.7741 5.65625 12.8574C5.63802 12.9382 5.62891 13.028 5.62891 13.127C5.62891 13.3014 5.68099 13.4368 5.78516 13.5332C5.89193 13.627 6.01693 13.6738 6.16016 13.6738C6.32943 13.6738 6.48698 13.6165 6.63281 13.502C6.77865 13.3848 6.88542 13.2116 6.95312 12.9824L5.77734 12.502ZM9.95703 13.252H10.9531V14.791H10.6016C9.2474 14.791 8.55469 14.14 8.52344 12.8379L8.43359 9.29492L9.95703 9.06055V13.252ZM12.9336 10.5605C13.2565 10.6751 13.4896 10.7936 13.6328 10.916C13.776 11.0384 13.8698 11.2038 13.9141 11.4121C13.9609 11.6204 13.9844 11.9395 13.9844 12.3691V13.252H15.0273V14.791H14.7461C14.5299 14.791 14.3424 14.7715 14.1836 14.7324C14.0247 14.696 13.8854 14.6439 13.7656 14.5762C13.6484 14.5111 13.5234 14.4251 13.3906 14.3184C13.125 14.5033 12.7904 14.6283 12.3867 14.6934C11.9857 14.7585 11.5091 14.791 10.957 14.791H10.6055V13.252H10.957C11.6654 13.252 12.2669 13.2025 12.7617 13.1035V12.627C12.7617 12.3717 12.7539 12.1999 12.7383 12.1113C12.7253 12.0228 12.6914 11.959 12.6367 11.9199C12.582 11.8809 12.4701 11.8327 12.3008 11.7754L10.8438 11.2793L11.2852 9.01758L13.5273 8.32617V8.82227L14.2109 8.64648L14.082 10.1582L12.3125 10.3418L12.9336 10.5605ZM19.4219 9.94336L18.6797 9.19727L19.4219 8.44727L20.168 9.19727L19.4219 9.94336ZM18.7617 11.0566L18.0195 10.3105L18.7617 9.56055L19.418 10.2207L20.0586 9.57617L20.8047 10.3262L20.0586 11.0723L19.4023 10.416L18.7617 11.0566ZM22.4453 10.8613V13.2441C22.4453 13.5801 22.3763 13.8704 22.2383 14.1152C22.1003 14.3574 21.9128 14.541 21.6758 14.666C21.4414 14.7936 21.1784 14.8574 20.8867 14.8574C20.6758 14.8574 20.4297 14.8184 20.1484 14.7402C19.8698 14.6621 19.6276 14.5592 19.4219 14.4316C18.9922 14.7155 18.5404 14.8574 18.0664 14.8574C17.6393 14.8574 17.1771 14.7155 16.6797 14.4316C16.4609 14.5384 16.2122 14.6243 15.9336 14.6895C15.6549 14.7572 15.3529 14.791 15.0273 14.791H14.6758V13.252H15.9883V11.4238H17.4023V13.252H18.7266V11.4238H20.1406V13.252H21.1719L20.8984 11.1035L22.4453 10.8613ZM24.0352 15.1035C24.4023 15.1035 24.6888 15.0632 24.8945 14.9824C25.1003 14.9043 25.2513 14.7858 25.3477 14.627C25.2487 14.6556 25.1133 14.6777 24.9414 14.6934C24.7695 14.709 24.6276 14.7168 24.5156 14.7168C24.1172 14.7168 23.793 14.6634 23.543 14.5566C23.293 14.4525 23.1068 14.2832 22.9844 14.0488C22.862 13.8145 22.8008 13.502 22.8008 13.1113C22.8008 12.5618 22.8411 12.1048 22.9219 11.7402C23.0026 11.373 23.1667 11.0788 23.4141 10.8574C23.6641 10.6361 24.0273 10.5254 24.5039 10.5254C25.1992 10.5254 25.7214 10.791 26.0703 11.3223C26.4193 11.8509 26.5938 12.6374 26.5938 13.6816C26.5938 14.3197 26.5091 14.8405 26.3398 15.2441C26.1706 15.6504 25.9089 15.9512 25.5547 16.1465C25.2005 16.3418 24.7435 16.4395 24.1836 16.4395C24.0091 16.4395 23.8229 16.4251 23.625 16.3965C23.4297 16.3704 23.1706 16.3288 22.8477 16.2715V15.1035H24.0352ZM25.1953 13.252C25.1823 12.9603 25.1471 12.7363 25.0898 12.5801C25.0326 12.4238 24.9414 12.3132 24.8164 12.248C24.6914 12.1829 24.5143 12.1504 24.2852 12.1504C24.2122 12.1504 24.1562 12.1517 24.1172 12.1543L24.1055 12.5605C24.1029 12.6335 24.1016 12.7272 24.1016 12.8418C24.1016 12.9824 24.1133 13.0801 24.1367 13.1348C24.1628 13.1868 24.207 13.2194 24.2695 13.2324C24.3346 13.2454 24.4531 13.252 24.625 13.252H25.1953ZM26.8789 14.9004C27.2461 14.8952 27.5469 14.8665 27.7812 14.8145C28.0156 14.7624 28.2174 14.6673 28.3867 14.5293C28.556 14.3913 28.7018 14.1921 28.8242 13.9316L28.3789 11.5371L30.0078 11.2598V13.252H30.9805V14.791H30.8047C30.4036 14.791 30.0885 14.7285 29.8594 14.6035C29.7474 14.9837 29.5742 15.3145 29.3398 15.5957C29.1081 15.877 28.8307 16.0931 28.5078 16.2441C28.1875 16.3952 27.8424 16.4707 27.4727 16.4707C27.2695 16.4707 27.0716 16.4486 26.8789 16.4043V14.9004ZM30.6289 13.2402H33.4922V12.7168C33.3542 12.7637 33.1927 12.8014 33.0078 12.8301C32.8229 12.8561 32.6562 12.8691 32.5078 12.8691C32.25 12.8691 32.0195 12.8223 31.8164 12.7285C31.6133 12.6322 31.4531 12.4928 31.3359 12.3105C31.2214 12.1283 31.1641 11.9108 31.1641 11.6582C31.1641 10.8796 31.2865 10.2936 31.5312 9.90039C31.776 9.50456 32.1198 9.30664 32.5625 9.30664C32.9922 9.30664 33.3685 9.41602 33.6914 9.63477C34.0169 9.85352 34.2682 10.1738 34.4453 10.5957C34.625 11.015 34.7148 11.5176 34.7148 12.1035C34.7148 12.8665 34.6042 13.4395 34.3828 13.8223C34.1615 14.2025 33.8138 14.459 33.3398 14.5918C32.8659 14.7246 32.1836 14.791 31.293 14.791H30.6289V13.2402ZM32.2656 10.8301C32.263 10.9082 32.2617 11.0059 32.2617 11.123C32.2617 11.2689 32.2734 11.3704 32.2969 11.4277C32.3229 11.485 32.3672 11.5202 32.4297 11.5332C32.4948 11.5462 32.6133 11.5527 32.7852 11.5527H33.4102C33.3398 10.959 32.9583 10.6465 32.2656 10.6152V10.8301ZM32.5625 7.49023L33.3633 8.29883L32.5625 9.09961L31.7617 8.29883L32.5625 7.49023ZM40.6562 12.4707C40.5339 12.5176 40.4505 12.554 40.4062 12.5801C40.3646 12.6061 40.3385 12.6335 40.3281 12.6621C40.3177 12.6908 40.3112 12.7441 40.3086 12.8223H41.2461C41.6029 12.8223 41.8737 12.8704 42.0586 12.9668C42.2435 13.0605 42.3711 13.2194 42.4414 13.4434C42.5143 13.6673 42.5508 13.9928 42.5508 14.4199C42.5508 14.9408 42.4115 15.347 42.1328 15.6387C41.8542 15.9329 41.4727 16.1361 40.9883 16.248C40.5039 16.3626 39.9128 16.4199 39.2148 16.4199C38.4414 16.4199 37.8607 16.2493 37.4727 15.9082C37.0872 15.5671 36.8945 15.0592 36.8945 14.3848C36.8945 14.0124 36.9505 13.4629 37.0625 12.7363H38.4023C38.3763 12.9186 38.3529 13.0723 38.332 13.1973C38.293 13.4525 38.2643 13.6491 38.2461 13.7871C38.2305 13.9225 38.2227 14.0436 38.2227 14.1504C38.2227 14.3327 38.2565 14.4694 38.3242 14.5605C38.3919 14.6543 38.5052 14.7181 38.6641 14.752C38.8255 14.7884 39.0599 14.8066 39.3672 14.8066H41.3516V14.3613H39.2031V13.6035C39.2031 12.8145 39.237 12.2793 39.3047 11.998C39.375 11.7142 39.5482 11.4811 39.8242 11.2988C40.1029 11.1139 40.6758 10.8314 41.543 10.4512L42.0508 11.9277L40.6562 12.4707ZM42.8359 14.9004C43.2031 14.8952 43.5039 14.8665 43.7383 14.8145C43.9727 14.7624 44.1732 14.6673 44.3398 14.5293C44.5091 14.3913 44.6549 14.1921 44.7773 13.9316L44.2539 11.5371L45.8438 11.2754C45.8646 11.7467 45.8789 12.0449 45.8867 12.1699C45.9023 12.4902 45.9141 12.7611 45.9219 12.9824C45.9297 13.2012 45.9336 13.4434 45.9336 13.709C45.9336 14.2298 45.8242 14.6999 45.6055 15.1191C45.3867 15.541 45.0859 15.8717 44.7031 16.1113C44.3229 16.3509 43.8984 16.4707 43.4297 16.4707C43.2318 16.4707 43.0339 16.4499 42.8359 16.4082V14.9004ZM46.3086 9.26367L47.8477 9.06836L47.8555 14.3613H46.5508L46.3086 9.26367ZM51.8438 14.2012C51.513 14.696 50.9271 14.9434 50.0859 14.9434C49.4453 14.9434 48.9701 14.804 48.6602 14.5254C48.3529 14.2467 48.2018 13.8236 48.207 13.2559L48.2109 12.5176H49.5742V13.3184H51.1445L50.6836 10.8379L52.2852 10.4082L52.4336 13.252H53.4297V14.791H53.0781C52.8307 14.791 52.6003 14.7402 52.3867 14.6387C52.1758 14.5371 51.9948 14.3913 51.8438 14.2012ZM53.082 14.791V13.252L54.7812 13.248L54.4844 11.0254L56.0898 10.6855V12.8457C56.0898 13.2962 56.0013 13.6647 55.8242 13.9512C55.6497 14.2376 55.3789 14.4486 55.0117 14.584C54.6445 14.722 54.1706 14.791 53.5898 14.791H53.082ZM54.8281 15.1699L55.6289 15.9785L54.8281 16.7793L54.0273 15.9785L54.8281 15.1699ZM57.9648 13.252H58.9609V14.791H58.6094C57.2552 14.791 56.5625 14.14 56.5312 12.8379L56.4414 9.29492L57.9648 9.06055V13.252ZM66.4414 13.252H67.1719V14.791H66.8242C66.6055 14.791 66.4167 14.7598 66.2578 14.6973C66.1016 14.6374 65.9492 14.5423 65.8008 14.4121C65.6471 14.5684 65.4674 14.6868 65.2617 14.7676C65.056 14.8509 64.8398 14.8926 64.6133 14.8926C64.3919 14.8926 64.1719 14.8535 63.9531 14.7754C63.737 14.6973 63.5391 14.5827 63.3594 14.4316C62.9297 14.7155 62.4779 14.8574 62.0039 14.8574C61.5768 14.8574 61.1146 14.7155 60.6172 14.4316C60.3984 14.5384 60.1497 14.6243 59.8711 14.6895C59.5924 14.7572 59.2904 14.791 58.9648 14.791H58.6133V13.252H59.9258V11.4238H61.3398V13.252H62.6641V11.4238H64.0781V13.252H65.1094L64.8828 11.4473L66.4414 11.2129V13.252ZM71.1055 12.7012C70.4362 13.4746 69.9701 13.985 69.707 14.2324C69.4466 14.4798 69.1914 14.6348 68.9414 14.6973C68.694 14.7598 68.2669 14.791 67.6602 14.791H66.8242V13.252H67.6953C68.1667 13.252 68.4922 13.2363 68.6719 13.2051C68.8542 13.1738 69.026 13.097 69.1875 12.9746C69.3516 12.8522 69.6302 12.5996 70.0234 12.2168C69.7292 12.1361 69.4857 12.0762 69.293 12.0371C69.1029 11.9954 68.9505 11.9746 68.8359 11.9746C68.7396 11.9746 68.6589 11.9876 68.5938 12.0137C68.5286 12.0397 68.4648 12.0801 68.4023 12.1348C68.3398 12.1895 68.2448 12.2845 68.1172 12.4199L68.0312 12.5098L67.4492 11.0957C67.668 10.929 67.8464 10.8014 67.9844 10.7129C68.125 10.6217 68.2565 10.554 68.3789 10.5098C68.5039 10.4655 68.6328 10.4434 68.7656 10.4434C68.9089 10.4434 69.069 10.4681 69.2461 10.5176C69.4232 10.5671 69.7044 10.6595 70.0898 10.7949L70.3242 10.877C70.569 10.9629 70.7396 11.0202 70.8359 11.0488C70.9349 11.0749 71.0326 11.0918 71.1289 11.0996C71.2253 11.1048 71.3919 11.1087 71.6289 11.1113L71.9648 11.1152L71.7188 12.8145L71.1055 12.7012Z" fill="white"/>
</svg>
