<svg width="101" height="25" viewBox="0 0 101 25" fill="none" xmlns="http://www.w3.org/2000/svg">
<g filter="url(#filter0_d_10579_32)">
<rect x="0.910156" width="98.3224" height="23.0811" rx="11.5406" fill="#FAE210"/>
<rect x="1.13769" y="0.227532" width="97.8674" height="22.6261" rx="11.313" stroke="#562C82" stroke-width="0.455063"/>
</g>
<path d="M26.4548 12.1854H26.8753C26.9253 12.1854 26.9704 12.2104 27.0104 12.2605C27.0605 12.3105 27.0855 12.3656 27.0855 12.4256V14.528C27.0855 14.5781 27.0655 14.6282 27.0255 14.6782C26.9854 14.7183 26.9354 14.7383 26.8753 14.7383H26.65C26.2396 14.7383 25.8791 14.6582 25.5688 14.498C25.2685 14.3378 25.0132 14.1576 24.8029 13.9574C24.5226 14.2477 24.2173 14.453 23.8869 14.5731C23.5565 14.6832 23.2111 14.7383 22.8507 14.7383H20.9585C20.6482 14.7383 20.3529 14.6782 20.0725 14.5581C19.7922 14.4379 19.5469 14.2778 19.3367 14.0775C19.1265 13.8673 18.9613 13.622 18.8411 13.3417C18.721 13.0614 18.6609 12.766 18.6609 12.4557V10.2031H20.463V11.9451C20.463 12.1053 20.5481 12.1854 20.7183 12.1854H22.8807C23.091 12.1854 23.2762 12.1203 23.4364 11.9902C23.5966 11.85 23.6466 11.6648 23.5865 11.4345L22.3101 6.85431L24.3674 6.10345L25.9743 11.825C26.0043 11.9351 26.0644 12.0252 26.1545 12.0953C26.2446 12.1553 26.3447 12.1854 26.4548 12.1854ZM27.2344 16.5403H29.1866V18.5676H27.2344V16.5403ZM29.1866 16.5403H31.1388V18.5676H29.1866V16.5403ZM30.3279 12.1854C30.4481 12.1854 30.5482 12.1453 30.6283 12.0652C30.7084 11.9751 30.7484 11.875 30.7484 11.7649V8.32598H32.9109V11.7499C32.9109 12.1603 32.8308 12.5508 32.6706 12.9212C32.5204 13.2816 32.3102 13.597 32.0399 13.8673C31.7696 14.1376 31.4492 14.3528 31.0788 14.513C30.7184 14.6632 30.3329 14.7383 29.9225 14.7383H26.874C26.8139 14.7383 26.7639 14.7183 26.7238 14.6782C26.6838 14.6282 26.6638 14.5781 26.6638 14.528V12.4256C26.6638 12.3656 26.6838 12.3105 26.7238 12.2605C26.7639 12.2104 26.8139 12.1854 26.874 12.1854H30.3279ZM37.8605 8.76148V11.84C37.8605 11.9501 37.8956 12.0352 37.9656 12.0953C38.0457 12.1553 38.1408 12.1854 38.251 12.1854H38.9117C39.0519 12.1854 39.122 12.2555 39.122 12.3956V14.528C39.122 14.6682 39.0519 14.7383 38.9117 14.7383H38.6114C38.4912 14.7383 38.3511 14.7082 38.1909 14.6482C38.0407 14.5781 37.9256 14.503 37.8455 14.4229V14.6482C37.8455 15.0486 37.7754 15.4141 37.6353 15.7444C37.5051 16.0848 37.3199 16.3902 37.0796 16.6605C36.8394 16.9308 36.554 17.166 36.2237 17.3663C35.8933 17.5665 35.5379 17.7317 35.1574 17.8618L32.7998 18.6728L32.139 16.6755L34.5868 15.8345C34.9272 15.7244 35.1925 15.5292 35.3827 15.2489C35.5829 14.9685 35.683 14.6532 35.683 14.3028V8.76148H37.8605ZM38.7038 12.4256C38.7038 12.3656 38.7289 12.3105 38.7789 12.2605C38.819 12.2104 38.864 12.1854 38.9141 12.1854H41.9475C42.3279 12.1854 42.7084 12.1253 43.0888 12.0052C43.4692 11.885 43.7846 11.6748 44.0349 11.3745L44.5154 10.6837C44.5655 10.6236 44.5955 10.5785 44.6055 10.5485C44.6156 10.5385 44.6256 10.5285 44.6356 10.5185L41.7673 9.67752C41.6772 9.64749 41.6171 9.68253 41.5871 9.78264L41.0165 11.4045L39.1844 10.9239L39.6199 9.40721C39.73 9.0468 39.8952 8.74146 40.1154 8.49117C40.3357 8.23087 40.586 8.03565 40.8663 7.9055C41.1566 7.76534 41.457 7.68025 41.7673 7.65021C42.0877 7.62018 42.393 7.65021 42.6834 7.74032L48.7503 9.55738L48.1796 11.5697L47.2185 11.2844C47.0183 11.2343 46.8631 11.2143 46.753 11.2243C46.6429 11.2343 46.5327 11.3094 46.4226 11.4495L44.8758 13.3717C44.6656 13.622 44.4253 13.8373 44.155 14.0175C43.8847 14.1877 43.5944 14.3278 43.284 14.4379C42.9837 14.5381 42.6633 14.6131 42.3229 14.6632C41.9926 14.7133 41.6622 14.7383 41.3318 14.7383H38.9141C38.854 14.7383 38.8039 14.7183 38.7639 14.6782C38.7238 14.6282 38.7038 14.5781 38.7038 14.528V12.4256ZM41.1516 4.57171H43.1038V6.59902H41.1516V4.57171ZM50.9975 16.7356C50.9975 16.5453 51.0226 16.3251 51.0726 16.0748C51.1227 15.8245 51.2078 15.5642 51.3279 15.2939C51.4581 15.0236 51.6333 14.7483 51.8535 14.468C52.0738 14.1877 52.3491 13.9274 52.6795 13.6871C52.5994 13.647 52.5193 13.582 52.4392 13.4919C52.3691 13.4018 52.319 13.2866 52.289 13.1465L51.8085 10.8338C51.7284 10.4334 51.7434 10.0529 51.8535 9.69254C51.9636 9.32212 52.1388 8.99675 52.3791 8.71643C52.6294 8.43611 52.9297 8.21085 53.2801 8.04066C53.6406 7.87046 54.026 7.78537 54.4365 7.78537H57.3648V10.113H54.3614C54.2412 10.113 54.1411 10.1631 54.061 10.2632C53.9909 10.3533 53.9659 10.4584 53.9859 10.5785L54.4665 12.9062C54.4965 12.8962 54.5716 12.8712 54.6917 12.8311C54.8119 12.7911 54.957 12.746 55.1272 12.696C55.2974 12.6459 55.4826 12.5908 55.6829 12.5308C55.8931 12.4607 56.1034 12.3906 56.3136 12.3205C56.8142 12.1603 57.3698 11.9851 57.9805 11.7949L58.6112 13.7622L54.3614 15.0987C54.1011 15.1788 53.8758 15.354 53.6856 15.6243C53.5054 15.9046 53.4153 16.22 53.4153 16.5704C53.4153 16.8307 53.4654 17.0609 53.5655 17.2612C53.6656 17.4614 53.7957 17.6316 53.9559 17.7717C54.1261 17.9219 54.3263 18.032 54.5566 18.1021C54.7869 18.1822 55.0271 18.2222 55.2774 18.2222H57.6501V20.7902H55.2774C54.6667 20.7902 54.1011 20.685 53.5805 20.4748C53.0599 20.2746 52.6094 19.9893 52.2289 19.6188C51.8485 19.2584 51.5482 18.8279 51.3279 18.3274C51.1077 17.8368 50.9975 17.3062 50.9975 16.7356ZM66.107 14.1376C66.107 14.5681 66.0419 14.9786 65.9117 15.369C65.7816 15.7594 65.5964 16.1199 65.3561 16.4502C65.1258 16.7806 64.8455 17.0709 64.5152 17.3212C64.1848 17.5715 63.8194 17.7667 63.4189 17.9069L61.0462 18.7178L60.4005 16.7205L62.7732 15.9096C63.1035 15.7995 63.3739 15.6343 63.5841 15.4141C63.8043 15.1938 63.9145 14.9085 63.9145 14.5581V14.483C63.7743 14.5631 63.5991 14.6282 63.3889 14.6782C63.1886 14.7183 62.9884 14.7383 62.7882 14.7383H62.2326C61.8221 14.7383 61.4367 14.6482 61.0762 14.468C60.7258 14.2878 60.4305 14.0525 60.1902 13.7622C59.95 13.4718 59.7748 13.1415 59.6646 12.771C59.5645 12.3906 59.5545 12.0002 59.6346 11.5997L59.9049 10.2181C59.965 9.90778 60.0701 9.62246 60.2203 9.36216C60.3804 9.10187 60.5757 8.87661 60.8059 8.68639C61.0362 8.49618 61.2965 8.34601 61.5868 8.23588C61.8772 8.12575 62.1825 8.07069 62.5029 8.07069H63.3288C63.7092 8.07069 64.0696 8.14578 64.41 8.29595C64.7504 8.43611 65.0458 8.63133 65.296 8.88162C65.5463 9.1319 65.7416 9.42724 65.8817 9.76762C66.0319 10.108 66.107 10.4684 66.107 10.8489V14.1376ZM63.9445 12.1854V10.8338C63.9245 10.6737 63.8344 10.5836 63.6742 10.5635H62.2626C62.1425 10.5535 62.0574 10.6236 62.0073 10.7738L61.767 11.9902C61.757 12.0402 61.767 12.0853 61.7971 12.1253C61.8371 12.1654 61.8822 12.1854 61.9322 12.1854H63.9445ZM71.8103 8.76148V11.84C71.8103 11.9501 71.8453 12.0352 71.9154 12.0953C71.9955 12.1553 72.0906 12.1854 72.2007 12.1854H72.8615C73.0017 12.1854 73.0717 12.2555 73.0717 12.3956V14.528C73.0717 14.6682 73.0017 14.7383 72.8615 14.7383H72.5611C72.441 14.7383 72.3009 14.7082 72.1407 14.6482C71.9905 14.5781 71.8754 14.503 71.7953 14.4229V14.6482C71.7953 15.0486 71.7252 15.4141 71.585 15.7444C71.4549 16.0848 71.2697 16.3902 71.0294 16.6605C70.7891 16.9308 70.5038 17.166 70.1734 17.3663C69.8431 17.5665 69.4877 17.7317 69.1072 17.8618L66.7495 18.6728L66.0888 16.6755L68.5366 15.8345C68.877 15.7244 69.1423 15.5292 69.3325 15.2489C69.5327 14.9685 69.6328 14.6532 69.6328 14.3028V8.76148H71.8103ZM76.9335 14.7383C76.5831 14.7383 76.2477 14.6782 75.9273 14.5581C75.607 14.4379 75.3166 14.2427 75.0563 13.9724C74.796 14.2427 74.5007 14.4379 74.1703 14.5581C73.85 14.6782 73.5146 14.7383 73.1642 14.7383H72.8638C72.8038 14.7383 72.7537 14.7183 72.7137 14.6782C72.6736 14.6282 72.6536 14.5781 72.6536 14.528V12.4106C72.6536 12.3506 72.6786 12.3005 72.7287 12.2605C72.7787 12.2104 72.8238 12.1854 72.8638 12.1854H73.5696C73.6798 12.1854 73.7749 12.1403 73.855 12.0502C73.9351 11.9501 73.9801 11.845 73.9901 11.7349V8.7765H76.1376V11.7349C76.1275 11.855 76.1626 11.9601 76.2427 12.0502C76.3328 12.1403 76.4379 12.1854 76.558 12.1854H77.0686C77.1988 12.1854 77.3139 12.1503 77.414 12.0803C77.5141 12.0002 77.5742 11.895 77.5942 11.7649L78.1949 8.7765L80.4024 9.15192L79.8918 11.6598C79.8518 11.7899 79.8718 11.9101 79.9519 12.0202C80.042 12.1303 80.1521 12.1854 80.2823 12.1854H81.5287V8.38605H83.7062V12.5158C83.7062 12.8061 83.6461 13.0864 83.526 13.3567C83.4058 13.627 83.2406 13.8673 83.0304 14.0775C82.8302 14.2778 82.5949 14.4379 82.3246 14.5581C82.0543 14.6782 81.769 14.7383 81.4686 14.7383H80.2673C79.9669 14.7383 79.6816 14.6832 79.4113 14.5731C79.141 14.463 78.8907 14.2627 78.6604 13.9724C78.4001 14.2627 78.1248 14.463 77.8345 14.5731C77.5542 14.6832 77.2538 14.7383 76.9335 14.7383ZM76.7082 5.54782H78.6604V7.57513H76.7082V5.54782ZM78.6604 5.54782H80.6127V7.57513H78.6604V5.54782ZM77.6393 3.97103H79.5915V5.99833H77.6393V3.97103Z" fill="#562C82"/>
<defs>
<filter id="filter0_d_10579_32" x="2.95043e-05" y="0" width="100.143" height="24.9023" filterUnits="userSpaceOnUse" color-interpolation-filters="sRGB">
<feFlood flood-opacity="0" result="BackgroundImageFix"/>
<feColorMatrix in="SourceAlpha" type="matrix" values="0 0 0 0 0 0 0 0 0 0 0 0 0 0 0 0 0 0 127 0" result="hardAlpha"/>
<feOffset dy="0.910127"/>
<feGaussianBlur stdDeviation="0.455063"/>
<feComposite in2="hardAlpha" operator="out"/>
<feColorMatrix type="matrix" values="0 0 0 0 0 0 0 0 0 0 0 0 0 0 0 0 0 0 0.25 0"/>
<feBlend mode="normal" in2="BackgroundImageFix" result="effect1_dropShadow_10579_32"/>
<feBlend mode="normal" in="SourceGraphic" in2="effect1_dropShadow_10579_32" result="shape"/>
</filter>
</defs>
</svg>
