<svg width="259" height="127" viewBox="0 0 259 127" fill="none" xmlns="http://www.w3.org/2000/svg">
<path d="M13.0816 29.4133C12.0543 29.4133 11.0828 29.2123 10.1671 28.8103C9.25146 28.4306 8.44746 27.8946 7.75513 27.2023C7.08513 26.5323 6.54913 25.7394 6.14713 24.8238C5.76746 23.9081 5.57763 22.9366 5.57763 21.9093V13.0653L9.26263 13.0988V21.3733C9.26263 21.8869 9.36313 22.3671 9.56413 22.8138C9.76513 23.2604 10.0331 23.6513 10.3681 23.9863C10.7031 24.3213 11.094 24.5781 11.5406 24.7568C11.9873 24.9578 12.4563 25.0583 12.9476 25.0583H18.9776C19.8263 25.0583 20.541 24.7679 21.1216 24.1873C21.7023 23.6066 21.9926 22.9031 21.9926 22.0768V0.603279H25.6776V17.6213C25.6776 18.0679 25.834 18.4476 26.1466 18.7603C26.4593 19.0506 26.839 19.1958 27.2856 19.1958H29.3626C29.4966 19.1958 29.6083 19.2516 29.6976 19.3633C29.787 19.4526 29.8316 19.5531 29.8316 19.6648V23.0483C29.8316 23.1823 29.787 23.3051 29.6976 23.4168C29.6083 23.5061 29.4966 23.5508 29.3626 23.5508H27.8886C27.4196 23.5508 27.0065 23.4838 26.6491 23.3498C26.2918 23.2158 25.9568 22.9366 25.6441 22.5123V23.1153C25.6441 23.7853 25.4878 24.4888 25.1751 25.2258C24.8625 25.9628 24.4158 26.6439 23.8351 27.2693C23.2768 27.8946 22.5845 28.4083 21.7581 28.8103C20.9318 29.2123 19.9938 29.4133 18.9441 29.4133H13.0816ZM37.0519 19.1958C37.4986 19.1958 37.8783 19.0394 38.1909 18.7268C38.5036 18.3918 38.6599 18.0009 38.6599 17.5543V10.6198H42.3449V17.5543C42.3449 18.3806 42.1886 19.1623 41.8759 19.8993C41.5633 20.6139 41.1278 21.2504 40.5694 21.8088C40.0334 22.3448 39.3969 22.7691 38.6599 23.0818C37.9453 23.3944 37.1748 23.5508 36.3484 23.5508H29.3469C29.2129 23.5508 29.1013 23.5061 29.0119 23.4168C28.9226 23.3051 28.8779 23.1934 28.8779 23.0818V19.6983C28.8779 19.5643 28.9226 19.4526 29.0119 19.3633C29.1013 19.2516 29.2129 19.1958 29.3469 19.1958H37.0519ZM29.8494 31.4233H33.6684V27.5708H29.8494V31.4233ZM35.4104 31.4233H39.2629V27.5708H35.4104V31.4233ZM50.9369 23.5508C50.1106 23.5508 49.3512 23.3833 48.6589 23.0483C47.9666 22.6909 47.3859 22.2219 46.9169 21.6413C46.4479 21.0606 46.1017 20.4018 45.8784 19.6648C45.6774 18.9054 45.6551 18.1238 45.8114 17.3198L46.3809 14.2713C46.4926 13.6683 46.7047 13.1099 47.0174 12.5963C47.3524 12.0603 47.7432 11.6024 48.1899 11.2228C48.6366 10.8431 49.1391 10.5528 49.6974 10.3518C50.2781 10.1284 50.8811 10.0168 51.5064 10.0168H53.3824C54.1417 10.0168 54.8564 10.1619 55.5264 10.4523C56.1964 10.7426 56.7771 11.1446 57.2684 11.6583C57.7597 12.1496 58.1506 12.7303 58.4409 13.4003C58.7312 14.0703 58.8764 14.7849 58.8764 15.5443V19.1958H61.2214C61.5341 19.1958 61.6904 19.3521 61.6904 19.6648V23.0818C61.6904 23.3944 61.5341 23.5508 61.2214 23.5508H58.8429C58.8429 23.5731 58.8429 23.6289 58.8429 23.7183C58.8429 23.8076 58.8317 23.9193 58.8094 24.0533C58.6754 25.5273 58.1059 26.8561 57.1009 28.0398C56.1182 29.2234 54.8564 30.0833 53.3154 30.6193L48.7259 32.1938L47.5869 28.6763L52.3104 27.1018C53.1591 26.8114 53.8402 26.3424 54.3539 25.6948C54.8899 25.0471 55.1579 24.2766 55.1579 23.3833V23.1488C54.9122 23.2604 54.6107 23.3609 54.2534 23.4503C53.8961 23.5173 53.5387 23.5508 53.1814 23.5508H50.9369ZM50.4679 19.1958H55.1914V15.5108C55.1914 15.1534 55.0686 14.8519 54.8229 14.6063C54.5772 14.3383 54.2757 14.2043 53.9184 14.2043H51.2049C50.8922 14.2043 50.6242 14.3048 50.4009 14.5058C50.1776 14.7068 50.0324 14.9636 49.9654 15.2763L49.4294 17.9563C49.3624 18.2689 49.4294 18.5593 49.6304 18.8273C49.8537 19.0729 50.1329 19.1958 50.4679 19.1958ZM61.2112 19.1958H66.1692C66.4818 19.1958 66.6382 19.3521 66.6382 19.6648V23.0818C66.6382 23.3944 66.4818 23.5508 66.1692 23.5508H61.2112C60.8985 23.5508 60.7422 23.3944 60.7422 23.0818V19.6648C60.7422 19.3521 60.8985 19.1958 61.2112 19.1958ZM66.1838 19.1958H71.1418C71.4545 19.1958 71.6108 19.3521 71.6108 19.6648V23.0818C71.6108 23.3944 71.4545 23.5508 71.1418 23.5508H66.1838C65.8712 23.5508 65.7148 23.3944 65.7148 23.0818V19.6648C65.7148 19.3521 65.8712 19.1958 66.1838 19.1958ZM71.1565 19.1958H76.1145C76.4272 19.1958 76.5835 19.3521 76.5835 19.6648V23.0818C76.5835 23.3944 76.4272 23.5508 76.1145 23.5508H71.1565C70.8438 23.5508 70.6875 23.3944 70.6875 23.0818V19.6648C70.6875 19.3521 70.8438 19.1958 71.1565 19.1958ZM76.1292 19.1958H81.0872C81.3998 19.1958 81.5562 19.3521 81.5562 19.6648V23.0818C81.5562 23.3944 81.3998 23.5508 81.0872 23.5508H76.1292C75.8165 23.5508 75.6602 23.3944 75.6602 23.0818V19.6648C75.6602 19.3521 75.8165 19.1958 76.1292 19.1958ZM81.1018 19.1958H86.0598C86.3725 19.1958 86.5288 19.3521 86.5288 19.6648V23.0818C86.5288 23.3944 86.3725 23.5508 86.0598 23.5508H81.1018C80.7891 23.5508 80.6328 23.3944 80.6328 23.0818V19.6648C80.6328 19.3521 80.7891 19.1958 81.1018 19.1958ZM86.0745 19.1958H91.0325C91.3451 19.1958 91.5015 19.3521 91.5015 19.6648V23.0818C91.5015 23.3944 91.3451 23.5508 91.0325 23.5508H86.0745C85.7618 23.5508 85.6055 23.3944 85.6055 23.0818V19.6648C85.6055 19.3521 85.7618 19.1958 86.0745 19.1958ZM91.0471 19.1958H96.0051C96.3178 19.1958 96.4741 19.3521 96.4741 19.6648V23.0818C96.4741 23.3944 96.3178 23.5508 96.0051 23.5508H91.0471C90.7345 23.5508 90.5781 23.3944 90.5781 23.0818V19.6648C90.5781 19.3521 90.7345 19.1958 91.0471 19.1958ZM96.0198 19.1958H100.978C101.29 19.1958 101.447 19.3521 101.447 19.6648V23.0818C101.447 23.3944 101.29 23.5508 100.978 23.5508H96.0198C95.7071 23.5508 95.5508 23.3944 95.5508 23.0818V19.6648C95.5508 19.3521 95.7071 19.1958 96.0198 19.1958ZM100.992 23.5508C100.68 23.5508 100.523 23.3944 100.523 23.0818V19.6983C100.523 19.5866 100.579 19.4749 100.691 19.3633C100.78 19.2516 100.881 19.1958 100.992 19.1958H106.989C107.927 19.1958 108.854 19.0506 109.769 18.7603C110.685 18.4476 111.467 17.9451 112.114 17.2528L114.057 15.1758C114.169 15.0641 114.27 14.9636 114.359 14.8743C114.448 14.7849 114.504 14.7403 114.526 14.7403L107.491 12.6298C107.268 12.5628 107.067 12.5851 106.888 12.6968C106.732 12.7861 106.609 12.9313 106.52 13.1323L105.247 16.4823L102.031 15.6113L102.902 12.5293C103.103 11.8369 103.416 11.2451 103.84 10.7538C104.264 10.2624 104.756 9.88278 105.314 9.61478C105.872 9.32445 106.464 9.15695 107.089 9.11228C107.715 9.04528 108.318 9.10111 108.898 9.27978L122.231 13.2663L121.126 16.7168L119.551 16.2478C119.172 16.1584 118.848 16.1361 118.58 16.1808C118.334 16.2254 118.1 16.3148 117.876 16.4488V17.5878C117.876 18.0344 118.033 18.4141 118.345 18.7268C118.658 19.0394 119.038 19.1958 119.484 19.1958H123.94C124.253 19.1958 124.409 19.3521 124.409 19.6648V23.0818C124.409 23.3944 124.253 23.5508 123.94 23.5508H120.087C118.747 23.5508 117.608 23.1711 116.67 22.4118C115.755 21.6301 115.118 20.6363 114.761 19.4303L113.421 20.7703C112.461 21.7306 111.344 22.4341 110.071 22.8808C108.798 23.3274 107.491 23.5508 106.151 23.5508H100.992ZM129.621 19.1958C130.067 19.1958 130.447 19.0394 130.76 18.7268C131.072 18.3918 131.229 18.0009 131.229 17.5543V10.6198H134.914V17.5543C134.914 18.3806 134.757 19.1623 134.445 19.8993C134.132 20.6139 133.696 21.2504 133.138 21.8088C132.602 22.3448 131.966 22.7691 131.229 23.0818C130.514 23.3944 129.743 23.5508 128.917 23.5508H123.926C123.792 23.5508 123.68 23.5061 123.591 23.4168C123.501 23.3051 123.457 23.1934 123.457 23.0818V19.6983C123.457 19.5643 123.501 19.4526 123.591 19.3633C123.68 19.2516 123.792 19.1958 123.926 19.1958H129.621ZM125.467 7.57128H129.319V3.71878H125.467V7.57128ZM131.061 7.57128H134.914V3.71878H131.061V7.57128ZM149.437 29.4468C148.41 29.4468 147.438 29.2458 146.523 28.8438C145.607 28.4641 144.803 27.9281 144.111 27.2358C143.441 26.5658 142.905 25.7729 142.503 24.8573C142.123 23.9416 141.933 22.9701 141.933 21.9428V12.1273H145.618V21.4068C145.618 21.9204 145.707 22.4006 145.886 22.8473C146.087 23.2939 146.355 23.6848 146.69 24.0198C147.025 24.3548 147.416 24.6116 147.863 24.7903C148.309 24.9913 148.789 25.0918 149.303 25.0918H155.3C156.148 25.0918 156.863 24.8014 157.444 24.2208C158.024 23.6401 158.315 22.9254 158.315 22.0768V11.5913H162V22.7133C162 23.6513 161.821 24.5223 161.464 25.3263C161.106 26.1526 160.626 26.8673 160.023 27.4703C159.42 28.0733 158.705 28.5534 157.879 28.9108C157.075 29.2681 156.204 29.4468 155.266 29.4468H149.437ZM150.04 7.73878H153.893V11.5913H150.04V7.73878ZM173.021 23.0818C173.021 23.3944 172.864 23.5508 172.552 23.5508H171.58C170.776 23.5508 170.017 23.4056 169.302 23.1153C168.587 22.8026 167.962 22.3783 167.426 21.8423C166.89 21.3063 166.466 20.6809 166.153 19.9663C165.84 19.2516 165.684 18.4923 165.684 17.6883V0.603279H169.369V17.5878C169.369 18.0344 169.525 18.4141 169.838 18.7268C170.151 19.0394 170.53 19.1958 170.977 19.1958H172.552C172.686 19.1958 172.797 19.2516 172.887 19.3633C172.976 19.4526 173.021 19.5643 173.021 19.6983V23.0818ZM172.54 19.1958H177.498C177.81 19.1958 177.967 19.3521 177.967 19.6648V23.0818C177.967 23.3944 177.81 23.5508 177.498 23.5508H172.54C172.227 23.5508 172.071 23.3944 172.071 23.0818V19.6648C172.071 19.3521 172.227 19.1958 172.54 19.1958ZM177.512 19.1958H182.47C182.783 19.1958 182.939 19.3521 182.939 19.6648V23.0818C182.939 23.3944 182.783 23.5508 182.47 23.5508H177.512C177.2 23.5508 177.043 23.3944 177.043 23.0818V19.6648C177.043 19.3521 177.2 19.1958 177.512 19.1958ZM182.485 19.1958H187.443C187.756 19.1958 187.912 19.3521 187.912 19.6648V23.0818C187.912 23.3944 187.756 23.5508 187.443 23.5508H182.485C182.172 23.5508 182.016 23.3944 182.016 23.0818V19.6648C182.016 19.3521 182.172 19.1958 182.485 19.1958ZM187.458 19.1958H192.416C192.728 19.1958 192.885 19.3521 192.885 19.6648V23.0818C192.885 23.3944 192.728 23.5508 192.416 23.5508H187.458C187.145 23.5508 186.989 23.3944 186.989 23.0818V19.6648C186.989 19.3521 187.145 19.1958 187.458 19.1958ZM192.43 19.1958H197.388C197.701 19.1958 197.857 19.3521 197.857 19.6648V23.0818C197.857 23.3944 197.701 23.5508 197.388 23.5508H192.43C192.118 23.5508 191.961 23.3944 191.961 23.0818V19.6648C191.961 19.3521 192.118 19.1958 192.43 19.1958ZM197.403 19.1958H202.361C202.674 19.1958 202.83 19.3521 202.83 19.6648V23.0818C202.83 23.3944 202.674 23.5508 202.361 23.5508H197.403C197.09 23.5508 196.934 23.3944 196.934 23.0818V19.6648C196.934 19.3521 197.09 19.1958 197.403 19.1958ZM228.07 17.5878C228.07 18.0344 228.227 18.4141 228.539 18.7268C228.852 19.0394 229.232 19.1958 229.678 19.1958H231.755C231.889 19.1958 232.001 19.2516 232.09 19.3633C232.18 19.4526 232.224 19.5531 232.224 19.6648V23.0483C232.224 23.1823 232.18 23.3051 232.09 23.4168C232.001 23.5061 231.889 23.5508 231.755 23.5508H230.315C229.533 23.5508 228.807 23.4168 228.137 23.1488C227.467 22.8584 226.875 22.4676 226.362 21.9763C225.848 22.4676 225.245 22.8584 224.553 23.1488C223.883 23.4168 223.179 23.5508 222.442 23.5508H202.376C202.242 23.5508 202.13 23.5061 202.041 23.4168C201.951 23.3051 201.907 23.1934 201.907 23.0818V19.6648C201.907 19.5308 201.951 19.4191 202.041 19.3298C202.13 19.2181 202.242 19.1734 202.376 19.1958H223.079C223.414 19.1958 223.715 19.0729 223.983 18.8273C224.251 18.5816 224.385 18.2689 224.385 17.8893V15.5108C224.385 15.1088 224.24 14.7738 223.95 14.5058C223.659 14.2154 223.313 14.0703 222.911 14.0703H206.396L203.749 11.5243L213.598 0.000280946L216.245 2.47928L209.813 10.0503H222.576C223.336 10.0503 224.039 10.1954 224.687 10.4858C225.357 10.7761 225.937 11.1669 226.429 11.6583C226.942 12.1496 227.344 12.7303 227.635 13.4003C227.925 14.0703 228.07 14.7849 228.07 15.5443V17.5878ZM239.358 19.1958H244.082V15.5108C244.082 15.1534 243.959 14.8519 243.713 14.6063C243.467 14.3606 243.166 14.2378 242.809 14.2378H240.095C239.782 14.2378 239.514 14.3383 239.291 14.5393C239.068 14.7179 238.923 14.9636 238.856 15.2763L238.32 17.9563C238.253 18.2689 238.32 18.5593 238.521 18.8273C238.744 19.0729 239.023 19.1958 239.358 19.1958ZM234.601 17.7218L235.271 14.2713C235.383 13.6683 235.595 13.1099 235.908 12.5963C236.243 12.0603 236.633 11.6136 237.08 11.2563C237.527 10.8766 238.029 10.5863 238.588 10.3853C239.168 10.1619 239.771 10.0503 240.397 10.0503H242.273C243.032 10.0503 243.747 10.1954 244.417 10.4858C245.087 10.7761 245.667 11.1669 246.159 11.6583C246.65 12.1496 247.041 12.7303 247.331 13.4003C247.621 14.0703 247.767 14.7849 247.767 15.5443V19.4638C247.767 20.0221 247.655 20.5581 247.432 21.0718C247.231 21.5631 246.94 21.9986 246.561 22.3783C246.203 22.7356 245.779 23.0259 245.288 23.2493C244.796 23.4503 244.271 23.5508 243.713 23.5508H239.827C239.157 23.5508 238.521 23.4168 237.918 23.1488C237.315 22.8584 236.767 22.3559 236.276 21.6413C235.762 22.3559 235.193 22.8584 234.568 23.1488C233.942 23.4168 233.272 23.5508 232.558 23.5508H231.754C231.441 23.5508 231.285 23.3944 231.285 23.0818V19.6648C231.285 19.3521 231.441 19.1958 231.754 19.1958H232.826C233.272 19.1958 233.652 19.0618 233.965 18.7938C234.3 18.5258 234.512 18.1684 234.601 17.7218ZM255.147 23.5508H251.462V0.603279H255.147V23.5508ZM73.8407 79.3948L72.4002 74.9393L77.8607 73.0633C78.5977 72.8176 79.1895 72.3821 79.6362 71.7568C80.0828 71.1538 80.3062 70.4614 80.3062 69.6798V57.2848H85.1302V69.1773C85.1302 70.1376 84.985 71.0533 84.6947 71.9243C84.4043 72.8176 83.9912 73.6328 83.4552 74.3698C82.9415 75.1068 82.3162 75.7544 81.5792 76.3128C80.8422 76.8711 80.027 77.2954 79.1337 77.5858L73.8407 79.3948ZM92.9325 70.5508C92.2402 70.5508 91.5814 70.4168 90.956 70.1488C90.3307 69.8808 89.7835 69.5123 89.3145 69.0433C88.8455 68.5743 88.477 68.0271 88.209 67.4018C87.941 66.7764 87.807 66.1176 87.807 65.4253V60.4003H91.827V64.3198C91.827 64.6771 92.0169 64.8558 92.3965 64.8558H97.991C98.661 64.8558 99.1412 64.6324 99.4315 64.1858C99.7219 63.7168 99.6884 63.1584 99.331 62.5108L94.976 54.6383L99.0965 51.9918L103.653 60.1323C104.233 61.1819 104.501 62.3209 104.457 63.5493C104.434 64.7553 104.155 65.8831 103.619 66.9328C103.083 67.9601 102.335 68.8199 101.375 69.5123C100.414 70.2046 99.3087 70.5508 98.058 70.5508H92.9325ZM11.0369 123.447C10.0096 123.447 9.03812 123.246 8.12245 122.844C7.20678 122.464 6.40278 121.928 5.71045 121.236C5.04045 120.566 4.50445 119.773 4.10245 118.857C3.72278 117.942 3.53295 116.97 3.53295 115.943V106.127H7.21795V115.407C7.21795 115.92 7.30728 116.401 7.48595 116.847C7.68695 117.294 7.95495 117.685 8.28995 118.02C8.62495 118.355 9.01578 118.612 9.46245 118.79C9.90912 118.991 10.3893 119.092 10.9029 119.092H16.8994C17.7481 119.092 18.4628 118.801 19.0434 118.221C19.6241 117.64 19.9145 116.925 19.9145 116.077V105.591H23.5995V116.713C23.5995 117.651 23.4208 118.522 23.0634 119.326C22.7061 120.153 22.226 120.867 21.623 121.47C21.0199 122.073 20.3053 122.553 19.4789 122.911C18.6749 123.268 17.8039 123.447 16.866 123.447H11.0369ZM11.6399 101.739H15.4925V105.591H11.6399V101.739ZM30.9689 117.551H27.2839V94.6033H30.9689V117.551ZM38.7239 105.558V111.822C38.7239 112.224 38.8914 112.559 39.2264 112.827C39.5614 113.073 39.9299 113.196 40.3319 113.196H42.7774C43.0901 113.196 43.2464 113.352 43.2464 113.665V117.082C43.2464 117.394 43.0901 117.551 42.7774 117.551H40.9349C40.5552 117.551 40.1532 117.484 39.7289 117.35C39.3046 117.216 38.9696 116.937 38.7239 116.512V117.115C38.7239 117.964 38.5787 118.768 38.2884 119.527C38.0204 120.309 37.6407 121.024 37.1494 121.671C36.6581 122.319 36.0774 122.877 35.4074 123.346C34.7374 123.838 34.0004 124.217 33.1964 124.485L28.5734 126.06L27.4344 122.609L32.2584 121.035C33.1071 120.767 33.7771 120.264 34.2684 119.527C34.7821 118.813 35.0389 118.02 35.0389 117.149V105.558H38.7239ZM50.4814 113.196C50.928 113.196 51.3077 113.039 51.6204 112.727C51.933 112.392 52.0894 112.001 52.0894 111.554V104.62H55.7744V111.554C55.7744 112.381 55.618 113.162 55.3054 113.899C54.9927 114.614 54.5572 115.25 53.9989 115.809C53.4629 116.345 52.8264 116.769 52.0894 117.082C51.3747 117.394 50.6042 117.551 49.7779 117.551H42.7764C42.6424 117.551 42.5307 117.506 42.4414 117.417C42.352 117.305 42.3074 117.193 42.3074 117.082V113.698C42.3074 113.564 42.352 113.453 42.4414 113.363C42.5307 113.252 42.6424 113.196 42.7764 113.196H50.4814ZM43.2789 125.423H47.0979V121.571H43.2789V125.423ZM48.8399 125.423H52.6924V121.571H48.8399V125.423ZM63.1603 117.551H59.4753V94.6033H63.1603V117.551ZM78.1126 105.558V111.822C78.1126 112.224 78.2801 112.559 78.6151 112.827C78.9501 113.073 79.3186 113.196 79.7206 113.196H82.1661C82.4788 113.196 82.6351 113.352 82.6351 113.665V117.082C82.6351 117.394 82.4788 117.551 82.1661 117.551H80.3236C79.9439 117.551 79.5419 117.484 79.1176 117.35C78.6933 117.216 78.3583 116.937 78.1126 116.512V117.115C78.1126 117.964 77.9674 118.768 77.6771 119.527C77.4091 120.309 77.0294 121.024 76.5381 121.671C76.0468 122.319 75.4661 122.877 74.7961 123.346C74.1261 123.838 73.3891 124.217 72.5851 124.485L67.9621 126.06L66.8231 122.609L71.6471 121.035C72.4958 120.767 73.1658 120.264 73.6571 119.527C74.1708 118.813 74.4276 118.02 74.4276 117.149V105.558H78.1126ZM83.572 101.538L91.411 92.3588L93.22 94.1008L85.5485 103.079L83.572 101.538ZM110.54 111.588C110.54 112.034 110.696 112.414 111.009 112.727C111.321 113.039 111.701 113.196 112.148 113.196H114.225C114.359 113.196 114.47 113.252 114.56 113.363C114.649 113.453 114.694 113.553 114.694 113.665V117.048C114.694 117.182 114.649 117.305 114.56 117.417C114.47 117.506 114.359 117.551 114.225 117.551H112.784C112.002 117.551 111.277 117.417 110.607 117.149C109.937 116.858 109.345 116.468 108.831 115.976C108.317 116.468 107.714 116.858 107.022 117.149C106.352 117.417 105.649 117.551 104.912 117.551H82.165C82.031 117.551 81.9194 117.506 81.83 117.417C81.7407 117.305 81.696 117.193 81.696 117.082V113.665C81.696 113.352 81.8524 113.196 82.165 113.196H105.548C105.883 113.196 106.185 113.073 106.453 112.827C106.721 112.582 106.855 112.269 106.855 111.889V109.511C106.855 109.109 106.709 108.774 106.419 108.506C106.129 108.215 105.783 108.07 105.381 108.07H88.865L86.2185 105.524L96.0675 94.0003L98.714 96.4793L92.282 104.05H105.046C105.805 104.05 106.508 104.195 107.156 104.486C107.826 104.776 108.407 105.167 108.898 105.658C109.412 106.15 109.814 106.73 110.104 107.4C110.394 108.07 110.54 108.785 110.54 109.544V111.588ZM121.931 113.196C122.377 113.196 122.757 113.039 123.07 112.727C123.382 112.392 123.539 112.001 123.539 111.554V104.62H127.224V111.554C127.224 112.381 127.067 113.162 126.755 113.899C126.442 114.614 126.006 115.25 125.448 115.809C124.912 116.345 124.276 116.769 123.539 117.082C122.824 117.394 122.053 117.551 121.227 117.551H114.226C114.092 117.551 113.98 117.506 113.891 117.417C113.801 117.305 113.757 117.193 113.757 117.082V113.698C113.757 113.564 113.801 113.453 113.891 113.363C113.98 113.252 114.092 113.196 114.226 113.196H121.931ZM114.728 125.423H118.547V121.571H114.728V125.423ZM120.289 125.423H124.142V121.571H120.289V125.423ZM135.347 117.551C134.744 117.551 134.174 117.439 133.638 117.216C133.102 116.97 132.633 116.646 132.231 116.244C131.829 115.842 131.505 115.373 131.26 114.837C131.036 114.279 130.925 113.698 130.925 113.095V108.74H134.074V112.425C134.074 112.649 134.152 112.838 134.308 112.995C134.464 113.129 134.643 113.196 134.844 113.196H140.372C140.774 113.196 141.131 113.095 141.444 112.894C141.779 112.693 142.035 112.436 142.214 112.124C142.415 111.811 142.516 111.476 142.516 111.119C142.538 110.739 142.449 110.371 142.248 110.013L138.094 102.61L141.209 100.566L145.665 108.472C146.245 109.477 146.502 110.516 146.435 111.588C146.39 112.66 146.111 113.642 145.598 114.536C145.084 115.407 144.369 116.133 143.454 116.713C142.538 117.272 141.499 117.551 140.338 117.551H135.347ZM161.405 105.558V111.822C161.405 112.224 161.572 112.559 161.907 112.827C162.242 113.073 162.611 113.196 163.013 113.196H165.458C165.771 113.196 165.927 113.352 165.927 113.665V117.082C165.927 117.394 165.771 117.551 165.458 117.551H163.616C163.236 117.551 162.834 117.484 162.41 117.35C161.985 117.216 161.65 116.937 161.405 116.512V117.115C161.405 117.964 161.259 118.768 160.969 119.527C160.701 120.309 160.321 121.024 159.83 121.671C159.339 122.319 158.758 122.877 158.088 123.346C157.418 123.838 156.681 124.217 155.877 124.485L151.254 126.06L150.115 122.609L154.939 121.035C155.788 120.767 156.458 120.264 156.949 119.527C157.463 118.813 157.72 118.02 157.72 117.149V105.558H161.405ZM167.367 113.196V109.846C167.367 109.086 167.501 108.383 167.769 107.735C168.059 107.065 168.45 106.485 168.941 105.993C169.432 105.502 170.002 105.122 170.65 104.854C171.32 104.564 172.034 104.419 172.794 104.419H174.167C174.792 104.419 175.384 104.53 175.943 104.754C176.501 104.955 177.003 105.245 177.45 105.625C177.919 105.982 178.31 106.429 178.623 106.965C178.935 107.478 179.159 108.037 179.293 108.64L179.795 111.219C179.974 112.046 179.951 112.838 179.728 113.598C179.527 114.357 179.181 115.027 178.69 115.608C178.198 116.188 177.595 116.657 176.881 117.015C176.188 117.372 175.429 117.551 174.603 117.551H173.062C172.682 117.551 172.336 117.517 172.023 117.45C171.71 117.383 171.387 117.294 171.052 117.182V117.484C171.052 117.93 171.141 118.366 171.32 118.79C171.521 119.215 171.911 119.483 172.492 119.594L176.412 120.331L179.795 116.177C180.532 115.262 181.392 114.536 182.375 114C183.38 113.464 184.463 113.196 185.624 113.196H186.026C186.138 113.196 186.238 113.24 186.328 113.33C186.439 113.419 186.495 113.531 186.495 113.665V117.082C186.495 117.394 186.339 117.551 186.026 117.551H185.055C184.541 117.551 184.038 117.674 183.547 117.919C183.056 118.165 182.643 118.511 182.308 118.958C182.241 119.047 182.095 119.237 181.872 119.527C181.649 119.818 181.37 120.164 181.035 120.566C180.722 120.99 180.387 121.426 180.03 121.872C179.695 122.319 179.371 122.732 179.058 123.112C178.768 123.514 178.511 123.849 178.288 124.117C178.087 124.407 177.975 124.563 177.953 124.586L170.583 122.643C170.091 122.509 169.645 122.285 169.243 121.973C168.863 121.66 168.528 121.269 168.238 120.8C167.97 120.354 167.757 119.851 167.601 119.293C167.467 118.734 167.4 118.154 167.4 117.551H165.457C165.144 117.551 164.988 117.394 164.988 117.082V113.665C164.988 113.352 165.144 113.196 165.457 113.196H167.367ZM171.052 109.846V113.196H175.172C175.507 113.196 175.775 113.073 175.976 112.827C176.199 112.559 176.278 112.258 176.211 111.923L175.775 109.678C175.73 109.366 175.585 109.109 175.34 108.908C175.094 108.707 174.815 108.606 174.502 108.606H172.291C171.956 108.606 171.666 108.729 171.42 108.975C171.174 109.22 171.052 109.511 171.052 109.846ZM195.113 117.551C194.309 117.551 193.55 117.394 192.835 117.082C192.143 116.747 191.54 116.244 191.026 115.574C190.49 116.244 189.865 116.747 189.15 117.082C188.458 117.394 187.71 117.551 186.906 117.551H186.035C185.722 117.551 185.566 117.394 185.566 117.082V113.698C185.566 113.564 185.622 113.453 185.733 113.363C185.823 113.252 185.923 113.196 186.035 113.196H187.576C188.022 113.196 188.402 113.028 188.715 112.693C189.027 112.358 189.184 111.967 189.184 111.521V105.558H192.869V111.554C192.869 112.001 193.025 112.392 193.338 112.727C193.65 113.039 194.03 113.196 194.477 113.196H195.348C195.794 113.196 196.185 113.062 196.52 112.794C196.855 112.526 197.067 112.168 197.157 111.722L198.396 105.658L202.115 106.328L201.11 111.353C200.998 111.822 201.099 112.247 201.411 112.626C201.746 113.006 202.148 113.196 202.617 113.196H205.096V104.653H208.781V113.464C208.781 114.022 208.67 114.558 208.446 115.072C208.245 115.563 207.955 115.999 207.575 116.378C207.218 116.736 206.782 117.026 206.269 117.249C205.777 117.45 205.253 117.551 204.694 117.551H202.617C201.903 117.551 201.233 117.394 200.607 117.082C199.982 116.769 199.446 116.255 198.999 115.541C198.486 116.255 197.894 116.769 197.224 117.082C196.554 117.394 195.85 117.551 195.113 117.551ZM203.153 102.61H199.301V98.7573H203.153V102.61ZM197.559 102.61H193.706V98.7573H197.559V102.61ZM200.306 97.5178H196.453V93.6653H200.306V97.5178ZM216.993 117.551V102.911C216.993 101.906 216.937 100.912 216.825 99.9298C216.714 98.9248 216.557 97.9198 216.356 96.9148L215.787 94.1008L219.438 93.3973L220.041 96.4458C220.265 97.5401 220.421 98.6344 220.51 99.7288C220.622 100.801 220.678 101.873 220.678 102.945V117.551H216.993ZM231.486 103.213C232.245 103.213 232.96 103.358 233.63 103.648C234.3 103.939 234.88 104.329 235.372 104.821C235.885 105.312 236.287 105.893 236.578 106.563C236.868 107.233 237.013 107.947 237.013 108.707V110.415C237.013 111.175 236.868 111.889 236.578 112.559C236.287 113.207 235.885 113.788 235.372 114.301C234.88 114.793 234.3 115.183 233.63 115.474C232.96 115.764 232.245 115.909 231.486 115.909H229.844C229.107 115.909 228.404 115.764 227.734 115.474C227.064 115.183 226.472 114.793 225.958 114.301C225.467 113.788 225.076 113.207 224.786 112.559C224.495 111.889 224.35 111.175 224.35 110.415V108.707C224.35 107.947 224.495 107.233 224.786 106.563C225.076 105.893 225.467 105.312 225.958 104.821C226.45 104.329 227.03 103.939 227.7 103.648C228.37 103.358 229.085 103.213 229.844 103.213H231.486ZM232.96 110.281V108.673C232.96 108.294 232.837 107.992 232.591 107.769C232.346 107.523 232.033 107.4 231.653 107.4H229.71C229.331 107.4 229.018 107.523 228.772 107.769C228.527 108.014 228.404 108.316 228.404 108.673V110.281C228.404 110.639 228.527 110.94 228.772 111.186C229.018 111.431 229.331 111.554 229.71 111.554H231.653C232.055 111.554 232.368 111.431 232.591 111.186C232.837 110.94 232.96 110.639 232.96 110.281ZM256.85 116.847C256.85 117.718 256.716 118.556 256.448 119.36C256.18 120.186 255.801 120.934 255.309 121.604C254.84 122.297 254.26 122.9 253.567 123.413C252.897 123.927 252.138 124.329 251.289 124.619L246.7 126.194L245.561 122.676L250.284 121.102C251.133 120.811 251.814 120.342 252.328 119.695C252.864 119.047 253.132 118.277 253.132 117.383V117.149C252.886 117.26 252.585 117.361 252.227 117.45C251.87 117.517 251.513 117.551 251.155 117.551H248.911C248.084 117.551 247.325 117.383 246.633 117.048C245.94 116.691 245.349 116.222 244.857 115.641C244.388 115.061 244.053 114.402 243.852 113.665C243.651 112.905 243.629 112.124 243.785 111.32L244.355 108.271C244.466 107.668 244.679 107.11 244.991 106.596C245.326 106.06 245.717 105.602 246.164 105.223C246.61 104.843 247.113 104.553 247.671 104.352C248.252 104.128 248.855 104.017 249.48 104.017H251.356C252.116 104.017 252.83 104.162 253.5 104.452C254.17 104.743 254.751 105.145 255.242 105.658C255.734 106.15 256.124 106.73 256.415 107.4C256.705 108.07 256.85 108.785 256.85 109.544V116.847ZM253.165 113.196V109.511C253.165 109.153 253.042 108.852 252.797 108.606C252.551 108.338 252.25 108.204 251.892 108.204H249.179C248.866 108.204 248.598 108.305 248.375 108.506C248.151 108.707 248.006 108.964 247.939 109.276L247.403 111.956C247.336 112.269 247.403 112.559 247.604 112.827C247.828 113.073 248.107 113.196 248.442 113.196H253.165Z" fill="white"/>
<path d="M8.1744 76.4468C7.0354 76.4468 5.9634 76.2346 4.9584 75.8103C3.97573 75.3859 3.1159 74.8053 2.3789 74.0683C1.6419 73.3313 1.06123 72.4603 0.636901 71.4553C0.212567 70.4726 0.000400485 69.4118 0.000400485 68.2728V57.7203H4.8579V67.6363C4.8579 68.0829 4.93607 68.4961 5.0924 68.8758C5.27107 69.2554 5.4944 69.5904 5.7624 69.8808C6.05273 70.1488 6.38773 70.3609 6.7674 70.5173C7.14707 70.6736 7.54907 70.7518 7.9734 70.7518H14.1039C14.7962 70.7518 15.3769 70.5173 15.8459 70.0483C16.3372 69.5569 16.5829 68.9651 16.5829 68.2728V57.2178H21.4404V69.0768C21.4404 70.0818 21.2394 71.0309 20.8374 71.9243C20.4577 72.8176 19.9329 73.5993 19.2629 74.2693C18.5929 74.9393 17.8112 75.4641 16.9179 75.8438C16.0246 76.2458 15.0642 76.4468 14.0369 76.4468H8.1744ZM8.5429 52.6953H12.8979V57.2178H8.5429V52.6953ZM28.9352 70.5508H24.1112V46.8998H28.9352V70.5508ZM36.6476 57.2178V64.0853C36.6476 64.3309 36.7257 64.5208 36.8821 64.6548C37.0607 64.7888 37.2729 64.8558 37.5186 64.8558H38.9926C39.3052 64.8558 39.4616 65.0121 39.4616 65.3248V70.0818C39.4616 70.3944 39.3052 70.5508 38.9926 70.5508H38.3226C38.0546 70.5508 37.7419 70.4838 37.3846 70.3498C37.0496 70.1934 36.7927 70.0259 36.6141 69.8473V70.3498C36.6141 71.2431 36.4577 72.0583 36.1451 72.7953C35.8547 73.5546 35.4416 74.2358 34.9056 74.8388C34.3696 75.4418 33.7331 75.9666 32.9961 76.4133C32.2591 76.8599 31.4662 77.2284 30.6176 77.5188L25.3581 79.3278L23.8841 74.8723L29.3446 72.9963C30.1039 72.7506 30.6957 72.3151 31.1201 71.6898C31.5667 71.0644 31.7901 70.3609 31.7901 69.5793V57.2178H36.6476ZM40.1033 64.8558V62.0753C40.1033 61.2489 40.2596 60.4673 40.5723 59.7303C40.9073 58.9933 41.3428 58.3568 41.8788 57.8208C42.4371 57.2624 43.0848 56.8269 43.8218 56.5143C44.5588 56.2016 45.3405 56.0453 46.1668 56.0453H47.2388C47.9535 56.0453 48.6235 56.1681 49.2488 56.4138C49.8965 56.6371 50.4771 56.9609 50.9908 57.3853C51.5045 57.8096 51.94 58.3121 52.2973 58.8928C52.6546 59.4734 52.9003 60.1099 53.0343 60.8023L53.5703 63.3148C53.7713 64.2528 53.749 65.1573 53.5033 66.0283C53.28 66.8769 52.8891 67.6363 52.3308 68.3063C51.7725 68.9763 51.0801 69.5123 50.2538 69.9143C49.4498 70.2939 48.5788 70.4838 47.6408 70.4838H47.5068C46.5241 70.4838 45.6308 70.3386 44.8268 70.0483V70.4168C44.8268 70.5954 44.8826 70.7629 44.9943 70.9193C45.1283 71.0756 45.2735 71.1761 45.4298 71.2208L49.6173 72.7283L53.6373 68.0048C54.4636 67.0221 55.357 66.2516 56.3173 65.6933C57.2776 65.1349 58.3943 64.8558 59.6673 64.8558H60.1698C60.2815 64.8558 60.382 64.9004 60.4713 64.9898C60.583 65.0791 60.6388 65.1908 60.6388 65.3248V70.0483C60.6388 70.1823 60.5941 70.3051 60.5048 70.4168C60.4155 70.5061 60.3038 70.5508 60.1698 70.5508H59.0978C58.6958 70.5508 58.2938 70.6401 57.8918 70.8188C57.5121 71.0198 57.1883 71.3101 56.9203 71.6898C56.764 71.8908 56.5183 72.1923 56.1833 72.5943C55.8706 73.0186 55.5133 73.4876 55.1113 74.0013C54.7093 74.5149 54.2961 75.0398 53.8718 75.5758C53.4475 76.1118 53.0678 76.5808 52.7328 76.9828C52.3978 77.4071 52.1298 77.7309 51.9288 77.9543C51.7501 78.1999 51.6943 78.2781 51.7613 78.1888L42.7498 75.1738C42.3701 75.0398 42.0128 74.8053 41.6778 74.4703C41.3651 74.1353 41.0971 73.7444 40.8738 73.2978C40.6505 72.8511 40.4718 72.3821 40.3378 71.8908C40.2261 71.3994 40.1703 70.9528 40.1703 70.5508H38.9978C38.8638 70.5508 38.7521 70.5061 38.6628 70.4168C38.5511 70.3051 38.4953 70.1823 38.4953 70.0483V65.3248C38.4953 65.1908 38.5511 65.0791 38.6628 64.9898C38.7521 64.9004 38.8638 64.8558 38.9978 64.8558H40.1033ZM44.9273 62.1423V64.8223H48.4783C48.6123 64.8223 48.7128 64.7776 48.7798 64.6883C48.8691 64.5766 48.9026 64.4538 48.8803 64.3198L48.4783 62.1423C48.389 61.7849 48.1768 61.6063 47.8418 61.6063H45.4633C45.3293 61.6063 45.2065 61.6621 45.0948 61.7738C44.9831 61.8631 44.9273 61.9859 44.9273 62.1423ZM61.3703 49.4123H65.7253V53.9348H61.3703V49.4123ZM65.7253 49.4123H70.0803V53.9348H65.7253V49.4123ZM64.2513 64.8558C64.5193 64.8558 64.7426 64.7664 64.9213 64.5878C65.1 64.3868 65.1893 64.1634 65.1893 63.9178V56.2463H70.0133V63.8843C70.0133 64.7999 69.8346 65.6709 69.4773 66.4973C69.1423 67.3013 68.6733 68.0048 68.0703 68.6078C67.4673 69.2108 66.7526 69.6909 65.9263 70.0483C65.1223 70.3833 64.2625 70.5508 63.3468 70.5508H60.1643C60.0303 70.5508 59.9186 70.5061 59.8293 70.4168C59.74 70.3051 59.6953 70.1934 59.6953 70.0818V65.3918C59.6953 65.2578 59.74 65.1349 59.8293 65.0233C59.9186 64.9116 60.0303 64.8558 60.1643 64.8558H64.2513ZM129.228 70.0818C129.228 70.3944 129.071 70.5508 128.759 70.5508H128.256C127.363 70.5508 126.525 70.3944 125.744 70.0818C124.984 69.7691 124.314 69.3224 123.734 68.7418C123.22 69.1214 122.662 69.4564 122.059 69.7468C121.478 70.0148 120.853 70.1934 120.183 70.2828L110.2 71.5558L109.53 66.4303L113.215 65.9613L111.573 48.4743L116.498 47.8713L118.005 65.3248L119.982 65.0903C120.428 65.0456 120.819 64.9004 121.154 64.6548C121.512 64.4091 121.69 63.9289 121.69 63.2143V46.8328H126.514V63.8843C126.514 63.9959 126.57 64.1858 126.682 64.4538C126.816 64.7218 127.006 64.8558 127.251 64.8558H128.759C129.071 64.8558 129.228 65.0121 129.228 65.3248V70.0818ZM149.772 63.5828C149.772 64.5431 149.582 65.4476 149.202 66.2963C148.845 67.1449 148.354 67.8819 147.728 68.5073C147.103 69.1326 146.366 69.6351 145.517 70.0148C144.669 70.3721 143.764 70.5508 142.804 70.5508H128.767C128.656 70.5508 128.555 70.5061 128.466 70.4168C128.354 70.3274 128.298 70.2158 128.298 70.0818V65.3248C128.298 65.2131 128.343 65.1126 128.432 65.0233C128.522 64.9116 128.633 64.8558 128.767 64.8558H129.437L132.787 61.2043V46.8663H137.611V54.4038C137.611 54.6718 137.578 54.9509 137.511 55.2413C137.444 55.5093 137.377 55.7549 137.31 55.9783C137.198 56.2686 137.087 56.5366 136.975 56.7823C136.975 56.8046 136.953 56.8604 136.908 56.9498C136.908 56.9721 136.897 56.9944 136.874 57.0168C137.567 56.5924 138.304 56.2686 139.085 56.0453C139.867 55.7996 140.682 55.6768 141.531 55.6768H143.574C144.445 55.6768 145.261 55.8443 146.02 56.1793C146.779 56.4919 147.427 56.9274 147.963 57.4858C148.521 58.0441 148.957 58.7029 149.269 59.4623C149.604 60.1993 149.772 61.0033 149.772 61.8743V63.5828ZM143.809 64.8558C144.122 64.8558 144.39 64.7553 144.613 64.5543C144.836 64.3309 144.948 64.0629 144.948 63.7503V62.2428C144.948 61.9524 144.847 61.7179 144.646 61.5393C144.445 61.3383 144.2 61.2378 143.909 61.2378H140.593C139.633 61.2378 138.84 61.5839 138.214 62.2763L135.903 64.8558H143.809ZM173.735 64.5208C174.784 64.7441 175.622 65.2801 176.247 66.1288C176.895 66.9774 177.219 67.9378 177.219 69.0098V70.0148C177.219 71.0644 177.018 72.0471 176.616 72.9628C176.236 73.9008 175.7 74.7048 175.008 75.3748C174.315 76.0671 173.511 76.6143 172.596 77.0163C171.68 77.4183 170.697 77.6193 169.648 77.6193H162.981C161.842 77.6193 160.77 77.4071 159.765 76.9828C158.782 76.5584 157.923 75.9778 157.186 75.2408C156.449 74.5038 155.868 73.6328 155.444 72.6278C155.019 71.6451 154.807 70.5843 154.807 69.4453V61.8073H159.631V68.7418C159.631 69.6351 159.933 70.3833 160.536 70.9863C161.161 71.5893 161.909 71.8908 162.78 71.8908H170.318C170.898 71.8908 171.39 71.6898 171.792 71.2878C172.194 70.8858 172.395 70.3944 172.395 69.8138V69.2778L162.78 67.0333V62.7788C162.78 61.8408 162.936 60.9474 163.249 60.0988C163.562 59.2278 164.008 58.4573 164.589 57.7873C165.17 57.1173 165.862 56.5589 166.666 56.1123C167.492 55.6656 168.408 55.3753 169.413 55.2413L174.773 54.5378L175.577 59.9313L169.413 60.7018C168.855 60.7688 168.397 60.9921 168.04 61.3718C167.682 61.7291 167.504 62.1869 167.504 62.7453V63.2143L173.735 64.5208ZM178.626 79.3948L177.186 74.9393L182.646 73.0633C183.383 72.8176 183.975 72.3821 184.422 71.7568C184.868 71.1538 185.092 70.4614 185.092 69.6798V57.2848H189.916V69.1773C189.916 70.1376 189.771 71.0533 189.48 71.9243C189.19 72.8176 188.777 73.6328 188.241 74.3698C187.727 75.1068 187.102 75.7544 186.365 76.3128C185.628 76.8711 184.813 77.2954 183.919 77.5858L178.626 79.3948ZM198.321 70.5508C197.406 70.5508 196.557 70.3609 195.775 69.9813C194.994 69.5793 194.335 69.0544 193.799 68.4068C193.263 67.7368 192.872 66.9886 192.626 66.1623C192.403 65.3136 192.369 64.4426 192.526 63.5493L193.129 60.4673C193.263 59.7749 193.497 59.1384 193.832 58.5578C194.19 57.9771 194.625 57.4746 195.139 57.0503C195.652 56.6259 196.233 56.2909 196.881 56.0453C197.528 55.7996 198.21 55.6768 198.924 55.6768H200.767C201.615 55.6768 202.408 55.8443 203.145 56.1793C203.905 56.4919 204.563 56.9274 205.122 57.4858C205.68 58.0441 206.127 58.7029 206.462 59.4623C206.797 60.2216 206.964 61.0256 206.964 61.8743V64.8558H208.137C208.449 64.8558 208.606 65.0009 208.606 65.2913V70.0818C208.606 70.3944 208.449 70.5508 208.137 70.5508H206.931C206.774 72.2258 206.138 73.6774 205.021 74.9058C203.927 76.1564 202.576 77.0609 200.968 77.6193L195.675 79.4283L194.234 74.9728L199.527 73.1638C200.242 72.9181 200.845 72.5496 201.336 72.0583C201.828 71.5893 202.073 70.9639 202.073 70.1823V69.9478C201.761 70.1264 201.37 70.2716 200.901 70.3833C200.454 70.4949 200.007 70.5508 199.561 70.5508H198.321ZM197.651 64.8558H202.14L202.107 61.8408C202.107 61.6844 202.051 61.5504 201.939 61.4388C201.828 61.3271 201.694 61.2601 201.537 61.2378H198.388C198.12 61.2154 197.93 61.3718 197.819 61.7068L197.283 64.4203C197.238 64.5319 197.26 64.6324 197.35 64.7218C197.439 64.8111 197.54 64.8558 197.651 64.8558ZM227.765 64.8558C228.077 64.8558 228.345 64.7441 228.569 64.5208C228.792 64.2751 228.904 63.9959 228.904 63.6833V62.2428C228.904 61.9524 228.803 61.7179 228.602 61.5393C228.401 61.3383 228.155 61.2378 227.865 61.2378H224.214C223.253 61.2378 222.46 61.5839 221.835 62.2763L219.49 64.8558H227.765ZM215.47 60.9028C215.47 61.4164 215.526 61.7626 215.638 61.9413C215.749 62.0976 215.805 62.1869 215.805 62.2093L219.423 58.3233C220.205 57.4746 221.12 56.8269 222.17 56.3803C223.242 55.9113 224.348 55.6768 225.487 55.6768H227.53C228.379 55.6768 229.183 55.8443 229.942 56.1793C230.701 56.4919 231.36 56.9274 231.919 57.4858C232.477 58.0441 232.912 58.7029 233.225 59.4623C233.56 60.2216 233.728 61.0256 233.728 61.8743V63.9178C233.728 64.1634 233.817 64.3868 233.996 64.5878C234.197 64.7664 234.42 64.8558 234.666 64.8558H236.106C236.24 64.8558 236.352 64.9116 236.441 65.0233C236.553 65.1349 236.609 65.2578 236.609 65.3918V70.0818C236.609 70.1934 236.553 70.3051 236.441 70.4168C236.352 70.5061 236.24 70.5508 236.106 70.5508H235.436C234.632 70.5508 233.862 70.4279 233.125 70.1823C232.41 69.9143 231.762 69.5458 231.182 69.0768C230.556 69.5234 229.864 69.8808 229.105 70.1488C228.368 70.4168 227.586 70.5508 226.76 70.5508H218.385C217.983 70.5508 217.536 70.5173 217.045 70.4503C216.553 70.3833 216.051 70.2828 215.537 70.1488C215.046 70.0148 214.577 69.8361 214.13 69.6128C213.683 69.3894 213.315 69.1214 213.025 68.8088C212.444 69.4341 211.785 69.8808 211.048 70.1488C210.333 70.4168 209.585 70.5508 208.804 70.5508H208.134C208 70.5508 207.888 70.5061 207.799 70.4168C207.709 70.3051 207.665 70.1934 207.665 70.0818V65.3918C207.665 65.2578 207.72 65.1349 207.832 65.0233C207.944 64.9116 208.044 64.8558 208.134 64.8558H209.708C209.954 64.8558 210.166 64.7776 210.345 64.6213C210.546 64.4426 210.646 64.2193 210.646 63.9513V57.6868H215.47V60.9028ZM224.415 48.8763H228.77V53.3988H224.415V48.8763ZM235.636 65.3918C235.636 65.2578 235.692 65.1349 235.803 65.0233C235.893 64.9116 235.993 64.8558 236.105 64.8558H242.872C243.72 64.8558 244.569 64.7218 245.418 64.4538C246.266 64.1858 246.97 63.7168 247.528 63.0468L248.6 61.5058C248.712 61.3718 248.779 61.2713 248.801 61.2043C248.824 61.1819 248.846 61.1596 248.868 61.1373L242.47 59.2613C242.269 59.1943 242.135 59.2724 242.068 59.4958L240.795 63.1138L236.708 62.0418L237.679 58.6583C237.925 57.8543 238.293 57.1731 238.785 56.6148C239.276 56.0341 239.834 55.5986 240.46 55.3083C241.107 54.9956 241.777 54.8058 242.47 54.7388C243.184 54.6718 243.866 54.7388 244.513 54.9398L258.047 58.9933L256.774 63.4823L254.63 62.8458C254.184 62.7341 253.837 62.6894 253.592 62.7118C253.346 62.7341 253.1 62.9016 252.855 63.2143L249.404 67.5023C248.935 68.0606 248.399 68.5408 247.796 68.9428C247.193 69.3224 246.546 69.6351 245.853 69.8808C245.183 70.1041 244.469 70.2716 243.709 70.3833C242.972 70.4949 242.235 70.5508 241.498 70.5508H236.105C235.971 70.5508 235.859 70.5061 235.77 70.4168C235.68 70.3051 235.636 70.1934 235.636 70.0818V65.3918Z" fill="#FAE210"/>
</svg>
