<svg width="63" height="56" viewBox="0 0 63 56" fill="none" xmlns="http://www.w3.org/2000/svg">
<path d="M12.81 1H50.57C57.09 1 62.39 6.29 62.39 12.82V55.32H1V12.82C1 6.3 6.29001 1 12.82 1H12.81Z" fill="white" stroke="#19B5FF" stroke-width="0.52" stroke-miterlimit="10"/>
<path d="M50.8548 32.4805H12.5348C7.38482 32.4805 3.21484 36.6505 3.21484 41.8005C3.21484 46.9505 7.38482 51.1205 12.5348 51.1205H50.8548C56.0048 51.1205 60.1748 46.9505 60.1748 41.8005C60.1748 36.6505 56.0048 32.4805 50.8548 32.4805Z" fill="#696969"/>
<path d="M12.9748 49.811C17.3986 49.811 20.9848 46.2248 20.9848 41.801C20.9848 37.3772 17.3986 33.791 12.9748 33.791C8.55102 33.791 4.96484 37.3772 4.96484 41.801C4.96484 46.2248 8.55102 49.811 12.9748 49.811Z" fill="white"/>
<path d="M17.1149 42.6409C17.7349 42.2509 17.7349 41.3609 17.1149 40.9709L11.0549 37.1809C10.4049 36.7709 9.54492 37.2409 9.54492 38.0109V45.6009C9.54492 46.3709 10.3949 46.8409 11.0549 46.4309L17.1149 42.6409Z" fill="#696969"/>
<path d="M23.1748 42.4105V40.4405H23.9148V42.3105C23.9148 42.4105 23.9348 42.5105 23.9648 42.6005C24.0048 42.6905 24.0548 42.7705 24.1248 42.8405C24.1948 42.9105 24.2748 42.9605 24.3648 42.9905C24.4548 43.0305 24.5548 43.0505 24.6548 43.0505H25.8648C26.0348 43.0505 26.1748 42.9905 26.2948 42.8705C26.4148 42.7505 26.4748 42.6105 26.4748 42.4405V40.3305H27.2148V41.5405C27.2148 41.6305 27.2448 41.7105 27.3048 41.7705C27.3648 41.8305 27.4448 41.8605 27.5348 41.8605H27.9548C27.9548 41.8605 28.0048 41.8705 28.0248 41.8905C28.0448 41.9105 28.0548 41.9305 28.0548 41.9605V42.6405C28.0548 42.6405 28.0548 42.6805 28.0248 42.7105C28.0048 42.7305 27.9848 42.7405 27.9548 42.7405H27.6548C27.5048 42.7405 27.4048 42.7105 27.3348 42.6605C27.2748 42.6105 27.2248 42.5605 27.2048 42.5305V42.7005C27.2048 42.8705 27.1648 43.0305 27.0948 43.1805C27.0248 43.3305 26.9248 43.4605 26.7948 43.5705C26.6748 43.6805 26.5348 43.7705 26.3748 43.8305C26.2148 43.8905 26.0448 43.9205 25.8648 43.9205H24.6948C24.4848 43.9205 24.2948 43.8805 24.1048 43.8005C23.9248 43.7205 23.7548 43.6205 23.6248 43.4805C23.4948 43.3505 23.3848 43.1905 23.3048 43.0005C23.2248 42.8205 23.1948 42.6205 23.1948 42.4105H23.1748ZM24.8048 39.5605H25.5748V40.3305H24.8048V39.5605ZM29.5948 41.8605C29.6848 41.8605 29.7648 41.8305 29.8248 41.7705C29.8848 41.7005 29.9148 41.6205 29.9148 41.5305V40.1405H30.6548V41.5305C30.6548 41.7005 30.6248 41.8505 30.5648 42.0005C30.5048 42.1405 30.4148 42.2705 30.3048 42.3805C30.1948 42.4905 30.0648 42.5705 29.9248 42.6405C29.7848 42.7005 29.6248 42.7305 29.4648 42.7305H28.0548C28.0548 42.7305 28.0048 42.7305 27.9848 42.7005C27.9648 42.6805 27.9548 42.6605 27.9548 42.6305V41.9505C27.9548 41.9505 27.9548 41.9005 27.9848 41.8805C28.0048 41.8605 28.0248 41.8505 28.0548 41.8505H29.6048L29.5948 41.8605ZM28.1448 44.3205H28.9148V43.5505H28.1448V44.3205ZM29.2648 44.3205H30.0348V43.5505H29.2648V44.3205ZM35.3948 42.6405C35.3948 42.7005 35.3648 42.7305 35.3048 42.7305H35.0048C34.8248 42.7305 34.6648 42.7005 34.5248 42.6305C34.3748 42.5605 34.2448 42.4605 34.1448 42.3505C33.9548 42.5305 33.7248 42.6305 33.4648 42.6705L31.5448 42.9405L31.4448 42.1505L32.1748 42.0605L31.8448 38.5505L32.5948 38.4605L32.9048 41.9705L33.4048 41.9005C33.5248 41.8905 33.6248 41.8305 33.7048 41.7505C33.7848 41.6605 33.8248 41.5505 33.8248 41.4305V38.1405H34.5648V41.5505C34.5648 41.6405 34.5948 41.7205 34.6548 41.7805C34.7148 41.8405 34.7948 41.8705 34.8848 41.8705H35.3048C35.3648 41.8705 35.3948 41.9005 35.3948 41.9605V42.6505V42.6405ZM36.5348 41.8605C36.6248 41.8605 36.7048 41.8305 36.7648 41.7705C36.8248 41.7005 36.8548 41.6205 36.8548 41.5305V40.1405H37.5948V41.5305C37.5948 41.7005 37.5648 41.8505 37.5048 42.0005C37.4448 42.1405 37.3548 42.2705 37.2448 42.3805C37.1348 42.4905 37.0048 42.5705 36.8648 42.6405C36.7248 42.7005 36.5648 42.7305 36.4048 42.7305H35.4048C35.4048 42.7305 35.3548 42.7305 35.3348 42.7005C35.3148 42.6805 35.3048 42.6605 35.3048 42.6305V41.9505C35.3048 41.9505 35.3048 41.9005 35.3348 41.8805C35.3548 41.8605 35.3748 41.8505 35.4048 41.8505H36.5448L36.5348 41.8605ZM36.8248 39.5205H37.5948V38.7505H36.8248V39.5205ZM39.2148 42.7405H38.4748V38.6505H39.2148V42.7405ZM37.5648 38.4805V38.1205C37.5648 37.9105 37.6348 37.7605 37.7648 37.6505C37.8948 37.5405 38.0448 37.4805 38.2048 37.4805H39.5948V38.1205H38.2848C38.2848 38.1205 38.2048 38.1405 38.1748 38.1705C38.1548 38.2005 38.1448 38.2305 38.1448 38.2605V38.4805H37.5748H37.5648ZM48.1548 41.5405C48.1548 41.6305 48.1848 41.7105 48.2448 41.7705C48.3048 41.8305 48.3848 41.8605 48.4748 41.8605H48.7548C48.8148 41.8605 48.8448 41.8905 48.8448 41.9505V42.6405C48.8448 42.7005 48.8148 42.7305 48.7548 42.7305H48.5948C48.4348 42.7305 48.2848 42.7005 48.1448 42.6405C48.0048 42.5805 47.8848 42.4805 47.7748 42.3405C47.6648 42.4805 47.5348 42.5805 47.3848 42.6505C47.2348 42.7105 47.0748 42.7405 46.9248 42.7405C46.6048 42.7405 46.3548 42.6105 46.1748 42.3405C46.0748 42.4805 45.9548 42.5905 45.8348 42.6505C45.7148 42.7105 45.5748 42.7405 45.4248 42.7405C45.3448 42.7405 45.2648 42.7305 45.1648 42.7105C45.0748 42.6805 44.9948 42.6205 44.9348 42.5305V42.7105C44.9348 42.8805 44.8948 43.0405 44.8248 43.1805C44.7548 43.3305 44.6548 43.4605 44.5248 43.5605C44.3948 43.6705 44.2548 43.7605 44.0848 43.8205C43.9248 43.8805 43.7548 43.9105 43.5748 43.9105H42.4048C42.1948 43.9105 42.0048 43.8705 41.8148 43.7905C41.6348 43.7105 41.4648 43.6105 41.3348 43.4705C41.2048 43.3405 41.0948 43.1805 41.0148 42.9905C40.9348 42.8105 40.9048 42.6105 40.9048 42.4005V40.4305H41.6448V42.2905C41.6448 42.3905 41.6648 42.4905 41.6948 42.5805C41.7348 42.6705 41.7848 42.7505 41.8548 42.8205C41.9248 42.8905 42.0048 42.9405 42.0948 42.9705C42.1848 43.0105 42.2848 43.0305 42.3848 43.0305H43.5948C43.7648 43.0305 43.9048 42.9705 44.0248 42.8505C44.1448 42.7305 44.2048 42.5905 44.2048 42.4205V40.3105H44.9448V41.5405C44.9448 41.6305 44.9748 41.7005 45.0348 41.7605C45.1048 41.8205 45.1748 41.8505 45.2648 41.8505H45.4648C45.5548 41.8505 45.6348 41.8205 45.7048 41.7705C45.7748 41.7205 45.8148 41.6405 45.8348 41.5505L46.0748 40.3305L46.8048 40.4605L46.6048 41.4805C46.5848 41.5805 46.6048 41.6705 46.6648 41.7405C46.7348 41.8105 46.8148 41.8505 46.9048 41.8505H47.0848C47.1748 41.8505 47.2548 41.8205 47.3148 41.7605C47.3748 41.7005 47.4048 41.6205 47.4048 41.5305V40.1205H48.1448V41.5205L48.1548 41.5405ZM47.0148 39.7305H46.2448V38.9605H47.0148V39.7305ZM45.8848 39.7305H45.1148V38.9605H45.8848V39.7305ZM46.4448 38.7105H45.6748V37.9405H46.4448V38.7105ZM49.8848 38.4405H50.6548V39.2105H49.8848V38.4405ZM48.8548 42.7405C48.7948 42.7405 48.7648 42.7105 48.7648 42.6505V41.9705C48.7648 41.9705 48.7748 41.9305 48.7948 41.9005C48.8148 41.8805 48.8348 41.8705 48.8548 41.8705H50.0648C50.2548 41.8705 50.4348 41.8405 50.6248 41.7805C50.8048 41.7205 50.9648 41.6205 51.0948 41.4805L51.4848 41.0605L51.5448 41.0005L51.5748 40.9705L50.1648 40.5505C50.1648 40.5505 50.0748 40.5505 50.0448 40.5605C50.0148 40.5805 49.9848 40.6105 49.9748 40.6505L49.7148 41.3205L49.0648 41.1405L49.2448 40.5205C49.2848 40.3805 49.3448 40.2605 49.4348 40.1605C49.5248 40.0605 49.6148 39.9805 49.7348 39.9305C49.8448 39.8705 49.9648 39.8405 50.0948 39.8305C50.2248 39.8205 50.3448 39.8305 50.4548 39.8605L53.1348 40.6605L52.9148 41.3505L52.5948 41.2605C52.5148 41.2405 52.4548 41.2405 52.3948 41.2505C52.3448 41.2505 52.2948 41.2805 52.2548 41.3005V41.5305C52.2548 41.6205 52.2848 41.7005 52.3448 41.7605C52.4048 41.8205 52.4848 41.8505 52.5748 41.8505H53.4748C53.5348 41.8505 53.5648 41.8805 53.5648 41.9405V42.6305C53.5648 42.6905 53.5348 42.7205 53.4748 42.7205H52.7048C52.4348 42.7205 52.2048 42.6405 52.0148 42.4905C51.8348 42.3305 51.7048 42.1305 51.6348 41.8905L51.3648 42.1605C51.1748 42.3505 50.9448 42.4905 50.6948 42.5805C50.4348 42.6705 50.1748 42.7105 49.9048 42.7105H48.8648L48.8548 42.7405ZM53.7448 43.5405H54.5148V44.3105H53.7448V43.5405ZM54.8648 43.5405H55.6348V44.3105H54.8648V43.5405ZM54.2948 44.5705H55.0648V45.3405H54.2948V44.5705ZM55.1148 41.8605C55.2048 41.8605 55.2848 41.8305 55.3448 41.7705C55.4048 41.7005 55.4348 41.6205 55.4348 41.5305V40.1405H56.1748V41.5305C56.1748 41.7005 56.1448 41.8505 56.0848 42.0005C56.0248 42.1405 55.9348 42.2705 55.8248 42.3805C55.7148 42.4905 55.5848 42.5705 55.4448 42.6405C55.3048 42.7005 55.1448 42.7305 54.9848 42.7305H53.5748C53.5748 42.7305 53.5248 42.7305 53.5048 42.7005C53.4848 42.6805 53.4748 42.6605 53.4748 42.6305V41.9505C53.4748 41.9505 53.4748 41.9005 53.5048 41.8805C53.5248 41.8605 53.5448 41.8505 53.5748 41.8505H55.1248L55.1148 41.8605Z" fill="white"/>
<path d="M17.1505 14.2142C17.2679 14.2142 17.3772 14.1902 17.4785 14.1422C17.5852 14.0996 17.6785 14.0382 17.7585 13.9582C17.8385 13.8836 17.8999 13.7929 17.9425 13.6862C17.9905 13.5849 18.0145 13.4756 18.0145 13.3582V12.9902H16.5185V12.3342H19.4465C19.4732 12.3342 19.4972 12.3449 19.5185 12.3662C19.5452 12.3876 19.5585 12.4142 19.5585 12.4462V12.8702C19.5585 12.9022 19.5452 12.9316 19.5185 12.9582C19.4972 12.9796 19.4732 12.9902 19.4465 12.9902H18.5265C18.5479 13.0436 18.5585 13.1022 18.5585 13.1662V13.4462C18.5585 13.6436 18.5212 13.8276 18.4465 13.9982C18.3719 14.1742 18.2679 14.3262 18.1345 14.4542C18.0065 14.5822 17.8545 14.6836 17.6785 14.7582C17.5079 14.8329 17.3239 14.8702 17.1265 14.8702H15.7505C15.5319 14.8702 15.3239 14.8276 15.1265 14.7422C14.9345 14.6569 14.7665 14.5422 14.6225 14.3982C14.4785 14.2542 14.3639 14.0836 14.2785 13.8862C14.1932 13.6942 14.1505 13.4889 14.1505 13.2702V11.3502H14.7025V13.1742C14.7025 13.3182 14.7292 13.4516 14.7825 13.5742C14.8412 13.7022 14.9159 13.8142 15.0065 13.9102C15.1025 14.0062 15.2119 14.0809 15.3345 14.1342C15.4625 14.1876 15.5985 14.2142 15.7425 14.2142H17.1505ZM19.449 12.9902C19.3743 12.9902 19.337 12.9529 19.337 12.8782V12.4462C19.337 12.4196 19.3476 12.3956 19.369 12.3742C19.3903 12.3476 19.417 12.3342 19.449 12.3342H19.705C19.8596 12.3342 19.993 12.2862 20.105 12.1902C20.2223 12.0942 20.2943 11.9742 20.321 11.8302L20.489 11.0062C20.5103 10.8836 20.553 10.7689 20.617 10.6622C20.681 10.5556 20.7583 10.4649 20.849 10.3902C20.9396 10.3156 21.041 10.2569 21.153 10.2142C21.2703 10.1716 21.393 10.1502 21.521 10.1502H21.969C22.1236 10.1502 22.2676 10.1796 22.401 10.2382C22.5396 10.2969 22.6596 10.3769 22.761 10.4782C22.8623 10.5796 22.9423 10.6969 23.001 10.8302C23.0596 10.9636 23.089 11.1076 23.089 11.2622V11.7502C23.089 11.9156 23.145 12.0542 23.257 12.1662C23.369 12.2782 23.505 12.3342 23.665 12.3342H23.921C23.953 12.3342 23.9796 12.3476 24.001 12.3742C24.0223 12.3956 24.033 12.4196 24.033 12.4462V12.8782C24.033 12.9529 23.9956 12.9902 23.921 12.9902H23.769C23.609 12.9902 23.457 12.9582 23.313 12.8942C23.169 12.8302 23.0436 12.7289 22.937 12.5902C22.8943 12.7502 22.8223 12.8569 22.721 12.9102C22.6196 12.9636 22.4996 12.9902 22.361 12.9902H21.385C21.2143 12.9902 21.057 12.9502 20.913 12.8702C20.769 12.7849 20.6543 12.6489 20.569 12.4622C20.473 12.6489 20.345 12.7849 20.185 12.8702C20.025 12.9502 19.857 12.9902 19.681 12.9902H19.449ZM21.321 12.3342H22.537V11.2622C22.537 11.1236 22.4863 11.0062 22.385 10.9102C22.289 10.8089 22.169 10.7582 22.025 10.7582H21.505C21.3823 10.7582 21.2756 10.7982 21.185 10.8782C21.0943 10.9529 21.0356 11.0489 21.009 11.1662L20.889 11.8142C20.8623 11.9529 20.8916 12.0756 20.977 12.1822C21.0676 12.2836 21.1823 12.3342 21.321 12.3342ZM24.4297 9.61423H25.1097V8.93423H24.4297V9.61423ZM25.5257 9.61423H26.2057V8.93423H25.5257V9.61423ZM26.7977 12.8782C26.7977 12.9529 26.7604 12.9902 26.6857 12.9902H26.1897C26.0991 12.9902 26.0084 12.9769 25.9177 12.9502C25.8271 12.9236 25.7417 12.8862 25.6617 12.8382C25.5817 12.7902 25.5124 12.7342 25.4537 12.6702C25.3951 12.6062 25.3551 12.5369 25.3337 12.4622C25.2431 12.6169 25.1124 12.7449 24.9417 12.8462C24.7764 12.9422 24.6004 12.9902 24.4137 12.9902H23.9177C23.8431 12.9902 23.8057 12.9529 23.8057 12.8782V12.4542C23.8057 12.4222 23.8164 12.3956 23.8377 12.3742C23.8591 12.3476 23.8857 12.3342 23.9177 12.3342H24.4377C24.5924 12.3342 24.7257 12.2862 24.8377 12.1902C24.9551 12.0942 25.0297 11.9742 25.0617 11.8302L25.3097 10.5662L25.8537 10.6542L25.6457 11.7102C25.6297 11.7902 25.6324 11.8702 25.6537 11.9502C25.6751 12.0249 25.7124 12.0916 25.7657 12.1502C25.8191 12.2036 25.8831 12.2489 25.9577 12.2862C26.0324 12.3182 26.1124 12.3342 26.1977 12.3342H26.6857C26.7177 12.3342 26.7444 12.3476 26.7657 12.3742C26.7871 12.3956 26.7977 12.4222 26.7977 12.4542V12.8782ZM28.8033 12.9902C28.6113 12.9902 28.4327 12.9476 28.2673 12.8622C28.102 12.7716 27.966 12.6382 27.8593 12.4622C27.7527 12.6382 27.6167 12.7716 27.4513 12.8622C27.286 12.9476 27.1073 12.9902 26.9153 12.9902H26.6833C26.6087 12.9902 26.5713 12.9529 26.5713 12.8782V12.4462C26.5713 12.4142 26.5847 12.3876 26.6113 12.3662C26.6327 12.3449 26.6567 12.3342 26.6833 12.3342H27.0113C27.1713 12.3342 27.3073 12.2782 27.4193 12.1662C27.5313 12.0542 27.5873 11.9182 27.5873 11.7582V10.5102H28.1393V11.7662C28.1393 11.9262 28.1953 12.0622 28.3073 12.1742C28.4193 12.2809 28.5527 12.3342 28.7073 12.3342H28.8513C29.006 12.3342 29.142 12.2889 29.2593 12.1982C29.3767 12.1022 29.4487 11.9796 29.4753 11.8302L29.7313 10.5662L30.2673 10.6622L30.0593 11.7102C30.0273 11.8809 30.0673 12.0276 30.1793 12.1502C30.2967 12.2729 30.4407 12.3342 30.6113 12.3342H31.2993V10.2862H31.8513V12.2702C31.8513 12.4889 31.7847 12.6649 31.6514 12.7982C31.518 12.9262 31.3447 12.9902 31.1314 12.9902H30.6033C30.4273 12.9902 30.2593 12.9449 30.0993 12.8542C29.9393 12.7636 29.8193 12.6329 29.7393 12.4622C29.6327 12.6436 29.4967 12.7769 29.3313 12.8622C29.166 12.9476 28.99 12.9902 28.8033 12.9902ZM31.4768 14.9822L31.3008 14.4382L32.2768 14.1182C32.5008 14.0436 32.6822 13.9076 32.8208 13.7102C32.9648 13.5129 33.0368 13.2942 33.0368 13.0542V10.5182H33.5808V13.0062C33.5808 13.1929 33.5515 13.3716 33.4928 13.5422C33.4395 13.7182 33.3595 13.8782 33.2528 14.0222C33.1515 14.1716 33.0262 14.2996 32.8768 14.4062C32.7328 14.5182 32.5728 14.6062 32.3968 14.6702L31.4768 14.9822ZM35.8224 12.7902V10.6542H36.3744V12.7022C36.3744 12.8462 36.4011 12.9796 36.4544 13.1022C36.5077 13.2302 36.5797 13.3396 36.6704 13.4302C36.7664 13.5262 36.8784 13.6009 37.0064 13.6542C37.1344 13.7076 37.2704 13.7342 37.4144 13.7342H38.7984C38.9211 13.7342 39.0357 13.7102 39.1424 13.6622C39.2491 13.6196 39.3424 13.5582 39.4224 13.4782C39.5024 13.4036 39.5637 13.3129 39.6064 13.2062C39.6544 13.1049 39.6784 12.9929 39.6784 12.8702V10.5182H40.2304V11.7502C40.2304 11.9582 40.2944 12.1076 40.4224 12.1982C40.5504 12.2889 40.6971 12.3342 40.8624 12.3342H41.2864C41.3611 12.3342 41.3984 12.3716 41.3984 12.4462V12.8782C41.3984 12.9049 41.3877 12.9316 41.3664 12.9582C41.3451 12.9796 41.3184 12.9902 41.2864 12.9902H40.8944C40.7504 12.9902 40.6171 12.9609 40.4944 12.9022C40.3717 12.8382 40.2811 12.7609 40.2224 12.6702V13.0062C40.2224 13.1982 40.1851 13.3769 40.1104 13.5422C40.0357 13.7129 39.9317 13.8596 39.7984 13.9822C39.6704 14.1102 39.5184 14.2089 39.3424 14.2782C39.1717 14.3529 38.9904 14.3902 38.7984 14.3902H37.4224C37.1984 14.3902 36.9877 14.3476 36.7904 14.2622C36.5984 14.1822 36.4304 14.0702 36.2864 13.9262C36.1424 13.7822 36.0277 13.6116 35.9424 13.4142C35.8624 13.2222 35.8224 13.0142 35.8224 12.7902ZM37.6864 9.83023H38.3664V10.5102H37.6864V9.83023ZM41.7969 14.6302H42.4769V13.9502H41.7969V14.6302ZM42.8929 14.6302H43.5729V13.9502H42.8929V14.6302ZM44.1649 12.8782C44.1649 12.9529 44.1276 12.9902 44.0529 12.9902H43.5569C43.4662 12.9902 43.3756 12.9769 43.2849 12.9502C43.1942 12.9236 43.1089 12.8862 43.0289 12.8382C42.9489 12.7902 42.8796 12.7342 42.8209 12.6702C42.7622 12.6062 42.7222 12.5369 42.7009 12.4622C42.6102 12.6169 42.4796 12.7449 42.3089 12.8462C42.1436 12.9422 41.9676 12.9902 41.7809 12.9902H41.2849C41.2102 12.9902 41.1729 12.9529 41.1729 12.8782V12.4542C41.1729 12.4222 41.1836 12.3956 41.2049 12.3742C41.2262 12.3476 41.2529 12.3342 41.2849 12.3342H41.8049C41.9596 12.3342 42.0929 12.2862 42.2049 12.1902C42.3222 12.0942 42.3969 11.9742 42.4289 11.8302L42.6769 10.5662L43.2209 10.6542L43.0129 11.7102C42.9969 11.7902 42.9996 11.8702 43.0209 11.9502C43.0422 12.0249 43.0796 12.0916 43.1329 12.1502C43.1862 12.2036 43.2502 12.2489 43.3249 12.2862C43.3996 12.3182 43.4796 12.3342 43.5649 12.3342H44.0529C44.0849 12.3342 44.1116 12.3476 44.1329 12.3742C44.1542 12.3956 44.1649 12.4222 44.1649 12.4542V12.8782ZM45.9225 12.3342H47.1385V11.2622C47.1385 11.1236 47.0879 11.0062 46.9865 10.9102C46.8905 10.8089 46.7705 10.7582 46.6265 10.7582H46.1065C45.9839 10.7582 45.8772 10.7982 45.7865 10.8782C45.6959 10.9529 45.6372 11.0489 45.6105 11.1662L45.4905 11.8142C45.4639 11.9529 45.4932 12.0756 45.5785 12.1822C45.6692 12.2836 45.7839 12.3342 45.9225 12.3342ZM44.9225 11.8302L45.0905 11.0062C45.1119 10.8836 45.1545 10.7689 45.2185 10.6622C45.2825 10.5556 45.3599 10.4649 45.4505 10.3902C45.5412 10.3156 45.6425 10.2569 45.7545 10.2142C45.8719 10.1716 45.9945 10.1502 46.1225 10.1502H46.5705C46.7252 10.1502 46.8692 10.1796 47.0025 10.2382C47.1412 10.2969 47.2612 10.3769 47.3625 10.4782C47.4639 10.5796 47.5439 10.6969 47.6025 10.8302C47.6612 10.9636 47.6905 11.1076 47.6905 11.2622V12.2702C47.6905 12.4836 47.6239 12.6569 47.4905 12.7902C47.3625 12.9236 47.1865 12.9902 46.9625 12.9902H45.9865C45.8159 12.9902 45.6585 12.9502 45.5145 12.8702C45.3759 12.7849 45.2612 12.6489 45.1705 12.4622C45.0745 12.6489 44.9465 12.7849 44.7865 12.8702C44.6265 12.9502 44.4585 12.9902 44.2825 12.9902H44.0505C43.9759 12.9902 43.9385 12.9529 43.9385 12.8782V12.4462C43.9385 12.4196 43.9492 12.3956 43.9705 12.3742C43.9919 12.3476 44.0185 12.3342 44.0505 12.3342H44.3065C44.4612 12.3342 44.5945 12.2862 44.7065 12.1902C44.8239 12.0942 44.8959 11.9742 44.9225 11.8302ZM49.3197 12.9902H48.7677V7.71823H49.3197V12.9902ZM13.4344 19.8702C13.4344 19.8702 13.4477 19.9262 13.4744 20.0382C13.5064 20.1502 13.5384 20.2916 13.5704 20.4622C13.6077 20.6329 13.6424 20.8196 13.6744 21.0222C13.7064 21.2249 13.7277 21.4169 13.7384 21.5982C13.7437 21.6569 13.7677 21.6996 13.8104 21.7262C13.8531 21.7529 13.9011 21.7662 13.9544 21.7662H14.7784V19.9422H16.0664V21.9502C16.0664 22.1049 16.0317 22.2542 15.9624 22.3982C15.8984 22.5422 15.8104 22.6702 15.6984 22.7822C15.5917 22.8889 15.4664 22.9742 15.3224 23.0382C15.1837 23.1022 15.0371 23.1342 14.8824 23.1342H14.2024C14.1117 23.1342 14.0184 23.1156 13.9224 23.0782C13.8317 23.0409 13.7811 23.0089 13.7704 22.9822V25.9822H12.4824V22.3262C12.4824 22.0916 12.4691 21.8596 12.4424 21.6302C12.4157 21.3956 12.3811 21.1636 12.3384 20.9342L12.1704 20.0942L13.4344 19.8702ZM17.9657 19.8702C17.9657 19.8702 17.979 19.9262 18.0057 20.0382C18.0377 20.1502 18.0697 20.2916 18.1017 20.4622C18.139 20.6329 18.1737 20.8196 18.2057 21.0222C18.2377 21.2249 18.259 21.4169 18.2697 21.5982C18.275 21.6569 18.299 21.6996 18.3417 21.7262C18.3843 21.7529 18.4323 21.7662 18.4857 21.7662H19.3097V19.9422H20.5977V21.9502C20.5977 22.1049 20.563 22.2542 20.4937 22.3982C20.4297 22.5422 20.3417 22.6702 20.2297 22.7822C20.123 22.8889 19.9977 22.9742 19.8537 23.0382C19.715 23.1022 19.5683 23.1342 19.4137 23.1342H18.7337C18.643 23.1342 18.5497 23.1156 18.4537 23.0782C18.363 23.0409 18.3123 23.0089 18.3017 22.9822V25.9822H17.0137V22.3262C17.0137 22.0916 17.0003 21.8596 16.9737 21.6302C16.947 21.3956 16.9123 21.1636 16.8697 20.9342L16.7017 20.0942L17.9657 19.8702ZM22.8409 25.9982C22.7929 25.5129 22.7182 25.0302 22.6169 24.5502C22.5156 24.0649 22.3876 23.5929 22.2329 23.1342C22.0836 22.6756 21.9049 22.2302 21.6969 21.7982C21.4889 21.3662 21.2489 20.9556 20.9769 20.5662L22.0009 19.7182C22.0276 19.7502 22.0809 19.8356 22.1609 19.9742C22.2409 20.1129 22.3316 20.2862 22.4329 20.4942C22.5396 20.7022 22.6489 20.9369 22.7609 21.1982C22.8782 21.4596 22.9849 21.7316 23.0809 22.0142C23.1769 22.2969 23.2569 22.5849 23.3209 22.8782C23.3849 23.1662 23.4169 23.4436 23.4169 23.7102C23.4169 23.4542 23.4489 23.1849 23.5129 22.9022C23.5769 22.6196 23.6569 22.3369 23.7529 22.0542C23.8489 21.7716 23.9529 21.4996 24.0649 21.2382C24.1822 20.9769 24.2942 20.7396 24.4009 20.5262C24.5076 20.3129 24.6009 20.1369 24.6809 19.9982C24.7609 19.8542 24.8116 19.7609 24.8329 19.7182L25.8569 20.5662C25.5902 20.9556 25.3476 21.3689 25.1289 21.8062C24.9156 22.2436 24.7316 22.6942 24.5769 23.1582C24.4222 23.6222 24.2942 24.0942 24.1929 24.5742C24.0969 25.0542 24.0302 25.5289 23.9929 25.9982H22.8409ZM28.3705 19.1742L29.1065 20.1182L27.9625 21.0862C27.9359 21.1022 27.9172 21.1342 27.9065 21.1822C27.8959 21.2249 27.9172 21.2676 27.9705 21.3102L28.8665 21.9822C29.1012 21.6942 29.3599 21.4116 29.6425 21.1342L30.2905 20.5102L31.2105 21.2942L30.6105 21.8862C30.4399 22.0516 30.2799 22.2329 30.1305 22.4302C29.9865 22.6222 29.8479 22.8142 29.7145 23.0062L27.6265 26.0062L26.5225 25.3342L28.2345 22.9182C28.2239 22.9289 28.1732 22.9316 28.0825 22.9262C27.9972 22.9209 27.8985 22.8729 27.7865 22.7822L27.1545 22.2942C26.9625 22.1502 26.8239 21.9796 26.7385 21.7822C26.6585 21.5849 26.6239 21.3849 26.6345 21.1822C26.6452 20.9742 26.6985 20.7769 26.7945 20.5902C26.8905 20.3982 27.0212 20.2356 27.1865 20.1022L28.3705 19.1742ZM34.5163 19.7182C34.5537 20.1876 34.6203 20.6622 34.7163 21.1422C34.8177 21.6169 34.9457 22.0862 35.1003 22.5502C35.255 23.0142 35.439 23.4676 35.6523 23.9102C35.871 24.3476 36.1137 24.7609 36.3803 25.1502L35.3563 25.9982C35.335 25.9556 35.2843 25.8649 35.2043 25.7262C35.1243 25.5822 35.031 25.4036 34.9243 25.1902C34.8177 24.9769 34.7057 24.7396 34.5883 24.4782C34.4763 24.2169 34.3723 23.9449 34.2763 23.6622C34.1803 23.3796 34.1003 23.0969 34.0363 22.8142C33.9723 22.5262 33.9403 22.2569 33.9403 22.0062C33.9403 22.2729 33.9083 22.5529 33.8443 22.8462C33.7803 23.1342 33.7003 23.4196 33.6043 23.7022C33.5083 23.9849 33.4017 24.2569 33.2843 24.5182C33.1723 24.7796 33.063 25.0142 32.9563 25.2222C32.855 25.4302 32.7643 25.6036 32.6843 25.7422C32.6043 25.8809 32.551 25.9662 32.5243 25.9982L31.5003 25.1502C31.7723 24.7609 32.0123 24.3502 32.2203 23.9182C32.4283 23.4862 32.607 23.0409 32.7563 22.5822C32.911 22.1236 33.039 21.6542 33.1403 21.1742C33.2417 20.6889 33.3163 20.2036 33.3643 19.7182H34.5163ZM37.7426 22.2702H38.9426V23.4942H37.7426V22.2702ZM37.7426 24.7662H38.9426V25.9902H37.7426V24.7662ZM43.9444 24.6302H44.1684C44.1951 24.6302 44.2191 24.6436 44.2404 24.6702C44.2671 24.6969 44.2804 24.7262 44.2804 24.7582V25.8782C44.2804 25.9049 44.2697 25.9316 44.2484 25.9582C44.2271 25.9796 44.2004 25.9902 44.1684 25.9902H44.0484C43.8297 25.9902 43.6377 25.9476 43.4724 25.8622C43.3124 25.7769 43.1764 25.6809 43.0644 25.5742C42.9151 25.7289 42.7524 25.8382 42.5764 25.9022C42.4004 25.9609 42.2164 25.9902 42.0244 25.9902H41.0164C40.8511 25.9902 40.6937 25.9582 40.5444 25.8942C40.3951 25.8302 40.2644 25.7449 40.1524 25.6382C40.0404 25.5262 39.9524 25.3956 39.8884 25.2462C39.8244 25.0969 39.7924 24.9396 39.7924 24.7742V23.5742H40.7524V24.5022C40.7524 24.5876 40.7977 24.6302 40.8884 24.6302H42.0404C42.1524 24.6302 42.2511 24.5956 42.3364 24.5262C42.4217 24.4516 42.4484 24.3529 42.4164 24.2302L41.7364 21.7902L42.8324 21.3902L43.6884 24.4382C43.7044 24.4969 43.7364 24.5449 43.7844 24.5822C43.8324 24.6142 43.8857 24.6302 43.9444 24.6302ZM45.2877 23.7022L44.4637 22.9102L47.0157 19.9102L47.8477 20.6782L46.3597 22.4382H49.3117C49.5144 22.4382 49.7037 22.4782 49.8797 22.5582C50.0611 22.6329 50.2184 22.7369 50.3517 22.8702C50.4851 23.0036 50.5891 23.1609 50.6637 23.3422C50.7437 23.5182 50.7837 23.7102 50.7837 23.9182V24.5102C50.7837 24.7236 50.7411 24.9209 50.6557 25.1022C50.5704 25.2836 50.4557 25.4409 50.3117 25.5742C50.1731 25.7076 50.0131 25.8116 49.8317 25.8862C49.6504 25.9556 49.4611 25.9902 49.2637 25.9902H44.1677C44.1411 25.9902 44.1171 25.9796 44.0957 25.9582C44.0691 25.9316 44.0557 25.9049 44.0557 25.8782V24.7422C44.0557 24.7156 44.0664 24.6916 44.0877 24.6702C44.1091 24.6436 44.1357 24.6302 44.1677 24.6302H49.4877C49.5144 24.6302 49.5437 24.6196 49.5757 24.5982C49.6131 24.5769 49.6317 24.5396 49.6317 24.4862V23.8862C49.6317 23.8329 49.6131 23.7902 49.5757 23.7582C49.5384 23.7209 49.4957 23.7022 49.4477 23.7022H45.2877Z" fill="black"/>
</svg>
