<svg width="62" height="56" viewBox="0 0 62 56" fill="none" xmlns="http://www.w3.org/2000/svg">
<path d="M12.1039 1H49.8639C56.3839 1 61.6839 6.29 61.6839 12.82V55.32H0.293945V12.82C0.293945 6.3 5.58394 1 12.1139 1H12.1039Z" fill="#19B5FF" stroke="white" stroke-width="0.52" stroke-miterlimit="10"/>
<path d="M50.1439 32.6406H11.8239C6.67391 32.6406 2.50391 36.8106 2.50391 41.9606C2.50391 47.1106 6.67391 51.2806 11.8239 51.2806H50.1439C55.2939 51.2806 59.4639 47.1106 59.4639 41.9606C59.4639 36.8106 55.2939 32.6406 50.1439 32.6406Z" fill="#222222"/>
<path d="M12.2541 49.9712C16.6779 49.9712 20.2641 46.385 20.2641 41.9612C20.2641 37.5374 16.6779 33.9512 12.2541 33.9512C7.83033 33.9512 4.24414 37.5374 4.24414 41.9612C4.24414 46.385 7.83033 49.9712 12.2541 49.9712Z" fill="white"/>
<path d="M22.4639 42.5706V40.6006H23.2039V42.4706C23.2039 42.5706 23.2239 42.6706 23.2539 42.7606C23.2939 42.8506 23.3439 42.9306 23.4139 43.0006C23.4839 43.0706 23.5639 43.1206 23.6539 43.1506C23.7439 43.1906 23.8439 43.2106 23.9439 43.2106H25.1539C25.3239 43.2106 25.4639 43.1506 25.5839 43.0306C25.7039 42.9106 25.7639 42.7706 25.7639 42.6006V40.4906H26.5039V41.7006C26.5039 41.7906 26.5339 41.8706 26.5939 41.9306C26.6539 41.9906 26.7339 42.0206 26.8239 42.0206H27.2439C27.2439 42.0206 27.2939 42.0306 27.3139 42.0506C27.3339 42.0706 27.3439 42.0906 27.3439 42.1206V42.8006C27.3439 42.8006 27.3439 42.8406 27.3139 42.8706C27.2939 42.8906 27.2739 42.9006 27.2439 42.9006H26.9439C26.7939 42.9006 26.6939 42.8706 26.6239 42.8206C26.5639 42.7706 26.5139 42.7206 26.4939 42.6906V42.8606C26.4939 43.0306 26.4539 43.1906 26.3839 43.3406C26.3139 43.4906 26.2139 43.6206 26.0839 43.7306C25.9639 43.8406 25.8239 43.9306 25.6639 43.9906C25.5039 44.0506 25.3339 44.0806 25.1539 44.0806H23.9839C23.7739 44.0806 23.5839 44.0406 23.3939 43.9606C23.2139 43.8806 23.0439 43.7806 22.9139 43.6406C22.7839 43.5106 22.6739 43.3506 22.5939 43.1606C22.5139 42.9806 22.4839 42.7806 22.4839 42.5706H22.4639ZM24.0939 39.7206H24.8639V40.4906H24.0939V39.7206ZM28.8839 42.0206C28.9739 42.0206 29.0539 41.9906 29.1139 41.9306C29.1739 41.8606 29.2039 41.7806 29.2039 41.6906V40.3006H29.9439V41.6906C29.9439 41.8606 29.9139 42.0106 29.8539 42.1606C29.7939 42.3006 29.7039 42.4306 29.5939 42.5406C29.4839 42.6506 29.3539 42.7306 29.2139 42.8006C29.0739 42.8606 28.9139 42.8906 28.7539 42.8906H27.3439C27.3439 42.8906 27.2939 42.8906 27.2739 42.8606C27.2539 42.8406 27.2439 42.8206 27.2439 42.7906V42.1106C27.2439 42.1106 27.2439 42.0606 27.2739 42.0406C27.2939 42.0206 27.3139 42.0106 27.3439 42.0106H28.8939L28.8839 42.0206ZM27.4339 44.4806H28.2039V43.7106H27.4339V44.4806ZM28.5539 44.4806H29.3239V43.7106H28.5539V44.4806ZM34.6739 42.8006C34.6739 42.8606 34.6439 42.8906 34.5839 42.8906H34.2839C34.1039 42.8906 33.9439 42.8606 33.8039 42.7906C33.6539 42.7206 33.5239 42.6206 33.4239 42.5106C33.2339 42.6906 33.0039 42.7906 32.7439 42.8306L30.8239 43.1006L30.7239 42.3106L31.4539 42.2206L31.1239 38.7106L31.8739 38.6206L32.1839 42.1306L32.6839 42.0606C32.8039 42.0506 32.9039 41.9906 32.9839 41.9106C33.0639 41.8206 33.1039 41.7106 33.1039 41.5906V38.3006H33.8439V41.7106C33.8439 41.8006 33.8739 41.8806 33.9339 41.9406C33.9939 42.0006 34.0739 42.0306 34.1639 42.0306H34.5839C34.6439 42.0306 34.6739 42.0606 34.6739 42.1206V42.8106V42.8006ZM35.8239 42.0206C35.9139 42.0206 35.9939 41.9906 36.0539 41.9306C36.1139 41.8606 36.1439 41.7806 36.1439 41.6906V40.3006H36.8839V41.6906C36.8839 41.8606 36.8539 42.0106 36.7939 42.1606C36.7339 42.3006 36.6439 42.4306 36.5339 42.5406C36.4239 42.6506 36.2939 42.7306 36.1539 42.8006C36.0139 42.8606 35.8539 42.8906 35.6939 42.8906H34.6939C34.6939 42.8906 34.6439 42.8906 34.6239 42.8606C34.6039 42.8406 34.5939 42.8206 34.5939 42.7906V42.1106C34.5939 42.1106 34.5939 42.0606 34.6239 42.0406C34.6439 42.0206 34.6639 42.0106 34.6939 42.0106H35.8339L35.8239 42.0206ZM36.1139 39.6806H36.8839V38.9106H36.1139V39.6806ZM38.5039 42.9006H37.7639V38.8106H38.5039V42.9006ZM36.8539 38.6406V38.2806C36.8539 38.0706 36.9239 37.9206 37.0539 37.8106C37.1839 37.7006 37.3339 37.6406 37.4939 37.6406H38.8839V38.2806H37.5739C37.5739 38.2806 37.4939 38.3006 37.4639 38.3306C37.4439 38.3606 37.4339 38.3906 37.4339 38.4206V38.6406H36.8639H36.8539ZM47.4438 41.7006C47.4438 41.7906 47.4739 41.8706 47.5339 41.9306C47.5939 41.9906 47.6739 42.0206 47.7639 42.0206H48.0439C48.1039 42.0206 48.1339 42.0506 48.1339 42.1106V42.8006C48.1339 42.8606 48.1039 42.8906 48.0439 42.8906H47.8839C47.7239 42.8906 47.5739 42.8606 47.4339 42.8006C47.2939 42.7406 47.1739 42.6406 47.0639 42.5006C46.9539 42.6406 46.8239 42.7406 46.6739 42.8106C46.5239 42.8706 46.3639 42.9006 46.2139 42.9006C45.8939 42.9006 45.6439 42.7706 45.4639 42.5006C45.3639 42.6406 45.2439 42.7506 45.1239 42.8106C45.0039 42.8706 44.8639 42.9006 44.7139 42.9006C44.6339 42.9006 44.5539 42.8906 44.4539 42.8706C44.3639 42.8406 44.2839 42.7806 44.2239 42.6906V42.8706C44.2239 43.0406 44.1839 43.2006 44.1139 43.3406C44.0439 43.4906 43.9439 43.6206 43.8139 43.7206C43.6839 43.8306 43.5439 43.9206 43.3739 43.9806C43.2139 44.0406 43.0439 44.0706 42.8639 44.0706H41.6938C41.4838 44.0706 41.2939 44.0306 41.1039 43.9506C40.9239 43.8706 40.7539 43.7706 40.6239 43.6306C40.4939 43.5006 40.3839 43.3406 40.3039 43.1506C40.2239 42.9706 40.1939 42.7706 40.1939 42.5606V40.5906H40.9339V42.4506C40.9339 42.5506 40.9539 42.6506 40.9839 42.7406C41.0239 42.8306 41.0739 42.9106 41.1439 42.9806C41.2139 43.0506 41.2938 43.1006 41.3839 43.1306C41.4739 43.1706 41.5739 43.1906 41.6739 43.1906H42.8839C43.0539 43.1906 43.1939 43.1306 43.3139 43.0106C43.4339 42.8906 43.4939 42.7506 43.4939 42.5806V40.4706H44.2339V41.7006C44.2339 41.7906 44.2639 41.8606 44.3239 41.9206C44.3939 41.9806 44.4639 42.0106 44.5539 42.0106H44.7539C44.8439 42.0106 44.9239 41.9806 44.9939 41.9306C45.0639 41.8806 45.1039 41.8006 45.1239 41.7106L45.3639 40.4906L46.0939 40.6206L45.8939 41.6406C45.8739 41.7406 45.8939 41.8306 45.9539 41.9006C46.0239 41.9706 46.1038 42.0106 46.1938 42.0106H46.3739C46.4639 42.0106 46.5439 41.9806 46.6039 41.9206C46.6639 41.8606 46.6938 41.7806 46.6938 41.6906V40.2806H47.4339V41.6806L47.4438 41.7006ZM46.3039 39.8906H45.5339V39.1206H46.3039V39.8906ZM45.1739 39.8906H44.4039V39.1206H45.1739V39.8906ZM45.7239 38.8706H44.9539V38.1006H45.7239V38.8706ZM49.1739 38.6006H49.9438V39.3706H49.1739V38.6006ZM48.1439 42.9006C48.0839 42.9006 48.0539 42.8706 48.0539 42.8106V42.1306C48.0539 42.1306 48.0639 42.0906 48.0839 42.0606C48.1039 42.0406 48.1239 42.0306 48.1439 42.0306H49.3539C49.5439 42.0306 49.7238 42.0006 49.9138 41.9406C50.0938 41.8806 50.2539 41.7806 50.3839 41.6406L50.7739 41.2206L50.8339 41.1606L50.8639 41.1306L49.4539 40.7106C49.4539 40.7106 49.3639 40.7106 49.3339 40.7206C49.3039 40.7406 49.2739 40.7706 49.2639 40.8106L49.0039 41.4806L48.3539 41.3006L48.5339 40.6806C48.5739 40.5406 48.6339 40.4206 48.7239 40.3206C48.8139 40.2206 48.9039 40.1406 49.0239 40.0906C49.1339 40.0306 49.2539 40.0006 49.3839 39.9906C49.5138 39.9806 49.6339 39.9906 49.7439 40.0206L52.4239 40.8206L52.2039 41.5106L51.8839 41.4206C51.8039 41.4006 51.7439 41.4006 51.6839 41.4106C51.6339 41.4106 51.5839 41.4406 51.5439 41.4606V41.6906C51.5439 41.7806 51.5739 41.8606 51.6339 41.9206C51.6938 41.9806 51.7739 42.0106 51.8639 42.0106H52.7639C52.8239 42.0106 52.8539 42.0406 52.8539 42.1006V42.7906C52.8539 42.8506 52.8239 42.8806 52.7639 42.8806H51.9939C51.7239 42.8806 51.4939 42.8006 51.3039 42.6506C51.1239 42.4906 50.9939 42.2906 50.9239 42.0506L50.6539 42.3206C50.4639 42.5106 50.2339 42.6506 49.9839 42.7406C49.7239 42.8306 49.4638 42.8706 49.1938 42.8706H48.1539L48.1439 42.9006ZM53.0239 43.7006H53.7939V44.4706H53.0239V43.7006ZM54.1539 43.7006H54.9239V44.4706H54.1539V43.7006ZM53.5839 44.7306H54.3539V45.5006H53.5839V44.7306ZM54.4039 42.0206C54.4939 42.0206 54.5738 41.9906 54.6339 41.9306C54.6939 41.8606 54.7239 41.7806 54.7239 41.6906V40.3006H55.4639V41.6906C55.4639 41.8606 55.4339 42.0106 55.3739 42.1606C55.3139 42.3006 55.2239 42.4306 55.1139 42.5406C55.0039 42.6506 54.8739 42.7306 54.7339 42.8006C54.5939 42.8606 54.4339 42.8906 54.2739 42.8906H52.8639C52.8639 42.8906 52.8139 42.8906 52.7939 42.8606C52.7739 42.8406 52.7639 42.8206 52.7639 42.7906V42.1106C52.7639 42.1106 52.7639 42.0606 52.7939 42.0406C52.8139 42.0206 52.8339 42.0106 52.8639 42.0106H54.4138L54.4039 42.0206Z" fill="white"/>
<path d="M10.1337 37.1797C10.7237 37.1797 11.1937 37.6597 11.1937 38.2397V45.6697C11.1937 46.2597 10.7137 46.7297 10.1337 46.7297C9.54373 46.7297 9.07373 46.2497 9.07373 45.6697V38.2397C9.07373 37.6497 9.55373 37.1797 10.1337 37.1797Z" fill="#222222"/>
<path d="M14.3837 37.1797C14.9737 37.1797 15.4437 37.6597 15.4437 38.2397V45.6697C15.4437 46.2597 14.9637 46.7297 14.3837 46.7297C13.7937 46.7297 13.3237 46.2497 13.3237 45.6697V38.2397C13.3237 37.6497 13.8037 37.1797 14.3837 37.1797Z" fill="#222222"/>
<path d="M16.4445 14.2142C16.5618 14.2142 16.6711 14.1902 16.7725 14.1422C16.8791 14.0996 16.9725 14.0382 17.0525 13.9582C17.1325 13.8836 17.1938 13.7929 17.2365 13.6862C17.2845 13.5849 17.3085 13.4756 17.3085 13.3582V12.9902H15.8125V12.3342H18.7405C18.7671 12.3342 18.7911 12.3449 18.8125 12.3662C18.8391 12.3876 18.8525 12.4142 18.8525 12.4462V12.8702C18.8525 12.9022 18.8391 12.9316 18.8125 12.9582C18.7911 12.9796 18.7671 12.9902 18.7405 12.9902H17.8205C17.8418 13.0436 17.8525 13.1022 17.8525 13.1662V13.4462C17.8525 13.6436 17.8151 13.8276 17.7405 13.9982C17.6658 14.1742 17.5618 14.3262 17.4285 14.4542C17.3005 14.5822 17.1485 14.6836 16.9725 14.7582C16.8018 14.8329 16.6178 14.8702 16.4205 14.8702H15.0445C14.8258 14.8702 14.6178 14.8276 14.4205 14.7422C14.2285 14.6569 14.0605 14.5422 13.9165 14.3982C13.7725 14.2542 13.6578 14.0836 13.5725 13.8862C13.4871 13.6942 13.4445 13.4889 13.4445 13.2702V11.3502H13.9965V13.1742C13.9965 13.3182 14.0231 13.4516 14.0765 13.5742C14.1351 13.7022 14.2098 13.8142 14.3005 13.9102C14.3965 14.0062 14.5058 14.0809 14.6285 14.1342C14.7565 14.1876 14.8925 14.2142 15.0365 14.2142H16.4445ZM18.7429 12.9902C18.6683 12.9902 18.6309 12.9529 18.6309 12.8782V12.4462C18.6309 12.4196 18.6416 12.3956 18.6629 12.3742C18.6843 12.3476 18.7109 12.3342 18.7429 12.3342H18.9989C19.1536 12.3342 19.2869 12.2862 19.3989 12.1902C19.5163 12.0942 19.5883 11.9742 19.6149 11.8302L19.7829 11.0062C19.8043 10.8836 19.8469 10.7689 19.9109 10.6622C19.9749 10.5556 20.0523 10.4649 20.1429 10.3902C20.2336 10.3156 20.3349 10.2569 20.4469 10.2142C20.5643 10.1716 20.6869 10.1502 20.8149 10.1502H21.2629C21.4176 10.1502 21.5616 10.1796 21.6949 10.2382C21.8336 10.2969 21.9536 10.3769 22.0549 10.4782C22.1563 10.5796 22.2363 10.6969 22.2949 10.8302C22.3536 10.9636 22.3829 11.1076 22.3829 11.2622V11.7502C22.3829 11.9156 22.4389 12.0542 22.5509 12.1662C22.6629 12.2782 22.7989 12.3342 22.9589 12.3342H23.2149C23.2469 12.3342 23.2736 12.3476 23.2949 12.3742C23.3163 12.3956 23.3269 12.4196 23.3269 12.4462V12.8782C23.3269 12.9529 23.2896 12.9902 23.2149 12.9902H23.0629C22.9029 12.9902 22.7509 12.9582 22.6069 12.8942C22.4629 12.8302 22.3376 12.7289 22.2309 12.5902C22.1883 12.7502 22.1163 12.8569 22.0149 12.9102C21.9136 12.9636 21.7936 12.9902 21.6549 12.9902H20.6789C20.5083 12.9902 20.3509 12.9502 20.2069 12.8702C20.0629 12.7849 19.9483 12.6489 19.8629 12.4622C19.7669 12.6489 19.6389 12.7849 19.4789 12.8702C19.3189 12.9502 19.1509 12.9902 18.9749 12.9902H18.7429ZM20.6149 12.3342H21.8309V11.2622C21.8309 11.1236 21.7803 11.0062 21.6789 10.9102C21.5829 10.8089 21.4629 10.7582 21.3189 10.7582H20.7989C20.6763 10.7582 20.5696 10.7982 20.4789 10.8782C20.3883 10.9529 20.3296 11.0489 20.3029 11.1662L20.1829 11.8142C20.1563 11.9529 20.1856 12.0756 20.2709 12.1822C20.3616 12.2836 20.4763 12.3342 20.6149 12.3342ZM23.7237 9.61423H24.4037V8.93423H23.7237V9.61423ZM24.8197 9.61423H25.4997V8.93423H24.8197V9.61423ZM26.0917 12.8782C26.0917 12.9529 26.0543 12.9902 25.9797 12.9902H25.4837C25.393 12.9902 25.3023 12.9769 25.2117 12.9502C25.121 12.9236 25.0357 12.8862 24.9557 12.8382C24.8757 12.7902 24.8063 12.7342 24.7477 12.6702C24.689 12.6062 24.649 12.5369 24.6277 12.4622C24.537 12.6169 24.4063 12.7449 24.2357 12.8462C24.0703 12.9422 23.8943 12.9902 23.7077 12.9902H23.2117C23.137 12.9902 23.0997 12.9529 23.0997 12.8782V12.4542C23.0997 12.4222 23.1103 12.3956 23.1317 12.3742C23.153 12.3476 23.1797 12.3342 23.2117 12.3342H23.7317C23.8863 12.3342 24.0197 12.2862 24.1317 12.1902C24.249 12.0942 24.3237 11.9742 24.3557 11.8302L24.6037 10.5662L25.1477 10.6542L24.9397 11.7102C24.9237 11.7902 24.9263 11.8702 24.9477 11.9502C24.969 12.0249 25.0063 12.0916 25.0597 12.1502C25.113 12.2036 25.177 12.2489 25.2517 12.2862C25.3263 12.3182 25.4063 12.3342 25.4917 12.3342H25.9797C26.0117 12.3342 26.0383 12.3476 26.0597 12.3742C26.081 12.3956 26.0917 12.4222 26.0917 12.4542V12.8782ZM28.0973 12.9902C27.9053 12.9902 27.7266 12.9476 27.5613 12.8622C27.396 12.7716 27.26 12.6382 27.1533 12.4622C27.0466 12.6382 26.9106 12.7716 26.7453 12.8622C26.58 12.9476 26.4013 12.9902 26.2093 12.9902H25.9773C25.9026 12.9902 25.8653 12.9529 25.8653 12.8782V12.4462C25.8653 12.4142 25.8786 12.3876 25.9053 12.3662C25.9266 12.3449 25.9506 12.3342 25.9773 12.3342H26.3053C26.4653 12.3342 26.6013 12.2782 26.7133 12.1662C26.8253 12.0542 26.8813 11.9182 26.8813 11.7582V10.5102H27.4333V11.7662C27.4333 11.9262 27.4893 12.0622 27.6013 12.1742C27.7133 12.2809 27.8466 12.3342 28.0013 12.3342H28.1453C28.3 12.3342 28.436 12.2889 28.5533 12.1982C28.6706 12.1022 28.7426 11.9796 28.7693 11.8302L29.0253 10.5662L29.5613 10.6622L29.3533 11.7102C29.3213 11.8809 29.3613 12.0276 29.4733 12.1502C29.5906 12.2729 29.7346 12.3342 29.9053 12.3342H30.5933V10.2862H31.1453V12.2702C31.1453 12.4889 31.0786 12.6649 30.9453 12.7982C30.812 12.9262 30.6386 12.9902 30.4253 12.9902H29.8973C29.7213 12.9902 29.5533 12.9449 29.3933 12.8542C29.2333 12.7636 29.1133 12.6329 29.0333 12.4622C28.9266 12.6436 28.7906 12.7769 28.6253 12.8622C28.46 12.9476 28.284 12.9902 28.0973 12.9902ZM30.7708 14.9822L30.5948 14.4382L31.5708 14.1182C31.7948 14.0436 31.9761 13.9076 32.1148 13.7102C32.2588 13.5129 32.3308 13.2942 32.3308 13.0542V10.5182H32.8748V13.0062C32.8748 13.1929 32.8455 13.3716 32.7868 13.5422C32.7335 13.7182 32.6535 13.8782 32.5468 14.0222C32.4455 14.1716 32.3201 14.2996 32.1708 14.4062C32.0268 14.5182 31.8668 14.6062 31.6908 14.6702L30.7708 14.9822ZM35.1164 12.7902V10.6542H35.6684V12.7022C35.6684 12.8462 35.695 12.9796 35.7484 13.1022C35.8017 13.2302 35.8737 13.3396 35.9644 13.4302C36.0604 13.5262 36.1724 13.6009 36.3004 13.6542C36.4284 13.7076 36.5644 13.7342 36.7084 13.7342H38.0924C38.215 13.7342 38.3297 13.7102 38.4364 13.6622C38.543 13.6196 38.6364 13.5582 38.7164 13.4782C38.7964 13.4036 38.8577 13.3129 38.9004 13.2062C38.9484 13.1049 38.9724 12.9929 38.9724 12.8702V10.5182H39.5244V11.7502C39.5244 11.9582 39.5884 12.1076 39.7164 12.1982C39.8444 12.2889 39.991 12.3342 40.1564 12.3342H40.5804C40.655 12.3342 40.6924 12.3716 40.6924 12.4462V12.8782C40.6924 12.9049 40.6817 12.9316 40.6604 12.9582C40.639 12.9796 40.6124 12.9902 40.5804 12.9902H40.1884C40.0444 12.9902 39.911 12.9609 39.7884 12.9022C39.6657 12.8382 39.575 12.7609 39.5164 12.6702V13.0062C39.5164 13.1982 39.479 13.3769 39.4044 13.5422C39.3297 13.7129 39.2257 13.8596 39.0924 13.9822C38.9644 14.1102 38.8124 14.2089 38.6364 14.2782C38.4657 14.3529 38.2844 14.3902 38.0924 14.3902H36.7164C36.4924 14.3902 36.2817 14.3476 36.0844 14.2622C35.8924 14.1822 35.7244 14.0702 35.5804 13.9262C35.4364 13.7822 35.3217 13.6116 35.2364 13.4142C35.1564 13.2222 35.1164 13.0142 35.1164 12.7902ZM36.9804 9.83023H37.6604V10.5102H36.9804V9.83023ZM41.0909 14.6302H41.7709V13.9502H41.0909V14.6302ZM42.1869 14.6302H42.8669V13.9502H42.1869V14.6302ZM43.4589 12.8782C43.4589 12.9529 43.4215 12.9902 43.3469 12.9902H42.8509C42.7602 12.9902 42.6695 12.9769 42.5789 12.9502C42.4882 12.9236 42.4029 12.8862 42.3229 12.8382C42.2429 12.7902 42.1735 12.7342 42.1149 12.6702C42.0562 12.6062 42.0162 12.5369 41.9949 12.4622C41.9042 12.6169 41.7735 12.7449 41.6029 12.8462C41.4375 12.9422 41.2615 12.9902 41.0749 12.9902H40.5789C40.5042 12.9902 40.4669 12.9529 40.4669 12.8782V12.4542C40.4669 12.4222 40.4775 12.3956 40.4989 12.3742C40.5202 12.3476 40.5469 12.3342 40.5789 12.3342H41.0989C41.2535 12.3342 41.3869 12.2862 41.4989 12.1902C41.6162 12.0942 41.6909 11.9742 41.7229 11.8302L41.9709 10.5662L42.5149 10.6542L42.3069 11.7102C42.2909 11.7902 42.2935 11.8702 42.3149 11.9502C42.3362 12.0249 42.3735 12.0916 42.4269 12.1502C42.4802 12.2036 42.5442 12.2489 42.6189 12.2862C42.6935 12.3182 42.7735 12.3342 42.8589 12.3342H43.3469C43.3789 12.3342 43.4055 12.3476 43.4269 12.3742C43.4482 12.3956 43.4589 12.4222 43.4589 12.4542V12.8782ZM45.2165 12.3342H46.4325V11.2622C46.4325 11.1236 46.3818 11.0062 46.2805 10.9102C46.1845 10.8089 46.0645 10.7582 45.9205 10.7582H45.4005C45.2778 10.7582 45.1711 10.7982 45.0805 10.8782C44.9898 10.9529 44.9311 11.0489 44.9045 11.1662L44.7845 11.8142C44.7578 11.9529 44.7871 12.0756 44.8725 12.1822C44.9631 12.2836 45.0778 12.3342 45.2165 12.3342ZM44.2165 11.8302L44.3845 11.0062C44.4058 10.8836 44.4485 10.7689 44.5125 10.6622C44.5765 10.5556 44.6538 10.4649 44.7445 10.3902C44.8351 10.3156 44.9365 10.2569 45.0485 10.2142C45.1658 10.1716 45.2885 10.1502 45.4165 10.1502H45.8645C46.0191 10.1502 46.1631 10.1796 46.2965 10.2382C46.4351 10.2969 46.5551 10.3769 46.6565 10.4782C46.7578 10.5796 46.8378 10.6969 46.8965 10.8302C46.9551 10.9636 46.9845 11.1076 46.9845 11.2622V12.2702C46.9845 12.4836 46.9178 12.6569 46.7845 12.7902C46.6565 12.9236 46.4805 12.9902 46.2565 12.9902H45.2805C45.1098 12.9902 44.9525 12.9502 44.8085 12.8702C44.6698 12.7849 44.5551 12.6489 44.4645 12.4622C44.3685 12.6489 44.2405 12.7849 44.0805 12.8702C43.9205 12.9502 43.7525 12.9902 43.5765 12.9902H43.3445C43.2698 12.9902 43.2325 12.9529 43.2325 12.8782V12.4462C43.2325 12.4196 43.2431 12.3956 43.2645 12.3742C43.2858 12.3476 43.3125 12.3342 43.3445 12.3342H43.6005C43.7551 12.3342 43.8885 12.2862 44.0005 12.1902C44.1178 12.0942 44.1898 11.9742 44.2165 11.8302ZM48.6137 12.9902H48.0617V7.71823H48.6137V12.9902ZM12.7284 19.8702C12.7284 19.8702 12.7417 19.9262 12.7684 20.0382C12.8004 20.1502 12.8324 20.2916 12.8644 20.4622C12.9017 20.6329 12.9364 20.8196 12.9684 21.0222C13.0004 21.2249 13.0217 21.4169 13.0324 21.5982C13.0377 21.6569 13.0617 21.6996 13.1044 21.7262C13.147 21.7529 13.195 21.7662 13.2484 21.7662H14.0724V19.9422H15.3604V21.9502C15.3604 22.1049 15.3257 22.2542 15.2564 22.3982C15.1924 22.5422 15.1044 22.6702 14.9924 22.7822C14.8857 22.8889 14.7604 22.9742 14.6164 23.0382C14.4777 23.1022 14.331 23.1342 14.1764 23.1342H13.4964C13.4057 23.1342 13.3124 23.1156 13.2164 23.0782C13.1257 23.0409 13.075 23.0089 13.0644 22.9822V25.9822H11.7764V22.3262C11.7764 22.0916 11.763 21.8596 11.7364 21.6302C11.7097 21.3956 11.675 21.1636 11.6324 20.9342L11.4644 20.0942L12.7284 19.8702ZM17.2596 19.8702C17.2596 19.8702 17.2729 19.9262 17.2996 20.0382C17.3316 20.1502 17.3636 20.2916 17.3956 20.4622C17.4329 20.6329 17.4676 20.8196 17.4996 21.0222C17.5316 21.2249 17.5529 21.4169 17.5636 21.5982C17.5689 21.6569 17.5929 21.6996 17.6356 21.7262C17.6783 21.7529 17.7263 21.7662 17.7796 21.7662H18.6036V19.9422H19.8916V21.9502C19.8916 22.1049 19.8569 22.2542 19.7876 22.3982C19.7236 22.5422 19.6356 22.6702 19.5236 22.7822C19.4169 22.8889 19.2916 22.9742 19.1476 23.0382C19.0089 23.1022 18.8623 23.1342 18.7076 23.1342H18.0276C17.9369 23.1342 17.8436 23.1156 17.7476 23.0782C17.6569 23.0409 17.6063 23.0089 17.5956 22.9822V25.9822H16.3076V22.3262C16.3076 22.0916 16.2943 21.8596 16.2676 21.6302C16.2409 21.3956 16.2063 21.1636 16.1636 20.9342L15.9956 20.0942L17.2596 19.8702ZM22.1349 25.9982C22.0869 25.5129 22.0122 25.0302 21.9109 24.5502C21.8095 24.0649 21.6815 23.5929 21.5269 23.1342C21.3775 22.6756 21.1989 22.2302 20.9909 21.7982C20.7829 21.3662 20.5429 20.9556 20.2709 20.5662L21.2949 19.7182C21.3215 19.7502 21.3749 19.8356 21.4549 19.9742C21.5349 20.1129 21.6255 20.2862 21.7269 20.4942C21.8335 20.7022 21.9429 20.9369 22.0549 21.1982C22.1722 21.4596 22.2789 21.7316 22.3749 22.0142C22.4709 22.2969 22.5509 22.5849 22.6149 22.8782C22.6789 23.1662 22.7109 23.4436 22.7109 23.7102C22.7109 23.4542 22.7429 23.1849 22.8069 22.9022C22.8709 22.6196 22.9509 22.3369 23.0469 22.0542C23.1429 21.7716 23.2469 21.4996 23.3589 21.2382C23.4762 20.9769 23.5882 20.7396 23.6949 20.5262C23.8015 20.3129 23.8949 20.1369 23.9749 19.9982C24.0549 19.8542 24.1055 19.7609 24.1269 19.7182L25.1509 20.5662C24.8842 20.9556 24.6415 21.3689 24.4229 21.8062C24.2095 22.2436 24.0255 22.6942 23.8709 23.1582C23.7162 23.6222 23.5882 24.0942 23.4869 24.5742C23.3909 25.0542 23.3242 25.5289 23.2869 25.9982H22.1349ZM27.6645 19.1742L28.4005 20.1182L27.2565 21.0862C27.2298 21.1022 27.2111 21.1342 27.2005 21.1822C27.1898 21.2249 27.2111 21.2676 27.2645 21.3102L28.1605 21.9822C28.3951 21.6942 28.6538 21.4116 28.9365 21.1342L29.5845 20.5102L30.5045 21.2942L29.9045 21.8862C29.7338 22.0516 29.5738 22.2329 29.4245 22.4302C29.2805 22.6222 29.1418 22.8142 29.0085 23.0062L26.9205 26.0062L25.8165 25.3342L27.5285 22.9182C27.5178 22.9289 27.4671 22.9316 27.3765 22.9262C27.2911 22.9209 27.1925 22.8729 27.0805 22.7822L26.4485 22.2942C26.2565 22.1502 26.1178 21.9796 26.0325 21.7822C25.9525 21.5849 25.9178 21.3849 25.9285 21.1822C25.9391 20.9742 25.9925 20.7769 26.0885 20.5902C26.1845 20.3982 26.3151 20.2356 26.4805 20.1022L27.6645 19.1742ZM33.8103 19.7182C33.8476 20.1876 33.9143 20.6622 34.0103 21.1422C34.1116 21.6169 34.2396 22.0862 34.3943 22.5502C34.549 23.0142 34.733 23.4676 34.9463 23.9102C35.165 24.3476 35.4076 24.7609 35.6743 25.1502L34.6503 25.9982C34.629 25.9556 34.5783 25.8649 34.4983 25.7262C34.4183 25.5822 34.325 25.4036 34.2183 25.1902C34.1116 24.9769 33.9996 24.7396 33.8823 24.4782C33.7703 24.2169 33.6663 23.9449 33.5703 23.6622C33.4743 23.3796 33.3943 23.0969 33.3303 22.8142C33.2663 22.5262 33.2343 22.2569 33.2343 22.0062C33.2343 22.2729 33.2023 22.5529 33.1383 22.8462C33.0743 23.1342 32.9943 23.4196 32.8983 23.7022C32.8023 23.9849 32.6956 24.2569 32.5783 24.5182C32.4663 24.7796 32.357 25.0142 32.2503 25.2222C32.149 25.4302 32.0583 25.6036 31.9783 25.7422C31.8983 25.8809 31.845 25.9662 31.8183 25.9982L30.7943 25.1502C31.0663 24.7609 31.3063 24.3502 31.5143 23.9182C31.7223 23.4862 31.901 23.0409 32.0503 22.5822C32.205 22.1236 32.333 21.6542 32.4343 21.1742C32.5356 20.6889 32.6103 20.2036 32.6583 19.7182H33.8103ZM37.0365 22.2702H38.2365V23.4942H37.0365V22.2702ZM37.0365 24.7662H38.2365V25.9902H37.0365V24.7662ZM43.2384 24.6302H43.4624C43.489 24.6302 43.513 24.6436 43.5344 24.6702C43.561 24.6969 43.5744 24.7262 43.5744 24.7582V25.8782C43.5744 25.9049 43.5637 25.9316 43.5424 25.9582C43.521 25.9796 43.4944 25.9902 43.4624 25.9902H43.3424C43.1237 25.9902 42.9317 25.9476 42.7664 25.8622C42.6064 25.7769 42.4704 25.6809 42.3584 25.5742C42.209 25.7289 42.0464 25.8382 41.8704 25.9022C41.6944 25.9609 41.5104 25.9902 41.3184 25.9902H40.3104C40.145 25.9902 39.9877 25.9582 39.8384 25.8942C39.689 25.8302 39.5584 25.7449 39.4464 25.6382C39.3344 25.5262 39.2464 25.3956 39.1824 25.2462C39.1184 25.0969 39.0864 24.9396 39.0864 24.7742V23.5742H40.0464V24.5022C40.0464 24.5876 40.0917 24.6302 40.1824 24.6302H41.3344C41.4464 24.6302 41.545 24.5956 41.6304 24.5262C41.7157 24.4516 41.7424 24.3529 41.7104 24.2302L41.0304 21.7902L42.1264 21.3902L42.9824 24.4382C42.9984 24.4969 43.0304 24.5449 43.0784 24.5822C43.1264 24.6142 43.1797 24.6302 43.2384 24.6302ZM44.5817 23.7022L43.7577 22.9102L46.3097 19.9102L47.1417 20.6782L45.6537 22.4382H48.6057C48.8083 22.4382 48.9977 22.4782 49.1737 22.5582C49.355 22.6329 49.5123 22.7369 49.6457 22.8702C49.779 23.0036 49.883 23.1609 49.9577 23.3422C50.0377 23.5182 50.0777 23.7102 50.0777 23.9182V24.5102C50.0777 24.7236 50.035 24.9209 49.9497 25.1022C49.8643 25.2836 49.7497 25.4409 49.6057 25.5742C49.467 25.7076 49.307 25.8116 49.1257 25.8862C48.9443 25.9556 48.755 25.9902 48.5577 25.9902H43.4617C43.435 25.9902 43.411 25.9796 43.3897 25.9582C43.363 25.9316 43.3497 25.9049 43.3497 25.8782V24.7422C43.3497 24.7156 43.3603 24.6916 43.3817 24.6702C43.403 24.6436 43.4297 24.6302 43.4617 24.6302H48.7817C48.8083 24.6302 48.8377 24.6196 48.8697 24.5982C48.907 24.5769 48.9257 24.5396 48.9257 24.4862V23.8862C48.9257 23.8329 48.907 23.7902 48.8697 23.7582C48.8323 23.7209 48.7897 23.7022 48.7417 23.7022H44.5817Z" fill="black"/>
</svg>
