<svg width="62" height="56" viewBox="0 0 62 56" fill="none" xmlns="http://www.w3.org/2000/svg">
<path d="M12.0849 1H49.8449C56.3649 1 61.6649 6.29 61.6649 12.82V55.32H0.274902V12.82C0.274902 6.3 5.56491 1 12.0949 1H12.0849Z" fill="white" stroke="#19B5FF" stroke-width="0.52" stroke-miterlimit="10"/>
<path d="M50.1297 32.4805H11.8097C6.65972 32.4805 2.48975 36.6505 2.48975 41.8005C2.48975 46.9505 6.65972 51.1205 11.8097 51.1205H50.1297C55.2797 51.1205 59.4497 46.9505 59.4497 41.8005C59.4497 36.6505 55.2797 32.4805 50.1297 32.4805Z" fill="#696969"/>
<path d="M12.2497 49.811C16.6735 49.811 20.2597 46.2248 20.2597 41.801C20.2597 37.3772 16.6735 33.791 12.2497 33.791C7.82592 33.791 4.23975 37.3772 4.23975 41.801C4.23975 46.2248 7.82592 49.811 12.2497 49.811Z" fill="white"/>
<path d="M16.3898 42.6409C17.0098 42.2509 17.0098 41.3609 16.3898 40.9709L10.3298 37.1809C9.67983 36.7709 8.81982 37.2409 8.81982 38.0109V45.6009C8.81982 46.3709 9.66983 46.8409 10.3298 46.4309L16.3898 42.6409Z" fill="#696969"/>
<path d="M22.4497 42.4105V40.4405H23.1897V42.3105C23.1897 42.4105 23.2097 42.5105 23.2397 42.6005C23.2797 42.6905 23.3297 42.7705 23.3997 42.8405C23.4697 42.9105 23.5497 42.9605 23.6397 42.9905C23.7297 43.0305 23.8297 43.0505 23.9297 43.0505H25.1397C25.3097 43.0505 25.4497 42.9905 25.5697 42.8705C25.6897 42.7505 25.7497 42.6105 25.7497 42.4405V40.3305H26.4897V41.5405C26.4897 41.6305 26.5197 41.7105 26.5797 41.7705C26.6397 41.8305 26.7197 41.8605 26.8097 41.8605H27.2297C27.2297 41.8605 27.2797 41.8705 27.2997 41.8905C27.3197 41.9105 27.3297 41.9305 27.3297 41.9605V42.6405C27.3297 42.6405 27.3297 42.6805 27.2997 42.7105C27.2797 42.7305 27.2597 42.7405 27.2297 42.7405H26.9297C26.7797 42.7405 26.6797 42.7105 26.6097 42.6605C26.5497 42.6105 26.4997 42.5605 26.4797 42.5305V42.7005C26.4797 42.8705 26.4397 43.0305 26.3697 43.1805C26.2997 43.3305 26.1997 43.4605 26.0697 43.5705C25.9497 43.6805 25.8097 43.7705 25.6497 43.8305C25.4897 43.8905 25.3197 43.9205 25.1397 43.9205H23.9697C23.7597 43.9205 23.5697 43.8805 23.3797 43.8005C23.1997 43.7205 23.0297 43.6205 22.8997 43.4805C22.7697 43.3505 22.6597 43.1905 22.5797 43.0005C22.4997 42.8205 22.4697 42.6205 22.4697 42.4105H22.4497ZM24.0797 39.5605H24.8497V40.3305H24.0797V39.5605ZM28.8697 41.8605C28.9597 41.8605 29.0397 41.8305 29.0997 41.7705C29.1597 41.7005 29.1897 41.6205 29.1897 41.5305V40.1405H29.9297V41.5305C29.9297 41.7005 29.8997 41.8505 29.8397 42.0005C29.7797 42.1405 29.6897 42.2705 29.5797 42.3805C29.4697 42.4905 29.3397 42.5705 29.1997 42.6405C29.0597 42.7005 28.8997 42.7305 28.7397 42.7305H27.3297C27.3297 42.7305 27.2797 42.7305 27.2597 42.7005C27.2397 42.6805 27.2297 42.6605 27.2297 42.6305V41.9505C27.2297 41.9505 27.2297 41.9005 27.2597 41.8805C27.2797 41.8605 27.2997 41.8505 27.3297 41.8505H28.8797L28.8697 41.8605ZM27.4197 44.3205H28.1897V43.5505H27.4197V44.3205ZM28.5397 44.3205H29.3097V43.5505H28.5397V44.3205ZM34.6697 42.6405C34.6697 42.7005 34.6397 42.7305 34.5797 42.7305H34.2797C34.0997 42.7305 33.9397 42.7005 33.7997 42.6305C33.6497 42.5605 33.5197 42.4605 33.4197 42.3505C33.2297 42.5305 32.9997 42.6305 32.7397 42.6705L30.8197 42.9405L30.7197 42.1505L31.4497 42.0605L31.1197 38.5505L31.8697 38.4605L32.1797 41.9705L32.6797 41.9005C32.7997 41.8905 32.8997 41.8305 32.9797 41.7505C33.0597 41.6605 33.0997 41.5505 33.0997 41.4305V38.1405H33.8397V41.5505C33.8397 41.6405 33.8697 41.7205 33.9297 41.7805C33.9897 41.8405 34.0697 41.8705 34.1597 41.8705H34.5797C34.6397 41.8705 34.6697 41.9005 34.6697 41.9605V42.6505V42.6405ZM35.8097 41.8605C35.8997 41.8605 35.9797 41.8305 36.0397 41.7705C36.0997 41.7005 36.1297 41.6205 36.1297 41.5305V40.1405H36.8697V41.5305C36.8697 41.7005 36.8397 41.8505 36.7797 42.0005C36.7197 42.1405 36.6297 42.2705 36.5197 42.3805C36.4097 42.4905 36.2797 42.5705 36.1397 42.6405C35.9997 42.7005 35.8397 42.7305 35.6797 42.7305H34.6797C34.6797 42.7305 34.6297 42.7305 34.6097 42.7005C34.5897 42.6805 34.5797 42.6605 34.5797 42.6305V41.9505C34.5797 41.9505 34.5797 41.9005 34.6097 41.8805C34.6297 41.8605 34.6497 41.8505 34.6797 41.8505H35.8197L35.8097 41.8605ZM36.0997 39.5205H36.8697V38.7505H36.0997V39.5205ZM38.4897 42.7405H37.7497V38.6505H38.4897V42.7405ZM36.8397 38.4805V38.1205C36.8397 37.9105 36.9097 37.7605 37.0397 37.6505C37.1697 37.5405 37.3197 37.4805 37.4797 37.4805H38.8697V38.1205H37.5597C37.5597 38.1205 37.4797 38.1405 37.4497 38.1705C37.4297 38.2005 37.4197 38.2305 37.4197 38.2605V38.4805H36.8497H36.8397ZM47.4297 41.5405C47.4297 41.6305 47.4597 41.7105 47.5197 41.7705C47.5797 41.8305 47.6597 41.8605 47.7497 41.8605H48.0297C48.0897 41.8605 48.1197 41.8905 48.1197 41.9505V42.6405C48.1197 42.7005 48.0897 42.7305 48.0297 42.7305H47.8697C47.7097 42.7305 47.5597 42.7005 47.4197 42.6405C47.2797 42.5805 47.1597 42.4805 47.0497 42.3405C46.9397 42.4805 46.8097 42.5805 46.6597 42.6505C46.5097 42.7105 46.3497 42.7405 46.1997 42.7405C45.8797 42.7405 45.6297 42.6105 45.4497 42.3405C45.3497 42.4805 45.2297 42.5905 45.1097 42.6505C44.9897 42.7105 44.8497 42.7405 44.6997 42.7405C44.6197 42.7405 44.5397 42.7305 44.4397 42.7105C44.3497 42.6805 44.2697 42.6205 44.2097 42.5305V42.7105C44.2097 42.8805 44.1697 43.0405 44.0997 43.1805C44.0297 43.3305 43.9297 43.4605 43.7997 43.5605C43.6697 43.6705 43.5297 43.7605 43.3597 43.8205C43.1997 43.8805 43.0297 43.9105 42.8497 43.9105H41.6797C41.4697 43.9105 41.2797 43.8705 41.0897 43.7905C40.9097 43.7105 40.7397 43.6105 40.6097 43.4705C40.4797 43.3405 40.3697 43.1805 40.2897 42.9905C40.2097 42.8105 40.1797 42.6105 40.1797 42.4005V40.4305H40.9197V42.2905C40.9197 42.3905 40.9397 42.4905 40.9697 42.5805C41.0097 42.6705 41.0597 42.7505 41.1297 42.8205C41.1997 42.8905 41.2797 42.9405 41.3697 42.9705C41.4597 43.0105 41.5597 43.0305 41.6597 43.0305H42.8697C43.0397 43.0305 43.1797 42.9705 43.2997 42.8505C43.4197 42.7305 43.4797 42.5905 43.4797 42.4205V40.3105H44.2197V41.5405C44.2197 41.6305 44.2497 41.7005 44.3097 41.7605C44.3797 41.8205 44.4497 41.8505 44.5397 41.8505H44.7397C44.8297 41.8505 44.9097 41.8205 44.9797 41.7705C45.0497 41.7205 45.0897 41.6405 45.1097 41.5505L45.3497 40.3305L46.0797 40.4605L45.8797 41.4805C45.8597 41.5805 45.8797 41.6705 45.9397 41.7405C46.0097 41.8105 46.0897 41.8505 46.1797 41.8505H46.3597C46.4497 41.8505 46.5297 41.8205 46.5897 41.7605C46.6497 41.7005 46.6797 41.6205 46.6797 41.5305V40.1205H47.4197V41.5205L47.4297 41.5405ZM46.2897 39.7305H45.5197V38.9605H46.2897V39.7305ZM45.1597 39.7305H44.3897V38.9605H45.1597V39.7305ZM45.7197 38.7105H44.9497V37.9405H45.7197V38.7105ZM49.1597 38.4405H49.9297V39.2105H49.1597V38.4405ZM48.1297 42.7405C48.0697 42.7405 48.0397 42.7105 48.0397 42.6505V41.9705C48.0397 41.9705 48.0497 41.9305 48.0697 41.9005C48.0897 41.8805 48.1097 41.8705 48.1297 41.8705H49.3397C49.5297 41.8705 49.7097 41.8405 49.8997 41.7805C50.0797 41.7205 50.2397 41.6205 50.3697 41.4805L50.7597 41.0605L50.8197 41.0005L50.8497 40.9705L49.4397 40.5505C49.4397 40.5505 49.3497 40.5505 49.3197 40.5605C49.2897 40.5805 49.2597 40.6105 49.2497 40.6505L48.9897 41.3205L48.3397 41.1405L48.5197 40.5205C48.5597 40.3805 48.6197 40.2605 48.7097 40.1605C48.7997 40.0605 48.8897 39.9805 49.0097 39.9305C49.1197 39.8705 49.2397 39.8405 49.3697 39.8305C49.4997 39.8205 49.6197 39.8305 49.7297 39.8605L52.4097 40.6605L52.1897 41.3505L51.8697 41.2605C51.7897 41.2405 51.7297 41.2405 51.6697 41.2505C51.6197 41.2505 51.5697 41.2805 51.5297 41.3005V41.5305C51.5297 41.6205 51.5597 41.7005 51.6197 41.7605C51.6797 41.8205 51.7597 41.8505 51.8497 41.8505H52.7497C52.8097 41.8505 52.8397 41.8805 52.8397 41.9405V42.6305C52.8397 42.6905 52.8097 42.7205 52.7497 42.7205H51.9797C51.7097 42.7205 51.4797 42.6405 51.2897 42.4905C51.1097 42.3305 50.9797 42.1305 50.9097 41.8905L50.6397 42.1605C50.4497 42.3505 50.2197 42.4905 49.9697 42.5805C49.7097 42.6705 49.4497 42.7105 49.1797 42.7105H48.1397L48.1297 42.7405ZM53.0197 43.5405H53.7897V44.3105H53.0197V43.5405ZM54.1397 43.5405H54.9097V44.3105H54.1397V43.5405ZM53.5697 44.5705H54.3397V45.3405H53.5697V44.5705ZM54.3897 41.8605C54.4797 41.8605 54.5597 41.8305 54.6197 41.7705C54.6797 41.7005 54.7097 41.6205 54.7097 41.5305V40.1405H55.4497V41.5305C55.4497 41.7005 55.4197 41.8505 55.3597 42.0005C55.2997 42.1405 55.2097 42.2705 55.0997 42.3805C54.9897 42.4905 54.8597 42.5705 54.7197 42.6405C54.5797 42.7005 54.4197 42.7305 54.2597 42.7305H52.8497C52.8497 42.7305 52.7997 42.7305 52.7797 42.7005C52.7597 42.6805 52.7497 42.6605 52.7497 42.6305V41.9505C52.7497 41.9505 52.7497 41.9005 52.7797 41.8805C52.7997 41.8605 52.8197 41.8505 52.8497 41.8505H54.3997L54.3897 41.8605Z" fill="white"/>
<path d="M14.1794 10.8967C14.2541 10.8967 14.2914 10.9341 14.2914 11.0087V11.4327C14.2914 11.4647 14.2807 11.4941 14.2594 11.5207C14.2381 11.5421 14.2114 11.5527 14.1794 11.5527H13.9714C13.7207 11.5527 13.5047 11.4941 13.3234 11.3767C13.1474 11.2541 12.9741 11.0674 12.8034 10.8167L12.0994 9.71273C12.0247 9.59007 11.9181 9.4994 11.7794 9.44073C11.6461 9.37673 11.5101 9.3554 11.3714 9.37673L10.7394 9.44873C10.6381 9.4594 10.5421 9.4914 10.4514 9.54473C10.3661 9.59807 10.2914 9.66473 10.2274 9.74473C10.1634 9.8194 10.1127 9.90473 10.0754 10.0007C10.0434 10.0967 10.0274 10.1981 10.0274 10.3047V10.5447L11.4274 10.8487C11.5927 10.8914 11.7261 10.9767 11.8274 11.1047C11.9287 11.2274 11.9794 11.3741 11.9794 11.5447V11.8327C11.9794 12.0301 11.9421 12.2141 11.8674 12.3847C11.7981 12.5607 11.6994 12.7127 11.5714 12.8407C11.4487 12.9741 11.3021 13.0781 11.1314 13.1527C10.9661 13.2274 10.7847 13.2647 10.5874 13.2647H9.09941C8.88075 13.2647 8.67275 13.2221 8.47541 13.1367C8.28341 13.0567 8.11541 12.9447 7.97141 12.8007C7.82741 12.6567 7.71275 12.4861 7.62741 12.2887C7.54208 12.0967 7.49941 11.8887 7.49941 11.6647V9.75273H8.05141V11.5767C8.05141 11.7207 8.07808 11.8567 8.13141 11.9847C8.18475 12.1127 8.25675 12.2221 8.34741 12.3127C8.44341 12.4034 8.55541 12.4754 8.68341 12.5287C8.81141 12.5821 8.94741 12.6087 9.09141 12.6087H10.5714C10.6941 12.6087 10.8061 12.5847 10.9074 12.5367C11.0141 12.4941 11.1047 12.4354 11.1794 12.3607C11.2541 12.2861 11.3127 12.1954 11.3554 12.0887C11.4034 11.9874 11.4274 11.8754 11.4274 11.7527V11.4327L9.50741 10.9767V10.3047C9.50741 10.1127 9.54208 9.93407 9.61141 9.76873C9.68075 9.6034 9.77408 9.4594 9.89141 9.33673C10.0087 9.20873 10.1447 9.10473 10.2994 9.02473C10.4541 8.9394 10.6167 8.88607 10.7874 8.86473L11.3634 8.80073C11.5821 8.76873 11.7927 8.80073 11.9954 8.89673C12.2034 8.99273 12.3687 9.1314 12.4914 9.31273C12.5341 9.3714 12.5954 9.46473 12.6754 9.59273C12.7554 9.72073 12.8407 9.8514 12.9314 9.98473C13.0274 10.1394 13.1341 10.3047 13.2514 10.4807C13.3314 10.6034 13.4327 10.7047 13.5554 10.7847C13.6781 10.8594 13.8194 10.8967 13.9794 10.8967H14.1794ZM12.7234 12.5207H13.3954V13.1927H12.7234V12.5207ZM16.3007 11.5527C16.1087 11.5527 15.93 11.5101 15.7647 11.4247C15.5993 11.3341 15.4633 11.2007 15.3567 11.0247C15.25 11.2007 15.114 11.3341 14.9487 11.4247C14.7833 11.5101 14.6047 11.5527 14.4127 11.5527H14.1807C14.106 11.5527 14.0687 11.5154 14.0687 11.4407V11.0087C14.0687 10.9767 14.082 10.9501 14.1087 10.9287C14.13 10.9074 14.154 10.8967 14.1807 10.8967H14.5087C14.6687 10.8967 14.8047 10.8407 14.9167 10.7287C15.0287 10.6167 15.0847 10.4807 15.0847 10.3207V9.07273H15.6367V10.3287C15.6367 10.4887 15.6927 10.6247 15.8047 10.7367C15.9167 10.8434 16.05 10.8967 16.2047 10.8967H16.3487C16.5033 10.8967 16.6393 10.8514 16.7567 10.7607C16.874 10.6647 16.946 10.5421 16.9727 10.3927L17.2287 9.12873L17.7647 9.22473L17.5567 10.2727C17.5247 10.4434 17.5647 10.5901 17.6767 10.7127C17.794 10.8354 17.938 10.8967 18.1087 10.8967H18.7967V8.84873H19.3487V10.8327C19.3487 11.0514 19.282 11.2274 19.1487 11.3607C19.0153 11.4887 18.842 11.5527 18.6287 11.5527H18.1007C17.9247 11.5527 17.7567 11.5074 17.5967 11.4167C17.4367 11.3261 17.3167 11.1954 17.2367 11.0247C17.13 11.2061 16.994 11.3394 16.8287 11.4247C16.6633 11.5101 16.4873 11.5527 16.3007 11.5527ZM22.0689 11.4407C22.0689 11.5154 22.0316 11.5527 21.9569 11.5527H21.6609C21.4956 11.5527 21.3382 11.5207 21.1889 11.4567C21.0396 11.3927 20.9089 11.3047 20.7969 11.1927C20.6849 11.0807 20.5969 10.9501 20.5329 10.8007C20.4689 10.6514 20.4369 10.4941 20.4369 10.3287V6.28073H20.9889V10.3207C20.9889 10.4807 21.0449 10.6167 21.1569 10.7287C21.2742 10.8407 21.4102 10.8967 21.5649 10.8967H21.9569C21.9889 10.8967 22.0156 10.9101 22.0369 10.9367C22.0582 10.9581 22.0689 10.9847 22.0689 11.0167V11.4407ZM21.9541 11.5527C21.8794 11.5527 21.8421 11.5154 21.8421 11.4407V11.0087C21.8421 10.9821 21.8528 10.9581 21.8741 10.9367C21.8954 10.9101 21.9221 10.8967 21.9541 10.8967H22.2101C22.3648 10.8967 22.4981 10.8487 22.6101 10.7527C22.7274 10.6567 22.7994 10.5367 22.8261 10.3927L22.9941 9.56873C23.0154 9.44607 23.0581 9.3314 23.1221 9.22473C23.1861 9.11807 23.2634 9.0274 23.3541 8.95273C23.4448 8.87807 23.5461 8.8194 23.6581 8.77673C23.7754 8.73407 23.8981 8.71273 24.0261 8.71273H24.4741C24.6288 8.71273 24.7728 8.74207 24.9061 8.80073C25.0448 8.8594 25.1648 8.9394 25.2661 9.04073C25.3674 9.14207 25.4474 9.2594 25.5061 9.39273C25.5648 9.52607 25.5941 9.67007 25.5941 9.82473V10.3127C25.5941 10.4781 25.6501 10.6167 25.7621 10.7287C25.8741 10.8407 26.0101 10.8967 26.1701 10.8967H26.4261C26.4581 10.8967 26.4848 10.9101 26.5061 10.9367C26.5274 10.9581 26.5381 10.9821 26.5381 11.0087V11.4407C26.5381 11.5154 26.5008 11.5527 26.4261 11.5527H26.2741C26.1141 11.5527 25.9621 11.5207 25.8181 11.4567C25.6741 11.3927 25.5488 11.2914 25.4421 11.1527C25.3994 11.3127 25.3274 11.4194 25.2261 11.4727C25.1248 11.5261 25.0048 11.5527 24.8661 11.5527H23.8901C23.7194 11.5527 23.5621 11.5127 23.4181 11.4327C23.2741 11.3474 23.1594 11.2114 23.0741 11.0247C22.9781 11.2114 22.8501 11.3474 22.6901 11.4327C22.5301 11.5127 22.3621 11.5527 22.1861 11.5527H21.9541ZM23.8261 10.8967H25.0421V9.82473C25.0421 9.68607 24.9914 9.56873 24.8901 9.47273C24.7941 9.3714 24.6741 9.32073 24.5301 9.32073H24.0101C23.8874 9.32073 23.7808 9.36073 23.6901 9.44073C23.5994 9.5154 23.5408 9.6114 23.5141 9.72873L23.3941 10.3767C23.3674 10.5154 23.3968 10.6381 23.4821 10.7447C23.5728 10.8461 23.6874 10.8967 23.8261 10.8967ZM27.1269 10.8967V9.92073C27.1269 9.76607 27.1562 9.62207 27.2149 9.48873C27.2735 9.35007 27.3509 9.23007 27.4469 9.12873C27.5482 9.0274 27.6655 8.9474 27.7989 8.88873C27.9375 8.83007 28.0869 8.80073 28.2469 8.80073H28.5509C28.8015 8.80073 29.0229 8.88073 29.2149 9.04073C29.4122 9.20073 29.5349 9.40607 29.5829 9.65673L29.7029 10.2887C29.7349 10.4487 29.7295 10.6061 29.6869 10.7607C29.6495 10.9101 29.5829 11.0434 29.4869 11.1607C29.3909 11.2781 29.2709 11.3741 29.1269 11.4487C28.9882 11.5181 28.8362 11.5527 28.6709 11.5527H27.9989C27.9402 11.5527 27.8842 11.5474 27.8309 11.5367C27.7775 11.5207 27.7242 11.5047 27.6709 11.4887C27.6762 11.4887 27.6789 11.5154 27.6789 11.5687C27.6789 11.8247 27.7295 12.0194 27.8309 12.1527C27.9322 12.2914 28.0869 12.3821 28.2949 12.4247L29.0149 12.5607L29.6629 11.5527C29.9402 11.1154 30.3429 10.8967 30.8709 10.8967H30.9829C31.0575 10.8967 31.0949 10.9341 31.0949 11.0087V11.4327C31.0949 11.4647 31.0842 11.4941 31.0629 11.5207C31.0415 11.5421 31.0149 11.5527 30.9829 11.5527H30.7349C30.5802 11.5527 30.4469 11.5847 30.3349 11.6487C30.2282 11.7181 30.1295 11.8221 30.0389 11.9607C30.0282 11.9767 30.0015 12.0167 29.9589 12.0807C29.9215 12.1447 29.8735 12.2194 29.8149 12.3047C29.7615 12.3954 29.7029 12.4887 29.6389 12.5847C29.5749 12.6807 29.5162 12.7687 29.4629 12.8487C29.4095 12.9341 29.3642 13.0061 29.3269 13.0647C29.2895 13.1234 29.2682 13.1554 29.2629 13.1607L28.0709 12.8967C27.7722 12.8327 27.5402 12.6887 27.3749 12.4647C27.2149 12.2461 27.1322 11.9421 27.1269 11.5527H26.4229C26.3909 11.5527 26.3642 11.5421 26.3429 11.5207C26.3215 11.4941 26.3109 11.4647 26.3109 11.4327V11.0087C26.3109 10.9341 26.3482 10.8967 26.4229 10.8967H27.1269ZM27.6789 9.91273V10.8967H28.7269C28.7962 10.8967 28.8602 10.8834 28.9189 10.8567C28.9775 10.8247 29.0255 10.7847 29.0629 10.7367C29.1055 10.6887 29.1349 10.6327 29.1509 10.5687C29.1722 10.5047 29.1775 10.4381 29.1669 10.3687L29.0629 9.82473C29.0415 9.70207 28.9829 9.6034 28.8869 9.52873C28.7962 9.44873 28.6895 9.40873 28.5669 9.40873H28.1749C28.0362 9.40873 27.9189 9.4594 27.8229 9.56073C27.7269 9.65673 27.6789 9.77407 27.6789 9.91273ZM35.8414 10.4007C35.8414 10.5607 35.812 10.7101 35.7534 10.8487C35.6947 10.9874 35.612 11.1101 35.5054 11.2167C35.404 11.3181 35.284 11.4007 35.1454 11.4647C35.0067 11.5234 34.8574 11.5527 34.6974 11.5527H30.9854C30.9587 11.5527 30.9347 11.5421 30.9134 11.5207C30.8867 11.4941 30.8734 11.4674 30.8734 11.4407V11.0087C30.8734 10.9767 30.8867 10.9501 30.9134 10.9287C30.9347 10.9074 30.9587 10.8967 30.9854 10.8967H31.5054L32.3934 9.94473V6.28073H32.9374V9.08873C32.9374 9.1794 32.9294 9.25407 32.9134 9.31273C32.908 9.35007 32.9 9.38473 32.8894 9.41673C32.8947 9.4114 32.908 9.39807 32.9294 9.37673C32.9507 9.3554 32.972 9.3314 32.9934 9.30473C33.02 9.27807 33.044 9.25407 33.0654 9.23273C33.0867 9.20607 33.1 9.19007 33.1054 9.18473C33.2547 9.0354 33.4254 8.92073 33.6174 8.84073C33.8147 8.76073 34.02 8.72073 34.2334 8.72073H34.7214C34.876 8.72073 35.02 8.75007 35.1534 8.80873C35.292 8.8674 35.412 8.9474 35.5134 9.04873C35.6147 9.15007 35.6947 9.27007 35.7534 9.40873C35.812 9.54207 35.8414 9.68607 35.8414 9.84073V10.4007ZM34.7694 10.8967C34.9134 10.8967 35.036 10.8461 35.1374 10.7447C35.2387 10.6434 35.2894 10.5234 35.2894 10.3847V9.88073C35.2894 9.72607 35.236 9.5954 35.1294 9.48873C35.028 9.38207 34.9 9.32873 34.7454 9.32873H34.2014C34.036 9.32873 33.8814 9.36073 33.7374 9.42473C33.5934 9.48873 33.4654 9.5794 33.3534 9.69673L32.2254 10.8967H34.7694ZM39.5762 12.9527C39.3522 12.9527 39.1415 12.9101 38.9442 12.8247C38.7522 12.7447 38.5842 12.6327 38.4402 12.4887C38.2962 12.3447 38.1815 12.1741 38.0962 11.9767C38.0162 11.7847 37.9762 11.5767 37.9762 11.3527V9.21673H38.5282V11.2647C38.5282 11.4087 38.5548 11.5421 38.6082 11.6647C38.6615 11.7927 38.7335 11.9021 38.8242 11.9927C38.9202 12.0887 39.0322 12.1634 39.1602 12.2167C39.2882 12.2701 39.4242 12.2967 39.5682 12.2967H40.9522C41.0748 12.2967 41.1895 12.2727 41.2962 12.2247C41.4028 12.1821 41.4962 12.1207 41.5762 12.0407C41.6562 11.9661 41.7175 11.8754 41.7602 11.7687C41.8082 11.6674 41.8322 11.5554 41.8322 11.4327V9.08073H42.3842V11.5287C42.3842 11.7261 42.3468 11.9101 42.2722 12.0807C42.1975 12.2567 42.0935 12.4087 41.9602 12.5367C41.8322 12.6647 41.6802 12.7661 41.5042 12.8407C41.3335 12.9154 41.1495 12.9527 40.9522 12.9527H39.5762ZM39.8402 8.39273H40.5202V9.07273H39.8402V8.39273ZM45.1314 11.4407C45.1314 11.5154 45.0941 11.5527 45.0194 11.5527H44.7234C44.5581 11.5527 44.4007 11.5207 44.2514 11.4567C44.1021 11.3927 43.9714 11.3047 43.8594 11.1927C43.7474 11.0807 43.6594 10.9501 43.5954 10.8007C43.5314 10.6514 43.4994 10.4941 43.4994 10.3287V6.28073H44.0514V10.3207C44.0514 10.4807 44.1074 10.6167 44.2194 10.7287C44.3367 10.8407 44.4727 10.8967 44.6274 10.8967H45.0194C45.0514 10.8967 45.0781 10.9101 45.0994 10.9367C45.1207 10.9581 45.1314 10.9847 45.1314 11.0167V11.4407ZM46.4406 9.58473H47.6086V8.56073C47.6086 8.42207 47.5579 8.30473 47.4566 8.20873C47.3553 8.11273 47.2353 8.06473 47.0966 8.06473H46.6086C46.4859 8.06473 46.3766 8.10207 46.2806 8.17673C46.1899 8.2514 46.1339 8.35007 46.1126 8.47273L46.0006 9.05673C45.9739 9.1954 46.0059 9.31807 46.0966 9.42473C46.1873 9.5314 46.3019 9.58473 46.4406 9.58473ZM48.1526 10.3127C48.1526 10.4834 48.1206 10.6461 48.0566 10.8007C47.9926 10.9501 47.9046 11.0807 47.7926 11.1927C47.6806 11.3047 47.5473 11.3927 47.3926 11.4567C47.2433 11.5207 47.0833 11.5527 46.9126 11.5527H45.0166C44.9846 11.5527 44.9579 11.5421 44.9366 11.5207C44.9153 11.4941 44.9046 11.4647 44.9046 11.4327V11.0167C44.9046 10.9847 44.9179 10.9581 44.9446 10.9367C44.9659 10.9101 44.9899 10.8967 45.0166 10.8967H46.9606C47.1313 10.8967 47.2806 10.8487 47.4086 10.7527C47.5366 10.6567 47.6006 10.4994 47.6006 10.2807V10.1687C47.4993 10.2114 47.3899 10.2327 47.2726 10.2327H46.4966C46.3313 10.2327 46.1766 10.1981 46.0326 10.1287C45.8939 10.0594 45.7766 9.96607 45.6806 9.84873C45.5846 9.7314 45.5153 9.59807 45.4726 9.44873C45.4353 9.29407 45.4326 9.13673 45.4646 8.97673L45.5846 8.30473C45.6326 8.05407 45.7526 7.84873 45.9446 7.68873C46.1419 7.52873 46.3659 7.44873 46.6166 7.44873H47.0406C47.1953 7.44873 47.3393 7.47807 47.4726 7.53673C47.6113 7.5954 47.7286 7.6754 47.8246 7.77673C47.9259 7.87807 48.0059 7.99807 48.0646 8.13673C48.1233 8.27007 48.1526 8.41407 48.1526 8.56873V10.3127ZM46.5046 5.83273H47.1846V6.51273H46.5046V5.83273ZM49.8987 9.08873V10.3447C49.8987 10.4994 49.9547 10.6301 50.0667 10.7367C50.184 10.8434 50.32 10.8967 50.4747 10.8967H51.2747C51.3067 10.8967 51.3333 10.9101 51.3547 10.9367C51.376 10.9581 51.3867 10.9847 51.3867 11.0167V11.4407C51.3867 11.5154 51.3493 11.5527 51.2747 11.5527H50.5707C50.4427 11.5527 50.3173 11.5261 50.1947 11.4727C50.072 11.4194 49.9733 11.3394 49.8987 11.2327V11.5847C49.8987 11.7714 49.8693 11.9501 49.8107 12.1207C49.752 12.2967 49.6693 12.4567 49.5627 12.6007C49.4613 12.7447 49.336 12.8701 49.1867 12.9767C49.0373 13.0887 48.8747 13.1741 48.6987 13.2327L47.7867 13.5527L47.6107 13.0007L48.5787 12.6807C48.8133 12.6061 49 12.4701 49.1387 12.2727C49.2773 12.0754 49.3467 11.8567 49.3467 11.6167V9.08873H49.8987ZM54.5544 11.2727L53.3864 11.4247C53.0824 11.4674 52.7757 11.4994 52.4664 11.5207C52.1571 11.5421 51.8504 11.5527 51.5464 11.5527H51.2744C51.1997 11.5527 51.1624 11.5154 51.1624 11.4407V11.0087C51.1624 10.9821 51.1731 10.9581 51.1944 10.9367C51.2157 10.9101 51.2424 10.8967 51.2744 10.8967H52.2264C52.2104 10.8594 52.1944 10.8247 52.1784 10.7927C52.1677 10.7554 52.1571 10.7154 52.1464 10.6727L51.9544 9.66473C51.9224 9.50473 51.9277 9.35007 51.9704 9.20073C52.0184 9.0514 52.0904 8.92073 52.1864 8.80873C52.2824 8.6914 52.3997 8.59807 52.5384 8.52873C52.6771 8.4594 52.8291 8.42473 52.9944 8.42473H54.2264V9.03273H52.9464C52.8024 9.03273 52.6851 9.08873 52.5944 9.20073C52.5037 9.31273 52.4717 9.44073 52.4984 9.58473L52.7464 10.8727L54.4584 10.6967L54.5544 11.2727ZM14.4942 18.4327C14.4942 18.4327 14.5076 18.4887 14.5342 18.6007C14.5662 18.7127 14.5982 18.8541 14.6302 19.0247C14.6676 19.1954 14.7022 19.3821 14.7342 19.5847C14.7662 19.7874 14.7876 19.9794 14.7982 20.1607C14.8036 20.2194 14.8276 20.2621 14.8702 20.2887C14.9129 20.3154 14.9609 20.3287 15.0142 20.3287H15.8382V18.5047H17.1262V20.5127C17.1262 20.6674 17.0916 20.8167 17.0222 20.9607C16.9582 21.1047 16.8702 21.2327 16.7582 21.3447C16.6516 21.4514 16.5262 21.5367 16.3822 21.6007C16.2436 21.6647 16.0969 21.6967 15.9422 21.6967H15.2622C15.1716 21.6967 15.0782 21.6781 14.9822 21.6407C14.8916 21.6034 14.8409 21.5714 14.8302 21.5447V24.5447H13.5422V20.8887C13.5422 20.6541 13.5289 20.4221 13.5022 20.1927C13.4756 19.9581 13.4409 19.7261 13.3982 19.4967L13.2302 18.6567L14.4942 18.4327ZM19.0255 18.4327C19.0255 18.4327 19.0388 18.4887 19.0655 18.6007C19.0975 18.7127 19.1295 18.8541 19.1615 19.0247C19.1988 19.1954 19.2335 19.3821 19.2655 19.5847C19.2975 19.7874 19.3188 19.9794 19.3295 20.1607C19.3348 20.2194 19.3588 20.2621 19.4015 20.2887C19.4441 20.3154 19.4921 20.3287 19.5455 20.3287H20.3695V18.5047H21.6575V20.5127C21.6575 20.6674 21.6228 20.8167 21.5535 20.9607C21.4895 21.1047 21.4015 21.2327 21.2895 21.3447C21.1828 21.4514 21.0575 21.5367 20.9135 21.6007C20.7748 21.6647 20.6281 21.6967 20.4735 21.6967H19.7935C19.7028 21.6967 19.6095 21.6781 19.5135 21.6407C19.4228 21.6034 19.3721 21.5714 19.3615 21.5447V24.5447H18.0735V20.8887C18.0735 20.6541 18.0601 20.4221 18.0335 20.1927C18.0068 19.9581 17.9721 19.7261 17.9295 19.4967L17.7615 18.6567L19.0255 18.4327ZM25.0527 18.2807C25.0901 18.7501 25.1567 19.2247 25.2527 19.7047C25.3541 20.1794 25.4821 20.6487 25.6367 21.1127C25.7914 21.5767 25.9754 22.0301 26.1887 22.4727C26.4074 22.9101 26.6501 23.3234 26.9167 23.7127L25.8927 24.5607C25.8714 24.5181 25.8207 24.4274 25.7407 24.2887C25.6607 24.1447 25.5674 23.9661 25.4607 23.7527C25.3541 23.5394 25.2421 23.3021 25.1247 23.0407C25.0127 22.7794 24.9087 22.5074 24.8127 22.2247C24.7167 21.9421 24.6367 21.6594 24.5727 21.3767C24.5087 21.0887 24.4767 20.8194 24.4767 20.5687C24.4767 20.8354 24.4447 21.1154 24.3807 21.4087C24.3167 21.6967 24.2367 21.9821 24.1407 22.2647C24.0447 22.5474 23.9381 22.8194 23.8207 23.0807C23.7087 23.3421 23.5994 23.5767 23.4927 23.7847C23.3914 23.9927 23.3007 24.1661 23.2207 24.3047C23.1407 24.4434 23.0874 24.5287 23.0607 24.5607L22.0367 23.7127C22.3087 23.3234 22.5487 22.9127 22.7567 22.4807C22.9647 22.0487 23.1434 21.6034 23.2927 21.1447C23.4474 20.6861 23.5754 20.2167 23.6767 19.7367C23.7781 19.2514 23.8527 18.7661 23.9007 18.2807H25.0527ZM27.8064 24.5527V20.8967C27.8064 20.4221 27.7584 19.9581 27.6624 19.5047L27.4944 18.6647L28.7584 18.4407L28.9344 19.3207C28.993 19.5927 29.033 19.8621 29.0544 20.1287C29.081 20.3901 29.0944 20.6514 29.0944 20.9127V24.5527H27.8064ZM31.2442 18.4327C31.2442 18.4327 31.2576 18.4887 31.2842 18.6007C31.3162 18.7127 31.3482 18.8541 31.3802 19.0247C31.4176 19.1954 31.4522 19.3821 31.4842 19.5847C31.5162 19.7874 31.5376 19.9794 31.5482 20.1607C31.5536 20.2194 31.5776 20.2621 31.6202 20.2887C31.6629 20.3154 31.7109 20.3287 31.7642 20.3287H32.5882V18.5047H33.8762V20.5127C33.8762 20.6674 33.8416 20.8167 33.7722 20.9607C33.7082 21.1047 33.6202 21.2327 33.5082 21.3447C33.4016 21.4514 33.2762 21.5367 33.1322 21.6007C32.9936 21.6647 32.8469 21.6967 32.6922 21.6967H32.0122C31.9216 21.6967 31.8282 21.6781 31.7322 21.6407C31.6416 21.6034 31.5909 21.5714 31.5802 21.5447V24.5447H30.2922V20.8887C30.2922 20.6541 30.2789 20.4221 30.2522 20.1927C30.2256 19.9581 30.1909 19.7261 30.1482 19.4967L29.9802 18.6567L31.2442 18.4327ZM35.2321 20.8327H36.4321V22.0567H35.2321V20.8327ZM35.2321 23.3287H36.4321V24.5527H35.2321V23.3287ZM41.4339 23.1927H41.6579C41.6846 23.1927 41.7086 23.2061 41.7299 23.2327C41.7566 23.2594 41.7699 23.2887 41.7699 23.3207V24.4407C41.7699 24.4674 41.7592 24.4941 41.7379 24.5207C41.7166 24.5421 41.6899 24.5527 41.6579 24.5527H41.5379C41.3192 24.5527 41.1272 24.5101 40.9619 24.4247C40.8019 24.3394 40.6659 24.2434 40.5539 24.1367C40.4046 24.2914 40.2419 24.4007 40.0659 24.4647C39.8899 24.5234 39.7059 24.5527 39.5139 24.5527H38.5059C38.3406 24.5527 38.1832 24.5207 38.0339 24.4567C37.8846 24.3927 37.7539 24.3074 37.6419 24.2007C37.5299 24.0887 37.4419 23.9581 37.3779 23.8087C37.3139 23.6594 37.2819 23.5021 37.2819 23.3367V22.1367H38.2419V23.0647C38.2419 23.1501 38.2872 23.1927 38.3779 23.1927H39.5299C39.6419 23.1927 39.7406 23.1581 39.8259 23.0887C39.9112 23.0141 39.9379 22.9154 39.9059 22.7927L39.2259 20.3527L40.3219 19.9527L41.1779 23.0007C41.1939 23.0594 41.2259 23.1074 41.2739 23.1447C41.3219 23.1767 41.3752 23.1927 41.4339 23.1927ZM42.7772 22.2647L41.9532 21.4727L44.5052 18.4727L45.3372 19.2407L43.8492 21.0007H46.8012C47.0039 21.0007 47.1932 21.0407 47.3692 21.1207C47.5506 21.1954 47.7079 21.2994 47.8412 21.4327C47.9746 21.5661 48.0786 21.7234 48.1532 21.9047C48.2332 22.0807 48.2732 22.2727 48.2732 22.4807V23.0727C48.2732 23.2861 48.2306 23.4834 48.1452 23.6647C48.0599 23.8461 47.9452 24.0034 47.8012 24.1367C47.6626 24.2701 47.5026 24.3741 47.3212 24.4487C47.1399 24.5181 46.9506 24.5527 46.7532 24.5527H41.6572C41.6306 24.5527 41.6066 24.5421 41.5852 24.5207C41.5586 24.4941 41.5452 24.4674 41.5452 24.4407V23.3047C41.5452 23.2781 41.5559 23.2541 41.5772 23.2327C41.5986 23.2061 41.6252 23.1927 41.6572 23.1927H46.9772C47.0039 23.1927 47.0332 23.1821 47.0652 23.1607C47.1026 23.1394 47.1212 23.1021 47.1212 23.0487V22.4487C47.1212 22.3954 47.1026 22.3527 47.0652 22.3207C47.0279 22.2834 46.9852 22.2647 46.9372 22.2647H42.7772Z" fill="black"/>
</svg>
