<svg width="63" height="56" viewBox="0 0 63 56" fill="none" xmlns="http://www.w3.org/2000/svg">
<path d="M12.81 1H50.57C57.09 1 62.39 6.29 62.39 12.82V55.32H1V12.82C1 6.3 6.28999 1 12.82 1H12.81Z" fill="#19B5FF" stroke="white" stroke-width="0.52" stroke-miterlimit="10"/>
<path d="M50.85 32.6406H12.53C7.37997 32.6406 3.20996 36.8106 3.20996 41.9606C3.20996 47.1106 7.37997 51.2806 12.53 51.2806H50.85C56 51.2806 60.17 47.1106 60.17 41.9606C60.17 36.8106 56 32.6406 50.85 32.6406Z" fill="#222222"/>
<path d="M12.9602 49.9712C17.384 49.9712 20.9702 46.385 20.9702 41.9612C20.9702 37.5374 17.384 33.9512 12.9602 33.9512C8.53639 33.9512 4.9502 37.5374 4.9502 41.9612C4.9502 46.385 8.53639 49.9712 12.9602 49.9712Z" fill="white"/>
<path d="M23.1699 42.5706V40.6006H23.9099V42.4706C23.9099 42.5706 23.9299 42.6706 23.9599 42.7606C23.9999 42.8506 24.0499 42.9306 24.1199 43.0006C24.1899 43.0706 24.2699 43.1206 24.3599 43.1506C24.4499 43.1906 24.5499 43.2106 24.6499 43.2106H25.8599C26.0299 43.2106 26.1699 43.1506 26.2899 43.0306C26.4099 42.9106 26.4699 42.7706 26.4699 42.6006V40.4906H27.2099V41.7006C27.2099 41.7906 27.2399 41.8706 27.2999 41.9306C27.3599 41.9906 27.4399 42.0206 27.5299 42.0206H27.9499C27.9499 42.0206 27.9999 42.0306 28.0199 42.0506C28.0399 42.0706 28.0499 42.0906 28.0499 42.1206V42.8006C28.0499 42.8006 28.0499 42.8406 28.0199 42.8706C27.9999 42.8906 27.9799 42.9006 27.9499 42.9006H27.6499C27.4999 42.9006 27.3999 42.8706 27.3299 42.8206C27.2699 42.7706 27.2199 42.7206 27.1999 42.6906V42.8606C27.1999 43.0306 27.1599 43.1906 27.0899 43.3406C27.0199 43.4906 26.9199 43.6206 26.7899 43.7306C26.6699 43.8406 26.5299 43.9306 26.3699 43.9906C26.2099 44.0506 26.0399 44.0806 25.8599 44.0806H24.6899C24.4799 44.0806 24.2899 44.0406 24.0999 43.9606C23.9199 43.8806 23.7499 43.7806 23.6199 43.6406C23.4899 43.5106 23.3799 43.3506 23.2999 43.1606C23.2199 42.9806 23.1899 42.7806 23.1899 42.5706H23.1699ZM24.7999 39.7206H25.5699V40.4906H24.7999V39.7206ZM29.5899 42.0206C29.6799 42.0206 29.7599 41.9906 29.8199 41.9306C29.8799 41.8606 29.9099 41.7806 29.9099 41.6906V40.3006H30.6499V41.6906C30.6499 41.8606 30.6199 42.0106 30.5599 42.1606C30.4999 42.3006 30.4099 42.4306 30.2999 42.5406C30.1899 42.6506 30.0599 42.7306 29.9199 42.8006C29.7799 42.8606 29.6199 42.8906 29.4599 42.8906H28.0499C28.0499 42.8906 27.9999 42.8906 27.9799 42.8606C27.9599 42.8406 27.9499 42.8206 27.9499 42.7906V42.1106C27.9499 42.1106 27.9499 42.0606 27.9799 42.0406C27.9999 42.0206 28.0199 42.0106 28.0499 42.0106H29.5999L29.5899 42.0206ZM28.1399 44.4806H28.9099V43.7106H28.1399V44.4806ZM29.2599 44.4806H30.0299V43.7106H29.2599V44.4806ZM35.3799 42.8006C35.3799 42.8606 35.3499 42.8906 35.2899 42.8906H34.9899C34.8099 42.8906 34.6499 42.8606 34.5099 42.7906C34.3599 42.7206 34.2299 42.6206 34.1299 42.5106C33.9399 42.6906 33.7099 42.7906 33.4499 42.8306L31.5299 43.1006L31.4299 42.3106L32.1599 42.2206L31.8299 38.7106L32.5799 38.6206L32.8899 42.1306L33.3899 42.0606C33.5099 42.0506 33.6099 41.9906 33.6899 41.9106C33.7699 41.8206 33.8099 41.7106 33.8099 41.5906V38.3006H34.5499V41.7106C34.5499 41.8006 34.5799 41.8806 34.6399 41.9406C34.6999 42.0006 34.7799 42.0306 34.8699 42.0306H35.2899C35.3499 42.0306 35.3799 42.0606 35.3799 42.1206V42.8106V42.8006ZM36.5299 42.0206C36.6199 42.0206 36.6999 41.9906 36.7599 41.9306C36.8199 41.8606 36.8499 41.7806 36.8499 41.6906V40.3006H37.5899V41.6906C37.5899 41.8606 37.5599 42.0106 37.4999 42.1606C37.4399 42.3006 37.3499 42.4306 37.2399 42.5406C37.1299 42.6506 36.9999 42.7306 36.8599 42.8006C36.7199 42.8606 36.5599 42.8906 36.3999 42.8906H35.3999C35.3999 42.8906 35.3499 42.8906 35.3299 42.8606C35.3099 42.8406 35.2999 42.8206 35.2999 42.7906V42.1106C35.2999 42.1106 35.2999 42.0606 35.3299 42.0406C35.3499 42.0206 35.3699 42.0106 35.3999 42.0106H36.5399L36.5299 42.0206ZM36.8199 39.6806H37.5899V38.9106H36.8199V39.6806ZM39.2099 42.9006H38.4699V38.8106H39.2099V42.9006ZM37.5599 38.6406V38.2806C37.5599 38.0706 37.6299 37.9206 37.7599 37.8106C37.8899 37.7006 38.0399 37.6406 38.1999 37.6406H39.5899V38.2806H38.2799C38.2799 38.2806 38.1999 38.3006 38.1699 38.3306C38.1499 38.3606 38.1399 38.3906 38.1399 38.4206V38.6406H37.5699H37.5599ZM48.1499 41.7006C48.1499 41.7906 48.1799 41.8706 48.2399 41.9306C48.2999 41.9906 48.3799 42.0206 48.4699 42.0206H48.7499C48.8099 42.0206 48.8399 42.0506 48.8399 42.1106V42.8006C48.8399 42.8606 48.8099 42.8906 48.7499 42.8906H48.5899C48.4299 42.8906 48.2799 42.8606 48.1399 42.8006C47.9999 42.7406 47.8799 42.6406 47.7699 42.5006C47.6599 42.6406 47.5299 42.7406 47.3799 42.8106C47.2299 42.8706 47.0699 42.9006 46.9199 42.9006C46.5999 42.9006 46.3499 42.7706 46.1699 42.5006C46.0699 42.6406 45.9499 42.7506 45.8299 42.8106C45.7099 42.8706 45.5699 42.9006 45.4199 42.9006C45.3399 42.9006 45.2599 42.8906 45.1599 42.8706C45.0699 42.8406 44.9899 42.7806 44.9299 42.6906V42.8706C44.9299 43.0406 44.8899 43.2006 44.8199 43.3406C44.7499 43.4906 44.6499 43.6206 44.5199 43.7206C44.3899 43.8306 44.2499 43.9206 44.0799 43.9806C43.9199 44.0406 43.7499 44.0706 43.5699 44.0706H42.3999C42.1899 44.0706 41.9999 44.0306 41.8099 43.9506C41.6299 43.8706 41.4599 43.7706 41.3299 43.6306C41.1999 43.5006 41.0899 43.3406 41.0099 43.1506C40.9299 42.9706 40.8999 42.7706 40.8999 42.5606V40.5906H41.6399V42.4506C41.6399 42.5506 41.6599 42.6506 41.6899 42.7406C41.7299 42.8306 41.7799 42.9106 41.8499 42.9806C41.9199 43.0506 41.9999 43.1006 42.0899 43.1306C42.1799 43.1706 42.2799 43.1906 42.3799 43.1906H43.5899C43.7599 43.1906 43.8999 43.1306 44.0199 43.0106C44.1399 42.8906 44.1999 42.7506 44.1999 42.5806V40.4706H44.9399V41.7006C44.9399 41.7906 44.9699 41.8606 45.0299 41.9206C45.0999 41.9806 45.1699 42.0106 45.2599 42.0106H45.4599C45.5499 42.0106 45.6299 41.9806 45.6999 41.9306C45.7699 41.8806 45.8099 41.8006 45.8299 41.7106L46.0699 40.4906L46.7999 40.6206L46.5999 41.6406C46.5799 41.7406 46.5999 41.8306 46.6599 41.9006C46.7299 41.9706 46.8099 42.0106 46.8999 42.0106H47.0799C47.1699 42.0106 47.2499 41.9806 47.3099 41.9206C47.3699 41.8606 47.3999 41.7806 47.3999 41.6906V40.2806H48.1399V41.6806L48.1499 41.7006ZM47.0099 39.8906H46.2399V39.1206H47.0099V39.8906ZM45.8799 39.8906H45.1099V39.1206H45.8799V39.8906ZM46.4299 38.8706H45.6599V38.1006H46.4299V38.8706ZM49.8799 38.6006H50.6499V39.3706H49.8799V38.6006ZM48.8499 42.9006C48.7899 42.9006 48.7599 42.8706 48.7599 42.8106V42.1306C48.7599 42.1306 48.7699 42.0906 48.7899 42.0606C48.8099 42.0406 48.8299 42.0306 48.8499 42.0306H50.0599C50.2499 42.0306 50.4299 42.0006 50.6199 41.9406C50.7999 41.8806 50.9599 41.7806 51.0899 41.6406L51.4799 41.2206L51.5399 41.1606L51.5699 41.1306L50.1599 40.7106C50.1599 40.7106 50.0699 40.7106 50.0399 40.7206C50.0099 40.7406 49.9799 40.7706 49.9699 40.8106L49.7099 41.4806L49.0599 41.3006L49.2399 40.6806C49.2799 40.5406 49.3399 40.4206 49.4299 40.3206C49.5199 40.2206 49.6099 40.1406 49.7299 40.0906C49.8399 40.0306 49.9599 40.0006 50.0899 39.9906C50.2199 39.9806 50.3399 39.9906 50.4499 40.0206L53.1299 40.8206L52.9099 41.5106L52.5899 41.4206C52.5099 41.4006 52.4499 41.4006 52.3899 41.4106C52.3399 41.4106 52.2899 41.4406 52.2499 41.4606V41.6906C52.2499 41.7806 52.2799 41.8606 52.3399 41.9206C52.3999 41.9806 52.4799 42.0106 52.5699 42.0106H53.4699C53.5299 42.0106 53.5599 42.0406 53.5599 42.1006V42.7906C53.5599 42.8506 53.5299 42.8806 53.4699 42.8806H52.6999C52.4299 42.8806 52.1999 42.8006 52.0099 42.6506C51.8299 42.4906 51.6999 42.2906 51.6299 42.0506L51.3599 42.3206C51.1699 42.5106 50.9399 42.6506 50.6899 42.7406C50.4299 42.8306 50.1699 42.8706 49.8999 42.8706H48.8599L48.8499 42.9006ZM53.7299 43.7006H54.4999V44.4706H53.7299V43.7006ZM54.8599 43.7006H55.6299V44.4706H54.8599V43.7006ZM54.2899 44.7306H55.0599V45.5006H54.2899V44.7306ZM55.1099 42.0206C55.1999 42.0206 55.2799 41.9906 55.3399 41.9306C55.3999 41.8606 55.4299 41.7806 55.4299 41.6906V40.3006H56.1699V41.6906C56.1699 41.8606 56.1399 42.0106 56.0799 42.1606C56.0199 42.3006 55.9299 42.4306 55.8199 42.5406C55.7099 42.6506 55.5799 42.7306 55.4399 42.8006C55.2999 42.8606 55.1399 42.8906 54.9799 42.8906H53.5699C53.5699 42.8906 53.5199 42.8906 53.4999 42.8606C53.4799 42.8406 53.4699 42.8206 53.4699 42.7906V42.1106C53.4699 42.1106 53.4699 42.0606 53.4999 42.0406C53.5199 42.0206 53.5399 42.0106 53.5699 42.0106H55.1199L55.1099 42.0206Z" fill="white"/>
<path d="M10.8398 37.1797C11.4298 37.1797 11.8998 37.6597 11.8998 38.2397V45.6697C11.8998 46.2597 11.4198 46.7297 10.8398 46.7297C10.2498 46.7297 9.77979 46.2497 9.77979 45.6697V38.2397C9.77979 37.6497 10.2598 37.1797 10.8398 37.1797Z" fill="#222222"/>
<path d="M15.0898 37.1797C15.6798 37.1797 16.1498 37.6597 16.1498 38.2397V45.6697C16.1498 46.2597 15.6698 46.7297 15.0898 46.7297C14.4998 46.7297 14.0298 46.2497 14.0298 45.6697V38.2397C14.0298 37.6497 14.5098 37.1797 15.0898 37.1797Z" fill="#222222"/>
<path d="M14.9045 10.8967C14.9792 10.8967 15.0165 10.9341 15.0165 11.0087V11.4327C15.0165 11.4647 15.0058 11.4941 14.9845 11.5207C14.9632 11.5421 14.9365 11.5527 14.9045 11.5527H14.6965C14.4458 11.5527 14.2298 11.4941 14.0485 11.3767C13.8725 11.2541 13.6992 11.0674 13.5285 10.8167L12.8245 9.71273C12.7498 9.59007 12.6432 9.4994 12.5045 9.44073C12.3712 9.37673 12.2352 9.3554 12.0965 9.37673L11.4645 9.44873C11.3632 9.4594 11.2672 9.4914 11.1765 9.54473C11.0912 9.59807 11.0165 9.66473 10.9525 9.74473C10.8885 9.8194 10.8378 9.90473 10.8005 10.0007C10.7685 10.0967 10.7525 10.1981 10.7525 10.3047V10.5447L12.1525 10.8487C12.3178 10.8914 12.4512 10.9767 12.5525 11.1047C12.6538 11.2274 12.7045 11.3741 12.7045 11.5447V11.8327C12.7045 12.0301 12.6672 12.2141 12.5925 12.3847C12.5232 12.5607 12.4245 12.7127 12.2965 12.8407C12.1738 12.9741 12.0272 13.0781 11.8565 13.1527C11.6912 13.2274 11.5098 13.2647 11.3125 13.2647H9.82451C9.60585 13.2647 9.39785 13.2221 9.20051 13.1367C9.00851 13.0567 8.84051 12.9447 8.69651 12.8007C8.55251 12.6567 8.43785 12.4861 8.35251 12.2887C8.26718 12.0967 8.22451 11.8887 8.22451 11.6647V9.75273H8.77651V11.5767C8.77651 11.7207 8.80318 11.8567 8.85651 11.9847C8.90985 12.1127 8.98185 12.2221 9.07251 12.3127C9.16851 12.4034 9.28051 12.4754 9.40851 12.5287C9.53651 12.5821 9.67251 12.6087 9.81651 12.6087H11.2965C11.4192 12.6087 11.5312 12.5847 11.6325 12.5367C11.7392 12.4941 11.8298 12.4354 11.9045 12.3607C11.9792 12.2861 12.0378 12.1954 12.0805 12.0887C12.1285 11.9874 12.1525 11.8754 12.1525 11.7527V11.4327L10.2325 10.9767V10.3047C10.2325 10.1127 10.2672 9.93407 10.3365 9.76873C10.4058 9.6034 10.4992 9.4594 10.6165 9.33673C10.7338 9.20873 10.8698 9.10473 11.0245 9.02473C11.1792 8.9394 11.3418 8.88607 11.5125 8.86473L12.0885 8.80073C12.3072 8.76873 12.5178 8.80073 12.7205 8.89673C12.9285 8.99273 13.0938 9.1314 13.2165 9.31273C13.2592 9.3714 13.3205 9.46473 13.4005 9.59273C13.4805 9.72073 13.5658 9.8514 13.6565 9.98473C13.7525 10.1394 13.8592 10.3047 13.9765 10.4807C14.0565 10.6034 14.1578 10.7047 14.2805 10.7847C14.4032 10.8594 14.5445 10.8967 14.7045 10.8967H14.9045ZM13.4485 12.5207H14.1205V13.1927H13.4485V12.5207ZM17.0258 11.5527C16.8338 11.5527 16.6551 11.5101 16.4898 11.4247C16.3244 11.3341 16.1884 11.2007 16.0818 11.0247C15.9751 11.2007 15.8391 11.3341 15.6738 11.4247C15.5084 11.5101 15.3298 11.5527 15.1378 11.5527H14.9058C14.8311 11.5527 14.7938 11.5154 14.7938 11.4407V11.0087C14.7938 10.9767 14.8071 10.9501 14.8338 10.9287C14.8551 10.9074 14.8791 10.8967 14.9058 10.8967H15.2338C15.3938 10.8967 15.5298 10.8407 15.6418 10.7287C15.7538 10.6167 15.8098 10.4807 15.8098 10.3207V9.07273H16.3618V10.3287C16.3618 10.4887 16.4178 10.6247 16.5298 10.7367C16.6418 10.8434 16.7751 10.8967 16.9298 10.8967H17.0738C17.2284 10.8967 17.3644 10.8514 17.4818 10.7607C17.5991 10.6647 17.6711 10.5421 17.6978 10.3927L17.9538 9.12873L18.4898 9.22473L18.2818 10.2727C18.2498 10.4434 18.2898 10.5901 18.4018 10.7127C18.5191 10.8354 18.6631 10.8967 18.8338 10.8967H19.5218V8.84873H20.0738V10.8327C20.0738 11.0514 20.0071 11.2274 19.8738 11.3607C19.7404 11.4887 19.5671 11.5527 19.3538 11.5527H18.8258C18.6498 11.5527 18.4818 11.5074 18.3218 11.4167C18.1618 11.3261 18.0418 11.1954 17.9618 11.0247C17.8551 11.2061 17.7191 11.3394 17.5538 11.4247C17.3884 11.5101 17.2124 11.5527 17.0258 11.5527ZM22.794 11.4407C22.794 11.5154 22.7567 11.5527 22.682 11.5527H22.386C22.2207 11.5527 22.0633 11.5207 21.914 11.4567C21.7647 11.3927 21.634 11.3047 21.522 11.1927C21.41 11.0807 21.322 10.9501 21.258 10.8007C21.194 10.6514 21.162 10.4941 21.162 10.3287V6.28073H21.714V10.3207C21.714 10.4807 21.77 10.6167 21.882 10.7287C21.9993 10.8407 22.1353 10.8967 22.29 10.8967H22.682C22.714 10.8967 22.7407 10.9101 22.762 10.9367C22.7833 10.9581 22.794 10.9847 22.794 11.0167V11.4407ZM22.6792 11.5527C22.6045 11.5527 22.5672 11.5154 22.5672 11.4407V11.0087C22.5672 10.9821 22.5779 10.9581 22.5992 10.9367C22.6205 10.9101 22.6472 10.8967 22.6792 10.8967H22.9352C23.0899 10.8967 23.2232 10.8487 23.3352 10.7527C23.4525 10.6567 23.5245 10.5367 23.5512 10.3927L23.7192 9.56873C23.7405 9.44607 23.7832 9.3314 23.8472 9.22473C23.9112 9.11807 23.9885 9.0274 24.0792 8.95273C24.1699 8.87807 24.2712 8.8194 24.3832 8.77673C24.5005 8.73407 24.6232 8.71273 24.7512 8.71273H25.1992C25.3539 8.71273 25.4979 8.74207 25.6312 8.80073C25.7699 8.8594 25.8899 8.9394 25.9912 9.04073C26.0925 9.14207 26.1725 9.2594 26.2312 9.39273C26.2899 9.52607 26.3192 9.67007 26.3192 9.82473V10.3127C26.3192 10.4781 26.3752 10.6167 26.4872 10.7287C26.5992 10.8407 26.7352 10.8967 26.8952 10.8967H27.1512C27.1832 10.8967 27.2099 10.9101 27.2312 10.9367C27.2525 10.9581 27.2632 10.9821 27.2632 11.0087V11.4407C27.2632 11.5154 27.2259 11.5527 27.1512 11.5527H26.9992C26.8392 11.5527 26.6872 11.5207 26.5432 11.4567C26.3992 11.3927 26.2739 11.2914 26.1672 11.1527C26.1245 11.3127 26.0525 11.4194 25.9512 11.4727C25.8499 11.5261 25.7299 11.5527 25.5912 11.5527H24.6152C24.4445 11.5527 24.2872 11.5127 24.1432 11.4327C23.9992 11.3474 23.8845 11.2114 23.7992 11.0247C23.7032 11.2114 23.5752 11.3474 23.4152 11.4327C23.2552 11.5127 23.0872 11.5527 22.9112 11.5527H22.6792ZM24.5512 10.8967H25.7672V9.82473C25.7672 9.68607 25.7165 9.56873 25.6152 9.47273C25.5192 9.3714 25.3992 9.32073 25.2552 9.32073H24.7352C24.6125 9.32073 24.5059 9.36073 24.4152 9.44073C24.3245 9.5154 24.2659 9.6114 24.2392 9.72873L24.1192 10.3767C24.0925 10.5154 24.1219 10.6381 24.2072 10.7447C24.2979 10.8461 24.4125 10.8967 24.5512 10.8967ZM27.8519 10.8967V9.92073C27.8519 9.76607 27.8813 9.62207 27.9399 9.48873C27.9986 9.35007 28.0759 9.23007 28.1719 9.12873C28.2733 9.0274 28.3906 8.9474 28.5239 8.88873C28.6626 8.83007 28.8119 8.80073 28.9719 8.80073H29.2759C29.5266 8.80073 29.7479 8.88073 29.9399 9.04073C30.1373 9.20073 30.2599 9.40607 30.3079 9.65673L30.4279 10.2887C30.4599 10.4487 30.4546 10.6061 30.4119 10.7607C30.3746 10.9101 30.3079 11.0434 30.2119 11.1607C30.1159 11.2781 29.9959 11.3741 29.8519 11.4487C29.7133 11.5181 29.5613 11.5527 29.3959 11.5527H28.7239C28.6653 11.5527 28.6093 11.5474 28.5559 11.5367C28.5026 11.5207 28.4493 11.5047 28.3959 11.4887C28.4013 11.4887 28.4039 11.5154 28.4039 11.5687C28.4039 11.8247 28.4546 12.0194 28.5559 12.1527C28.6573 12.2914 28.8119 12.3821 29.0199 12.4247L29.7399 12.5607L30.3879 11.5527C30.6653 11.1154 31.0679 10.8967 31.5959 10.8967H31.7079C31.7826 10.8967 31.8199 10.9341 31.8199 11.0087V11.4327C31.8199 11.4647 31.8093 11.4941 31.7879 11.5207C31.7666 11.5421 31.7399 11.5527 31.7079 11.5527H31.4599C31.3053 11.5527 31.1719 11.5847 31.0599 11.6487C30.9533 11.7181 30.8546 11.8221 30.7639 11.9607C30.7533 11.9767 30.7266 12.0167 30.6839 12.0807C30.6466 12.1447 30.5986 12.2194 30.5399 12.3047C30.4866 12.3954 30.4279 12.4887 30.3639 12.5847C30.2999 12.6807 30.2413 12.7687 30.1879 12.8487C30.1346 12.9341 30.0893 13.0061 30.0519 13.0647C30.0146 13.1234 29.9933 13.1554 29.9879 13.1607L28.7959 12.8967C28.4973 12.8327 28.2653 12.6887 28.0999 12.4647C27.9399 12.2461 27.8573 11.9421 27.8519 11.5527H27.1479C27.1159 11.5527 27.0893 11.5421 27.0679 11.5207C27.0466 11.4941 27.0359 11.4647 27.0359 11.4327V11.0087C27.0359 10.9341 27.0733 10.8967 27.1479 10.8967H27.8519ZM28.4039 9.91273V10.8967H29.4519C29.5213 10.8967 29.5853 10.8834 29.6439 10.8567C29.7026 10.8247 29.7506 10.7847 29.7879 10.7367C29.8306 10.6887 29.8599 10.6327 29.8759 10.5687C29.8973 10.5047 29.9026 10.4381 29.8919 10.3687L29.7879 9.82473C29.7666 9.70207 29.7079 9.6034 29.6119 9.52873C29.5213 9.44873 29.4146 9.40873 29.2919 9.40873H28.8999C28.7613 9.40873 28.6439 9.4594 28.5479 9.56073C28.4519 9.65673 28.4039 9.77407 28.4039 9.91273ZM36.5664 10.4007C36.5664 10.5607 36.5371 10.7101 36.4784 10.8487C36.4198 10.9874 36.3371 11.1101 36.2304 11.2167C36.1291 11.3181 36.0091 11.4007 35.8704 11.4647C35.7318 11.5234 35.5824 11.5527 35.4224 11.5527H31.7104C31.6838 11.5527 31.6598 11.5421 31.6384 11.5207C31.6118 11.4941 31.5984 11.4674 31.5984 11.4407V11.0087C31.5984 10.9767 31.6118 10.9501 31.6384 10.9287C31.6598 10.9074 31.6838 10.8967 31.7104 10.8967H32.2304L33.1184 9.94473V6.28073H33.6624V9.08873C33.6624 9.1794 33.6544 9.25407 33.6384 9.31273C33.6331 9.35007 33.6251 9.38473 33.6144 9.41673C33.6198 9.4114 33.6331 9.39807 33.6544 9.37673C33.6758 9.3554 33.6971 9.3314 33.7184 9.30473C33.7451 9.27807 33.7691 9.25407 33.7904 9.23273C33.8118 9.20607 33.8251 9.19007 33.8304 9.18473C33.9798 9.0354 34.1504 8.92073 34.3424 8.84073C34.5398 8.76073 34.7451 8.72073 34.9584 8.72073H35.4464C35.6011 8.72073 35.7451 8.75007 35.8784 8.80873C36.0171 8.8674 36.1371 8.9474 36.2384 9.04873C36.3398 9.15007 36.4198 9.27007 36.4784 9.40873C36.5371 9.54207 36.5664 9.68607 36.5664 9.84073V10.4007ZM35.4944 10.8967C35.6384 10.8967 35.7611 10.8461 35.8624 10.7447C35.9638 10.6434 36.0144 10.5234 36.0144 10.3847V9.88073C36.0144 9.72607 35.9611 9.5954 35.8544 9.48873C35.7531 9.38207 35.6251 9.32873 35.4704 9.32873H34.9264C34.7611 9.32873 34.6064 9.36073 34.4624 9.42473C34.3184 9.48873 34.1904 9.5794 34.0784 9.69673L32.9504 10.8967H35.4944ZM40.3013 12.9527C40.0773 12.9527 39.8666 12.9101 39.6693 12.8247C39.4773 12.7447 39.3093 12.6327 39.1653 12.4887C39.0213 12.3447 38.9066 12.1741 38.8213 11.9767C38.7413 11.7847 38.7013 11.5767 38.7013 11.3527V9.21673H39.2533V11.2647C39.2533 11.4087 39.2799 11.5421 39.3333 11.6647C39.3866 11.7927 39.4586 11.9021 39.5493 11.9927C39.6453 12.0887 39.7573 12.1634 39.8853 12.2167C40.0133 12.2701 40.1493 12.2967 40.2933 12.2967H41.6773C41.7999 12.2967 41.9146 12.2727 42.0213 12.2247C42.1279 12.1821 42.2213 12.1207 42.3013 12.0407C42.3813 11.9661 42.4426 11.8754 42.4853 11.7687C42.5333 11.6674 42.5573 11.5554 42.5573 11.4327V9.08073H43.1093V11.5287C43.1093 11.7261 43.0719 11.9101 42.9973 12.0807C42.9226 12.2567 42.8186 12.4087 42.6853 12.5367C42.5573 12.6647 42.4053 12.7661 42.2293 12.8407C42.0586 12.9154 41.8746 12.9527 41.6773 12.9527H40.3013ZM40.5653 8.39273H41.2453V9.07273H40.5653V8.39273ZM45.8565 11.4407C45.8565 11.5154 45.8192 11.5527 45.7445 11.5527H45.4485C45.2832 11.5527 45.1258 11.5207 44.9765 11.4567C44.8272 11.3927 44.6965 11.3047 44.5845 11.1927C44.4725 11.0807 44.3845 10.9501 44.3205 10.8007C44.2565 10.6514 44.2245 10.4941 44.2245 10.3287V6.28073H44.7765V10.3207C44.7765 10.4807 44.8325 10.6167 44.9445 10.7287C45.0618 10.8407 45.1978 10.8967 45.3525 10.8967H45.7445C45.7765 10.8967 45.8032 10.9101 45.8245 10.9367C45.8458 10.9581 45.8565 10.9847 45.8565 11.0167V11.4407ZM47.1657 9.58473H48.3337V8.56073C48.3337 8.42207 48.283 8.30473 48.1817 8.20873C48.0804 8.11273 47.9604 8.06473 47.8217 8.06473H47.3337C47.211 8.06473 47.1017 8.10207 47.0057 8.17673C46.915 8.2514 46.859 8.35007 46.8377 8.47273L46.7257 9.05673C46.699 9.1954 46.731 9.31807 46.8217 9.42473C46.9124 9.5314 47.027 9.58473 47.1657 9.58473ZM48.8777 10.3127C48.8777 10.4834 48.8457 10.6461 48.7817 10.8007C48.7177 10.9501 48.6297 11.0807 48.5177 11.1927C48.4057 11.3047 48.2724 11.3927 48.1177 11.4567C47.9684 11.5207 47.8084 11.5527 47.6377 11.5527H45.7417C45.7097 11.5527 45.683 11.5421 45.6617 11.5207C45.6404 11.4941 45.6297 11.4647 45.6297 11.4327V11.0167C45.6297 10.9847 45.643 10.9581 45.6697 10.9367C45.691 10.9101 45.715 10.8967 45.7417 10.8967H47.6857C47.8564 10.8967 48.0057 10.8487 48.1337 10.7527C48.2617 10.6567 48.3257 10.4994 48.3257 10.2807V10.1687C48.2244 10.2114 48.115 10.2327 47.9977 10.2327H47.2217C47.0564 10.2327 46.9017 10.1981 46.7577 10.1287C46.619 10.0594 46.5017 9.96607 46.4057 9.84873C46.3097 9.7314 46.2404 9.59807 46.1977 9.44873C46.1604 9.29407 46.1577 9.13673 46.1897 8.97673L46.3097 8.30473C46.3577 8.05407 46.4777 7.84873 46.6697 7.68873C46.867 7.52873 47.091 7.44873 47.3417 7.44873H47.7657C47.9204 7.44873 48.0644 7.47807 48.1977 7.53673C48.3364 7.5954 48.4537 7.6754 48.5497 7.77673C48.651 7.87807 48.731 7.99807 48.7897 8.13673C48.8484 8.27007 48.8777 8.41407 48.8777 8.56873V10.3127ZM47.2297 5.83273H47.9097V6.51273H47.2297V5.83273ZM50.6238 9.08873V10.3447C50.6238 10.4994 50.6798 10.6301 50.7918 10.7367C50.9091 10.8434 51.0451 10.8967 51.1998 10.8967H51.9998C52.0318 10.8967 52.0584 10.9101 52.0798 10.9367C52.1011 10.9581 52.1118 10.9847 52.1118 11.0167V11.4407C52.1118 11.5154 52.0744 11.5527 51.9998 11.5527H51.2958C51.1678 11.5527 51.0424 11.5261 50.9198 11.4727C50.7971 11.4194 50.6984 11.3394 50.6238 11.2327V11.5847C50.6238 11.7714 50.5944 11.9501 50.5358 12.1207C50.4771 12.2967 50.3944 12.4567 50.2878 12.6007C50.1864 12.7447 50.0611 12.8701 49.9118 12.9767C49.7624 13.0887 49.5998 13.1741 49.4238 13.2327L48.5118 13.5527L48.3358 13.0007L49.3038 12.6807C49.5384 12.6061 49.7251 12.4701 49.8638 12.2727C50.0024 12.0754 50.0718 11.8567 50.0718 11.6167V9.08873H50.6238ZM55.2795 11.2727L54.1115 11.4247C53.8075 11.4674 53.5008 11.4994 53.1915 11.5207C52.8822 11.5421 52.5755 11.5527 52.2715 11.5527H51.9995C51.9248 11.5527 51.8875 11.5154 51.8875 11.4407V11.0087C51.8875 10.9821 51.8982 10.9581 51.9195 10.9367C51.9408 10.9101 51.9675 10.8967 51.9995 10.8967H52.9515C52.9355 10.8594 52.9195 10.8247 52.9035 10.7927C52.8928 10.7554 52.8822 10.7154 52.8715 10.6727L52.6795 9.66473C52.6475 9.50473 52.6528 9.35007 52.6955 9.20073C52.7435 9.0514 52.8155 8.92073 52.9115 8.80873C53.0075 8.6914 53.1248 8.59807 53.2635 8.52873C53.4022 8.4594 53.5542 8.42473 53.7195 8.42473H54.9515V9.03273H53.6715C53.5275 9.03273 53.4102 9.08873 53.3195 9.20073C53.2288 9.31273 53.1968 9.44073 53.2235 9.58473L53.4715 10.8727L55.1835 10.6967L55.2795 11.2727ZM15.2193 18.4327C15.2193 18.4327 15.2327 18.4887 15.2593 18.6007C15.2913 18.7127 15.3233 18.8541 15.3553 19.0247C15.3927 19.1954 15.4273 19.3821 15.4593 19.5847C15.4913 19.7874 15.5127 19.9794 15.5233 20.1607C15.5287 20.2194 15.5527 20.2621 15.5953 20.2887C15.638 20.3154 15.686 20.3287 15.7393 20.3287H16.5633V18.5047H17.8513V20.5127C17.8513 20.6674 17.8167 20.8167 17.7473 20.9607C17.6833 21.1047 17.5953 21.2327 17.4833 21.3447C17.3767 21.4514 17.2513 21.5367 17.1073 21.6007C16.9687 21.6647 16.822 21.6967 16.6673 21.6967H15.9873C15.8967 21.6967 15.8033 21.6781 15.7073 21.6407C15.6167 21.6034 15.566 21.5714 15.5553 21.5447V24.5447H14.2673V20.8887C14.2673 20.6541 14.254 20.4221 14.2273 20.1927C14.2007 19.9581 14.166 19.7261 14.1233 19.4967L13.9553 18.6567L15.2193 18.4327ZM19.7506 18.4327C19.7506 18.4327 19.7639 18.4887 19.7906 18.6007C19.8226 18.7127 19.8546 18.8541 19.8866 19.0247C19.9239 19.1954 19.9586 19.3821 19.9906 19.5847C20.0226 19.7874 20.0439 19.9794 20.0546 20.1607C20.0599 20.2194 20.0839 20.2621 20.1266 20.2887C20.1692 20.3154 20.2172 20.3287 20.2706 20.3287H21.0946V18.5047H22.3826V20.5127C22.3826 20.6674 22.3479 20.8167 22.2786 20.9607C22.2146 21.1047 22.1266 21.2327 22.0146 21.3447C21.9079 21.4514 21.7826 21.5367 21.6386 21.6007C21.4999 21.6647 21.3532 21.6967 21.1986 21.6967H20.5186C20.4279 21.6967 20.3346 21.6781 20.2386 21.6407C20.1479 21.6034 20.0972 21.5714 20.0866 21.5447V24.5447H18.7986V20.8887C18.7986 20.6541 18.7852 20.4221 18.7586 20.1927C18.7319 19.9581 18.6972 19.7261 18.6546 19.4967L18.4866 18.6567L19.7506 18.4327ZM25.7778 18.2807C25.8152 18.7501 25.8818 19.2247 25.9778 19.7047C26.0792 20.1794 26.2072 20.6487 26.3618 21.1127C26.5165 21.5767 26.7005 22.0301 26.9138 22.4727C27.1325 22.9101 27.3752 23.3234 27.6418 23.7127L26.6178 24.5607C26.5965 24.5181 26.5458 24.4274 26.4658 24.2887C26.3858 24.1447 26.2925 23.9661 26.1858 23.7527C26.0792 23.5394 25.9672 23.3021 25.8498 23.0407C25.7378 22.7794 25.6338 22.5074 25.5378 22.2247C25.4418 21.9421 25.3618 21.6594 25.2978 21.3767C25.2338 21.0887 25.2018 20.8194 25.2018 20.5687C25.2018 20.8354 25.1698 21.1154 25.1058 21.4087C25.0418 21.6967 24.9618 21.9821 24.8658 22.2647C24.7698 22.5474 24.6632 22.8194 24.5458 23.0807C24.4338 23.3421 24.3245 23.5767 24.2178 23.7847C24.1165 23.9927 24.0258 24.1661 23.9458 24.3047C23.8658 24.4434 23.8125 24.5287 23.7858 24.5607L22.7618 23.7127C23.0338 23.3234 23.2738 22.9127 23.4818 22.4807C23.6898 22.0487 23.8685 21.6034 24.0178 21.1447C24.1725 20.6861 24.3005 20.2167 24.4018 19.7367C24.5032 19.2514 24.5778 18.7661 24.6258 18.2807H25.7778ZM28.5314 24.5527V20.8967C28.5314 20.4221 28.4834 19.9581 28.3874 19.5047L28.2194 18.6647L29.4834 18.4407L29.6594 19.3207C29.7181 19.5927 29.7581 19.8621 29.7794 20.1287C29.8061 20.3901 29.8194 20.6514 29.8194 20.9127V24.5527H28.5314ZM31.9693 18.4327C31.9693 18.4327 31.9827 18.4887 32.0093 18.6007C32.0413 18.7127 32.0733 18.8541 32.1053 19.0247C32.1427 19.1954 32.1773 19.3821 32.2093 19.5847C32.2413 19.7874 32.2627 19.9794 32.2733 20.1607C32.2787 20.2194 32.3027 20.2621 32.3453 20.2887C32.388 20.3154 32.436 20.3287 32.4893 20.3287H33.3133V18.5047H34.6013V20.5127C34.6013 20.6674 34.5667 20.8167 34.4973 20.9607C34.4333 21.1047 34.3453 21.2327 34.2333 21.3447C34.1267 21.4514 34.0013 21.5367 33.8573 21.6007C33.7187 21.6647 33.572 21.6967 33.4173 21.6967H32.7373C32.6467 21.6967 32.5533 21.6781 32.4573 21.6407C32.3667 21.6034 32.316 21.5714 32.3053 21.5447V24.5447H31.0173V20.8887C31.0173 20.6541 31.004 20.4221 30.9773 20.1927C30.9507 19.9581 30.916 19.7261 30.8733 19.4967L30.7053 18.6567L31.9693 18.4327ZM35.9572 20.8327H37.1572V22.0567H35.9572V20.8327ZM35.9572 23.3287H37.1572V24.5527H35.9572V23.3287ZM42.159 23.1927H42.383C42.4097 23.1927 42.4337 23.2061 42.455 23.2327C42.4817 23.2594 42.495 23.2887 42.495 23.3207V24.4407C42.495 24.4674 42.4843 24.4941 42.463 24.5207C42.4417 24.5421 42.415 24.5527 42.383 24.5527H42.263C42.0443 24.5527 41.8523 24.5101 41.687 24.4247C41.527 24.3394 41.391 24.2434 41.279 24.1367C41.1297 24.2914 40.967 24.4007 40.791 24.4647C40.615 24.5234 40.431 24.5527 40.239 24.5527H39.231C39.0657 24.5527 38.9083 24.5207 38.759 24.4567C38.6097 24.3927 38.479 24.3074 38.367 24.2007C38.255 24.0887 38.167 23.9581 38.103 23.8087C38.039 23.6594 38.007 23.5021 38.007 23.3367V22.1367H38.967V23.0647C38.967 23.1501 39.0123 23.1927 39.103 23.1927H40.255C40.367 23.1927 40.4657 23.1581 40.551 23.0887C40.6363 23.0141 40.663 22.9154 40.631 22.7927L39.951 20.3527L41.047 19.9527L41.903 23.0007C41.919 23.0594 41.951 23.1074 41.999 23.1447C42.047 23.1767 42.1003 23.1927 42.159 23.1927ZM43.5023 22.2647L42.6783 21.4727L45.2303 18.4727L46.0623 19.2407L44.5743 21.0007H47.5263C47.729 21.0007 47.9183 21.0407 48.0943 21.1207C48.2757 21.1954 48.433 21.2994 48.5663 21.4327C48.6997 21.5661 48.8037 21.7234 48.8783 21.9047C48.9583 22.0807 48.9983 22.2727 48.9983 22.4807V23.0727C48.9983 23.2861 48.9557 23.4834 48.8703 23.6647C48.785 23.8461 48.6703 24.0034 48.5263 24.1367C48.3877 24.2701 48.2277 24.3741 48.0463 24.4487C47.865 24.5181 47.6757 24.5527 47.4783 24.5527H42.3823C42.3557 24.5527 42.3317 24.5421 42.3103 24.5207C42.2837 24.4941 42.2703 24.4674 42.2703 24.4407V23.3047C42.2703 23.2781 42.281 23.2541 42.3023 23.2327C42.3237 23.2061 42.3503 23.1927 42.3823 23.1927H47.7023C47.729 23.1927 47.7583 23.1821 47.7903 23.1607C47.8277 23.1394 47.8463 23.1021 47.8463 23.0487V22.4487C47.8463 22.3954 47.8277 22.3527 47.7903 22.3207C47.753 22.2834 47.7103 22.2647 47.6623 22.2647H43.5023Z" fill="black"/>
</svg>
