<svg width="63" height="56" viewBox="0 0 63 56" fill="none" xmlns="http://www.w3.org/2000/svg">
<path d="M12.81 1H50.57C57.09 1 62.39 6.29 62.39 12.82V55.32H1V12.82C1 6.3 6.28999 1 12.82 1H12.81Z" fill="#19B5FF" stroke="white" stroke-width="0.52" stroke-miterlimit="10"/>
<path d="M50.85 32.6406H12.53C7.37997 32.6406 3.20996 36.8106 3.20996 41.9606C3.20996 47.1106 7.37997 51.2806 12.53 51.2806H50.85C56 51.2806 60.17 47.1106 60.17 41.9606C60.17 36.8106 56 32.6406 50.85 32.6406Z" fill="#222222"/>
<path d="M12.9602 49.9712C17.384 49.9712 20.9702 46.385 20.9702 41.9612C20.9702 37.5374 17.384 33.9512 12.9602 33.9512C8.53639 33.9512 4.9502 37.5374 4.9502 41.9612C4.9502 46.385 8.53639 49.9712 12.9602 49.9712Z" fill="white"/>
<path d="M23.1699 42.5706V40.6006H23.9099V42.4706C23.9099 42.5706 23.9299 42.6706 23.9599 42.7606C23.9999 42.8506 24.0499 42.9306 24.1199 43.0006C24.1899 43.0706 24.2699 43.1206 24.3599 43.1506C24.4499 43.1906 24.5499 43.2106 24.6499 43.2106H25.8599C26.0299 43.2106 26.1699 43.1506 26.2899 43.0306C26.4099 42.9106 26.4699 42.7706 26.4699 42.6006V40.4906H27.2099V41.7006C27.2099 41.7906 27.2399 41.8706 27.2999 41.9306C27.3599 41.9906 27.4399 42.0206 27.5299 42.0206H27.9499C27.9499 42.0206 27.9999 42.0306 28.0199 42.0506C28.0399 42.0706 28.0499 42.0906 28.0499 42.1206V42.8006C28.0499 42.8006 28.0499 42.8406 28.0199 42.8706C27.9999 42.8906 27.9799 42.9006 27.9499 42.9006H27.6499C27.4999 42.9006 27.3999 42.8706 27.3299 42.8206C27.2699 42.7706 27.2199 42.7206 27.1999 42.6906V42.8606C27.1999 43.0306 27.1599 43.1906 27.0899 43.3406C27.0199 43.4906 26.9199 43.6206 26.7899 43.7306C26.6699 43.8406 26.5299 43.9306 26.3699 43.9906C26.2099 44.0506 26.0399 44.0806 25.8599 44.0806H24.6899C24.4799 44.0806 24.2899 44.0406 24.0999 43.9606C23.9199 43.8806 23.7499 43.7806 23.6199 43.6406C23.4899 43.5106 23.3799 43.3506 23.2999 43.1606C23.2199 42.9806 23.1899 42.7806 23.1899 42.5706H23.1699ZM24.7999 39.7206H25.5699V40.4906H24.7999V39.7206ZM29.5899 42.0206C29.6799 42.0206 29.7599 41.9906 29.8199 41.9306C29.8799 41.8606 29.9099 41.7806 29.9099 41.6906V40.3006H30.6499V41.6906C30.6499 41.8606 30.6199 42.0106 30.5599 42.1606C30.4999 42.3006 30.4099 42.4306 30.2999 42.5406C30.1899 42.6506 30.0599 42.7306 29.9199 42.8006C29.7799 42.8606 29.6199 42.8906 29.4599 42.8906H28.0499C28.0499 42.8906 27.9999 42.8906 27.9799 42.8606C27.9599 42.8406 27.9499 42.8206 27.9499 42.7906V42.1106C27.9499 42.1106 27.9499 42.0606 27.9799 42.0406C27.9999 42.0206 28.0199 42.0106 28.0499 42.0106H29.5999L29.5899 42.0206ZM28.1399 44.4806H28.9099V43.7106H28.1399V44.4806ZM29.2599 44.4806H30.0299V43.7106H29.2599V44.4806ZM35.3799 42.8006C35.3799 42.8606 35.3499 42.8906 35.2899 42.8906H34.9899C34.8099 42.8906 34.6499 42.8606 34.5099 42.7906C34.3599 42.7206 34.2299 42.6206 34.1299 42.5106C33.9399 42.6906 33.7099 42.7906 33.4499 42.8306L31.5299 43.1006L31.4299 42.3106L32.1599 42.2206L31.8299 38.7106L32.5799 38.6206L32.8899 42.1306L33.3899 42.0606C33.5099 42.0506 33.6099 41.9906 33.6899 41.9106C33.7699 41.8206 33.8099 41.7106 33.8099 41.5906V38.3006H34.5499V41.7106C34.5499 41.8006 34.5799 41.8806 34.6399 41.9406C34.6999 42.0006 34.7799 42.0306 34.8699 42.0306H35.2899C35.3499 42.0306 35.3799 42.0606 35.3799 42.1206V42.8106V42.8006ZM36.5299 42.0206C36.6199 42.0206 36.6999 41.9906 36.7599 41.9306C36.8199 41.8606 36.8499 41.7806 36.8499 41.6906V40.3006H37.5899V41.6906C37.5899 41.8606 37.5599 42.0106 37.4999 42.1606C37.4399 42.3006 37.3499 42.4306 37.2399 42.5406C37.1299 42.6506 36.9999 42.7306 36.8599 42.8006C36.7199 42.8606 36.5599 42.8906 36.3999 42.8906H35.3999C35.3999 42.8906 35.3499 42.8906 35.3299 42.8606C35.3099 42.8406 35.2999 42.8206 35.2999 42.7906V42.1106C35.2999 42.1106 35.2999 42.0606 35.3299 42.0406C35.3499 42.0206 35.3699 42.0106 35.3999 42.0106H36.5399L36.5299 42.0206ZM36.8199 39.6806H37.5899V38.9106H36.8199V39.6806ZM39.2099 42.9006H38.4699V38.8106H39.2099V42.9006ZM37.5599 38.6406V38.2806C37.5599 38.0706 37.6299 37.9206 37.7599 37.8106C37.8899 37.7006 38.0399 37.6406 38.1999 37.6406H39.5899V38.2806H38.2799C38.2799 38.2806 38.1999 38.3006 38.1699 38.3306C38.1499 38.3606 38.1399 38.3906 38.1399 38.4206V38.6406H37.5699H37.5599ZM48.1499 41.7006C48.1499 41.7906 48.1799 41.8706 48.2399 41.9306C48.2999 41.9906 48.3799 42.0206 48.4699 42.0206H48.7499C48.8099 42.0206 48.8399 42.0506 48.8399 42.1106V42.8006C48.8399 42.8606 48.8099 42.8906 48.7499 42.8906H48.5899C48.4299 42.8906 48.2799 42.8606 48.1399 42.8006C47.9999 42.7406 47.8799 42.6406 47.7699 42.5006C47.6599 42.6406 47.5299 42.7406 47.3799 42.8106C47.2299 42.8706 47.0699 42.9006 46.9199 42.9006C46.5999 42.9006 46.3499 42.7706 46.1699 42.5006C46.0699 42.6406 45.9499 42.7506 45.8299 42.8106C45.7099 42.8706 45.5699 42.9006 45.4199 42.9006C45.3399 42.9006 45.2599 42.8906 45.1599 42.8706C45.0699 42.8406 44.9899 42.7806 44.9299 42.6906V42.8706C44.9299 43.0406 44.8899 43.2006 44.8199 43.3406C44.7499 43.4906 44.6499 43.6206 44.5199 43.7206C44.3899 43.8306 44.2499 43.9206 44.0799 43.9806C43.9199 44.0406 43.7499 44.0706 43.5699 44.0706H42.3999C42.1899 44.0706 41.9999 44.0306 41.8099 43.9506C41.6299 43.8706 41.4599 43.7706 41.3299 43.6306C41.1999 43.5006 41.0899 43.3406 41.0099 43.1506C40.9299 42.9706 40.8999 42.7706 40.8999 42.5606V40.5906H41.6399V42.4506C41.6399 42.5506 41.6599 42.6506 41.6899 42.7406C41.7299 42.8306 41.7799 42.9106 41.8499 42.9806C41.9199 43.0506 41.9999 43.1006 42.0899 43.1306C42.1799 43.1706 42.2799 43.1906 42.3799 43.1906H43.5899C43.7599 43.1906 43.8999 43.1306 44.0199 43.0106C44.1399 42.8906 44.1999 42.7506 44.1999 42.5806V40.4706H44.9399V41.7006C44.9399 41.7906 44.9699 41.8606 45.0299 41.9206C45.0999 41.9806 45.1699 42.0106 45.2599 42.0106H45.4599C45.5499 42.0106 45.6299 41.9806 45.6999 41.9306C45.7699 41.8806 45.8099 41.8006 45.8299 41.7106L46.0699 40.4906L46.7999 40.6206L46.5999 41.6406C46.5799 41.7406 46.5999 41.8306 46.6599 41.9006C46.7299 41.9706 46.8099 42.0106 46.8999 42.0106H47.0799C47.1699 42.0106 47.2499 41.9806 47.3099 41.9206C47.3699 41.8606 47.3999 41.7806 47.3999 41.6906V40.2806H48.1399V41.6806L48.1499 41.7006ZM47.0099 39.8906H46.2399V39.1206H47.0099V39.8906ZM45.8799 39.8906H45.1099V39.1206H45.8799V39.8906ZM46.4299 38.8706H45.6599V38.1006H46.4299V38.8706ZM49.8799 38.6006H50.6499V39.3706H49.8799V38.6006ZM48.8499 42.9006C48.7899 42.9006 48.7599 42.8706 48.7599 42.8106V42.1306C48.7599 42.1306 48.7699 42.0906 48.7899 42.0606C48.8099 42.0406 48.8299 42.0306 48.8499 42.0306H50.0599C50.2499 42.0306 50.4299 42.0006 50.6199 41.9406C50.7999 41.8806 50.9599 41.7806 51.0899 41.6406L51.4799 41.2206L51.5399 41.1606L51.5699 41.1306L50.1599 40.7106C50.1599 40.7106 50.0699 40.7106 50.0399 40.7206C50.0099 40.7406 49.9799 40.7706 49.9699 40.8106L49.7099 41.4806L49.0599 41.3006L49.2399 40.6806C49.2799 40.5406 49.3399 40.4206 49.4299 40.3206C49.5199 40.2206 49.6099 40.1406 49.7299 40.0906C49.8399 40.0306 49.9599 40.0006 50.0899 39.9906C50.2199 39.9806 50.3399 39.9906 50.4499 40.0206L53.1299 40.8206L52.9099 41.5106L52.5899 41.4206C52.5099 41.4006 52.4499 41.4006 52.3899 41.4106C52.3399 41.4106 52.2899 41.4406 52.2499 41.4606V41.6906C52.2499 41.7806 52.2799 41.8606 52.3399 41.9206C52.3999 41.9806 52.4799 42.0106 52.5699 42.0106H53.4699C53.5299 42.0106 53.5599 42.0406 53.5599 42.1006V42.7906C53.5599 42.8506 53.5299 42.8806 53.4699 42.8806H52.6999C52.4299 42.8806 52.1999 42.8006 52.0099 42.6506C51.8299 42.4906 51.6999 42.2906 51.6299 42.0506L51.3599 42.3206C51.1699 42.5106 50.9399 42.6506 50.6899 42.7406C50.4299 42.8306 50.1699 42.8706 49.8999 42.8706H48.8599L48.8499 42.9006ZM53.7299 43.7006H54.4999V44.4706H53.7299V43.7006ZM54.8599 43.7006H55.6299V44.4706H54.8599V43.7006ZM54.2899 44.7306H55.0599V45.5006H54.2899V44.7306ZM55.1099 42.0206C55.1999 42.0206 55.2799 41.9906 55.3399 41.9306C55.3999 41.8606 55.4299 41.7806 55.4299 41.6906V40.3006H56.1699V41.6906C56.1699 41.8606 56.1399 42.0106 56.0799 42.1606C56.0199 42.3006 55.9299 42.4306 55.8199 42.5406C55.7099 42.6506 55.5799 42.7306 55.4399 42.8006C55.2999 42.8606 55.1399 42.8906 54.9799 42.8906H53.5699C53.5699 42.8906 53.5199 42.8906 53.4999 42.8606C53.4799 42.8406 53.4699 42.8206 53.4699 42.7906V42.1106C53.4699 42.1106 53.4699 42.0606 53.4999 42.0406C53.5199 42.0206 53.5399 42.0106 53.5699 42.0106H55.1199L55.1099 42.0206Z" fill="white"/>
<path d="M10.8398 37.1797C11.4298 37.1797 11.8998 37.6597 11.8998 38.2397V45.6697C11.8998 46.2597 11.4198 46.7297 10.8398 46.7297C10.2498 46.7297 9.77979 46.2497 9.77979 45.6697V38.2397C9.77979 37.6497 10.2598 37.1797 10.8398 37.1797Z" fill="#222222"/>
<path d="M15.0898 37.1797C15.6798 37.1797 16.1498 37.6597 16.1498 38.2397V45.6697C16.1498 46.2597 15.6698 46.7297 15.0898 46.7297C14.4998 46.7297 14.0298 46.2497 14.0298 45.6697V38.2397C14.0298 37.6497 14.5098 37.1797 15.0898 37.1797Z" fill="#222222"/>
<path d="M6.84057 14.0523C6.61657 14.0523 6.4059 14.0097 6.20857 13.9243C6.01657 13.8443 5.84857 13.7323 5.70457 13.5883C5.56057 13.4443 5.4459 13.2737 5.36057 13.0763C5.28057 12.8843 5.24057 12.6763 5.24057 12.4523V10.3163H5.79257V12.3643C5.79257 12.5083 5.81924 12.6417 5.87257 12.7643C5.9259 12.8923 5.9979 13.0017 6.08857 13.0923C6.18457 13.1883 6.29657 13.263 6.42457 13.3163C6.55257 13.3697 6.68857 13.3963 6.83257 13.3963H8.21657C8.33924 13.3963 8.4539 13.3723 8.56057 13.3243C8.66724 13.2817 8.76057 13.2203 8.84057 13.1403C8.92057 13.0657 8.9819 12.975 9.02457 12.8683C9.07257 12.767 9.09657 12.655 9.09657 12.5323V10.1803H9.64857V12.6283C9.64857 12.8257 9.61124 13.0097 9.53657 13.1803C9.4619 13.3563 9.3579 13.5083 9.22457 13.6363C9.09657 13.7643 8.94457 13.8657 8.76857 13.9403C8.5979 14.015 8.4139 14.0523 8.21657 14.0523H6.84057ZM7.10457 9.49234H7.78457V10.1723H7.10457V9.49234ZM12.3958 12.5403C12.3958 12.615 12.3585 12.6523 12.2838 12.6523H11.9878C11.8225 12.6523 11.6652 12.6203 11.5158 12.5563C11.3665 12.4923 11.2358 12.4043 11.1238 12.2923C11.0118 12.1803 10.9238 12.0497 10.8598 11.9003C10.7958 11.751 10.7638 11.5937 10.7638 11.4283V7.38034H11.3158V11.4203C11.3158 11.5803 11.3718 11.7163 11.4838 11.8283C11.6012 11.9403 11.7372 11.9963 11.8918 11.9963H12.2838C12.3158 11.9963 12.3425 12.0097 12.3638 12.0363C12.3852 12.0577 12.3958 12.0843 12.3958 12.1163V12.5403ZM13.465 10.4203L13.057 10.0363L15.161 7.58034L15.553 7.94834L13.977 9.82034H17.129C17.2837 9.82034 17.4277 9.84968 17.561 9.90834C17.6997 9.96701 17.8197 10.047 17.921 10.1483C18.0223 10.2443 18.1023 10.3617 18.161 10.5003C18.2197 10.6337 18.249 10.7777 18.249 10.9323V11.5323C18.249 11.687 18.2197 11.8337 18.161 11.9723C18.1023 12.1057 18.0197 12.223 17.913 12.3243C17.8117 12.4257 17.6917 12.5057 17.553 12.5643C17.4197 12.623 17.2757 12.6523 17.121 12.6523H12.281C12.249 12.6523 12.2223 12.6417 12.201 12.6203C12.1797 12.5937 12.169 12.567 12.169 12.5403V12.1083C12.169 12.0337 12.2063 11.9963 12.281 11.9963H17.201C17.3397 12.0017 17.457 11.9563 17.553 11.8603C17.649 11.759 17.697 11.6363 17.697 11.4923V10.9563C17.697 10.807 17.6437 10.6817 17.537 10.5803C17.4357 10.4737 17.3077 10.4203 17.153 10.4203H13.465ZM12.721 9.10034L14.337 7.18834L14.625 7.45234L13.009 9.34834L12.721 9.10034ZM20.2059 12.6523C20.0886 12.6523 19.9766 12.631 19.8699 12.5883C19.7633 12.5403 19.6699 12.4763 19.5899 12.3963C19.5153 12.3163 19.4539 12.223 19.4059 12.1163C19.3633 12.0097 19.3419 11.8977 19.3419 11.7803V10.9323H19.8139V11.6603C19.8139 11.751 19.8406 11.831 19.8939 11.9003C19.9473 11.9643 20.0273 11.9963 20.1339 11.9963H21.3899C21.5499 11.9963 21.6806 11.9617 21.7819 11.8923C21.8833 11.823 21.9579 11.7403 22.0059 11.6443C22.0539 11.543 22.0753 11.4337 22.0699 11.3163C22.0646 11.199 22.0353 11.0923 21.9819 10.9963L21.0619 9.35634L21.5259 9.04434L22.4379 10.6763C22.5713 10.9057 22.6353 11.1403 22.6299 11.3803C22.6299 11.615 22.5766 11.8257 22.4699 12.0123C22.3686 12.199 22.2193 12.3537 22.0219 12.4763C21.8299 12.5937 21.6086 12.6523 21.3579 12.6523H20.2059ZM24.2768 12.6523H23.7248V7.38034H24.2768V12.6523ZM23.9339 14.6443L23.7579 14.1003L24.7259 13.7803C24.9552 13.7057 25.1392 13.5697 25.2779 13.3723C25.4219 13.175 25.4939 12.9563 25.4939 12.7163V10.1883H26.0459V12.6683C26.0459 12.855 26.0165 13.0363 25.9579 13.2123C25.8992 13.3883 25.8165 13.5483 25.7099 13.6923C25.6085 13.8363 25.4832 13.9643 25.3339 14.0763C25.1899 14.1883 25.0299 14.2737 24.8539 14.3323L23.9339 14.6443ZM25.4219 8.56434H26.1019V9.24434H25.4219V8.56434ZM28.6709 10.1883V11.4443C28.6709 11.599 28.7269 11.7297 28.8389 11.8363C28.9562 11.943 29.0922 11.9963 29.2469 11.9963H30.0469C30.0789 11.9963 30.1055 12.0097 30.1269 12.0363C30.1482 12.0577 30.1589 12.0843 30.1589 12.1163V12.5403C30.1589 12.615 30.1215 12.6523 30.0469 12.6523H29.3429C29.2149 12.6523 29.0895 12.6257 28.9669 12.5723C28.8442 12.519 28.7455 12.439 28.6709 12.3323V12.6843C28.6709 12.871 28.6415 13.0497 28.5829 13.2203C28.5242 13.3963 28.4415 13.5563 28.3349 13.7003C28.2335 13.8443 28.1082 13.9697 27.9589 14.0763C27.8095 14.1883 27.6469 14.2737 27.4709 14.3323L26.5589 14.6523L26.3829 14.1003L27.3509 13.7803C27.5855 13.7057 27.7722 13.5697 27.9109 13.3723C28.0495 13.175 28.1189 12.9563 28.1189 12.7163V10.1883H28.6709ZM30.7506 11.9963V11.0203C30.7506 10.8657 30.78 10.7217 30.8386 10.5883C30.8973 10.4497 30.9746 10.3297 31.0706 10.2283C31.172 10.127 31.2893 10.047 31.4226 9.98834C31.5613 9.92968 31.7106 9.90034 31.8706 9.90034H32.1746C32.4253 9.90034 32.6466 9.98034 32.8386 10.1403C33.036 10.3003 33.1586 10.5057 33.2066 10.7563L33.3266 11.3883C33.3586 11.5483 33.3533 11.7057 33.3106 11.8603C33.2733 12.0097 33.2066 12.143 33.1106 12.2603C33.0146 12.3777 32.8946 12.4737 32.7506 12.5483C32.612 12.6177 32.46 12.6523 32.2946 12.6523H31.6226C31.564 12.6523 31.508 12.647 31.4546 12.6363C31.4013 12.6203 31.348 12.6043 31.2946 12.5883C31.3 12.5883 31.3026 12.615 31.3026 12.6683C31.3026 12.9243 31.3533 13.119 31.4546 13.2523C31.556 13.391 31.7106 13.4817 31.9186 13.5243L32.6386 13.6603L33.2866 12.6523C33.564 12.215 33.9666 11.9963 34.4946 11.9963H34.6066C34.6813 11.9963 34.7186 12.0337 34.7186 12.1083V12.5323C34.7186 12.5643 34.708 12.5937 34.6866 12.6203C34.6653 12.6417 34.6386 12.6523 34.6066 12.6523H34.3586C34.204 12.6523 34.0706 12.6843 33.9586 12.7483C33.852 12.8177 33.7533 12.9217 33.6626 13.0603C33.652 13.0763 33.6253 13.1163 33.5826 13.1803C33.5453 13.2443 33.4973 13.319 33.4386 13.4043C33.3853 13.495 33.3266 13.5883 33.2626 13.6843C33.1986 13.7803 33.14 13.8683 33.0866 13.9483C33.0333 14.0337 32.988 14.1057 32.9506 14.1643C32.9133 14.223 32.892 14.255 32.8866 14.2603L31.6946 13.9963C31.396 13.9323 31.164 13.7883 30.9986 13.5643C30.8386 13.3457 30.756 13.0417 30.7506 12.6523H30.0466C30.0146 12.6523 29.988 12.6417 29.9666 12.6203C29.9453 12.5937 29.9346 12.5643 29.9346 12.5323V12.1083C29.9346 12.0337 29.972 11.9963 30.0466 11.9963H30.7506ZM31.3026 11.0123V11.9963H32.3506C32.42 11.9963 32.484 11.983 32.5426 11.9563C32.6013 11.9243 32.6493 11.8843 32.6866 11.8363C32.7293 11.7883 32.7586 11.7323 32.7746 11.6683C32.796 11.6043 32.8013 11.5377 32.7906 11.4683L32.6866 10.9243C32.6653 10.8017 32.6066 10.703 32.5106 10.6283C32.42 10.5483 32.3133 10.5083 32.1906 10.5083H31.7986C31.66 10.5083 31.5426 10.559 31.4466 10.6603C31.3506 10.7563 31.3026 10.8737 31.3026 11.0123ZM36.4811 11.9963H37.6971V10.9243C37.6971 10.7857 37.6465 10.6683 37.5451 10.5723C37.4491 10.471 37.3291 10.4203 37.1851 10.4203H36.6651C36.5425 10.4203 36.4358 10.4603 36.3451 10.5403C36.2545 10.615 36.1958 10.711 36.1691 10.8283L36.0491 11.4763C36.0225 11.615 36.0518 11.7377 36.1371 11.8443C36.2278 11.9457 36.3425 11.9963 36.4811 11.9963ZM35.4811 11.4923L35.6491 10.6683C35.6705 10.5457 35.7131 10.431 35.7771 10.3243C35.8411 10.2177 35.9185 10.127 36.0091 10.0523C36.0998 9.97768 36.2011 9.91901 36.3131 9.87634C36.4305 9.83368 36.5531 9.81234 36.6811 9.81234H37.1291C37.2838 9.81234 37.4278 9.84168 37.5611 9.90034C37.6998 9.95901 37.8198 10.039 37.9211 10.1403C38.0225 10.2417 38.1025 10.359 38.1611 10.4923C38.2198 10.6257 38.2491 10.7697 38.2491 10.9243V11.9323C38.2491 12.1457 38.1825 12.319 38.0491 12.4523C37.9211 12.5857 37.7451 12.6523 37.5211 12.6523H36.5451C36.3745 12.6523 36.2171 12.6123 36.0731 12.5323C35.9345 12.447 35.8198 12.311 35.7291 12.1243C35.6331 12.311 35.5051 12.447 35.3451 12.5323C35.1851 12.6123 35.0171 12.6523 34.8411 12.6523H34.6091C34.5345 12.6523 34.4971 12.615 34.4971 12.5403V12.1083C34.4971 12.0817 34.5078 12.0577 34.5291 12.0363C34.5505 12.0097 34.5771 11.9963 34.6091 11.9963H34.8651C35.0198 11.9963 35.1531 11.9483 35.2651 11.8523C35.3825 11.7563 35.4545 11.6363 35.4811 11.4923ZM41.9654 14.0443C41.7467 14.0443 41.5387 14.0017 41.3414 13.9163C41.1494 13.831 40.9814 13.7137 40.8374 13.5643C40.6934 13.4203 40.5787 13.2497 40.4934 13.0523C40.408 12.8603 40.3654 12.6523 40.3654 12.4283V10.5323L40.9174 10.5403V12.3403C40.9174 12.4843 40.944 12.6203 40.9974 12.7483C41.0507 12.8763 41.1254 12.9857 41.2214 13.0763C41.3174 13.1723 41.4267 13.247 41.5494 13.3003C41.6774 13.359 41.8134 13.3883 41.9574 13.3883H43.3414C43.464 13.3883 43.5787 13.3643 43.6854 13.3163C43.792 13.2737 43.8854 13.2123 43.9654 13.1323C44.0454 13.0523 44.1067 12.959 44.1494 12.8523C44.1974 12.7457 44.2214 12.631 44.2214 12.5083V7.38034H44.7734V11.4203C44.7734 11.5803 44.8294 11.7163 44.9414 11.8283C45.0534 11.9403 45.1894 11.9963 45.3494 11.9963H45.7734C45.8 11.9963 45.824 12.0097 45.8454 12.0363C45.872 12.0577 45.8854 12.0817 45.8854 12.1083V12.5323C45.8854 12.6123 45.848 12.6523 45.7734 12.6523H45.4694C45.3414 12.6523 45.216 12.631 45.0934 12.5883C44.976 12.5403 44.8667 12.455 44.7654 12.3323V12.6443C44.7654 12.8257 44.728 12.999 44.6534 13.1643C44.584 13.335 44.4854 13.4843 44.3574 13.6123C44.2294 13.7457 44.0774 13.8497 43.9014 13.9243C43.7307 14.0043 43.544 14.0443 43.3414 14.0443H41.9654ZM46.2852 14.2923H46.9652V13.6123H46.2852V14.2923ZM47.3812 14.2923H48.0612V13.6123H47.3812V14.2923ZM48.6532 12.5403C48.6532 12.615 48.6159 12.6523 48.5412 12.6523H48.0452C47.9545 12.6523 47.8639 12.639 47.7732 12.6123C47.6825 12.5857 47.5972 12.5483 47.5172 12.5003C47.4372 12.4523 47.3679 12.3963 47.3092 12.3323C47.2505 12.2683 47.2105 12.199 47.1892 12.1243C47.0985 12.279 46.9679 12.407 46.7972 12.5083C46.6319 12.6043 46.4559 12.6523 46.2692 12.6523H45.7732C45.6985 12.6523 45.6612 12.615 45.6612 12.5403V12.1163C45.6612 12.0843 45.6719 12.0577 45.6932 12.0363C45.7145 12.0097 45.7412 11.9963 45.7732 11.9963H46.2932C46.4479 11.9963 46.5812 11.9483 46.6932 11.8523C46.8105 11.7563 46.8852 11.6363 46.9172 11.4923L47.1652 10.2283L47.7092 10.3163L47.5012 11.3723C47.4852 11.4523 47.4879 11.5323 47.5092 11.6123C47.5305 11.687 47.5679 11.7537 47.6212 11.8123C47.6745 11.8657 47.7385 11.911 47.8132 11.9483C47.8879 11.9803 47.9679 11.9963 48.0532 11.9963H48.5412C48.5732 11.9963 48.5999 12.0097 48.6212 12.0363C48.6425 12.0577 48.6532 12.0843 48.6532 12.1163V12.5403ZM49.2428 11.9963V11.0203C49.2428 10.8657 49.2722 10.7217 49.3308 10.5883C49.3895 10.4497 49.4668 10.3297 49.5628 10.2283C49.6642 10.127 49.7815 10.047 49.9148 9.98834C50.0535 9.92968 50.2028 9.90034 50.3628 9.90034H50.6668C50.9175 9.90034 51.1388 9.98034 51.3308 10.1403C51.5282 10.3003 51.6508 10.5057 51.6988 10.7563L51.8188 11.3883C51.8508 11.5483 51.8455 11.7057 51.8028 11.8603C51.7655 12.0097 51.6988 12.143 51.6028 12.2603C51.5068 12.3777 51.3868 12.4737 51.2428 12.5483C51.1042 12.6177 50.9522 12.6523 50.7868 12.6523H50.1148C50.0562 12.6523 50.0002 12.647 49.9468 12.6363C49.8935 12.6203 49.8402 12.6043 49.7868 12.5883C49.7922 12.5883 49.7948 12.615 49.7948 12.6683C49.7948 12.9243 49.8455 13.119 49.9468 13.2523C50.0482 13.391 50.2028 13.4817 50.4108 13.5243L51.1308 13.6603L51.7788 12.6523C52.0562 12.215 52.4588 11.9963 52.9868 11.9963H53.0988C53.1735 11.9963 53.2108 12.0337 53.2108 12.1083V12.5323C53.2108 12.5643 53.2002 12.5937 53.1788 12.6203C53.1575 12.6417 53.1308 12.6523 53.0988 12.6523H52.8508C52.6962 12.6523 52.5628 12.6843 52.4508 12.7483C52.3442 12.8177 52.2455 12.9217 52.1548 13.0603C52.1442 13.0763 52.1175 13.1163 52.0748 13.1803C52.0375 13.2443 51.9895 13.319 51.9308 13.4043C51.8775 13.495 51.8188 13.5883 51.7548 13.6843C51.6908 13.7803 51.6322 13.8683 51.5788 13.9483C51.5255 14.0337 51.4802 14.1057 51.4428 14.1643C51.4055 14.223 51.3842 14.255 51.3788 14.2603L50.1868 13.9963C49.8882 13.9323 49.6562 13.7883 49.4908 13.5643C49.3308 13.3457 49.2482 13.0417 49.2428 12.6523H48.5388C48.5068 12.6523 48.4802 12.6417 48.4588 12.6203C48.4375 12.5937 48.4268 12.5643 48.4268 12.5323V12.1083C48.4268 12.0337 48.4642 11.9963 48.5388 11.9963H49.2428ZM49.7948 11.0123V11.9963H50.8428C50.9122 11.9963 50.9762 11.983 51.0348 11.9563C51.0935 11.9243 51.1415 11.8843 51.1788 11.8363C51.2215 11.7883 51.2508 11.7323 51.2668 11.6683C51.2882 11.6043 51.2935 11.5377 51.2828 11.4683L51.1788 10.9243C51.1575 10.8017 51.0988 10.703 51.0028 10.6283C50.9122 10.5483 50.8055 10.5083 50.6828 10.5083H50.2908C50.1522 10.5083 50.0348 10.559 49.9388 10.6603C49.8428 10.7563 49.7948 10.8737 49.7948 11.0123ZM55.2213 12.6523C55.0293 12.6523 54.8507 12.6097 54.6853 12.5243C54.52 12.4337 54.384 12.3003 54.2773 12.1243C54.1707 12.3003 54.0347 12.4337 53.8693 12.5243C53.704 12.6097 53.5253 12.6523 53.3333 12.6523H53.1013C53.0267 12.6523 52.9893 12.615 52.9893 12.5403V12.1083C52.9893 12.0763 53.0027 12.0497 53.0293 12.0283C53.0507 12.007 53.0747 11.9963 53.1013 11.9963H53.4293C53.5893 11.9963 53.7253 11.9403 53.8373 11.8283C53.9493 11.7163 54.0053 11.5803 54.0053 11.4203V10.1723H54.5573V11.4283C54.5573 11.5883 54.6133 11.7243 54.7253 11.8363C54.8373 11.943 54.9707 11.9963 55.1253 11.9963H55.2693C55.424 11.9963 55.56 11.951 55.6773 11.8603C55.7947 11.7643 55.8667 11.6417 55.8933 11.4923L56.1493 10.2283L56.6853 10.3243L56.4773 11.3723C56.4453 11.543 56.4853 11.6897 56.5973 11.8123C56.7147 11.935 56.8587 11.9963 57.0293 11.9963H57.7173V9.94834H58.2693V11.9323C58.2693 12.151 58.2027 12.327 58.0693 12.4603C57.936 12.5883 57.7627 12.6523 57.5493 12.6523H57.0213C56.8453 12.6523 56.6773 12.607 56.5173 12.5163C56.3573 12.4257 56.2373 12.295 56.1573 12.1243C56.0507 12.3057 55.9147 12.439 55.7493 12.5243C55.584 12.6097 55.408 12.6523 55.2213 12.6523ZM14.7078 19.5323C14.7078 19.5323 14.7212 19.5883 14.7478 19.7003C14.7798 19.8123 14.8118 19.9537 14.8438 20.1243C14.8812 20.295 14.9158 20.4817 14.9478 20.6843C14.9798 20.887 15.0012 21.079 15.0118 21.2603C15.0172 21.319 15.0412 21.3617 15.0838 21.3883C15.1265 21.415 15.1745 21.4283 15.2278 21.4283H16.0518V19.6043H17.3398V21.6123C17.3398 21.767 17.3052 21.9163 17.2358 22.0603C17.1718 22.2043 17.0838 22.3323 16.9718 22.4443C16.8652 22.551 16.7398 22.6363 16.5958 22.7003C16.4572 22.7643 16.3105 22.7963 16.1558 22.7963H15.4758C15.3852 22.7963 15.2918 22.7777 15.1958 22.7403C15.1052 22.703 15.0545 22.671 15.0438 22.6443V25.6443H13.7558V21.9883C13.7558 21.7537 13.7425 21.5217 13.7158 21.2923C13.6892 21.0577 13.6545 20.8257 13.6118 20.5963L13.4438 19.7563L14.7078 19.5323ZM19.2391 19.5323C19.2391 19.5323 19.2524 19.5883 19.2791 19.7003C19.3111 19.8123 19.3431 19.9537 19.3751 20.1243C19.4124 20.295 19.4471 20.4817 19.4791 20.6843C19.5111 20.887 19.5324 21.079 19.5431 21.2603C19.5484 21.319 19.5724 21.3617 19.6151 21.3883C19.6578 21.415 19.7058 21.4283 19.7591 21.4283H20.5831V19.6043H21.8711V21.6123C21.8711 21.767 21.8364 21.9163 21.7671 22.0603C21.7031 22.2043 21.6151 22.3323 21.5031 22.4443C21.3964 22.551 21.2711 22.6363 21.1271 22.7003C20.9884 22.7643 20.8418 22.7963 20.6871 22.7963H20.0071C19.9164 22.7963 19.8231 22.7777 19.7271 22.7403C19.6364 22.703 19.5858 22.671 19.5751 22.6443V25.6443H18.2871V21.9883C18.2871 21.7537 18.2738 21.5217 18.2471 21.2923C18.2204 21.0577 18.1858 20.8257 18.1431 20.5963L17.9751 19.7563L19.2391 19.5323ZM25.2663 19.3803C25.3037 19.8497 25.3703 20.3243 25.4663 20.8043C25.5677 21.279 25.6957 21.7483 25.8503 22.2123C26.005 22.6763 26.189 23.1297 26.4023 23.5723C26.621 24.0097 26.8637 24.423 27.1303 24.8123L26.1063 25.6603C26.085 25.6177 26.0343 25.527 25.9543 25.3883C25.8743 25.2443 25.781 25.0657 25.6743 24.8523C25.5677 24.639 25.4557 24.4017 25.3383 24.1403C25.2263 23.879 25.1223 23.607 25.0263 23.3243C24.9303 23.0417 24.8503 22.759 24.7863 22.4763C24.7223 22.1883 24.6903 21.919 24.6903 21.6683C24.6903 21.935 24.6583 22.215 24.5943 22.5083C24.5303 22.7963 24.4503 23.0817 24.3543 23.3643C24.2583 23.647 24.1517 23.919 24.0343 24.1803C23.9223 24.4417 23.813 24.6763 23.7063 24.8843C23.605 25.0923 23.5143 25.2657 23.4343 25.4043C23.3543 25.543 23.301 25.6283 23.2743 25.6603L22.2503 24.8123C22.5223 24.423 22.7623 24.0123 22.9703 23.5803C23.1783 23.1483 23.357 22.703 23.5063 22.2443C23.661 21.7857 23.789 21.3163 23.8903 20.8363C23.9917 20.351 24.0663 19.8657 24.1143 19.3803H25.2663ZM29.124 20.6843L28.852 20.4283L29.716 19.3643L30.868 20.4763C31.092 20.6897 31.3106 20.9137 31.524 21.1483C31.7373 21.3777 31.924 21.6283 32.084 21.9003C32.2493 22.167 32.38 22.463 32.476 22.7883C32.5773 23.1137 32.628 23.4817 32.628 23.8923C32.628 24.143 32.596 24.375 32.532 24.5883C32.4733 24.8017 32.38 24.9883 32.252 25.1483C32.124 25.303 31.9613 25.4257 31.764 25.5163C31.572 25.6017 31.3426 25.6443 31.076 25.6443C30.8893 25.6443 30.7106 25.623 30.54 25.5803C30.3746 25.5377 30.236 25.4843 30.124 25.4203C30.0066 25.479 29.8626 25.5323 29.692 25.5803C29.5213 25.623 29.364 25.6443 29.22 25.6443C28.916 25.6443 28.66 25.5937 28.452 25.4923C28.244 25.391 28.076 25.2603 27.948 25.1003C27.82 24.935 27.7266 24.7483 27.668 24.5403C27.6093 24.327 27.58 24.111 27.58 23.8923C27.58 23.551 27.6226 23.2337 27.708 22.9403C27.7933 22.6417 27.908 22.3617 28.052 22.1003C28.196 21.8337 28.3613 21.5857 28.548 21.3563C28.7346 21.1217 28.9266 20.8977 29.124 20.6843ZM30.124 21.5723C29.82 21.8497 29.5773 22.087 29.396 22.2843C29.2146 22.4763 29.0733 22.655 28.972 22.8203C28.876 22.9803 28.812 23.1457 28.78 23.3163C28.748 23.4817 28.732 23.6763 28.732 23.9003C28.732 24.0603 28.78 24.1643 28.876 24.2123C28.9773 24.255 29.084 24.2763 29.196 24.2763H29.212C29.2813 24.2763 29.3373 24.2523 29.38 24.2043C29.428 24.151 29.476 24.039 29.524 23.8683L29.644 23.4283L30.74 23.6443L30.628 24.1483C30.6546 24.207 30.6866 24.2443 30.724 24.2603C30.7613 24.2763 30.8093 24.2843 30.868 24.2843H31.036C31.1373 24.2843 31.236 24.2577 31.332 24.2043C31.428 24.151 31.476 24.0497 31.476 23.9003C31.4813 23.655 31.46 23.4417 31.412 23.2603C31.3693 23.079 31.2946 22.9057 31.188 22.7403C31.0866 22.5697 30.948 22.3937 30.772 22.2123C30.596 22.031 30.38 21.8177 30.124 21.5723ZM33.5747 25.6523V21.9963C33.5747 21.5217 33.5267 21.0577 33.4307 20.6043L33.2627 19.7643L34.5267 19.5403L34.7027 20.4203C34.7613 20.6923 34.8013 20.9617 34.8227 21.2283C34.8493 21.4897 34.8627 21.751 34.8627 22.0123V25.6523H33.5747ZM36.4692 21.9323H37.6692V23.1563H36.4692V21.9323ZM36.4692 24.4283H37.6692V25.6523H36.4692V24.4283ZM42.671 24.2923H42.895C42.9216 24.2923 42.9456 24.3057 42.967 24.3323C42.9936 24.359 43.007 24.3883 43.007 24.4203V25.5403C43.007 25.567 42.9963 25.5937 42.975 25.6203C42.9536 25.6417 42.927 25.6523 42.895 25.6523H42.775C42.5563 25.6523 42.3643 25.6097 42.199 25.5243C42.039 25.439 41.903 25.343 41.791 25.2363C41.6416 25.391 41.479 25.5003 41.303 25.5643C41.127 25.623 40.943 25.6523 40.751 25.6523H39.743C39.5776 25.6523 39.4203 25.6203 39.271 25.5563C39.1216 25.4923 38.991 25.407 38.879 25.3003C38.767 25.1883 38.679 25.0577 38.615 24.9083C38.551 24.759 38.519 24.6017 38.519 24.4363V23.2363H39.479V24.1643C39.479 24.2497 39.5243 24.2923 39.615 24.2923H40.767C40.879 24.2923 40.9776 24.2577 41.063 24.1883C41.1483 24.1137 41.175 24.015 41.143 23.8923L40.463 21.4523L41.559 21.0523L42.415 24.1003C42.431 24.159 42.463 24.207 42.511 24.2443C42.559 24.2763 42.6123 24.2923 42.671 24.2923ZM44.0143 23.3643L43.1903 22.5723L45.7423 19.5723L46.5743 20.3403L45.0863 22.1003H48.0383C48.241 22.1003 48.4303 22.1403 48.6063 22.2203C48.7876 22.295 48.945 22.399 49.0783 22.5323C49.2116 22.6657 49.3156 22.823 49.3903 23.0043C49.4703 23.1803 49.5103 23.3723 49.5103 23.5803V24.1723C49.5103 24.3857 49.4676 24.583 49.3823 24.7643C49.297 24.9457 49.1823 25.103 49.0383 25.2363C48.8996 25.3697 48.7396 25.4737 48.5583 25.5483C48.377 25.6177 48.1876 25.6523 47.9903 25.6523H42.8943C42.8676 25.6523 42.8436 25.6417 42.8223 25.6203C42.7956 25.5937 42.7823 25.567 42.7823 25.5403V24.4043C42.7823 24.3777 42.793 24.3537 42.8143 24.3323C42.8356 24.3057 42.8623 24.2923 42.8943 24.2923H48.2143C48.241 24.2923 48.2703 24.2817 48.3023 24.2603C48.3396 24.239 48.3583 24.2017 48.3583 24.1483V23.5483C48.3583 23.495 48.3396 23.4523 48.3023 23.4203C48.265 23.383 48.2223 23.3643 48.1743 23.3643H44.0143Z" fill="black"/>
</svg>
