<svg width="63" height="56" viewBox="0 0 63 56" fill="none" xmlns="http://www.w3.org/2000/svg">
<path d="M12.81 1H50.57C57.09 1 62.39 6.29 62.39 12.82V55.32H1V12.82C1 6.3 6.29001 1 12.82 1H12.81Z" fill="white" stroke="#19B5FF" stroke-width="0.52" stroke-miterlimit="10"/>
<path d="M50.8548 32.4805H12.5348C7.38482 32.4805 3.21484 36.6505 3.21484 41.8005C3.21484 46.9505 7.38482 51.1205 12.5348 51.1205H50.8548C56.0048 51.1205 60.1748 46.9505 60.1748 41.8005C60.1748 36.6505 56.0048 32.4805 50.8548 32.4805Z" fill="#696969"/>
<path d="M12.9748 49.811C17.3986 49.811 20.9848 46.2248 20.9848 41.801C20.9848 37.3772 17.3986 33.791 12.9748 33.791C8.55102 33.791 4.96484 37.3772 4.96484 41.801C4.96484 46.2248 8.55102 49.811 12.9748 49.811Z" fill="white"/>
<path d="M17.1149 42.6409C17.7349 42.2509 17.7349 41.3609 17.1149 40.9709L11.0549 37.1809C10.4049 36.7709 9.54492 37.2409 9.54492 38.0109V45.6009C9.54492 46.3709 10.3949 46.8409 11.0549 46.4309L17.1149 42.6409Z" fill="#696969"/>
<path d="M23.1748 42.4105V40.4405H23.9148V42.3105C23.9148 42.4105 23.9348 42.5105 23.9648 42.6005C24.0048 42.6905 24.0548 42.7705 24.1248 42.8405C24.1948 42.9105 24.2748 42.9605 24.3648 42.9905C24.4548 43.0305 24.5548 43.0505 24.6548 43.0505H25.8648C26.0348 43.0505 26.1748 42.9905 26.2948 42.8705C26.4148 42.7505 26.4748 42.6105 26.4748 42.4405V40.3305H27.2148V41.5405C27.2148 41.6305 27.2448 41.7105 27.3048 41.7705C27.3648 41.8305 27.4448 41.8605 27.5348 41.8605H27.9548C27.9548 41.8605 28.0048 41.8705 28.0248 41.8905C28.0448 41.9105 28.0548 41.9305 28.0548 41.9605V42.6405C28.0548 42.6405 28.0548 42.6805 28.0248 42.7105C28.0048 42.7305 27.9848 42.7405 27.9548 42.7405H27.6548C27.5048 42.7405 27.4048 42.7105 27.3348 42.6605C27.2748 42.6105 27.2248 42.5605 27.2048 42.5305V42.7005C27.2048 42.8705 27.1648 43.0305 27.0948 43.1805C27.0248 43.3305 26.9248 43.4605 26.7948 43.5705C26.6748 43.6805 26.5348 43.7705 26.3748 43.8305C26.2148 43.8905 26.0448 43.9205 25.8648 43.9205H24.6948C24.4848 43.9205 24.2948 43.8805 24.1048 43.8005C23.9248 43.7205 23.7548 43.6205 23.6248 43.4805C23.4948 43.3505 23.3848 43.1905 23.3048 43.0005C23.2248 42.8205 23.1948 42.6205 23.1948 42.4105H23.1748ZM24.8048 39.5605H25.5748V40.3305H24.8048V39.5605ZM29.5948 41.8605C29.6848 41.8605 29.7648 41.8305 29.8248 41.7705C29.8848 41.7005 29.9148 41.6205 29.9148 41.5305V40.1405H30.6548V41.5305C30.6548 41.7005 30.6248 41.8505 30.5648 42.0005C30.5048 42.1405 30.4148 42.2705 30.3048 42.3805C30.1948 42.4905 30.0648 42.5705 29.9248 42.6405C29.7848 42.7005 29.6248 42.7305 29.4648 42.7305H28.0548C28.0548 42.7305 28.0048 42.7305 27.9848 42.7005C27.9648 42.6805 27.9548 42.6605 27.9548 42.6305V41.9505C27.9548 41.9505 27.9548 41.9005 27.9848 41.8805C28.0048 41.8605 28.0248 41.8505 28.0548 41.8505H29.6048L29.5948 41.8605ZM28.1448 44.3205H28.9148V43.5505H28.1448V44.3205ZM29.2648 44.3205H30.0348V43.5505H29.2648V44.3205ZM35.3948 42.6405C35.3948 42.7005 35.3648 42.7305 35.3048 42.7305H35.0048C34.8248 42.7305 34.6648 42.7005 34.5248 42.6305C34.3748 42.5605 34.2448 42.4605 34.1448 42.3505C33.9548 42.5305 33.7248 42.6305 33.4648 42.6705L31.5448 42.9405L31.4448 42.1505L32.1748 42.0605L31.8448 38.5505L32.5948 38.4605L32.9048 41.9705L33.4048 41.9005C33.5248 41.8905 33.6248 41.8305 33.7048 41.7505C33.7848 41.6605 33.8248 41.5505 33.8248 41.4305V38.1405H34.5648V41.5505C34.5648 41.6405 34.5948 41.7205 34.6548 41.7805C34.7148 41.8405 34.7948 41.8705 34.8848 41.8705H35.3048C35.3648 41.8705 35.3948 41.9005 35.3948 41.9605V42.6505V42.6405ZM36.5348 41.8605C36.6248 41.8605 36.7048 41.8305 36.7648 41.7705C36.8248 41.7005 36.8548 41.6205 36.8548 41.5305V40.1405H37.5948V41.5305C37.5948 41.7005 37.5648 41.8505 37.5048 42.0005C37.4448 42.1405 37.3548 42.2705 37.2448 42.3805C37.1348 42.4905 37.0048 42.5705 36.8648 42.6405C36.7248 42.7005 36.5648 42.7305 36.4048 42.7305H35.4048C35.4048 42.7305 35.3548 42.7305 35.3348 42.7005C35.3148 42.6805 35.3048 42.6605 35.3048 42.6305V41.9505C35.3048 41.9505 35.3048 41.9005 35.3348 41.8805C35.3548 41.8605 35.3748 41.8505 35.4048 41.8505H36.5448L36.5348 41.8605ZM36.8248 39.5205H37.5948V38.7505H36.8248V39.5205ZM39.2148 42.7405H38.4748V38.6505H39.2148V42.7405ZM37.5648 38.4805V38.1205C37.5648 37.9105 37.6348 37.7605 37.7648 37.6505C37.8948 37.5405 38.0448 37.4805 38.2048 37.4805H39.5948V38.1205H38.2848C38.2848 38.1205 38.2048 38.1405 38.1748 38.1705C38.1548 38.2005 38.1448 38.2305 38.1448 38.2605V38.4805H37.5748H37.5648ZM48.1548 41.5405C48.1548 41.6305 48.1848 41.7105 48.2448 41.7705C48.3048 41.8305 48.3848 41.8605 48.4748 41.8605H48.7548C48.8148 41.8605 48.8448 41.8905 48.8448 41.9505V42.6405C48.8448 42.7005 48.8148 42.7305 48.7548 42.7305H48.5948C48.4348 42.7305 48.2848 42.7005 48.1448 42.6405C48.0048 42.5805 47.8848 42.4805 47.7748 42.3405C47.6648 42.4805 47.5348 42.5805 47.3848 42.6505C47.2348 42.7105 47.0748 42.7405 46.9248 42.7405C46.6048 42.7405 46.3548 42.6105 46.1748 42.3405C46.0748 42.4805 45.9548 42.5905 45.8348 42.6505C45.7148 42.7105 45.5748 42.7405 45.4248 42.7405C45.3448 42.7405 45.2648 42.7305 45.1648 42.7105C45.0748 42.6805 44.9948 42.6205 44.9348 42.5305V42.7105C44.9348 42.8805 44.8948 43.0405 44.8248 43.1805C44.7548 43.3305 44.6548 43.4605 44.5248 43.5605C44.3948 43.6705 44.2548 43.7605 44.0848 43.8205C43.9248 43.8805 43.7548 43.9105 43.5748 43.9105H42.4048C42.1948 43.9105 42.0048 43.8705 41.8148 43.7905C41.6348 43.7105 41.4648 43.6105 41.3348 43.4705C41.2048 43.3405 41.0948 43.1805 41.0148 42.9905C40.9348 42.8105 40.9048 42.6105 40.9048 42.4005V40.4305H41.6448V42.2905C41.6448 42.3905 41.6648 42.4905 41.6948 42.5805C41.7348 42.6705 41.7848 42.7505 41.8548 42.8205C41.9248 42.8905 42.0048 42.9405 42.0948 42.9705C42.1848 43.0105 42.2848 43.0305 42.3848 43.0305H43.5948C43.7648 43.0305 43.9048 42.9705 44.0248 42.8505C44.1448 42.7305 44.2048 42.5905 44.2048 42.4205V40.3105H44.9448V41.5405C44.9448 41.6305 44.9748 41.7005 45.0348 41.7605C45.1048 41.8205 45.1748 41.8505 45.2648 41.8505H45.4648C45.5548 41.8505 45.6348 41.8205 45.7048 41.7705C45.7748 41.7205 45.8148 41.6405 45.8348 41.5505L46.0748 40.3305L46.8048 40.4605L46.6048 41.4805C46.5848 41.5805 46.6048 41.6705 46.6648 41.7405C46.7348 41.8105 46.8148 41.8505 46.9048 41.8505H47.0848C47.1748 41.8505 47.2548 41.8205 47.3148 41.7605C47.3748 41.7005 47.4048 41.6205 47.4048 41.5305V40.1205H48.1448V41.5205L48.1548 41.5405ZM47.0148 39.7305H46.2448V38.9605H47.0148V39.7305ZM45.8848 39.7305H45.1148V38.9605H45.8848V39.7305ZM46.4448 38.7105H45.6748V37.9405H46.4448V38.7105ZM49.8848 38.4405H50.6548V39.2105H49.8848V38.4405ZM48.8548 42.7405C48.7948 42.7405 48.7648 42.7105 48.7648 42.6505V41.9705C48.7648 41.9705 48.7748 41.9305 48.7948 41.9005C48.8148 41.8805 48.8348 41.8705 48.8548 41.8705H50.0648C50.2548 41.8705 50.4348 41.8405 50.6248 41.7805C50.8048 41.7205 50.9648 41.6205 51.0948 41.4805L51.4848 41.0605L51.5448 41.0005L51.5748 40.9705L50.1648 40.5505C50.1648 40.5505 50.0748 40.5505 50.0448 40.5605C50.0148 40.5805 49.9848 40.6105 49.9748 40.6505L49.7148 41.3205L49.0648 41.1405L49.2448 40.5205C49.2848 40.3805 49.3448 40.2605 49.4348 40.1605C49.5248 40.0605 49.6148 39.9805 49.7348 39.9305C49.8448 39.8705 49.9648 39.8405 50.0948 39.8305C50.2248 39.8205 50.3448 39.8305 50.4548 39.8605L53.1348 40.6605L52.9148 41.3505L52.5948 41.2605C52.5148 41.2405 52.4548 41.2405 52.3948 41.2505C52.3448 41.2505 52.2948 41.2805 52.2548 41.3005V41.5305C52.2548 41.6205 52.2848 41.7005 52.3448 41.7605C52.4048 41.8205 52.4848 41.8505 52.5748 41.8505H53.4748C53.5348 41.8505 53.5648 41.8805 53.5648 41.9405V42.6305C53.5648 42.6905 53.5348 42.7205 53.4748 42.7205H52.7048C52.4348 42.7205 52.2048 42.6405 52.0148 42.4905C51.8348 42.3305 51.7048 42.1305 51.6348 41.8905L51.3648 42.1605C51.1748 42.3505 50.9448 42.4905 50.6948 42.5805C50.4348 42.6705 50.1748 42.7105 49.9048 42.7105H48.8648L48.8548 42.7405ZM53.7448 43.5405H54.5148V44.3105H53.7448V43.5405ZM54.8648 43.5405H55.6348V44.3105H54.8648V43.5405ZM54.2948 44.5705H55.0648V45.3405H54.2948V44.5705ZM55.1148 41.8605C55.2048 41.8605 55.2848 41.8305 55.3448 41.7705C55.4048 41.7005 55.4348 41.6205 55.4348 41.5305V40.1405H56.1748V41.5305C56.1748 41.7005 56.1448 41.8505 56.0848 42.0005C56.0248 42.1405 55.9348 42.2705 55.8248 42.3805C55.7148 42.4905 55.5848 42.5705 55.4448 42.6405C55.3048 42.7005 55.1448 42.7305 54.9848 42.7305H53.5748C53.5748 42.7305 53.5248 42.7305 53.5048 42.7005C53.4848 42.6805 53.4748 42.6605 53.4748 42.6305V41.9505C53.4748 41.9505 53.4748 41.9005 53.5048 41.8805C53.5248 41.8605 53.5448 41.8505 53.5748 41.8505H55.1248L55.1148 41.8605Z" fill="white"/>
<path d="M20.6432 10.6387C20.5259 10.6387 20.4139 10.6173 20.3072 10.5747C20.2005 10.5267 20.1072 10.4627 20.0272 10.3827C19.9525 10.3027 19.8912 10.2093 19.8432 10.1027C19.8005 9.99601 19.7792 9.88401 19.7792 9.76667V8.91867H20.2512V9.64667C20.2512 9.73734 20.2779 9.81734 20.3312 9.88667C20.3845 9.95067 20.4645 9.98267 20.5712 9.98267H21.8272C21.9872 9.98267 22.1179 9.94801 22.2192 9.87867C22.3205 9.80934 22.3952 9.72667 22.4432 9.63067C22.4912 9.52934 22.5125 9.42001 22.5072 9.30267C22.5019 9.18534 22.4725 9.07867 22.4192 8.98267L21.4992 7.34267L21.9632 7.03067L22.8752 8.66267C23.0085 8.89201 23.0725 9.12667 23.0672 9.36667C23.0672 9.60134 23.0139 9.81201 22.9072 9.99867C22.8059 10.1853 22.6565 10.34 22.4592 10.4627C22.2672 10.58 22.0459 10.6387 21.7952 10.6387H20.6432ZM22.6993 12.6307L22.5233 12.0867L23.4913 11.7667C23.7206 11.692 23.9046 11.556 24.0433 11.3587C24.1873 11.1613 24.2593 10.9427 24.2593 10.7027V8.17467H24.8113V10.6547C24.8113 10.8413 24.7819 11.0227 24.7233 11.1987C24.6646 11.3747 24.5819 11.5347 24.4753 11.6787C24.3739 11.8227 24.2486 11.9507 24.0993 12.0627C23.9553 12.1747 23.7953 12.26 23.6193 12.3187L22.6993 12.6307ZM24.1873 6.55067H24.8673V7.23067H24.1873V6.55067ZM27.1073 10.4387V8.30267H27.6593V10.3507C27.6593 10.4947 27.686 10.628 27.7393 10.7507C27.7927 10.8787 27.8647 10.988 27.9553 11.0787C28.0513 11.1747 28.1633 11.2493 28.2913 11.3027C28.4193 11.356 28.5553 11.3827 28.6993 11.3827H30.0833C30.206 11.3827 30.3207 11.3587 30.4273 11.3107C30.534 11.268 30.6273 11.2067 30.7073 11.1267C30.7873 11.052 30.8487 10.9613 30.8913 10.8547C30.9393 10.7533 30.9633 10.6413 30.9633 10.5187V8.16667H31.5153V9.39867C31.5153 9.60667 31.5793 9.75601 31.7073 9.84667C31.8353 9.93734 31.982 9.98267 32.1473 9.98267H32.5713C32.646 9.98267 32.6833 10.02 32.6833 10.0947V10.5267C32.6833 10.5533 32.6727 10.58 32.6513 10.6067C32.63 10.628 32.6033 10.6387 32.5713 10.6387H32.1793C32.0353 10.6387 31.902 10.6093 31.7793 10.5507C31.6567 10.4867 31.566 10.4093 31.5073 10.3187V10.6547C31.5073 10.8467 31.47 11.0253 31.3953 11.1907C31.3207 11.3613 31.2167 11.508 31.0833 11.6307C30.9553 11.7587 30.8033 11.8573 30.6273 11.9267C30.4567 12.0013 30.2753 12.0387 30.0833 12.0387H28.7073C28.4833 12.0387 28.2727 11.996 28.0753 11.9107C27.8833 11.8307 27.7153 11.7187 27.5713 11.5747C27.4273 11.4307 27.3127 11.26 27.2273 11.0627C27.1473 10.8707 27.1073 10.6627 27.1073 10.4387ZM28.9713 7.47867H29.6513V8.15867H28.9713V7.47867ZM33.0818 12.2787H33.7618V11.5987H33.0818V12.2787ZM34.1778 12.2787H34.8578V11.5987H34.1778V12.2787ZM35.4498 10.5267C35.4498 10.6013 35.4125 10.6387 35.3378 10.6387H34.8418C34.7512 10.6387 34.6605 10.6253 34.5698 10.5987C34.4792 10.572 34.3938 10.5347 34.3138 10.4867C34.2338 10.4387 34.1645 10.3827 34.1058 10.3187C34.0472 10.2547 34.0072 10.1853 33.9858 10.1107C33.8952 10.2653 33.7645 10.3933 33.5938 10.4947C33.4285 10.5907 33.2525 10.6387 33.0658 10.6387H32.5698C32.4952 10.6387 32.4578 10.6013 32.4578 10.5267V10.1027C32.4578 10.0707 32.4685 10.044 32.4898 10.0227C32.5112 9.99601 32.5378 9.98267 32.5698 9.98267H33.0898C33.2445 9.98267 33.3778 9.93467 33.4898 9.83867C33.6072 9.74267 33.6818 9.62267 33.7138 9.47867L33.9618 8.21467L34.5058 8.30267L34.2978 9.35867C34.2818 9.43867 34.2845 9.51867 34.3058 9.59867C34.3272 9.67334 34.3645 9.74001 34.4178 9.79867C34.4712 9.85201 34.5352 9.89734 34.6098 9.93467C34.6845 9.96667 34.7645 9.98267 34.8498 9.98267H35.3378C35.3698 9.98267 35.3965 9.99601 35.4178 10.0227C35.4392 10.044 35.4498 10.0707 35.4498 10.1027V10.5267ZM36.7194 8.85467C36.7941 8.90801 36.8928 8.97734 37.0154 9.06267C37.1381 9.14267 37.2554 9.22001 37.3674 9.29467C37.5061 9.38534 37.6474 9.48134 37.7914 9.58267L38.8074 8.87067V8.63067C38.8074 8.49201 38.7621 8.37734 38.6714 8.28667C38.5808 8.19067 38.4661 8.14267 38.3274 8.14267H36.7194V8.85467ZM38.3114 7.54267C38.4554 7.54267 38.5888 7.56934 38.7114 7.62267C38.8394 7.67601 38.9514 7.75067 39.0474 7.84667C39.1434 7.93734 39.2181 8.04667 39.2714 8.17467C39.3301 8.30267 39.3594 8.43867 39.3594 8.58267V8.77467C39.3594 8.89734 39.3301 9.01201 39.2714 9.11867C39.2181 9.22534 39.1408 9.31334 39.0394 9.38267L38.3674 9.84667C38.4901 9.88934 38.6261 9.92401 38.7754 9.95067C38.9248 9.97201 39.0768 9.98267 39.2314 9.98267H40.0954C40.1274 9.98267 40.1541 9.99601 40.1754 10.0227C40.1968 10.044 40.2074 10.0707 40.2074 10.1027V10.5187C40.2074 10.5507 40.1968 10.58 40.1754 10.6067C40.1541 10.628 40.1274 10.6387 40.0954 10.6387H39.1994C38.9434 10.6387 38.6928 10.6067 38.4474 10.5427C38.2074 10.4733 37.9754 10.3773 37.7514 10.2547C37.5274 10.3773 37.2928 10.4733 37.0474 10.5427C36.8074 10.6067 36.5594 10.6387 36.3034 10.6387H35.3354C35.2981 10.6387 35.2714 10.628 35.2554 10.6067C35.2341 10.58 35.2234 10.5507 35.2234 10.5187V10.1027C35.2234 10.0707 35.2341 10.044 35.2554 10.0227C35.2714 9.99601 35.2981 9.98267 35.3354 9.98267H36.3034C36.4474 9.98267 36.5968 9.97467 36.7514 9.95867C36.9061 9.93734 37.0421 9.90534 37.1594 9.86267L36.1754 9.19067V8.19867C36.1754 8.00134 36.2341 7.84401 36.3514 7.72667C36.4741 7.60401 36.6341 7.54267 36.8314 7.54267H38.3114ZM41.9653 9.98267H43.1813V8.91067C43.1813 8.77201 43.1306 8.65467 43.0293 8.55867C42.9333 8.45734 42.8133 8.40667 42.6693 8.40667H42.1493C42.0266 8.40667 41.9199 8.44667 41.8293 8.52667C41.7386 8.60134 41.6799 8.69734 41.6533 8.81467L41.5333 9.46267C41.5066 9.60134 41.5359 9.72401 41.6213 9.83067C41.7119 9.93201 41.8266 9.98267 41.9653 9.98267ZM40.9653 9.47867L41.1333 8.65467C41.1546 8.53201 41.1973 8.41734 41.2613 8.31067C41.3253 8.20401 41.4026 8.11334 41.4933 8.03867C41.5839 7.96401 41.6853 7.90534 41.7973 7.86267C41.9146 7.82001 42.0373 7.79867 42.1653 7.79867H42.6133C42.7679 7.79867 42.9119 7.82801 43.0453 7.88667C43.1839 7.94534 43.3039 8.02534 43.4053 8.12667C43.5066 8.22801 43.5866 8.34534 43.6453 8.47867C43.7039 8.61201 43.7333 8.75601 43.7333 8.91067V9.91867C43.7333 10.132 43.6666 10.3053 43.5333 10.4387C43.4053 10.572 43.2293 10.6387 43.0053 10.6387H42.0293C41.8586 10.6387 41.7013 10.5987 41.5573 10.5187C41.4186 10.4333 41.3039 10.2973 41.2133 10.1107C41.1173 10.2973 40.9893 10.4333 40.8293 10.5187C40.6693 10.5987 40.5013 10.6387 40.3253 10.6387H40.0933C40.0186 10.6387 39.9813 10.6013 39.9813 10.5267V10.0947C39.9813 10.068 39.9919 10.044 40.0133 10.0227C40.0346 9.99601 40.0613 9.98267 40.0933 9.98267H40.3493C40.5039 9.98267 40.6373 9.93467 40.7493 9.83867C40.8666 9.74267 40.9386 9.62267 40.9653 9.47867ZM13.5748 17.5187C13.5748 17.5187 13.5881 17.5747 13.6148 17.6867C13.6468 17.7987 13.6788 17.94 13.7108 18.1107C13.7481 18.2813 13.7828 18.468 13.8148 18.6707C13.8468 18.8733 13.8681 19.0653 13.8788 19.2467C13.8841 19.3053 13.9081 19.348 13.9508 19.3747C13.9935 19.4013 14.0415 19.4147 14.0948 19.4147H14.9188V17.5907H16.2068V19.5987C16.2068 19.7533 16.1721 19.9027 16.1028 20.0467C16.0388 20.1907 15.9508 20.3187 15.8388 20.4307C15.7321 20.5373 15.6068 20.6227 15.4628 20.6867C15.3241 20.7507 15.1775 20.7827 15.0228 20.7827H14.3428C14.2521 20.7827 14.1588 20.764 14.0628 20.7267C13.9721 20.6893 13.9215 20.6573 13.9108 20.6307V23.6307H12.6228V19.9747C12.6228 19.74 12.6095 19.508 12.5828 19.2787C12.5561 19.044 12.5215 18.812 12.4788 18.5827L12.3108 17.7427L13.5748 17.5187ZM18.106 17.5187C18.106 17.5187 18.1194 17.5747 18.146 17.6867C18.178 17.7987 18.21 17.94 18.242 18.1107C18.2794 18.2813 18.314 18.468 18.346 18.6707C18.378 18.8733 18.3994 19.0653 18.41 19.2467C18.4154 19.3053 18.4394 19.348 18.482 19.3747C18.5247 19.4013 18.5727 19.4147 18.626 19.4147H19.45V17.5907H20.738V19.5987C20.738 19.7533 20.7034 19.9027 20.634 20.0467C20.57 20.1907 20.482 20.3187 20.37 20.4307C20.2634 20.5373 20.138 20.6227 19.994 20.6867C19.8554 20.7507 19.7087 20.7827 19.554 20.7827H18.874C18.7834 20.7827 18.69 20.764 18.594 20.7267C18.5034 20.6893 18.4527 20.6573 18.442 20.6307V23.6307H17.154V19.9747C17.154 19.74 17.1407 19.508 17.114 19.2787C17.0874 19.044 17.0527 18.812 17.01 18.5827L16.842 17.7427L18.106 17.5187ZM23.3653 18.9747C23.3653 18.9 23.3466 18.8573 23.3093 18.8467C23.2773 18.8307 23.248 18.8227 23.2213 18.8227H22.5173C22.4373 18.8227 22.3893 18.8627 22.3733 18.9427L22.2533 19.6227C22.2426 19.6707 22.2426 19.7 22.2533 19.7107C22.2693 19.7213 22.2986 19.7267 22.3413 19.7267H23.3653V18.9747ZM24.5413 21.1827C24.5413 21.4067 24.552 21.636 24.5733 21.8707C24.5946 22.1 24.6293 22.3347 24.6773 22.5747L24.8533 23.4147L23.7013 23.6387L23.5253 22.7587C23.4186 22.2093 23.3653 21.6787 23.3653 21.1667V20.9987C23.376 20.9933 23.3653 20.996 23.3333 21.0067C23.3066 21.012 23.2666 21.0227 23.2133 21.0387C23.16 21.0493 23.096 21.0627 23.0213 21.0787C22.952 21.0893 22.8826 21.0947 22.8133 21.0947H22.4773C22.2426 21.0947 22.0293 21.0573 21.8373 20.9827C21.6453 20.908 21.4853 20.8013 21.3573 20.6627C21.2293 20.5187 21.1386 20.3427 21.0853 20.1347C21.0373 19.9267 21.04 19.6867 21.0933 19.4147L21.2373 18.6787C21.2693 18.5133 21.328 18.3613 21.4133 18.2227C21.4986 18.084 21.6 17.964 21.7173 17.8627C21.84 17.7613 21.9786 17.684 22.1333 17.6307C22.288 17.572 22.448 17.5427 22.6133 17.5427H23.0613C23.264 17.5427 23.4533 17.5827 23.6293 17.6627C23.8106 17.7373 23.968 17.8413 24.1013 17.9747C24.2346 18.108 24.3413 18.2653 24.4213 18.4467C24.5013 18.6227 24.5413 18.812 24.5413 19.0147V21.1827ZM31.1567 19.6467C31.1567 19.8013 31.1273 19.948 31.0687 20.0867C31.01 20.2253 30.9273 20.348 30.8207 20.4547C30.7193 20.556 30.5993 20.636 30.4607 20.6947C30.3273 20.7533 30.1807 20.7827 30.0207 20.7827H29.4687C29.314 20.7827 29.1593 20.7587 29.0047 20.7107C28.8553 20.6573 28.714 20.5613 28.5807 20.4227C28.442 20.5507 28.3113 20.644 28.1887 20.7027C28.066 20.756 27.9353 20.7827 27.7967 20.7827C27.7007 20.7827 27.5967 20.7693 27.4847 20.7427C27.378 20.716 27.306 20.6707 27.2687 20.6067V23.6307H25.9807V19.9747C25.9807 19.5107 25.9327 19.0467 25.8367 18.5827L25.6687 17.7427L26.9327 17.5187C26.938 17.54 26.9513 17.6013 26.9727 17.7027C26.994 17.804 27.018 17.932 27.0447 18.0867C27.0767 18.2413 27.1087 18.42 27.1407 18.6227C27.178 18.82 27.21 19.028 27.2367 19.2467C27.2527 19.3267 27.2873 19.3747 27.3407 19.3907C27.3993 19.4067 27.4367 19.4147 27.4527 19.4147H27.5567C27.626 19.4147 27.6847 19.3933 27.7327 19.3507C27.786 19.308 27.818 19.2573 27.8287 19.1987L28.1567 17.5827L29.4207 17.8067L29.1407 19.2067C29.1353 19.2493 29.1433 19.2947 29.1647 19.3427C29.186 19.3907 29.242 19.4147 29.3327 19.4147H29.8767V17.5827H31.1567V19.6467ZM33.4953 16.8227L34.2313 17.7667L33.0873 18.7347C33.0606 18.7507 33.042 18.7827 33.0313 18.8307C33.0206 18.8733 33.042 18.916 33.0953 18.9587L33.9913 19.6307C34.226 19.3427 34.4846 19.06 34.7673 18.7827L35.4153 18.1587L36.3353 18.9427L35.7353 19.5347C35.5646 19.7 35.4046 19.8813 35.2553 20.0787C35.1113 20.2707 34.9726 20.4627 34.8393 20.6547L32.7513 23.6547L31.6473 22.9827L33.3593 20.5667C33.3486 20.5773 33.298 20.58 33.2073 20.5747C33.122 20.5693 33.0233 20.5213 32.9113 20.4307L32.2793 19.9427C32.0873 19.7987 31.9486 19.628 31.8633 19.4307C31.7833 19.2333 31.7486 19.0333 31.7593 18.8307C31.77 18.6227 31.8233 18.4253 31.9193 18.2387C32.0153 18.0467 32.146 17.884 32.3113 17.7507L33.4953 16.8227ZM37.6017 19.9187H38.8017V21.1427H37.6017V19.9187ZM37.6017 22.4147H38.8017V23.6387H37.6017V22.4147ZM43.8035 22.2787H44.0275C44.0542 22.2787 44.0782 22.292 44.0995 22.3187C44.1262 22.3453 44.1395 22.3747 44.1395 22.4067V23.5267C44.1395 23.5533 44.1289 23.58 44.1075 23.6067C44.0862 23.628 44.0595 23.6387 44.0275 23.6387H43.9075C43.6889 23.6387 43.4969 23.596 43.3315 23.5107C43.1715 23.4253 43.0355 23.3293 42.9235 23.2227C42.7742 23.3773 42.6115 23.4867 42.4355 23.5507C42.2595 23.6093 42.0755 23.6387 41.8835 23.6387H40.8755C40.7102 23.6387 40.5529 23.6067 40.4035 23.5427C40.2542 23.4787 40.1235 23.3933 40.0115 23.2867C39.8995 23.1747 39.8115 23.044 39.7475 22.8947C39.6835 22.7453 39.6515 22.588 39.6515 22.4227V21.2227H40.6115V22.1507C40.6115 22.236 40.6569 22.2787 40.7475 22.2787H41.8995C42.0115 22.2787 42.1102 22.244 42.1955 22.1747C42.2809 22.1 42.3075 22.0013 42.2755 21.8787L41.5955 19.4387L42.6915 19.0387L43.5475 22.0867C43.5635 22.1453 43.5955 22.1933 43.6435 22.2307C43.6915 22.2627 43.7449 22.2787 43.8035 22.2787ZM45.1469 21.3507L44.3229 20.5587L46.8749 17.5587L47.7069 18.3267L46.2189 20.0867H49.1709C49.3735 20.0867 49.5629 20.1267 49.7389 20.2067C49.9202 20.2813 50.0775 20.3853 50.2109 20.5187C50.3442 20.652 50.4482 20.8093 50.5229 20.9907C50.6029 21.1667 50.6429 21.3587 50.6429 21.5667V22.1587C50.6429 22.372 50.6002 22.5693 50.5149 22.7507C50.4295 22.932 50.3149 23.0893 50.1709 23.2227C50.0322 23.356 49.8722 23.46 49.6909 23.5347C49.5095 23.604 49.3202 23.6387 49.1229 23.6387H44.0269C44.0002 23.6387 43.9762 23.628 43.9549 23.6067C43.9282 23.58 43.9149 23.5533 43.9149 23.5267V22.3907C43.9149 22.364 43.9255 22.34 43.9469 22.3187C43.9682 22.292 43.9949 22.2787 44.0269 22.2787H49.3469C49.3735 22.2787 49.4029 22.268 49.4349 22.2467C49.4722 22.2253 49.4909 22.188 49.4909 22.1347V21.5347C49.4909 21.4813 49.4722 21.4387 49.4349 21.4067C49.3975 21.3693 49.3549 21.3507 49.3069 21.3507H45.1469Z" fill="black"/>
</svg>
