<svg width="63" height="56" viewBox="0 0 63 56" fill="none" xmlns="http://www.w3.org/2000/svg">
<path d="M12.81 1H50.57C57.09 1 62.39 6.29 62.39 12.82V55.32H1V12.82C1 6.3 6.28999 1 12.82 1H12.81Z" fill="#19B5FF" stroke="white" stroke-width="0.52" stroke-miterlimit="10"/>
<path d="M50.85 32.6406H12.53C7.37997 32.6406 3.20996 36.8106 3.20996 41.9606C3.20996 47.1106 7.37997 51.2806 12.53 51.2806H50.85C56 51.2806 60.17 47.1106 60.17 41.9606C60.17 36.8106 56 32.6406 50.85 32.6406Z" fill="#222222"/>
<path d="M12.9602 49.9712C17.384 49.9712 20.9702 46.385 20.9702 41.9612C20.9702 37.5374 17.384 33.9512 12.9602 33.9512C8.53639 33.9512 4.9502 37.5374 4.9502 41.9612C4.9502 46.385 8.53639 49.9712 12.9602 49.9712Z" fill="white"/>
<path d="M23.1699 42.5706V40.6006H23.9099V42.4706C23.9099 42.5706 23.9299 42.6706 23.9599 42.7606C23.9999 42.8506 24.0499 42.9306 24.1199 43.0006C24.1899 43.0706 24.2699 43.1206 24.3599 43.1506C24.4499 43.1906 24.5499 43.2106 24.6499 43.2106H25.8599C26.0299 43.2106 26.1699 43.1506 26.2899 43.0306C26.4099 42.9106 26.4699 42.7706 26.4699 42.6006V40.4906H27.2099V41.7006C27.2099 41.7906 27.2399 41.8706 27.2999 41.9306C27.3599 41.9906 27.4399 42.0206 27.5299 42.0206H27.9499C27.9499 42.0206 27.9999 42.0306 28.0199 42.0506C28.0399 42.0706 28.0499 42.0906 28.0499 42.1206V42.8006C28.0499 42.8006 28.0499 42.8406 28.0199 42.8706C27.9999 42.8906 27.9799 42.9006 27.9499 42.9006H27.6499C27.4999 42.9006 27.3999 42.8706 27.3299 42.8206C27.2699 42.7706 27.2199 42.7206 27.1999 42.6906V42.8606C27.1999 43.0306 27.1599 43.1906 27.0899 43.3406C27.0199 43.4906 26.9199 43.6206 26.7899 43.7306C26.6699 43.8406 26.5299 43.9306 26.3699 43.9906C26.2099 44.0506 26.0399 44.0806 25.8599 44.0806H24.6899C24.4799 44.0806 24.2899 44.0406 24.0999 43.9606C23.9199 43.8806 23.7499 43.7806 23.6199 43.6406C23.4899 43.5106 23.3799 43.3506 23.2999 43.1606C23.2199 42.9806 23.1899 42.7806 23.1899 42.5706H23.1699ZM24.7999 39.7206H25.5699V40.4906H24.7999V39.7206ZM29.5899 42.0206C29.6799 42.0206 29.7599 41.9906 29.8199 41.9306C29.8799 41.8606 29.9099 41.7806 29.9099 41.6906V40.3006H30.6499V41.6906C30.6499 41.8606 30.6199 42.0106 30.5599 42.1606C30.4999 42.3006 30.4099 42.4306 30.2999 42.5406C30.1899 42.6506 30.0599 42.7306 29.9199 42.8006C29.7799 42.8606 29.6199 42.8906 29.4599 42.8906H28.0499C28.0499 42.8906 27.9999 42.8906 27.9799 42.8606C27.9599 42.8406 27.9499 42.8206 27.9499 42.7906V42.1106C27.9499 42.1106 27.9499 42.0606 27.9799 42.0406C27.9999 42.0206 28.0199 42.0106 28.0499 42.0106H29.5999L29.5899 42.0206ZM28.1399 44.4806H28.9099V43.7106H28.1399V44.4806ZM29.2599 44.4806H30.0299V43.7106H29.2599V44.4806ZM35.3799 42.8006C35.3799 42.8606 35.3499 42.8906 35.2899 42.8906H34.9899C34.8099 42.8906 34.6499 42.8606 34.5099 42.7906C34.3599 42.7206 34.2299 42.6206 34.1299 42.5106C33.9399 42.6906 33.7099 42.7906 33.4499 42.8306L31.5299 43.1006L31.4299 42.3106L32.1599 42.2206L31.8299 38.7106L32.5799 38.6206L32.8899 42.1306L33.3899 42.0606C33.5099 42.0506 33.6099 41.9906 33.6899 41.9106C33.7699 41.8206 33.8099 41.7106 33.8099 41.5906V38.3006H34.5499V41.7106C34.5499 41.8006 34.5799 41.8806 34.6399 41.9406C34.6999 42.0006 34.7799 42.0306 34.8699 42.0306H35.2899C35.3499 42.0306 35.3799 42.0606 35.3799 42.1206V42.8106V42.8006ZM36.5299 42.0206C36.6199 42.0206 36.6999 41.9906 36.7599 41.9306C36.8199 41.8606 36.8499 41.7806 36.8499 41.6906V40.3006H37.5899V41.6906C37.5899 41.8606 37.5599 42.0106 37.4999 42.1606C37.4399 42.3006 37.3499 42.4306 37.2399 42.5406C37.1299 42.6506 36.9999 42.7306 36.8599 42.8006C36.7199 42.8606 36.5599 42.8906 36.3999 42.8906H35.3999C35.3999 42.8906 35.3499 42.8906 35.3299 42.8606C35.3099 42.8406 35.2999 42.8206 35.2999 42.7906V42.1106C35.2999 42.1106 35.2999 42.0606 35.3299 42.0406C35.3499 42.0206 35.3699 42.0106 35.3999 42.0106H36.5399L36.5299 42.0206ZM36.8199 39.6806H37.5899V38.9106H36.8199V39.6806ZM39.2099 42.9006H38.4699V38.8106H39.2099V42.9006ZM37.5599 38.6406V38.2806C37.5599 38.0706 37.6299 37.9206 37.7599 37.8106C37.8899 37.7006 38.0399 37.6406 38.1999 37.6406H39.5899V38.2806H38.2799C38.2799 38.2806 38.1999 38.3006 38.1699 38.3306C38.1499 38.3606 38.1399 38.3906 38.1399 38.4206V38.6406H37.5699H37.5599ZM48.1499 41.7006C48.1499 41.7906 48.1799 41.8706 48.2399 41.9306C48.2999 41.9906 48.3799 42.0206 48.4699 42.0206H48.7499C48.8099 42.0206 48.8399 42.0506 48.8399 42.1106V42.8006C48.8399 42.8606 48.8099 42.8906 48.7499 42.8906H48.5899C48.4299 42.8906 48.2799 42.8606 48.1399 42.8006C47.9999 42.7406 47.8799 42.6406 47.7699 42.5006C47.6599 42.6406 47.5299 42.7406 47.3799 42.8106C47.2299 42.8706 47.0699 42.9006 46.9199 42.9006C46.5999 42.9006 46.3499 42.7706 46.1699 42.5006C46.0699 42.6406 45.9499 42.7506 45.8299 42.8106C45.7099 42.8706 45.5699 42.9006 45.4199 42.9006C45.3399 42.9006 45.2599 42.8906 45.1599 42.8706C45.0699 42.8406 44.9899 42.7806 44.9299 42.6906V42.8706C44.9299 43.0406 44.8899 43.2006 44.8199 43.3406C44.7499 43.4906 44.6499 43.6206 44.5199 43.7206C44.3899 43.8306 44.2499 43.9206 44.0799 43.9806C43.9199 44.0406 43.7499 44.0706 43.5699 44.0706H42.3999C42.1899 44.0706 41.9999 44.0306 41.8099 43.9506C41.6299 43.8706 41.4599 43.7706 41.3299 43.6306C41.1999 43.5006 41.0899 43.3406 41.0099 43.1506C40.9299 42.9706 40.8999 42.7706 40.8999 42.5606V40.5906H41.6399V42.4506C41.6399 42.5506 41.6599 42.6506 41.6899 42.7406C41.7299 42.8306 41.7799 42.9106 41.8499 42.9806C41.9199 43.0506 41.9999 43.1006 42.0899 43.1306C42.1799 43.1706 42.2799 43.1906 42.3799 43.1906H43.5899C43.7599 43.1906 43.8999 43.1306 44.0199 43.0106C44.1399 42.8906 44.1999 42.7506 44.1999 42.5806V40.4706H44.9399V41.7006C44.9399 41.7906 44.9699 41.8606 45.0299 41.9206C45.0999 41.9806 45.1699 42.0106 45.2599 42.0106H45.4599C45.5499 42.0106 45.6299 41.9806 45.6999 41.9306C45.7699 41.8806 45.8099 41.8006 45.8299 41.7106L46.0699 40.4906L46.7999 40.6206L46.5999 41.6406C46.5799 41.7406 46.5999 41.8306 46.6599 41.9006C46.7299 41.9706 46.8099 42.0106 46.8999 42.0106H47.0799C47.1699 42.0106 47.2499 41.9806 47.3099 41.9206C47.3699 41.8606 47.3999 41.7806 47.3999 41.6906V40.2806H48.1399V41.6806L48.1499 41.7006ZM47.0099 39.8906H46.2399V39.1206H47.0099V39.8906ZM45.8799 39.8906H45.1099V39.1206H45.8799V39.8906ZM46.4299 38.8706H45.6599V38.1006H46.4299V38.8706ZM49.8799 38.6006H50.6499V39.3706H49.8799V38.6006ZM48.8499 42.9006C48.7899 42.9006 48.7599 42.8706 48.7599 42.8106V42.1306C48.7599 42.1306 48.7699 42.0906 48.7899 42.0606C48.8099 42.0406 48.8299 42.0306 48.8499 42.0306H50.0599C50.2499 42.0306 50.4299 42.0006 50.6199 41.9406C50.7999 41.8806 50.9599 41.7806 51.0899 41.6406L51.4799 41.2206L51.5399 41.1606L51.5699 41.1306L50.1599 40.7106C50.1599 40.7106 50.0699 40.7106 50.0399 40.7206C50.0099 40.7406 49.9799 40.7706 49.9699 40.8106L49.7099 41.4806L49.0599 41.3006L49.2399 40.6806C49.2799 40.5406 49.3399 40.4206 49.4299 40.3206C49.5199 40.2206 49.6099 40.1406 49.7299 40.0906C49.8399 40.0306 49.9599 40.0006 50.0899 39.9906C50.2199 39.9806 50.3399 39.9906 50.4499 40.0206L53.1299 40.8206L52.9099 41.5106L52.5899 41.4206C52.5099 41.4006 52.4499 41.4006 52.3899 41.4106C52.3399 41.4106 52.2899 41.4406 52.2499 41.4606V41.6906C52.2499 41.7806 52.2799 41.8606 52.3399 41.9206C52.3999 41.9806 52.4799 42.0106 52.5699 42.0106H53.4699C53.5299 42.0106 53.5599 42.0406 53.5599 42.1006V42.7906C53.5599 42.8506 53.5299 42.8806 53.4699 42.8806H52.6999C52.4299 42.8806 52.1999 42.8006 52.0099 42.6506C51.8299 42.4906 51.6999 42.2906 51.6299 42.0506L51.3599 42.3206C51.1699 42.5106 50.9399 42.6506 50.6899 42.7406C50.4299 42.8306 50.1699 42.8706 49.8999 42.8706H48.8599L48.8499 42.9006ZM53.7299 43.7006H54.4999V44.4706H53.7299V43.7006ZM54.8599 43.7006H55.6299V44.4706H54.8599V43.7006ZM54.2899 44.7306H55.0599V45.5006H54.2899V44.7306ZM55.1099 42.0206C55.1999 42.0206 55.2799 41.9906 55.3399 41.9306C55.3999 41.8606 55.4299 41.7806 55.4299 41.6906V40.3006H56.1699V41.6906C56.1699 41.8606 56.1399 42.0106 56.0799 42.1606C56.0199 42.3006 55.9299 42.4306 55.8199 42.5406C55.7099 42.6506 55.5799 42.7306 55.4399 42.8006C55.2999 42.8606 55.1399 42.8906 54.9799 42.8906H53.5699C53.5699 42.8906 53.5199 42.8906 53.4999 42.8606C53.4799 42.8406 53.4699 42.8206 53.4699 42.7906V42.1106C53.4699 42.1106 53.4699 42.0606 53.4999 42.0406C53.5199 42.0206 53.5399 42.0106 53.5699 42.0106H55.1199L55.1099 42.0206Z" fill="white"/>
<path d="M10.8398 37.1797C11.4298 37.1797 11.8998 37.6597 11.8998 38.2397V45.6697C11.8998 46.2597 11.4198 46.7297 10.8398 46.7297C10.2498 46.7297 9.77979 46.2497 9.77979 45.6697V38.2397C9.77979 37.6497 10.2598 37.1797 10.8398 37.1797Z" fill="#222222"/>
<path d="M15.0898 37.1797C15.6798 37.1797 16.1498 37.6597 16.1498 38.2397V45.6697C16.1498 46.2597 15.6698 46.7297 15.0898 46.7297C14.4998 46.7297 14.0298 46.2497 14.0298 45.6697V38.2397C14.0298 37.6497 14.5098 37.1797 15.0898 37.1797Z" fill="#222222"/>
<path d="M20.6432 10.6387C20.5259 10.6387 20.4139 10.6173 20.3072 10.5747C20.2005 10.5267 20.1072 10.4627 20.0272 10.3827C19.9525 10.3027 19.8912 10.2093 19.8432 10.1027C19.8005 9.99601 19.7792 9.88401 19.7792 9.76667V8.91867H20.2512V9.64667C20.2512 9.73734 20.2779 9.81734 20.3312 9.88667C20.3845 9.95067 20.4645 9.98267 20.5712 9.98267H21.8272C21.9872 9.98267 22.1179 9.94801 22.2192 9.87867C22.3205 9.80934 22.3952 9.72667 22.4432 9.63067C22.4912 9.52934 22.5125 9.42001 22.5072 9.30267C22.5019 9.18534 22.4725 9.07867 22.4192 8.98267L21.4992 7.34267L21.9632 7.03067L22.8752 8.66267C23.0085 8.89201 23.0725 9.12667 23.0672 9.36667C23.0672 9.60134 23.0139 9.81201 22.9072 9.99867C22.8059 10.1853 22.6565 10.34 22.4592 10.4627C22.2672 10.58 22.0459 10.6387 21.7952 10.6387H20.6432ZM22.6993 12.6307L22.5233 12.0867L23.4913 11.7667C23.7206 11.692 23.9046 11.556 24.0433 11.3587C24.1873 11.1613 24.2593 10.9427 24.2593 10.7027V8.17467H24.8113V10.6547C24.8113 10.8413 24.7819 11.0227 24.7233 11.1987C24.6646 11.3747 24.5819 11.5347 24.4753 11.6787C24.3739 11.8227 24.2486 11.9507 24.0993 12.0627C23.9553 12.1747 23.7953 12.26 23.6193 12.3187L22.6993 12.6307ZM24.1873 6.55067H24.8673V7.23067H24.1873V6.55067ZM27.1073 10.4387V8.30267H27.6593V10.3507C27.6593 10.4947 27.686 10.628 27.7393 10.7507C27.7927 10.8787 27.8647 10.988 27.9553 11.0787C28.0513 11.1747 28.1633 11.2493 28.2913 11.3027C28.4193 11.356 28.5553 11.3827 28.6993 11.3827H30.0833C30.206 11.3827 30.3207 11.3587 30.4273 11.3107C30.534 11.268 30.6273 11.2067 30.7073 11.1267C30.7873 11.052 30.8487 10.9613 30.8913 10.8547C30.9393 10.7533 30.9633 10.6413 30.9633 10.5187V8.16667H31.5153V9.39867C31.5153 9.60667 31.5793 9.75601 31.7073 9.84667C31.8353 9.93734 31.982 9.98267 32.1473 9.98267H32.5713C32.646 9.98267 32.6833 10.02 32.6833 10.0947V10.5267C32.6833 10.5533 32.6727 10.58 32.6513 10.6067C32.63 10.628 32.6033 10.6387 32.5713 10.6387H32.1793C32.0353 10.6387 31.902 10.6093 31.7793 10.5507C31.6567 10.4867 31.566 10.4093 31.5073 10.3187V10.6547C31.5073 10.8467 31.47 11.0253 31.3953 11.1907C31.3207 11.3613 31.2167 11.508 31.0833 11.6307C30.9553 11.7587 30.8033 11.8573 30.6273 11.9267C30.4567 12.0013 30.2753 12.0387 30.0833 12.0387H28.7073C28.4833 12.0387 28.2727 11.996 28.0753 11.9107C27.8833 11.8307 27.7153 11.7187 27.5713 11.5747C27.4273 11.4307 27.3127 11.26 27.2273 11.0627C27.1473 10.8707 27.1073 10.6627 27.1073 10.4387ZM28.9713 7.47867H29.6513V8.15867H28.9713V7.47867ZM33.0818 12.2787H33.7618V11.5987H33.0818V12.2787ZM34.1778 12.2787H34.8578V11.5987H34.1778V12.2787ZM35.4498 10.5267C35.4498 10.6013 35.4125 10.6387 35.3378 10.6387H34.8418C34.7512 10.6387 34.6605 10.6253 34.5698 10.5987C34.4792 10.572 34.3938 10.5347 34.3138 10.4867C34.2338 10.4387 34.1645 10.3827 34.1058 10.3187C34.0472 10.2547 34.0072 10.1853 33.9858 10.1107C33.8952 10.2653 33.7645 10.3933 33.5938 10.4947C33.4285 10.5907 33.2525 10.6387 33.0658 10.6387H32.5698C32.4952 10.6387 32.4578 10.6013 32.4578 10.5267V10.1027C32.4578 10.0707 32.4685 10.044 32.4898 10.0227C32.5112 9.99601 32.5378 9.98267 32.5698 9.98267H33.0898C33.2445 9.98267 33.3778 9.93467 33.4898 9.83867C33.6072 9.74267 33.6818 9.62267 33.7138 9.47867L33.9618 8.21467L34.5058 8.30267L34.2978 9.35867C34.2818 9.43867 34.2845 9.51867 34.3058 9.59867C34.3272 9.67334 34.3645 9.74001 34.4178 9.79867C34.4712 9.85201 34.5352 9.89734 34.6098 9.93467C34.6845 9.96667 34.7645 9.98267 34.8498 9.98267H35.3378C35.3698 9.98267 35.3965 9.99601 35.4178 10.0227C35.4392 10.044 35.4498 10.0707 35.4498 10.1027V10.5267ZM36.7194 8.85467C36.7941 8.90801 36.8928 8.97734 37.0154 9.06267C37.1381 9.14267 37.2554 9.22001 37.3674 9.29467C37.5061 9.38534 37.6474 9.48134 37.7914 9.58267L38.8074 8.87067V8.63067C38.8074 8.49201 38.7621 8.37734 38.6714 8.28667C38.5808 8.19067 38.4661 8.14267 38.3274 8.14267H36.7194V8.85467ZM38.3114 7.54267C38.4554 7.54267 38.5888 7.56934 38.7114 7.62267C38.8394 7.67601 38.9514 7.75067 39.0474 7.84667C39.1434 7.93734 39.2181 8.04667 39.2714 8.17467C39.3301 8.30267 39.3594 8.43867 39.3594 8.58267V8.77467C39.3594 8.89734 39.3301 9.01201 39.2714 9.11867C39.2181 9.22534 39.1408 9.31334 39.0394 9.38267L38.3674 9.84667C38.4901 9.88934 38.6261 9.92401 38.7754 9.95067C38.9248 9.97201 39.0768 9.98267 39.2314 9.98267H40.0954C40.1274 9.98267 40.1541 9.99601 40.1754 10.0227C40.1968 10.044 40.2074 10.0707 40.2074 10.1027V10.5187C40.2074 10.5507 40.1968 10.58 40.1754 10.6067C40.1541 10.628 40.1274 10.6387 40.0954 10.6387H39.1994C38.9434 10.6387 38.6928 10.6067 38.4474 10.5427C38.2074 10.4733 37.9754 10.3773 37.7514 10.2547C37.5274 10.3773 37.2928 10.4733 37.0474 10.5427C36.8074 10.6067 36.5594 10.6387 36.3034 10.6387H35.3354C35.2981 10.6387 35.2714 10.628 35.2554 10.6067C35.2341 10.58 35.2234 10.5507 35.2234 10.5187V10.1027C35.2234 10.0707 35.2341 10.044 35.2554 10.0227C35.2714 9.99601 35.2981 9.98267 35.3354 9.98267H36.3034C36.4474 9.98267 36.5968 9.97467 36.7514 9.95867C36.9061 9.93734 37.0421 9.90534 37.1594 9.86267L36.1754 9.19067V8.19867C36.1754 8.00134 36.2341 7.84401 36.3514 7.72667C36.4741 7.60401 36.6341 7.54267 36.8314 7.54267H38.3114ZM41.9653 9.98267H43.1813V8.91067C43.1813 8.77201 43.1306 8.65467 43.0293 8.55867C42.9333 8.45734 42.8133 8.40667 42.6693 8.40667H42.1493C42.0266 8.40667 41.9199 8.44667 41.8293 8.52667C41.7386 8.60134 41.6799 8.69734 41.6533 8.81467L41.5333 9.46267C41.5066 9.60134 41.5359 9.72401 41.6213 9.83067C41.7119 9.93201 41.8266 9.98267 41.9653 9.98267ZM40.9653 9.47867L41.1333 8.65467C41.1546 8.53201 41.1973 8.41734 41.2613 8.31067C41.3253 8.20401 41.4026 8.11334 41.4933 8.03867C41.5839 7.96401 41.6853 7.90534 41.7973 7.86267C41.9146 7.82001 42.0373 7.79867 42.1653 7.79867H42.6133C42.7679 7.79867 42.9119 7.82801 43.0453 7.88667C43.1839 7.94534 43.3039 8.02534 43.4053 8.12667C43.5066 8.22801 43.5866 8.34534 43.6453 8.47867C43.7039 8.61201 43.7333 8.75601 43.7333 8.91067V9.91867C43.7333 10.132 43.6666 10.3053 43.5333 10.4387C43.4053 10.572 43.2293 10.6387 43.0053 10.6387H42.0293C41.8586 10.6387 41.7013 10.5987 41.5573 10.5187C41.4186 10.4333 41.3039 10.2973 41.2133 10.1107C41.1173 10.2973 40.9893 10.4333 40.8293 10.5187C40.6693 10.5987 40.5013 10.6387 40.3253 10.6387H40.0933C40.0186 10.6387 39.9813 10.6013 39.9813 10.5267V10.0947C39.9813 10.068 39.9919 10.044 40.0133 10.0227C40.0346 9.99601 40.0613 9.98267 40.0933 9.98267H40.3493C40.5039 9.98267 40.6373 9.93467 40.7493 9.83867C40.8666 9.74267 40.9386 9.62267 40.9653 9.47867ZM13.5748 17.5187C13.5748 17.5187 13.5881 17.5747 13.6148 17.6867C13.6468 17.7987 13.6788 17.94 13.7108 18.1107C13.7481 18.2813 13.7828 18.468 13.8148 18.6707C13.8468 18.8733 13.8681 19.0653 13.8788 19.2467C13.8841 19.3053 13.9081 19.348 13.9508 19.3747C13.9935 19.4013 14.0415 19.4147 14.0948 19.4147H14.9188V17.5907H16.2068V19.5987C16.2068 19.7533 16.1721 19.9027 16.1028 20.0467C16.0388 20.1907 15.9508 20.3187 15.8388 20.4307C15.7321 20.5373 15.6068 20.6227 15.4628 20.6867C15.3241 20.7507 15.1775 20.7827 15.0228 20.7827H14.3428C14.2521 20.7827 14.1588 20.764 14.0628 20.7267C13.9721 20.6893 13.9215 20.6573 13.9108 20.6307V23.6307H12.6228V19.9747C12.6228 19.74 12.6095 19.508 12.5828 19.2787C12.5561 19.044 12.5215 18.812 12.4788 18.5827L12.3108 17.7427L13.5748 17.5187ZM18.106 17.5187C18.106 17.5187 18.1194 17.5747 18.146 17.6867C18.178 17.7987 18.21 17.94 18.242 18.1107C18.2794 18.2813 18.314 18.468 18.346 18.6707C18.378 18.8733 18.3994 19.0653 18.41 19.2467C18.4154 19.3053 18.4394 19.348 18.482 19.3747C18.5247 19.4013 18.5727 19.4147 18.626 19.4147H19.45V17.5907H20.738V19.5987C20.738 19.7533 20.7034 19.9027 20.634 20.0467C20.57 20.1907 20.482 20.3187 20.37 20.4307C20.2634 20.5373 20.138 20.6227 19.994 20.6867C19.8554 20.7507 19.7087 20.7827 19.554 20.7827H18.874C18.7834 20.7827 18.69 20.764 18.594 20.7267C18.5034 20.6893 18.4527 20.6573 18.442 20.6307V23.6307H17.154V19.9747C17.154 19.74 17.1407 19.508 17.114 19.2787C17.0874 19.044 17.0527 18.812 17.01 18.5827L16.842 17.7427L18.106 17.5187ZM23.3653 18.9747C23.3653 18.9 23.3466 18.8573 23.3093 18.8467C23.2773 18.8307 23.248 18.8227 23.2213 18.8227H22.5173C22.4373 18.8227 22.3893 18.8627 22.3733 18.9427L22.2533 19.6227C22.2426 19.6707 22.2426 19.7 22.2533 19.7107C22.2693 19.7213 22.2986 19.7267 22.3413 19.7267H23.3653V18.9747ZM24.5413 21.1827C24.5413 21.4067 24.552 21.636 24.5733 21.8707C24.5946 22.1 24.6293 22.3347 24.6773 22.5747L24.8533 23.4147L23.7013 23.6387L23.5253 22.7587C23.4186 22.2093 23.3653 21.6787 23.3653 21.1667V20.9987C23.376 20.9933 23.3653 20.996 23.3333 21.0067C23.3066 21.012 23.2666 21.0227 23.2133 21.0387C23.16 21.0493 23.096 21.0627 23.0213 21.0787C22.952 21.0893 22.8826 21.0947 22.8133 21.0947H22.4773C22.2426 21.0947 22.0293 21.0573 21.8373 20.9827C21.6453 20.908 21.4853 20.8013 21.3573 20.6627C21.2293 20.5187 21.1386 20.3427 21.0853 20.1347C21.0373 19.9267 21.04 19.6867 21.0933 19.4147L21.2373 18.6787C21.2693 18.5133 21.328 18.3613 21.4133 18.2227C21.4986 18.084 21.6 17.964 21.7173 17.8627C21.84 17.7613 21.9786 17.684 22.1333 17.6307C22.288 17.572 22.448 17.5427 22.6133 17.5427H23.0613C23.264 17.5427 23.4533 17.5827 23.6293 17.6627C23.8106 17.7373 23.968 17.8413 24.1013 17.9747C24.2346 18.108 24.3413 18.2653 24.4213 18.4467C24.5013 18.6227 24.5413 18.812 24.5413 19.0147V21.1827ZM31.1567 19.6467C31.1567 19.8013 31.1273 19.948 31.0687 20.0867C31.01 20.2253 30.9273 20.348 30.8207 20.4547C30.7193 20.556 30.5993 20.636 30.4607 20.6947C30.3273 20.7533 30.1807 20.7827 30.0207 20.7827H29.4687C29.314 20.7827 29.1593 20.7587 29.0047 20.7107C28.8553 20.6573 28.714 20.5613 28.5807 20.4227C28.442 20.5507 28.3113 20.644 28.1887 20.7027C28.066 20.756 27.9353 20.7827 27.7967 20.7827C27.7007 20.7827 27.5967 20.7693 27.4847 20.7427C27.378 20.716 27.306 20.6707 27.2687 20.6067V23.6307H25.9807V19.9747C25.9807 19.5107 25.9327 19.0467 25.8367 18.5827L25.6687 17.7427L26.9327 17.5187C26.938 17.54 26.9513 17.6013 26.9727 17.7027C26.994 17.804 27.018 17.932 27.0447 18.0867C27.0767 18.2413 27.1087 18.42 27.1407 18.6227C27.178 18.82 27.21 19.028 27.2367 19.2467C27.2527 19.3267 27.2873 19.3747 27.3407 19.3907C27.3993 19.4067 27.4367 19.4147 27.4527 19.4147H27.5567C27.626 19.4147 27.6847 19.3933 27.7327 19.3507C27.786 19.308 27.818 19.2573 27.8287 19.1987L28.1567 17.5827L29.4207 17.8067L29.1407 19.2067C29.1353 19.2493 29.1433 19.2947 29.1647 19.3427C29.186 19.3907 29.242 19.4147 29.3327 19.4147H29.8767V17.5827H31.1567V19.6467ZM33.4953 16.8227L34.2313 17.7667L33.0873 18.7347C33.0606 18.7507 33.042 18.7827 33.0313 18.8307C33.0206 18.8733 33.042 18.916 33.0953 18.9587L33.9913 19.6307C34.226 19.3427 34.4846 19.06 34.7673 18.7827L35.4153 18.1587L36.3353 18.9427L35.7353 19.5347C35.5646 19.7 35.4046 19.8813 35.2553 20.0787C35.1113 20.2707 34.9726 20.4627 34.8393 20.6547L32.7513 23.6547L31.6473 22.9827L33.3593 20.5667C33.3486 20.5773 33.298 20.58 33.2073 20.5747C33.122 20.5693 33.0233 20.5213 32.9113 20.4307L32.2793 19.9427C32.0873 19.7987 31.9486 19.628 31.8633 19.4307C31.7833 19.2333 31.7486 19.0333 31.7593 18.8307C31.77 18.6227 31.8233 18.4253 31.9193 18.2387C32.0153 18.0467 32.146 17.884 32.3113 17.7507L33.4953 16.8227ZM37.6017 19.9187H38.8017V21.1427H37.6017V19.9187ZM37.6017 22.4147H38.8017V23.6387H37.6017V22.4147ZM43.8035 22.2787H44.0275C44.0542 22.2787 44.0782 22.292 44.0995 22.3187C44.1262 22.3453 44.1395 22.3747 44.1395 22.4067V23.5267C44.1395 23.5533 44.1289 23.58 44.1075 23.6067C44.0862 23.628 44.0595 23.6387 44.0275 23.6387H43.9075C43.6889 23.6387 43.4969 23.596 43.3315 23.5107C43.1715 23.4253 43.0355 23.3293 42.9235 23.2227C42.7742 23.3773 42.6115 23.4867 42.4355 23.5507C42.2595 23.6093 42.0755 23.6387 41.8835 23.6387H40.8755C40.7102 23.6387 40.5529 23.6067 40.4035 23.5427C40.2542 23.4787 40.1235 23.3933 40.0115 23.2867C39.8995 23.1747 39.8115 23.044 39.7475 22.8947C39.6835 22.7453 39.6515 22.588 39.6515 22.4227V21.2227H40.6115V22.1507C40.6115 22.236 40.6569 22.2787 40.7475 22.2787H41.8995C42.0115 22.2787 42.1102 22.244 42.1955 22.1747C42.2809 22.1 42.3075 22.0013 42.2755 21.8787L41.5955 19.4387L42.6915 19.0387L43.5475 22.0867C43.5635 22.1453 43.5955 22.1933 43.6435 22.2307C43.6915 22.2627 43.7449 22.2787 43.8035 22.2787ZM45.1469 21.3507L44.3229 20.5587L46.8749 17.5587L47.7069 18.3267L46.2189 20.0867H49.1709C49.3735 20.0867 49.5629 20.1267 49.7389 20.2067C49.9202 20.2813 50.0775 20.3853 50.2109 20.5187C50.3442 20.652 50.4482 20.8093 50.5229 20.9907C50.6029 21.1667 50.6429 21.3587 50.6429 21.5667V22.1587C50.6429 22.372 50.6002 22.5693 50.5149 22.7507C50.4295 22.932 50.3149 23.0893 50.1709 23.2227C50.0322 23.356 49.8722 23.46 49.6909 23.5347C49.5095 23.604 49.3202 23.6387 49.1229 23.6387H44.0269C44.0002 23.6387 43.9762 23.628 43.9549 23.6067C43.9282 23.58 43.9149 23.5533 43.9149 23.5267V22.3907C43.9149 22.364 43.9255 22.34 43.9469 22.3187C43.9682 22.292 43.9949 22.2787 44.0269 22.2787H49.3469C49.3735 22.2787 49.4029 22.268 49.4349 22.2467C49.4722 22.2253 49.4909 22.188 49.4909 22.1347V21.5347C49.4909 21.4813 49.4722 21.4387 49.4349 21.4067C49.3975 21.3693 49.3549 21.3507 49.3069 21.3507H45.1469Z" fill="black"/>
</svg>
