<svg width="63" height="56" viewBox="0 0 63 56" fill="none" xmlns="http://www.w3.org/2000/svg">
<path d="M12.81 1H50.57C57.09 1 62.39 6.29 62.39 12.82V55.32H1V12.82C1 6.3 6.28999 1 12.82 1H12.81Z" fill="#19B5FF" stroke="white" stroke-width="0.52" stroke-miterlimit="10"/>
<path d="M50.85 32.6406H12.53C7.37997 32.6406 3.20996 36.8106 3.20996 41.9606C3.20996 47.1106 7.37997 51.2806 12.53 51.2806H50.85C56 51.2806 60.17 47.1106 60.17 41.9606C60.17 36.8106 56 32.6406 50.85 32.6406Z" fill="#222222"/>
<path d="M12.9602 49.9712C17.384 49.9712 20.9702 46.385 20.9702 41.9612C20.9702 37.5374 17.384 33.9512 12.9602 33.9512C8.53639 33.9512 4.9502 37.5374 4.9502 41.9612C4.9502 46.385 8.53639 49.9712 12.9602 49.9712Z" fill="white"/>
<path d="M23.1699 42.5706V40.6006H23.9099V42.4706C23.9099 42.5706 23.9299 42.6706 23.9599 42.7606C23.9999 42.8506 24.0499 42.9306 24.1199 43.0006C24.1899 43.0706 24.2699 43.1206 24.3599 43.1506C24.4499 43.1906 24.5499 43.2106 24.6499 43.2106H25.8599C26.0299 43.2106 26.1699 43.1506 26.2899 43.0306C26.4099 42.9106 26.4699 42.7706 26.4699 42.6006V40.4906H27.2099V41.7006C27.2099 41.7906 27.2399 41.8706 27.2999 41.9306C27.3599 41.9906 27.4399 42.0206 27.5299 42.0206H27.9499C27.9499 42.0206 27.9999 42.0306 28.0199 42.0506C28.0399 42.0706 28.0499 42.0906 28.0499 42.1206V42.8006C28.0499 42.8006 28.0499 42.8406 28.0199 42.8706C27.9999 42.8906 27.9799 42.9006 27.9499 42.9006H27.6499C27.4999 42.9006 27.3999 42.8706 27.3299 42.8206C27.2699 42.7706 27.2199 42.7206 27.1999 42.6906V42.8606C27.1999 43.0306 27.1599 43.1906 27.0899 43.3406C27.0199 43.4906 26.9199 43.6206 26.7899 43.7306C26.6699 43.8406 26.5299 43.9306 26.3699 43.9906C26.2099 44.0506 26.0399 44.0806 25.8599 44.0806H24.6899C24.4799 44.0806 24.2899 44.0406 24.0999 43.9606C23.9199 43.8806 23.7499 43.7806 23.6199 43.6406C23.4899 43.5106 23.3799 43.3506 23.2999 43.1606C23.2199 42.9806 23.1899 42.7806 23.1899 42.5706H23.1699ZM24.7999 39.7206H25.5699V40.4906H24.7999V39.7206ZM29.5899 42.0206C29.6799 42.0206 29.7599 41.9906 29.8199 41.9306C29.8799 41.8606 29.9099 41.7806 29.9099 41.6906V40.3006H30.6499V41.6906C30.6499 41.8606 30.6199 42.0106 30.5599 42.1606C30.4999 42.3006 30.4099 42.4306 30.2999 42.5406C30.1899 42.6506 30.0599 42.7306 29.9199 42.8006C29.7799 42.8606 29.6199 42.8906 29.4599 42.8906H28.0499C28.0499 42.8906 27.9999 42.8906 27.9799 42.8606C27.9599 42.8406 27.9499 42.8206 27.9499 42.7906V42.1106C27.9499 42.1106 27.9499 42.0606 27.9799 42.0406C27.9999 42.0206 28.0199 42.0106 28.0499 42.0106H29.5999L29.5899 42.0206ZM28.1399 44.4806H28.9099V43.7106H28.1399V44.4806ZM29.2599 44.4806H30.0299V43.7106H29.2599V44.4806ZM35.3799 42.8006C35.3799 42.8606 35.3499 42.8906 35.2899 42.8906H34.9899C34.8099 42.8906 34.6499 42.8606 34.5099 42.7906C34.3599 42.7206 34.2299 42.6206 34.1299 42.5106C33.9399 42.6906 33.7099 42.7906 33.4499 42.8306L31.5299 43.1006L31.4299 42.3106L32.1599 42.2206L31.8299 38.7106L32.5799 38.6206L32.8899 42.1306L33.3899 42.0606C33.5099 42.0506 33.6099 41.9906 33.6899 41.9106C33.7699 41.8206 33.8099 41.7106 33.8099 41.5906V38.3006H34.5499V41.7106C34.5499 41.8006 34.5799 41.8806 34.6399 41.9406C34.6999 42.0006 34.7799 42.0306 34.8699 42.0306H35.2899C35.3499 42.0306 35.3799 42.0606 35.3799 42.1206V42.8106V42.8006ZM36.5299 42.0206C36.6199 42.0206 36.6999 41.9906 36.7599 41.9306C36.8199 41.8606 36.8499 41.7806 36.8499 41.6906V40.3006H37.5899V41.6906C37.5899 41.8606 37.5599 42.0106 37.4999 42.1606C37.4399 42.3006 37.3499 42.4306 37.2399 42.5406C37.1299 42.6506 36.9999 42.7306 36.8599 42.8006C36.7199 42.8606 36.5599 42.8906 36.3999 42.8906H35.3999C35.3999 42.8906 35.3499 42.8906 35.3299 42.8606C35.3099 42.8406 35.2999 42.8206 35.2999 42.7906V42.1106C35.2999 42.1106 35.2999 42.0606 35.3299 42.0406C35.3499 42.0206 35.3699 42.0106 35.3999 42.0106H36.5399L36.5299 42.0206ZM36.8199 39.6806H37.5899V38.9106H36.8199V39.6806ZM39.2099 42.9006H38.4699V38.8106H39.2099V42.9006ZM37.5599 38.6406V38.2806C37.5599 38.0706 37.6299 37.9206 37.7599 37.8106C37.8899 37.7006 38.0399 37.6406 38.1999 37.6406H39.5899V38.2806H38.2799C38.2799 38.2806 38.1999 38.3006 38.1699 38.3306C38.1499 38.3606 38.1399 38.3906 38.1399 38.4206V38.6406H37.5699H37.5599ZM48.1499 41.7006C48.1499 41.7906 48.1799 41.8706 48.2399 41.9306C48.2999 41.9906 48.3799 42.0206 48.4699 42.0206H48.7499C48.8099 42.0206 48.8399 42.0506 48.8399 42.1106V42.8006C48.8399 42.8606 48.8099 42.8906 48.7499 42.8906H48.5899C48.4299 42.8906 48.2799 42.8606 48.1399 42.8006C47.9999 42.7406 47.8799 42.6406 47.7699 42.5006C47.6599 42.6406 47.5299 42.7406 47.3799 42.8106C47.2299 42.8706 47.0699 42.9006 46.9199 42.9006C46.5999 42.9006 46.3499 42.7706 46.1699 42.5006C46.0699 42.6406 45.9499 42.7506 45.8299 42.8106C45.7099 42.8706 45.5699 42.9006 45.4199 42.9006C45.3399 42.9006 45.2599 42.8906 45.1599 42.8706C45.0699 42.8406 44.9899 42.7806 44.9299 42.6906V42.8706C44.9299 43.0406 44.8899 43.2006 44.8199 43.3406C44.7499 43.4906 44.6499 43.6206 44.5199 43.7206C44.3899 43.8306 44.2499 43.9206 44.0799 43.9806C43.9199 44.0406 43.7499 44.0706 43.5699 44.0706H42.3999C42.1899 44.0706 41.9999 44.0306 41.8099 43.9506C41.6299 43.8706 41.4599 43.7706 41.3299 43.6306C41.1999 43.5006 41.0899 43.3406 41.0099 43.1506C40.9299 42.9706 40.8999 42.7706 40.8999 42.5606V40.5906H41.6399V42.4506C41.6399 42.5506 41.6599 42.6506 41.6899 42.7406C41.7299 42.8306 41.7799 42.9106 41.8499 42.9806C41.9199 43.0506 41.9999 43.1006 42.0899 43.1306C42.1799 43.1706 42.2799 43.1906 42.3799 43.1906H43.5899C43.7599 43.1906 43.8999 43.1306 44.0199 43.0106C44.1399 42.8906 44.1999 42.7506 44.1999 42.5806V40.4706H44.9399V41.7006C44.9399 41.7906 44.9699 41.8606 45.0299 41.9206C45.0999 41.9806 45.1699 42.0106 45.2599 42.0106H45.4599C45.5499 42.0106 45.6299 41.9806 45.6999 41.9306C45.7699 41.8806 45.8099 41.8006 45.8299 41.7106L46.0699 40.4906L46.7999 40.6206L46.5999 41.6406C46.5799 41.7406 46.5999 41.8306 46.6599 41.9006C46.7299 41.9706 46.8099 42.0106 46.8999 42.0106H47.0799C47.1699 42.0106 47.2499 41.9806 47.3099 41.9206C47.3699 41.8606 47.3999 41.7806 47.3999 41.6906V40.2806H48.1399V41.6806L48.1499 41.7006ZM47.0099 39.8906H46.2399V39.1206H47.0099V39.8906ZM45.8799 39.8906H45.1099V39.1206H45.8799V39.8906ZM46.4299 38.8706H45.6599V38.1006H46.4299V38.8706ZM49.8799 38.6006H50.6499V39.3706H49.8799V38.6006ZM48.8499 42.9006C48.7899 42.9006 48.7599 42.8706 48.7599 42.8106V42.1306C48.7599 42.1306 48.7699 42.0906 48.7899 42.0606C48.8099 42.0406 48.8299 42.0306 48.8499 42.0306H50.0599C50.2499 42.0306 50.4299 42.0006 50.6199 41.9406C50.7999 41.8806 50.9599 41.7806 51.0899 41.6406L51.4799 41.2206L51.5399 41.1606L51.5699 41.1306L50.1599 40.7106C50.1599 40.7106 50.0699 40.7106 50.0399 40.7206C50.0099 40.7406 49.9799 40.7706 49.9699 40.8106L49.7099 41.4806L49.0599 41.3006L49.2399 40.6806C49.2799 40.5406 49.3399 40.4206 49.4299 40.3206C49.5199 40.2206 49.6099 40.1406 49.7299 40.0906C49.8399 40.0306 49.9599 40.0006 50.0899 39.9906C50.2199 39.9806 50.3399 39.9906 50.4499 40.0206L53.1299 40.8206L52.9099 41.5106L52.5899 41.4206C52.5099 41.4006 52.4499 41.4006 52.3899 41.4106C52.3399 41.4106 52.2899 41.4406 52.2499 41.4606V41.6906C52.2499 41.7806 52.2799 41.8606 52.3399 41.9206C52.3999 41.9806 52.4799 42.0106 52.5699 42.0106H53.4699C53.5299 42.0106 53.5599 42.0406 53.5599 42.1006V42.7906C53.5599 42.8506 53.5299 42.8806 53.4699 42.8806H52.6999C52.4299 42.8806 52.1999 42.8006 52.0099 42.6506C51.8299 42.4906 51.6999 42.2906 51.6299 42.0506L51.3599 42.3206C51.1699 42.5106 50.9399 42.6506 50.6899 42.7406C50.4299 42.8306 50.1699 42.8706 49.8999 42.8706H48.8599L48.8499 42.9006ZM53.7299 43.7006H54.4999V44.4706H53.7299V43.7006ZM54.8599 43.7006H55.6299V44.4706H54.8599V43.7006ZM54.2899 44.7306H55.0599V45.5006H54.2899V44.7306ZM55.1099 42.0206C55.1999 42.0206 55.2799 41.9906 55.3399 41.9306C55.3999 41.8606 55.4299 41.7806 55.4299 41.6906V40.3006H56.1699V41.6906C56.1699 41.8606 56.1399 42.0106 56.0799 42.1606C56.0199 42.3006 55.9299 42.4306 55.8199 42.5406C55.7099 42.6506 55.5799 42.7306 55.4399 42.8006C55.2999 42.8606 55.1399 42.8906 54.9799 42.8906H53.5699C53.5699 42.8906 53.5199 42.8906 53.4999 42.8606C53.4799 42.8406 53.4699 42.8206 53.4699 42.7906V42.1106C53.4699 42.1106 53.4699 42.0606 53.4999 42.0406C53.5199 42.0206 53.5399 42.0106 53.5699 42.0106H55.1199L55.1099 42.0206Z" fill="white"/>
<path d="M10.8398 37.1797C11.4298 37.1797 11.8998 37.6597 11.8998 38.2397V45.6697C11.8998 46.2597 11.4198 46.7297 10.8398 46.7297C10.2498 46.7297 9.77979 46.2497 9.77979 45.6697V38.2397C9.77979 37.6497 10.2598 37.1797 10.8398 37.1797Z" fill="#222222"/>
<path d="M15.0898 37.1797C15.6798 37.1797 16.1498 37.6597 16.1498 38.2397V45.6697C16.1498 46.2597 15.6698 46.7297 15.0898 46.7297C14.4998 46.7297 14.0298 46.2497 14.0298 45.6697V38.2397C14.0298 37.6497 14.5098 37.1797 15.0898 37.1797Z" fill="#222222"/>
<path d="M19.3442 10.9373C19.3175 11.0759 19.3442 11.1986 19.4242 11.3053C19.5095 11.4066 19.6295 11.4573 19.7842 11.4573H20.9842V10.3853C20.9842 10.2466 20.9335 10.1293 20.8322 10.0333C20.7362 9.93195 20.6188 9.88128 20.4802 9.88128H19.5362L19.3442 10.9373ZM19.8322 12.1133C19.6668 12.1133 19.5148 12.0786 19.3762 12.0093C19.2375 11.9399 19.1202 11.8466 19.0242 11.7293C18.9282 11.6119 18.8588 11.4786 18.8162 11.3293C18.7735 11.1746 18.7682 11.0173 18.8002 10.8573L18.9762 9.88128H18.5442C18.3842 9.88128 18.2455 9.94528 18.1282 10.0733C18.0162 10.1959 17.9602 10.3373 17.9602 10.4973V14.1053H17.4082V10.5133C17.4082 10.3426 17.4402 10.1826 17.5042 10.0333C17.5735 9.87861 17.6642 9.74528 17.7762 9.63328C17.8882 9.52128 18.0188 9.43328 18.1682 9.36928C18.3175 9.30528 18.4775 9.27328 18.6482 9.27328H20.4162C20.5708 9.27328 20.7148 9.30261 20.8482 9.36128C20.9868 9.41995 21.1068 9.49995 21.2082 9.60128C21.3095 9.70261 21.3895 9.82261 21.4482 9.96128C21.5068 10.0946 21.5362 10.2386 21.5362 10.3933V10.8813C21.5362 11.0413 21.5922 11.1773 21.7042 11.2893C21.8215 11.4013 21.9602 11.4573 22.1202 11.4573H22.7522C22.8268 11.4573 22.8642 11.4946 22.8642 11.5693V12.0013C22.8642 12.0279 22.8535 12.0546 22.8322 12.0813C22.8108 12.1026 22.7842 12.1133 22.7522 12.1133H22.2162C22.0615 12.1133 21.9095 12.0813 21.7602 12.0173C21.6108 11.9533 21.4855 11.8519 21.3842 11.7133C21.3415 11.8733 21.2722 11.9799 21.1762 12.0333C21.0802 12.0866 20.9628 12.1133 20.8242 12.1133H19.8322ZM22.6417 11.5693C22.6417 11.5426 22.6523 11.5186 22.6737 11.4973C22.6897 11.4706 22.7163 11.4573 22.7537 11.4573H24.0577C24.3137 11.4573 24.559 11.4146 24.7937 11.3293C25.0283 11.2386 25.239 11.1079 25.4257 10.9373L26.1377 10.2893C26.2017 10.2306 26.2497 10.1933 26.2817 10.1773L24.3617 9.60928C24.2657 9.58261 24.1723 9.59328 24.0817 9.64128C23.9963 9.68928 23.9377 9.76128 23.9057 9.85728L23.7057 10.4973L23.2177 10.3693L23.4017 9.72928C23.439 9.60128 23.4977 9.48928 23.5777 9.39328C23.663 9.29728 23.759 9.21995 23.8657 9.16128C23.9777 9.10261 24.095 9.06528 24.2177 9.04928C24.3457 9.03328 24.471 9.04395 24.5937 9.08128L27.6817 10.0093L27.5137 10.5453L27.1937 10.4493C27.0337 10.4173 26.903 10.4226 26.8017 10.4653C26.7003 10.5079 26.599 10.5746 26.4977 10.6653L25.5697 11.5133C25.3563 11.7159 25.1137 11.8679 24.8417 11.9693C24.5697 12.0653 24.2897 12.1133 24.0017 12.1133H22.7537C22.679 12.1133 22.6417 12.0759 22.6417 12.0013V11.5693ZM24.9537 13.7533H25.6337V13.0733H24.9537V13.7533ZM30.6786 12.1133C30.5613 12.1133 30.4493 12.0919 30.3426 12.0493C30.2359 12.0013 30.1426 11.9373 30.0626 11.8573C29.9879 11.7773 29.9266 11.6839 29.8786 11.5773C29.8359 11.4706 29.8146 11.3586 29.8146 11.2413V10.3933H30.2866V11.1213C30.2866 11.2119 30.3133 11.2919 30.3666 11.3613C30.4199 11.4253 30.4999 11.4573 30.6066 11.4573H31.8626C32.0226 11.4573 32.1533 11.4226 32.2546 11.3533C32.3559 11.2839 32.4306 11.2013 32.4786 11.1053C32.5266 11.0039 32.5479 10.8946 32.5426 10.7773C32.5373 10.6599 32.5079 10.5533 32.4546 10.4573L31.5346 8.81728L31.9986 8.50528L32.9106 10.1373C33.0439 10.3666 33.1079 10.6013 33.1026 10.8413C33.1026 11.0759 33.0493 11.2866 32.9426 11.4733C32.8413 11.6599 32.6919 11.8146 32.4946 11.9373C32.3026 12.0546 32.0813 12.1133 31.8306 12.1133H30.6786ZM34.7494 12.1133H34.1974V6.84128H34.7494V12.1133ZM36.5185 9.64928V10.9053C36.5185 11.0599 36.5745 11.1906 36.6865 11.2973C36.8039 11.4039 36.9399 11.4573 37.0945 11.4573H37.8945C37.9265 11.4573 37.9532 11.4706 37.9745 11.4973C37.9959 11.5186 38.0065 11.5453 38.0065 11.5773V12.0013C38.0065 12.0759 37.9692 12.1133 37.8945 12.1133H37.1905C37.0625 12.1133 36.9372 12.0866 36.8145 12.0333C36.6919 11.9799 36.5932 11.8999 36.5185 11.7933V12.1453C36.5185 12.3319 36.4892 12.5106 36.4305 12.6813C36.3719 12.8573 36.2892 13.0173 36.1825 13.1613C36.0812 13.3053 35.9559 13.4306 35.8065 13.5373C35.6572 13.6493 35.4945 13.7346 35.3185 13.7933L34.4065 14.1133L34.2305 13.5613L35.1985 13.2413C35.4332 13.1666 35.6199 13.0306 35.7585 12.8333C35.8972 12.6359 35.9665 12.4173 35.9665 12.1773V9.64928H36.5185ZM38.5983 11.4573V10.4813C38.5983 10.3266 38.6276 10.1826 38.6863 10.0493C38.745 9.91061 38.8223 9.79061 38.9183 9.68928C39.0196 9.58795 39.137 9.50795 39.2703 9.44928C39.409 9.39061 39.5583 9.36128 39.7183 9.36128H40.0223C40.273 9.36128 40.4943 9.44128 40.6863 9.60128C40.8836 9.76128 41.0063 9.96661 41.0543 10.2173L41.1743 10.8493C41.2063 11.0093 41.201 11.1666 41.1583 11.3213C41.121 11.4706 41.0543 11.6039 40.9583 11.7213C40.8623 11.8386 40.7423 11.9346 40.5983 12.0093C40.4596 12.0786 40.3076 12.1133 40.1423 12.1133H39.4703C39.4116 12.1133 39.3556 12.1079 39.3023 12.0973C39.249 12.0813 39.1956 12.0653 39.1423 12.0493C39.1476 12.0493 39.1503 12.0759 39.1503 12.1293C39.1503 12.3853 39.201 12.5799 39.3023 12.7133C39.4036 12.8519 39.5583 12.9426 39.7663 12.9853L40.4863 13.1213L41.1343 12.1133C41.4116 11.6759 41.8143 11.4573 42.3423 11.4573H42.4543C42.529 11.4573 42.5663 11.4946 42.5663 11.5693V11.9933C42.5663 12.0253 42.5556 12.0546 42.5343 12.0813C42.513 12.1026 42.4863 12.1133 42.4543 12.1133H42.2063C42.0516 12.1133 41.9183 12.1453 41.8063 12.2093C41.6996 12.2786 41.601 12.3826 41.5103 12.5213C41.4996 12.5373 41.473 12.5773 41.4303 12.6413C41.393 12.7053 41.345 12.7799 41.2863 12.8653C41.233 12.9559 41.1743 13.0493 41.1103 13.1453C41.0463 13.2413 40.9876 13.3293 40.9343 13.4093C40.881 13.4946 40.8356 13.5666 40.7983 13.6253C40.761 13.6839 40.7396 13.7159 40.7343 13.7213L39.5423 13.4573C39.2436 13.3933 39.0116 13.2493 38.8463 13.0253C38.6863 12.8066 38.6036 12.5026 38.5983 12.1133H37.8943C37.8623 12.1133 37.8356 12.1026 37.8143 12.0813C37.793 12.0546 37.7823 12.0253 37.7823 11.9933V11.5693C37.7823 11.4946 37.8196 11.4573 37.8943 11.4573H38.5983ZM39.1503 10.4733V11.4573H40.1983C40.2676 11.4573 40.3316 11.4439 40.3903 11.4173C40.449 11.3853 40.497 11.3453 40.5343 11.2973C40.577 11.2493 40.6063 11.1933 40.6223 11.1293C40.6436 11.0653 40.649 10.9986 40.6383 10.9293L40.5343 10.3853C40.513 10.2626 40.4543 10.1639 40.3583 10.0893C40.2676 10.0093 40.161 9.96928 40.0383 9.96928H39.6463C39.5076 9.96928 39.3903 10.0199 39.2943 10.1213C39.1983 10.2173 39.1503 10.3346 39.1503 10.4733ZM44.3288 11.4573H45.5448V10.3853C45.5448 10.2466 45.4941 10.1293 45.3928 10.0333C45.2968 9.93195 45.1768 9.88128 45.0328 9.88128H44.5128C44.3901 9.88128 44.2835 9.92128 44.1928 10.0013C44.1021 10.0759 44.0435 10.1719 44.0168 10.2893L43.8968 10.9373C43.8701 11.0759 43.8995 11.1986 43.9848 11.3053C44.0755 11.4066 44.1901 11.4573 44.3288 11.4573ZM43.3288 10.9533L43.4968 10.1293C43.5181 10.0066 43.5608 9.89195 43.6248 9.78528C43.6888 9.67861 43.7661 9.58795 43.8568 9.51328C43.9475 9.43861 44.0488 9.37995 44.1608 9.33728C44.2781 9.29461 44.4008 9.27328 44.5288 9.27328H44.9768C45.1315 9.27328 45.2755 9.30261 45.4088 9.36128C45.5475 9.41995 45.6675 9.49995 45.7688 9.60128C45.8701 9.70261 45.9501 9.81995 46.0088 9.95328C46.0675 10.0866 46.0968 10.2306 46.0968 10.3853V11.3933C46.0968 11.6066 46.0301 11.7799 45.8968 11.9133C45.7688 12.0466 45.5928 12.1133 45.3688 12.1133H44.3928C44.2221 12.1133 44.0648 12.0733 43.9208 11.9933C43.7821 11.9079 43.6675 11.7719 43.5768 11.5853C43.4808 11.7719 43.3528 11.9079 43.1928 11.9933C43.0328 12.0733 42.8648 12.1133 42.6888 12.1133H42.4568C42.3821 12.1133 42.3448 12.0759 42.3448 12.0013V11.5693C42.3448 11.5426 42.3555 11.5186 42.3768 11.4973C42.3981 11.4706 42.4248 11.4573 42.4568 11.4573H42.7128C42.8675 11.4573 43.0008 11.4093 43.1128 11.3133C43.2301 11.2173 43.3021 11.0973 43.3288 10.9533ZM14.5672 18.9933C14.5672 18.9933 14.5806 19.0493 14.6072 19.1613C14.6392 19.2733 14.6712 19.4146 14.7032 19.5853C14.7406 19.7559 14.7752 19.9426 14.8072 20.1453C14.8392 20.3479 14.8606 20.5399 14.8712 20.7213C14.8766 20.7799 14.9006 20.8226 14.9432 20.8493C14.9859 20.8759 15.0339 20.8893 15.0872 20.8893H15.9112V19.0653H17.1992V21.0733C17.1992 21.2279 17.1646 21.3773 17.0952 21.5213C17.0312 21.6653 16.9432 21.7933 16.8312 21.9053C16.7246 22.0119 16.5992 22.0973 16.4552 22.1613C16.3166 22.2253 16.1699 22.2573 16.0152 22.2573H15.3352C15.2446 22.2573 15.1512 22.2386 15.0552 22.2013C14.9646 22.1639 14.9139 22.1319 14.9032 22.1053V25.1053H13.6152V21.4493C13.6152 21.2146 13.6019 20.9826 13.5752 20.7533C13.5486 20.5186 13.5139 20.2866 13.4712 20.0573L13.3032 19.2173L14.5672 18.9933ZM23.2585 21.1213C23.2585 21.2759 23.2291 21.4226 23.1705 21.5613C23.1118 21.6999 23.0291 21.8226 22.9225 21.9293C22.8211 22.0306 22.7011 22.1106 22.5625 22.1693C22.4291 22.2279 22.2825 22.2573 22.1225 22.2573H21.5705C21.4158 22.2573 21.2611 22.2333 21.1065 22.1853C20.9571 22.1319 20.8158 22.0359 20.6825 21.8973C20.5438 22.0253 20.4131 22.1186 20.2905 22.1773C20.1678 22.2306 20.0371 22.2573 19.8985 22.2573C19.8025 22.2573 19.6985 22.2439 19.5865 22.2173C19.4798 22.1906 19.4078 22.1453 19.3705 22.0813V25.1053H18.0825V21.4493C18.0825 20.9853 18.0345 20.5213 17.9385 20.0573L17.7705 19.2173L19.0345 18.9933C19.0398 19.0146 19.0531 19.0759 19.0745 19.1773C19.0958 19.2786 19.1198 19.4066 19.1465 19.5613C19.1785 19.7159 19.2105 19.8946 19.2425 20.0973C19.2798 20.2946 19.3118 20.5026 19.3385 20.7213C19.3545 20.8013 19.3891 20.8493 19.4425 20.8653C19.5011 20.8813 19.5385 20.8893 19.5545 20.8893H19.6585C19.7278 20.8893 19.7865 20.8679 19.8345 20.8253C19.8878 20.7826 19.9198 20.7319 19.9305 20.6733L20.2585 19.0573L21.5225 19.2813L21.2425 20.6813C21.2371 20.7239 21.2451 20.7693 21.2665 20.8173C21.2878 20.8653 21.3438 20.8893 21.4345 20.8893H21.9785V19.0573H23.2585V21.1213ZM25.5651 21.3773C25.7678 21.3773 25.9571 21.4173 26.1331 21.4973C26.3144 21.5719 26.4718 21.6759 26.6051 21.8093C26.7384 21.9426 26.8424 22.0999 26.9171 22.2813C26.9971 22.4626 27.0371 22.6546 27.0371 22.8573V23.2573C27.0371 23.4599 26.9971 23.6519 26.9171 23.8333C26.8424 24.0146 26.7384 24.1719 26.6051 24.3053C26.4718 24.4386 26.3144 24.5453 26.1331 24.6253C25.9571 24.6999 25.7678 24.7373 25.5651 24.7373H25.1651C24.9678 24.7373 24.7784 24.6999 24.5971 24.6253C24.4211 24.5453 24.2664 24.4386 24.1331 24.3053C23.9998 24.1719 23.8931 24.0146 23.8131 23.8333C23.7331 23.6519 23.6931 23.4599 23.6931 23.2573V22.8573C23.6931 22.6546 23.7304 22.4626 23.8051 22.2813C23.8851 22.0999 23.9918 21.9426 24.1251 21.8093C24.2584 21.6759 24.4131 21.5719 24.5891 21.4973C24.7704 21.4173 24.9624 21.3773 25.1651 21.3773H25.5651ZM25.7571 23.2253V22.8413C25.7464 22.7506 25.6958 22.7053 25.6051 22.7053H25.1411C25.0984 22.6999 25.0611 22.7133 25.0291 22.7453C25.0024 22.7719 24.9891 22.8066 24.9891 22.8493V23.2253C24.9891 23.2679 25.0024 23.3026 25.0291 23.3293C25.0611 23.3559 25.0984 23.3693 25.1411 23.3693H25.6051C25.6638 23.3693 25.7038 23.3559 25.7251 23.3293C25.7464 23.3026 25.7571 23.2679 25.7571 23.2253ZM28.1606 25.1133V21.4573C28.1606 20.9826 28.1126 20.5186 28.0166 20.0653L27.8486 19.2253L29.1126 19.0013L29.2886 19.8813C29.3473 20.1533 29.3873 20.4226 29.4086 20.6893C29.4353 20.9506 29.4486 21.2119 29.4486 21.4733V25.1133H28.1606ZM31.6865 20.1453L31.4145 19.8893L32.2785 18.8253L33.4305 19.9373C33.6545 20.1506 33.8731 20.3746 34.0865 20.6093C34.2998 20.8386 34.4865 21.0893 34.6465 21.3613C34.8118 21.6279 34.9425 21.9239 35.0385 22.2493C35.1398 22.5746 35.1905 22.9426 35.1905 23.3533C35.1905 23.6039 35.1585 23.8359 35.0945 24.0493C35.0358 24.2626 34.9425 24.4493 34.8145 24.6093C34.6865 24.7639 34.5238 24.8866 34.3265 24.9773C34.1345 25.0626 33.9051 25.1053 33.6385 25.1053C33.4518 25.1053 33.2731 25.0839 33.1025 25.0413C32.9371 24.9986 32.7985 24.9453 32.6865 24.8813C32.5691 24.9399 32.4251 24.9933 32.2545 25.0413C32.0838 25.0839 31.9265 25.1053 31.7825 25.1053C31.4785 25.1053 31.2225 25.0546 31.0145 24.9533C30.8065 24.8519 30.6385 24.7213 30.5105 24.5613C30.3825 24.3959 30.2891 24.2093 30.2305 24.0013C30.1718 23.7879 30.1425 23.5719 30.1425 23.3533C30.1425 23.0119 30.1851 22.6946 30.2705 22.4013C30.3558 22.1026 30.4705 21.8226 30.6145 21.5613C30.7585 21.2946 30.9238 21.0466 31.1105 20.8173C31.2971 20.5826 31.4891 20.3586 31.6865 20.1453ZM32.6865 21.0333C32.3825 21.3106 32.1398 21.5479 31.9585 21.7453C31.7771 21.9373 31.6358 22.1159 31.5345 22.2813C31.4385 22.4413 31.3745 22.6066 31.3425 22.7773C31.3105 22.9426 31.2945 23.1373 31.2945 23.3613C31.2945 23.5213 31.3425 23.6253 31.4385 23.6733C31.5398 23.7159 31.6465 23.7373 31.7585 23.7373H31.7745C31.8438 23.7373 31.8998 23.7133 31.9425 23.6653C31.9905 23.6119 32.0385 23.4999 32.0865 23.3293L32.2065 22.8893L33.3025 23.1053L33.1905 23.6093C33.2171 23.6679 33.2491 23.7053 33.2865 23.7213C33.3238 23.7373 33.3718 23.7453 33.4305 23.7453H33.5985C33.6998 23.7453 33.7985 23.7186 33.8945 23.6653C33.9905 23.6119 34.0385 23.5106 34.0385 23.3613C34.0438 23.1159 34.0225 22.9026 33.9745 22.7213C33.9318 22.5399 33.8571 22.3666 33.7505 22.2013C33.6491 22.0306 33.5105 21.8546 33.3345 21.6733C33.1585 21.4919 32.9425 21.2786 32.6865 21.0333ZM36.6098 21.3933H37.8098V22.6173H36.6098V21.3933ZM36.6098 23.8893H37.8098V25.1133H36.6098V23.8893ZM42.8116 23.7533H43.0356C43.0623 23.7533 43.0863 23.7666 43.1076 23.7933C43.1343 23.8199 43.1476 23.8493 43.1476 23.8813V25.0013C43.1476 25.0279 43.1369 25.0546 43.1156 25.0813C43.0943 25.1026 43.0676 25.1133 43.0356 25.1133H42.9156C42.6969 25.1133 42.5049 25.0706 42.3396 24.9853C42.1796 24.8999 42.0436 24.8039 41.9316 24.6973C41.7823 24.8519 41.6196 24.9613 41.4436 25.0253C41.2676 25.0839 41.0836 25.1133 40.8916 25.1133H39.8836C39.7183 25.1133 39.5609 25.0813 39.4116 25.0173C39.2623 24.9533 39.1316 24.8679 39.0196 24.7613C38.9076 24.6493 38.8196 24.5186 38.7556 24.3693C38.6916 24.2199 38.6596 24.0626 38.6596 23.8973V22.6973H39.6196V23.6253C39.6196 23.7106 39.6649 23.7533 39.7556 23.7533H40.9076C41.0196 23.7533 41.1183 23.7186 41.2036 23.6493C41.2889 23.5746 41.3156 23.4759 41.2836 23.3533L40.6036 20.9133L41.6996 20.5133L42.5556 23.5613C42.5716 23.6199 42.6036 23.6679 42.6516 23.7053C42.6996 23.7373 42.7529 23.7533 42.8116 23.7533ZM44.1549 22.8253L43.3309 22.0333L45.8829 19.0333L46.7149 19.8013L45.2269 21.5613H48.1789C48.3816 21.5613 48.5709 21.6013 48.7469 21.6813C48.9282 21.7559 49.0856 21.8599 49.2189 21.9933C49.3522 22.1266 49.4562 22.2839 49.5309 22.4653C49.6109 22.6413 49.6509 22.8333 49.6509 23.0413V23.6333C49.6509 23.8466 49.6082 24.0439 49.5229 24.2253C49.4376 24.4066 49.3229 24.5639 49.1789 24.6973C49.0402 24.8306 48.8802 24.9346 48.6989 25.0093C48.5176 25.0786 48.3282 25.1133 48.1309 25.1133H43.0349C43.0082 25.1133 42.9842 25.1026 42.9629 25.0813C42.9362 25.0546 42.9229 25.0279 42.9229 25.0013V23.8653C42.9229 23.8386 42.9336 23.8146 42.9549 23.7933C42.9762 23.7666 43.0029 23.7533 43.0349 23.7533H48.3549C48.3816 23.7533 48.4109 23.7426 48.4429 23.7213C48.4802 23.6999 48.4989 23.6626 48.4989 23.6093V23.0093C48.4989 22.9559 48.4802 22.9133 48.4429 22.8813C48.4056 22.8439 48.3629 22.8253 48.3149 22.8253H44.1549Z" fill="black"/>
</svg>
