<svg width="63" height="56" viewBox="0 0 63 56" fill="none" xmlns="http://www.w3.org/2000/svg">
<path d="M12.81 1H50.57C57.09 1 62.39 6.29 62.39 12.82V55.32H1V12.82C1 6.3 6.29001 1 12.82 1H12.81Z" fill="white" stroke="#19B5FF" stroke-width="0.52" stroke-miterlimit="10"/>
<path d="M50.8548 32.4805H12.5348C7.38482 32.4805 3.21484 36.6505 3.21484 41.8005C3.21484 46.9505 7.38482 51.1205 12.5348 51.1205H50.8548C56.0048 51.1205 60.1748 46.9505 60.1748 41.8005C60.1748 36.6505 56.0048 32.4805 50.8548 32.4805Z" fill="#696969"/>
<path d="M12.9748 49.811C17.3986 49.811 20.9848 46.2248 20.9848 41.801C20.9848 37.3772 17.3986 33.791 12.9748 33.791C8.55102 33.791 4.96484 37.3772 4.96484 41.801C4.96484 46.2248 8.55102 49.811 12.9748 49.811Z" fill="white"/>
<path d="M17.1149 42.6409C17.7349 42.2509 17.7349 41.3609 17.1149 40.9709L11.0549 37.1809C10.4049 36.7709 9.54492 37.2409 9.54492 38.0109V45.6009C9.54492 46.3709 10.3949 46.8409 11.0549 46.4309L17.1149 42.6409Z" fill="#696969"/>
<path d="M23.1748 42.4105V40.4405H23.9148V42.3105C23.9148 42.4105 23.9348 42.5105 23.9648 42.6005C24.0048 42.6905 24.0548 42.7705 24.1248 42.8405C24.1948 42.9105 24.2748 42.9605 24.3648 42.9905C24.4548 43.0305 24.5548 43.0505 24.6548 43.0505H25.8648C26.0348 43.0505 26.1748 42.9905 26.2948 42.8705C26.4148 42.7505 26.4748 42.6105 26.4748 42.4405V40.3305H27.2148V41.5405C27.2148 41.6305 27.2448 41.7105 27.3048 41.7705C27.3648 41.8305 27.4448 41.8605 27.5348 41.8605H27.9548C27.9548 41.8605 28.0048 41.8705 28.0248 41.8905C28.0448 41.9105 28.0548 41.9305 28.0548 41.9605V42.6405C28.0548 42.6405 28.0548 42.6805 28.0248 42.7105C28.0048 42.7305 27.9848 42.7405 27.9548 42.7405H27.6548C27.5048 42.7405 27.4048 42.7105 27.3348 42.6605C27.2748 42.6105 27.2248 42.5605 27.2048 42.5305V42.7005C27.2048 42.8705 27.1648 43.0305 27.0948 43.1805C27.0248 43.3305 26.9248 43.4605 26.7948 43.5705C26.6748 43.6805 26.5348 43.7705 26.3748 43.8305C26.2148 43.8905 26.0448 43.9205 25.8648 43.9205H24.6948C24.4848 43.9205 24.2948 43.8805 24.1048 43.8005C23.9248 43.7205 23.7548 43.6205 23.6248 43.4805C23.4948 43.3505 23.3848 43.1905 23.3048 43.0005C23.2248 42.8205 23.1948 42.6205 23.1948 42.4105H23.1748ZM24.8048 39.5605H25.5748V40.3305H24.8048V39.5605ZM29.5948 41.8605C29.6848 41.8605 29.7648 41.8305 29.8248 41.7705C29.8848 41.7005 29.9148 41.6205 29.9148 41.5305V40.1405H30.6548V41.5305C30.6548 41.7005 30.6248 41.8505 30.5648 42.0005C30.5048 42.1405 30.4148 42.2705 30.3048 42.3805C30.1948 42.4905 30.0648 42.5705 29.9248 42.6405C29.7848 42.7005 29.6248 42.7305 29.4648 42.7305H28.0548C28.0548 42.7305 28.0048 42.7305 27.9848 42.7005C27.9648 42.6805 27.9548 42.6605 27.9548 42.6305V41.9505C27.9548 41.9505 27.9548 41.9005 27.9848 41.8805C28.0048 41.8605 28.0248 41.8505 28.0548 41.8505H29.6048L29.5948 41.8605ZM28.1448 44.3205H28.9148V43.5505H28.1448V44.3205ZM29.2648 44.3205H30.0348V43.5505H29.2648V44.3205ZM35.3948 42.6405C35.3948 42.7005 35.3648 42.7305 35.3048 42.7305H35.0048C34.8248 42.7305 34.6648 42.7005 34.5248 42.6305C34.3748 42.5605 34.2448 42.4605 34.1448 42.3505C33.9548 42.5305 33.7248 42.6305 33.4648 42.6705L31.5448 42.9405L31.4448 42.1505L32.1748 42.0605L31.8448 38.5505L32.5948 38.4605L32.9048 41.9705L33.4048 41.9005C33.5248 41.8905 33.6248 41.8305 33.7048 41.7505C33.7848 41.6605 33.8248 41.5505 33.8248 41.4305V38.1405H34.5648V41.5505C34.5648 41.6405 34.5948 41.7205 34.6548 41.7805C34.7148 41.8405 34.7948 41.8705 34.8848 41.8705H35.3048C35.3648 41.8705 35.3948 41.9005 35.3948 41.9605V42.6505V42.6405ZM36.5348 41.8605C36.6248 41.8605 36.7048 41.8305 36.7648 41.7705C36.8248 41.7005 36.8548 41.6205 36.8548 41.5305V40.1405H37.5948V41.5305C37.5948 41.7005 37.5648 41.8505 37.5048 42.0005C37.4448 42.1405 37.3548 42.2705 37.2448 42.3805C37.1348 42.4905 37.0048 42.5705 36.8648 42.6405C36.7248 42.7005 36.5648 42.7305 36.4048 42.7305H35.4048C35.4048 42.7305 35.3548 42.7305 35.3348 42.7005C35.3148 42.6805 35.3048 42.6605 35.3048 42.6305V41.9505C35.3048 41.9505 35.3048 41.9005 35.3348 41.8805C35.3548 41.8605 35.3748 41.8505 35.4048 41.8505H36.5448L36.5348 41.8605ZM36.8248 39.5205H37.5948V38.7505H36.8248V39.5205ZM39.2148 42.7405H38.4748V38.6505H39.2148V42.7405ZM37.5648 38.4805V38.1205C37.5648 37.9105 37.6348 37.7605 37.7648 37.6505C37.8948 37.5405 38.0448 37.4805 38.2048 37.4805H39.5948V38.1205H38.2848C38.2848 38.1205 38.2048 38.1405 38.1748 38.1705C38.1548 38.2005 38.1448 38.2305 38.1448 38.2605V38.4805H37.5748H37.5648ZM48.1548 41.5405C48.1548 41.6305 48.1848 41.7105 48.2448 41.7705C48.3048 41.8305 48.3848 41.8605 48.4748 41.8605H48.7548C48.8148 41.8605 48.8448 41.8905 48.8448 41.9505V42.6405C48.8448 42.7005 48.8148 42.7305 48.7548 42.7305H48.5948C48.4348 42.7305 48.2848 42.7005 48.1448 42.6405C48.0048 42.5805 47.8848 42.4805 47.7748 42.3405C47.6648 42.4805 47.5348 42.5805 47.3848 42.6505C47.2348 42.7105 47.0748 42.7405 46.9248 42.7405C46.6048 42.7405 46.3548 42.6105 46.1748 42.3405C46.0748 42.4805 45.9548 42.5905 45.8348 42.6505C45.7148 42.7105 45.5748 42.7405 45.4248 42.7405C45.3448 42.7405 45.2648 42.7305 45.1648 42.7105C45.0748 42.6805 44.9948 42.6205 44.9348 42.5305V42.7105C44.9348 42.8805 44.8948 43.0405 44.8248 43.1805C44.7548 43.3305 44.6548 43.4605 44.5248 43.5605C44.3948 43.6705 44.2548 43.7605 44.0848 43.8205C43.9248 43.8805 43.7548 43.9105 43.5748 43.9105H42.4048C42.1948 43.9105 42.0048 43.8705 41.8148 43.7905C41.6348 43.7105 41.4648 43.6105 41.3348 43.4705C41.2048 43.3405 41.0948 43.1805 41.0148 42.9905C40.9348 42.8105 40.9048 42.6105 40.9048 42.4005V40.4305H41.6448V42.2905C41.6448 42.3905 41.6648 42.4905 41.6948 42.5805C41.7348 42.6705 41.7848 42.7505 41.8548 42.8205C41.9248 42.8905 42.0048 42.9405 42.0948 42.9705C42.1848 43.0105 42.2848 43.0305 42.3848 43.0305H43.5948C43.7648 43.0305 43.9048 42.9705 44.0248 42.8505C44.1448 42.7305 44.2048 42.5905 44.2048 42.4205V40.3105H44.9448V41.5405C44.9448 41.6305 44.9748 41.7005 45.0348 41.7605C45.1048 41.8205 45.1748 41.8505 45.2648 41.8505H45.4648C45.5548 41.8505 45.6348 41.8205 45.7048 41.7705C45.7748 41.7205 45.8148 41.6405 45.8348 41.5505L46.0748 40.3305L46.8048 40.4605L46.6048 41.4805C46.5848 41.5805 46.6048 41.6705 46.6648 41.7405C46.7348 41.8105 46.8148 41.8505 46.9048 41.8505H47.0848C47.1748 41.8505 47.2548 41.8205 47.3148 41.7605C47.3748 41.7005 47.4048 41.6205 47.4048 41.5305V40.1205H48.1448V41.5205L48.1548 41.5405ZM47.0148 39.7305H46.2448V38.9605H47.0148V39.7305ZM45.8848 39.7305H45.1148V38.9605H45.8848V39.7305ZM46.4448 38.7105H45.6748V37.9405H46.4448V38.7105ZM49.8848 38.4405H50.6548V39.2105H49.8848V38.4405ZM48.8548 42.7405C48.7948 42.7405 48.7648 42.7105 48.7648 42.6505V41.9705C48.7648 41.9705 48.7748 41.9305 48.7948 41.9005C48.8148 41.8805 48.8348 41.8705 48.8548 41.8705H50.0648C50.2548 41.8705 50.4348 41.8405 50.6248 41.7805C50.8048 41.7205 50.9648 41.6205 51.0948 41.4805L51.4848 41.0605L51.5448 41.0005L51.5748 40.9705L50.1648 40.5505C50.1648 40.5505 50.0748 40.5505 50.0448 40.5605C50.0148 40.5805 49.9848 40.6105 49.9748 40.6505L49.7148 41.3205L49.0648 41.1405L49.2448 40.5205C49.2848 40.3805 49.3448 40.2605 49.4348 40.1605C49.5248 40.0605 49.6148 39.9805 49.7348 39.9305C49.8448 39.8705 49.9648 39.8405 50.0948 39.8305C50.2248 39.8205 50.3448 39.8305 50.4548 39.8605L53.1348 40.6605L52.9148 41.3505L52.5948 41.2605C52.5148 41.2405 52.4548 41.2405 52.3948 41.2505C52.3448 41.2505 52.2948 41.2805 52.2548 41.3005V41.5305C52.2548 41.6205 52.2848 41.7005 52.3448 41.7605C52.4048 41.8205 52.4848 41.8505 52.5748 41.8505H53.4748C53.5348 41.8505 53.5648 41.8805 53.5648 41.9405V42.6305C53.5648 42.6905 53.5348 42.7205 53.4748 42.7205H52.7048C52.4348 42.7205 52.2048 42.6405 52.0148 42.4905C51.8348 42.3305 51.7048 42.1305 51.6348 41.8905L51.3648 42.1605C51.1748 42.3505 50.9448 42.4905 50.6948 42.5805C50.4348 42.6705 50.1748 42.7105 49.9048 42.7105H48.8648L48.8548 42.7405ZM53.7448 43.5405H54.5148V44.3105H53.7448V43.5405ZM54.8648 43.5405H55.6348V44.3105H54.8648V43.5405ZM54.2948 44.5705H55.0648V45.3405H54.2948V44.5705ZM55.1148 41.8605C55.2048 41.8605 55.2848 41.8305 55.3448 41.7705C55.4048 41.7005 55.4348 41.6205 55.4348 41.5305V40.1405H56.1748V41.5305C56.1748 41.7005 56.1448 41.8505 56.0848 42.0005C56.0248 42.1405 55.9348 42.2705 55.8248 42.3805C55.7148 42.4905 55.5848 42.5705 55.4448 42.6405C55.3048 42.7005 55.1448 42.7305 54.9848 42.7305H53.5748C53.5748 42.7305 53.5248 42.7305 53.5048 42.7005C53.4848 42.6805 53.4748 42.6605 53.4748 42.6305V41.9505C53.4748 41.9505 53.4748 41.9005 53.5048 41.8805C53.5248 41.8605 53.5448 41.8505 53.5748 41.8505H55.1248L55.1148 41.8605Z" fill="white"/>
<path d="M19.3442 10.9373C19.3175 11.0759 19.3442 11.1986 19.4242 11.3053C19.5095 11.4066 19.6295 11.4573 19.7842 11.4573H20.9842V10.3853C20.9842 10.2466 20.9335 10.1293 20.8322 10.0333C20.7362 9.93195 20.6188 9.88128 20.4802 9.88128H19.5362L19.3442 10.9373ZM19.8322 12.1133C19.6668 12.1133 19.5148 12.0786 19.3762 12.0093C19.2375 11.9399 19.1202 11.8466 19.0242 11.7293C18.9282 11.6119 18.8588 11.4786 18.8162 11.3293C18.7735 11.1746 18.7682 11.0173 18.8002 10.8573L18.9762 9.88128H18.5442C18.3842 9.88128 18.2455 9.94528 18.1282 10.0733C18.0162 10.1959 17.9602 10.3373 17.9602 10.4973V14.1053H17.4082V10.5133C17.4082 10.3426 17.4402 10.1826 17.5042 10.0333C17.5735 9.87861 17.6642 9.74528 17.7762 9.63328C17.8882 9.52128 18.0188 9.43328 18.1682 9.36928C18.3175 9.30528 18.4775 9.27328 18.6482 9.27328H20.4162C20.5708 9.27328 20.7148 9.30261 20.8482 9.36128C20.9868 9.41995 21.1068 9.49995 21.2082 9.60128C21.3095 9.70261 21.3895 9.82261 21.4482 9.96128C21.5068 10.0946 21.5362 10.2386 21.5362 10.3933V10.8813C21.5362 11.0413 21.5922 11.1773 21.7042 11.2893C21.8215 11.4013 21.9602 11.4573 22.1202 11.4573H22.7522C22.8268 11.4573 22.8642 11.4946 22.8642 11.5693V12.0013C22.8642 12.0279 22.8535 12.0546 22.8322 12.0813C22.8108 12.1026 22.7842 12.1133 22.7522 12.1133H22.2162C22.0615 12.1133 21.9095 12.0813 21.7602 12.0173C21.6108 11.9533 21.4855 11.8519 21.3842 11.7133C21.3415 11.8733 21.2722 11.9799 21.1762 12.0333C21.0802 12.0866 20.9628 12.1133 20.8242 12.1133H19.8322ZM22.6417 11.5693C22.6417 11.5426 22.6523 11.5186 22.6737 11.4973C22.6897 11.4706 22.7163 11.4573 22.7537 11.4573H24.0577C24.3137 11.4573 24.559 11.4146 24.7937 11.3293C25.0283 11.2386 25.239 11.1079 25.4257 10.9373L26.1377 10.2893C26.2017 10.2306 26.2497 10.1933 26.2817 10.1773L24.3617 9.60928C24.2657 9.58261 24.1723 9.59328 24.0817 9.64128C23.9963 9.68928 23.9377 9.76128 23.9057 9.85728L23.7057 10.4973L23.2177 10.3693L23.4017 9.72928C23.439 9.60128 23.4977 9.48928 23.5777 9.39328C23.663 9.29728 23.759 9.21995 23.8657 9.16128C23.9777 9.10261 24.095 9.06528 24.2177 9.04928C24.3457 9.03328 24.471 9.04395 24.5937 9.08128L27.6817 10.0093L27.5137 10.5453L27.1937 10.4493C27.0337 10.4173 26.903 10.4226 26.8017 10.4653C26.7003 10.5079 26.599 10.5746 26.4977 10.6653L25.5697 11.5133C25.3563 11.7159 25.1137 11.8679 24.8417 11.9693C24.5697 12.0653 24.2897 12.1133 24.0017 12.1133H22.7537C22.679 12.1133 22.6417 12.0759 22.6417 12.0013V11.5693ZM24.9537 13.7533H25.6337V13.0733H24.9537V13.7533ZM30.6786 12.1133C30.5613 12.1133 30.4493 12.0919 30.3426 12.0493C30.2359 12.0013 30.1426 11.9373 30.0626 11.8573C29.9879 11.7773 29.9266 11.6839 29.8786 11.5773C29.8359 11.4706 29.8146 11.3586 29.8146 11.2413V10.3933H30.2866V11.1213C30.2866 11.2119 30.3133 11.2919 30.3666 11.3613C30.4199 11.4253 30.4999 11.4573 30.6066 11.4573H31.8626C32.0226 11.4573 32.1533 11.4226 32.2546 11.3533C32.3559 11.2839 32.4306 11.2013 32.4786 11.1053C32.5266 11.0039 32.5479 10.8946 32.5426 10.7773C32.5373 10.6599 32.5079 10.5533 32.4546 10.4573L31.5346 8.81728L31.9986 8.50528L32.9106 10.1373C33.0439 10.3666 33.1079 10.6013 33.1026 10.8413C33.1026 11.0759 33.0493 11.2866 32.9426 11.4733C32.8413 11.6599 32.6919 11.8146 32.4946 11.9373C32.3026 12.0546 32.0813 12.1133 31.8306 12.1133H30.6786ZM34.7494 12.1133H34.1974V6.84128H34.7494V12.1133ZM36.5185 9.64928V10.9053C36.5185 11.0599 36.5745 11.1906 36.6865 11.2973C36.8039 11.4039 36.9399 11.4573 37.0945 11.4573H37.8945C37.9265 11.4573 37.9532 11.4706 37.9745 11.4973C37.9959 11.5186 38.0065 11.5453 38.0065 11.5773V12.0013C38.0065 12.0759 37.9692 12.1133 37.8945 12.1133H37.1905C37.0625 12.1133 36.9372 12.0866 36.8145 12.0333C36.6919 11.9799 36.5932 11.8999 36.5185 11.7933V12.1453C36.5185 12.3319 36.4892 12.5106 36.4305 12.6813C36.3719 12.8573 36.2892 13.0173 36.1825 13.1613C36.0812 13.3053 35.9559 13.4306 35.8065 13.5373C35.6572 13.6493 35.4945 13.7346 35.3185 13.7933L34.4065 14.1133L34.2305 13.5613L35.1985 13.2413C35.4332 13.1666 35.6199 13.0306 35.7585 12.8333C35.8972 12.6359 35.9665 12.4173 35.9665 12.1773V9.64928H36.5185ZM38.5983 11.4573V10.4813C38.5983 10.3266 38.6276 10.1826 38.6863 10.0493C38.745 9.91061 38.8223 9.79061 38.9183 9.68928C39.0196 9.58795 39.137 9.50795 39.2703 9.44928C39.409 9.39061 39.5583 9.36128 39.7183 9.36128H40.0223C40.273 9.36128 40.4943 9.44128 40.6863 9.60128C40.8836 9.76128 41.0063 9.96661 41.0543 10.2173L41.1743 10.8493C41.2063 11.0093 41.201 11.1666 41.1583 11.3213C41.121 11.4706 41.0543 11.6039 40.9583 11.7213C40.8623 11.8386 40.7423 11.9346 40.5983 12.0093C40.4596 12.0786 40.3076 12.1133 40.1423 12.1133H39.4703C39.4116 12.1133 39.3556 12.1079 39.3023 12.0973C39.249 12.0813 39.1956 12.0653 39.1423 12.0493C39.1476 12.0493 39.1503 12.0759 39.1503 12.1293C39.1503 12.3853 39.201 12.5799 39.3023 12.7133C39.4036 12.8519 39.5583 12.9426 39.7663 12.9853L40.4863 13.1213L41.1343 12.1133C41.4116 11.6759 41.8143 11.4573 42.3423 11.4573H42.4543C42.529 11.4573 42.5663 11.4946 42.5663 11.5693V11.9933C42.5663 12.0253 42.5556 12.0546 42.5343 12.0813C42.513 12.1026 42.4863 12.1133 42.4543 12.1133H42.2063C42.0516 12.1133 41.9183 12.1453 41.8063 12.2093C41.6996 12.2786 41.601 12.3826 41.5103 12.5213C41.4996 12.5373 41.473 12.5773 41.4303 12.6413C41.393 12.7053 41.345 12.7799 41.2863 12.8653C41.233 12.9559 41.1743 13.0493 41.1103 13.1453C41.0463 13.2413 40.9876 13.3293 40.9343 13.4093C40.881 13.4946 40.8356 13.5666 40.7983 13.6253C40.761 13.6839 40.7396 13.7159 40.7343 13.7213L39.5423 13.4573C39.2436 13.3933 39.0116 13.2493 38.8463 13.0253C38.6863 12.8066 38.6036 12.5026 38.5983 12.1133H37.8943C37.8623 12.1133 37.8356 12.1026 37.8143 12.0813C37.793 12.0546 37.7823 12.0253 37.7823 11.9933V11.5693C37.7823 11.4946 37.8196 11.4573 37.8943 11.4573H38.5983ZM39.1503 10.4733V11.4573H40.1983C40.2676 11.4573 40.3316 11.4439 40.3903 11.4173C40.449 11.3853 40.497 11.3453 40.5343 11.2973C40.577 11.2493 40.6063 11.1933 40.6223 11.1293C40.6436 11.0653 40.649 10.9986 40.6383 10.9293L40.5343 10.3853C40.513 10.2626 40.4543 10.1639 40.3583 10.0893C40.2676 10.0093 40.161 9.96928 40.0383 9.96928H39.6463C39.5076 9.96928 39.3903 10.0199 39.2943 10.1213C39.1983 10.2173 39.1503 10.3346 39.1503 10.4733ZM44.3288 11.4573H45.5448V10.3853C45.5448 10.2466 45.4941 10.1293 45.3928 10.0333C45.2968 9.93195 45.1768 9.88128 45.0328 9.88128H44.5128C44.3901 9.88128 44.2835 9.92128 44.1928 10.0013C44.1021 10.0759 44.0435 10.1719 44.0168 10.2893L43.8968 10.9373C43.8701 11.0759 43.8995 11.1986 43.9848 11.3053C44.0755 11.4066 44.1901 11.4573 44.3288 11.4573ZM43.3288 10.9533L43.4968 10.1293C43.5181 10.0066 43.5608 9.89195 43.6248 9.78528C43.6888 9.67861 43.7661 9.58795 43.8568 9.51328C43.9475 9.43861 44.0488 9.37995 44.1608 9.33728C44.2781 9.29461 44.4008 9.27328 44.5288 9.27328H44.9768C45.1315 9.27328 45.2755 9.30261 45.4088 9.36128C45.5475 9.41995 45.6675 9.49995 45.7688 9.60128C45.8701 9.70261 45.9501 9.81995 46.0088 9.95328C46.0675 10.0866 46.0968 10.2306 46.0968 10.3853V11.3933C46.0968 11.6066 46.0301 11.7799 45.8968 11.9133C45.7688 12.0466 45.5928 12.1133 45.3688 12.1133H44.3928C44.2221 12.1133 44.0648 12.0733 43.9208 11.9933C43.7821 11.9079 43.6675 11.7719 43.5768 11.5853C43.4808 11.7719 43.3528 11.9079 43.1928 11.9933C43.0328 12.0733 42.8648 12.1133 42.6888 12.1133H42.4568C42.3821 12.1133 42.3448 12.0759 42.3448 12.0013V11.5693C42.3448 11.5426 42.3555 11.5186 42.3768 11.4973C42.3981 11.4706 42.4248 11.4573 42.4568 11.4573H42.7128C42.8675 11.4573 43.0008 11.4093 43.1128 11.3133C43.2301 11.2173 43.3021 11.0973 43.3288 10.9533ZM14.5672 18.9933C14.5672 18.9933 14.5806 19.0493 14.6072 19.1613C14.6392 19.2733 14.6712 19.4146 14.7032 19.5853C14.7406 19.7559 14.7752 19.9426 14.8072 20.1453C14.8392 20.3479 14.8606 20.5399 14.8712 20.7213C14.8766 20.7799 14.9006 20.8226 14.9432 20.8493C14.9859 20.8759 15.0339 20.8893 15.0872 20.8893H15.9112V19.0653H17.1992V21.0733C17.1992 21.2279 17.1646 21.3773 17.0952 21.5213C17.0312 21.6653 16.9432 21.7933 16.8312 21.9053C16.7246 22.0119 16.5992 22.0973 16.4552 22.1613C16.3166 22.2253 16.1699 22.2573 16.0152 22.2573H15.3352C15.2446 22.2573 15.1512 22.2386 15.0552 22.2013C14.9646 22.1639 14.9139 22.1319 14.9032 22.1053V25.1053H13.6152V21.4493C13.6152 21.2146 13.6019 20.9826 13.5752 20.7533C13.5486 20.5186 13.5139 20.2866 13.4712 20.0573L13.3032 19.2173L14.5672 18.9933ZM23.2585 21.1213C23.2585 21.2759 23.2291 21.4226 23.1705 21.5613C23.1118 21.6999 23.0291 21.8226 22.9225 21.9293C22.8211 22.0306 22.7011 22.1106 22.5625 22.1693C22.4291 22.2279 22.2825 22.2573 22.1225 22.2573H21.5705C21.4158 22.2573 21.2611 22.2333 21.1065 22.1853C20.9571 22.1319 20.8158 22.0359 20.6825 21.8973C20.5438 22.0253 20.4131 22.1186 20.2905 22.1773C20.1678 22.2306 20.0371 22.2573 19.8985 22.2573C19.8025 22.2573 19.6985 22.2439 19.5865 22.2173C19.4798 22.1906 19.4078 22.1453 19.3705 22.0813V25.1053H18.0825V21.4493C18.0825 20.9853 18.0345 20.5213 17.9385 20.0573L17.7705 19.2173L19.0345 18.9933C19.0398 19.0146 19.0531 19.0759 19.0745 19.1773C19.0958 19.2786 19.1198 19.4066 19.1465 19.5613C19.1785 19.7159 19.2105 19.8946 19.2425 20.0973C19.2798 20.2946 19.3118 20.5026 19.3385 20.7213C19.3545 20.8013 19.3891 20.8493 19.4425 20.8653C19.5011 20.8813 19.5385 20.8893 19.5545 20.8893H19.6585C19.7278 20.8893 19.7865 20.8679 19.8345 20.8253C19.8878 20.7826 19.9198 20.7319 19.9305 20.6733L20.2585 19.0573L21.5225 19.2813L21.2425 20.6813C21.2371 20.7239 21.2451 20.7693 21.2665 20.8173C21.2878 20.8653 21.3438 20.8893 21.4345 20.8893H21.9785V19.0573H23.2585V21.1213ZM25.5651 21.3773C25.7678 21.3773 25.9571 21.4173 26.1331 21.4973C26.3144 21.5719 26.4718 21.6759 26.6051 21.8093C26.7384 21.9426 26.8424 22.0999 26.9171 22.2813C26.9971 22.4626 27.0371 22.6546 27.0371 22.8573V23.2573C27.0371 23.4599 26.9971 23.6519 26.9171 23.8333C26.8424 24.0146 26.7384 24.1719 26.6051 24.3053C26.4718 24.4386 26.3144 24.5453 26.1331 24.6253C25.9571 24.6999 25.7678 24.7373 25.5651 24.7373H25.1651C24.9678 24.7373 24.7784 24.6999 24.5971 24.6253C24.4211 24.5453 24.2664 24.4386 24.1331 24.3053C23.9998 24.1719 23.8931 24.0146 23.8131 23.8333C23.7331 23.6519 23.6931 23.4599 23.6931 23.2573V22.8573C23.6931 22.6546 23.7304 22.4626 23.8051 22.2813C23.8851 22.0999 23.9918 21.9426 24.1251 21.8093C24.2584 21.6759 24.4131 21.5719 24.5891 21.4973C24.7704 21.4173 24.9624 21.3773 25.1651 21.3773H25.5651ZM25.7571 23.2253V22.8413C25.7464 22.7506 25.6958 22.7053 25.6051 22.7053H25.1411C25.0984 22.6999 25.0611 22.7133 25.0291 22.7453C25.0024 22.7719 24.9891 22.8066 24.9891 22.8493V23.2253C24.9891 23.2679 25.0024 23.3026 25.0291 23.3293C25.0611 23.3559 25.0984 23.3693 25.1411 23.3693H25.6051C25.6638 23.3693 25.7038 23.3559 25.7251 23.3293C25.7464 23.3026 25.7571 23.2679 25.7571 23.2253ZM28.1606 25.1133V21.4573C28.1606 20.9826 28.1126 20.5186 28.0166 20.0653L27.8486 19.2253L29.1126 19.0013L29.2886 19.8813C29.3473 20.1533 29.3873 20.4226 29.4086 20.6893C29.4353 20.9506 29.4486 21.2119 29.4486 21.4733V25.1133H28.1606ZM31.6865 20.1453L31.4145 19.8893L32.2785 18.8253L33.4305 19.9373C33.6545 20.1506 33.8731 20.3746 34.0865 20.6093C34.2998 20.8386 34.4865 21.0893 34.6465 21.3613C34.8118 21.6279 34.9425 21.9239 35.0385 22.2493C35.1398 22.5746 35.1905 22.9426 35.1905 23.3533C35.1905 23.6039 35.1585 23.8359 35.0945 24.0493C35.0358 24.2626 34.9425 24.4493 34.8145 24.6093C34.6865 24.7639 34.5238 24.8866 34.3265 24.9773C34.1345 25.0626 33.9051 25.1053 33.6385 25.1053C33.4518 25.1053 33.2731 25.0839 33.1025 25.0413C32.9371 24.9986 32.7985 24.9453 32.6865 24.8813C32.5691 24.9399 32.4251 24.9933 32.2545 25.0413C32.0838 25.0839 31.9265 25.1053 31.7825 25.1053C31.4785 25.1053 31.2225 25.0546 31.0145 24.9533C30.8065 24.8519 30.6385 24.7213 30.5105 24.5613C30.3825 24.3959 30.2891 24.2093 30.2305 24.0013C30.1718 23.7879 30.1425 23.5719 30.1425 23.3533C30.1425 23.0119 30.1851 22.6946 30.2705 22.4013C30.3558 22.1026 30.4705 21.8226 30.6145 21.5613C30.7585 21.2946 30.9238 21.0466 31.1105 20.8173C31.2971 20.5826 31.4891 20.3586 31.6865 20.1453ZM32.6865 21.0333C32.3825 21.3106 32.1398 21.5479 31.9585 21.7453C31.7771 21.9373 31.6358 22.1159 31.5345 22.2813C31.4385 22.4413 31.3745 22.6066 31.3425 22.7773C31.3105 22.9426 31.2945 23.1373 31.2945 23.3613C31.2945 23.5213 31.3425 23.6253 31.4385 23.6733C31.5398 23.7159 31.6465 23.7373 31.7585 23.7373H31.7745C31.8438 23.7373 31.8998 23.7133 31.9425 23.6653C31.9905 23.6119 32.0385 23.4999 32.0865 23.3293L32.2065 22.8893L33.3025 23.1053L33.1905 23.6093C33.2171 23.6679 33.2491 23.7053 33.2865 23.7213C33.3238 23.7373 33.3718 23.7453 33.4305 23.7453H33.5985C33.6998 23.7453 33.7985 23.7186 33.8945 23.6653C33.9905 23.6119 34.0385 23.5106 34.0385 23.3613C34.0438 23.1159 34.0225 22.9026 33.9745 22.7213C33.9318 22.5399 33.8571 22.3666 33.7505 22.2013C33.6491 22.0306 33.5105 21.8546 33.3345 21.6733C33.1585 21.4919 32.9425 21.2786 32.6865 21.0333ZM36.6098 21.3933H37.8098V22.6173H36.6098V21.3933ZM36.6098 23.8893H37.8098V25.1133H36.6098V23.8893ZM42.8116 23.7533H43.0356C43.0623 23.7533 43.0863 23.7666 43.1076 23.7933C43.1343 23.8199 43.1476 23.8493 43.1476 23.8813V25.0013C43.1476 25.0279 43.1369 25.0546 43.1156 25.0813C43.0943 25.1026 43.0676 25.1133 43.0356 25.1133H42.9156C42.6969 25.1133 42.5049 25.0706 42.3396 24.9853C42.1796 24.8999 42.0436 24.8039 41.9316 24.6973C41.7823 24.8519 41.6196 24.9613 41.4436 25.0253C41.2676 25.0839 41.0836 25.1133 40.8916 25.1133H39.8836C39.7183 25.1133 39.5609 25.0813 39.4116 25.0173C39.2623 24.9533 39.1316 24.8679 39.0196 24.7613C38.9076 24.6493 38.8196 24.5186 38.7556 24.3693C38.6916 24.2199 38.6596 24.0626 38.6596 23.8973V22.6973H39.6196V23.6253C39.6196 23.7106 39.6649 23.7533 39.7556 23.7533H40.9076C41.0196 23.7533 41.1183 23.7186 41.2036 23.6493C41.2889 23.5746 41.3156 23.4759 41.2836 23.3533L40.6036 20.9133L41.6996 20.5133L42.5556 23.5613C42.5716 23.6199 42.6036 23.6679 42.6516 23.7053C42.6996 23.7373 42.7529 23.7533 42.8116 23.7533ZM44.1549 22.8253L43.3309 22.0333L45.8829 19.0333L46.7149 19.8013L45.2269 21.5613H48.1789C48.3816 21.5613 48.5709 21.6013 48.7469 21.6813C48.9282 21.7559 49.0856 21.8599 49.2189 21.9933C49.3522 22.1266 49.4562 22.2839 49.5309 22.4653C49.6109 22.6413 49.6509 22.8333 49.6509 23.0413V23.6333C49.6509 23.8466 49.6082 24.0439 49.5229 24.2253C49.4376 24.4066 49.3229 24.5639 49.1789 24.6973C49.0402 24.8306 48.8802 24.9346 48.6989 25.0093C48.5176 25.0786 48.3282 25.1133 48.1309 25.1133H43.0349C43.0082 25.1133 42.9842 25.1026 42.9629 25.0813C42.9362 25.0546 42.9229 25.0279 42.9229 25.0013V23.8653C42.9229 23.8386 42.9336 23.8146 42.9549 23.7933C42.9762 23.7666 43.0029 23.7533 43.0349 23.7533H48.3549C48.3816 23.7533 48.4109 23.7426 48.4429 23.7213C48.4802 23.6999 48.4989 23.6626 48.4989 23.6093V23.0093C48.4989 22.9559 48.4802 22.9133 48.4429 22.8813C48.4056 22.8439 48.3629 22.8253 48.3149 22.8253H44.1549Z" fill="black"/>
</svg>
