<svg width="63" height="56" viewBox="0 0 63 56" fill="none" xmlns="http://www.w3.org/2000/svg">
<path d="M12.81 1H50.57C57.09 1 62.39 6.29 62.39 12.82V55.32H1V12.82C1 6.3 6.28999 1 12.82 1H12.81Z" fill="#19B5FF" stroke="white" stroke-width="0.52" stroke-miterlimit="10"/>
<path d="M50.85 32.6406H12.53C7.37997 32.6406 3.20996 36.8106 3.20996 41.9606C3.20996 47.1106 7.37997 51.2806 12.53 51.2806H50.85C56 51.2806 60.17 47.1106 60.17 41.9606C60.17 36.8106 56 32.6406 50.85 32.6406Z" fill="#222222"/>
<path d="M12.9602 49.9712C17.384 49.9712 20.9702 46.385 20.9702 41.9612C20.9702 37.5374 17.384 33.9512 12.9602 33.9512C8.53639 33.9512 4.9502 37.5374 4.9502 41.9612C4.9502 46.385 8.53639 49.9712 12.9602 49.9712Z" fill="white"/>
<path d="M23.1699 42.5706V40.6006H23.9099V42.4706C23.9099 42.5706 23.9299 42.6706 23.9599 42.7606C23.9999 42.8506 24.0499 42.9306 24.1199 43.0006C24.1899 43.0706 24.2699 43.1206 24.3599 43.1506C24.4499 43.1906 24.5499 43.2106 24.6499 43.2106H25.8599C26.0299 43.2106 26.1699 43.1506 26.2899 43.0306C26.4099 42.9106 26.4699 42.7706 26.4699 42.6006V40.4906H27.2099V41.7006C27.2099 41.7906 27.2399 41.8706 27.2999 41.9306C27.3599 41.9906 27.4399 42.0206 27.5299 42.0206H27.9499C27.9499 42.0206 27.9999 42.0306 28.0199 42.0506C28.0399 42.0706 28.0499 42.0906 28.0499 42.1206V42.8006C28.0499 42.8006 28.0499 42.8406 28.0199 42.8706C27.9999 42.8906 27.9799 42.9006 27.9499 42.9006H27.6499C27.4999 42.9006 27.3999 42.8706 27.3299 42.8206C27.2699 42.7706 27.2199 42.7206 27.1999 42.6906V42.8606C27.1999 43.0306 27.1599 43.1906 27.0899 43.3406C27.0199 43.4906 26.9199 43.6206 26.7899 43.7306C26.6699 43.8406 26.5299 43.9306 26.3699 43.9906C26.2099 44.0506 26.0399 44.0806 25.8599 44.0806H24.6899C24.4799 44.0806 24.2899 44.0406 24.0999 43.9606C23.9199 43.8806 23.7499 43.7806 23.6199 43.6406C23.4899 43.5106 23.3799 43.3506 23.2999 43.1606C23.2199 42.9806 23.1899 42.7806 23.1899 42.5706H23.1699ZM24.7999 39.7206H25.5699V40.4906H24.7999V39.7206ZM29.5899 42.0206C29.6799 42.0206 29.7599 41.9906 29.8199 41.9306C29.8799 41.8606 29.9099 41.7806 29.9099 41.6906V40.3006H30.6499V41.6906C30.6499 41.8606 30.6199 42.0106 30.5599 42.1606C30.4999 42.3006 30.4099 42.4306 30.2999 42.5406C30.1899 42.6506 30.0599 42.7306 29.9199 42.8006C29.7799 42.8606 29.6199 42.8906 29.4599 42.8906H28.0499C28.0499 42.8906 27.9999 42.8906 27.9799 42.8606C27.9599 42.8406 27.9499 42.8206 27.9499 42.7906V42.1106C27.9499 42.1106 27.9499 42.0606 27.9799 42.0406C27.9999 42.0206 28.0199 42.0106 28.0499 42.0106H29.5999L29.5899 42.0206ZM28.1399 44.4806H28.9099V43.7106H28.1399V44.4806ZM29.2599 44.4806H30.0299V43.7106H29.2599V44.4806ZM35.3799 42.8006C35.3799 42.8606 35.3499 42.8906 35.2899 42.8906H34.9899C34.8099 42.8906 34.6499 42.8606 34.5099 42.7906C34.3599 42.7206 34.2299 42.6206 34.1299 42.5106C33.9399 42.6906 33.7099 42.7906 33.4499 42.8306L31.5299 43.1006L31.4299 42.3106L32.1599 42.2206L31.8299 38.7106L32.5799 38.6206L32.8899 42.1306L33.3899 42.0606C33.5099 42.0506 33.6099 41.9906 33.6899 41.9106C33.7699 41.8206 33.8099 41.7106 33.8099 41.5906V38.3006H34.5499V41.7106C34.5499 41.8006 34.5799 41.8806 34.6399 41.9406C34.6999 42.0006 34.7799 42.0306 34.8699 42.0306H35.2899C35.3499 42.0306 35.3799 42.0606 35.3799 42.1206V42.8106V42.8006ZM36.5299 42.0206C36.6199 42.0206 36.6999 41.9906 36.7599 41.9306C36.8199 41.8606 36.8499 41.7806 36.8499 41.6906V40.3006H37.5899V41.6906C37.5899 41.8606 37.5599 42.0106 37.4999 42.1606C37.4399 42.3006 37.3499 42.4306 37.2399 42.5406C37.1299 42.6506 36.9999 42.7306 36.8599 42.8006C36.7199 42.8606 36.5599 42.8906 36.3999 42.8906H35.3999C35.3999 42.8906 35.3499 42.8906 35.3299 42.8606C35.3099 42.8406 35.2999 42.8206 35.2999 42.7906V42.1106C35.2999 42.1106 35.2999 42.0606 35.3299 42.0406C35.3499 42.0206 35.3699 42.0106 35.3999 42.0106H36.5399L36.5299 42.0206ZM36.8199 39.6806H37.5899V38.9106H36.8199V39.6806ZM39.2099 42.9006H38.4699V38.8106H39.2099V42.9006ZM37.5599 38.6406V38.2806C37.5599 38.0706 37.6299 37.9206 37.7599 37.8106C37.8899 37.7006 38.0399 37.6406 38.1999 37.6406H39.5899V38.2806H38.2799C38.2799 38.2806 38.1999 38.3006 38.1699 38.3306C38.1499 38.3606 38.1399 38.3906 38.1399 38.4206V38.6406H37.5699H37.5599ZM48.1499 41.7006C48.1499 41.7906 48.1799 41.8706 48.2399 41.9306C48.2999 41.9906 48.3799 42.0206 48.4699 42.0206H48.7499C48.8099 42.0206 48.8399 42.0506 48.8399 42.1106V42.8006C48.8399 42.8606 48.8099 42.8906 48.7499 42.8906H48.5899C48.4299 42.8906 48.2799 42.8606 48.1399 42.8006C47.9999 42.7406 47.8799 42.6406 47.7699 42.5006C47.6599 42.6406 47.5299 42.7406 47.3799 42.8106C47.2299 42.8706 47.0699 42.9006 46.9199 42.9006C46.5999 42.9006 46.3499 42.7706 46.1699 42.5006C46.0699 42.6406 45.9499 42.7506 45.8299 42.8106C45.7099 42.8706 45.5699 42.9006 45.4199 42.9006C45.3399 42.9006 45.2599 42.8906 45.1599 42.8706C45.0699 42.8406 44.9899 42.7806 44.9299 42.6906V42.8706C44.9299 43.0406 44.8899 43.2006 44.8199 43.3406C44.7499 43.4906 44.6499 43.6206 44.5199 43.7206C44.3899 43.8306 44.2499 43.9206 44.0799 43.9806C43.9199 44.0406 43.7499 44.0706 43.5699 44.0706H42.3999C42.1899 44.0706 41.9999 44.0306 41.8099 43.9506C41.6299 43.8706 41.4599 43.7706 41.3299 43.6306C41.1999 43.5006 41.0899 43.3406 41.0099 43.1506C40.9299 42.9706 40.8999 42.7706 40.8999 42.5606V40.5906H41.6399V42.4506C41.6399 42.5506 41.6599 42.6506 41.6899 42.7406C41.7299 42.8306 41.7799 42.9106 41.8499 42.9806C41.9199 43.0506 41.9999 43.1006 42.0899 43.1306C42.1799 43.1706 42.2799 43.1906 42.3799 43.1906H43.5899C43.7599 43.1906 43.8999 43.1306 44.0199 43.0106C44.1399 42.8906 44.1999 42.7506 44.1999 42.5806V40.4706H44.9399V41.7006C44.9399 41.7906 44.9699 41.8606 45.0299 41.9206C45.0999 41.9806 45.1699 42.0106 45.2599 42.0106H45.4599C45.5499 42.0106 45.6299 41.9806 45.6999 41.9306C45.7699 41.8806 45.8099 41.8006 45.8299 41.7106L46.0699 40.4906L46.7999 40.6206L46.5999 41.6406C46.5799 41.7406 46.5999 41.8306 46.6599 41.9006C46.7299 41.9706 46.8099 42.0106 46.8999 42.0106H47.0799C47.1699 42.0106 47.2499 41.9806 47.3099 41.9206C47.3699 41.8606 47.3999 41.7806 47.3999 41.6906V40.2806H48.1399V41.6806L48.1499 41.7006ZM47.0099 39.8906H46.2399V39.1206H47.0099V39.8906ZM45.8799 39.8906H45.1099V39.1206H45.8799V39.8906ZM46.4299 38.8706H45.6599V38.1006H46.4299V38.8706ZM49.8799 38.6006H50.6499V39.3706H49.8799V38.6006ZM48.8499 42.9006C48.7899 42.9006 48.7599 42.8706 48.7599 42.8106V42.1306C48.7599 42.1306 48.7699 42.0906 48.7899 42.0606C48.8099 42.0406 48.8299 42.0306 48.8499 42.0306H50.0599C50.2499 42.0306 50.4299 42.0006 50.6199 41.9406C50.7999 41.8806 50.9599 41.7806 51.0899 41.6406L51.4799 41.2206L51.5399 41.1606L51.5699 41.1306L50.1599 40.7106C50.1599 40.7106 50.0699 40.7106 50.0399 40.7206C50.0099 40.7406 49.9799 40.7706 49.9699 40.8106L49.7099 41.4806L49.0599 41.3006L49.2399 40.6806C49.2799 40.5406 49.3399 40.4206 49.4299 40.3206C49.5199 40.2206 49.6099 40.1406 49.7299 40.0906C49.8399 40.0306 49.9599 40.0006 50.0899 39.9906C50.2199 39.9806 50.3399 39.9906 50.4499 40.0206L53.1299 40.8206L52.9099 41.5106L52.5899 41.4206C52.5099 41.4006 52.4499 41.4006 52.3899 41.4106C52.3399 41.4106 52.2899 41.4406 52.2499 41.4606V41.6906C52.2499 41.7806 52.2799 41.8606 52.3399 41.9206C52.3999 41.9806 52.4799 42.0106 52.5699 42.0106H53.4699C53.5299 42.0106 53.5599 42.0406 53.5599 42.1006V42.7906C53.5599 42.8506 53.5299 42.8806 53.4699 42.8806H52.6999C52.4299 42.8806 52.1999 42.8006 52.0099 42.6506C51.8299 42.4906 51.6999 42.2906 51.6299 42.0506L51.3599 42.3206C51.1699 42.5106 50.9399 42.6506 50.6899 42.7406C50.4299 42.8306 50.1699 42.8706 49.8999 42.8706H48.8599L48.8499 42.9006ZM53.7299 43.7006H54.4999V44.4706H53.7299V43.7006ZM54.8599 43.7006H55.6299V44.4706H54.8599V43.7006ZM54.2899 44.7306H55.0599V45.5006H54.2899V44.7306ZM55.1099 42.0206C55.1999 42.0206 55.2799 41.9906 55.3399 41.9306C55.3999 41.8606 55.4299 41.7806 55.4299 41.6906V40.3006H56.1699V41.6906C56.1699 41.8606 56.1399 42.0106 56.0799 42.1606C56.0199 42.3006 55.9299 42.4306 55.8199 42.5406C55.7099 42.6506 55.5799 42.7306 55.4399 42.8006C55.2999 42.8606 55.1399 42.8906 54.9799 42.8906H53.5699C53.5699 42.8906 53.5199 42.8906 53.4999 42.8606C53.4799 42.8406 53.4699 42.8206 53.4699 42.7906V42.1106C53.4699 42.1106 53.4699 42.0606 53.4999 42.0406C53.5199 42.0206 53.5399 42.0106 53.5699 42.0106H55.1199L55.1099 42.0206Z" fill="white"/>
<path d="M10.8398 37.1797C11.4298 37.1797 11.8998 37.6597 11.8998 38.2397V45.6697C11.8998 46.2597 11.4198 46.7297 10.8398 46.7297C10.2498 46.7297 9.77979 46.2497 9.77979 45.6697V38.2397C9.77979 37.6497 10.2598 37.1797 10.8398 37.1797Z" fill="#222222"/>
<path d="M15.0898 37.1797C15.6798 37.1797 16.1498 37.6597 16.1498 38.2397V45.6697C16.1498 46.2597 15.6698 46.7297 15.0898 46.7297C14.4998 46.7297 14.0298 46.2497 14.0298 45.6697V38.2397C14.0298 37.6497 14.5098 37.1797 15.0898 37.1797Z" fill="#222222"/>
<path d="M18.4651 10.5482C18.6358 10.5855 18.7718 10.6628 18.8731 10.7802C18.9744 10.8975 19.0251 11.0415 19.0251 11.2122V11.5322C19.0251 11.7295 18.9878 11.9162 18.9131 12.0922C18.8384 12.2682 18.7344 12.4202 18.6011 12.5482C18.4731 12.6815 18.3211 12.7855 18.1451 12.8602C17.9744 12.9348 17.7904 12.9722 17.5931 12.9722H15.9771C15.7584 12.9722 15.5504 12.9295 15.3531 12.8442C15.1611 12.7588 14.9931 12.6442 14.8491 12.5002C14.7051 12.3562 14.5904 12.1855 14.5051 11.9882C14.4198 11.7962 14.3771 11.5882 14.3771 11.3642V9.52416H14.9291V11.2762C14.9291 11.4202 14.9558 11.5535 15.0091 11.6762C15.0624 11.8042 15.1371 11.9135 15.2331 12.0042C15.3291 12.1002 15.4411 12.1748 15.5691 12.2282C15.6971 12.2868 15.8331 12.3162 15.9771 12.3162H17.6171C17.7344 12.3162 17.8438 12.2922 17.9451 12.2442C18.0518 12.2015 18.1424 12.1402 18.2171 12.0602C18.2971 11.9855 18.3584 11.8948 18.4011 11.7882C18.4491 11.6815 18.4731 11.5695 18.4731 11.4522V11.1402L16.2891 10.6282V9.78016C16.2891 9.58816 16.3211 9.40949 16.3851 9.24416C16.4544 9.07349 16.5478 8.92416 16.6651 8.79616C16.7824 8.66816 16.9158 8.56416 17.0651 8.48416C17.2198 8.40416 17.3851 8.35349 17.5611 8.33216L18.4891 8.21216L18.5771 8.78816L17.5211 8.93216C17.3184 8.96416 17.1504 9.06282 17.0171 9.22816C16.8891 9.38816 16.8251 9.56949 16.8251 9.77216V10.1642L18.4651 10.5482ZM21.1265 11.6602C20.9612 11.6602 20.8092 11.6255 20.6705 11.5562C20.5319 11.4868 20.4145 11.3935 20.3185 11.2762C20.2225 11.1588 20.1532 11.0255 20.1105 10.8762C20.0679 10.7215 20.0625 10.5642 20.0945 10.4042L20.2305 9.67616C20.2519 9.55349 20.2945 9.44149 20.3585 9.34016C20.4225 9.23349 20.4999 9.14282 20.5905 9.06816C20.6812 8.99349 20.7825 8.93482 20.8945 8.89216C21.0119 8.84949 21.1345 8.82816 21.2625 8.82816H21.7105C21.8652 8.82816 22.0092 8.85749 22.1425 8.91616C22.2812 8.97482 22.4012 9.05482 22.5025 9.15616C22.6039 9.25216 22.6839 9.36949 22.7425 9.50816C22.8012 9.64149 22.8305 9.78549 22.8305 9.94016V11.0042H23.4625C23.4945 11.0042 23.5212 11.0175 23.5425 11.0442C23.5639 11.0655 23.5745 11.0895 23.5745 11.1162V11.5482C23.5745 11.6228 23.5372 11.6602 23.4625 11.6602H22.8225V11.7562C22.8119 12.1188 22.6972 12.4442 22.4785 12.7322C22.2652 13.0255 21.9825 13.2335 21.6305 13.3562L20.7185 13.6682L20.5425 13.1162L21.5025 12.7962C21.7319 12.7162 21.9159 12.5802 22.0545 12.3882C22.1985 12.2015 22.2705 11.9855 22.2705 11.7402V11.5962C22.2279 11.6228 22.1772 11.6415 22.1185 11.6522C22.0652 11.6575 22.0092 11.6602 21.9505 11.6602H21.1265ZM21.0705 11.0042H22.2785V9.94016C22.2785 9.80149 22.2279 9.68416 22.1265 9.58816C22.0305 9.48682 21.9132 9.43616 21.7745 9.43616H21.2465C21.1239 9.43616 21.0172 9.47349 20.9265 9.54816C20.8359 9.62282 20.7772 9.72149 20.7505 9.84416L20.6305 10.4842C20.6039 10.6228 20.6359 10.7455 20.7265 10.8522C20.8172 10.9535 20.9319 11.0042 21.0705 11.0042ZM28.1446 11.0042C28.2886 11.0042 28.4113 10.9562 28.5126 10.8602C28.6193 10.7642 28.6726 10.6388 28.6726 10.4842V9.98016C28.6726 9.82549 28.6193 9.69482 28.5126 9.58816C28.4059 9.48149 28.2753 9.42816 28.1206 9.42816H27.5766C27.4006 9.42816 27.2433 9.46016 27.1046 9.52416C26.9659 9.58816 26.8433 9.68149 26.7366 9.80416L25.6166 11.0042H28.1446ZM24.9446 10.2842C24.9446 10.3748 24.9526 10.4495 24.9686 10.5082C24.9899 10.5668 25.0113 10.6148 25.0326 10.6522C25.0593 10.6842 25.0806 10.7082 25.0966 10.7242C25.1179 10.7402 25.1286 10.7482 25.1286 10.7482L26.4246 9.34016C26.5793 9.17482 26.7579 9.04682 26.9606 8.95616C27.1686 8.86549 27.3846 8.82016 27.6086 8.82016H28.0966C28.2513 8.82016 28.3953 8.84949 28.5286 8.90816C28.6673 8.96682 28.7873 9.04682 28.8886 9.14816C28.9899 9.24949 29.0699 9.36949 29.1286 9.50816C29.1873 9.64149 29.2166 9.78549 29.2166 9.94016V10.5082C29.2166 10.6682 29.1873 10.8175 29.1286 10.9562C29.0699 11.0948 28.9873 11.2175 28.8806 11.3242C28.7793 11.4255 28.6593 11.5082 28.5206 11.5722C28.3819 11.6308 28.2326 11.6602 28.0726 11.6602H25.5206C25.3286 11.6602 25.1553 11.6148 25.0006 11.5242C24.8459 11.4335 24.7313 11.3028 24.6566 11.1322C24.5499 11.3028 24.4139 11.4335 24.2486 11.5242C24.0833 11.6148 23.9019 11.6602 23.7046 11.6602H23.4646C23.4326 11.6602 23.4059 11.6495 23.3846 11.6282C23.3633 11.6015 23.3526 11.5722 23.3526 11.5402V11.1242C23.3526 11.0922 23.3633 11.0655 23.3846 11.0442C23.4059 11.0175 23.4326 11.0042 23.4646 11.0042H23.8086C23.9686 11.0042 24.1046 10.9482 24.2166 10.8362C24.3339 10.7242 24.3926 10.5882 24.3926 10.4282V9.31616H24.9446V10.2842ZM27.3446 7.87616H28.0246V7.19616H27.3446V7.87616ZM28.8518 13.6522L28.6758 13.1082L29.6518 12.7882C29.8758 12.7135 30.0572 12.5775 30.1958 12.3802C30.3398 12.1828 30.4118 11.9642 30.4118 11.7242V9.18816H30.9558V11.6762C30.9558 11.8628 30.9265 12.0415 30.8678 12.2122C30.8145 12.3882 30.7345 12.5482 30.6278 12.6922C30.5265 12.8415 30.4012 12.9695 30.2518 13.0762C30.1078 13.1882 29.9478 13.2762 29.7718 13.3402L28.8518 13.6522ZM37.0854 11.0042H37.2534C37.2854 11.0042 37.3121 11.0175 37.3334 11.0442C37.3547 11.0655 37.3654 11.0922 37.3654 11.1242V11.5482C37.3654 11.6228 37.3281 11.6602 37.2534 11.6602H37.1014C36.8987 11.6602 36.7147 11.6095 36.5494 11.5082C36.3841 11.4015 36.2507 11.2522 36.1494 11.0602C36.0427 11.2522 35.8987 11.4015 35.7174 11.5082C35.5414 11.6095 35.3521 11.6602 35.1494 11.6602H34.0534C33.9361 11.6602 33.8241 11.6388 33.7174 11.5962C33.6161 11.5482 33.5254 11.4842 33.4454 11.4042C33.3707 11.3242 33.3094 11.2335 33.2614 11.1322C33.2187 11.0255 33.1974 10.9135 33.1974 10.7962V9.94816H33.6694V10.6522C33.6694 10.7482 33.6961 10.8308 33.7494 10.9002C33.8027 10.9695 33.8827 11.0042 33.9894 11.0042H35.1574C35.2694 11.0042 35.3707 10.9802 35.4614 10.9322C35.5521 10.8842 35.6267 10.8202 35.6854 10.7402C35.7494 10.6602 35.7921 10.5722 35.8134 10.4762C35.8347 10.3748 35.8321 10.2735 35.8054 10.1722L35.2134 8.02016L35.7334 7.82816L36.4934 10.5482C36.5307 10.6815 36.6027 10.7908 36.7094 10.8762C36.8214 10.9615 36.9467 11.0042 37.0854 11.0042ZM37.7657 13.3002H38.4457V12.6202H37.7657V13.3002ZM38.8617 13.3002H39.5417V12.6202H38.8617V13.3002ZM40.1337 11.5482C40.1337 11.6228 40.0963 11.6602 40.0217 11.6602H39.5257C39.435 11.6602 39.3443 11.6468 39.2537 11.6202C39.163 11.5935 39.0777 11.5562 38.9977 11.5082C38.9177 11.4602 38.8483 11.4042 38.7897 11.3402C38.731 11.2762 38.691 11.2068 38.6697 11.1322C38.579 11.2868 38.4483 11.4148 38.2777 11.5162C38.1123 11.6122 37.9363 11.6602 37.7497 11.6602H37.2537C37.179 11.6602 37.1417 11.6228 37.1417 11.5482V11.1242C37.1417 11.0922 37.1523 11.0655 37.1737 11.0442C37.195 11.0175 37.2217 11.0042 37.2537 11.0042H37.7737C37.9283 11.0042 38.0617 10.9562 38.1737 10.8602C38.291 10.7642 38.3657 10.6442 38.3977 10.5002L38.6457 9.23616L39.1897 9.32416L38.9817 10.3802C38.9657 10.4602 38.9683 10.5402 38.9897 10.6202C39.011 10.6948 39.0483 10.7615 39.1017 10.8202C39.155 10.8735 39.219 10.9188 39.2937 10.9562C39.3683 10.9882 39.4483 11.0042 39.5337 11.0042H40.0217C40.0537 11.0042 40.0803 11.0175 40.1017 11.0442C40.123 11.0655 40.1337 11.0922 40.1337 11.1242V11.5482ZM40.0193 11.6602C39.9446 11.6602 39.9073 11.6228 39.9073 11.5482V11.1242C39.9073 11.0975 39.918 11.0708 39.9393 11.0442C39.9606 11.0175 39.9873 11.0042 40.0193 11.0042H41.3233C41.5793 11.0042 41.8246 10.9615 42.0593 10.8762C42.2993 10.7908 42.5126 10.6628 42.6993 10.4922L43.4033 9.83616C43.4673 9.77749 43.5153 9.74016 43.5473 9.72416L41.6353 9.15616C41.534 9.12416 41.438 9.13482 41.3473 9.18816C41.262 9.23616 41.2033 9.30816 41.1713 9.40416L40.9633 10.0442L40.4833 9.90816L40.6673 9.27616C40.7046 9.14816 40.7633 9.03616 40.8433 8.94016C40.9286 8.83882 41.0246 8.75882 41.1313 8.70016C41.2433 8.64149 41.3606 8.60682 41.4833 8.59616C41.6113 8.58016 41.7366 8.59082 41.8593 8.62816L44.9473 9.55616L44.7793 10.0922L44.4593 9.99616C44.326 9.96949 44.2113 9.96949 44.1153 9.99616C44.0246 10.0228 43.9393 10.0682 43.8593 10.1322V10.4282C43.8593 10.5882 43.9153 10.7242 44.0273 10.8362C44.1446 10.9482 44.2833 11.0042 44.4433 11.0042H45.4993C45.5313 11.0042 45.558 11.0175 45.5793 11.0442C45.6006 11.0655 45.6113 11.0895 45.6113 11.1162V11.5482C45.6113 11.6228 45.574 11.6602 45.4993 11.6602H44.5393C44.3793 11.6602 44.2326 11.6335 44.0993 11.5802C43.966 11.5215 43.8486 11.4442 43.7473 11.3482C43.646 11.2468 43.5633 11.1295 43.4993 10.9962C43.4406 10.8575 43.4033 10.7108 43.3873 10.5562L42.8353 11.0682C42.622 11.2602 42.3793 11.4068 42.1073 11.5082C41.8406 11.6095 41.5633 11.6602 41.2753 11.6602H40.0193ZM42.2193 12.6202H42.8993V13.3002H42.2193V12.6202ZM47.3678 11.0042H48.5838V9.93216C48.5838 9.79349 48.5332 9.67616 48.4318 9.58016C48.3358 9.47882 48.2158 9.42816 48.0718 9.42816H47.5518C47.4292 9.42816 47.3225 9.46816 47.2318 9.54816C47.1412 9.62282 47.0825 9.71882 47.0558 9.83616L46.9358 10.4842C46.9092 10.6228 46.9385 10.7455 47.0238 10.8522C47.1145 10.9535 47.2292 11.0042 47.3678 11.0042ZM46.3678 10.5002L46.5358 9.67616C46.5572 9.55349 46.5998 9.43882 46.6638 9.33216C46.7278 9.22549 46.8052 9.13482 46.8958 9.06016C46.9865 8.98549 47.0878 8.92682 47.1998 8.88416C47.3172 8.84149 47.4398 8.82016 47.5678 8.82016H48.0158C48.1705 8.82016 48.3145 8.84949 48.4478 8.90816C48.5865 8.96682 48.7065 9.04682 48.8078 9.14816C48.9092 9.24949 48.9892 9.36682 49.0478 9.50016C49.1065 9.63349 49.1358 9.77749 49.1358 9.93216V10.9402C49.1358 11.1535 49.0692 11.3268 48.9358 11.4602C48.8078 11.5935 48.6318 11.6602 48.4078 11.6602H47.4318C47.2612 11.6602 47.1038 11.6202 46.9598 11.5402C46.8212 11.4548 46.7065 11.3188 46.6158 11.1322C46.5198 11.3188 46.3918 11.4548 46.2318 11.5402C46.0718 11.6202 45.9038 11.6602 45.7278 11.6602H45.4958C45.4212 11.6602 45.3838 11.6228 45.3838 11.5482V11.1162C45.3838 11.0895 45.3945 11.0655 45.4158 11.0442C45.4372 11.0175 45.4638 11.0042 45.4958 11.0042H45.7518C45.9065 11.0042 46.0398 10.9562 46.1518 10.8602C46.2692 10.7642 46.3412 10.6442 46.3678 10.5002ZM13.661 18.5402C13.661 18.5402 13.6743 18.5962 13.701 18.7082C13.733 18.8202 13.765 18.9615 13.797 19.1322C13.8343 19.3028 13.869 19.4895 13.901 19.6922C13.933 19.8948 13.9543 20.0868 13.965 20.2682C13.9703 20.3268 13.9943 20.3695 14.037 20.3962C14.0796 20.4228 14.1276 20.4362 14.181 20.4362H15.005V18.6122H16.293V20.6202C16.293 20.7748 16.2583 20.9242 16.189 21.0682C16.125 21.2122 16.037 21.3402 15.925 21.4522C15.8183 21.5588 15.693 21.6442 15.549 21.7082C15.4103 21.7722 15.2636 21.8042 15.109 21.8042H14.429C14.3383 21.8042 14.245 21.7855 14.149 21.7482C14.0583 21.7108 14.0076 21.6788 13.997 21.6522V24.6522H12.709V20.9962C12.709 20.7615 12.6956 20.5295 12.669 20.3002C12.6423 20.0655 12.6076 19.8335 12.565 19.6042L12.397 18.7642L13.661 18.5402ZM22.3522 20.6682C22.3522 20.8228 22.3229 20.9695 22.2642 21.1082C22.2056 21.2468 22.1229 21.3695 22.0162 21.4762C21.9149 21.5775 21.7949 21.6575 21.6562 21.7162C21.5229 21.7748 21.3762 21.8042 21.2162 21.8042H20.6642C20.5096 21.8042 20.3549 21.7802 20.2002 21.7322C20.0509 21.6788 19.9096 21.5828 19.7762 21.4442C19.6376 21.5722 19.5069 21.6655 19.3842 21.7242C19.2616 21.7775 19.1309 21.8042 18.9922 21.8042C18.8962 21.8042 18.7922 21.7908 18.6802 21.7642C18.5736 21.7375 18.5016 21.6922 18.4642 21.6282V24.6522H17.1762V20.9962C17.1762 20.5322 17.1282 20.0682 17.0322 19.6042L16.8642 18.7642L18.1282 18.5402C18.1336 18.5615 18.1469 18.6228 18.1682 18.7242C18.1896 18.8255 18.2136 18.9535 18.2402 19.1082C18.2722 19.2628 18.3042 19.4415 18.3362 19.6442C18.3736 19.8415 18.4056 20.0495 18.4322 20.2682C18.4482 20.3482 18.4829 20.3962 18.5362 20.4122C18.5949 20.4282 18.6322 20.4362 18.6482 20.4362H18.7522C18.8216 20.4362 18.8802 20.4148 18.9282 20.3722C18.9816 20.3295 19.0136 20.2788 19.0242 20.2202L19.3522 18.6042L20.6162 18.8282L20.3362 20.2282C20.3309 20.2708 20.3389 20.3162 20.3602 20.3642C20.3816 20.4122 20.4376 20.4362 20.5282 20.4362H21.0722V18.6042H22.3522V20.6682ZM24.6588 20.9242C24.8615 20.9242 25.0508 20.9642 25.2268 21.0442C25.4082 21.1188 25.5655 21.2228 25.6988 21.3562C25.8322 21.4895 25.9362 21.6468 26.0108 21.8282C26.0908 22.0095 26.1308 22.2015 26.1308 22.4042V22.8042C26.1308 23.0068 26.0908 23.1988 26.0108 23.3802C25.9362 23.5615 25.8322 23.7188 25.6988 23.8522C25.5655 23.9855 25.4082 24.0922 25.2268 24.1722C25.0508 24.2468 24.8615 24.2842 24.6588 24.2842H24.2588C24.0615 24.2842 23.8722 24.2468 23.6908 24.1722C23.5148 24.0922 23.3602 23.9855 23.2268 23.8522C23.0935 23.7188 22.9868 23.5615 22.9068 23.3802C22.8268 23.1988 22.7868 23.0068 22.7868 22.8042V22.4042C22.7868 22.2015 22.8242 22.0095 22.8988 21.8282C22.9788 21.6468 23.0855 21.4895 23.2188 21.3562C23.3522 21.2228 23.5068 21.1188 23.6828 21.0442C23.8642 20.9642 24.0562 20.9242 24.2588 20.9242H24.6588ZM24.8508 22.7722V22.3882C24.8402 22.2975 24.7895 22.2522 24.6988 22.2522H24.2348C24.1922 22.2468 24.1548 22.2602 24.1228 22.2922C24.0962 22.3188 24.0828 22.3535 24.0828 22.3962V22.7722C24.0828 22.8148 24.0962 22.8495 24.1228 22.8762C24.1548 22.9028 24.1922 22.9162 24.2348 22.9162H24.6988C24.7575 22.9162 24.7975 22.9028 24.8188 22.8762C24.8402 22.8495 24.8508 22.8148 24.8508 22.7722ZM28.8783 17.8442L29.6143 18.7882L28.4703 19.7562C28.4437 19.7722 28.425 19.8042 28.4143 19.8522C28.4037 19.8948 28.425 19.9375 28.4783 19.9802L29.3743 20.6522C29.609 20.3642 29.8677 20.0815 30.1503 19.8042L30.7983 19.1802L31.7183 19.9642L31.1184 20.5562C30.9477 20.7215 30.7877 20.9028 30.6384 21.1002C30.4943 21.2922 30.3557 21.4842 30.2223 21.6762L28.1343 24.6762L27.0303 24.0042L28.7423 21.5882C28.7317 21.5988 28.681 21.6015 28.5903 21.5962C28.505 21.5908 28.4063 21.5428 28.2943 21.4522L27.6623 20.9642C27.4703 20.8202 27.3317 20.6495 27.2463 20.4522C27.1663 20.2548 27.1317 20.0548 27.1423 19.8522C27.153 19.6442 27.2063 19.4468 27.3023 19.2602C27.3983 19.0682 27.529 18.9055 27.6943 18.7722L28.8783 17.8442ZM33.5282 18.5402C33.5282 18.5402 33.5415 18.5962 33.5682 18.7082C33.6002 18.8202 33.6322 18.9615 33.6642 19.1322C33.7015 19.3028 33.7362 19.4895 33.7682 19.6922C33.8002 19.8948 33.8215 20.0868 33.8322 20.2682C33.8375 20.3268 33.8615 20.3695 33.9042 20.3962C33.9468 20.4228 33.9948 20.4362 34.0482 20.4362H34.8722V18.6122H36.1602V20.6202C36.1602 20.7748 36.1255 20.9242 36.0562 21.0682C35.9922 21.2122 35.9042 21.3402 35.7922 21.4522C35.6855 21.5588 35.5602 21.6442 35.4162 21.7082C35.2775 21.7722 35.1308 21.8042 34.9762 21.8042H34.2962C34.2055 21.8042 34.1122 21.7855 34.0162 21.7482C33.9255 21.7108 33.8748 21.6788 33.8642 21.6522V24.6522H32.5762V20.9962C32.5762 20.7615 32.5628 20.5295 32.5362 20.3002C32.5095 20.0655 32.4748 19.8335 32.4322 19.6042L32.2642 18.7642L33.5282 18.5402ZM37.516 20.9402H38.716V22.1642H37.516V20.9402ZM37.516 23.4362H38.716V24.6602H37.516V23.4362ZM43.7178 23.3002H43.9418C43.9685 23.3002 43.9925 23.3135 44.0138 23.3402C44.0405 23.3668 44.0538 23.3962 44.0538 23.4282V24.5482C44.0538 24.5748 44.0432 24.6015 44.0218 24.6282C44.0005 24.6495 43.9738 24.6602 43.9418 24.6602H43.8218C43.6032 24.6602 43.4112 24.6175 43.2458 24.5322C43.0858 24.4468 42.9498 24.3508 42.8378 24.2442C42.6885 24.3988 42.5258 24.5082 42.3498 24.5722C42.1738 24.6308 41.9898 24.6602 41.7978 24.6602H40.7898C40.6245 24.6602 40.4672 24.6282 40.3178 24.5642C40.1685 24.5002 40.0378 24.4148 39.9258 24.3082C39.8138 24.1962 39.7258 24.0655 39.6618 23.9162C39.5978 23.7668 39.5658 23.6095 39.5658 23.4442V22.2442H40.5258V23.1722C40.5258 23.2575 40.5712 23.3002 40.6618 23.3002H41.8138C41.9258 23.3002 42.0245 23.2655 42.1098 23.1962C42.1952 23.1215 42.2218 23.0228 42.1898 22.9002L41.5098 20.4602L42.6058 20.0602L43.4618 23.1082C43.4778 23.1668 43.5098 23.2148 43.5578 23.2522C43.6058 23.2842 43.6592 23.3002 43.7178 23.3002ZM45.0612 22.3722L44.2372 21.5802L46.7892 18.5802L47.6212 19.3482L46.1332 21.1082H49.0852C49.2878 21.1082 49.4772 21.1482 49.6532 21.2282C49.8345 21.3028 49.9918 21.4068 50.1252 21.5402C50.2585 21.6735 50.3625 21.8308 50.4372 22.0122C50.5172 22.1882 50.5572 22.3802 50.5572 22.5882V23.1802C50.5572 23.3935 50.5145 23.5908 50.4292 23.7722C50.3438 23.9535 50.2292 24.1108 50.0852 24.2442C49.9465 24.3775 49.7865 24.4815 49.6052 24.5562C49.4238 24.6255 49.2345 24.6602 49.0372 24.6602H43.9412C43.9145 24.6602 43.8905 24.6495 43.8692 24.6282C43.8425 24.6015 43.8292 24.5748 43.8292 24.5482V23.4122C43.8292 23.3855 43.8398 23.3615 43.8612 23.3402C43.8825 23.3135 43.9092 23.3002 43.9412 23.3002H49.2612C49.2878 23.3002 49.3172 23.2895 49.3492 23.2682C49.3865 23.2468 49.4052 23.2095 49.4052 23.1562V22.5562C49.4052 22.5028 49.3865 22.4602 49.3492 22.4282C49.3118 22.3908 49.2692 22.3722 49.2212 22.3722H45.0612Z" fill="black"/>
</svg>
