<svg width="63" height="56" viewBox="0 0 63 56" fill="none" xmlns="http://www.w3.org/2000/svg">
<path d="M12.81 1H50.57C57.09 1 62.39 6.29 62.39 12.82V55.32H1V12.82C1 6.3 6.29001 1 12.82 1H12.81Z" fill="white" stroke="#19B5FF" stroke-width="0.52" stroke-miterlimit="10"/>
<path d="M50.8499 32.4805H12.5299C7.37994 32.4805 3.20996 36.6505 3.20996 41.8005C3.20996 46.9505 7.37994 51.1205 12.5299 51.1205H50.8499C55.9999 51.1205 60.17 46.9505 60.17 41.8005C60.17 36.6505 55.9999 32.4805 50.8499 32.4805Z" fill="#696969"/>
<path d="M12.9699 49.811C17.3937 49.811 20.9799 46.2248 20.9799 41.801C20.9799 37.3772 17.3937 33.791 12.9699 33.791C8.54614 33.791 4.95996 37.3772 4.95996 41.801C4.95996 46.2248 8.54614 49.811 12.9699 49.811Z" fill="white"/>
<path d="M17.11 42.6409C17.73 42.2509 17.73 41.3609 17.11 40.9709L11.05 37.1809C10.4 36.7709 9.54004 37.2409 9.54004 38.0109V45.6009C9.54004 46.3709 10.39 46.8409 11.05 46.4309L17.11 42.6409Z" fill="#696969"/>
<path d="M23.1699 42.4105V40.4405H23.9099V42.3105C23.9099 42.4105 23.9299 42.5105 23.9599 42.6005C23.9999 42.6905 24.0499 42.7705 24.1199 42.8405C24.1899 42.9105 24.2699 42.9605 24.3599 42.9905C24.4499 43.0305 24.5499 43.0505 24.6499 43.0505H25.8599C26.0299 43.0505 26.1699 42.9905 26.2899 42.8705C26.4099 42.7505 26.4699 42.6105 26.4699 42.4405V40.3305H27.2099V41.5405C27.2099 41.6305 27.2399 41.7105 27.2999 41.7705C27.3599 41.8305 27.4399 41.8605 27.5299 41.8605H27.9499C27.9499 41.8605 27.9999 41.8705 28.0199 41.8905C28.0399 41.9105 28.0499 41.9305 28.0499 41.9605V42.6405C28.0499 42.6405 28.0499 42.6805 28.0199 42.7105C27.9999 42.7305 27.9799 42.7405 27.9499 42.7405H27.6499C27.4999 42.7405 27.3999 42.7105 27.3299 42.6605C27.2699 42.6105 27.2199 42.5605 27.1999 42.5305V42.7005C27.1999 42.8705 27.1599 43.0305 27.0899 43.1805C27.0199 43.3305 26.9199 43.4605 26.7899 43.5705C26.6699 43.6805 26.5299 43.7705 26.3699 43.8305C26.2099 43.8905 26.0399 43.9205 25.8599 43.9205H24.6899C24.4799 43.9205 24.2899 43.8805 24.0999 43.8005C23.9199 43.7205 23.7499 43.6205 23.6199 43.4805C23.4899 43.3505 23.3799 43.1905 23.2999 43.0005C23.2199 42.8205 23.1899 42.6205 23.1899 42.4105H23.1699ZM24.7999 39.5605H25.5699V40.3305H24.7999V39.5605ZM29.5899 41.8605C29.6799 41.8605 29.7599 41.8305 29.8199 41.7705C29.8799 41.7005 29.9099 41.6205 29.9099 41.5305V40.1405H30.6499V41.5305C30.6499 41.7005 30.6199 41.8505 30.5599 42.0005C30.4999 42.1405 30.4099 42.2705 30.2999 42.3805C30.1899 42.4905 30.0599 42.5705 29.9199 42.6405C29.7799 42.7005 29.6199 42.7305 29.4599 42.7305H28.0499C28.0499 42.7305 27.9999 42.7305 27.9799 42.7005C27.9599 42.6805 27.9499 42.6605 27.9499 42.6305V41.9505C27.9499 41.9505 27.9499 41.9005 27.9799 41.8805C27.9999 41.8605 28.0199 41.8505 28.0499 41.8505H29.5999L29.5899 41.8605ZM28.1399 44.3205H28.9099V43.5505H28.1399V44.3205ZM29.2599 44.3205H30.0299V43.5505H29.2599V44.3205ZM35.3899 42.6405C35.3899 42.7005 35.3599 42.7305 35.2999 42.7305H34.9999C34.8199 42.7305 34.6599 42.7005 34.5199 42.6305C34.3699 42.5605 34.2399 42.4605 34.1399 42.3505C33.9499 42.5305 33.7199 42.6305 33.4599 42.6705L31.5399 42.9405L31.4399 42.1505L32.1699 42.0605L31.8399 38.5505L32.5899 38.4605L32.8999 41.9705L33.3999 41.9005C33.5199 41.8905 33.6199 41.8305 33.6999 41.7505C33.7799 41.6605 33.8199 41.5505 33.8199 41.4305V38.1405H34.5599V41.5505C34.5599 41.6405 34.5899 41.7205 34.6499 41.7805C34.7099 41.8405 34.7899 41.8705 34.8799 41.8705H35.2999C35.3599 41.8705 35.3899 41.9005 35.3899 41.9605V42.6505V42.6405ZM36.5299 41.8605C36.6199 41.8605 36.6999 41.8305 36.7599 41.7705C36.8199 41.7005 36.8499 41.6205 36.8499 41.5305V40.1405H37.5899V41.5305C37.5899 41.7005 37.5599 41.8505 37.4999 42.0005C37.4399 42.1405 37.3499 42.2705 37.2399 42.3805C37.1299 42.4905 36.9999 42.5705 36.8599 42.6405C36.7199 42.7005 36.5599 42.7305 36.3999 42.7305H35.3999C35.3999 42.7305 35.3499 42.7305 35.3299 42.7005C35.3099 42.6805 35.2999 42.6605 35.2999 42.6305V41.9505C35.2999 41.9505 35.2999 41.9005 35.3299 41.8805C35.3499 41.8605 35.3699 41.8505 35.3999 41.8505H36.5399L36.5299 41.8605ZM36.8199 39.5205H37.5899V38.7505H36.8199V39.5205ZM39.2099 42.7405H38.4699V38.6505H39.2099V42.7405ZM37.5599 38.4805V38.1205C37.5599 37.9105 37.6299 37.7605 37.7599 37.6505C37.8899 37.5405 38.0399 37.4805 38.1999 37.4805H39.5899V38.1205H38.2799C38.2799 38.1205 38.1999 38.1405 38.1699 38.1705C38.1499 38.2005 38.1399 38.2305 38.1399 38.2605V38.4805H37.5699H37.5599ZM48.1499 41.5405C48.1499 41.6305 48.1799 41.7105 48.2399 41.7705C48.2999 41.8305 48.3799 41.8605 48.4699 41.8605H48.7499C48.8099 41.8605 48.8399 41.8905 48.8399 41.9505V42.6405C48.8399 42.7005 48.8099 42.7305 48.7499 42.7305H48.5899C48.4299 42.7305 48.2799 42.7005 48.1399 42.6405C47.9999 42.5805 47.8799 42.4805 47.7699 42.3405C47.6599 42.4805 47.5299 42.5805 47.3799 42.6505C47.2299 42.7105 47.0699 42.7405 46.9199 42.7405C46.5999 42.7405 46.3499 42.6105 46.1699 42.3405C46.0699 42.4805 45.9499 42.5905 45.8299 42.6505C45.7099 42.7105 45.5699 42.7405 45.4199 42.7405C45.3399 42.7405 45.2599 42.7305 45.1599 42.7105C45.0699 42.6805 44.9899 42.6205 44.9299 42.5305V42.7105C44.9299 42.8805 44.8899 43.0405 44.8199 43.1805C44.7499 43.3305 44.6499 43.4605 44.5199 43.5605C44.3899 43.6705 44.2499 43.7605 44.0799 43.8205C43.9199 43.8805 43.7499 43.9105 43.5699 43.9105H42.3999C42.1899 43.9105 41.9999 43.8705 41.8099 43.7905C41.6299 43.7105 41.4599 43.6105 41.3299 43.4705C41.1999 43.3405 41.0899 43.1805 41.0099 42.9905C40.9299 42.8105 40.8999 42.6105 40.8999 42.4005V40.4305H41.6399V42.2905C41.6399 42.3905 41.6599 42.4905 41.6899 42.5805C41.7299 42.6705 41.7799 42.7505 41.8499 42.8205C41.9199 42.8905 41.9999 42.9405 42.0899 42.9705C42.1799 43.0105 42.2799 43.0305 42.3799 43.0305H43.5899C43.7599 43.0305 43.8999 42.9705 44.0199 42.8505C44.1399 42.7305 44.1999 42.5905 44.1999 42.4205V40.3105H44.9399V41.5405C44.9399 41.6305 44.9699 41.7005 45.0299 41.7605C45.0999 41.8205 45.1699 41.8505 45.2599 41.8505H45.4599C45.5499 41.8505 45.6299 41.8205 45.6999 41.7705C45.7699 41.7205 45.8099 41.6405 45.8299 41.5505L46.0699 40.3305L46.7999 40.4605L46.5999 41.4805C46.5799 41.5805 46.5999 41.6705 46.6599 41.7405C46.7299 41.8105 46.8099 41.8505 46.8999 41.8505H47.0799C47.1699 41.8505 47.2499 41.8205 47.3099 41.7605C47.3699 41.7005 47.3999 41.6205 47.3999 41.5305V40.1205H48.1399V41.5205L48.1499 41.5405ZM47.0099 39.7305H46.2399V38.9605H47.0099V39.7305ZM45.8799 39.7305H45.1099V38.9605H45.8799V39.7305ZM46.4399 38.7105H45.6699V37.9405H46.4399V38.7105ZM49.8799 38.4405H50.6499V39.2105H49.8799V38.4405ZM48.8499 42.7405C48.7899 42.7405 48.7599 42.7105 48.7599 42.6505V41.9705C48.7599 41.9705 48.7699 41.9305 48.7899 41.9005C48.8099 41.8805 48.8299 41.8705 48.8499 41.8705H50.0599C50.2499 41.8705 50.4299 41.8405 50.6199 41.7805C50.7999 41.7205 50.9599 41.6205 51.0899 41.4805L51.4799 41.0605L51.5399 41.0005L51.5699 40.9705L50.1599 40.5505C50.1599 40.5505 50.0699 40.5505 50.0399 40.5605C50.0099 40.5805 49.9799 40.6105 49.9699 40.6505L49.7099 41.3205L49.0599 41.1405L49.2399 40.5205C49.2799 40.3805 49.3399 40.2605 49.4299 40.1605C49.5199 40.0605 49.6099 39.9805 49.7299 39.9305C49.8399 39.8705 49.9599 39.8405 50.0899 39.8305C50.2199 39.8205 50.3399 39.8305 50.4499 39.8605L53.1299 40.6605L52.9099 41.3505L52.5899 41.2605C52.5099 41.2405 52.4499 41.2405 52.3899 41.2505C52.3399 41.2505 52.2899 41.2805 52.2499 41.3005V41.5305C52.2499 41.6205 52.2799 41.7005 52.3399 41.7605C52.3999 41.8205 52.4799 41.8505 52.5699 41.8505H53.4699C53.5299 41.8505 53.5599 41.8805 53.5599 41.9405V42.6305C53.5599 42.6905 53.5299 42.7205 53.4699 42.7205H52.6999C52.4299 42.7205 52.1999 42.6405 52.0099 42.4905C51.8299 42.3305 51.6999 42.1305 51.6299 41.8905L51.3599 42.1605C51.1699 42.3505 50.9399 42.4905 50.6899 42.5805C50.4299 42.6705 50.1699 42.7105 49.8999 42.7105H48.8599L48.8499 42.7405ZM53.7399 43.5405H54.5099V44.3105H53.7399V43.5405ZM54.8599 43.5405H55.6299V44.3105H54.8599V43.5405ZM54.2899 44.5705H55.0599V45.3405H54.2899V44.5705ZM55.1099 41.8605C55.1999 41.8605 55.2799 41.8305 55.3399 41.7705C55.3999 41.7005 55.4299 41.6205 55.4299 41.5305V40.1405H56.1699V41.5305C56.1699 41.7005 56.1399 41.8505 56.0799 42.0005C56.0199 42.1405 55.9299 42.2705 55.8199 42.3805C55.7099 42.4905 55.5799 42.5705 55.4399 42.6405C55.2999 42.7005 55.1399 42.7305 54.9799 42.7305H53.5699C53.5699 42.7305 53.5199 42.7305 53.4999 42.7005C53.4799 42.6805 53.4699 42.6605 53.4699 42.6305V41.9505C53.4699 41.9505 53.4699 41.9005 53.4999 41.8805C53.5199 41.8605 53.5399 41.8505 53.5699 41.8505H55.1199L55.1099 41.8605Z" fill="white"/>
<path d="M21.4203 8.72073C21.575 8.72073 21.719 8.75007 21.8523 8.80873C21.991 8.8674 22.111 8.9474 22.2123 9.04873C22.3136 9.14473 22.3936 9.26207 22.4523 9.40073C22.511 9.53407 22.5403 9.67807 22.5403 9.83273V10.8327C22.5403 11.0514 22.4736 11.2274 22.3403 11.3607C22.2123 11.4887 22.0416 11.5527 21.8283 11.5527H20.8363C20.671 11.5527 20.519 11.5181 20.3803 11.4487C20.2416 11.3794 20.1243 11.2861 20.0283 11.1687C19.9323 11.0514 19.863 10.9181 19.8203 10.7687C19.7776 10.6141 19.7723 10.4567 19.8043 10.2967L19.9803 9.32873H19.5483C19.3883 9.32873 19.2496 9.39007 19.1323 9.51273C19.0203 9.6354 18.9643 9.77673 18.9643 9.93673V13.5447H18.4123V9.95273C18.4123 9.78207 18.4443 9.62207 18.5083 9.47273C18.5776 9.3234 18.6683 9.19273 18.7803 9.08073C18.8923 8.96873 19.023 8.88073 19.1723 8.81673C19.3216 8.75273 19.4816 8.72073 19.6523 8.72073H21.4203ZM21.9883 10.8967V9.82473C21.9883 9.68607 21.9403 9.56873 21.8443 9.47273C21.7483 9.37673 21.631 9.32873 21.4923 9.32873H20.5403L20.3483 10.3767C20.3216 10.5154 20.3483 10.6381 20.4283 10.7447C20.5083 10.8461 20.6283 10.8967 20.7883 10.8967H21.9883ZM24.1911 11.5527H23.6391V6.28073H24.1911V11.5527ZM25.9602 9.08873V10.3447C25.9602 10.4994 26.0162 10.6301 26.1282 10.7367C26.2455 10.8434 26.3815 10.8967 26.5362 10.8967H27.3362C27.3682 10.8967 27.3949 10.9101 27.4162 10.9367C27.4375 10.9581 27.4482 10.9847 27.4482 11.0167V11.4407C27.4482 11.5154 27.4109 11.5527 27.3362 11.5527H26.6322C26.5042 11.5527 26.3789 11.5261 26.2562 11.4727C26.1335 11.4194 26.0349 11.3394 25.9602 11.2327V11.5847C25.9602 11.7714 25.9309 11.9501 25.8722 12.1207C25.8135 12.2967 25.7309 12.4567 25.6242 12.6007C25.5229 12.7447 25.3975 12.8701 25.2482 12.9767C25.0989 13.0887 24.9362 13.1741 24.7602 13.2327L23.8482 13.5527L23.6722 13.0007L24.6402 12.6807C24.8749 12.6061 25.0615 12.4701 25.2002 12.2727C25.3389 12.0754 25.4082 11.8567 25.4082 11.6167V9.08873H25.9602ZM28.0399 10.8967V9.92073C28.0399 9.76607 28.0693 9.62207 28.1279 9.48873C28.1866 9.35007 28.2639 9.23007 28.3599 9.12873C28.4613 9.0274 28.5786 8.9474 28.7119 8.88873C28.8506 8.83007 28.9999 8.80073 29.1599 8.80073H29.4639C29.7146 8.80073 29.9359 8.88073 30.1279 9.04073C30.3253 9.20073 30.4479 9.40607 30.4959 9.65673L30.6159 10.2887C30.6479 10.4487 30.6426 10.6061 30.5999 10.7607C30.5626 10.9101 30.4959 11.0434 30.3999 11.1607C30.3039 11.2781 30.1839 11.3741 30.0399 11.4487C29.9013 11.5181 29.7493 11.5527 29.5839 11.5527H28.9119C28.8533 11.5527 28.7973 11.5474 28.7439 11.5367C28.6906 11.5207 28.6373 11.5047 28.5839 11.4887C28.5893 11.4887 28.5919 11.5154 28.5919 11.5687C28.5919 11.8247 28.6426 12.0194 28.7439 12.1527C28.8453 12.2914 28.9999 12.3821 29.2079 12.4247L29.9279 12.5607L30.5759 11.5527C30.8533 11.1154 31.2559 10.8967 31.7839 10.8967H31.8959C31.9706 10.8967 32.0079 10.9341 32.0079 11.0087V11.4327C32.0079 11.4647 31.9973 11.4941 31.9759 11.5207C31.9546 11.5421 31.9279 11.5527 31.8959 11.5527H31.6479C31.4933 11.5527 31.3599 11.5847 31.2479 11.6487C31.1413 11.7181 31.0426 11.8221 30.9519 11.9607C30.9413 11.9767 30.9146 12.0167 30.8719 12.0807C30.8346 12.1447 30.7866 12.2194 30.7279 12.3047C30.6746 12.3954 30.6159 12.4887 30.5519 12.5847C30.4879 12.6807 30.4293 12.7687 30.3759 12.8487C30.3226 12.9341 30.2773 13.0061 30.2399 13.0647C30.2026 13.1234 30.1813 13.1554 30.1759 13.1607L28.9839 12.8967C28.6853 12.8327 28.4533 12.6887 28.2879 12.4647C28.1279 12.2461 28.0453 11.9421 28.0399 11.5527H27.3359C27.3039 11.5527 27.2773 11.5421 27.2559 11.5207C27.2346 11.4941 27.2239 11.4647 27.2239 11.4327V11.0087C27.2239 10.9341 27.2613 10.8967 27.3359 10.8967H28.0399ZM28.5919 9.91273V10.8967H29.6399C29.7093 10.8967 29.7733 10.8834 29.8319 10.8567C29.8906 10.8247 29.9386 10.7847 29.9759 10.7367C30.0186 10.6887 30.0479 10.6327 30.0639 10.5687C30.0853 10.5047 30.0906 10.4381 30.0799 10.3687L29.9759 9.82473C29.9546 9.70207 29.8959 9.6034 29.7999 9.52873C29.7093 9.44873 29.6026 9.40873 29.4799 9.40873H29.0879C28.9493 9.40873 28.8319 9.4594 28.7359 9.56073C28.6399 9.65673 28.5919 9.77407 28.5919 9.91273ZM32.7064 10.8967C32.8664 10.8967 33.0024 10.8407 33.1144 10.7287C33.2264 10.6114 33.2824 10.4754 33.2824 10.3207V8.85673H33.8344V10.3287C33.8344 10.4994 33.8024 10.6594 33.7384 10.8087C33.6744 10.9581 33.5864 11.0887 33.4744 11.2007C33.3624 11.3074 33.2318 11.3927 33.0824 11.4567C32.9384 11.5207 32.7811 11.5527 32.6104 11.5527H31.8984C31.8238 11.5527 31.7864 11.5154 31.7864 11.4407V11.0167C31.7864 10.9847 31.7971 10.9581 31.8184 10.9367C31.8398 10.9101 31.8664 10.8967 31.8984 10.8967H32.7064ZM32.0504 13.1927H32.7304V12.5127H32.0504V13.1927ZM37.5914 11.4407C37.5914 11.5154 37.554 11.5527 37.4794 11.5527H37.1834C37.018 11.5527 36.8607 11.5207 36.7114 11.4567C36.562 11.3927 36.4314 11.3047 36.3194 11.1927C36.2074 11.0807 36.1194 10.9501 36.0554 10.8007C35.9914 10.6514 35.9594 10.4941 35.9594 10.3287V6.28073H36.5114V10.3207C36.5114 10.4807 36.5674 10.6167 36.6794 10.7287C36.7967 10.8407 36.9327 10.8967 37.0874 10.8967H37.4794C37.5114 10.8967 37.538 10.9101 37.5594 10.9367C37.5807 10.9581 37.5914 10.9847 37.5914 11.0167V11.4407ZM42.1566 10.8967C42.3006 10.8967 42.4232 10.8487 42.5246 10.7527C42.6312 10.6567 42.6846 10.5314 42.6846 10.3767V9.87273C42.6846 9.71807 42.6312 9.5874 42.5246 9.48073C42.4179 9.37407 42.2872 9.32073 42.1326 9.32073H41.5886C41.4126 9.32073 41.2552 9.35273 41.1166 9.41673C40.9779 9.48073 40.8552 9.57407 40.7486 9.69673L39.6286 10.8967H42.1566ZM38.9566 10.1767C38.9566 10.2674 38.9646 10.3421 38.9806 10.4007C39.0019 10.4594 39.0232 10.5074 39.0446 10.5447C39.0712 10.5767 39.0926 10.6007 39.1086 10.6167C39.1299 10.6327 39.1406 10.6407 39.1406 10.6407L40.4366 9.23273C40.5912 9.0674 40.7699 8.9394 40.9726 8.84873C41.1806 8.75807 41.3966 8.71273 41.6206 8.71273H42.1086C42.2632 8.71273 42.4072 8.74207 42.5406 8.80073C42.6792 8.8594 42.7992 8.9394 42.9006 9.04073C43.0019 9.14207 43.0819 9.26207 43.1406 9.40073C43.1992 9.53407 43.2286 9.67807 43.2286 9.83273V10.4007C43.2286 10.5607 43.1992 10.7101 43.1406 10.8487C43.0819 10.9874 42.9992 11.1101 42.8926 11.2167C42.7912 11.3181 42.6712 11.4007 42.5326 11.4647C42.3939 11.5234 42.2446 11.5527 42.0846 11.5527H39.5326C39.3406 11.5527 39.1672 11.5074 39.0126 11.4167C38.8579 11.3261 38.7432 11.1954 38.6686 11.0247C38.5619 11.1954 38.4259 11.3261 38.2606 11.4167C38.0952 11.5074 37.9139 11.5527 37.7166 11.5527H37.4766C37.4446 11.5527 37.4179 11.5421 37.3966 11.5207C37.3752 11.4941 37.3646 11.4647 37.3646 11.4327V11.0167C37.3646 10.9847 37.3752 10.9581 37.3966 10.9367C37.4179 10.9101 37.4446 10.8967 37.4766 10.8967H37.8206C37.9806 10.8967 38.1166 10.8407 38.2286 10.7287C38.3459 10.6167 38.4046 10.4807 38.4046 10.3207V9.20873H38.9566V10.1767ZM41.3566 7.76873H42.0366V7.08873H41.3566V7.76873ZM42.8638 13.5447L42.6878 13.0007L43.6638 12.6807C43.8878 12.6061 44.0691 12.4701 44.2078 12.2727C44.3518 12.0754 44.4238 11.8567 44.4238 11.6167V9.08073H44.9678V11.5687C44.9678 11.7554 44.9385 11.9341 44.8798 12.1047C44.8265 12.2807 44.7465 12.4407 44.6398 12.5847C44.5385 12.7341 44.4131 12.8621 44.2638 12.9687C44.1198 13.0807 43.9598 13.1687 43.7838 13.2327L42.8638 13.5447ZM14.1768 18.4327C14.1768 18.4327 14.1902 18.4887 14.2168 18.6007C14.2488 18.7127 14.2808 18.8541 14.3128 19.0247C14.3502 19.1954 14.3848 19.3821 14.4168 19.5847C14.4488 19.7874 14.4702 19.9794 14.4808 20.1607C14.4862 20.2194 14.5102 20.2621 14.5528 20.2887C14.5955 20.3154 14.6435 20.3287 14.6968 20.3287H15.5208V18.5047H16.8088V20.5127C16.8088 20.6674 16.7742 20.8167 16.7048 20.9607C16.6408 21.1047 16.5528 21.2327 16.4408 21.3447C16.3342 21.4514 16.2088 21.5367 16.0648 21.6007C15.9262 21.6647 15.7795 21.6967 15.6248 21.6967H14.9448C14.8542 21.6967 14.7608 21.6781 14.6648 21.6407C14.5742 21.6034 14.5235 21.5714 14.5128 21.5447V24.5447H13.2248V20.8887C13.2248 20.6541 13.2115 20.4221 13.1848 20.1927C13.1582 19.9581 13.1235 19.7261 13.0808 19.4967L12.9128 18.6567L14.1768 18.4327ZM22.8681 20.5607C22.8681 20.7154 22.8388 20.8621 22.7801 21.0007C22.7214 21.1394 22.6388 21.2621 22.5321 21.3687C22.4308 21.4701 22.3108 21.5501 22.1721 21.6087C22.0388 21.6674 21.8921 21.6967 21.7321 21.6967H21.1801C21.0254 21.6967 20.8708 21.6727 20.7161 21.6247C20.5668 21.5714 20.4254 21.4754 20.2921 21.3367C20.1534 21.4647 20.0228 21.5581 19.9001 21.6167C19.7774 21.6701 19.6468 21.6967 19.5081 21.6967C19.4121 21.6967 19.3081 21.6834 19.1961 21.6567C19.0894 21.6301 19.0174 21.5847 18.9801 21.5207V24.5447H17.6921V20.8887C17.6921 20.4247 17.6441 19.9607 17.5481 19.4967L17.3801 18.6567L18.6441 18.4327C18.6494 18.4541 18.6628 18.5154 18.6841 18.6167C18.7054 18.7181 18.7294 18.8461 18.7561 19.0007C18.7881 19.1554 18.8201 19.3341 18.8521 19.5367C18.8894 19.7341 18.9214 19.9421 18.9481 20.1607C18.9641 20.2407 18.9988 20.2887 19.0521 20.3047C19.1108 20.3207 19.1481 20.3287 19.1641 20.3287H19.2681C19.3374 20.3287 19.3961 20.3074 19.4441 20.2647C19.4974 20.2221 19.5294 20.1714 19.5401 20.1127L19.8681 18.4967L21.1321 18.7207L20.8521 20.1207C20.8468 20.1634 20.8548 20.2087 20.8761 20.2567C20.8974 20.3047 20.9534 20.3287 21.0441 20.3287H21.5881V18.4967H22.8681V20.5607ZM25.2067 17.7367L25.9427 18.6807L24.7987 19.6487C24.7721 19.6647 24.7534 19.6967 24.7427 19.7447C24.7321 19.7874 24.7534 19.8301 24.8067 19.8727L25.7027 20.5447C25.9374 20.2567 26.1961 19.9741 26.4787 19.6967L27.1267 19.0727L28.0467 19.8567L27.4467 20.4487C27.2761 20.6141 27.1161 20.7954 26.9667 20.9927C26.8227 21.1847 26.6841 21.3767 26.5507 21.5687L24.4627 24.5687L23.3587 23.8967L25.0707 21.4807C25.0601 21.4914 25.0094 21.4941 24.9187 21.4887C24.8334 21.4834 24.7347 21.4354 24.6227 21.3447L23.9907 20.8567C23.7987 20.7127 23.6601 20.5421 23.5747 20.3447C23.4947 20.1474 23.4601 19.9474 23.4707 19.7447C23.4814 19.5367 23.5347 19.3394 23.6307 19.1527C23.7267 18.9607 23.8574 18.7981 24.0227 18.6647L25.2067 17.7367ZM30.2005 24.5607C30.1525 24.0754 30.0779 23.5927 29.9765 23.1127C29.8752 22.6274 29.7472 22.1554 29.5925 21.6967C29.4432 21.2381 29.2645 20.7927 29.0565 20.3607C28.8485 19.9287 28.6085 19.5181 28.3365 19.1287L29.3605 18.2807C29.3872 18.3127 29.4405 18.3981 29.5205 18.5367C29.6005 18.6754 29.6912 18.8487 29.7925 19.0567C29.8992 19.2647 30.0085 19.4994 30.1205 19.7607C30.2379 20.0221 30.3445 20.2941 30.4405 20.5767C30.5365 20.8594 30.6165 21.1474 30.6805 21.4407C30.7445 21.7287 30.7765 22.0061 30.7765 22.2727C30.7765 22.0167 30.8085 21.7474 30.8725 21.4647C30.9365 21.1821 31.0165 20.8994 31.1125 20.6167C31.2085 20.3341 31.3125 20.0621 31.4245 19.8007C31.5419 19.5394 31.6539 19.3021 31.7605 19.0887C31.8672 18.8754 31.9605 18.6994 32.0405 18.5607C32.1205 18.4167 32.1712 18.3234 32.1925 18.2807L33.2165 19.1287C32.9499 19.5181 32.7072 19.9314 32.4885 20.3687C32.2752 20.8061 32.0912 21.2567 31.9365 21.7207C31.7819 22.1847 31.6539 22.6567 31.5525 23.1367C31.4565 23.6167 31.3899 24.0914 31.3525 24.5607H30.2005ZM34.1062 24.5527V20.8967C34.1062 20.4221 34.0582 19.9581 33.9622 19.5047L33.7942 18.6647L35.0582 18.4407L35.2342 19.3207C35.2928 19.5927 35.3328 19.8621 35.3542 20.1287C35.3808 20.3901 35.3942 20.6514 35.3942 20.9127V24.5527H34.1062ZM37.0007 20.8327H38.2007V22.0567H37.0007V20.8327ZM37.0007 23.3287H38.2007V24.5527H37.0007V23.3287ZM43.2025 23.1927H43.4265C43.4531 23.1927 43.4771 23.2061 43.4985 23.2327C43.5251 23.2594 43.5385 23.2887 43.5385 23.3207V24.4407C43.5385 24.4674 43.5278 24.4941 43.5065 24.5207C43.4851 24.5421 43.4585 24.5527 43.4265 24.5527H43.3065C43.0878 24.5527 42.8958 24.5101 42.7305 24.4247C42.5705 24.3394 42.4345 24.2434 42.3225 24.1367C42.1731 24.2914 42.0105 24.4007 41.8345 24.4647C41.6585 24.5234 41.4745 24.5527 41.2825 24.5527H40.2745C40.1091 24.5527 39.9518 24.5207 39.8025 24.4567C39.6531 24.3927 39.5225 24.3074 39.4105 24.2007C39.2985 24.0887 39.2105 23.9581 39.1465 23.8087C39.0825 23.6594 39.0505 23.5021 39.0505 23.3367V22.1367H40.0105V23.0647C40.0105 23.1501 40.0558 23.1927 40.1465 23.1927H41.2985C41.4105 23.1927 41.5091 23.1581 41.5945 23.0887C41.6798 23.0141 41.7065 22.9154 41.6745 22.7927L40.9945 20.3527L42.0905 19.9527L42.9465 23.0007C42.9625 23.0594 42.9945 23.1074 43.0425 23.1447C43.0905 23.1767 43.1438 23.1927 43.2025 23.1927ZM44.5458 22.2647L43.7218 21.4727L46.2738 18.4727L47.1058 19.2407L45.6178 21.0007H48.5698C48.7724 21.0007 48.9618 21.0407 49.1378 21.1207C49.3191 21.1954 49.4764 21.2994 49.6098 21.4327C49.7431 21.5661 49.8471 21.7234 49.9218 21.9047C50.0018 22.0807 50.0418 22.2727 50.0418 22.4807V23.0727C50.0418 23.2861 49.9991 23.4834 49.9138 23.6647C49.8284 23.8461 49.7138 24.0034 49.5698 24.1367C49.4311 24.2701 49.2711 24.3741 49.0898 24.4487C48.9084 24.5181 48.7191 24.5527 48.5218 24.5527H43.4258C43.3991 24.5527 43.3751 24.5421 43.3538 24.5207C43.3271 24.4941 43.3138 24.4674 43.3138 24.4407V23.3047C43.3138 23.2781 43.3244 23.2541 43.3458 23.2327C43.3671 23.2061 43.3938 23.1927 43.4258 23.1927H48.7458C48.7724 23.1927 48.8018 23.1821 48.8338 23.1607C48.8711 23.1394 48.8898 23.1021 48.8898 23.0487V22.4487C48.8898 22.3954 48.8711 22.3527 48.8338 22.3207C48.7964 22.2834 48.7538 22.2647 48.7058 22.2647H44.5458Z" fill="black"/>
</svg>
