<svg width="63" height="56" viewBox="0 0 63 56" fill="none" xmlns="http://www.w3.org/2000/svg">
<path d="M12.81 1H50.57C57.09 1 62.39 6.29 62.39 12.82V55.32H1V12.82C1 6.3 6.28999 1 12.82 1H12.81Z" fill="#19B5FF" stroke="white" stroke-width="0.52" stroke-miterlimit="10"/>
<path d="M50.85 32.6406H12.53C7.37997 32.6406 3.20996 36.8106 3.20996 41.9606C3.20996 47.1106 7.37997 51.2806 12.53 51.2806H50.85C56 51.2806 60.17 47.1106 60.17 41.9606C60.17 36.8106 56 32.6406 50.85 32.6406Z" fill="#222222"/>
<path d="M12.9602 49.9712C17.384 49.9712 20.9702 46.385 20.9702 41.9612C20.9702 37.5374 17.384 33.9512 12.9602 33.9512C8.53639 33.9512 4.9502 37.5374 4.9502 41.9612C4.9502 46.385 8.53639 49.9712 12.9602 49.9712Z" fill="white"/>
<path d="M23.1699 42.5706V40.6006H23.9099V42.4706C23.9099 42.5706 23.9299 42.6706 23.9599 42.7606C23.9999 42.8506 24.0499 42.9306 24.1199 43.0006C24.1899 43.0706 24.2699 43.1206 24.3599 43.1506C24.4499 43.1906 24.5499 43.2106 24.6499 43.2106H25.8599C26.0299 43.2106 26.1699 43.1506 26.2899 43.0306C26.4099 42.9106 26.4699 42.7706 26.4699 42.6006V40.4906H27.2099V41.7006C27.2099 41.7906 27.2399 41.8706 27.2999 41.9306C27.3599 41.9906 27.4399 42.0206 27.5299 42.0206H27.9499C27.9499 42.0206 27.9999 42.0306 28.0199 42.0506C28.0399 42.0706 28.0499 42.0906 28.0499 42.1206V42.8006C28.0499 42.8006 28.0499 42.8406 28.0199 42.8706C27.9999 42.8906 27.9799 42.9006 27.9499 42.9006H27.6499C27.4999 42.9006 27.3999 42.8706 27.3299 42.8206C27.2699 42.7706 27.2199 42.7206 27.1999 42.6906V42.8606C27.1999 43.0306 27.1599 43.1906 27.0899 43.3406C27.0199 43.4906 26.9199 43.6206 26.7899 43.7306C26.6699 43.8406 26.5299 43.9306 26.3699 43.9906C26.2099 44.0506 26.0399 44.0806 25.8599 44.0806H24.6899C24.4799 44.0806 24.2899 44.0406 24.0999 43.9606C23.9199 43.8806 23.7499 43.7806 23.6199 43.6406C23.4899 43.5106 23.3799 43.3506 23.2999 43.1606C23.2199 42.9806 23.1899 42.7806 23.1899 42.5706H23.1699ZM24.7999 39.7206H25.5699V40.4906H24.7999V39.7206ZM29.5899 42.0206C29.6799 42.0206 29.7599 41.9906 29.8199 41.9306C29.8799 41.8606 29.9099 41.7806 29.9099 41.6906V40.3006H30.6499V41.6906C30.6499 41.8606 30.6199 42.0106 30.5599 42.1606C30.4999 42.3006 30.4099 42.4306 30.2999 42.5406C30.1899 42.6506 30.0599 42.7306 29.9199 42.8006C29.7799 42.8606 29.6199 42.8906 29.4599 42.8906H28.0499C28.0499 42.8906 27.9999 42.8906 27.9799 42.8606C27.9599 42.8406 27.9499 42.8206 27.9499 42.7906V42.1106C27.9499 42.1106 27.9499 42.0606 27.9799 42.0406C27.9999 42.0206 28.0199 42.0106 28.0499 42.0106H29.5999L29.5899 42.0206ZM28.1399 44.4806H28.9099V43.7106H28.1399V44.4806ZM29.2599 44.4806H30.0299V43.7106H29.2599V44.4806ZM35.3799 42.8006C35.3799 42.8606 35.3499 42.8906 35.2899 42.8906H34.9899C34.8099 42.8906 34.6499 42.8606 34.5099 42.7906C34.3599 42.7206 34.2299 42.6206 34.1299 42.5106C33.9399 42.6906 33.7099 42.7906 33.4499 42.8306L31.5299 43.1006L31.4299 42.3106L32.1599 42.2206L31.8299 38.7106L32.5799 38.6206L32.8899 42.1306L33.3899 42.0606C33.5099 42.0506 33.6099 41.9906 33.6899 41.9106C33.7699 41.8206 33.8099 41.7106 33.8099 41.5906V38.3006H34.5499V41.7106C34.5499 41.8006 34.5799 41.8806 34.6399 41.9406C34.6999 42.0006 34.7799 42.0306 34.8699 42.0306H35.2899C35.3499 42.0306 35.3799 42.0606 35.3799 42.1206V42.8106V42.8006ZM36.5299 42.0206C36.6199 42.0206 36.6999 41.9906 36.7599 41.9306C36.8199 41.8606 36.8499 41.7806 36.8499 41.6906V40.3006H37.5899V41.6906C37.5899 41.8606 37.5599 42.0106 37.4999 42.1606C37.4399 42.3006 37.3499 42.4306 37.2399 42.5406C37.1299 42.6506 36.9999 42.7306 36.8599 42.8006C36.7199 42.8606 36.5599 42.8906 36.3999 42.8906H35.3999C35.3999 42.8906 35.3499 42.8906 35.3299 42.8606C35.3099 42.8406 35.2999 42.8206 35.2999 42.7906V42.1106C35.2999 42.1106 35.2999 42.0606 35.3299 42.0406C35.3499 42.0206 35.3699 42.0106 35.3999 42.0106H36.5399L36.5299 42.0206ZM36.8199 39.6806H37.5899V38.9106H36.8199V39.6806ZM39.2099 42.9006H38.4699V38.8106H39.2099V42.9006ZM37.5599 38.6406V38.2806C37.5599 38.0706 37.6299 37.9206 37.7599 37.8106C37.8899 37.7006 38.0399 37.6406 38.1999 37.6406H39.5899V38.2806H38.2799C38.2799 38.2806 38.1999 38.3006 38.1699 38.3306C38.1499 38.3606 38.1399 38.3906 38.1399 38.4206V38.6406H37.5699H37.5599ZM48.1499 41.7006C48.1499 41.7906 48.1799 41.8706 48.2399 41.9306C48.2999 41.9906 48.3799 42.0206 48.4699 42.0206H48.7499C48.8099 42.0206 48.8399 42.0506 48.8399 42.1106V42.8006C48.8399 42.8606 48.8099 42.8906 48.7499 42.8906H48.5899C48.4299 42.8906 48.2799 42.8606 48.1399 42.8006C47.9999 42.7406 47.8799 42.6406 47.7699 42.5006C47.6599 42.6406 47.5299 42.7406 47.3799 42.8106C47.2299 42.8706 47.0699 42.9006 46.9199 42.9006C46.5999 42.9006 46.3499 42.7706 46.1699 42.5006C46.0699 42.6406 45.9499 42.7506 45.8299 42.8106C45.7099 42.8706 45.5699 42.9006 45.4199 42.9006C45.3399 42.9006 45.2599 42.8906 45.1599 42.8706C45.0699 42.8406 44.9899 42.7806 44.9299 42.6906V42.8706C44.9299 43.0406 44.8899 43.2006 44.8199 43.3406C44.7499 43.4906 44.6499 43.6206 44.5199 43.7206C44.3899 43.8306 44.2499 43.9206 44.0799 43.9806C43.9199 44.0406 43.7499 44.0706 43.5699 44.0706H42.3999C42.1899 44.0706 41.9999 44.0306 41.8099 43.9506C41.6299 43.8706 41.4599 43.7706 41.3299 43.6306C41.1999 43.5006 41.0899 43.3406 41.0099 43.1506C40.9299 42.9706 40.8999 42.7706 40.8999 42.5606V40.5906H41.6399V42.4506C41.6399 42.5506 41.6599 42.6506 41.6899 42.7406C41.7299 42.8306 41.7799 42.9106 41.8499 42.9806C41.9199 43.0506 41.9999 43.1006 42.0899 43.1306C42.1799 43.1706 42.2799 43.1906 42.3799 43.1906H43.5899C43.7599 43.1906 43.8999 43.1306 44.0199 43.0106C44.1399 42.8906 44.1999 42.7506 44.1999 42.5806V40.4706H44.9399V41.7006C44.9399 41.7906 44.9699 41.8606 45.0299 41.9206C45.0999 41.9806 45.1699 42.0106 45.2599 42.0106H45.4599C45.5499 42.0106 45.6299 41.9806 45.6999 41.9306C45.7699 41.8806 45.8099 41.8006 45.8299 41.7106L46.0699 40.4906L46.7999 40.6206L46.5999 41.6406C46.5799 41.7406 46.5999 41.8306 46.6599 41.9006C46.7299 41.9706 46.8099 42.0106 46.8999 42.0106H47.0799C47.1699 42.0106 47.2499 41.9806 47.3099 41.9206C47.3699 41.8606 47.3999 41.7806 47.3999 41.6906V40.2806H48.1399V41.6806L48.1499 41.7006ZM47.0099 39.8906H46.2399V39.1206H47.0099V39.8906ZM45.8799 39.8906H45.1099V39.1206H45.8799V39.8906ZM46.4299 38.8706H45.6599V38.1006H46.4299V38.8706ZM49.8799 38.6006H50.6499V39.3706H49.8799V38.6006ZM48.8499 42.9006C48.7899 42.9006 48.7599 42.8706 48.7599 42.8106V42.1306C48.7599 42.1306 48.7699 42.0906 48.7899 42.0606C48.8099 42.0406 48.8299 42.0306 48.8499 42.0306H50.0599C50.2499 42.0306 50.4299 42.0006 50.6199 41.9406C50.7999 41.8806 50.9599 41.7806 51.0899 41.6406L51.4799 41.2206L51.5399 41.1606L51.5699 41.1306L50.1599 40.7106C50.1599 40.7106 50.0699 40.7106 50.0399 40.7206C50.0099 40.7406 49.9799 40.7706 49.9699 40.8106L49.7099 41.4806L49.0599 41.3006L49.2399 40.6806C49.2799 40.5406 49.3399 40.4206 49.4299 40.3206C49.5199 40.2206 49.6099 40.1406 49.7299 40.0906C49.8399 40.0306 49.9599 40.0006 50.0899 39.9906C50.2199 39.9806 50.3399 39.9906 50.4499 40.0206L53.1299 40.8206L52.9099 41.5106L52.5899 41.4206C52.5099 41.4006 52.4499 41.4006 52.3899 41.4106C52.3399 41.4106 52.2899 41.4406 52.2499 41.4606V41.6906C52.2499 41.7806 52.2799 41.8606 52.3399 41.9206C52.3999 41.9806 52.4799 42.0106 52.5699 42.0106H53.4699C53.5299 42.0106 53.5599 42.0406 53.5599 42.1006V42.7906C53.5599 42.8506 53.5299 42.8806 53.4699 42.8806H52.6999C52.4299 42.8806 52.1999 42.8006 52.0099 42.6506C51.8299 42.4906 51.6999 42.2906 51.6299 42.0506L51.3599 42.3206C51.1699 42.5106 50.9399 42.6506 50.6899 42.7406C50.4299 42.8306 50.1699 42.8706 49.8999 42.8706H48.8599L48.8499 42.9006ZM53.7299 43.7006H54.4999V44.4706H53.7299V43.7006ZM54.8599 43.7006H55.6299V44.4706H54.8599V43.7006ZM54.2899 44.7306H55.0599V45.5006H54.2899V44.7306ZM55.1099 42.0206C55.1999 42.0206 55.2799 41.9906 55.3399 41.9306C55.3999 41.8606 55.4299 41.7806 55.4299 41.6906V40.3006H56.1699V41.6906C56.1699 41.8606 56.1399 42.0106 56.0799 42.1606C56.0199 42.3006 55.9299 42.4306 55.8199 42.5406C55.7099 42.6506 55.5799 42.7306 55.4399 42.8006C55.2999 42.8606 55.1399 42.8906 54.9799 42.8906H53.5699C53.5699 42.8906 53.5199 42.8906 53.4999 42.8606C53.4799 42.8406 53.4699 42.8206 53.4699 42.7906V42.1106C53.4699 42.1106 53.4699 42.0606 53.4999 42.0406C53.5199 42.0206 53.5399 42.0106 53.5699 42.0106H55.1199L55.1099 42.0206Z" fill="white"/>
<path d="M10.8398 37.1797C11.4298 37.1797 11.8998 37.6597 11.8998 38.2397V45.6697C11.8998 46.2597 11.4198 46.7297 10.8398 46.7297C10.2498 46.7297 9.77979 46.2497 9.77979 45.6697V38.2397C9.77979 37.6497 10.2598 37.1797 10.8398 37.1797Z" fill="#222222"/>
<path d="M15.0898 37.1797C15.6798 37.1797 16.1498 37.6597 16.1498 38.2397V45.6697C16.1498 46.2597 15.6698 46.7297 15.0898 46.7297C14.4998 46.7297 14.0298 46.2497 14.0298 45.6697V38.2397C14.0298 37.6497 14.5098 37.1797 15.0898 37.1797Z" fill="#222222"/>
<path d="M21.4198 8.72073C21.5745 8.72073 21.7185 8.75007 21.8518 8.80873C21.9905 8.8674 22.1105 8.9474 22.2118 9.04873C22.3132 9.14473 22.3932 9.26207 22.4518 9.40073C22.5105 9.53407 22.5398 9.67807 22.5398 9.83273V10.8327C22.5398 11.0514 22.4732 11.2274 22.3398 11.3607C22.2118 11.4887 22.0412 11.5527 21.8278 11.5527H20.8358C20.6705 11.5527 20.5185 11.5181 20.3798 11.4487C20.2412 11.3794 20.1238 11.2861 20.0278 11.1687C19.9318 11.0514 19.8625 10.9181 19.8198 10.7687C19.7772 10.6141 19.7718 10.4567 19.8038 10.2967L19.9798 9.32873H19.5478C19.3878 9.32873 19.2492 9.39007 19.1318 9.51273C19.0198 9.6354 18.9638 9.77673 18.9638 9.93673V13.5447H18.4118V9.95273C18.4118 9.78207 18.4438 9.62207 18.5078 9.47273C18.5772 9.3234 18.6678 9.19273 18.7798 9.08073C18.8918 8.96873 19.0225 8.88073 19.1718 8.81673C19.3212 8.75273 19.4812 8.72073 19.6518 8.72073H21.4198ZM21.9878 10.8967V9.82473C21.9878 9.68607 21.9398 9.56873 21.8438 9.47273C21.7478 9.37673 21.6305 9.32873 21.4918 9.32873H20.5398L20.3478 10.3767C20.3212 10.5154 20.3478 10.6381 20.4278 10.7447C20.5078 10.8461 20.6278 10.8967 20.7878 10.8967H21.9878ZM24.1906 11.5527H23.6386V6.28073H24.1906V11.5527ZM25.9597 9.08873V10.3447C25.9597 10.4994 26.0157 10.6301 26.1277 10.7367C26.245 10.8434 26.381 10.8967 26.5357 10.8967H27.3357C27.3677 10.8967 27.3944 10.9101 27.4157 10.9367C27.437 10.9581 27.4477 10.9847 27.4477 11.0167V11.4407C27.4477 11.5154 27.4104 11.5527 27.3357 11.5527H26.6317C26.5037 11.5527 26.3784 11.5261 26.2557 11.4727C26.133 11.4194 26.0344 11.3394 25.9597 11.2327V11.5847C25.9597 11.7714 25.9304 11.9501 25.8717 12.1207C25.813 12.2967 25.7304 12.4567 25.6237 12.6007C25.5224 12.7447 25.397 12.8701 25.2477 12.9767C25.0984 13.0887 24.9357 13.1741 24.7597 13.2327L23.8477 13.5527L23.6717 13.0007L24.6397 12.6807C24.8744 12.6061 25.061 12.4701 25.1997 12.2727C25.3384 12.0754 25.4077 11.8567 25.4077 11.6167V9.08873H25.9597ZM28.0394 10.8967V9.92073C28.0394 9.76607 28.0688 9.62207 28.1274 9.48873C28.1861 9.35007 28.2634 9.23007 28.3594 9.12873C28.4608 9.0274 28.5781 8.9474 28.7114 8.88873C28.8501 8.83007 28.9994 8.80073 29.1594 8.80073H29.4634C29.7141 8.80073 29.9354 8.88073 30.1274 9.04073C30.3248 9.20073 30.4474 9.40607 30.4954 9.65673L30.6154 10.2887C30.6474 10.4487 30.6421 10.6061 30.5994 10.7607C30.5621 10.9101 30.4954 11.0434 30.3994 11.1607C30.3034 11.2781 30.1834 11.3741 30.0394 11.4487C29.9008 11.5181 29.7488 11.5527 29.5834 11.5527H28.9114C28.8528 11.5527 28.7968 11.5474 28.7434 11.5367C28.6901 11.5207 28.6368 11.5047 28.5834 11.4887C28.5888 11.4887 28.5914 11.5154 28.5914 11.5687C28.5914 11.8247 28.6421 12.0194 28.7434 12.1527C28.8448 12.2914 28.9994 12.3821 29.2074 12.4247L29.9274 12.5607L30.5754 11.5527C30.8528 11.1154 31.2554 10.8967 31.7834 10.8967H31.8954C31.9701 10.8967 32.0074 10.9341 32.0074 11.0087V11.4327C32.0074 11.4647 31.9968 11.4941 31.9754 11.5207C31.9541 11.5421 31.9274 11.5527 31.8954 11.5527H31.6474C31.4928 11.5527 31.3594 11.5847 31.2474 11.6487C31.1408 11.7181 31.0421 11.8221 30.9514 11.9607C30.9408 11.9767 30.9141 12.0167 30.8714 12.0807C30.8341 12.1447 30.7861 12.2194 30.7274 12.3047C30.6741 12.3954 30.6154 12.4887 30.5514 12.5847C30.4874 12.6807 30.4288 12.7687 30.3754 12.8487C30.3221 12.9341 30.2768 13.0061 30.2394 13.0647C30.2021 13.1234 30.1808 13.1554 30.1754 13.1607L28.9834 12.8967C28.6848 12.8327 28.4528 12.6887 28.2874 12.4647C28.1274 12.2461 28.0448 11.9421 28.0394 11.5527H27.3354C27.3034 11.5527 27.2768 11.5421 27.2554 11.5207C27.2341 11.4941 27.2234 11.4647 27.2234 11.4327V11.0087C27.2234 10.9341 27.2608 10.8967 27.3354 10.8967H28.0394ZM28.5914 9.91273V10.8967H29.6394C29.7088 10.8967 29.7728 10.8834 29.8314 10.8567C29.8901 10.8247 29.9381 10.7847 29.9754 10.7367C30.0181 10.6887 30.0474 10.6327 30.0634 10.5687C30.0848 10.5047 30.0901 10.4381 30.0794 10.3687L29.9754 9.82473C29.9541 9.70207 29.8954 9.6034 29.7994 9.52873C29.7088 9.44873 29.6021 9.40873 29.4794 9.40873H29.0874C28.9488 9.40873 28.8314 9.4594 28.7354 9.56073C28.6394 9.65673 28.5914 9.77407 28.5914 9.91273ZM32.7059 10.8967C32.8659 10.8967 33.0019 10.8407 33.1139 10.7287C33.2259 10.6114 33.2819 10.4754 33.2819 10.3207V8.85673H33.8339V10.3287C33.8339 10.4994 33.8019 10.6594 33.7379 10.8087C33.6739 10.9581 33.5859 11.0887 33.4739 11.2007C33.3619 11.3074 33.2313 11.3927 33.0819 11.4567C32.9379 11.5207 32.7806 11.5527 32.6099 11.5527H31.8979C31.8233 11.5527 31.7859 11.5154 31.7859 11.4407V11.0167C31.7859 10.9847 31.7966 10.9581 31.8179 10.9367C31.8393 10.9101 31.8659 10.8967 31.8979 10.8967H32.7059ZM32.0499 13.1927H32.7299V12.5127H32.0499V13.1927ZM37.5909 11.4407C37.5909 11.5154 37.5536 11.5527 37.4789 11.5527H37.1829C37.0176 11.5527 36.8602 11.5207 36.7109 11.4567C36.5616 11.3927 36.4309 11.3047 36.3189 11.1927C36.2069 11.0807 36.1189 10.9501 36.0549 10.8007C35.9909 10.6514 35.9589 10.4941 35.9589 10.3287V6.28073H36.5109V10.3207C36.5109 10.4807 36.5669 10.6167 36.6789 10.7287C36.7962 10.8407 36.9322 10.8967 37.0869 10.8967H37.4789C37.5109 10.8967 37.5376 10.9101 37.5589 10.9367C37.5802 10.9581 37.5909 10.9847 37.5909 11.0167V11.4407ZM42.1561 10.8967C42.3001 10.8967 42.4227 10.8487 42.5241 10.7527C42.6307 10.6567 42.6841 10.5314 42.6841 10.3767V9.87273C42.6841 9.71807 42.6307 9.5874 42.5241 9.48073C42.4174 9.37407 42.2867 9.32073 42.1321 9.32073H41.5881C41.4121 9.32073 41.2547 9.35273 41.1161 9.41673C40.9774 9.48073 40.8547 9.57407 40.7481 9.69673L39.6281 10.8967H42.1561ZM38.9561 10.1767C38.9561 10.2674 38.9641 10.3421 38.9801 10.4007C39.0014 10.4594 39.0227 10.5074 39.0441 10.5447C39.0707 10.5767 39.0921 10.6007 39.1081 10.6167C39.1294 10.6327 39.1401 10.6407 39.1401 10.6407L40.4361 9.23273C40.5907 9.0674 40.7694 8.9394 40.9721 8.84873C41.1801 8.75807 41.3961 8.71273 41.6201 8.71273H42.1081C42.2627 8.71273 42.4067 8.74207 42.5401 8.80073C42.6787 8.8594 42.7987 8.9394 42.9001 9.04073C43.0014 9.14207 43.0814 9.26207 43.1401 9.40073C43.1987 9.53407 43.2281 9.67807 43.2281 9.83273V10.4007C43.2281 10.5607 43.1987 10.7101 43.1401 10.8487C43.0814 10.9874 42.9987 11.1101 42.8921 11.2167C42.7907 11.3181 42.6707 11.4007 42.5321 11.4647C42.3934 11.5234 42.2441 11.5527 42.0841 11.5527H39.5321C39.3401 11.5527 39.1667 11.5074 39.0121 11.4167C38.8574 11.3261 38.7427 11.1954 38.6681 11.0247C38.5614 11.1954 38.4254 11.3261 38.2601 11.4167C38.0947 11.5074 37.9134 11.5527 37.7161 11.5527H37.4761C37.4441 11.5527 37.4174 11.5421 37.3961 11.5207C37.3747 11.4941 37.3641 11.4647 37.3641 11.4327V11.0167C37.3641 10.9847 37.3747 10.9581 37.3961 10.9367C37.4174 10.9101 37.4441 10.8967 37.4761 10.8967H37.8201C37.9801 10.8967 38.1161 10.8407 38.2281 10.7287C38.3454 10.6167 38.4041 10.4807 38.4041 10.3207V9.20873H38.9561V10.1767ZM41.3561 7.76873H42.0361V7.08873H41.3561V7.76873ZM42.8633 13.5447L42.6873 13.0007L43.6633 12.6807C43.8873 12.6061 44.0687 12.4701 44.2073 12.2727C44.3513 12.0754 44.4233 11.8567 44.4233 11.6167V9.08073H44.9673V11.5687C44.9673 11.7554 44.938 11.9341 44.8793 12.1047C44.826 12.2807 44.746 12.4407 44.6393 12.5847C44.538 12.7341 44.4127 12.8621 44.2633 12.9687C44.1193 13.0807 43.9593 13.1687 43.7833 13.2327L42.8633 13.5447ZM14.1764 18.4327C14.1764 18.4327 14.1897 18.4887 14.2164 18.6007C14.2484 18.7127 14.2804 18.8541 14.3124 19.0247C14.3497 19.1954 14.3844 19.3821 14.4164 19.5847C14.4484 19.7874 14.4697 19.9794 14.4804 20.1607C14.4857 20.2194 14.5097 20.2621 14.5524 20.2887C14.595 20.3154 14.643 20.3287 14.6964 20.3287H15.5204V18.5047H16.8084V20.5127C16.8084 20.6674 16.7737 20.8167 16.7044 20.9607C16.6404 21.1047 16.5524 21.2327 16.4404 21.3447C16.3337 21.4514 16.2084 21.5367 16.0644 21.6007C15.9257 21.6647 15.779 21.6967 15.6244 21.6967H14.9444C14.8537 21.6967 14.7604 21.6781 14.6644 21.6407C14.5737 21.6034 14.523 21.5714 14.5124 21.5447V24.5447H13.2244V20.8887C13.2244 20.6541 13.211 20.4221 13.1844 20.1927C13.1577 19.9581 13.123 19.7261 13.0804 19.4967L12.9124 18.6567L14.1764 18.4327ZM22.8676 20.5607C22.8676 20.7154 22.8383 20.8621 22.7796 21.0007C22.7209 21.1394 22.6383 21.2621 22.5316 21.3687C22.4303 21.4701 22.3103 21.5501 22.1716 21.6087C22.0383 21.6674 21.8916 21.6967 21.7316 21.6967H21.1796C21.0249 21.6967 20.8703 21.6727 20.7156 21.6247C20.5663 21.5714 20.4249 21.4754 20.2916 21.3367C20.1529 21.4647 20.0223 21.5581 19.8996 21.6167C19.7769 21.6701 19.6463 21.6967 19.5076 21.6967C19.4116 21.6967 19.3076 21.6834 19.1956 21.6567C19.0889 21.6301 19.0169 21.5847 18.9796 21.5207V24.5447H17.6916V20.8887C17.6916 20.4247 17.6436 19.9607 17.5476 19.4967L17.3796 18.6567L18.6436 18.4327C18.6489 18.4541 18.6623 18.5154 18.6836 18.6167C18.7049 18.7181 18.7289 18.8461 18.7556 19.0007C18.7876 19.1554 18.8196 19.3341 18.8516 19.5367C18.8889 19.7341 18.9209 19.9421 18.9476 20.1607C18.9636 20.2407 18.9983 20.2887 19.0516 20.3047C19.1103 20.3207 19.1476 20.3287 19.1636 20.3287H19.2676C19.3369 20.3287 19.3956 20.3074 19.4436 20.2647C19.4969 20.2221 19.5289 20.1714 19.5396 20.1127L19.8676 18.4967L21.1316 18.7207L20.8516 20.1207C20.8463 20.1634 20.8543 20.2087 20.8756 20.2567C20.8969 20.3047 20.9529 20.3287 21.0436 20.3287H21.5876V18.4967H22.8676V20.5607ZM25.2062 17.7367L25.9422 18.6807L24.7982 19.6487C24.7716 19.6647 24.7529 19.6967 24.7422 19.7447C24.7316 19.7874 24.7529 19.8301 24.8062 19.8727L25.7022 20.5447C25.9369 20.2567 26.1956 19.9741 26.4782 19.6967L27.1262 19.0727L28.0462 19.8567L27.4462 20.4487C27.2756 20.6141 27.1156 20.7954 26.9662 20.9927C26.8222 21.1847 26.6836 21.3767 26.5502 21.5687L24.4622 24.5687L23.3582 23.8967L25.0702 21.4807C25.0596 21.4914 25.0089 21.4941 24.9182 21.4887C24.8329 21.4834 24.7342 21.4354 24.6222 21.3447L23.9902 20.8567C23.7982 20.7127 23.6596 20.5421 23.5742 20.3447C23.4942 20.1474 23.4596 19.9474 23.4702 19.7447C23.4809 19.5367 23.5342 19.3394 23.6302 19.1527C23.7262 18.9607 23.8569 18.7981 24.0222 18.6647L25.2062 17.7367ZM30.2 24.5607C30.152 24.0754 30.0774 23.5927 29.976 23.1127C29.8747 22.6274 29.7467 22.1554 29.592 21.6967C29.4427 21.2381 29.264 20.7927 29.056 20.3607C28.848 19.9287 28.608 19.5181 28.336 19.1287L29.36 18.2807C29.3867 18.3127 29.44 18.3981 29.52 18.5367C29.6 18.6754 29.6907 18.8487 29.792 19.0567C29.8987 19.2647 30.008 19.4994 30.12 19.7607C30.2374 20.0221 30.344 20.2941 30.44 20.5767C30.536 20.8594 30.616 21.1474 30.68 21.4407C30.744 21.7287 30.776 22.0061 30.776 22.2727C30.776 22.0167 30.808 21.7474 30.872 21.4647C30.936 21.1821 31.016 20.8994 31.112 20.6167C31.208 20.3341 31.312 20.0621 31.424 19.8007C31.5414 19.5394 31.6534 19.3021 31.76 19.0887C31.8667 18.8754 31.96 18.6994 32.04 18.5607C32.12 18.4167 32.1707 18.3234 32.192 18.2807L33.216 19.1287C32.9494 19.5181 32.7067 19.9314 32.488 20.3687C32.2747 20.8061 32.0907 21.2567 31.936 21.7207C31.7814 22.1847 31.6534 22.6567 31.552 23.1367C31.456 23.6167 31.3894 24.0914 31.352 24.5607H30.2ZM34.1057 24.5527V20.8967C34.1057 20.4221 34.0577 19.9581 33.9617 19.5047L33.7937 18.6647L35.0577 18.4407L35.2337 19.3207C35.2923 19.5927 35.3323 19.8621 35.3537 20.1287C35.3803 20.3901 35.3937 20.6514 35.3937 20.9127V24.5527H34.1057ZM37.0002 20.8327H38.2002V22.0567H37.0002V20.8327ZM37.0002 23.3287H38.2002V24.5527H37.0002V23.3287ZM43.202 23.1927H43.426C43.4526 23.1927 43.4766 23.2061 43.498 23.2327C43.5246 23.2594 43.538 23.2887 43.538 23.3207V24.4407C43.538 24.4674 43.5273 24.4941 43.506 24.5207C43.4846 24.5421 43.458 24.5527 43.426 24.5527H43.306C43.0873 24.5527 42.8953 24.5101 42.73 24.4247C42.57 24.3394 42.434 24.2434 42.322 24.1367C42.1726 24.2914 42.01 24.4007 41.834 24.4647C41.658 24.5234 41.474 24.5527 41.282 24.5527H40.274C40.1086 24.5527 39.9513 24.5207 39.802 24.4567C39.6526 24.3927 39.522 24.3074 39.41 24.2007C39.298 24.0887 39.21 23.9581 39.146 23.8087C39.082 23.6594 39.05 23.5021 39.05 23.3367V22.1367H40.01V23.0647C40.01 23.1501 40.0553 23.1927 40.146 23.1927H41.298C41.41 23.1927 41.5086 23.1581 41.594 23.0887C41.6793 23.0141 41.706 22.9154 41.674 22.7927L40.994 20.3527L42.09 19.9527L42.946 23.0007C42.962 23.0594 42.994 23.1074 43.042 23.1447C43.09 23.1767 43.1433 23.1927 43.202 23.1927ZM44.5453 22.2647L43.7213 21.4727L46.2733 18.4727L47.1053 19.2407L45.6173 21.0007H48.5693C48.772 21.0007 48.9613 21.0407 49.1373 21.1207C49.3186 21.1954 49.476 21.2994 49.6093 21.4327C49.7426 21.5661 49.8466 21.7234 49.9213 21.9047C50.0013 22.0807 50.0413 22.2727 50.0413 22.4807V23.0727C50.0413 23.2861 49.9986 23.4834 49.9133 23.6647C49.828 23.8461 49.7133 24.0034 49.5693 24.1367C49.4306 24.2701 49.2706 24.3741 49.0893 24.4487C48.908 24.5181 48.7186 24.5527 48.5213 24.5527H43.4253C43.3986 24.5527 43.3746 24.5421 43.3533 24.5207C43.3266 24.4941 43.3133 24.4674 43.3133 24.4407V23.3047C43.3133 23.2781 43.324 23.2541 43.3453 23.2327C43.3666 23.2061 43.3933 23.1927 43.4253 23.1927H48.7453C48.772 23.1927 48.8013 23.1821 48.8333 23.1607C48.8706 23.1394 48.8893 23.1021 48.8893 23.0487V22.4487C48.8893 22.3954 48.8706 22.3527 48.8333 22.3207C48.796 22.2834 48.7533 22.2647 48.7053 22.2647H44.5453Z" fill="black"/>
</svg>
