<svg width="63" height="56" viewBox="0 0 63 56" fill="none" xmlns="http://www.w3.org/2000/svg">
<path d="M12.81 1H50.57C57.09 1 62.39 6.29 62.39 12.82V55.32H1V12.82C1 6.3 6.28999 1 12.82 1H12.81Z" fill="#19B5FF" stroke="white" stroke-width="0.52" stroke-miterlimit="10"/>
<path d="M50.8548 32.6406H12.5349C7.38485 32.6406 3.21484 36.8106 3.21484 41.9606C3.21484 47.1106 7.38485 51.2806 12.5349 51.2806H50.8548C56.0048 51.2806 60.1749 47.1106 60.1749 41.9606C60.1749 36.8106 56.0048 32.6406 50.8548 32.6406Z" fill="#222222"/>
<path d="M12.9651 49.9712C17.3889 49.9712 20.9751 46.385 20.9751 41.9612C20.9751 37.5374 17.3889 33.9512 12.9651 33.9512C8.54127 33.9512 4.95508 37.5374 4.95508 41.9612C4.95508 46.385 8.54127 49.9712 12.9651 49.9712Z" fill="white"/>
<path d="M23.1748 42.5706V40.6006H23.9148V42.4706C23.9148 42.5706 23.9348 42.6706 23.9648 42.7606C24.0048 42.8506 24.0548 42.9306 24.1248 43.0006C24.1948 43.0706 24.2748 43.1206 24.3648 43.1506C24.4548 43.1906 24.5548 43.2106 24.6548 43.2106H25.8648C26.0348 43.2106 26.1748 43.1506 26.2948 43.0306C26.4148 42.9106 26.4748 42.7706 26.4748 42.6006V40.4906H27.2148V41.7006C27.2148 41.7906 27.2448 41.8706 27.3048 41.9306C27.3648 41.9906 27.4448 42.0206 27.5348 42.0206H27.9548C27.9548 42.0206 28.0048 42.0306 28.0248 42.0506C28.0448 42.0706 28.0548 42.0906 28.0548 42.1206V42.8006C28.0548 42.8006 28.0548 42.8406 28.0248 42.8706C28.0048 42.8906 27.9848 42.9006 27.9548 42.9006H27.6548C27.5048 42.9006 27.4048 42.8706 27.3348 42.8206C27.2748 42.7706 27.2248 42.7206 27.2048 42.6906V42.8606C27.2048 43.0306 27.1648 43.1906 27.0948 43.3406C27.0248 43.4906 26.9248 43.6206 26.7948 43.7306C26.6748 43.8406 26.5348 43.9306 26.3748 43.9906C26.2148 44.0506 26.0448 44.0806 25.8648 44.0806H24.6948C24.4848 44.0806 24.2948 44.0406 24.1048 43.9606C23.9248 43.8806 23.7548 43.7806 23.6248 43.6406C23.4948 43.5106 23.3848 43.3506 23.3048 43.1606C23.2248 42.9806 23.1948 42.7806 23.1948 42.5706H23.1748ZM24.8048 39.7206H25.5748V40.4906H24.8048V39.7206ZM29.5948 42.0206C29.6848 42.0206 29.7648 41.9906 29.8248 41.9306C29.8848 41.8606 29.9148 41.7806 29.9148 41.6906V40.3006H30.6548V41.6906C30.6548 41.8606 30.6248 42.0106 30.5648 42.1606C30.5048 42.3006 30.4148 42.4306 30.3048 42.5406C30.1948 42.6506 30.0648 42.7306 29.9248 42.8006C29.7848 42.8606 29.6248 42.8906 29.4648 42.8906H28.0548C28.0548 42.8906 28.0048 42.8906 27.9848 42.8606C27.9648 42.8406 27.9548 42.8206 27.9548 42.7906V42.1106C27.9548 42.1106 27.9548 42.0606 27.9848 42.0406C28.0048 42.0206 28.0248 42.0106 28.0548 42.0106H29.6048L29.5948 42.0206ZM28.1448 44.4806H28.9148V43.7106H28.1448V44.4806ZM29.2648 44.4806H30.0348V43.7106H29.2648V44.4806ZM35.3848 42.8006C35.3848 42.8606 35.3548 42.8906 35.2948 42.8906H34.9948C34.8148 42.8906 34.6548 42.8606 34.5148 42.7906C34.3648 42.7206 34.2348 42.6206 34.1348 42.5106C33.9448 42.6906 33.7148 42.7906 33.4548 42.8306L31.5348 43.1006L31.4348 42.3106L32.1648 42.2206L31.8348 38.7106L32.5848 38.6206L32.8948 42.1306L33.3948 42.0606C33.5148 42.0506 33.6148 41.9906 33.6948 41.9106C33.7748 41.8206 33.8148 41.7106 33.8148 41.5906V38.3006H34.5548V41.7106C34.5548 41.8006 34.5848 41.8806 34.6448 41.9406C34.7048 42.0006 34.7848 42.0306 34.8748 42.0306H35.2948C35.3548 42.0306 35.3848 42.0606 35.3848 42.1206V42.8106V42.8006ZM36.5348 42.0206C36.6248 42.0206 36.7048 41.9906 36.7648 41.9306C36.8248 41.8606 36.8548 41.7806 36.8548 41.6906V40.3006H37.5948V41.6906C37.5948 41.8606 37.5648 42.0106 37.5048 42.1606C37.4448 42.3006 37.3548 42.4306 37.2448 42.5406C37.1348 42.6506 37.0048 42.7306 36.8648 42.8006C36.7248 42.8606 36.5648 42.8906 36.4048 42.8906H35.4048C35.4048 42.8906 35.3548 42.8906 35.3348 42.8606C35.3148 42.8406 35.3048 42.8206 35.3048 42.7906V42.1106C35.3048 42.1106 35.3048 42.0606 35.3348 42.0406C35.3548 42.0206 35.3748 42.0106 35.4048 42.0106H36.5448L36.5348 42.0206ZM36.8248 39.6806H37.5948V38.9106H36.8248V39.6806ZM39.2148 42.9006H38.4748V38.8106H39.2148V42.9006ZM37.5648 38.6406V38.2806C37.5648 38.0706 37.6348 37.9206 37.7648 37.8106C37.8948 37.7006 38.0448 37.6406 38.2048 37.6406H39.5948V38.2806H38.2848C38.2848 38.2806 38.2048 38.3006 38.1748 38.3306C38.1548 38.3606 38.1448 38.3906 38.1448 38.4206V38.6406H37.5748H37.5648ZM48.1548 41.7006C48.1548 41.7906 48.1848 41.8706 48.2448 41.9306C48.3048 41.9906 48.3848 42.0206 48.4748 42.0206H48.7548C48.8148 42.0206 48.8448 42.0506 48.8448 42.1106V42.8006C48.8448 42.8606 48.8148 42.8906 48.7548 42.8906H48.5948C48.4348 42.8906 48.2848 42.8606 48.1448 42.8006C48.0048 42.7406 47.8848 42.6406 47.7748 42.5006C47.6648 42.6406 47.5348 42.7406 47.3848 42.8106C47.2348 42.8706 47.0748 42.9006 46.9248 42.9006C46.6048 42.9006 46.3548 42.7706 46.1748 42.5006C46.0748 42.6406 45.9548 42.7506 45.8348 42.8106C45.7148 42.8706 45.5748 42.9006 45.4248 42.9006C45.3448 42.9006 45.2648 42.8906 45.1648 42.8706C45.0748 42.8406 44.9948 42.7806 44.9348 42.6906V42.8706C44.9348 43.0406 44.8948 43.2006 44.8248 43.3406C44.7548 43.4906 44.6548 43.6206 44.5248 43.7206C44.3948 43.8306 44.2548 43.9206 44.0848 43.9806C43.9248 44.0406 43.7548 44.0706 43.5748 44.0706H42.4048C42.1948 44.0706 42.0048 44.0306 41.8148 43.9506C41.6348 43.8706 41.4648 43.7706 41.3348 43.6306C41.2048 43.5006 41.0948 43.3406 41.0148 43.1506C40.9348 42.9706 40.9048 42.7706 40.9048 42.5606V40.5906H41.6448V42.4506C41.6448 42.5506 41.6648 42.6506 41.6948 42.7406C41.7348 42.8306 41.7848 42.9106 41.8548 42.9806C41.9248 43.0506 42.0048 43.1006 42.0948 43.1306C42.1848 43.1706 42.2848 43.1906 42.3848 43.1906H43.5948C43.7648 43.1906 43.9048 43.1306 44.0248 43.0106C44.1448 42.8906 44.2048 42.7506 44.2048 42.5806V40.4706H44.9448V41.7006C44.9448 41.7906 44.9748 41.8606 45.0348 41.9206C45.1048 41.9806 45.1748 42.0106 45.2648 42.0106H45.4648C45.5548 42.0106 45.6348 41.9806 45.7048 41.9306C45.7748 41.8806 45.8148 41.8006 45.8348 41.7106L46.0748 40.4906L46.8048 40.6206L46.6048 41.6406C46.5848 41.7406 46.6048 41.8306 46.6648 41.9006C46.7348 41.9706 46.8148 42.0106 46.9048 42.0106H47.0848C47.1748 42.0106 47.2548 41.9806 47.3148 41.9206C47.3748 41.8606 47.4048 41.7806 47.4048 41.6906V40.2806H48.1448V41.6806L48.1548 41.7006ZM47.0148 39.8906H46.2448V39.1206H47.0148V39.8906ZM45.8848 39.8906H45.1148V39.1206H45.8848V39.8906ZM46.4348 38.8706H45.6648V38.1006H46.4348V38.8706ZM49.8848 38.6006H50.6548V39.3706H49.8848V38.6006ZM48.8548 42.9006C48.7948 42.9006 48.7648 42.8706 48.7648 42.8106V42.1306C48.7648 42.1306 48.7748 42.0906 48.7948 42.0606C48.8148 42.0406 48.8348 42.0306 48.8548 42.0306H50.0648C50.2548 42.0306 50.4348 42.0006 50.6248 41.9406C50.8048 41.8806 50.9648 41.7806 51.0948 41.6406L51.4848 41.2206L51.5448 41.1606L51.5748 41.1306L50.1648 40.7106C50.1648 40.7106 50.0748 40.7106 50.0448 40.7206C50.0148 40.7406 49.9848 40.7706 49.9748 40.8106L49.7148 41.4806L49.0648 41.3006L49.2448 40.6806C49.2848 40.5406 49.3448 40.4206 49.4348 40.3206C49.5248 40.2206 49.6148 40.1406 49.7348 40.0906C49.8448 40.0306 49.9648 40.0006 50.0948 39.9906C50.2248 39.9806 50.3448 39.9906 50.4548 40.0206L53.1348 40.8206L52.9148 41.5106L52.5948 41.4206C52.5148 41.4006 52.4548 41.4006 52.3948 41.4106C52.3448 41.4106 52.2948 41.4406 52.2548 41.4606V41.6906C52.2548 41.7806 52.2848 41.8606 52.3448 41.9206C52.4048 41.9806 52.4848 42.0106 52.5748 42.0106H53.4748C53.5348 42.0106 53.5648 42.0406 53.5648 42.1006V42.7906C53.5648 42.8506 53.5348 42.8806 53.4748 42.8806H52.7048C52.4348 42.8806 52.2048 42.8006 52.0148 42.6506C51.8348 42.4906 51.7048 42.2906 51.6348 42.0506L51.3648 42.3206C51.1748 42.5106 50.9448 42.6506 50.6948 42.7406C50.4348 42.8306 50.1748 42.8706 49.9048 42.8706H48.8648L48.8548 42.9006ZM53.7348 43.7006H54.5048V44.4706H53.7348V43.7006ZM54.8648 43.7006H55.6348V44.4706H54.8648V43.7006ZM54.2948 44.7306H55.0648V45.5006H54.2948V44.7306ZM55.1148 42.0206C55.2048 42.0206 55.2848 41.9906 55.3448 41.9306C55.4048 41.8606 55.4348 41.7806 55.4348 41.6906V40.3006H56.1748V41.6906C56.1748 41.8606 56.1448 42.0106 56.0848 42.1606C56.0248 42.3006 55.9348 42.4306 55.8248 42.5406C55.7148 42.6506 55.5848 42.7306 55.4448 42.8006C55.3048 42.8606 55.1448 42.8906 54.9848 42.8906H53.5748C53.5748 42.8906 53.5248 42.8906 53.5048 42.8606C53.4848 42.8406 53.4748 42.8206 53.4748 42.7906V42.1106C53.4748 42.1106 53.4748 42.0606 53.5048 42.0406C53.5248 42.0206 53.5448 42.0106 53.5748 42.0106H55.1248L55.1148 42.0206Z" fill="white"/>
<path d="M10.8447 37.1797C11.4347 37.1797 11.9047 37.6597 11.9047 38.2397V45.6697C11.9047 46.2597 11.4247 46.7297 10.8447 46.7297C10.2547 46.7297 9.78467 46.2497 9.78467 45.6697V38.2397C9.78467 37.6497 10.2647 37.1797 10.8447 37.1797Z" fill="#222222"/>
<path d="M15.0947 37.1797C15.6847 37.1797 16.1547 37.6597 16.1547 38.2397V45.6697C16.1547 46.2597 15.6747 46.7297 15.0947 46.7297C14.5047 46.7297 14.0347 46.2497 14.0347 45.6697V38.2397C14.0347 37.6497 14.5147 37.1797 15.0947 37.1797Z" fill="#222222"/>
<path d="M11.9959 13.0081C12.1559 13.0081 12.2919 12.9521 12.4039 12.8401C12.5212 12.7281 12.5799 12.5894 12.5799 12.4241V10.9601H13.1319V12.4241C13.1319 12.5947 13.0999 12.7574 13.0359 12.9121C12.9719 13.0614 12.8839 13.1921 12.7719 13.3041C12.6599 13.4161 12.5292 13.5041 12.3799 13.5681C12.2305 13.6321 12.0705 13.6641 11.8999 13.6641H8.85988C8.66255 13.6641 8.47588 13.6267 8.29988 13.5521C8.12921 13.4774 7.97721 13.3761 7.84388 13.2481C7.71588 13.1147 7.61455 12.9627 7.53988 12.7921C7.46521 12.6161 7.42788 12.4294 7.42788 12.2321V10.9601H7.97988V12.1521C7.97988 12.2694 8.00121 12.3814 8.04388 12.4881C8.09188 12.5947 8.15321 12.6854 8.22788 12.7601C8.30788 12.8347 8.39855 12.8961 8.49988 12.9441C8.60655 12.9867 8.71855 13.0081 8.83588 13.0081H11.9959ZM9.93988 15.2961H10.6199V14.6161H9.93988V15.2961ZM18.3609 13.5521C18.3609 13.5787 18.3503 13.6054 18.3289 13.6321C18.3076 13.6534 18.2809 13.6641 18.2489 13.6641H17.9929C17.7903 13.6641 17.6036 13.6214 17.4329 13.5361C17.2676 13.4454 17.1316 13.3227 17.0249 13.1681C16.9289 13.2854 16.8143 13.3761 16.6809 13.4401C16.5529 13.5041 16.4116 13.5494 16.2569 13.5761L14.0889 13.8801L14.0169 13.3041L14.8889 13.1921L14.4969 9.04806L15.0489 8.96806L15.4169 13.1281L16.1609 13.0321C16.3476 13.0054 16.4969 12.9307 16.6089 12.8081C16.7209 12.6854 16.7769 12.5174 16.7769 12.3041V8.39206H17.3289V12.4401C17.3289 12.6427 17.3929 12.7894 17.5209 12.8801C17.6489 12.9654 17.7929 13.0081 17.9529 13.0081H18.2489C18.3236 13.0081 18.3609 13.0454 18.3609 13.1201V13.5521ZM19.4338 11.4321L19.0258 11.0481L21.1298 8.59206L21.5218 8.96006L19.9458 10.8321H23.0978C23.2524 10.8321 23.3964 10.8614 23.5298 10.9201C23.6684 10.9787 23.7884 11.0587 23.8898 11.1601C23.9911 11.2561 24.0711 11.3734 24.1298 11.5121C24.1884 11.6454 24.2178 11.7894 24.2178 11.9441V12.5441C24.2178 12.6987 24.1884 12.8454 24.1298 12.9841C24.0711 13.1174 23.9884 13.2347 23.8818 13.3361C23.7804 13.4374 23.6604 13.5174 23.5218 13.5761C23.3884 13.6347 23.2444 13.6641 23.0898 13.6641H18.2498C18.2178 13.6641 18.1911 13.6534 18.1698 13.6321C18.1484 13.6054 18.1378 13.5787 18.1378 13.5521V13.1201C18.1378 13.0454 18.1751 13.0081 18.2498 13.0081H23.1698C23.3084 13.0134 23.4258 12.9681 23.5218 12.8721C23.6178 12.7707 23.6658 12.6481 23.6658 12.5041V11.9681C23.6658 11.8187 23.6124 11.6934 23.5058 11.5921C23.4044 11.4854 23.2764 11.4321 23.1218 11.4321H19.4338ZM18.6898 10.1121L20.3058 8.20006L20.5938 8.46406L18.9778 10.3601L18.6898 10.1121ZM31.4538 13.6641C31.3311 13.6641 31.2084 13.6427 31.0858 13.6001C30.9631 13.5521 30.8538 13.4667 30.7578 13.3441V13.6801C30.7578 13.8721 30.7204 14.0507 30.6458 14.2161C30.5711 14.3867 30.4671 14.5334 30.3338 14.6561C30.2058 14.7787 30.0538 14.8747 29.8778 14.9441C29.7071 15.0187 29.5258 15.0561 29.3338 15.0561H27.9578C27.7338 15.0561 27.5231 15.0134 27.3258 14.9281C27.1338 14.8481 26.9658 14.7361 26.8218 14.5921C26.6778 14.4481 26.5631 14.2774 26.4778 14.0801C26.3924 13.8881 26.3498 13.6801 26.3498 13.4561V11.3201H26.9018V13.3681C26.9018 13.5121 26.9284 13.6454 26.9818 13.7681C27.0404 13.8961 27.1151 14.0054 27.2058 14.0961C27.3018 14.1921 27.4138 14.2667 27.5418 14.3201C27.6698 14.3734 27.8058 14.4001 27.9498 14.4001H29.3418C29.4644 14.4001 29.5764 14.3761 29.6778 14.3281C29.7844 14.2854 29.8778 14.2241 29.9578 14.1441C30.0378 14.0694 30.0991 13.9787 30.1418 13.8721C30.1898 13.7707 30.2138 13.6587 30.2138 13.5361V11.1841H30.7658V12.4401C30.7658 12.6001 30.8218 12.7361 30.9338 12.8481C31.0458 12.9547 31.1818 13.0081 31.3418 13.0081H31.4778C31.6324 13.0081 31.7684 12.9627 31.8858 12.8721C32.0031 12.7761 32.0751 12.6534 32.1018 12.5041L32.3578 11.2401L32.8938 11.3281L32.6938 12.3521C32.6778 12.4374 32.6804 12.5201 32.7018 12.6001C32.7284 12.6801 32.7658 12.7494 32.8138 12.8081C32.8671 12.8667 32.9284 12.9147 32.9978 12.9521C33.0724 12.9894 33.1524 13.0081 33.2378 13.0081H33.9338V10.9521H34.4858V12.9441C34.4858 13.1627 34.4191 13.3387 34.2858 13.4721C34.1578 13.6001 33.9844 13.6641 33.7658 13.6641H33.2378C33.0564 13.6641 32.8911 13.6214 32.7418 13.5361C32.5924 13.4454 32.4698 13.3121 32.3738 13.1361C32.2671 13.3174 32.1338 13.4507 31.9738 13.5361C31.8138 13.6214 31.6404 13.6641 31.4538 13.6641ZM37.2083 13.5521C37.2083 13.6267 37.171 13.6641 37.0963 13.6641H36.8003C36.635 13.6641 36.4777 13.6321 36.3283 13.5681C36.179 13.5041 36.0483 13.4161 35.9363 13.3041C35.8243 13.1921 35.7363 13.0614 35.6723 12.9121C35.6083 12.7627 35.5763 12.6054 35.5763 12.4401V8.39206H36.1283V12.4321C36.1283 12.5921 36.1843 12.7281 36.2963 12.8401C36.4137 12.9521 36.5497 13.0081 36.7043 13.0081H37.0963C37.1283 13.0081 37.155 13.0214 37.1763 13.0481C37.1977 13.0694 37.2083 13.0961 37.2083 13.1281V13.5521ZM38.1495 15.3121H38.8295V14.6321H38.1495V15.3121ZM39.9735 13.5521C39.9735 13.6267 39.9362 13.6641 39.8615 13.6641H39.3655C39.2748 13.6641 39.1842 13.6507 39.0935 13.6241C39.0028 13.5974 38.9175 13.5601 38.8375 13.5121C38.7575 13.4641 38.6882 13.4081 38.6295 13.3441C38.5708 13.2801 38.5308 13.2107 38.5095 13.1361C38.4188 13.2907 38.2882 13.4187 38.1175 13.5201C37.9522 13.6161 37.7762 13.6641 37.5895 13.6641H37.0935C37.0188 13.6641 36.9815 13.6267 36.9815 13.5521V13.1281C36.9815 13.0961 36.9922 13.0694 37.0135 13.0481C37.0348 13.0214 37.0615 13.0081 37.0935 13.0081H37.6135C37.7682 13.0081 37.9015 12.9601 38.0135 12.8641C38.1308 12.7681 38.2055 12.6481 38.2375 12.5041L38.4855 11.2401L39.0295 11.3281L38.8215 12.3841C38.8055 12.4641 38.8082 12.5441 38.8295 12.6241C38.8508 12.6987 38.8882 12.7654 38.9415 12.8241C38.9948 12.8774 39.0588 12.9227 39.1335 12.9601C39.2082 12.9921 39.2882 13.0081 39.3735 13.0081H39.8615C39.8935 13.0081 39.9202 13.0214 39.9415 13.0481C39.9628 13.0694 39.9735 13.0961 39.9735 13.1281V13.5521ZM43.1391 13.3841L41.9711 13.5361C41.6671 13.5787 41.3605 13.6107 41.0511 13.6321C40.7418 13.6534 40.4351 13.6641 40.1311 13.6641H39.8591C39.7845 13.6641 39.7471 13.6267 39.7471 13.5521V13.1201C39.7471 13.0934 39.7578 13.0694 39.7791 13.0481C39.8005 13.0214 39.8271 13.0081 39.8591 13.0081H40.8111C40.7951 12.9707 40.7791 12.9361 40.7631 12.9041C40.7525 12.8667 40.7418 12.8267 40.7311 12.7841L40.5391 11.7761C40.5071 11.6161 40.5125 11.4614 40.5551 11.3121C40.6031 11.1627 40.6751 11.0321 40.7711 10.9201C40.8671 10.8027 40.9845 10.7094 41.1231 10.6401C41.2618 10.5707 41.4138 10.5361 41.5791 10.5361H42.8111V11.1441H41.5311C41.3871 11.1441 41.2698 11.2001 41.1791 11.3121C41.0885 11.4241 41.0565 11.5521 41.0831 11.6961L41.3311 12.9841L43.0431 12.8081L43.1391 13.3841ZM46.6318 11.2001V12.4561C46.6318 12.6107 46.6878 12.7414 46.7998 12.8481C46.9172 12.9547 47.0532 13.0081 47.2078 13.0081H48.0078C48.0398 13.0081 48.0665 13.0214 48.0878 13.0481C48.1092 13.0694 48.1198 13.0961 48.1198 13.1281V13.5521C48.1198 13.6267 48.0825 13.6641 48.0078 13.6641H47.3038C47.1758 13.6641 47.0505 13.6374 46.9278 13.5841C46.8052 13.5307 46.7065 13.4507 46.6318 13.3441V13.6961C46.6318 13.8827 46.6025 14.0614 46.5438 14.2321C46.4852 14.4081 46.4025 14.5681 46.2958 14.7121C46.1945 14.8561 46.0692 14.9814 45.9198 15.0881C45.7705 15.2001 45.6078 15.2854 45.4318 15.3441L44.5198 15.6641L44.3438 15.1121L45.3118 14.7921C45.5465 14.7174 45.7332 14.5814 45.8718 14.3841C46.0105 14.1867 46.0798 13.9681 46.0798 13.7281V11.2001H46.6318ZM48.5196 15.3041H49.1996V14.6241H48.5196V15.3041ZM49.6156 15.3041H50.2956V14.6241H49.6156V15.3041ZM50.8876 13.5521C50.8876 13.6267 50.8502 13.6641 50.7756 13.6641H50.2796C50.1889 13.6641 50.0982 13.6507 50.0076 13.6241C49.9169 13.5974 49.8316 13.5601 49.7516 13.5121C49.6716 13.4641 49.6022 13.4081 49.5436 13.3441C49.4849 13.2801 49.4449 13.2107 49.4236 13.1361C49.3329 13.2907 49.2022 13.4187 49.0316 13.5201C48.8662 13.6161 48.6902 13.6641 48.5036 13.6641H48.0076C47.9329 13.6641 47.8956 13.6267 47.8956 13.5521V13.1281C47.8956 13.0961 47.9062 13.0694 47.9276 13.0481C47.9489 13.0214 47.9756 13.0081 48.0076 13.0081H48.5276C48.6822 13.0081 48.8156 12.9601 48.9276 12.8641C49.0449 12.7681 49.1196 12.6481 49.1516 12.5041L49.3996 11.2401L49.9436 11.3281L49.7356 12.3841C49.7196 12.4641 49.7222 12.5441 49.7436 12.6241C49.7649 12.6987 49.8022 12.7654 49.8556 12.8241C49.9089 12.8774 49.9729 12.9227 50.0476 12.9601C50.1222 12.9921 50.2022 13.0081 50.2876 13.0081H50.7756C50.8076 13.0081 50.8342 13.0214 50.8556 13.0481C50.8769 13.0694 50.8876 13.0961 50.8876 13.1281V13.5521ZM52.6452 13.0081H53.8612V11.9361C53.8612 11.7974 53.8105 11.6801 53.7092 11.5841C53.6132 11.4827 53.4932 11.4321 53.3492 11.4321H52.8292C52.7065 11.4321 52.5999 11.4721 52.5092 11.5521C52.4185 11.6267 52.3599 11.7227 52.3332 11.8401L52.2132 12.4881C52.1865 12.6267 52.2159 12.7494 52.3012 12.8561C52.3919 12.9574 52.5065 13.0081 52.6452 13.0081ZM51.6452 12.5041L51.8132 11.6801C51.8345 11.5574 51.8772 11.4427 51.9412 11.3361C52.0052 11.2294 52.0825 11.1387 52.1732 11.0641C52.2639 10.9894 52.3652 10.9307 52.4772 10.8881C52.5945 10.8454 52.7172 10.8241 52.8452 10.8241H53.2932C53.4479 10.8241 53.5919 10.8534 53.7252 10.9121C53.8639 10.9707 53.9839 11.0507 54.0852 11.1521C54.1865 11.2534 54.2665 11.3707 54.3252 11.5041C54.3839 11.6374 54.4132 11.7814 54.4132 11.9361V12.9441C54.4132 13.1574 54.3465 13.3307 54.2132 13.4641C54.0852 13.5974 53.9092 13.6641 53.6852 13.6641H52.7092C52.5385 13.6641 52.3812 13.6241 52.2372 13.5441C52.0985 13.4587 51.9839 13.3227 51.8932 13.1361C51.7972 13.3227 51.6692 13.4587 51.5092 13.5441C51.3492 13.6241 51.1812 13.6641 51.0052 13.6641H50.7732C50.6985 13.6641 50.6612 13.6267 50.6612 13.5521V13.1201C50.6612 13.0934 50.6719 13.0694 50.6932 13.0481C50.7145 13.0214 50.7412 13.0081 50.7732 13.0081H51.0292C51.1839 13.0081 51.3172 12.9601 51.4292 12.8641C51.5465 12.7681 51.6185 12.6481 51.6452 12.5041ZM56.0424 13.6641H55.4904V8.39206H56.0424V13.6641ZM19.2131 23.4801C18.8824 23.5334 18.6078 23.5814 18.3891 23.6241C18.1758 23.6614 17.9838 23.6961 17.8131 23.7281C17.6424 23.7547 17.4718 23.7761 17.3011 23.7921C17.1358 23.8027 16.9331 23.8081 16.6931 23.8081C16.6718 23.8081 16.6424 23.8054 16.6051 23.8001C16.5678 23.7947 16.5251 23.7867 16.4771 23.7761C16.4344 23.7601 16.3918 23.7441 16.3491 23.7281C16.3118 23.7067 16.2824 23.6854 16.2611 23.6641V26.6641H14.9731V23.0081C14.9731 22.8694 14.9678 22.7307 14.9571 22.5921C14.9518 22.4534 14.9358 22.2987 14.9091 22.1281C14.8878 21.9574 14.8558 21.7627 14.8131 21.5441C14.7758 21.3254 14.7251 21.0667 14.6611 20.7681L15.9251 20.5441C15.9091 20.4747 15.9091 20.4854 15.9251 20.5761C15.9464 20.6667 15.9731 20.8027 16.0051 20.9841C16.0424 21.1601 16.0798 21.3654 16.1171 21.6001C16.1598 21.8347 16.1971 22.0614 16.2291 22.2801C16.2451 22.3441 16.2611 22.3867 16.2771 22.4081C16.2984 22.4294 16.3331 22.4401 16.3811 22.4401H16.7011C16.6958 22.4347 16.6771 22.4187 16.6451 22.3921C16.6131 22.3601 16.5918 22.3094 16.5811 22.2401C16.5758 22.1974 16.5678 22.1601 16.5571 22.1281C16.5518 22.1014 16.5464 22.0747 16.5411 22.0481C16.5411 22.0214 16.5384 22.0054 16.5331 22.0001C16.4851 21.7654 16.4851 21.5467 16.5331 21.3441C16.5811 21.1414 16.6664 20.9654 16.7891 20.8161C16.9118 20.6667 17.0691 20.5494 17.2611 20.4641C17.4531 20.3734 17.6718 20.3281 17.9171 20.3281H18.8211V21.6561H17.7331C17.6904 21.6561 17.6638 21.6694 17.6531 21.6961C17.6424 21.7174 17.6398 21.7387 17.6451 21.7601L17.7731 22.4081C17.9118 22.3974 18.0558 22.3867 18.2051 22.3761C18.3544 22.3601 18.4878 22.3467 18.6051 22.3361C18.7278 22.3254 18.8264 22.3174 18.9011 22.3121C18.9758 22.3014 19.0131 22.2961 19.0131 22.2961L19.2131 23.4801ZM20.4184 26.6641V23.0081C20.4184 22.5334 20.3704 22.0694 20.2744 21.6161L20.1064 20.7761L21.3704 20.5521L21.5464 21.4321C21.6051 21.7041 21.6451 21.9734 21.6664 22.2401C21.6931 22.5014 21.7064 22.7627 21.7064 23.0241V26.6641H20.4184ZM24.4323 22.9281C24.635 22.9281 24.8243 22.9681 25.0003 23.0481C25.1816 23.1227 25.339 23.2267 25.4723 23.3601C25.6056 23.4934 25.7096 23.6507 25.7843 23.8321C25.8643 24.0134 25.9043 24.2054 25.9043 24.4081V24.8081C25.9043 25.0107 25.8643 25.2027 25.7843 25.3841C25.7096 25.5654 25.6056 25.7227 25.4723 25.8561C25.339 25.9894 25.1816 26.0961 25.0003 26.1761C24.8243 26.2507 24.635 26.2881 24.4323 26.2881H24.0323C23.835 26.2881 23.6456 26.2507 23.4643 26.1761C23.2883 26.0961 23.1336 25.9894 23.0003 25.8561C22.867 25.7227 22.7603 25.5654 22.6803 25.3841C22.6003 25.2027 22.5603 25.0107 22.5603 24.8081V24.4081C22.5603 24.2054 22.5976 24.0134 22.6723 23.8321C22.7523 23.6507 22.859 23.4934 22.9923 23.3601C23.1256 23.2267 23.2803 23.1227 23.4563 23.0481C23.6376 22.9681 23.8296 22.9281 24.0323 22.9281H24.4323ZM24.6243 24.7761V24.3921C24.6136 24.3014 24.563 24.2561 24.4723 24.2561H24.0083C23.9656 24.2507 23.9283 24.2641 23.8963 24.2961C23.8696 24.3227 23.8563 24.3574 23.8563 24.4001V24.7761C23.8563 24.8187 23.8696 24.8534 23.8963 24.8801C23.9283 24.9067 23.9656 24.9201 24.0083 24.9201H24.4723C24.531 24.9201 24.571 24.9067 24.5923 24.8801C24.6136 24.8534 24.6243 24.8187 24.6243 24.7761ZM29.5398 20.3921C29.5771 20.8614 29.6438 21.3361 29.7398 21.8161C29.8411 22.2907 29.9691 22.7601 30.1238 23.2241C30.2785 23.6881 30.4625 24.1414 30.6758 24.5841C30.8945 25.0214 31.1371 25.4347 31.4038 25.8241L30.3798 26.6721C30.3585 26.6294 30.3078 26.5387 30.2278 26.4001C30.1478 26.2561 30.0545 26.0774 29.9478 25.8641C29.8411 25.6507 29.7291 25.4134 29.6118 25.1521C29.4998 24.8907 29.3958 24.6187 29.2998 24.3361C29.2038 24.0534 29.1238 23.7707 29.0598 23.4881C28.9958 23.2001 28.9638 22.9307 28.9638 22.6801C28.9638 22.9467 28.9318 23.2267 28.8678 23.5201C28.8038 23.8081 28.7238 24.0934 28.6278 24.3761C28.5318 24.6587 28.4251 24.9307 28.3078 25.1921C28.1958 25.4534 28.0865 25.6881 27.9798 25.8961C27.8785 26.1041 27.7878 26.2774 27.7078 26.4161C27.6278 26.5547 27.5745 26.6401 27.5478 26.6721L26.5238 25.8241C26.7958 25.4347 27.0358 25.0241 27.2438 24.5921C27.4518 24.1601 27.6305 23.7147 27.7798 23.2561C27.9345 22.7974 28.0625 22.3281 28.1638 21.8481C28.2651 21.3627 28.3398 20.8774 28.3878 20.3921H29.5398ZM32.2934 26.6641V23.0081C32.2934 22.5334 32.2454 22.0694 32.1494 21.6161L31.9814 20.7761L33.2454 20.5521L33.4214 21.4321C33.4801 21.7041 33.5201 21.9734 33.5414 22.2401C33.5681 22.5014 33.5814 22.7627 33.5814 23.0241V26.6641H32.2934ZM35.1879 22.9441H36.3879V24.1681H35.1879V22.9441ZM35.1879 25.4401H36.3879V26.6641H35.1879V25.4401ZM41.3897 25.3041H41.6137C41.6404 25.3041 41.6644 25.3174 41.6857 25.3441C41.7124 25.3707 41.7257 25.4001 41.7257 25.4321V26.5521C41.7257 26.5787 41.7151 26.6054 41.6937 26.6321C41.6724 26.6534 41.6457 26.6641 41.6137 26.6641H41.4937C41.2751 26.6641 41.0831 26.6214 40.9177 26.5361C40.7577 26.4507 40.6217 26.3547 40.5097 26.2481C40.3604 26.4027 40.1977 26.5121 40.0217 26.5761C39.8457 26.6347 39.6617 26.6641 39.4697 26.6641H38.4617C38.2964 26.6641 38.1391 26.6321 37.9897 26.5681C37.8404 26.5041 37.7097 26.4187 37.5977 26.3121C37.4857 26.2001 37.3977 26.0694 37.3337 25.9201C37.2697 25.7707 37.2377 25.6134 37.2377 25.4481V24.2481H38.1977V25.1761C38.1977 25.2614 38.2431 25.3041 38.3337 25.3041H39.4857C39.5977 25.3041 39.6964 25.2694 39.7817 25.2001C39.8671 25.1254 39.8937 25.0267 39.8617 24.9041L39.1817 22.4641L40.2777 22.0641L41.1337 25.1121C41.1497 25.1707 41.1817 25.2187 41.2297 25.2561C41.2777 25.2881 41.3311 25.3041 41.3897 25.3041ZM42.733 24.3761L41.909 23.5841L44.461 20.5841L45.293 21.3521L43.805 23.1121H46.757C46.9597 23.1121 47.149 23.1521 47.325 23.2321C47.5064 23.3067 47.6637 23.4107 47.797 23.5441C47.9304 23.6774 48.0344 23.8347 48.109 24.0161C48.189 24.1921 48.229 24.3841 48.229 24.5921V25.1841C48.229 25.3974 48.1864 25.5947 48.101 25.7761C48.0157 25.9574 47.901 26.1147 47.757 26.2481C47.6184 26.3814 47.4584 26.4854 47.277 26.5601C47.0957 26.6294 46.9064 26.6641 46.709 26.6641H41.613C41.5864 26.6641 41.5624 26.6534 41.541 26.6321C41.5144 26.6054 41.501 26.5787 41.501 26.5521V25.4161C41.501 25.3894 41.5117 25.3654 41.533 25.3441C41.5544 25.3174 41.581 25.3041 41.613 25.3041H46.933C46.9597 25.3041 46.989 25.2934 47.021 25.2721C47.0584 25.2507 47.077 25.2134 47.077 25.1601V24.5601C47.077 24.5067 47.0584 24.4641 47.021 24.4321C46.9837 24.3947 46.941 24.3761 46.893 24.3761H42.733Z" fill="black"/>
</svg>
