<svg width="63" height="56" viewBox="0 0 63 56" fill="none" xmlns="http://www.w3.org/2000/svg">
<path d="M12.81 1H50.57C57.09 1 62.39 6.29 62.39 12.82V55.32H1V12.82C1 6.3 6.29001 1 12.82 1H12.81Z" fill="white" stroke="#19B5FF" stroke-width="0.52" stroke-miterlimit="10"/>
<path d="M50.8548 32.4805H12.5348C7.38482 32.4805 3.21484 36.6505 3.21484 41.8005C3.21484 46.9505 7.38482 51.1205 12.5348 51.1205H50.8548C56.0048 51.1205 60.1748 46.9505 60.1748 41.8005C60.1748 36.6505 56.0048 32.4805 50.8548 32.4805Z" fill="#696969"/>
<path d="M12.9748 49.811C17.3986 49.811 20.9848 46.2248 20.9848 41.801C20.9848 37.3772 17.3986 33.791 12.9748 33.791C8.55102 33.791 4.96484 37.3772 4.96484 41.801C4.96484 46.2248 8.55102 49.811 12.9748 49.811Z" fill="white"/>
<path d="M17.1149 42.6409C17.7349 42.2509 17.7349 41.3609 17.1149 40.9709L11.0549 37.1809C10.4049 36.7709 9.54492 37.2409 9.54492 38.0109V45.6009C9.54492 46.3709 10.3949 46.8409 11.0549 46.4309L17.1149 42.6409Z" fill="#696969"/>
<path d="M23.1748 42.4105V40.4405H23.9148V42.3105C23.9148 42.4105 23.9348 42.5105 23.9648 42.6005C24.0048 42.6905 24.0548 42.7705 24.1248 42.8405C24.1948 42.9105 24.2748 42.9605 24.3648 42.9905C24.4548 43.0305 24.5548 43.0505 24.6548 43.0505H25.8648C26.0348 43.0505 26.1748 42.9905 26.2948 42.8705C26.4148 42.7505 26.4748 42.6105 26.4748 42.4405V40.3305H27.2148V41.5405C27.2148 41.6305 27.2448 41.7105 27.3048 41.7705C27.3648 41.8305 27.4448 41.8605 27.5348 41.8605H27.9548C27.9548 41.8605 28.0048 41.8705 28.0248 41.8905C28.0448 41.9105 28.0548 41.9305 28.0548 41.9605V42.6405C28.0548 42.6405 28.0548 42.6805 28.0248 42.7105C28.0048 42.7305 27.9848 42.7405 27.9548 42.7405H27.6548C27.5048 42.7405 27.4048 42.7105 27.3348 42.6605C27.2748 42.6105 27.2248 42.5605 27.2048 42.5305V42.7005C27.2048 42.8705 27.1648 43.0305 27.0948 43.1805C27.0248 43.3305 26.9248 43.4605 26.7948 43.5705C26.6748 43.6805 26.5348 43.7705 26.3748 43.8305C26.2148 43.8905 26.0448 43.9205 25.8648 43.9205H24.6948C24.4848 43.9205 24.2948 43.8805 24.1048 43.8005C23.9248 43.7205 23.7548 43.6205 23.6248 43.4805C23.4948 43.3505 23.3848 43.1905 23.3048 43.0005C23.2248 42.8205 23.1948 42.6205 23.1948 42.4105H23.1748ZM24.8048 39.5605H25.5748V40.3305H24.8048V39.5605ZM29.5948 41.8605C29.6848 41.8605 29.7648 41.8305 29.8248 41.7705C29.8848 41.7005 29.9148 41.6205 29.9148 41.5305V40.1405H30.6548V41.5305C30.6548 41.7005 30.6248 41.8505 30.5648 42.0005C30.5048 42.1405 30.4148 42.2705 30.3048 42.3805C30.1948 42.4905 30.0648 42.5705 29.9248 42.6405C29.7848 42.7005 29.6248 42.7305 29.4648 42.7305H28.0548C28.0548 42.7305 28.0048 42.7305 27.9848 42.7005C27.9648 42.6805 27.9548 42.6605 27.9548 42.6305V41.9505C27.9548 41.9505 27.9548 41.9005 27.9848 41.8805C28.0048 41.8605 28.0248 41.8505 28.0548 41.8505H29.6048L29.5948 41.8605ZM28.1448 44.3205H28.9148V43.5505H28.1448V44.3205ZM29.2648 44.3205H30.0348V43.5505H29.2648V44.3205ZM35.3948 42.6405C35.3948 42.7005 35.3648 42.7305 35.3048 42.7305H35.0048C34.8248 42.7305 34.6648 42.7005 34.5248 42.6305C34.3748 42.5605 34.2448 42.4605 34.1448 42.3505C33.9548 42.5305 33.7248 42.6305 33.4648 42.6705L31.5448 42.9405L31.4448 42.1505L32.1748 42.0605L31.8448 38.5505L32.5948 38.4605L32.9048 41.9705L33.4048 41.9005C33.5248 41.8905 33.6248 41.8305 33.7048 41.7505C33.7848 41.6605 33.8248 41.5505 33.8248 41.4305V38.1405H34.5648V41.5505C34.5648 41.6405 34.5948 41.7205 34.6548 41.7805C34.7148 41.8405 34.7948 41.8705 34.8848 41.8705H35.3048C35.3648 41.8705 35.3948 41.9005 35.3948 41.9605V42.6505V42.6405ZM36.5348 41.8605C36.6248 41.8605 36.7048 41.8305 36.7648 41.7705C36.8248 41.7005 36.8548 41.6205 36.8548 41.5305V40.1405H37.5948V41.5305C37.5948 41.7005 37.5648 41.8505 37.5048 42.0005C37.4448 42.1405 37.3548 42.2705 37.2448 42.3805C37.1348 42.4905 37.0048 42.5705 36.8648 42.6405C36.7248 42.7005 36.5648 42.7305 36.4048 42.7305H35.4048C35.4048 42.7305 35.3548 42.7305 35.3348 42.7005C35.3148 42.6805 35.3048 42.6605 35.3048 42.6305V41.9505C35.3048 41.9505 35.3048 41.9005 35.3348 41.8805C35.3548 41.8605 35.3748 41.8505 35.4048 41.8505H36.5448L36.5348 41.8605ZM36.8248 39.5205H37.5948V38.7505H36.8248V39.5205ZM39.2148 42.7405H38.4748V38.6505H39.2148V42.7405ZM37.5648 38.4805V38.1205C37.5648 37.9105 37.6348 37.7605 37.7648 37.6505C37.8948 37.5405 38.0448 37.4805 38.2048 37.4805H39.5948V38.1205H38.2848C38.2848 38.1205 38.2048 38.1405 38.1748 38.1705C38.1548 38.2005 38.1448 38.2305 38.1448 38.2605V38.4805H37.5748H37.5648ZM48.1548 41.5405C48.1548 41.6305 48.1848 41.7105 48.2448 41.7705C48.3048 41.8305 48.3848 41.8605 48.4748 41.8605H48.7548C48.8148 41.8605 48.8448 41.8905 48.8448 41.9505V42.6405C48.8448 42.7005 48.8148 42.7305 48.7548 42.7305H48.5948C48.4348 42.7305 48.2848 42.7005 48.1448 42.6405C48.0048 42.5805 47.8848 42.4805 47.7748 42.3405C47.6648 42.4805 47.5348 42.5805 47.3848 42.6505C47.2348 42.7105 47.0748 42.7405 46.9248 42.7405C46.6048 42.7405 46.3548 42.6105 46.1748 42.3405C46.0748 42.4805 45.9548 42.5905 45.8348 42.6505C45.7148 42.7105 45.5748 42.7405 45.4248 42.7405C45.3448 42.7405 45.2648 42.7305 45.1648 42.7105C45.0748 42.6805 44.9948 42.6205 44.9348 42.5305V42.7105C44.9348 42.8805 44.8948 43.0405 44.8248 43.1805C44.7548 43.3305 44.6548 43.4605 44.5248 43.5605C44.3948 43.6705 44.2548 43.7605 44.0848 43.8205C43.9248 43.8805 43.7548 43.9105 43.5748 43.9105H42.4048C42.1948 43.9105 42.0048 43.8705 41.8148 43.7905C41.6348 43.7105 41.4648 43.6105 41.3348 43.4705C41.2048 43.3405 41.0948 43.1805 41.0148 42.9905C40.9348 42.8105 40.9048 42.6105 40.9048 42.4005V40.4305H41.6448V42.2905C41.6448 42.3905 41.6648 42.4905 41.6948 42.5805C41.7348 42.6705 41.7848 42.7505 41.8548 42.8205C41.9248 42.8905 42.0048 42.9405 42.0948 42.9705C42.1848 43.0105 42.2848 43.0305 42.3848 43.0305H43.5948C43.7648 43.0305 43.9048 42.9705 44.0248 42.8505C44.1448 42.7305 44.2048 42.5905 44.2048 42.4205V40.3105H44.9448V41.5405C44.9448 41.6305 44.9748 41.7005 45.0348 41.7605C45.1048 41.8205 45.1748 41.8505 45.2648 41.8505H45.4648C45.5548 41.8505 45.6348 41.8205 45.7048 41.7705C45.7748 41.7205 45.8148 41.6405 45.8348 41.5505L46.0748 40.3305L46.8048 40.4605L46.6048 41.4805C46.5848 41.5805 46.6048 41.6705 46.6648 41.7405C46.7348 41.8105 46.8148 41.8505 46.9048 41.8505H47.0848C47.1748 41.8505 47.2548 41.8205 47.3148 41.7605C47.3748 41.7005 47.4048 41.6205 47.4048 41.5305V40.1205H48.1448V41.5205L48.1548 41.5405ZM47.0148 39.7305H46.2448V38.9605H47.0148V39.7305ZM45.8848 39.7305H45.1148V38.9605H45.8848V39.7305ZM46.4448 38.7105H45.6748V37.9405H46.4448V38.7105ZM49.8848 38.4405H50.6548V39.2105H49.8848V38.4405ZM48.8548 42.7405C48.7948 42.7405 48.7648 42.7105 48.7648 42.6505V41.9705C48.7648 41.9705 48.7748 41.9305 48.7948 41.9005C48.8148 41.8805 48.8348 41.8705 48.8548 41.8705H50.0648C50.2548 41.8705 50.4348 41.8405 50.6248 41.7805C50.8048 41.7205 50.9648 41.6205 51.0948 41.4805L51.4848 41.0605L51.5448 41.0005L51.5748 40.9705L50.1648 40.5505C50.1648 40.5505 50.0748 40.5505 50.0448 40.5605C50.0148 40.5805 49.9848 40.6105 49.9748 40.6505L49.7148 41.3205L49.0648 41.1405L49.2448 40.5205C49.2848 40.3805 49.3448 40.2605 49.4348 40.1605C49.5248 40.0605 49.6148 39.9805 49.7348 39.9305C49.8448 39.8705 49.9648 39.8405 50.0948 39.8305C50.2248 39.8205 50.3448 39.8305 50.4548 39.8605L53.1348 40.6605L52.9148 41.3505L52.5948 41.2605C52.5148 41.2405 52.4548 41.2405 52.3948 41.2505C52.3448 41.2505 52.2948 41.2805 52.2548 41.3005V41.5305C52.2548 41.6205 52.2848 41.7005 52.3448 41.7605C52.4048 41.8205 52.4848 41.8505 52.5748 41.8505H53.4748C53.5348 41.8505 53.5648 41.8805 53.5648 41.9405V42.6305C53.5648 42.6905 53.5348 42.7205 53.4748 42.7205H52.7048C52.4348 42.7205 52.2048 42.6405 52.0148 42.4905C51.8348 42.3305 51.7048 42.1305 51.6348 41.8905L51.3648 42.1605C51.1748 42.3505 50.9448 42.4905 50.6948 42.5805C50.4348 42.6705 50.1748 42.7105 49.9048 42.7105H48.8648L48.8548 42.7405ZM53.7448 43.5405H54.5148V44.3105H53.7448V43.5405ZM54.8648 43.5405H55.6348V44.3105H54.8648V43.5405ZM54.2948 44.5705H55.0648V45.3405H54.2948V44.5705ZM55.1148 41.8605C55.2048 41.8605 55.2848 41.8305 55.3448 41.7705C55.4048 41.7005 55.4348 41.6205 55.4348 41.5305V40.1405H56.1748V41.5305C56.1748 41.7005 56.1448 41.8505 56.0848 42.0005C56.0248 42.1405 55.9348 42.2705 55.8248 42.3805C55.7148 42.4905 55.5848 42.5705 55.4448 42.6405C55.3048 42.7005 55.1448 42.7305 54.9848 42.7305H53.5748C53.5748 42.7305 53.5248 42.7305 53.5048 42.7005C53.4848 42.6805 53.4748 42.6605 53.4748 42.6305V41.9505C53.4748 41.9505 53.4748 41.9005 53.5048 41.8805C53.5248 41.8605 53.5448 41.8505 53.5748 41.8505H55.1248L55.1148 41.8605Z" fill="white"/>
<path d="M16.611 13.7865C16.7283 13.7865 16.8377 13.7625 16.939 13.7145C17.0457 13.6718 17.139 13.6105 17.219 13.5305C17.299 13.4558 17.3603 13.3652 17.403 13.2585C17.451 13.1572 17.475 13.0478 17.475 12.9305V12.5625H15.979V11.9065H18.907C18.9337 11.9065 18.9577 11.9172 18.979 11.9385C19.0057 11.9598 19.019 11.9865 19.019 12.0185V12.4425C19.019 12.4745 19.0057 12.5038 18.979 12.5305C18.9577 12.5518 18.9337 12.5625 18.907 12.5625H17.987C18.0083 12.6158 18.019 12.6745 18.019 12.7385V13.0185C18.019 13.2158 17.9817 13.3998 17.907 13.5705C17.8323 13.7465 17.7283 13.8985 17.595 14.0265C17.467 14.1545 17.315 14.2558 17.139 14.3305C16.9683 14.4052 16.7843 14.4425 16.587 14.4425H15.211C14.9923 14.4425 14.7843 14.3998 14.587 14.3145C14.395 14.2292 14.227 14.1145 14.083 13.9705C13.939 13.8265 13.8243 13.6558 13.739 13.4585C13.6537 13.2665 13.611 13.0612 13.611 12.8425V10.9225H14.163V12.7465C14.163 12.8905 14.1897 13.0238 14.243 13.1465C14.3017 13.2745 14.3763 13.3865 14.467 13.4825C14.563 13.5785 14.6723 13.6532 14.795 13.7065C14.923 13.7598 15.059 13.7865 15.203 13.7865H16.611ZM19.8774 11.9065C20.0374 11.9065 20.1734 11.8505 20.2854 11.7385C20.3974 11.6265 20.4534 11.4932 20.4534 11.3385V9.8665H21.0054V11.3385C21.0054 11.5092 20.9734 11.6692 20.9094 11.8185C20.8454 11.9678 20.7574 12.0985 20.6454 12.2105C20.5334 12.3172 20.4028 12.4025 20.2534 12.4665C20.1094 12.5305 19.9521 12.5625 19.7814 12.5625H18.9094C18.8348 12.5625 18.7974 12.5252 18.7974 12.4505V12.0265C18.7974 11.9945 18.8081 11.9678 18.8294 11.9465C18.8508 11.9198 18.8774 11.9065 18.9094 11.9065H19.8774ZM20.3654 8.9145H21.0454V8.2345H20.3654V8.9145ZM23.7664 12.4505C23.7664 12.5252 23.7291 12.5625 23.6544 12.5625H23.3584C23.1931 12.5625 23.0358 12.5305 22.8864 12.4665C22.7371 12.4025 22.6064 12.3145 22.4944 12.2025C22.3824 12.0905 22.2944 11.9598 22.2304 11.8105C22.1664 11.6612 22.1344 11.5038 22.1344 11.3385V7.2905H22.6864V11.3305C22.6864 11.4905 22.7424 11.6265 22.8544 11.7385C22.9718 11.8505 23.1078 11.9065 23.2624 11.9065H23.6544C23.6864 11.9065 23.7131 11.9198 23.7344 11.9465C23.7558 11.9678 23.7664 11.9945 23.7664 12.0265V12.4505ZM25.5236 11.9065H26.7396V10.8345C26.7396 10.6958 26.6889 10.5785 26.5876 10.4825C26.4916 10.3812 26.3716 10.3305 26.2276 10.3305H25.7076C25.5849 10.3305 25.4783 10.3705 25.3876 10.4505C25.2969 10.5252 25.2383 10.6212 25.2116 10.7385L25.0916 11.3865C25.0649 11.5252 25.0943 11.6478 25.1796 11.7545C25.2703 11.8558 25.3849 11.9065 25.5236 11.9065ZM24.5236 11.4025L24.6916 10.5785C24.7129 10.4558 24.7556 10.3412 24.8196 10.2345C24.8836 10.1278 24.9609 10.0372 25.0516 9.9625C25.1423 9.88783 25.2436 9.82917 25.3556 9.7865C25.4729 9.74383 25.5956 9.7225 25.7236 9.7225H26.1716C26.3263 9.7225 26.4703 9.75183 26.6036 9.8105C26.7423 9.86917 26.8623 9.94917 26.9636 10.0505C27.0649 10.1518 27.1449 10.2692 27.2036 10.4025C27.2623 10.5358 27.2916 10.6798 27.2916 10.8345V11.8425C27.2916 12.0558 27.2249 12.2292 27.0916 12.3625C26.9636 12.4958 26.7876 12.5625 26.5636 12.5625H25.5876C25.4169 12.5625 25.2596 12.5225 25.1156 12.4425C24.9769 12.3572 24.8623 12.2212 24.7716 12.0345C24.6756 12.2212 24.5476 12.3572 24.3876 12.4425C24.2276 12.5225 24.0596 12.5625 23.8836 12.5625H23.6516C23.5769 12.5625 23.5396 12.5252 23.5396 12.4505V12.0185C23.5396 11.9918 23.5503 11.9678 23.5716 11.9465C23.5929 11.9198 23.6196 11.9065 23.6516 11.9065H23.9076C24.0623 11.9065 24.1956 11.8585 24.3076 11.7625C24.4249 11.6665 24.4969 11.5465 24.5236 11.4025ZM26.906 14.5545L26.73 14.0105L27.698 13.6905C27.9274 13.6158 28.1114 13.4798 28.25 13.2825C28.394 13.0852 28.466 12.8665 28.466 12.6265V10.0985H29.018V12.5785C29.018 12.7652 28.9887 12.9465 28.93 13.1225C28.8714 13.2985 28.7887 13.4585 28.682 13.6025C28.5807 13.7465 28.4554 13.8745 28.306 13.9865C28.162 14.0985 28.002 14.1838 27.826 14.2425L26.906 14.5545ZM28.394 8.4745H29.074V9.1545H28.394V8.4745ZM36.3461 11.8265C36.4634 11.7732 36.5701 11.7145 36.6661 11.6505C36.7674 11.5812 36.8528 11.5118 36.9221 11.4425C36.9968 11.3678 37.0554 11.2932 37.0981 11.2185C37.1408 11.1438 37.1621 11.0718 37.1621 11.0025V10.7385C37.1621 10.6318 37.1408 10.5332 37.0981 10.4425C37.0608 10.3518 37.0074 10.2745 36.9381 10.2105C36.8741 10.1412 36.7941 10.0878 36.6981 10.0505C36.6074 10.0078 36.5088 9.9865 36.4021 9.9865H36.2981C36.1968 9.9865 36.0981 10.0078 36.0021 10.0505C35.9114 10.0878 35.8314 10.1412 35.7621 10.2105C35.6981 10.2745 35.6448 10.3518 35.6021 10.4425C35.5648 10.5332 35.5461 10.6292 35.5461 10.7305V11.0025C35.5461 11.1518 35.6234 11.2985 35.7781 11.4425C35.9328 11.5865 36.1221 11.7145 36.3461 11.8265ZM37.7061 10.9385C37.7061 11.1252 37.6581 11.3012 37.5621 11.4665C37.4714 11.6265 37.3488 11.7705 37.1941 11.8985C37.2314 11.9038 37.2741 11.9065 37.3221 11.9065C37.3701 11.9065 37.4101 11.9065 37.4421 11.9065H38.1141C38.1461 11.9065 38.1728 11.9198 38.1941 11.9465C38.2154 11.9678 38.2261 11.9918 38.2261 12.0185V12.4505C38.2261 12.5252 38.1888 12.5625 38.1141 12.5625H37.4341C37.2528 12.5625 37.0821 12.5492 36.9221 12.5225C36.7621 12.4905 36.5701 12.4292 36.3461 12.3385C36.2341 12.3865 36.1328 12.4265 36.0421 12.4585C35.9514 12.4852 35.8634 12.5065 35.7781 12.5225C35.6928 12.5385 35.6074 12.5492 35.5221 12.5545C35.4421 12.5598 35.3568 12.5625 35.2661 12.5625H32.7701C32.5568 12.5625 32.3594 12.5252 32.1781 12.4505C32.0021 12.3758 31.8501 12.2718 31.7221 12.1385C31.5941 12.0052 31.4928 11.8505 31.4181 11.6745C31.3488 11.4985 31.3141 11.3092 31.3141 11.1065V9.8585H31.8661V11.0825C31.8661 11.3225 31.9408 11.5198 32.0901 11.6745C32.2448 11.8292 32.4448 11.9065 32.6901 11.9065H35.2581C35.2954 11.9065 35.3354 11.9065 35.3781 11.9065C35.4261 11.9065 35.4688 11.9038 35.5061 11.8985C35.3514 11.7705 35.2261 11.6265 35.1301 11.4665C35.0394 11.3012 34.9941 11.1252 34.9941 10.9385V10.6985C34.9941 10.5172 35.0288 10.3465 35.0981 10.1865C35.1674 10.0265 35.2608 9.88783 35.3781 9.7705C35.5008 9.64783 35.6421 9.55183 35.8021 9.4825C35.9621 9.41317 36.1301 9.3785 36.3061 9.3785H36.4021C36.5834 9.3785 36.7514 9.41317 36.9061 9.4825C37.0661 9.55183 37.2048 9.64517 37.3221 9.7625C37.4394 9.87983 37.5328 10.0185 37.6021 10.1785C37.6714 10.3385 37.7061 10.5065 37.7061 10.6825V10.9385ZM36.0101 7.7545H36.6901V8.4345H36.0101V7.7545ZM40.2325 12.5625C40.0405 12.5625 39.8619 12.5198 39.6965 12.4345C39.5312 12.3438 39.3952 12.2105 39.2885 12.0345C39.1819 12.2105 39.0459 12.3438 38.8805 12.4345C38.7152 12.5198 38.5365 12.5625 38.3445 12.5625H38.1125C38.0379 12.5625 38.0005 12.5252 38.0005 12.4505V12.0185C38.0005 11.9865 38.0139 11.9598 38.0405 11.9385C38.0619 11.9172 38.0859 11.9065 38.1125 11.9065H38.4405C38.6005 11.9065 38.7365 11.8505 38.8485 11.7385C38.9605 11.6265 39.0165 11.4905 39.0165 11.3305V10.0825H39.5685V11.3385C39.5685 11.4985 39.6245 11.6345 39.7365 11.7465C39.8485 11.8532 39.9819 11.9065 40.1365 11.9065H40.2805C40.4352 11.9065 40.5712 11.8612 40.6885 11.7705C40.8059 11.6745 40.8779 11.5518 40.9045 11.4025L41.1605 10.1385L41.6965 10.2345L41.4885 11.2825C41.4565 11.4532 41.4965 11.5998 41.6085 11.7225C41.7259 11.8452 41.8699 11.9065 42.0405 11.9065H42.7285V9.8585H43.2805V11.8425C43.2805 12.0612 43.2139 12.2372 43.0805 12.3705C42.9472 12.4985 42.7739 12.5625 42.5605 12.5625H42.0325C41.8565 12.5625 41.6885 12.5172 41.5285 12.4265C41.3685 12.3358 41.2485 12.2052 41.1685 12.0345C41.0619 12.2158 40.9259 12.3492 40.7605 12.4345C40.5952 12.5198 40.4192 12.5625 40.2325 12.5625ZM45.3448 12.5625C45.1795 12.5625 45.0275 12.5278 44.8888 12.4585C44.7501 12.3892 44.6328 12.2958 44.5368 12.1785C44.4408 12.0612 44.3715 11.9278 44.3288 11.7785C44.2861 11.6238 44.2808 11.4665 44.3128 11.3065L44.4488 10.5785C44.4701 10.4558 44.5128 10.3438 44.5768 10.2425C44.6408 10.1358 44.7181 10.0452 44.8088 9.9705C44.8995 9.89583 45.0008 9.83717 45.1128 9.7945C45.2301 9.75183 45.3528 9.7305 45.4808 9.7305H45.9288C46.0835 9.7305 46.2275 9.75983 46.3608 9.8185C46.4995 9.87717 46.6195 9.95717 46.7208 10.0585C46.8221 10.1545 46.9021 10.2718 46.9608 10.4105C47.0195 10.5438 47.0488 10.6878 47.0488 10.8425V11.9065H47.6808C47.7128 11.9065 47.7395 11.9198 47.7608 11.9465C47.7821 11.9678 47.7928 11.9918 47.7928 12.0185V12.4505C47.7928 12.5252 47.7555 12.5625 47.6808 12.5625H47.0408V12.6585C47.0301 13.0212 46.9155 13.3465 46.6968 13.6345C46.4835 13.9278 46.2008 14.1358 45.8488 14.2585L44.9368 14.5705L44.7608 14.0185L45.7208 13.6985C45.9501 13.6185 46.1341 13.4825 46.2728 13.2905C46.4168 13.1038 46.4888 12.8878 46.4888 12.6425V12.4985C46.4461 12.5252 46.3955 12.5438 46.3368 12.5545C46.2835 12.5598 46.2275 12.5625 46.1688 12.5625H45.3448ZM45.2888 11.9065H46.4968V10.8425C46.4968 10.7038 46.4461 10.5865 46.3448 10.4905C46.2488 10.3892 46.1315 10.3385 45.9928 10.3385H45.4648C45.3421 10.3385 45.2355 10.3758 45.1448 10.4505C45.0541 10.5252 44.9955 10.6238 44.9688 10.7465L44.8488 11.3865C44.8221 11.5252 44.8541 11.6478 44.9448 11.7545C45.0355 11.8558 45.1501 11.9065 45.2888 11.9065ZM48.6509 11.9065C48.8109 11.9065 48.9469 11.8505 49.0589 11.7385C49.1709 11.6265 49.2269 11.4932 49.2269 11.3385V9.8665H49.7789V11.3385C49.7789 11.5092 49.7469 11.6692 49.6829 11.8185C49.6189 11.9678 49.5309 12.0985 49.4189 12.2105C49.3069 12.3172 49.1762 12.4025 49.0269 12.4665C48.8829 12.5305 48.7255 12.5625 48.5549 12.5625H47.6829C47.6082 12.5625 47.5709 12.5252 47.5709 12.4505V12.0265C47.5709 11.9945 47.5815 11.9678 47.6029 11.9465C47.6242 11.9198 47.6509 11.9065 47.6829 11.9065H48.6509ZM47.7149 14.2025H48.3949V13.5225H47.7149V14.2025ZM48.8109 14.2025H49.4909V13.5225H48.8109V14.2025ZM16.2048 22.3785C15.8741 22.4318 15.5995 22.4798 15.3808 22.5225C15.1675 22.5598 14.9755 22.5945 14.8048 22.6265C14.6341 22.6532 14.4635 22.6745 14.2928 22.6905C14.1275 22.7012 13.9248 22.7065 13.6848 22.7065C13.6635 22.7065 13.6341 22.7038 13.5968 22.6985C13.5595 22.6932 13.5168 22.6852 13.4688 22.6745C13.4261 22.6585 13.3835 22.6425 13.3408 22.6265C13.3035 22.6052 13.2741 22.5838 13.2528 22.5625V25.5625H11.9648V21.9065C11.9648 21.7678 11.9595 21.6292 11.9488 21.4905C11.9435 21.3518 11.9275 21.1972 11.9008 21.0265C11.8795 20.8558 11.8475 20.6612 11.8048 20.4425C11.7675 20.2238 11.7168 19.9652 11.6528 19.6665L12.9168 19.4425C12.9008 19.3732 12.9008 19.3838 12.9168 19.4745C12.9381 19.5652 12.9648 19.7012 12.9968 19.8825C13.0341 20.0585 13.0715 20.2638 13.1088 20.4985C13.1515 20.7332 13.1888 20.9598 13.2208 21.1785C13.2368 21.2425 13.2528 21.2852 13.2688 21.3065C13.2901 21.3278 13.3248 21.3385 13.3728 21.3385H13.6928C13.6875 21.3332 13.6688 21.3172 13.6368 21.2905C13.6048 21.2585 13.5835 21.2078 13.5728 21.1385C13.5675 21.0958 13.5595 21.0585 13.5488 21.0265C13.5435 20.9998 13.5381 20.9732 13.5328 20.9465C13.5328 20.9198 13.5301 20.9038 13.5248 20.8985C13.4768 20.6638 13.4768 20.4452 13.5248 20.2425C13.5728 20.0398 13.6581 19.8638 13.7808 19.7145C13.9035 19.5652 14.0608 19.4478 14.2528 19.3625C14.4448 19.2718 14.6635 19.2265 14.9088 19.2265H15.8128V20.5545H14.7248C14.6821 20.5545 14.6555 20.5678 14.6448 20.5945C14.6341 20.6158 14.6315 20.6372 14.6368 20.6585L14.7648 21.3065C14.9035 21.2958 15.0475 21.2852 15.1968 21.2745C15.3461 21.2585 15.4795 21.2452 15.5968 21.2345C15.7195 21.2238 15.8181 21.2158 15.8928 21.2105C15.9675 21.1998 16.0048 21.1945 16.0048 21.1945L16.2048 22.3785ZM18.4261 19.4425C18.4261 19.4425 18.4394 19.4985 18.4661 19.6105C18.4981 19.7225 18.5301 19.8638 18.5621 20.0345C18.5994 20.2052 18.6341 20.3918 18.6661 20.5945C18.6981 20.7972 18.7194 20.9892 18.7301 21.1705C18.7354 21.2292 18.7594 21.2718 18.8021 21.2985C18.8448 21.3252 18.8928 21.3385 18.9461 21.3385H19.7701V19.5145H21.0581V21.5225C21.0581 21.6772 21.0234 21.8265 20.9541 21.9705C20.8901 22.1145 20.8021 22.2425 20.6901 22.3545C20.5834 22.4612 20.4581 22.5465 20.3141 22.6105C20.1754 22.6745 20.0288 22.7065 19.8741 22.7065H19.1941C19.1034 22.7065 19.0101 22.6878 18.9141 22.6505C18.8234 22.6132 18.7728 22.5812 18.7621 22.5545V25.5545H17.4741V21.8985C17.4741 21.6638 17.4608 21.4318 17.4341 21.2025C17.4074 20.9678 17.3728 20.7358 17.3301 20.5065L17.1621 19.6665L18.4261 19.4425ZM23.5654 18.7465L24.3014 19.6905L23.1574 20.6585C23.1307 20.6745 23.112 20.7065 23.1014 20.7545C23.0907 20.7972 23.112 20.8398 23.1654 20.8825L24.0614 21.5545C24.296 21.2665 24.5547 20.9838 24.8374 20.7065L25.4854 20.0825L26.4054 20.8665L25.8054 21.4585C25.6347 21.6238 25.4747 21.8052 25.3254 22.0025C25.1814 22.1945 25.0427 22.3865 24.9094 22.5785L22.8214 25.5785L21.7174 24.9065L23.4294 22.4905C23.4187 22.5012 23.368 22.5038 23.2774 22.4985C23.192 22.4932 23.0934 22.4452 22.9814 22.3545L22.3494 21.8665C22.1574 21.7225 22.0187 21.5518 21.9334 21.3545C21.8534 21.1572 21.8187 20.9572 21.8294 20.7545C21.84 20.5465 21.8934 20.3492 21.9894 20.1625C22.0854 19.9705 22.216 19.8078 22.3814 19.6745L23.5654 18.7465ZM28.8232 18.7465L29.5592 19.6905L28.4152 20.6585C28.3885 20.6745 28.3698 20.7065 28.3592 20.7545C28.3485 20.7972 28.3698 20.8398 28.4232 20.8825L29.3192 21.5545C29.5538 21.2665 29.8125 20.9838 30.0952 20.7065L30.7432 20.0825L31.6632 20.8665L31.0632 21.4585C30.8925 21.6238 30.7325 21.8052 30.5832 22.0025C30.4392 22.1945 30.3005 22.3865 30.1672 22.5785L28.0792 25.5785L26.9752 24.9065L28.6872 22.4905C28.6765 22.5012 28.6258 22.5038 28.5352 22.4985C28.4498 22.4932 28.3512 22.4452 28.2392 22.3545L27.6072 21.8665C27.4152 21.7225 27.2765 21.5518 27.1912 21.3545C27.1112 21.1572 27.0765 20.9572 27.0872 20.7545C27.0978 20.5465 27.1512 20.3492 27.2472 20.1625C27.3432 19.9705 27.4738 19.8078 27.6392 19.6745L28.8232 18.7465ZM34.969 19.2905C35.0063 19.7598 35.073 20.2345 35.169 20.7145C35.2703 21.1892 35.3983 21.6585 35.553 22.1225C35.7077 22.5865 35.8917 23.0398 36.105 23.4825C36.3237 23.9198 36.5663 24.3332 36.833 24.7225L35.809 25.5705C35.7877 25.5278 35.737 25.4372 35.657 25.2985C35.577 25.1545 35.4837 24.9758 35.377 24.7625C35.2703 24.5492 35.1583 24.3118 35.041 24.0505C34.929 23.7892 34.825 23.5172 34.729 23.2345C34.633 22.9518 34.553 22.6692 34.489 22.3865C34.425 22.0985 34.393 21.8292 34.393 21.5785C34.393 21.8452 34.361 22.1252 34.297 22.4185C34.233 22.7065 34.153 22.9918 34.057 23.2745C33.961 23.5572 33.8543 23.8292 33.737 24.0905C33.625 24.3518 33.5157 24.5865 33.409 24.7945C33.3077 25.0025 33.217 25.1758 33.137 25.3145C33.057 25.4532 33.0037 25.5385 32.977 25.5705L31.953 24.7225C32.225 24.3332 32.465 23.9225 32.673 23.4905C32.881 23.0585 33.0597 22.6132 33.209 22.1545C33.3637 21.6958 33.4917 21.2265 33.593 20.7465C33.6943 20.2612 33.769 19.7758 33.817 19.2905H34.969ZM38.1952 21.8425H39.3952V23.0665H38.1952V21.8425ZM38.1952 24.3385H39.3952V25.5625H38.1952V24.3385ZM44.397 24.2025H44.621C44.6477 24.2025 44.6717 24.2158 44.693 24.2425C44.7197 24.2692 44.733 24.2985 44.733 24.3305V25.4505C44.733 25.4772 44.7224 25.5038 44.701 25.5305C44.6797 25.5518 44.653 25.5625 44.621 25.5625H44.501C44.2824 25.5625 44.0904 25.5198 43.925 25.4345C43.765 25.3492 43.629 25.2532 43.517 25.1465C43.3677 25.3012 43.205 25.4105 43.029 25.4745C42.853 25.5332 42.669 25.5625 42.477 25.5625H41.469C41.3037 25.5625 41.1464 25.5305 40.997 25.4665C40.8477 25.4025 40.717 25.3172 40.605 25.2105C40.493 25.0985 40.405 24.9678 40.341 24.8185C40.277 24.6692 40.245 24.5118 40.245 24.3465V23.1465H41.205V24.0745C41.205 24.1598 41.2504 24.2025 41.341 24.2025H42.493C42.605 24.2025 42.7037 24.1678 42.789 24.0985C42.8744 24.0238 42.901 23.9252 42.869 23.8025L42.189 21.3625L43.285 20.9625L44.141 24.0105C44.157 24.0692 44.189 24.1172 44.237 24.1545C44.285 24.1865 44.3384 24.2025 44.397 24.2025ZM45.7404 23.2745L44.9164 22.4825L47.4684 19.4825L48.3004 20.2505L46.8124 22.0105H49.7644C49.967 22.0105 50.1564 22.0505 50.3324 22.1305C50.5137 22.2052 50.671 22.3092 50.8044 22.4425C50.9377 22.5758 51.0417 22.7332 51.1164 22.9145C51.1964 23.0905 51.2364 23.2825 51.2364 23.4905V24.0825C51.2364 24.2958 51.1937 24.4932 51.1084 24.6745C51.023 24.8558 50.9084 25.0132 50.7644 25.1465C50.6257 25.2798 50.4657 25.3838 50.2844 25.4585C50.103 25.5278 49.9137 25.5625 49.7164 25.5625H44.6204C44.5937 25.5625 44.5697 25.5518 44.5484 25.5305C44.5217 25.5038 44.5084 25.4772 44.5084 25.4505V24.3145C44.5084 24.2878 44.519 24.2638 44.5404 24.2425C44.5617 24.2158 44.5884 24.2025 44.6204 24.2025H49.9404C49.967 24.2025 49.9964 24.1918 50.0284 24.1705C50.0657 24.1492 50.0844 24.1118 50.0844 24.0585V23.4585C50.0844 23.4052 50.0657 23.3625 50.0284 23.3305C49.991 23.2932 49.9484 23.2745 49.9004 23.2745H45.7404Z" fill="black"/>
</svg>
