<svg width="63" height="56" viewBox="0 0 63 56" fill="none" xmlns="http://www.w3.org/2000/svg">
<path d="M12.81 1H50.57C57.09 1 62.39 6.29 62.39 12.82V55.32H1V12.82C1 6.3 6.28999 1 12.82 1H12.81Z" fill="#19B5FF" stroke="white" stroke-width="0.52" stroke-miterlimit="10"/>
<path d="M50.85 32.6406H12.53C7.37997 32.6406 3.20996 36.8106 3.20996 41.9606C3.20996 47.1106 7.37997 51.2806 12.53 51.2806H50.85C56 51.2806 60.17 47.1106 60.17 41.9606C60.17 36.8106 56 32.6406 50.85 32.6406Z" fill="#222222"/>
<path d="M12.9602 49.9712C17.384 49.9712 20.9702 46.385 20.9702 41.9612C20.9702 37.5374 17.384 33.9512 12.9602 33.9512C8.53639 33.9512 4.9502 37.5374 4.9502 41.9612C4.9502 46.385 8.53639 49.9712 12.9602 49.9712Z" fill="white"/>
<path d="M23.1699 42.5706V40.6006H23.9099V42.4706C23.9099 42.5706 23.9299 42.6706 23.9599 42.7606C23.9999 42.8506 24.0499 42.9306 24.1199 43.0006C24.1899 43.0706 24.2699 43.1206 24.3599 43.1506C24.4499 43.1906 24.5499 43.2106 24.6499 43.2106H25.8599C26.0299 43.2106 26.1699 43.1506 26.2899 43.0306C26.4099 42.9106 26.4699 42.7706 26.4699 42.6006V40.4906H27.2099V41.7006C27.2099 41.7906 27.2399 41.8706 27.2999 41.9306C27.3599 41.9906 27.4399 42.0206 27.5299 42.0206H27.9499C27.9499 42.0206 27.9999 42.0306 28.0199 42.0506C28.0399 42.0706 28.0499 42.0906 28.0499 42.1206V42.8006C28.0499 42.8006 28.0499 42.8406 28.0199 42.8706C27.9999 42.8906 27.9799 42.9006 27.9499 42.9006H27.6499C27.4999 42.9006 27.3999 42.8706 27.3299 42.8206C27.2699 42.7706 27.2199 42.7206 27.1999 42.6906V42.8606C27.1999 43.0306 27.1599 43.1906 27.0899 43.3406C27.0199 43.4906 26.9199 43.6206 26.7899 43.7306C26.6699 43.8406 26.5299 43.9306 26.3699 43.9906C26.2099 44.0506 26.0399 44.0806 25.8599 44.0806H24.6899C24.4799 44.0806 24.2899 44.0406 24.0999 43.9606C23.9199 43.8806 23.7499 43.7806 23.6199 43.6406C23.4899 43.5106 23.3799 43.3506 23.2999 43.1606C23.2199 42.9806 23.1899 42.7806 23.1899 42.5706H23.1699ZM24.7999 39.7206H25.5699V40.4906H24.7999V39.7206ZM29.5899 42.0206C29.6799 42.0206 29.7599 41.9906 29.8199 41.9306C29.8799 41.8606 29.9099 41.7806 29.9099 41.6906V40.3006H30.6499V41.6906C30.6499 41.8606 30.6199 42.0106 30.5599 42.1606C30.4999 42.3006 30.4099 42.4306 30.2999 42.5406C30.1899 42.6506 30.0599 42.7306 29.9199 42.8006C29.7799 42.8606 29.6199 42.8906 29.4599 42.8906H28.0499C28.0499 42.8906 27.9999 42.8906 27.9799 42.8606C27.9599 42.8406 27.9499 42.8206 27.9499 42.7906V42.1106C27.9499 42.1106 27.9499 42.0606 27.9799 42.0406C27.9999 42.0206 28.0199 42.0106 28.0499 42.0106H29.5999L29.5899 42.0206ZM28.1399 44.4806H28.9099V43.7106H28.1399V44.4806ZM29.2599 44.4806H30.0299V43.7106H29.2599V44.4806ZM35.3799 42.8006C35.3799 42.8606 35.3499 42.8906 35.2899 42.8906H34.9899C34.8099 42.8906 34.6499 42.8606 34.5099 42.7906C34.3599 42.7206 34.2299 42.6206 34.1299 42.5106C33.9399 42.6906 33.7099 42.7906 33.4499 42.8306L31.5299 43.1006L31.4299 42.3106L32.1599 42.2206L31.8299 38.7106L32.5799 38.6206L32.8899 42.1306L33.3899 42.0606C33.5099 42.0506 33.6099 41.9906 33.6899 41.9106C33.7699 41.8206 33.8099 41.7106 33.8099 41.5906V38.3006H34.5499V41.7106C34.5499 41.8006 34.5799 41.8806 34.6399 41.9406C34.6999 42.0006 34.7799 42.0306 34.8699 42.0306H35.2899C35.3499 42.0306 35.3799 42.0606 35.3799 42.1206V42.8106V42.8006ZM36.5299 42.0206C36.6199 42.0206 36.6999 41.9906 36.7599 41.9306C36.8199 41.8606 36.8499 41.7806 36.8499 41.6906V40.3006H37.5899V41.6906C37.5899 41.8606 37.5599 42.0106 37.4999 42.1606C37.4399 42.3006 37.3499 42.4306 37.2399 42.5406C37.1299 42.6506 36.9999 42.7306 36.8599 42.8006C36.7199 42.8606 36.5599 42.8906 36.3999 42.8906H35.3999C35.3999 42.8906 35.3499 42.8906 35.3299 42.8606C35.3099 42.8406 35.2999 42.8206 35.2999 42.7906V42.1106C35.2999 42.1106 35.2999 42.0606 35.3299 42.0406C35.3499 42.0206 35.3699 42.0106 35.3999 42.0106H36.5399L36.5299 42.0206ZM36.8199 39.6806H37.5899V38.9106H36.8199V39.6806ZM39.2099 42.9006H38.4699V38.8106H39.2099V42.9006ZM37.5599 38.6406V38.2806C37.5599 38.0706 37.6299 37.9206 37.7599 37.8106C37.8899 37.7006 38.0399 37.6406 38.1999 37.6406H39.5899V38.2806H38.2799C38.2799 38.2806 38.1999 38.3006 38.1699 38.3306C38.1499 38.3606 38.1399 38.3906 38.1399 38.4206V38.6406H37.5699H37.5599ZM48.1499 41.7006C48.1499 41.7906 48.1799 41.8706 48.2399 41.9306C48.2999 41.9906 48.3799 42.0206 48.4699 42.0206H48.7499C48.8099 42.0206 48.8399 42.0506 48.8399 42.1106V42.8006C48.8399 42.8606 48.8099 42.8906 48.7499 42.8906H48.5899C48.4299 42.8906 48.2799 42.8606 48.1399 42.8006C47.9999 42.7406 47.8799 42.6406 47.7699 42.5006C47.6599 42.6406 47.5299 42.7406 47.3799 42.8106C47.2299 42.8706 47.0699 42.9006 46.9199 42.9006C46.5999 42.9006 46.3499 42.7706 46.1699 42.5006C46.0699 42.6406 45.9499 42.7506 45.8299 42.8106C45.7099 42.8706 45.5699 42.9006 45.4199 42.9006C45.3399 42.9006 45.2599 42.8906 45.1599 42.8706C45.0699 42.8406 44.9899 42.7806 44.9299 42.6906V42.8706C44.9299 43.0406 44.8899 43.2006 44.8199 43.3406C44.7499 43.4906 44.6499 43.6206 44.5199 43.7206C44.3899 43.8306 44.2499 43.9206 44.0799 43.9806C43.9199 44.0406 43.7499 44.0706 43.5699 44.0706H42.3999C42.1899 44.0706 41.9999 44.0306 41.8099 43.9506C41.6299 43.8706 41.4599 43.7706 41.3299 43.6306C41.1999 43.5006 41.0899 43.3406 41.0099 43.1506C40.9299 42.9706 40.8999 42.7706 40.8999 42.5606V40.5906H41.6399V42.4506C41.6399 42.5506 41.6599 42.6506 41.6899 42.7406C41.7299 42.8306 41.7799 42.9106 41.8499 42.9806C41.9199 43.0506 41.9999 43.1006 42.0899 43.1306C42.1799 43.1706 42.2799 43.1906 42.3799 43.1906H43.5899C43.7599 43.1906 43.8999 43.1306 44.0199 43.0106C44.1399 42.8906 44.1999 42.7506 44.1999 42.5806V40.4706H44.9399V41.7006C44.9399 41.7906 44.9699 41.8606 45.0299 41.9206C45.0999 41.9806 45.1699 42.0106 45.2599 42.0106H45.4599C45.5499 42.0106 45.6299 41.9806 45.6999 41.9306C45.7699 41.8806 45.8099 41.8006 45.8299 41.7106L46.0699 40.4906L46.7999 40.6206L46.5999 41.6406C46.5799 41.7406 46.5999 41.8306 46.6599 41.9006C46.7299 41.9706 46.8099 42.0106 46.8999 42.0106H47.0799C47.1699 42.0106 47.2499 41.9806 47.3099 41.9206C47.3699 41.8606 47.3999 41.7806 47.3999 41.6906V40.2806H48.1399V41.6806L48.1499 41.7006ZM47.0099 39.8906H46.2399V39.1206H47.0099V39.8906ZM45.8799 39.8906H45.1099V39.1206H45.8799V39.8906ZM46.4299 38.8706H45.6599V38.1006H46.4299V38.8706ZM49.8799 38.6006H50.6499V39.3706H49.8799V38.6006ZM48.8499 42.9006C48.7899 42.9006 48.7599 42.8706 48.7599 42.8106V42.1306C48.7599 42.1306 48.7699 42.0906 48.7899 42.0606C48.8099 42.0406 48.8299 42.0306 48.8499 42.0306H50.0599C50.2499 42.0306 50.4299 42.0006 50.6199 41.9406C50.7999 41.8806 50.9599 41.7806 51.0899 41.6406L51.4799 41.2206L51.5399 41.1606L51.5699 41.1306L50.1599 40.7106C50.1599 40.7106 50.0699 40.7106 50.0399 40.7206C50.0099 40.7406 49.9799 40.7706 49.9699 40.8106L49.7099 41.4806L49.0599 41.3006L49.2399 40.6806C49.2799 40.5406 49.3399 40.4206 49.4299 40.3206C49.5199 40.2206 49.6099 40.1406 49.7299 40.0906C49.8399 40.0306 49.9599 40.0006 50.0899 39.9906C50.2199 39.9806 50.3399 39.9906 50.4499 40.0206L53.1299 40.8206L52.9099 41.5106L52.5899 41.4206C52.5099 41.4006 52.4499 41.4006 52.3899 41.4106C52.3399 41.4106 52.2899 41.4406 52.2499 41.4606V41.6906C52.2499 41.7806 52.2799 41.8606 52.3399 41.9206C52.3999 41.9806 52.4799 42.0106 52.5699 42.0106H53.4699C53.5299 42.0106 53.5599 42.0406 53.5599 42.1006V42.7906C53.5599 42.8506 53.5299 42.8806 53.4699 42.8806H52.6999C52.4299 42.8806 52.1999 42.8006 52.0099 42.6506C51.8299 42.4906 51.6999 42.2906 51.6299 42.0506L51.3599 42.3206C51.1699 42.5106 50.9399 42.6506 50.6899 42.7406C50.4299 42.8306 50.1699 42.8706 49.8999 42.8706H48.8599L48.8499 42.9006ZM53.7299 43.7006H54.4999V44.4706H53.7299V43.7006ZM54.8599 43.7006H55.6299V44.4706H54.8599V43.7006ZM54.2899 44.7306H55.0599V45.5006H54.2899V44.7306ZM55.1099 42.0206C55.1999 42.0206 55.2799 41.9906 55.3399 41.9306C55.3999 41.8606 55.4299 41.7806 55.4299 41.6906V40.3006H56.1699V41.6906C56.1699 41.8606 56.1399 42.0106 56.0799 42.1606C56.0199 42.3006 55.9299 42.4306 55.8199 42.5406C55.7099 42.6506 55.5799 42.7306 55.4399 42.8006C55.2999 42.8606 55.1399 42.8906 54.9799 42.8906H53.5699C53.5699 42.8906 53.5199 42.8906 53.4999 42.8606C53.4799 42.8406 53.4699 42.8206 53.4699 42.7906V42.1106C53.4699 42.1106 53.4699 42.0606 53.4999 42.0406C53.5199 42.0206 53.5399 42.0106 53.5699 42.0106H55.1199L55.1099 42.0206Z" fill="white"/>
<path d="M10.8398 37.1797C11.4298 37.1797 11.8998 37.6597 11.8998 38.2397V45.6697C11.8998 46.2597 11.4198 46.7297 10.8398 46.7297C10.2498 46.7297 9.77979 46.2497 9.77979 45.6697V38.2397C9.77979 37.6497 10.2598 37.1797 10.8398 37.1797Z" fill="#222222"/>
<path d="M15.0898 37.1797C15.6798 37.1797 16.1498 37.6597 16.1498 38.2397V45.6697C16.1498 46.2597 15.6698 46.7297 15.0898 46.7297C14.4998 46.7297 14.0298 46.2497 14.0298 45.6697V38.2397C14.0298 37.6497 14.5098 37.1797 15.0898 37.1797Z" fill="#222222"/>
<path d="M16.6115 13.7865C16.7288 13.7865 16.8381 13.7625 16.9395 13.7145C17.0461 13.6718 17.1395 13.6105 17.2195 13.5305C17.2995 13.4558 17.3608 13.3652 17.4035 13.2585C17.4515 13.1572 17.4755 13.0478 17.4755 12.9305V12.5625H15.9795V11.9065H18.9075C18.9341 11.9065 18.9581 11.9172 18.9795 11.9385C19.0061 11.9598 19.0195 11.9865 19.0195 12.0185V12.4425C19.0195 12.4745 19.0061 12.5038 18.9795 12.5305C18.9581 12.5518 18.9341 12.5625 18.9075 12.5625H17.9875C18.0088 12.6158 18.0195 12.6745 18.0195 12.7385V13.0185C18.0195 13.2158 17.9821 13.3998 17.9075 13.5705C17.8328 13.7465 17.7288 13.8985 17.5955 14.0265C17.4675 14.1545 17.3155 14.2558 17.1395 14.3305C16.9688 14.4052 16.7848 14.4425 16.5875 14.4425H15.2115C14.9928 14.4425 14.7848 14.3998 14.5875 14.3145C14.3955 14.2292 14.2275 14.1145 14.0835 13.9705C13.9395 13.8265 13.8248 13.6558 13.7395 13.4585C13.6541 13.2665 13.6115 13.0612 13.6115 12.8425V10.9225H14.1635V12.7465C14.1635 12.8905 14.1901 13.0238 14.2435 13.1465C14.3021 13.2745 14.3768 13.3865 14.4675 13.4825C14.5635 13.5785 14.6728 13.6532 14.7955 13.7065C14.9235 13.7598 15.0595 13.7865 15.2035 13.7865H16.6115ZM19.8779 11.9065C20.0379 11.9065 20.1739 11.8505 20.2859 11.7385C20.3979 11.6265 20.4539 11.4932 20.4539 11.3385V9.8665H21.0059V11.3385C21.0059 11.5092 20.9739 11.6692 20.9099 11.8185C20.8459 11.9678 20.7579 12.0985 20.6459 12.2105C20.5339 12.3172 20.4032 12.4025 20.2539 12.4665C20.1099 12.5305 19.9526 12.5625 19.7819 12.5625H18.9099C18.8352 12.5625 18.7979 12.5252 18.7979 12.4505V12.0265C18.7979 11.9945 18.8086 11.9678 18.8299 11.9465C18.8512 11.9198 18.8779 11.9065 18.9099 11.9065H19.8779ZM20.3659 8.9145H21.0459V8.2345H20.3659V8.9145ZM23.7669 12.4505C23.7669 12.5252 23.7296 12.5625 23.6549 12.5625H23.3589C23.1936 12.5625 23.0362 12.5305 22.8869 12.4665C22.7376 12.4025 22.6069 12.3145 22.4949 12.2025C22.3829 12.0905 22.2949 11.9598 22.2309 11.8105C22.1669 11.6612 22.1349 11.5038 22.1349 11.3385V7.2905H22.6869V11.3305C22.6869 11.4905 22.7429 11.6265 22.8549 11.7385C22.9722 11.8505 23.1082 11.9065 23.2629 11.9065H23.6549C23.6869 11.9065 23.7136 11.9198 23.7349 11.9465C23.7562 11.9678 23.7669 11.9945 23.7669 12.0265V12.4505ZM25.5241 11.9065H26.7401V10.8345C26.7401 10.6958 26.6894 10.5785 26.5881 10.4825C26.4921 10.3812 26.3721 10.3305 26.2281 10.3305H25.7081C25.5854 10.3305 25.4788 10.3705 25.3881 10.4505C25.2974 10.5252 25.2388 10.6212 25.2121 10.7385L25.0921 11.3865C25.0654 11.5252 25.0948 11.6478 25.1801 11.7545C25.2708 11.8558 25.3854 11.9065 25.5241 11.9065ZM24.5241 11.4025L24.6921 10.5785C24.7134 10.4558 24.7561 10.3412 24.8201 10.2345C24.8841 10.1278 24.9614 10.0372 25.0521 9.9625C25.1428 9.88783 25.2441 9.82917 25.3561 9.7865C25.4734 9.74383 25.5961 9.7225 25.7241 9.7225H26.1721C26.3268 9.7225 26.4708 9.75183 26.6041 9.8105C26.7428 9.86917 26.8628 9.94917 26.9641 10.0505C27.0654 10.1518 27.1454 10.2692 27.2041 10.4025C27.2628 10.5358 27.2921 10.6798 27.2921 10.8345V11.8425C27.2921 12.0558 27.2254 12.2292 27.0921 12.3625C26.9641 12.4958 26.7881 12.5625 26.5641 12.5625H25.5881C25.4174 12.5625 25.2601 12.5225 25.1161 12.4425C24.9774 12.3572 24.8628 12.2212 24.7721 12.0345C24.6761 12.2212 24.5481 12.3572 24.3881 12.4425C24.2281 12.5225 24.0601 12.5625 23.8841 12.5625H23.6521C23.5774 12.5625 23.5401 12.5252 23.5401 12.4505V12.0185C23.5401 11.9918 23.5508 11.9678 23.5721 11.9465C23.5934 11.9198 23.6201 11.9065 23.6521 11.9065H23.9081C24.0628 11.9065 24.1961 11.8585 24.3081 11.7625C24.4254 11.6665 24.4974 11.5465 24.5241 11.4025ZM26.9065 14.5545L26.7305 14.0105L27.6985 13.6905C27.9279 13.6158 28.1119 13.4798 28.2505 13.2825C28.3945 13.0852 28.4665 12.8665 28.4665 12.6265V10.0985H29.0185V12.5785C29.0185 12.7652 28.9892 12.9465 28.9305 13.1225C28.8719 13.2985 28.7892 13.4585 28.6825 13.6025C28.5812 13.7465 28.4559 13.8745 28.3065 13.9865C28.1625 14.0985 28.0025 14.1838 27.8265 14.2425L26.9065 14.5545ZM28.3945 8.4745H29.0745V9.1545H28.3945V8.4745ZM36.3466 11.8265C36.4639 11.7732 36.5706 11.7145 36.6666 11.6505C36.7679 11.5812 36.8533 11.5118 36.9226 11.4425C36.9973 11.3678 37.0559 11.2932 37.0986 11.2185C37.1413 11.1438 37.1626 11.0718 37.1626 11.0025V10.7385C37.1626 10.6318 37.1413 10.5332 37.0986 10.4425C37.0613 10.3518 37.0079 10.2745 36.9386 10.2105C36.8746 10.1412 36.7946 10.0878 36.6986 10.0505C36.6079 10.0078 36.5093 9.9865 36.4026 9.9865H36.2986C36.1973 9.9865 36.0986 10.0078 36.0026 10.0505C35.9119 10.0878 35.8319 10.1412 35.7626 10.2105C35.6986 10.2745 35.6453 10.3518 35.6026 10.4425C35.5653 10.5332 35.5466 10.6292 35.5466 10.7305V11.0025C35.5466 11.1518 35.6239 11.2985 35.7786 11.4425C35.9333 11.5865 36.1226 11.7145 36.3466 11.8265ZM37.7066 10.9385C37.7066 11.1252 37.6586 11.3012 37.5626 11.4665C37.4719 11.6265 37.3493 11.7705 37.1946 11.8985C37.2319 11.9038 37.2746 11.9065 37.3226 11.9065C37.3706 11.9065 37.4106 11.9065 37.4426 11.9065H38.1146C38.1466 11.9065 38.1733 11.9198 38.1946 11.9465C38.2159 11.9678 38.2266 11.9918 38.2266 12.0185V12.4505C38.2266 12.5252 38.1893 12.5625 38.1146 12.5625H37.4346C37.2533 12.5625 37.0826 12.5492 36.9226 12.5225C36.7626 12.4905 36.5706 12.4292 36.3466 12.3385C36.2346 12.3865 36.1333 12.4265 36.0426 12.4585C35.9519 12.4852 35.8639 12.5065 35.7786 12.5225C35.6933 12.5385 35.6079 12.5492 35.5226 12.5545C35.4426 12.5598 35.3573 12.5625 35.2666 12.5625H32.7706C32.5573 12.5625 32.3599 12.5252 32.1786 12.4505C32.0026 12.3758 31.8506 12.2718 31.7226 12.1385C31.5946 12.0052 31.4933 11.8505 31.4186 11.6745C31.3493 11.4985 31.3146 11.3092 31.3146 11.1065V9.8585H31.8666V11.0825C31.8666 11.3225 31.9413 11.5198 32.0906 11.6745C32.2453 11.8292 32.4453 11.9065 32.6906 11.9065H35.2586C35.2959 11.9065 35.3359 11.9065 35.3786 11.9065C35.4266 11.9065 35.4693 11.9038 35.5066 11.8985C35.3519 11.7705 35.2266 11.6265 35.1306 11.4665C35.0399 11.3012 34.9946 11.1252 34.9946 10.9385V10.6985C34.9946 10.5172 35.0293 10.3465 35.0986 10.1865C35.1679 10.0265 35.2613 9.88783 35.3786 9.7705C35.5013 9.64783 35.6426 9.55183 35.8026 9.4825C35.9626 9.41317 36.1306 9.3785 36.3066 9.3785H36.4026C36.5839 9.3785 36.7519 9.41317 36.9066 9.4825C37.0666 9.55183 37.2053 9.64517 37.3226 9.7625C37.4399 9.87983 37.5333 10.0185 37.6026 10.1785C37.6719 10.3385 37.7066 10.5065 37.7066 10.6825V10.9385ZM36.0106 7.7545H36.6906V8.4345H36.0106V7.7545ZM40.233 12.5625C40.041 12.5625 39.8624 12.5198 39.697 12.4345C39.5317 12.3438 39.3957 12.2105 39.289 12.0345C39.1824 12.2105 39.0464 12.3438 38.881 12.4345C38.7157 12.5198 38.537 12.5625 38.345 12.5625H38.113C38.0384 12.5625 38.001 12.5252 38.001 12.4505V12.0185C38.001 11.9865 38.0144 11.9598 38.041 11.9385C38.0624 11.9172 38.0864 11.9065 38.113 11.9065H38.441C38.601 11.9065 38.737 11.8505 38.849 11.7385C38.961 11.6265 39.017 11.4905 39.017 11.3305V10.0825H39.569V11.3385C39.569 11.4985 39.625 11.6345 39.737 11.7465C39.849 11.8532 39.9824 11.9065 40.137 11.9065H40.281C40.4357 11.9065 40.5717 11.8612 40.689 11.7705C40.8064 11.6745 40.8784 11.5518 40.905 11.4025L41.161 10.1385L41.697 10.2345L41.489 11.2825C41.457 11.4532 41.497 11.5998 41.609 11.7225C41.7264 11.8452 41.8704 11.9065 42.041 11.9065H42.729V9.8585H43.281V11.8425C43.281 12.0612 43.2144 12.2372 43.081 12.3705C42.9477 12.4985 42.7744 12.5625 42.561 12.5625H42.033C41.857 12.5625 41.689 12.5172 41.529 12.4265C41.369 12.3358 41.249 12.2052 41.169 12.0345C41.0624 12.2158 40.9264 12.3492 40.761 12.4345C40.5957 12.5198 40.4197 12.5625 40.233 12.5625ZM45.3453 12.5625C45.18 12.5625 45.028 12.5278 44.8893 12.4585C44.7506 12.3892 44.6333 12.2958 44.5373 12.1785C44.4413 12.0612 44.372 11.9278 44.3293 11.7785C44.2866 11.6238 44.2813 11.4665 44.3133 11.3065L44.4493 10.5785C44.4706 10.4558 44.5133 10.3438 44.5773 10.2425C44.6413 10.1358 44.7186 10.0452 44.8093 9.9705C44.9 9.89583 45.0013 9.83717 45.1133 9.7945C45.2306 9.75183 45.3533 9.7305 45.4813 9.7305H45.9293C46.084 9.7305 46.228 9.75983 46.3613 9.8185C46.5 9.87717 46.62 9.95717 46.7213 10.0585C46.8226 10.1545 46.9026 10.2718 46.9613 10.4105C47.02 10.5438 47.0493 10.6878 47.0493 10.8425V11.9065H47.6813C47.7133 11.9065 47.74 11.9198 47.7613 11.9465C47.7826 11.9678 47.7933 11.9918 47.7933 12.0185V12.4505C47.7933 12.5252 47.756 12.5625 47.6813 12.5625H47.0413V12.6585C47.0306 13.0212 46.916 13.3465 46.6973 13.6345C46.484 13.9278 46.2013 14.1358 45.8493 14.2585L44.9373 14.5705L44.7613 14.0185L45.7213 13.6985C45.9506 13.6185 46.1346 13.4825 46.2733 13.2905C46.4173 13.1038 46.4893 12.8878 46.4893 12.6425V12.4985C46.4466 12.5252 46.396 12.5438 46.3373 12.5545C46.284 12.5598 46.228 12.5625 46.1693 12.5625H45.3453ZM45.2893 11.9065H46.4973V10.8425C46.4973 10.7038 46.4466 10.5865 46.3453 10.4905C46.2493 10.3892 46.132 10.3385 45.9933 10.3385H45.4653C45.3426 10.3385 45.236 10.3758 45.1453 10.4505C45.0546 10.5252 44.996 10.6238 44.9693 10.7465L44.8493 11.3865C44.8226 11.5252 44.8546 11.6478 44.9453 11.7545C45.036 11.8558 45.1506 11.9065 45.2893 11.9065ZM48.6513 11.9065C48.8113 11.9065 48.9473 11.8505 49.0593 11.7385C49.1713 11.6265 49.2273 11.4932 49.2273 11.3385V9.8665H49.7793V11.3385C49.7793 11.5092 49.7473 11.6692 49.6833 11.8185C49.6193 11.9678 49.5313 12.0985 49.4193 12.2105C49.3073 12.3172 49.1767 12.4025 49.0273 12.4665C48.8833 12.5305 48.726 12.5625 48.5553 12.5625H47.6833C47.6087 12.5625 47.5713 12.5252 47.5713 12.4505V12.0265C47.5713 11.9945 47.582 11.9678 47.6033 11.9465C47.6247 11.9198 47.6513 11.9065 47.6833 11.9065H48.6513ZM47.7153 14.2025H48.3953V13.5225H47.7153V14.2025ZM48.8113 14.2025H49.4913V13.5225H48.8113V14.2025ZM16.2053 22.3785C15.8746 22.4318 15.6 22.4798 15.3813 22.5225C15.168 22.5598 14.976 22.5945 14.8053 22.6265C14.6346 22.6532 14.464 22.6745 14.2933 22.6905C14.128 22.7012 13.9253 22.7065 13.6853 22.7065C13.664 22.7065 13.6346 22.7038 13.5973 22.6985C13.56 22.6932 13.5173 22.6852 13.4693 22.6745C13.4266 22.6585 13.384 22.6425 13.3413 22.6265C13.304 22.6052 13.2746 22.5838 13.2533 22.5625V25.5625H11.9653V21.9065C11.9653 21.7678 11.96 21.6292 11.9493 21.4905C11.944 21.3518 11.928 21.1972 11.9013 21.0265C11.88 20.8558 11.848 20.6612 11.8053 20.4425C11.768 20.2238 11.7173 19.9652 11.6533 19.6665L12.9173 19.4425C12.9013 19.3732 12.9013 19.3838 12.9173 19.4745C12.9386 19.5652 12.9653 19.7012 12.9973 19.8825C13.0346 20.0585 13.072 20.2638 13.1093 20.4985C13.152 20.7332 13.1893 20.9598 13.2213 21.1785C13.2373 21.2425 13.2533 21.2852 13.2693 21.3065C13.2906 21.3278 13.3253 21.3385 13.3733 21.3385H13.6933C13.688 21.3332 13.6693 21.3172 13.6373 21.2905C13.6053 21.2585 13.584 21.2078 13.5733 21.1385C13.568 21.0958 13.56 21.0585 13.5493 21.0265C13.544 20.9998 13.5386 20.9732 13.5333 20.9465C13.5333 20.9198 13.5306 20.9038 13.5253 20.8985C13.4773 20.6638 13.4773 20.4452 13.5253 20.2425C13.5733 20.0398 13.6586 19.8638 13.7813 19.7145C13.904 19.5652 14.0613 19.4478 14.2533 19.3625C14.4453 19.2718 14.664 19.2265 14.9093 19.2265H15.8133V20.5545H14.7253C14.6826 20.5545 14.656 20.5678 14.6453 20.5945C14.6346 20.6158 14.632 20.6372 14.6373 20.6585L14.7653 21.3065C14.904 21.2958 15.048 21.2852 15.1973 21.2745C15.3466 21.2585 15.48 21.2452 15.5973 21.2345C15.72 21.2238 15.8186 21.2158 15.8933 21.2105C15.968 21.1998 16.0053 21.1945 16.0053 21.1945L16.2053 22.3785ZM18.4266 19.4425C18.4266 19.4425 18.4399 19.4985 18.4666 19.6105C18.4986 19.7225 18.5306 19.8638 18.5626 20.0345C18.5999 20.2052 18.6346 20.3918 18.6666 20.5945C18.6986 20.7972 18.7199 20.9892 18.7306 21.1705C18.7359 21.2292 18.7599 21.2718 18.8026 21.2985C18.8453 21.3252 18.8933 21.3385 18.9466 21.3385H19.7706V19.5145H21.0586V21.5225C21.0586 21.6772 21.0239 21.8265 20.9546 21.9705C20.8906 22.1145 20.8026 22.2425 20.6906 22.3545C20.5839 22.4612 20.4586 22.5465 20.3146 22.6105C20.1759 22.6745 20.0293 22.7065 19.8746 22.7065H19.1946C19.1039 22.7065 19.0106 22.6878 18.9146 22.6505C18.8239 22.6132 18.7733 22.5812 18.7626 22.5545V25.5545H17.4746V21.8985C17.4746 21.6638 17.4613 21.4318 17.4346 21.2025C17.4079 20.9678 17.3733 20.7358 17.3306 20.5065L17.1626 19.6665L18.4266 19.4425ZM23.5658 18.7465L24.3018 19.6905L23.1578 20.6585C23.1312 20.6745 23.1125 20.7065 23.1018 20.7545C23.0912 20.7972 23.1125 20.8398 23.1658 20.8825L24.0618 21.5545C24.2965 21.2665 24.5552 20.9838 24.8378 20.7065L25.4858 20.0825L26.4058 20.8665L25.8059 21.4585C25.6352 21.6238 25.4752 21.8052 25.3259 22.0025C25.1818 22.1945 25.0432 22.3865 24.9098 22.5785L22.8218 25.5785L21.7178 24.9065L23.4298 22.4905C23.4192 22.5012 23.3685 22.5038 23.2778 22.4985C23.1925 22.4932 23.0938 22.4452 22.9818 22.3545L22.3498 21.8665C22.1578 21.7225 22.0192 21.5518 21.9338 21.3545C21.8538 21.1572 21.8192 20.9572 21.8298 20.7545C21.8405 20.5465 21.8938 20.3492 21.9898 20.1625C22.0858 19.9705 22.2165 19.8078 22.3818 19.6745L23.5658 18.7465ZM28.8237 18.7465L29.5597 19.6905L28.4157 20.6585C28.389 20.6745 28.3703 20.7065 28.3597 20.7545C28.349 20.7972 28.3703 20.8398 28.4237 20.8825L29.3197 21.5545C29.5543 21.2665 29.813 20.9838 30.0957 20.7065L30.7437 20.0825L31.6637 20.8665L31.0637 21.4585C30.893 21.6238 30.733 21.8052 30.5837 22.0025C30.4397 22.1945 30.301 22.3865 30.1677 22.5785L28.0797 25.5785L26.9757 24.9065L28.6877 22.4905C28.677 22.5012 28.6263 22.5038 28.5357 22.4985C28.4503 22.4932 28.3517 22.4452 28.2397 22.3545L27.6077 21.8665C27.4157 21.7225 27.277 21.5518 27.1917 21.3545C27.1117 21.1572 27.077 20.9572 27.0877 20.7545C27.0983 20.5465 27.1517 20.3492 27.2477 20.1625C27.3437 19.9705 27.4743 19.8078 27.6397 19.6745L28.8237 18.7465ZM34.9695 19.2905C35.0068 19.7598 35.0735 20.2345 35.1695 20.7145C35.2708 21.1892 35.3988 21.6585 35.5535 22.1225C35.7081 22.5865 35.8921 23.0398 36.1055 23.4825C36.3241 23.9198 36.5668 24.3332 36.8335 24.7225L35.8095 25.5705C35.7881 25.5278 35.7375 25.4372 35.6575 25.2985C35.5775 25.1545 35.4841 24.9758 35.3775 24.7625C35.2708 24.5492 35.1588 24.3118 35.0415 24.0505C34.9295 23.7892 34.8255 23.5172 34.7295 23.2345C34.6335 22.9518 34.5535 22.6692 34.4895 22.3865C34.4255 22.0985 34.3935 21.8292 34.3935 21.5785C34.3935 21.8452 34.3615 22.1252 34.2975 22.4185C34.2335 22.7065 34.1535 22.9918 34.0575 23.2745C33.9615 23.5572 33.8548 23.8292 33.7375 24.0905C33.6255 24.3518 33.5161 24.5865 33.4095 24.7945C33.3081 25.0025 33.2175 25.1758 33.1375 25.3145C33.0575 25.4532 33.0041 25.5385 32.9775 25.5705L31.9535 24.7225C32.2255 24.3332 32.4655 23.9225 32.6735 23.4905C32.8815 23.0585 33.0601 22.6132 33.2095 22.1545C33.3641 21.6958 33.4921 21.2265 33.5935 20.7465C33.6948 20.2612 33.7695 19.7758 33.8175 19.2905H34.9695ZM38.1957 21.8425H39.3957V23.0665H38.1957V21.8425ZM38.1957 24.3385H39.3957V25.5625H38.1957V24.3385ZM44.3975 24.2025H44.6215C44.6482 24.2025 44.6722 24.2158 44.6935 24.2425C44.7202 24.2692 44.7335 24.2985 44.7335 24.3305V25.4505C44.7335 25.4772 44.7229 25.5038 44.7015 25.5305C44.6802 25.5518 44.6535 25.5625 44.6215 25.5625H44.5015C44.2829 25.5625 44.0909 25.5198 43.9255 25.4345C43.7655 25.3492 43.6295 25.2532 43.5175 25.1465C43.3682 25.3012 43.2055 25.4105 43.0295 25.4745C42.8535 25.5332 42.6695 25.5625 42.4775 25.5625H41.4695C41.3042 25.5625 41.1469 25.5305 40.9975 25.4665C40.8482 25.4025 40.7175 25.3172 40.6055 25.2105C40.4935 25.0985 40.4055 24.9678 40.3415 24.8185C40.2775 24.6692 40.2455 24.5118 40.2455 24.3465V23.1465H41.2055V24.0745C41.2055 24.1598 41.2509 24.2025 41.3415 24.2025H42.4935C42.6055 24.2025 42.7042 24.1678 42.7895 24.0985C42.8749 24.0238 42.9015 23.9252 42.8695 23.8025L42.1895 21.3625L43.2855 20.9625L44.1415 24.0105C44.1575 24.0692 44.1895 24.1172 44.2375 24.1545C44.2855 24.1865 44.3389 24.2025 44.3975 24.2025ZM45.7408 23.2745L44.9168 22.4825L47.4688 19.4825L48.3008 20.2505L46.8128 22.0105H49.7648C49.9675 22.0105 50.1569 22.0505 50.3328 22.1305C50.5142 22.2052 50.6715 22.3092 50.8049 22.4425C50.9382 22.5758 51.0422 22.7332 51.1168 22.9145C51.1968 23.0905 51.2368 23.2825 51.2368 23.4905V24.0825C51.2368 24.2958 51.1942 24.4932 51.1089 24.6745C51.0235 24.8558 50.9088 25.0132 50.7648 25.1465C50.6262 25.2798 50.4662 25.3838 50.2848 25.4585C50.1035 25.5278 49.9142 25.5625 49.7168 25.5625H44.6208C44.5942 25.5625 44.5702 25.5518 44.5488 25.5305C44.5222 25.5038 44.5088 25.4772 44.5088 25.4505V24.3145C44.5088 24.2878 44.5195 24.2638 44.5408 24.2425C44.5622 24.2158 44.5888 24.2025 44.6208 24.2025H49.9408C49.9675 24.2025 49.9968 24.1918 50.0289 24.1705C50.0662 24.1492 50.0848 24.1118 50.0848 24.0585V23.4585C50.0848 23.4052 50.0662 23.3625 50.0289 23.3305C49.9915 23.2932 49.9488 23.2745 49.9008 23.2745H45.7408Z" fill="black"/>
</svg>
