<svg width="63" height="56" viewBox="0 0 63 56" fill="none" xmlns="http://www.w3.org/2000/svg">
<path d="M12.81 1H50.57C57.09 1 62.39 6.29 62.39 12.82V55.32H1V12.82C1 6.3 6.28999 1 12.82 1H12.81Z" fill="#19B5FF" stroke="white" stroke-width="0.52" stroke-miterlimit="10"/>
<path d="M50.85 32.6406H12.53C7.37997 32.6406 3.20996 36.8106 3.20996 41.9606C3.20996 47.1106 7.37997 51.2806 12.53 51.2806H50.85C56 51.2806 60.17 47.1106 60.17 41.9606C60.17 36.8106 56 32.6406 50.85 32.6406Z" fill="#222222"/>
<path d="M12.9602 49.9712C17.384 49.9712 20.9702 46.385 20.9702 41.9612C20.9702 37.5374 17.384 33.9512 12.9602 33.9512C8.53639 33.9512 4.9502 37.5374 4.9502 41.9612C4.9502 46.385 8.53639 49.9712 12.9602 49.9712Z" fill="white"/>
<path d="M23.1699 42.5706V40.6006H23.9099V42.4706C23.9099 42.5706 23.9299 42.6706 23.9599 42.7606C23.9999 42.8506 24.0499 42.9306 24.1199 43.0006C24.1899 43.0706 24.2699 43.1206 24.3599 43.1506C24.4499 43.1906 24.5499 43.2106 24.6499 43.2106H25.8599C26.0299 43.2106 26.1699 43.1506 26.2899 43.0306C26.4099 42.9106 26.4699 42.7706 26.4699 42.6006V40.4906H27.2099V41.7006C27.2099 41.7906 27.2399 41.8706 27.2999 41.9306C27.3599 41.9906 27.4399 42.0206 27.5299 42.0206H27.9499C27.9499 42.0206 27.9999 42.0306 28.0199 42.0506C28.0399 42.0706 28.0499 42.0906 28.0499 42.1206V42.8006C28.0499 42.8006 28.0499 42.8406 28.0199 42.8706C27.9999 42.8906 27.9799 42.9006 27.9499 42.9006H27.6499C27.4999 42.9006 27.3999 42.8706 27.3299 42.8206C27.2699 42.7706 27.2199 42.7206 27.1999 42.6906V42.8606C27.1999 43.0306 27.1599 43.1906 27.0899 43.3406C27.0199 43.4906 26.9199 43.6206 26.7899 43.7306C26.6699 43.8406 26.5299 43.9306 26.3699 43.9906C26.2099 44.0506 26.0399 44.0806 25.8599 44.0806H24.6899C24.4799 44.0806 24.2899 44.0406 24.0999 43.9606C23.9199 43.8806 23.7499 43.7806 23.6199 43.6406C23.4899 43.5106 23.3799 43.3506 23.2999 43.1606C23.2199 42.9806 23.1899 42.7806 23.1899 42.5706H23.1699ZM24.7999 39.7206H25.5699V40.4906H24.7999V39.7206ZM29.5899 42.0206C29.6799 42.0206 29.7599 41.9906 29.8199 41.9306C29.8799 41.8606 29.9099 41.7806 29.9099 41.6906V40.3006H30.6499V41.6906C30.6499 41.8606 30.6199 42.0106 30.5599 42.1606C30.4999 42.3006 30.4099 42.4306 30.2999 42.5406C30.1899 42.6506 30.0599 42.7306 29.9199 42.8006C29.7799 42.8606 29.6199 42.8906 29.4599 42.8906H28.0499C28.0499 42.8906 27.9999 42.8906 27.9799 42.8606C27.9599 42.8406 27.9499 42.8206 27.9499 42.7906V42.1106C27.9499 42.1106 27.9499 42.0606 27.9799 42.0406C27.9999 42.0206 28.0199 42.0106 28.0499 42.0106H29.5999L29.5899 42.0206ZM28.1399 44.4806H28.9099V43.7106H28.1399V44.4806ZM29.2599 44.4806H30.0299V43.7106H29.2599V44.4806ZM35.3799 42.8006C35.3799 42.8606 35.3499 42.8906 35.2899 42.8906H34.9899C34.8099 42.8906 34.6499 42.8606 34.5099 42.7906C34.3599 42.7206 34.2299 42.6206 34.1299 42.5106C33.9399 42.6906 33.7099 42.7906 33.4499 42.8306L31.5299 43.1006L31.4299 42.3106L32.1599 42.2206L31.8299 38.7106L32.5799 38.6206L32.8899 42.1306L33.3899 42.0606C33.5099 42.0506 33.6099 41.9906 33.6899 41.9106C33.7699 41.8206 33.8099 41.7106 33.8099 41.5906V38.3006H34.5499V41.7106C34.5499 41.8006 34.5799 41.8806 34.6399 41.9406C34.6999 42.0006 34.7799 42.0306 34.8699 42.0306H35.2899C35.3499 42.0306 35.3799 42.0606 35.3799 42.1206V42.8106V42.8006ZM36.5299 42.0206C36.6199 42.0206 36.6999 41.9906 36.7599 41.9306C36.8199 41.8606 36.8499 41.7806 36.8499 41.6906V40.3006H37.5899V41.6906C37.5899 41.8606 37.5599 42.0106 37.4999 42.1606C37.4399 42.3006 37.3499 42.4306 37.2399 42.5406C37.1299 42.6506 36.9999 42.7306 36.8599 42.8006C36.7199 42.8606 36.5599 42.8906 36.3999 42.8906H35.3999C35.3999 42.8906 35.3499 42.8906 35.3299 42.8606C35.3099 42.8406 35.2999 42.8206 35.2999 42.7906V42.1106C35.2999 42.1106 35.2999 42.0606 35.3299 42.0406C35.3499 42.0206 35.3699 42.0106 35.3999 42.0106H36.5399L36.5299 42.0206ZM36.8199 39.6806H37.5899V38.9106H36.8199V39.6806ZM39.2099 42.9006H38.4699V38.8106H39.2099V42.9006ZM37.5599 38.6406V38.2806C37.5599 38.0706 37.6299 37.9206 37.7599 37.8106C37.8899 37.7006 38.0399 37.6406 38.1999 37.6406H39.5899V38.2806H38.2799C38.2799 38.2806 38.1999 38.3006 38.1699 38.3306C38.1499 38.3606 38.1399 38.3906 38.1399 38.4206V38.6406H37.5699H37.5599ZM48.1499 41.7006C48.1499 41.7906 48.1799 41.8706 48.2399 41.9306C48.2999 41.9906 48.3799 42.0206 48.4699 42.0206H48.7499C48.8099 42.0206 48.8399 42.0506 48.8399 42.1106V42.8006C48.8399 42.8606 48.8099 42.8906 48.7499 42.8906H48.5899C48.4299 42.8906 48.2799 42.8606 48.1399 42.8006C47.9999 42.7406 47.8799 42.6406 47.7699 42.5006C47.6599 42.6406 47.5299 42.7406 47.3799 42.8106C47.2299 42.8706 47.0699 42.9006 46.9199 42.9006C46.5999 42.9006 46.3499 42.7706 46.1699 42.5006C46.0699 42.6406 45.9499 42.7506 45.8299 42.8106C45.7099 42.8706 45.5699 42.9006 45.4199 42.9006C45.3399 42.9006 45.2599 42.8906 45.1599 42.8706C45.0699 42.8406 44.9899 42.7806 44.9299 42.6906V42.8706C44.9299 43.0406 44.8899 43.2006 44.8199 43.3406C44.7499 43.4906 44.6499 43.6206 44.5199 43.7206C44.3899 43.8306 44.2499 43.9206 44.0799 43.9806C43.9199 44.0406 43.7499 44.0706 43.5699 44.0706H42.3999C42.1899 44.0706 41.9999 44.0306 41.8099 43.9506C41.6299 43.8706 41.4599 43.7706 41.3299 43.6306C41.1999 43.5006 41.0899 43.3406 41.0099 43.1506C40.9299 42.9706 40.8999 42.7706 40.8999 42.5606V40.5906H41.6399V42.4506C41.6399 42.5506 41.6599 42.6506 41.6899 42.7406C41.7299 42.8306 41.7799 42.9106 41.8499 42.9806C41.9199 43.0506 41.9999 43.1006 42.0899 43.1306C42.1799 43.1706 42.2799 43.1906 42.3799 43.1906H43.5899C43.7599 43.1906 43.8999 43.1306 44.0199 43.0106C44.1399 42.8906 44.1999 42.7506 44.1999 42.5806V40.4706H44.9399V41.7006C44.9399 41.7906 44.9699 41.8606 45.0299 41.9206C45.0999 41.9806 45.1699 42.0106 45.2599 42.0106H45.4599C45.5499 42.0106 45.6299 41.9806 45.6999 41.9306C45.7699 41.8806 45.8099 41.8006 45.8299 41.7106L46.0699 40.4906L46.7999 40.6206L46.5999 41.6406C46.5799 41.7406 46.5999 41.8306 46.6599 41.9006C46.7299 41.9706 46.8099 42.0106 46.8999 42.0106H47.0799C47.1699 42.0106 47.2499 41.9806 47.3099 41.9206C47.3699 41.8606 47.3999 41.7806 47.3999 41.6906V40.2806H48.1399V41.6806L48.1499 41.7006ZM47.0099 39.8906H46.2399V39.1206H47.0099V39.8906ZM45.8799 39.8906H45.1099V39.1206H45.8799V39.8906ZM46.4299 38.8706H45.6599V38.1006H46.4299V38.8706ZM49.8799 38.6006H50.6499V39.3706H49.8799V38.6006ZM48.8499 42.9006C48.7899 42.9006 48.7599 42.8706 48.7599 42.8106V42.1306C48.7599 42.1306 48.7699 42.0906 48.7899 42.0606C48.8099 42.0406 48.8299 42.0306 48.8499 42.0306H50.0599C50.2499 42.0306 50.4299 42.0006 50.6199 41.9406C50.7999 41.8806 50.9599 41.7806 51.0899 41.6406L51.4799 41.2206L51.5399 41.1606L51.5699 41.1306L50.1599 40.7106C50.1599 40.7106 50.0699 40.7106 50.0399 40.7206C50.0099 40.7406 49.9799 40.7706 49.9699 40.8106L49.7099 41.4806L49.0599 41.3006L49.2399 40.6806C49.2799 40.5406 49.3399 40.4206 49.4299 40.3206C49.5199 40.2206 49.6099 40.1406 49.7299 40.0906C49.8399 40.0306 49.9599 40.0006 50.0899 39.9906C50.2199 39.9806 50.3399 39.9906 50.4499 40.0206L53.1299 40.8206L52.9099 41.5106L52.5899 41.4206C52.5099 41.4006 52.4499 41.4006 52.3899 41.4106C52.3399 41.4106 52.2899 41.4406 52.2499 41.4606V41.6906C52.2499 41.7806 52.2799 41.8606 52.3399 41.9206C52.3999 41.9806 52.4799 42.0106 52.5699 42.0106H53.4699C53.5299 42.0106 53.5599 42.0406 53.5599 42.1006V42.7906C53.5599 42.8506 53.5299 42.8806 53.4699 42.8806H52.6999C52.4299 42.8806 52.1999 42.8006 52.0099 42.6506C51.8299 42.4906 51.6999 42.2906 51.6299 42.0506L51.3599 42.3206C51.1699 42.5106 50.9399 42.6506 50.6899 42.7406C50.4299 42.8306 50.1699 42.8706 49.8999 42.8706H48.8599L48.8499 42.9006ZM53.7299 43.7006H54.4999V44.4706H53.7299V43.7006ZM54.8599 43.7006H55.6299V44.4706H54.8599V43.7006ZM54.2899 44.7306H55.0599V45.5006H54.2899V44.7306ZM55.1099 42.0206C55.1999 42.0206 55.2799 41.9906 55.3399 41.9306C55.3999 41.8606 55.4299 41.7806 55.4299 41.6906V40.3006H56.1699V41.6906C56.1699 41.8606 56.1399 42.0106 56.0799 42.1606C56.0199 42.3006 55.9299 42.4306 55.8199 42.5406C55.7099 42.6506 55.5799 42.7306 55.4399 42.8006C55.2999 42.8606 55.1399 42.8906 54.9799 42.8906H53.5699C53.5699 42.8906 53.5199 42.8906 53.4999 42.8606C53.4799 42.8406 53.4699 42.8206 53.4699 42.7906V42.1106C53.4699 42.1106 53.4699 42.0606 53.4999 42.0406C53.5199 42.0206 53.5399 42.0106 53.5699 42.0106H55.1199L55.1099 42.0206Z" fill="white"/>
<path d="M10.8398 37.1797C11.4298 37.1797 11.8998 37.6597 11.8998 38.2397V45.6697C11.8998 46.2597 11.4198 46.7297 10.8398 46.7297C10.2498 46.7297 9.77979 46.2497 9.77979 45.6697V38.2397C9.77979 37.6497 10.2598 37.1797 10.8398 37.1797Z" fill="#222222"/>
<path d="M15.0898 37.1797C15.6798 37.1797 16.1498 37.6597 16.1498 38.2397V45.6697C16.1498 46.2597 15.6698 46.7297 15.0898 46.7297C14.4998 46.7297 14.0298 46.2497 14.0298 45.6697V38.2397C14.0298 37.6497 14.5098 37.1797 15.0898 37.1797Z" fill="#222222"/>
<path d="M16.9357 12.7904C17.053 12.7904 17.1624 12.7664 17.2637 12.7184C17.3704 12.6757 17.4637 12.6144 17.5437 12.5344C17.6237 12.4597 17.685 12.3691 17.7277 12.2624C17.7757 12.1611 17.7997 12.0517 17.7997 11.9344V11.5664H16.3037V10.9104H19.2317C19.2584 10.9104 19.2824 10.9211 19.3037 10.9424C19.3304 10.9637 19.3437 10.9904 19.3437 11.0224V11.4464C19.3437 11.4784 19.3304 11.5077 19.3037 11.5344C19.2824 11.5557 19.2584 11.5664 19.2317 11.5664H18.3117C18.333 11.6197 18.3437 11.6784 18.3437 11.7424V12.0224C18.3437 12.2197 18.3064 12.4037 18.2317 12.5744C18.157 12.7504 18.053 12.9024 17.9197 13.0304C17.7917 13.1584 17.6397 13.2597 17.4637 13.3344C17.293 13.4091 17.109 13.4464 16.9117 13.4464H15.5357C15.317 13.4464 15.109 13.4037 14.9117 13.3184C14.7197 13.2331 14.5517 13.1184 14.4077 12.9744C14.2637 12.8304 14.149 12.6597 14.0637 12.4624C13.9784 12.2704 13.9357 12.0651 13.9357 11.8464V9.92641H14.4877V11.7504C14.4877 11.8944 14.5144 12.0277 14.5677 12.1504C14.6264 12.2784 14.701 12.3904 14.7917 12.4864C14.8877 12.5824 14.997 12.6571 15.1197 12.7104C15.2477 12.7637 15.3837 12.7904 15.5277 12.7904H16.9357ZM20.2021 10.9104C20.3621 10.9104 20.4981 10.8544 20.6101 10.7424C20.7221 10.6304 20.7781 10.4971 20.7781 10.3424V8.87041H21.3301V10.3424C21.3301 10.5131 21.2981 10.6731 21.2341 10.8224C21.1701 10.9717 21.0821 11.1024 20.9701 11.2144C20.8581 11.3211 20.7275 11.4064 20.5781 11.4704C20.4341 11.5344 20.2768 11.5664 20.1061 11.5664H19.2341C19.1595 11.5664 19.1221 11.5291 19.1221 11.4544V11.0304C19.1221 10.9984 19.1328 10.9717 19.1541 10.9504C19.1755 10.9237 19.2021 10.9104 19.2341 10.9104H20.2021ZM19.2661 13.2064H19.9461V12.5264H19.2661V13.2064ZM20.3621 13.2064H21.0421V12.5264H20.3621V13.2064ZM24.1614 11.4544C24.1614 11.5291 24.1241 11.5664 24.0494 11.5664H23.7534C23.5881 11.5664 23.4308 11.5344 23.2814 11.4704C23.1321 11.4064 23.0014 11.3184 22.8894 11.2064C22.7774 11.0944 22.6894 10.9637 22.6254 10.8144C22.5614 10.6651 22.5294 10.5077 22.5294 10.3424V6.29441H23.0814V10.3344C23.0814 10.4944 23.1374 10.6304 23.2494 10.7424C23.3668 10.8544 23.5028 10.9104 23.6574 10.9104H24.0494C24.0814 10.9104 24.1081 10.9237 24.1294 10.9504C24.1508 10.9717 24.1614 10.9984 24.1614 11.0304V11.4544ZM28.7266 10.9104C28.8706 10.9104 28.9933 10.8624 29.0946 10.7664C29.2013 10.6704 29.2546 10.5451 29.2546 10.3904V9.88641C29.2546 9.73174 29.2013 9.60107 29.0946 9.49441C28.988 9.38774 28.8573 9.33441 28.7026 9.33441H28.1586C27.9826 9.33441 27.8253 9.36641 27.6866 9.43041C27.548 9.49441 27.4253 9.58774 27.3186 9.71041L26.1986 10.9104H28.7266ZM25.5266 10.1904C25.5266 10.2811 25.5346 10.3557 25.5506 10.4144C25.572 10.4731 25.5933 10.5211 25.6146 10.5584C25.6413 10.5904 25.6626 10.6144 25.6786 10.6304C25.7 10.6464 25.7106 10.6544 25.7106 10.6544L27.0066 9.24641C27.1613 9.08107 27.34 8.95307 27.5426 8.86241C27.7506 8.77174 27.9666 8.72641 28.1906 8.72641H28.6786C28.8333 8.72641 28.9773 8.75574 29.1106 8.81441C29.2493 8.87307 29.3693 8.95307 29.4706 9.05441C29.572 9.15574 29.652 9.27574 29.7106 9.41441C29.7693 9.54774 29.7986 9.69174 29.7986 9.84641V10.4144C29.7986 10.5744 29.7693 10.7237 29.7106 10.8624C29.652 11.0011 29.5693 11.1237 29.4626 11.2304C29.3613 11.3317 29.2413 11.4144 29.1026 11.4784C28.964 11.5371 28.8146 11.5664 28.6546 11.5664H26.1026C25.9106 11.5664 25.7373 11.5211 25.5826 11.4304C25.428 11.3397 25.3133 11.2091 25.2386 11.0384C25.132 11.2091 24.996 11.3397 24.8306 11.4304C24.6653 11.5211 24.484 11.5664 24.2866 11.5664H24.0466C24.0146 11.5664 23.988 11.5557 23.9666 11.5344C23.9453 11.5077 23.9346 11.4784 23.9346 11.4464V11.0304C23.9346 10.9984 23.9453 10.9717 23.9666 10.9504C23.988 10.9237 24.0146 10.9104 24.0466 10.9104H24.3906C24.5506 10.9104 24.6866 10.8544 24.7986 10.7424C24.916 10.6304 24.9746 10.4944 24.9746 10.3344V9.22241H25.5266V10.1904ZM27.9266 7.78241H28.6066V7.10241H27.9266V7.78241ZM29.4339 13.5584L29.2579 13.0144L30.2339 12.6944C30.4579 12.6197 30.6392 12.4837 30.7779 12.2864C30.9219 12.0891 30.9939 11.8704 30.9939 11.6304V9.09441H31.5379V11.5824C31.5379 11.7691 31.5085 11.9477 31.4499 12.1184C31.3965 12.2944 31.3165 12.4544 31.2099 12.5984C31.1085 12.7477 30.9832 12.8757 30.8339 12.9824C30.6899 13.0944 30.5299 13.1824 30.3539 13.2464L29.4339 13.5584ZM35.4114 11.4544C35.4114 11.5291 35.3741 11.5664 35.2994 11.5664H35.0034C34.8381 11.5664 34.6808 11.5344 34.5314 11.4704C34.3821 11.4064 34.2514 11.3184 34.1394 11.2064C34.0274 11.0944 33.9394 10.9637 33.8754 10.8144C33.8114 10.6651 33.7794 10.5077 33.7794 10.3424V6.29441H34.3314V10.3344C34.3314 10.4944 34.3874 10.6304 34.4994 10.7424C34.6168 10.8544 34.7528 10.9104 34.9074 10.9104H35.2994C35.3314 10.9104 35.3581 10.9237 35.3794 10.9504C35.4008 10.9717 35.4114 10.9984 35.4114 11.0304V11.4544ZM37.4326 11.5664C37.2353 11.5664 37.054 11.5211 36.8886 11.4304C36.7233 11.3397 36.5873 11.2091 36.4806 11.0384C36.3686 11.2091 36.23 11.3397 36.0646 11.4304C35.8993 11.5211 35.7206 11.5664 35.5286 11.5664H35.2966C35.2646 11.5664 35.238 11.5557 35.2166 11.5344C35.19 11.5131 35.1793 11.4864 35.1846 11.4544V11.0224C35.1846 10.9477 35.222 10.9104 35.2966 10.9104H35.6246C35.7846 10.9104 35.9206 10.8544 36.0326 10.7424C36.15 10.6304 36.2086 10.4917 36.2086 10.3264V9.08641H36.7606V10.3424C36.7606 10.5024 36.8166 10.6384 36.9286 10.7504C37.0406 10.8571 37.1766 10.9104 37.3366 10.9104H37.4726C37.6273 10.9104 37.7606 10.8651 37.8726 10.7744C37.99 10.6784 38.0646 10.5531 38.0966 10.3984L38.3446 9.14241L38.8966 9.23041L38.6806 10.2864C38.6646 10.3717 38.6673 10.4517 38.6886 10.5264C38.7153 10.6011 38.7526 10.6677 38.8006 10.7264C38.854 10.7797 38.918 10.8251 38.9926 10.8624C39.0673 10.8944 39.1473 10.9104 39.2326 10.9104H39.9206V8.85441H40.4726V10.8464C40.4726 11.0651 40.406 11.2411 40.2726 11.3744C40.1446 11.5024 39.9713 11.5664 39.7526 11.5664H39.2326C39.0513 11.5664 38.8806 11.5211 38.7206 11.4304C38.566 11.3397 38.4486 11.2091 38.3686 11.0384C38.2566 11.2197 38.118 11.3531 37.9526 11.4384C37.7926 11.5237 37.6193 11.5664 37.4326 11.5664ZM39.2486 8.19841H38.5686V7.51841H39.2486V8.19841ZM38.1526 8.19841H37.4726V7.51841H38.1526V8.19841ZM38.6806 7.22241H38.0006V6.54241H38.6806V7.22241ZM42.2178 9.10241V10.3584C42.2178 10.5131 42.2738 10.6437 42.3858 10.7504C42.5031 10.8571 42.6391 10.9104 42.7938 10.9104H43.5938C43.6258 10.9104 43.6524 10.9237 43.6738 10.9504C43.6951 10.9717 43.7058 10.9984 43.7058 11.0304V11.4544C43.7058 11.5291 43.6684 11.5664 43.5938 11.5664H42.8898C42.7618 11.5664 42.6364 11.5397 42.5138 11.4864C42.3911 11.4331 42.2924 11.3531 42.2178 11.2464V11.5984C42.2178 11.7851 42.1884 11.9637 42.1298 12.1344C42.0711 12.3104 41.9884 12.4704 41.8818 12.6144C41.7804 12.7584 41.6551 12.8837 41.5058 12.9904C41.3564 13.1024 41.1938 13.1877 41.0178 13.2464L40.1058 13.5664L39.9298 13.0144L40.8978 12.6944C41.1324 12.6197 41.3191 12.4837 41.4578 12.2864C41.5964 12.0891 41.6658 11.8704 41.6658 11.6304V9.10241H42.2178ZM44.7775 9.33441L44.3695 8.95041L46.4735 6.49441L46.8655 6.86241L45.2895 8.73441H48.4415C48.5962 8.73441 48.7402 8.76374 48.8735 8.82241C49.0122 8.88107 49.1322 8.96107 49.2335 9.06241C49.3348 9.15841 49.4148 9.27574 49.4735 9.41441C49.5322 9.54774 49.5615 9.69174 49.5615 9.84641V10.4464C49.5615 10.6011 49.5322 10.7477 49.4735 10.8864C49.4148 11.0197 49.3322 11.1371 49.2255 11.2384C49.1242 11.3397 49.0042 11.4197 48.8655 11.4784C48.7322 11.5371 48.5882 11.5664 48.4335 11.5664H43.5935C43.5615 11.5664 43.5348 11.5557 43.5135 11.5344C43.4922 11.5077 43.4815 11.4811 43.4815 11.4544V11.0224C43.4815 10.9477 43.5188 10.9104 43.5935 10.9104H48.5135C48.6522 10.9157 48.7695 10.8704 48.8655 10.7744C48.9615 10.6731 49.0095 10.5504 49.0095 10.4064V9.87041C49.0095 9.72107 48.9562 9.59574 48.8495 9.49441C48.7482 9.38774 48.6202 9.33441 48.4655 9.33441H44.7775ZM44.0335 8.01441L45.6495 6.10241L45.9375 6.36641L44.3215 8.26241L44.0335 8.01441ZM14.2796 19.9024C14.2796 19.8277 14.2609 19.7851 14.2236 19.7744C14.1916 19.7584 14.1623 19.7504 14.1356 19.7504H13.4316C13.3516 19.7504 13.3036 19.7904 13.2876 19.8704L13.1676 20.5504C13.1569 20.5984 13.1569 20.6277 13.1676 20.6384C13.1836 20.6491 13.2129 20.6544 13.2556 20.6544H14.2796V19.9024ZM15.4556 22.1104C15.4556 22.3344 15.4663 22.5637 15.4876 22.7984C15.5089 23.0277 15.5436 23.2624 15.5916 23.5024L15.7676 24.3424L14.6156 24.5664L14.4396 23.6864C14.3329 23.1371 14.2796 22.6064 14.2796 22.0944V21.9264C14.2903 21.9211 14.2796 21.9237 14.2476 21.9344C14.2209 21.9397 14.1809 21.9504 14.1276 21.9664C14.0743 21.9771 14.0103 21.9904 13.9356 22.0064C13.8663 22.0171 13.7969 22.0224 13.7276 22.0224H13.3916C13.1569 22.0224 12.9436 21.9851 12.7516 21.9104C12.5596 21.8357 12.3996 21.7291 12.2716 21.5904C12.1436 21.4464 12.0529 21.2704 11.9996 21.0624C11.9516 20.8544 11.9543 20.6144 12.0076 20.3424L12.1516 19.6064C12.1836 19.4411 12.2423 19.2891 12.3276 19.1504C12.4129 19.0117 12.5143 18.8917 12.6316 18.7904C12.7543 18.6891 12.8929 18.6117 13.0476 18.5584C13.2023 18.4997 13.3623 18.4704 13.5276 18.4704H13.9756C14.1783 18.4704 14.3676 18.5104 14.5436 18.5904C14.7249 18.6651 14.8823 18.7691 15.0156 18.9024C15.1489 19.0357 15.2556 19.1931 15.3356 19.3744C15.4156 19.5504 15.4556 19.7397 15.4556 19.9424V22.1104ZM18.519 17.7504L19.255 18.6944L18.111 19.6624C18.0843 19.6784 18.0656 19.7104 18.055 19.7584C18.0443 19.8011 18.0656 19.8437 18.119 19.8864L19.015 20.5584C19.2496 20.2704 19.5083 19.9877 19.791 19.7104L20.439 19.0864L21.359 19.8704L20.759 20.4624C20.5883 20.6277 20.4283 20.8091 20.279 21.0064C20.135 21.1984 19.9963 21.3904 19.863 21.5824L17.775 24.5824L16.671 23.9104L18.383 21.4944C18.3723 21.5051 18.3216 21.5077 18.231 21.5024C18.1456 21.4971 18.047 21.4491 17.935 21.3584L17.303 20.8704C17.111 20.7264 16.9723 20.5557 16.887 20.3584C16.807 20.1611 16.7723 19.9611 16.783 19.7584C16.7936 19.5504 16.847 19.3531 16.943 19.1664C17.039 18.9744 17.1696 18.8117 17.335 18.6784L18.519 17.7504ZM23.7448 20.8304C23.9475 20.8304 24.1368 20.8704 24.3128 20.9504C24.4941 21.0251 24.6515 21.1291 24.7848 21.2624C24.9181 21.3957 25.0221 21.5531 25.0968 21.7344C25.1768 21.9157 25.2168 22.1077 25.2168 22.3104V22.7104C25.2168 22.9131 25.1768 23.1051 25.0968 23.2864C25.0221 23.4677 24.9181 23.6251 24.7848 23.7584C24.6515 23.8917 24.4941 23.9984 24.3128 24.0784C24.1368 24.1531 23.9475 24.1904 23.7448 24.1904H23.3448C23.1475 24.1904 22.9581 24.1531 22.7768 24.0784C22.6008 23.9984 22.4461 23.8917 22.3128 23.7584C22.1795 23.6251 22.0728 23.4677 21.9928 23.2864C21.9128 23.1051 21.8728 22.9131 21.8728 22.7104V22.3104C21.8728 22.1077 21.9101 21.9157 21.9848 21.7344C22.0648 21.5531 22.1715 21.3957 22.3048 21.2624C22.4381 21.1291 22.5928 21.0251 22.7688 20.9504C22.9501 20.8704 23.1421 20.8304 23.3448 20.8304H23.7448ZM23.9368 22.6784V22.2944C23.9261 22.2037 23.8755 22.1584 23.7848 22.1584H23.3208C23.2781 22.1531 23.2408 22.1664 23.2088 22.1984C23.1821 22.2251 23.1688 22.2597 23.1688 22.3024V22.6784C23.1688 22.7211 23.1821 22.7557 23.2088 22.7824C23.2408 22.8091 23.2781 22.8224 23.3208 22.8224H23.7848C23.8435 22.8224 23.8835 22.8091 23.9048 22.7824C23.9261 22.7557 23.9368 22.7211 23.9368 22.6784ZM27.9643 17.7504L28.7003 18.6944L27.5563 19.6624C27.5296 19.6784 27.511 19.7104 27.5003 19.7584C27.4896 19.8011 27.511 19.8437 27.5643 19.8864L28.4603 20.5584C28.695 20.2704 28.9536 19.9877 29.2363 19.7104L29.8843 19.0864L30.8043 19.8704L30.2043 20.4624C30.0336 20.6277 29.8736 20.8091 29.7243 21.0064C29.5803 21.1984 29.4416 21.3904 29.3083 21.5824L27.2203 24.5824L26.1163 23.9104L27.8283 21.4944C27.8176 21.5051 27.767 21.5077 27.6763 21.5024C27.591 21.4971 27.4923 21.4491 27.3803 21.3584L26.7483 20.8704C26.5563 20.7264 26.4176 20.5557 26.3323 20.3584C26.2523 20.1611 26.2176 19.9611 26.2283 19.7584C26.239 19.5504 26.2923 19.3531 26.3883 19.1664C26.4843 18.9744 26.615 18.8117 26.7803 18.6784L27.9643 17.7504ZM32.7021 19.5984L32.4301 19.3424L33.2941 18.2784L34.4461 19.3904C34.6701 19.6037 34.8888 19.8277 35.1021 20.0624C35.3154 20.2917 35.5021 20.5424 35.6621 20.8144C35.8274 21.0811 35.9581 21.3771 36.0541 21.7024C36.1554 22.0277 36.2061 22.3957 36.2061 22.8064C36.2061 23.0571 36.1741 23.2891 36.1101 23.5024C36.0514 23.7157 35.9581 23.9024 35.8301 24.0624C35.7021 24.2171 35.5394 24.3397 35.3421 24.4304C35.1501 24.5157 34.9208 24.5584 34.6541 24.5584C34.4674 24.5584 34.2888 24.5371 34.1181 24.4944C33.9528 24.4517 33.8141 24.3984 33.7021 24.3344C33.5848 24.3931 33.4408 24.4464 33.2701 24.4944C33.0994 24.5371 32.9421 24.5584 32.7981 24.5584C32.4941 24.5584 32.2381 24.5077 32.0301 24.4064C31.8221 24.3051 31.6541 24.1744 31.5261 24.0144C31.3981 23.8491 31.3048 23.6624 31.2461 23.4544C31.1874 23.2411 31.1581 23.0251 31.1581 22.8064C31.1581 22.4651 31.2008 22.1477 31.2861 21.8544C31.3714 21.5557 31.4861 21.2757 31.6301 21.0144C31.7741 20.7477 31.9394 20.4997 32.1261 20.2704C32.3128 20.0357 32.5048 19.8117 32.7021 19.5984ZM33.7021 20.4864C33.3981 20.7637 33.1554 21.0011 32.9741 21.1984C32.7928 21.3904 32.6514 21.5691 32.5501 21.7344C32.4541 21.8944 32.3901 22.0597 32.3581 22.2304C32.3261 22.3957 32.3101 22.5904 32.3101 22.8144C32.3101 22.9744 32.3581 23.0784 32.4541 23.1264C32.5554 23.1691 32.6621 23.1904 32.7741 23.1904H32.7901C32.8594 23.1904 32.9154 23.1664 32.9581 23.1184C33.0061 23.0651 33.0541 22.9531 33.1021 22.7824L33.2221 22.3424L34.3181 22.5584L34.2061 23.0624C34.2328 23.1211 34.2648 23.1584 34.3021 23.1744C34.3394 23.1904 34.3874 23.1984 34.4461 23.1984H34.6141C34.7154 23.1984 34.8141 23.1717 34.9101 23.1184C35.0061 23.0651 35.0541 22.9637 35.0541 22.8144C35.0594 22.5691 35.0381 22.3557 34.9901 22.1744C34.9474 21.9931 34.8728 21.8197 34.7661 21.6544C34.6648 21.4837 34.5261 21.3077 34.3501 21.1264C34.1741 20.9451 33.9581 20.7317 33.7021 20.4864ZM37.6254 20.8464H38.8254V22.0704H37.6254V20.8464ZM37.6254 23.3424H38.8254V24.5664H37.6254V23.3424ZM43.8272 23.2064H44.0512C44.0779 23.2064 44.1019 23.2197 44.1232 23.2464C44.1499 23.2731 44.1632 23.3024 44.1632 23.3344V24.4544C44.1632 24.4811 44.1526 24.5077 44.1312 24.5344C44.1099 24.5557 44.0832 24.5664 44.0512 24.5664H43.9312C43.7126 24.5664 43.5206 24.5237 43.3552 24.4384C43.1952 24.3531 43.0592 24.2571 42.9472 24.1504C42.7979 24.3051 42.6352 24.4144 42.4592 24.4784C42.2832 24.5371 42.0992 24.5664 41.9072 24.5664H40.8992C40.7339 24.5664 40.5766 24.5344 40.4272 24.4704C40.2779 24.4064 40.1472 24.3211 40.0352 24.2144C39.9232 24.1024 39.8352 23.9717 39.7712 23.8224C39.7072 23.6731 39.6752 23.5157 39.6752 23.3504V22.1504H40.6352V23.0784C40.6352 23.1637 40.6806 23.2064 40.7712 23.2064H41.9232C42.0352 23.2064 42.1339 23.1717 42.2192 23.1024C42.3046 23.0277 42.3312 22.9291 42.2992 22.8064L41.6192 20.3664L42.7152 19.9664L43.5712 23.0144C43.5872 23.0731 43.6192 23.1211 43.6672 23.1584C43.7152 23.1904 43.7686 23.2064 43.8272 23.2064ZM45.1705 22.2784L44.3465 21.4864L46.8985 18.4864L47.7305 19.2544L46.2425 21.0144H49.1945C49.3972 21.0144 49.5865 21.0544 49.7625 21.1344C49.9439 21.2091 50.1012 21.3131 50.2345 21.4464C50.3679 21.5797 50.4719 21.7371 50.5465 21.9184C50.6265 22.0944 50.6665 22.2864 50.6665 22.4944V23.0864C50.6665 23.2997 50.6239 23.4971 50.5385 23.6784C50.4532 23.8597 50.3385 24.0171 50.1945 24.1504C50.0559 24.2837 49.8959 24.3877 49.7145 24.4624C49.5332 24.5317 49.3439 24.5664 49.1465 24.5664H44.0505C44.0239 24.5664 43.9999 24.5557 43.9785 24.5344C43.9519 24.5077 43.9385 24.4811 43.9385 24.4544V23.3184C43.9385 23.2917 43.9492 23.2677 43.9705 23.2464C43.9919 23.2197 44.0185 23.2064 44.0505 23.2064H49.3705C49.3972 23.2064 49.4265 23.1957 49.4585 23.1744C49.4959 23.1531 49.5145 23.1157 49.5145 23.0624V22.4624C49.5145 22.4091 49.4959 22.3664 49.4585 22.3344C49.4212 22.2971 49.3785 22.2784 49.3305 22.2784H45.1705Z" fill="black"/>
</svg>
