<svg width="63" height="56" viewBox="0 0 63 56" fill="none" xmlns="http://www.w3.org/2000/svg">
<path d="M12.81 1H50.57C57.09 1 62.39 6.29 62.39 12.82V55.32H1V12.82C1 6.3 6.29001 1 12.82 1H12.81Z" fill="white" stroke="#19B5FF" stroke-width="0.52" stroke-miterlimit="10"/>
<path d="M50.8548 32.4805H12.5348C7.38482 32.4805 3.21484 36.6505 3.21484 41.8005C3.21484 46.9505 7.38482 51.1205 12.5348 51.1205H50.8548C56.0048 51.1205 60.1748 46.9505 60.1748 41.8005C60.1748 36.6505 56.0048 32.4805 50.8548 32.4805Z" fill="#696969"/>
<path d="M12.9748 49.811C17.3986 49.811 20.9848 46.2248 20.9848 41.801C20.9848 37.3772 17.3986 33.791 12.9748 33.791C8.55102 33.791 4.96484 37.3772 4.96484 41.801C4.96484 46.2248 8.55102 49.811 12.9748 49.811Z" fill="white"/>
<path d="M17.1149 42.6409C17.7349 42.2509 17.7349 41.3609 17.1149 40.9709L11.0549 37.1809C10.4049 36.7709 9.54492 37.2409 9.54492 38.0109V45.6009C9.54492 46.3709 10.3949 46.8409 11.0549 46.4309L17.1149 42.6409Z" fill="#696969"/>
<path d="M23.1748 42.4105V40.4405H23.9148V42.3105C23.9148 42.4105 23.9348 42.5105 23.9648 42.6005C24.0048 42.6905 24.0548 42.7705 24.1248 42.8405C24.1948 42.9105 24.2748 42.9605 24.3648 42.9905C24.4548 43.0305 24.5548 43.0505 24.6548 43.0505H25.8648C26.0348 43.0505 26.1748 42.9905 26.2948 42.8705C26.4148 42.7505 26.4748 42.6105 26.4748 42.4405V40.3305H27.2148V41.5405C27.2148 41.6305 27.2448 41.7105 27.3048 41.7705C27.3648 41.8305 27.4448 41.8605 27.5348 41.8605H27.9548C27.9548 41.8605 28.0048 41.8705 28.0248 41.8905C28.0448 41.9105 28.0548 41.9305 28.0548 41.9605V42.6405C28.0548 42.6405 28.0548 42.6805 28.0248 42.7105C28.0048 42.7305 27.9848 42.7405 27.9548 42.7405H27.6548C27.5048 42.7405 27.4048 42.7105 27.3348 42.6605C27.2748 42.6105 27.2248 42.5605 27.2048 42.5305V42.7005C27.2048 42.8705 27.1648 43.0305 27.0948 43.1805C27.0248 43.3305 26.9248 43.4605 26.7948 43.5705C26.6748 43.6805 26.5348 43.7705 26.3748 43.8305C26.2148 43.8905 26.0448 43.9205 25.8648 43.9205H24.6948C24.4848 43.9205 24.2948 43.8805 24.1048 43.8005C23.9248 43.7205 23.7548 43.6205 23.6248 43.4805C23.4948 43.3505 23.3848 43.1905 23.3048 43.0005C23.2248 42.8205 23.1948 42.6205 23.1948 42.4105H23.1748ZM24.8048 39.5605H25.5748V40.3305H24.8048V39.5605ZM29.5948 41.8605C29.6848 41.8605 29.7648 41.8305 29.8248 41.7705C29.8848 41.7005 29.9148 41.6205 29.9148 41.5305V40.1405H30.6548V41.5305C30.6548 41.7005 30.6248 41.8505 30.5648 42.0005C30.5048 42.1405 30.4148 42.2705 30.3048 42.3805C30.1948 42.4905 30.0648 42.5705 29.9248 42.6405C29.7848 42.7005 29.6248 42.7305 29.4648 42.7305H28.0548C28.0548 42.7305 28.0048 42.7305 27.9848 42.7005C27.9648 42.6805 27.9548 42.6605 27.9548 42.6305V41.9505C27.9548 41.9505 27.9548 41.9005 27.9848 41.8805C28.0048 41.8605 28.0248 41.8505 28.0548 41.8505H29.6048L29.5948 41.8605ZM28.1448 44.3205H28.9148V43.5505H28.1448V44.3205ZM29.2648 44.3205H30.0348V43.5505H29.2648V44.3205ZM35.3948 42.6405C35.3948 42.7005 35.3648 42.7305 35.3048 42.7305H35.0048C34.8248 42.7305 34.6648 42.7005 34.5248 42.6305C34.3748 42.5605 34.2448 42.4605 34.1448 42.3505C33.9548 42.5305 33.7248 42.6305 33.4648 42.6705L31.5448 42.9405L31.4448 42.1505L32.1748 42.0605L31.8448 38.5505L32.5948 38.4605L32.9048 41.9705L33.4048 41.9005C33.5248 41.8905 33.6248 41.8305 33.7048 41.7505C33.7848 41.6605 33.8248 41.5505 33.8248 41.4305V38.1405H34.5648V41.5505C34.5648 41.6405 34.5948 41.7205 34.6548 41.7805C34.7148 41.8405 34.7948 41.8705 34.8848 41.8705H35.3048C35.3648 41.8705 35.3948 41.9005 35.3948 41.9605V42.6505V42.6405ZM36.5348 41.8605C36.6248 41.8605 36.7048 41.8305 36.7648 41.7705C36.8248 41.7005 36.8548 41.6205 36.8548 41.5305V40.1405H37.5948V41.5305C37.5948 41.7005 37.5648 41.8505 37.5048 42.0005C37.4448 42.1405 37.3548 42.2705 37.2448 42.3805C37.1348 42.4905 37.0048 42.5705 36.8648 42.6405C36.7248 42.7005 36.5648 42.7305 36.4048 42.7305H35.4048C35.4048 42.7305 35.3548 42.7305 35.3348 42.7005C35.3148 42.6805 35.3048 42.6605 35.3048 42.6305V41.9505C35.3048 41.9505 35.3048 41.9005 35.3348 41.8805C35.3548 41.8605 35.3748 41.8505 35.4048 41.8505H36.5448L36.5348 41.8605ZM36.8248 39.5205H37.5948V38.7505H36.8248V39.5205ZM39.2148 42.7405H38.4748V38.6505H39.2148V42.7405ZM37.5648 38.4805V38.1205C37.5648 37.9105 37.6348 37.7605 37.7648 37.6505C37.8948 37.5405 38.0448 37.4805 38.2048 37.4805H39.5948V38.1205H38.2848C38.2848 38.1205 38.2048 38.1405 38.1748 38.1705C38.1548 38.2005 38.1448 38.2305 38.1448 38.2605V38.4805H37.5748H37.5648ZM48.1548 41.5405C48.1548 41.6305 48.1848 41.7105 48.2448 41.7705C48.3048 41.8305 48.3848 41.8605 48.4748 41.8605H48.7548C48.8148 41.8605 48.8448 41.8905 48.8448 41.9505V42.6405C48.8448 42.7005 48.8148 42.7305 48.7548 42.7305H48.5948C48.4348 42.7305 48.2848 42.7005 48.1448 42.6405C48.0048 42.5805 47.8848 42.4805 47.7748 42.3405C47.6648 42.4805 47.5348 42.5805 47.3848 42.6505C47.2348 42.7105 47.0748 42.7405 46.9248 42.7405C46.6048 42.7405 46.3548 42.6105 46.1748 42.3405C46.0748 42.4805 45.9548 42.5905 45.8348 42.6505C45.7148 42.7105 45.5748 42.7405 45.4248 42.7405C45.3448 42.7405 45.2648 42.7305 45.1648 42.7105C45.0748 42.6805 44.9948 42.6205 44.9348 42.5305V42.7105C44.9348 42.8805 44.8948 43.0405 44.8248 43.1805C44.7548 43.3305 44.6548 43.4605 44.5248 43.5605C44.3948 43.6705 44.2548 43.7605 44.0848 43.8205C43.9248 43.8805 43.7548 43.9105 43.5748 43.9105H42.4048C42.1948 43.9105 42.0048 43.8705 41.8148 43.7905C41.6348 43.7105 41.4648 43.6105 41.3348 43.4705C41.2048 43.3405 41.0948 43.1805 41.0148 42.9905C40.9348 42.8105 40.9048 42.6105 40.9048 42.4005V40.4305H41.6448V42.2905C41.6448 42.3905 41.6648 42.4905 41.6948 42.5805C41.7348 42.6705 41.7848 42.7505 41.8548 42.8205C41.9248 42.8905 42.0048 42.9405 42.0948 42.9705C42.1848 43.0105 42.2848 43.0305 42.3848 43.0305H43.5948C43.7648 43.0305 43.9048 42.9705 44.0248 42.8505C44.1448 42.7305 44.2048 42.5905 44.2048 42.4205V40.3105H44.9448V41.5405C44.9448 41.6305 44.9748 41.7005 45.0348 41.7605C45.1048 41.8205 45.1748 41.8505 45.2648 41.8505H45.4648C45.5548 41.8505 45.6348 41.8205 45.7048 41.7705C45.7748 41.7205 45.8148 41.6405 45.8348 41.5505L46.0748 40.3305L46.8048 40.4605L46.6048 41.4805C46.5848 41.5805 46.6048 41.6705 46.6648 41.7405C46.7348 41.8105 46.8148 41.8505 46.9048 41.8505H47.0848C47.1748 41.8505 47.2548 41.8205 47.3148 41.7605C47.3748 41.7005 47.4048 41.6205 47.4048 41.5305V40.1205H48.1448V41.5205L48.1548 41.5405ZM47.0148 39.7305H46.2448V38.9605H47.0148V39.7305ZM45.8848 39.7305H45.1148V38.9605H45.8848V39.7305ZM46.4448 38.7105H45.6748V37.9405H46.4448V38.7105ZM49.8848 38.4405H50.6548V39.2105H49.8848V38.4405ZM48.8548 42.7405C48.7948 42.7405 48.7648 42.7105 48.7648 42.6505V41.9705C48.7648 41.9705 48.7748 41.9305 48.7948 41.9005C48.8148 41.8805 48.8348 41.8705 48.8548 41.8705H50.0648C50.2548 41.8705 50.4348 41.8405 50.6248 41.7805C50.8048 41.7205 50.9648 41.6205 51.0948 41.4805L51.4848 41.0605L51.5448 41.0005L51.5748 40.9705L50.1648 40.5505C50.1648 40.5505 50.0748 40.5505 50.0448 40.5605C50.0148 40.5805 49.9848 40.6105 49.9748 40.6505L49.7148 41.3205L49.0648 41.1405L49.2448 40.5205C49.2848 40.3805 49.3448 40.2605 49.4348 40.1605C49.5248 40.0605 49.6148 39.9805 49.7348 39.9305C49.8448 39.8705 49.9648 39.8405 50.0948 39.8305C50.2248 39.8205 50.3448 39.8305 50.4548 39.8605L53.1348 40.6605L52.9148 41.3505L52.5948 41.2605C52.5148 41.2405 52.4548 41.2405 52.3948 41.2505C52.3448 41.2505 52.2948 41.2805 52.2548 41.3005V41.5305C52.2548 41.6205 52.2848 41.7005 52.3448 41.7605C52.4048 41.8205 52.4848 41.8505 52.5748 41.8505H53.4748C53.5348 41.8505 53.5648 41.8805 53.5648 41.9405V42.6305C53.5648 42.6905 53.5348 42.7205 53.4748 42.7205H52.7048C52.4348 42.7205 52.2048 42.6405 52.0148 42.4905C51.8348 42.3305 51.7048 42.1305 51.6348 41.8905L51.3648 42.1605C51.1748 42.3505 50.9448 42.4905 50.6948 42.5805C50.4348 42.6705 50.1748 42.7105 49.9048 42.7105H48.8648L48.8548 42.7405ZM53.7448 43.5405H54.5148V44.3105H53.7448V43.5405ZM54.8648 43.5405H55.6348V44.3105H54.8648V43.5405ZM54.2948 44.5705H55.0648V45.3405H54.2948V44.5705ZM55.1148 41.8605C55.2048 41.8605 55.2848 41.8305 55.3448 41.7705C55.4048 41.7005 55.4348 41.6205 55.4348 41.5305V40.1405H56.1748V41.5305C56.1748 41.7005 56.1448 41.8505 56.0848 42.0005C56.0248 42.1405 55.9348 42.2705 55.8248 42.3805C55.7148 42.4905 55.5848 42.5705 55.4448 42.6405C55.3048 42.7005 55.1448 42.7305 54.9848 42.7305H53.5748C53.5748 42.7305 53.5248 42.7305 53.5048 42.7005C53.4848 42.6805 53.4748 42.6605 53.4748 42.6305V41.9505C53.4748 41.9505 53.4748 41.9005 53.5048 41.8805C53.5248 41.8605 53.5448 41.8505 53.5748 41.8505H55.1248L55.1148 41.8605Z" fill="white"/>
<path d="M16.9357 12.7904C17.053 12.7904 17.1624 12.7664 17.2637 12.7184C17.3704 12.6757 17.4637 12.6144 17.5437 12.5344C17.6237 12.4597 17.685 12.3691 17.7277 12.2624C17.7757 12.1611 17.7997 12.0517 17.7997 11.9344V11.5664H16.3037V10.9104H19.2317C19.2584 10.9104 19.2824 10.9211 19.3037 10.9424C19.3304 10.9637 19.3437 10.9904 19.3437 11.0224V11.4464C19.3437 11.4784 19.3304 11.5077 19.3037 11.5344C19.2824 11.5557 19.2584 11.5664 19.2317 11.5664H18.3117C18.333 11.6197 18.3437 11.6784 18.3437 11.7424V12.0224C18.3437 12.2197 18.3064 12.4037 18.2317 12.5744C18.157 12.7504 18.053 12.9024 17.9197 13.0304C17.7917 13.1584 17.6397 13.2597 17.4637 13.3344C17.293 13.4091 17.109 13.4464 16.9117 13.4464H15.5357C15.317 13.4464 15.109 13.4037 14.9117 13.3184C14.7197 13.2331 14.5517 13.1184 14.4077 12.9744C14.2637 12.8304 14.149 12.6597 14.0637 12.4624C13.9784 12.2704 13.9357 12.0651 13.9357 11.8464V9.92641H14.4877V11.7504C14.4877 11.8944 14.5144 12.0277 14.5677 12.1504C14.6264 12.2784 14.701 12.3904 14.7917 12.4864C14.8877 12.5824 14.997 12.6571 15.1197 12.7104C15.2477 12.7637 15.3837 12.7904 15.5277 12.7904H16.9357ZM20.2021 10.9104C20.3621 10.9104 20.4981 10.8544 20.6101 10.7424C20.7221 10.6304 20.7781 10.4971 20.7781 10.3424V8.87041H21.3301V10.3424C21.3301 10.5131 21.2981 10.6731 21.2341 10.8224C21.1701 10.9717 21.0821 11.1024 20.9701 11.2144C20.8581 11.3211 20.7275 11.4064 20.5781 11.4704C20.4341 11.5344 20.2768 11.5664 20.1061 11.5664H19.2341C19.1595 11.5664 19.1221 11.5291 19.1221 11.4544V11.0304C19.1221 10.9984 19.1328 10.9717 19.1541 10.9504C19.1755 10.9237 19.2021 10.9104 19.2341 10.9104H20.2021ZM19.2661 13.2064H19.9461V12.5264H19.2661V13.2064ZM20.3621 13.2064H21.0421V12.5264H20.3621V13.2064ZM24.1614 11.4544C24.1614 11.5291 24.1241 11.5664 24.0494 11.5664H23.7534C23.5881 11.5664 23.4308 11.5344 23.2814 11.4704C23.1321 11.4064 23.0014 11.3184 22.8894 11.2064C22.7774 11.0944 22.6894 10.9637 22.6254 10.8144C22.5614 10.6651 22.5294 10.5077 22.5294 10.3424V6.29441H23.0814V10.3344C23.0814 10.4944 23.1374 10.6304 23.2494 10.7424C23.3668 10.8544 23.5028 10.9104 23.6574 10.9104H24.0494C24.0814 10.9104 24.1081 10.9237 24.1294 10.9504C24.1508 10.9717 24.1614 10.9984 24.1614 11.0304V11.4544ZM28.7266 10.9104C28.8706 10.9104 28.9933 10.8624 29.0946 10.7664C29.2013 10.6704 29.2546 10.5451 29.2546 10.3904V9.88641C29.2546 9.73174 29.2013 9.60107 29.0946 9.49441C28.988 9.38774 28.8573 9.33441 28.7026 9.33441H28.1586C27.9826 9.33441 27.8253 9.36641 27.6866 9.43041C27.548 9.49441 27.4253 9.58774 27.3186 9.71041L26.1986 10.9104H28.7266ZM25.5266 10.1904C25.5266 10.2811 25.5346 10.3557 25.5506 10.4144C25.572 10.4731 25.5933 10.5211 25.6146 10.5584C25.6413 10.5904 25.6626 10.6144 25.6786 10.6304C25.7 10.6464 25.7106 10.6544 25.7106 10.6544L27.0066 9.24641C27.1613 9.08107 27.34 8.95307 27.5426 8.86241C27.7506 8.77174 27.9666 8.72641 28.1906 8.72641H28.6786C28.8333 8.72641 28.9773 8.75574 29.1106 8.81441C29.2493 8.87307 29.3693 8.95307 29.4706 9.05441C29.572 9.15574 29.652 9.27574 29.7106 9.41441C29.7693 9.54774 29.7986 9.69174 29.7986 9.84641V10.4144C29.7986 10.5744 29.7693 10.7237 29.7106 10.8624C29.652 11.0011 29.5693 11.1237 29.4626 11.2304C29.3613 11.3317 29.2413 11.4144 29.1026 11.4784C28.964 11.5371 28.8146 11.5664 28.6546 11.5664H26.1026C25.9106 11.5664 25.7373 11.5211 25.5826 11.4304C25.428 11.3397 25.3133 11.2091 25.2386 11.0384C25.132 11.2091 24.996 11.3397 24.8306 11.4304C24.6653 11.5211 24.484 11.5664 24.2866 11.5664H24.0466C24.0146 11.5664 23.988 11.5557 23.9666 11.5344C23.9453 11.5077 23.9346 11.4784 23.9346 11.4464V11.0304C23.9346 10.9984 23.9453 10.9717 23.9666 10.9504C23.988 10.9237 24.0146 10.9104 24.0466 10.9104H24.3906C24.5506 10.9104 24.6866 10.8544 24.7986 10.7424C24.916 10.6304 24.9746 10.4944 24.9746 10.3344V9.22241H25.5266V10.1904ZM27.9266 7.78241H28.6066V7.10241H27.9266V7.78241ZM29.4339 13.5584L29.2579 13.0144L30.2339 12.6944C30.4579 12.6197 30.6392 12.4837 30.7779 12.2864C30.9219 12.0891 30.9939 11.8704 30.9939 11.6304V9.09441H31.5379V11.5824C31.5379 11.7691 31.5085 11.9477 31.4499 12.1184C31.3965 12.2944 31.3165 12.4544 31.2099 12.5984C31.1085 12.7477 30.9832 12.8757 30.8339 12.9824C30.6899 13.0944 30.5299 13.1824 30.3539 13.2464L29.4339 13.5584ZM35.4114 11.4544C35.4114 11.5291 35.3741 11.5664 35.2994 11.5664H35.0034C34.8381 11.5664 34.6808 11.5344 34.5314 11.4704C34.3821 11.4064 34.2514 11.3184 34.1394 11.2064C34.0274 11.0944 33.9394 10.9637 33.8754 10.8144C33.8114 10.6651 33.7794 10.5077 33.7794 10.3424V6.29441H34.3314V10.3344C34.3314 10.4944 34.3874 10.6304 34.4994 10.7424C34.6168 10.8544 34.7528 10.9104 34.9074 10.9104H35.2994C35.3314 10.9104 35.3581 10.9237 35.3794 10.9504C35.4008 10.9717 35.4114 10.9984 35.4114 11.0304V11.4544ZM37.4326 11.5664C37.2353 11.5664 37.054 11.5211 36.8886 11.4304C36.7233 11.3397 36.5873 11.2091 36.4806 11.0384C36.3686 11.2091 36.23 11.3397 36.0646 11.4304C35.8993 11.5211 35.7206 11.5664 35.5286 11.5664H35.2966C35.2646 11.5664 35.238 11.5557 35.2166 11.5344C35.19 11.5131 35.1793 11.4864 35.1846 11.4544V11.0224C35.1846 10.9477 35.222 10.9104 35.2966 10.9104H35.6246C35.7846 10.9104 35.9206 10.8544 36.0326 10.7424C36.15 10.6304 36.2086 10.4917 36.2086 10.3264V9.08641H36.7606V10.3424C36.7606 10.5024 36.8166 10.6384 36.9286 10.7504C37.0406 10.8571 37.1766 10.9104 37.3366 10.9104H37.4726C37.6273 10.9104 37.7606 10.8651 37.8726 10.7744C37.99 10.6784 38.0646 10.5531 38.0966 10.3984L38.3446 9.14241L38.8966 9.23041L38.6806 10.2864C38.6646 10.3717 38.6673 10.4517 38.6886 10.5264C38.7153 10.6011 38.7526 10.6677 38.8006 10.7264C38.854 10.7797 38.918 10.8251 38.9926 10.8624C39.0673 10.8944 39.1473 10.9104 39.2326 10.9104H39.9206V8.85441H40.4726V10.8464C40.4726 11.0651 40.406 11.2411 40.2726 11.3744C40.1446 11.5024 39.9713 11.5664 39.7526 11.5664H39.2326C39.0513 11.5664 38.8806 11.5211 38.7206 11.4304C38.566 11.3397 38.4486 11.2091 38.3686 11.0384C38.2566 11.2197 38.118 11.3531 37.9526 11.4384C37.7926 11.5237 37.6193 11.5664 37.4326 11.5664ZM39.2486 8.19841H38.5686V7.51841H39.2486V8.19841ZM38.1526 8.19841H37.4726V7.51841H38.1526V8.19841ZM38.6806 7.22241H38.0006V6.54241H38.6806V7.22241ZM42.2178 9.10241V10.3584C42.2178 10.5131 42.2738 10.6437 42.3858 10.7504C42.5031 10.8571 42.6391 10.9104 42.7938 10.9104H43.5938C43.6258 10.9104 43.6524 10.9237 43.6738 10.9504C43.6951 10.9717 43.7058 10.9984 43.7058 11.0304V11.4544C43.7058 11.5291 43.6684 11.5664 43.5938 11.5664H42.8898C42.7618 11.5664 42.6364 11.5397 42.5138 11.4864C42.3911 11.4331 42.2924 11.3531 42.2178 11.2464V11.5984C42.2178 11.7851 42.1884 11.9637 42.1298 12.1344C42.0711 12.3104 41.9884 12.4704 41.8818 12.6144C41.7804 12.7584 41.6551 12.8837 41.5058 12.9904C41.3564 13.1024 41.1938 13.1877 41.0178 13.2464L40.1058 13.5664L39.9298 13.0144L40.8978 12.6944C41.1324 12.6197 41.3191 12.4837 41.4578 12.2864C41.5964 12.0891 41.6658 11.8704 41.6658 11.6304V9.10241H42.2178ZM44.7775 9.33441L44.3695 8.95041L46.4735 6.49441L46.8655 6.86241L45.2895 8.73441H48.4415C48.5962 8.73441 48.7402 8.76374 48.8735 8.82241C49.0122 8.88107 49.1322 8.96107 49.2335 9.06241C49.3348 9.15841 49.4148 9.27574 49.4735 9.41441C49.5322 9.54774 49.5615 9.69174 49.5615 9.84641V10.4464C49.5615 10.6011 49.5322 10.7477 49.4735 10.8864C49.4148 11.0197 49.3322 11.1371 49.2255 11.2384C49.1242 11.3397 49.0042 11.4197 48.8655 11.4784C48.7322 11.5371 48.5882 11.5664 48.4335 11.5664H43.5935C43.5615 11.5664 43.5348 11.5557 43.5135 11.5344C43.4922 11.5077 43.4815 11.4811 43.4815 11.4544V11.0224C43.4815 10.9477 43.5188 10.9104 43.5935 10.9104H48.5135C48.6522 10.9157 48.7695 10.8704 48.8655 10.7744C48.9615 10.6731 49.0095 10.5504 49.0095 10.4064V9.87041C49.0095 9.72107 48.9562 9.59574 48.8495 9.49441C48.7482 9.38774 48.6202 9.33441 48.4655 9.33441H44.7775ZM44.0335 8.01441L45.6495 6.10241L45.9375 6.36641L44.3215 8.26241L44.0335 8.01441ZM14.2796 19.9024C14.2796 19.8277 14.2609 19.7851 14.2236 19.7744C14.1916 19.7584 14.1623 19.7504 14.1356 19.7504H13.4316C13.3516 19.7504 13.3036 19.7904 13.2876 19.8704L13.1676 20.5504C13.1569 20.5984 13.1569 20.6277 13.1676 20.6384C13.1836 20.6491 13.2129 20.6544 13.2556 20.6544H14.2796V19.9024ZM15.4556 22.1104C15.4556 22.3344 15.4663 22.5637 15.4876 22.7984C15.5089 23.0277 15.5436 23.2624 15.5916 23.5024L15.7676 24.3424L14.6156 24.5664L14.4396 23.6864C14.3329 23.1371 14.2796 22.6064 14.2796 22.0944V21.9264C14.2903 21.9211 14.2796 21.9237 14.2476 21.9344C14.2209 21.9397 14.1809 21.9504 14.1276 21.9664C14.0743 21.9771 14.0103 21.9904 13.9356 22.0064C13.8663 22.0171 13.7969 22.0224 13.7276 22.0224H13.3916C13.1569 22.0224 12.9436 21.9851 12.7516 21.9104C12.5596 21.8357 12.3996 21.7291 12.2716 21.5904C12.1436 21.4464 12.0529 21.2704 11.9996 21.0624C11.9516 20.8544 11.9543 20.6144 12.0076 20.3424L12.1516 19.6064C12.1836 19.4411 12.2423 19.2891 12.3276 19.1504C12.4129 19.0117 12.5143 18.8917 12.6316 18.7904C12.7543 18.6891 12.8929 18.6117 13.0476 18.5584C13.2023 18.4997 13.3623 18.4704 13.5276 18.4704H13.9756C14.1783 18.4704 14.3676 18.5104 14.5436 18.5904C14.7249 18.6651 14.8823 18.7691 15.0156 18.9024C15.1489 19.0357 15.2556 19.1931 15.3356 19.3744C15.4156 19.5504 15.4556 19.7397 15.4556 19.9424V22.1104ZM18.519 17.7504L19.255 18.6944L18.111 19.6624C18.0843 19.6784 18.0656 19.7104 18.055 19.7584C18.0443 19.8011 18.0656 19.8437 18.119 19.8864L19.015 20.5584C19.2496 20.2704 19.5083 19.9877 19.791 19.7104L20.439 19.0864L21.359 19.8704L20.759 20.4624C20.5883 20.6277 20.4283 20.8091 20.279 21.0064C20.135 21.1984 19.9963 21.3904 19.863 21.5824L17.775 24.5824L16.671 23.9104L18.383 21.4944C18.3723 21.5051 18.3216 21.5077 18.231 21.5024C18.1456 21.4971 18.047 21.4491 17.935 21.3584L17.303 20.8704C17.111 20.7264 16.9723 20.5557 16.887 20.3584C16.807 20.1611 16.7723 19.9611 16.783 19.7584C16.7936 19.5504 16.847 19.3531 16.943 19.1664C17.039 18.9744 17.1696 18.8117 17.335 18.6784L18.519 17.7504ZM23.7448 20.8304C23.9475 20.8304 24.1368 20.8704 24.3128 20.9504C24.4941 21.0251 24.6515 21.1291 24.7848 21.2624C24.9181 21.3957 25.0221 21.5531 25.0968 21.7344C25.1768 21.9157 25.2168 22.1077 25.2168 22.3104V22.7104C25.2168 22.9131 25.1768 23.1051 25.0968 23.2864C25.0221 23.4677 24.9181 23.6251 24.7848 23.7584C24.6515 23.8917 24.4941 23.9984 24.3128 24.0784C24.1368 24.1531 23.9475 24.1904 23.7448 24.1904H23.3448C23.1475 24.1904 22.9581 24.1531 22.7768 24.0784C22.6008 23.9984 22.4461 23.8917 22.3128 23.7584C22.1795 23.6251 22.0728 23.4677 21.9928 23.2864C21.9128 23.1051 21.8728 22.9131 21.8728 22.7104V22.3104C21.8728 22.1077 21.9101 21.9157 21.9848 21.7344C22.0648 21.5531 22.1715 21.3957 22.3048 21.2624C22.4381 21.1291 22.5928 21.0251 22.7688 20.9504C22.9501 20.8704 23.1421 20.8304 23.3448 20.8304H23.7448ZM23.9368 22.6784V22.2944C23.9261 22.2037 23.8755 22.1584 23.7848 22.1584H23.3208C23.2781 22.1531 23.2408 22.1664 23.2088 22.1984C23.1821 22.2251 23.1688 22.2597 23.1688 22.3024V22.6784C23.1688 22.7211 23.1821 22.7557 23.2088 22.7824C23.2408 22.8091 23.2781 22.8224 23.3208 22.8224H23.7848C23.8435 22.8224 23.8835 22.8091 23.9048 22.7824C23.9261 22.7557 23.9368 22.7211 23.9368 22.6784ZM27.9643 17.7504L28.7003 18.6944L27.5563 19.6624C27.5296 19.6784 27.511 19.7104 27.5003 19.7584C27.4896 19.8011 27.511 19.8437 27.5643 19.8864L28.4603 20.5584C28.695 20.2704 28.9536 19.9877 29.2363 19.7104L29.8843 19.0864L30.8043 19.8704L30.2043 20.4624C30.0336 20.6277 29.8736 20.8091 29.7243 21.0064C29.5803 21.1984 29.4416 21.3904 29.3083 21.5824L27.2203 24.5824L26.1163 23.9104L27.8283 21.4944C27.8176 21.5051 27.767 21.5077 27.6763 21.5024C27.591 21.4971 27.4923 21.4491 27.3803 21.3584L26.7483 20.8704C26.5563 20.7264 26.4176 20.5557 26.3323 20.3584C26.2523 20.1611 26.2176 19.9611 26.2283 19.7584C26.239 19.5504 26.2923 19.3531 26.3883 19.1664C26.4843 18.9744 26.615 18.8117 26.7803 18.6784L27.9643 17.7504ZM32.7021 19.5984L32.4301 19.3424L33.2941 18.2784L34.4461 19.3904C34.6701 19.6037 34.8888 19.8277 35.1021 20.0624C35.3154 20.2917 35.5021 20.5424 35.6621 20.8144C35.8274 21.0811 35.9581 21.3771 36.0541 21.7024C36.1554 22.0277 36.2061 22.3957 36.2061 22.8064C36.2061 23.0571 36.1741 23.2891 36.1101 23.5024C36.0514 23.7157 35.9581 23.9024 35.8301 24.0624C35.7021 24.2171 35.5394 24.3397 35.3421 24.4304C35.1501 24.5157 34.9208 24.5584 34.6541 24.5584C34.4674 24.5584 34.2888 24.5371 34.1181 24.4944C33.9528 24.4517 33.8141 24.3984 33.7021 24.3344C33.5848 24.3931 33.4408 24.4464 33.2701 24.4944C33.0994 24.5371 32.9421 24.5584 32.7981 24.5584C32.4941 24.5584 32.2381 24.5077 32.0301 24.4064C31.8221 24.3051 31.6541 24.1744 31.5261 24.0144C31.3981 23.8491 31.3048 23.6624 31.2461 23.4544C31.1874 23.2411 31.1581 23.0251 31.1581 22.8064C31.1581 22.4651 31.2008 22.1477 31.2861 21.8544C31.3714 21.5557 31.4861 21.2757 31.6301 21.0144C31.7741 20.7477 31.9394 20.4997 32.1261 20.2704C32.3128 20.0357 32.5048 19.8117 32.7021 19.5984ZM33.7021 20.4864C33.3981 20.7637 33.1554 21.0011 32.9741 21.1984C32.7928 21.3904 32.6514 21.5691 32.5501 21.7344C32.4541 21.8944 32.3901 22.0597 32.3581 22.2304C32.3261 22.3957 32.3101 22.5904 32.3101 22.8144C32.3101 22.9744 32.3581 23.0784 32.4541 23.1264C32.5554 23.1691 32.6621 23.1904 32.7741 23.1904H32.7901C32.8594 23.1904 32.9154 23.1664 32.9581 23.1184C33.0061 23.0651 33.0541 22.9531 33.1021 22.7824L33.2221 22.3424L34.3181 22.5584L34.2061 23.0624C34.2328 23.1211 34.2648 23.1584 34.3021 23.1744C34.3394 23.1904 34.3874 23.1984 34.4461 23.1984H34.6141C34.7154 23.1984 34.8141 23.1717 34.9101 23.1184C35.0061 23.0651 35.0541 22.9637 35.0541 22.8144C35.0594 22.5691 35.0381 22.3557 34.9901 22.1744C34.9474 21.9931 34.8728 21.8197 34.7661 21.6544C34.6648 21.4837 34.5261 21.3077 34.3501 21.1264C34.1741 20.9451 33.9581 20.7317 33.7021 20.4864ZM37.6254 20.8464H38.8254V22.0704H37.6254V20.8464ZM37.6254 23.3424H38.8254V24.5664H37.6254V23.3424ZM43.8272 23.2064H44.0512C44.0779 23.2064 44.1019 23.2197 44.1232 23.2464C44.1499 23.2731 44.1632 23.3024 44.1632 23.3344V24.4544C44.1632 24.4811 44.1526 24.5077 44.1312 24.5344C44.1099 24.5557 44.0832 24.5664 44.0512 24.5664H43.9312C43.7126 24.5664 43.5206 24.5237 43.3552 24.4384C43.1952 24.3531 43.0592 24.2571 42.9472 24.1504C42.7979 24.3051 42.6352 24.4144 42.4592 24.4784C42.2832 24.5371 42.0992 24.5664 41.9072 24.5664H40.8992C40.7339 24.5664 40.5766 24.5344 40.4272 24.4704C40.2779 24.4064 40.1472 24.3211 40.0352 24.2144C39.9232 24.1024 39.8352 23.9717 39.7712 23.8224C39.7072 23.6731 39.6752 23.5157 39.6752 23.3504V22.1504H40.6352V23.0784C40.6352 23.1637 40.6806 23.2064 40.7712 23.2064H41.9232C42.0352 23.2064 42.1339 23.1717 42.2192 23.1024C42.3046 23.0277 42.3312 22.9291 42.2992 22.8064L41.6192 20.3664L42.7152 19.9664L43.5712 23.0144C43.5872 23.0731 43.6192 23.1211 43.6672 23.1584C43.7152 23.1904 43.7686 23.2064 43.8272 23.2064ZM45.1705 22.2784L44.3465 21.4864L46.8985 18.4864L47.7305 19.2544L46.2425 21.0144H49.1945C49.3972 21.0144 49.5865 21.0544 49.7625 21.1344C49.9439 21.2091 50.1012 21.3131 50.2345 21.4464C50.3679 21.5797 50.4719 21.7371 50.5465 21.9184C50.6265 22.0944 50.6665 22.2864 50.6665 22.4944V23.0864C50.6665 23.2997 50.6239 23.4971 50.5385 23.6784C50.4532 23.8597 50.3385 24.0171 50.1945 24.1504C50.0559 24.2837 49.8959 24.3877 49.7145 24.4624C49.5332 24.5317 49.3439 24.5664 49.1465 24.5664H44.0505C44.0239 24.5664 43.9999 24.5557 43.9785 24.5344C43.9519 24.5077 43.9385 24.4811 43.9385 24.4544V23.3184C43.9385 23.2917 43.9492 23.2677 43.9705 23.2464C43.9919 23.2197 44.0185 23.2064 44.0505 23.2064H49.3705C49.3972 23.2064 49.4265 23.1957 49.4585 23.1744C49.4959 23.1531 49.5145 23.1157 49.5145 23.0624V22.4624C49.5145 22.4091 49.4959 22.3664 49.4585 22.3344C49.4212 22.2971 49.3785 22.2784 49.3305 22.2784H45.1705Z" fill="black"/>
</svg>
