<svg width="182" height="17" viewBox="0 0 182 17" fill="none" xmlns="http://www.w3.org/2000/svg">
<path d="M3.05324 6.33517V9.11392C3.05324 9.36092 3.13874 9.56992 3.30974 9.74092C3.49024 9.91192 3.70399 9.99742 3.95099 9.99742H9.93599C10.05 9.99742 10.145 9.95942 10.221 9.88342C10.297 9.80742 10.335 9.71717 10.335 9.61267V6.74842H12.4012V9.58417C12.4012 9.68867 12.4392 9.78367 12.5152 9.86917C12.5912 9.95467 12.6862 9.99742 12.8002 9.99742H13.2135C13.261 9.99742 13.3037 10.0212 13.3417 10.0687C13.3892 10.1067 13.413 10.1494 13.413 10.1969V12.2204C13.413 12.2679 13.3892 12.3154 13.3417 12.3629C13.3037 12.4009 13.261 12.4199 13.2135 12.4199H13.128C12.7955 12.4199 12.482 12.3629 12.1875 12.2489C11.893 12.1349 11.6222 11.9449 11.3752 11.6789C11.1187 11.9544 10.8385 12.1492 10.5345 12.2632C10.2305 12.3677 9.90749 12.4199 9.56549 12.4199H4.15049C3.71349 12.4199 3.30024 12.3392 2.91074 12.1777C2.53074 12.0067 2.19824 11.7787 1.91324 11.4937C1.62824 11.1992 1.40024 10.8619 1.22924 10.4819C1.06774 10.0924 0.986992 9.67917 0.986992 9.24217V6.33517H3.05324ZM4.83449 4.41142H6.68699V6.33517H4.83449V4.41142ZM6.68699 4.41142H8.53949V6.33517H6.68699V4.41142ZM18.3497 12.2204C18.3497 12.2679 18.326 12.3154 18.2785 12.3629C18.2405 12.4009 18.193 12.4199 18.136 12.4199H17.1385C16.844 12.4199 16.5685 12.3677 16.312 12.2632C16.0555 12.1492 15.818 11.9544 15.5995 11.6789C15.3525 11.9544 15.0865 12.1492 14.8015 12.2632C14.526 12.3677 14.2362 12.4199 13.9322 12.4199H13.2197C13.1722 12.4199 13.1295 12.4009 13.0915 12.3629C13.044 12.3154 13.0202 12.2679 13.0202 12.2204V10.2112C13.0202 10.1542 13.044 10.1067 13.0915 10.0687C13.1295 10.0212 13.1722 9.99742 13.2197 9.99742H14.1745C14.2885 9.99742 14.393 9.96417 14.488 9.89767C14.583 9.82167 14.64 9.72192 14.659 9.59842L15.229 6.74842L17.2525 7.11892L16.7822 9.49867C16.7537 9.65067 16.7727 9.77417 16.8392 9.86917C16.9057 9.95467 17.0055 9.99742 17.1385 9.99742H18.136C18.193 9.99742 18.2405 10.0212 18.2785 10.0687C18.326 10.1162 18.3497 10.1637 18.3497 10.2112V12.2204ZM14.6732 14.1442H16.5257V16.0679H14.6732V14.1442ZM27.0529 9.45592C27.0529 9.86442 26.9722 10.2492 26.8107 10.6102C26.6587 10.9712 26.4497 11.2847 26.1837 11.5507C25.9177 11.8167 25.6042 12.0304 25.2432 12.1919C24.8822 12.3439 24.4974 12.4199 24.0889 12.4199H18.1182C18.0707 12.4199 18.0279 12.4009 17.9899 12.3629C17.9424 12.3249 17.9187 12.2774 17.9187 12.2204V10.1969C17.9187 10.1494 17.9377 10.1067 17.9757 10.0687C18.0137 10.0212 18.0612 9.99742 18.1182 9.99742H18.4032L19.8282 8.44417V2.34517H21.8802V5.55142C21.8802 5.66542 21.8659 5.78417 21.8374 5.90767C21.8089 6.02167 21.7804 6.12617 21.7519 6.22117C21.7044 6.34467 21.6569 6.45867 21.6094 6.56317C21.6094 6.57267 21.5999 6.59642 21.5809 6.63442C21.5809 6.64392 21.5762 6.65342 21.5667 6.66292C21.8612 6.48242 22.1747 6.34467 22.5072 6.24967C22.8397 6.14517 23.1864 6.09292 23.5474 6.09292H24.4167C24.7872 6.09292 25.1339 6.16417 25.4569 6.30667C25.7799 6.43967 26.0554 6.62492 26.2834 6.86242C26.5209 7.09992 26.7062 7.38017 26.8392 7.70317C26.9817 8.01667 27.0529 8.35867 27.0529 8.72917V9.45592ZM24.5164 9.99742C24.6494 9.99742 24.7634 9.95467 24.8584 9.86917C24.9534 9.77417 25.0009 9.66017 25.0009 9.52717V8.88592C25.0009 8.76242 24.9582 8.66267 24.8727 8.58667C24.7872 8.50117 24.6827 8.45842 24.5592 8.45842H23.1484C22.7399 8.45842 22.4027 8.60567 22.1367 8.90017L21.1534 9.99742H24.5164ZM31.3169 12.2204C31.3169 12.3534 31.2504 12.4199 31.1174 12.4199H30.8324C30.4524 12.4199 30.0914 12.3487 29.7494 12.2062C29.4074 12.0542 29.1129 11.8547 28.8659 11.6077C28.6189 11.3607 28.4194 11.0662 28.2674 10.7242C28.1249 10.3822 28.0536 10.0212 28.0536 9.64117V2.34517H30.1199V9.59842C30.1199 9.71242 30.1579 9.80742 30.2339 9.88342C30.3099 9.95942 30.4049 9.99742 30.5189 9.99742H31.1174C31.1744 9.99742 31.2219 10.0212 31.2599 10.0687C31.2979 10.1067 31.3169 10.1542 31.3169 10.2112V12.2204ZM31.1157 12.4199C31.0587 12.4199 31.0112 12.4009 30.9732 12.3629C30.9352 12.3154 30.9162 12.2679 30.9162 12.2204V10.2254C30.9162 10.1684 30.94 10.1162 30.9875 10.0687C31.0255 10.0212 31.0682 9.99742 31.1157 9.99742H33.9942C34.3552 9.99742 34.7162 9.94042 35.0772 9.82642C35.4382 9.71242 35.7375 9.51292 35.975 9.22792L36.431 8.57242C36.4785 8.51542 36.507 8.47267 36.5165 8.44417C36.526 8.43467 36.5355 8.42517 36.545 8.41567L33.8232 7.61767C33.7377 7.59867 33.6807 7.63192 33.6522 7.71742L33.1107 9.25642L31.3437 8.80042L31.7712 7.36117C31.8757 7.01917 32.0325 6.72942 32.2415 6.49192C32.46 6.24492 32.7022 6.05967 32.9682 5.93617C33.2437 5.80317 33.5335 5.72242 33.8375 5.69392C34.1415 5.66542 34.4265 5.69392 34.6925 5.77942L40.4495 7.50367L39.908 9.41317L38.8677 9.11392C38.7062 9.06642 38.5827 9.05217 38.4972 9.07117C38.4117 9.08067 38.3452 9.09492 38.2977 9.11392V9.59842C38.2977 9.70292 38.3357 9.79792 38.4117 9.88342C38.4877 9.95942 38.5827 9.99742 38.6967 9.99742H40.877C40.9245 9.99742 40.9672 10.0164 41.0052 10.0544C41.0527 10.0829 41.0765 10.1304 41.0765 10.1969V12.2204C41.0765 12.2679 41.0575 12.3154 41.0195 12.3629C40.9815 12.4009 40.934 12.4199 40.877 12.4199H39.452C38.882 12.4199 38.388 12.2774 37.97 11.9924C37.552 11.6979 37.229 11.3084 37.001 10.8239L36.773 11.1232C36.3455 11.5792 35.8325 11.9069 35.234 12.1064C34.645 12.3059 34.037 12.4104 33.41 12.4199H31.1157ZM33.239 2.77267H35.0915V4.69642H33.239V2.77267ZM44.0058 9.99742H45.9011V8.71492C45.8916 8.64842 45.8631 8.59142 45.8156 8.54392C45.7776 8.48692 45.7206 8.45842 45.6446 8.45842H44.3193C44.2528 8.45842 44.1958 8.48217 44.1483 8.52967C44.1103 8.56767 44.0818 8.61042 44.0628 8.65792L43.8491 9.81217C43.8301 9.85967 43.8348 9.90242 43.8633 9.94042C43.9013 9.97842 43.9488 9.99742 44.0058 9.99742ZM41.7828 9.61267L42.0678 8.13067C42.1248 7.83617 42.2246 7.56542 42.3671 7.31842C42.5191 7.06192 42.7043 6.84342 42.9228 6.66292C43.1508 6.48242 43.4026 6.34467 43.6781 6.24967C43.9536 6.14517 44.2386 6.09292 44.5331 6.09292H45.3311C45.6921 6.09292 46.0293 6.16417 46.3428 6.30667C46.6658 6.43967 46.9461 6.62492 47.1836 6.86242C47.4211 7.09992 47.6063 7.38017 47.7393 7.70317C47.8818 8.02617 47.9531 8.36817 47.9531 8.72917V10.3109C47.9531 10.5864 47.8961 10.8524 47.7821 11.1089C47.6681 11.3654 47.5113 11.5934 47.3118 11.7929C47.1218 11.9829 46.8986 12.1349 46.6421 12.2489C46.3951 12.3629 46.1291 12.4199 45.8441 12.4199H44.2766C44.0106 12.4199 43.7446 12.3724 43.4786 12.2774C43.2221 12.1824 42.9751 11.9829 42.7376 11.6789C42.5096 11.9544 42.2626 12.1492 41.9966 12.2632C41.7306 12.3677 41.4503 12.4199 41.1558 12.4199H40.8708C40.8233 12.4199 40.7806 12.4009 40.7426 12.3629C40.6951 12.3249 40.6713 12.2774 40.6713 12.2204V10.1827C40.6713 10.0592 40.7378 9.99742 40.8708 9.99742H41.2983C41.4218 9.99742 41.5216 9.96417 41.5976 9.89767C41.6831 9.82167 41.7448 9.72667 41.7828 9.61267ZM50.0966 11.4509V6.96217H52.1629V11.1659C52.1629 11.3559 52.1961 11.5317 52.2626 11.6932C52.3386 11.8547 52.4384 11.9972 52.5619 12.1207C52.6854 12.2442 52.8279 12.3392 52.9894 12.4057C53.1509 12.4722 53.3219 12.5054 53.5024 12.5054H56.0959C56.3904 12.5054 56.6374 12.4057 56.8369 12.2062C57.0459 11.9972 57.1504 11.7454 57.1504 11.4509V6.74842H59.2166V9.61267C59.2166 9.71717 59.2404 9.80742 59.2879 9.88342C59.3449 9.95942 59.4209 9.99742 59.5159 9.99742H60.3851C60.4421 9.99742 60.4896 10.0212 60.5276 10.0687C60.5751 10.1067 60.5989 10.1494 60.5989 10.1969V12.2204C60.5989 12.2774 60.5751 12.3249 60.5276 12.3629C60.4896 12.4009 60.4421 12.4199 60.3851 12.4199H60.1001C59.8816 12.4199 59.6869 12.3867 59.5159 12.3202C59.3544 12.2442 59.2451 12.1777 59.1881 12.1207V12.3344C59.1881 12.6859 59.1026 13.0184 58.9316 13.3319C58.7606 13.6454 58.5279 13.9209 58.2334 14.1584C57.9484 14.3959 57.6159 14.5812 57.2359 14.7142C56.8654 14.8567 56.4759 14.9279 56.0674 14.9279H53.5736C53.0891 14.9279 52.6331 14.8377 52.2056 14.6572C51.7876 14.4767 51.4219 14.2297 51.1084 13.9162C50.7949 13.6027 50.5479 13.2322 50.3674 12.8047C50.1869 12.3867 50.0966 11.9354 50.0966 11.4509ZM53.7304 4.82467H55.5829V6.74842H53.7304V4.82467ZM60.7231 14.1299H62.5756V16.0537H60.7231V14.1299ZM62.5756 14.1299H64.4281V16.0537H62.5756V14.1299ZM63.6586 9.99742C63.7726 9.99742 63.8676 9.95942 63.9436 9.88342C64.0196 9.79792 64.0576 9.70292 64.0576 9.59842V6.33517H66.1096V9.58417C66.1096 9.97367 66.0336 10.3442 65.8816 10.6957C65.7391 11.0377 65.5396 11.3369 65.2831 11.5934C65.0266 11.8499 64.7226 12.0542 64.3711 12.2062C64.0291 12.3487 63.6634 12.4199 63.2739 12.4199H60.3811C60.3241 12.4199 60.2766 12.4009 60.2386 12.3629C60.2006 12.3154 60.1816 12.2679 60.1816 12.2204V10.2254C60.1816 10.1684 60.2006 10.1162 60.2386 10.0687C60.2766 10.0212 60.3241 9.99742 60.3811 9.99742H63.6586ZM70.8064 6.74842V9.66967C70.8064 9.77417 70.8397 9.85492 70.9062 9.91192C70.9822 9.96892 71.0724 9.99742 71.1769 9.99742H71.8039C71.9369 9.99742 72.0034 10.0639 72.0034 10.1969V12.2204C72.0034 12.3534 71.9369 12.4199 71.8039 12.4199H71.5189C71.4049 12.4199 71.2719 12.3914 71.1199 12.3344C70.9774 12.2679 70.8682 12.1967 70.7922 12.1207V12.3344C70.7922 12.7144 70.7257 13.0612 70.5927 13.3747C70.4692 13.6977 70.2934 13.9874 70.0654 14.2439C69.8374 14.5004 69.5667 14.7237 69.2532 14.9137C68.9397 15.1037 68.6024 15.2604 68.2414 15.3839L66.0042 16.1534L65.3772 14.2582L67.6999 13.4602C68.0229 13.3557 68.2747 13.1704 68.4552 12.9044C68.6452 12.6384 68.7402 12.3392 68.7402 12.0067V6.74842H70.8064ZM72.3192 3.42817H74.1717V5.35192H72.3192V3.42817ZM74.1717 3.42817H76.0242V5.35192H74.1717V3.42817ZM73.5447 9.99742C73.6587 9.99742 73.7537 9.95942 73.8297 9.88342C73.9057 9.79792 73.9437 9.70292 73.9437 9.59842V6.33517H75.9957V9.58417C75.9957 9.97367 75.9197 10.3442 75.7677 10.6957C75.6252 11.0377 75.4257 11.3369 75.1692 11.5934C74.9127 11.8499 74.6087 12.0542 74.2572 12.2062C73.9152 12.3487 73.5494 12.4199 73.1599 12.4199H71.8062C71.7492 12.4199 71.7017 12.4009 71.6637 12.3629C71.6257 12.3154 71.6067 12.2679 71.6067 12.2204V10.2254C71.6067 10.1684 71.6257 10.1162 71.6637 10.0687C71.7017 10.0212 71.7492 9.99742 71.8062 9.99742H73.5447ZM79.3091 6.74842V9.66967C79.3091 9.77417 79.3424 9.85492 79.4089 9.91192C79.4849 9.96892 79.5751 9.99742 79.6796 9.99742H80.3066C80.4396 9.99742 80.5061 10.0639 80.5061 10.1969V12.2204C80.5061 12.3534 80.4396 12.4199 80.3066 12.4199H80.0216C79.9076 12.4199 79.7746 12.3914 79.6226 12.3344C79.4801 12.2679 79.3709 12.1967 79.2949 12.1207V12.3344C79.2949 12.7144 79.2284 13.0612 79.0954 13.3747C78.9719 13.6977 78.7961 13.9874 78.5681 14.2439C78.3401 14.5004 78.0694 14.7237 77.7559 14.9137C77.4424 15.1037 77.1051 15.2604 76.7441 15.3839L74.5069 16.1534L73.8799 14.2582L76.2026 13.4602C76.5256 13.3557 76.7774 13.1704 76.9579 12.9044C77.1479 12.6384 77.2429 12.3392 77.2429 12.0067V6.74842H79.3091ZM77.3284 3.69892H79.1809V5.62267H77.3284V3.69892ZM80.6508 14.1299H82.5033V16.0537H80.6508V14.1299ZM82.5033 14.1299H84.3558V16.0537H82.5033V14.1299ZM83.5863 9.99742C83.7003 9.99742 83.7953 9.95942 83.8713 9.88342C83.9473 9.79792 83.9853 9.70292 83.9853 9.59842V6.33517H86.0373V9.58417C86.0373 9.97367 85.9613 10.3442 85.8093 10.6957C85.6668 11.0377 85.4673 11.3369 85.2108 11.5934C84.9543 11.8499 84.6503 12.0542 84.2988 12.2062C83.9568 12.3487 83.5911 12.4199 83.2016 12.4199H80.3088C80.2518 12.4199 80.2043 12.4009 80.1663 12.3629C80.1283 12.3154 80.1093 12.2679 80.1093 12.2204V10.2254C80.1093 10.1684 80.1283 10.1162 80.1663 10.0687C80.2043 10.0212 80.2518 9.99742 80.3088 9.99742H83.5863ZM90.7342 6.74842V9.66967C90.7342 9.77417 90.7674 9.85492 90.8339 9.91192C90.9099 9.96892 91.0002 9.99742 91.1047 9.99742H91.7317C91.8647 9.99742 91.9312 10.0639 91.9312 10.1969V12.2204C91.9312 12.3534 91.8647 12.4199 91.7317 12.4199H91.4467C91.3327 12.4199 91.1997 12.3914 91.0477 12.3344C90.9052 12.2679 90.7959 12.1967 90.7199 12.1207V12.3344C90.7199 12.7144 90.6534 13.0612 90.5204 13.3747C90.3969 13.6977 90.2212 13.9874 89.9932 14.2439C89.7652 14.5004 89.4944 14.7237 89.1809 14.9137C88.8674 15.1037 88.5302 15.2604 88.1692 15.3839L85.9319 16.1534L85.3049 14.2582L87.6277 13.4602C87.9507 13.3557 88.2024 13.1704 88.3829 12.9044C88.5729 12.6384 88.6679 12.3392 88.6679 12.0067V6.74842H90.7342ZM88.7534 3.69892H90.6059V5.62267H88.7534V3.69892ZM98.2034 11.8357L95.4816 12.1919C94.9116 12.2679 94.3464 12.3249 93.7859 12.3629C93.2254 12.4009 92.6744 12.4199 92.1329 12.4199H91.7339C91.6864 12.4199 91.6436 12.4057 91.6056 12.3772C91.5581 12.3392 91.5344 12.2869 91.5344 12.2204V10.2112C91.5344 10.1542 91.5534 10.1067 91.5914 10.0687C91.6199 10.0212 91.6674 9.99742 91.7339 9.99742H92.5461C92.5081 9.95942 92.4749 9.89767 92.4464 9.81217C92.4274 9.71717 92.4084 9.62217 92.3894 9.52717L92.1614 8.17342C92.0949 7.79342 92.1139 7.42767 92.2184 7.07617C92.3324 6.72467 92.5034 6.41592 92.7314 6.14992C92.9594 5.88392 93.2396 5.67017 93.5721 5.50867C93.9046 5.34717 94.2656 5.26642 94.6551 5.26642H97.4624V7.48942H94.5839C94.4699 7.48942 94.3796 7.53692 94.3131 7.63192C94.2466 7.71742 94.2229 7.81717 94.2419 7.93117L94.5981 9.94042L97.8471 9.56992L98.2034 11.8357ZM108.399 9.85492C108.845 9.94992 109.201 10.1779 109.467 10.5389C109.743 10.8999 109.881 11.3084 109.881 11.7644V12.1919C109.881 12.6384 109.795 13.0564 109.624 13.4459C109.463 13.8449 109.235 14.1869 108.94 14.4719C108.646 14.7664 108.304 14.9992 107.914 15.1702C107.525 15.3412 107.107 15.4267 106.66 15.4267H103.824C103.34 15.4267 102.884 15.3364 102.456 15.1559C102.038 14.9754 101.673 14.7284 101.359 14.4149C101.046 14.1014 100.799 13.7309 100.618 13.3034C100.438 12.8854 100.347 12.4342 100.347 11.9497V8.70067H102.399V11.6504C102.399 12.0304 102.528 12.3487 102.784 12.6052C103.05 12.8617 103.368 12.9899 103.739 12.9899H106.945C107.192 12.9899 107.401 12.9044 107.572 12.7334C107.743 12.5624 107.829 12.3534 107.829 12.1064V11.8784L103.739 10.9237V9.11392C103.739 8.71492 103.805 8.33492 103.938 7.97392C104.071 7.60342 104.261 7.27567 104.508 6.99067C104.755 6.70567 105.05 6.46817 105.392 6.27817C105.743 6.08817 106.133 5.96467 106.56 5.90767L108.84 5.60842L109.182 7.90267L106.56 8.23042C106.323 8.25892 106.128 8.35392 105.976 8.51542C105.824 8.66742 105.748 8.86217 105.748 9.09967V9.29917L108.399 9.85492ZM113.073 12.4199H111.021V2.35942H113.073V12.4199ZM116.354 6.74842V9.66967C116.354 9.77417 116.387 9.85492 116.453 9.91192C116.529 9.96892 116.62 9.99742 116.724 9.99742H117.351C117.484 9.99742 117.551 10.0639 117.551 10.1969V12.2204C117.551 12.3534 117.484 12.4199 117.351 12.4199H117.066C116.952 12.4199 116.819 12.3914 116.667 12.3344C116.525 12.2679 116.415 12.1967 116.339 12.1207V12.3344C116.339 12.7144 116.273 13.0612 116.14 13.3747C116.016 13.6977 115.841 13.9874 115.613 14.2439C115.385 14.5004 115.114 14.7237 114.8 14.9137C114.487 15.1037 114.15 15.2604 113.789 15.3839L111.551 16.1534L110.924 14.2582L113.247 13.4602C113.57 13.3557 113.822 13.1704 114.002 12.9044C114.192 12.6384 114.287 12.3392 114.287 12.0067V6.74842H116.354ZM119.092 9.99742C119.206 9.99742 119.301 9.95942 119.377 9.88342C119.453 9.79792 119.491 9.70292 119.491 9.59842V6.33517H121.543V9.58417C121.543 9.97367 121.467 10.3442 121.315 10.6957C121.172 11.0377 120.973 11.3369 120.716 11.5934C120.46 11.8499 120.156 12.0542 119.804 12.2062C119.462 12.3487 119.097 12.4199 118.707 12.4199H117.353C117.296 12.4199 117.249 12.4009 117.211 12.3629C117.173 12.3154 117.154 12.2679 117.154 12.2204V10.2254C117.154 10.1684 117.173 10.1162 117.211 10.0687C117.249 10.0212 117.296 9.99742 117.353 9.99742H119.092ZM117.382 14.1299H119.234V16.0537H117.382V14.1299ZM123.143 16.1819L122.53 14.2867L124.853 13.4887C125.167 13.3842 125.418 13.1989 125.608 12.9329C125.798 12.6764 125.893 12.3819 125.893 12.0494V6.77692H127.945V11.8357C127.945 12.2442 127.884 12.6337 127.76 13.0042C127.637 13.3842 127.461 13.7309 127.233 14.0444C127.014 14.3579 126.748 14.6334 126.435 14.8709C126.121 15.1084 125.775 15.2889 125.395 15.4124L123.143 16.1819ZM132.347 12.2204C132.347 12.3534 132.281 12.4199 132.148 12.4199H131.863C131.483 12.4199 131.122 12.3487 130.78 12.2062C130.438 12.0542 130.143 11.8547 129.896 11.6077C129.649 11.3607 129.45 11.0662 129.298 10.7242C129.155 10.3822 129.084 10.0212 129.084 9.64117V2.34517H131.15V9.59842C131.15 9.71242 131.188 9.80742 131.264 9.88342C131.34 9.95942 131.435 9.99742 131.549 9.99742H132.148C132.205 9.99742 132.252 10.0212 132.29 10.0687C132.328 10.1067 132.347 10.1542 132.347 10.2112V12.2204ZM142.306 12.2204C142.306 12.3534 142.24 12.4199 142.107 12.4199H141.822C141.48 12.4199 141.152 12.3629 140.838 12.2489C140.525 12.1254 140.245 11.9307 139.998 11.6647C139.732 11.9307 139.437 12.1254 139.114 12.2489C138.801 12.3629 138.468 12.4199 138.117 12.4199H132.146C132.013 12.4199 131.946 12.3534 131.946 12.2204V10.2112C131.946 10.1542 131.965 10.1067 132.003 10.0687C132.041 10.0212 132.089 9.99742 132.146 9.99742H132.431L133.856 8.44417V2.34517H135.908V5.55142C135.908 5.66542 135.894 5.77942 135.865 5.89342C135.846 6.00742 135.822 6.11667 135.794 6.22117C135.765 6.31617 135.737 6.39692 135.708 6.46342C135.68 6.52042 135.661 6.55842 135.651 6.57742C135.632 6.61542 135.618 6.63917 135.609 6.64867C135.609 6.65817 135.604 6.66767 135.594 6.67717C135.889 6.48717 136.202 6.34467 136.535 6.24967C136.877 6.14517 137.224 6.09292 137.575 6.09292H138.444C138.815 6.09292 139.162 6.16417 139.485 6.30667C139.808 6.43967 140.083 6.62492 140.311 6.86242C140.549 7.09992 140.734 7.38017 140.867 7.70317C141.009 8.01667 141.081 8.35867 141.081 8.72917V9.62692C141.09 9.73142 141.133 9.81692 141.209 9.88342C141.285 9.94992 141.375 9.98317 141.48 9.98317H142.107C142.24 9.98317 142.306 10.0497 142.306 10.1827V12.2204ZM138.544 9.99742C138.677 9.99742 138.791 9.95467 138.886 9.86917C138.981 9.77417 139.029 9.66017 139.029 9.52717V8.90017C139.029 8.76717 138.986 8.66267 138.9 8.58667C138.815 8.50117 138.71 8.45842 138.587 8.45842H137.176C136.768 8.45842 136.43 8.60567 136.164 8.90017L135.181 9.99742H138.544ZM136.977 3.21442H138.829V5.13817H136.977V3.21442ZM147.468 12.2204C147.468 12.2679 147.444 12.3154 147.397 12.3629C147.359 12.4009 147.311 12.4199 147.254 12.4199H146.299C146.005 12.4199 145.729 12.3677 145.473 12.2632C145.216 12.1492 144.979 11.9544 144.76 11.6789C144.513 11.9544 144.247 12.1492 143.962 12.2632C143.687 12.3677 143.397 12.4199 143.093 12.4199H142.11C142.062 12.4199 142.02 12.4009 141.982 12.3629C141.934 12.3154 141.91 12.2679 141.91 12.2204V10.2112C141.91 10.1542 141.934 10.1067 141.982 10.0687C142.02 10.0212 142.062 9.99742 142.11 9.99742H143.335C143.449 9.99742 143.554 9.96417 143.649 9.89767C143.744 9.82167 143.801 9.72192 143.82 9.59842L144.39 6.74842L146.413 7.11892L145.943 9.49867C145.915 9.65067 145.934 9.77417 146 9.86917C146.067 9.95467 146.166 9.99742 146.299 9.99742H147.254C147.311 9.99742 147.359 10.0212 147.397 10.0687C147.444 10.1162 147.468 10.1637 147.468 10.2112V12.2204ZM142.765 3.84142H144.618V5.76517H142.765V3.84142ZM144.618 3.84142H146.47V5.76517H144.618V3.84142ZM149.468 5.38042H151.32V3.45667H149.468V5.38042ZM148.997 9.99742C149.111 9.99742 149.206 9.95942 149.282 9.88342C149.358 9.79792 149.396 9.70292 149.396 9.59842V6.33517H151.448V9.58417C151.448 9.97367 151.372 10.3442 151.22 10.6957C151.078 11.0377 150.878 11.3369 150.622 11.5934C150.365 11.8499 150.061 12.0542 149.71 12.2062C149.368 12.3487 149.002 12.4199 148.613 12.4199H147.259C147.202 12.4199 147.154 12.4009 147.116 12.3629C147.078 12.3154 147.059 12.2679 147.059 12.2204V10.2254C147.059 10.1684 147.078 10.1162 147.116 10.0687C147.154 10.0212 147.202 9.99742 147.259 9.99742H148.997ZM154.501 12.4199H152.449V2.35942H154.501V12.4199ZM164.689 9.85492C165.135 9.94992 165.492 10.1779 165.758 10.5389C166.033 10.8999 166.171 11.3084 166.171 11.7644V12.1919C166.171 12.6384 166.085 13.0564 165.914 13.4459C165.753 13.8449 165.525 14.1869 165.23 14.4719C164.936 14.7664 164.594 14.9992 164.204 15.1702C163.815 15.3412 163.397 15.4267 162.95 15.4267H160.115C159.63 15.4267 159.174 15.3364 158.747 15.1559C158.329 14.9754 157.963 14.7284 157.649 14.4149C157.336 14.1014 157.089 13.7309 156.908 13.3034C156.728 12.8854 156.638 12.4342 156.638 11.9497V8.70067H158.69V11.6504C158.69 12.0304 158.818 12.3487 159.074 12.6052C159.34 12.8617 159.659 12.9899 160.029 12.9899H163.235C163.482 12.9899 163.691 12.9044 163.862 12.7334C164.033 12.5624 164.119 12.3534 164.119 12.1064V11.8784L160.029 10.9237V9.11392C160.029 8.71492 160.096 8.33492 160.229 7.97392C160.362 7.60342 160.552 7.27567 160.799 6.99067C161.046 6.70567 161.34 6.46817 161.682 6.27817C162.034 6.08817 162.423 5.96467 162.851 5.90767L165.131 5.60842L165.473 7.90267L162.851 8.23042C162.613 8.25892 162.418 8.35392 162.266 8.51542C162.114 8.66742 162.038 8.86217 162.038 9.09967V9.29917L164.689 9.85492ZM169.363 12.4199H167.311V2.35942H169.363V12.4199ZM176.472 11.8499C176.472 12.2584 176.41 12.6479 176.287 13.0184C176.163 13.3889 175.988 13.7309 175.76 14.0444C175.541 14.3579 175.275 14.6334 174.962 14.8709C174.648 15.1084 174.301 15.2937 173.921 15.4267L171.67 16.1962L171.057 14.3009L173.309 13.5314C173.622 13.4269 173.879 13.2702 174.078 13.0612C174.287 12.8522 174.392 12.5814 174.392 12.2489V12.1777C174.259 12.2537 174.092 12.3154 173.893 12.3629C173.703 12.4009 173.513 12.4199 173.323 12.4199H172.796C172.406 12.4199 172.04 12.3344 171.698 12.1634C171.366 11.9924 171.086 11.7692 170.858 11.4937C170.63 11.2182 170.463 10.9047 170.359 10.5532C170.264 10.1922 170.254 9.82167 170.33 9.44167L170.587 8.13067C170.644 7.83617 170.744 7.56542 170.886 7.31842C171.038 7.07142 171.223 6.85767 171.442 6.67717C171.66 6.49667 171.907 6.35417 172.183 6.24967C172.458 6.14517 172.748 6.09292 173.052 6.09292H173.836C174.197 6.09292 174.539 6.16417 174.862 6.30667C175.185 6.43967 175.465 6.62492 175.703 6.86242C175.94 7.09992 176.125 7.38017 176.258 7.70317C176.401 8.02617 176.472 8.36817 176.472 8.72917V11.8499ZM174.42 9.99742V8.71492C174.401 8.56292 174.316 8.47742 174.164 8.45842H172.824C172.71 8.44892 172.629 8.51542 172.582 8.65792L172.354 9.81217C172.344 9.85967 172.354 9.90242 172.382 9.94042C172.42 9.97842 172.463 9.99742 172.511 9.99742H174.42ZM180.473 12.4199H178.407V3.42817H180.473V12.4199ZM176.612 3.25717V2.44492C176.612 2.16942 176.654 1.93667 176.74 1.74667C176.825 1.54717 176.939 1.38567 177.082 1.26217C177.234 1.13867 177.4 1.04842 177.581 0.991421C177.771 0.924922 177.965 0.891672 178.165 0.891672H181.029V2.65867H178.008C177.923 2.65867 177.88 2.69667 177.88 2.77267V3.25717H176.612Z" fill="white"/>
</svg>
