<svg width="53" height="83" viewBox="0 0 53 83" fill="none" xmlns="http://www.w3.org/2000/svg">
<rect x="0.5" y="0.5" width="51.2581" height="81.2581" rx="6.5" fill="white" stroke="#CF022C"/>
<rect x="5.80859" y="10.6465" width="40.6452" height="42.5806" rx="2" fill="#D9D9D9"/>
<rect x="5.80859" y="71.6133" width="40.6452" height="2.90323" fill="#D9D9D9"/>
<rect x="5.80859" y="66.7754" width="40.6452" height="2.90323" fill="#D9D9D9"/>
<rect x="10.1953" y="56.6621" width="31.9032" height="8.67742" rx="4.33871" fill="black" stroke="black"/>
<rect x="10.1953" y="55.6621" width="31.9032" height="8.67742" rx="4.33871" fill="#ED1944" stroke="#CF022C"/>
<path d="M20.0707 61.0981C20.2041 61.0981 20.3107 61.0714 20.3907 61.0181C20.4707 60.9648 20.5107 60.8901 20.5107 60.7941C20.5107 60.7248 20.4761 60.5968 20.4067 60.4101C20.3427 60.2181 20.1854 59.7888 19.9347 59.1221L19.6787 58.4341L20.6227 57.9861L21.5507 60.5781C21.6147 60.7648 21.6867 60.8981 21.7667 60.9781C21.8521 61.0581 21.9641 61.0981 22.1027 61.0981H22.3107C22.3641 61.0981 22.3907 61.2821 22.3907 61.6501C22.3907 61.8688 22.3827 62.0101 22.3667 62.0741C22.3507 62.1328 22.3321 62.1621 22.3107 62.1621H22.0547C21.8201 62.1621 21.6227 62.1301 21.4627 62.0661C21.3027 61.9968 21.1721 61.8874 21.0707 61.7381C20.9694 61.8874 20.8387 61.9968 20.6787 62.0661C20.5241 62.1301 20.3321 62.1621 20.1027 62.1621H18.2787L18.1987 61.0981H20.0707ZM24.2606 61.0981C24.3886 61.0981 24.4926 61.0634 24.5726 60.9941C24.6579 60.9194 24.7006 60.8181 24.7006 60.6901V59.4101H25.7166V60.7381C25.7166 61.1808 25.5833 61.5301 25.3166 61.7861C25.0553 62.0368 24.7006 62.1621 24.2526 62.1621H22.3086C22.2553 62.1621 22.2286 61.9914 22.2286 61.6501C22.2286 61.2821 22.2553 61.0981 22.3086 61.0981H24.2606ZM24.6446 62.9941V63.9061H22.3886V62.9941H24.6446ZM25.9941 63.0101C26.3621 63.0101 26.6474 62.9088 26.8501 62.7061C27.0528 62.5088 27.1541 62.2288 27.1541 61.8661V59.4101H28.1701V60.6181C28.1701 60.7834 28.2101 60.9061 28.2901 60.9861C28.3754 61.0608 28.5088 61.0981 28.6901 61.0981H28.8341C28.8874 61.0981 28.9141 61.2821 28.9141 61.6501C28.9141 61.9914 28.8874 62.1621 28.8341 62.1621H28.7061C28.5941 62.1621 28.4901 62.1488 28.3941 62.1221C28.2981 62.0901 28.2234 62.0474 28.1701 61.9941C28.1541 62.3941 28.0554 62.7514 27.8741 63.0661C27.6981 63.3808 27.4501 63.6261 27.1301 63.8021C26.8101 63.9834 26.4368 64.0741 26.0101 64.0741H25.7541L25.6661 63.0101H25.9941ZM29.424 61.0981C29.8294 61.0981 30.1627 61.0714 30.424 61.0181C30.6907 60.9648 30.9654 60.8581 31.248 60.6981L31.992 60.2741C31.9387 60.0714 31.8587 59.9354 31.752 59.8661C31.6507 59.7914 31.496 59.7541 31.288 59.7541H29.456L29.576 58.6981H31.48C31.816 58.6981 32.088 58.7568 32.296 58.8741C32.504 58.9861 32.6774 59.1808 32.816 59.4581C32.96 59.7301 33.088 60.1141 33.2 60.6101L31.64 61.5781C31.2774 61.8021 30.9307 61.9568 30.6 62.0421C30.2694 62.1221 29.8614 62.1621 29.376 62.1621H28.832C28.7787 62.1621 28.752 61.9914 28.752 61.6501C28.752 61.2821 28.7787 61.0981 28.832 61.0981H29.424ZM30.4 57.8901V56.9781H31.488V57.8901H30.4Z" fill="white"/>
</svg>
