<svg width="25" height="23" viewBox="0 0 25 23" fill="none" xmlns="http://www.w3.org/2000/svg">
<path fill-rule="evenodd" clip-rule="evenodd" d="M24.5144 5.98141C24.5544 6.18141 24.4244 6.3714 24.2244 6.4114C24.2244 6.4114 24.2144 6.4114 24.2044 6.4114C20.0544 7.0914 16.8644 10.7014 14.8144 14.6414C14.7344 14.7914 14.5644 14.8714 14.3944 14.8214L13.7344 14.6214L13.6644 14.6014C13.2744 14.5314 12.9044 14.7814 12.8344 15.1714C12.7744 15.5014 12.9544 15.8314 13.2644 15.9514L13.3344 15.9714L13.6844 16.0714C13.8744 16.1314 13.9844 16.3314 13.9244 16.5214C13.9244 16.5314 13.9244 16.5414 13.9144 16.5614C13.0144 18.6714 12.4444 20.7614 12.2344 22.4414C12.2044 22.6414 12.0244 22.7814 11.8244 22.7614C11.8144 22.7614 11.7944 22.7614 11.7844 22.7614L8.47444 21.8914C8.35444 21.8614 8.27444 21.7414 8.27444 21.6214C8.27444 20.5414 7.40445 19.6714 6.32445 19.6714C5.65445 19.6714 5.02445 20.0214 4.66445 20.5914C4.57445 20.7414 4.39444 20.8314 4.22444 20.7814L1.55444 20.0814C1.42444 20.0514 1.32444 19.9414 1.29444 19.8114L1.00444 18.4714C1.00444 18.4714 0.994444 18.3714 1.00444 18.3214C1.45444 16.3114 2.54444 14.8614 3.23444 13.3214C3.30444 13.1514 3.49445 13.0714 3.66445 13.1214L3.85444 13.1814L3.92444 13.2014C4.31444 13.2714 4.68445 13.0214 4.75445 12.6314C4.81445 12.3014 4.63444 11.9714 4.32445 11.8414L4.25445 11.8214C4.10445 11.7814 4.02444 11.6214 4.06444 11.4714C4.06444 11.4514 4.07445 11.4414 4.08445 11.4314C7.31445 4.8414 11.9544 1.28141 13.3444 1.19141C13.3844 1.19141 13.4144 1.1914 13.4544 1.2114L24.0344 4.6814C24.1544 4.7214 24.2444 4.82141 24.2744 4.94141L24.5044 5.9914L24.5144 5.98141ZM9.94444 13.5014C9.56444 13.4114 9.17445 13.6414 9.08444 14.0214C8.99444 14.3714 9.19444 14.7414 9.53444 14.8614L11.4244 15.4214L11.4944 15.4414C11.8844 15.5114 12.2544 15.2614 12.3244 14.8714C12.3844 14.5414 12.2044 14.2114 11.8944 14.0814L11.8244 14.0614L9.93444 13.5014H9.94444ZM6.09444 12.3614C5.71444 12.2814 5.33444 12.5414 5.26444 12.9214C5.19444 13.2514 5.38444 13.5914 5.69444 13.7114L5.76444 13.7314L7.65445 14.2914C8.03445 14.4014 8.42444 14.1914 8.53444 13.8114C8.64444 13.4314 8.43444 13.0414 8.05444 12.9314L6.16445 12.3714L6.09444 12.3514V12.3614Z" fill="#10A374" stroke="#006A49" stroke-width="0.47" stroke-linejoin="round"/>
<path fill-rule="evenodd" clip-rule="evenodd" d="M24.084 4.67976C24.084 4.67976 24.114 4.74976 24.084 4.74976C19.714 5.34976 16.394 9.18976 14.304 13.3198C14.224 13.4698 14.054 13.5498 13.884 13.4998L13.384 13.3498L13.314 13.3298C12.924 13.2598 12.554 13.5098 12.484 13.8998C12.424 14.2298 12.604 14.5598 12.914 14.6898L12.984 14.7098L13.204 14.7698C13.394 14.8298 13.504 15.0298 13.444 15.2098C13.444 15.2198 13.444 15.2298 13.434 15.2498C12.614 17.2598 12.084 19.2198 11.874 20.8198C11.854 21.0198 11.664 21.1598 11.474 21.1398C11.454 21.1398 11.444 21.1398 11.424 21.1398L8.11397 20.2698C7.99397 20.2398 7.91397 20.1198 7.91397 19.9998C7.91397 18.9198 7.04397 18.0498 5.96397 18.0498C5.29397 18.0498 4.66397 18.3998 4.30397 18.9698C4.21397 19.1198 4.03397 19.2098 3.86397 19.1598L1.30397 18.4898C1.12397 18.4398 1.01397 18.2698 1.04397 18.0798C1.48397 15.7898 2.07397 13.7798 2.75397 12.0298C2.82397 11.8598 3.00397 11.7698 3.18397 11.8198L3.50397 11.9098L3.57397 11.9298C3.96397 11.9998 4.33397 11.7498 4.40397 11.3598C4.46397 11.0298 4.28397 10.6998 3.97397 10.5698L3.90397 10.5498L3.83397 10.5298C3.64397 10.4698 3.54397 10.2798 3.59397 10.0898C3.59397 10.0698 3.60397 10.0598 3.61397 10.0398C6.85397 3.30976 11.414 1.06977 12.814 1.00977C12.854 1.00977 12.884 1.00976 12.924 1.02976L24.074 4.68977L24.084 4.67976ZM9.59397 12.2298C9.21397 12.1298 8.82397 12.3498 8.72397 12.7298C8.62397 13.0898 8.83397 13.4698 9.19397 13.5898L11.084 14.1498L11.154 14.1698C11.544 14.2398 11.914 13.9898 11.984 13.5998C12.044 13.2698 11.864 12.9398 11.554 12.8098L11.484 12.7898L9.59397 12.2298ZM5.73397 11.0898C5.34397 11.0198 4.97397 11.2698 4.90397 11.6598C4.84397 11.9898 5.02397 12.3198 5.33397 12.4498L5.40397 12.4698L7.29397 13.0298C7.67397 13.1398 8.06397 12.9198 8.17397 12.5398C8.27397 12.1698 8.06397 11.7898 7.70397 11.6698L5.81397 11.1098L5.74397 11.0898H5.73397Z" fill="#00D890"/>
<path d="M7.3735 18.64C8.3335 18.75 9.0635 19.55 9.0935 20.51L8.1035 20.25C7.9835 20.21 7.9035 20.1 7.9035 19.98C7.9035 19.48 7.7135 19 7.3635 18.63M12.8235 1C12.8235 1 12.8935 0.999997 12.9335 1.02L24.0835 4.68C24.0835 4.68 24.1135 4.74 24.0835 4.75C23.9935 4.76 23.9035 4.78 23.8135 4.79L14.1235 1.61C14.1235 1.61 14.0535 1.59 14.0135 1.59C12.6135 1.65 8.0435 3.88 4.8135 10.62C4.73351 10.8 4.8135 11.01 4.98351 11.09C5.0035 11.09 5.0135 11.1 5.0335 11.11L5.1035 11.13L5.1735 11.15C5.1735 11.15 5.2135 11.17 5.2335 11.18C4.9035 11.39 4.8035 11.83 5.0135 12.16C5.0835 12.26 5.1735 12.35 5.2835 12.41C5.1335 12.51 4.9535 12.54 4.7735 12.51L4.7035 12.49L4.3835 12.4C4.2035 12.35 4.0235 12.44 3.9535 12.61C3.2735 14.37 2.68351 16.37 2.24351 18.66C2.24351 18.68 2.24351 18.7 2.24351 18.72L1.32351 18.48C1.14351 18.43 1.0335 18.25 1.0635 18.07C1.5035 15.78 2.0935 13.77 2.7735 12.02C2.8435 11.85 3.0235 11.76 3.2035 11.81L3.5235 11.9L3.5935 11.92C3.9835 11.99 4.3535 11.73 4.4235 11.35C4.4835 11.02 4.30351 10.7 4.00351 10.57L3.9335 10.55L3.8635 10.53C3.6735 10.47 3.5735 10.28 3.6235 10.09C3.6235 10.07 3.6335 10.06 3.6435 10.04C6.8835 3.31 11.4435 1.07 12.8435 1.01L12.8235 1ZM12.6635 13.38L12.7335 13.4C12.7335 13.4 12.7735 13.42 12.7935 13.43C12.4635 13.64 12.3635 14.08 12.5735 14.41C12.6435 14.51 12.7335 14.6 12.8435 14.66C12.6935 14.76 12.5135 14.79 12.3335 14.76L12.2635 14.74L10.3735 14.18C10.1835 14.12 10.0235 13.99 9.9335 13.81L11.0835 14.15L11.1535 14.17C11.5335 14.24 11.9135 13.99 11.9835 13.61C12.0135 13.46 11.9835 13.3 11.9235 13.17L12.6735 13.39L12.6635 13.38ZM8.8835 12.26C8.8835 12.26 8.9735 12.29 9.0135 12.31C8.6835 12.52 8.5835 12.96 8.7935 13.29C8.8635 13.39 8.95351 13.48 9.06351 13.54C8.89351 13.65 8.6735 13.68 8.4835 13.62L6.5935 13.06L6.5235 13.04C6.3635 12.97 6.2335 12.85 6.1535 12.69L7.3035 13.03C7.6835 13.14 8.0735 12.93 8.1835 12.55C8.2335 12.38 8.2135 12.2 8.1435 12.04L8.8935 12.26H8.8835Z" fill="#FAFEFD"/>
<path d="M24.084 4.67976C24.084 4.67976 24.114 4.74976 24.084 4.74976C19.714 5.34976 16.394 9.18976 14.304 13.3198C14.224 13.4698 14.054 13.5498 13.884 13.4998L13.384 13.3498L13.314 13.3298C12.924 13.2598 12.554 13.5098 12.484 13.8998C12.424 14.2298 12.604 14.5598 12.914 14.6898L12.984 14.7098L13.204 14.7698C13.394 14.8298 13.504 15.0298 13.444 15.2098C13.444 15.2198 13.444 15.2298 13.434 15.2498C12.614 17.2598 12.084 19.2198 11.874 20.8198C11.854 21.0198 11.664 21.1598 11.474 21.1398C11.454 21.1398 11.444 21.1398 11.424 21.1398L8.11397 20.2698C7.99397 20.2398 7.91397 20.1198 7.91397 19.9998C7.91397 18.9198 7.04397 18.0498 5.96397 18.0498C5.29397 18.0498 4.66397 18.3998 4.30397 18.9698C4.21397 19.1198 4.03397 19.2098 3.86397 19.1598L1.30397 18.4898C1.12397 18.4398 1.01397 18.2698 1.04397 18.0798C1.48397 15.7898 2.07397 13.7798 2.75397 12.0298C2.82397 11.8598 3.00397 11.7698 3.18397 11.8198L3.50397 11.9098L3.57397 11.9298C3.96397 11.9998 4.33397 11.7498 4.40397 11.3598C4.46397 11.0298 4.28397 10.6998 3.97397 10.5698L3.90397 10.5498L3.83397 10.5298C3.64397 10.4698 3.54397 10.2798 3.59397 10.0898C3.59397 10.0698 3.60397 10.0598 3.61397 10.0398C6.85397 3.30976 11.414 1.06977 12.814 1.00977C12.854 1.00977 12.884 1.00976 12.924 1.02976L24.074 4.68977L24.084 4.67976ZM9.59397 12.2298C9.21397 12.1298 8.82397 12.3498 8.72397 12.7298C8.62397 13.0898 8.83397 13.4698 9.19397 13.5898L11.084 14.1498L11.154 14.1698C11.544 14.2398 11.914 13.9898 11.984 13.5998C12.044 13.2698 11.864 12.9398 11.554 12.8098L11.484 12.7898L9.59397 12.2298ZM5.73397 11.0898C5.34397 11.0198 4.97397 11.2698 4.90397 11.6598C4.84397 11.9898 5.02397 12.3198 5.33397 12.4498L5.40397 12.4698L7.29397 13.0298C7.67397 13.1398 8.06397 12.9198 8.17397 12.5398C8.27397 12.1698 8.06397 11.7898 7.70397 11.6698L5.81397 11.1098L5.74397 11.0898H5.73397Z" stroke="#006A49" stroke-width="0.47" stroke-linejoin="round"/>
</svg>
