<svg width="42" height="41" viewBox="0 0 42 41" fill="none" xmlns="http://www.w3.org/2000/svg">
<path fill-rule="evenodd" clip-rule="evenodd" d="M6.55978 27.2691C4.37978 25.4691 2.28978 23.5191 0.419781 21.3991C0.199781 21.1591 0.179781 20.7991 0.359781 20.5191L2.15978 17.7491C2.22978 17.6391 2.32978 17.5491 2.43978 17.4891L3.65978 16.8691C3.71978 16.8391 3.77978 16.8191 3.84978 16.8191C5.98978 16.6391 7.48978 14.6291 7.03978 12.5291L6.72978 11.0591C6.68978 10.8791 6.72978 10.6891 6.82978 10.5391L8.79978 7.50912C8.84978 7.42912 8.92978 7.35912 9.01978 7.31912L9.85978 6.89912C10.1498 6.74912 10.4998 6.81912 10.7298 7.05912C11.0198 7.37912 11.3298 7.70912 11.6298 8.03912C12.9498 9.47912 14.4098 11.0691 16.0998 12.7391C16.0098 12.7991 15.9398 12.8691 15.8698 12.9591L15.7998 13.0491L14.5698 14.9491C14.2398 15.4591 14.3798 16.1391 14.8898 16.4691C15.3998 16.7991 16.0798 16.6591 16.4098 16.1491L17.6398 14.2491C21.8898 18.1991 27.5298 22.4691 35.7698 26.1991C36.1298 26.3591 36.2998 26.7691 36.1598 27.1391L35.1198 29.8291C35.0598 29.9791 34.9498 30.1091 34.7998 30.1791C32.6498 31.2291 31.9598 33.9491 33.3298 35.8991L33.5298 36.1791C33.6598 36.3691 33.6898 36.6091 33.6098 36.8291L32.4698 39.7991C32.3998 39.9691 32.2798 40.1091 32.1098 40.1891L31.1598 40.6591C30.9898 40.7491 30.7898 40.7591 30.6098 40.6991C25.8098 39.0891 16.5298 34.9591 8.26978 28.6191L8.98978 27.5191C9.31978 27.0091 9.16978 26.3291 8.65978 25.9991C8.18978 25.6991 7.56978 25.7991 7.20978 26.2291L7.13978 26.3191L6.53978 27.2491L6.55978 27.2691ZM9.94978 24.0791C10.4598 24.4091 11.1398 24.2691 11.4698 23.7591L13.9298 19.9591C14.2598 19.4491 14.1198 18.7691 13.6098 18.4391C13.0998 18.1091 12.4198 18.2491 12.0898 18.7591L9.62978 22.5591C9.29978 23.0691 9.43978 23.7491 9.94978 24.0791ZM11.4698 23.7491L9.61978 22.5491L10.5398 23.1491L11.4598 23.7491H11.4698Z" fill="#D5D8D7"/>
<path d="M6.55759 27.2693L6.40759 27.4493C6.50759 27.5293 6.65759 27.5193 6.73759 27.4193C6.73759 27.4193 6.74759 27.4093 6.75759 27.3993L6.55759 27.2693ZM16.0776 12.7593L16.2076 12.9493C16.3176 12.8793 16.3476 12.7293 16.2676 12.6193C16.2676 12.6093 16.2476 12.5893 16.2376 12.5793L16.0676 12.7493L16.0776 12.7593ZM15.8476 12.9693L15.6676 12.8193L15.8576 12.9693H15.8476ZM15.7776 13.0593L15.5876 12.9193L15.7876 13.0593H15.7776ZM17.6376 14.2493L17.7976 14.0793C17.6976 13.9893 17.5576 13.9993 17.4676 14.0893C17.4576 14.0993 17.4476 14.1093 17.4376 14.1293L17.6376 14.2593V14.2493ZM8.28759 28.6493L8.08759 28.5193C8.01759 28.6193 8.04759 28.7593 8.13759 28.8393L8.27759 28.6493H8.28759ZM7.21759 26.2593L7.03759 26.1093L7.22759 26.2593H7.21759ZM7.15759 26.3493L6.96759 26.2093L7.16759 26.3493H7.15759ZM0.417589 21.4093L0.237588 21.5693C2.11759 23.6893 4.20759 25.6593 6.40759 27.4593L6.55759 27.2793L6.70759 27.0993C4.52759 25.3093 2.45759 23.3593 0.597589 21.2593L0.417589 21.4193V21.4093ZM0.357589 20.5293L0.157589 20.3993C-0.0824114 20.7593 -0.0424115 21.2393 0.237588 21.5593L0.417589 21.3993L0.597589 21.2393C0.447589 21.0693 0.437588 20.8293 0.557588 20.6493L0.357589 20.5193V20.5293ZM2.14759 17.7593L1.94759 17.6293L0.147588 20.3993L0.347589 20.5293L0.547588 20.6593L2.34759 17.8893L2.14759 17.7593ZM2.43759 17.5093L2.32759 17.2993C2.17759 17.3793 2.04759 17.4893 1.95759 17.6393L2.15759 17.7693L2.35759 17.8993C2.40759 17.8293 2.46759 17.7693 2.54759 17.7293L2.43759 17.5193V17.5093ZM3.64759 16.8893L3.53759 16.6793L2.31759 17.2993L2.42759 17.5093L2.53759 17.7193L3.75759 17.0993L3.64759 16.8893ZM3.83759 16.8393L3.81759 16.6093C3.71759 16.6093 3.62759 16.6393 3.53759 16.6893L3.64759 16.8993L3.75759 17.1093C3.75759 17.1093 3.82759 17.0793 3.85759 17.0793L3.83759 16.8493V16.8393ZM7.02759 12.5493L6.79759 12.5993C7.20759 14.5593 5.80759 16.4393 3.81759 16.5993L3.83759 16.8293L3.85759 17.0593C6.13759 16.8693 7.73759 14.7293 7.26759 12.4893L7.03759 12.5393L7.02759 12.5493ZM6.72759 11.0793L6.49759 11.1293L6.80759 12.5993L7.03759 12.5493L7.26759 12.4993L6.95759 11.0293L6.72759 11.0793ZM6.81759 10.5593L6.61759 10.4293C6.48759 10.6393 6.43759 10.8893 6.48759 11.1293L6.71759 11.0793L6.94759 11.0293C6.91759 10.9093 6.94759 10.7893 7.00759 10.6793L6.80759 10.5493L6.81759 10.5593ZM8.78759 7.52928L8.58759 7.39928L6.61759 10.4293L6.81759 10.5593L7.01759 10.6893L8.98759 7.65928L8.78759 7.52928ZM8.99759 7.33928L8.88759 7.12928C8.75759 7.18928 8.65759 7.28928 8.57759 7.40928L8.77759 7.53928L8.97759 7.66928C8.97759 7.66928 9.04759 7.58928 9.09759 7.55928L8.98759 7.34928L8.99759 7.33928ZM9.84759 6.90928L9.73759 6.69928L8.89759 7.11928L9.00759 7.32928L9.11759 7.53928L9.95759 7.11928L9.84759 6.90928ZM10.7076 7.06928L10.8776 6.90928C10.5876 6.58928 10.1176 6.50928 9.73759 6.69928L9.84759 6.90928L9.95759 7.11928C10.1576 7.01928 10.3976 7.05928 10.5476 7.22928L10.7176 7.06928H10.7076ZM11.6176 8.04928L11.7876 7.88928C11.4876 7.55928 11.1876 7.22928 10.8876 6.90928L10.7176 7.06928L10.5476 7.22928C10.8376 7.54928 11.1476 7.87928 11.4476 8.20928L11.6176 8.04928ZM16.0776 12.7593L16.2476 12.5893C14.5676 10.9293 13.1076 9.33928 11.7876 7.89928L11.6176 8.05928L11.4476 8.21928C12.7676 9.65928 14.2276 11.2593 15.9276 12.9293L16.0976 12.7593H16.0776ZM15.8476 12.9693L16.0276 13.1193C16.0776 13.0493 16.1476 12.9993 16.2076 12.9493L16.0776 12.7593L15.9476 12.5693C15.8376 12.6393 15.7476 12.7293 15.6676 12.8293L15.8476 12.9793V12.9693ZM15.7776 13.0593L15.9676 13.1993L16.0376 13.1093L15.8476 12.9693L15.6576 12.8293L15.5876 12.9193L15.7776 13.0593ZM14.5476 14.9593L14.7476 15.0893L15.9776 13.1893L15.7776 13.0593L15.5776 12.9293L14.3476 14.8293L14.5476 14.9593ZM14.8776 16.4893L15.0076 16.2893C14.6076 16.0293 14.4876 15.4893 14.7476 15.0893L14.5476 14.9593L14.3476 14.8293C13.9476 15.4493 14.1176 16.2793 14.7376 16.6793L14.8676 16.4793L14.8776 16.4893ZM16.3976 16.1593L16.1976 16.0293C15.9376 16.4293 15.3976 16.5493 14.9976 16.2893L14.8676 16.4893L14.7376 16.6893C15.3576 17.0893 16.1876 16.9193 16.5876 16.2993L16.3876 16.1693L16.3976 16.1593ZM17.6276 14.2593L17.4276 14.1293L16.1976 16.0293L16.3976 16.1593L16.5976 16.2893L17.8276 14.3893L17.6276 14.2593ZM17.6376 14.2493L17.4376 14.1193L17.6376 14.2593L17.8376 14.3893V14.3693L17.6476 14.2393L17.6376 14.2493ZM35.7776 26.2193L35.8776 26.0093C27.6676 22.2893 22.0376 18.0293 17.8076 14.0893L17.6476 14.2593L17.4876 14.4293C21.7576 18.4093 27.4176 22.6993 35.6876 26.4393L35.7876 26.2293L35.7776 26.2193ZM36.1676 27.1593L36.3876 27.2393C36.5676 26.7593 36.3476 26.2093 35.8776 25.9993L35.7776 26.2093L35.6776 26.4193C35.9276 26.5293 36.0376 26.8193 35.9476 27.0593L36.1676 27.1393V27.1593ZM35.1276 29.8493L35.3476 29.9293L36.3876 27.2393L36.1676 27.1593L35.9476 27.0793L34.9076 29.7693L35.1276 29.8493ZM34.8076 30.1993L34.9076 30.4093C35.1076 30.3093 35.2676 30.1393 35.3476 29.9293L35.1276 29.8493L34.9076 29.7693C34.8676 29.8693 34.7976 29.9493 34.7076 29.9893L34.8076 30.1993ZM33.3376 35.9193L33.5276 35.7793C32.2376 33.9393 32.8976 31.3893 34.9076 30.3993L34.8076 30.1893L34.7076 29.9793C32.4276 31.0893 31.6876 33.9793 33.1476 36.0493L33.3376 35.9093V35.9193ZM33.5376 36.1993L33.7276 36.0593L33.5276 35.7793L33.3376 35.9193L33.1476 36.0593L33.3476 36.3393L33.5376 36.1993ZM33.6176 36.8493L33.8376 36.9293C33.9476 36.6393 33.9076 36.3093 33.7276 36.0593L33.5376 36.1993L33.3476 36.3393C33.4376 36.4693 33.4576 36.6293 33.3976 36.7693L33.6176 36.8493ZM32.4776 39.8193L32.6976 39.8993L33.8376 36.9293L33.6176 36.8493L33.3976 36.7693L32.2576 39.7393L32.4776 39.8193ZM32.1276 40.2193L32.2376 40.4293C32.4576 40.3193 32.6176 40.1393 32.7076 39.9093L32.4876 39.8293L32.2676 39.7493C32.2176 39.8693 32.1376 39.9593 32.0276 40.0193L32.1376 40.2293L32.1276 40.2193ZM31.1776 40.6893L31.2876 40.8993L32.2376 40.4293L32.1276 40.2193L32.0176 40.0093L31.0676 40.4793L31.1776 40.6893ZM30.6276 40.7393L30.5576 40.9593C30.7976 41.0393 31.0576 41.0193 31.2876 40.8993L31.1776 40.6893L31.0676 40.4793C30.9476 40.5393 30.8176 40.5493 30.6976 40.5093L30.6276 40.7293V40.7393ZM8.28759 28.6493L8.14759 28.8393C16.4276 35.1993 25.7376 39.3393 30.5576 40.9593L30.6276 40.7393L30.6976 40.5193C25.9176 38.9193 16.6676 34.7993 8.42759 28.4693L8.28759 28.6593V28.6493ZM9.00759 27.5493L8.80759 27.4193L8.08759 28.5193L8.28759 28.6493L8.48759 28.7793L9.20759 27.6793L9.00759 27.5493ZM8.67759 26.0193L8.54759 26.2193C8.94759 26.4793 9.06759 27.0193 8.80759 27.4193L9.00759 27.5493L9.20759 27.6793C9.60759 27.0593 9.43759 26.2293 8.81759 25.8293L8.68759 26.0293L8.67759 26.0193ZM7.21759 26.2593L7.39759 26.4093C7.67759 26.0593 8.16759 25.9893 8.54759 26.2293L8.67759 26.0293L8.80759 25.8293C8.22759 25.4593 7.46759 25.5793 7.03759 26.1093L7.21759 26.2593ZM7.15759 26.3493L7.34759 26.4893L7.41759 26.3993L7.22759 26.2593L7.03759 26.1193L6.96759 26.2093L7.15759 26.3493ZM6.55759 27.2693L6.75759 27.3993L7.35759 26.4693L7.15759 26.3393L6.95759 26.2093L6.35759 27.1393L6.55759 27.2693ZM11.4676 23.7493L11.2676 23.6193C11.0076 24.0193 10.4676 24.1293 10.0676 23.8693L9.93759 24.0693L9.80759 24.2693C10.4276 24.6693 11.2576 24.4993 11.6576 23.8793L11.4576 23.7493H11.4676ZM13.9376 19.9593L13.7376 19.8293L11.2676 23.6293L11.4676 23.7593L11.6676 23.8893L14.1276 20.0893L13.9276 19.9593H13.9376ZM13.6076 18.4293L13.4776 18.6293C13.8776 18.8893 13.9976 19.4293 13.7376 19.8293L13.9376 19.9593L14.1376 20.0893C14.5376 19.4693 14.3676 18.6393 13.7476 18.2393L13.6176 18.4393L13.6076 18.4293ZM12.0876 18.7593L12.2876 18.8893C12.5476 18.4893 13.0876 18.3693 13.4876 18.6293L13.6176 18.4293L13.7476 18.2293C13.1276 17.8293 12.2976 17.9993 11.8976 18.6193L12.0976 18.7493L12.0876 18.7593ZM9.61759 22.5493L9.81759 22.6793L12.2776 18.8793L12.0776 18.7493L11.8776 18.6193L9.41759 22.4193L9.61759 22.5493ZM9.94759 24.0793L10.0776 23.8793C9.67759 23.6193 9.55759 23.0793 9.81759 22.6793L9.61759 22.5493L9.41759 22.4193C9.01759 23.0393 9.18759 23.8693 9.80759 24.2693L9.93759 24.0693L9.94759 24.0793ZM9.61759 22.5493L9.48759 22.7493L11.3376 23.9493L11.4676 23.7493L11.5976 23.5493L9.74759 22.3493L9.61759 22.5493ZM10.5476 23.1493L10.6776 22.9493L9.75759 22.3493L9.62759 22.5493L9.49759 22.7493L10.4176 23.3493L10.5476 23.1493ZM11.4676 23.7493L11.5976 23.5493L10.6776 22.9493L10.5476 23.1493L10.4176 23.3493L11.3376 23.9493L11.4676 23.7493Z" fill="#6F7070"/>
<path fill-rule="evenodd" clip-rule="evenodd" d="M18.4768 14.4883C22.8268 17.9683 28.6468 21.6283 37.2468 25.4783C37.6068 25.6383 37.7768 26.0483 37.6368 26.4183L36.6168 29.0783C36.5468 29.2483 36.4168 29.3883 36.2568 29.4783L35.5868 29.8083C33.6368 30.7583 32.6768 32.9983 33.3168 35.0683L33.6868 36.2683C33.7368 36.4283 33.7268 36.5983 33.6668 36.7483L32.6268 39.4383C32.4868 39.8083 32.0868 39.9983 31.7168 39.8683C26.8168 38.1783 17.8068 34.0983 9.75681 27.9183L10.4768 26.8183C10.8068 26.3083 10.6668 25.6283 10.1468 25.2983C9.67681 24.9883 9.04681 25.0883 8.68681 25.5283L8.61681 25.6183L8.01681 26.5483C5.83681 24.7483 3.74681 22.7983 1.87681 20.6783C1.65681 20.4283 1.63681 20.0783 1.81681 19.7983L3.53681 17.1483C3.65681 16.9683 3.84681 16.8583 4.05681 16.8383C6.97681 16.6083 9.00681 13.8383 8.34681 10.9883L8.20681 10.3683C8.16681 10.1783 8.20681 9.96829 8.30681 9.79829L9.94681 7.26829C10.1168 7.00829 10.4568 6.93829 10.7168 7.10829C10.7568 7.13829 10.7968 7.16829 10.8268 7.19829C12.5368 9.08829 14.4268 11.0483 16.7768 13.0683L16.0268 14.2183C15.6968 14.7283 15.8368 15.4083 16.3468 15.7383C16.8568 16.0683 17.5368 15.9283 17.8668 15.4183L18.4768 14.4783V14.4883ZM11.4168 23.3383C11.9268 23.6683 12.6068 23.5283 12.9368 23.0183L15.3968 19.2183C15.7268 18.7083 15.5868 18.0283 15.0768 17.6983C14.5668 17.3683 13.8868 17.5083 13.5568 18.0183L11.0968 21.8183C10.7668 22.3283 10.9068 23.0083 11.4168 23.3383ZM12.9368 23.0183L11.0868 21.8183L12.0068 22.4183L12.9268 23.0183H12.9368Z" fill="#FAFEFD"/>
<path fill-rule="evenodd" clip-rule="evenodd" d="M19.3374 15.1692C19.0474 14.9392 18.7574 14.7192 18.4774 14.4892L18.0974 15.0792C18.4574 15.3592 18.9474 15.3992 19.3374 15.1692ZM11.1774 7.59921C11.0574 7.46921 10.9374 7.3392 10.8174 7.2092C10.6174 6.9792 10.2674 6.95921 10.0374 7.16921C9.99741 7.19921 9.96741 7.23921 9.94741 7.27921L8.30741 9.8092C8.19741 9.9792 8.16741 10.1792 8.20741 10.3792L8.34741 10.9992C8.83741 13.1192 7.83741 15.1992 6.09741 16.2192C8.90741 15.8892 10.8374 13.1792 10.1874 10.3892L10.0474 9.7692C10.0074 9.5792 10.0474 9.3692 10.1474 9.1992L11.1874 7.59921H11.1774ZM5.36741 16.5492C4.94741 16.7092 4.50741 16.7992 4.05741 16.8392C3.84741 16.8592 3.65741 16.9692 3.53741 17.1492L1.81741 19.7992C1.63741 20.0692 1.66741 20.4292 1.87741 20.6792C3.74741 22.7892 5.82741 24.7492 8.01741 26.5492L8.61741 25.6192L8.68741 25.5292C8.78741 25.4092 8.90741 25.3092 9.03741 25.2492C7.15741 23.6392 5.35741 21.9192 3.71741 20.0692C3.49741 19.8192 3.47741 19.4692 3.65741 19.1892L5.36741 16.5492ZM10.2374 25.3492C10.6774 25.6992 10.7874 26.3392 10.4774 26.8092L9.75741 27.9092C17.8074 34.0892 26.8174 38.1692 31.7174 39.8592C32.0874 39.9892 32.4874 39.7992 32.6274 39.4292L32.7974 38.9792C27.7674 37.1492 19.2474 33.1692 11.5874 27.2892L12.3074 26.1892C12.6374 25.6792 12.4974 24.9992 11.9774 24.6692C11.5074 24.3592 10.8774 24.4592 10.5174 24.8992L10.4474 24.9892L10.2174 25.3392L10.2374 25.3492ZM14.7774 22.4092C14.4474 22.9192 13.7674 23.0692 13.2574 22.7292C13.2274 22.7092 13.1974 22.6892 13.1674 22.6692L13.7674 21.7492L14.7774 22.4092ZM15.1674 17.7592C15.6074 18.1092 15.7174 18.7492 15.4074 19.2192L13.7674 21.7492L13.8574 21.8092L14.7774 22.4092L17.2374 18.6092C17.5674 18.0992 17.4274 17.4192 16.9174 17.0892C16.4074 16.7592 15.7274 16.8992 15.3974 17.4092L15.1674 17.7592Z" fill="#D5D8D7"/>
<path d="M18.4763 14.4883C22.8263 17.9683 28.6463 21.6283 37.2463 25.4783C37.6063 25.6383 37.7763 26.0483 37.6363 26.4183L36.6163 29.0783C36.5463 29.2483 36.4163 29.3883 36.2563 29.4783L35.5863 29.8083C33.6363 30.7583 32.6763 32.9983 33.3163 35.0683L33.6863 36.2683C33.7363 36.4283 33.7263 36.5983 33.6663 36.7483L32.6263 39.4383C32.4863 39.8083 32.0863 39.9983 31.7163 39.8683C26.8163 38.1783 17.8063 34.0983 9.75634 27.9183L10.4763 26.8183C10.8063 26.3083 10.6663 25.6283 10.1563 25.2983C9.64634 24.9683 8.96634 25.1083 8.63634 25.6183L8.03634 26.5483C5.85634 24.7483 3.76634 22.7983 1.89634 20.6783C1.67634 20.4283 1.65634 20.0783 1.83634 19.7983L3.55634 17.1483C3.67634 16.9683 3.86634 16.8583 4.07634 16.8383C6.99634 16.6083 9.02634 13.8383 8.36634 10.9883L8.22634 10.3683C8.18634 10.1783 8.22634 9.96829 8.32634 9.79829L9.96634 7.26829C10.1363 7.00829 10.4763 6.93829 10.7363 7.10829C10.7763 7.13829 10.8163 7.16829 10.8463 7.19829C12.5563 9.08829 14.4463 11.0483 16.7963 13.0683L16.0463 14.2183C15.7163 14.7283 15.8563 15.4083 16.3663 15.7383C16.8363 16.0483 17.4663 15.9483 17.8263 15.5083L17.8963 15.4183L18.5063 14.4783L18.4763 14.4883ZM15.0763 17.6983C14.5663 17.3683 13.8863 17.5083 13.5563 18.0183L11.0963 21.8183C10.7663 22.3283 10.9063 23.0083 11.4163 23.3383C11.9263 23.6683 12.6063 23.5283 12.9363 23.0183L15.3963 19.2183C15.7263 18.7083 15.5863 18.0283 15.0763 17.6983Z" stroke="#6F7070" stroke-width="0.47" stroke-linejoin="round"/>
<path d="M36.1769 20.1089L36.3869 19.9989C36.3269 19.8889 36.1869 19.8389 36.0669 19.8989L36.1769 20.1089ZM26.0869 25.5689L25.9769 25.3589C25.8669 25.4189 25.8169 25.5589 25.8769 25.6789C25.8769 25.6789 25.8769 25.6889 25.8869 25.6989L26.0769 25.5689H26.0869ZM24.8769 23.7089L24.6769 23.8289C24.7469 23.9389 24.8769 23.9689 24.9869 23.9089L24.8769 23.6989V23.7089ZM35.1969 18.1389L35.3069 18.3489C35.4169 18.2889 35.4569 18.1589 35.4069 18.0489L35.1969 18.1489V18.1389ZM39.5269 24.9789L39.7069 24.8289C38.3969 23.3289 37.3069 21.6989 36.3869 20.0089L36.1769 20.1189L35.9669 20.2289C36.8969 21.9489 38.0169 23.6089 39.3469 25.1389L39.5269 24.9889V24.9789ZM39.3769 25.8389L39.4869 26.0489C39.9369 25.7989 40.0369 25.1989 39.6969 24.8189L39.5169 24.9689L39.3369 25.1189C39.4569 25.2589 39.4469 25.4589 39.3069 25.5889C39.2869 25.5989 39.2669 25.6189 39.2569 25.6289L39.3669 25.8389H39.3769ZM37.3269 26.9589L37.4369 27.1689L39.4869 26.0589L39.3769 25.8489L39.2669 25.6389L37.2169 26.7489L37.3269 26.9589ZM36.6169 26.9389L36.4969 27.1389C36.7869 27.3089 37.1469 27.3189 37.4369 27.1589L37.3269 26.9489L37.2169 26.7389C37.0669 26.8189 36.8869 26.8189 36.7369 26.7389L36.6169 26.9389ZM33.3669 28.6089L33.5969 28.6289C33.7269 27.2189 35.2769 26.4289 36.4869 27.1489L36.6069 26.9489L36.7269 26.7489C35.2169 25.8489 33.2869 26.8389 33.1269 28.5889L33.3569 28.6089H33.3669ZM33.3569 28.7389L33.5869 28.7589V28.6289L33.3669 28.6089L33.1369 28.5889V28.7189L33.3569 28.7389ZM32.9769 29.3189L33.0869 29.5289C33.3769 29.3789 33.5569 29.0889 33.5869 28.7589L33.3569 28.7389L33.1269 28.7189C33.1169 28.8889 33.0169 29.0289 32.8669 29.1089L32.9769 29.3189ZM30.7769 30.5089L30.8869 30.7189L33.0869 29.5289L32.9769 29.3189L32.8669 29.1089L30.6669 30.2989L30.7769 30.5089ZM29.9069 30.3689L29.7369 30.5289C30.0369 30.8489 30.5069 30.9189 30.8969 30.7089L30.7869 30.4989L30.6769 30.2889C30.4769 30.3989 30.2369 30.3589 30.0869 30.1989L29.9169 30.3589L29.9069 30.3689ZM26.0869 25.5689L25.8969 25.6989C27.3169 27.7689 28.6969 29.4089 29.7469 30.5389L29.9169 30.3789L30.0869 30.2189C29.0569 29.1189 27.6869 27.4889 26.2869 25.4389L26.0969 25.5689H26.0869ZM26.8169 25.1689L26.7069 24.9589L25.9769 25.3589L26.0869 25.5689L26.1969 25.7789L26.9269 25.3789L26.8169 25.1689ZM27.2569 23.6789L27.0469 23.7889C27.2769 24.2089 27.1169 24.7389 26.6969 24.9589L26.8069 25.1689L26.9169 25.3789C27.5669 25.0289 27.8069 24.2189 27.4569 23.5689L27.2469 23.6789H27.2569ZM25.7669 23.2289L25.8769 23.4389C26.2969 23.2089 26.8269 23.3689 27.0469 23.7889L27.2569 23.6789L27.4669 23.5689C27.1169 22.9189 26.3069 22.6789 25.6569 23.0289L25.7669 23.2389V23.2289ZM24.8769 23.7089L24.9869 23.9189L25.8769 23.4389L25.7669 23.2289L25.6569 23.0189L24.7669 23.4989L24.8769 23.7089ZM19.5369 7.44894H19.2969C19.6069 13.8889 22.0469 19.5589 24.6669 23.8289L24.8669 23.7089L25.0669 23.5889C22.4769 19.3489 20.0669 13.7589 19.7569 7.43894H19.5269L19.5369 7.44894ZM19.9369 6.76894L19.8269 6.55894C19.4969 6.72894 19.2869 7.07894 19.3069 7.45894H19.5469L19.7769 7.43894C19.7769 7.24894 19.8769 7.06894 20.0469 6.97894L19.9369 6.76894ZM23.0769 5.14894L22.9669 4.93894L19.8269 6.56894L19.9369 6.77894L20.0469 6.98894L23.1869 5.35894L23.0769 5.14894ZM23.6469 5.20894L23.7969 5.02894C23.5669 4.82894 23.2369 4.79894 22.9669 4.93894L23.0769 5.14894L23.1869 5.35894C23.2869 5.30894 23.4069 5.31894 23.4969 5.38894L23.6469 5.20894ZM27.8569 3.62894L27.6269 3.58894C27.3569 5.39894 25.1969 6.20894 23.8069 5.01894L23.6569 5.19894L23.5069 5.37894C25.1869 6.79894 27.7769 5.82894 28.0969 3.65894L27.8669 3.62894H27.8569ZM27.9669 2.88894L27.7369 2.85894L27.6269 3.59894L27.8569 3.63894L28.0869 3.66894L28.1969 2.92894L27.9669 2.88894ZM28.2769 2.44894L28.1669 2.23894C27.9269 2.35894 27.7669 2.58894 27.7269 2.85894L27.9569 2.88894L28.1869 2.92894C28.2069 2.81894 28.2769 2.71894 28.3769 2.65894L28.2669 2.44894H28.2769ZM30.9969 1.03894L30.8869 0.828942L28.1669 2.23894L28.2769 2.44894L28.3869 2.65894L31.1069 1.24894L30.9969 1.03894ZM31.8269 1.56894H32.0669C32.0869 0.96894 31.4469 0.548942 30.8969 0.828942L31.0069 1.03894L31.1169 1.24894C31.3369 1.13894 31.6069 1.29894 31.5969 1.55894H31.8369L31.8269 1.56894ZM35.1969 18.1389L35.4069 18.0389C32.6269 11.9089 31.9569 5.36894 32.0569 1.56894H31.8169L31.5769 1.55894C31.4769 5.40894 32.1469 12.0289 34.9669 18.2389L35.1769 18.1389H35.1969ZM34.5669 18.4789L34.6769 18.6889L35.3069 18.3489L35.1969 18.1389L35.0869 17.9289L34.4569 18.2689L34.5669 18.4789ZM34.1169 19.9689L34.3269 19.8589C34.0969 19.4389 34.2569 18.9089 34.6769 18.6889L34.5669 18.4789L34.4569 18.2689C33.8069 18.6189 33.5669 19.4289 33.9169 20.0789L34.1269 19.9689H34.1169ZM35.6069 20.4189L35.4969 20.2089C35.0769 20.4389 34.5469 20.2789 34.3269 19.8589L34.1169 19.9689L33.9069 20.0789C34.2569 20.7289 35.0669 20.9689 35.7169 20.6189L35.6069 20.4089V20.4189ZM36.1769 20.1089L36.0669 19.8989L35.5069 20.1989L35.6169 20.4089L35.7269 20.6189L36.2869 20.3189L36.1769 20.1089ZM31.6269 20.0589L31.7369 20.2689C32.1569 20.0389 32.6869 20.1989 32.9069 20.6189L33.1169 20.5089L33.3269 20.3989C32.9769 19.7489 32.1669 19.5089 31.5169 19.8589L31.6269 20.0689V20.0589ZM28.6969 21.6489L28.8069 21.8589L31.7369 20.2789L31.6269 20.0689L31.5169 19.8589L28.5869 21.4389L28.6969 21.6489ZM28.2569 23.1389L28.4669 23.0289C28.2369 22.6089 28.3969 22.0789 28.8169 21.8589L28.7069 21.6489L28.5969 21.4389C27.9469 21.7889 27.7069 22.5989 28.0569 23.2489L28.2669 23.1389H28.2569ZM29.7469 23.5889L29.6369 23.3789C29.2169 23.6089 28.6869 23.4489 28.4669 23.0289L28.2569 23.1389L28.0469 23.2489C28.3969 23.8989 29.2069 24.1389 29.8569 23.7889L29.7469 23.5789V23.5889ZM32.6769 21.9989L32.5669 21.7889L29.6369 23.3689L29.7469 23.5789L29.8569 23.7889L32.7869 22.2089L32.6769 21.9989ZM33.1269 20.5089L32.9169 20.6189C33.1469 21.0389 32.9869 21.5689 32.5669 21.7889L32.6769 21.9989L32.7869 22.2089C33.4369 21.8589 33.6769 21.0489 33.3269 20.3989L33.1169 20.5089H33.1269Z" fill="#BA1328"/>
<path fill-rule="evenodd" clip-rule="evenodd" d="M36.1773 20.1087C37.1073 21.8187 38.2073 23.4587 39.5273 24.9687C39.7673 25.2387 39.6973 25.6587 39.3773 25.8387L37.3273 26.9487C37.1073 27.0687 36.8373 27.0687 36.6173 26.9387C35.2573 26.1287 33.5173 27.0187 33.3773 28.5987V28.7287C33.3473 28.9787 33.1973 29.1887 32.9873 29.3087L30.7873 30.4987C30.4973 30.6587 30.1373 30.5987 29.9173 30.3587C28.8773 29.2487 27.5073 27.6087 26.0973 25.5487L26.8273 25.1487C27.3573 24.8487 27.5473 24.1787 27.2473 23.6487C26.9573 23.1287 26.3073 22.9387 25.7773 23.2087L24.8873 23.6887C22.2773 19.4287 19.8573 13.7987 19.5473 7.42866C19.5373 7.14866 19.6873 6.87866 19.9373 6.74866L23.0773 5.11866C23.2673 5.01866 23.4873 5.04866 23.6473 5.17866C25.1873 6.47866 27.5573 5.58866 27.8573 3.59866L27.9673 2.85866C27.9973 2.66866 28.1173 2.50866 28.2873 2.41866L31.0073 1.00866C31.3873 0.80866 31.8473 1.10866 31.8373 1.53866C31.7373 5.36866 32.4073 11.9487 35.2073 18.1087L34.5773 18.4487C34.0473 18.7487 33.8573 19.4187 34.1573 19.9487C34.4473 20.4687 35.0973 20.6587 35.6273 20.3887L36.1873 20.0887L36.1773 20.1087ZM33.1273 20.5087C32.8373 19.9687 32.1673 19.7687 31.6373 20.0587L28.7073 21.6387C28.1673 21.9287 27.9773 22.5987 28.2573 23.1287C28.5373 23.6587 29.2173 23.8587 29.7473 23.5787L32.6773 21.9987C33.2173 21.7087 33.4073 21.0387 33.1273 20.5087Z" fill="#EB3740"/>
<path fill-rule="evenodd" clip-rule="evenodd" d="M37.65 19.3801C38.58 21.0901 39.68 22.7301 41 24.2401C41.24 24.5101 41.17 24.9301 40.85 25.1101L38.8 26.2201C38.58 26.3401 38.31 26.3401 38.09 26.2101C36.73 25.4001 34.99 26.2901 34.85 27.8701V28.0001C34.82 28.2501 34.67 28.4601 34.46 28.5801L32.26 29.7701C31.97 29.9301 31.61 29.8701 31.39 29.6301C30.35 28.5201 28.98 26.8801 27.57 24.8201L28.3 24.4201C28.83 24.1301 29.03 23.4601 28.73 22.9201C28.44 22.3901 27.78 22.2001 27.25 22.4801L26.36 22.9601C23.75 18.7001 21.33 13.0701 21.02 6.70014C21.01 6.42014 21.16 6.15014 21.41 6.02014L24.55 4.39014C24.74 4.29014 24.96 4.32014 25.12 4.45014C26.66 5.75014 29.03 4.86014 29.33 2.87014L29.44 2.13014C29.47 1.94014 29.59 1.78014 29.76 1.69014L32.48 0.280145C32.86 0.0801446 33.32 0.380143 33.31 0.810143C33.21 4.64014 33.88 11.2201 36.68 17.3801L36.05 17.7201C35.52 18.0201 35.33 18.6901 35.63 19.2201C35.92 19.7401 36.57 19.9301 37.1 19.6601L37.66 19.3601L37.65 19.3801ZM34.6 19.7801C34.31 19.2401 33.64 19.0401 33.11 19.3301L30.18 20.9101C29.64 21.1901 29.43 21.8501 29.71 22.4001C29.99 22.9401 30.65 23.1501 31.2 22.8701C31.21 22.8701 31.22 22.8601 31.23 22.8501L34.16 21.2701C34.7 20.9801 34.89 20.3101 34.61 19.7801" fill="#FF3D3D"/>
<path fill-rule="evenodd" clip-rule="evenodd" d="M32.5683 29.5998C31.5383 28.4898 30.1683 26.8698 28.7783 24.8298L29.5083 24.4298C30.0383 24.1398 30.2383 23.4698 29.9383 22.9298C29.6483 22.3998 28.9883 22.2098 28.4583 22.4898L28.3683 22.5398C28.8783 22.8798 29.0183 23.5598 28.6783 24.0698C28.5783 24.2198 28.4483 24.3398 28.2883 24.4298L27.5583 24.8298C28.9683 26.8898 30.3383 28.5198 31.3783 29.6398C31.6083 29.8798 31.9583 29.9298 32.2483 29.7798L32.5683 29.6098V29.5998ZM27.2783 22.4798L27.2383 22.4998L26.3483 22.9798C23.7383 18.7198 21.3183 13.0898 21.0083 6.71984C20.9983 6.43984 21.1483 6.16984 21.3983 6.03984L24.5383 4.40984C24.7283 4.30984 24.9483 4.33984 25.1083 4.46984C25.1783 4.52984 25.2483 4.57984 25.3183 4.62984L22.6183 6.02985C22.3683 6.15985 22.2183 6.41984 22.2283 6.70984C22.5183 12.8398 24.7783 18.2798 27.2683 22.4698M27.3883 5.00985C28.7783 5.35985 30.3183 4.46984 30.5483 2.88984L30.6583 2.14984C30.6883 1.95984 30.8083 1.79984 30.9783 1.70984L33.2283 0.539844C33.0883 0.279844 32.7583 0.149842 32.4683 0.299842L29.7483 1.70984C29.5783 1.79984 29.4583 1.95984 29.4283 2.14984L29.3183 2.88984C29.1483 4.00984 28.3383 4.77985 27.3783 5.00985M37.1783 19.6298C37.3883 19.7698 37.6383 19.8298 37.8883 19.8098C37.8083 19.6698 37.7283 19.5198 37.6483 19.3798L37.1783 19.6298ZM34.3283 19.3298C34.8683 19.0498 35.5283 19.2498 35.8183 19.7898C36.0983 20.3198 35.8983 20.9798 35.3783 21.2698L32.4483 22.8498C32.0883 23.0398 31.6583 23.0198 31.3183 22.7998L34.1583 21.2698C34.6983 20.9798 34.8983 20.3098 34.6083 19.7798C34.5183 19.6198 34.3983 19.4798 34.2483 19.3798L34.3383 19.3298H34.3283Z" fill="#FF9889"/>
<path d="M37.6495 19.3787L37.8595 19.2687C37.7995 19.1587 37.6595 19.1087 37.5395 19.1787L37.6495 19.3887V19.3787ZM27.5595 24.8287L27.4495 24.6187C27.3395 24.6787 27.2895 24.8187 27.3495 24.9387C27.3495 24.9387 27.3495 24.9487 27.3595 24.9587L27.5495 24.8287H27.5595ZM26.3495 22.9787L26.1495 23.0987C26.2195 23.2087 26.3495 23.2387 26.4595 23.1787L26.3495 22.9687V22.9787ZM36.6695 17.3987L36.7795 17.6087C36.8895 17.5487 36.9295 17.4187 36.8795 17.3087L36.6695 17.4087V17.3987ZM40.9995 24.2387L41.1795 24.0887C39.8695 22.5887 38.7795 20.9587 37.8595 19.2687L37.6495 19.3787L37.4395 19.4887C38.3695 21.2087 39.4895 22.8687 40.8195 24.3987L40.9995 24.2487V24.2387ZM40.8495 25.1087L40.9595 25.3187C41.4095 25.0687 41.5095 24.4687 41.1695 24.0887L40.9895 24.2387L40.8095 24.3887C40.9295 24.5287 40.9195 24.7287 40.7795 24.8487C40.7595 24.8687 40.7395 24.8787 40.7195 24.8887L40.8295 25.0987L40.8495 25.1087ZM38.7995 26.2187L38.9095 26.4287L40.9595 25.3187L40.8495 25.1087L40.7395 24.8987L38.6895 26.0087L38.7995 26.2187ZM38.0895 26.2087L37.9695 26.4087C38.2595 26.5787 38.6195 26.5887 38.9095 26.4287L38.7995 26.2187L38.6895 26.0087C38.5395 26.0887 38.3595 26.0887 38.2095 26.0087L38.0895 26.2087ZM34.8395 27.8687L35.0695 27.8887C35.1995 26.4787 36.7495 25.6887 37.9595 26.4087L38.0795 26.2087L38.1995 26.0087C36.6895 25.1087 34.7595 26.0987 34.5995 27.8487L34.8295 27.8687H34.8395ZM34.8295 27.9987L35.0595 28.0187V27.8887L34.8395 27.8687L34.6095 27.8487V27.9787L34.8295 27.9987ZM34.4495 28.5787L34.5595 28.7887C34.8495 28.6387 35.0295 28.3487 35.0595 28.0187L34.8295 27.9987L34.5995 27.9787C34.5795 28.1487 34.4895 28.2887 34.3395 28.3687L34.4495 28.5787ZM32.2495 29.7687L32.3595 29.9787L34.5595 28.7887L34.4495 28.5787L34.3395 28.3687L32.1395 29.5587L32.2495 29.7687ZM31.3795 29.6387L31.2095 29.7987C31.5095 30.1187 31.9795 30.1887 32.3695 29.9787L32.2595 29.7687L32.1495 29.5587C31.9495 29.6687 31.7095 29.6287 31.5595 29.4687L31.3895 29.6287L31.3795 29.6387ZM27.5595 24.8287L27.3695 24.9587C28.7895 27.0287 30.1695 28.6687 31.2095 29.7987L31.3795 29.6387L31.5495 29.4787C30.5195 28.3787 29.1495 26.7487 27.7495 24.6987L27.5595 24.8287ZM28.2895 24.4387L28.1795 24.2287L27.4495 24.6287L27.5595 24.8387L27.6695 25.0487L28.3995 24.6487L28.2895 24.4387ZM28.7295 22.9387L28.5195 23.0487C28.7495 23.4687 28.5895 23.9987 28.1695 24.2187L28.2795 24.4287L28.3895 24.6387C29.0395 24.2887 29.2795 23.4787 28.9295 22.8287L28.7195 22.9387H28.7295ZM27.2395 22.4987L27.3495 22.7087C27.7695 22.4787 28.2995 22.6387 28.5195 23.0587L28.7295 22.9487L28.9395 22.8387C28.5895 22.1887 27.7795 21.9487 27.1295 22.2987L27.2395 22.5087V22.4987ZM26.3495 22.9787L26.4595 23.1887L27.3495 22.7087L27.2395 22.4987L27.1295 22.2887L26.2395 22.7687L26.3495 22.9787ZM21.0095 6.71871H20.7695C21.0795 13.1587 23.5195 18.8287 26.1395 23.0987L26.3395 22.9787L26.5395 22.8587C23.9495 18.6187 21.5395 13.0287 21.2295 6.70871H20.9995L21.0095 6.71871ZM21.4095 6.03871L21.2995 5.82871C20.9695 5.99871 20.7595 6.34871 20.7795 6.72871H21.0195L21.2495 6.70871C21.2495 6.51871 21.3495 6.33871 21.5195 6.24871L21.4095 6.03871ZM24.5495 4.40871L24.4395 4.19871L21.2995 5.82871L21.4095 6.03871L21.5195 6.24871L24.6595 4.61871L24.5495 4.40871ZM25.1195 4.47871L25.2695 4.29871C25.0395 4.09871 24.7095 4.06871 24.4395 4.20871L24.5495 4.41871L24.6595 4.62871C24.7595 4.57871 24.8795 4.58871 24.9695 4.65871L25.1195 4.47871ZM29.3295 2.89871L29.0995 2.85871C28.8295 4.66871 26.6695 5.47871 25.2795 4.28871L25.1295 4.46871L24.9795 4.64871C26.6595 6.06871 29.2495 5.09871 29.5695 2.92871L29.3395 2.89871H29.3295ZM29.4395 2.14871L29.2095 2.10871L29.0995 2.84871L29.3295 2.88871L29.5595 2.91871L29.6695 2.17871L29.4395 2.14871ZM29.7495 1.70871L29.6395 1.49871C29.3995 1.61871 29.2395 1.84871 29.1995 2.11871L29.4295 2.15871L29.6595 2.18871C29.6795 2.07871 29.7495 1.97871 29.8495 1.91871L29.7395 1.70871H29.7495ZM32.4695 0.298706L32.3595 0.088707L29.6395 1.49871L29.7495 1.70871L29.8595 1.91871L32.5795 0.508709L32.4695 0.298706ZM33.2995 0.828709H33.5395C33.5595 0.228709 32.9195 -0.191293 32.3695 0.088707L32.4795 0.298706L32.5895 0.508709C32.8095 0.398709 33.0795 0.558707 33.0695 0.818707H33.3095L33.2995 0.828709ZM36.6695 17.3987L36.8795 17.2987C34.0995 11.1687 33.4295 4.62871 33.5295 0.828709H33.2895L33.0495 0.818707C32.9495 4.66871 33.6195 11.2887 36.4395 17.4987L36.6495 17.3987H36.6695ZM36.0395 17.7487L36.1495 17.9587L36.7795 17.6187L36.6695 17.4087L36.5595 17.1987L35.9295 17.5387L36.0395 17.7487ZM35.5895 19.2387L35.7995 19.1287C35.5695 18.7087 35.7295 18.1787 36.1495 17.9587L36.0395 17.7487L35.9295 17.5387C35.2795 17.8887 35.0395 18.6987 35.3895 19.3487L35.5995 19.2387H35.5895ZM37.0795 19.6787L36.9695 19.4687C36.5495 19.6987 36.0195 19.5387 35.7995 19.1187L35.5895 19.2287L35.3795 19.3387C35.7295 19.9887 36.5395 20.2287 37.1895 19.8787L37.0795 19.6687V19.6787ZM37.6495 19.3787L37.5395 19.1687L36.9795 19.4687L37.0895 19.6787L37.1995 19.8887L37.7595 19.5887L37.6495 19.3787ZM33.0995 19.3287L33.2095 19.5387C33.6295 19.3087 34.1595 19.4687 34.3795 19.8887L34.5895 19.7787L34.7995 19.6687C34.4495 19.0187 33.6395 18.7787 32.9895 19.1287L33.0995 19.3387V19.3287ZM30.1695 20.9087L30.2795 21.1187L33.2095 19.5387L33.0995 19.3287L32.9895 19.1187L30.0595 20.6987L30.1695 20.9087ZM29.7295 22.4087L29.9395 22.2987C29.7095 21.8787 29.8695 21.3487 30.2895 21.1287L30.1795 20.9187L30.0695 20.7087C29.4195 21.0587 29.1795 21.8687 29.5295 22.5187L29.7395 22.4087H29.7295ZM31.2195 22.8487L31.1095 22.6387C30.6895 22.8687 30.1595 22.7087 29.9395 22.2887L29.7295 22.3987L29.5195 22.5087C29.8695 23.1587 30.6795 23.3987 31.3295 23.0487L31.2195 22.8387V22.8487ZM34.1495 21.2687L34.0395 21.0587L31.1095 22.6387L31.2195 22.8487L31.3295 23.0587L34.2595 21.4787L34.1495 21.2687ZM34.5995 19.7787L34.3895 19.8887C34.6195 20.3087 34.4595 20.8387 34.0395 21.0587L34.1495 21.2687L34.2595 21.4787C34.9095 21.1287 35.1495 20.3187 34.7995 19.6687L34.5895 19.7787H34.5995Z" fill="#BA1328"/>
<path d="M31.9999 16.6686C31.9799 16.7886 31.8799 16.8786 31.7599 16.8786C29.5799 16.8786 27.8899 15.6486 27.0299 13.9586C26.0399 12.0086 26.2099 9.66864 27.4699 7.87864C27.5499 7.76864 27.6999 7.73864 27.8099 7.81864C27.8099 7.81864 27.8199 7.81864 27.8299 7.82864L28.8199 8.62864C28.9199 8.71864 28.9499 8.86864 28.8699 8.97864C28.0399 10.2186 27.9399 11.8186 28.6099 13.1486C29.2099 14.3286 30.3799 15.1586 31.9499 15.0886C32.1199 15.0886 32.2599 15.2286 32.2299 15.3986L32.0099 16.6586L31.9999 16.6686Z" fill="#FAFEFD"/>
</svg>
