<svg width="41" height="41" viewBox="0 0 41 41" fill="none" xmlns="http://www.w3.org/2000/svg">
<path fill-rule="evenodd" clip-rule="evenodd" d="M30.9197 9.19141C26.3197 8.56141 20.4097 10.8914 15.6497 15.6514C10.8897 20.4114 8.55969 26.3314 9.18969 30.9314L7.92969 32.1914L11.4397 35.7014L11.4597 35.7214C15.8397 40.1014 24.8297 38.2314 31.5197 31.5314C38.2197 24.8314 40.0897 15.8514 35.7097 11.4714L32.1797 7.94141L30.9197 9.20141V9.19141Z" fill="#D5D8D7"/>
<path d="M30.9189 9.19086L30.8889 9.42086C30.9589 9.42086 31.0389 9.41086 31.0889 9.35086L30.9189 9.18086V9.19086ZM9.18891 30.9209L9.35891 31.0909C9.40891 31.0409 9.43891 30.9609 9.42891 30.8909L9.19891 30.9209H9.18891ZM7.92891 32.1809L7.75891 32.0109C7.66891 32.1009 7.66891 32.2509 7.75891 32.3409L7.92891 32.1709V32.1809ZM35.7089 11.4609L35.5989 11.2509C35.4789 11.3109 35.4389 11.4509 35.4989 11.5709C35.5089 11.5909 35.5289 11.6109 35.5389 11.6309L35.7089 11.4609ZM35.7089 11.4609L35.8189 11.6709C35.9389 11.6109 35.9789 11.4709 35.9189 11.3509C35.9089 11.3309 35.8889 11.3109 35.8789 11.2909L35.7089 11.4609ZM32.1889 7.93086L32.3589 7.76086C32.2689 7.67086 32.1189 7.67086 32.0289 7.76086L32.1989 7.93086H32.1889ZM15.6489 15.6509L15.8189 15.8209C20.5489 11.0909 26.3889 8.81086 30.8989 9.43086L30.9289 9.20086L30.9589 8.97086C26.2689 8.33086 20.2789 10.7009 15.4889 15.4909L15.6589 15.6609L15.6489 15.6509ZM9.18891 30.9209L9.41891 30.8909C8.79891 26.3909 11.0789 20.5409 15.8089 15.8109L15.6389 15.6409L15.4689 15.4709C10.6789 20.2709 8.30891 26.2509 8.94891 30.9409L9.17891 30.9109L9.18891 30.9209ZM7.92891 32.1809L8.09891 32.3509L9.35891 31.0909L9.18891 30.9209L9.01891 30.7509L7.75891 32.0109L7.92891 32.1809ZM11.4389 35.7009L11.6089 35.5309L8.09891 32.0209L7.92891 32.1909L7.75891 32.3609L11.2689 35.8709L11.4389 35.7009ZM11.4589 35.7109L11.6289 35.5409L11.6089 35.5209L11.4389 35.6909L11.2689 35.8609L11.2889 35.8809L11.4589 35.7109ZM31.5189 31.5209L31.3489 31.3509C28.0289 34.6709 24.1489 36.7909 20.5689 37.5409C16.9889 38.2909 13.7389 37.6609 11.6189 35.5409L11.4489 35.7109L11.2789 35.8809C13.5489 38.1509 16.9789 38.7709 20.6589 38.0009C24.3389 37.2309 28.2989 35.0609 31.6789 31.6909L31.5089 31.5209H31.5189ZM35.7089 11.4609L35.5389 11.6309C37.6589 13.7509 38.2789 17.0009 37.5389 20.5809C36.7889 24.1609 34.6789 28.0409 31.3489 31.3609L31.5189 31.5309L31.6889 31.7009C35.0689 28.3209 37.2289 24.3609 37.9989 20.6809C38.7689 17.0009 38.1389 13.5709 35.8789 11.3009L35.7089 11.4709V11.4609ZM35.7089 11.4609L35.5989 11.2509L35.8089 11.6709L35.6989 11.4609H35.7089ZM32.1889 7.93086L32.0189 8.10086L35.5489 11.6309L35.7189 11.4609L35.8889 11.2909L32.3589 7.76086L32.1889 7.93086ZM30.9189 9.19086L31.0889 9.36086L32.3489 8.10086L32.1789 7.93086L32.0089 7.76086L30.7489 9.02086L30.9189 9.19086Z" fill="#6F7070"/>
<path fill-rule="evenodd" clip-rule="evenodd" d="M22.9195 10.5819L14.7695 18.7319L25.7895 29.7519L29.4295 33.3919C30.1395 32.8219 30.8195 32.2119 31.4595 31.5719L31.5695 31.4619C38.2195 24.7719 40.0695 15.8319 35.6995 11.4519L35.6695 11.4219L32.1695 7.92188L30.9095 9.18188C28.4895 8.85188 25.6995 9.34187 22.9095 10.5719" fill="#C2C5C5"/>
<path d="M22.9187 10.5809L22.8187 10.3609C22.8187 10.3609 22.7688 10.3909 22.7487 10.4109L22.9187 10.5809ZM14.7687 18.7409L14.5988 18.5709C14.5087 18.6609 14.5087 18.8109 14.5988 18.9009L14.7687 18.7309V18.7409ZM29.4288 33.4009L29.2587 33.5709C29.3488 33.6609 29.4787 33.6609 29.5687 33.5909L29.4187 33.4109L29.4288 33.4009ZM32.1887 7.93086L32.3587 7.76086C32.2687 7.67086 32.1187 7.67086 32.0287 7.76086L32.1987 7.93086H32.1887ZM30.9287 9.19086L30.8987 9.42086C30.9687 9.43086 31.0487 9.41086 31.0987 9.35086L30.9287 9.18086V9.19086ZM22.9187 10.5809L22.7487 10.4109L14.5988 18.5609L14.7687 18.7309L14.9387 18.9009L23.0887 10.7509L22.9187 10.5809ZM14.7687 18.7409L14.5988 18.9109L25.6188 29.9309L25.7887 29.7609L25.9587 29.5909L14.9387 18.5709L14.7687 18.7409ZM25.7887 29.7609L25.6188 29.9309L29.2587 33.5709L29.4288 33.4009L29.5988 33.2309L25.9587 29.5909L25.7887 29.7609ZM29.4288 33.4009L29.5787 33.5809C30.2987 33.0009 30.9787 32.3909 31.6287 31.7409L31.4587 31.5709L31.2887 31.4009C30.6487 32.0409 29.9788 32.6409 29.2788 33.2009L29.4288 33.3809V33.4009ZM31.4687 31.5809L31.6387 31.7509L31.7487 31.6409L31.5787 31.4709L31.4087 31.3009L31.2987 31.4109L31.4687 31.5809ZM31.5787 31.4709L31.7487 31.6409C35.0987 28.2709 37.2487 24.3209 38.0087 20.6509C38.7687 16.9809 38.1387 13.5609 35.8787 11.3009L35.7087 11.4709L35.5387 11.6409C37.6487 13.7509 38.2787 16.9909 37.5387 20.5609C36.7987 24.1309 34.6987 28.0009 31.3987 31.3109L31.5687 31.4809L31.5787 31.4709ZM35.7087 11.4609L35.8787 11.2909L35.8487 11.2609L35.6787 11.4309L35.5087 11.6009L35.5387 11.6309L35.7087 11.4609ZM35.6787 11.4309L35.8487 11.2609L32.3487 7.76086L32.1787 7.93086L32.0087 8.10086L35.5087 11.6009L35.6787 11.4309ZM32.1887 7.93086L32.0187 7.76086L30.7587 9.02086L30.9287 9.19086L31.0987 9.36086L32.3587 8.10086L32.1887 7.93086ZM30.9287 9.19086L30.9587 8.96086C28.4787 8.62086 25.6487 9.12086 22.8287 10.3709L22.9288 10.5909L23.0288 10.8109C25.7888 9.59086 28.5387 9.11086 30.9087 9.44086L30.9387 9.21086L30.9287 9.19086Z" fill="#6F7070"/>
<path d="M27.9944 27.9945C34.6918 21.297 36.5692 12.3156 32.1875 7.93388C27.8058 3.5522 18.8244 5.42953 12.1269 12.127C5.42939 18.8245 3.55206 27.806 7.93374 32.1876C12.3154 36.5693 21.2969 34.692 27.9944 27.9945Z" fill="#E7EBEA" stroke="#6F7070" stroke-width="0.47"/>
<path d="M25.3497 25.3499C30.5866 20.113 32.4639 13.4996 29.5428 10.5785C26.6217 7.65734 20.0083 9.53467 14.7714 14.7716C9.53443 20.0085 7.6571 26.6219 10.5782 29.5431C13.4993 32.4642 20.1128 30.5869 25.3497 25.3499Z" fill="#E7EBEA" stroke="#6F7070" stroke-width="0.47"/>
<path fill-rule="evenodd" clip-rule="evenodd" d="M29.5414 10.5814C26.6214 7.66137 20.0014 9.53137 14.7714 14.7714C9.53137 20.0114 7.66137 26.6214 10.5814 29.5414C10.8114 29.7714 11.0714 29.9814 11.3514 30.1514C9.58137 27.1614 11.7214 21.3514 16.5314 16.5314C21.3514 11.7114 27.1614 9.57137 30.1514 11.3514C29.9814 11.0714 29.7714 10.8114 29.5414 10.5814Z" fill="#D5D8D7"/>
<path d="M11.349 30.1517L11.229 30.3517L11.559 30.0317L11.359 30.1517H11.349ZM30.149 11.3517L30.029 11.5517L30.349 11.2217L30.149 11.3417V11.3517ZM14.769 14.7717L14.939 14.9417C17.529 12.3517 20.459 10.5917 23.089 9.85172C25.729 9.10172 27.999 9.38172 29.379 10.7517L29.549 10.5817L29.719 10.4117C28.169 8.86172 25.679 8.62172 22.969 9.39172C20.249 10.1617 17.259 11.9617 14.609 14.6017L14.779 14.7717H14.769ZM10.579 29.5417L10.749 29.3717C9.37899 28.0017 9.09899 25.7217 9.83899 23.0817C10.589 20.4517 12.339 17.5217 14.929 14.9317L14.759 14.7617L14.589 14.5917C11.949 17.2317 10.149 20.2317 9.37899 22.9517C8.60899 25.6617 8.85899 28.1517 10.409 29.7017L10.579 29.5317V29.5417ZM11.349 30.1517L11.469 29.9517C11.209 29.7917 10.959 29.5917 10.739 29.3717L10.569 29.5417L10.399 29.7117C10.649 29.9617 10.919 30.1717 11.209 30.3517L11.329 30.1517H11.349ZM11.349 30.1517L11.549 30.0317C10.719 28.6317 10.779 26.5117 11.689 24.1117C12.589 21.7217 14.309 19.0917 16.699 16.7017L16.529 16.5317L16.359 16.3617C13.929 18.7917 12.169 21.4717 11.239 23.9417C10.309 26.3917 10.199 28.6817 11.139 30.2717L11.339 30.1517H11.349ZM16.529 16.5317L16.699 16.7017C19.089 14.3117 21.719 12.5917 24.109 11.6917C26.509 10.7817 28.629 10.7217 30.029 11.5517L30.149 11.3517L30.269 11.1517C28.689 10.2117 26.399 10.3317 23.939 11.2517C21.469 12.1817 18.789 13.9417 16.359 16.3717L16.529 16.5417V16.5317ZM29.539 10.5817L29.369 10.7517C29.589 10.9717 29.779 11.2117 29.949 11.4817L30.149 11.3617L30.349 11.2417C30.169 10.9517 29.949 10.6717 29.709 10.4317L29.539 10.6017V10.5817Z" fill="#6F7070"/>
<path d="M19.7917 22.4924L24.2117 24.5524L16.2617 26.0224L19.7917 22.4824V22.4924Z" fill="#C2C5C5" stroke="#6F7070" stroke-width="0.47" stroke-linejoin="round"/>
<path d="M19.7917 22.4923L17.7317 18.0723L16.2617 26.0223L19.7917 22.4923Z" fill="#FAFEFD" stroke="#6F7070" stroke-width="0.47" stroke-linejoin="round"/>
<path d="M20.6719 21.6009L26.5619 15.7109L25.0919 23.6609L20.6719 21.6009Z" fill="#C2C5C5" stroke="#6F7070" stroke-width="0.47" stroke-linejoin="round"/>
<path d="M20.6694 21.6009L26.5594 15.7109L18.6094 17.1809L20.6694 21.6009Z" fill="#FAFEFD" stroke="#6F7070" stroke-width="0.47" stroke-linejoin="round"/>
</svg>
