<svg width="66" height="58" viewBox="0 0 66 58" fill="none" xmlns="http://www.w3.org/2000/svg">
<path d="M37.8622 20.1452C47.7022 25.8252 54.2522 34.0852 55.4022 41.2352L57.7722 42.6052L54.3822 48.4752C54.3322 48.5752 54.2722 48.6752 54.2222 48.7652C49.6322 56.7152 34.8722 56.7752 21.2522 48.9152C7.63223 41.0552 0.302232 28.2352 4.89223 20.2852C4.95223 20.1852 5.00223 20.0952 5.07223 19.9952L8.46223 14.1152L10.8322 15.4852C17.5922 12.9152 28.0322 14.4552 37.8722 20.1352" fill="#FFB32C"/>
<path d="M55.4031 41.2351L55.1731 41.2751C55.1831 41.3451 55.2231 41.4051 55.2831 41.4451L55.4031 41.2451V41.2351ZM57.7831 42.6051L57.9831 42.7251C58.0531 42.6151 58.0131 42.4751 57.9031 42.4051L57.7831 42.6051ZM54.3931 48.4751L54.2731 48.6751C54.3831 48.7451 54.5331 48.7051 54.5931 48.5851L54.3931 48.4651V48.4751ZM54.3831 48.4751L54.5031 48.2751C54.3931 48.2151 54.2431 48.2451 54.1831 48.3651L54.3931 48.4751H54.3831ZM5.06308 20.0051L5.26308 20.1251C5.33308 20.0151 5.30308 19.8651 5.19308 19.8051L5.07308 20.0051H5.06308ZM5.06308 19.9951L4.86308 19.8751C4.79308 19.9851 4.83308 20.1351 4.95308 20.1951L5.07308 19.9951H5.06308ZM8.45308 14.1251L8.57308 13.9251C8.46308 13.8551 8.31308 13.8951 8.25308 14.0151L8.45308 14.1351V14.1251ZM10.8231 15.4951L10.7031 15.6951C10.7631 15.7351 10.8431 15.7351 10.9031 15.7151L10.8231 15.4951ZM37.8631 20.1451L37.7431 20.3451C47.5531 26.0051 54.0331 34.2151 55.1731 41.2651L55.4031 41.2251L55.6331 41.1851C54.4631 33.9451 47.8431 25.6251 37.9731 19.9251L37.8531 20.1251L37.8631 20.1451ZM55.4031 41.2351L55.2831 41.4351L57.6531 42.8051L57.7731 42.6051L57.8931 42.4051L55.5231 41.0351L55.4031 41.2351ZM57.7831 42.6051L57.5831 42.4851L54.1931 48.3551L54.3931 48.4751L54.5931 48.5951L57.9831 42.7251L57.7831 42.6051ZM54.3831 48.4751L54.1731 48.3651C54.1231 48.4651 54.0731 48.5551 54.0131 48.6551L54.2131 48.7751L54.4131 48.8951C54.4731 48.7951 54.5231 48.6951 54.5831 48.5951L54.3731 48.4851L54.3831 48.4751ZM54.2231 48.7751L54.0231 48.6551C51.7931 52.5251 47.0531 54.5151 41.1331 54.5351C35.2131 54.5651 28.1631 52.6251 21.3831 48.7151L21.2631 48.9151L21.1431 49.1151C27.9831 53.0651 35.1231 55.0251 41.1331 55.0051C47.1431 54.9751 52.0831 52.9651 54.4331 48.8851L54.2331 48.7651L54.2231 48.7751ZM21.2531 48.9151L21.3731 48.7151C14.5931 44.7951 9.39308 39.6551 6.45308 34.5151C3.51308 29.3751 2.86308 24.2751 5.10308 20.4051L4.90308 20.2851L4.70308 20.1651C2.35308 24.2451 3.07308 29.5251 6.05308 34.7451C9.03308 39.9651 14.3031 45.1651 21.1431 49.1151L21.2631 48.9151H21.2531ZM4.89308 20.2951L5.09308 20.4151C5.14308 20.3151 5.20308 20.2251 5.26308 20.1351L5.06308 20.0151L4.86308 19.8951C4.80308 19.9951 4.74308 20.0951 4.68308 20.1951L4.88308 20.3151L4.89308 20.2951ZM5.06308 19.9951L5.26308 20.1151L8.65308 14.2451L8.45308 14.1251L8.25308 14.0051L4.86308 19.8751L5.06308 19.9951ZM8.45308 14.1251L8.33308 14.3251L10.7031 15.6951L10.8231 15.4951L10.9431 15.2951L8.57308 13.9251L8.45308 14.1251ZM10.8231 15.4951L10.9031 15.7151C17.5731 13.1751 27.9331 14.6851 37.7431 20.3451L37.8631 20.1451L37.9831 19.9451C28.1131 14.2451 17.6031 12.6751 10.7431 15.2851L10.8231 15.5051V15.4951Z" fill="#C88800"/>
<path d="M55.4033 41.236L57.7733 42.606L54.3833 48.476C54.3333 48.576 54.2733 48.676 54.2233 48.766C49.8333 56.366 36.1533 56.756 23.0533 49.906L21.8633 49.216L33.7333 28.666L55.4033 41.176V41.236Z" fill="#F7A700"/>
<path d="M55.4033 41.2361L55.1734 41.2761C55.1833 41.3461 55.2234 41.4061 55.2834 41.4461L55.4033 41.2461V41.2361ZM57.7834 42.6061L57.9833 42.7261C58.0533 42.6161 58.0134 42.4661 57.8934 42.4061L57.7734 42.6061H57.7834ZM54.3934 48.4761L54.2734 48.6761C54.3834 48.7461 54.5333 48.7061 54.5933 48.5861L54.3934 48.4661V48.4761ZM54.3834 48.4761L54.5034 48.2761C54.3934 48.2161 54.2433 48.2461 54.1833 48.3661L54.3934 48.4761H54.3834ZM23.0534 49.9061L22.9334 50.1061L23.0434 49.9061H23.0534ZM21.8634 49.2261L21.6633 49.1061C21.5933 49.2161 21.6334 49.3661 21.7534 49.4261L21.8734 49.2261H21.8634ZM33.7234 28.6661L33.8434 28.4661C33.7334 28.3961 33.5834 28.4361 33.5234 28.5561L33.7234 28.6761V28.6661ZM55.3934 41.1761L55.6233 41.1361C55.6133 41.0661 55.5733 41.0061 55.5133 40.9661L55.3934 41.1661V41.1761ZM55.4033 41.2361L55.2834 41.4361L57.6533 42.8061L57.7734 42.6061L57.8934 42.4061L55.5234 41.0361L55.4033 41.2361ZM57.7834 42.6061L57.5834 42.4861L54.1934 48.3561L54.3934 48.4761L54.5933 48.5961L57.9833 42.7261L57.7834 42.6061ZM54.3834 48.4761L54.1734 48.3661C54.1234 48.4661 54.0633 48.5561 54.0133 48.6561L54.2134 48.7761L54.4134 48.8961C54.4734 48.7961 54.5234 48.6961 54.5834 48.5961L54.3733 48.4861L54.3834 48.4761ZM54.2234 48.7761L54.0234 48.6561C51.8834 52.3561 47.4633 54.3361 41.9033 54.5261C36.3433 54.7161 29.6934 53.1161 23.1734 49.7061L23.0634 49.9161L22.9534 50.1261C29.5334 53.5661 36.2634 55.1961 41.9234 55.0061C47.5734 54.8161 52.1833 52.7961 54.4333 48.9061L54.2333 48.7861L54.2234 48.7761ZM23.0534 49.9061L23.1734 49.7061L21.9833 49.0161L21.8634 49.2161L21.7434 49.4161L22.9334 50.1061L23.0534 49.9061ZM21.8634 49.2261L22.0634 49.3461L33.9333 28.7961L33.7333 28.6761L33.5334 28.5561L21.6633 49.1061L21.8634 49.2261ZM33.7234 28.6661L33.6034 28.8661L55.2734 41.3761L55.3934 41.1761L55.5133 40.9761L33.8434 28.4661L33.7234 28.6661ZM55.3934 41.1761L55.1634 41.2161V41.2761L55.4033 41.2361L55.6334 41.1961V41.1361L55.3934 41.1761Z" fill="#C88800"/>
<path d="M57.6338 42.8649C62.2205 34.9204 54.8962 22.1047 41.2744 14.2402C27.6526 6.37563 12.8917 6.44041 8.305 14.3848C3.71828 22.3293 11.0426 35.145 24.6644 43.0095C38.2862 50.8741 53.0471 50.8093 57.6338 42.8649Z" fill="#FFD282"/>
<path d="M41.2719 14.2366C50.6119 19.6266 56.9819 27.3466 58.5919 34.2266C56.2219 27.9966 50.2719 21.3866 41.9919 16.6066C28.3719 8.74659 13.6119 8.80659 9.02186 16.7566C7.58186 19.2566 7.31187 22.2366 8.05187 25.3966C6.52187 21.3766 6.49187 17.5066 8.29187 14.3966C12.8819 6.44659 27.6419 6.38659 41.2619 14.2466" fill="#FAFEFD"/>
<path d="M57.6338 42.8649C62.2205 34.9204 54.8962 22.1047 41.2744 14.2402C27.6526 6.37563 12.8917 6.44041 8.305 14.3848C3.71828 22.3293 11.0426 35.145 24.6644 43.0095C38.2862 50.8741 53.0471 50.8093 57.6338 42.8649Z" stroke="#C88800" stroke-width="0.47" stroke-linejoin="round"/>
<path d="M38.2041 19.5564C44.6841 23.2964 49.4741 28.1764 51.4641 32.5464C49.0741 28.7464 44.7941 24.7564 39.3041 21.5864C28.9241 15.5964 18.1641 14.8164 15.2541 19.8364C14.1641 21.7264 14.3441 24.1664 15.5341 26.7964C13.4041 23.4064 12.7841 20.1764 14.1541 17.8064C17.0541 12.7764 27.8241 13.5664 38.2041 19.5564Z" fill="#FFB32C"/>
<path d="M51.735 39.516C54.6373 34.4892 48.5762 25.5564 38.1973 19.5641C27.8183 13.5718 17.0518 12.7892 14.1495 17.816C11.2473 22.8429 17.3083 31.7757 27.6873 37.768C38.0662 43.7603 48.8328 44.5429 51.735 39.516Z" stroke="#C88800" stroke-width="0.47" stroke-linejoin="round"/>
<path fill-rule="evenodd" clip-rule="evenodd" d="M32.3933 20.5659C34.6133 20.6559 36.6233 21.9159 37.6633 23.8859L37.7333 24.0259C38.3033 25.1859 38.3233 26.5359 37.8033 27.7159C39.7833 27.9159 41.5533 29.0459 42.5633 30.7659C44.0533 33.2959 42.9533 36.3459 40.6133 37.5559L42.1333 40.2059H39.7833L38.5733 38.0859C38.4933 38.0859 38.4233 38.0859 38.3433 38.0859H37.4933L38.6633 40.1859H36.3333L35.1533 38.0559H31.8433L30.2533 35.3259H33.1933L29.8533 29.6759L26.1133 23.2559H23.2033L21.6133 20.5259H24.8133L23.6833 18.5059H26.0133L27.1433 20.5459H28.2533L27.0933 18.5159H29.4433L30.6033 20.5559H32.1633L32.3833 20.5659H32.3933ZM40.2233 32.1359C39.5933 31.0659 38.4433 30.4059 37.2033 30.3959L33.4133 30.3559L36.3533 35.3459L38.3533 35.3659H38.5033C40.0833 35.2659 41.0333 33.5259 40.2133 32.1359H40.2233ZM35.2633 25.1559C34.6933 24.0859 33.6133 23.3759 32.4033 23.2859H32.1633L29.2633 23.2659L31.8133 27.6259H33.7633C35.0033 27.6359 35.8133 26.3659 35.3233 25.2559L35.2733 25.1459L35.2633 25.1559Z" fill="#F1F9F1" stroke="#C88800" stroke-width="0.47" stroke-linejoin="round"/>
</svg>
