<svg width="114" height="8" viewBox="0 0 114 8" fill="none" xmlns="http://www.w3.org/2000/svg">
<path d="M113.164 2.26435L111.56 0.662524C111.403 0.514529 111.15 0.523235 111.019 0.697347C109.459 2.74316 106.861 4.08382 103.932 4.08382C101.003 4.08382 98.4047 2.74316 96.8443 0.697347C96.7135 0.523235 96.4607 0.514529 96.3038 0.662524L94.6997 2.26435C94.4818 2.48199 94.4644 2.83021 94.6561 3.06527C96.8617 5.73788 100.192 7.43547 103.923 7.43547H103.932C107.663 7.43547 111.002 5.72917 113.198 3.06527C113.399 2.83021 113.373 2.48199 113.155 2.26435" fill="white"/>
<path d="M89.2762 1.71484H87.6634C87.5937 1.71484 87.5327 1.74096 87.4891 1.78449L87.0619 2.21106C87.0183 2.25459 86.9922 2.32423 86.9922 2.38517V2.63764C86.9922 2.75951 87.0881 2.85528 87.2101 2.85528H89.5028C89.6946 2.85528 89.8428 3.00327 89.8428 3.19479V4.78792C89.8428 4.97944 89.6859 5.12743 89.5028 5.12743H87.2188C87.0968 5.12743 86.9922 5.2319 86.9922 5.35378V6.04152C86.9922 6.1634 87.0968 6.26786 87.2188 6.26786H89.2849C90.2264 6.26786 90.9936 5.50177 90.9936 4.56157V3.42114C90.9936 2.48094 90.2264 1.71484 89.2849 1.71484" fill="white"/>
<path d="M62.4281 4.42263C62.463 4.50969 62.5502 4.57063 62.6461 4.57063H63.3522C63.5091 4.57063 63.6224 4.41393 63.5701 4.26593L62.4281 1.28862C62.3933 1.20156 62.3061 1.14062 62.2102 1.14062H61.5041C61.3472 1.14062 61.2426 1.29733 61.2949 1.44532L62.4281 4.43134V4.42263Z" fill="white"/>
<path d="M82.1984 6.85156H81.4836C81.3615 6.85156 81.2656 6.94732 81.2656 7.0692V7.78306C81.2656 7.90494 81.3615 8.0007 81.4836 8.0007H82.1984C82.3205 8.0007 82.4163 7.90494 82.4163 7.78306V7.0692C82.4163 6.94732 82.3205 6.85156 82.1984 6.85156Z" fill="white"/>
<path d="M86.1833 6.85156H84.3438C84.2218 6.85156 84.1172 6.95603 84.1172 7.07791V7.77435C84.1172 7.89623 84.2218 8.0007 84.3438 8.0007H86.1833C86.3053 8.0007 86.4099 7.89623 86.4099 7.77435V7.07791C86.4099 6.95603 86.3053 6.85156 86.1833 6.85156Z" fill="white"/>
<path d="M71.571 1.715H71.1002L72.6607 0.226345C72.7391 0.139289 72.6781 0 72.5648 0H71.4053C71.3182 0 71.231 0.0348223 71.1612 0.0957614L68.7552 2.46368C68.6157 2.60297 68.7116 2.84673 68.9121 2.84673H71.571C71.8761 2.84673 72.1289 3.10789 72.1289 3.42129V5.1363H67.8834C67.7004 5.1363 67.5434 4.97959 67.5434 4.79678V1.36678C67.5434 1.2449 67.4388 1.14043 67.3168 1.14043H66.6368C66.5148 1.14043 66.4102 1.2449 66.4102 1.36678V4.65749C66.4537 5.55416 67.1947 6.25932 68.1014 6.25932H73.0181C73.1401 6.25932 73.2447 6.16355 73.2447 6.04168V3.37777C73.2099 2.47239 72.4689 1.715 71.5535 1.715H71.571Z" fill="white"/>
<path d="M65.6352 1.14152H64.9553C64.8332 1.14152 64.7286 1.24599 64.7286 1.36786V4.81528C64.7286 4.99809 64.5804 5.15479 64.3886 5.15479H61.9651C61.8954 5.15479 61.8344 5.18091 61.7908 5.22444L61.3549 5.64231C61.3113 5.68583 61.2852 5.75548 61.2852 5.81642V6.06888C61.2852 6.19076 61.381 6.28652 61.5031 6.28652H64.162C65.0686 6.28652 65.8009 5.57266 65.8532 4.68469V1.35916C65.8532 1.23728 65.7573 1.13281 65.6352 1.13281" fill="white"/>
<path d="M86.3998 4.64863V3.08162C86.3998 2.95974 86.3039 2.85528 86.1731 2.85528H85.4844C85.3624 2.85528 85.2578 2.95974 85.2578 3.08162V4.78791C85.2578 4.97944 85.1009 5.12743 84.9178 5.12743H82.3984V3.42114C82.3984 2.32423 81.6051 1.71484 80.681 1.71484H79.0683C78.9986 1.71484 78.9375 1.74096 78.8939 1.78449L78.4668 2.21106C78.4232 2.25459 78.397 2.32423 78.397 2.38517V2.63764C78.397 2.75951 78.4929 2.85528 78.615 2.85528H80.9077C81.0995 2.85528 81.2477 3.00327 81.2477 3.19479V5.12743L77.473 5.13614C77.3509 5.13614 77.2463 5.24061 77.2463 5.36248V6.05022C77.2463 6.1721 77.3509 6.27657 77.473 6.27657H78.3883V6.51162C78.3883 6.70314 78.2314 6.85114 78.0483 6.85114H75.2674C75.1018 6.85114 74.9623 6.71185 74.9623 6.53774V4.22205C74.9623 4.10017 74.8577 3.99571 74.7357 3.99571H74.047C73.9249 3.99571 73.8203 4.10017 73.8203 4.22205V6.28528C73.8203 7.42571 74.3957 7.99157 75.5377 7.99157H77.8478C78.8591 7.99157 79.539 7.34736 79.539 6.27657H82.1718C82.2938 6.27657 82.3984 6.1721 82.3984 6.05022V5.6933L82.8953 6.20693C82.9389 6.25045 82.9912 6.27657 83.0522 6.27657H84.6737C85.589 6.27657 86.3387 5.5453 86.3823 4.64863" fill="white"/>
<path d="M39.8381 4.20522H37.4233L39.8381 0.757812H42.2528L39.8381 4.20522ZM47.0824 4.20522H44.6676L42.2528 7.65264H44.6676L47.0824 4.20522ZM49.4971 7.64393H51.9119L49.4971 4.19652H47.0824L49.4971 7.64393ZM37.4233 4.20522H35.0085L32.5938 7.65264H35.0085L37.4233 4.20522ZM41.0498 5.92022H38.635L39.8468 7.64393H42.2615L41.0498 5.92022ZM48.2941 2.48152H50.7176L51.9206 0.757812H49.5059L48.2941 2.48152ZM35.0085 0.757812H32.5938L34.407 3.34337H36.8218L35.0085 0.757812ZM44.6676 0.757812H42.2528L44.0661 3.34337H46.4809L44.6676 0.757812Z" fill="white"/>
<path d="M26.3271 2.01142V3.26502C26.3271 3.50878 26.2748 3.75253 26.1876 3.98758C26.0917 4.21393 25.9522 4.42286 25.7779 4.59698C25.6035 4.77109 25.3943 4.91038 25.1676 5.00614C24.941 5.1019 24.6969 5.14543 24.4441 5.14543H23.1888C22.7267 5.14543 22.2821 4.97132 21.9334 4.66662C21.5934 4.98002 21.1401 5.14543 20.6781 5.14543H16.9208C16.4239 5.14543 15.9444 4.9452 15.587 4.59698C15.4127 4.42286 15.2732 4.21393 15.1773 3.98758C15.0814 3.76124 15.0378 3.51748 15.0378 3.26502L16.7901 0.757812H18.7951V2.01142H16.2844V3.26502C16.2844 3.61324 16.5634 3.89182 16.9121 3.89182H20.6694C20.835 3.89182 20.9919 3.82218 21.114 3.70901C21.2273 3.59583 21.297 3.43043 21.297 3.26502V2.01142H22.5524V3.26502C22.5524 3.61324 22.8313 3.89182 23.18 3.89182H24.4354C24.601 3.89182 24.7579 3.82218 24.88 3.70901C24.9933 3.59583 25.063 3.43043 25.063 3.26502V2.01142H26.3184H26.3271ZM28.829 1.38461V3.26502C28.829 3.61324 28.5501 3.89182 28.2014 3.89182H26.3184L27.1988 5.14543H28.2014C29.2388 5.14543 30.0844 4.30099 30.0844 3.26502V1.38461H28.829ZM8.7786 2.01142V3.26502C8.7786 3.61324 8.49964 3.89182 8.15094 3.89182H6.8956C6.5469 3.89182 6.26794 3.61324 6.26794 3.26502V2.01142H5.01261V4.51863C5.01261 4.86685 4.73364 5.14543 4.38494 5.14543H1.87428C1.52558 5.14543 1.24661 4.86685 1.24661 4.51863V2.01142H3.12961V0.757812H1.75223L0 3.26502V4.51863C0 5.55459 0.845605 6.39903 1.883 6.39903H4.39366C5.23926 6.39903 5.98026 5.83317 6.20692 5.01484C6.42485 5.1019 6.66023 5.14543 6.8956 5.14543H8.15094C8.39503 5.14543 8.63912 5.09319 8.87449 5.00614C9.10115 4.91038 9.31037 4.77109 9.48472 4.59698C9.65908 4.42286 9.79856 4.21393 9.89445 3.98758C9.99035 3.76124 10.0339 3.51748 10.0339 3.26502V2.01142H8.78732H8.7786ZM6.26794 5.76352V7.01713H8.7786V5.76352H6.26794ZM22.5611 5.76352V7.01713H25.0718V5.76352H22.5611ZM27.5737 5.76352V7.01713H29.4567V5.76352H27.5737ZM11.2805 5.76352V7.01713H12.5359V7.64393H13.7912V5.76352H11.2805ZM12.5359 1.38461V3.26502C12.5359 3.61324 12.2569 3.89182 11.9082 3.89182H10.0252L10.9057 5.14543H11.9082C12.1523 5.14543 12.3964 5.09319 12.6318 5.00614C12.8584 4.91038 13.0676 4.77109 13.242 4.59698C13.4164 4.42286 13.5558 4.21393 13.6517 3.98758C13.7476 3.76124 13.7912 3.51748 13.7912 3.26502V1.38461H12.5359Z" fill="white"/>
<path d="M56.332 1.14062V7.43476" stroke="white" stroke-width="0.5" stroke-miterlimit="10"/>
</svg>
