<svg width="168" height="25" viewBox="0 0 168 25" fill="none" xmlns="http://www.w3.org/2000/svg">
<rect x="1" y="2" width="167" height="23" rx="4" fill="#1B1B1B"/>
<rect width="167" height="23" rx="4" fill="white"/>
<path d="M8.26 12.34C8.148 11.4253 8.06867 10.66 8.022 10.044C7.97533 9.41867 7.952 8.686 7.952 7.846V5.998H10.066V7.846C10.066 8.686 10.0427 9.41867 9.996 10.044C9.94933 10.66 9.87 11.4253 9.758 12.34H8.26ZM9.002 15.21C8.61 15.21 8.31133 15.1213 8.106 14.944C7.91 14.7573 7.812 14.468 7.812 14.076C7.812 13.6933 7.91 13.4227 8.106 13.264C8.31133 13.096 8.61 13.012 9.002 13.012C9.394 13.012 9.688 13.096 9.884 13.264C10.08 13.4227 10.178 13.6933 10.178 14.076C10.178 14.832 9.786 15.21 9.002 15.21ZM10.5658 16.148C11.1538 16.148 11.6018 15.9987 11.9098 15.7C12.2272 15.4107 12.3858 14.986 12.3858 14.426V10.044H14.4578V12.172C14.4578 12.4053 14.5138 12.578 14.6258 12.69C14.7378 12.7927 14.9152 12.844 15.1578 12.844H15.5078C15.6012 12.844 15.6478 13.208 15.6478 13.936C15.6478 14.6453 15.6012 15 15.5078 15H15.2698C14.9058 15 14.6305 14.9207 14.4438 14.762C14.3972 15.4433 14.2152 16.05 13.8978 16.582C13.5898 17.1233 13.1558 17.5433 12.5958 17.842C12.0452 18.15 11.3965 18.304 10.6498 18.304H10.1178L9.94984 16.148H10.5658ZM16.9879 12.844C17.1839 12.844 17.3379 12.7973 17.4499 12.704C17.5619 12.6013 17.6179 12.4613 17.6179 12.284V10.044H19.6759V12.242C19.6759 12.6433 19.8859 12.844 20.3059 12.844H20.7539C20.8472 12.844 20.8939 13.2033 20.8939 13.922C20.8939 14.6407 20.8472 15 20.7539 15H20.2079C19.4426 15 18.9152 14.7947 18.6259 14.384C18.4486 14.5987 18.2292 14.7573 17.9679 14.86C17.7066 14.9533 17.3799 15 16.9879 15H15.5039C15.4106 15 15.3639 14.6453 15.3639 13.936C15.3639 13.208 15.4106 12.844 15.5039 12.844H16.9879ZM15.8259 18.01V16.274H17.9819V18.01H15.8259ZM24.7299 12.382C24.7299 13.194 24.4872 13.8333 24.0019 14.3C23.5259 14.7667 22.8819 15 22.0699 15H20.7539C20.6606 15 20.6139 14.6453 20.6139 13.936C20.6139 13.208 20.6606 12.844 20.7539 12.844H22.0699C22.2566 12.844 22.4059 12.7927 22.5179 12.69C22.6392 12.5873 22.6999 12.452 22.6999 12.284V10.044H24.7299V12.382ZM20.7959 18.01V16.274H22.9519V18.01H20.7959ZM37.5401 12.256C37.5401 12.648 37.7501 12.844 38.1701 12.844H38.5901C38.6835 12.844 38.7301 13.208 38.7301 13.936C38.7301 14.6453 38.6835 15 38.5901 15H38.2261C37.9088 15 37.6708 14.9487 37.5121 14.846C37.4655 15.518 37.2695 16.1153 36.9241 16.638C36.5881 17.1607 36.1308 17.5667 35.5521 17.856C34.9735 18.1547 34.3108 18.304 33.5641 18.304H32.9761C31.7535 18.304 30.8061 17.9493 30.1341 17.24C29.4715 16.54 29.1401 15.5647 29.1401 14.314V11.444H31.2121V14.258C31.2121 14.8927 31.3568 15.364 31.6461 15.672C31.9355 15.9893 32.3881 16.148 33.0041 16.148H33.5641C34.1708 16.148 34.6421 15.9987 34.9781 15.7C35.3141 15.4013 35.4821 14.9767 35.4821 14.426V10.044H37.5401V12.256ZM31.8561 10.016V8.28H34.0121V10.016H31.8561ZM41.9557 12.844C42.133 12.844 42.2777 12.7927 42.3897 12.69C42.511 12.5873 42.5717 12.452 42.5717 12.284V10.044H44.6017V12.382C44.6017 13.194 44.359 13.8333 43.8737 14.3C43.3977 14.7667 42.7537 15 41.9417 15H38.5957C38.5024 15 38.4557 14.6453 38.4557 13.936C38.4557 13.208 38.5024 12.844 38.5957 12.844H41.9557ZM42.7677 16.274V18.01H38.7357V16.274H42.7677ZM52.964 12.844C53.0573 12.844 53.104 13.208 53.104 13.936C53.104 14.6453 53.0573 15 52.964 15H51.942C51.8393 16.036 51.466 16.8433 50.822 17.422C50.1873 18.01 49.352 18.304 48.316 18.304H46.342L46.174 16.176H48.554C48.9926 16.176 49.3333 16.0687 49.576 15.854C49.828 15.6487 49.954 15.364 49.954 15H49.17C48.134 15 47.392 14.7853 46.944 14.356C46.5053 13.9173 46.286 13.222 46.286 12.27C46.286 11.6727 46.4026 11.1407 46.636 10.674C46.8786 10.198 47.2146 9.82933 47.644 9.568C48.0826 9.29733 48.582 9.162 49.142 9.162C50.0286 9.162 50.724 9.44667 51.228 10.016C51.732 10.576 51.984 11.36 51.984 12.368V12.844H52.964ZM48.302 12.172C48.302 12.4427 48.3673 12.6387 48.498 12.76C48.638 12.872 48.876 12.928 49.212 12.928H49.982V12.284C49.982 11.92 49.9026 11.6447 49.744 11.458C49.5946 11.2713 49.38 11.178 49.1 11.178C48.8386 11.178 48.638 11.2713 48.498 11.458C48.3673 11.6353 48.302 11.8733 48.302 12.172ZM56.5068 12.844C56.7308 12.844 56.9035 12.8067 57.0248 12.732C57.1462 12.6573 57.2068 12.5547 57.2068 12.424C57.2068 12.3027 57.1742 12.1907 57.1088 12.088C57.0528 11.976 56.9595 11.8547 56.8288 11.724L53.9168 8.882V7.258L59.3488 5.2L59.8948 7.216L56.5348 8.49L58.3828 10.338C58.7655 10.7113 59.0362 11.08 59.1948 11.444C59.3535 11.808 59.4328 12.2 59.4328 12.62C59.4328 13.3573 59.1855 13.9407 58.6908 14.37C58.2055 14.79 57.5382 15 56.6888 15H52.9648C52.8715 15 52.8248 14.6453 52.8248 13.936C52.8248 13.208 52.8715 12.844 52.9648 12.844H56.5068ZM71.1131 12.844C71.2998 12.844 71.4491 12.7973 71.5611 12.704C71.6731 12.6107 71.7291 12.4753 71.7291 12.298V10.044H73.8011V12.242C73.8011 12.6433 74.0064 12.844 74.4171 12.844H74.8651C74.9584 12.844 75.0051 13.208 75.0051 13.936C75.0051 14.6453 74.9584 15 74.8651 15H74.3191C73.5538 15 73.0264 14.7947 72.7371 14.384C72.5598 14.5987 72.3404 14.7573 72.0791 14.86C71.8271 14.9533 71.5051 15 71.1131 15H66.7451C65.8958 15 65.2424 14.7713 64.7851 14.314C64.3278 13.8567 64.0991 13.2033 64.0991 12.354V10.044H66.1711V12.074C66.1711 12.3353 66.2271 12.5313 66.3391 12.662C66.4511 12.7833 66.6378 12.844 66.8991 12.844H71.1131ZM70.9591 7.384V9.12H66.9271V7.384H70.9591ZM76.3512 12.844C76.5472 12.844 76.7012 12.7973 76.8132 12.704C76.9252 12.6013 76.9812 12.4613 76.9812 12.284V10.044H79.0392V12.242C79.0392 12.6433 79.2492 12.844 79.6692 12.844H80.1172C80.2105 12.844 80.2572 13.2033 80.2572 13.922C80.2572 14.6407 80.2105 15 80.1172 15H79.5712C78.8059 15 78.2785 14.7947 77.9892 14.384C77.8119 14.5987 77.5925 14.7573 77.3312 14.86C77.0699 14.9533 76.7432 15 76.3512 15H74.8672C74.7739 15 74.7272 14.6453 74.7272 13.936C74.7272 13.208 74.7739 12.844 74.8672 12.844H76.3512ZM77.8072 16.274V18.01H73.7752V16.274H77.8072ZM84.0932 12.382C84.0932 13.194 83.8505 13.8333 83.3652 14.3C82.8892 14.7667 82.2452 15 81.4332 15H80.1172C80.0239 15 79.9772 14.6453 79.9772 13.936C79.9772 13.208 80.0239 12.844 80.1172 12.844H81.4332C81.6199 12.844 81.7692 12.7927 81.8812 12.69C82.0025 12.5873 82.0632 12.452 82.0632 12.284V10.044H84.0932V12.382ZM80.1592 18.01V16.274H82.3152V18.01H80.1592ZM89.6934 15C89.2921 15 88.9934 14.8973 88.7974 14.692C88.6014 14.4867 88.5034 14.118 88.5034 13.586C88.5034 12.746 88.5594 12.1347 88.6714 11.752C88.7834 11.36 88.9887 11.0847 89.2874 10.926C89.5954 10.758 90.0901 10.6273 90.7714 10.534V11.766C90.3981 11.8313 90.1414 11.892 90.0014 11.948C89.8614 11.9947 89.7681 12.0693 89.7214 12.172C89.6841 12.2653 89.6654 12.4333 89.6654 12.676C90.0761 12.676 90.3794 12.76 90.5754 12.928C90.7714 13.0867 90.8694 13.3713 90.8694 13.782C90.8694 14.594 90.4774 15 89.6934 15ZM100.896 12.256C100.896 12.648 101.106 12.844 101.526 12.844H101.946C102.039 12.844 102.086 13.208 102.086 13.936C102.086 14.6453 102.039 15 101.946 15H101.582C101.264 15 101.026 14.9487 100.868 14.846C100.821 15.518 100.625 16.1153 100.28 16.638C99.9436 17.1607 99.4863 17.5667 98.9076 17.856C98.3289 18.1547 97.6663 18.304 96.9196 18.304H96.3316C95.1089 18.304 94.1616 17.9493 93.4896 17.24C92.8269 16.54 92.4956 15.5647 92.4956 14.314V11.444H94.5676V14.258C94.5676 14.8927 94.7123 15.364 95.0016 15.672C95.2909 15.9893 95.7436 16.148 96.3596 16.148H96.9196C97.5263 16.148 97.9976 15.9987 98.3336 15.7C98.6696 15.4013 98.8376 14.9767 98.8376 14.426V10.044H100.896V12.256ZM95.2116 10.016V8.28H97.3676V10.016H95.2116ZM105.493 12.844C105.717 12.844 105.89 12.8067 106.011 12.732C106.133 12.6573 106.193 12.5547 106.193 12.424C106.193 12.3027 106.161 12.1907 106.095 12.088C106.039 11.976 105.946 11.8547 105.815 11.724L102.903 8.882V7.258L108.335 5.2L108.881 7.216L105.521 8.49L107.369 10.338C107.752 10.7113 108.023 11.08 108.181 11.444C108.34 11.808 108.419 12.2 108.419 12.62C108.419 13.3573 108.172 13.9407 107.677 14.37C107.192 14.79 106.525 15 105.675 15H101.951C101.858 15 101.811 14.6453 101.811 13.936C101.811 13.208 101.858 12.844 101.951 12.844H105.493ZM120.757 12.844C120.804 12.844 120.837 12.9093 120.855 13.04C120.883 13.1707 120.897 13.4693 120.897 13.936C120.897 14.384 120.883 14.6733 120.855 14.804C120.837 14.9347 120.804 15 120.757 15H119.189C118.415 15 117.841 14.9627 117.467 14.888C117.094 14.804 116.772 14.65 116.501 14.426C115.605 15.0047 115.157 15.6533 115.157 16.372C115.157 17.2213 115.764 17.646 116.977 17.646H119.735L119.567 19.802H116.907C114.359 19.802 113.085 18.682 113.085 16.442C113.085 15.182 113.65 14.076 114.779 13.124L113.239 10.842L114.191 9.008H117.607C118.27 9.008 118.793 9.162 119.175 9.47C119.558 9.76867 119.749 10.1933 119.749 10.744C119.749 11.136 119.665 11.4907 119.497 11.808C119.339 12.1253 119.035 12.5033 118.587 12.942C118.699 12.8767 118.872 12.844 119.105 12.844H120.757ZM116.655 12.648C117.122 12.2467 117.435 11.9573 117.593 11.78C117.761 11.5933 117.845 11.4393 117.845 11.318C117.845 11.094 117.668 10.982 117.313 10.982H115.479L116.655 12.648ZM121.17 12.844C121.366 12.844 121.51 12.802 121.604 12.718C121.697 12.634 121.744 12.494 121.744 12.298V11.99C121.744 11.0753 122.005 10.352 122.528 9.82C123.05 9.288 123.76 9.022 124.656 9.022C125.552 9.022 126.242 9.28333 126.728 9.806C127.213 10.3193 127.456 11.0567 127.456 12.018V12.214C127.456 12.438 127.502 12.6013 127.596 12.704C127.698 12.7973 127.843 12.844 128.03 12.844H128.436C128.529 12.844 128.576 13.208 128.576 13.936C128.576 14.6453 128.529 15 128.436 15H128.058C127.283 15 126.746 14.7993 126.448 14.398C126.018 14.7993 125.393 15 124.572 15C124.152 15 123.792 14.944 123.494 14.832C123.195 14.72 122.971 14.5707 122.822 14.384C122.644 14.5987 122.42 14.7573 122.15 14.86C121.888 14.9533 121.562 15 121.17 15H120.764C120.67 15 120.624 14.6453 120.624 13.936C120.624 13.208 120.67 12.844 120.764 12.844H121.17ZM125.454 12.018C125.454 11.3833 125.164 11.066 124.586 11.066C124.016 11.066 123.732 11.3833 123.732 12.018C123.732 12.298 123.802 12.5173 123.942 12.676C124.091 12.8253 124.306 12.9 124.586 12.9C124.884 12.9 125.104 12.83 125.244 12.69C125.384 12.5407 125.454 12.3167 125.454 12.018ZM129.498 12.844C130.188 12.844 130.767 12.7973 131.234 12.704C131.71 12.6107 132.204 12.4333 132.718 12.172L133.614 11.654C133.539 11.374 133.427 11.1827 133.278 11.08C133.138 10.9773 132.923 10.926 132.634 10.926H129.442L129.652 8.812H133.082C133.651 8.812 134.118 8.91933 134.482 9.134C134.846 9.34867 135.154 9.70333 135.406 10.198C135.658 10.6927 135.886 11.3927 136.092 12.298L133.208 14.034C132.62 14.398 132.046 14.65 131.486 14.79C130.926 14.93 130.23 15 129.4 15H128.434C128.34 15 128.294 14.6453 128.294 13.936C128.294 13.208 128.34 12.844 128.434 12.844H129.498ZM130.576 18.01V16.274H132.732V18.01H130.576ZM148.597 12.256C148.597 12.648 148.807 12.844 149.227 12.844H149.647C149.74 12.844 149.787 13.208 149.787 13.936C149.787 14.6453 149.74 15 149.647 15H149.283C148.965 15 148.727 14.9487 148.569 14.846C148.522 15.518 148.326 16.1153 147.981 16.638C147.645 17.1607 147.187 17.5667 146.609 17.856C146.03 18.1547 145.367 18.304 144.621 18.304H144.033C142.81 18.304 141.863 17.9493 141.191 17.24C140.528 16.54 140.197 15.5647 140.197 14.314V11.444H142.269V14.258C142.269 14.8927 142.413 15.364 142.703 15.672C142.992 15.9893 143.445 16.148 144.061 16.148H144.621C145.227 16.148 145.699 15.9987 146.035 15.7C146.371 15.4013 146.539 14.9767 146.539 14.426V10.044H148.597V12.256ZM142.913 10.016V8.28H145.069V10.016H142.913ZM152.13 12.844C152.326 12.844 152.48 12.7973 152.592 12.704C152.704 12.6013 152.76 12.4613 152.76 12.284V10.044H154.818V12.242C154.818 12.6433 155.024 12.844 155.434 12.844H155.896C155.99 12.844 156.036 13.2033 156.036 13.922C156.036 14.6407 155.99 15 155.896 15H155.336C154.59 15 154.062 14.7947 153.754 14.384C153.577 14.5987 153.358 14.7573 153.096 14.86C152.844 14.9533 152.522 15 152.13 15H149.652C149.559 15 149.512 14.6453 149.512 13.936C149.512 13.208 149.559 12.844 149.652 12.844H152.13ZM153.348 16.274V18.01H149.316V16.274H153.348ZM159.876 12.382C159.876 13.194 159.634 13.8333 159.148 14.3C158.672 14.7667 158.028 15 157.216 15H155.9C155.807 15 155.76 14.6453 155.76 13.936C155.76 13.208 155.807 12.844 155.9 12.844H157.216C157.403 12.844 157.552 12.7927 157.664 12.69C157.786 12.5873 157.846 12.452 157.846 12.284V10.044H159.876V12.382ZM159.036 16.274V18.01H155.004V16.274H159.036ZM156.138 20.278V18.598H157.902V20.278H156.138Z" fill="#01B087"/>
</svg>
