<svg width="198" height="50" viewBox="0 0 198 50" fill="none" xmlns="http://www.w3.org/2000/svg">
<path d="M155.164 44.2644L153.56 42.6625C153.403 42.5145 153.15 42.5232 153.019 42.6973C151.459 44.7432 148.861 46.0838 145.932 46.0838C143.003 46.0838 140.405 44.7432 138.844 42.6973C138.713 42.5232 138.461 42.5145 138.304 42.6625L136.7 44.2644C136.482 44.482 136.464 44.8302 136.656 45.0653C138.862 47.7379 142.192 49.4355 145.923 49.4355H145.932C149.663 49.4355 153.002 47.7292 155.198 45.0653C155.399 44.8302 155.373 44.482 155.155 44.2644" fill="white"/>
<path d="M131.276 43.7148H129.663C129.594 43.7148 129.533 43.741 129.489 43.7845L129.062 44.2111C129.018 44.2546 128.992 44.3242 128.992 44.3852V44.6376C128.992 44.7595 129.088 44.8553 129.21 44.8553H131.503C131.695 44.8553 131.843 45.0033 131.843 45.1948V46.7879C131.843 46.9794 131.686 47.1274 131.503 47.1274H129.219C129.097 47.1274 128.992 47.2319 128.992 47.3538V48.0415C128.992 48.1634 129.097 48.2679 129.219 48.2679H131.285C132.226 48.2679 132.994 47.5018 132.994 46.5616V45.4211C132.994 44.4809 132.226 43.7148 131.285 43.7148" fill="white"/>
<path d="M104.428 46.4226C104.463 46.5097 104.55 46.5706 104.646 46.5706H105.352C105.509 46.5706 105.622 46.4139 105.57 46.2659L104.428 43.2886C104.393 43.2016 104.306 43.1406 104.21 43.1406H103.504C103.347 43.1406 103.243 43.2973 103.295 43.4453L104.428 46.4313V46.4226Z" fill="white"/>
<path d="M124.198 48.8516H123.484C123.362 48.8516 123.266 48.9473 123.266 49.0692V49.7831C123.266 49.9049 123.362 50.0007 123.484 50.0007H124.198C124.32 50.0007 124.416 49.9049 124.416 49.7831V49.0692C124.416 48.9473 124.32 48.8516 124.198 48.8516Z" fill="white"/>
<path d="M128.183 48.8516H126.344C126.222 48.8516 126.117 48.956 126.117 49.0779V49.7744C126.117 49.8962 126.222 50.0007 126.344 50.0007H128.183C128.305 50.0007 128.41 49.8962 128.41 49.7744V49.0779C128.41 48.956 128.305 48.8516 128.183 48.8516Z" fill="white"/>
<path d="M113.571 43.715H113.1L114.661 42.2263C114.739 42.1393 114.678 42 114.565 42H113.405C113.318 42 113.231 42.0348 113.161 42.0958L110.755 44.4637C110.616 44.603 110.712 44.8467 110.912 44.8467H113.571C113.876 44.8467 114.129 45.1079 114.129 45.4213V47.1363H109.883C109.7 47.1363 109.543 46.9796 109.543 46.7968V43.3668C109.543 43.2449 109.439 43.1404 109.317 43.1404H108.637C108.515 43.1404 108.41 43.2449 108.41 43.3668V46.6575C108.454 47.5542 109.195 48.2593 110.101 48.2593H115.018C115.14 48.2593 115.245 48.1636 115.245 48.0417V45.3778C115.21 44.4724 114.469 43.715 113.554 43.715H113.571Z" fill="white"/>
<path d="M107.635 43.1415H106.955C106.833 43.1415 106.729 43.246 106.729 43.3679V46.8153C106.729 46.9981 106.58 47.1548 106.389 47.1548H103.965C103.895 47.1548 103.834 47.1809 103.791 47.2244L103.355 47.6423C103.311 47.6858 103.285 47.7555 103.285 47.8164V48.0689C103.285 48.1908 103.381 48.2865 103.503 48.2865H106.162C107.069 48.2865 107.801 47.5727 107.853 46.6847V43.3592C107.853 43.2373 107.757 43.1328 107.635 43.1328" fill="white"/>
<path d="M128.4 46.6486V45.0816C128.4 44.9597 128.304 44.8553 128.173 44.8553H127.484C127.362 44.8553 127.258 44.9597 127.258 45.0816V46.7879C127.258 46.9794 127.101 47.1274 126.918 47.1274H124.398V45.4211C124.398 44.3242 123.605 43.7148 122.681 43.7148H121.068C120.999 43.7148 120.938 43.741 120.894 43.7845L120.467 44.2111C120.423 44.2546 120.397 44.3242 120.397 44.3852V44.6376C120.397 44.7595 120.493 44.8553 120.615 44.8553H122.908C123.099 44.8553 123.248 45.0033 123.248 45.1948V47.1274L119.473 47.1361C119.351 47.1361 119.246 47.2406 119.246 47.3625V48.0502C119.246 48.1721 119.351 48.2766 119.473 48.2766H120.388V48.5116C120.388 48.7031 120.231 48.8511 120.048 48.8511H117.267C117.102 48.8511 116.962 48.7118 116.962 48.5377V46.2221C116.962 46.1002 116.858 45.9957 116.736 45.9957H116.047C115.925 45.9957 115.82 46.1002 115.82 46.2221V48.2853C115.82 49.4257 116.396 49.9916 117.538 49.9916H119.848C120.859 49.9916 121.539 49.3474 121.539 48.2766H124.172C124.294 48.2766 124.398 48.1721 124.398 48.0502V47.6933L124.895 48.2069C124.939 48.2505 124.991 48.2766 125.052 48.2766H126.674C127.589 48.2766 128.339 47.5453 128.382 46.6486" fill="white"/>
<path d="M81.8381 46.2052H79.4233L81.8381 42.7578H84.2528L81.8381 46.2052ZM89.0824 46.2052H86.6676L84.2528 49.6526H86.6676L89.0824 46.2052ZM91.4971 49.6439H93.9119L91.4971 46.1965H89.0824L91.4971 49.6439ZM79.4233 46.2052H77.0085L74.5938 49.6526H77.0085L79.4233 46.2052ZM83.0498 47.9202H80.635L81.8468 49.6439H84.2615L83.0498 47.9202ZM90.2941 44.4815H92.7176L93.9206 42.7578H91.5059L90.2941 44.4815ZM77.0085 42.7578H74.5938L76.407 45.3434H78.8218L77.0085 42.7578ZM86.6676 42.7578H84.2528L86.0661 45.3434H88.4809L86.6676 42.7578Z" fill="white"/>
<path d="M68.3271 44.0114V45.265C68.3271 45.5088 68.2748 45.7525 68.1876 45.9876C68.0917 46.2139 67.9522 46.4229 67.7779 46.597C67.6035 46.7711 67.3943 46.9104 67.1676 47.0061C66.941 47.1019 66.6969 47.1454 66.4441 47.1454H65.1888C64.7267 47.1454 64.2821 46.9713 63.9334 46.6666C63.5934 46.98 63.1401 47.1454 62.6781 47.1454H58.9208C58.4239 47.1454 57.9444 46.9452 57.587 46.597C57.4127 46.4229 57.2732 46.2139 57.1773 45.9876C57.0814 45.7612 57.0378 45.5175 57.0378 45.265L58.7901 42.7578H60.7951V44.0114H58.2844V45.265C58.2844 45.6132 58.5634 45.8918 58.9121 45.8918H62.6694C62.835 45.8918 62.9919 45.8222 63.114 45.709C63.2273 45.5958 63.297 45.4304 63.297 45.265V44.0114H64.5524V45.265C64.5524 45.6132 64.8313 45.8918 65.18 45.8918H66.4354C66.601 45.8918 66.7579 45.8222 66.88 45.709C66.9933 45.5958 67.063 45.4304 67.063 45.265V44.0114H68.3184H68.3271ZM70.829 43.3846V45.265C70.829 45.6132 70.5501 45.8918 70.2014 45.8918H68.3184L69.1988 47.1454H70.2014C71.2388 47.1454 72.0844 46.301 72.0844 45.265V43.3846H70.829ZM50.7786 44.0114V45.265C50.7786 45.6132 50.4996 45.8918 50.1509 45.8918H48.8956C48.5469 45.8918 48.2679 45.6132 48.2679 45.265V44.0114H47.0126V46.5186C47.0126 46.8668 46.7336 47.1454 46.3849 47.1454H43.8743C43.5256 47.1454 43.2466 46.8668 43.2466 46.5186V44.0114H45.1296V42.7578H43.7522L42 45.265V46.5186C42 47.5546 42.8456 48.399 43.883 48.399H46.3937C47.2393 48.399 47.9803 47.8332 48.2069 47.0148C48.4249 47.1019 48.6602 47.1454 48.8956 47.1454H50.1509C50.395 47.1454 50.6391 47.0932 50.8745 47.0061C51.1012 46.9104 51.3104 46.7711 51.4847 46.597C51.6591 46.4229 51.7986 46.2139 51.8945 45.9876C51.9903 45.7612 52.0339 45.5175 52.0339 45.265V44.0114H50.7873H50.7786ZM48.2679 47.7635V49.0171H50.7786V47.7635H48.2679ZM64.5611 47.7635V49.0171H67.0718V47.7635H64.5611ZM69.5737 47.7635V49.0171H71.4567V47.7635H69.5737ZM53.2805 47.7635V49.0171H54.5359V49.6439H55.7912V47.7635H53.2805ZM54.5359 43.3846V45.265C54.5359 45.6132 54.2569 45.8918 53.9082 45.8918H52.0252L52.9057 47.1454H53.9082C54.1523 47.1454 54.3964 47.0932 54.6318 47.0061C54.8584 46.9104 55.0676 46.7711 55.242 46.597C55.4164 46.4229 55.5558 46.2139 55.6517 45.9876C55.7476 45.7612 55.7912 45.5175 55.7912 45.265V43.3846H54.5359Z" fill="white"/>
<path d="M98.332 43.1406V49.4348" stroke="white" stroke-width="0.5" stroke-miterlimit="10"/>
<path d="M2.725 19.63C2.51033 18.1427 2.357 16.847 2.265 15.743C2.18833 14.639 2.15 13.4047 2.15 12.04V9.28H6.52V12.04C6.52 13.4047 6.474 14.639 6.382 15.743C6.30533 16.847 6.15967 18.1427 5.945 19.63H2.725ZM4.335 24.69C2.725 24.69 1.92 23.9617 1.92 22.505C1.92 21.769 2.127 21.24 2.541 20.918C2.955 20.596 3.553 20.435 4.335 20.435C5.117 20.435 5.715 20.596 6.129 20.918C6.543 21.24 6.75 21.769 6.75 22.505C6.75 23.9617 5.945 24.69 4.335 24.69ZM8.5909 19.63C8.5909 18.8633 8.74423 18.1273 9.0509 17.422C9.3729 16.7013 9.88657 15.9423 10.5919 15.145L9.6029 14.11L12.7309 11.005C14.3409 12.477 15.5599 13.696 16.3879 14.662C17.2159 15.628 17.7679 16.4637 18.0439 17.169C18.3352 17.859 18.4809 18.6027 18.4809 19.4C18.4809 20.32 18.2662 21.148 17.8369 21.884C17.4076 22.6047 16.8096 23.1797 16.0429 23.609C15.2762 24.023 14.4022 24.23 13.4209 24.23C11.9336 24.23 10.7529 23.816 9.8789 22.988C9.02023 22.1447 8.5909 21.0253 8.5909 19.63ZM14.3409 19.17C14.3409 18.94 14.2796 18.733 14.1569 18.549C14.0342 18.3497 13.8272 18.135 13.5359 17.905C13.2446 18.135 13.0376 18.3497 12.9149 18.549C12.7922 18.733 12.7309 18.94 12.7309 19.17C12.7309 19.3847 12.7999 19.5533 12.9379 19.676C13.0912 19.7987 13.2906 19.86 13.5359 19.86C13.7812 19.86 13.9729 19.7987 14.1109 19.676C14.2642 19.5533 14.3409 19.3847 14.3409 19.17ZM25.2605 19.4C25.3832 19.4 25.4905 19.3693 25.5825 19.308C25.6745 19.2467 25.7205 19.1623 25.7205 19.055C25.7205 18.963 25.6208 18.664 25.4215 18.158C25.2375 17.6367 24.9002 16.755 24.4095 15.513L23.5355 13.305L27.6755 11.35L30.4355 18.94C30.4815 19.0627 30.5582 19.17 30.6655 19.262C30.7882 19.354 30.9108 19.4 31.0335 19.4H31.8155C31.9688 19.4 32.0455 20.1667 32.0455 21.7C32.0455 22.6967 32.0225 23.333 31.9765 23.609C31.9305 23.8697 31.8768 24 31.8155 24H30.6425C29.5692 24 28.7718 23.7317 28.2505 23.195C27.8825 23.517 27.5298 23.7317 27.1925 23.839C26.8705 23.9463 26.5332 24 26.1805 24H20.4305L20.0855 19.4H25.2605ZM33.0814 19.4C33.3881 19.4 33.5414 19.285 33.5414 19.055V15.375H37.7964V19.055C37.7964 19.147 37.8271 19.2313 37.8884 19.308C37.9651 19.3693 38.0647 19.4 38.1874 19.4C38.4634 19.4 38.6014 19.285 38.6014 19.055V15.375H42.8564V19.032C42.8564 19.1393 42.8947 19.2313 42.9714 19.308C43.0481 19.3693 43.1401 19.4 43.2474 19.4C43.3547 19.4 43.4467 19.3693 43.5234 19.308C43.6154 19.2313 43.6614 19.1393 43.6614 19.032V15.375H47.9164V19.285C47.9164 20.7263 47.4871 21.8763 46.6284 22.735C45.7851 23.5783 44.6427 24 43.2014 24C42.0667 24 41.2234 23.7317 40.6714 23.195C40.3801 23.4863 40.0427 23.6933 39.6594 23.816C39.2761 23.9387 38.7701 24 38.1414 24C37.0067 24 36.1634 23.7317 35.6114 23.195C35.3201 23.4863 34.9827 23.6933 34.5994 23.816C34.2161 23.9387 33.7101 24 33.0814 24H31.8164C31.6631 24 31.5864 23.2333 31.5864 21.7C31.5864 20.7187 31.6094 20.09 31.6554 19.814C31.7014 19.538 31.7551 19.4 31.8164 19.4H33.0814ZM42.3964 6.635V9.97H38.9464V6.635H42.3964ZM44.1214 10.66V13.995H37.2214V10.66H44.1214ZM67.3658 18.94C67.3658 19.1087 67.3964 19.2313 67.4578 19.308C67.5344 19.3693 67.6571 19.4 67.8258 19.4H68.7458C68.8991 19.4 68.9758 20.1667 68.9758 21.7C68.9758 23.2333 68.8991 24 68.7458 24H67.9408C67.6341 24 67.4041 23.9617 67.2508 23.885C67.0974 24.9277 66.7294 25.8553 66.1468 26.668C65.5794 27.496 64.8281 28.14 63.8928 28.6C62.9574 29.06 61.8918 29.29 60.6958 29.29H59.6608C57.6521 29.29 56.0728 28.692 54.9228 27.496C53.7881 26.3153 53.2208 24.69 53.2208 22.62V17.675H57.5908V22.505C57.5908 23.2563 57.7671 23.8083 58.1198 24.161C58.4724 24.5137 59.0244 24.69 59.7758 24.69H60.6958C61.4318 24.69 61.9991 24.529 62.3978 24.207C62.7964 23.885 62.9958 23.4327 62.9958 22.85V15.375H67.3658V18.94ZM57.1308 15.95V12.615H61.5008V15.95H57.1308ZM72.5372 19.4C72.8439 19.4 72.9972 19.285 72.9972 19.055V15.375H77.3672V19.055C77.3672 19.285 77.5205 19.4 77.8272 19.4H78.2872C78.4405 19.4 78.5172 20.1667 78.5172 21.7C78.5172 23.2333 78.4405 24 78.2872 24H77.5972C76.4625 24 75.6192 23.7317 75.0672 23.195C74.7759 23.4863 74.4385 23.6933 74.0552 23.816C73.6719 23.9387 73.1659 24 72.5372 24H68.7422C68.5889 24 68.5122 23.2333 68.5122 21.7C68.5122 20.7187 68.5352 20.09 68.5812 19.814C68.6272 19.538 68.6809 19.4 68.7422 19.4H72.5372ZM74.9522 25.38V28.715H68.0522V25.38H74.9522ZM84.9581 19.285C84.9581 20.7263 84.5288 21.8763 83.6701 22.735C82.8268 23.5783 81.6844 24 80.2431 24H78.2881C78.1348 24 78.0581 23.2333 78.0581 21.7C78.0581 20.7187 78.0811 20.09 78.1271 19.814C78.1731 19.538 78.2268 19.4 78.2881 19.4H80.2431C80.3658 19.4 80.4731 19.3693 80.5651 19.308C80.6571 19.2313 80.7031 19.1393 80.7031 19.032V15.375H84.9581V19.285ZM83.5781 25.38V28.715H76.6781V25.38H83.5781ZM78.4031 32.74V29.405H81.8531V32.74H78.4031ZM92.6739 24C91.8612 24 91.2555 23.793 90.8569 23.379C90.4582 22.965 90.2589 22.2137 90.2589 21.125C90.2589 19.5917 90.3739 18.4647 90.6039 17.744C90.8492 17.0233 91.2785 16.5097 91.8919 16.203C92.5205 15.8963 93.5095 15.6587 94.8589 15.49V18.02C94.1382 18.1427 93.6322 18.25 93.3409 18.342C93.0495 18.434 92.8655 18.549 92.7889 18.687C92.7122 18.825 92.6739 19.0627 92.6739 19.4C93.4712 19.4 94.0692 19.561 94.4679 19.883C94.8819 20.205 95.0889 20.7723 95.0889 21.585C95.0889 23.195 94.2839 24 92.6739 24ZM107.74 19.4C108.046 19.4 108.2 19.285 108.2 19.055V15.375H112.57V19.055C112.57 19.285 112.723 19.4 113.03 19.4H113.49C113.643 19.4 113.72 20.1667 113.72 21.7C113.72 23.2333 113.643 24 113.49 24H112.8C111.665 24 110.822 23.7317 110.27 23.195C109.978 23.4863 109.641 23.6933 109.258 23.816C108.874 23.9387 108.368 24 107.74 24H101.415C99.9734 24 98.8618 23.609 98.0798 22.827C97.3131 22.0297 96.9298 20.8873 96.9298 19.4V15.375H101.3V18.825C101.3 19.009 101.338 19.1547 101.415 19.262C101.507 19.354 101.66 19.4 101.875 19.4H107.74ZM108.2 10.66V13.995H101.3V10.66H108.2ZM115.439 19.4C115.746 19.4 115.899 19.285 115.899 19.055V15.375H120.269V19.055C120.269 19.285 120.423 19.4 120.729 19.4H121.189C121.343 19.4 121.419 20.1667 121.419 21.7C121.419 23.2333 121.343 24 121.189 24H120.499C119.365 24 118.521 23.7317 117.969 23.195C117.678 23.4863 117.341 23.6933 116.957 23.816C116.574 23.9387 116.068 24 115.439 24H113.484C113.331 24 113.254 23.2333 113.254 21.7C113.254 20.7187 113.277 20.09 113.323 19.814C113.369 19.538 113.423 19.4 113.484 19.4H115.439ZM118.314 25.38V28.715H111.414V25.38H118.314ZM127.858 19.285C127.858 20.7263 127.429 21.8763 126.57 22.735C125.727 23.5783 124.585 24 123.143 24H121.188C121.035 24 120.958 23.2333 120.958 21.7C120.958 20.7187 120.981 20.09 121.027 19.814C121.073 19.538 121.127 19.4 121.188 19.4H123.143C123.266 19.4 123.373 19.3693 123.465 19.308C123.557 19.2313 123.603 19.1393 123.603 19.032V15.375H127.858V19.285ZM120.843 28.715V25.38H125.213V28.715H120.843ZM142.819 18.94C142.819 19.0627 142.858 19.17 142.934 19.262C143.011 19.354 143.126 19.4 143.279 19.4H144.199C144.353 19.4 144.429 20.1667 144.429 21.7C144.429 23.2333 144.353 24 144.199 24H143.164C141.631 24 140.634 23.425 140.174 22.275C139.53 22.8117 138.61 23.08 137.414 23.08C136.096 23.08 135.053 22.6813 134.286 21.884C133.535 21.0713 133.159 19.86 133.159 18.25C133.159 17.3913 133.343 16.5633 133.711 15.766C134.095 14.9687 134.631 14.3247 135.321 13.834C136.027 13.328 136.839 13.075 137.759 13.075H138.449V11.58H142.819V18.94ZM137.299 18.135C137.299 18.595 137.529 18.825 137.989 18.825C138.449 18.825 138.679 18.595 138.679 18.135V17.33H138.219C137.882 17.33 137.644 17.3913 137.506 17.514C137.368 17.6367 137.299 17.8437 137.299 18.135ZM150.858 19.285C150.858 20.7263 150.429 21.8763 149.57 22.735C148.727 23.5783 147.585 24 146.143 24H144.188C144.035 24 143.958 23.2333 143.958 21.7C143.958 20.7187 143.981 20.09 144.027 19.814C144.073 19.538 144.127 19.4 144.188 19.4H146.143C146.266 19.4 146.373 19.3693 146.465 19.308C146.557 19.2313 146.603 19.1393 146.603 19.032V15.375H150.858V19.285ZM149.478 25.38V28.715H142.578V25.38H149.478ZM161.909 19.4C161.986 19.4 162.04 19.538 162.07 19.814C162.116 20.09 162.139 20.7187 162.139 21.7C162.139 22.6813 162.116 23.31 162.07 23.586C162.04 23.862 161.986 24 161.909 24H160.759C159.287 24 158.168 23.5937 157.401 22.781C156.65 21.9683 156.274 20.803 156.274 19.285V9.28H160.644V18.94C160.644 19.1087 160.675 19.2313 160.736 19.308C160.813 19.3693 160.936 19.4 161.104 19.4H161.909ZM169.615 13.42C170.336 13.42 170.964 13.558 171.501 13.834C172.038 14.0947 172.536 14.593 172.996 15.329C173.456 16.065 173.878 17.1153 174.261 18.48L172.95 19.4H174.215H175.595C175.748 19.4 175.825 20.1667 175.825 21.7C175.825 22.6967 175.802 23.333 175.756 23.609C175.71 23.8697 175.656 24 175.595 24H173.64C172.827 24 172.13 23.8543 171.547 23.563C170.964 23.2563 170.474 22.7887 170.075 22.16L169.27 22.62C168.427 23.1107 167.576 23.4633 166.717 23.678C165.858 23.8927 164.793 24 163.52 24H161.91C161.757 24 161.68 23.2333 161.68 21.7C161.68 20.7187 161.703 20.09 161.749 19.814C161.795 19.538 161.849 19.4 161.91 19.4H163.75C164.869 19.4 165.82 19.331 166.602 19.193C167.399 19.0397 168.25 18.7637 169.155 18.365C169.094 18.1503 169.009 18.0047 168.902 17.928C168.795 17.836 168.649 17.79 168.465 17.79H163.29L163.635 13.42H169.615ZM165.015 28.715V25.38H169.385V28.715H165.015ZM177.544 19.4C177.851 19.4 178.004 19.285 178.004 19.055V15.375H182.374V19.055C182.374 19.285 182.527 19.4 182.834 19.4H183.294C183.447 19.4 183.524 20.1667 183.524 21.7C183.524 23.2333 183.447 24 183.294 24H182.604C181.469 24 180.626 23.7317 180.074 23.195C179.783 23.4863 179.445 23.6933 179.062 23.816C178.679 23.9387 178.173 24 177.544 24H175.589C175.436 24 175.359 23.2333 175.359 21.7C175.359 20.7187 175.382 20.09 175.428 19.814C175.474 19.538 175.528 19.4 175.589 19.4H177.544ZM177.889 13.995V10.66H182.259V13.995H177.889ZM189.963 19.285C189.963 20.7263 189.534 21.8763 188.675 22.735C187.832 23.5783 186.689 24 185.248 24H183.293C183.14 24 183.063 23.2333 183.063 21.7C183.063 20.7187 183.086 20.09 183.132 19.814C183.178 19.538 183.232 19.4 183.293 19.4H185.248C185.371 19.4 185.478 19.3693 185.57 19.308C185.662 19.2313 185.708 19.1393 185.708 19.032V15.375H189.963V19.285ZM188.583 25.38V28.715H181.683V25.38H188.583ZM191.92 9.28H196.29V24H191.92V9.28Z" fill="#012517"/>
<mask id="path-13-outside-1_8511_54" maskUnits="userSpaceOnUse" x="0" y="5" width="196" height="28" fill="black">
<rect fill="white" y="5" width="196" height="28"/>
<path d="M1.725 18.63C1.51033 17.1427 1.357 15.847 1.265 14.743C1.18833 13.639 1.15 12.4047 1.15 11.04V8.28H5.52V11.04C5.52 12.4047 5.474 13.639 5.382 14.743C5.30533 15.847 5.15967 17.1427 4.945 18.63H1.725ZM3.335 23.69C1.725 23.69 0.92 22.9617 0.92 21.505C0.92 20.769 1.127 20.24 1.541 19.918C1.955 19.596 2.553 19.435 3.335 19.435C4.117 19.435 4.715 19.596 5.129 19.918C5.543 20.24 5.75 20.769 5.75 21.505C5.75 22.9617 4.945 23.69 3.335 23.69ZM7.5909 18.63C7.5909 17.8633 7.74423 17.1273 8.0509 16.422C8.3729 15.7013 8.88657 14.9423 9.5919 14.145L8.6029 13.11L11.7309 10.005C13.3409 11.477 14.5599 12.696 15.3879 13.662C16.2159 14.628 16.7679 15.4637 17.0439 16.169C17.3352 16.859 17.4809 17.6027 17.4809 18.4C17.4809 19.32 17.2662 20.148 16.8369 20.884C16.4076 21.6047 15.8096 22.1797 15.0429 22.609C14.2762 23.023 13.4022 23.23 12.4209 23.23C10.9336 23.23 9.7529 22.816 8.8789 21.988C8.02023 21.1447 7.5909 20.0253 7.5909 18.63ZM13.3409 18.17C13.3409 17.94 13.2796 17.733 13.1569 17.549C13.0342 17.3497 12.8272 17.135 12.5359 16.905C12.2446 17.135 12.0376 17.3497 11.9149 17.549C11.7922 17.733 11.7309 17.94 11.7309 18.17C11.7309 18.3847 11.7999 18.5533 11.9379 18.676C12.0912 18.7987 12.2906 18.86 12.5359 18.86C12.7812 18.86 12.9729 18.7987 13.1109 18.676C13.2642 18.5533 13.3409 18.3847 13.3409 18.17ZM24.2605 18.4C24.3832 18.4 24.4905 18.3693 24.5825 18.308C24.6745 18.2467 24.7205 18.1623 24.7205 18.055C24.7205 17.963 24.6208 17.664 24.4215 17.158C24.2375 16.6367 23.9002 15.755 23.4095 14.513L22.5355 12.305L26.6755 10.35L29.4355 17.94C29.4815 18.0627 29.5582 18.17 29.6655 18.262C29.7882 18.354 29.9108 18.4 30.0335 18.4H30.8155C30.9688 18.4 31.0455 19.1667 31.0455 20.7C31.0455 21.6967 31.0225 22.333 30.9765 22.609C30.9305 22.8697 30.8768 23 30.8155 23H29.6425C28.5692 23 27.7718 22.7317 27.2505 22.195C26.8825 22.517 26.5298 22.7317 26.1925 22.839C25.8705 22.9463 25.5332 23 25.1805 23H19.4305L19.0855 18.4H24.2605ZM32.0814 18.4C32.3881 18.4 32.5414 18.285 32.5414 18.055V14.375H36.7964V18.055C36.7964 18.147 36.8271 18.2313 36.8884 18.308C36.9651 18.3693 37.0647 18.4 37.1874 18.4C37.4634 18.4 37.6014 18.285 37.6014 18.055V14.375H41.8564V18.032C41.8564 18.1393 41.8947 18.2313 41.9714 18.308C42.0481 18.3693 42.1401 18.4 42.2474 18.4C42.3547 18.4 42.4467 18.3693 42.5234 18.308C42.6154 18.2313 42.6614 18.1393 42.6614 18.032V14.375H46.9164V18.285C46.9164 19.7263 46.4871 20.8763 45.6284 21.735C44.7851 22.5783 43.6427 23 42.2014 23C41.0667 23 40.2234 22.7317 39.6714 22.195C39.3801 22.4863 39.0427 22.6933 38.6594 22.816C38.2761 22.9387 37.7701 23 37.1414 23C36.0067 23 35.1634 22.7317 34.6114 22.195C34.3201 22.4863 33.9827 22.6933 33.5994 22.816C33.2161 22.9387 32.7101 23 32.0814 23H30.8164C30.6631 23 30.5864 22.2333 30.5864 20.7C30.5864 19.7187 30.6094 19.09 30.6554 18.814C30.7014 18.538 30.7551 18.4 30.8164 18.4H32.0814ZM41.3964 5.635V8.97H37.9464V5.635H41.3964ZM43.1214 9.66V12.995H36.2214V9.66H43.1214ZM66.3658 17.94C66.3658 18.1087 66.3964 18.2313 66.4578 18.308C66.5344 18.3693 66.6571 18.4 66.8258 18.4H67.7458C67.8991 18.4 67.9758 19.1667 67.9758 20.7C67.9758 22.2333 67.8991 23 67.7458 23H66.9408C66.6341 23 66.4041 22.9617 66.2508 22.885C66.0974 23.9277 65.7294 24.8553 65.1468 25.668C64.5794 26.496 63.8281 27.14 62.8928 27.6C61.9574 28.06 60.8918 28.29 59.6958 28.29H58.6608C56.6521 28.29 55.0728 27.692 53.9228 26.496C52.7881 25.3153 52.2208 23.69 52.2208 21.62V16.675H56.5908V21.505C56.5908 22.2563 56.7671 22.8083 57.1198 23.161C57.4724 23.5137 58.0244 23.69 58.7758 23.69H59.6958C60.4318 23.69 60.9991 23.529 61.3978 23.207C61.7964 22.885 61.9958 22.4327 61.9958 21.85V14.375H66.3658V17.94ZM56.1308 14.95V11.615H60.5008V14.95H56.1308ZM71.5372 18.4C71.8439 18.4 71.9972 18.285 71.9972 18.055V14.375H76.3672V18.055C76.3672 18.285 76.5205 18.4 76.8272 18.4H77.2872C77.4405 18.4 77.5172 19.1667 77.5172 20.7C77.5172 22.2333 77.4405 23 77.2872 23H76.5972C75.4625 23 74.6192 22.7317 74.0672 22.195C73.7759 22.4863 73.4385 22.6933 73.0552 22.816C72.6719 22.9387 72.1659 23 71.5372 23H67.7422C67.5889 23 67.5122 22.2333 67.5122 20.7C67.5122 19.7187 67.5352 19.09 67.5812 18.814C67.6272 18.538 67.6809 18.4 67.7422 18.4H71.5372ZM73.9522 24.38V27.715H67.0522V24.38H73.9522ZM83.9581 18.285C83.9581 19.7263 83.5288 20.8763 82.6701 21.735C81.8268 22.5783 80.6844 23 79.2431 23H77.2881C77.1348 23 77.0581 22.2333 77.0581 20.7C77.0581 19.7187 77.0811 19.09 77.1271 18.814C77.1731 18.538 77.2268 18.4 77.2881 18.4H79.2431C79.3658 18.4 79.4731 18.3693 79.5651 18.308C79.6571 18.2313 79.7031 18.1393 79.7031 18.032V14.375H83.9581V18.285ZM82.5781 24.38V27.715H75.6781V24.38H82.5781ZM77.4031 31.74V28.405H80.8531V31.74H77.4031ZM91.6739 23C90.8612 23 90.2555 22.793 89.8569 22.379C89.4582 21.965 89.2589 21.2137 89.2589 20.125C89.2589 18.5917 89.3739 17.4647 89.6039 16.744C89.8492 16.0233 90.2785 15.5097 90.8919 15.203C91.5205 14.8963 92.5095 14.6587 93.8589 14.49V17.02C93.1382 17.1427 92.6322 17.25 92.3409 17.342C92.0495 17.434 91.8655 17.549 91.7889 17.687C91.7122 17.825 91.6739 18.0627 91.6739 18.4C92.4712 18.4 93.0692 18.561 93.4679 18.883C93.8819 19.205 94.0889 19.7723 94.0889 20.585C94.0889 22.195 93.2839 23 91.6739 23ZM106.74 18.4C107.046 18.4 107.2 18.285 107.2 18.055V14.375H111.57V18.055C111.57 18.285 111.723 18.4 112.03 18.4H112.49C112.643 18.4 112.72 19.1667 112.72 20.7C112.72 22.2333 112.643 23 112.49 23H111.8C110.665 23 109.822 22.7317 109.27 22.195C108.978 22.4863 108.641 22.6933 108.258 22.816C107.874 22.9387 107.368 23 106.74 23H100.415C98.9734 23 97.8618 22.609 97.0798 21.827C96.3131 21.0297 95.9298 19.8873 95.9298 18.4V14.375H100.3V17.825C100.3 18.009 100.338 18.1547 100.415 18.262C100.507 18.354 100.66 18.4 100.875 18.4H106.74ZM107.2 9.66V12.995H100.3V9.66H107.2ZM114.439 18.4C114.746 18.4 114.899 18.285 114.899 18.055V14.375H119.269V18.055C119.269 18.285 119.423 18.4 119.729 18.4H120.189C120.343 18.4 120.419 19.1667 120.419 20.7C120.419 22.2333 120.343 23 120.189 23H119.499C118.365 23 117.521 22.7317 116.969 22.195C116.678 22.4863 116.341 22.6933 115.957 22.816C115.574 22.9387 115.068 23 114.439 23H112.484C112.331 23 112.254 22.2333 112.254 20.7C112.254 19.7187 112.277 19.09 112.323 18.814C112.369 18.538 112.423 18.4 112.484 18.4H114.439ZM117.314 24.38V27.715H110.414V24.38H117.314ZM126.858 18.285C126.858 19.7263 126.429 20.8763 125.57 21.735C124.727 22.5783 123.585 23 122.143 23H120.188C120.035 23 119.958 22.2333 119.958 20.7C119.958 19.7187 119.981 19.09 120.027 18.814C120.073 18.538 120.127 18.4 120.188 18.4H122.143C122.266 18.4 122.373 18.3693 122.465 18.308C122.557 18.2313 122.603 18.1393 122.603 18.032V14.375H126.858V18.285ZM119.843 27.715V24.38H124.213V27.715H119.843ZM141.819 17.94C141.819 18.0627 141.858 18.17 141.934 18.262C142.011 18.354 142.126 18.4 142.279 18.4H143.199C143.353 18.4 143.429 19.1667 143.429 20.7C143.429 22.2333 143.353 23 143.199 23H142.164C140.631 23 139.634 22.425 139.174 21.275C138.53 21.8117 137.61 22.08 136.414 22.08C135.096 22.08 134.053 21.6813 133.286 20.884C132.535 20.0713 132.159 18.86 132.159 17.25C132.159 16.3913 132.343 15.5633 132.711 14.766C133.095 13.9687 133.631 13.3247 134.321 12.834C135.027 12.328 135.839 12.075 136.759 12.075H137.449V10.58H141.819V17.94ZM136.299 17.135C136.299 17.595 136.529 17.825 136.989 17.825C137.449 17.825 137.679 17.595 137.679 17.135V16.33H137.219C136.882 16.33 136.644 16.3913 136.506 16.514C136.368 16.6367 136.299 16.8437 136.299 17.135ZM149.858 18.285C149.858 19.7263 149.429 20.8763 148.57 21.735C147.727 22.5783 146.585 23 145.143 23H143.188C143.035 23 142.958 22.2333 142.958 20.7C142.958 19.7187 142.981 19.09 143.027 18.814C143.073 18.538 143.127 18.4 143.188 18.4H145.143C145.266 18.4 145.373 18.3693 145.465 18.308C145.557 18.2313 145.603 18.1393 145.603 18.032V14.375H149.858V18.285ZM148.478 24.38V27.715H141.578V24.38H148.478ZM160.909 18.4C160.986 18.4 161.04 18.538 161.07 18.814C161.116 19.09 161.139 19.7187 161.139 20.7C161.139 21.6813 161.116 22.31 161.07 22.586C161.04 22.862 160.986 23 160.909 23H159.759C158.287 23 157.168 22.5937 156.401 21.781C155.65 20.9683 155.274 19.803 155.274 18.285V8.28H159.644V17.94C159.644 18.1087 159.675 18.2313 159.736 18.308C159.813 18.3693 159.936 18.4 160.104 18.4H160.909ZM168.615 12.42C169.336 12.42 169.964 12.558 170.501 12.834C171.038 13.0947 171.536 13.593 171.996 14.329C172.456 15.065 172.878 16.1153 173.261 17.48L171.95 18.4H173.215H174.595C174.748 18.4 174.825 19.1667 174.825 20.7C174.825 21.6967 174.802 22.333 174.756 22.609C174.71 22.8697 174.656 23 174.595 23H172.64C171.827 23 171.13 22.8543 170.547 22.563C169.964 22.2563 169.474 21.7887 169.075 21.16L168.27 21.62C167.427 22.1107 166.576 22.4633 165.717 22.678C164.858 22.8927 163.793 23 162.52 23H160.91C160.757 23 160.68 22.2333 160.68 20.7C160.68 19.7187 160.703 19.09 160.749 18.814C160.795 18.538 160.849 18.4 160.91 18.4H162.75C163.869 18.4 164.82 18.331 165.602 18.193C166.399 18.0397 167.25 17.7637 168.155 17.365C168.094 17.1503 168.009 17.0047 167.902 16.928C167.795 16.836 167.649 16.79 167.465 16.79H162.29L162.635 12.42H168.615ZM164.015 27.715V24.38H168.385V27.715H164.015ZM176.544 18.4C176.851 18.4 177.004 18.285 177.004 18.055V14.375H181.374V18.055C181.374 18.285 181.527 18.4 181.834 18.4H182.294C182.447 18.4 182.524 19.1667 182.524 20.7C182.524 22.2333 182.447 23 182.294 23H181.604C180.469 23 179.626 22.7317 179.074 22.195C178.783 22.4863 178.445 22.6933 178.062 22.816C177.679 22.9387 177.173 23 176.544 23H174.589C174.436 23 174.359 22.2333 174.359 20.7C174.359 19.7187 174.382 19.09 174.428 18.814C174.474 18.538 174.528 18.4 174.589 18.4H176.544ZM176.889 12.995V9.66H181.259V12.995H176.889ZM188.963 18.285C188.963 19.7263 188.534 20.8763 187.675 21.735C186.832 22.5783 185.689 23 184.248 23H182.293C182.14 23 182.063 22.2333 182.063 20.7C182.063 19.7187 182.086 19.09 182.132 18.814C182.178 18.538 182.232 18.4 182.293 18.4H184.248C184.371 18.4 184.478 18.3693 184.57 18.308C184.662 18.2313 184.708 18.1393 184.708 18.032V14.375H188.963V18.285ZM187.583 24.38V27.715H180.683V24.38H187.583ZM190.92 8.28H195.29V23H190.92V8.28Z"/>
</mask>
<path d="M1.725 18.63C1.51033 17.1427 1.357 15.847 1.265 14.743C1.18833 13.639 1.15 12.4047 1.15 11.04V8.28H5.52V11.04C5.52 12.4047 5.474 13.639 5.382 14.743C5.30533 15.847 5.15967 17.1427 4.945 18.63H1.725ZM3.335 23.69C1.725 23.69 0.92 22.9617 0.92 21.505C0.92 20.769 1.127 20.24 1.541 19.918C1.955 19.596 2.553 19.435 3.335 19.435C4.117 19.435 4.715 19.596 5.129 19.918C5.543 20.24 5.75 20.769 5.75 21.505C5.75 22.9617 4.945 23.69 3.335 23.69ZM7.5909 18.63C7.5909 17.8633 7.74423 17.1273 8.0509 16.422C8.3729 15.7013 8.88657 14.9423 9.5919 14.145L8.6029 13.11L11.7309 10.005C13.3409 11.477 14.5599 12.696 15.3879 13.662C16.2159 14.628 16.7679 15.4637 17.0439 16.169C17.3352 16.859 17.4809 17.6027 17.4809 18.4C17.4809 19.32 17.2662 20.148 16.8369 20.884C16.4076 21.6047 15.8096 22.1797 15.0429 22.609C14.2762 23.023 13.4022 23.23 12.4209 23.23C10.9336 23.23 9.7529 22.816 8.8789 21.988C8.02023 21.1447 7.5909 20.0253 7.5909 18.63ZM13.3409 18.17C13.3409 17.94 13.2796 17.733 13.1569 17.549C13.0342 17.3497 12.8272 17.135 12.5359 16.905C12.2446 17.135 12.0376 17.3497 11.9149 17.549C11.7922 17.733 11.7309 17.94 11.7309 18.17C11.7309 18.3847 11.7999 18.5533 11.9379 18.676C12.0912 18.7987 12.2906 18.86 12.5359 18.86C12.7812 18.86 12.9729 18.7987 13.1109 18.676C13.2642 18.5533 13.3409 18.3847 13.3409 18.17ZM24.2605 18.4C24.3832 18.4 24.4905 18.3693 24.5825 18.308C24.6745 18.2467 24.7205 18.1623 24.7205 18.055C24.7205 17.963 24.6208 17.664 24.4215 17.158C24.2375 16.6367 23.9002 15.755 23.4095 14.513L22.5355 12.305L26.6755 10.35L29.4355 17.94C29.4815 18.0627 29.5582 18.17 29.6655 18.262C29.7882 18.354 29.9108 18.4 30.0335 18.4H30.8155C30.9688 18.4 31.0455 19.1667 31.0455 20.7C31.0455 21.6967 31.0225 22.333 30.9765 22.609C30.9305 22.8697 30.8768 23 30.8155 23H29.6425C28.5692 23 27.7718 22.7317 27.2505 22.195C26.8825 22.517 26.5298 22.7317 26.1925 22.839C25.8705 22.9463 25.5332 23 25.1805 23H19.4305L19.0855 18.4H24.2605ZM32.0814 18.4C32.3881 18.4 32.5414 18.285 32.5414 18.055V14.375H36.7964V18.055C36.7964 18.147 36.8271 18.2313 36.8884 18.308C36.9651 18.3693 37.0647 18.4 37.1874 18.4C37.4634 18.4 37.6014 18.285 37.6014 18.055V14.375H41.8564V18.032C41.8564 18.1393 41.8947 18.2313 41.9714 18.308C42.0481 18.3693 42.1401 18.4 42.2474 18.4C42.3547 18.4 42.4467 18.3693 42.5234 18.308C42.6154 18.2313 42.6614 18.1393 42.6614 18.032V14.375H46.9164V18.285C46.9164 19.7263 46.4871 20.8763 45.6284 21.735C44.7851 22.5783 43.6427 23 42.2014 23C41.0667 23 40.2234 22.7317 39.6714 22.195C39.3801 22.4863 39.0427 22.6933 38.6594 22.816C38.2761 22.9387 37.7701 23 37.1414 23C36.0067 23 35.1634 22.7317 34.6114 22.195C34.3201 22.4863 33.9827 22.6933 33.5994 22.816C33.2161 22.9387 32.7101 23 32.0814 23H30.8164C30.6631 23 30.5864 22.2333 30.5864 20.7C30.5864 19.7187 30.6094 19.09 30.6554 18.814C30.7014 18.538 30.7551 18.4 30.8164 18.4H32.0814ZM41.3964 5.635V8.97H37.9464V5.635H41.3964ZM43.1214 9.66V12.995H36.2214V9.66H43.1214ZM66.3658 17.94C66.3658 18.1087 66.3964 18.2313 66.4578 18.308C66.5344 18.3693 66.6571 18.4 66.8258 18.4H67.7458C67.8991 18.4 67.9758 19.1667 67.9758 20.7C67.9758 22.2333 67.8991 23 67.7458 23H66.9408C66.6341 23 66.4041 22.9617 66.2508 22.885C66.0974 23.9277 65.7294 24.8553 65.1468 25.668C64.5794 26.496 63.8281 27.14 62.8928 27.6C61.9574 28.06 60.8918 28.29 59.6958 28.29H58.6608C56.6521 28.29 55.0728 27.692 53.9228 26.496C52.7881 25.3153 52.2208 23.69 52.2208 21.62V16.675H56.5908V21.505C56.5908 22.2563 56.7671 22.8083 57.1198 23.161C57.4724 23.5137 58.0244 23.69 58.7758 23.69H59.6958C60.4318 23.69 60.9991 23.529 61.3978 23.207C61.7964 22.885 61.9958 22.4327 61.9958 21.85V14.375H66.3658V17.94ZM56.1308 14.95V11.615H60.5008V14.95H56.1308ZM71.5372 18.4C71.8439 18.4 71.9972 18.285 71.9972 18.055V14.375H76.3672V18.055C76.3672 18.285 76.5205 18.4 76.8272 18.4H77.2872C77.4405 18.4 77.5172 19.1667 77.5172 20.7C77.5172 22.2333 77.4405 23 77.2872 23H76.5972C75.4625 23 74.6192 22.7317 74.0672 22.195C73.7759 22.4863 73.4385 22.6933 73.0552 22.816C72.6719 22.9387 72.1659 23 71.5372 23H67.7422C67.5889 23 67.5122 22.2333 67.5122 20.7C67.5122 19.7187 67.5352 19.09 67.5812 18.814C67.6272 18.538 67.6809 18.4 67.7422 18.4H71.5372ZM73.9522 24.38V27.715H67.0522V24.38H73.9522ZM83.9581 18.285C83.9581 19.7263 83.5288 20.8763 82.6701 21.735C81.8268 22.5783 80.6844 23 79.2431 23H77.2881C77.1348 23 77.0581 22.2333 77.0581 20.7C77.0581 19.7187 77.0811 19.09 77.1271 18.814C77.1731 18.538 77.2268 18.4 77.2881 18.4H79.2431C79.3658 18.4 79.4731 18.3693 79.5651 18.308C79.6571 18.2313 79.7031 18.1393 79.7031 18.032V14.375H83.9581V18.285ZM82.5781 24.38V27.715H75.6781V24.38H82.5781ZM77.4031 31.74V28.405H80.8531V31.74H77.4031ZM91.6739 23C90.8612 23 90.2555 22.793 89.8569 22.379C89.4582 21.965 89.2589 21.2137 89.2589 20.125C89.2589 18.5917 89.3739 17.4647 89.6039 16.744C89.8492 16.0233 90.2785 15.5097 90.8919 15.203C91.5205 14.8963 92.5095 14.6587 93.8589 14.49V17.02C93.1382 17.1427 92.6322 17.25 92.3409 17.342C92.0495 17.434 91.8655 17.549 91.7889 17.687C91.7122 17.825 91.6739 18.0627 91.6739 18.4C92.4712 18.4 93.0692 18.561 93.4679 18.883C93.8819 19.205 94.0889 19.7723 94.0889 20.585C94.0889 22.195 93.2839 23 91.6739 23ZM106.74 18.4C107.046 18.4 107.2 18.285 107.2 18.055V14.375H111.57V18.055C111.57 18.285 111.723 18.4 112.03 18.4H112.49C112.643 18.4 112.72 19.1667 112.72 20.7C112.72 22.2333 112.643 23 112.49 23H111.8C110.665 23 109.822 22.7317 109.27 22.195C108.978 22.4863 108.641 22.6933 108.258 22.816C107.874 22.9387 107.368 23 106.74 23H100.415C98.9734 23 97.8618 22.609 97.0798 21.827C96.3131 21.0297 95.9298 19.8873 95.9298 18.4V14.375H100.3V17.825C100.3 18.009 100.338 18.1547 100.415 18.262C100.507 18.354 100.66 18.4 100.875 18.4H106.74ZM107.2 9.66V12.995H100.3V9.66H107.2ZM114.439 18.4C114.746 18.4 114.899 18.285 114.899 18.055V14.375H119.269V18.055C119.269 18.285 119.423 18.4 119.729 18.4H120.189C120.343 18.4 120.419 19.1667 120.419 20.7C120.419 22.2333 120.343 23 120.189 23H119.499C118.365 23 117.521 22.7317 116.969 22.195C116.678 22.4863 116.341 22.6933 115.957 22.816C115.574 22.9387 115.068 23 114.439 23H112.484C112.331 23 112.254 22.2333 112.254 20.7C112.254 19.7187 112.277 19.09 112.323 18.814C112.369 18.538 112.423 18.4 112.484 18.4H114.439ZM117.314 24.38V27.715H110.414V24.38H117.314ZM126.858 18.285C126.858 19.7263 126.429 20.8763 125.57 21.735C124.727 22.5783 123.585 23 122.143 23H120.188C120.035 23 119.958 22.2333 119.958 20.7C119.958 19.7187 119.981 19.09 120.027 18.814C120.073 18.538 120.127 18.4 120.188 18.4H122.143C122.266 18.4 122.373 18.3693 122.465 18.308C122.557 18.2313 122.603 18.1393 122.603 18.032V14.375H126.858V18.285ZM119.843 27.715V24.38H124.213V27.715H119.843ZM141.819 17.94C141.819 18.0627 141.858 18.17 141.934 18.262C142.011 18.354 142.126 18.4 142.279 18.4H143.199C143.353 18.4 143.429 19.1667 143.429 20.7C143.429 22.2333 143.353 23 143.199 23H142.164C140.631 23 139.634 22.425 139.174 21.275C138.53 21.8117 137.61 22.08 136.414 22.08C135.096 22.08 134.053 21.6813 133.286 20.884C132.535 20.0713 132.159 18.86 132.159 17.25C132.159 16.3913 132.343 15.5633 132.711 14.766C133.095 13.9687 133.631 13.3247 134.321 12.834C135.027 12.328 135.839 12.075 136.759 12.075H137.449V10.58H141.819V17.94ZM136.299 17.135C136.299 17.595 136.529 17.825 136.989 17.825C137.449 17.825 137.679 17.595 137.679 17.135V16.33H137.219C136.882 16.33 136.644 16.3913 136.506 16.514C136.368 16.6367 136.299 16.8437 136.299 17.135ZM149.858 18.285C149.858 19.7263 149.429 20.8763 148.57 21.735C147.727 22.5783 146.585 23 145.143 23H143.188C143.035 23 142.958 22.2333 142.958 20.7C142.958 19.7187 142.981 19.09 143.027 18.814C143.073 18.538 143.127 18.4 143.188 18.4H145.143C145.266 18.4 145.373 18.3693 145.465 18.308C145.557 18.2313 145.603 18.1393 145.603 18.032V14.375H149.858V18.285ZM148.478 24.38V27.715H141.578V24.38H148.478ZM160.909 18.4C160.986 18.4 161.04 18.538 161.07 18.814C161.116 19.09 161.139 19.7187 161.139 20.7C161.139 21.6813 161.116 22.31 161.07 22.586C161.04 22.862 160.986 23 160.909 23H159.759C158.287 23 157.168 22.5937 156.401 21.781C155.65 20.9683 155.274 19.803 155.274 18.285V8.28H159.644V17.94C159.644 18.1087 159.675 18.2313 159.736 18.308C159.813 18.3693 159.936 18.4 160.104 18.4H160.909ZM168.615 12.42C169.336 12.42 169.964 12.558 170.501 12.834C171.038 13.0947 171.536 13.593 171.996 14.329C172.456 15.065 172.878 16.1153 173.261 17.48L171.95 18.4H173.215H174.595C174.748 18.4 174.825 19.1667 174.825 20.7C174.825 21.6967 174.802 22.333 174.756 22.609C174.71 22.8697 174.656 23 174.595 23H172.64C171.827 23 171.13 22.8543 170.547 22.563C169.964 22.2563 169.474 21.7887 169.075 21.16L168.27 21.62C167.427 22.1107 166.576 22.4633 165.717 22.678C164.858 22.8927 163.793 23 162.52 23H160.91C160.757 23 160.68 22.2333 160.68 20.7C160.68 19.7187 160.703 19.09 160.749 18.814C160.795 18.538 160.849 18.4 160.91 18.4H162.75C163.869 18.4 164.82 18.331 165.602 18.193C166.399 18.0397 167.25 17.7637 168.155 17.365C168.094 17.1503 168.009 17.0047 167.902 16.928C167.795 16.836 167.649 16.79 167.465 16.79H162.29L162.635 12.42H168.615ZM164.015 27.715V24.38H168.385V27.715H164.015ZM176.544 18.4C176.851 18.4 177.004 18.285 177.004 18.055V14.375H181.374V18.055C181.374 18.285 181.527 18.4 181.834 18.4H182.294C182.447 18.4 182.524 19.1667 182.524 20.7C182.524 22.2333 182.447 23 182.294 23H181.604C180.469 23 179.626 22.7317 179.074 22.195C178.783 22.4863 178.445 22.6933 178.062 22.816C177.679 22.9387 177.173 23 176.544 23H174.589C174.436 23 174.359 22.2333 174.359 20.7C174.359 19.7187 174.382 19.09 174.428 18.814C174.474 18.538 174.528 18.4 174.589 18.4H176.544ZM176.889 12.995V9.66H181.259V12.995H176.889ZM188.963 18.285C188.963 19.7263 188.534 20.8763 187.675 21.735C186.832 22.5783 185.689 23 184.248 23H182.293C182.14 23 182.063 22.2333 182.063 20.7C182.063 19.7187 182.086 19.09 182.132 18.814C182.178 18.538 182.232 18.4 182.293 18.4H184.248C184.371 18.4 184.478 18.3693 184.57 18.308C184.662 18.2313 184.708 18.1393 184.708 18.032V14.375H188.963V18.285ZM187.583 24.38V27.715H180.683V24.38H187.583ZM190.92 8.28H195.29V23H190.92V8.28Z" fill="white"/>
<path d="M1.725 18.63L1.23013 18.7014L1.29198 19.13H1.725V18.63ZM1.265 14.743L0.766154 14.7776L0.766727 14.7845L1.265 14.743ZM1.15 8.28V7.78H0.65V8.28H1.15ZM5.52 8.28H6.02V7.78H5.52V8.28ZM5.382 14.743L4.88368 14.7015L4.8832 14.7084L5.382 14.743ZM4.945 18.63V19.13H5.37802L5.43987 18.7014L4.945 18.63ZM1.541 19.918L1.23403 19.5233L1.23403 19.5233L1.541 19.918ZM1.725 18.63L2.21987 18.5586C2.00617 17.0779 1.85421 15.7927 1.76327 14.7015L1.265 14.743L0.766727 14.7845C0.859794 15.9013 1.01449 17.2074 1.23013 18.7014L1.725 18.63ZM1.265 14.743L1.7638 14.7084C1.68809 13.6182 1.65 12.3957 1.65 11.04H1.15H0.65C0.65 12.4137 0.688575 13.6598 0.766201 14.7776L1.265 14.743ZM1.15 11.04H1.65V8.28H1.15H0.65V11.04H1.15ZM1.15 8.28V8.78H5.52V8.28V7.78H1.15V8.28ZM5.52 8.28H5.02V11.04H5.52H6.02V8.28H5.52ZM5.52 11.04H5.02C5.02 12.3938 4.97435 13.614 4.88373 14.7015L5.382 14.743L5.88027 14.7845C5.97365 13.664 6.02 12.4155 6.02 11.04H5.52ZM5.382 14.743L4.8832 14.7084C4.80763 15.7966 4.66361 17.0795 4.45013 18.5586L4.945 18.63L5.43987 18.7014C5.65573 17.2059 5.80304 15.8974 5.8808 14.7776L5.382 14.743ZM4.945 18.63V18.13H1.725V18.63V19.13H4.945V18.63ZM3.335 23.69V23.19C2.59539 23.19 2.13403 23.0216 1.85921 22.773C1.59389 22.5329 1.42 22.1426 1.42 21.505H0.92H0.42C0.42 22.324 0.648611 23.0262 1.18829 23.5145C1.71847 23.9942 2.46461 24.19 3.335 24.19V23.69ZM0.92 21.505H1.42C1.42 20.8575 1.59967 20.5058 1.84797 20.3127L1.541 19.918L1.23403 19.5233C0.654333 19.9742 0.42 20.6805 0.42 21.505H0.92ZM1.541 19.918L1.84797 20.3127C2.14036 20.0853 2.61195 19.935 3.335 19.935V19.435V18.935C2.49405 18.935 1.76964 19.1067 1.23403 19.5233L1.541 19.918ZM3.335 19.435V19.935C4.05805 19.935 4.52964 20.0853 4.82203 20.3127L5.129 19.918L5.43597 19.5233C4.90036 19.1067 4.17595 18.935 3.335 18.935V19.435ZM5.129 19.918L4.82203 20.3127C5.07033 20.5058 5.25 20.8575 5.25 21.505H5.75H6.25C6.25 20.6805 6.01567 19.9742 5.43597 19.5233L5.129 19.918ZM5.75 21.505H5.25C5.25 22.1426 5.07611 22.5329 4.81079 22.773C4.53597 23.0216 4.07461 23.19 3.335 23.19V23.69V24.19C4.20539 24.19 4.95153 23.9942 5.48171 23.5145C6.02139 23.0262 6.25 22.324 6.25 21.505H5.75ZM8.0509 16.422L7.59437 16.218L7.59236 16.2226L8.0509 16.422ZM9.5919 14.145L9.9664 14.4763L10.271 14.132L9.95339 13.7996L9.5919 14.145ZM8.6029 13.11L8.25065 12.7551L7.90249 13.1007L8.2414 13.4554L8.6029 13.11ZM11.7309 10.005L12.0683 9.63599L11.7167 9.31456L11.3787 9.65014L11.7309 10.005ZM15.3879 13.662L15.0083 13.9874L15.0083 13.9874L15.3879 13.662ZM17.0439 16.169L16.5781 16.3513L16.5833 16.3635L17.0439 16.169ZM16.8369 20.884L17.2665 21.1399L17.2688 21.1359L16.8369 20.884ZM15.0429 22.609L15.2805 23.049L15.2872 23.0453L15.0429 22.609ZM8.8789 21.988L8.52849 22.3448L8.53503 22.351L8.8789 21.988ZM13.1569 17.549L12.7311 17.811L12.7358 17.8188L12.7409 17.8263L13.1569 17.549ZM12.5359 16.905L12.8457 16.5126L12.5359 16.268L12.2261 16.5126L12.5359 16.905ZM11.9149 17.549L12.3309 17.8263L12.336 17.8188L12.3407 17.811L11.9149 17.549ZM11.9379 18.676L11.6057 19.0497L11.6154 19.0583L11.6256 19.0664L11.9379 18.676ZM13.1109 18.676L12.7986 18.2856L12.7884 18.2937L12.7787 18.3023L13.1109 18.676ZM7.5909 18.63H8.0909C8.0909 17.9322 8.23003 17.264 8.50943 16.6214L8.0509 16.422L7.59236 16.2226C7.25844 16.9907 7.0909 17.7945 7.0909 18.63H7.5909ZM8.0509 16.422L8.5074 16.626C8.8029 15.9646 9.28379 15.2479 9.9664 14.4763L9.5919 14.145L9.2174 13.8137C8.48934 14.6367 7.9429 15.438 7.59439 16.218L8.0509 16.422ZM9.5919 14.145L9.95339 13.7996L8.96439 12.7646L8.6029 13.11L8.2414 13.4554L9.2304 14.4904L9.5919 14.145ZM8.6029 13.11L8.95514 13.4649L12.0831 10.3599L11.7309 10.005L11.3787 9.65014L8.25065 12.7551L8.6029 13.11ZM11.7309 10.005L11.3935 10.374C12.9975 11.8405 14.1995 13.0438 15.0083 13.9874L15.3879 13.662L15.7675 13.3366C14.9203 12.3482 13.6843 11.1135 12.0683 9.63599L11.7309 10.005ZM15.3879 13.662L15.0083 13.9874C15.8211 14.9357 16.3319 15.7217 16.5783 16.3512L17.0439 16.169L17.5095 15.9868C17.2039 15.2056 16.6107 14.3203 15.7675 13.3366L15.3879 13.662ZM17.0439 16.169L16.5833 16.3635C16.847 16.988 16.9809 17.6651 16.9809 18.4H17.4809H17.9809C17.9809 17.5402 17.8235 16.73 17.5045 15.9745L17.0439 16.169ZM17.4809 18.4H16.9809C16.9809 19.2388 16.7862 19.9786 16.405 20.6321L16.8369 20.884L17.2688 21.1359C17.7463 20.3174 17.9809 19.4012 17.9809 18.4H17.4809ZM16.8369 20.884L16.4073 20.6281C16.0251 21.2698 15.4926 21.7841 14.7986 22.1727L15.0429 22.609L15.2872 23.0453C16.1266 22.5752 16.7901 21.9395 17.2664 21.1399L16.8369 20.884ZM15.0429 22.609L14.8053 22.169C14.1205 22.5389 13.3299 22.73 12.4209 22.73V23.23V23.73C13.4746 23.73 14.432 23.5071 15.2805 23.049L15.0429 22.609ZM12.4209 23.23V22.73C11.0298 22.73 9.98321 22.3454 9.22277 21.625L8.8789 21.988L8.53503 22.351C9.52259 23.2866 10.8373 23.73 12.4209 23.73V23.23ZM8.8789 21.988L9.22925 21.6313C8.48168 20.8971 8.0909 19.9144 8.0909 18.63H7.5909H7.0909C7.0909 20.1363 7.55878 21.3923 8.52854 22.3447L8.8789 21.988ZM13.3409 18.17H13.8409C13.8409 17.8455 13.7526 17.5412 13.5729 17.2716L13.1569 17.549L12.7409 17.8263C12.8065 17.9248 12.8409 18.0345 12.8409 18.17H13.3409ZM13.1569 17.549L13.5827 17.287C13.4167 17.0172 13.1593 16.7601 12.8457 16.5126L12.5359 16.905L12.2261 17.2974C12.4951 17.5099 12.6518 17.6822 12.7311 17.811L13.1569 17.549ZM12.5359 16.905L12.2261 16.5126C11.9125 16.7601 11.6551 17.0172 11.4891 17.287L11.9149 17.549L12.3407 17.811C12.42 17.6822 12.5767 17.5099 12.8457 17.2974L12.5359 16.905ZM11.9149 17.549L11.4989 17.2716C11.3192 17.5412 11.2309 17.8455 11.2309 18.17H11.7309H12.2309C12.2309 18.0345 12.2653 17.9248 12.3309 17.8263L11.9149 17.549ZM11.7309 18.17H11.2309C11.2309 18.5019 11.3432 18.8164 11.6057 19.0497L11.9379 18.676L12.2701 18.3023C12.2566 18.2903 12.2309 18.2674 12.2309 18.17H11.7309ZM11.9379 18.676L11.6256 19.0664C11.8878 19.2762 12.206 19.36 12.5359 19.36V18.86V18.36C12.3751 18.36 12.2947 18.3211 12.2502 18.2856L11.9379 18.676ZM12.5359 18.86V19.36C12.8628 19.36 13.187 19.2773 13.4431 19.0497L13.1109 18.676L12.7787 18.3023C12.7588 18.32 12.6997 18.36 12.5359 18.36V18.86ZM13.1109 18.676L13.4232 19.0664C13.7073 18.8392 13.8409 18.5204 13.8409 18.17H13.3409H12.8409C12.8409 18.249 12.8212 18.2675 12.7986 18.2856L13.1109 18.676ZM24.5825 18.308L24.8599 18.724L24.8599 18.724L24.5825 18.308ZM24.4215 17.158L23.95 17.3244L23.953 17.3329L23.9563 17.3413L24.4215 17.158ZM23.4095 14.513L23.8745 14.3293L23.8744 14.329L23.4095 14.513ZM22.5355 12.305L22.322 11.8529L21.898 12.0531L22.0706 12.489L22.5355 12.305ZM26.6755 10.35L27.1454 10.1791L26.958 9.66367L26.462 9.89788L26.6755 10.35ZM29.4355 17.94L28.9656 18.1109L28.9673 18.1156L29.4355 17.94ZM29.6655 18.262L29.3401 18.6416L29.3525 18.6522L29.3655 18.662L29.6655 18.262ZM30.9765 22.609L31.4689 22.6959L31.4697 22.6912L30.9765 22.609ZM27.2505 22.195L27.6091 21.8466L27.2784 21.5062L26.9213 21.8187L27.2505 22.195ZM26.1925 22.839L26.0409 22.3625L26.0344 22.3647L26.1925 22.839ZM19.4305 23L18.9319 23.0374L18.9666 23.5H19.4305V23ZM19.0855 18.4V17.9H18.5466L18.5869 18.4374L19.0855 18.4ZM24.2605 18.4V18.9C24.4707 18.9 24.6769 18.846 24.8599 18.724L24.5825 18.308L24.3052 17.892C24.3042 17.8926 24.2957 17.9 24.2605 17.9V18.4ZM24.5825 18.308L24.8599 18.724C25.0859 18.5733 25.2205 18.3355 25.2205 18.055H24.7205H24.2205C24.2205 18.035 24.2255 17.9989 24.2471 17.9593C24.2683 17.9203 24.294 17.8994 24.3052 17.892L24.5825 18.308ZM24.7205 18.055H25.2205C25.2205 17.9648 25.1999 17.8767 25.1863 17.8237C25.1697 17.7586 25.147 17.6842 25.1201 17.6036C25.0661 17.4418 24.9877 17.231 24.8867 16.9747L24.4215 17.158L23.9563 17.3413C24.0547 17.591 24.1257 17.7827 24.1714 17.9199C24.1944 17.9888 24.209 18.038 24.2173 18.0707C24.2287 18.1154 24.2205 18.0992 24.2205 18.055H24.7205ZM24.4215 17.158L24.893 16.9916C24.7056 16.4606 24.3652 15.5713 23.8745 14.3293L23.4095 14.513L22.9445 14.6967C23.4352 15.9387 23.7694 16.8127 23.95 17.3244L24.4215 17.158ZM23.4095 14.513L23.8744 14.329L23.0004 12.121L22.5355 12.305L22.0706 12.489L22.9446 14.697L23.4095 14.513ZM22.5355 12.305L22.749 12.7571L26.889 10.8021L26.6755 10.35L26.462 9.89788L22.322 11.8529L22.5355 12.305ZM26.6755 10.35L26.2056 10.5209L28.9656 18.1109L29.4355 17.94L29.9054 17.7691L27.1454 10.1791L26.6755 10.35ZM29.4355 17.94L28.9673 18.1156C29.0453 18.3234 29.1739 18.4992 29.3401 18.6416L29.6655 18.262L29.9909 17.8824C29.9424 17.8408 29.9177 17.8019 29.9037 17.7644L29.4355 17.94ZM29.6655 18.262L29.3655 18.662C29.5528 18.8024 29.7781 18.9 30.0335 18.9V18.4V17.9C30.0361 17.9 30.0341 17.9007 30.0251 17.8973C30.0151 17.8936 29.9951 17.8842 29.9655 17.862L29.6655 18.262ZM30.0335 18.4V18.9H30.8155V18.4V17.9H30.0335V18.4ZM30.8155 18.4V18.9C30.5989 18.9 30.4853 18.7591 30.4598 18.7227C30.4318 18.6827 30.4289 18.6597 30.4372 18.6874C30.4519 18.7362 30.4722 18.8414 30.4905 19.0248C30.5263 19.3824 30.5455 19.9371 30.5455 20.7H31.0455H31.5455C31.5455 19.9296 31.5264 19.3343 31.4855 18.9252C31.4655 18.7252 31.4379 18.543 31.395 18.4001C31.3746 18.3319 31.3406 18.2371 31.279 18.1492C31.22 18.0648 31.0704 17.9 30.8155 17.9V18.4ZM31.0455 20.7H30.5455C30.5455 21.7089 30.5211 22.3 30.4833 22.5268L30.9765 22.609L31.4697 22.6912C31.5239 22.366 31.5455 21.6844 31.5455 20.7H31.0455ZM30.9765 22.609L30.4841 22.5221C30.4629 22.6421 30.4454 22.6974 30.4394 22.7119C30.4357 22.7209 30.4471 22.6879 30.4852 22.6448C30.5249 22.5997 30.6355 22.5 30.8155 22.5V23V23.5C31.0262 23.5 31.1665 23.384 31.235 23.3064C31.3018 23.2307 31.341 23.1488 31.3641 23.0926C31.4118 22.9768 31.4441 22.8366 31.4689 22.6959L30.9765 22.609ZM30.8155 23V22.5H29.6425V23V23.5H30.8155V23ZM29.6425 23V22.5C28.645 22.5 28.0018 22.2508 27.6091 21.8466L27.2505 22.195L26.8919 22.5434C27.5419 23.2126 28.4934 23.5 29.6425 23.5V23ZM27.2505 22.195L26.9213 21.8187C26.5865 22.1116 26.2929 22.2824 26.0409 22.3625L26.1925 22.839L26.3441 23.3155C26.7668 23.181 27.1785 22.9224 27.5798 22.5713L27.2505 22.195ZM26.1925 22.839L26.0344 22.3647C25.7653 22.4543 25.4816 22.5 25.1805 22.5V23V23.5C25.5848 23.5 25.9757 23.4383 26.3506 23.3133L26.1925 22.839ZM25.1805 23V22.5H19.4305V23V23.5H25.1805V23ZM19.4305 23L19.9291 22.9626L19.5841 18.3626L19.0855 18.4L18.5869 18.4374L18.9319 23.0374L19.4305 23ZM19.0855 18.4V18.9H24.2605V18.4V17.9H19.0855V18.4ZM32.5414 14.375V13.875H32.0414V14.375H32.5414ZM36.7964 14.375H37.2964V13.875H36.7964V14.375ZM36.8884 18.308L36.498 18.6203L36.5327 18.6637L36.5761 18.6984L36.8884 18.308ZM37.6014 14.375V13.875H37.1014V14.375H37.6014ZM41.8564 14.375H42.3564V13.875H41.8564V14.375ZM41.9714 18.308L41.6179 18.6616L41.6374 18.6811L41.6591 18.6984L41.9714 18.308ZM42.5234 18.308L42.8358 18.6985L42.8435 18.6921L42.5234 18.308ZM42.6614 14.375V13.875H42.1614V14.375H42.6614ZM46.9164 14.375H47.4164V13.875H46.9164V14.375ZM45.6284 21.735L45.982 22.0886L45.982 22.0886L45.6284 21.735ZM39.6714 22.195L40.0199 21.8365L39.6665 21.4928L39.3179 21.8414L39.6714 22.195ZM34.6114 22.195L34.9599 21.8365L34.6065 21.4928L34.2579 21.8414L34.6114 22.195ZM30.6554 18.814L30.1622 18.7318L30.1622 18.7318L30.6554 18.814ZM41.3964 5.635H41.8964V5.135H41.3964V5.635ZM41.3964 8.97V9.47H41.8964V8.97H41.3964ZM37.9464 8.97H37.4464V9.47H37.9464V8.97ZM37.9464 5.635V5.135H37.4464V5.635H37.9464ZM43.1214 9.66H43.6214V9.16H43.1214V9.66ZM43.1214 12.995V13.495H43.6214V12.995H43.1214ZM36.2214 12.995H35.7214V13.495H36.2214V12.995ZM36.2214 9.66V9.16H35.7214V9.66H36.2214ZM32.0814 18.4V18.9C32.2828 18.9 32.525 18.8648 32.7264 18.7137C32.9548 18.5424 33.0414 18.292 33.0414 18.055H32.5414H32.0414C32.0414 18.0575 32.041 18.036 32.0558 18.0029C32.0718 17.9668 32.0976 17.9354 32.1264 17.9137C32.1524 17.8943 32.1691 17.8914 32.1614 17.8934C32.1532 17.8954 32.1285 17.9 32.0814 17.9V18.4ZM32.5414 18.055H33.0414V14.375H32.5414H32.0414V18.055H32.5414ZM32.5414 14.375V14.875H36.7964V14.375V13.875H32.5414V14.375ZM36.7964 14.375H36.2964V18.055H36.7964H37.2964V14.375H36.7964ZM36.7964 18.055H36.2964C36.2964 18.2685 36.3708 18.4614 36.498 18.6203L36.8884 18.308L37.2788 17.9957C37.2788 17.9956 37.2802 17.9973 37.2823 18.001C37.2844 18.0047 37.2869 18.0099 37.2893 18.0164C37.2944 18.0304 37.2964 18.0442 37.2964 18.055H36.7964ZM36.8884 18.308L36.5761 18.6984C36.7616 18.8469 36.9802 18.9 37.1874 18.9V18.4V17.9C37.1674 17.9 37.1624 17.8975 37.1677 17.8991C37.1705 17.9 37.1753 17.9017 37.1815 17.905C37.1878 17.9082 37.1943 17.9124 37.2008 17.9176L36.8884 18.308ZM37.1874 18.4V18.9C37.3825 18.9 37.6219 18.8612 37.818 18.6979C38.0315 18.5199 38.1014 18.2735 38.1014 18.055H37.6014H37.1014C37.1014 18.0635 37.1 18.0484 37.1113 18.0202C37.1238 17.989 37.1463 17.9559 37.1778 17.9296C37.2074 17.905 37.2313 17.8976 37.2347 17.8967C37.2369 17.8961 37.2233 17.9 37.1874 17.9V18.4ZM37.6014 18.055H38.1014V14.375H37.6014H37.1014V18.055H37.6014ZM37.6014 14.375V14.875H41.8564V14.375V13.875H37.6014V14.375ZM41.8564 14.375H41.3564V18.032H41.8564H42.3564V14.375H41.8564ZM41.8564 18.032H41.3564C41.3564 18.2734 41.4485 18.4922 41.6179 18.6616L41.9714 18.308L42.325 17.9544C42.3287 17.9582 42.3386 17.9698 42.3467 17.9892C42.3548 18.0087 42.3564 18.0248 42.3564 18.032H41.8564ZM41.9714 18.308L41.6591 18.6984C41.8328 18.8374 42.0378 18.9 42.2474 18.9V18.4V17.9C42.2418 17.9 42.2459 17.8993 42.256 17.9027C42.2667 17.9062 42.2766 17.9119 42.2838 17.9176L41.9714 18.308ZM42.2474 18.4V18.9C42.457 18.9 42.662 18.8374 42.8358 18.6984L42.5234 18.308L42.2111 17.9176C42.2182 17.9119 42.2281 17.9062 42.2388 17.9027C42.2489 17.8993 42.253 17.9 42.2474 17.9V18.4ZM42.5234 18.308L42.8435 18.6921C43.0346 18.5329 43.1614 18.3061 43.1614 18.032H42.6614H42.1614C42.1614 18.0115 42.1665 17.9844 42.1797 17.9579C42.1922 17.9329 42.2049 17.9225 42.2033 17.9239L42.5234 18.308ZM42.6614 18.032H43.1614V14.375H42.6614H42.1614V18.032H42.6614ZM42.6614 14.375V14.875H46.9164V14.375V13.875H42.6614V14.375ZM46.9164 14.375H46.4164V18.285H46.9164H47.4164V14.375H46.9164ZM46.9164 18.285H46.4164C46.4164 19.6203 46.0225 20.6338 45.2749 21.3814L45.6284 21.735L45.982 22.0886C46.9517 21.1188 47.4164 19.8323 47.4164 18.285H46.9164ZM45.6284 21.735L45.2749 21.3814C44.5443 22.112 43.5397 22.5 42.2014 22.5V23V23.5C43.7458 23.5 45.0259 23.0447 45.982 22.0886L45.6284 21.735ZM42.2014 23V22.5C41.1358 22.5 40.4424 22.2473 40.0199 21.8365L39.6714 22.195L39.3229 22.5535C40.0044 23.2161 40.9977 23.5 42.2014 23.5V23ZM39.6714 22.195L39.3179 21.8414C39.0815 22.0778 38.8126 22.242 38.507 22.3398L38.6594 22.816L38.8118 23.2922C39.2728 23.1447 39.6787 22.8948 40.025 22.5486L39.6714 22.195ZM38.6594 22.816L38.507 22.3398C38.1925 22.4404 37.744 22.5 37.1414 22.5V23V23.5C37.7962 23.5 38.3596 23.4369 38.8118 23.2922L38.6594 22.816ZM37.1414 23V22.5C36.0758 22.5 35.3824 22.2473 34.9599 21.8365L34.6114 22.195L34.2629 22.5535C34.9444 23.2161 35.9377 23.5 37.1414 23.5V23ZM34.6114 22.195L34.2579 21.8414C34.0215 22.0778 33.7526 22.242 33.447 22.3398L33.5994 22.816L33.7518 23.2922C34.2128 23.1447 34.6187 22.8948 34.965 22.5486L34.6114 22.195ZM33.5994 22.816L33.447 22.3398C33.1325 22.4404 32.684 22.5 32.0814 22.5V23V23.5C32.7362 23.5 33.2996 23.4369 33.7518 23.2922L33.5994 22.816ZM32.0814 23V22.5H30.8164V23V23.5H32.0814V23ZM30.8164 23V22.5C31.033 22.5 31.1466 22.6409 31.1721 22.6773C31.2001 22.7173 31.203 22.7403 31.1947 22.7126C31.1801 22.6638 31.1598 22.5586 31.1414 22.3752C31.1057 22.0176 31.0864 21.4629 31.0864 20.7H30.5864H30.0864C30.0864 21.4704 30.1055 22.0657 30.1464 22.4748C30.1664 22.6748 30.194 22.857 30.2369 22.9999C30.2573 23.0681 30.2913 23.1629 30.3529 23.2508C30.412 23.3352 30.5615 23.5 30.8164 23.5V23ZM30.5864 20.7H31.0864C31.0864 19.7069 31.1108 19.1231 31.1486 18.8962L30.6554 18.814L30.1622 18.7318C30.108 19.0569 30.0864 19.7304 30.0864 20.7H30.5864ZM30.6554 18.814L31.1486 18.8962C31.17 18.7678 31.1883 18.7049 31.1962 18.6847C31.201 18.6724 31.1914 18.7035 31.156 18.746C31.1207 18.7883 31.0081 18.9 30.8164 18.9V18.4V17.9C30.594 17.9 30.4518 18.0289 30.3877 18.1058C30.3236 18.1828 30.2862 18.2656 30.2642 18.3223C30.2184 18.4401 30.1868 18.5842 30.1622 18.7318L30.6554 18.814ZM30.8164 18.4V18.9H32.0814V18.4V17.9H30.8164V18.4ZM41.3964 5.635H40.8964V8.97H41.3964H41.8964V5.635H41.3964ZM41.3964 8.97V8.47H37.9464V8.97V9.47H41.3964V8.97ZM37.9464 8.97H38.4464V5.635H37.9464H37.4464V8.97H37.9464ZM37.9464 5.635V6.135H41.3964V5.635V5.135H37.9464V5.635ZM43.1214 9.66H42.6214V12.995H43.1214H43.6214V9.66H43.1214ZM43.1214 12.995V12.495H36.2214V12.995V13.495H43.1214V12.995ZM36.2214 12.995H36.7214V9.66H36.2214H35.7214V12.995H36.2214ZM36.2214 9.66V10.16H43.1214V9.66V9.16H36.2214V9.66ZM66.4578 18.308L66.0673 18.6203L66.1021 18.6637L66.1454 18.6984L66.4578 18.308ZM66.2508 22.885L66.4744 22.4378L65.8566 22.1289L65.7561 22.8123L66.2508 22.885ZM65.1468 25.668L64.7403 25.3766L64.7343 25.3854L65.1468 25.668ZM62.8928 27.6L62.6721 27.1513L62.8928 27.6ZM53.9228 26.496L53.5623 26.8425L53.5624 26.8426L53.9228 26.496ZM52.2208 16.675V16.175H51.7208V16.675H52.2208ZM56.5908 16.675H57.0908V16.175H56.5908V16.675ZM57.1198 23.161L57.4733 22.8074L57.4733 22.8074L57.1198 23.161ZM61.3978 23.207L61.0836 22.818L61.0836 22.818L61.3978 23.207ZM61.9958 14.375V13.875H61.4958V14.375H61.9958ZM66.3658 14.375H66.8658V13.875H66.3658V14.375ZM56.1308 14.95H55.6308V15.45H56.1308V14.95ZM56.1308 11.615V11.115H55.6308V11.615H56.1308ZM60.5008 11.615H61.0008V11.115H60.5008V11.615ZM60.5008 14.95V15.45H61.0008V14.95H60.5008ZM66.3658 17.94H65.8658C65.8658 18.1484 65.8997 18.4108 66.0673 18.6203L66.4578 18.308L66.8482 17.9957C66.8734 18.0272 66.8766 18.0481 66.8739 18.0372C66.8711 18.0262 66.8658 17.9961 66.8658 17.94H66.3658ZM66.4578 18.308L66.1454 18.6984C66.3549 18.866 66.6174 18.9 66.8258 18.9V18.4V17.9C66.7697 17.9 66.7396 17.8947 66.7286 17.8919C66.7177 17.8892 66.7386 17.8923 66.7701 17.9176L66.4578 18.308ZM66.8258 18.4V18.9H67.7458V18.4V17.9H66.8258V18.4ZM67.7458 18.4V18.9C67.5292 18.9 67.4156 18.7591 67.3901 18.7227C67.3621 18.6827 67.3592 18.6597 67.3675 18.6874C67.3821 18.7362 67.4024 18.8414 67.4208 19.0248C67.4565 19.3824 67.4758 19.9371 67.4758 20.7H67.9758H68.4758C68.4758 19.9296 68.4567 19.3343 68.4158 18.9252C68.3958 18.7252 68.3682 18.543 68.3253 18.4001C68.3049 18.3319 68.2708 18.2371 68.2093 18.1492C68.1502 18.0648 68.0007 17.9 67.7458 17.9V18.4ZM67.9758 20.7H67.4758C67.4758 21.4629 67.4565 22.0176 67.4208 22.3752C67.4024 22.5586 67.3821 22.6638 67.3675 22.7126C67.3592 22.7403 67.3621 22.7173 67.3901 22.6773C67.4156 22.6409 67.5292 22.5 67.7458 22.5V23V23.5C68.0007 23.5 68.1502 23.3352 68.2093 23.2508C68.2708 23.1629 68.3049 23.0681 68.3253 22.9999C68.3682 22.857 68.3958 22.6748 68.4158 22.4748C68.4567 22.0657 68.4758 21.4704 68.4758 20.7H67.9758ZM67.7458 23V22.5H66.9408V23V23.5H67.7458V23ZM66.9408 23V22.5C66.6597 22.5 66.5232 22.4622 66.4744 22.4378L66.2508 22.885L66.0272 23.3322C66.285 23.4611 66.6086 23.5 66.9408 23.5V23ZM66.2508 22.885L65.7561 22.8123C65.6137 23.7804 65.2741 24.6323 64.7404 25.3767L65.1468 25.668L65.5531 25.9593C66.1848 25.0784 66.5812 24.0749 66.7455 22.9577L66.2508 22.885ZM65.1468 25.668L64.7343 25.3854C64.2175 26.1397 63.5334 26.7277 62.6721 27.1513L62.8928 27.6L63.1134 28.0487C64.1228 27.5523 64.9414 26.8523 65.5592 25.9506L65.1468 25.668ZM62.8928 27.6L62.6721 27.1513C61.8149 27.5729 60.8266 27.79 59.6958 27.79V28.29V28.79C60.957 28.79 62.1 28.5471 63.1134 28.0487L62.8928 27.6ZM59.6958 28.29V27.79H58.6608V28.29V28.79H59.6958V28.29ZM58.6608 28.29V27.79C56.7574 27.79 55.3195 27.2272 54.2832 26.1494L53.9228 26.496L53.5624 26.8426C54.826 28.1568 56.5469 28.79 58.6608 28.79V28.29ZM53.9228 26.496L54.2833 26.1495C53.2601 25.0849 52.7208 23.5965 52.7208 21.62H52.2208H51.7208C51.7208 23.7835 52.3161 25.5458 53.5623 26.8425L53.9228 26.496ZM52.2208 21.62H52.7208V16.675H52.2208H51.7208V21.62H52.2208ZM52.2208 16.675V17.175H56.5908V16.675V16.175H52.2208V16.675ZM56.5908 16.675H56.0908V21.505H56.5908H57.0908V16.675H56.5908ZM56.5908 21.505H56.0908C56.0908 22.3227 56.2815 23.0299 56.7662 23.5146L57.1198 23.161L57.4733 22.8074C57.2527 22.5868 57.0908 22.19 57.0908 21.505H56.5908ZM57.1198 23.161L56.7662 23.5146C57.2509 23.9993 57.9581 24.19 58.7758 24.19V23.69V23.19C58.0908 23.19 57.694 23.0281 57.4733 22.8074L57.1198 23.161ZM58.7758 23.69V24.19H59.6958V23.69V23.19H58.7758V23.69ZM59.6958 23.69V24.19C60.4975 24.19 61.1927 24.0154 61.712 23.596L61.3978 23.207L61.0836 22.818C60.8055 23.0426 60.3661 23.19 59.6958 23.19V23.69ZM61.3978 23.207L61.7119 23.596C62.2452 23.1653 62.4958 22.5604 62.4958 21.85H61.9958H61.4958C61.4958 22.3049 61.3477 22.6047 61.0836 22.818L61.3978 23.207ZM61.9958 21.85H62.4958V14.375H61.9958H61.4958V21.85H61.9958ZM61.9958 14.375V14.875H66.3658V14.375V13.875H61.9958V14.375ZM66.3658 14.375H65.8658V17.94H66.3658H66.8658V14.375H66.3658ZM56.1308 14.95H56.6308V11.615H56.1308H55.6308V14.95H56.1308ZM56.1308 11.615V12.115H60.5008V11.615V11.115H56.1308V11.615ZM60.5008 11.615H60.0008V14.95H60.5008H61.0008V11.615H60.5008ZM60.5008 14.95V14.45H56.1308V14.95V15.45H60.5008V14.95ZM71.9972 14.375V13.875H71.4972V14.375H71.9972ZM76.3672 14.375H76.8672V13.875H76.3672V14.375ZM74.0672 22.195L74.4157 21.8365L74.0622 21.4928L73.7136 21.8414L74.0672 22.195ZM73.0552 22.816L72.9028 22.3398L72.9028 22.3398L73.0552 22.816ZM67.5812 18.814L67.088 18.7318L67.088 18.7318L67.5812 18.814ZM73.9522 24.38H74.4522V23.88H73.9522V24.38ZM73.9522 27.715V28.215H74.4522V27.715H73.9522ZM67.0522 27.715H66.5522V28.215H67.0522V27.715ZM67.0522 24.38V23.88H66.5522V24.38H67.0522ZM71.5372 18.4V18.9C71.7386 18.9 71.9808 18.8648 72.1822 18.7137C72.4106 18.5424 72.4972 18.292 72.4972 18.055H71.9972H71.4972C71.4972 18.0575 71.4968 18.036 71.5115 18.0029C71.5276 17.9668 71.5534 17.9354 71.5822 17.9137C71.6082 17.8943 71.6249 17.8914 71.6172 17.8934C71.6089 17.8954 71.5842 17.9 71.5372 17.9V18.4ZM71.9972 18.055H72.4972V14.375H71.9972H71.4972V18.055H71.9972ZM71.9972 14.375V14.875H76.3672V14.375V13.875H71.9972V14.375ZM76.3672 14.375H75.8672V18.055H76.3672H76.8672V14.375H76.3672ZM76.3672 18.055H75.8672C75.8672 18.292 75.9538 18.5424 76.1822 18.7137C76.3836 18.8648 76.6258 18.9 76.8272 18.9V18.4V17.9C76.7801 17.9 76.7554 17.8954 76.7472 17.8934C76.7395 17.8914 76.7562 17.8943 76.7822 17.9138C76.811 17.9354 76.8368 17.9668 76.8528 18.0029C76.8676 18.036 76.8672 18.0575 76.8672 18.055H76.3672ZM76.8272 18.4V18.9H77.2872V18.4V17.9H76.8272V18.4ZM77.2872 18.4V18.9C77.0706 18.9 76.957 18.7591 76.9315 18.7227C76.9035 18.6827 76.9006 18.6597 76.9089 18.6874C76.9235 18.7362 76.9438 18.8414 76.9622 19.0248C76.9979 19.3824 77.0172 19.9371 77.0172 20.7H77.5172H78.0172C78.0172 19.9296 77.9981 19.3343 77.9572 18.9252C77.9372 18.7252 77.9096 18.543 77.8667 18.4001C77.8463 18.3319 77.8123 18.2371 77.7507 18.1492C77.6916 18.0648 77.5421 17.9 77.2872 17.9V18.4ZM77.5172 20.7H77.0172C77.0172 21.4629 76.9979 22.0176 76.9622 22.3752C76.9438 22.5586 76.9235 22.6638 76.9089 22.7126C76.9006 22.7403 76.9035 22.7173 76.9315 22.6773C76.957 22.6409 77.0706 22.5 77.2872 22.5V23V23.5C77.5421 23.5 77.6916 23.3352 77.7507 23.2508C77.8123 23.1629 77.8463 23.0681 77.8667 22.9999C77.9096 22.857 77.9372 22.6748 77.9572 22.4748C77.9981 22.0657 78.0172 21.4704 78.0172 20.7H77.5172ZM77.2872 23V22.5H76.5972V23V23.5H77.2872V23ZM76.5972 23V22.5C75.5316 22.5 74.8382 22.2473 74.4157 21.8365L74.0672 22.195L73.7186 22.5535C74.4002 23.2161 75.3935 23.5 76.5972 23.5V23ZM74.0672 22.195L73.7136 21.8414C73.4772 22.0778 73.2084 22.242 72.9028 22.3398L73.0552 22.816L73.2076 23.2922C73.6686 23.1447 74.0745 22.8948 74.4207 22.5486L74.0672 22.195ZM73.0552 22.816L72.9028 22.3398C72.5883 22.4404 72.1398 22.5 71.5372 22.5V23V23.5C72.192 23.5 72.7554 23.4369 73.2076 23.2922L73.0552 22.816ZM71.5372 23V22.5H67.7422V23V23.5H71.5372V23ZM67.7422 23V22.5C67.9588 22.5 68.0724 22.6409 68.0979 22.6773C68.1259 22.7173 68.1288 22.7403 68.1205 22.7126C68.1058 22.6638 68.0855 22.5586 68.0672 22.3752C68.0314 22.0176 68.0122 21.4629 68.0122 20.7H67.5122H67.0122C67.0122 21.4704 67.0313 22.0657 67.0722 22.4748C67.0922 22.6748 67.1198 22.857 67.1626 22.9999C67.1831 23.0681 67.2171 23.1629 67.2787 23.2508C67.3377 23.3352 67.4873 23.5 67.7422 23.5V23ZM67.5122 20.7H68.0122C68.0122 19.7069 68.0366 19.1231 68.0744 18.8962L67.5812 18.814L67.088 18.7318C67.0338 19.0569 67.0122 19.7304 67.0122 20.7H67.5122ZM67.5812 18.814L68.0744 18.8962C68.0958 18.7678 68.1141 18.7049 68.1219 18.6847C68.1267 18.6724 68.1172 18.7035 68.0817 18.746C68.0464 18.7883 67.9339 18.9 67.7422 18.9V18.4V17.9C67.5198 17.9 67.3776 18.0289 67.3135 18.1058C67.2493 18.1828 67.212 18.2656 67.1899 18.3223C67.1441 18.4401 67.1126 18.5842 67.088 18.7318L67.5812 18.814ZM67.7422 18.4V18.9H71.5372V18.4V17.9H67.7422V18.4ZM73.9522 24.38H73.4522V27.715H73.9522H74.4522V24.38H73.9522ZM73.9522 27.715V27.215H67.0522V27.715V28.215H73.9522V27.715ZM67.0522 27.715H67.5522V24.38H67.0522H66.5522V27.715H67.0522ZM67.0522 24.38V24.88H73.9522V24.38V23.88H67.0522V24.38ZM82.6701 21.735L83.0236 22.0886L82.6701 21.735ZM77.1271 18.814L76.6339 18.7318L76.6339 18.7318L77.1271 18.814ZM79.5651 18.308L79.8424 18.724L79.8647 18.7092L79.8852 18.6921L79.5651 18.308ZM79.7031 14.375V13.875H79.2031V14.375H79.7031ZM83.9581 14.375H84.4581V13.875H83.9581V14.375ZM82.5781 24.38H83.0781V23.88H82.5781V24.38ZM82.5781 27.715V28.215H83.0781V27.715H82.5781ZM75.6781 27.715H75.1781V28.215H75.6781V27.715ZM75.6781 24.38V23.88H75.1781V24.38H75.6781ZM77.4031 31.74H76.9031V32.24H77.4031V31.74ZM77.4031 28.405V27.905H76.9031V28.405H77.4031ZM80.8531 28.405H81.3531V27.905H80.8531V28.405ZM80.8531 31.74V32.24H81.3531V31.74H80.8531ZM83.9581 18.285H83.4581C83.4581 19.6203 83.0641 20.6338 82.3165 21.3814L82.6701 21.735L83.0236 22.0886C83.9934 21.1188 84.4581 19.8323 84.4581 18.285H83.9581ZM82.6701 21.735L82.3165 21.3814C81.586 22.112 80.5813 22.5 79.2431 22.5V23V23.5C80.7875 23.5 82.0675 23.0447 83.0236 22.0886L82.6701 21.735ZM79.2431 23V22.5H77.2881V23V23.5H79.2431V23ZM77.2881 23V22.5C77.5047 22.5 77.6183 22.6409 77.6438 22.6773C77.6718 22.7173 77.6747 22.7403 77.6664 22.7126C77.6517 22.6638 77.6314 22.5586 77.6131 22.3752C77.5773 22.0176 77.5581 21.4629 77.5581 20.7H77.0581H76.5581C76.5581 21.4704 76.5772 22.0657 76.6181 22.4748C76.6381 22.6748 76.6657 22.857 76.7085 22.9999C76.729 23.0681 76.763 23.1629 76.8246 23.2508C76.8836 23.3352 77.0332 23.5 77.2881 23.5V23ZM77.0581 20.7H77.5581C77.5581 19.7069 77.5825 19.1231 77.6203 18.8962L77.1271 18.814L76.6339 18.7318C76.5797 19.0569 76.5581 19.7304 76.5581 20.7H77.0581ZM77.1271 18.814L77.6203 18.8962C77.6417 18.7678 77.66 18.7049 77.6678 18.6847C77.6726 18.6724 77.6631 18.7035 77.6276 18.746C77.5923 18.7883 77.4798 18.9 77.2881 18.9V18.4V17.9C77.0657 17.9 76.9235 18.0289 76.8594 18.1058C76.7952 18.1828 76.7579 18.2656 76.7358 18.3223C76.69 18.4401 76.6585 18.5842 76.6339 18.7318L77.1271 18.814ZM77.2881 18.4V18.9H79.2431V18.4V17.9H77.2881V18.4ZM79.2431 18.4V18.9C79.4532 18.9 79.6594 18.846 79.8424 18.724L79.5651 18.308L79.2877 17.892C79.2867 17.8926 79.2783 17.9 79.2431 17.9V18.4ZM79.5651 18.308L79.8852 18.6921C80.0763 18.5328 80.2031 18.3061 80.2031 18.032H79.7031H79.2031C79.2031 18.0115 79.2081 17.9844 79.2214 17.9579C79.2339 17.9329 79.2466 17.9225 79.245 17.9239L79.5651 18.308ZM79.7031 18.032H80.2031V14.375H79.7031H79.2031V18.032H79.7031ZM79.7031 14.375V14.875H83.9581V14.375V13.875H79.7031V14.375ZM83.9581 14.375H83.4581V18.285H83.9581H84.4581V14.375H83.9581ZM82.5781 24.38H82.0781V27.715H82.5781H83.0781V24.38H82.5781ZM82.5781 27.715V27.215H75.6781V27.715V28.215H82.5781V27.715ZM75.6781 27.715H76.1781V24.38H75.6781H75.1781V27.715H75.6781ZM75.6781 24.38V24.88H82.5781V24.38V23.88H75.6781V24.38ZM77.4031 31.74H77.9031V28.405H77.4031H76.9031V31.74H77.4031ZM77.4031 28.405V28.905H80.8531V28.405V27.905H77.4031V28.405ZM80.8531 28.405H80.3531V31.74H80.8531H81.3531V28.405H80.8531ZM80.8531 31.74V31.24H77.4031V31.74V32.24H80.8531V31.74ZM89.8569 22.379L89.4967 22.7258L89.4967 22.7258L89.8569 22.379ZM89.6039 16.744L89.1305 16.5828L89.1275 16.592L89.6039 16.744ZM90.8919 15.203L90.6726 14.7536L90.6683 14.7558L90.8919 15.203ZM93.8589 14.49H94.3589V13.9236L93.7969 13.9939L93.8589 14.49ZM93.8589 17.02L93.9428 17.5129L94.3589 17.4421V17.02H93.8589ZM92.3409 17.342L92.4914 17.8188L92.4914 17.8188L92.3409 17.342ZM91.7889 17.687L92.2259 17.9298L92.2259 17.9298L91.7889 17.687ZM91.6739 18.4H91.1739V18.9H91.6739V18.4ZM93.4679 18.883L93.1536 19.272L93.1609 19.2777L93.4679 18.883ZM91.6739 23V22.5C90.9399 22.5 90.488 22.3136 90.217 22.0322L89.8569 22.379L89.4967 22.7258C90.023 23.2724 90.7825 23.5 91.6739 23.5V23ZM89.8569 22.379L90.217 22.0322C89.9602 21.7655 89.7589 21.1869 89.7589 20.125H89.2589H88.7589C88.7589 21.2405 88.9562 22.1645 89.4967 22.7258L89.8569 22.379ZM89.2589 20.125H89.7589C89.7589 18.6016 89.8749 17.5394 90.0802 16.896L89.6039 16.744L89.1275 16.592C88.8729 17.39 88.7589 18.5817 88.7589 20.125H89.2589ZM89.6039 16.744L90.0772 16.9051C90.2853 16.294 90.6332 15.8913 91.1155 15.6502L90.8919 15.203L90.6683 14.7558C89.9239 15.128 89.4131 15.7527 89.1305 16.5829L89.6039 16.744ZM90.8919 15.203L91.1111 15.6524C91.6631 15.3831 92.5847 15.1532 93.9209 14.9861L93.8589 14.49L93.7969 13.9939C92.4343 14.1642 91.3779 14.4096 90.6727 14.7536L90.8919 15.203ZM93.8589 14.49H93.3589V17.02H93.8589H94.3589V14.49H93.8589ZM93.8589 17.02L93.775 16.5271C93.0541 16.6498 92.5177 16.7618 92.1903 16.8652L92.3409 17.342L92.4914 17.8188C92.7467 17.7382 93.2223 17.6355 93.9428 17.5129L93.8589 17.02ZM92.3409 17.342L92.1903 16.8652C91.8768 16.9642 91.5274 17.128 91.3518 17.4442L91.7889 17.687L92.2259 17.9298C92.2107 17.9573 92.2035 17.9499 92.2494 17.9212C92.2944 17.8931 92.371 17.8568 92.4914 17.8188L92.3409 17.342ZM91.7889 17.687L91.3518 17.4442C91.2082 17.7026 91.1739 18.0537 91.1739 18.4H91.6739H92.1739C92.1739 18.2483 92.1826 18.1328 92.1962 18.0484C92.2105 17.9599 92.2265 17.9288 92.2259 17.9298L91.7889 17.687ZM91.6739 18.4V18.9C92.4169 18.9 92.8816 19.0522 93.1537 19.272L93.4679 18.883L93.782 18.494C93.2568 18.0698 92.5255 17.9 91.6739 17.9V18.4ZM93.4679 18.883L93.1609 19.2777C93.3983 19.4623 93.5889 19.8405 93.5889 20.585H94.0889H94.5889C94.5889 19.7042 94.3654 18.9477 93.7748 18.4883L93.4679 18.883ZM94.0889 20.585H93.5889C93.5889 21.3129 93.4072 21.767 93.1316 22.0427C92.8559 22.3184 92.4018 22.5 91.6739 22.5V23V23.5C92.5559 23.5 93.3093 23.2791 93.8387 22.7498C94.368 22.2205 94.5889 21.4671 94.5889 20.585H94.0889ZM107.2 14.375V13.875H106.7V14.375H107.2ZM111.57 14.375H112.07V13.875H111.57V14.375ZM109.27 22.195L109.618 21.8365L109.265 21.4928L108.916 21.8414L109.27 22.195ZM108.258 22.816L108.41 23.2922L108.41 23.2922L108.258 22.816ZM97.0798 21.827L96.7193 22.1736L96.7262 22.1806L97.0798 21.827ZM95.9298 14.375V13.875H95.4298V14.375H95.9298ZM100.3 14.375H100.8V13.875H100.3V14.375ZM100.415 18.262L100.008 18.5526L100.032 18.5863L100.061 18.6156L100.415 18.262ZM107.2 9.66H107.7V9.16H107.2V9.66ZM107.2 12.995V13.495H107.7V12.995H107.2ZM100.3 12.995H99.7998V13.495H100.3V12.995ZM100.3 9.66V9.16H99.7998V9.66H100.3ZM106.74 18.4V18.9C106.941 18.9 107.183 18.8648 107.385 18.7137C107.613 18.5424 107.7 18.292 107.7 18.055H107.2H106.7C106.7 18.0575 106.699 18.036 106.714 18.0029C106.73 17.9668 106.756 17.9354 106.785 17.9138C106.811 17.8943 106.827 17.8914 106.82 17.8934C106.812 17.8954 106.787 17.9 106.74 17.9V18.4ZM107.2 18.055H107.7V14.375H107.2H106.7V18.055H107.2ZM107.2 14.375V14.875H111.57V14.375V13.875H107.2V14.375ZM111.57 14.375H111.07V18.055H111.57H112.07V14.375H111.57ZM111.57 18.055H111.07C111.07 18.292 111.156 18.5424 111.385 18.7137C111.586 18.8648 111.828 18.9 112.03 18.9V18.4V17.9C111.983 17.9 111.958 17.8954 111.95 17.8934C111.942 17.8914 111.959 17.8943 111.985 17.9138C112.014 17.9354 112.039 17.9668 112.055 18.0029C112.07 18.036 112.07 18.0575 112.07 18.055H111.57ZM112.03 18.4V18.9H112.49V18.4V17.9H112.03V18.4ZM112.49 18.4V18.9C112.273 18.9 112.16 18.7591 112.134 18.7227C112.106 18.6827 112.103 18.6597 112.111 18.6874C112.126 18.7362 112.146 18.8414 112.165 19.0248C112.201 19.3824 112.22 19.9371 112.22 20.7H112.72H113.22C113.22 19.9296 113.201 19.3343 113.16 18.9252C113.14 18.7252 113.112 18.543 113.069 18.4001C113.049 18.3319 113.015 18.2371 112.953 18.1492C112.894 18.0648 112.745 17.9 112.49 17.9V18.4ZM112.72 20.7H112.22C112.22 21.4629 112.201 22.0176 112.165 22.3752C112.146 22.5586 112.126 22.6638 112.111 22.7126C112.103 22.7403 112.106 22.7173 112.134 22.6773C112.16 22.6409 112.273 22.5 112.49 22.5V23V23.5C112.745 23.5 112.894 23.3352 112.953 23.2508C113.015 23.1629 113.049 23.0681 113.069 22.9999C113.112 22.857 113.14 22.6748 113.16 22.4748C113.201 22.0657 113.22 21.4704 113.22 20.7H112.72ZM112.49 23V22.5H111.8V23V23.5H112.49V23ZM111.8 23V22.5C110.734 22.5 110.041 22.2473 109.618 21.8365L109.27 22.195L108.921 22.5535C109.603 23.2161 110.596 23.5 111.8 23.5V23ZM109.27 22.195L108.916 21.8414C108.68 22.0778 108.411 22.242 108.105 22.3398L108.258 22.816L108.41 23.2922C108.871 23.1447 109.277 22.8948 109.623 22.5486L109.27 22.195ZM108.258 22.816L108.105 22.3398C107.791 22.4404 107.342 22.5 106.74 22.5V23V23.5C107.395 23.5 107.958 23.4369 108.41 23.2922L108.258 22.816ZM106.74 23V22.5H100.415V23V23.5H106.74V23ZM100.415 23V22.5C99.0642 22.5 98.0956 22.1357 97.4333 21.4734L97.0798 21.827L96.7262 22.1806C97.6279 23.0823 98.8827 23.5 100.415 23.5V23ZM97.0798 21.827L97.4402 21.4804C96.7904 20.8046 96.4298 19.8037 96.4298 18.4H95.9298H95.4298C95.4298 19.971 95.8358 21.2547 96.7193 22.1736L97.0798 21.827ZM95.9298 18.4H96.4298V14.375H95.9298H95.4298V18.4H95.9298ZM95.9298 14.375V14.875H100.3V14.375V13.875H95.9298V14.375ZM100.3 14.375H99.7998V17.825H100.3H100.8V14.375H100.3ZM100.3 17.825H99.7998C99.7998 18.0732 99.851 18.3329 100.008 18.5526L100.415 18.262L100.822 17.9714C100.825 17.9764 100.8 17.9448 100.8 17.825H100.3ZM100.415 18.262L100.061 18.6156C100.292 18.8466 100.609 18.9 100.875 18.9V18.4V17.9C100.801 17.9 100.76 17.8918 100.742 17.8866C100.727 17.882 100.744 17.8839 100.768 17.9084L100.415 18.262ZM100.875 18.4V18.9H106.74V18.4V17.9H100.875V18.4ZM107.2 9.66H106.7V12.995H107.2H107.7V9.66H107.2ZM107.2 12.995V12.495H100.3V12.995V13.495H107.2V12.995ZM100.3 12.995H100.8V9.66H100.3H99.7998V12.995H100.3ZM100.3 9.66V10.16H107.2V9.66V9.16H100.3V9.66ZM114.899 14.375V13.875H114.399V14.375H114.899ZM119.269 14.375H119.769V13.875H119.269V14.375ZM116.969 22.195L117.318 21.8365L116.964 21.4928L116.616 21.8414L116.969 22.195ZM112.323 18.814L111.83 18.7318L111.83 18.7318L112.323 18.814ZM117.314 24.38H117.814V23.88H117.314V24.38ZM117.314 27.715V28.215H117.814V27.715H117.314ZM110.414 27.715H109.914V28.215H110.414V27.715ZM110.414 24.38V23.88H109.914V24.38H110.414ZM114.439 18.4V18.9C114.641 18.9 114.883 18.8648 115.084 18.7137C115.313 18.5424 115.399 18.292 115.399 18.055H114.899H114.399C114.399 18.0575 114.399 18.036 114.414 18.0029C114.43 17.9668 114.456 17.9354 114.484 17.9137C114.51 17.8943 114.527 17.8914 114.519 17.8934C114.511 17.8954 114.486 17.9 114.439 17.9V18.4ZM114.899 18.055H115.399V14.375H114.899H114.399V18.055H114.899ZM114.899 14.375V14.875H119.269V14.375V13.875H114.899V14.375ZM119.269 14.375H118.769V18.055H119.269H119.769V14.375H119.269ZM119.269 18.055H118.769C118.769 18.292 118.856 18.5424 119.084 18.7137C119.286 18.8648 119.528 18.9 119.729 18.9V18.4V17.9C119.682 17.9 119.658 17.8954 119.649 17.8934C119.642 17.8914 119.658 17.8943 119.684 17.9137C119.713 17.9354 119.739 17.9668 119.755 18.0029C119.77 18.036 119.769 18.0575 119.769 18.055H119.269ZM119.729 18.4V18.9H120.189V18.4V17.9H119.729V18.4ZM120.189 18.4V18.9C119.973 18.9 119.859 18.7591 119.834 18.7227C119.806 18.6827 119.803 18.6597 119.811 18.6874C119.826 18.7362 119.846 18.8414 119.864 19.0248C119.9 19.3824 119.919 19.9371 119.919 20.7H120.419H120.919C120.919 19.9296 120.9 19.3343 120.859 18.9252C120.839 18.7252 120.812 18.543 120.769 18.4001C120.748 18.3319 120.714 18.2371 120.653 18.1492C120.594 18.0648 120.444 17.9 120.189 17.9V18.4ZM120.419 20.7H119.919C119.919 21.4629 119.9 22.0176 119.864 22.3752C119.846 22.5586 119.826 22.6638 119.811 22.7126C119.803 22.7403 119.806 22.7173 119.834 22.6773C119.859 22.6409 119.973 22.5 120.189 22.5V23V23.5C120.444 23.5 120.594 23.3352 120.653 23.2508C120.714 23.1629 120.748 23.0681 120.769 22.9999C120.812 22.857 120.839 22.6748 120.859 22.4748C120.9 22.0657 120.919 21.4704 120.919 20.7H120.419ZM120.189 23V22.5H119.499V23V23.5H120.189V23ZM119.499 23V22.5C118.434 22.5 117.74 22.2473 117.318 21.8365L116.969 22.195L116.621 22.5535C117.302 23.2161 118.296 23.5 119.499 23.5V23ZM116.969 22.195L116.616 21.8414C116.379 22.0778 116.111 22.242 115.805 22.3398L115.957 22.816L116.11 23.2922C116.571 23.1447 116.977 22.8948 117.323 22.5486L116.969 22.195ZM115.957 22.816L115.805 22.3398C115.49 22.4404 115.042 22.5 114.439 22.5V23V23.5C115.094 23.5 115.658 23.4369 116.11 23.2922L115.957 22.816ZM114.439 23V22.5H112.484V23V23.5H114.439V23ZM112.484 23V22.5C112.701 22.5 112.815 22.6409 112.84 22.6773C112.868 22.7173 112.871 22.7403 112.863 22.7126C112.848 22.6638 112.828 22.5586 112.809 22.3752C112.774 22.0176 112.754 21.4629 112.754 20.7H112.254H111.754C111.754 21.4704 111.773 22.0657 111.814 22.4748C111.834 22.6748 111.862 22.857 111.905 22.9999C111.925 23.0681 111.959 23.1629 112.021 23.2508C112.08 23.3352 112.229 23.5 112.484 23.5V23ZM112.254 20.7H112.754C112.754 19.7069 112.779 19.1231 112.817 18.8962L112.323 18.814L111.83 18.7318C111.776 19.0569 111.754 19.7304 111.754 20.7H112.254ZM112.323 18.814L112.817 18.8962C112.838 18.7678 112.856 18.7049 112.864 18.6847C112.869 18.6724 112.859 18.7035 112.824 18.746C112.789 18.7883 112.676 18.9 112.484 18.9V18.4V17.9C112.262 17.9 112.12 18.0289 112.056 18.1058C111.992 18.1828 111.954 18.2656 111.932 18.3223C111.886 18.4401 111.855 18.5842 111.83 18.7318L112.323 18.814ZM112.484 18.4V18.9H114.439V18.4V17.9H112.484V18.4ZM117.314 24.38H116.814V27.715H117.314H117.814V24.38H117.314ZM117.314 27.715V27.215H110.414V27.715V28.215H117.314V27.715ZM110.414 27.715H110.914V24.38H110.414H109.914V27.715H110.414ZM110.414 24.38V24.88H117.314V24.38V23.88H110.414V24.38ZM125.57 21.735L125.924 22.0886L125.57 21.735ZM120.027 18.814L119.534 18.7318L119.534 18.7318L120.027 18.814ZM122.465 18.308L122.743 18.724L122.765 18.7092L122.786 18.6921L122.465 18.308ZM122.603 14.375V13.875H122.103V14.375H122.603ZM126.858 14.375H127.358V13.875H126.858V14.375ZM119.843 27.715H119.343V28.215H119.843V27.715ZM119.843 24.38V23.88H119.343V24.38H119.843ZM124.213 24.38H124.713V23.88H124.213V24.38ZM124.213 27.715V28.215H124.713V27.715H124.213ZM126.858 18.285H126.358C126.358 19.6203 125.965 20.6338 125.217 21.3814L125.57 21.735L125.924 22.0886C126.894 21.1188 127.358 19.8323 127.358 18.285H126.858ZM125.57 21.735L125.217 21.3814C124.486 22.112 123.482 22.5 122.143 22.5V23V23.5C123.688 23.5 124.968 23.0447 125.924 22.0886L125.57 21.735ZM122.143 23V22.5H120.188V23V23.5H122.143V23ZM120.188 23V22.5C120.405 22.5 120.519 22.6409 120.544 22.6773C120.572 22.7173 120.575 22.7403 120.567 22.7126C120.552 22.6638 120.532 22.5586 120.513 22.3752C120.478 22.0176 120.458 21.4629 120.458 20.7H119.958H119.458C119.458 21.4704 119.478 22.0657 119.518 22.4748C119.538 22.6748 119.566 22.857 119.609 22.9999C119.629 23.0681 119.663 23.1629 119.725 23.2508C119.784 23.3352 119.934 23.5 120.188 23.5V23ZM119.958 20.7H120.458C120.458 19.7069 120.483 19.1231 120.521 18.8962L120.027 18.814L119.534 18.7318C119.48 19.0569 119.458 19.7304 119.458 20.7H119.958ZM120.027 18.814L120.521 18.8962C120.542 18.7678 120.56 18.7049 120.568 18.6847C120.573 18.6724 120.563 18.7035 120.528 18.746C120.493 18.7883 120.38 18.9 120.188 18.9V18.4V17.9C119.966 17.9 119.824 18.0289 119.76 18.1058C119.696 18.1828 119.658 18.2656 119.636 18.3223C119.59 18.4401 119.559 18.5842 119.534 18.7318L120.027 18.814ZM120.188 18.4V18.9H122.143V18.4V17.9H120.188V18.4ZM122.143 18.4V18.9C122.354 18.9 122.56 18.846 122.743 18.724L122.465 18.308L122.188 17.892C122.187 17.8926 122.179 17.9 122.143 17.9V18.4ZM122.465 18.308L122.786 18.6921C122.977 18.5328 123.103 18.3061 123.103 18.032H122.603H122.103C122.103 18.0115 122.109 17.9844 122.122 17.9579C122.134 17.9329 122.147 17.9225 122.145 17.9239L122.465 18.308ZM122.603 18.032H123.103V14.375H122.603H122.103V18.032H122.603ZM122.603 14.375V14.875H126.858V14.375V13.875H122.603V14.375ZM126.858 14.375H126.358V18.285H126.858H127.358V14.375H126.858ZM119.843 27.715H120.343V24.38H119.843H119.343V27.715H119.843ZM119.843 24.38V24.88H124.213V24.38V23.88H119.843V24.38ZM124.213 24.38H123.713V27.715H124.213H124.713V24.38H124.213ZM124.213 27.715V27.215H119.843V27.715V28.215H124.213V27.715ZM141.934 18.262L142.318 17.9419L142.318 17.9419L141.934 18.262ZM139.174 21.275L139.638 21.0893L139.383 20.4503L138.854 20.8909L139.174 21.275ZM133.286 20.884L132.919 21.2235L132.926 21.2306L133.286 20.884ZM132.711 14.766L132.261 14.5493L132.257 14.5565L132.711 14.766ZM134.321 12.834L134.611 13.2415L134.613 13.2403L134.321 12.834ZM137.449 12.075V12.575H137.949V12.075H137.449ZM137.449 10.58V10.08H136.949V10.58H137.449ZM141.819 10.58H142.319V10.08H141.819V10.58ZM137.679 16.33H138.179V15.83H137.679V16.33ZM136.506 16.514L136.838 16.8877L136.838 16.8877L136.506 16.514ZM141.819 17.94H141.319C141.319 18.1765 141.397 18.3979 141.55 18.5821L141.934 18.262L142.318 17.9419C142.317 17.94 142.317 17.9394 142.317 17.9403C142.318 17.9411 142.318 17.9426 142.319 17.9443C142.319 17.9461 142.32 17.9471 142.32 17.9469C142.32 17.9467 142.319 17.9446 142.319 17.94H141.819ZM141.934 18.262L141.55 18.5821C141.747 18.8186 142.022 18.9 142.279 18.9V18.4V17.9C142.252 17.9 142.25 17.8957 142.264 17.9013C142.271 17.9041 142.281 17.909 142.291 17.9166C142.302 17.9243 142.311 17.9331 142.318 17.9419L141.934 18.262ZM142.279 18.4V18.9H143.199V18.4V17.9H142.279V18.4ZM143.199 18.4V18.9C142.983 18.9 142.869 18.7591 142.844 18.7227C142.816 18.6827 142.813 18.6597 142.821 18.6874C142.836 18.7362 142.856 18.8414 142.874 19.0248C142.91 19.3824 142.929 19.9371 142.929 20.7H143.429H143.929C143.929 19.9296 143.91 19.3343 143.869 18.9252C143.849 18.7252 143.822 18.543 143.779 18.4001C143.758 18.3319 143.724 18.2371 143.663 18.1492C143.604 18.0648 143.454 17.9 143.199 17.9V18.4ZM143.429 20.7H142.929C142.929 21.4629 142.91 22.0176 142.874 22.3752C142.856 22.5586 142.836 22.6638 142.821 22.7126C142.813 22.7403 142.816 22.7173 142.844 22.6773C142.869 22.6409 142.983 22.5 143.199 22.5V23V23.5C143.454 23.5 143.604 23.3352 143.663 23.2508C143.724 23.1629 143.758 23.0681 143.779 22.9999C143.822 22.857 143.849 22.6748 143.869 22.4748C143.91 22.0657 143.929 21.4704 143.929 20.7H143.429ZM143.199 23V22.5H142.164V23V23.5H143.199V23ZM142.164 23V22.5C141.457 22.5 140.918 22.3671 140.517 22.1357C140.123 21.9086 139.83 21.5686 139.638 21.0893L139.174 21.275L138.71 21.4607C138.978 22.1314 139.414 22.6539 140.017 23.0018C140.612 23.3454 141.338 23.5 142.164 23.5V23ZM139.174 21.275L138.854 20.8909C138.332 21.3264 137.542 21.58 136.414 21.58V22.08V22.58C137.678 22.58 138.729 22.297 139.494 21.6591L139.174 21.275ZM136.414 22.08V21.58C135.203 21.58 134.301 21.2181 133.647 20.5374L133.286 20.884L132.926 21.2306C133.805 22.1446 134.988 22.58 136.414 22.58V22.08ZM133.286 20.884L133.653 20.5446C133.019 19.8588 132.659 18.7907 132.659 17.25H132.159H131.659C131.659 18.9293 132.05 20.2839 132.919 21.2234L133.286 20.884ZM132.159 17.25H132.659C132.659 16.4654 132.827 15.7087 133.165 14.9755L132.711 14.766L132.257 14.5565C131.86 15.418 131.659 16.3173 131.659 17.25H132.159ZM132.711 14.766L133.162 14.9826C133.51 14.2579 133.993 13.6809 134.611 13.2415L134.321 12.834L134.031 12.4265C133.269 12.9684 132.679 13.6794 132.261 14.5494L132.711 14.766ZM134.321 12.834L134.613 13.2403C135.228 12.799 135.937 12.575 136.759 12.575V12.075V11.575C135.741 11.575 134.825 11.857 134.03 12.4277L134.321 12.834ZM136.759 12.075V12.575H137.449V12.075V11.575H136.759V12.075ZM137.449 12.075H137.949V10.58H137.449H136.949V12.075H137.449ZM137.449 10.58V11.08H141.819V10.58V10.08H137.449V10.58ZM141.819 10.58H141.319V17.94H141.819H142.319V10.58H141.819ZM136.299 17.135H135.799C135.799 17.4421 135.876 17.7642 136.118 18.0061C136.36 18.2479 136.682 18.325 136.989 18.325V17.825V17.325C136.836 17.325 136.813 17.2871 136.825 17.2989C136.837 17.3108 136.799 17.2879 136.799 17.135H136.299ZM136.989 17.825V18.325C137.296 18.325 137.618 18.2479 137.86 18.0061C138.102 17.7642 138.179 17.4421 138.179 17.135H137.679H137.179C137.179 17.2879 137.141 17.3108 137.153 17.2989C137.165 17.2871 137.142 17.325 136.989 17.325V17.825ZM137.679 17.135H138.179V16.33H137.679H137.179V17.135H137.679ZM137.679 16.33V15.83H137.219V16.33V16.83H137.679V16.33ZM137.219 16.33V15.83C136.85 15.83 136.454 15.8915 136.174 16.1403L136.506 16.514L136.838 16.8877C136.832 16.8936 136.847 16.8772 136.913 16.8601C136.979 16.8431 137.078 16.83 137.219 16.83V16.33ZM136.506 16.514L136.174 16.1403C135.881 16.401 135.799 16.7822 135.799 17.135H136.299H136.799C136.799 16.9051 136.856 16.8723 136.838 16.8877L136.506 16.514ZM148.57 21.735L148.924 22.0886L148.57 21.735ZM143.027 18.814L142.534 18.7318L142.534 18.7318L143.027 18.814ZM145.465 18.308L145.743 18.724L145.765 18.7092L145.786 18.6921L145.465 18.308ZM145.603 14.375V13.875H145.103V14.375H145.603ZM149.858 14.375H150.358V13.875H149.858V14.375ZM148.478 24.38H148.978V23.88H148.478V24.38ZM148.478 27.715V28.215H148.978V27.715H148.478ZM141.578 27.715H141.078V28.215H141.578V27.715ZM141.578 24.38V23.88H141.078V24.38H141.578ZM149.858 18.285H149.358C149.358 19.6203 148.965 20.6338 148.217 21.3814L148.57 21.735L148.924 22.0886C149.894 21.1188 150.358 19.8323 150.358 18.285H149.858ZM148.57 21.735L148.217 21.3814C147.486 22.112 146.482 22.5 145.143 22.5V23V23.5C146.688 23.5 147.968 23.0447 148.924 22.0886L148.57 21.735ZM145.143 23V22.5H143.188V23V23.5H145.143V23ZM143.188 23V22.5C143.405 22.5 143.519 22.6409 143.544 22.6773C143.572 22.7173 143.575 22.7403 143.567 22.7126C143.552 22.6638 143.532 22.5586 143.513 22.3752C143.478 22.0176 143.458 21.4629 143.458 20.7H142.958H142.458C142.458 21.4704 142.478 22.0657 142.518 22.4748C142.538 22.6748 142.566 22.857 142.609 22.9999C142.629 23.0681 142.663 23.1629 142.725 23.2508C142.784 23.3352 142.934 23.5 143.188 23.5V23ZM142.958 20.7H143.458C143.458 19.7069 143.483 19.1231 143.521 18.8962L143.027 18.814L142.534 18.7318C142.48 19.0569 142.458 19.7304 142.458 20.7H142.958ZM143.027 18.814L143.521 18.8962C143.542 18.7678 143.56 18.7049 143.568 18.6847C143.573 18.6724 143.563 18.7035 143.528 18.746C143.493 18.7883 143.38 18.9 143.188 18.9V18.4V17.9C142.966 17.9 142.824 18.0289 142.76 18.1058C142.696 18.1828 142.658 18.2656 142.636 18.3223C142.59 18.4401 142.559 18.5842 142.534 18.7318L143.027 18.814ZM143.188 18.4V18.9H145.143V18.4V17.9H143.188V18.4ZM145.143 18.4V18.9C145.354 18.9 145.56 18.846 145.743 18.724L145.465 18.308L145.188 17.892C145.187 17.8926 145.179 17.9 145.143 17.9V18.4ZM145.465 18.308L145.786 18.6921C145.977 18.5328 146.103 18.3061 146.103 18.032H145.603H145.103C145.103 18.0115 145.109 17.9844 145.122 17.9579C145.134 17.9329 145.147 17.9225 145.145 17.9239L145.465 18.308ZM145.603 18.032H146.103V14.375H145.603H145.103V18.032H145.603ZM145.603 14.375V14.875H149.858V14.375V13.875H145.603V14.375ZM149.858 14.375H149.358V18.285H149.858H150.358V14.375H149.858ZM148.478 24.38H147.978V27.715H148.478H148.978V24.38H148.478ZM148.478 27.715V27.215H141.578V27.715V28.215H148.478V27.715ZM141.578 27.715H142.078V24.38H141.578H141.078V27.715H141.578ZM141.578 24.38V24.88H148.478V24.38V23.88H141.578V24.38ZM161.07 18.814L160.573 18.8692L160.575 18.8828L160.577 18.8962L161.07 18.814ZM161.07 22.586L160.577 22.5038L160.575 22.5172L160.573 22.5308L161.07 22.586ZM156.401 21.781L156.034 22.1204L156.038 22.1241L156.401 21.781ZM155.274 8.28V7.78H154.774V8.28H155.274ZM159.644 8.28H160.144V7.78H159.644V8.28ZM159.736 18.308L159.346 18.6203L159.381 18.6637L159.424 18.6984L159.736 18.308ZM160.909 18.4V18.9C160.759 18.9 160.653 18.8265 160.599 18.7692C160.574 18.743 160.56 18.72 160.552 18.7072C160.545 18.6939 160.541 18.6855 160.541 18.6847C160.541 18.6843 160.546 18.698 160.553 18.7327C160.56 18.7659 160.567 18.8108 160.573 18.8692L161.07 18.814L161.567 18.7588C161.55 18.6083 161.524 18.4529 161.473 18.3223C161.448 18.2576 161.404 18.1655 161.326 18.0826C161.239 17.9907 161.097 17.9 160.909 17.9V18.4ZM161.07 18.814L160.577 18.8962C160.615 19.1231 160.639 19.7069 160.639 20.7H161.139H161.639C161.639 19.7304 161.618 19.0569 161.563 18.7318L161.07 18.814ZM161.139 20.7H160.639C160.639 21.6931 160.615 22.2769 160.577 22.5038L161.07 22.586L161.563 22.6682C161.618 22.3431 161.639 21.6696 161.639 20.7H161.139ZM161.07 22.586L160.573 22.5308C160.567 22.5892 160.56 22.6341 160.553 22.6673C160.546 22.702 160.541 22.7157 160.541 22.7153C160.541 22.7145 160.545 22.7061 160.552 22.6928C160.56 22.68 160.574 22.657 160.599 22.6308C160.653 22.5735 160.759 22.5 160.909 22.5V23V23.5C161.097 23.5 161.239 23.4093 161.326 23.3174C161.404 23.2345 161.448 23.1424 161.473 23.0777C161.524 22.9471 161.55 22.7917 161.567 22.6412L161.07 22.586ZM160.909 23V22.5H159.759V23V23.5H160.909V23ZM159.759 23V22.5C158.379 22.5 157.41 22.1214 156.765 21.4379L156.401 21.781L156.038 22.1241C156.926 23.0659 158.195 23.5 159.759 23.5V23ZM156.401 21.781L156.768 21.4416C156.13 20.751 155.774 19.7244 155.774 18.285H155.274H154.774C154.774 19.8816 155.17 21.1857 156.034 22.1204L156.401 21.781ZM155.274 18.285H155.774V8.28H155.274H154.774V18.285H155.274ZM155.274 8.28V8.78H159.644V8.28V7.78H155.274V8.28ZM159.644 8.28H159.144V17.94H159.644H160.144V8.28H159.644ZM159.644 17.94H159.144C159.144 18.1484 159.178 18.4108 159.346 18.6203L159.736 18.308L160.127 17.9957C160.152 18.0272 160.155 18.0481 160.152 18.0372C160.15 18.0262 160.144 17.9961 160.144 17.94H159.644ZM159.736 18.308L159.424 18.6984C159.633 18.866 159.896 18.9 160.104 18.9V18.4V17.9C160.048 17.9 160.018 17.8947 160.007 17.8919C159.996 17.8892 160.017 17.8923 160.049 17.9176L159.736 18.308ZM160.104 18.4V18.9H160.909V18.4V17.9H160.104V18.4ZM170.501 12.834L170.272 13.2788L170.283 13.2838L170.501 12.834ZM171.996 14.329L171.572 14.594L171.572 14.594L171.996 14.329ZM173.261 17.48L173.548 17.8893L173.838 17.6858L173.743 17.3448L173.261 17.48ZM171.95 18.4L171.663 17.9907L170.367 18.9H171.95V18.4ZM174.756 22.609L175.249 22.6959L175.249 22.6912L174.756 22.609ZM170.547 22.563L170.314 23.0056L170.324 23.0102L170.547 22.563ZM169.075 21.16L169.497 20.8922L169.242 20.489L168.827 20.7259L169.075 21.16ZM168.27 21.62L168.022 21.1859L168.019 21.1878L168.27 21.62ZM165.717 22.678L165.596 22.1929L165.596 22.1929L165.717 22.678ZM160.749 18.814L160.256 18.7318L160.256 18.7318L160.749 18.814ZM165.602 18.193L165.689 18.6854L165.697 18.684L165.602 18.193ZM168.155 17.365L168.357 17.8225L168.756 17.6468L168.636 17.2276L168.155 17.365ZM167.902 16.928L167.577 17.3076L167.594 17.322L167.612 17.3349L167.902 16.928ZM162.29 16.79L161.792 16.7506L161.749 17.29H162.29V16.79ZM162.635 12.42V11.92H162.173L162.137 12.3806L162.635 12.42ZM164.015 27.715H163.515V28.215H164.015V27.715ZM164.015 24.38V23.88H163.515V24.38H164.015ZM168.385 24.38H168.885V23.88H168.385V24.38ZM168.385 27.715V28.215H168.885V27.715H168.385ZM168.615 12.42V12.92C169.272 12.92 169.819 13.0454 170.272 13.2786L170.501 12.834L170.73 12.3894C170.11 12.0706 169.4 11.92 168.615 11.92V12.42ZM170.501 12.834L170.283 13.2838C170.705 13.4887 171.141 13.9035 171.572 14.594L171.996 14.329L172.42 14.064C171.932 13.2825 171.371 12.7006 170.72 12.3842L170.501 12.834ZM171.996 14.329L171.572 14.594C171.996 15.2724 172.402 16.2713 172.78 17.6152L173.261 17.48L173.743 17.3448C173.353 15.9594 172.916 14.8576 172.42 14.064L171.996 14.329ZM173.261 17.48L172.974 17.0707L171.663 17.9907L171.95 18.4L172.237 18.8093L173.548 17.8893L173.261 17.48ZM171.95 18.4V18.9H173.215V18.4V17.9H171.95V18.4ZM173.215 18.4V18.9H174.595V18.4V17.9H173.215V18.4ZM174.595 18.4V18.9C174.379 18.9 174.265 18.7591 174.239 18.7227C174.211 18.6827 174.209 18.6597 174.217 18.6874C174.231 18.7362 174.252 18.8414 174.27 19.0248C174.306 19.3824 174.325 19.9371 174.325 20.7H174.825H175.325C175.325 19.9296 175.306 19.3343 175.265 18.9252C175.245 18.7252 175.218 18.543 175.175 18.4001C175.154 18.3319 175.12 18.2371 175.059 18.1492C175 18.0648 174.85 17.9 174.595 17.9V18.4ZM174.825 20.7H174.325C174.325 21.7089 174.301 22.3 174.263 22.5268L174.756 22.609L175.249 22.6912C175.304 22.366 175.325 21.6844 175.325 20.7H174.825ZM174.756 22.609L174.264 22.5221C174.243 22.6421 174.225 22.6974 174.219 22.7119C174.215 22.7209 174.227 22.6879 174.265 22.6448C174.305 22.5997 174.415 22.5 174.595 22.5V23V23.5C174.806 23.5 174.946 23.384 175.015 23.3064C175.081 23.2307 175.121 23.1488 175.144 23.0926C175.191 22.9768 175.224 22.8366 175.249 22.6959L174.756 22.609ZM174.595 23V22.5H172.64V23V23.5H174.595V23ZM172.64 23V22.5C171.886 22.5 171.269 22.3649 170.771 22.1158L170.547 22.563L170.324 23.0102C170.991 23.3438 171.769 23.5 172.64 23.5V23ZM170.547 22.563L170.78 22.1205C170.284 21.8596 169.856 21.4569 169.497 20.8922L169.075 21.16L168.653 21.4278C169.092 22.1204 169.645 22.653 170.314 23.0055L170.547 22.563ZM169.075 21.16L168.827 20.7259L168.022 21.1859L168.27 21.62L168.518 22.0541L169.323 21.5941L169.075 21.16ZM168.27 21.62L168.019 21.1878C167.212 21.6572 166.404 21.9908 165.596 22.1929L165.717 22.678L165.838 23.1631C166.747 22.9359 167.642 22.5641 168.522 22.0522L168.27 21.62ZM165.717 22.678L165.596 22.1929C164.79 22.3944 163.768 22.5 162.52 22.5V23V23.5C163.818 23.5 164.927 23.3909 165.838 23.1631L165.717 22.678ZM162.52 23V22.5H160.91V23V23.5H162.52V23ZM160.91 23V22.5C161.127 22.5 161.24 22.6409 161.266 22.6773C161.294 22.7173 161.297 22.7403 161.288 22.7126C161.274 22.6638 161.254 22.5586 161.235 22.3752C161.199 22.0176 161.18 21.4629 161.18 20.7H160.68H160.18C160.18 21.4704 160.199 22.0657 160.24 22.4748C160.26 22.6748 160.288 22.857 160.331 22.9999C160.351 23.0681 160.385 23.1629 160.447 23.2508C160.506 23.3352 160.655 23.5 160.91 23.5V23ZM160.68 20.7H161.18C161.18 19.7069 161.205 19.1231 161.242 18.8962L160.749 18.814L160.256 18.7318C160.202 19.0569 160.18 19.7304 160.18 20.7H160.68ZM160.749 18.814L161.242 18.8962C161.264 18.7678 161.282 18.7049 161.29 18.6847C161.295 18.6724 161.285 18.7035 161.25 18.746C161.214 18.7883 161.102 18.9 160.91 18.9V18.4V17.9C160.688 17.9 160.546 18.0289 160.481 18.1058C160.417 18.1828 160.38 18.2656 160.358 18.3223C160.312 18.4401 160.281 18.5842 160.256 18.7318L160.749 18.814ZM160.91 18.4V18.9H162.75V18.4V17.9H160.91V18.4ZM162.75 18.4V18.9C163.888 18.9 164.869 18.83 165.689 18.6854L165.602 18.193L165.515 17.7006C164.771 17.832 163.851 17.9 162.75 17.9V18.4ZM165.602 18.193L165.697 18.684C166.538 18.5222 167.425 18.2332 168.357 17.8225L168.155 17.365L167.954 16.9075C167.076 17.2941 166.261 17.5571 165.508 17.702L165.602 18.193ZM168.155 17.365L168.636 17.2276C168.563 16.9728 168.437 16.6956 168.193 16.5211L167.902 16.928L167.612 17.3349C167.594 17.322 167.597 17.3177 167.613 17.3453C167.629 17.3731 167.652 17.4226 167.674 17.5024L168.155 17.365ZM167.902 16.928L168.228 16.5484C168.005 16.3578 167.732 16.29 167.465 16.29V16.79V17.29C167.516 17.29 167.546 17.2964 167.562 17.3013C167.569 17.3037 167.573 17.3057 167.575 17.3066C167.576 17.307 167.576 17.3074 167.577 17.3075C167.577 17.3075 167.577 17.3076 167.577 17.3076C167.577 17.3076 167.577 17.3076 167.577 17.3076L167.902 16.928ZM167.465 16.79V16.29H162.29V16.79V17.29H167.465V16.79ZM162.29 16.79L162.789 16.8294L163.134 12.4594L162.635 12.42L162.137 12.3806L161.792 16.7506L162.29 16.79ZM162.635 12.42V12.92H168.615V12.42V11.92H162.635V12.42ZM164.015 27.715H164.515V24.38H164.015H163.515V27.715H164.015ZM164.015 24.38V24.88H168.385V24.38V23.88H164.015V24.38ZM168.385 24.38H167.885V27.715H168.385H168.885V24.38H168.385ZM168.385 27.715V27.215H164.015V27.715V28.215H168.385V27.715ZM177.004 14.375V13.875H176.504V14.375H177.004ZM181.374 14.375H181.874V13.875H181.374V14.375ZM179.074 22.195L179.422 21.8365L179.069 21.4928L178.72 21.8414L179.074 22.195ZM174.428 18.814L173.935 18.7318L173.935 18.7318L174.428 18.814ZM176.889 12.995H176.389V13.495H176.889V12.995ZM176.889 9.66V9.16H176.389V9.66H176.889ZM181.259 9.66H181.759V9.16H181.259V9.66ZM181.259 12.995V13.495H181.759V12.995H181.259ZM176.544 18.4V18.9C176.745 18.9 176.988 18.8648 177.189 18.7137C177.417 18.5424 177.504 18.292 177.504 18.055H177.004H176.504C176.504 18.0575 176.503 18.036 176.518 18.0029C176.534 17.9668 176.56 17.9354 176.589 17.9137C176.615 17.8943 176.632 17.8914 176.624 17.8934C176.616 17.8954 176.591 17.9 176.544 17.9V18.4ZM177.004 18.055H177.504V14.375H177.004H176.504V18.055H177.004ZM177.004 14.375V14.875H181.374V14.375V13.875H177.004V14.375ZM181.374 14.375H180.874V18.055H181.374H181.874V14.375H181.374ZM181.374 18.055H180.874C180.874 18.292 180.96 18.5424 181.189 18.7137C181.39 18.8648 181.632 18.9 181.834 18.9V18.4V17.9C181.787 17.9 181.762 17.8954 181.754 17.8934C181.746 17.8914 181.763 17.8943 181.789 17.9137C181.818 17.9354 181.843 17.9668 181.86 18.0029C181.874 18.036 181.874 18.0575 181.874 18.055H181.374ZM181.834 18.4V18.9H182.294V18.4V17.9H181.834V18.4ZM182.294 18.4V18.9C182.077 18.9 181.964 18.7591 181.938 18.7227C181.91 18.6827 181.907 18.6597 181.916 18.6874C181.93 18.7362 181.951 18.8414 181.969 19.0248C182.005 19.3824 182.024 19.9371 182.024 20.7H182.524H183.024C183.024 19.9296 183.005 19.3343 182.964 18.9252C182.944 18.7252 182.916 18.543 182.873 18.4001C182.853 18.3319 182.819 18.2371 182.757 18.1492C182.698 18.0648 182.549 17.9 182.294 17.9V18.4ZM182.524 20.7H182.024C182.024 21.4629 182.005 22.0176 181.969 22.3752C181.951 22.5586 181.93 22.6638 181.916 22.7126C181.907 22.7403 181.91 22.7173 181.938 22.6773C181.964 22.6409 182.077 22.5 182.294 22.5V23V23.5C182.549 23.5 182.698 23.3352 182.757 23.2508C182.819 23.1629 182.853 23.0681 182.873 22.9999C182.916 22.857 182.944 22.6748 182.964 22.4748C183.005 22.0657 183.024 21.4704 183.024 20.7H182.524ZM182.294 23V22.5H181.604V23V23.5H182.294V23ZM181.604 23V22.5C180.538 22.5 179.845 22.2473 179.422 21.8365L179.074 22.195L178.725 22.5535C179.407 23.2161 180.4 23.5 181.604 23.5V23ZM179.074 22.195L178.72 21.8414C178.484 22.0778 178.215 22.242 177.909 22.3398L178.062 22.816L178.214 23.2922C178.675 23.1447 179.081 22.8948 179.427 22.5486L179.074 22.195ZM178.062 22.816L177.909 22.3398C177.595 22.4404 177.146 22.5 176.544 22.5V23V23.5C177.199 23.5 177.762 23.4369 178.214 23.2922L178.062 22.816ZM176.544 23V22.5H174.589V23V23.5H176.544V23ZM174.589 23V22.5C174.805 22.5 174.919 22.6409 174.945 22.6773C174.973 22.7173 174.975 22.7403 174.967 22.7126C174.953 22.6638 174.932 22.5586 174.914 22.3752C174.878 22.0176 174.859 21.4629 174.859 20.7H174.359H173.859C173.859 21.4704 173.878 22.0657 173.919 22.4748C173.939 22.6748 173.966 22.857 174.009 22.9999C174.03 23.0681 174.064 23.1629 174.125 23.2508C174.184 23.3352 174.334 23.5 174.589 23.5V23ZM174.359 20.7H174.859C174.859 19.7069 174.883 19.1231 174.921 18.8962L174.428 18.814L173.935 18.7318C173.88 19.0569 173.859 19.7304 173.859 20.7H174.359ZM174.428 18.814L174.921 18.8962C174.942 18.7678 174.961 18.7049 174.969 18.6847C174.973 18.6724 174.964 18.7035 174.928 18.746C174.893 18.7883 174.781 18.9 174.589 18.9V18.4V17.9C174.367 17.9 174.224 18.0289 174.16 18.1058C174.096 18.1828 174.059 18.2656 174.037 18.3223C173.991 18.4401 173.959 18.5842 173.935 18.7318L174.428 18.814ZM174.589 18.4V18.9H176.544V18.4V17.9H174.589V18.4ZM176.889 12.995H177.389V9.66H176.889H176.389V12.995H176.889ZM176.889 9.66V10.16H181.259V9.66V9.16H176.889V9.66ZM181.259 9.66H180.759V12.995H181.259H181.759V9.66H181.259ZM181.259 12.995V12.495H176.889V12.995V13.495H181.259V12.995ZM187.675 21.735L188.029 22.0886L187.675 21.735ZM182.132 18.814L181.639 18.7318L181.639 18.7318L182.132 18.814ZM184.57 18.308L184.847 18.724L184.87 18.7092L184.89 18.6921L184.57 18.308ZM184.708 14.375V13.875H184.208V14.375H184.708ZM188.963 14.375H189.463V13.875H188.963V14.375ZM187.583 24.38H188.083V23.88H187.583V24.38ZM187.583 27.715V28.215H188.083V27.715H187.583ZM180.683 27.715H180.183V28.215H180.683V27.715ZM180.683 24.38V23.88H180.183V24.38H180.683ZM188.963 18.285H188.463C188.463 19.6203 188.069 20.6338 187.321 21.3814L187.675 21.735L188.029 22.0886C188.998 21.1188 189.463 19.8323 189.463 18.285H188.963ZM187.675 21.735L187.321 21.3814C186.591 22.112 185.586 22.5 184.248 22.5V23V23.5C185.792 23.5 187.072 23.0447 188.029 22.0886L187.675 21.735ZM184.248 23V22.5H182.293V23V23.5H184.248V23ZM182.293 23V22.5C182.51 22.5 182.623 22.6409 182.649 22.6773C182.677 22.7173 182.68 22.7403 182.671 22.7126C182.657 22.6638 182.636 22.5586 182.618 22.3752C182.582 22.0176 182.563 21.4629 182.563 20.7H182.063H181.563C181.563 21.4704 181.582 22.0657 181.623 22.4748C181.643 22.6748 181.671 22.857 181.713 22.9999C181.734 23.0681 181.768 23.1629 181.829 23.2508C181.889 23.3352 182.038 23.5 182.293 23.5V23ZM182.063 20.7H182.563C182.563 19.7069 182.587 19.1231 182.625 18.8962L182.132 18.814L181.639 18.7318C181.585 19.0569 181.563 19.7304 181.563 20.7H182.063ZM182.132 18.814L182.625 18.8962C182.647 18.7678 182.665 18.7049 182.673 18.6847C182.678 18.6724 182.668 18.7035 182.633 18.746C182.597 18.7883 182.485 18.9 182.293 18.9V18.4V17.9C182.071 17.9 181.928 18.0289 181.864 18.1058C181.8 18.1828 181.763 18.2656 181.741 18.3223C181.695 18.4401 181.663 18.5842 181.639 18.7318L182.132 18.814ZM182.293 18.4V18.9H184.248V18.4V17.9H182.293V18.4ZM184.248 18.4V18.9C184.458 18.9 184.664 18.846 184.847 18.724L184.57 18.308L184.293 17.892C184.292 17.8926 184.283 17.9 184.248 17.9V18.4ZM184.57 18.308L184.89 18.6921C185.081 18.5328 185.208 18.3061 185.208 18.032H184.708H184.208C184.208 18.0115 184.213 17.9844 184.226 17.9579C184.239 17.9329 184.252 17.9225 184.25 17.9239L184.57 18.308ZM184.708 18.032H185.208V14.375H184.708H184.208V18.032H184.708ZM184.708 14.375V14.875H188.963V14.375V13.875H184.708V14.375ZM188.963 14.375H188.463V18.285H188.963H189.463V14.375H188.963ZM187.583 24.38H187.083V27.715H187.583H188.083V24.38H187.583ZM187.583 27.715V27.215H180.683V27.715V28.215H187.583V27.715ZM180.683 27.715H181.183V24.38H180.683H180.183V27.715H180.683ZM180.683 24.38V24.88H187.583V24.38V23.88H180.683V24.38ZM190.92 8.28V7.78H190.42V8.28H190.92ZM195.29 8.28H195.79V7.78H195.29V8.28ZM195.29 23V23.5H195.79V23H195.29ZM190.92 23H190.42V23.5H190.92V23ZM190.92 8.28V8.78H195.29V8.28V7.78H190.92V8.28ZM195.29 8.28H194.79V23H195.29H195.79V8.28H195.29ZM195.29 23V22.5H190.92V23V23.5H195.29V23ZM190.92 23H191.42V8.28H190.92H190.42V23H190.92Z" fill="black" mask="url(#path-13-outside-1_8511_54)"/>
</svg>
