<svg width="142" height="47" viewBox="0 0 142 47" fill="none" xmlns="http://www.w3.org/2000/svg">
<rect x="0.5" y="1.5" width="141" height="24" rx="12" fill="#01B087" stroke="black"/>
<rect x="0.5" y="0.5" width="141" height="24" rx="12" fill="#01B087" stroke="white"/>
<path d="M13.0894 13.2995C12.9854 12.4502 12.9118 11.7395 12.8684 11.1675C12.8251 10.5869 12.8034 9.90653 12.8034 9.12653V7.41053H14.7664V9.12653C14.7664 9.90653 14.7448 10.5869 14.7014 11.1675C14.6581 11.7395 14.5844 12.4502 14.4804 13.2995H13.0894ZM13.7784 15.9645C13.4144 15.9645 13.1371 15.8822 12.9464 15.7175C12.7644 15.5442 12.6734 15.2755 12.6734 14.9115C12.6734 14.5562 12.7644 14.3049 12.9464 14.1575C13.1371 14.0015 13.4144 13.9235 13.7784 13.9235C14.1424 13.9235 14.4154 14.0015 14.5974 14.1575C14.7794 14.3049 14.8704 14.5562 14.8704 14.9115C14.8704 15.6135 14.5064 15.9645 13.7784 15.9645ZM15.2306 16.8355C15.7766 16.8355 16.1926 16.6969 16.4786 16.4195C16.7732 16.1509 16.9206 15.7565 16.9206 15.2365V11.1675H18.8446V13.1435C18.8446 13.3602 18.8966 13.5205 19.0006 13.6245C19.1046 13.7199 19.2692 13.7675 19.4946 13.7675H19.8196C19.9062 13.7675 19.9496 14.1055 19.9496 14.7815C19.9496 15.4402 19.9062 15.7695 19.8196 15.7695H19.5986C19.2606 15.7695 19.0049 15.6959 18.8316 15.5485C18.7882 16.1812 18.6192 16.7445 18.3246 17.2385C18.0386 17.7412 17.6356 18.1312 17.1156 18.4085C16.6042 18.6945 16.0019 18.8375 15.3086 18.8375H14.8146L14.6586 16.8355H15.2306ZM21.1939 13.7675C21.3759 13.7675 21.5189 13.7242 21.6229 13.6375C21.7269 13.5422 21.7789 13.4122 21.7789 13.2475V11.1675H23.6899V13.2085C23.6899 13.5812 23.8849 13.7675 24.2749 13.7675H24.6909C24.7776 13.7675 24.8209 14.1012 24.8209 14.7685C24.8209 15.4359 24.7776 15.7695 24.6909 15.7695H24.1839C23.4733 15.7695 22.9836 15.5789 22.7149 15.1975C22.5503 15.3969 22.3466 15.5442 22.1039 15.6395C21.8613 15.7262 21.5579 15.7695 21.1939 15.7695H19.8159C19.7293 15.7695 19.6859 15.4402 19.6859 14.7815C19.6859 14.1055 19.7293 13.7675 19.8159 13.7675H21.1939ZM20.1149 18.5645V16.9525H22.1169V18.5645H20.1149ZM28.3829 13.3385C28.3829 14.0925 28.1576 14.6862 27.7069 15.1195C27.2649 15.5529 26.6669 15.7695 25.9129 15.7695H24.6909C24.6043 15.7695 24.5609 15.4402 24.5609 14.7815C24.5609 14.1055 24.6043 13.7675 24.6909 13.7675H25.9129C26.0863 13.7675 26.2249 13.7199 26.3289 13.6245C26.4416 13.5292 26.4979 13.4035 26.4979 13.2475V11.1675H28.3829V13.3385ZM24.7299 18.5645V16.9525H26.7319V18.5645H24.7299ZM40.2781 13.2215C40.2781 13.5855 40.4731 13.7675 40.8631 13.7675H41.2531C41.3398 13.7675 41.3831 14.1055 41.3831 14.7815C41.3831 15.4402 41.3398 15.7695 41.2531 15.7695H40.9151C40.6205 15.7695 40.3995 15.7219 40.2521 15.6265C40.2088 16.2505 40.0268 16.8052 39.7061 17.2905C39.3941 17.7759 38.9695 18.1529 38.4321 18.4215C37.8948 18.6989 37.2795 18.8375 36.5861 18.8375H36.0401C34.9048 18.8375 34.0251 18.5082 33.4011 17.8495C32.7858 17.1995 32.4781 16.2939 32.4781 15.1325V12.4675H34.4021V15.0805C34.4021 15.6699 34.5365 16.1075 34.8051 16.3935C35.0738 16.6882 35.4941 16.8355 36.0661 16.8355H36.5861C37.1495 16.8355 37.5871 16.6969 37.8991 16.4195C38.2111 16.1422 38.3671 15.7479 38.3671 15.2365V11.1675H40.2781V13.2215ZM35.0001 11.1415V9.52953H37.0021V11.1415H35.0001ZM44.3783 13.7675C44.543 13.7675 44.6773 13.7199 44.7813 13.6245C44.894 13.5292 44.9503 13.4035 44.9503 13.2475V11.1675H46.8353V13.3385C46.8353 14.0925 46.61 14.6862 46.1593 15.1195C45.7173 15.5529 45.1193 15.7695 44.3653 15.7695H41.2583C41.1716 15.7695 41.1283 15.4402 41.1283 14.7815C41.1283 14.1055 41.1716 13.7675 41.2583 13.7675H44.3783ZM45.1323 16.9525V18.5645H41.3883V16.9525H45.1323ZM54.6003 13.7675C54.6869 13.7675 54.7303 14.1055 54.7303 14.7815C54.7303 15.4402 54.6869 15.7695 54.6003 15.7695H53.6513C53.5559 16.7315 53.2093 17.4812 52.6113 18.0185C52.0219 18.5645 51.2463 18.8375 50.2843 18.8375H48.4513L48.2953 16.8615H50.5053C50.9126 16.8615 51.2289 16.7619 51.4543 16.5625C51.6883 16.3719 51.8053 16.1075 51.8053 15.7695H51.0773C50.1153 15.7695 49.4263 15.5702 49.0103 15.1715C48.6029 14.7642 48.3993 14.1185 48.3993 13.2345C48.3993 12.6799 48.5076 12.1859 48.7243 11.7525C48.9496 11.3105 49.2616 10.9682 49.6603 10.7255C50.0676 10.4742 50.5313 10.3485 51.0513 10.3485C51.8746 10.3485 52.5203 10.6129 52.9883 11.1415C53.4563 11.6615 53.6903 12.3895 53.6903 13.3255V13.7675H54.6003ZM50.2713 13.1435C50.2713 13.3949 50.3319 13.5769 50.4533 13.6895C50.5833 13.7935 50.8043 13.8455 51.1163 13.8455H51.8313V13.2475C51.8313 12.9095 51.7576 12.6539 51.6103 12.4805C51.4716 12.3072 51.2723 12.2205 51.0123 12.2205C50.7696 12.2205 50.5833 12.3072 50.4533 12.4805C50.3319 12.6452 50.2713 12.8662 50.2713 13.1435ZM57.8901 13.7675C58.0981 13.7675 58.2584 13.7329 58.3711 13.6635C58.4837 13.5942 58.5401 13.4989 58.5401 13.3775C58.5401 13.2649 58.5097 13.1609 58.4491 13.0655C58.3971 12.9615 58.3104 12.8489 58.1891 12.7275L55.4851 10.0885V8.58053L60.5291 6.66953L61.0361 8.54153L57.9161 9.72453L59.6321 11.4405C59.9874 11.7872 60.2387 12.1295 60.3861 12.4675C60.5334 12.8055 60.6071 13.1695 60.6071 13.5595C60.6071 14.2442 60.3774 14.7859 59.9181 15.1845C59.4674 15.5745 58.8477 15.7695 58.0591 15.7695H54.6011C54.5144 15.7695 54.4711 15.4402 54.4711 14.7815C54.4711 14.1055 54.5144 13.7675 54.6011 13.7675H57.8901ZM71.453 13.7675C71.6264 13.7675 71.765 13.7242 71.869 13.6375C71.973 13.5509 72.025 13.4252 72.025 13.2605V11.1675H73.949V13.2085C73.949 13.5812 74.1397 13.7675 74.521 13.7675H74.937C75.0237 13.7675 75.067 14.1055 75.067 14.7815C75.067 15.4402 75.0237 15.7695 74.937 15.7695H74.43C73.7194 15.7695 73.2297 15.5789 72.961 15.1975C72.7964 15.3969 72.5927 15.5442 72.35 15.6395C72.116 15.7262 71.817 15.7695 71.453 15.7695H67.397C66.6084 15.7695 66.0017 15.5572 65.577 15.1325C65.1524 14.7079 64.94 14.1012 64.94 13.3125V11.1675H66.864V13.0525C66.864 13.2952 66.916 13.4772 67.02 13.5985C67.124 13.7112 67.2974 13.7675 67.54 13.7675H71.453ZM71.31 8.69753V10.3095H67.566V8.69753H71.31ZM76.317 13.7675C76.499 13.7675 76.642 13.7242 76.746 13.6375C76.85 13.5422 76.902 13.4122 76.902 13.2475V11.1675H78.813V13.2085C78.813 13.5812 79.008 13.7675 79.398 13.7675H79.814C79.9006 13.7675 79.944 14.1012 79.944 14.7685C79.944 15.4359 79.9006 15.7695 79.814 15.7695H79.307C78.5963 15.7695 78.1066 15.5789 77.838 15.1975C77.6733 15.3969 77.4696 15.5442 77.227 15.6395C76.9843 15.7262 76.681 15.7695 76.317 15.7695H74.939C74.8523 15.7695 74.809 15.4402 74.809 14.7815C74.809 14.1055 74.8523 13.7675 74.939 13.7675H76.317ZM77.669 16.9525V18.5645H73.925V16.9525H77.669ZM83.506 13.3385C83.506 14.0925 83.2806 14.6862 82.83 15.1195C82.388 15.5529 81.79 15.7695 81.036 15.7695H79.814C79.7273 15.7695 79.684 15.4402 79.684 14.7815C79.684 14.1055 79.7273 13.7675 79.814 13.7675H81.036C81.2093 13.7675 81.348 13.7199 81.452 13.6245C81.5646 13.5292 81.621 13.4035 81.621 13.2475V11.1675H83.506V13.3385ZM79.853 18.5645V16.9525H81.855V18.5645H79.853ZM88.7062 15.7695C88.3335 15.7695 88.0562 15.6742 87.8742 15.4835C87.6922 15.2929 87.6012 14.9505 87.6012 14.4565C87.6012 13.6765 87.6532 13.1089 87.7572 12.7535C87.8612 12.3895 88.0518 12.1339 88.3292 11.9865C88.6152 11.8305 89.0745 11.7092 89.7072 11.6225V12.7665C89.3605 12.8272 89.1222 12.8835 88.9922 12.9355C88.8622 12.9789 88.7755 13.0482 88.7322 13.1435C88.6975 13.2302 88.6802 13.3862 88.6802 13.6115C89.0615 13.6115 89.3432 13.6895 89.5252 13.8455C89.7072 13.9929 89.7982 14.2572 89.7982 14.6385C89.7982 15.3925 89.4342 15.7695 88.7062 15.7695ZM99.1082 13.2215C99.1082 13.5855 99.3032 13.7675 99.6932 13.7675H100.083C100.17 13.7675 100.213 14.1055 100.213 14.7815C100.213 15.4402 100.17 15.7695 100.083 15.7695H99.7452C99.4505 15.7695 99.2295 15.7219 99.0822 15.6265C99.0389 16.2505 98.8569 16.8052 98.5362 17.2905C98.2242 17.7759 97.7995 18.1529 97.2622 18.4215C96.7249 18.6989 96.1095 18.8375 95.4162 18.8375H94.8702C93.7349 18.8375 92.8552 18.5082 92.2312 17.8495C91.6159 17.1995 91.3082 16.2939 91.3082 15.1325V12.4675H93.2322V15.0805C93.2322 15.6699 93.3665 16.1075 93.6352 16.3935C93.9039 16.6882 94.3242 16.8355 94.8962 16.8355H95.4162C95.9795 16.8355 96.4172 16.6969 96.7292 16.4195C97.0412 16.1422 97.1972 15.7479 97.1972 15.2365V11.1675H99.1082V13.2215ZM93.8302 11.1415V9.52953H95.8322V11.1415H93.8302ZM103.377 13.7675C103.585 13.7675 103.746 13.7329 103.858 13.6635C103.971 13.5942 104.027 13.4989 104.027 13.3775C104.027 13.2649 103.997 13.1609 103.936 13.0655C103.884 12.9615 103.798 12.8489 103.676 12.7275L100.972 10.0885V8.58053L106.016 6.66953L106.523 8.54153L103.403 9.72453L105.119 11.4405C105.475 11.7872 105.726 12.1295 105.873 12.4675C106.021 12.8055 106.094 13.1695 106.094 13.5595C106.094 14.2442 105.865 14.7859 105.405 15.1845C104.955 15.5745 104.335 15.7695 103.546 15.7695H100.088C100.002 15.7695 99.9584 15.4402 99.9584 14.7815C99.9584 14.1055 100.002 13.7675 100.088 13.7675H103.377ZM116.771 15.7825C116.771 15.4792 116.589 15.3275 116.225 15.3275H113.742V12.7015C113.742 11.9042 113.972 11.2629 114.431 10.7775C114.899 10.2922 115.528 10.0495 116.316 10.0495H118.201L118.318 11.9865H116.342C116.143 11.9865 115.978 12.0515 115.848 12.1815C115.718 12.3029 115.653 12.4719 115.653 12.6885V13.3515H116.537C117.291 13.3515 117.837 13.5422 118.175 13.9235C118.513 14.3049 118.682 14.8509 118.682 15.5615C118.682 16.1595 118.522 16.7055 118.201 17.1995C117.889 17.7022 117.452 18.1009 116.888 18.3955C116.325 18.6902 115.692 18.8375 114.99 18.8375H113.989C112.854 18.8375 111.974 18.5082 111.35 17.8495C110.735 17.1995 110.427 16.2939 110.427 15.1325V12.4675H112.351V15.0805C112.351 15.6699 112.486 16.1075 112.754 16.3935C113.023 16.6882 113.443 16.8355 114.015 16.8355H115.042C115.614 16.8355 116.043 16.7402 116.329 16.5495C116.624 16.3589 116.771 16.1032 116.771 15.7825ZM123.175 15.2105C123.175 15.9212 123.027 16.5495 122.733 17.0955C122.447 17.6502 122.035 18.0792 121.498 18.3825C120.969 18.6859 120.349 18.8375 119.639 18.8375H119.145L118.989 16.8355H119.561C120.107 16.8355 120.523 16.6969 120.809 16.4195C121.103 16.1509 121.251 15.7565 121.251 15.2365V11.1675H123.175V15.2105ZM121.173 9.99753V8.38553H123.175V9.99753H121.173ZM127.635 13.7675C127.679 13.7675 127.709 13.8282 127.726 13.9495C127.752 14.0709 127.765 14.3482 127.765 14.7815C127.765 15.1975 127.752 15.4662 127.726 15.5875C127.709 15.7089 127.679 15.7695 127.635 15.7695H127.115C126.353 15.7695 125.772 15.5529 125.373 15.1195C124.983 14.6862 124.788 14.0665 124.788 13.2605V7.41053H126.712V13.1175C126.712 13.3429 126.756 13.5075 126.842 13.6115C126.929 13.7155 127.068 13.7675 127.258 13.7675H127.635ZM131.329 13.3385C131.329 14.0925 131.104 14.6862 130.653 15.1195C130.211 15.5529 129.613 15.7695 128.859 15.7695H127.637C127.551 15.7695 127.507 15.4402 127.507 14.7815C127.507 14.1055 127.551 13.7675 127.637 13.7675H128.859C129.033 13.7675 129.171 13.7199 129.275 13.6245C129.388 13.5292 129.444 13.4035 129.444 13.2475V11.1675H131.329V13.3385ZM127.676 18.5645V16.9525H129.678V18.5645H127.676Z" fill="#001711"/>
<path d="M12.0894 12.2995C11.9854 11.4502 11.9118 10.7395 11.8684 10.1675C11.8251 9.58686 11.8034 8.90653 11.8034 8.12653V6.41053H13.7664V8.12653C13.7664 8.90653 13.7448 9.58686 13.7014 10.1675C13.6581 10.7395 13.5844 11.4502 13.4804 12.2995H12.0894ZM12.7784 14.9645C12.4144 14.9645 12.1371 14.8822 11.9464 14.7175C11.7644 14.5442 11.6734 14.2755 11.6734 13.9115C11.6734 13.5562 11.7644 13.3049 11.9464 13.1575C12.1371 13.0015 12.4144 12.9235 12.7784 12.9235C13.1424 12.9235 13.4154 13.0015 13.5974 13.1575C13.7794 13.3049 13.8704 13.5562 13.8704 13.9115C13.8704 14.6135 13.5064 14.9645 12.7784 14.9645ZM14.2306 15.8355C14.7766 15.8355 15.1926 15.6969 15.4786 15.4195C15.7732 15.1509 15.9206 14.7565 15.9206 14.2365V10.1675H17.8446V12.1435C17.8446 12.3602 17.8966 12.5205 18.0006 12.6245C18.1046 12.7199 18.2692 12.7675 18.4946 12.7675H18.8196C18.9062 12.7675 18.9496 13.1055 18.9496 13.7815C18.9496 14.4402 18.9062 14.7695 18.8196 14.7695H18.5986C18.2606 14.7695 18.0049 14.6959 17.8316 14.5485C17.7882 15.1812 17.6192 15.7445 17.3246 16.2385C17.0386 16.7412 16.6356 17.1312 16.1156 17.4085C15.6042 17.6945 15.0019 17.8375 14.3086 17.8375H13.8146L13.6586 15.8355H14.2306ZM20.1939 12.7675C20.3759 12.7675 20.5189 12.7242 20.6229 12.6375C20.7269 12.5422 20.7789 12.4122 20.7789 12.2475V10.1675H22.6899V12.2085C22.6899 12.5812 22.8849 12.7675 23.2749 12.7675H23.6909C23.7776 12.7675 23.8209 13.1012 23.8209 13.7685C23.8209 14.4359 23.7776 14.7695 23.6909 14.7695H23.1839C22.4733 14.7695 21.9836 14.5789 21.7149 14.1975C21.5503 14.3969 21.3466 14.5442 21.1039 14.6395C20.8613 14.7262 20.5579 14.7695 20.1939 14.7695H18.8159C18.7293 14.7695 18.6859 14.4402 18.6859 13.7815C18.6859 13.1055 18.7293 12.7675 18.8159 12.7675H20.1939ZM19.1149 17.5645V15.9525H21.1169V17.5645H19.1149ZM27.3829 12.3385C27.3829 13.0925 27.1576 13.6862 26.7069 14.1195C26.2649 14.5529 25.6669 14.7695 24.9129 14.7695H23.6909C23.6043 14.7695 23.5609 14.4402 23.5609 13.7815C23.5609 13.1055 23.6043 12.7675 23.6909 12.7675H24.9129C25.0863 12.7675 25.2249 12.7199 25.3289 12.6245C25.4416 12.5292 25.4979 12.4035 25.4979 12.2475V10.1675H27.3829V12.3385ZM23.7299 17.5645V15.9525H25.7319V17.5645H23.7299ZM39.2781 12.2215C39.2781 12.5855 39.4731 12.7675 39.8631 12.7675H40.2531C40.3398 12.7675 40.3831 13.1055 40.3831 13.7815C40.3831 14.4402 40.3398 14.7695 40.2531 14.7695H39.9151C39.6205 14.7695 39.3995 14.7219 39.2521 14.6265C39.2088 15.2505 39.0268 15.8052 38.7061 16.2905C38.3941 16.7759 37.9695 17.1529 37.4321 17.4215C36.8948 17.6989 36.2795 17.8375 35.5861 17.8375H35.0401C33.9048 17.8375 33.0251 17.5082 32.4011 16.8495C31.7858 16.1995 31.4781 15.2939 31.4781 14.1325V11.4675H33.4021V14.0805C33.4021 14.6699 33.5365 15.1075 33.8051 15.3935C34.0738 15.6882 34.4941 15.8355 35.0661 15.8355H35.5861C36.1495 15.8355 36.5871 15.6969 36.8991 15.4195C37.2111 15.1422 37.3671 14.7479 37.3671 14.2365V10.1675H39.2781V12.2215ZM34.0001 10.1415V8.52953H36.0021V10.1415H34.0001ZM43.3783 12.7675C43.543 12.7675 43.6773 12.7199 43.7813 12.6245C43.894 12.5292 43.9503 12.4035 43.9503 12.2475V10.1675H45.8353V12.3385C45.8353 13.0925 45.61 13.6862 45.1593 14.1195C44.7173 14.5529 44.1193 14.7695 43.3653 14.7695H40.2583C40.1716 14.7695 40.1283 14.4402 40.1283 13.7815C40.1283 13.1055 40.1716 12.7675 40.2583 12.7675H43.3783ZM44.1323 15.9525V17.5645H40.3883V15.9525H44.1323ZM53.6003 12.7675C53.6869 12.7675 53.7303 13.1055 53.7303 13.7815C53.7303 14.4402 53.6869 14.7695 53.6003 14.7695H52.6513C52.5559 15.7315 52.2093 16.4812 51.6113 17.0185C51.0219 17.5645 50.2463 17.8375 49.2843 17.8375H47.4513L47.2953 15.8615H49.5053C49.9126 15.8615 50.2289 15.7619 50.4543 15.5625C50.6883 15.3719 50.8053 15.1075 50.8053 14.7695H50.0773C49.1153 14.7695 48.4263 14.5702 48.0103 14.1715C47.6029 13.7642 47.3993 13.1185 47.3993 12.2345C47.3993 11.6799 47.5076 11.1859 47.7243 10.7525C47.9496 10.3105 48.2616 9.9682 48.6603 9.72553C49.0676 9.4742 49.5313 9.34853 50.0513 9.34853C50.8746 9.34853 51.5203 9.61286 51.9883 10.1415C52.4563 10.6615 52.6903 11.3895 52.6903 12.3255V12.7675H53.6003ZM49.2713 12.1435C49.2713 12.3949 49.3319 12.5769 49.4533 12.6895C49.5833 12.7935 49.8043 12.8455 50.1163 12.8455H50.8313V12.2475C50.8313 11.9095 50.7576 11.6539 50.6103 11.4805C50.4716 11.3072 50.2723 11.2205 50.0123 11.2205C49.7696 11.2205 49.5833 11.3072 49.4533 11.4805C49.3319 11.6452 49.2713 11.8662 49.2713 12.1435ZM56.8901 12.7675C57.0981 12.7675 57.2584 12.7329 57.3711 12.6635C57.4837 12.5942 57.5401 12.4989 57.5401 12.3775C57.5401 12.2649 57.5097 12.1609 57.4491 12.0655C57.3971 11.9615 57.3104 11.8489 57.1891 11.7275L54.4851 9.08853V7.58053L59.5291 5.66953L60.0361 7.54153L56.9161 8.72453L58.6321 10.4405C58.9874 10.7872 59.2387 11.1295 59.3861 11.4675C59.5334 11.8055 59.6071 12.1695 59.6071 12.5595C59.6071 13.2442 59.3774 13.7859 58.9181 14.1845C58.4674 14.5745 57.8477 14.7695 57.0591 14.7695H53.6011C53.5144 14.7695 53.4711 14.4402 53.4711 13.7815C53.4711 13.1055 53.5144 12.7675 53.6011 12.7675H56.8901ZM70.453 12.7675C70.6264 12.7675 70.765 12.7242 70.869 12.6375C70.973 12.5509 71.025 12.4252 71.025 12.2605V10.1675H72.949V12.2085C72.949 12.5812 73.1397 12.7675 73.521 12.7675H73.937C74.0237 12.7675 74.067 13.1055 74.067 13.7815C74.067 14.4402 74.0237 14.7695 73.937 14.7695H73.43C72.7194 14.7695 72.2297 14.5789 71.961 14.1975C71.7964 14.3969 71.5927 14.5442 71.35 14.6395C71.116 14.7262 70.817 14.7695 70.453 14.7695H66.397C65.6084 14.7695 65.0017 14.5572 64.577 14.1325C64.1524 13.7079 63.94 13.1012 63.94 12.3125V10.1675H65.864V12.0525C65.864 12.2952 65.916 12.4772 66.02 12.5985C66.124 12.7112 66.2974 12.7675 66.54 12.7675H70.453ZM70.31 7.69753V9.30953H66.566V7.69753H70.31ZM75.317 12.7675C75.499 12.7675 75.642 12.7242 75.746 12.6375C75.85 12.5422 75.902 12.4122 75.902 12.2475V10.1675H77.813V12.2085C77.813 12.5812 78.008 12.7675 78.398 12.7675H78.814C78.9006 12.7675 78.944 13.1012 78.944 13.7685C78.944 14.4359 78.9006 14.7695 78.814 14.7695H78.307C77.5963 14.7695 77.1066 14.5789 76.838 14.1975C76.6733 14.3969 76.4696 14.5442 76.227 14.6395C75.9843 14.7262 75.681 14.7695 75.317 14.7695H73.939C73.8523 14.7695 73.809 14.4402 73.809 13.7815C73.809 13.1055 73.8523 12.7675 73.939 12.7675H75.317ZM76.669 15.9525V17.5645H72.925V15.9525H76.669ZM82.506 12.3385C82.506 13.0925 82.2806 13.6862 81.83 14.1195C81.388 14.5529 80.79 14.7695 80.036 14.7695H78.814C78.7273 14.7695 78.684 14.4402 78.684 13.7815C78.684 13.1055 78.7273 12.7675 78.814 12.7675H80.036C80.2093 12.7675 80.348 12.7199 80.452 12.6245C80.5646 12.5292 80.621 12.4035 80.621 12.2475V10.1675H82.506V12.3385ZM78.853 17.5645V15.9525H80.855V17.5645H78.853ZM87.7062 14.7695C87.3335 14.7695 87.0562 14.6742 86.8742 14.4835C86.6922 14.2929 86.6012 13.9505 86.6012 13.4565C86.6012 12.6765 86.6532 12.1089 86.7572 11.7535C86.8612 11.3895 87.0518 11.1339 87.3292 10.9865C87.6152 10.8305 88.0745 10.7092 88.7072 10.6225V11.7665C88.3605 11.8272 88.1222 11.8835 87.9922 11.9355C87.8622 11.9789 87.7755 12.0482 87.7322 12.1435C87.6975 12.2302 87.6802 12.3862 87.6802 12.6115C88.0615 12.6115 88.3432 12.6895 88.5252 12.8455C88.7072 12.9929 88.7982 13.2572 88.7982 13.6385C88.7982 14.3925 88.4342 14.7695 87.7062 14.7695ZM98.1082 12.2215C98.1082 12.5855 98.3032 12.7675 98.6932 12.7675H99.0832C99.1699 12.7675 99.2132 13.1055 99.2132 13.7815C99.2132 14.4402 99.1699 14.7695 99.0832 14.7695H98.7452C98.4505 14.7695 98.2295 14.7219 98.0822 14.6265C98.0389 15.2505 97.8569 15.8052 97.5362 16.2905C97.2242 16.7759 96.7995 17.1529 96.2622 17.4215C95.7249 17.6989 95.1095 17.8375 94.4162 17.8375H93.8702C92.7349 17.8375 91.8552 17.5082 91.2312 16.8495C90.6159 16.1995 90.3082 15.2939 90.3082 14.1325V11.4675H92.2322V14.0805C92.2322 14.6699 92.3665 15.1075 92.6352 15.3935C92.9039 15.6882 93.3242 15.8355 93.8962 15.8355H94.4162C94.9795 15.8355 95.4172 15.6969 95.7292 15.4195C96.0412 15.1422 96.1972 14.7479 96.1972 14.2365V10.1675H98.1082V12.2215ZM92.8302 10.1415V8.52953H94.8322V10.1415H92.8302ZM102.377 12.7675C102.585 12.7675 102.746 12.7329 102.858 12.6635C102.971 12.5942 103.027 12.4989 103.027 12.3775C103.027 12.2649 102.997 12.1609 102.936 12.0655C102.884 11.9615 102.798 11.8489 102.676 11.7275L99.9724 9.08853V7.58053L105.016 5.66953L105.523 7.54153L102.403 8.72453L104.119 10.4405C104.475 10.7872 104.726 11.1295 104.873 11.4675C105.021 11.8055 105.094 12.1695 105.094 12.5595C105.094 13.2442 104.865 13.7859 104.405 14.1845C103.955 14.5745 103.335 14.7695 102.546 14.7695H99.0884C99.0017 14.7695 98.9584 14.4402 98.9584 13.7815C98.9584 13.1055 99.0017 12.7675 99.0884 12.7675H102.377ZM115.771 14.7825C115.771 14.4792 115.589 14.3275 115.225 14.3275H112.742V11.7015C112.742 10.9042 112.972 10.2629 113.431 9.77753C113.899 9.2922 114.528 9.04953 115.316 9.04953H117.201L117.318 10.9865H115.342C115.143 10.9865 114.978 11.0515 114.848 11.1815C114.718 11.3029 114.653 11.4719 114.653 11.6885V12.3515H115.537C116.291 12.3515 116.837 12.5422 117.175 12.9235C117.513 13.3049 117.682 13.8509 117.682 14.5615C117.682 15.1595 117.522 15.7055 117.201 16.1995C116.889 16.7022 116.452 17.1009 115.888 17.3955C115.325 17.6902 114.692 17.8375 113.99 17.8375H112.989C111.854 17.8375 110.974 17.5082 110.35 16.8495C109.735 16.1995 109.427 15.2939 109.427 14.1325V11.4675H111.351V14.0805C111.351 14.6699 111.486 15.1075 111.754 15.3935C112.023 15.6882 112.443 15.8355 113.015 15.8355H114.042C114.614 15.8355 115.043 15.7402 115.329 15.5495C115.624 15.3589 115.771 15.1032 115.771 14.7825ZM122.175 14.2105C122.175 14.9212 122.027 15.5495 121.733 16.0955C121.447 16.6502 121.035 17.0792 120.498 17.3825C119.969 17.6859 119.349 17.8375 118.639 17.8375H118.145L117.989 15.8355H118.561C119.107 15.8355 119.523 15.6969 119.809 15.4195C120.103 15.1509 120.251 14.7565 120.251 14.2365V10.1675H122.175V14.2105ZM120.173 8.99753V7.38553H122.175V8.99753H120.173ZM126.635 12.7675C126.679 12.7675 126.709 12.8282 126.726 12.9495C126.752 13.0709 126.765 13.3482 126.765 13.7815C126.765 14.1975 126.752 14.4662 126.726 14.5875C126.709 14.7089 126.679 14.7695 126.635 14.7695H126.115C125.353 14.7695 124.772 14.5529 124.373 14.1195C123.983 13.6862 123.788 13.0665 123.788 12.2605V6.41053H125.712V12.1175C125.712 12.3429 125.756 12.5075 125.842 12.6115C125.929 12.7155 126.068 12.7675 126.258 12.7675H126.635ZM130.329 12.3385C130.329 13.0925 130.104 13.6862 129.653 14.1195C129.211 14.5529 128.613 14.7695 127.859 14.7695H126.637C126.551 14.7695 126.507 14.4402 126.507 13.7815C126.507 13.1055 126.551 12.7675 126.637 12.7675H127.859C128.033 12.7675 128.171 12.7199 128.275 12.6245C128.388 12.5292 128.444 12.4035 128.444 12.2475V10.1675H130.329V12.3385ZM126.676 17.5645V15.9525H128.678V17.5645H126.676Z" fill="white"/>
<path d="M134.431 39.8237L132.639 38.0341C132.464 37.8687 132.181 37.8785 132.035 38.073C130.292 40.3587 127.389 41.8565 124.117 41.8565C120.844 41.8565 117.942 40.3587 116.198 38.073C116.052 37.8785 115.77 37.8687 115.595 38.0341L113.802 39.8237C113.559 40.0669 113.539 40.4559 113.754 40.7185C116.218 43.7045 119.938 45.6011 124.107 45.6011H124.117C128.285 45.6011 132.016 43.6948 134.47 40.7185C134.694 40.4559 134.665 40.0669 134.421 39.8237" fill="white"/>
<path d="M107.743 39.209H105.941C105.863 39.209 105.795 39.2382 105.747 39.2868L105.269 39.7634C105.221 39.812 105.191 39.8898 105.191 39.9579V40.24C105.191 40.3761 105.299 40.4831 105.435 40.4831H107.996C108.211 40.4831 108.376 40.6485 108.376 40.8624V42.6423C108.376 42.8563 108.201 43.0217 107.996 43.0217H105.445C105.308 43.0217 105.191 43.1384 105.191 43.2746V44.0429C105.191 44.1791 105.308 44.2958 105.445 44.2958H107.753C108.805 44.2958 109.662 43.4399 109.662 42.3895V41.1153C109.662 40.0649 108.805 39.209 107.753 39.209" fill="white"/>
<path d="M77.7501 42.2352C77.7891 42.3324 77.8865 42.4005 77.9936 42.4005H78.7825C78.9578 42.4005 79.0844 42.2254 79.026 42.0601L77.7501 38.7337C77.7111 38.6364 77.6138 38.5684 77.5066 38.5684H76.7177C76.5424 38.5684 76.4255 38.7434 76.484 38.9088L77.7501 42.2449V42.2352Z" fill="white"/>
<path d="M99.8351 44.9492H99.0365C98.9001 44.9492 98.793 45.0562 98.793 45.1924V45.9899C98.793 46.1261 98.9001 46.2331 99.0365 46.2331H99.8351C99.9715 46.2331 100.079 46.1261 100.079 45.9899V45.1924C100.079 45.0562 99.9715 44.9492 99.8351 44.9492Z" fill="white"/>
<path d="M104.289 44.9492H102.234C102.097 44.9492 101.98 45.0659 101.98 45.2021V45.9802C101.98 46.1164 102.097 46.2331 102.234 46.2331H104.289C104.425 46.2331 104.542 46.1164 104.542 45.9802V45.2021C104.542 45.0659 104.425 44.9492 104.289 44.9492Z" fill="white"/>
<path d="M87.9612 39.209H87.4352L89.1786 37.5459C89.2663 37.4486 89.1981 37.293 89.0715 37.293H87.7761C87.6787 37.293 87.5813 37.3319 87.5034 37.4L84.8153 40.0455C84.6594 40.2011 84.7666 40.4734 84.9906 40.4734H87.9612C88.3021 40.4734 88.5845 40.7652 88.5845 41.1154V43.0315H83.8413C83.6368 43.0315 83.4615 42.8564 83.4615 42.6521V38.82C83.4615 38.6838 83.3446 38.5671 83.2082 38.5671H82.4485C82.3122 38.5671 82.1953 38.6838 82.1953 38.82V42.4965C82.244 43.4983 83.0719 44.2861 84.0848 44.2861H89.578C89.7143 44.2861 89.8312 44.1791 89.8312 44.043V41.0668C89.7922 40.0552 88.9644 39.209 87.9417 39.209H87.9612Z" fill="white"/>
<path d="M81.3327 38.5683H80.573C80.4367 38.5683 80.3198 38.685 80.3198 38.8212V42.6728C80.3198 42.877 80.1542 43.0521 79.94 43.0521H77.2323C77.1544 43.0521 77.0862 43.0813 77.0375 43.1299L76.5506 43.5968C76.5019 43.6454 76.4727 43.7232 76.4727 43.7913V44.0734C76.4727 44.2095 76.5798 44.3165 76.7161 44.3165H79.6867C80.6997 44.3165 81.5178 43.519 81.5762 42.5269V38.8115C81.5762 38.6753 81.4691 38.5586 81.3327 38.5586" fill="white"/>
<path d="M104.531 42.4867V40.736C104.531 40.5998 104.424 40.4831 104.278 40.4831H103.508C103.372 40.4831 103.255 40.5998 103.255 40.736V42.6423C103.255 42.8563 103.08 43.0217 102.875 43.0217H100.06V41.1153C100.06 39.8898 99.1741 39.209 98.1417 39.209H96.3398C96.2619 39.209 96.1937 39.2382 96.145 39.2868L95.6678 39.7634C95.6191 39.812 95.5899 39.8898 95.5899 39.9579V40.24C95.5899 40.3761 95.697 40.4831 95.8334 40.4831H98.3949C98.6092 40.4831 98.7747 40.6485 98.7747 40.8624V43.0217L94.5575 43.0314C94.4211 43.0314 94.3042 43.1481 94.3042 43.2843V44.0527C94.3042 44.1888 94.4211 44.3055 94.5575 44.3055H95.5801V44.5681C95.5801 44.7821 95.4048 44.9475 95.2003 44.9475H92.0933C91.9083 44.9475 91.7525 44.7918 91.7525 44.5973V42.0101C91.7525 41.874 91.6356 41.7573 91.4992 41.7573H90.7298C90.5934 41.7573 90.4766 41.874 90.4766 42.0101V44.3153C90.4766 45.5894 91.1194 46.2216 92.3953 46.2216H94.9763C96.1061 46.2216 96.8658 45.5019 96.8658 44.3055H99.8071C99.9435 44.3055 100.06 44.1888 100.06 44.0527V43.6539L100.616 44.2277C100.664 44.2764 100.723 44.3055 100.791 44.3055H102.602C103.625 44.3055 104.463 43.4885 104.511 42.4867" fill="white"/>
<path d="M52.5077 41.9922H49.8098L52.5077 38.1406H55.2056L52.5077 41.9922ZM60.6013 41.9922H57.9035L55.2056 45.8438H57.9035L60.6013 41.9922ZM63.2992 45.8341H65.9971L63.2992 41.9825H60.6013L63.2992 45.8341ZM49.8098 41.9922H47.1119L44.4141 45.8438H47.1119L49.8098 41.9922ZM53.8615 43.9083H51.1636L52.5174 45.8341H55.2153L53.8615 43.9083ZM61.9552 40.0664H64.6628L66.0068 38.1406H63.309L61.9552 40.0664ZM47.1119 38.1406H44.4141L46.4399 41.0293H49.1378L47.1119 38.1406ZM57.9035 38.1406H55.2056L57.2314 41.0293H59.9293L57.9035 38.1406Z" fill="white"/>
<path d="M37.4137 39.5412V40.9418C37.4137 41.2141 37.3553 41.4865 37.2579 41.7491C37.1507 42.0019 36.9949 42.2354 36.8001 42.4299C36.6053 42.6244 36.3716 42.78 36.1183 42.887C35.8651 42.994 35.5924 43.0426 35.3099 43.0426H33.9074C33.3912 43.0426 32.8945 42.8481 32.5049 42.5077C32.1251 42.8579 31.6186 43.0426 31.1024 43.0426H26.9046C26.3495 43.0426 25.8138 42.8189 25.4145 42.4299C25.2197 42.2354 25.0638 42.0019 24.9567 41.7491C24.8496 41.4962 24.8009 41.2238 24.8009 40.9418L26.7585 38.1406H28.9987V39.5412H26.1936V40.9418C26.1936 41.3308 26.5053 41.6421 26.8949 41.6421H31.0927C31.2777 41.6421 31.4531 41.5643 31.5894 41.4378C31.716 41.3114 31.7939 41.1266 31.7939 40.9418V39.5412H33.1964V40.9418C33.1964 41.3308 33.5081 41.6421 33.8977 41.6421H35.3002C35.4853 41.6421 35.6606 41.5643 35.7969 41.4378C35.9235 41.3114 36.0015 41.1266 36.0015 40.9418V39.5412H37.404H37.4137ZM40.209 38.8409V40.9418C40.209 41.3308 39.8973 41.6421 39.5077 41.6421H37.404L38.3877 43.0426H39.5077C40.6667 43.0426 41.6115 42.0992 41.6115 40.9418V38.8409H40.209ZM17.8078 39.5412V40.9418C17.8078 41.3308 17.4961 41.6421 17.1066 41.6421H15.7041C15.3145 41.6421 15.0028 41.3308 15.0028 40.9418V39.5412H13.6003V42.3424C13.6003 42.7314 13.2886 43.0426 12.899 43.0426H10.094C9.70444 43.0426 9.39277 42.7314 9.39277 42.3424V39.5412H11.4965V38.1406H9.95767L8 40.9418V42.3424C8 43.4998 8.94475 44.4432 10.1038 44.4432H12.9088C13.8535 44.4432 14.6814 43.811 14.9346 42.8968C15.1781 42.994 15.4411 43.0426 15.7041 43.0426H17.1066C17.3793 43.0426 17.652 42.9843 17.915 42.887C18.1682 42.78 18.4019 42.6244 18.5967 42.4299C18.7915 42.2354 18.9474 42.0019 19.0545 41.7491C19.1616 41.4962 19.2103 41.2238 19.2103 40.9418V39.5412H17.8176H17.8078ZM15.0028 43.7332V45.1338H17.8078V43.7332H15.0028ZM33.2062 43.7332V45.1338H36.0112V43.7332H33.2062ZM38.8065 43.7332V45.1338H40.9102V43.7332H38.8065ZM20.6031 43.7332V45.1338H22.0056V45.8341H23.4081V43.7332H20.6031ZM22.0056 38.8409V40.9418C22.0056 41.3308 21.6939 41.6421 21.3043 41.6421H19.2006L20.1843 43.0426H21.3043C21.5771 43.0426 21.8498 42.9843 22.1127 42.887C22.366 42.78 22.5997 42.6244 22.7945 42.4299C22.9893 42.2354 23.1451 42.0019 23.2523 41.7491C23.3594 41.4962 23.4081 41.2238 23.4081 40.9418V38.8409H22.0056Z" fill="white"/>
<path d="M70.9375 38.5684V45.6004" stroke="white" stroke-width="0.5" stroke-miterlimit="10"/>
</svg>
