<svg width="32" height="32" viewBox="0 0 32 32" fill="none" xmlns="http://www.w3.org/2000/svg">
<path d="M4.38609 25.375L0.746094 30.925L6.2961 27.285L4.38609 25.375Z" fill="#242927" stroke="#616262" stroke-width="0.47" stroke-linejoin="round"/>
<path d="M13.3678 18.3043C15.8978 20.8343 17.3778 23.8043 17.5478 26.2443L18.7578 27.4543L16.4578 29.7543L16.4278 29.7843C14.0978 32.1143 8.95783 30.7343 4.93783 26.7243C0.917831 22.7043 -0.452167 17.5643 1.87783 15.2343C1.88783 15.2243 1.89783 15.2143 1.90783 15.2043L4.20783 12.9043L5.41783 14.1143C7.85783 14.2843 10.8278 15.7643 13.3578 18.2943" fill="#00D890"/>
<path d="M17.5465 26.2552L17.3165 26.2752C17.3165 26.3352 17.3465 26.3852 17.3865 26.4252L17.5565 26.2552H17.5465ZM18.7665 27.4652L18.9365 27.6352C19.0265 27.5452 19.0265 27.3952 18.9365 27.3052L18.7665 27.4752V27.4652ZM16.4665 29.7652L16.2965 29.9352C16.3865 30.0252 16.5365 30.0252 16.6265 29.9352L16.4565 29.7652H16.4665ZM16.4665 29.7652L16.6365 29.5952C16.5465 29.5052 16.3965 29.5052 16.3065 29.5952L16.4765 29.7552L16.4665 29.7652ZM1.9165 15.2152L2.0765 15.3852C2.1665 15.2952 2.1665 15.1452 2.0765 15.0552L1.9065 15.2252L1.9165 15.2152ZM1.9165 15.2152L1.7465 15.0452C1.6565 15.1352 1.6565 15.2852 1.7465 15.3752L1.9165 15.2052V15.2152ZM4.2065 12.9152L4.3765 12.7452C4.2865 12.6552 4.1365 12.6552 4.0465 12.7452L4.2165 12.9152H4.2065ZM5.4265 14.1352L5.25649 14.3052C5.25649 14.3052 5.3465 14.3652 5.4065 14.3752L5.4265 14.1452V14.1352ZM13.3665 18.3052L13.1965 18.4752C15.6965 20.9752 17.1465 23.9052 17.3065 26.2652L17.5365 26.2452L17.7665 26.2252C17.5965 23.7152 16.0765 20.6852 13.5165 18.1352L13.3465 18.3052H13.3665ZM17.5465 26.2552L17.3765 26.4252L18.5865 27.6352L18.7565 27.4652L18.9265 27.2952L17.7165 26.0852L17.5465 26.2552ZM18.7665 27.4652L18.5965 27.2952L16.2965 29.5952L16.4665 29.7652L16.6365 29.9352L18.9365 27.6352L18.7665 27.4652ZM16.4665 29.7652L16.2965 29.6052L16.2665 29.6352L16.4365 29.8052L16.6065 29.9752L16.6365 29.9352L16.4665 29.7752V29.7652ZM16.4265 29.7952L16.2565 29.6252C15.1765 30.7052 13.4165 30.9552 11.3765 30.4152C9.3465 29.8752 7.0865 28.5552 5.1065 26.5652L4.9365 26.7352L4.7665 26.9052C6.7965 28.9352 9.1265 30.3152 11.2465 30.8752C13.3665 31.4452 15.3365 31.2152 16.5865 29.9652L16.4165 29.7952H16.4265ZM4.94649 26.7352L5.11649 26.5652C3.12649 24.5752 1.8065 22.3252 1.2665 20.2952C0.726501 18.2552 0.976494 16.4952 2.05649 15.4152L1.8865 15.2452L1.7165 15.0752C0.466498 16.3252 0.246494 18.2952 0.806494 20.4152C1.37649 22.5452 2.7465 24.8652 4.7765 26.8952L4.94649 26.7252V26.7352ZM1.8765 15.2452L2.0465 15.4152L2.0765 15.3852L1.9165 15.2152L1.75649 15.0452L1.7165 15.0752L1.8865 15.2452H1.8765ZM1.9165 15.2152L2.08649 15.3852L4.3865 13.0852L4.2165 12.9152L4.0465 12.7452L1.7465 15.0452L1.9165 15.2152ZM4.2065 12.9152L4.03651 13.0852L5.2465 14.2952L5.41649 14.1252L5.58649 13.9552L4.3765 12.7452L4.2065 12.9152ZM5.4265 14.1352L5.4065 14.3652C7.7765 14.5252 10.6965 15.9752 13.1965 18.4752L13.3665 18.3052L13.5365 18.1352C10.9765 15.5752 7.95649 14.0652 5.44649 13.8852L5.4265 14.1252V14.1352Z" fill="#006A49"/>
<path d="M18.7666 27.4707C21.0941 25.1432 19.7233 19.9987 15.7048 15.9802C11.6863 11.9617 6.54189 10.5909 4.21436 12.9185C1.88684 15.246 3.25763 20.3904 7.27613 24.4089C11.2946 28.4274 16.4391 29.7982 18.7666 27.4707Z" fill="#A0FFCB"/>
<path d="M15.6958 15.9747C18.1658 18.4447 19.6358 21.3347 19.8658 23.7447C19.2658 21.7447 17.9558 19.5647 16.0358 17.6447C12.0158 13.6247 6.87583 12.2547 4.54583 14.5847C3.64583 15.4847 3.30583 16.7947 3.44583 18.3047C2.79583 16.1147 2.99583 14.1347 4.21583 12.9147C6.54583 10.5847 11.6858 11.9647 15.7058 15.9747" fill="#FAFEFD"/>
<path d="M18.7666 27.4707C21.0941 25.1432 19.7233 19.9987 15.7048 15.9802C11.6863 11.9617 6.54189 10.5909 4.21436 12.9185C1.88684 15.246 3.25763 20.3904 7.27613 24.4089C11.2946 28.4274 16.4391 29.7982 18.7666 27.4707Z" stroke="#006A49" stroke-width="0.47" stroke-linejoin="round"/>
<path d="M16.0674 22.485C16.0174 22.545 15.9673 22.595 15.9173 22.655C14.6473 23.925 12.0774 23.405 10.1774 21.505C8.27735 19.605 7.75734 17.035 9.02734 15.765C9.07734 15.715 9.13734 15.665 9.19734 15.615L23.1973 3.125L28.5573 8.485L16.0674 22.485Z" fill="#00D890"/>
<path d="M28.1956 8.885L25.8756 6.565L12.0856 19.585C11.3756 20.295 11.2256 21.405 11.5556 22.585C11.0456 22.285 10.5856 21.915 10.1656 21.505C8.26562 19.605 7.74563 17.035 9.01563 15.765C9.06563 15.715 9.12563 15.665 9.18563 15.615L23.1856 3.125L28.5456 8.485L28.1856 8.885H28.1956Z" fill="#A0FFCB"/>
<path d="M24.3474 4.27477L10.3474 16.7648C10.2874 16.8148 10.2374 16.8648 10.1774 16.9148C9.03735 18.0548 9.33735 20.2348 10.7874 22.0548C10.5774 21.8848 10.3774 21.7048 10.1774 21.5148C8.27735 19.6148 7.75734 17.0348 9.02734 15.7748C9.07734 15.7248 9.13734 15.6748 9.19734 15.6248L23.1973 3.13477L24.3474 4.28477V4.27477Z" fill="#FAFEFD"/>
<path d="M9.19635 15.6162L9.34636 15.7962L9.18636 15.6162H9.19635ZM23.1964 3.12617L23.3664 2.95617C23.2764 2.86617 23.1364 2.86617 23.0464 2.95617L23.2064 3.13617L23.1964 3.12617ZM28.5564 8.48617L28.7364 8.64617C28.8164 8.55617 28.8164 8.40617 28.7364 8.32617L28.5664 8.49617L28.5564 8.48617ZM16.0664 22.4862L15.8864 22.3362C15.8464 22.3862 15.7964 22.4362 15.7564 22.4862L15.9264 22.6562L16.0964 22.8262C16.1564 22.7662 16.2064 22.7062 16.2564 22.6462L16.0764 22.4962L16.0664 22.4862ZM15.9164 22.6562L15.7464 22.4862C15.1864 23.0462 14.3164 23.2362 13.3264 23.0362C12.3364 22.8362 11.2564 22.2562 10.3364 21.3362L10.1664 21.5062L9.99636 21.6762C10.9764 22.6562 12.1364 23.2862 13.2264 23.5062C14.3164 23.7262 15.3664 23.5362 16.0764 22.8262L15.9064 22.6562H15.9164ZM10.1764 21.5062L10.3464 21.3362C9.42636 20.4162 8.84637 19.3362 8.64637 18.3462C8.44637 17.3562 8.63635 16.4862 9.19635 15.9262L9.02636 15.7562L8.85636 15.5862C8.14636 16.2962 7.95636 17.3462 8.17636 18.4362C8.39636 19.5262 9.02635 20.6862 10.0064 21.6662L10.1764 21.4962V21.5062ZM9.02636 15.7562L9.19635 15.9262C9.19635 15.9262 9.29636 15.8362 9.34636 15.7962L9.19635 15.6162L9.04636 15.4362C8.98636 15.4862 8.92635 15.5362 8.86635 15.5962L9.03636 15.7662L9.02636 15.7562ZM9.19635 15.6162L9.35636 15.7962L23.3564 3.30617L23.1964 3.12617L23.0364 2.94617L9.03636 15.4362L9.19635 15.6162ZM23.1964 3.12617L23.0264 3.29617L28.3864 8.65617L28.5564 8.48617L28.7264 8.31617L23.3664 2.95617L23.1964 3.12617ZM28.5564 8.48617L28.3764 8.32617L15.8864 22.3262L16.0664 22.4862L16.2464 22.6462L28.7364 8.64617L28.5564 8.48617Z" fill="#006A49"/>
<path d="M24.3285 7.35469C25.9485 8.97469 26.9985 10.8447 27.3285 12.4847L28.6285 13.7847L26.7184 15.6947C26.7184 15.6947 26.6684 15.7547 26.6384 15.7747C24.9484 17.4647 21.1784 16.4347 18.2184 13.4747C15.2584 10.5147 14.2284 6.74469 15.9184 5.05469C15.9484 5.02469 15.9784 5.00469 15.9984 4.97469L17.9085 3.05469L19.2085 4.35469C20.8385 4.68469 22.7084 5.72469 24.3384 7.35469" fill="#00D890"/>
<path d="M27.328 12.4759L27.098 12.5259C27.098 12.5259 27.128 12.6159 27.158 12.6459L27.328 12.4759ZM28.628 13.7759L28.798 13.9459C28.888 13.8559 28.888 13.7059 28.798 13.6159L28.628 13.7859V13.7759ZM26.708 15.6959L26.538 15.8659C26.628 15.9559 26.778 15.9559 26.868 15.8659L26.698 15.6959H26.708ZM26.708 15.6859L26.878 15.5159C26.788 15.4259 26.638 15.4259 26.548 15.5159L26.718 15.6759L26.708 15.6859ZM15.988 4.97586L16.148 5.14586C16.248 5.05586 16.248 4.90586 16.168 4.81586L15.998 4.98586L15.988 4.97586ZM15.988 4.97586L15.818 4.80586C15.728 4.89586 15.728 5.04586 15.818 5.13586L15.988 4.96586V4.97586ZM17.898 3.05586L18.068 2.88586C17.978 2.79586 17.828 2.79586 17.738 2.88586L17.908 3.05586H17.898ZM19.198 4.35586L19.028 4.52586C19.028 4.52586 19.098 4.58586 19.148 4.58586L19.198 4.35586ZM24.328 7.35586L24.158 7.52586C25.758 9.12586 26.768 10.9559 27.088 12.5359L27.318 12.4859L27.548 12.4359C27.208 10.7459 26.138 8.83586 24.488 7.18586L24.318 7.35586H24.328ZM27.328 12.4759L27.158 12.6459L28.458 13.9459L28.628 13.7759L28.798 13.6059L27.498 12.3059L27.328 12.4759ZM28.628 13.7759L28.458 13.6059L26.548 15.5159L26.718 15.6859L26.888 15.8559L28.798 13.9459L28.628 13.7759ZM26.708 15.6959L26.878 15.5259L26.708 15.6859L26.538 15.8559L26.708 15.6959ZM26.708 15.6859L26.538 15.5259C26.538 15.5259 26.488 15.5759 26.468 15.6059L26.638 15.7759L26.808 15.9459C26.808 15.9459 26.868 15.8859 26.898 15.8559L26.728 15.6959L26.708 15.6859ZM26.628 15.7759L26.458 15.6059C25.698 16.3659 24.438 16.5459 22.948 16.1359C21.468 15.7359 19.818 14.7559 18.368 13.3059L18.198 13.4759L18.028 13.6459C19.528 15.1459 21.248 16.1759 22.818 16.5959C24.378 17.0259 25.848 16.8759 26.788 15.9359L26.618 15.7659L26.628 15.7759ZM18.198 13.4759L18.368 13.3059C16.908 11.8459 15.938 10.1959 15.538 8.72586C15.138 7.23586 15.308 5.97586 16.078 5.21586L15.908 5.04586L15.738 4.87586C14.808 5.80586 14.658 7.27586 15.078 8.83586C15.508 10.4059 16.528 12.1259 18.028 13.6259L18.198 13.4559V13.4759ZM15.908 5.05586L16.078 5.22586C16.078 5.22586 16.128 5.17586 16.158 5.15586L15.998 4.98586L15.838 4.81586C15.838 4.81586 15.778 4.87586 15.748 4.90586L15.918 5.07586L15.908 5.05586ZM15.988 4.97586L16.158 4.80586L15.988 4.96586L15.818 5.13586L15.988 4.97586ZM15.988 4.97586L16.158 5.14586L18.068 3.23586L17.898 3.06586L17.728 2.89586L15.818 4.80586L15.988 4.97586ZM17.898 3.05586L17.728 3.22586L19.028 4.52586L19.198 4.35586L19.368 4.18586L18.068 2.88586L17.898 3.05586ZM19.198 4.35586L19.148 4.58586C20.728 4.90586 22.558 5.91586 24.158 7.51586L24.328 7.34586L24.498 7.17586C22.848 5.52586 20.938 4.45586 19.248 4.11586L19.198 4.34586V4.35586Z" fill="#006A49"/>
<path d="M28.6135 13.783C30.3045 12.092 29.2756 8.32151 26.3154 5.36133C23.3553 2.40116 19.5848 1.37227 17.8938 3.06324C16.2028 4.75421 17.2317 8.5247 20.1919 11.4849C23.1521 14.445 26.9226 15.4739 28.6135 13.783Z" fill="#A0FFCB"/>
<path d="M26.3274 5.3554C28.2374 7.2654 29.3374 9.5054 29.4274 11.3054C28.9574 9.8854 28.0074 8.3654 26.6574 7.0154C23.6974 4.0554 19.9274 3.0254 18.2374 4.7154C17.6374 5.3154 17.3774 6.1854 17.4274 7.1854C16.8674 5.5054 16.9774 3.9654 17.8974 3.0454C19.5874 1.3554 23.3574 2.3854 26.3174 5.3454" fill="#FAFEFD"/>
<path d="M28.6135 13.783C30.3045 12.092 29.2756 8.32151 26.3154 5.36133C23.3553 2.40116 19.5848 1.37227 17.8938 3.06324C16.2028 4.75421 17.2317 8.5247 20.1919 11.4849C23.1521 14.445 26.9226 15.4739 28.6135 13.783Z" stroke="#006A49" stroke-width="0.47" stroke-linejoin="round"/>
</svg>
