<svg width="152" height="159" viewBox="0 0 152 159" fill="none" xmlns="http://www.w3.org/2000/svg">
<path d="M59.5852 30.552L29.7852 36.612L39.9752 27.412C40.0852 27.312 40.2052 27.232 40.3252 27.152L52.7852 20.062C53.7552 19.512 54.9852 19.852 55.5352 20.822C55.5752 20.892 55.6152 20.972 55.6452 21.052L59.5652 30.552H59.5852Z" fill="#006A49" stroke="#006A49" stroke-width="0.47"/>
<path d="M45.3551 26.8221C69.2951 18.0121 98.8451 30.5621 114.335 57.3921C129.305 83.3221 126.165 113.942 108.245 130.712L109.305 131.032L102.845 135.032C101.945 135.642 101.025 136.222 100.085 136.762C75.2051 151.122 41.2451 138.882 24.2251 109.412C7.33506 80.132 13.5151 44.8621 38.0051 30.3221L45.9351 25.3721L45.3551 26.8321V26.8221Z" fill="#F1F9F1"/>
<path d="M113.694 124.612C112.064 126.802 110.244 128.852 108.254 130.722L109.314 131.042L102.864 135.042C101.964 135.652 101.044 136.232 100.104 136.772C78.8739 149.032 51.0339 141.912 32.7539 121.252L50.5139 111.102L113.704 124.612H113.694Z" fill="#ADE2C0"/>
<path d="M50.4931 111.103L32.7431 121.253C29.5131 117.603 26.6631 113.643 24.2331 109.423C19.2731 100.843 16.3031 91.7427 15.2031 82.7927L32.8231 72.7227L50.5031 111.103H50.4931Z" fill="#DEF4DE"/>
<path d="M45.3559 26.8233L45.1359 26.7333C45.0859 26.8533 45.1359 26.9933 45.2659 27.0433C45.3159 27.0633 45.3759 27.0633 45.4359 27.0433L45.3559 26.8233ZM108.256 130.713L108.096 130.543C107.996 130.633 107.996 130.783 108.086 130.873C108.116 130.903 108.146 130.923 108.186 130.933L108.256 130.703V130.713ZM109.306 131.033L109.426 131.233C109.536 131.163 109.566 131.023 109.506 130.913C109.476 130.863 109.426 130.833 109.376 130.813L109.306 131.043V131.033ZM102.856 135.033L102.736 134.833L102.866 135.033H102.856ZM45.9359 25.3633L46.1559 25.4533C46.2059 25.3333 46.1459 25.1933 46.0259 25.1433C45.9559 25.1133 45.8759 25.1233 45.8159 25.1633L45.9359 25.3633ZM45.3559 26.8233L45.4359 27.0433C69.2459 18.2733 98.6859 30.7533 114.136 57.5133L114.336 57.3933L114.536 57.2733C99.0059 30.3733 69.3459 17.7433 45.2759 26.6033L45.3559 26.8233ZM114.336 57.3933L114.136 57.5133C129.066 83.3733 125.916 113.863 108.096 130.543L108.256 130.713L108.416 130.883C126.426 114.023 129.556 83.2733 114.546 57.2733L114.346 57.3933H114.336ZM108.256 130.713L108.186 130.943L109.246 131.263L109.316 131.033L109.386 130.803L108.326 130.483L108.256 130.713ZM109.306 131.033L109.186 130.833L102.736 134.833L102.856 135.033L102.976 135.233L109.426 131.233L109.306 131.033ZM102.856 135.033L102.726 134.843C101.836 135.453 100.916 136.023 99.9859 136.563L100.106 136.763L100.226 136.963C101.176 136.413 102.096 135.833 102.996 135.223L102.866 135.033H102.856ZM100.096 136.763L99.9759 136.563C75.2359 150.843 41.4059 138.693 24.4359 109.303L24.2359 109.423L24.0359 109.543C41.0959 139.093 75.1959 151.423 100.216 136.983L100.096 136.783V136.763ZM24.2359 109.413L24.4359 109.293C7.58587 80.0933 13.7859 44.9833 38.1259 30.5233L38.0059 30.3233L37.8859 30.1233C13.2559 44.7433 7.08587 80.1733 24.0359 109.533L24.2359 109.413ZM38.0059 30.3233L38.1259 30.5233L46.0559 25.5733L45.9359 25.3733L45.8159 25.1733L37.8859 30.1233L38.0059 30.3233ZM45.9359 25.3633L45.7159 25.2733L45.1359 26.7333L45.3559 26.8233L45.5759 26.9133L46.1559 25.4533L45.9359 25.3633Z" fill="#006A49"/>
<path d="M106.661 132.721C131.541 118.356 137.919 82.823 120.906 53.3554C103.893 23.8878 69.9314 11.6446 45.0506 26.0095C20.1699 40.3745 13.7919 75.9077 30.805 105.375C47.8181 134.843 81.7799 147.086 106.661 132.721Z" fill="#F2F8F0"/>
<path d="M53.1736 33.4233C73.4636 21.7133 101.334 31.9933 115.414 56.3833C129.504 80.7833 124.464 110.053 104.174 121.773C83.8836 133.483 56.0136 123.203 41.9336 98.8133C27.8436 74.4133 32.8736 45.1433 53.1636 33.4233H53.1736ZM111.484 58.6533C99.0736 37.1533 74.5236 28.0933 56.6436 38.4133C38.7636 48.7333 34.3436 74.5233 46.7536 96.0233C59.1636 117.523 83.7136 126.583 101.594 116.263C119.474 105.943 123.894 80.1533 111.484 58.6533Z" fill="#FFD282"/>
<path d="M53.1741 33.4224L53.2941 33.6224C73.4341 21.9924 101.174 32.1824 115.214 56.5024L115.414 56.3824L115.614 56.2624C101.494 31.7924 73.4941 21.4224 53.0541 33.2224L53.1741 33.4224ZM115.414 56.3824L115.214 56.5024C129.254 80.8224 124.214 109.932 104.064 121.562L104.184 121.762L104.304 121.962C124.744 110.162 129.754 80.7224 115.624 56.2524L115.424 56.3724L115.414 56.3824ZM104.184 121.772L104.064 121.572C83.9241 133.202 56.1841 123.012 42.1441 98.6924L41.9441 98.8124L41.7441 98.9324C55.8741 123.402 83.8741 133.782 104.314 121.982L104.194 121.782L104.184 121.772ZM41.9341 98.8124L42.1341 98.6924C28.0941 74.3724 33.1341 45.2624 53.2841 33.6324L53.1641 33.4324L53.0441 33.2324C32.6041 45.0324 27.5941 74.4724 41.7241 98.9424L41.9241 98.8224L41.9341 98.8124ZM111.484 58.6624L111.684 58.5424C99.2241 36.9724 74.5441 27.8124 56.5241 38.2124L56.6441 38.4124L56.7641 38.6124C74.4941 28.3724 98.9141 37.3424 111.284 58.7624L111.484 58.6424V58.6624ZM56.6441 38.4124L56.5241 38.2124C38.5041 48.6224 34.0941 74.5724 46.5441 96.1424L46.7441 96.0224L46.9441 95.9024C34.5741 74.4824 39.0241 48.8424 56.7541 38.6124L56.6341 38.4124H56.6441ZM46.7541 96.0324L46.5541 96.1524C59.0141 117.722 83.694 126.882 101.714 116.482L101.594 116.282L101.474 116.082C83.7441 126.322 59.3241 117.352 46.9541 95.9324L46.7541 96.0524V96.0324ZM101.594 116.272L101.714 116.472C119.734 106.072 124.144 80.1124 111.694 58.5424L111.494 58.6624L111.294 58.7824C123.664 80.2024 119.214 105.842 101.484 116.072L101.604 116.272H101.594Z" fill="#C88800"/>
<path d="M53.173 33.4233C73.463 21.7133 101.333 31.9933 115.413 56.3833C129.503 80.7833 124.473 110.053 104.173 121.773C83.883 133.483 56.013 123.203 41.933 98.8133C27.843 74.4133 32.873 45.1433 53.173 33.4233ZM114.023 57.1933C100.473 33.7233 73.663 23.8333 54.143 35.1033C34.623 46.3733 29.783 74.5333 43.333 98.0033C56.883 121.473 83.693 131.363 103.213 120.093C122.733 108.823 127.573 80.6633 114.023 57.1933Z" fill="#FAFEFD"/>
<path d="M46.5557 24.9915C71.4357 10.6315 105.396 22.8715 122.416 52.3415C139.426 81.8115 133.056 117.342 108.176 131.712C83.2957 146.072 49.3357 133.832 32.3157 104.362C15.3057 74.8915 21.6757 39.3615 46.5557 24.9915ZM115.416 56.3815C101.336 31.9815 73.4657 21.7015 53.1757 33.4215C32.8857 45.1415 27.8557 74.4115 41.9357 98.8115C56.0257 123.212 83.8857 133.492 104.176 121.772C124.466 110.052 129.496 80.7815 115.416 56.3815Z" fill="#00D890"/>
<path d="M46.5539 24.9931L46.6739 25.1931C71.4139 10.9131 105.244 23.0631 122.214 52.4531L122.414 52.3331L122.614 52.2131C105.564 22.6831 71.4639 10.3431 46.4439 24.7931L46.5639 24.9931H46.5539ZM122.414 52.3431L122.214 52.4631C139.184 81.8531 132.794 117.233 108.054 131.513L108.174 131.713L108.294 131.913C133.314 117.463 139.684 81.7731 122.624 52.2231L122.424 52.3431H122.414ZM108.174 131.713L108.054 131.513C83.3139 145.793 49.4839 133.643 32.5139 104.253L32.3139 104.373L32.1139 104.493C49.1739 134.043 83.2739 146.373 108.294 131.933L108.174 131.733V131.713ZM32.3139 104.363L32.5139 104.243C15.5539 74.8531 21.9439 39.4831 46.6739 25.2031L46.5539 25.0031L46.4339 24.8031C21.4139 39.2531 15.0439 74.9431 32.1039 104.493L32.3039 104.373L32.3139 104.363ZM115.414 56.3831L115.614 56.2631C101.494 31.7931 73.4939 21.4231 53.0539 33.2131L53.1739 33.4131L53.2939 33.6131C73.4339 21.9831 101.174 32.1731 115.214 56.4931L115.414 56.3731V56.3831ZM53.1739 33.4231L53.0539 33.2231C32.6139 45.0231 27.6039 74.4631 41.7339 98.9331L41.9339 98.8131L42.1339 98.6931C28.0939 74.3731 33.1339 45.2631 53.2839 33.6331L53.1639 33.4331L53.1739 33.4231ZM41.9339 98.8131L41.7339 98.9331C55.8639 123.403 83.8639 133.783 104.304 121.983L104.184 121.783L104.064 121.583C83.9239 133.213 56.1839 123.023 42.1439 98.7031L41.9439 98.8231L41.9339 98.8131ZM104.184 121.773L104.304 121.973C124.744 110.173 129.754 80.7331 115.624 56.2631L115.424 56.3831L115.224 56.5031C129.264 80.8231 124.224 109.933 104.074 121.563L104.194 121.763L104.184 121.773Z" fill="#006A49"/>
<path d="M46.5952 25.0618C71.4752 10.7018 105.435 22.9418 122.455 52.4118C139.465 81.8818 133.095 117.422 108.215 131.782C83.3352 146.142 49.3752 133.902 32.3552 104.432C15.3352 74.9618 21.7152 39.4218 46.5952 25.0618ZM115.415 56.3818C101.335 31.9918 73.4652 21.7018 53.1752 33.4218C32.8852 45.1418 27.8552 74.4118 41.9352 98.8118C56.0252 123.212 83.8852 133.492 104.175 121.772C124.465 110.052 129.495 80.7818 115.415 56.3818Z" fill="#00D890"/>
<path d="M46.593 25.0632L46.713 25.2632C71.453 10.9832 105.283 23.1332 122.253 52.5232L122.453 52.4032L122.653 52.2832C105.593 22.7432 71.493 10.4132 46.473 24.8632L46.593 25.0632ZM122.453 52.4132L122.253 52.5332C139.223 81.9232 132.833 117.303 108.093 131.583L108.213 131.783L108.333 131.983C133.353 117.533 139.723 81.8432 122.663 52.2932L122.463 52.4132H122.453ZM108.203 131.783L108.083 131.583C83.343 145.863 49.513 133.713 32.543 104.323L32.343 104.443L32.143 104.563C49.203 134.113 83.303 146.443 108.323 132.003L108.203 131.803V131.783ZM32.353 104.433L32.553 104.313C15.583 74.9232 21.973 39.5532 46.713 25.2632L46.593 25.0632L46.473 24.8632C21.453 39.3132 15.083 75.0032 32.143 104.553L32.343 104.433H32.353ZM115.413 56.3832L115.613 56.2632C101.493 31.7932 73.493 21.4232 53.053 33.2132L53.173 33.4132L53.293 33.6132C73.433 21.9832 101.173 32.1732 115.213 56.4932L115.413 56.3732V56.3832ZM53.173 33.4232L53.053 33.2232C32.613 45.0232 27.603 74.4632 41.733 98.9332L41.933 98.8132L42.133 98.6932C28.093 74.3732 33.133 45.2632 53.283 33.6332L53.163 33.4332L53.173 33.4232ZM41.933 98.8132L41.733 98.9332C55.863 123.403 83.863 133.783 104.303 121.983L104.183 121.783L104.063 121.583C83.923 133.213 56.183 123.023 42.143 98.7032L41.943 98.8232L41.933 98.8132ZM104.183 121.773L104.303 121.973C124.743 110.173 129.753 80.7332 115.623 56.2632L115.423 56.3832L115.223 56.5032C129.263 80.8232 124.223 109.933 104.073 121.563L104.193 121.763L104.183 121.773Z" fill="#006A49"/>
<path d="M52.2938 32.3529C73.3238 20.2129 102.104 30.6929 116.584 55.7629C131.054 80.8329 125.744 111.003 104.714 123.143C83.6838 135.283 54.9038 124.803 40.4238 99.7329C25.9438 74.6629 31.2638 44.4929 52.2938 32.3529ZM115.414 56.3829C101.334 31.9929 73.4638 21.7029 53.1738 33.4229C32.8838 45.1329 27.8538 74.4129 41.9338 98.8129C56.0238 123.213 83.8838 133.493 104.174 121.773C124.464 110.063 129.494 80.7829 115.414 56.3829Z" fill="#10A374"/>
<path d="M46.5557 24.9915C71.4357 10.6315 105.396 22.8715 122.416 52.3415C139.426 81.8115 133.056 117.342 108.176 131.712C83.2957 146.072 49.3357 133.832 32.3157 104.362C15.3057 74.8915 21.6757 39.3615 46.5557 24.9915ZM121.516 53.1615C105.026 24.6115 72.1357 12.7515 48.0257 26.6615C23.9257 40.5715 17.7457 75.0015 34.2257 103.542C50.7057 132.092 83.6057 143.952 107.706 130.032C131.806 116.122 137.986 81.6915 121.506 53.1515L121.516 53.1615Z" fill="#A0FFCB"/>
<path d="M46.5539 24.9931L46.6739 25.1931C71.4139 10.9131 105.244 23.0631 122.214 52.4531L122.414 52.3331L122.614 52.2131C105.564 22.6831 71.4639 10.3431 46.4439 24.7931L46.5639 24.9931H46.5539ZM122.414 52.3431L122.214 52.4631C139.184 81.8531 132.794 117.233 108.054 131.513L108.174 131.713L108.294 131.913C133.314 117.463 139.684 81.7731 122.624 52.2231L122.424 52.3431H122.414ZM108.174 131.713L108.054 131.513C83.3139 145.793 49.4839 133.643 32.5139 104.253L32.3139 104.373L32.1139 104.493C49.1739 134.043 83.2739 146.373 108.294 131.933L108.174 131.733V131.713ZM32.3139 104.363L32.5139 104.243C15.5539 74.8531 21.9439 39.4831 46.6739 25.2031L46.5539 25.0031L46.4339 24.8031C21.4139 39.2531 15.0439 74.9431 32.1039 104.493L32.3039 104.373L32.3139 104.363ZM115.414 56.3831L115.614 56.2631C101.494 31.7931 73.4939 21.4231 53.0539 33.2131L53.1739 33.4131L53.2939 33.6131C73.4339 21.9831 101.174 32.1731 115.214 56.4931L115.414 56.3731V56.3831ZM53.1739 33.4231L53.0539 33.2231C32.6139 45.0231 27.6039 74.4631 41.7339 98.9331L41.9339 98.8131L42.1339 98.6931C28.0939 74.3731 33.1339 45.2631 53.2839 33.6331L53.1639 33.4331L53.1739 33.4231ZM41.9339 98.8131L41.7339 98.9331C55.8639 123.403 83.8639 133.783 104.304 121.983L104.184 121.783L104.064 121.583C83.9239 133.213 56.1839 123.023 42.1439 98.7031L41.9439 98.8231L41.9339 98.8131ZM104.184 121.773L104.304 121.973C124.744 110.173 129.754 80.7331 115.624 56.2631L115.424 56.3831L115.224 56.5031C129.264 80.8231 124.224 109.933 104.074 121.563L104.194 121.763L104.184 121.773Z" fill="#006A49"/>
<path d="M55.7736 36.9129C74.3436 26.1929 99.8436 35.6029 112.734 57.9329C125.624 80.2629 121.024 107.053 102.464 117.773C83.8936 128.493 58.3936 119.083 45.5036 96.7529C32.6136 74.4229 37.2136 47.6329 55.7736 36.9129ZM111.484 58.6529C99.0736 37.1529 74.5236 28.0929 56.6436 38.4129C38.7636 48.7329 34.3436 74.5229 46.7536 96.0229C59.1636 117.523 83.7136 126.583 101.594 116.263C119.464 105.943 123.894 80.1529 111.484 58.6529Z" fill="#FFB32C"/>
<path d="M101.595 116.274C119.468 105.955 123.896 80.1606 111.483 58.6614C99.0704 37.1621 74.5184 28.0991 56.6446 38.4185C38.7708 48.738 34.3436 74.5321 46.7562 96.0314C59.1688 117.531 83.7208 126.594 101.595 116.274Z" fill="#FF3D3D"/>
<path d="M101.595 116.274C119.468 105.955 123.896 80.1606 111.483 58.6614C99.0704 37.1621 74.5184 28.0991 56.6446 38.4185C38.7708 48.738 34.3436 74.5321 46.7562 96.0314C59.1688 117.531 83.7208 126.594 101.595 116.274Z" stroke="#E19900" stroke-width="0.47"/>
<path d="M82.5644 76.0033L42.8044 69.4133C41.0544 69.1233 39.7744 67.5733 39.9544 65.8033C41.0244 55.6533 45.5644 46.5733 53.2144 40.7033C54.6844 39.5733 56.7644 40.0033 57.8444 41.5133L82.5644 76.0033Z" fill="url(#paint0_linear_8499_53)"/>
<path d="M53.2127 40.7017C54.5427 39.6817 56.3527 39.9317 57.4927 41.1017C56.6927 41.0017 55.8727 41.2217 55.2327 41.7117C47.5827 47.5817 43.0427 56.6617 41.9727 66.8117C41.8627 67.8217 42.2327 68.7517 42.8927 69.4217L42.7927 69.4017C41.0427 69.1117 39.7627 67.5617 39.9427 65.7917C41.0127 55.6417 45.5527 46.5617 53.2027 40.6917L53.2127 40.7017Z" fill="#A0FFCB"/>
<path d="M82.5662 76.0026L52.1962 97.9226C50.5962 99.0726 48.3462 98.7026 47.3262 97.0126C47.1262 96.6826 46.9362 96.3526 46.7462 96.0226C42.4362 88.5626 40.1562 80.5826 39.7662 72.9126C39.6562 70.7826 41.5962 69.2026 43.7062 69.5526L82.5662 75.9926V76.0026Z" fill="url(#paint1_linear_8499_53)"/>
<path d="M42.6738 69.5432C42.0638 70.1732 41.7438 71.0332 41.7938 71.9132C42.1838 79.5832 44.4638 87.5632 48.7738 95.0232C48.9638 95.3532 49.1638 95.6832 49.3538 96.0132C50.0838 97.2232 51.4438 97.7532 52.7438 97.5332L52.2038 97.9232C50.6038 99.0832 48.3538 98.7032 47.3338 97.0132C47.1338 96.6832 46.9438 96.3632 46.7538 96.0232C42.4438 88.5632 40.1638 80.5832 39.7738 72.9132C39.6838 71.1432 41.0138 69.7432 42.6738 69.5332" fill="#00D890"/>
<path d="M76.1546 115.292C75.8146 117.362 73.7546 118.692 71.7846 117.952C64.2246 115.092 57.0646 109.912 51.3746 102.802C50.1646 101.292 50.5446 99.1022 52.1146 97.9722L82.5646 75.9922L76.1446 115.282L76.1546 115.292Z" fill="url(#paint2_linear_8499_53)"/>
<path d="M52.6063 97.6328C51.9863 98.7728 52.0363 100.213 52.8963 101.293C58.5863 108.393 65.7363 113.573 73.3063 116.443C74.1263 116.753 75.0363 116.713 75.8263 116.323C75.0963 117.783 73.4063 118.573 71.7963 117.963C64.2363 115.103 57.0763 109.923 51.3863 102.813C50.1763 101.303 50.5563 99.1128 52.1263 97.9828L52.6163 97.6328H52.6063Z" fill="#A0FFCB"/>
<path d="M106.263 108.892C107.283 110.302 107.133 112.262 105.783 113.362C104.463 114.442 103.063 115.412 101.583 116.262C94.5728 120.312 86.5428 121.372 78.6128 119.882C76.8328 119.542 75.7328 117.812 76.0228 116.022L82.5628 75.9922L106.263 108.882V108.892Z" fill="url(#paint3_linear_8499_53)"/>
<path d="M106.416 109.123C107.266 110.513 107.066 112.323 105.786 113.363C104.466 114.443 103.066 115.413 101.586 116.263C94.5758 120.313 86.5458 121.373 78.6158 119.883C76.9558 119.573 75.8958 118.043 75.9858 116.393C76.4458 117.133 77.1858 117.683 78.1058 117.863C86.0358 119.353 94.0658 118.293 101.076 114.243C102.556 113.393 103.956 112.423 105.276 111.343C105.976 110.773 106.356 109.963 106.406 109.123" fill="#00D890"/>
<path d="M115.646 81.3817C117.296 81.6517 118.546 83.0317 118.526 84.7017C118.426 93.5617 115.766 101.852 110.786 108.252C109.456 109.962 106.896 109.752 105.626 107.992L82.5859 76.0117L115.656 81.3917L115.646 81.3817Z" fill="url(#paint4_linear_8499_53)"/>
<path d="M115.645 81.3818C117.295 81.6518 118.545 83.0318 118.525 84.7018C118.425 93.5618 115.765 101.852 110.785 108.252C109.745 109.592 107.945 109.752 106.605 108.912C107.585 108.992 108.585 108.622 109.265 107.742C114.245 101.342 116.905 93.0518 117.005 84.1918C117.015 82.9918 116.375 81.9318 115.385 81.3418L115.635 81.3818H115.645Z" fill="#A0FFCB"/>
<path d="M107.814 57.9122C109.034 57.0422 110.734 57.3622 111.484 58.6522C114.994 64.7322 117.154 71.1622 118.054 77.4822C118.364 79.7122 116.374 81.4922 114.154 81.1322L82.5742 75.9922L107.824 57.9022L107.814 57.9122Z" fill="url(#paint5_linear_8499_53)"/>
<path d="M107.815 57.9122C109.035 57.0422 110.735 57.3622 111.485 58.6522C114.995 64.7322 117.165 71.1622 118.055 77.4822C118.325 79.4122 116.875 81.0022 115.035 81.1622C116.075 80.5122 116.725 79.3322 116.535 77.9922C115.645 71.6722 113.485 65.2422 109.965 59.1622C109.495 58.3522 108.655 57.9222 107.785 57.9322L107.805 57.9122H107.815Z" fill="#00D890"/>
<path d="M88.1542 42.2822C88.5342 39.9922 90.9842 38.6822 92.9942 39.8522C98.6542 43.1322 103.864 47.7522 108.134 53.5422C109.254 55.0622 108.844 57.1822 107.314 58.2722L82.5742 76.0022L88.1642 42.2822H88.1542Z" fill="url(#paint6_linear_8499_53)"/>
<path d="M88.6758 40.9525C89.5858 39.5525 91.4258 38.9425 92.9958 39.8525C98.6558 43.1325 103.866 47.7525 108.136 53.5425C109.256 55.0625 108.846 57.1825 107.316 58.2725L107.196 58.3625C107.946 57.2225 107.986 55.7125 107.126 54.5525C102.856 48.7625 97.6458 44.1425 91.9858 40.8625C90.8758 40.2225 89.6258 40.3325 88.6758 40.9525Z" fill="#A0FFCB"/>
<path d="M56.6436 38.4218C65.6636 33.2118 76.3936 32.9418 86.3936 36.7118C87.8936 37.2818 88.7236 38.8518 88.4636 40.4318L82.5736 76.0018L55.9336 38.8418C56.1736 38.7018 56.4036 38.5518 56.6436 38.4218Z" fill="url(#paint7_linear_8499_53)"/>
<path d="M56.6436 38.4218C65.6636 33.2118 76.3936 32.9418 86.3936 36.7118C87.7736 37.2318 88.5836 38.6118 88.5036 40.0618C88.1336 39.4518 87.5636 38.9918 86.9036 38.7318C76.8936 34.9618 66.1736 35.2318 57.1536 40.4418L57.1036 40.4718L55.9336 38.8418C56.1736 38.7018 56.4036 38.5518 56.6436 38.4218Z" fill="#00D890"/>
<path d="M82.5644 76.0033L42.8044 69.4133C41.0544 69.1233 39.7744 67.5733 39.9544 65.8033C41.0244 55.6533 45.5644 46.5733 53.2144 40.7033C54.6844 39.5733 56.7644 40.0033 57.8444 41.5133L82.5644 76.0033Z" stroke="#006A49" stroke-width="0.47"/>
<path d="M82.5662 75.9926L43.7062 69.5526C41.5962 69.2026 39.6562 70.7826 39.7662 72.9126C40.1562 80.5826 42.4362 88.5626 46.7462 96.0226C46.9362 96.3526 47.1262 96.6826 47.3262 97.0126C48.3462 98.7026 50.5962 99.0726 52.1962 97.9226L82.5662 76.0026V75.9926ZM82.5662 75.9926L52.1162 97.9726C50.5462 99.1026 50.1662 101.293 51.3762 102.803C57.0662 109.913 64.2262 115.093 71.7862 117.953C73.7562 118.693 75.8162 117.363 76.1562 115.293L76.1462 115.283L82.5662 75.9926ZM82.5662 75.9926L76.0262 116.023C75.7362 117.813 76.8362 119.543 78.6162 119.883C86.5462 121.373 94.5762 120.313 101.586 116.263C103.066 115.413 104.466 114.443 105.786 113.363C107.136 112.263 107.286 110.303 106.266 108.893V108.883L82.5662 75.9926Z" stroke="#006A49" stroke-width="0.47"/>
<path d="M115.644 81.3822C117.294 81.6522 118.544 83.0322 118.524 84.7022C118.424 93.5622 115.764 101.852 110.784 108.252C109.454 109.962 106.894 109.752 105.624 107.992L82.5842 76.0122L115.654 81.3922L115.644 81.3822ZM107.814 57.9122C109.034 57.0422 110.734 57.3622 111.484 58.6522C114.994 64.7322 117.154 71.1622 118.054 77.4822C118.364 79.7122 116.374 81.4922 114.154 81.1322L82.5742 75.9922L107.824 57.9022L107.814 57.9122Z" stroke="#006A49" stroke-width="0.47"/>
<path d="M82.5736 76.0018L107.314 58.2718C108.844 57.1818 109.254 55.0618 108.134 53.5418C103.864 47.7518 98.6536 43.1318 92.9936 39.8518C90.9836 38.6818 88.5336 39.9918 88.1536 42.2818H88.1636L82.5736 76.0018ZM82.5736 76.0018L88.4636 40.4318C88.7236 38.8518 87.8936 37.2818 86.3936 36.7118C76.3936 32.9418 65.6636 33.2118 56.6436 38.4218C56.4036 38.5518 56.1736 38.7018 55.9336 38.8418L82.5736 76.0018Z" stroke="#006A49" stroke-width="0.47"/>
<path d="M87.2073 84.8404C91.4832 82.3717 92.6908 76.4582 89.9045 71.6322C87.1183 66.8062 81.3932 64.8953 77.1173 67.364C72.8413 69.8327 71.6337 75.7462 74.42 80.5722C77.2063 85.3982 82.9313 87.3091 87.2073 84.8404Z" fill="#FF3D3D"/>
<path d="M77.1039 67.3514C81.3839 64.8814 87.1039 66.7914 89.8939 71.6214C92.6839 76.4514 91.4739 82.3614 87.1939 84.8314C82.9139 87.3014 77.1939 85.3914 74.4039 80.5614C71.6139 75.7314 72.8239 69.8214 77.1039 67.3514ZM88.9939 72.1414C86.5339 67.8814 81.4739 66.1914 77.6939 68.3714C73.9139 70.5514 72.8439 75.7814 75.3139 80.0414C77.7839 84.3014 82.8339 86.0014 86.6139 83.8114C90.3939 81.6314 91.4639 76.4014 88.9939 72.1414Z" fill="#FF9889"/>
<path d="M87.2073 84.8404C91.4832 82.3717 92.6908 76.4582 89.9045 71.6322C87.1183 66.8062 81.3932 64.8953 77.1173 67.364C72.8413 69.8327 71.6337 75.7462 74.42 80.5722C77.2063 85.3982 82.9313 87.3091 87.2073 84.8404Z" stroke="#BA1328" stroke-width="0.47"/>
<path d="M85.9047 82.3678C88.937 80.6171 89.7723 76.3868 87.7703 72.9192C85.7682 69.4515 81.687 68.0597 78.6547 69.8105C75.6223 71.5612 74.787 75.7915 76.7891 79.2592C78.7911 82.7268 82.8723 84.1186 85.9047 82.3678Z" fill="#BA1328"/>
<path d="M85.4251 81.5361C88.0605 80.0145 88.7888 76.3422 87.0519 73.3338C85.3149 70.3253 81.7705 69.1199 79.1351 70.6415C76.4997 72.163 75.7713 75.8353 77.5083 78.8438C79.2452 81.8522 82.7897 83.0576 85.4251 81.5361Z" fill="#FF9889" stroke="#BA1328" stroke-width="0.47"/>
<path d="M38.7072 102.69C39.4725 102.248 39.6518 101.126 39.1078 100.184C38.5638 99.242 37.5025 98.8363 36.7372 99.2781C35.9719 99.72 35.7926 100.842 36.3366 101.784C36.8806 102.726 37.9419 103.132 38.7072 102.69Z" fill="#FAFEFD"/>
<path d="M119.508 55.7235C120.273 55.2816 120.453 54.1596 119.909 53.2174C119.365 52.2752 118.303 51.8695 117.538 52.3113C116.773 52.7532 116.593 53.8752 117.137 54.8174C117.681 55.7596 118.743 56.1653 119.508 55.7235Z" fill="#FAFEFD"/>
<path d="M128.098 93.1004C128.863 92.6586 129.042 91.5366 128.498 90.5943C127.954 89.6521 126.893 89.2465 126.128 89.6883C125.363 90.1301 125.183 91.2521 125.727 92.1944C126.271 93.1366 127.333 93.5422 128.098 93.1004Z" fill="#FAFEFD"/>
<path d="M110.418 125.923C111.183 125.481 111.363 124.359 110.819 123.417C110.275 122.474 109.213 122.069 108.448 122.511C107.683 122.952 107.504 124.074 108.048 125.017C108.592 125.959 109.653 126.365 110.418 125.923Z" fill="#FAFEFD"/>
<path d="M68.0002 129.46C68.7654 129.018 68.9448 127.896 68.4008 126.954C67.8568 126.011 66.7954 125.606 66.0302 126.048C65.2649 126.489 65.0855 127.611 65.6295 128.554C66.1735 129.496 67.2349 129.902 68.0002 129.46Z" fill="#FAFEFD"/>
<path d="M30.6174 65.3211C31.3826 64.8793 31.562 63.7573 31.018 62.8151C30.474 61.8728 29.4126 61.4672 28.6474 61.909C27.8821 62.3508 27.7027 63.4728 28.2467 64.4151C28.7907 65.3573 29.8521 65.763 30.6174 65.3211Z" fill="#FAFEFD"/>
<path d="M90.2228 29.4559C90.9881 29.0141 91.1675 27.8921 90.6235 26.9498C90.0795 26.0076 89.0181 25.6019 88.2528 26.0438C87.4876 26.4856 87.3082 27.6076 87.8522 28.5498C88.3962 29.4921 89.4576 29.8977 90.2228 29.4559Z" fill="#FAFEFD"/>
<path d="M38.7072 102.69C39.4725 102.248 39.6518 101.126 39.1078 100.184C38.5638 99.242 37.5025 98.8363 36.7372 99.2781C35.9719 99.72 35.7926 100.842 36.3366 101.784C36.8806 102.726 37.9419 103.132 38.7072 102.69Z" fill="#FAFEFD"/>
<path d="M119.508 55.7235C120.273 55.2816 120.453 54.1596 119.909 53.2174C119.365 52.2752 118.303 51.8695 117.538 52.3113C116.773 52.7532 116.593 53.8752 117.137 54.8174C117.681 55.7596 118.743 56.1653 119.508 55.7235Z" fill="#FAFEFD"/>
<path d="M128.098 93.1004C128.863 92.6586 129.042 91.5366 128.498 90.5943C127.954 89.6521 126.893 89.2465 126.128 89.6883C125.363 90.1301 125.183 91.2521 125.727 92.1944C126.271 93.1366 127.333 93.5422 128.098 93.1004Z" fill="#FAFEFD"/>
<path d="M110.418 125.923C111.183 125.481 111.363 124.359 110.819 123.417C110.275 122.474 109.213 122.069 108.448 122.511C107.683 122.952 107.504 124.074 108.048 125.017C108.592 125.959 109.653 126.365 110.418 125.923Z" fill="#FAFEFD"/>
<path d="M68.0002 129.46C68.7654 129.018 68.9448 127.896 68.4008 126.954C67.8568 126.011 66.7954 125.606 66.0302 126.048C65.2649 126.489 65.0855 127.611 65.6295 128.554C66.1735 129.496 67.2349 129.902 68.0002 129.46Z" fill="#FAFEFD"/>
<path d="M30.6174 65.3211C31.3826 64.8793 31.562 63.7573 31.018 62.8151C30.474 61.8728 29.4126 61.4672 28.6474 61.909C27.8821 62.3508 27.7027 63.4728 28.2467 64.4151C28.7907 65.3573 29.8521 65.763 30.6174 65.3211Z" fill="#FAFEFD"/>
<path d="M90.2228 29.4559C90.9881 29.0141 91.1675 27.8921 90.6235 26.9498C90.0795 26.0076 89.0181 25.6019 88.2528 26.0438C87.4876 26.4856 87.3082 27.6076 87.8522 28.5498C88.3962 29.4921 89.4576 29.8977 90.2228 29.4559Z" fill="#FAFEFD"/>
<path d="M48.0951 38.8433L40.6451 29.6233C39.9451 28.7533 40.0751 27.4833 40.9451 26.7833C41.0351 26.7133 41.1251 26.6533 41.2251 26.5933L53.1751 19.8533C53.9651 19.4033 54.9751 19.6833 55.4251 20.4833C55.4551 20.5433 55.4851 20.6033 55.5151 20.6733L60.0151 31.7133C60.2451 32.2833 60.3451 32.8933 60.3051 33.5033L59.7251 42.4633C59.6851 43.1433 59.0951 43.6633 58.4051 43.6133C58.2651 43.6133 58.1351 43.5733 58.0051 43.5233L49.6851 40.0433C49.0651 39.7833 48.5251 39.3733 48.1051 38.8533L48.0951 38.8433Z" fill="#A0FFCB" stroke="#006A49" stroke-width="0.47"/>
<path d="M56.3218 39.1048C57.1923 38.6022 57.3988 37.3302 56.783 36.2636C56.1672 35.197 54.9623 34.7398 54.0918 35.2423C53.2213 35.7449 53.0148 37.017 53.6306 38.0836C54.2464 39.1502 55.4513 39.6074 56.3218 39.1048Z" fill="#00D890" stroke="#006A49" stroke-width="0.47"/>
<defs>
<linearGradient id="paint0_linear_8499_53" x1="42.9444" y1="50.7133" x2="82.3344" y2="76.2133" gradientUnits="userSpaceOnUse">
<stop stop-color="#00D890"/>
<stop offset="0.74" stop-color="#A0FFCB"/>
</linearGradient>
<linearGradient id="paint1_linear_8499_53" x1="82.1562" y1="74.8926" x2="42.0062" y2="85.2426" gradientUnits="userSpaceOnUse">
<stop offset="0.3" stop-color="#00D890"/>
<stop offset="1" stop-color="#00724C"/>
</linearGradient>
<linearGradient id="paint2_linear_8499_53" x1="82.1146" y1="75.1322" x2="61.1546" y2="111.742" gradientUnits="userSpaceOnUse">
<stop offset="0.21" stop-color="#A0FFCB"/>
<stop offset="1" stop-color="#00D890"/>
</linearGradient>
<linearGradient id="paint3_linear_8499_53" x1="83.8228" y1="76.0522" x2="92.7828" y2="120.322" gradientUnits="userSpaceOnUse">
<stop stop-color="#00D890"/>
<stop offset="1" stop-color="#00724C"/>
</linearGradient>
<linearGradient id="paint4_linear_8499_53" x1="81.9159" y1="75.8517" x2="116.256" y2="98.3217" gradientUnits="userSpaceOnUse">
<stop stop-color="#A0FFCB"/>
<stop offset="1" stop-color="#00D890"/>
</linearGradient>
<linearGradient id="paint5_linear_8499_53" x1="82.2042" y1="74.6122" x2="116.294" y2="68.5522" gradientUnits="userSpaceOnUse">
<stop stop-color="#00D890"/>
<stop offset="1" stop-color="#00724C"/>
</linearGradient>
<linearGradient id="paint6_linear_8499_53" x1="100.864" y1="45.2022" x2="81.9242" y2="76.0122" gradientUnits="userSpaceOnUse">
<stop stop-color="#00D890"/>
<stop offset="0.75" stop-color="#A0FFCB"/>
</linearGradient>
<linearGradient id="paint7_linear_8499_53" x1="71.1036" y1="34.4618" x2="81.0036" y2="76.0618" gradientUnits="userSpaceOnUse">
<stop stop-color="#00724C"/>
<stop offset="0.81" stop-color="#00D890"/>
</linearGradient>
</defs>
</svg>
