<svg width="194" height="87" viewBox="0 0 194 87" fill="none" xmlns="http://www.w3.org/2000/svg">
<g filter="url(#filter0_d_10387_7)">
<path d="M10.3165 16.9219H181.918C185.383 16.9219 188.187 19.7355 188.187 23.1911V72.9297C188.187 76.4136 185.355 79.2461 181.871 79.2461H10.3165C6.83249 79.2461 4 76.4136 4 72.9297V23.2383C4 19.7544 6.83249 16.9219 10.3165 16.9219Z" fill="#006756"/>
</g>
<path d="M10.3164 17.4219H181.918C185.106 17.4219 187.688 20.0114 187.688 23.1914V72.9297C187.687 76.1374 185.079 78.746 181.871 78.7461H10.3164C7.10862 78.7461 4.50002 76.1375 4.5 72.9297V23.2383L4.50781 22.9395C4.66384 19.8701 7.20884 17.4219 10.3164 17.4219Z" stroke="#81EBA4"/>
<g filter="url(#filter1_f_10387_7)">
<path d="M10.3164 17.4219H181.918C185.106 17.4219 187.688 20.0114 187.688 23.1914V72.9297C187.687 76.1374 185.079 78.746 181.871 78.7461H10.3164C7.10862 78.7461 4.50002 76.1375 4.5 72.9297V23.2383L4.50781 22.9395C4.66384 19.8701 7.20884 17.4219 10.3164 17.4219Z" stroke="#81EBA4"/>
</g>
<g filter="url(#filter2_d_10387_7)">
<rect x="17.0273" y="4.5" width="158.13" height="25.0235" rx="4.5" fill="#006756" stroke="#81EBA4"/>
<g filter="url(#filter3_f_10387_7)">
<rect x="17.0273" y="4.5" width="158.13" height="25.0235" rx="4.5" stroke="#81EBA4"/>
</g>
<g filter="url(#filter4_f_10387_7)">
<rect x="17.0273" y="4.5" width="158.13" height="25.0235" rx="4.5" stroke="#81EBA4"/>
</g>
<rect x="17.0273" y="4.5" width="158.13" height="25.0235" rx="4.5" stroke="#81EBA4"/>
</g>
<path d="M31.4338 19.6367H30.7138C30.5878 19.3667 30.4648 19.0697 30.3448 18.7457C30.2308 18.4217 30.1318 18.0917 30.0478 17.7557C29.9638 17.4197 29.8948 17.0837 29.8408 16.7477C29.7928 16.4057 29.7688 16.0847 29.7688 15.7847C29.7688 15.1787 29.8498 14.5337 30.0118 13.8497C30.1798 13.1657 30.4138 12.4697 30.7138 11.7617H31.4338C31.3378 12.0197 31.2388 12.3197 31.1368 12.6617C31.0348 12.9977 30.9418 13.3517 30.8578 13.7237C30.7738 14.0897 30.7048 14.4587 30.6508 14.8307C30.6028 15.1967 30.5788 15.5357 30.5788 15.8477C30.5788 16.1177 30.6028 16.4117 30.6508 16.7297C30.6988 17.0417 30.7618 17.3627 30.8398 17.6927C30.9178 18.0227 31.0078 18.3527 31.1098 18.6827C31.2118 19.0187 31.3198 19.3367 31.4338 19.6367ZM31.63 20.7527L31.432 20.1407L32.53 19.7807C32.782 19.6967 32.986 19.5437 33.142 19.3217C33.304 19.0997 33.385 18.8537 33.385 18.5837V15.7307H33.997V18.5297C33.997 18.7397 33.964 18.9407 33.898 19.1327C33.838 19.3307 33.748 19.5107 33.628 19.6727C33.514 19.8407 33.373 19.9847 33.205 20.1047C33.043 20.2307 32.863 20.3297 32.665 20.4017L31.63 20.7527ZM37.1858 18.3857C37.1858 18.4697 37.1438 18.5117 37.0598 18.5117H36.7268C36.5408 18.5117 36.3638 18.4757 36.1958 18.4037C36.0278 18.3317 35.8808 18.2327 35.7548 18.1067C35.6288 17.9807 35.5298 17.8337 35.4578 17.6657C35.3858 17.4977 35.3498 17.3207 35.3498 17.1347V12.5807H35.9708V17.1257C35.9708 17.3057 36.0338 17.4587 36.1598 17.5847C36.2918 17.7107 36.4448 17.7737 36.6188 17.7737H37.0598C37.0958 17.7737 37.1258 17.7887 37.1498 17.8187C37.1738 17.8427 37.1858 17.8727 37.1858 17.9087V18.3857ZM37.6326 20.3567H38.3976V19.5917H37.6326V20.3567ZM38.8656 20.3567H39.6306V19.5917H38.8656V20.3567ZM40.2966 18.3857C40.2966 18.4697 40.2546 18.5117 40.1706 18.5117H39.6126C39.5106 18.5117 39.4086 18.4967 39.3066 18.4667C39.2046 18.4367 39.1086 18.3947 39.0186 18.3407C38.9286 18.2867 38.8506 18.2237 38.7846 18.1517C38.7186 18.0797 38.6736 18.0017 38.6496 17.9177C38.5476 18.0917 38.4006 18.2357 38.2086 18.3497C38.0226 18.4577 37.8246 18.5117 37.6146 18.5117H37.0566C36.9726 18.5117 36.9306 18.4697 36.9306 18.3857V17.9087C36.9306 17.8727 36.9426 17.8427 36.9666 17.8187C36.9906 17.7887 37.0206 17.7737 37.0566 17.7737H37.6416C37.8156 17.7737 37.9656 17.7197 38.0916 17.6117C38.2236 17.5037 38.3076 17.3687 38.3436 17.2067L38.6226 15.7847L39.2346 15.8837L39.0006 17.0717C38.9826 17.1617 38.9856 17.2517 39.0096 17.3417C39.0336 17.4257 39.0756 17.5007 39.1356 17.5667C39.1956 17.6267 39.2676 17.6777 39.3516 17.7197C39.4356 17.7557 39.5256 17.7737 39.6216 17.7737H40.1706C40.2066 17.7737 40.2366 17.7887 40.2606 17.8187C40.2846 17.8427 40.2966 17.8727 40.2966 17.9087V18.3857ZM43.858 18.1967L42.544 18.3677C42.202 18.4157 41.857 18.4517 41.509 18.4757C41.161 18.4997 40.816 18.5117 40.474 18.5117H40.168C40.084 18.5117 40.042 18.4697 40.042 18.3857V17.8997C40.042 17.8697 40.054 17.8427 40.078 17.8187C40.102 17.7887 40.132 17.7737 40.168 17.7737H41.239C41.221 17.7317 41.203 17.6927 41.185 17.6567C41.173 17.6147 41.161 17.5697 41.149 17.5217L40.933 16.3877C40.897 16.2077 40.903 16.0337 40.951 15.8657C41.005 15.6977 41.086 15.5507 41.194 15.4247C41.302 15.2927 41.434 15.1877 41.59 15.1097C41.746 15.0317 41.917 14.9927 42.103 14.9927H43.489V15.6767H42.049C41.887 15.6767 41.755 15.7397 41.653 15.8657C41.551 15.9917 41.515 16.1357 41.545 16.2977L41.824 17.7467L43.75 17.5487L43.858 18.1967ZM46.5362 18.5117V14.7947C46.5362 14.5127 46.5212 14.2367 46.4912 13.9667C46.4612 13.6907 46.4192 13.4147 46.3652 13.1387L46.2482 12.6077L46.8602 12.4907L46.9772 13.1027C47.0912 13.6547 47.1482 14.2217 47.1482 14.8037V18.5117H46.5362ZM50.6942 12.4637C50.7362 12.8777 50.7962 13.2767 50.8742 13.6607C50.9522 14.0387 51.0392 14.3987 51.1352 14.7407C51.2372 15.0827 51.3422 15.4037 51.4502 15.7037C51.5642 15.9977 51.6752 16.2677 51.7832 16.5137C52.0412 17.0957 52.3202 17.6177 52.6202 18.0797L52.0892 18.5117C51.8312 18.1157 51.5912 17.6837 51.3692 17.2157C51.1772 16.8197 50.9882 16.3607 50.8022 15.8387C50.6162 15.3167 50.4782 14.7617 50.3882 14.1737C50.2922 14.7617 50.1512 15.3167 49.9652 15.8387C49.7792 16.3607 49.5902 16.8197 49.3982 17.2157C49.1822 17.6837 48.9482 18.1157 48.6962 18.5117L48.1652 18.0797C48.4532 17.6477 48.7232 17.1467 48.9752 16.5767C49.1912 16.0907 49.4042 15.5027 49.6142 14.8127C49.8302 14.1227 49.9892 13.3397 50.0912 12.4637H50.6942ZM59.3902 17.2607C59.5822 17.3027 59.7352 17.3897 59.8492 17.5217C59.9632 17.6537 60.0202 17.8157 60.0202 18.0077V18.3677C60.0202 18.5897 59.9782 18.7997 59.8942 18.9977C59.8102 19.1957 59.6932 19.3667 59.5432 19.5107C59.3992 19.6607 59.2282 19.7777 59.0302 19.8617C58.8382 19.9457 58.6312 19.9877 58.4092 19.9877H56.5912C56.3452 19.9877 56.1112 19.9397 55.8892 19.8437C55.6732 19.7477 55.4842 19.6187 55.3222 19.4567C55.1602 19.2947 55.0312 19.1027 54.9352 18.8807C54.8392 18.6647 54.7912 18.4307 54.7912 18.1787V16.1087H55.4122V18.0797C55.4122 18.2417 55.4422 18.3917 55.5022 18.5297C55.5622 18.6737 55.6462 18.7967 55.7542 18.8987C55.8622 19.0067 55.9882 19.0907 56.1322 19.1507C56.2762 19.2167 56.4292 19.2497 56.5912 19.2497H58.4362C58.5682 19.2497 58.6912 19.2227 58.8052 19.1687C58.9252 19.1207 59.0272 19.0517 59.1112 18.9617C59.2012 18.8777 59.2702 18.7757 59.3182 18.6557C59.3722 18.5357 59.3992 18.4097 59.3992 18.2777V17.9267L56.9422 17.3507V16.3967C56.9422 16.1807 56.9782 15.9797 57.0502 15.7937C57.1282 15.6017 57.2332 15.4337 57.3652 15.2897C57.4972 15.1457 57.6472 15.0287 57.8152 14.9387C57.9892 14.8487 58.1752 14.7917 58.3732 14.7677L59.4172 14.6327L59.5162 15.2807L58.3282 15.4427C58.1002 15.4787 57.9112 15.5897 57.7612 15.7757C57.6172 15.9557 57.5452 16.1597 57.5452 16.3877V16.8287L59.3902 17.2607ZM65.9483 18.3857C65.9483 18.4157 65.9363 18.4457 65.9123 18.4757C65.8883 18.4997 65.8583 18.5117 65.8223 18.5117H65.5343C65.3063 18.5117 65.0963 18.4637 64.9043 18.3677C64.7183 18.2657 64.5653 18.1277 64.4453 17.9537C64.3373 18.0857 64.2083 18.1877 64.0583 18.2597C63.9143 18.3317 63.7553 18.3827 63.5813 18.4127L61.1423 18.7547L61.0613 18.1067L62.0423 17.9807L61.6013 13.3187L62.2223 13.2287L62.6363 17.9087L63.4733 17.8007C63.6833 17.7707 63.8513 17.6867 63.9773 17.5487C64.1033 17.4107 64.1663 17.2217 64.1663 16.9817V12.5807H64.7873V17.1347C64.7873 17.3627 64.8593 17.5277 65.0033 17.6297C65.1473 17.7257 65.3093 17.7737 65.4893 17.7737H65.8223C65.9063 17.7737 65.9483 17.8157 65.9483 17.8997V18.3857ZM71.2862 17.2157C71.2862 17.3957 71.2532 17.5637 71.1872 17.7197C71.1212 17.8757 71.0282 18.0137 70.9082 18.1337C70.7942 18.2477 70.6592 18.3407 70.5032 18.4127C70.3472 18.4787 70.1792 18.5117 69.9992 18.5117H65.8232C65.7932 18.5117 65.7662 18.4997 65.7422 18.4757C65.7122 18.4457 65.6972 18.4157 65.6972 18.3857V17.8997C65.6972 17.8637 65.7122 17.8337 65.7422 17.8097C65.7662 17.7857 65.7932 17.7737 65.8232 17.7737H66.4082L67.4072 16.7027V12.5807H68.0192V15.7397C68.0192 15.8417 68.0102 15.9257 67.9922 15.9917C67.9862 16.0337 67.9772 16.0727 67.9652 16.1087C67.9712 16.1027 67.9862 16.0877 68.0102 16.0637C68.0342 16.0397 68.0582 16.0127 68.0822 15.9827C68.1122 15.9527 68.1392 15.9257 68.1632 15.9017C68.1872 15.8717 68.2022 15.8537 68.2082 15.8477C68.3762 15.6797 68.5682 15.5507 68.7842 15.4607C69.0062 15.3707 69.2372 15.3257 69.4772 15.3257H70.0262C70.2002 15.3257 70.3622 15.3587 70.5122 15.4247C70.6682 15.4907 70.8032 15.5807 70.9172 15.6947C71.0312 15.8087 71.1212 15.9437 71.1872 16.0997C71.2532 16.2497 71.2862 16.4117 71.2862 16.5857V17.2157ZM70.0802 17.7737C70.2422 17.7737 70.3802 17.7167 70.4942 17.6027C70.6082 17.4887 70.6652 17.3537 70.6652 17.1977V16.6307C70.6652 16.4567 70.6052 16.3097 70.4852 16.1897C70.3712 16.0697 70.2272 16.0097 70.0532 16.0097H69.4412C69.2552 16.0097 69.0812 16.0457 68.9192 16.1177C68.7572 16.1897 68.6132 16.2917 68.4872 16.4237L67.2182 17.7737H70.0802ZM77.0539 15.3257C77.2279 15.3257 77.3899 15.3587 77.5399 15.4247C77.6959 15.4907 77.8309 15.5807 77.9449 15.6947C78.0589 15.8027 78.1489 15.9347 78.2149 16.0907C78.2809 16.2407 78.3139 16.4027 78.3139 16.5767V17.7017C78.3139 17.9477 78.2389 18.1457 78.0889 18.2957C77.9449 18.4397 77.7529 18.5117 77.5129 18.5117H76.3969C76.2109 18.5117 76.0399 18.4727 75.8839 18.3947C75.7279 18.3167 75.5959 18.2117 75.4879 18.0797C75.3799 17.9477 75.3019 17.7977 75.2539 17.6297C75.2059 17.4557 75.1999 17.2787 75.2359 17.0987L75.4339 16.0097H74.9479C74.7679 16.0097 74.6119 16.0787 74.4799 16.2167C74.3539 16.3547 74.2909 16.5137 74.2909 16.6937V20.7527H73.6699V16.7117C73.6699 16.5197 73.7059 16.3397 73.7779 16.1717C73.8559 16.0037 73.9579 15.8567 74.0839 15.7307C74.2099 15.6047 74.3569 15.5057 74.5249 15.4337C74.6929 15.3617 74.8729 15.3257 75.0649 15.3257H77.0539ZM77.6929 17.7737V16.5677C77.6929 16.4117 77.6389 16.2797 77.5309 16.1717C77.4229 16.0637 77.2909 16.0097 77.1349 16.0097H76.0639L75.8479 17.1887C75.8179 17.3447 75.8479 17.4827 75.9379 17.6027C76.0279 17.7167 76.1629 17.7737 76.3429 17.7737H77.6929ZM80.2804 15.7397V17.1527C80.2804 17.3267 80.3434 17.4737 80.4694 17.5937C80.6014 17.7137 80.7544 17.7737 80.9284 17.7737H81.8284C81.8644 17.7737 81.8944 17.7887 81.9184 17.8187C81.9424 17.8427 81.9544 17.8727 81.9544 17.9087V18.3857C81.9544 18.4697 81.9124 18.5117 81.8284 18.5117H81.0364C80.8924 18.5117 80.7514 18.4817 80.6134 18.4217C80.4754 18.3617 80.3644 18.2717 80.2804 18.1517V18.5477C80.2804 18.7577 80.2474 18.9587 80.1814 19.1507C80.1154 19.3487 80.0224 19.5287 79.9024 19.6907C79.7884 19.8527 79.6474 19.9937 79.4794 20.1137C79.3114 20.2397 79.1284 20.3357 78.9304 20.4017L77.9044 20.7617L77.7064 20.1407L78.7954 19.7807C79.0594 19.6967 79.2694 19.5437 79.4254 19.3217C79.5814 19.0997 79.6594 18.8537 79.6594 18.5837V15.7397H80.2804ZM83.1601 16.0007L82.7011 15.5687L85.0681 12.8057L85.5091 13.2197L83.7361 15.3257H87.2821C87.4561 15.3257 87.6181 15.3587 87.7681 15.4247C87.9241 15.4907 88.0591 15.5807 88.1731 15.6947C88.2871 15.8027 88.3771 15.9347 88.4431 16.0907C88.5091 16.2407 88.5421 16.4027 88.5421 16.5767V17.2517C88.5421 17.4257 88.5091 17.5907 88.4431 17.7467C88.3771 17.8967 88.2841 18.0287 88.1641 18.1427C88.0501 18.2567 87.9151 18.3467 87.7591 18.4127C87.6091 18.4787 87.4471 18.5117 87.2731 18.5117H81.8281C81.7921 18.5117 81.7621 18.4997 81.7381 18.4757C81.7141 18.4457 81.7021 18.4157 81.7021 18.3857V17.8997C81.7021 17.8157 81.7441 17.7737 81.8281 17.7737H87.3631C87.5191 17.7797 87.6511 17.7287 87.7591 17.6207C87.8671 17.5067 87.9211 17.3687 87.9211 17.2067V16.6037C87.9211 16.4357 87.8611 16.2947 87.7411 16.1807C87.6271 16.0607 87.4831 16.0007 87.3091 16.0007H83.1601ZM82.3231 14.5157L84.1411 12.3647L84.4651 12.6617L82.6471 14.7947L82.3231 14.5157ZM91.2286 18.5117V14.7947C91.2286 14.5127 91.2136 14.2367 91.1836 13.9667C91.1536 13.6907 91.1116 13.4147 91.0576 13.1387L90.9406 12.6077L91.5526 12.4907L91.6696 13.1027C91.7836 13.6547 91.8406 14.2217 91.8406 14.8037V18.5117H91.2286ZM94.0446 19.6367C94.1586 19.3367 94.2666 19.0187 94.3686 18.6827C94.4706 18.3527 94.5606 18.0227 94.6386 17.6927C94.7166 17.3627 94.7796 17.0417 94.8276 16.7297C94.8756 16.4117 94.8996 16.1177 94.8996 15.8477C94.8996 15.5357 94.8726 15.1967 94.8186 14.8307C94.7706 14.4587 94.7046 14.0897 94.6206 13.7237C94.5366 13.3517 94.4436 12.9977 94.3416 12.6617C94.2456 12.3197 94.1466 12.0197 94.0446 11.7617H94.7646C95.0646 12.4697 95.2956 13.1657 95.4576 13.8497C95.6256 14.5337 95.7096 15.1787 95.7096 15.7847C95.7096 16.0847 95.6826 16.4057 95.6286 16.7477C95.5806 17.0837 95.5146 17.4197 95.4306 17.7557C95.3466 18.0917 95.2446 18.4217 95.1246 18.7457C95.0106 19.0697 94.8906 19.3667 94.7646 19.6367H94.0446ZM105.087 18.3857C105.087 18.4697 105.045 18.5117 104.961 18.5117H104.565C104.331 18.5117 104.115 18.4667 103.917 18.3767C103.719 18.2807 103.548 18.1547 103.404 17.9987C103.152 18.2327 102.849 18.3767 102.495 18.4307L99.9297 18.7907L99.7947 17.7287L100.776 17.6027L100.335 12.9137L101.334 12.7877L101.748 17.4767L102.414 17.3867C102.576 17.3687 102.711 17.2997 102.819 17.1797C102.927 17.0537 102.981 16.9097 102.981 16.7477V12.3467H103.971V16.9097C103.971 17.0297 104.013 17.1317 104.097 17.2157C104.181 17.2997 104.283 17.3417 104.403 17.3417H104.961C105.045 17.3417 105.087 17.3837 105.087 17.4677V18.3857ZM110.748 16.9007C110.748 17.1227 110.706 17.3327 110.622 17.5307C110.538 17.7227 110.421 17.8937 110.271 18.0437C110.127 18.1877 109.956 18.3017 109.758 18.3857C109.566 18.4697 109.359 18.5117 109.137 18.5117H104.961C104.925 18.5117 104.895 18.4997 104.871 18.4757C104.847 18.4457 104.835 18.4157 104.835 18.3857V17.4677C104.835 17.3837 104.877 17.3417 104.961 17.3417H105.546L106.491 16.3247V12.3467H107.481V14.8847C107.481 14.9447 107.475 15.0077 107.463 15.0737C107.451 15.1337 107.439 15.1877 107.427 15.2357C107.409 15.2897 107.388 15.3437 107.364 15.3977C107.376 15.3917 107.391 15.3797 107.409 15.3617C107.427 15.3437 107.442 15.3287 107.454 15.3167C107.826 15.0287 108.246 14.8847 108.714 14.8847H109.272C109.476 14.8847 109.668 14.9237 109.848 15.0017C110.028 15.0797 110.184 15.1847 110.316 15.3167C110.448 15.4487 110.553 15.6047 110.631 15.7847C110.709 15.9647 110.748 16.1567 110.748 16.3607V16.9007ZM109.326 17.3417C109.446 17.3417 109.548 17.2997 109.632 17.2157C109.716 17.1317 109.758 17.0297 109.758 16.9097V16.4417C109.758 16.3217 109.716 16.2197 109.632 16.1357C109.548 16.0517 109.446 16.0097 109.326 16.0097H108.561C108.255 16.0097 107.994 16.1237 107.778 16.3517L106.869 17.3417H109.326ZM117.507 17.0627C117.741 17.1167 117.93 17.2337 118.074 17.4137C118.224 17.5937 118.299 17.8067 118.299 18.0527V18.3677C118.299 18.6197 118.251 18.8567 118.155 19.0787C118.059 19.3067 117.927 19.5047 117.759 19.6727C117.597 19.8407 117.402 19.9727 117.174 20.0687C116.952 20.1647 116.712 20.2127 116.454 20.2127H114.654C114.378 20.2127 114.117 20.1587 113.871 20.0507C113.625 19.9487 113.409 19.8047 113.223 19.6187C113.043 19.4387 112.899 19.2257 112.791 18.9797C112.689 18.7397 112.638 18.4787 112.638 18.1967V16.1357H113.628V18.0527C113.628 18.1907 113.655 18.3197 113.709 18.4397C113.763 18.5597 113.835 18.6647 113.925 18.7547C114.015 18.8447 114.12 18.9137 114.24 18.9617C114.36 19.0157 114.489 19.0427 114.627 19.0427H116.562C116.772 19.0427 116.949 18.9707 117.093 18.8267C117.237 18.6827 117.309 18.5057 117.309 18.2957V18.0617L114.789 17.4677V16.4147C114.789 16.1747 114.828 15.9497 114.906 15.7397C114.99 15.5297 115.104 15.3437 115.248 15.1817C115.392 15.0137 115.563 14.8787 115.761 14.7767C115.959 14.6687 116.175 14.5997 116.409 14.5697L117.669 14.4077L117.831 15.4877L116.391 15.6767C116.205 15.7007 116.049 15.7817 115.923 15.9197C115.803 16.0577 115.743 16.2197 115.743 16.4057V16.6667L117.507 17.0627ZM120.325 18.5117H119.335V12.3467H120.325V18.5117ZM121.312 16.1267C121.312 15.9407 121.342 15.7637 121.402 15.5957C121.462 15.4217 121.546 15.2657 121.654 15.1277C121.762 14.9897 121.888 14.8697 122.032 14.7677C122.182 14.6657 122.347 14.5937 122.527 14.5517L123.715 14.2637V13.5887H124.705V16.8557C124.705 16.9877 124.756 17.1017 124.858 17.1977C124.966 17.2937 125.089 17.3417 125.227 17.3417H125.497C125.527 17.3417 125.554 17.3537 125.578 17.3777C125.608 17.4017 125.623 17.4317 125.623 17.4677V18.3857C125.623 18.4217 125.608 18.4517 125.578 18.4757C125.554 18.4997 125.527 18.5117 125.497 18.5117H125.227C124.921 18.5117 124.66 18.4367 124.444 18.2867C124.228 18.1367 124.051 17.9357 123.913 17.6837C123.847 17.7317 123.757 17.7707 123.643 17.8007C123.529 17.8247 123.424 17.8367 123.328 17.8367H122.446C122.29 17.8367 122.143 17.8067 122.005 17.7467C121.867 17.6867 121.747 17.6057 121.645 17.5037C121.543 17.4017 121.462 17.2817 121.402 17.1437C121.342 17.0057 121.312 16.8587 121.312 16.7027V16.1267ZM123.715 15.3257L122.797 15.5507C122.647 15.5867 122.527 15.6647 122.437 15.7847C122.347 15.9047 122.302 16.0427 122.302 16.1987V16.6667H123.715V15.3257ZM132.224 18.3857C132.224 18.4697 132.182 18.5117 132.098 18.5117H131.891C131.675 18.5117 131.471 18.4697 131.279 18.3857C131.093 18.2957 130.931 18.1577 130.793 17.9717C130.649 18.1577 130.481 18.2957 130.289 18.3857C130.097 18.4697 129.893 18.5117 129.677 18.5117H125.501C125.465 18.5117 125.435 18.4997 125.411 18.4757C125.387 18.4457 125.375 18.4127 125.375 18.3767V17.4677C125.375 17.3837 125.417 17.3417 125.501 17.3417H126.086L127.031 16.3157V12.3467H128.021V14.8847C128.021 14.9447 128.015 15.0077 128.003 15.0737C127.991 15.1337 127.979 15.1877 127.967 15.2357C127.949 15.2897 127.928 15.3437 127.904 15.3977C127.916 15.3917 127.934 15.3797 127.958 15.3617C127.982 15.3377 128.012 15.3107 128.048 15.2807C128.204 15.1607 128.387 15.0647 128.597 14.9927C128.807 14.9207 129.026 14.8847 129.254 14.8847H129.812C130.016 14.8847 130.208 14.9237 130.388 15.0017C130.568 15.0797 130.724 15.1847 130.856 15.3167C130.988 15.4487 131.093 15.6047 131.171 15.7847C131.249 15.9647 131.288 16.1567 131.288 16.3607V16.9187C131.288 17.0387 131.33 17.1407 131.414 17.2247C131.498 17.3027 131.6 17.3417 131.72 17.3417H132.098C132.182 17.3417 132.224 17.3837 132.224 17.4677V18.3857ZM129.866 17.3417C129.986 17.3417 130.088 17.2997 130.172 17.2157C130.256 17.1317 130.298 17.0297 130.298 16.9097V16.4417C130.298 16.3217 130.256 16.2197 130.172 16.1357C130.088 16.0517 129.986 16.0097 129.866 16.0097H129.101C128.795 16.0097 128.534 16.1237 128.318 16.3517L127.4 17.3417H129.866ZM128.876 13.0397H129.911V14.0747H128.876V13.0397ZM132.102 18.5117C132.018 18.5117 131.976 18.4697 131.976 18.3857V17.4767C131.976 17.4467 131.991 17.4167 132.021 17.3867C132.045 17.3567 132.072 17.3417 132.102 17.3417H133.713C133.965 17.3417 134.214 17.3027 134.46 17.2247C134.706 17.1407 134.916 17.0057 135.09 16.8197L135.612 16.2617C135.642 16.2317 135.669 16.2047 135.693 16.1807C135.717 16.1567 135.732 16.1447 135.738 16.1447L133.848 15.5777C133.788 15.5597 133.734 15.5657 133.686 15.5957C133.644 15.6197 133.611 15.6587 133.587 15.7127L133.245 16.6127L132.381 16.3787L132.615 15.5507C132.669 15.3647 132.753 15.2057 132.867 15.0737C132.981 14.9417 133.113 14.8397 133.263 14.7677C133.413 14.6897 133.572 14.6447 133.74 14.6327C133.908 14.6147 134.07 14.6297 134.226 14.6777L137.808 15.7487L137.511 16.6757L137.088 16.5497C136.986 16.5257 136.899 16.5197 136.827 16.5317C136.761 16.5437 136.698 16.5677 136.638 16.6037V16.9097C136.638 17.0297 136.68 17.1317 136.764 17.2157C136.848 17.2997 136.95 17.3417 137.07 17.3417H138.267C138.351 17.3417 138.393 17.3837 138.393 17.4677V18.3857C138.393 18.4697 138.351 18.5117 138.267 18.5117H137.232C136.872 18.5117 136.566 18.4097 136.314 18.2057C136.068 17.9957 135.897 17.7287 135.801 17.4047L135.441 17.7647C135.183 18.0227 134.883 18.2117 134.541 18.3317C134.199 18.4517 133.848 18.5117 133.488 18.5117H132.102ZM138.137 17.4677C138.137 17.3837 138.179 17.3417 138.263 17.3417H138.812C138.932 17.3417 139.034 17.2997 139.118 17.2157C139.202 17.1317 139.244 17.0297 139.244 16.9097V12.3467H140.234V16.9097C140.234 17.1317 140.192 17.3417 140.108 17.5397C140.024 17.7317 139.91 17.8997 139.766 18.0437C139.622 18.1877 139.451 18.3017 139.253 18.3857C139.061 18.4697 138.854 18.5117 138.632 18.5117H138.263C138.233 18.5117 138.206 18.4997 138.182 18.4757C138.152 18.4517 138.137 18.4217 138.137 18.3857V17.4677ZM144.276 15.0377H145.311V14.0027H144.276V15.0377ZM145.779 15.0377H146.814V14.0027H145.779V15.0377ZM143.106 15.0377V16.6037C143.106 16.8137 143.178 16.9907 143.322 17.1347C143.466 17.2727 143.643 17.3417 143.853 17.3417H147.543C147.663 17.3417 147.765 17.3027 147.849 17.2247C147.933 17.1407 147.975 17.0387 147.975 16.9187V15.2987H148.965V16.9097C148.965 17.0297 149.007 17.1317 149.091 17.2157C149.175 17.2997 149.277 17.3417 149.397 17.3417H149.667C149.751 17.3417 149.793 17.3837 149.793 17.4677V18.3857C149.793 18.4697 149.751 18.5117 149.667 18.5117H149.568C149.352 18.5117 149.151 18.4667 148.965 18.3767C148.779 18.2807 148.617 18.1487 148.479 17.9807C148.329 18.1667 148.158 18.3017 147.966 18.3857C147.78 18.4697 147.579 18.5117 147.363 18.5117H143.943C143.691 18.5117 143.454 18.4637 143.232 18.3677C143.01 18.2717 142.815 18.1427 142.647 17.9807C142.485 17.8127 142.356 17.6177 142.26 17.3957C142.164 17.1737 142.116 16.9367 142.116 16.6847V15.0377H143.106ZM149.671 18.5117C149.587 18.5117 149.545 18.4697 149.545 18.3857V17.4677C149.545 17.3837 149.587 17.3417 149.671 17.3417H149.959C150.079 17.3417 150.181 17.3057 150.265 17.2337C150.355 17.1617 150.412 17.0657 150.436 16.9457L150.616 16.0187C150.646 15.8567 150.703 15.7067 150.787 15.5687C150.877 15.4247 150.982 15.3047 151.102 15.2087C151.222 15.1067 151.357 15.0287 151.507 14.9747C151.663 14.9147 151.825 14.8847 151.993 14.8847H152.497C152.701 14.8847 152.893 14.9237 153.073 15.0017C153.253 15.0797 153.409 15.1847 153.541 15.3167C153.673 15.4487 153.778 15.6047 153.856 15.7847C153.934 15.9647 153.973 16.1567 153.973 16.3607V16.9097C153.973 17.0297 154.015 17.1317 154.099 17.2157C154.183 17.2997 154.285 17.3417 154.405 17.3417H154.747C154.831 17.3417 154.873 17.3837 154.873 17.4677V18.3857C154.873 18.4217 154.858 18.4517 154.828 18.4757C154.804 18.4997 154.777 18.5117 154.747 18.5117H154.576C154.402 18.5117 154.234 18.4817 154.072 18.4217C153.916 18.3617 153.772 18.2627 153.64 18.1247C153.448 18.3827 153.196 18.5117 152.884 18.5117H151.84C151.66 18.5117 151.489 18.4727 151.327 18.3947C151.165 18.3167 151.018 18.1817 150.886 17.9897C150.748 18.1817 150.595 18.3167 150.427 18.3947C150.259 18.4727 150.079 18.5117 149.887 18.5117H149.671ZM151.714 17.3417H152.983V16.3517C152.983 16.2557 152.95 16.1747 152.884 16.1087C152.818 16.0427 152.737 16.0097 152.641 16.0097H151.912C151.828 16.0097 151.756 16.0367 151.696 16.0907C151.636 16.1387 151.597 16.2047 151.579 16.2887L151.435 17.0087C151.417 17.0927 151.435 17.1707 151.489 17.2427C151.549 17.3087 151.624 17.3417 151.714 17.3417ZM155.174 20.6267H156.2V19.5917H155.174V20.6267ZM156.668 20.6267H157.703V19.5917H156.668V20.6267ZM158.252 18.3857C158.252 18.4157 158.24 18.4457 158.216 18.4757C158.192 18.4997 158.162 18.5117 158.126 18.5117H157.442C157.25 18.5117 157.058 18.4607 156.866 18.3587C156.674 18.2507 156.545 18.1247 156.479 17.9807C156.437 18.0527 156.377 18.1217 156.299 18.1877C156.221 18.2477 156.134 18.3047 156.038 18.3587C155.948 18.4067 155.849 18.4457 155.741 18.4757C155.639 18.4997 155.537 18.5117 155.435 18.5117H154.751C154.667 18.5117 154.625 18.4697 154.625 18.3857V17.4767C154.625 17.4407 154.637 17.4107 154.661 17.3867C154.685 17.3567 154.715 17.3417 154.751 17.3417H155.525C155.645 17.3417 155.75 17.3057 155.84 17.2337C155.93 17.1617 155.987 17.0657 156.011 16.9457L156.344 15.3257L157.316 15.4967L157.046 16.8557C157.016 16.9817 157.043 17.0957 157.127 17.1977C157.211 17.2937 157.319 17.3417 157.451 17.3417H158.126C158.162 17.3417 158.192 17.3567 158.216 17.3867C158.24 17.4107 158.252 17.4407 158.252 17.4767V18.3857ZM159.818 15.6497H161.033V14.7137C161.033 14.6177 161 14.5367 160.934 14.4707C160.868 14.4047 160.787 14.3717 160.691 14.3717H159.998C159.914 14.3717 159.839 14.3987 159.773 14.4527C159.707 14.5067 159.668 14.5757 159.656 14.6597L159.539 15.2987C159.521 15.3887 159.539 15.4697 159.593 15.5417C159.653 15.6137 159.728 15.6497 159.818 15.6497ZM162.023 16.9007C162.023 17.1227 161.981 17.3327 161.897 17.5307C161.813 17.7227 161.696 17.8937 161.546 18.0437C161.402 18.1877 161.231 18.3017 161.033 18.3857C160.841 18.4697 160.634 18.5117 160.412 18.5117H158.126C158.09 18.5117 158.06 18.4997 158.036 18.4757C158.012 18.4457 158 18.4127 158 18.3767V17.4677C158 17.4377 158.012 17.4107 158.036 17.3867C158.054 17.3567 158.084 17.3417 158.126 17.3417H160.601C160.721 17.3417 160.823 17.2997 160.907 17.2157C160.991 17.1317 161.033 17.0297 161.033 16.9097V16.7207C160.853 16.7867 160.673 16.8197 160.493 16.8197H159.962C159.74 16.8197 159.533 16.7717 159.341 16.6757C159.149 16.5797 158.987 16.4537 158.855 16.2977C158.729 16.1357 158.639 15.9527 158.585 15.7487C158.531 15.5447 158.525 15.3317 158.567 15.1097L158.702 14.3897C158.732 14.2217 158.789 14.0687 158.873 13.9307C158.963 13.7927 159.068 13.6727 159.188 13.5707C159.308 13.4687 159.443 13.3907 159.593 13.3367C159.749 13.2767 159.911 13.2467 160.079 13.2467H160.565C160.769 13.2467 160.958 13.2857 161.132 13.3637C161.312 13.4417 161.468 13.5467 161.6 13.6787C161.732 13.8107 161.834 13.9667 161.906 14.1467C161.984 14.3207 162.023 14.5067 162.023 14.7047V16.9007ZM159.008 11.4107H160.043V12.4457H159.008V11.4107ZM160.511 11.4107H161.546V12.4457H160.511V11.4107Z" fill="white"/>
<defs>
<filter id="filter0_d_10387_7" x="1" y="15.9219" width="192.188" height="70.3242" filterUnits="userSpaceOnUse" color-interpolation-filters="sRGB">
<feFlood flood-opacity="0" result="BackgroundImageFix"/>
<feColorMatrix in="SourceAlpha" type="matrix" values="0 0 0 0 0 0 0 0 0 0 0 0 0 0 0 0 0 0 127 0" result="hardAlpha"/>
<feOffset dx="1" dy="3"/>
<feGaussianBlur stdDeviation="2"/>
<feColorMatrix type="matrix" values="0 0 0 0 0.00792158 0 0 0 0 0.130769 0 0 0 0 0.0702621 0 0 0 1 0"/>
<feBlend mode="normal" in2="BackgroundImageFix" result="effect1_dropShadow_10387_7"/>
<feBlend mode="normal" in="SourceGraphic" in2="effect1_dropShadow_10387_7" result="shape"/>
</filter>
<filter id="filter1_f_10387_7" x="0" y="12.9219" width="192.188" height="70.3242" filterUnits="userSpaceOnUse" color-interpolation-filters="sRGB">
<feFlood flood-opacity="0" result="BackgroundImageFix"/>
<feBlend mode="normal" in="SourceGraphic" in2="BackgroundImageFix" result="shape"/>
<feGaussianBlur stdDeviation="2" result="effect1_foregroundBlur_10387_7"/>
</filter>
<filter id="filter2_d_10387_7" x="12.5273" y="4" width="167.131" height="34.0234" filterUnits="userSpaceOnUse" color-interpolation-filters="sRGB">
<feFlood flood-opacity="0" result="BackgroundImageFix"/>
<feColorMatrix in="SourceAlpha" type="matrix" values="0 0 0 0 0 0 0 0 0 0 0 0 0 0 0 0 0 0 127 0" result="hardAlpha"/>
<feOffset dy="4"/>
<feGaussianBlur stdDeviation="2"/>
<feComposite in2="hardAlpha" operator="out"/>
<feColorMatrix type="matrix" values="0 0 0 0 0 0 0 0 0 0 0 0 0 0 0 0 0 0 0.25 0"/>
<feBlend mode="normal" in2="BackgroundImageFix" result="effect1_dropShadow_10387_7"/>
<feBlend mode="normal" in="SourceGraphic" in2="effect1_dropShadow_10387_7" result="shape"/>
</filter>
<filter id="filter3_f_10387_7" x="12.5273" y="0" width="167.131" height="34.0234" filterUnits="userSpaceOnUse" color-interpolation-filters="sRGB">
<feFlood flood-opacity="0" result="BackgroundImageFix"/>
<feBlend mode="normal" in="SourceGraphic" in2="BackgroundImageFix" result="shape"/>
<feGaussianBlur stdDeviation="2" result="effect1_foregroundBlur_10387_7"/>
</filter>
<filter id="filter4_f_10387_7" x="12.5273" y="0" width="167.131" height="34.0234" filterUnits="userSpaceOnUse" color-interpolation-filters="sRGB">
<feFlood flood-opacity="0" result="BackgroundImageFix"/>
<feBlend mode="normal" in="SourceGraphic" in2="BackgroundImageFix" result="shape"/>
<feGaussianBlur stdDeviation="2" result="effect1_foregroundBlur_10387_7"/>
</filter>
</defs>
</svg>
