<svg width="98" height="21" viewBox="0 0 98 21" fill="none" xmlns="http://www.w3.org/2000/svg">
<path d="M52.5632 3.33398C51.6191 3.33398 50.959 3.91736 50.959 4.73868C50.959 5.56768 51.6191 6.15105 52.5632 6.15105C53.4997 6.15105 54.1598 5.56768 54.1598 4.73868C54.1598 3.91736 53.4997 3.33398 52.5632 3.33398Z" fill="#FAFFFE"/>
<path d="M66.9866 16.6709C65.9501 16.6709 65.3633 16.0536 65.3633 14.9562V5.04873C65.3633 3.94367 65.9349 3.33398 66.9637 3.33398C67.9926 3.33398 68.5641 3.95129 68.5641 5.04873V14.9562C68.5641 16.0612 68.0078 16.6709 66.9866 16.6709Z" fill="#FAFFFE"/>
<path d="M62.0762 16.6698C62.8488 16.6698 63.3934 16.1885 63.3934 15.5046C63.3934 14.827 62.8488 14.3457 62.0762 14.3457H58.9954C58.2165 14.3457 57.6719 14.827 57.6719 15.5046C57.6719 16.1885 58.2165 16.6698 58.9954 16.6698H62.0762Z" fill="#FAFFFE"/>
<path d="M39.4044 16.6698C40.1769 16.6698 40.7215 16.1885 40.7215 15.5046C40.7215 14.827 40.1769 14.3457 39.4044 14.3457H36.3235C35.5446 14.3457 35 14.827 35 15.5046C35 16.1885 35.5446 16.6698 36.3235 16.6698H39.4044Z" fill="#FAFFFE"/>
<path d="M37.278 13.2549H38.9939C39.6941 13.2549 40.2897 13.1771 40.7808 13.0215C41.2719 12.861 41.6828 12.6301 42.0135 12.3286C42.3878 11.9833 42.6699 11.553 42.8595 11.0376C43.0491 10.5222 43.144 9.91922 43.144 9.22875C43.144 8.71334 43.1221 8.28793 43.0783 7.95237C43.0394 7.61689 42.9908 7.29596 42.9324 6.98967C42.8595 6.62009 42.7185 6.33078 42.5094 6.1217C42.3003 5.90775 42.0086 5.80078 41.6342 5.80078C41.2938 5.80078 41.0094 5.91018 40.7808 6.12899C40.5523 6.34294 40.438 6.6201 40.438 6.96048C40.438 7.0966 40.4624 7.29109 40.511 7.54396C40.5596 7.79682 40.6082 8.06669 40.6568 8.35355C40.7055 8.6404 40.7298 8.90546 40.7298 9.14858C40.7298 9.54244 40.5888 9.79767 40.3068 9.91442C40.0247 10.0262 39.6698 10.0822 39.2419 10.0822H37.1445C36.7343 10.0822 36.3906 10.3923 36.3485 10.8003L36.2167 12.0784C36.1518 12.7077 36.6455 13.2549 37.278 13.2549Z" fill="#FAFFFE"/>
<path fill-rule="evenodd" clip-rule="evenodd" d="M45.4011 16.897C45.1142 16.897 44.8371 16.8825 44.5696 16.8533C44.3022 16.8241 44.0615 16.7706 43.8475 16.6928C43.5558 16.5955 43.3224 16.4472 43.1474 16.2479C42.9723 16.0486 42.8848 15.7811 42.8848 15.4456C42.8848 15.0809 43.0015 14.7697 43.2349 14.512C43.4683 14.2591 43.7697 14.1328 44.1393 14.1328C44.2365 14.1328 44.3605 14.1449 44.5113 14.1692C44.662 14.1935 44.8395 14.2057 45.0437 14.2057C45.7341 14.2057 46.3079 14.1109 46.765 13.9212C47.227 13.7316 47.5941 13.4934 47.8664 13.2064C48.1435 12.9196 48.3502 12.6254 48.4863 12.3239C48.6225 12.0225 48.7124 11.7623 48.7561 11.5435H48.6432C48.4297 11.9823 48.1439 12.3106 47.7861 12.5281C47.4311 12.7469 47.0348 12.8564 46.5972 12.8564C45.829 12.8564 45.192 12.6132 44.6863 12.127C44.1855 11.6407 43.9351 10.9382 43.9351 10.0191C43.9351 9.34329 44.0834 8.71599 44.3799 8.1374C44.6814 7.55873 45.0899 7.09194 45.6053 6.737C46.1208 6.37718 46.7042 6.19727 47.3558 6.19727C47.9831 6.19727 48.5495 6.38447 49.0552 6.75888C49.5609 7.12844 49.962 7.65354 50.2586 8.33433C50.5553 9.01017 50.7036 9.81008 50.7036 10.7339C50.7036 11.8279 50.5431 12.7664 50.2222 13.5492C49.9062 14.3273 49.488 14.9618 48.9677 15.4529C48.4474 15.9489 47.8761 16.3135 47.2537 16.5469C46.6313 16.7803 46.0138 16.897 45.4011 16.897ZM48.0049 9.39191C48.1167 9.5409 48.2084 9.70986 48.2802 9.89879C48.1154 9.98064 47.9264 10.0451 47.7132 10.0921C47.4263 10.1553 47.1516 10.1869 46.889 10.1869C46.5243 10.1869 46.2544 10.1407 46.0794 10.0483C45.9092 9.95107 45.8241 9.82951 45.8241 9.68365C45.8241 9.54746 45.8703 9.4089 45.9627 9.26791C46.0599 9.12685 46.1913 9.01017 46.3566 8.9178C46.5219 8.82056 46.7115 8.77193 46.9255 8.77193C47.1248 8.77193 47.3169 8.82543 47.5016 8.93236C47.6913 9.03936 47.8591 9.19254 48.0049 9.39191Z" fill="#FAFFFE"/>
<path d="M59.4051 13.4814H59.4034H59.4019C58.9448 13.4814 58.5096 13.4061 58.0963 13.2553C57.6879 13.0998 57.3402 12.8323 57.0533 12.453C56.985 12.3611 56.9228 12.2601 56.8668 12.15C56.8142 12.2779 56.7549 12.3934 56.6886 12.4968C56.4455 12.8712 56.1197 13.1289 55.7113 13.2699C55.3034 13.4107 54.8204 13.4812 54.2621 13.4814H52.5456C51.913 13.4814 51.4194 12.9342 51.4842 12.305L51.6161 11.0268C51.6582 10.6189 52.002 10.3087 52.412 10.3087H54.5078C54.785 10.3087 55.0257 10.2771 55.2299 10.2139C55.4341 10.1507 55.5922 10.0243 55.704 9.83458C55.8159 9.64009 55.8718 9.35323 55.8718 8.974V8.2154C55.8718 7.86049 55.986 7.56631 56.2146 7.33288C56.4431 7.09952 56.73 6.98284 57.0752 6.98284C57.4253 6.98284 57.7147 7.09952 57.9431 7.33288C58.1717 7.56143 58.2859 7.85317 58.2859 8.20816V8.974C58.2859 9.35323 58.3419 9.64009 58.4537 9.83458C58.5655 10.0243 58.7235 10.1507 58.9278 10.2139C59.132 10.2771 59.3703 10.3087 59.6426 10.3087H59.6481H59.6531C60.0809 10.3087 60.4359 10.2527 60.7179 10.1409C61 10.0243 61.1409 9.76896 61.1409 9.3751C61.1409 9.13199 61.1166 8.867 61.068 8.58015C61.0194 8.29321 60.9708 8.02335 60.9221 7.77056C60.8735 7.51769 60.8492 7.3232 60.8492 7.18701C60.8492 6.84666 60.9635 6.5695 61.192 6.35555C61.4206 6.13674 61.705 6.02734 62.0453 6.02734C62.4198 6.02734 62.7115 6.13431 62.9206 6.34826C63.1297 6.55735 63.2707 6.84666 63.3436 7.2162C63.402 7.52257 63.4506 7.84349 63.4895 8.17897C63.5333 8.51445 63.5552 8.93994 63.5552 9.45535C63.5552 10.1458 63.4604 10.7487 63.2707 11.2641C63.0811 11.7796 62.7991 12.2099 62.4246 12.5552C62.094 12.8566 61.6831 13.0876 61.192 13.2481C60.7009 13.4036 60.1052 13.4814 59.4051 13.4814Z" fill="#FAFFFE"/>
<path d="M86.1704 20.0352L79.625 16.2562C80.1027 16.5205 80.6521 16.671 81.2367 16.671C83.0781 16.671 84.5709 15.1782 84.5709 13.3368V11.4117L87.9055 13.3369L92.9071 10.4492C94.5018 9.52849 96.541 10.0749 97.4617 11.6696C98.3824 13.2644 97.8361 15.3035 96.2414 16.2243L89.6114 20.0521C89.5472 20.0902 89.4819 20.1261 89.4155 20.1598C88.8749 20.435 88.2905 20.5488 87.7202 20.5166C87.1736 20.4857 86.64 20.3207 86.1704 20.0352Z" fill="#81EBA4"/>
<path d="M82.0965 0.113388C82.4004 0.194622 82.6872 0.317733 82.9504 0.476153L83.7137 0.916843C84.9877 0.328677 86.4064 0.000556526 87.9017 0.000556526C93.426 0.000556526 97.9044 4.47891 97.9044 10.0033V13.2475C97.8904 12.7102 97.7459 12.1686 97.4582 11.6704C96.5375 10.0757 94.4984 9.52922 92.9037 10.4499L91.2359 11.4128V10.0033C91.2359 8.16184 89.7431 6.66902 87.9017 6.66902C86.0602 6.66902 84.5675 8.16184 84.5675 10.0033V13.3375C84.5675 15.1789 83.0746 16.6717 81.2332 16.6717C79.3917 16.6717 77.899 15.1789 77.899 13.3375V3.39257C77.8934 3.08545 77.9302 2.77549 78.0118 2.47165C78.1173 2.07658 78.2937 1.71041 78.5264 1.38754C78.809 0.993626 79.1656 0.677327 79.5658 0.446781C79.9656 0.215488 80.4178 0.0648062 80.9003 0.0169731C81.2963 -0.0230963 81.7015 0.00728442 82.0965 0.113388Z" fill="#FAFFFE"/>
</svg>
