<svg width="81" height="24" viewBox="0 0 81 24" fill="none" xmlns="http://www.w3.org/2000/svg">
<g filter="url(#filter0_d_9980_5)">
<path d="M1 11.0039C1 5.4789 5.4789 1 11.0039 1H67.7041C73.2291 1 77.708 5.4789 77.708 11.0039C77.708 16.5289 73.2291 21.0078 67.7041 21.0078H11.0039C5.4789 21.0078 1 16.5289 1 11.0039Z" fill="#FAEE23"/>
<path d="M11.0039 1.5H67.7041C72.953 1.5 77.208 5.75504 77.208 11.0039C77.208 16.2528 72.953 20.5078 67.7041 20.5078H11.0039C5.75504 20.5078 1.5 16.2528 1.5 11.0039C1.5 5.75504 5.75504 1.5 11.0039 1.5Z" stroke="#F2FA40"/>
</g>
<path d="M15.8068 10.935C15.8068 10.7102 15.8456 10.5281 15.9231 10.3886H15.6325C15.3302 10.3886 15.1791 10.5591 15.1791 10.9001V16.131H13.1914V10.935C13.1914 10.16 13.42 9.54782 13.8772 9.09835C14.3344 8.64113 14.9544 8.41253 15.7371 8.41253H18.2828C19.0267 8.41253 19.5847 8.60239 19.9566 8.98211C20.3364 9.36183 20.5262 9.91204 20.5262 10.6327V11.2604C20.5262 11.9579 20.3092 12.5081 19.8753 12.9111C19.4413 13.3063 18.8562 13.5039 18.12 13.5039C17.3838 13.5039 16.8142 13.3179 16.4113 12.9459C16.0083 12.574 15.8068 12.0431 15.8068 11.3534V10.935ZM18.1781 11.551C18.5036 11.551 18.6664 11.4116 18.6664 11.1326V10.7839C18.6664 10.6444 18.6237 10.5397 18.5385 10.47C18.461 10.3925 18.3448 10.3538 18.1898 10.3538H18.1317C17.9767 10.3538 17.8604 10.3925 17.7829 10.47C17.7054 10.5475 17.6667 10.6521 17.6667 10.7839V11.1093C17.6667 11.4038 17.8372 11.551 18.1781 11.551ZM21.7298 6.05282H23.7059V13.5039H21.7298V6.05282ZM29.835 12.9111C29.835 13.9495 29.5638 14.7593 29.0213 15.3405C28.4788 15.9217 27.731 16.2123 26.7778 16.2123H25.0807L24.918 14.1665H27.0801C27.3436 14.1665 27.545 14.1045 27.6845 13.9805C27.824 13.8643 27.8938 13.7054 27.8938 13.5039H27.4404C26.5647 13.5039 25.937 13.3218 25.5573 12.9576C25.1853 12.5856 24.9994 11.9811 24.9994 11.1442C24.9994 10.6405 25.1001 10.1949 25.3016 9.80742C25.5031 9.4122 25.7859 9.10223 26.1501 8.87749C26.5144 8.65276 26.9328 8.54039 27.4056 8.54039C28.1727 8.54039 28.7695 8.77675 29.1957 9.24946C29.6219 9.72218 29.835 10.3886 29.835 11.2488V12.9111ZM26.8941 11.0396C26.8941 11.2256 26.9367 11.3573 27.022 11.4348C27.1072 11.5123 27.2544 11.551 27.4637 11.551H27.9403V11.121C27.9403 10.6715 27.7582 10.4468 27.3939 10.4468C27.2312 10.4468 27.1072 10.501 27.022 10.6095C26.9367 10.718 26.8941 10.8613 26.8941 11.0396ZM38.5922 11.4232C38.8324 11.4232 38.9525 11.3224 38.9525 11.121V9.26109H40.9402V11.0977C40.9402 11.3147 41.0604 11.4232 41.3006 11.4232H41.6028C41.6803 11.4232 41.7191 11.7719 41.7191 12.4694C41.7191 13.1591 41.6803 13.5039 41.6028 13.5039H41.196C40.5915 13.5039 40.1614 13.3528 39.9057 13.0506C39.7585 13.2133 39.5802 13.3295 39.371 13.3993C39.1695 13.469 38.9099 13.5039 38.5922 13.5039H35.2095C34.4888 13.5039 33.9348 13.3102 33.5473 12.9227C33.1598 12.5275 32.9661 11.9656 32.9661 11.2372V9.26109H34.9538V10.9698C34.9538 11.1248 34.9848 11.2411 35.0468 11.3186C35.1165 11.3883 35.2289 11.4232 35.3839 11.4232H38.5922ZM38.6619 6.95951V8.52877H35.2444V6.95951H38.6619ZM42.6841 11.4232C42.5756 11.3147 42.4903 11.1752 42.4283 11.0047C42.3741 10.8342 42.347 10.6521 42.347 10.4584C42.347 10.0477 42.4438 9.66018 42.6376 9.29596C42.8313 8.92399 43.1103 8.62563 43.4745 8.4009C43.8465 8.16842 44.2882 8.05218 44.7996 8.05218C45.5746 8.05218 46.1636 8.28078 46.5665 8.738C46.9772 9.18747 47.1826 9.83842 47.1826 10.6909V11.1326C47.1826 11.8998 46.9307 12.4887 46.427 12.8995C45.9233 13.3024 45.2065 13.5039 44.2766 13.5039H41.603C41.5255 13.5039 41.4868 13.1591 41.4868 12.4694C41.4868 11.7719 41.5255 11.4232 41.603 11.4232H42.5794H42.6841ZM45.2065 11.4232C45.284 11.3069 45.3227 11.0938 45.3227 10.7839V10.7257C45.3227 10.4932 45.2762 10.3111 45.1832 10.1794C45.0903 10.0477 44.9469 9.98179 44.7532 9.98179C44.6137 9.98179 44.4935 10.0322 44.3928 10.1329C44.2998 10.2336 44.2533 10.3538 44.2533 10.4932C44.2533 10.7025 44.3269 10.8846 44.4742 11.0396C44.6292 11.1946 44.8733 11.3224 45.2065 11.4232ZM43.7767 7.27336V5.7041H45.7993V7.27336H43.7767ZM51.092 11.4232C51.1308 11.4232 51.1579 11.4852 51.1734 11.6092C51.1967 11.7332 51.2083 12.0199 51.2083 12.4694C51.2083 12.9033 51.1967 13.1862 51.1734 13.3179C51.1579 13.4419 51.1308 13.5039 51.092 13.5039H50.5573C49.8366 13.5039 49.2942 13.3063 48.9299 12.9111C48.5657 12.5081 48.3836 11.9346 48.3836 11.1907V6.05282H50.3597V11.028C50.3597 11.1675 50.3868 11.2682 50.4411 11.3302C50.4953 11.3922 50.5845 11.4232 50.7084 11.4232H51.092ZM53.8363 11.4232C53.9293 11.4232 54.0068 11.3961 54.0688 11.3418C54.1386 11.2798 54.1734 11.2023 54.1734 11.1093V9.26109H56.1147V11.2139C56.1147 11.9191 55.9054 12.4771 55.487 12.8878C55.0763 13.2985 54.5183 13.5039 53.8131 13.5039H51.093C51.0155 13.5039 50.9768 13.1591 50.9768 12.4694C50.9768 11.7719 51.0155 11.4232 51.093 11.4232H53.8363ZM54.6268 14.3641V15.9334H51.2093V14.3641H54.6268ZM59.4789 12.9343C59.4789 13.5698 59.3471 14.1355 59.0837 14.6314C58.8279 15.1274 58.4598 15.5149 57.9794 15.7939C57.4989 16.0728 56.9371 16.2123 56.2939 16.2123H55.7824L55.6197 14.1316H56.166C56.6 14.1316 56.9293 14.0309 57.154 13.8294C57.3788 13.6356 57.4911 13.3489 57.4911 12.9692V9.26109H59.4789V12.9343ZM65.1644 9.56332C65.4822 9.94304 65.703 10.2879 65.827 10.5979C65.951 10.9001 66.013 11.2062 66.013 11.5162C66.013 12.1129 65.8115 12.5933 65.4086 12.9576C65.0056 13.3218 64.4554 13.5039 63.7579 13.5039H60.5729L60.4218 11.4232H63.3395C63.4557 11.4232 63.5487 11.3999 63.6184 11.3534C63.6959 11.3069 63.7347 11.2449 63.7347 11.1675C63.7347 11.059 63.6611 10.9195 63.5138 10.749L61.7121 8.61014L63.2 7.16874L65.1644 9.56332Z" fill="#091A36"/>
<defs>
<filter id="filter0_d_9980_5" x="0" y="0" width="80.708" height="24.0078" filterUnits="userSpaceOnUse" color-interpolation-filters="sRGB">
<feFlood flood-opacity="0" result="BackgroundImageFix"/>
<feColorMatrix in="SourceAlpha" type="matrix" values="0 0 0 0 0 0 0 0 0 0 0 0 0 0 0 0 0 0 127 0" result="hardAlpha"/>
<feOffset dx="1" dy="1"/>
<feGaussianBlur stdDeviation="1"/>
<feComposite in2="hardAlpha" operator="out"/>
<feColorMatrix type="matrix" values="0 0 0 0 0 0 0 0 0 0 0 0 0 0 0 0 0 0 0.25 0"/>
<feBlend mode="normal" in2="BackgroundImageFix" result="effect1_dropShadow_9980_5"/>
<feBlend mode="normal" in="SourceGraphic" in2="effect1_dropShadow_9980_5" result="shape"/>
</filter>
</defs>
</svg>
