<svg width="72" height="21" viewBox="0 0 72 21" fill="none" xmlns="http://www.w3.org/2000/svg">
<rect width="71.4685" height="20.1687" rx="10.0843" fill="white"/>
<path d="M20.9873 11.954C21.1073 11.954 21.1873 12.194 21.1873 12.514V13.024C21.1873 13.344 21.0973 13.584 20.9873 13.584H20.5573C20.0273 13.584 19.5973 13.394 19.2873 13.044C18.7073 13.504 17.8273 13.754 16.8473 13.764C16.2773 13.764 15.6673 13.674 15.0773 13.484L15.3173 11.954C15.9673 12.064 16.4173 12.134 16.8373 12.134C17.5873 12.134 18.2473 11.954 18.6573 11.714C18.5073 10.724 18.1073 9.12398 17.7173 7.99398L19.0073 7.16398C19.4473 8.25398 19.9473 10.584 20.0473 11.284C20.1173 11.754 20.2773 11.954 20.5873 11.954H20.9873ZM24.7263 11.954C24.8463 11.954 24.9263 12.194 24.9263 12.514V13.024C24.9263 13.344 24.8363 13.584 24.7263 13.584H24.3463C23.7163 13.584 23.1263 13.294 22.7363 12.864C22.2963 13.304 21.6663 13.584 21.0063 13.584H20.4863C20.3763 13.584 20.2863 13.344 20.2863 13.024V12.514C20.2863 12.194 20.3663 11.954 20.4863 11.954H21.0363C21.6563 11.954 21.9763 11.644 21.9763 10.994V9.44398L23.4363 9.27398V10.414C23.4363 11.614 23.6863 11.954 24.4963 11.954H24.7263ZM20.3063 15.864C20.5963 15.414 20.8863 15.034 21.2663 14.694L22.2963 15.574C22.0463 16.014 21.7163 16.354 21.3663 16.694L20.3063 15.864ZM22.3163 15.964C22.6063 15.524 22.8963 15.134 23.2963 14.784L24.3063 15.664C24.0563 16.114 23.7263 16.454 23.3863 16.784L22.3163 15.964ZM27.4646 7.46398C27.2146 7.90398 26.8846 8.24398 26.5346 8.58398L25.4746 7.75398C25.7646 7.30398 26.0546 6.92398 26.4346 6.58398L27.4646 7.46398ZM28.4646 11.954C28.5846 11.954 28.6646 12.194 28.6646 12.514V13.024C28.6646 13.344 28.5746 13.584 28.4646 13.584H28.0846C27.4546 13.584 26.8646 13.294 26.4746 12.864C26.0346 13.304 25.4046 13.584 24.7446 13.584H24.2246C24.1146 13.584 24.0246 13.344 24.0246 13.024V12.514C24.0246 12.194 24.1046 11.954 24.2246 11.954H24.7746C25.3946 11.954 25.7146 11.644 25.7146 10.994V9.44398L27.1746 9.27398V10.414C27.1746 11.614 27.4246 11.954 28.2346 11.954H28.4646ZM29.6729 7.81398C31.1829 8.84398 31.9929 10.154 31.9929 11.674C31.9929 13.334 29.9329 13.584 27.9629 13.584C27.8529 13.584 27.7629 13.344 27.7629 13.024V12.514C27.7629 12.194 27.8429 11.954 27.9629 11.954C29.1229 11.954 30.5229 11.954 30.5229 11.684C30.5229 10.524 29.5429 9.29398 28.0629 8.67398L27.9029 7.02398C28.9529 6.42398 31.2229 5.32398 32.0929 5.08398L32.3329 6.58398C31.4129 6.97398 30.5329 7.38398 29.6729 7.81398ZM41.2413 11.954C41.3613 11.954 41.4413 12.194 41.4413 12.514V13.024C41.4413 13.344 41.3513 13.584 41.2413 13.584H40.8113C40.2813 13.584 39.8513 13.394 39.5413 13.044C38.9613 13.504 38.0813 13.754 37.1012 13.764C36.5313 13.764 35.9213 13.674 35.3313 13.484L35.5713 11.954C36.2213 12.064 36.6713 12.134 37.0913 12.134C37.8413 12.134 38.5013 11.954 38.9113 11.714C38.7613 10.724 38.3613 9.12398 37.9713 7.99398L39.2613 7.16398C39.7013 8.25398 40.2013 10.584 40.3013 11.284C40.3713 11.754 40.5313 11.954 40.8413 11.954H41.2413ZM45.4602 8.45398C45.6302 9.71398 45.7202 10.744 45.7202 11.504C45.7202 12.714 44.5002 13.584 42.6302 13.584H40.7402C40.6302 13.584 40.5402 13.344 40.5402 13.024V12.514C40.5402 12.194 40.6202 11.954 40.7402 11.954H42.6302C43.5702 11.954 44.2702 11.784 44.2702 11.204C44.2702 10.714 44.1702 9.87398 44.0102 8.94398L45.4602 8.45398ZM40.7902 15.784C41.0802 15.334 41.3702 14.954 41.7502 14.614L42.7802 15.494C42.5302 15.934 42.2002 16.274 41.8502 16.614L40.7902 15.784ZM42.8002 15.884C43.0902 15.444 43.3802 15.054 43.7802 14.704L44.7902 15.584C44.5402 16.034 44.2102 16.374 43.8702 16.704L42.8002 15.884ZM49.9984 11.954C50.1184 11.954 50.1984 12.194 50.1984 12.514V13.024C50.1984 13.344 50.1084 13.584 49.9984 13.584H49.9184C49.5684 13.584 49.1784 13.564 48.9384 13.294C48.9184 13.444 48.8884 13.574 48.8484 13.684C48.5084 14.714 46.9684 15.994 45.5784 16.414L45.1784 14.834C46.0584 14.564 47.3584 13.484 47.3584 13.034C47.4284 11.914 47.3584 11.044 47.2084 9.84398L48.7884 9.52398L48.9484 11.164C48.9984 11.654 49.2584 11.954 49.5984 11.954H49.9984ZM53.3661 6.51398C53.1161 6.95398 52.7861 7.29398 52.4361 7.63398L51.3761 6.80398C51.6661 6.35398 51.9561 5.97398 52.3361 5.63398L53.3661 6.51398ZM55.8761 10.014C56.2461 9.91398 56.6461 9.85398 57.0961 9.85398L56.9661 11.464C56.2361 11.464 55.4161 11.704 54.6161 12.234C53.6461 12.874 52.5761 13.584 50.5461 13.584H49.4961C49.3861 13.584 49.2961 13.344 49.2961 13.024V12.514C49.2961 12.194 49.3761 11.954 49.4961 11.954H50.5161C52.1261 11.954 53.0261 11.464 53.8861 10.954L54.1961 10.774C53.9761 10.644 53.7761 10.514 53.5861 10.384C52.9761 9.97398 52.4361 9.74398 52.0761 9.74398C51.6561 9.74398 51.4461 9.94398 51.2161 10.594L49.8361 10.084C50.1161 9.32398 50.5461 8.17398 52.0761 8.17398C52.8161 8.17398 53.5961 8.65398 54.4661 9.20398C54.9061 9.48398 55.3661 9.77398 55.8761 10.014Z" fill="#181845"/>
</svg>
