<svg width="107" height="33" viewBox="0 0 107 33" fill="none" xmlns="http://www.w3.org/2000/svg">
<path d="M43.771 9.67797C43.911 9.82797 44.081 9.93797 44.271 10.028C44.461 10.118 44.671 10.158 44.891 10.158C45.111 10.158 45.321 10.118 45.511 10.028C45.701 9.93797 45.871 9.82797 46.011 9.67797C46.151 9.52797 46.271 9.35797 46.351 9.16797C46.431 8.96797 46.471 8.76797 46.471 8.54797C46.471 8.06797 46.321 7.67797 46.011 7.37797C45.711 7.07797 45.331 6.91797 44.881 6.91797C44.431 6.91797 44.061 7.06797 43.751 7.37797C43.451 7.67797 43.291 8.06797 43.291 8.54797C43.291 8.76797 43.331 8.96797 43.411 9.16797C43.491 9.36797 43.601 9.53797 43.751 9.67797H43.771Z" fill="white"/>
<path d="M50.1126 7.37797C49.8126 7.07797 49.4326 6.91797 48.9826 6.91797C48.5326 6.91797 48.1626 7.06797 47.8526 7.37797C47.5526 7.67797 47.3926 8.06797 47.3926 8.54797C47.3926 8.76797 47.4326 8.96797 47.5126 9.16797C47.5926 9.36797 47.7026 9.53797 47.8526 9.67797C47.9926 9.82797 48.1626 9.93797 48.3526 10.028C48.5426 10.118 48.7526 10.158 48.9726 10.158C49.1926 10.158 49.4026 10.118 49.5926 10.028C49.7826 9.93797 49.9526 9.82797 50.0926 9.67797C50.2326 9.52797 50.3526 9.35797 50.4326 9.16797C50.5126 8.96797 50.5526 8.76797 50.5526 8.54797C50.5526 8.06797 50.4026 7.67797 50.0926 7.37797H50.1126Z" fill="white"/>
<path d="M17.422 23.418C16.972 23.418 16.602 23.568 16.292 23.878C15.992 24.178 15.832 24.568 15.832 25.048C15.832 25.268 15.872 25.468 15.952 25.668C16.032 25.868 16.142 26.038 16.292 26.178C16.432 26.328 16.602 26.438 16.792 26.528C16.982 26.618 17.192 26.658 17.412 26.658C17.632 26.658 17.842 26.618 18.032 26.528C18.222 26.438 18.392 26.328 18.532 26.178C18.672 26.028 18.792 25.858 18.872 25.668C18.952 25.468 18.992 25.268 18.992 25.048C18.992 24.568 18.842 24.178 18.532 23.878C18.232 23.578 17.852 23.418 17.402 23.418H17.422Z" fill="white"/>
<path d="M21.5021 23.418C21.0521 23.418 20.6821 23.568 20.3721 23.878C20.0721 24.178 19.9121 24.568 19.9121 25.048C19.9121 25.268 19.9521 25.468 20.0321 25.668C20.1121 25.868 20.2221 26.038 20.3721 26.178C20.5121 26.328 20.6821 26.438 20.8721 26.528C21.0621 26.618 21.2721 26.658 21.4921 26.658C21.7121 26.658 21.9221 26.618 22.1121 26.528C22.3021 26.438 22.4721 26.328 22.6121 26.178C22.7521 26.028 22.8721 25.858 22.9521 25.668C23.0321 25.468 23.0721 25.268 23.0721 25.048C23.0721 24.568 22.9221 24.178 22.6121 23.878C22.3121 23.578 21.9321 23.418 21.4821 23.418H21.5021Z" fill="white"/>
<path d="M39.7521 23.418C39.3021 23.418 38.9321 23.568 38.6221 23.878C38.3221 24.178 38.1621 24.568 38.1621 25.048C38.1621 25.268 38.2021 25.468 38.2821 25.668C38.3621 25.868 38.4721 26.038 38.6221 26.178C38.7621 26.328 38.9321 26.438 39.1221 26.528C39.3121 26.618 39.5221 26.658 39.7421 26.658C39.9621 26.658 40.1721 26.618 40.3621 26.528C40.5521 26.438 40.7221 26.328 40.8621 26.178C41.0021 26.028 41.1221 25.858 41.2021 25.668C41.2821 25.468 41.3221 25.268 41.3221 25.048C41.3221 24.568 41.1721 24.178 40.8621 23.878C40.5621 23.578 40.1821 23.418 39.7321 23.418H39.7521Z" fill="white"/>
<path d="M48.1022 18.3585C48.1022 18.7985 47.7522 19.1585 47.3222 19.1585H41.2222V11.9785H38.7622V19.1585H34.6222C33.9822 14.4185 30.7822 13.0485 27.7022 12.0085L26.9922 14.3985C30.1422 15.5085 31.5622 16.5885 32.1522 19.1585H25.4922V21.6585H47.3222C49.1122 21.6585 50.5722 20.1785 50.5722 18.3685V11.9785H48.1122V18.3685L48.1022 18.3585Z" fill="white"/>
<path d="M21.2116 11.978V18.368C21.2116 18.808 20.8616 19.168 20.4316 19.168H15.1716V6.91797H12.6816V19.288C12.6816 22.018 10.5016 24.238 7.80164 24.238C5.11164 24.238 2.92165 22.018 2.92165 19.288V19.188H0.431641V19.268C0.431641 23.398 3.73164 26.738 7.79164 26.738C11.0316 26.738 13.7716 24.618 14.7616 21.678H20.4216C22.2116 21.678 23.6716 20.198 23.6716 18.388V11.998H21.2116V11.978Z" fill="white"/>
<mask id="mask0_8959_2681" style="mask-type:luminance" maskUnits="userSpaceOnUse" x="56" y="0" width="51" height="33">
<path d="M106.582 0.46875H56.8516V32.8087H106.582V0.46875Z" fill="white"/>
</mask>
<g mask="url(#mask0_8959_2681)">
<g clip-path="url(#clip0_8959_2681)">
<path d="M102.466 0.685162H61.3836C58.88 0.685162 56.8516 2.71356 56.8516 5.21716V28.2864C56.8516 30.79 58.88 32.8184 61.3836 32.8184H102.466C104.97 32.8184 106.998 30.79 106.998 28.2864V26.4208H101.622C101.38 28.1192 99.8176 29.3116 98.1148 29.0872C96.3988 28.8628 95.1932 27.292 95.4176 25.576C95.642 23.86 97.2128 22.6544 98.9288 22.8788C100.354 23.0636 101.432 24.1856 101.622 25.5452H106.998V5.21276C106.998 2.70916 104.97 0.680759 102.466 0.680759V0.685162ZM74.0732 0.685162H74.9488V4.00716L76.6824 5.74516C77.316 5.26996 78.1256 5.03236 78.9704 5.14236C80.6864 5.36676 81.892 6.93756 81.6676 8.65356C81.4432 10.3696 79.8724 11.5752 78.1564 11.3508C76.4404 11.1264 75.2348 9.55556 75.4592 7.83956C75.534 7.28516 75.7452 6.78356 76.062 6.36556L74.0688 4.37236V0.68956L74.0732 0.685162ZM65.634 7.83516C65.8188 6.40956 66.9408 5.33156 68.3004 5.14236V0.685162H69.176V5.14236C70.8744 5.37996 72.0668 6.94636 71.8424 8.64916C71.618 10.3652 70.0472 11.5708 68.3312 11.3464C66.6152 11.122 65.4096 9.55116 65.634 7.83516ZM101.274 9.29596C93.0724 18.3028 83.1064 24.9644 75.6572 28.7396C74.4736 29.338 73.356 29.1488 72.2516 28.4448C68.5468 26.0908 64.1336 22.2276 61.0668 17.062C60.794 16.6044 60.5916 15.8256 61.3572 15.324C61.96 14.928 62.6772 15.2008 63.0248 15.6804C64.9212 18.3204 68.23 20.3356 71.8776 20.8108C74.1392 21.1056 76.81 20.6128 78.3368 20.054C85.8784 17.304 93.0108 12.7236 99.9144 7.31156C100.126 7.14876 100.887 6.98156 101.424 7.58436C102.053 8.29716 101.459 9.09356 101.278 9.29156L101.274 9.29596Z" fill="#F0B90B"/>
<path d="M68.3314 11.3463C70.0474 11.5707 71.6182 10.3607 71.8426 8.64905C72.067 6.94625 70.8746 5.38425 69.1762 5.14225V0.685054H68.3006V5.14225C66.941 5.33585 65.819 6.40945 65.6342 7.83505C65.4098 9.55105 66.6198 11.1219 68.3314 11.3463Z" fill="#0B0D10"/>
<path d="M75.4641 7.83505C75.2397 9.55105 76.4497 11.1219 78.1613 11.3463C79.8773 11.5707 81.4481 10.3607 81.6725 8.64905C81.8969 6.93305 80.6869 5.36225 78.9753 5.13785C78.1305 5.02785 77.3209 5.26545 76.6873 5.74065L74.9537 4.00265V0.680653H74.0781V4.36345L76.0713 6.35665C75.7545 6.77465 75.5433 7.27625 75.4685 7.83065L75.4641 7.83505Z" fill="#0B0D10"/>
<path d="M98.9247 22.8797C97.2087 22.6553 95.6379 23.8653 95.4135 25.5769C95.1891 27.2929 96.3991 28.8637 98.1107 29.0881C99.8135 29.3125 101.376 28.1201 101.618 26.4217H106.994V25.5461H101.618C101.424 24.1865 100.35 23.0645 98.9247 22.8797Z" fill="#0B0D10"/>
<path d="M99.9148 7.31526C93.0068 12.7273 85.8788 17.3033 78.3372 20.0577C76.8104 20.6165 74.1396 21.1093 71.878 20.8145C68.2304 20.3349 64.926 18.3241 63.0252 15.6841C62.6776 15.2045 61.9604 14.9317 61.3576 15.3277C60.592 15.8293 60.7944 16.6125 61.0672 17.0657C64.134 22.2269 68.5472 26.0901 72.252 28.4485C73.3564 29.1481 74.474 29.3417 75.6576 28.7433C83.1068 24.9681 93.0728 18.3109 101.274 9.29966C101.455 9.10166 102.049 8.30526 101.42 7.59246C100.887 6.98526 100.122 7.15246 99.9104 7.31966L99.9148 7.31526Z" fill="#0B0D10"/>
</g>
</g>
<defs>
<clipPath id="clip0_8959_2681">
<rect width="50.1424" height="32.1332" fill="white" transform="matrix(1 0 0 -1 56.8516 32.8184)"/>
</clipPath>
</defs>
</svg>
