<svg width="146" height="30" viewBox="0 0 146 30" fill="none" xmlns="http://www.w3.org/2000/svg">
<g filter="url(#filter0_d_9057_138)">
<path d="M127.562 0.677734H13.2104C6.41772 0.677734 0.911133 6.18432 0.911133 12.977C0.911133 19.7698 6.41772 25.2764 13.2104 25.2764H127.562C134.355 25.2764 139.861 19.7698 139.861 12.977C139.861 6.18432 134.355 0.677734 127.562 0.677734Z" fill="url(#paint0_linear_9057_138)"/>
<path d="M127.562 0.677734H13.2104C6.41772 0.677734 0.911133 6.18432 0.911133 12.977C0.911133 19.7698 6.41772 25.2764 13.2104 25.2764H127.562C134.355 25.2764 139.861 19.7698 139.861 12.977C139.861 6.18432 134.355 0.677734 127.562 0.677734Z" stroke="url(#paint1_linear_9057_138)" stroke-width="0.95" stroke-miterlimit="10"/>
</g>
<path d="M24.959 13.6525C25.039 13.6525 25.079 13.6925 25.079 13.7725V15.8605C25.079 15.9405 25.039 15.9805 24.959 15.9805H24.623C24.639 16.1245 24.647 16.2325 24.647 16.3045C24.647 16.7845 24.527 17.2285 24.287 17.6365C24.047 18.0445 23.723 18.3645 23.315 18.5965C22.907 18.8365 22.459 18.9565 21.971 18.9565H19.139C18.547 18.9565 17.999 18.8085 17.495 18.5125C16.991 18.2165 16.591 17.8165 16.295 17.3125C15.999 16.8085 15.851 16.2605 15.851 15.6685V12.5005H18.059V15.5485C18.059 15.8445 18.163 16.0965 18.371 16.3045C18.587 16.5205 18.843 16.6285 19.139 16.6285H22.007C22.103 16.6285 22.183 16.5965 22.247 16.5325C22.311 16.4685 22.343 16.3925 22.343 16.3045C22.343 16.2165 22.311 16.1405 22.247 16.0765C22.183 16.0125 22.103 15.9805 22.007 15.9805H19.379V13.6525H24.959ZM31.3317 10.1485H27.6117V8.28847H28.5477V6.66847H30.4077V8.28847H31.3317V10.1485ZM34.0557 13.6525C34.1357 13.6525 34.1757 13.6925 34.1757 13.7725V15.8605C34.1757 15.9405 34.1357 15.9805 34.0557 15.9805H33.5757C33.0317 15.9805 32.5837 15.8125 32.2317 15.4765C31.8797 15.8285 31.4237 16.0045 30.8637 16.0045C30.3037 16.0045 29.8517 15.8325 29.5077 15.4885C29.1637 15.8325 28.7117 16.0045 28.1517 16.0045C27.5917 16.0045 27.1357 15.8285 26.7837 15.4765C26.4317 15.8125 25.9837 15.9805 25.4397 15.9805H24.9597C24.8797 15.9805 24.8397 15.9405 24.8397 15.8605V13.7725C24.8397 13.6925 24.8797 13.6525 24.9597 13.6525H25.4397C25.5197 13.6525 25.5797 13.6285 25.6197 13.5805C25.6677 13.5325 25.6917 13.4685 25.6917 13.3885V11.1085H27.8997V13.4125C27.8997 13.4925 27.9197 13.5565 27.9597 13.6045C28.0077 13.6525 28.0717 13.6765 28.1517 13.6765C28.2317 13.6765 28.2917 13.6525 28.3317 13.6045C28.3797 13.5565 28.4037 13.4925 28.4037 13.4125V11.1085H30.6117V13.4125C30.6117 13.4925 30.6317 13.5565 30.6717 13.6045C30.7197 13.6525 30.7837 13.6765 30.8637 13.6765C30.9437 13.6765 31.0037 13.6525 31.0437 13.6045C31.0917 13.5565 31.1157 13.4925 31.1157 13.4125V10.7725H33.3237V13.3885C33.3237 13.4685 33.3437 13.5325 33.3837 13.5805C33.4317 13.6285 33.4957 13.6525 33.5757 13.6525H34.0557ZM33.9335 13.7725C33.9335 13.6925 33.9735 13.6525 34.0535 13.6525H36.8015C36.9455 13.6525 37.0695 13.6085 37.1735 13.5205C37.2775 13.4325 37.3295 13.3005 37.3295 13.1245C37.3295 12.9485 37.2375 12.8045 37.0535 12.6925L34.4495 10.9525V9.32047L36.8975 6.71647L38.4095 8.15647L36.7775 9.84847L38.4095 10.9285C38.7695 11.1605 39.0455 11.4765 39.2375 11.8765C39.4375 12.2765 39.5375 12.7085 39.5375 13.1725C39.5375 13.6845 39.4135 14.1565 39.1655 14.5885C38.9175 15.0125 38.5815 15.3525 38.1575 15.6085C37.7415 15.8565 37.2815 15.9805 36.7775 15.9805H34.0535C33.9735 15.9805 33.9335 15.9405 33.9335 15.8605V13.7725ZM46.3002 13.6525C46.3802 13.6525 46.4202 13.6925 46.4202 13.7725V15.8605C46.4202 15.9405 46.3802 15.9805 46.3002 15.9805H45.8202C45.1642 15.9805 44.6322 15.7445 44.2242 15.2725C43.8242 15.5045 43.3882 15.6205 42.9162 15.6205C42.4042 15.6205 41.9282 15.4925 41.4882 15.2365C41.0562 14.9805 40.7122 14.6365 40.4562 14.2045C40.2002 13.7725 40.0722 13.3045 40.0722 12.8005C40.0722 12.2965 40.2002 11.8445 40.4562 11.4445C40.7122 11.0365 41.0562 10.7205 41.4882 10.4965C41.9202 10.2645 42.3962 10.1485 42.9162 10.1485H43.3842V9.30847H45.5682V13.3885C45.5682 13.4685 45.5882 13.5325 45.6282 13.5805C45.6762 13.6285 45.7402 13.6525 45.8202 13.6525H46.3002ZM43.3842 12.3565H42.9162C42.7642 12.3565 42.6442 12.3965 42.5562 12.4765C42.4682 12.5565 42.4242 12.6645 42.4242 12.8005C42.4242 12.9445 42.4682 13.0645 42.5562 13.1605C42.6442 13.2485 42.7642 13.2925 42.9162 13.2925C43.0602 13.2925 43.1722 13.2485 43.2522 13.1605C43.3402 13.0645 43.3842 12.9445 43.3842 12.8005V12.3565ZM51.5316 13.6525V15.9805H46.2996C46.2196 15.9805 46.1796 15.9405 46.1796 15.8605V13.7725C46.1796 13.6925 46.2196 13.6525 46.2996 13.6525H46.9596C46.9036 13.4605 46.8756 13.2485 46.8756 13.0165C46.8756 12.4805 47.0076 11.9965 47.2716 11.5645C47.5436 11.1325 47.9076 10.7965 48.3636 10.5565C48.8276 10.3085 49.3356 10.1845 49.8876 10.1845H51.2076V12.3565H49.8876C49.6796 12.3565 49.5116 12.4165 49.3836 12.5365C49.2636 12.6485 49.2036 12.8045 49.2036 13.0045C49.2036 13.2125 49.2636 13.3725 49.3836 13.4845C49.5036 13.5965 49.6716 13.6525 49.8876 13.6525H51.5316ZM55.2052 13.6525C55.2852 13.6525 55.3252 13.6925 55.3252 13.7725V15.8605C55.3252 15.9405 55.2852 15.9805 55.2052 15.9805H54.7252C54.5972 15.9805 54.5052 15.9765 54.4492 15.9685C54.4092 16.5285 54.2932 17.0045 54.1012 17.3965C53.9092 17.7965 53.6012 18.1645 53.1772 18.5005C52.7612 18.8365 52.1772 19.1885 51.4252 19.5565L50.5972 17.7085C51.1572 17.3725 51.5492 17.1005 51.7732 16.8925C51.9972 16.6845 52.1332 16.4805 52.1812 16.2805C52.2372 16.0805 52.2652 15.7565 52.2652 15.3085V11.1085H54.4732V13.3885C54.4732 13.4685 54.4932 13.5325 54.5332 13.5805C54.5812 13.6285 54.6452 13.6525 54.7252 13.6525H55.2052ZM60.0418 7.29247H56.3218V5.43247H60.0418V7.29247ZM58.1818 8.25247C58.6458 8.25247 59.0618 8.37247 59.4298 8.61247C59.8058 8.84447 60.0978 9.16447 60.3058 9.57247C60.5218 9.97247 60.6298 10.4205 60.6298 10.9165V13.5445C60.6298 13.9845 60.5218 14.3925 60.3058 14.7685C60.0898 15.1365 59.7978 15.4325 59.4298 15.6565C59.0618 15.8725 58.6538 15.9805 58.2058 15.9805H55.2058C55.1258 15.9805 55.0858 15.9405 55.0858 15.8605V13.7725C55.0858 13.6925 55.1258 13.6525 55.2058 13.6525H58.1818C58.3418 13.6525 58.4218 13.5685 58.4218 13.4005V13.3645H58.1818C57.7018 13.3645 57.2618 13.2565 56.8618 13.0405C56.4618 12.8245 56.1418 12.5325 55.9018 12.1645C55.6698 11.7885 55.5538 11.3725 55.5538 10.9165C55.5538 10.4285 55.6738 9.98047 55.9138 9.57247C56.1538 9.16447 56.4738 8.84447 56.8738 8.61247C57.2818 8.37247 57.7178 8.25247 58.1818 8.25247ZM58.5658 10.8325C58.5658 10.7045 58.5178 10.5965 58.4218 10.5085C58.3338 10.4125 58.2258 10.3645 58.0978 10.3645C57.9538 10.3645 57.8378 10.4085 57.7498 10.4965C57.6618 10.5845 57.6178 10.6965 57.6178 10.8325C57.6178 10.9765 57.6618 11.0965 57.7498 11.1925C57.8378 11.2805 57.9538 11.3245 58.0978 11.3245H58.5658V10.8325ZM62.0347 17.7085C62.5947 17.3725 62.9867 17.1005 63.2107 16.8925C63.4347 16.6845 63.5707 16.4805 63.6187 16.2805C63.6747 16.0805 63.7027 15.7565 63.7027 15.3085V11.1085H65.9107V15.3085C65.9107 16.0365 65.8267 16.6325 65.6587 17.0965C65.4987 17.5605 65.2027 17.9805 64.7707 18.3565C64.3387 18.7405 63.7027 19.1405 62.8627 19.5565L62.0347 17.7085ZM69.7497 13.6525C69.9577 13.6525 70.0617 13.5685 70.0617 13.4005C70.0617 13.3365 70.0377 13.2845 69.9897 13.2445C69.9417 13.1965 69.8297 13.1125 69.6537 12.9925L66.9537 11.1325L68.2137 9.30847L71.2737 11.4325C71.6017 11.6885 71.8497 11.9605 72.0177 12.2485C72.1857 12.5365 72.2697 12.8965 72.2697 13.3285C72.2697 13.8325 72.1457 14.2885 71.8977 14.6965C71.6577 15.0965 71.3297 15.4125 70.9137 15.6445C70.4977 15.8685 70.0457 15.9805 69.5577 15.9805H66.5697V13.6525H69.7497ZM81.3991 11.1085H77.6791V9.24847H81.3991V11.1085ZM84.9751 13.6525C85.0551 13.6525 85.0951 13.6925 85.0951 13.7725V15.8605C85.0951 15.9405 85.0551 15.9805 84.9751 15.9805H84.4951C84.1911 15.9805 83.9271 15.9445 83.7031 15.8725C83.4791 15.8005 83.2671 15.6805 83.0671 15.5125C82.8431 15.6725 82.6111 15.7925 82.3711 15.8725C82.1391 15.9445 81.8711 15.9805 81.5671 15.9805H77.9671C77.3751 15.9805 76.8271 15.8325 76.3231 15.5365C75.8191 15.2405 75.4191 14.8405 75.1231 14.3365C74.8271 13.8325 74.6791 13.2845 74.6791 12.6925V11.1085H76.8871V12.5725C76.8871 12.8685 76.9911 13.1245 77.1991 13.3405C77.4151 13.5485 77.6711 13.6525 77.9671 13.6525H81.5671C81.7111 13.6525 81.8231 13.6085 81.9031 13.5205C81.9911 13.4245 82.0351 13.3045 82.0351 13.1605V11.1085H84.2431V13.3885C84.2431 13.4685 84.2631 13.5325 84.3031 13.5805C84.3511 13.6285 84.4151 13.6525 84.4951 13.6525H84.9751ZM84.8514 13.7725C84.8514 13.6925 84.8914 13.6525 84.9714 13.6525H87.7194C87.8634 13.6525 87.9874 13.6085 88.0914 13.5205C88.1954 13.4325 88.2474 13.3005 88.2474 13.1245C88.2474 12.9485 88.1554 12.8045 87.9714 12.6925L85.3674 10.9525V9.32047L87.8154 6.71647L89.3274 8.15647L87.6954 9.84847L89.3274 10.9285C89.6874 11.1605 89.9634 11.4765 90.1554 11.8765C90.3554 12.2765 90.4554 12.7085 90.4554 13.1725C90.4554 13.6845 90.3314 14.1565 90.0834 14.5885C89.8354 15.0125 89.4994 15.3525 89.0754 15.6085C88.6594 15.8565 88.1994 15.9805 87.6954 15.9805H84.9714C84.8914 15.9805 84.8514 15.9405 84.8514 15.8605V13.7725ZM94.1231 13.6525C94.2031 13.6525 94.2431 13.6925 94.2431 13.7725V15.8605C94.2431 15.9405 94.2031 15.9805 94.1231 15.9805H93.6431C93.5151 15.9805 93.4231 15.9765 93.3671 15.9685C93.3271 16.5285 93.2111 17.0045 93.0191 17.3965C92.8271 17.7965 92.5191 18.1645 92.0951 18.5005C91.6791 18.8365 91.0951 19.1885 90.3431 19.5565L89.5151 17.7085C90.0751 17.3725 90.4671 17.1005 90.6911 16.8925C90.9151 16.6845 91.0511 16.4805 91.0991 16.2805C91.1551 16.0805 91.1831 15.7565 91.1831 15.3085V11.1085H93.3911V13.3885C93.3911 13.4685 93.4111 13.5325 93.4511 13.5805C93.4991 13.6285 93.5631 13.6525 93.6431 13.6525H94.1231ZM100.484 10.1485H96.7638V8.28847H97.6998V6.66847H99.5598V8.28847H100.484V10.1485ZM102.44 10.7725V15.9805H100.016C99.4798 15.9805 99.0358 15.8125 98.6838 15.4765C98.3318 15.8285 97.8758 16.0045 97.3158 16.0045C96.7558 16.0045 96.2998 15.8285 95.9478 15.4765C95.5958 15.8125 95.1478 15.9805 94.6038 15.9805H94.1238C94.0438 15.9805 94.0038 15.9405 94.0038 15.8605V13.7725C94.0038 13.6925 94.0438 13.6525 94.1238 13.6525H94.6038C94.6838 13.6525 94.7438 13.6285 94.7838 13.5805C94.8318 13.5325 94.8558 13.4685 94.8558 13.3885V11.1085H97.0638V13.4125C97.0638 13.4925 97.0838 13.5565 97.1238 13.6045C97.1718 13.6525 97.2358 13.6765 97.3158 13.6765C97.3958 13.6765 97.4558 13.6525 97.4958 13.6045C97.5438 13.5565 97.5678 13.4925 97.5678 13.4125V11.1085H99.7758V13.3885C99.7758 13.4685 99.7958 13.5325 99.8358 13.5805C99.8838 13.6285 99.9438 13.6525 100.016 13.6525H100.232V10.7725H102.44ZM105.599 15.1765C105.351 14.9285 105.163 14.6485 105.035 14.3365C104.907 14.0165 104.843 13.6885 104.843 13.3525C104.843 12.9765 104.919 12.6085 105.071 12.2485C105.223 11.8885 105.443 11.5685 105.731 11.2885L106.043 10.9765L105.479 10.4365L107.063 8.88847L109.487 11.2885C109.767 11.5765 109.979 11.9005 110.123 12.2605C110.275 12.6125 110.351 12.9725 110.351 13.3405C110.351 14.0605 110.095 14.6725 109.583 15.1765C109.311 15.4405 109.003 15.6405 108.659 15.7765C108.315 15.9125 107.959 15.9805 107.591 15.9805C107.223 15.9805 106.867 15.9125 106.523 15.7765C106.179 15.6405 105.871 15.4405 105.599 15.1765ZM107.255 13.5205C107.359 13.6245 107.475 13.6765 107.603 13.6765C107.731 13.6765 107.847 13.6245 107.951 13.5205C108.039 13.4325 108.083 13.3365 108.083 13.2325C108.083 13.1045 108.023 12.9805 107.903 12.8605L107.591 12.5245L107.279 12.8365C107.167 12.9485 107.111 13.0685 107.111 13.1965C107.111 13.3165 107.159 13.4245 107.255 13.5205ZM116.793 13.6525C116.873 13.6525 116.913 13.6925 116.913 13.7725V15.8605C116.913 15.9405 116.873 15.9805 116.793 15.9805H116.361C116.281 16.5485 116.105 17.0285 115.833 17.4205C115.569 17.8125 115.181 18.1685 114.669 18.4885C114.165 18.8165 113.461 19.1725 112.557 19.5565L111.873 17.6125C112.553 17.3245 113.061 17.0845 113.397 16.8925C113.733 16.7085 113.953 16.5485 114.057 16.4125C114.161 16.2845 114.213 16.1405 114.213 15.9805H113.769C113.257 15.9805 112.785 15.8685 112.353 15.6445C111.921 15.4125 111.577 15.0965 111.321 14.6965C111.073 14.2885 110.949 13.8325 110.949 13.3285C110.949 12.8165 111.077 12.3445 111.333 11.9125C111.589 11.4805 111.929 11.1405 112.353 10.8925C112.785 10.6365 113.257 10.5085 113.769 10.5085C114.273 10.5085 114.725 10.6365 115.125 10.8925C115.533 11.1405 115.849 11.4805 116.073 11.9125C116.305 12.3445 116.421 12.8165 116.421 13.3285V13.6525H116.793ZM114.213 13.3285C114.213 13.1765 114.173 13.0565 114.093 12.9685C114.013 12.8805 113.905 12.8365 113.769 12.8365C113.625 12.8365 113.505 12.8805 113.409 12.9685C113.321 13.0565 113.277 13.1765 113.277 13.3285C113.277 13.4725 113.321 13.5885 113.409 13.6765C113.505 13.7565 113.625 13.7965 113.769 13.7965H114.213V13.3285ZM116.788 15.9805C116.708 15.9805 116.668 15.9405 116.668 15.8605V13.7725C116.668 13.6925 116.708 13.6525 116.788 13.6525H119.476C120.02 13.6525 120.484 13.4845 120.868 13.1485L121.816 12.3085L120.436 11.6365C120.324 11.5885 120.236 11.5645 120.172 11.5645C120.028 11.5645 119.884 11.6285 119.74 11.7565L118.492 13.1365L116.956 11.7925L118.216 10.2565C118.472 9.95247 118.772 9.73247 119.116 9.59647C119.46 9.45247 119.804 9.38047 120.148 9.38047C120.548 9.38047 120.928 9.47647 121.288 9.66847L123.856 10.8685C123.896 10.8845 123.928 10.8925 123.952 10.8925C123.984 10.8925 124.008 10.8925 124.024 10.8925H125.5V13.0525H123.964V13.3885C123.964 13.4685 123.984 13.5325 124.024 13.5805C124.072 13.6285 124.136 13.6525 124.216 13.6525H125.716C125.796 13.6525 125.836 13.6925 125.836 13.7725V15.8605C125.836 15.9405 125.796 15.9805 125.716 15.9805H124.216C123.736 15.9805 123.34 15.8605 123.028 15.6205C122.716 15.3725 122.492 15.0365 122.356 14.6125L122.08 14.8765C121.68 15.2365 121.228 15.5125 120.724 15.7045C120.22 15.8885 119.704 15.9805 119.176 15.9805H116.788ZM126.822 7.95247H128.682V9.81247H126.822V7.95247ZM125.718 15.9805C125.638 15.9805 125.598 15.9405 125.598 15.8605V13.7725C125.598 13.6925 125.638 13.6525 125.718 13.6525H126.426C126.49 13.6525 126.546 13.6285 126.594 13.5805C126.642 13.5325 126.666 13.4725 126.666 13.4005V10.7725H128.874V13.5445C128.874 13.9845 128.766 14.3925 128.55 14.7685C128.334 15.1365 128.042 15.4325 127.674 15.6565C127.306 15.8725 126.898 15.9805 126.45 15.9805H125.718Z" fill="white"/>
<defs>
<filter id="filter0_d_9057_138" x="0.436035" y="0.203125" width="144.66" height="29.3488" filterUnits="userSpaceOnUse" color-interpolation-filters="sRGB">
<feFlood flood-opacity="0" result="BackgroundImageFix"/>
<feColorMatrix in="SourceAlpha" type="matrix" values="0 0 0 0 0 0 0 0 0 0 0 0 0 0 0 0 0 0 127 0" result="hardAlpha"/>
<feOffset dx="2.86" dy="1.9"/>
<feGaussianBlur stdDeviation="0.95"/>
<feColorMatrix type="matrix" values="0 0 0 0 0.301961 0 0 0 0 0 0 0 0 0 0.4 0 0 0 0.5 0"/>
<feBlend mode="normal" in2="BackgroundImageFix" result="effect1_dropShadow_9057_138"/>
<feBlend mode="normal" in="SourceGraphic" in2="effect1_dropShadow_9057_138" result="shape"/>
</filter>
<linearGradient id="paint0_linear_9057_138" x1="0.911133" y1="12.977" x2="139.861" y2="12.977" gradientUnits="userSpaceOnUse">
<stop stop-color="#BCA57E"/>
<stop offset="0.27" stop-color="#B29A70"/>
<stop offset="0.64" stop-color="#AA9064"/>
<stop offset="1" stop-color="#A88D60"/>
</linearGradient>
<linearGradient id="paint1_linear_9057_138" x1="0.328403" y1="12.977" x2="140.444" y2="12.977" gradientUnits="userSpaceOnUse">
<stop stop-color="#A88D60"/>
<stop offset="0.36" stop-color="#AA9064"/>
<stop offset="0.73" stop-color="#B29A70"/>
<stop offset="0.99" stop-color="#BCA57E"/>
</linearGradient>
</defs>
</svg>
