<svg width="51" height="19" viewBox="0 0 51 19" fill="none" xmlns="http://www.w3.org/2000/svg">
<mask id="mask0_10787_13" style="mask-type:luminance" maskUnits="userSpaceOnUse" x="0" y="0" width="51" height="19">
<path d="M50.1211 0H0V18.8001H50.1211V0Z" fill="white"/>
</mask>
<g mask="url(#mask0_10787_13)">
<path d="M47.1135 0.380375H40.6164C40.6117 0.371094 40.4075 0.371094 40.0502 0.371094H34.2166C32.7223 0.385016 31.5203 1.60092 31.5156 3.09528C31.5156 6.06544 31.5203 9.676 31.5156 11.1147C39.3076 14.5861 44.5704 12.1264 49.6941 8.63183V3.10456C49.6941 3.09992 49.6941 3.09992 49.6941 3.09063C49.6892 1.63341 48.5477 0.449988 47.1135 0.380375ZM47.3503 4.84952C46.4081 5.0723 41.1083 6.05613 36.9826 8.37655C36.7134 8.52507 35.5114 9.30009 34.9824 8.43228C34.3466 7.39734 35.8827 6.73369 36.6577 6.42277C41.9111 4.34367 46.524 3.91671 47.2944 4.05593C47.4663 4.08842 47.6753 4.19052 47.712 4.45505C47.7447 4.71492 47.5544 4.8031 47.3503 4.84952Z" fill="white"/>
<path d="M49.7017 10.7578V15.8256C49.7017 17.3339 48.481 18.5498 46.9775 18.5498H34.2476C32.7394 18.5498 31.5234 17.3293 31.5234 15.8256V13.3196C39.0138 16.35 43.9192 14.684 49.7017 10.7578Z" fill="white"/>
<path d="M14.001 10.1635C14.4836 10.1635 14.8085 9.89893 14.8085 9.46272C14.8085 9.13318 14.544 8.85011 14.1078 8.85011C13.6251 8.85011 13.3003 9.11465 13.3003 9.5509C13.3003 9.8804 13.5602 10.1635 14.001 10.1635ZM11.068 14.2985C10.8731 15.8068 11.5924 16.5075 13.1657 16.5075H18.6094L19.2638 11.9177H18.0618L17.542 15.7418H13.4116C12.5391 15.7418 12.1632 15.2173 12.2746 14.3449L12.4046 13.361C12.5577 12.2472 12.7758 12.0291 13.6065 12.0291C14.4373 12.0291 14.855 12.4886 14.855 13.4492C14.855 14.9575 14.1774 15.7464 12.8872 15.7464H7.65232C6.45036 15.7464 6.03269 15.1106 6.18582 13.9551L6.46889 11.9224H5.26694L4.98382 13.9551C4.74251 15.7047 5.53144 16.5122 7.54095 16.5122H13.1703C15.0081 16.5122 16.0337 15.4401 16.0337 13.5188C16.0337 12.0105 15.268 11.268 13.6947 11.268C12.1632 11.268 11.3975 11.8806 11.2026 13.3239L11.068 14.2985ZM18.3913 18.0344H14.6739L14.5626 18.8001H18.2845L18.3913 18.0344ZM6.63134 6.77565C7.52703 6.77565 8.00965 6.3394 8.16283 5.24416L8.49232 2.94694H9.69432L9.36483 5.26273C9.21165 6.31156 9.45296 6.77099 10.5668 6.77099H19.7279C20.6235 6.77099 21.1062 6.35332 21.2593 5.23955L21.3243 4.78006C21.4357 4.01434 21.1062 3.53169 20.4704 3.53169H10.8963L11.0495 2.43645L15.7042 0L15.551 1.09524L11.8337 2.92838L11.8755 2.71026H20.6189C21.9508 2.71026 22.7165 3.56418 22.5448 4.80795L22.4799 5.26739C22.3267 6.29302 22.7629 6.77565 23.6586 6.77565H24.5775L25.1066 2.95159H26.3086L25.6542 7.5414H23.4684C22.0483 7.5414 21.5656 7.19333 21.3707 6.3394H21.8069C21.3892 7.19333 20.7581 7.5414 19.6443 7.5414H10.3719C8.82182 7.5414 8.38095 7.19333 8.2742 6.3394H8.71045C8.29277 7.19333 7.66163 7.5414 6.54781 7.5414H3.48484C1.51712 7.5414 0.862755 6.77565 1.05767 5.33234L1.18762 4.34848C1.38718 2.90982 2.10651 2.29723 3.57301 2.29723C5.34581 2.29723 6.15332 3.39247 5.84706 5.55512L5.65212 6.93344C5.36904 8.96613 4.58006 9.84325 2.37103 9.84325H0.421875L0.533256 9.0775H2.37103C3.59622 9.0775 4.18561 8.55311 4.42693 6.93344L4.66825 5.33699C4.9096 3.78694 4.49193 3.06296 3.48948 3.06296C2.72374 3.06296 2.54739 3.28108 2.39424 4.39489L2.26429 5.37876C2.12971 6.3394 2.47777 6.77565 3.57301 6.77565H6.63134ZM7.3089 2.0791C7.79157 2.0791 8.11641 1.81457 8.11641 1.37833C8.11641 1.04884 7.85187 0.765742 7.41566 0.765742C6.93299 0.765742 6.60815 1.03027 6.60815 1.46651C6.60815 1.79137 6.87265 2.0791 7.3089 2.0791ZM26.833 0.872482H23.227L23.0971 1.63822H26.7262L26.833 0.872482ZM21.7605 14.5398L22.5495 8.96613H21.3475L20.5585 14.5398H21.7605ZM21.8673 16.5075C23.7236 16.5075 24.5358 15.8068 24.7307 14.3635L25.4964 8.96148H24.2944L23.5519 14.3402C23.4219 15.2823 22.9393 15.7371 21.9554 15.7371H19.946L19.8346 16.5029H21.8673V16.5075Z" fill="white"/>
</g>
</svg>
