<svg width="6" height="109" viewBox="0 0 6 109" fill="none" xmlns="http://www.w3.org/2000/svg">
<ellipse cx="2.66992" cy="2.47381" rx="2.66992" ry="2.47381" transform="matrix(-1 0 0 1 5.33984 0)" fill="white"/>
<ellipse cx="2.66992" cy="2.47381" rx="2.66992" ry="2.47381" transform="matrix(-1 0 0 1 5.33984 7.94727)" fill="white"/>
<ellipse cx="2.66992" cy="2.47381" rx="2.66992" ry="2.47381" transform="matrix(-1 0 0 1 5.33984 15.8945)" fill="white"/>
<ellipse cx="2.66992" cy="2.47381" rx="2.66992" ry="2.47381" transform="matrix(-1 0 0 1 5.33984 23.8438)" fill="white"/>
<ellipse cx="2.66992" cy="2.47381" rx="2.66992" ry="2.47381" transform="matrix(-1 0 0 1 5.33984 31.791)" fill="white"/>
<ellipse cx="2.66992" cy="2.47381" rx="2.66992" ry="2.47381" transform="matrix(-1 0 0 1 5.33984 39.7383)" fill="white"/>
<ellipse cx="2.66992" cy="2.47381" rx="2.66992" ry="2.47381" transform="matrix(-1 0 0 1 5.33984 47.6855)" fill="white"/>
<ellipse cx="2.66992" cy="2.47381" rx="2.66992" ry="2.47381" transform="matrix(-1 0 0 1 5.33984 55.6328)" fill="white"/>
<ellipse cx="2.66992" cy="2.47381" rx="2.66992" ry="2.47381" transform="matrix(-1 0 0 1 5.33984 63.5801)" fill="white"/>
<ellipse cx="2.66992" cy="2.47381" rx="2.66992" ry="2.47381" transform="matrix(-1 0 0 1 5.33984 71.5293)" fill="white"/>
<ellipse cx="2.66992" cy="2.47381" rx="2.66992" ry="2.47381" transform="matrix(-1 0 0 1 5.33984 79.4766)" fill="white"/>
<ellipse cx="2.66992" cy="2.47381" rx="2.66992" ry="2.47381" transform="matrix(-1 0 0 1 5.33984 87.4238)" fill="white"/>
<ellipse cx="2.66992" cy="2.47381" rx="2.66992" ry="2.47381" transform="matrix(-1 0 0 1 5.33984 95.3711)" fill="white"/>
<ellipse cx="2.66992" cy="2.47381" rx="2.66992" ry="2.47381" transform="matrix(-1 0 0 1 5.33984 103.318)" fill="white"/>
</svg>
