<svg width="81" height="23" viewBox="0 0 81 23" fill="none" xmlns="http://www.w3.org/2000/svg">
<rect width="80.0703" height="22.7191" rx="4.51411" fill="#D7071B"/>
<path d="M19.3155 12.1417C19.3964 12.1417 19.4368 12.4571 19.4368 13.0879C19.4368 13.7025 19.3964 14.0098 19.3155 14.0098H18.4058C18.4462 14.0664 18.4664 14.1513 18.4664 14.2645C18.4503 14.774 18.3007 15.2268 18.0176 15.6231C17.7346 16.0193 17.3384 16.3266 16.8289 16.5449C16.3275 16.7633 15.7534 16.8724 15.1064 16.8724H14.1967C13.1373 16.8724 12.3165 16.5652 11.7343 15.9506C11.1601 15.3441 10.8731 14.499 10.8731 13.4154V10.9287H12.6683V13.3669C12.6683 13.9168 12.7936 14.3251 13.0443 14.592C13.295 14.867 13.6872 15.0044 14.2209 15.0044H15.2035C15.7372 15.0044 16.1213 14.9397 16.3558 14.8103C16.5903 14.689 16.7076 14.5071 16.7076 14.2645C16.7076 14.127 16.6712 14.03 16.5984 13.9734C16.5256 13.9087 16.4084 13.8763 16.2467 13.8763H14.1239L14.2695 12.1417H19.3155ZM21.9587 6.21018V9.7764C22.5329 9.08094 23.2001 8.73322 23.9602 8.73322C24.4211 8.73322 24.8295 8.84239 25.1853 9.06073C25.5492 9.27907 25.8323 9.58636 26.0344 9.98261C26.2366 10.3708 26.3377 10.8196 26.3377 11.329C26.3377 11.6363 26.3053 11.8789 26.2406 12.0568C26.3539 12.1134 26.5722 12.1417 26.8957 12.1417H27.1989C27.2798 12.1417 27.3202 12.4571 27.3202 13.0879C27.3202 13.7025 27.2798 14.0098 27.1989 14.0098H26.8957C26.5398 14.0098 26.2366 13.9734 25.9859 13.9006C25.7433 13.8278 25.5209 13.6984 25.3188 13.5124C24.8578 13.844 24.2958 14.0098 23.6327 14.0098H19.3144C19.2335 14.0098 19.1931 13.7025 19.1931 13.0879C19.1931 12.4571 19.2335 12.1417 19.3144 12.1417H20.1635V6.21018H21.9587ZM23.6569 12.166C23.9481 12.166 24.1745 12.0932 24.3362 11.9477C24.498 11.794 24.5788 11.5878 24.5788 11.329C24.5788 11.0945 24.506 10.9004 24.3605 10.7468C24.223 10.5931 24.0411 10.5163 23.8146 10.5163C23.5478 10.5163 23.2567 10.6538 22.9413 10.9287C22.634 11.1956 22.2782 11.608 21.8738 12.166H23.6569ZM28.0527 12.1417C28.4894 12.1417 28.7078 11.9558 28.7078 11.5838V9.71575H30.4666V11.5838C30.4666 11.9558 30.6809 12.1417 31.1095 12.1417C31.3198 12.1417 31.4775 12.0932 31.5826 11.9962C31.6877 11.8991 31.7403 11.7617 31.7403 11.5838V9.71575H33.5112V11.5838C33.5112 11.9558 33.7094 12.1417 34.1056 12.1417C34.51 12.1417 34.7121 11.9558 34.7121 11.5838V9.71575H36.471V11.5595C36.471 11.7617 36.5154 11.9113 36.6044 12.0083C36.6934 12.0973 36.8308 12.1417 37.0168 12.1417H37.502C37.5829 12.1417 37.6233 12.4571 37.6233 13.0879C37.6233 13.7025 37.5829 14.0098 37.502 14.0098H37.0411C36.2809 14.0098 35.7876 13.8319 35.5612 13.476C35.2782 13.8319 34.7889 14.0098 34.0935 14.0098C33.3495 14.0098 32.8441 13.8197 32.5772 13.4397C32.4236 13.6337 32.2295 13.7793 31.995 13.8763C31.7605 13.9653 31.4613 14.0098 31.0974 14.0098C30.7011 14.0098 30.3777 13.9653 30.127 13.8763C29.8763 13.7793 29.6822 13.6337 29.5447 13.4397C29.3911 13.6337 29.193 13.7793 28.9504 13.8763C28.7159 13.9653 28.4166 14.0098 28.0527 14.0098H27.2036C27.1228 14.0098 27.0823 13.7025 27.0823 13.0879C27.0823 12.4571 27.1228 12.1417 27.2036 12.1417H28.0527ZM38.9653 12.1417C38.5448 11.8506 38.3345 11.4261 38.3345 10.8681C38.3345 10.4233 38.4356 10.015 38.6378 9.64297C38.848 9.26289 39.1392 8.95964 39.5111 8.73322C39.8912 8.50679 40.3319 8.39358 40.8333 8.39358C41.6339 8.39358 42.2485 8.63213 42.6771 9.10925C43.1057 9.58636 43.32 10.2576 43.32 11.1228V11.5595C43.32 12.3601 43.0491 12.9706 42.5073 13.3911C41.9654 13.8036 41.181 14.0098 40.154 14.0098H37.4976C37.4167 14.0098 37.3763 13.7025 37.3763 13.0879C37.3763 12.4571 37.4167 12.1417 37.4976 12.1417H38.7106H38.9653ZM41.3913 12.069C41.5369 11.9153 41.6096 11.6565 41.6096 11.2926V11.1713C41.6096 10.8398 41.5409 10.5891 41.4034 10.4193C41.2659 10.2414 41.0678 10.1524 40.8091 10.1524C40.6069 10.1524 40.433 10.2252 40.2875 10.3708C40.15 10.5082 40.0813 10.6821 40.0813 10.8924C40.0813 11.1511 40.1783 11.3735 40.3724 11.5595C40.5745 11.7374 40.9142 11.9072 41.3913 12.069ZM42.5436 5.93119V7.4353H39.0502V5.93119H42.5436ZM49.6798 12.1417C49.8415 12.1417 49.9709 12.1094 50.0679 12.0447C50.1731 11.98 50.2256 11.8911 50.2256 11.7778C50.2256 11.6808 50.1731 11.4867 50.0679 11.1956C49.9628 10.9045 49.6879 10.1807 49.2431 9.02434L48.9884 8.35719L50.6623 7.58087L52.0815 11.5231C52.1543 11.7415 52.2433 11.8991 52.3484 11.9962C52.4535 12.0932 52.591 12.1417 52.7608 12.1417H53.1004C53.1813 12.1417 53.2217 12.4571 53.2217 13.0879C53.2217 13.4841 53.2096 13.7389 53.1853 13.8521C53.1611 13.9572 53.1328 14.0098 53.1004 14.0098H52.6395C51.9764 14.0098 51.5033 13.8197 51.2203 13.4397C51.0505 13.6499 50.8564 13.7995 50.638 13.8885C50.4278 13.9693 50.1731 14.0098 49.8739 14.0098H47.0233L46.8777 12.1417H49.6798ZM56.0096 12.1417C56.1632 12.1417 56.2885 12.0973 56.3856 12.0083C56.4907 11.9194 56.5433 11.8021 56.5433 11.6565V9.71575H58.3021V11.7415C58.3021 12.445 58.0919 12.9989 57.6714 13.4033C57.2589 13.8076 56.701 14.0098 55.9974 14.0098H53.0984C53.0175 14.0098 52.9771 13.7025 52.9771 13.0879C52.9771 12.4571 53.0175 12.1417 53.0984 12.1417H56.0096ZM56.7131 15.1136V16.6177H53.2197V15.1136H56.7131ZM58.5452 15.0044C59.0547 15.0044 59.4428 14.875 59.7097 14.6163C59.9846 14.3656 60.1221 13.9976 60.1221 13.5124V9.71575H61.9173V11.5595C61.9173 11.7617 61.9659 11.9113 62.0629 12.0083C62.1599 12.0973 62.3136 12.1417 62.5238 12.1417H62.8271C62.908 12.1417 62.9484 12.4571 62.9484 13.0879C62.9484 13.7025 62.908 14.0098 62.8271 14.0098H62.6209C62.3055 14.0098 62.0669 13.941 61.9052 13.8036C61.8648 14.3939 61.7071 14.9195 61.4321 15.3805C61.1653 15.8495 60.7892 16.2134 60.304 16.4722C59.8269 16.739 59.2649 16.8724 58.618 16.8724H58.157L58.0115 15.0044H58.5452ZM63.7456 12.1417C64.344 12.1417 64.8453 12.1013 65.2497 12.0204C65.6621 11.9396 66.0907 11.7859 66.5355 11.5595L67.3118 11.1107C67.2471 10.8681 67.15 10.7023 67.0207 10.6134C66.8994 10.5244 66.7134 10.4799 66.4627 10.4799H63.697L63.879 8.64831H66.8508C67.3441 8.64831 67.7485 8.7413 68.0638 8.9273C68.3792 9.11329 68.6461 9.42058 68.8644 9.84918C69.0828 10.2778 69.2809 10.8843 69.4588 11.6687L66.96 13.1728C66.4505 13.4882 65.9532 13.7065 65.468 13.8278C64.9828 13.9491 64.3804 14.0098 63.6606 14.0098H62.8237C62.7428 14.0098 62.7024 13.7025 62.7024 13.0879C62.7024 12.4571 62.7428 12.1417 62.8237 12.1417H63.7456ZM65.0556 7.54447V6.04036H66.9236V7.54447H65.0556Z" fill="white"/>
</svg>
