<svg width="96" height="29" viewBox="0 0 96 29" fill="none" xmlns="http://www.w3.org/2000/svg">
<path d="M95.6953 0H6.34986C2.84285 0 -0.0001297 2.84299 -0.0001297 6.35V22.5C-0.0001297 26.009 2.84442 28.8535 6.35335 28.8535H89.3418C92.8508 28.8535 95.6953 26.009 95.6953 22.5V0Z" fill="url(#paint0_linear_11014_6)"/>
<path d="M15.692 9.57472C15.7549 9.57472 15.7864 9.81996 15.7864 10.3105C15.7864 10.7884 15.7549 11.0273 15.692 11.0273H14.9846C15.016 11.0714 15.0318 11.1374 15.0318 11.2254C15.0192 11.6216 14.9028 11.9738 14.6827 12.2819C14.4627 12.59 14.1545 12.829 13.7583 12.9988C13.3685 13.1686 12.922 13.2534 12.4189 13.2534H11.7115C10.8877 13.2534 10.2494 13.0145 9.79663 12.5366C9.35016 12.0649 9.12692 11.4078 9.12692 10.5651V8.63145H10.5229V10.5274C10.5229 10.955 10.6204 11.2726 10.8154 11.4801C11.0103 11.6939 11.3153 11.8008 11.7303 11.8008H12.4944C12.9094 11.8008 13.2081 11.7505 13.3905 11.6499C13.5728 11.5556 13.664 11.4141 13.664 11.2254C13.664 11.1185 13.6357 11.0431 13.5791 10.999C13.5225 10.9487 13.4314 10.9236 13.3056 10.9236H11.6549L11.7681 9.57472H15.692ZM19.6246 3.10392L19.8415 3.92456L16.3326 5.29229V4.38676L19.6246 3.10392ZM18.0776 9.57472C18.2285 9.57472 18.3449 9.54956 18.4266 9.49925C18.5084 9.44895 18.5493 9.37977 18.5493 9.29174C18.5493 9.20999 18.5272 9.13452 18.4832 9.06535C18.4455 8.98989 18.3826 8.90814 18.2946 8.8201L16.3326 6.90527V5.81109L19.9924 4.42449L20.3603 5.78279L18.0965 6.64116L19.3416 7.88627C19.8698 8.4145 20.266 8.79495 20.5301 9.02762C20.8005 9.254 21.0206 9.40178 21.1904 9.47096C21.3602 9.54013 21.5551 9.57472 21.7752 9.57472C21.8381 9.57472 21.8695 9.81996 21.8695 10.3105C21.8695 10.7884 21.8381 11.0273 21.7752 11.0273C21.4294 11.0273 21.1527 11.0085 20.9451 10.9707C20.7376 10.933 20.549 10.8607 20.3792 10.7538C20.2094 10.6469 20.0176 10.4834 19.8038 10.2633C19.6906 10.5023 19.4894 10.6909 19.2001 10.8293C18.9171 10.9613 18.5838 11.0273 18.2002 11.0273H15.6912C15.6283 11.0273 15.5968 10.7884 15.5968 10.3105C15.5968 9.81996 15.6283 9.57472 15.6912 9.57472H18.0776ZM24.4497 9.26344C24.4497 9.81053 24.2862 10.2413 23.9592 10.5557C23.6385 10.8701 23.2046 11.0273 22.6575 11.0273H21.7708C21.7079 11.0273 21.6765 10.7884 21.6765 10.3105C21.6765 9.81996 21.7079 9.57472 21.7708 9.57472H22.6575C22.7832 9.57472 22.8839 9.54013 22.9593 9.47096C23.0411 9.40178 23.0819 9.3106 23.0819 9.19741V7.68818H24.4497V9.26344ZM22.6575 6.83925V5.6696H24.1101V6.83925H22.6575ZM27.6832 9.57472C27.7146 9.57472 27.7366 9.61873 27.7492 9.70677C27.768 9.79481 27.7775 9.99604 27.7775 10.3105C27.7775 10.6123 27.768 10.8072 27.7492 10.8953C27.7366 10.9833 27.7146 11.0273 27.6832 11.0273H27.3058C26.7525 11.0273 26.3311 10.8701 26.0419 10.5557C25.7589 10.2413 25.6174 9.79167 25.6174 9.20684V4.96215H27.0134V9.10308C27.0134 9.26658 27.0449 9.38606 27.1078 9.46152C27.1706 9.53698 27.2713 9.57472 27.4096 9.57472H27.6832ZM28.4015 9.57472C28.8669 9.57472 29.2567 9.54327 29.5712 9.48039C29.8919 9.4175 30.2252 9.29802 30.571 9.12195L31.1747 8.77294C31.1244 8.58429 31.0489 8.45537 30.9483 8.3862C30.854 8.31703 30.7094 8.28244 30.5144 8.28244H28.3638L28.5053 6.85811H30.8163C31.1999 6.85811 31.5143 6.93043 31.7595 7.07506C32.0048 7.2197 32.2123 7.45866 32.3821 7.79194C32.5519 8.12523 32.7059 8.59686 32.8443 9.20684L30.9012 10.3765C30.505 10.6217 30.1183 10.7915 29.7409 10.8859C29.3636 10.9802 28.8952 11.0273 28.3355 11.0273H27.6846C27.6217 11.0273 27.5903 10.7884 27.5903 10.3105C27.5903 9.81996 27.6217 9.57472 27.6846 9.57472H28.4015ZM29.4202 5.99974V4.83009H30.8729V5.99974H29.4202ZM37.7325 8.92386C37.7325 8.67861 37.7797 8.48996 37.874 8.3579H37.5911C37.3961 8.3579 37.2483 8.41135 37.1477 8.51826C37.0534 8.62516 37.0062 8.77608 37.0062 8.97103V13.2157H35.6102V8.98989C35.6102 8.37362 35.7926 7.88313 36.1573 7.5184C36.5283 7.15367 37.0282 6.9713 37.6571 6.9713H39.704C40.3077 6.9713 40.7604 7.12223 41.0623 7.42407C41.3641 7.71963 41.515 8.15353 41.515 8.72578V9.24457C41.515 9.81053 41.3452 10.2507 41.0057 10.5651C40.6661 10.8733 40.1945 11.0273 39.5908 11.0273C38.9871 11.0273 38.5249 10.8827 38.2042 10.5934C37.8898 10.2979 37.7325 9.8797 37.7325 9.3389V8.92386ZM39.6379 9.63131C39.814 9.63131 39.9492 9.59672 40.0435 9.52755C40.1379 9.45209 40.185 9.32947 40.185 9.15968V8.83897C40.185 8.68176 40.141 8.56228 40.053 8.48053C39.9649 8.39249 39.836 8.34847 39.6662 8.34847H39.553C39.3958 8.34847 39.2764 8.39249 39.1946 8.48053C39.1129 8.56857 39.072 8.68805 39.072 8.83897V9.13138C39.072 9.31375 39.116 9.44266 39.204 9.51812C39.2921 9.59358 39.4367 9.63131 39.6379 9.63131ZM44.3344 10.6217C44.3344 11.1374 44.2275 11.5933 44.0137 11.9895C43.8062 12.3919 43.5075 12.7032 43.1176 12.9233C42.734 13.1434 42.2844 13.2534 41.7688 13.2534H40.8821L40.7689 11.8008H41.7122C42.1083 11.8008 42.4102 11.7002 42.6177 11.499C42.8315 11.304 42.9384 11.0179 42.9384 10.6406V7.68818H44.3344V10.6217ZM42.8818 6.83925V5.6696H44.3344V6.83925H42.8818ZM45.5052 4.96215H46.9012V11.0273H45.5052V4.96215ZM52.6106 9.57472C52.6734 9.57472 52.7049 9.81996 52.7049 10.3105C52.7049 10.7884 52.6734 11.0273 52.6106 11.0273H51.922C51.8528 11.7254 51.6013 12.2693 51.1674 12.6592C50.7397 13.0554 50.1769 13.2534 49.4789 13.2534H48.1489L48.0357 11.8197H49.6393C49.9348 11.8197 50.1644 11.7474 50.3279 11.6027C50.4976 11.4644 50.5825 11.2726 50.5825 11.0273H50.0543C49.3563 11.0273 48.8564 10.8827 48.5545 10.5934C48.259 10.2979 48.1112 9.8294 48.1112 9.18798C48.1112 8.78552 48.1898 8.42708 48.347 8.11265C48.5105 7.79194 48.7369 7.54355 49.0262 7.36747C49.3217 7.18511 49.6581 7.09393 50.0354 7.09393C50.6328 7.09393 51.1013 7.28572 51.4409 7.66932C51.7805 8.04663 51.9503 8.57485 51.9503 9.25401V9.57472H52.6106ZM49.4695 9.12195C49.4695 9.30431 49.5135 9.43637 49.6015 9.51812C49.6959 9.59358 49.8562 9.63131 50.0826 9.63131H50.6014V9.19741C50.6014 8.95216 50.548 8.76665 50.441 8.64088C50.3404 8.51511 50.1958 8.45223 50.0071 8.45223C49.8311 8.45223 49.6959 8.51511 49.6015 8.64088C49.5135 8.76036 49.4695 8.92072 49.4695 9.12195ZM54.026 9.57472C54.0889 9.57472 54.1204 9.81996 54.1204 10.3105C54.1204 10.6186 54.1109 10.8167 54.0921 10.9047C54.0732 10.9865 54.0512 11.0273 54.026 11.0273H52.6111C52.5483 11.0273 52.5168 10.7884 52.5168 10.3105C52.5168 9.81996 52.5483 9.57472 52.6111 9.57472H54.026ZM55.4446 9.57472C55.5075 9.57472 55.539 9.81996 55.539 10.3105C55.539 10.6186 55.5295 10.8167 55.5107 10.9047C55.4918 10.9865 55.4698 11.0273 55.4446 11.0273H54.0297C53.9668 11.0273 53.9354 10.7884 53.9354 10.3105C53.9354 9.81996 53.9668 9.57472 54.0297 9.57472H55.4446ZM55.7973 9.57472C55.9231 9.57472 56.0237 9.54013 56.0992 9.47096C56.1746 9.40178 56.2124 9.30431 56.2124 9.17854V4.96215H57.6084V9.26344C57.6084 9.81682 57.448 10.2507 57.1273 10.5651C56.8129 10.8733 56.3821 11.0273 55.8351 11.0273H55.4483C55.3854 11.0273 55.354 10.7884 55.354 10.3105C55.354 9.81996 55.3854 9.57472 55.4483 9.57472H55.7973ZM60.4301 11.8008C60.8263 11.8008 61.1281 11.7002 61.3356 11.499C61.5494 11.304 61.6563 11.0179 61.6563 10.6406V7.68818H63.0524V9.12195C63.0524 9.27916 63.0901 9.39549 63.1656 9.47096C63.241 9.54013 63.3605 9.57472 63.524 9.57472H63.7598C63.8227 9.57472 63.8541 9.81996 63.8541 10.3105C63.8541 10.7884 63.8227 11.0273 63.7598 11.0273H63.5995C63.3542 11.0273 63.1687 10.9739 63.0429 10.867C63.0115 11.326 62.8889 11.7348 62.6751 12.0932C62.4675 12.458 62.1751 12.7409 61.7978 12.9422C61.4268 13.1497 60.9898 13.2534 60.4867 13.2534H60.1282L60.015 11.8008H60.4301ZM65.1721 9.57472C65.2349 9.57472 65.2664 9.81996 65.2664 10.3105C65.2664 10.6186 65.2569 10.8167 65.2381 10.9047C65.2192 10.9865 65.1972 11.0273 65.1721 11.0273H63.7572C63.6943 11.0273 63.6628 10.7884 63.6628 10.3105C63.6628 9.81996 63.6943 9.57472 63.7572 9.57472H65.1721ZM66.5906 9.57472C66.6535 9.57472 66.685 9.81996 66.685 10.3105C66.685 10.6186 66.6755 10.8167 66.6567 10.9047C66.6378 10.9865 66.6158 11.0273 66.5906 11.0273H65.1757C65.1129 11.0273 65.0814 10.7884 65.0814 10.3105C65.0814 9.81996 65.1129 9.57472 65.1757 9.57472H66.5906ZM68.0092 9.57472C68.0721 9.57472 68.1035 9.81996 68.1035 10.3105C68.1035 10.6186 68.0941 10.8167 68.0752 10.9047C68.0564 10.9865 68.0344 11.0273 68.0092 11.0273H66.5943C66.5314 11.0273 66.5 10.7884 66.5 10.3105C66.5 9.81996 66.5314 9.57472 66.5943 9.57472H68.0092ZM73.5782 9.57472C73.6096 9.57472 73.6316 9.61873 73.6442 9.70677C73.6631 9.79481 73.6725 9.99604 73.6725 10.3105C73.6725 10.6123 73.6631 10.8072 73.6442 10.8953C73.6316 10.9833 73.6096 11.0273 73.5782 11.0273C73.3203 11.0273 73.1128 11.0745 72.9556 11.1688C72.7984 11.2694 72.6223 11.4707 72.4274 11.7725L71.5124 13.2346H70.8804C70.1887 13.2346 69.6479 13.0459 69.258 12.6686C68.8681 12.2976 68.6732 11.7757 68.6732 11.1028V11.0273H68.0129C67.95 11.0273 67.9186 10.7884 67.9186 10.3105C67.9186 9.81996 67.95 9.57472 68.0129 9.57472H68.6732V9.01819C68.6732 8.36419 68.843 7.84854 69.1826 7.47123C69.5221 7.09393 69.9875 6.90527 70.5786 6.90527C71.1383 6.90527 71.5816 7.07192 71.9086 7.40521C72.2356 7.7322 72.3991 8.17868 72.3991 8.74464C72.3991 9.12824 72.289 9.48982 72.0689 9.8294C71.8551 10.169 71.5659 10.4457 71.2011 10.6595C70.8364 10.867 70.4402 10.9739 70.0126 10.9802V11.0556C70.0126 11.3449 70.0755 11.5556 70.2013 11.6876C70.327 11.8197 70.5346 11.8857 70.8238 11.8857L71.4181 10.9236C71.657 10.54 71.8709 10.257 72.0595 10.0746C72.2482 9.88599 72.4557 9.75708 72.6821 9.68791C72.9084 9.61245 73.2071 9.57472 73.5782 9.57472ZM71.0691 8.7918C71.0691 8.62831 71.0251 8.50254 70.937 8.4145C70.849 8.32646 70.7232 8.28244 70.5597 8.28244C70.195 8.28244 70.0126 8.5214 70.0126 8.99932V9.59358C70.3459 9.59358 70.6037 9.52441 70.7861 9.38606C70.9748 9.24143 71.0691 9.04334 71.0691 8.7918ZM74.237 9.57472C74.5766 9.57472 74.7463 9.43008 74.7463 9.14081V7.68818H76.1141V9.14081C76.1141 9.43008 76.2807 9.57472 76.614 9.57472C76.7775 9.57472 76.9001 9.53698 76.9819 9.46152C77.0636 9.38606 77.1045 9.27916 77.1045 9.14081V7.68818H78.4817V9.14081C78.4817 9.43008 78.6357 9.57472 78.9439 9.57472C79.1011 9.57472 79.2174 9.53698 79.2929 9.46152C79.3746 9.38606 79.4155 9.27916 79.4155 9.14081V7.68818H80.7832V9.17854C80.7832 9.75079 80.6197 10.2036 80.2927 10.5368C79.9657 10.8638 79.513 11.0273 78.9344 11.0273C78.3559 11.0273 77.9629 10.8796 77.7554 10.584C77.6359 10.7349 77.485 10.8481 77.3026 10.9236C77.1202 10.9928 76.8876 11.0273 76.6046 11.0273C76.2964 11.0273 76.0449 10.9928 75.85 10.9236C75.655 10.8481 75.5041 10.7349 75.3972 10.584C75.2777 10.7349 75.1236 10.8481 74.935 10.9236C74.7526 10.9928 74.52 11.0273 74.237 11.0273H73.5767C73.5138 11.0273 73.4824 10.7884 73.4824 10.3105C73.4824 9.81996 73.5138 9.57472 73.5767 9.57472H74.237ZM78.3685 4.14151V5.27343H77.1422V4.14151H78.3685ZM79.1137 5.6696V6.83925H76.3971V5.6696H79.1137ZM13.6011 24.0368C13.6011 23.8167 13.469 23.7066 13.2049 23.7066H11.4033V21.8012C11.4033 21.2227 11.5699 20.7574 11.9032 20.4052C12.2428 20.0531 12.6987 19.877 13.2709 19.877H14.6387L14.7236 21.2824H13.2898C13.1452 21.2824 13.0257 21.3296 12.9314 21.4239C12.837 21.512 12.7899 21.6346 12.7899 21.7918V22.2729H13.4313C13.9784 22.2729 14.3746 22.4112 14.6198 22.6879C14.8651 22.9646 14.9877 23.3608 14.9877 23.8764C14.9877 24.3103 14.8714 24.7065 14.6387 25.0649C14.4123 25.4297 14.0947 25.7189 13.686 25.9327C13.2772 26.1465 12.8182 26.2534 12.3088 26.2534H11.5825C10.7587 26.2534 10.1204 26.0145 9.66767 25.5366C9.22119 25.0649 8.99795 24.4078 8.99795 23.5651V21.6314H10.394V23.5274C10.394 23.955 10.4915 24.2726 10.6864 24.4801C10.8813 24.6939 11.1863 24.8008 11.6014 24.8008H12.3465C12.7616 24.8008 13.0729 24.7316 13.2804 24.5933C13.4942 24.455 13.6011 24.2694 13.6011 24.0368ZM19.7132 20.9523C19.9585 21.2416 20.1283 21.5025 20.2226 21.7352C20.3169 21.9679 20.3641 22.21 20.3641 22.4615C20.3641 22.9269 20.2037 23.3042 19.883 23.5934C19.5623 23.8827 19.119 24.0273 18.553 24.0273H15.9873L15.8741 22.5747H18.3738C18.5184 22.5747 18.6316 22.5496 18.7134 22.4993C18.8014 22.4489 18.8454 22.3798 18.8454 22.2917C18.8454 22.2226 18.8266 22.1565 18.7888 22.0936C18.7574 22.0245 18.6945 21.9333 18.6002 21.8201L17.0532 19.9996L18.0719 18.9903L19.7132 20.9523ZM21.5367 17.9621H22.9327V24.0273H21.5367V17.9621ZM25.856 23.6217C25.856 24.1374 25.7491 24.5933 25.5353 24.9895C25.3278 25.3919 25.0291 25.7032 24.6392 25.9233C24.2556 26.1434 23.806 26.2534 23.2903 26.2534H22.4037L22.2905 24.8008H23.2337C23.6299 24.8008 23.9318 24.7002 24.1393 24.499C24.3531 24.304 24.46 24.0179 24.46 23.6406V20.6882H25.856V23.6217ZM24.4034 19.8392V18.6696H25.856V19.8392H24.4034ZM27.5406 17.7452C27.308 17.7452 27.157 17.8364 27.0879 18.0187L26.852 18.613L25.9654 18.2168L26.2861 17.3585C26.4056 17.044 26.5596 16.8334 26.7483 16.7265C26.9307 16.6133 27.2042 16.5567 27.5689 16.5567H29.8705V17.7452H27.5406ZM29.0216 18.7073V24.0273H27.6255V18.7073H29.0216ZM34.6575 26.2534C33.8337 26.2534 33.1954 26.0145 32.7427 25.5366C32.2962 25.0649 32.0729 24.4078 32.0729 23.5651V21.6314H33.469V23.5274C33.469 23.955 33.5665 24.2726 33.7614 24.4801C33.9563 24.6939 34.2613 24.8008 34.6764 24.8008H35.0537C35.4624 24.8008 35.78 24.7002 36.0064 24.499C36.2327 24.2977 36.3459 24.0116 36.3459 23.6406V20.6882H37.7325V23.5274C37.7325 24.0808 37.6225 24.5619 37.4024 24.9706C37.1823 25.3856 36.8679 25.7032 36.4591 25.9233C36.0567 26.1434 35.5882 26.2534 35.0537 26.2534H34.6575ZM33.9029 20.6693V19.4997H35.3555V20.6693H33.9029ZM38.9005 17.9621H40.2965V24.0273H38.9005V17.9621ZM43.4402 22.5747C43.5659 22.5747 43.6666 22.5496 43.742 22.4993C43.8238 22.4489 43.8646 22.3798 43.8646 22.2917C43.8646 22.2163 43.8238 22.0654 43.742 21.839C43.6603 21.6126 43.4465 21.0498 43.1006 20.1505L42.9025 19.6317L44.2042 19.028L45.3078 22.0936C45.3644 22.2634 45.4336 22.3861 45.5154 22.4615C45.5971 22.537 45.704 22.5747 45.8361 22.5747H46.1002C46.1631 22.5747 46.1945 22.82 46.1945 23.3105C46.1945 23.6186 46.1851 23.8167 46.1662 23.9047C46.1474 23.9865 46.1253 24.0273 46.1002 24.0273H45.7417C45.2261 24.0273 44.8582 23.8796 44.6381 23.584C44.5061 23.7475 44.3551 23.8638 44.1854 23.933C44.0219 23.9959 43.8238 24.0273 43.5911 24.0273H41.3744L41.2612 22.5747H43.4402ZM47.0984 22.5747C47.2305 22.5747 47.3342 22.5433 47.4097 22.4804C47.4852 22.4112 47.5229 22.3169 47.5229 22.1974V20.6882H48.9095V22.1691C48.9095 22.4395 49.051 22.5747 49.334 22.5747H49.6358C49.6987 22.5747 49.7301 22.8168 49.7301 23.301C49.7301 23.7852 49.6987 24.0273 49.6358 24.0273H49.2679C48.7523 24.0273 48.397 23.889 48.202 23.6123C48.0826 23.7569 47.9348 23.8638 47.7587 23.933C47.5826 23.9959 47.3625 24.0273 47.0984 24.0273H46.0986C46.0357 24.0273 46.0042 23.7884 46.0042 23.3105C46.0042 22.82 46.0357 22.5747 46.0986 22.5747H47.0984ZM48.0794 24.8857V26.0554H45.3628V24.8857H48.0794ZM49.9094 22.5747C50.0414 22.5747 50.1389 22.5464 50.2018 22.4898C50.2647 22.4332 50.2961 22.3389 50.2961 22.2068V21.9993C50.2961 21.3831 50.4722 20.8957 50.8243 20.5373C51.1765 20.1788 51.6544 19.9996 52.2581 19.9996C52.8618 19.9996 53.3271 20.1757 53.6541 20.5278C53.9811 20.8737 54.1446 21.3705 54.1446 22.0182C54.1446 22.647 53.9717 23.1407 53.6258 23.4991C53.2862 23.8513 52.8115 24.0273 52.2015 24.0273C51.9185 24.0273 51.6764 23.9896 51.4752 23.9142C51.2739 23.8387 51.123 23.7381 51.0224 23.6123C50.9029 23.7569 50.752 23.8638 50.5696 23.933C50.3936 23.9959 50.1735 24.0273 49.9094 24.0273H49.6358C49.5729 24.0273 49.5415 23.7884 49.5415 23.3105C49.5415 22.82 49.5729 22.5747 49.6358 22.5747H49.9094ZM52.7957 22.0182C52.7957 21.5906 52.6008 21.3768 52.2109 21.3768C51.8273 21.3768 51.6355 21.5906 51.6355 22.0182C51.6355 22.2068 51.6827 22.3546 51.777 22.4615C51.8776 22.5621 52.0223 22.6124 52.2109 22.6124C52.4122 22.6124 52.5599 22.5653 52.6543 22.471C52.7486 22.3703 52.7957 22.2194 52.7957 22.0182ZM59.5151 23.6217C59.5151 24.1374 59.4082 24.5933 59.1944 24.9895C58.9869 25.3919 58.6882 25.7032 58.2983 25.9233C57.9147 26.1434 57.4651 26.2534 56.9494 26.2534H56.591L56.4778 24.8008H56.8928C57.289 24.8008 57.5909 24.7002 57.7984 24.499C58.0122 24.304 58.1191 24.0179 58.1191 23.6406V20.6882H59.5151V23.6217ZM58.0625 19.8392V18.6696H59.5151V19.8392H58.0625ZM60.6859 17.9621H62.0819V24.0273H60.6859V17.9621ZM67.1047 22.5747C67.2305 22.5747 67.3311 22.5496 67.4066 22.4993C67.4883 22.4489 67.5292 22.3798 67.5292 22.2917C67.5292 22.2163 67.4883 22.0654 67.4066 21.839C67.3248 21.6126 67.111 21.0498 66.7651 20.1505L66.5671 19.6317L67.8688 19.028L68.9724 22.0936C69.029 22.2634 69.0981 22.3861 69.1799 22.4615C69.2616 22.537 69.3686 22.5747 69.5006 22.5747H69.7647C69.8276 22.5747 69.859 22.82 69.859 23.3105C69.859 23.6186 69.8496 23.8167 69.8308 23.9047C69.8119 23.9865 69.7899 24.0273 69.7647 24.0273H69.4063C68.8906 24.0273 68.5228 23.8796 68.3027 23.584C68.1706 23.7475 68.0197 23.8638 67.8499 23.933C67.6864 23.9959 67.4883 24.0273 67.2556 24.0273H65.039L64.9258 22.5747H67.1047ZM71.178 22.5747C71.2409 22.5747 71.2723 22.82 71.2723 23.3105C71.2723 23.6186 71.2629 23.8167 71.244 23.9047C71.2252 23.9865 71.2032 24.0273 71.178 24.0273H69.7631C69.7002 24.0273 69.6688 23.7884 69.6688 23.3105C69.6688 22.82 69.7002 22.5747 69.7631 22.5747H71.178ZM72.5966 22.5747C72.6595 22.5747 72.6909 22.82 72.6909 23.3105C72.6909 23.6186 72.6815 23.8167 72.6626 23.9047C72.6437 23.9865 72.6217 24.0273 72.5966 24.0273H71.1817C71.1188 24.0273 71.0874 23.7884 71.0874 23.3105C71.0874 22.82 71.1188 22.5747 71.1817 22.5747H72.5966ZM78.2504 22.5747C78.2819 22.5747 78.3039 22.6187 78.3165 22.7068C78.3353 22.7948 78.3448 22.996 78.3448 23.3105C78.3448 23.6123 78.3353 23.8072 78.3165 23.8953C78.3039 23.9833 78.2819 24.0273 78.2504 24.0273H77.194C76.672 24.0273 76.2853 24.0022 76.0338 23.9519C75.7822 23.8953 75.5653 23.7915 75.3829 23.6406C75.1565 23.7852 74.8955 23.8859 74.6 23.9424C74.3044 23.999 73.9208 24.0273 73.4492 24.0273H72.6003C72.5374 24.0273 72.5059 23.7884 72.5059 23.3105C72.5059 22.82 72.5374 22.5747 72.6003 22.5747H73.6001C73.9334 22.5747 74.1315 22.6187 74.1944 22.7068L73.1851 21.2258L73.8265 19.9902H76.1281C76.5746 19.9902 76.9267 20.0939 77.1845 20.3014C77.4424 20.5027 77.5713 20.7888 77.5713 21.1598C77.5713 21.4239 77.5147 21.6629 77.4015 21.8767C77.2946 22.0905 77.0902 22.3452 76.7884 22.6407C76.8638 22.5967 76.9802 22.5747 77.1374 22.5747H78.2504ZM75.4867 22.4427C75.8011 22.1723 76.0117 21.9773 76.1186 21.8578C76.2318 21.7321 76.2884 21.6283 76.2884 21.5466C76.2884 21.3956 76.169 21.3202 75.93 21.3202H74.7037L75.4867 22.4427ZM80.9258 22.2634C80.9258 22.8105 80.7623 23.2413 80.4353 23.5557C80.1146 23.8701 79.6807 24.0273 79.1336 24.0273H78.247C78.1841 24.0273 78.1526 23.7884 78.1526 23.3105C78.1526 22.82 78.1841 22.5747 78.247 22.5747H79.1336C79.2594 22.5747 79.36 22.5401 79.4355 22.471C79.5172 22.4018 79.5581 22.3106 79.5581 22.1974V20.6882H80.9258V22.2634ZM78.2753 26.0554V24.8857H79.7279V26.0554H78.2753Z" fill="white"/>
<defs>
<linearGradient id="paint0_linear_11014_6" x1="-0.0001297" y1="14.4268" x2="95.6953" y2="14.4268" gradientUnits="userSpaceOnUse">
<stop stop-color="#0A437F"/>
<stop offset="1" stop-color="#216DBE"/>
</linearGradient>
</defs>
</svg>
