<svg width="100" height="35" viewBox="0 0 100 35" fill="none" xmlns="http://www.w3.org/2000/svg">
<path d="M0 10C0 4.47715 4.47715 0 10 0H90C95.5228 0 100 4.47715 100 10V34.25H0V10Z" fill="#E2062D"/>
<path d="M95.6791 14.4443L92.9995 11.5282C92.7433 11.2493 92.3162 11.2726 92.092 11.5863C89.4658 15.3272 85.1208 17.767 80.1992 17.767C75.2777 17.767 70.9327 15.3156 68.3064 11.5863C68.0822 11.2726 67.6552 11.2493 67.399 11.5282L64.7194 14.4443C64.3564 14.8393 64.3137 15.4782 64.6446 15.9081C68.3385 20.7876 73.9326 23.8895 80.1886 23.9012H80.2099C86.4659 23.9012 92.06 20.7876 95.7538 15.9081C96.0848 15.4782 96.0421 14.8393 95.6791 14.4443Z" fill="white"/>
<path d="M55.6236 13.4434H52.912C52.8052 13.4434 52.6985 13.4898 52.6237 13.5712L51.9084 14.3495C51.8337 14.4309 51.791 14.5471 51.791 14.6632V15.1163C51.791 15.3371 51.9512 15.5113 52.154 15.5113H56.0079C56.3282 15.5113 56.5844 15.7902 56.5844 16.1271V19.0432C56.5844 19.3917 56.3282 19.6705 56.0079 19.6705H52.1753C51.9618 19.6705 51.791 19.8564 51.791 20.0888V21.3435C51.791 21.5758 51.9618 21.7617 52.1753 21.7617H55.6343C57.2143 21.7617 58.4954 20.3676 58.4954 18.6481V16.5569C58.4954 14.8375 57.2143 13.4434 55.6343 13.4434" fill="white"/>
<path d="M10.6032 18.3931C10.6566 18.5558 10.806 18.672 10.9662 18.672H12.1512C12.4181 18.672 12.5996 18.3815 12.5142 18.1143L10.6032 12.6655C10.5498 12.5029 10.4004 12.3867 10.2402 12.3867H9.05521C8.79899 12.3867 8.60683 12.6655 8.70291 12.9328L10.6032 18.3815V18.3931Z" fill="white"/>
<path d="M43.754 22.8301H42.5583C42.3554 22.8301 42.1953 23.0043 42.1953 23.2251V24.5263C42.1953 24.747 42.3554 24.9213 42.5583 24.9213H43.754C43.9568 24.9213 44.117 24.747 44.117 24.5263V23.2251C44.117 23.0043 43.9568 22.8301 43.754 22.8301Z" fill="white"/>
<path d="M50.4472 22.8301H47.3619C47.1484 22.8301 46.9883 23.016 46.9883 23.2367V24.503C46.9883 24.7354 47.1591 24.9097 47.3619 24.9097H50.4472C50.6607 24.9097 50.8209 24.7238 50.8209 24.503V23.2367C50.8209 23.0043 50.6501 22.8301 50.4472 22.8301Z" fill="white"/>
<path d="M25.9357 13.4337H25.1457L27.7719 10.7151C27.9107 10.5641 27.8039 10.2969 27.6118 10.2969H25.6688C25.5193 10.2969 25.3698 10.355 25.2631 10.4711L21.2276 14.8046C20.9928 15.0602 21.1529 15.5133 21.4945 15.5133H25.957C26.4695 15.5133 26.8858 16.0012 26.8858 16.5589V19.6841H19.7757C19.4661 19.6841 19.2099 19.4053 19.2099 19.0567V12.8063C19.2099 12.574 19.0391 12.3997 18.8363 12.3997H17.694C17.4804 12.3997 17.3203 12.5856 17.3203 12.8063V18.8244C17.395 20.4625 18.6334 21.7521 20.1601 21.7521H28.4124C28.626 21.7521 28.7861 21.5778 28.7861 21.3454V16.4659C28.722 14.8162 27.4836 13.4337 25.9463 13.4337H25.9357Z" fill="white"/>
<path d="M15.984 12.3983H14.8417C14.6282 12.3983 14.468 12.5842 14.468 12.805V19.1134C14.468 19.4504 14.2118 19.7292 13.9022 19.7292H9.83476C9.728 19.7292 9.62124 19.764 9.54651 19.857L8.82056 20.6121C8.74583 20.6935 8.70312 20.8096 8.70312 20.9258V21.3789C8.70312 21.5997 8.86326 21.7739 9.0661 21.7739H13.5286C15.0445 21.7739 16.2829 20.4727 16.3577 18.8462V12.7933C16.3577 12.561 16.1975 12.3867 15.984 12.3867" fill="white"/>
<path d="M50.8082 18.7992V15.9296C50.8082 15.6972 50.6481 15.5113 50.4346 15.5113H49.2816C49.0681 15.5113 48.8973 15.6972 48.8973 15.9296V19.0548C48.8973 19.4033 48.641 19.6821 48.3208 19.6821H44.1038V16.5569C44.1038 14.5471 42.78 13.4434 41.2214 13.4434H38.5097C38.403 13.4434 38.2962 13.4898 38.2215 13.5712L37.5062 14.3495C37.4315 14.4309 37.3888 14.5471 37.3888 14.6632V15.1163C37.3888 15.3371 37.5489 15.5113 37.7517 15.5113H41.6057C41.926 15.5113 42.1822 15.7902 42.1822 16.1271V19.6705L35.8515 19.6821C35.6379 19.6821 35.4671 19.868 35.4671 20.1004V21.3551C35.4671 21.5875 35.6379 21.7733 35.8515 21.7733H37.3888V22.1916C37.3888 22.5401 37.1326 22.8189 36.8123 22.8189H32.147C31.8587 22.8189 31.6345 22.5634 31.6345 22.2497V18.0092C31.6345 17.7768 31.4637 17.5909 31.2502 17.5909H30.0972C29.8837 17.5909 29.7129 17.7768 29.7129 18.0092V21.7733C29.7129 23.8529 30.6737 24.8985 32.5847 24.8985H36.46C38.1574 24.8985 39.2891 23.7135 39.2891 21.7733H43.7088C43.9223 21.7733 44.0932 21.5875 44.0932 21.3551V20.7045L44.9365 21.6455C45.0113 21.7269 45.0967 21.7733 45.2034 21.7733H47.9258C49.4631 21.7733 50.7121 20.4373 50.7869 18.7876" fill="white"/>
</svg>
