<svg width="122" height="28" viewBox="0 0 122 28" fill="none" xmlns="http://www.w3.org/2000/svg">
<g filter="url(#filter0_dii_8761_28)">
<rect x="2" y="2.9082" width="115.18" height="20.6562" rx="10.3281" fill="url(#paint0_linear_8761_28)"/>
<rect x="2.5" y="3.4082" width="114.18" height="19.6562" rx="9.82812" stroke="url(#paint1_linear_8761_28)"/>
</g>
<path d="M24.2192 10.8479V13.1759C24.2192 13.2959 24.2672 13.3959 24.3632 13.4759C24.4592 13.5479 24.5672 13.5839 24.6872 13.5839H25.4552C25.5672 13.5839 25.6232 13.6399 25.6232 13.7519V15.1679C25.6232 15.2799 25.5672 15.3359 25.4552 15.3359H24.9272C24.8072 15.3359 24.6792 15.3119 24.5432 15.2639C24.4072 15.2079 24.2952 15.1239 24.2072 15.0119V15.2159C24.2072 15.5279 24.1552 15.8199 24.0512 16.0919C23.9472 16.3639 23.8032 16.6119 23.6192 16.8359C23.4432 17.0599 23.2312 17.2559 22.9832 17.4239C22.7352 17.5999 22.4632 17.7359 22.1672 17.8319L20.4152 18.4199L19.9592 17.0279L21.7832 16.4399C22.0712 16.3519 22.2992 16.1839 22.4672 15.9359C22.6432 15.6879 22.7312 15.4119 22.7312 15.1079V10.8479H24.2192ZM27.0751 18.2879H28.5751V16.7879H27.0751V18.2879ZM30.2551 15.1679C30.2551 15.2079 30.2391 15.2479 30.2071 15.2879C30.1751 15.3199 30.1351 15.3359 30.0871 15.3359H29.1151C28.8671 15.3359 28.6191 15.2759 28.3711 15.1559C28.1311 15.0359 27.9511 14.8719 27.8311 14.6639C27.6791 14.8719 27.4711 15.0359 27.2071 15.1559C26.9511 15.2759 26.6951 15.3359 26.4391 15.3359H25.4551C25.4151 15.3359 25.3791 15.3199 25.3471 15.2879C25.3071 15.2559 25.2871 15.2159 25.2871 15.1679V13.7639C25.2871 13.7159 25.3071 13.6759 25.3471 13.6439C25.3791 13.6039 25.4151 13.5839 25.4551 13.5839H26.5831C26.7191 13.5839 26.8391 13.5439 26.9431 13.4639C27.0471 13.3759 27.1111 13.2639 27.1351 13.1279L27.6031 10.8719L29.0551 11.1359L28.6831 13.0319C28.6511 13.1839 28.6791 13.3159 28.7671 13.4279C28.8551 13.5319 28.9751 13.5839 29.1271 13.5839H30.0871C30.1351 13.5839 30.1751 13.6039 30.2071 13.6439C30.2391 13.6759 30.2551 13.7159 30.2551 13.7639V15.1679ZM30.408 16.7759H31.908V18.2759H30.408V16.7759ZM32.316 13.5839C32.452 13.5839 32.564 13.5399 32.652 13.4519C32.748 13.3559 32.796 13.2399 32.796 13.1039V10.5119H34.284V13.0919C34.284 13.4039 34.224 13.6959 34.104 13.9679C33.992 14.2399 33.832 14.4799 33.624 14.6879C33.424 14.8879 33.188 15.0479 32.916 15.1679C32.644 15.2799 32.352 15.3359 32.04 15.3359H30.084C30.036 15.3359 29.996 15.3199 29.964 15.2879C29.932 15.2479 29.916 15.2079 29.916 15.1679V13.7759C29.916 13.7279 29.932 13.6839 29.964 13.6439C29.996 13.6039 30.036 13.5839 30.084 13.5839H32.316ZM43.6613 15.1679C43.6613 15.2799 43.6053 15.3359 43.4933 15.3359H42.9173C42.5973 15.3359 42.3013 15.2759 42.0293 15.1559C41.7653 15.0359 41.5333 14.8719 41.3333 14.6639C41.1653 14.8079 40.9773 14.9319 40.7693 15.0359C40.5613 15.1319 40.3373 15.1999 40.0973 15.2399L36.6173 15.7199L36.4133 14.1239L37.7213 13.9559L37.1333 7.69194L38.6453 7.51194L39.1853 13.7639L40.0013 13.6559C40.1933 13.6319 40.3573 13.5439 40.4933 13.3919C40.6373 13.2319 40.7093 13.0599 40.7093 12.8759V7.00794H42.1853V13.1039C42.1853 13.2159 42.2253 13.3239 42.3053 13.4279C42.3933 13.5319 42.5053 13.5839 42.6413 13.5839H43.4933C43.6053 13.5839 43.6613 13.6399 43.6613 13.7519V15.1679ZM51.3502 13.0559C51.3502 13.3679 51.2902 13.6639 51.1702 13.9439C51.0502 14.2239 50.8862 14.4679 50.6782 14.6759C50.4782 14.8759 50.2382 15.0359 49.9582 15.1559C49.6782 15.2759 49.3822 15.3359 49.0702 15.3359H43.4902C43.3782 15.3359 43.3222 15.2799 43.3222 15.1679V13.7519C43.3222 13.7119 43.3382 13.6759 43.3702 13.6439C43.4022 13.6039 43.4422 13.5839 43.4902 13.5839H44.2822L45.5182 12.2519V7.00794H46.9942V10.1279C46.9942 10.2159 46.9822 10.3039 46.9582 10.3919C46.9422 10.4799 46.9262 10.5599 46.9102 10.6319C46.8782 10.7119 46.8462 10.7919 46.8142 10.8719C46.8302 10.8799 46.8502 10.8719 46.8742 10.8479C47.3702 10.4879 47.9262 10.3079 48.5422 10.3079H49.2862C49.5742 10.3079 49.8422 10.3639 50.0902 10.4759C50.3462 10.5799 50.5662 10.7239 50.7502 10.9079C50.9342 11.0919 51.0782 11.3119 51.1822 11.5679C51.2942 11.8159 51.3502 12.0839 51.3502 12.3719V13.0559ZM49.3462 13.5839C49.4902 13.5839 49.6102 13.5359 49.7062 13.4399C49.8102 13.3359 49.8622 13.2159 49.8622 13.0799V12.4919C49.8622 12.3559 49.8142 12.2399 49.7182 12.1439C49.6222 12.0479 49.5062 11.9999 49.3702 11.9999H48.2902C47.9062 11.9999 47.5822 12.1399 47.3182 12.4199L46.2622 13.5839H49.3462ZM54.9155 16.0439C54.8275 16.0119 54.7195 15.9719 54.5915 15.9239C54.4715 15.8759 54.3555 15.8199 54.2435 15.7559C54.0675 15.6679 53.9115 15.5479 53.7755 15.3959C53.6475 15.2439 53.5755 15.0759 53.5595 14.8919C53.5435 14.7799 53.5555 14.6559 53.5955 14.5199C53.6435 14.3759 53.6835 14.2519 53.7155 14.1479L54.2795 12.4079L55.1795 12.7199L54.7115 14.2319L55.4555 14.5199L54.9155 16.0439ZM56.7002 14.6639V11.0519H58.1882V14.4599C58.1882 14.6359 58.2202 14.7999 58.2842 14.9519C58.3482 15.0959 58.4362 15.2239 58.5482 15.3359C58.6602 15.4479 58.7922 15.5359 58.9442 15.5999C59.0962 15.6639 59.2562 15.6959 59.4242 15.6959H61.5962C61.7402 15.6959 61.8722 15.6679 61.9922 15.6119C62.1122 15.5639 62.2162 15.4919 62.3042 15.3959C62.4002 15.3079 62.4722 15.2039 62.5202 15.0839C62.5762 14.9639 62.6042 14.8359 62.6042 14.6999V10.8599H64.0922V13.1159C64.0922 13.2519 64.1322 13.3639 64.2122 13.4519C64.3002 13.5399 64.4082 13.5839 64.5362 13.5839H65.3162C65.3642 13.5839 65.4042 13.6039 65.4362 13.6439C65.4682 13.6759 65.4842 13.7159 65.4842 13.7639V15.1679C65.4842 15.2079 65.4682 15.2479 65.4362 15.2879C65.4042 15.3199 65.3642 15.3359 65.3162 15.3359H64.8482C64.6162 15.3359 64.4362 15.2959 64.3082 15.2159C64.1882 15.1359 64.1082 15.0679 64.0682 15.0119V15.2639C64.0682 15.5679 64.0002 15.8519 63.8642 16.1159C63.7282 16.3799 63.5442 16.6079 63.3122 16.7999C63.0882 16.9999 62.8242 17.1559 62.5202 17.2679C62.2242 17.3879 61.9122 17.4479 61.5842 17.4479H59.4842C59.1002 17.4479 58.7402 17.3759 58.4042 17.2319C58.0682 17.0879 57.7722 16.8879 57.5162 16.6319C57.2682 16.3839 57.0682 16.0879 56.9162 15.7439C56.7722 15.4079 56.7002 15.0479 56.7002 14.6639ZM59.6402 9.35994H61.1402V10.8599H59.6402V9.35994ZM66.7865 11.9159L65.7185 10.8959L69.3665 6.62394L70.4345 7.60794L68.1545 10.2959H72.6665C72.9545 10.2959 73.2225 10.3519 73.4705 10.4639C73.7265 10.5679 73.9465 10.7159 74.1305 10.9079C74.3225 11.0919 74.4705 11.3119 74.5745 11.5679C74.6865 11.8159 74.7425 12.0839 74.7425 12.3719V13.2599C74.7425 13.5559 74.6825 13.8319 74.5625 14.0879C74.4505 14.3439 74.2945 14.5639 74.0945 14.7479C73.8945 14.9319 73.6665 15.0759 73.4105 15.1799C73.1625 15.2839 72.8985 15.3359 72.6185 15.3359H65.3105C65.2705 15.3359 65.2345 15.3199 65.2025 15.2879C65.1625 15.2559 65.1425 15.2159 65.1425 15.1679V13.7519C65.1425 13.6559 65.1985 13.5999 65.3105 13.5839H72.8825C72.9705 13.5839 73.0545 13.5519 73.1345 13.4879C73.2145 13.4239 73.2545 13.3319 73.2545 13.2119V12.3479C73.2545 12.2279 73.2105 12.1279 73.1225 12.0479C73.0345 11.9599 72.9345 11.9159 72.8225 11.9159H66.7865ZM83.5505 13.3079C83.8865 13.3879 84.1585 13.5599 84.3665 13.8239C84.5745 14.0879 84.6785 14.3959 84.6785 14.7479V15.1439C84.6785 15.4959 84.6105 15.8279 84.4745 16.1399C84.3465 16.4519 84.1665 16.7239 83.9345 16.9559C83.7025 17.1879 83.4305 17.3719 83.1185 17.5079C82.8065 17.6439 82.4745 17.7119 82.1225 17.7119H79.7225C79.3385 17.7119 78.9785 17.6399 78.6425 17.4959C78.3065 17.3519 78.0105 17.1519 77.7545 16.8959C77.5065 16.6479 77.3065 16.3519 77.1545 16.0079C77.0105 15.6719 76.9385 15.3119 76.9385 14.9279V12.1799H78.4265V14.7119C78.4265 14.8879 78.4585 15.0519 78.5225 15.2039C78.5865 15.3559 78.6745 15.4879 78.7865 15.5999C78.9065 15.7119 79.0425 15.7999 79.1945 15.8639C79.3465 15.9279 79.5065 15.9599 79.6745 15.9599H82.3025C82.5505 15.9599 82.7585 15.8719 82.9265 15.6959C83.1025 15.5199 83.1905 15.3079 83.1905 15.0599V14.7959L79.8065 13.9919V12.5399C79.8065 12.2119 79.8625 11.9039 79.9745 11.6159C80.0865 11.3279 80.2385 11.0719 80.4305 10.8479C80.6305 10.6159 80.8665 10.4239 81.1385 10.2719C81.4185 10.1199 81.7225 10.0239 82.0505 9.98394L83.8265 9.75594L84.0785 11.3999L82.0385 11.6519C81.8065 11.6839 81.6145 11.7839 81.4625 11.9519C81.3185 12.1119 81.2465 12.3039 81.2465 12.5279V12.8039L83.5505 13.3079ZM85.2436 18.4439L84.7876 17.0519L86.6116 16.4519C86.8916 16.3559 87.1196 16.1879 87.2956 15.9479C87.4716 15.7079 87.5596 15.4359 87.5596 15.1319V10.8719H89.0476V14.9879C89.0476 15.3159 88.9956 15.6279 88.8916 15.9239C88.7956 16.2199 88.6556 16.4919 88.4716 16.7399C88.2956 16.9959 88.0796 17.2159 87.8236 17.3999C87.5756 17.5919 87.2996 17.7399 86.9956 17.8439L85.2436 18.4439ZM87.5116 8.36394H89.0116V9.86394H87.5116V8.36394ZM93.0221 15.1679C93.0221 15.2799 92.9661 15.3359 92.8541 15.3359H92.4941C92.1901 15.3359 91.9021 15.2799 91.6301 15.1679C91.3661 15.0479 91.1341 14.8919 90.9341 14.6999C90.7341 14.4999 90.5741 14.2679 90.4541 14.0039C90.3421 13.7319 90.2861 13.4439 90.2861 13.1399V7.00794H91.7741V13.1039C91.7741 13.2399 91.8181 13.3559 91.9061 13.4519C92.0021 13.5399 92.1181 13.5839 92.2541 13.5839H92.8541C92.9021 13.5839 92.9421 13.6039 92.9741 13.6439C93.0061 13.6759 93.0221 13.7159 93.0221 13.7639V15.1679ZM93.1736 16.7759H94.6736V18.2759H93.1736V16.7759ZM95.0816 13.5839C95.2176 13.5839 95.3296 13.5399 95.4176 13.4519C95.5136 13.3559 95.5616 13.2399 95.5616 13.1039V10.5119H97.0496V13.0919C97.0496 13.4039 96.9896 13.6959 96.8696 13.9679C96.7576 14.2399 96.5976 14.4799 96.3896 14.6879C96.1896 14.8879 95.9536 15.0479 95.6816 15.1679C95.4096 15.2799 95.1176 15.3359 94.8056 15.3359H92.8496C92.8016 15.3359 92.7616 15.3199 92.7296 15.2879C92.6976 15.2479 92.6816 15.2079 92.6816 15.1679V13.7759C92.6816 13.7279 92.6976 13.6839 92.7296 13.6439C92.7616 13.6039 92.8016 13.5839 92.8496 13.5839H95.0816Z" fill="#492302"/>
<defs>
<filter id="filter0_dii_8761_28" x="0" y="0.908203" width="121.18" height="26.6562" filterUnits="userSpaceOnUse" color-interpolation-filters="sRGB">
<feFlood flood-opacity="0" result="BackgroundImageFix"/>
<feColorMatrix in="SourceAlpha" type="matrix" values="0 0 0 0 0 0 0 0 0 0 0 0 0 0 0 0 0 0 127 0" result="hardAlpha"/>
<feOffset dx="1" dy="1"/>
<feGaussianBlur stdDeviation="1.5"/>
<feComposite in2="hardAlpha" operator="out"/>
<feColorMatrix type="matrix" values="0 0 0 0 0.00832101 0 0 0 0 0.288462 0 0 0 0 0.151372 0 0 0 1 0"/>
<feBlend mode="normal" in2="BackgroundImageFix" result="effect1_dropShadow_8761_28"/>
<feBlend mode="normal" in="SourceGraphic" in2="effect1_dropShadow_8761_28" result="shape"/>
<feColorMatrix in="SourceAlpha" type="matrix" values="0 0 0 0 0 0 0 0 0 0 0 0 0 0 0 0 0 0 127 0" result="hardAlpha"/>
<feOffset dy="-2"/>
<feGaussianBlur stdDeviation="0.5"/>
<feComposite in2="hardAlpha" operator="arithmetic" k2="-1" k3="1"/>
<feColorMatrix type="matrix" values="0 0 0 0 0.365385 0 0 0 0 0.293283 0 0 0 0 0.0755362 0 0 0 0.45 0"/>
<feBlend mode="normal" in2="shape" result="effect2_innerShadow_8761_28"/>
<feColorMatrix in="SourceAlpha" type="matrix" values="0 0 0 0 0 0 0 0 0 0 0 0 0 0 0 0 0 0 127 0" result="hardAlpha"/>
<feOffset dy="2"/>
<feGaussianBlur stdDeviation="0.5"/>
<feComposite in2="hardAlpha" operator="arithmetic" k2="-1" k3="1"/>
<feColorMatrix type="matrix" values="0 0 0 0 0.485577 0 0 0 0 0.379357 0 0 0 0 0.0606971 0 0 0 1 0"/>
<feBlend mode="normal" in2="effect2_innerShadow_8761_28" result="effect3_innerShadow_8761_28"/>
</filter>
<linearGradient id="paint0_linear_8761_28" x1="2" y1="13.2363" x2="117.18" y2="13.2363" gradientUnits="userSpaceOnUse">
<stop stop-color="#C79500"/>
<stop offset="1" stop-color="#FFCD36"/>
</linearGradient>
<linearGradient id="paint1_linear_8761_28" x1="2" y1="13.2363" x2="117.18" y2="13.2363" gradientUnits="userSpaceOnUse">
<stop stop-color="#E5B937"/>
<stop offset="1" stop-color="#C99717"/>
</linearGradient>
</defs>
</svg>
