<svg width="116" height="51" viewBox="0 0 116 51" fill="none" xmlns="http://www.w3.org/2000/svg">
<path d="M107.477 2.46875C107.477 2.46875 113.117 2.59112 114.639 13.1075H91.3359C95.2501 7.32489 97.9035 2.46875 107.477 2.46875Z" fill="url(#paint0_linear_8759_27)"/>
<path d="M7.49409 2.58789C7.49409 2.58789 1.76315 2.91084 0.332031 13.2267H23.6349C19.7207 7.44403 17.0674 2.58789 7.49409 2.58789Z" fill="url(#paint1_linear_8759_27)"/>
<g filter="url(#filter0_d_8759_27)">
<path d="M6.60938 2.52387C19.8622 2.52387 -1.12053 42.9187 57.2693 42.9187C115.659 42.9187 94.6312 2.52387 107.929 2.52387C75.1928 -0.84083 41.4202 -0.84175 6.60938 2.52387Z" fill="url(#paint2_linear_8759_27)"/>
</g>
<path d="M92.0719 18.2281C91.7072 17.6276 91.2021 17.1225 90.6016 16.7578C91.2085 17.1057 91.7098 17.6044 92.0719 18.2281Z" fill="white"/>
<path d="M49.4865 11.6785L48.4079 12.7583C47.8422 13.3253 47.2752 13.891 46.7095 14.458C46.5536 14.6152 46.3757 14.6886 46.1528 14.6886H46.1361C45.8912 14.677 45.685 14.5366 45.5703 14.3021C45.4544 14.0637 45.475 13.8124 45.627 13.5946C45.6657 13.5366 45.7147 13.4877 45.7585 13.4439L45.7649 13.4387C46.2224 12.9813 46.6799 12.5238 47.1386 12.0664C47.5961 11.6102 48.0548 11.1528 48.5123 10.6953L49.4878 11.6785H49.4865Z" fill="white"/>
<path d="M49.4977 16.3337L49.3984 16.1443L49.4268 16.1211L49.4977 16.3337Z" fill="white"/>
<path d="M76.4821 7.61438C76.3623 7.75355 76.2966 7.93653 76.2966 8.12724C76.2966 8.54603 76.6123 8.88621 76.9989 8.88621C77.3855 8.88621 77.6793 8.5718 77.6999 8.16976C77.7166 7.83086 77.9976 7.56413 78.3378 7.56413H78.3455C78.6844 7.56413 78.964 7.83086 78.9795 8.17105C78.9988 8.57309 79.2991 8.8875 79.6612 8.8875C80.0233 8.8875 80.3442 8.54731 80.3442 8.12852C80.3442 7.93653 80.2784 7.75355 80.1599 7.61309L81.1328 6.78969C81.4446 7.15951 81.616 7.635 81.616 8.12724C81.616 9.2483 80.7385 10.1593 79.6599 10.1593C79.1676 10.1593 78.696 9.96733 78.3352 9.62457C77.9718 9.96733 77.495 10.1593 76.9976 10.1593C75.9074 10.1593 75.0195 9.2483 75.0195 8.12724C75.0195 7.63371 75.1935 7.15564 75.5105 6.78711L76.4808 7.61438H76.4821Z" fill="white"/>
<path d="M60.036 20.7175C59.9367 22.7251 58.4741 24.417 56.4806 24.8319C56.2036 24.8886 55.9201 24.9183 55.6392 24.9183C51.5813 24.9234 41.8779 24.9234 37.8226 24.9208C36.9102 24.9208 36.1808 24.5858 35.6551 23.9248C35.5546 23.7985 35.4489 23.6786 35.3368 23.5498C35.3265 23.5382 35.3162 23.5266 35.3072 23.515L35.2865 23.5369C35.159 23.6761 35.0275 23.8217 34.9038 23.9647C34.3703 24.5858 33.6693 24.9067 32.8201 24.9195C32.5675 24.9234 32.2956 24.9286 32.0186 24.9286C31.7596 24.9286 31.4954 24.9247 31.2351 24.9131C30.4993 24.8822 29.8846 24.6219 29.4091 24.1374C29.2532 23.9789 29.1256 23.8036 29.0019 23.6335C28.971 23.591 28.9387 23.5472 28.9078 23.5047C28.8344 23.5717 28.7583 23.6374 28.6784 23.7005C28.6114 23.7534 28.5444 23.8088 28.4774 23.8629C28.2094 24.0794 27.9323 24.3036 27.6411 24.5072C27.3125 24.7366 26.9117 24.859 26.3795 24.8912C26.0651 24.9105 25.7275 24.9195 25.3138 24.9195C24.4118 24.9221 23.2031 24.9234 21.9492 24.9195V22.2509C22.0858 22.2509 22.1361 22.2444 22.1915 22.2444H22.2314C22.7108 22.2444 23.1915 22.2444 23.6721 22.2444C24.3358 22.2444 25.0007 22.2444 25.6643 22.2432C25.9826 22.2432 26.2507 22.1852 26.4839 22.0705C27.1037 21.7625 27.3963 21.126 27.212 20.4881C27.0651 19.9804 26.8795 19.4701 26.6991 18.9753C26.6617 18.8735 26.6257 18.7717 26.5883 18.6699C26.3911 18.1236 26.1875 17.5682 25.9891 17.0321C25.8422 16.6352 25.6966 16.2384 25.5522 15.8415L27.9104 14.9768C28.172 15.6881 28.431 16.4007 28.6888 17.1133L29.0367 18.0694C29.3872 19.0359 29.7493 20.0332 30.1114 21.0138C30.1655 21.1633 30.2441 21.3192 30.3472 21.4919C30.6475 21.9854 31.0753 22.229 31.6578 22.2393C32.1204 22.2483 32.5263 22.2419 32.8974 22.2212C33.4554 22.189 33.9786 21.6813 34.0391 21.1144C34.052 21.0022 34.0572 20.8824 34.0572 20.7574C34.0598 17.9303 34.0598 14.9639 34.0572 12.1368L36.5417 12.1342V20.903C36.5417 21.5267 36.9386 22.0447 37.5275 22.1916C37.6563 22.2238 37.7942 22.2406 37.9231 22.2406C41.8586 22.2432 51.5413 22.2432 55.5387 22.2419C56.4381 22.2419 57.1791 21.6285 57.3414 20.7497C57.5103 19.8322 56.8775 18.8954 55.9613 18.706C55.8286 18.6776 55.692 18.6635 55.5528 18.6635H54.3544C52.8441 18.6596 51.2952 18.657 49.7514 18.6609H47.4177C46.1458 18.6609 45.5092 17.1236 46.4087 16.2229L47.0479 15.585C47.0852 15.5361 47.1265 15.4884 47.1729 15.442L48.0143 14.6006C49.062 13.5529 50.1457 12.468 51.2127 11.4049C51.2153 11.4023 51.2179 11.401 51.2192 11.3984L53.1212 13.3004C53.1109 13.3107 53.1006 13.321 53.0903 13.3326C52.5245 13.897 51.9575 14.4627 51.3918 15.0297C51.0774 15.3428 50.7643 15.6559 50.4511 15.9703C50.8223 15.9703 51.1934 15.9703 51.5645 15.9703C52.866 15.969 54.2127 15.9678 55.5374 15.9729C56.8118 15.9768 57.8968 16.4265 58.7615 17.3105C59.6777 18.246 60.1094 19.3915 60.0424 20.7162L60.036 20.7175Z" fill="white"/>
<path d="M92.7089 20.4314C92.7012 20.193 92.6741 19.952 92.6252 19.7098C92.5195 19.1686 92.3352 18.6763 92.0865 18.2447C92.084 18.2382 92.0801 18.2331 92.0762 18.2279C91.7115 17.6274 91.2064 17.1223 90.6059 16.7576C89.9448 16.3556 89.1704 16.1236 88.3392 16.1236C85.9256 16.1236 83.9682 18.081 83.9682 20.4945C83.9682 20.6208 83.9733 20.7445 83.9849 20.8682C83.9849 20.9829 83.9823 21.0924 83.9656 21.1942C83.8689 21.7908 83.4746 22.1903 82.9128 22.2805C82.8329 22.2934 82.7491 22.2998 82.6628 22.2998H81.9901C81.8484 22.3015 81.7225 22.302 81.6125 22.3011L80.8664 22.2985C80.5816 22.2985 80.3471 22.2354 80.1512 22.1065C79.7479 21.845 79.5507 21.4816 79.5469 20.9971C79.5404 20.1814 79.5417 19.3503 79.5417 18.5475C79.5417 18.1583 79.543 17.7705 79.543 17.3839V16.7074C79.5443 15.3325 79.5482 12.7746 79.5378 12.2656L79.2492 12.2708H79.2234L77.4013 12.2798H77.1126C77.1126 12.7501 77.1126 13.4318 77.1126 14.2204C77.1126 16.527 77.1152 19.684 77.1062 21.0512C77.101 21.5292 76.8794 21.8952 76.4438 22.1413C76.2531 22.2509 76.025 22.3011 75.7248 22.3011C72.5973 22.3024 68.6515 22.3011 65.5227 22.3037C65.2637 22.3037 65.0343 22.323 64.8217 22.363C62.8746 22.7199 61.1207 24.5767 61.555 27.0637C61.8836 28.9463 63.582 30.3689 65.506 30.3741H71.136V27.7492C69.395 27.7492 67.3951 27.7492 65.6529 27.7492C65.5382 27.7492 65.4183 27.7428 65.2933 27.7286C64.9222 27.6874 64.5756 27.4722 64.341 27.1359C64.1052 26.797 64.024 26.3911 64.1168 26.0238C64.283 25.3654 64.8578 24.9221 65.5446 24.9221C68.7005 24.9221 72.6733 24.9221 75.8279 24.9221C76.5263 24.9221 77.0895 24.7404 77.5508 24.3654C77.717 24.2314 77.8575 24.0781 77.9941 23.9312C78.0327 23.8886 78.074 23.8461 78.1139 23.8036C78.1912 23.7237 78.2634 23.6412 78.3394 23.5575C78.3652 23.5871 78.3923 23.6193 78.4193 23.649C78.5301 23.7778 78.6397 23.9054 78.7479 24.0343C79.2234 24.5987 79.8677 24.9028 80.6164 24.9105L81.1525 24.9169C81.4953 24.9204 81.7719 24.9221 81.9824 24.9221C82.1422 24.9221 82.3793 24.9195 82.8071 24.9169C82.8419 24.9169 82.8767 24.9169 82.9102 24.9144C83.7633 24.886 84.445 24.5432 84.9398 23.8912C85.0107 23.7959 85.0893 23.7044 85.1717 23.609C85.1911 23.6245 85.2117 23.6425 85.2336 23.658C85.3637 23.7637 85.4926 23.868 85.6228 23.9711C86.7026 24.819 87.923 25.1064 89.2515 24.8267C91.3688 24.3835 92.7811 22.524 92.7076 20.4288L92.7089 20.4314ZM88.3469 22.7431C87.1189 22.7431 86.124 21.7483 86.124 20.5203C86.124 19.2923 87.1189 18.2962 88.3469 18.2962C89.575 18.2962 90.5711 19.2923 90.5711 20.5203C90.5711 21.7483 89.5763 22.7431 88.3469 22.7431Z" fill="white"/>
<defs>
<filter id="filter0_d_8759_27" x="6.60938" y="0" width="109.32" height="50.918" filterUnits="userSpaceOnUse" color-interpolation-filters="sRGB">
<feFlood flood-opacity="0" result="BackgroundImageFix"/>
<feColorMatrix in="SourceAlpha" type="matrix" values="0 0 0 0 0 0 0 0 0 0 0 0 0 0 0 0 0 0 127 0" result="hardAlpha"/>
<feOffset dx="4" dy="4"/>
<feGaussianBlur stdDeviation="2"/>
<feComposite in2="hardAlpha" operator="out"/>
<feColorMatrix type="matrix" values="0 0 0 0 0 0 0 0 0 0 0 0 0 0 0 0 0 0 0.25 0"/>
<feBlend mode="normal" in2="BackgroundImageFix" result="effect1_dropShadow_8759_27"/>
<feBlend mode="normal" in="SourceGraphic" in2="effect1_dropShadow_8759_27" result="shape"/>
</filter>
<linearGradient id="paint0_linear_8759_27" x1="102.987" y1="13.1075" x2="102.987" y2="2.46875" gradientUnits="userSpaceOnUse">
<stop stop-color="#B28C1E"/>
<stop offset="0.08" stop-color="#A6831D"/>
<stop offset="0.31" stop-color="#8A6E1C"/>
<stop offset="0.53" stop-color="#77601C"/>
<stop offset="0.76" stop-color="#6B571C"/>
<stop offset="1" stop-color="#68551C"/>
</linearGradient>
<linearGradient id="paint1_linear_8759_27" x1="11.9835" y1="13.2267" x2="11.9835" y2="2.58789" gradientUnits="userSpaceOnUse">
<stop stop-color="#B28C1E"/>
<stop offset="0.08" stop-color="#A6831D"/>
<stop offset="0.31" stop-color="#8A6E1C"/>
<stop offset="0.53" stop-color="#77601C"/>
<stop offset="0.76" stop-color="#6B571C"/>
<stop offset="1" stop-color="#68551C"/>
</linearGradient>
<linearGradient id="paint2_linear_8759_27" x1="57.2693" y1="42.9187" x2="57.2693" y2="0.000112558" gradientUnits="userSpaceOnUse">
<stop offset="0.269231" stop-color="#C99717"/>
<stop offset="0.52" stop-color="#E6B82E"/>
<stop offset="0.73" stop-color="#EBBF3D"/>
<stop offset="0.91" stop-color="#F2C950"/>
</linearGradient>
</defs>
</svg>
