<svg width="171" height="41" viewBox="0 0 171 41" fill="none" xmlns="http://www.w3.org/2000/svg">
<path d="M100.639 12.455C100.639 12.2903 100.592 12.1727 100.498 12.1021C100.404 12.0198 100.275 11.9786 100.11 11.9786H96.705V8.29142C96.705 7.17408 97.0285 6.28022 97.6754 5.60982C98.3222 4.92766 99.1867 4.58657 100.269 4.58657H103.021L103.18 7.6563H100.322C100.145 7.6563 99.9982 7.70923 99.8806 7.81508C99.763 7.92093 99.7042 8.07383 99.7042 8.27377V8.8736H100.586C102.621 8.8736 103.638 9.90861 103.638 11.9786C103.638 12.8254 103.421 13.6017 102.986 14.3074C102.562 15.0131 101.962 15.5717 101.186 15.9834C100.422 16.395 99.5513 16.6008 98.5751 16.6008H97.199C95.6583 16.6008 94.4527 16.148 93.5824 15.2424C92.7238 14.3485 92.2945 13.1077 92.2945 11.5199V7.81508H95.3113V11.4494C95.3113 12.1198 95.4642 12.6196 95.77 12.9489C96.0876 13.2782 96.5815 13.4429 97.2519 13.4429H98.6986C99.369 13.4429 99.8571 13.3547 100.163 13.1783C100.48 13.0019 100.639 12.7607 100.639 12.455ZM109.112 9.3323C109.264 9.3323 109.394 9.29701 109.5 9.22645C109.606 9.15588 109.658 9.06179 109.658 8.94417C109.658 8.86184 109.6 8.66778 109.482 8.36198C109.376 8.04443 109.235 7.6563 109.059 7.1976C108.882 6.73891 108.735 6.36255 108.618 6.06851L107.93 4.28666L110.752 2.94586L112.852 8.73247C112.993 9.13236 113.228 9.3323 113.557 9.3323H114.104C114.222 9.3323 114.281 9.86156 114.281 10.9201C114.281 11.6022 114.263 12.0374 114.228 12.2256C114.192 12.402 114.151 12.4902 114.104 12.4902H113.31C112.428 12.4902 111.781 12.2491 111.37 11.7669C111.099 12.0374 110.823 12.2256 110.541 12.3315C110.27 12.4373 109.958 12.4902 109.606 12.4902H105.319L105.089 9.3323H109.112ZM119.167 9.01474C119.167 10.085 118.849 10.9318 118.214 11.5552C117.591 12.1786 116.744 12.4902 115.673 12.4902H114.103C113.986 12.4902 113.927 11.9669 113.927 10.9201C113.927 9.86156 113.986 9.3323 114.103 9.3323H115.673C115.838 9.3323 115.967 9.29113 116.062 9.2088C116.167 9.11471 116.22 8.9971 116.22 8.85596V6.05087H119.167V9.01474ZM118.108 13.7957V16.1774H112.921V13.7957H118.108ZM121 1.18165H123.999V12.4902H121V1.18165ZM129.346 8.75011C129.346 8.96181 129.387 9.11471 129.469 9.2088C129.564 9.29113 129.722 9.3323 129.946 9.3323H130.528C130.646 9.3323 130.704 9.86156 130.704 10.9201C130.704 11.9669 130.646 12.4902 130.528 12.4902H130.193C129.816 12.4902 129.522 12.4255 129.311 12.2962C129.228 13.1195 128.981 13.8546 128.57 14.5014C128.17 15.1483 127.623 15.6599 126.929 16.0363C126.235 16.4127 125.429 16.6008 124.512 16.6008H122.66L122.413 13.4429H124.318C124.977 13.4429 125.476 13.29 125.818 12.9842C126.159 12.6902 126.329 12.255 126.329 11.6787V6.05087H129.346V8.75011ZM132.163 9.3323C131.998 9.16764 131.869 8.95593 131.775 8.69718C131.692 8.43843 131.651 8.16204 131.651 7.868C131.651 7.24465 131.798 6.65658 132.092 6.10379C132.386 5.53925 132.81 5.08643 133.363 4.74535C133.927 4.39251 134.598 4.21609 135.374 4.21609C136.55 4.21609 137.444 4.56305 138.055 5.25697C138.679 5.93914 138.99 6.92709 138.99 8.22085V8.89125C138.99 10.0556 138.608 10.9495 137.844 11.5728C137.079 12.1844 135.991 12.4902 134.58 12.4902H130.522C130.405 12.4902 130.346 11.9669 130.346 10.9201C130.346 9.86156 130.405 9.3323 130.522 9.3323H132.004H132.163ZM135.991 9.3323C136.109 9.15588 136.168 8.83244 136.168 8.36198V8.27377C136.168 7.92093 136.097 7.64454 135.956 7.44459C135.815 7.24465 135.597 7.14468 135.303 7.14468C135.091 7.14468 134.909 7.22113 134.756 7.37403C134.615 7.52692 134.545 7.70923 134.545 7.92093C134.545 8.23849 134.656 8.51488 134.88 8.75011C135.115 8.98534 135.485 9.1794 135.991 9.3323ZM133.821 3.03407V0.652387H136.891V3.03407H133.821ZM147.127 12.4902C146.033 12.4902 145.192 12.1962 144.604 11.6081C144.016 11.0083 143.722 10.1556 143.722 9.05003V6.05087H146.739V8.64426C146.739 8.87948 146.786 9.05591 146.88 9.17352C146.986 9.27937 147.156 9.3323 147.391 9.3323H152.561C152.749 9.3323 152.896 9.29701 153.002 9.22645C153.108 9.15588 153.16 9.06179 153.16 8.94417C153.16 8.75599 153.043 8.54429 152.808 8.30906L149.297 4.88649V2.6283L156.371 -0.000370712L157.112 2.98114L153.266 4.4278L155.101 6.26257C156.042 7.20349 156.765 7.88565 157.271 8.30906C157.777 8.73247 158.188 9.00886 158.506 9.13824C158.824 9.26761 159.194 9.3323 159.617 9.3323C159.735 9.3323 159.794 9.86156 159.794 10.9201C159.794 11.9669 159.735 12.4902 159.617 12.4902C158.9 12.4902 158.335 12.4608 157.924 12.402C157.512 12.3315 157.159 12.2138 156.865 12.0492C156.571 11.8728 156.26 11.6081 155.93 11.2553C155.707 11.6317 155.336 11.9316 154.819 12.155C154.301 12.3785 153.701 12.4902 153.019 12.4902H147.127ZM160.309 9.3323C160.462 9.3323 160.592 9.28525 160.697 9.19116C160.803 9.09707 160.856 8.9677 160.856 8.80304V1.18165H163.855V8.71483C163.855 9.12647 164.061 9.3323 164.473 9.3323H165.073C165.19 9.3323 165.249 9.86156 165.249 10.9201C165.249 11.9669 165.19 12.4902 165.073 12.4902H164.455C163.961 12.4902 163.55 12.4373 163.22 12.3315C162.891 12.2256 162.626 12.0492 162.426 11.8022C162.179 12.0492 161.891 12.2256 161.562 12.3315C161.244 12.4373 160.868 12.4902 160.433 12.4902H159.621C159.504 12.4902 159.445 11.9669 159.445 10.9201C159.445 9.86156 159.504 9.3323 159.621 9.3323H160.309ZM170.129 9.01474C170.129 10.085 169.811 10.9318 169.176 11.5552C168.553 12.1786 167.706 12.4902 166.636 12.4902H165.066C164.948 12.4902 164.889 11.9669 164.889 10.9201C164.889 9.86156 164.948 9.3323 165.066 9.3323H166.636C166.8 9.3323 166.93 9.29113 167.024 9.2088C167.13 9.11471 167.183 8.9971 167.183 8.85596V6.05087H170.129V9.01474ZM164.942 16.1774V13.7957H168.012V16.1774H164.942ZM12.121 30.3323C12.2386 30.3323 12.2974 30.8616 12.2974 31.9201C12.2974 32.9669 12.2386 33.4902 12.121 33.4902H11.0977C11.1212 33.5373 11.133 33.5961 11.133 33.6667C11.086 34.4429 10.8507 35.1251 10.4273 35.7131C10.0157 36.313 9.44525 36.7775 8.71604 37.1069C7.98683 37.4362 7.15765 37.6008 6.2285 37.6008H4.90535C3.3646 37.6008 2.15906 37.148 1.28872 36.2424C0.430134 35.3485 0.000842903 34.1077 0.000842903 32.5199V28.8151H3.01764V32.4494C3.01764 33.1198 3.17054 33.6196 3.47634 33.9489C3.79389 34.2782 4.28787 34.4429 4.95827 34.4429H6.47549C7.09885 34.4429 7.5399 34.3782 7.79865 34.2488C8.0574 34.1195 8.18678 33.9254 8.18678 33.6667C8.18678 33.3609 8.02212 33.208 7.6928 33.208H4.60543L4.85242 30.3323H12.121ZM16.2907 30.3323C16.4318 30.3323 16.5495 30.2911 16.6435 30.2088C16.7494 30.1147 16.8023 29.9971 16.8023 29.856V27.0509H19.7486V30.0147C19.7486 31.085 19.431 31.9318 18.7959 32.5552C18.1725 33.1786 17.3257 33.4902 16.2554 33.4902H12.1272C12.0096 33.4902 11.9507 32.9669 11.9507 31.9201C11.9507 30.8616 12.0096 30.3323 12.1272 30.3323H16.2907ZM17.1199 34.7957V37.1774H11.9331V34.7957H17.1199ZM13.3092 40.1766V37.8125H15.7438V40.1766H13.3092ZM30.0065 30.3323C30.3711 30.3323 30.5534 30.1794 30.5534 29.8736V27.0509H33.5702V29.8383C33.5702 30.1676 33.7525 30.3323 34.1171 30.3323H34.5758C34.6934 30.3323 34.7522 30.8616 34.7522 31.9201C34.7522 32.9669 34.6934 33.4902 34.5758 33.4902H33.9583C33.0409 33.4902 32.3882 33.2609 32 32.8022C31.7766 33.0492 31.506 33.2256 31.1885 33.3315C30.8827 33.4373 30.4887 33.4902 30.0065 33.4902H24.8726C23.7788 33.4902 22.9379 33.1962 22.3498 32.6081C21.7617 32.0083 21.4677 31.1556 21.4677 30.05V27.0509H24.4845V29.6443C24.4845 29.8795 24.5315 30.0559 24.6256 30.1735C24.7315 30.2794 24.902 30.3323 25.1372 30.3323H30.0065ZM30.1123 34.7957V37.1774H24.9255V34.7957H30.1123ZM26.3016 40.1766V37.8125H28.7362V40.1766H26.3016ZM36.252 30.3323C36.6166 30.3323 36.799 30.1794 36.799 29.8736V27.0509H39.7981V29.8383C39.7981 30.1676 39.9863 30.3323 40.3627 30.3323H40.8037C40.9213 30.3323 40.9801 30.8616 40.9801 31.9201C40.9801 32.9669 40.9213 33.4902 40.8037 33.4902H40.2039C39.2865 33.4902 38.6337 33.2609 38.2456 32.8022C38.0221 33.0492 37.7516 33.2256 37.4341 33.3315C37.1283 33.4373 36.7343 33.4902 36.252 33.4902H34.576C34.4584 33.4902 34.3996 32.9669 34.3996 31.9201C34.3996 30.8616 34.4584 30.3323 34.576 30.3323H36.252ZM36.6578 25.7454V23.3637H39.7275V25.7454H36.6578ZM41.8894 30.3323C42.301 30.3323 42.5069 30.1618 42.5069 29.8207V27.0509H45.4531V29.8207C45.4531 30.1618 45.6472 30.3323 46.0353 30.3323C46.4352 30.3323 46.6351 30.1618 46.6351 29.8207V27.0509H49.5813V29.803C49.5813 29.9677 49.6284 30.0971 49.7225 30.1912C49.8283 30.2853 49.9695 30.3323 50.1459 30.3323C50.3223 30.3323 50.4576 30.2853 50.5517 30.1912C50.6575 30.0971 50.7104 29.9677 50.7104 29.803V27.0509H53.6567V29.9442C53.6567 31.038 53.3391 31.9024 52.704 32.5376C52.0689 33.1727 51.2044 33.4902 50.1106 33.4902C49.1697 33.4902 48.4816 33.2491 48.0465 32.7669C47.823 33.0139 47.5525 33.1962 47.2349 33.3138C46.9291 33.4314 46.5234 33.4902 46.0176 33.4902C45.0414 33.4902 44.3475 33.2491 43.9359 32.7669C43.7124 33.0139 43.4419 33.1962 43.1243 33.3138C42.8068 33.4314 42.3951 33.4902 41.8894 33.4902H40.7956C40.678 33.4902 40.6192 32.9669 40.6192 31.9201C40.6192 30.8616 40.678 30.3323 40.7956 30.3323H41.8894ZM55.4971 22.1816H58.4962V33.4902H55.4971V22.1816ZM70.8307 32.5905C70.8307 34.1665 70.419 35.3956 69.5957 36.2777C68.7724 37.1598 67.6375 37.6008 66.1908 37.6008H63.6151L63.3681 34.4958H66.6495C67.0494 34.4958 67.3552 34.4017 67.5669 34.2136C67.7786 34.0371 67.8845 33.796 67.8845 33.4902H67.1964C65.8674 33.4902 64.9147 33.2138 64.3384 32.6611C63.7739 32.0965 63.4916 31.1791 63.4916 29.9089C63.4916 29.1444 63.6445 28.4681 63.9503 27.88C64.2561 27.2802 64.6854 26.8098 65.2381 26.4687C65.7909 26.1276 66.4261 25.9571 67.1435 25.9571C68.3079 25.9571 69.2135 26.3158 69.8604 27.0332C70.5073 27.7507 70.8307 28.7622 70.8307 30.0677V32.5905ZM66.3672 29.7501C66.3672 30.0324 66.4319 30.2323 66.5613 30.3499C66.6907 30.4676 66.9141 30.5264 67.2317 30.5264H67.955V29.8736C67.955 29.1914 67.6786 28.8504 67.1259 28.8504C66.8789 28.8504 66.6907 28.9327 66.5613 29.0974C66.4319 29.262 66.3672 29.4796 66.3672 29.7501ZM78.9877 33.4902C77.8939 33.4902 77.0529 33.1962 76.4649 32.6081C75.8768 32.0083 75.5828 31.1556 75.5828 30.05V27.0509H78.5996V29.6443C78.5996 29.8795 78.6466 30.0559 78.7407 30.1735C78.8465 30.2794 79.0171 30.3323 79.2523 30.3323H84.4215C84.6096 30.3323 84.7567 30.297 84.8625 30.2264C84.9684 30.1559 85.0213 30.0618 85.0213 29.9442C85.0213 29.756 84.9037 29.5443 84.6684 29.3091L81.1577 25.8865V23.6283L88.2321 20.9996L88.9731 23.9811L85.1271 25.4278L86.9619 27.2626C87.9028 28.2035 88.6262 28.8856 89.1319 29.3091C89.6376 29.7325 90.0493 30.0089 90.3668 30.1382C90.6844 30.2676 91.0549 30.3323 91.4783 30.3323C91.5959 30.3323 91.6547 30.8616 91.6547 31.9201C91.6547 32.9669 91.5959 33.4902 91.4783 33.4902C90.7608 33.4902 90.1963 33.4608 89.7846 33.402C89.373 33.3315 89.0202 33.2138 88.7261 33.0492C88.4321 32.8728 88.1204 32.6081 87.7911 32.2553C87.5676 32.6317 87.1971 32.9316 86.6796 33.155C86.1621 33.3785 85.5623 33.4902 84.8801 33.4902H78.9877ZM95.6457 30.3323C95.7868 30.3323 95.9044 30.2911 95.9985 30.2088C96.1044 30.1147 96.1573 29.9971 96.1573 29.856V27.0509H99.1035V30.0147C99.1035 31.085 98.786 31.9318 98.1509 32.5552C97.5275 33.1786 96.6807 33.4902 95.6104 33.4902H91.4821C91.3645 33.4902 91.3057 32.9669 91.3057 31.9201C91.3057 30.8616 91.3645 30.3323 91.4821 30.3323H95.6457ZM96.8453 34.7957V37.1774H91.6586V34.7957H96.8453ZM104.209 32.6258C104.209 33.5902 104.009 34.4488 103.61 35.2015C103.221 35.9542 102.663 36.5423 101.934 36.9657C101.204 37.3891 100.352 37.6008 99.3755 37.6008H98.5992L98.3522 34.4429H99.1814C99.84 34.4429 100.34 34.29 100.681 33.9842C101.022 33.6902 101.193 33.255 101.193 32.6787V27.0509H104.209V32.6258ZM101.14 25.7454V23.3637H104.209V25.7454H101.14ZM114.479 30.3323C114.597 30.3323 114.656 30.8616 114.656 31.9201C114.656 32.9669 114.597 33.4902 114.479 33.4902H113.315C113.185 34.784 112.715 35.7896 111.903 36.507C111.104 37.2362 110.051 37.6008 108.745 37.6008H106.17L105.923 34.4958H109.204C109.604 34.4958 109.91 34.4017 110.122 34.2136C110.333 34.0371 110.439 33.796 110.439 33.4902H109.751C108.422 33.4902 107.469 33.2138 106.893 32.6611C106.329 32.0965 106.046 31.1791 106.046 29.9089C106.046 29.1444 106.199 28.4681 106.505 27.88C106.811 27.2802 107.24 26.8098 107.793 26.4687C108.346 26.1276 108.981 25.9571 109.698 25.9571C110.863 25.9571 111.768 26.3158 112.415 27.0332C113.062 27.7507 113.385 28.7622 113.385 30.0677V30.3323H114.479ZM108.922 29.7501C108.922 30.0324 108.987 30.2323 109.116 30.3499C109.245 30.4676 109.469 30.5264 109.786 30.5264H110.51V29.8736C110.51 29.1914 110.233 28.8504 109.681 28.8504C109.434 28.8504 109.245 28.9327 109.116 29.0974C108.987 29.262 108.922 29.4796 108.922 29.7501ZM115.047 30.3323C115.4 30.3323 115.576 30.1618 115.576 29.8207V29.556C115.576 28.4034 115.905 27.486 116.564 26.8039C117.235 26.1217 118.146 25.7806 119.299 25.7806C120.439 25.7806 121.322 26.1158 121.945 26.7862C122.568 27.4566 122.88 28.4034 122.88 29.6266C122.88 30.838 122.551 31.7848 121.892 32.467C121.245 33.1492 120.34 33.4902 119.175 33.4902C118.693 33.4902 118.275 33.4314 117.923 33.3138C117.57 33.1844 117.299 33.0139 117.111 32.8022C116.699 33.2609 116.011 33.4902 115.047 33.4902H114.482C114.365 33.4902 114.306 32.9669 114.306 31.9201C114.306 30.8616 114.365 30.3323 114.482 30.3323H115.047ZM120.004 29.6266C120.004 29.3326 119.934 29.1091 119.793 28.9562C119.663 28.8033 119.469 28.7269 119.21 28.7269C118.669 28.7269 118.399 29.0268 118.399 29.6266C118.399 30.1794 118.669 30.4558 119.21 30.4558C119.74 30.4558 120.004 30.1794 120.004 29.6266ZM134.564 27.5096C135.046 28.0859 135.381 28.6093 135.569 29.0797C135.758 29.5384 135.852 30.003 135.852 30.4734C135.852 31.3791 135.546 32.1083 134.934 32.6611C134.323 33.2138 133.488 33.4902 132.429 33.4902H127.595L127.366 30.3323H131.794C131.97 30.3323 132.111 30.297 132.217 30.2264C132.335 30.1559 132.394 30.0618 132.394 29.9442C132.394 29.7795 132.282 29.5678 132.059 29.3091L129.324 26.0629L131.582 23.8753L134.564 27.5096ZM141.771 30.3323C141.83 30.3323 141.871 30.4264 141.894 30.6146C141.93 30.8028 141.947 31.2379 141.947 31.9201C141.947 32.5787 141.93 33.008 141.894 33.208C141.871 33.3961 141.83 33.4902 141.771 33.4902H140.959C139.866 33.4902 139.042 33.1903 138.49 32.5905C137.937 31.9789 137.66 31.1086 137.66 29.9795V22.1816H140.659V29.7325C140.659 29.9442 140.701 30.0971 140.783 30.1912C140.865 30.2853 141.001 30.3323 141.189 30.3323H141.771ZM142.866 30.3323C143.278 30.3323 143.484 30.1618 143.484 29.8207V27.0509H146.43V29.8207C146.43 30.1618 146.624 30.3323 147.012 30.3323C147.412 30.3323 147.612 30.1618 147.612 29.8207V27.0509H150.558V29.803C150.558 29.9677 150.605 30.0971 150.699 30.1912C150.805 30.2853 150.946 30.3323 151.123 30.3323C151.499 30.3323 151.687 30.1618 151.687 29.8207V27.0509H154.634V29.7501C154.634 29.9618 154.675 30.1147 154.757 30.2088C154.839 30.2911 154.981 30.3323 155.18 30.3323H155.886C156.004 30.3323 156.063 30.8616 156.063 31.9201C156.063 32.9669 156.004 33.4902 155.886 33.4902H155.251C154.192 33.4902 153.499 33.2609 153.169 32.8022C152.758 33.2609 152.064 33.4902 151.087 33.4902C150.147 33.4902 149.459 33.2491 149.023 32.7669C148.8 33.0139 148.529 33.1962 148.212 33.3138C147.906 33.4314 147.5 33.4902 146.995 33.4902C146.018 33.4902 145.324 33.2491 144.913 32.7669C144.689 33.0139 144.419 33.1962 144.101 33.3138C143.784 33.4314 143.372 33.4902 142.866 33.4902H141.772C141.655 33.4902 141.596 32.9669 141.596 31.9201C141.596 30.8616 141.655 30.3323 141.772 30.3323H142.866ZM150.258 20.3645V22.7286H147.788V20.3645H150.258ZM151.617 23.3637V25.7454H146.43V23.3637H151.617ZM156.571 30.3323C156.724 30.3323 156.853 30.2853 156.959 30.1912C157.065 30.0971 157.118 29.9677 157.118 29.803V22.1816H160.117V30.0147C160.117 31.1086 159.811 31.9613 159.199 32.5728C158.6 33.1844 157.765 33.4902 156.694 33.4902H155.883C155.765 33.4902 155.706 32.9669 155.706 31.9201C155.706 30.8616 155.765 30.3323 155.883 30.3323H156.571ZM168.866 27.5096C169.348 28.0859 169.683 28.6093 169.872 29.0797C170.06 29.5384 170.154 30.003 170.154 30.4734C170.154 31.3791 169.848 32.1083 169.236 32.6611C168.625 33.2138 167.79 33.4902 166.731 33.4902H161.897L161.668 30.3323H166.096C166.273 30.3323 166.414 30.297 166.52 30.2264C166.637 30.1559 166.696 30.0618 166.696 29.9442C166.696 29.7795 166.584 29.5678 166.361 29.3091L163.626 26.0629L165.884 23.8753L168.866 27.5096Z" fill="white"/>
</svg>
