<svg width="172" height="41" viewBox="0 0 172 41" fill="none" xmlns="http://www.w3.org/2000/svg">
<path d="M4.63736 14.1772C3.54357 14.1772 2.70152 13.8604 2.11122 13.2266C1.52092 12.5929 1.22577 11.7075 1.22577 10.5703V8.10926H2.30654V10.5443C2.30654 11.3689 2.5062 11.994 2.90552 12.4193C3.30485 12.8447 3.89081 13.0574 4.6634 13.0574H5.2103C5.95686 13.0574 6.5515 12.8403 6.99422 12.4063C7.44563 11.9723 7.67133 11.3863 7.67133 10.6484V6.80713H8.7521V10.5443C8.7521 11.2908 8.60019 11.9375 8.29636 12.4844C8.00121 13.0313 7.58452 13.448 7.04631 13.7345C6.51677 14.0296 5.90477 14.1772 5.2103 14.1772H4.63736ZM4.03838 6.41649V5.33572H5.41864V6.41649H4.03838ZM9.74121 13.0574C10.4791 13.0574 11.0564 12.8403 11.4731 12.4063C11.8897 11.9809 12.0981 11.3863 12.0981 10.6224V6.80713H13.1788V8.87752C13.1788 9.19872 13.27 9.44612 13.4523 9.61974C13.6433 9.79336 13.9167 9.88017 14.2726 9.88017H14.4419C14.5287 9.88017 14.5721 10.0711 14.5721 10.4531C14.5721 10.8177 14.5287 11 14.4419 11H14.2726C14.0383 11 13.8212 10.9609 13.6216 10.8828C13.4219 10.796 13.2743 10.6875 13.1788 10.5573V10.7135C13.1702 11.408 13.0226 12.0157 12.7361 12.5365C12.4497 13.0661 12.0503 13.4697 11.5382 13.7475C11.026 14.034 10.4357 14.1772 9.76726 14.1772H9.40266L9.29849 13.0574H9.74121ZM11.8507 5.24457V4.1638H13.2309V5.24457H11.8507ZM17.9286 8.92961C17.9286 9.57199 17.7333 10.0798 17.3426 10.4531C16.952 10.8177 16.4355 11 15.7931 11H14.4389C14.3521 11 14.3086 10.8177 14.3086 10.4531C14.3086 10.0711 14.3521 9.88017 14.4389 9.88017H15.7931C16.1056 9.88017 16.3573 9.7977 16.5483 9.63276C16.748 9.45914 16.8478 9.22042 16.8478 8.91659V6.80713H17.9286V8.92961ZM14.7904 13.7215V12.6407H16.1707V13.7215H14.7904ZM28.0453 8.57803C28.0453 9.03812 28.1235 9.37233 28.2797 9.58068C28.4447 9.78034 28.6834 9.88017 28.9959 9.88017H29.3084C29.3518 9.88017 29.3822 9.91923 29.3996 9.99736C29.4256 10.0668 29.4386 10.2187 29.4386 10.4531C29.4386 10.6788 29.4256 10.8264 29.3996 10.8958C29.3822 10.9653 29.3518 11 29.3084 11H28.9959C28.0323 11 27.4507 10.5877 27.251 9.76297C27.0687 9.96263 26.8083 10.1145 26.4698 10.2187C26.1312 10.3142 25.7709 10.362 25.389 10.362C24.6511 10.362 24.0869 10.1623 23.6962 9.76297C23.3056 9.36365 23.1103 8.77769 23.1103 8.00509C23.1103 7.51896 23.2144 7.07624 23.4228 6.67692C23.6398 6.26892 23.9393 5.94772 24.3212 5.71334C24.7119 5.47028 25.1546 5.34874 25.6494 5.34874H26.9646V4.45027H28.0453V8.57803ZM24.191 7.97905C24.191 8.8211 24.612 9.24212 25.4541 9.24212C25.9142 9.24212 26.2788 9.15965 26.5479 8.99472C26.8257 8.8211 26.9646 8.59105 26.9646 8.30458V6.44253H25.6494C25.198 6.44253 24.8421 6.57709 24.5817 6.8462C24.3212 7.1153 24.191 7.49292 24.191 7.97905ZM31.2572 9.88017C31.344 9.88017 31.3874 10.0711 31.3874 10.4531C31.3874 10.6875 31.3744 10.8394 31.3484 10.9089C31.3223 10.9696 31.292 11 31.2572 11H29.304C29.2172 11 29.1738 10.8177 29.1738 10.4531C29.1738 10.0711 29.2172 9.88017 29.304 9.88017H31.2572ZM33.2155 9.88017C33.3023 9.88017 33.3457 10.0711 33.3457 10.4531C33.3457 10.6875 33.3327 10.8394 33.3067 10.9089C33.2806 10.9696 33.2502 11 33.2155 11H31.2623C31.1755 11 31.1321 10.8177 31.1321 10.4531C31.1321 10.0711 31.1755 9.88017 31.2623 9.88017H33.2155ZM35.1738 9.88017C35.2606 9.88017 35.304 10.0711 35.304 10.4531C35.304 10.6875 35.291 10.8394 35.265 10.9089C35.2389 10.9696 35.2085 11 35.1738 11H33.2206C33.1338 11 33.0904 10.8177 33.0904 10.4531C33.0904 10.0711 33.1338 9.88017 33.2206 9.88017H35.1738ZM37.1321 9.88017C37.2189 9.88017 37.2623 10.0711 37.2623 10.4531C37.2623 10.6875 37.2493 10.8394 37.2232 10.9089C37.1972 10.9696 37.1668 11 37.1321 11H35.1789C35.0921 11 35.0487 10.8177 35.0487 10.4531C35.0487 10.0711 35.0921 9.88017 35.1789 9.88017H37.1321ZM39.0904 9.88017C39.1772 9.88017 39.2206 10.0711 39.2206 10.4531C39.2206 10.6875 39.2076 10.8394 39.1815 10.9089C39.1555 10.9696 39.1251 11 39.0904 11H37.1372C37.0504 11 37.007 10.8177 37.007 10.4531C37.007 10.0711 37.0504 9.88017 37.1372 9.88017H39.0904ZM41.4002 2.5752V8.10926C41.9558 7.24986 42.4984 6.62483 43.0279 6.23419C43.5574 5.84355 44.0913 5.64823 44.6295 5.64823C45.0896 5.64823 45.5063 5.76543 45.8796 5.99981C46.2528 6.22551 46.5437 6.54236 46.752 6.95037C46.969 7.34969 47.0775 7.80977 47.0775 8.33063C47.0775 8.82544 46.9777 9.24646 46.778 9.5937C46.8996 9.69787 47.0515 9.77165 47.2338 9.81506C47.4248 9.85846 47.6678 9.88017 47.963 9.88017H48.2625C48.3493 9.88017 48.3927 10.0711 48.3927 10.4531C48.3927 10.8177 48.3493 11 48.2625 11H47.963C47.5116 11 47.1513 10.9609 46.8822 10.8828C46.6218 10.796 46.3874 10.6397 46.1791 10.414C45.6929 10.8047 45.0853 11 44.3561 11H39.0955C39.0087 11 38.9652 10.8177 38.9652 10.4531C38.9652 10.0711 39.0087 9.88017 39.0955 9.88017H40.3195V2.5752H41.4002ZM44.3561 9.88017C44.8769 9.88017 45.2806 9.74127 45.5671 9.46348C45.8535 9.18569 45.9968 8.80808 45.9968 8.33063C45.9968 7.86186 45.8579 7.4799 45.5801 7.18475C45.311 6.88092 44.9681 6.729 44.5514 6.729C44.0566 6.729 43.5531 6.98075 43.0409 7.48424C42.5374 7.98773 41.9645 8.78637 41.3221 9.88017H44.3561ZM49.2795 9.88017C49.6614 9.88017 49.9566 9.78902 50.1649 9.60672C50.3819 9.42442 50.4904 9.17267 50.4904 8.85148V6.80713H51.5842V8.85148C51.5842 9.53727 51.9705 9.88017 52.7431 9.88017C53.1251 9.88017 53.4202 9.78902 53.6286 9.60672C53.8456 9.42442 53.9541 9.17267 53.9541 8.85148V6.80713H55.0349V8.85148C55.0349 9.18135 55.126 9.43744 55.3083 9.61974C55.4993 9.79336 55.7771 9.88017 56.1417 9.88017C56.4976 9.88017 56.7711 9.78902 56.962 9.60672C57.1617 9.42442 57.2615 9.17267 57.2615 8.85148V6.80713H58.3423V8.85148C58.3423 9.53727 58.6852 9.88017 59.371 9.88017H59.7486C59.8441 9.88017 59.8918 10.0711 59.8918 10.4531C59.8918 10.6788 59.8788 10.8264 59.8528 10.8958C59.8267 10.9653 59.792 11 59.7486 11H59.371C58.5376 11 57.9994 10.7439 57.7563 10.2317C57.4525 10.7439 56.9143 11 56.1417 11C55.2649 11 54.7007 10.7309 54.4489 10.1927C54.1277 10.7309 53.5591 11 52.7431 11C51.823 11 51.237 10.7309 50.9853 10.1927C50.6641 10.7309 50.0955 11 49.2795 11H48.2638C48.177 11 48.1336 10.8177 48.1336 10.4531C48.1336 10.0711 48.177 9.88017 48.2638 9.88017H49.2795ZM62.064 9.88017C62.3591 9.88017 62.5805 9.8628 62.7281 9.82808C62.0249 9.56765 61.5388 9.28987 61.2697 8.99472C61.0006 8.69088 60.866 8.28722 60.866 7.78373C60.866 7.32364 60.9745 6.90696 61.1915 6.53368C61.4086 6.15172 61.7037 5.85223 62.077 5.63521C62.4589 5.41819 62.8886 5.30968 63.3661 5.30968C64.1647 5.30968 64.7811 5.55708 65.2151 6.05189C65.6579 6.53802 65.8792 7.22381 65.8792 8.10926V8.55199C65.8792 9.35931 65.6101 9.97131 65.0719 10.388C64.5337 10.796 63.7394 11 62.689 11H59.7592C59.6724 11 59.629 10.8177 59.629 10.4531C59.629 10.0711 59.6724 9.88017 59.7592 9.88017H62.064ZM64.3297 9.63276C64.6422 9.37233 64.7984 8.99037 64.7984 8.48688V8.17437C64.7984 7.58407 64.6726 7.14135 64.4208 6.8462C64.1778 6.55105 63.8175 6.40347 63.3401 6.40347C62.9581 6.40347 62.6282 6.53802 62.3504 6.80713C62.0813 7.06756 61.9468 7.38441 61.9468 7.75769C61.9468 8.04416 62.0162 8.28722 62.1551 8.48688C62.294 8.68654 62.5327 8.87752 62.8713 9.05982C63.2098 9.23344 63.696 9.42442 64.3297 9.63276ZM65.0198 2.91375V3.94244H61.5822V2.91375H65.0198ZM73.4457 6.27326C73.3155 6.117 73.2157 5.92602 73.1462 5.70032C73.0768 5.46594 73.0421 5.23155 73.0421 4.99717C73.0421 4.58048 73.1462 4.19853 73.3546 3.85129C73.5716 3.49537 73.8624 3.21759 74.227 3.01792C74.6003 2.80958 75.0126 2.70541 75.464 2.70541C75.9762 2.70541 76.5188 2.83563 77.0917 3.09605L76.7922 4.08567C76.3234 3.88601 75.8937 3.78618 75.5031 3.78618C75.0951 3.78618 74.7609 3.91206 74.5005 4.1638C74.2487 4.41555 74.1228 4.72372 74.1228 5.08832C74.1228 5.47028 74.227 5.79147 74.4353 6.05189C74.6524 6.30364 74.9085 6.42951 75.2036 6.42951C75.7765 6.42951 76.4363 6.26458 77.1828 5.9347L77.4693 6.92432C76.5752 7.34101 75.6854 7.54935 74.7999 7.54935C74.3051 7.54935 73.8581 7.49292 73.4587 7.38007C73.0681 7.25854 72.7556 7.10228 72.5212 6.9113C72.5299 7.06756 72.5342 7.3193 72.5342 7.66654V11H71.4535V7.56237C71.4535 6.71164 71.4101 5.97377 71.3233 5.34874C71.2364 4.72372 71.0628 3.96414 70.8024 3.07001L71.8441 2.70541C72.0611 3.48669 72.2521 4.35044 72.417 5.29666C72.4604 5.53104 72.5559 5.7307 72.7035 5.89564C72.8598 6.06058 73.1072 6.18645 73.4457 6.27326ZM88.7052 9.88017C88.7486 9.88017 88.779 9.91923 88.7964 9.99736C88.8224 10.0668 88.8354 10.2187 88.8354 10.4531C88.8354 10.6788 88.8224 10.8264 88.7964 10.8958C88.779 10.9653 88.7486 11 88.7052 11H87.4552C87.377 11.9896 87.0385 12.7666 86.4395 13.3308C85.8405 13.8951 85.0592 14.1772 84.0957 14.1772H82.494L82.3899 13.0574H84.1087C84.8031 13.0574 85.3544 12.8707 85.7624 12.4975C86.1791 12.1329 86.3917 11.6337 86.4004 11H85.0983C84.2042 11 83.5574 10.8177 83.1581 10.4531C82.7675 10.0798 82.5722 9.50255 82.5722 8.72127C82.5722 8.18305 82.6763 7.7056 82.8847 7.28892C83.093 6.86356 83.3838 6.53802 83.7571 6.31232C84.1391 6.07794 84.5688 5.96075 85.0462 5.96075C85.8014 5.96075 86.3961 6.21249 86.8301 6.71598C87.2642 7.21947 87.4812 7.9096 87.4812 8.78637V9.88017H88.7052ZM83.6529 8.65616C83.6529 9.09889 83.7614 9.41574 83.9785 9.60672C84.2042 9.78902 84.5991 9.88017 85.1634 9.88017H86.4004V8.8645C86.4004 8.26552 86.2789 7.81411 86.0358 7.51028C85.7928 7.20645 85.4412 7.05454 84.9811 7.05454C84.5818 7.05454 84.2606 7.20211 84.0175 7.49726C83.7745 7.79241 83.6529 8.17871 83.6529 8.65616ZM90.6543 9.88017C90.7411 9.88017 90.7845 10.0711 90.7845 10.4531C90.7845 10.6875 90.7715 10.8394 90.7455 10.9089C90.7194 10.9696 90.689 11 90.6543 11H88.7011C88.6143 11 88.5709 10.8177 88.5709 10.4531C88.5709 10.0711 88.6143 9.88017 88.7011 9.88017H90.6543ZM92.6126 9.88017C92.6994 9.88017 92.7428 10.0711 92.7428 10.4531C92.7428 10.6875 92.7298 10.8394 92.7038 10.9089C92.6777 10.9696 92.6473 11 92.6126 11H90.6594C90.5726 11 90.5292 10.8177 90.5292 10.4531C90.5292 10.0711 90.5726 9.88017 90.6594 9.88017H92.6126ZM94.5709 9.88017C94.6577 9.88017 94.7011 10.0711 94.7011 10.4531C94.7011 10.6875 94.6881 10.8394 94.662 10.9089C94.636 10.9696 94.6056 11 94.5709 11H92.6177C92.5309 11 92.4875 10.8177 92.4875 10.4531C92.4875 10.0711 92.5309 9.88017 92.6177 9.88017H94.5709ZM96.5292 9.88017C96.616 9.88017 96.6594 10.0711 96.6594 10.4531C96.6594 10.6875 96.6464 10.8394 96.6203 10.9089C96.5943 10.9696 96.5639 11 96.5292 11H94.576C94.4892 11 94.4458 10.8177 94.4458 10.4531C94.4458 10.0711 94.4892 9.88017 94.576 9.88017H96.5292ZM98.0968 9.88017C98.4354 9.88017 98.7045 9.79336 98.9042 9.61974C99.1038 9.44612 99.2036 9.21174 99.2036 8.91659V6.80713H100.284V8.89054C100.284 9.21174 100.371 9.45914 100.545 9.63276C100.727 9.7977 100.988 9.88017 101.326 9.88017H101.691C101.778 9.88017 101.821 10.0668 101.821 10.4401C101.821 10.8134 101.778 11 101.691 11H101.287C100.488 11 99.9676 10.7439 99.7245 10.2317C99.4207 10.7439 98.8781 11 98.0968 11H96.5343C96.4475 11 96.4041 10.8177 96.4041 10.4531C96.4041 10.0711 96.4475 9.88017 96.5343 9.88017H98.0968ZM100.558 4.21589V5.24457H97.1202V4.21589H100.558ZM103.26 9.88017C103.598 9.88017 103.867 9.79336 104.067 9.61974C104.267 9.44612 104.366 9.21174 104.366 8.91659V6.80713H105.447V8.89054C105.447 9.21174 105.534 9.45914 105.708 9.63276C105.89 9.7977 106.15 9.88017 106.489 9.88017H106.853C106.94 9.88017 106.984 10.0668 106.984 10.4401C106.984 10.8134 106.94 11 106.853 11H106.45C105.651 11 105.13 10.7439 104.887 10.2317C104.583 10.7439 104.041 11 103.26 11H101.697C101.61 11 101.567 10.8177 101.567 10.4531C101.567 10.0711 101.61 9.88017 101.697 9.88017H103.26ZM104.379 12.6407V13.6694H100.942V12.6407H104.379ZM112.316 0.465745L112.537 1.1689L108.084 3.01792V2.23665L112.316 0.465745ZM110.467 9.88017C110.84 9.88017 111.131 9.80638 111.339 9.6588C111.556 9.51123 111.665 9.31157 111.665 9.05982C111.665 8.8862 111.621 8.71693 111.534 8.55199C111.456 8.37837 111.322 8.19607 111.131 8.00509L108.071 4.97112V4.03359L112.824 2.1455L113.149 3.1872L109.347 4.68466L111.951 7.30194C112.481 7.83148 112.745 8.42178 112.745 9.07284C112.745 9.64578 112.546 10.1102 112.146 10.4661C111.747 10.822 111.187 11 110.467 11H106.86C106.773 11 106.73 10.8177 106.73 10.4531C106.73 10.0711 106.773 9.88017 106.86 9.88017H110.467ZM117.822 9.88017C118.126 9.88017 118.369 9.81506 118.551 9.68485C118.742 9.55463 118.837 9.38536 118.837 9.17701C118.837 9.0034 118.768 8.71693 118.629 8.31761C118.49 7.91829 118.126 6.9113 117.535 5.29666C117.509 5.22721 117.483 5.1621 117.457 5.10134C117.431 5.03189 117.409 4.97112 117.392 4.91904L118.395 4.46329L119.918 8.78637C120.057 9.18569 120.213 9.46782 120.387 9.63276C120.561 9.7977 120.799 9.88017 121.103 9.88017H121.377C121.463 9.88017 121.507 10.0711 121.507 10.4531C121.507 10.6875 121.494 10.8394 121.468 10.9089C121.45 10.9696 121.42 11 121.377 11H121.064C120.665 11 120.335 10.9349 120.074 10.8047C119.814 10.6745 119.61 10.4661 119.462 10.1797C119.298 10.4661 119.081 10.6745 118.811 10.8047C118.551 10.9349 118.221 11 117.822 11H114.775L114.671 9.88017H117.822ZM124.871 8.92961C124.871 9.57199 124.676 10.0798 124.285 10.4531C123.895 10.8177 123.378 11 122.736 11H121.382C121.295 11 121.251 10.8177 121.251 10.4531C121.251 10.0711 121.295 9.88017 121.382 9.88017H122.736C123.048 9.88017 123.3 9.7977 123.491 9.63276C123.691 9.45914 123.791 9.22042 123.791 8.91659V6.80713H124.871V8.92961ZM122.892 5.24457V4.1638H124.272V5.24457H122.892ZM128.819 10.6224C128.819 11.3429 128.676 11.9723 128.39 12.5105C128.103 13.0487 127.7 13.461 127.179 13.7475C126.667 14.034 126.076 14.1772 125.408 14.1772H124.496L124.392 13.0574H125.382C126.12 13.0574 126.697 12.8403 127.114 12.4063C127.53 11.9809 127.739 11.3863 127.739 10.6224V6.80713H128.819V10.6224ZM127.491 5.24457V4.1638H128.872V5.24457H127.491ZM142.914 0.465745L143.136 1.1689L138.669 3.01792V2.23665L142.914 0.465745ZM136.313 11C135.549 11 134.971 10.8003 134.581 10.401C134.199 10.0017 134.008 9.45046 134.008 8.74731V6.80713H135.088V8.60408C135.088 9.4548 135.518 9.88017 136.378 9.88017H141.052C141.434 9.88017 141.729 9.80638 141.938 9.6588C142.146 9.51123 142.25 9.31157 142.25 9.05982C142.25 8.8862 142.207 8.71693 142.12 8.55199C142.042 8.37837 141.907 8.19607 141.716 8.00509L138.669 4.97112V4.03359L143.409 2.1455L143.735 3.1872L139.932 4.68466L142.511 7.2759C143.344 8.10926 143.956 8.69957 144.347 9.0468C144.737 9.39404 145.041 9.61974 145.258 9.72391C145.484 9.82808 145.74 9.88017 146.026 9.88017C146.113 9.88017 146.157 10.0711 146.157 10.4531C146.157 10.8177 146.113 11 146.026 11C145.653 11 145.345 10.9653 145.102 10.8958C144.859 10.8177 144.594 10.6745 144.308 10.4661C144.03 10.2491 143.661 9.91055 143.201 9.45046C143.157 9.91055 142.945 10.2838 142.563 10.5703C142.189 10.8568 141.686 11 141.052 11H136.313ZM147.979 9.88017C148.066 9.88017 148.109 10.0711 148.109 10.4531C148.109 10.6875 148.096 10.8394 148.07 10.9089C148.044 10.9696 148.013 11 147.979 11H146.025C145.939 11 145.895 10.8177 145.895 10.4531C145.895 10.0711 145.939 9.88017 146.025 9.88017H147.979ZM149.937 9.88017C150.024 9.88017 150.067 10.0711 150.067 10.4531C150.067 10.6875 150.054 10.8394 150.028 10.9089C150.002 10.9696 149.972 11 149.937 11H147.984C147.897 11 147.854 10.8177 147.854 10.4531C147.854 10.0711 147.897 9.88017 147.984 9.88017H149.937ZM151.895 9.88017C151.982 9.88017 152.025 10.0711 152.025 10.4531C152.025 10.6875 152.012 10.8394 151.986 10.9089C151.96 10.9696 151.93 11 151.895 11H149.942C149.855 11 149.812 10.8177 149.812 10.4531C149.812 10.0711 149.855 9.88017 149.942 9.88017H151.895ZM153.463 9.88017C153.801 9.88017 154.071 9.79336 154.27 9.61974C154.47 9.44612 154.57 9.21174 154.57 8.91659V6.80713H155.65V8.89054C155.65 9.21174 155.737 9.45914 155.911 9.63276C156.093 9.7977 156.354 9.88017 156.692 9.88017H157.057C157.144 9.88017 157.187 10.0668 157.187 10.4401C157.187 10.8134 157.144 11 157.057 11H156.653C155.854 11 155.334 10.7439 155.091 10.2317C154.787 10.7439 154.244 11 153.463 11H151.9C151.814 11 151.77 10.8177 151.77 10.4531C151.77 10.0711 151.814 9.88017 151.9 9.88017H153.463ZM154.179 5.24457V4.1638H155.559V5.24457H154.179ZM159.107 9.88017C158.838 9.68919 158.617 9.4331 158.443 9.11191C158.278 8.78203 158.196 8.44782 158.196 8.10926C158.196 7.6405 158.304 7.21947 158.521 6.8462C158.747 6.46424 159.051 6.16909 159.433 5.96075C159.815 5.74372 160.245 5.63521 160.722 5.63521C161.165 5.63521 161.568 5.73938 161.933 5.94772C162.298 6.15607 162.584 6.44253 162.792 6.80713C163.01 7.16305 163.118 7.56237 163.118 8.00509C163.118 8.38705 163.023 8.74297 162.832 9.07284C162.649 9.39404 162.384 9.66314 162.037 9.88017H163.964C164.338 9.88017 164.624 9.80638 164.824 9.6588C165.023 9.51123 165.123 9.31157 165.123 9.05982C165.123 8.89489 165.08 8.72995 164.993 8.56501C164.915 8.39139 164.767 8.19173 164.55 7.96603L161.907 5.19249L162.688 4.39819L165.384 7.2759C165.931 7.85752 166.204 8.4565 166.204 9.07284C166.204 9.65446 166.004 10.1232 165.605 10.4791C165.206 10.8264 164.659 11 163.964 11H162.493C161.929 11 161.516 10.987 161.256 10.9609C161.004 10.9349 160.8 10.8785 160.644 10.7917C160.488 10.8698 160.266 10.9262 159.98 10.9609C159.702 10.987 159.29 11 158.743 11H157.063C156.976 11 156.933 10.8177 156.933 10.4531C156.933 10.0711 156.976 9.88017 157.063 9.88017H159.107ZM160.592 9.85412C161.069 9.65446 161.434 9.40272 161.686 9.09889C161.946 8.79505 162.076 8.46518 162.076 8.10926C162.076 7.70126 161.942 7.37139 161.673 7.11964C161.412 6.85922 161.074 6.729 160.657 6.729C160.24 6.729 159.897 6.85922 159.628 7.11964C159.368 7.37139 159.238 7.70126 159.238 8.10926C159.238 8.48254 159.351 8.81676 159.576 9.11191C159.811 9.40706 160.149 9.65446 160.592 9.85412ZM168.205 1.91111C168.022 1.91111 167.879 1.94584 167.775 2.01528C167.671 2.07605 167.593 2.17588 167.541 2.31477L167.202 3.1221L166.473 2.79656L166.863 1.79392C166.994 1.47273 167.159 1.25136 167.358 1.12983C167.558 1.0083 167.84 0.947534 168.205 0.947534H171.395V1.91111H168.205ZM169.819 3.76014V11H168.739V3.76014H169.819Z" fill="#FFD500"/>
<path d="M82.7637 31.255C82.3727 30.9905 82.068 30.6456 81.8496 30.2201C81.6311 29.7832 81.5218 29.329 81.5218 28.8576C81.5218 28.2596 81.6656 27.7135 81.953 27.219C82.2405 26.7131 82.6372 26.3164 83.1431 26.029C83.6491 25.73 84.2067 25.5805 84.8161 25.5805C85.4486 25.5805 86.012 25.7185 86.5064 25.9945C87.0123 26.2589 87.4033 26.6326 87.6793 27.1156C87.9552 27.5985 88.0932 28.1504 88.0932 28.7713C88.0932 29.8177 87.6448 30.6456 86.7479 31.255H89.5937C89.7087 31.255 89.7662 31.508 89.7662 32.0139C89.7662 32.4968 89.7087 32.7383 89.5937 32.7383H87.2998C86.5984 32.7383 86.0695 32.721 85.713 32.6865C85.3566 32.6405 85.0691 32.5658 84.8506 32.4623C84.6322 32.5658 84.3332 32.6405 83.9538 32.6865C83.5743 32.721 83.0339 32.7383 82.3325 32.7383H77.5894C76.5775 32.7383 75.8129 32.4738 75.2955 31.9449C74.7895 31.416 74.5366 30.6858 74.5366 29.7544V27.1845H75.9681V29.5647C75.9681 30.6916 76.5373 31.255 77.6756 31.255H82.7637ZM84.8161 31.2205C85.4371 30.9445 85.897 30.5996 86.196 30.1856C86.5064 29.7717 86.6616 29.329 86.6616 28.8576C86.6616 28.3056 86.4949 27.863 86.1615 27.5295C85.8395 27.196 85.3911 27.0293 84.8161 27.0293C84.2642 27.0293 83.8158 27.2018 83.4708 27.5467C83.1259 27.8917 82.9534 28.3286 82.9534 28.8576C82.9534 29.352 83.1086 29.8062 83.4191 30.2201C83.741 30.6226 84.2067 30.956 84.8161 31.2205ZM83.8675 23.5625V22.131H85.6958V23.5625H83.8675ZM91.6656 31.255C92.114 31.255 92.4705 31.14 92.735 30.91C92.9994 30.6801 93.1317 30.3696 93.1317 29.9787V27.1845H94.5632V29.9442C94.5632 30.3696 94.6782 30.6973 94.9082 30.9273C95.1496 31.1457 95.4946 31.255 95.943 31.255H96.426C96.5409 31.255 96.5984 31.5022 96.5984 31.9966C96.5984 32.4911 96.5409 32.7383 96.426 32.7383H95.8913C94.8334 32.7383 94.1435 32.3991 93.8216 31.7207C93.4191 32.3991 92.7005 32.7383 91.6656 32.7383H89.5959C89.4809 32.7383 89.4234 32.4968 89.4234 32.0139C89.4234 31.508 89.4809 31.255 89.5959 31.255H91.6656ZM93.1489 34.9115V36.274H88.5955V34.9115H93.1489ZM99.1939 31.255C98.803 30.9905 98.4925 30.6456 98.2626 30.2201C98.0441 29.7832 97.9349 29.329 97.9349 28.8576C97.9349 28.2596 98.0786 27.7135 98.366 27.219C98.665 26.7131 99.0617 26.3164 99.5561 26.029C100.062 25.73 100.625 25.5805 101.246 25.5805C101.879 25.5805 102.442 25.7185 102.937 25.9945C103.443 26.2589 103.834 26.6326 104.11 27.1156C104.385 27.5985 104.523 28.1504 104.523 28.7713C104.523 29.8177 104.075 30.6456 103.178 31.255H106.024C106.139 31.255 106.196 31.508 106.196 32.0139C106.196 32.4968 106.139 32.7383 106.024 32.7383H103.73C103.029 32.7383 102.5 32.721 102.143 32.6865C101.787 32.6405 101.499 32.5658 101.281 32.4623C101.074 32.5658 100.775 32.6405 100.384 32.6865C100.005 32.721 99.4641 32.7383 98.7627 32.7383H96.4343C96.3193 32.7383 96.2618 32.4968 96.2618 32.0139C96.2618 31.508 96.3193 31.255 96.4343 31.255H99.1939ZM101.246 27.0293C100.694 27.0293 100.24 27.2018 99.8838 27.5467C99.5389 27.8917 99.3664 28.3286 99.3664 28.8576C99.3664 29.352 99.5274 29.8062 99.8493 30.2201C100.171 30.6226 100.637 30.956 101.246 31.2205C101.867 30.9445 102.327 30.5996 102.626 30.1856C102.937 29.7717 103.092 29.329 103.092 28.8576C103.092 28.3056 102.925 27.863 102.592 27.5295C102.258 27.196 101.81 27.0293 101.246 27.0293ZM100.332 23.5625V22.131H102.161V23.5625H100.332ZM111.848 25.6323C112.538 25.6323 113.107 25.7472 113.555 25.9772C114.004 26.2072 114.378 26.5866 114.677 27.1156C114.975 27.633 115.234 28.3516 115.453 29.2715L114.09 30.0994C114.274 30.5363 114.493 30.841 114.746 31.0135C114.998 31.1745 115.355 31.255 115.815 31.255H116.953C117.068 31.255 117.126 31.508 117.126 32.0139C117.126 32.3243 117.108 32.5256 117.074 32.6175C117.039 32.698 116.999 32.7383 116.953 32.7383H115.763C115.073 32.7383 114.527 32.6003 114.125 32.3243C113.722 32.0369 113.354 31.5194 113.021 30.7721L111.831 31.5137C111.095 31.9736 110.388 32.2956 109.709 32.4796C109.031 32.652 108.186 32.7383 107.174 32.7383H106.018C105.903 32.7383 105.846 32.4968 105.846 32.0139C105.846 31.508 105.903 31.255 106.018 31.255H107.226C108.088 31.255 108.807 31.186 109.381 31.048C109.956 30.91 110.549 30.6686 111.158 30.3236L113.78 28.7886C113.596 28.1677 113.343 27.7365 113.021 27.495C112.71 27.2535 112.239 27.1328 111.606 27.1328H107.57L107.76 25.6323H111.848ZM109.744 23.6143V22.1827H111.572V23.6143H109.744ZM121.572 29.9959C121.572 30.8468 121.313 31.5194 120.796 32.0139C120.278 32.4968 119.594 32.7383 118.743 32.7383H116.95C116.835 32.7383 116.777 32.4968 116.777 32.0139C116.777 31.508 116.835 31.255 116.95 31.255H118.743C119.157 31.255 119.491 31.1457 119.744 30.9273C120.008 30.6973 120.14 30.3811 120.14 29.9787V27.1845H121.572V29.9959ZM122.107 23.7523V25.1148H117.553V23.7523H122.107ZM137.527 23.597L131.059 32.9108L128.386 31.0135L134.853 21.6998L137.527 23.597ZM129.006 21.786C129.466 21.786 129.909 21.9183 130.335 22.1827C130.771 22.4357 131.122 22.7691 131.387 23.1831C131.651 23.597 131.783 24.034 131.783 24.4939C131.783 24.9539 131.651 25.3965 131.387 25.822C131.122 26.2359 130.771 26.5751 130.335 26.8396C129.909 27.0926 129.466 27.219 129.006 27.219C128.547 27.219 128.098 27.0926 127.661 26.8396C127.236 26.5751 126.891 26.2359 126.626 25.822C126.362 25.3965 126.23 24.9539 126.23 24.4939C126.23 24.034 126.362 23.597 126.626 23.1831C126.891 22.7691 127.236 22.4357 127.661 22.1827C128.098 21.9183 128.547 21.786 129.006 21.786ZM129.006 24.8561C129.121 24.8561 129.213 24.8216 129.282 24.7526C129.363 24.6721 129.403 24.5744 129.403 24.4594C129.403 24.3559 129.363 24.2639 129.282 24.1835C129.213 24.103 129.121 24.0627 129.006 24.0627C128.891 24.0627 128.794 24.103 128.713 24.1835C128.633 24.2639 128.593 24.3559 128.593 24.4594C128.593 24.5744 128.627 24.6721 128.696 24.7526C128.776 24.8216 128.88 24.8561 129.006 24.8561ZM137.009 27.2708C137.469 27.2708 137.912 27.403 138.337 27.6675C138.774 27.9204 139.125 28.2596 139.39 28.6851C139.665 29.1105 139.803 29.5532 139.803 30.0132C139.803 30.4731 139.665 30.9158 139.39 31.3412C139.125 31.7552 138.774 32.0944 138.337 32.3588C137.912 32.6118 137.469 32.7383 137.009 32.7383C136.549 32.7383 136.101 32.6118 135.664 32.3588C135.239 32.0944 134.894 31.7552 134.629 31.3412C134.365 30.9158 134.232 30.4731 134.232 30.0132C134.232 29.5532 134.365 29.1105 134.629 28.6851C134.894 28.2596 135.239 27.9204 135.664 27.6675C136.101 27.403 136.549 27.2708 137.009 27.2708ZM137.009 30.4271C137.124 30.4271 137.216 30.3869 137.285 30.3064C137.366 30.2259 137.406 30.1339 137.406 30.0304C137.406 29.9154 137.366 29.8234 137.285 29.7544C137.216 29.674 137.124 29.6337 137.009 29.6337C136.894 29.6337 136.797 29.674 136.716 29.7544C136.647 29.8234 136.613 29.9154 136.613 30.0304C136.613 30.1339 136.647 30.2259 136.716 30.3064C136.797 30.3869 136.894 30.4271 137.009 30.4271ZM145.153 29.1508C144.924 29.1853 144.636 29.2025 144.291 29.2025C143.268 29.2025 142.492 28.8978 141.963 28.2884C141.445 27.679 141.187 26.8913 141.187 25.9255C141.187 25.2471 141.336 24.5916 141.635 23.9592C141.945 23.3153 142.382 22.7921 142.946 22.3897C143.509 21.9873 144.159 21.786 144.895 21.786C146.022 21.786 146.89 22.2057 147.499 23.0451C148.12 23.873 148.431 25.0631 148.431 26.6154V32.7383H145.153V29.1508ZM145.412 25.9427C145.412 25.2988 145.211 24.9768 144.809 24.9768C144.648 24.9768 144.521 25.0343 144.429 25.1493C144.337 25.2528 144.291 25.3965 144.291 25.5805C144.291 25.7415 144.331 25.8565 144.412 25.9255C144.492 25.983 144.625 26.0117 144.809 26.0117C145.038 26.0117 145.24 25.9887 145.412 25.9427ZM153.605 23.8902C154.214 23.8902 154.812 24.0627 155.399 24.4077C155.985 24.7526 156.462 25.2126 156.83 25.7875C157.198 26.3509 157.382 26.9431 157.382 27.564C157.382 28.1849 157.198 28.7828 156.83 29.3577C156.462 29.9212 155.985 30.3811 155.399 30.7376C154.812 31.0825 154.214 31.255 153.605 31.255C152.972 31.255 152.363 31.0825 151.777 30.7376C151.19 30.3811 150.713 29.9212 150.345 29.3577C149.989 28.7828 149.81 28.1849 149.81 27.564C149.81 26.9431 149.989 26.3509 150.345 25.7875C150.713 25.2126 151.19 24.7526 151.777 24.4077C152.363 24.0627 152.972 23.8902 153.605 23.8902ZM153.605 28.1504C153.754 28.1504 153.887 28.0929 154.002 27.9779C154.116 27.863 154.174 27.725 154.174 27.564C154.174 27.403 154.116 27.265 154.002 27.15C153.887 27.0351 153.754 26.9776 153.605 26.9776C153.444 26.9776 153.3 27.0351 153.174 27.15C153.059 27.265 153.001 27.403 153.001 27.564C153.001 27.725 153.059 27.863 153.174 27.9779C153.3 28.0929 153.444 28.1504 153.605 28.1504ZM164.995 31.255C165.053 31.255 165.093 31.3067 165.116 31.4102C165.151 31.5022 165.168 31.7034 165.168 32.0139C165.168 32.3128 165.151 32.5083 165.116 32.6003C165.093 32.6923 165.053 32.7383 164.995 32.7383H164.547C163.673 32.7383 163.006 32.4796 162.546 31.9621C162.098 31.4332 161.874 30.6858 161.874 29.7199V21.5791H163.305V29.651C163.305 30.7203 163.742 31.255 164.616 31.255H164.995ZM169.626 29.9959C169.626 30.8468 169.367 31.5194 168.85 32.0139C168.333 32.4968 167.648 32.7383 166.797 32.7383H165.004C164.889 32.7383 164.831 32.4968 164.831 32.0139C164.831 31.508 164.889 31.255 165.004 31.255H166.797C167.211 31.255 167.545 31.1457 167.798 30.9273C168.062 30.6973 168.195 30.3811 168.195 29.9787V27.1845H169.626V29.9959ZM170.161 23.7523V25.1148H165.607V23.7523H170.161Z" fill="#FFD500"/>
</svg>
