<svg width="190" height="77" viewBox="0 0 190 77" fill="none" xmlns="http://www.w3.org/2000/svg">
<g filter="url(#filter0_d_7263_23)">
<rect x="13" y="9" width="164" height="41.3774" rx="13.6766" fill="url(#paint0_linear_7263_23)"/>
<path d="M31.8009 29.772C32.0031 30.368 32.2 30.7777 32.3916 31.0012C32.5938 31.2246 32.8917 31.3364 33.2855 31.3364H33.3972L33.5249 32.5336L33.3972 33.7148H33.2855C32.6044 33.7148 32.0564 33.4435 31.6413 32.9007C31.2369 32.3474 30.8591 31.5758 30.508 30.5861L31.8009 29.772ZM24.6815 30.2509C24.4048 30.8894 24.192 31.4534 24.043 31.943C23.894 32.4219 23.8195 32.9114 23.8195 33.4115C23.8195 34.2842 24.0962 34.9333 24.6496 35.359C25.203 35.7953 26.0011 36.0135 27.044 36.0135C27.7889 36.0135 28.4381 35.8805 28.9915 35.6144C29.5555 35.359 29.9812 35.0185 30.2685 34.5928C30.5665 34.1778 30.7155 33.7361 30.7155 33.2679C30.7155 32.6613 30.3749 31.3843 29.6938 29.4368L31.4019 28.5429C32.0723 30.3414 32.4075 31.9164 32.4075 33.2679C32.4075 34.1937 32.1841 35.0451 31.7371 35.8219C31.2901 36.5988 30.6569 37.216 29.8375 37.6736C29.0287 38.1419 28.0976 38.376 27.044 38.376C26.0543 38.376 25.1817 38.1844 24.4261 37.8013C23.6705 37.4289 23.0799 36.8915 22.6542 36.1891C22.2392 35.4867 22.0317 34.662 22.0317 33.7148C22.0317 33.5233 22.037 33.3743 22.0476 33.2679C22.0796 32.6613 22.2019 32.0281 22.4148 31.3683C22.6383 30.7085 22.883 30.1019 23.1491 29.5485L24.6815 30.2509ZM25.8787 28.5748L27.3633 27.1062L28.8319 28.5748L28.337 29.0696C28.0177 29.3995 27.6932 29.7241 27.3633 30.0434L25.8787 28.5748ZM32.5614 31.3364H32.6732C33.6309 31.3364 34.344 31.2885 34.8122 31.1927C35.2804 31.0863 35.5891 30.932 35.738 30.7298C35.887 30.5276 35.9615 30.2349 35.9615 29.8518C35.9615 29.5432 35.9083 29.0377 35.8019 28.3354L37.4461 28.0161C37.5951 28.793 37.6696 29.6709 37.6696 30.65C37.7121 30.8309 37.8292 30.9905 38.0207 31.1289C38.2123 31.2672 38.489 31.3364 38.8508 31.3364H38.9466L39.0743 32.5336L38.9466 33.7148H38.8508C38.3613 33.7148 37.909 33.5818 37.494 33.3158C37.0789 33.0391 36.7543 32.6932 36.5202 32.2782L36.9193 32.358C36.632 32.8475 36.1637 33.1987 35.5146 33.4115C34.876 33.6137 33.9289 33.7148 32.6732 33.7148H32.5614V31.3364ZM33.9662 35.0877L35.2911 36.4285C35.0038 36.7265 34.7111 37.0192 34.4131 37.3065L33.9662 37.7535L33.3117 37.083L32.6412 36.4285L33.9662 35.0877ZM36.7597 35.0877L38.0846 36.4285C37.7973 36.7265 37.5046 37.0192 37.2066 37.3065L36.7597 37.7535L36.1052 37.083L35.4347 36.4285L36.7597 35.0877ZM44.5698 31.3364L44.6975 32.5336L44.5698 33.7148H44.5059C43.8035 33.7148 43.2182 33.5339 42.75 33.1721C42.2817 32.8103 41.9572 32.2622 41.7763 31.5279C41.6486 31.0384 41.5368 30.5223 41.441 29.9795C41.3772 29.7135 41.3187 29.4528 41.2654 29.1974C41.2122 28.9419 41.159 28.6972 41.1058 28.4631L42.6861 27.9203C42.9203 28.8994 43.1171 29.6975 43.2768 30.3148C43.3832 30.6766 43.5322 30.9373 43.7237 31.0969C43.9153 31.2566 44.1707 31.3364 44.4899 31.3364H44.5698ZM43.1491 30.634C43.0001 31.7195 42.5425 32.507 41.7763 32.9965C41.01 33.4754 39.8235 33.7148 38.2165 33.7148H38.1048V31.3364H38.2006C39.2648 31.3364 40.0735 31.2566 40.6269 31.0969C41.1909 30.9373 41.5262 30.6819 41.6326 30.3307L43.1491 30.634ZM38.887 36.4126L40.3715 34.944L41.8401 36.4126L41.3453 36.9074C41.026 37.2373 40.7014 37.5619 40.3715 37.8812L38.887 36.4126ZM43.7261 31.3364H44.5721C45.3383 31.3364 45.8864 31.2512 46.2163 31.081C46.5568 30.9107 46.7271 30.6553 46.7271 30.3148C46.7271 30.0913 46.6154 29.655 46.3919 29.0058C46.1684 28.346 45.9928 27.8618 45.8651 27.5532L47.5412 26.6273C47.7434 27.0743 47.9509 27.6756 48.1638 28.4311C48.3873 29.1761 48.499 29.8305 48.499 30.3946C48.499 31.48 48.1585 32.3048 47.4774 32.8688C46.8069 33.4328 45.8385 33.7148 44.5721 33.7148H43.7261V31.3364ZM44.2688 36.4126L45.7534 34.944L47.222 36.4126L46.7271 36.9074C46.4079 37.2373 46.0833 37.5619 45.7534 37.8812L44.2688 36.4126ZM51.9119 36.3168C53.7317 35.923 55.0513 35.4495 55.8707 34.8961C56.6902 34.3427 57.0999 33.6297 57.0999 32.7571C57.0892 32.1292 56.9988 31.5173 56.8285 30.9213C56.6582 30.3148 56.4188 29.8199 56.1102 29.4368C55.8122 29.0537 55.477 28.8621 55.1045 28.8621C54.8917 28.8621 54.6895 28.9419 54.4979 29.1016C54.317 29.2612 54.168 29.4581 54.051 29.6922C53.9445 29.9263 53.8913 30.1445 53.8913 30.3467C53.8913 30.5169 53.9339 30.6606 54.019 30.7777C54.1787 30.9905 54.4713 31.1555 54.897 31.2725C55.3333 31.3789 55.8228 31.4322 56.3656 31.4322C56.77 31.4322 57.169 31.4002 57.5628 31.3364V33.5552C57.0413 33.6829 56.5039 33.7468 55.9505 33.7468C55.1737 33.7468 54.4766 33.6137 53.8594 33.3477C53.2422 33.071 52.8059 32.6613 52.5505 32.1186C52.3589 31.7035 52.2631 31.2459 52.2631 30.7457C52.2631 30.1179 52.3961 29.4953 52.6622 28.8781C52.9282 28.2502 53.2954 27.7394 53.7636 27.3457C54.2319 26.9413 54.7427 26.7391 55.2961 26.7391C55.9346 26.7391 56.5146 27.0158 57.036 27.5691C57.5575 28.1225 57.9672 28.8462 58.2652 29.7401C58.5631 30.634 58.7121 31.5652 58.7121 32.5336C58.7121 34.0235 58.1747 35.2792 57.0999 36.3008C56.025 37.3225 54.5405 38.0142 52.6462 38.376L51.9119 36.3168ZM58.2068 36.3647C58.9092 36.0773 59.553 35.7421 60.1383 35.359C60.7236 34.9866 61.1812 34.6141 61.5111 34.2416C61.8517 33.8692 62.0219 33.5499 62.0219 33.2838C62.0219 32.8475 61.7399 31.661 61.1759 29.7241L61.0961 29.4049L62.8839 28.7025C63.1393 29.4368 63.3415 30.2243 63.4905 31.065C63.6395 31.8951 63.714 32.6347 63.714 33.2838C63.714 34.3268 63.3043 35.2898 62.4848 36.1731C61.6654 37.067 60.564 37.8013 59.1805 38.376L58.2068 36.3647ZM72.2479 38.3281C71.2901 38.3281 70.4335 38.1472 69.6779 37.7854C68.9223 37.4236 68.3264 36.8915 67.89 36.1891C67.4537 35.4867 67.2356 34.6407 67.2356 33.651C67.2356 33.0018 67.3473 32.2995 67.5708 31.5439C67.8049 30.7777 68.0656 30.0966 68.353 29.5006L69.8854 30.203C69.6087 30.8309 69.3959 31.3843 69.2469 31.8632C69.0979 32.342 69.0234 32.8316 69.0234 33.3317C69.0234 34.215 69.3001 34.8695 69.8535 35.2952C70.4068 35.7315 71.205 35.9496 72.2479 35.9496C72.8226 35.9496 73.3653 35.8858 73.8761 35.7581C74.3976 35.6304 74.8392 35.4708 75.201 35.2792C75.5735 35.0877 75.8289 34.8961 75.9672 34.7045C75.7757 34.5236 75.3713 34.2629 74.7541 33.9224C74.1368 33.5925 73.4983 33.3051 72.8385 33.0604L73.3334 30.8256C74.2592 31.0065 75.0627 31.1395 75.7438 31.2246C76.4248 31.2991 77.0953 31.3364 77.7551 31.3364H77.9945L78.1222 32.5336L77.9945 33.7148H77.7551C77.0846 33.7042 76.4036 33.651 75.7118 33.5552C75.0201 33.4488 74.1688 33.3051 73.1578 33.1242C73.0939 33.1029 72.9875 33.0816 72.8385 33.0604L73.3493 31.6077C73.4238 31.6397 73.8282 31.8099 74.5625 32.1186C75.2968 32.4272 75.9885 32.8369 76.6377 33.3477C77.2975 33.8479 77.6274 34.3374 77.6274 34.8163C77.638 35.3484 77.4039 35.8858 76.925 36.4285C76.4461 36.9819 75.7917 37.4342 74.9616 37.7854C74.1422 38.1472 73.2376 38.3281 72.2479 38.3281ZM77.1269 31.3364H78.4199C79.6544 31.3364 80.6015 31.1927 81.2613 30.9054C81.9211 30.6074 82.251 30.2243 82.251 29.7561C82.251 29.4794 82.1233 29.1654 81.8679 28.8142C81.6231 28.4524 81.3252 28.181 80.974 28.0001C80.676 28.4258 80.4153 29.043 80.1918 29.8518C79.9683 30.65 79.8406 31.4481 79.8087 32.2463C79.798 32.8528 79.8991 33.3903 80.112 33.8585C80.3248 34.3268 80.6068 34.6886 80.958 34.944C81.3092 35.1994 81.6763 35.3271 82.0595 35.3271C82.2616 35.3271 82.4532 35.2898 82.6341 35.2154C82.666 35.1728 82.682 35.0983 82.682 34.9919C82.682 34.6939 82.5383 34.3587 82.251 33.9862C81.9743 33.6244 81.538 33.3158 80.9421 33.0604L81.3571 30.9692C81.9105 31.1182 82.4585 31.2193 83.0013 31.2725C83.5546 31.3151 84.2836 31.3364 85.1882 31.3364L85.3159 32.5336L85.1882 33.7148C84.3475 33.7148 83.6132 33.667 82.9853 33.5712C82.3681 33.4648 81.687 33.2945 80.9421 33.0604L81.3411 31.4002C81.9158 31.5811 82.4372 31.8791 82.9055 32.2941C83.3737 32.6985 83.7409 33.1668 84.0069 33.6989C84.273 34.231 84.406 34.7524 84.406 35.2632C84.406 35.9763 84.1506 36.5403 83.6398 36.9553C83.1822 37.3384 82.6182 37.53 81.9477 37.53C81.3198 37.53 80.7133 37.3437 80.1279 36.9713C79.5426 36.6094 79.0638 36.0614 78.6913 35.3271C78.3188 34.5928 78.1326 33.6989 78.1326 32.6453C78.1326 32.4112 78.1379 32.2356 78.1485 32.1186C78.3082 29.8199 78.9307 27.7979 80.0162 26.0527L81.2932 25.6855C82.0382 26.0899 82.6394 26.6752 83.097 27.4414C83.5653 28.2077 83.7994 28.9952 83.7994 29.8039C83.7994 31.0916 83.2726 32.0653 82.2191 32.7251C81.1762 33.3743 79.7236 33.7095 77.8612 33.7308H77.1269V31.3364ZM84.3379 31.3364H84.8806C85.7852 31.3364 86.5301 31.2672 87.1155 31.1289C87.7008 30.9905 88.0945 30.8043 88.2967 30.5702C88.1477 29.5805 87.041 28.2715 84.9764 26.6433L85.1839 24.5681L91.1221 22.0619L91.7606 23.9615L87.1474 25.925C87.8285 26.5103 88.4829 27.2233 89.1108 28.064C89.7387 28.9047 90.0526 29.7401 90.0526 30.5702C90.0526 30.7511 90.026 30.9479 89.9728 31.1608C89.76 32.0228 89.2013 32.6666 88.2967 33.0923C87.3921 33.5073 86.2535 33.7148 84.8806 33.7148H84.3379V31.3364ZM85.3595 22.6366L90.5475 20.5135L90.8188 21.2798L85.2638 23.6103L85.3595 22.6366ZM93.04 33.6191C93.1039 33.087 93.1358 32.209 93.1358 30.9852C93.1358 29.7188 93.0933 28.3726 93.0081 26.9466C92.9336 25.5206 92.8485 24.467 92.7527 23.7859L94.7481 23.339C94.8226 24.0094 94.8917 25.0151 94.9556 26.356C95.0301 27.6968 95.0673 29.0111 95.0673 30.2988C95.0673 31.6716 95.0194 32.8475 94.9237 33.8266L93.04 33.6191ZM91.0128 22.2375C91.2256 21.7693 91.4863 21.4075 91.7949 21.1521C92.0929 20.886 92.4228 20.753 92.7846 20.753C92.9656 20.753 93.1252 20.7796 93.2635 20.8328C93.4125 20.8754 93.5881 20.9392 93.7903 21.0244C94.1308 21.184 94.4022 21.2638 94.6044 21.2638C94.7853 21.2638 94.9662 21.2106 95.1471 21.1042C95.3387 20.9871 95.4983 20.8381 95.626 20.6572L96.3444 21.2638C96.1102 21.6256 95.8442 21.9076 95.5462 22.1098C95.2482 22.3014 94.9343 22.3972 94.6044 22.3972C94.4235 22.3972 94.2585 22.3759 94.1096 22.3333C93.9712 22.2801 93.785 22.2056 93.5509 22.1098C93.2316 21.9502 92.9815 21.8704 92.8006 21.8704C92.5984 21.8704 92.4069 21.9449 92.2259 22.0939C92.045 22.2322 91.9014 22.4344 91.7949 22.7005L91.0128 22.2375ZM104.731 24.9991C104.976 27.2765 105.146 28.777 105.242 29.5006C105.306 30.0327 105.38 30.4265 105.466 30.6819C105.561 30.9373 105.694 31.1129 105.865 31.2087C106.046 31.2938 106.306 31.3364 106.647 31.3364H106.918L107.046 32.5336L106.918 33.7148H106.647C105.7 33.7148 104.971 33.4169 104.46 32.8209C103.96 32.2143 103.624 31.214 103.454 29.8199L103.342 28.9739L102.88 25.3982L104.731 24.9991ZM104.492 32.6134C103.811 32.8369 103.146 32.9486 102.496 32.9486C101.539 32.9486 100.751 32.7198 100.134 32.2622C99.5273 31.794 99.224 31.1608 99.224 30.3626C99.224 29.3836 99.6072 28.5588 100.373 27.8884C101.15 27.218 102.177 26.6486 103.454 26.1804L103.901 28.2555C103.188 28.4258 102.528 28.6759 101.922 29.0058C101.326 29.3251 101.012 29.6283 100.98 29.9157C100.959 30.1498 101.076 30.3467 101.331 30.5063C101.587 30.6553 101.938 30.7298 102.385 30.7298C102.906 30.7298 103.454 30.6127 104.029 30.3786L104.492 32.6134ZM114.344 31.3843L115.813 31.3683C116.515 31.347 117.02 31.3364 117.329 31.3364L117.457 32.5336L117.329 33.7148C115.999 33.7148 114.956 33.6723 114.2 33.5871C113.455 33.4914 112.897 33.3051 112.524 33.0284L113.849 31.3843H114.344ZM106.059 31.3364C107.517 31.3364 108.8 31.3523 109.906 31.3843C110.875 31.4055 111.742 31.3204 112.508 31.1289C113.274 30.9267 113.876 30.6659 114.312 30.3467C114.748 30.0274 114.983 29.7028 115.014 29.3729C115.036 29.1069 114.929 28.8834 114.695 28.7025C114.461 28.5109 114.131 28.4152 113.705 28.4152C112.854 28.4152 111.966 28.7983 111.04 29.5645C110.124 30.3201 109.294 31.3683 108.549 32.7092L107.288 31.7354C108.129 30.0008 109.098 28.644 110.194 27.6649C111.3 26.6752 112.397 26.1804 113.482 26.1804C114.089 26.1804 114.637 26.3134 115.126 26.5794C115.616 26.8348 115.999 27.1967 116.276 27.6649C116.552 28.1332 116.691 28.6599 116.691 29.2452C116.691 30.1498 116.414 30.9426 115.86 31.6237C115.318 32.2941 114.562 32.8103 113.594 33.1721C112.625 33.5339 111.529 33.7148 110.305 33.7148H106.059V31.3364ZM108.31 30.1711C108.342 29.7986 108.358 29.3729 108.358 28.8941C108.358 27.8618 108.299 26.6699 108.182 25.3184C108.065 23.9668 107.954 22.9772 107.847 22.3493L109.842 21.9023C109.938 22.477 110.023 23.2698 110.098 24.2808C110.172 25.2918 110.21 26.3294 110.21 27.3935C110.21 28.1066 110.183 28.8781 110.13 29.7082L108.31 30.1711ZM116.559 31.3364H116.943C117.985 31.3364 118.816 31.2938 119.433 31.2087C120.061 31.1129 120.545 30.9586 120.885 30.7457C121.237 30.5329 121.497 30.2349 121.668 29.8518C121.689 29.49 121.588 29.1495 121.364 28.8302C121.151 28.5003 120.859 28.3354 120.486 28.3354C120.156 28.3354 119.869 28.4684 119.624 28.7344C119.38 29.0005 119.241 29.2984 119.209 29.6283C119.231 29.905 119.369 30.1764 119.624 30.4425C119.88 30.6979 120.247 30.9107 120.726 31.081C121.205 31.2512 121.769 31.3364 122.418 31.3364H124.27L124.397 32.5336L124.27 33.7148H123.312C122.205 33.7148 121.21 33.5393 120.327 33.1881C119.443 32.8369 118.752 32.3633 118.252 31.7674C117.751 31.1714 117.501 30.5276 117.501 29.8359C117.501 29.7614 117.512 29.6283 117.533 29.4368C117.629 28.7983 117.826 28.2183 118.124 27.6968C118.432 27.1647 118.805 26.7497 119.241 26.4517C119.678 26.1431 120.14 25.9888 120.63 25.9888C121.173 25.9888 121.652 26.1644 122.067 26.5156C122.482 26.8668 122.801 27.3137 123.024 27.8565C123.248 28.3992 123.36 28.9526 123.36 29.5166C123.36 29.6443 123.349 29.8146 123.328 30.0274C123.147 31.2938 122.53 32.225 121.476 32.8209C120.422 33.4169 118.911 33.7148 116.943 33.7148H116.559V31.3364ZM119.177 22.477L120.502 23.8179C120.215 24.1158 119.922 24.4085 119.624 24.6958L119.177 25.1428L118.523 24.4723L117.852 23.8179L119.177 22.477ZM121.971 22.477L123.296 23.8179C123.008 24.1158 122.716 24.4085 122.418 24.6958L121.971 25.1428L121.316 24.4723L120.646 23.8179L121.971 22.477ZM123.381 31.3364H124.228C124.994 31.3364 125.542 31.2512 125.872 31.081C126.212 30.9107 126.383 30.6553 126.383 30.3148C126.383 30.0913 126.271 29.655 126.047 29.0058C125.824 28.346 125.648 27.8618 125.521 27.5532L127.197 26.6273C127.399 27.0743 127.606 27.6756 127.819 28.4311C128.043 29.1761 128.154 29.8305 128.154 30.3946C128.154 31.48 127.814 32.3048 127.133 32.8688C126.462 33.4328 125.494 33.7148 124.228 33.7148H123.381V31.3364ZM124.323 24.5043L125.808 23.0357L127.276 24.5043L126.782 24.9991C126.462 25.329 126.138 25.6536 125.808 25.9728L124.323 24.5043ZM131.567 36.3168C133.387 35.923 134.707 35.4495 135.526 34.8961C136.346 34.3427 136.755 33.6297 136.755 32.7571C136.745 32.1292 136.654 31.5173 136.484 30.9213C136.314 30.3148 136.074 29.8199 135.766 29.4368C135.468 29.0537 135.132 28.8621 134.76 28.8621C134.547 28.8621 134.345 28.9419 134.153 29.1016C133.972 29.2612 133.823 29.4581 133.706 29.6922C133.6 29.9263 133.547 30.1445 133.547 30.3467C133.547 30.5169 133.589 30.6606 133.674 30.7777C133.834 30.9905 134.127 31.1555 134.552 31.2725C134.989 31.3789 135.478 31.4322 136.021 31.4322C136.425 31.4322 136.824 31.4002 137.218 31.3364V33.5552C136.697 33.6829 136.159 33.7468 135.606 33.7468C134.829 33.7468 134.132 33.6137 133.515 33.3477C132.898 33.071 132.461 32.6613 132.206 32.1186C132.014 31.7035 131.919 31.2459 131.919 30.7457C131.919 30.1179 132.052 29.4953 132.318 28.8781C132.584 28.2502 132.951 27.7394 133.419 27.3457C133.887 26.9413 134.398 26.7391 134.951 26.7391C135.59 26.7391 136.17 27.0158 136.691 27.5691C137.213 28.1225 137.623 28.8462 137.921 29.7401C138.219 30.634 138.368 31.5652 138.368 32.5336C138.368 34.0235 137.83 35.2792 136.755 36.3008C135.68 37.3225 134.196 38.0142 132.302 38.376L131.567 36.3168ZM137.862 36.3647C138.565 36.0773 139.208 35.7421 139.794 35.359C140.379 34.9866 140.837 34.6141 141.167 34.2416C141.507 33.8692 141.677 33.5499 141.677 33.2838C141.677 32.8475 141.395 31.661 140.831 29.7241L140.751 29.4049L142.539 28.7025C142.795 29.4368 142.997 30.2243 143.146 31.065C143.295 31.8951 143.369 32.6347 143.369 33.2838C143.369 34.3268 142.96 35.2898 142.14 36.1731C141.321 37.067 140.219 37.8013 138.836 38.376L137.862 36.3647ZM149.557 29.5006C149.28 30.1392 149.067 30.7032 148.918 31.1927C148.769 31.6716 148.695 32.1611 148.695 32.6613C148.695 33.5339 148.971 34.1831 149.525 34.6088C150.078 35.0451 150.876 35.2632 151.919 35.2632C152.664 35.2632 153.313 35.1302 153.867 34.8642C154.431 34.6088 154.856 34.2682 155.144 33.8425C155.442 33.4275 155.591 32.9859 155.591 32.5176C155.591 31.911 155.25 30.634 154.569 28.6865L156.277 27.7926C156.948 29.5911 157.283 31.1661 157.283 32.5176C157.283 33.4435 157.059 34.2948 156.612 35.0717C156.165 35.8485 155.532 36.4658 154.713 36.9234C153.904 37.3916 152.973 37.6257 151.919 37.6257C150.93 37.6257 150.057 37.4342 149.301 37.0511C148.546 36.6786 147.955 36.1412 147.529 35.4388C147.114 34.7365 146.907 33.9117 146.907 32.9646C146.907 32.773 146.912 32.624 146.923 32.5176C146.955 31.911 147.077 31.2778 147.29 30.618C147.513 29.9582 147.758 29.3517 148.024 28.7983L149.557 29.5006ZM150.754 27.8245L152.238 26.356L153.707 27.8245L153.212 28.3194C152.893 28.6493 152.568 28.9739 152.238 29.2931L150.754 27.8245ZM163.591 33.7148C162.867 33.7148 162.282 33.4488 161.835 32.9167C161.388 32.3846 161.016 31.6397 160.718 30.6819L162.154 29.8039C162.303 30.368 162.484 30.767 162.697 31.0012C162.91 31.2246 163.208 31.3364 163.591 31.3364H163.735L163.862 32.5336L163.735 33.7148H163.591ZM157.158 36.3647C157.86 36.0773 158.504 35.7421 159.089 35.359C159.675 34.9866 160.132 34.6141 160.462 34.2416C160.803 33.8692 160.973 33.5499 160.973 33.2838C160.973 32.8475 160.691 31.661 160.127 29.7241L160.047 29.4049L161.835 28.7025C162.09 29.4368 162.293 30.2243 162.442 31.065C162.591 31.8951 162.665 32.6347 162.665 33.2838C162.665 34.3268 162.255 35.2898 161.436 36.1731C160.617 37.067 159.515 37.8013 158.132 38.376L157.158 36.3647ZM159.169 25.7653L160.654 24.2967L162.122 25.7653L161.628 26.2602C161.308 26.5901 160.984 26.9147 160.654 27.2339L159.169 25.7653ZM162.918 31.3364H163.764C164.53 31.3364 165.078 31.2512 165.408 31.081C165.748 30.9107 165.919 30.6553 165.919 30.3148C165.919 30.0913 165.807 29.655 165.583 29.0058C165.36 28.346 165.184 27.8618 165.057 27.5532L166.733 26.6273C166.935 27.0743 167.143 27.6756 167.355 28.4311C167.579 29.1761 167.691 29.8305 167.691 30.3946C167.691 31.48 167.35 32.3048 166.669 32.8688C165.999 33.4328 165.03 33.7148 163.764 33.7148H162.918V31.3364ZM163.46 36.4126L164.945 34.944L166.414 36.4126L165.919 36.9074C165.599 37.2373 165.275 37.5619 164.945 37.8812L163.46 36.4126Z" fill="white"/>
<path d="M94.5 60L87.1388 49.6786L101.861 49.6786L94.5 60Z" fill="#ED0F10"/>
</g>
<defs>
<filter id="filter0_d_7263_23" x="0" y="0" width="190" height="77" filterUnits="userSpaceOnUse" color-interpolation-filters="sRGB">
<feFlood flood-opacity="0" result="BackgroundImageFix"/>
<feColorMatrix in="SourceAlpha" type="matrix" values="0 0 0 0 0 0 0 0 0 0 0 0 0 0 0 0 0 0 127 0" result="hardAlpha"/>
<feOffset dy="4"/>
<feGaussianBlur stdDeviation="6.5"/>
<feComposite in2="hardAlpha" operator="out"/>
<feColorMatrix type="matrix" values="0 0 0 0 0.968627 0 0 0 0 0.14902 0 0 0 0 0.156863 0 0 0 0.38 0"/>
<feBlend mode="normal" in2="BackgroundImageFix" result="effect1_dropShadow_7263_23"/>
<feBlend mode="normal" in="SourceGraphic" in2="effect1_dropShadow_7263_23" result="shape"/>
</filter>
<linearGradient id="paint0_linear_7263_23" x1="93.8819" y1="9" x2="100.813" y2="49.5754" gradientUnits="userSpaceOnUse">
<stop stop-color="#FF3A3D"/>
<stop offset="1" stop-color="#ED0F10"/>
</linearGradient>
</defs>
</svg>
