<svg width="18" height="18" viewBox="0 0 18 18" fill="none" xmlns="http://www.w3.org/2000/svg">
<g clip-path="url(#clip0_7162_18)">
<g clip-path="url(#clip1_7162_18)">
<g filter="url(#filter0_d_7162_18)">
<path d="M9 16C12.866 16 16 12.866 16 9C16 5.13401 12.866 2 9 2C5.13401 2 2 5.13401 2 9C2 12.866 5.13401 16 9 16Z" fill="#ED0F10"/>
<path d="M9.00269 15.6968C12.7019 15.6968 15.7007 12.698 15.7007 8.99878C15.7007 5.29958 12.7019 2.30078 9.00269 2.30078C5.30348 2.30078 2.30469 5.29958 2.30469 8.99878C2.30469 12.698 5.30348 15.6968 9.00269 15.6968Z" stroke="white" stroke-width="0.604001"/>
</g>
</g>
</g>
<defs>
<filter id="filter0_d_7162_18" x="1.5" y="1.5" width="17" height="17" filterUnits="userSpaceOnUse" color-interpolation-filters="sRGB">
<feFlood flood-opacity="0" result="BackgroundImageFix"/>
<feColorMatrix in="SourceAlpha" type="matrix" values="0 0 0 0 0 0 0 0 0 0 0 0 0 0 0 0 0 0 127 0" result="hardAlpha"/>
<feOffset dx="1" dy="1"/>
<feGaussianBlur stdDeviation="0.75"/>
<feComposite in2="hardAlpha" operator="out"/>
<feColorMatrix type="matrix" values="0 0 0 0 0 0 0 0 0 0 0 0 0 0 0 0 0 0 0.25 0"/>
<feBlend mode="normal" in2="BackgroundImageFix" result="effect1_dropShadow_7162_18"/>
<feBlend mode="normal" in="SourceGraphic" in2="effect1_dropShadow_7162_18" result="shape"/>
</filter>
<clipPath id="clip0_7162_18">
<rect width="18" height="18" fill="white"/>
</clipPath>
<clipPath id="clip1_7162_18">
<rect width="18" height="18" fill="white" transform="translate(1 1)"/>
</clipPath>
</defs>
</svg>
