<svg width="119" height="39" viewBox="0 0 119 39" fill="none" xmlns="http://www.w3.org/2000/svg">
<path d="M6.67949 18.8671C5.98203 20.4493 5.44553 21.8469 5.06997 23.0599C4.69442 24.2465 4.50664 25.4594 4.50664 26.6988C4.50664 28.8611 5.2041 30.4696 6.59901 31.5243C7.99393 32.6055 10.0058 33.1461 12.6347 33.1461C14.5125 33.1461 16.1488 32.8164 17.5437 32.1572C18.9655 31.5243 20.0385 30.6805 20.7627 29.6258C21.5139 28.5974 21.8894 27.503 21.8894 26.3428C21.8894 24.8398 21.031 21.6755 19.3142 16.8499L23.6196 14.6349C25.3096 19.0913 26.1546 22.9939 26.1546 26.3428C26.1546 28.6369 25.5913 30.7465 24.4646 32.6714C23.338 34.5964 21.7419 36.1258 19.6763 37.2596C17.6376 38.4199 15.2904 39 12.6347 39C10.1399 39 7.94028 38.5254 6.03568 37.5761C4.13109 36.6532 2.64229 35.3215 1.56928 33.5812C0.523092 31.8408 0 29.7972 0 27.4503C0 26.9757 0.0134126 26.6065 0.0402378 26.3428C0.120714 24.8398 0.429204 23.2708 0.965709 21.6359C1.52904 20.001 2.14602 18.498 2.81665 17.1268L6.67949 18.8671Z" fill="black"/>
<path d="M33.8651 0.0395834C34.1333 1.96453 34.3479 4.57505 34.5089 7.87119C34.6698 11.141 34.7503 14.1734 34.7503 16.9686V18.4716C34.7235 19.8164 34.7905 20.8317 34.9515 21.5173C35.1124 22.2029 35.4343 22.6907 35.9172 22.9807C36.4269 23.2708 37.2048 23.4158 38.251 23.4158H38.4522L38.7741 26.3824L38.4522 29.3094H38.251C35.3002 29.3094 33.1676 28.4787 31.8532 26.8175C30.5656 25.1562 29.9218 22.6248 29.9218 19.2231C29.8949 15.9797 29.7876 12.6968 29.5998 9.37427C29.4389 6.02538 29.1975 3.26981 28.8756 1.10753L33.8651 0.0395834Z" fill="black"/>
<path d="M37.817 23.4158H41.0763C44.188 23.4158 46.5755 23.0598 48.2387 22.3479C49.9018 21.6095 50.7334 20.6602 50.7334 19.5C50.7334 18.8144 50.4115 18.0365 49.7677 17.1663C49.1507 16.2698 48.3996 15.5974 47.5144 15.1491C46.7633 16.2039 46.106 17.7333 45.5427 19.7373C44.9794 21.715 44.6575 23.6927 44.577 25.6704C44.5502 27.1735 44.805 28.5051 45.3415 29.6653C45.878 30.8256 46.5889 31.7221 47.4741 32.355C48.3594 32.9878 49.2848 33.3043 50.2505 33.3043C50.7602 33.3043 51.2431 33.212 51.6991 33.0274C51.7796 32.9219 51.8198 32.7373 51.8198 32.4737C51.8198 31.7353 51.4577 30.9047 50.7334 29.9817C50.0359 29.0852 48.9361 28.3205 47.4339 27.6876L48.4801 22.5061C49.875 22.8753 51.2565 23.1258 52.6246 23.2576C54.0195 23.3631 55.857 23.4158 58.1372 23.4158L58.4591 26.3824L58.1372 29.3094C56.018 29.3094 54.167 29.1907 52.5843 28.9534C51.0285 28.6897 49.3117 28.2678 47.4339 27.6876L48.4398 23.574C49.8884 24.0223 51.2028 24.7607 52.3831 25.7891C53.5635 26.7911 54.4889 27.9513 55.1596 29.2698C55.8302 30.5883 56.1655 31.8804 56.1655 33.1461C56.1655 34.9128 55.5217 36.3104 54.2341 37.3388C53.0806 38.288 51.6589 38.7627 49.9689 38.7627C48.3862 38.7627 46.8571 38.3012 45.3818 37.3783C43.9064 36.4817 42.6992 35.1237 41.7603 33.3043C40.8215 31.4848 40.352 29.2698 40.352 26.6592C40.352 26.0791 40.3654 25.644 40.3923 25.354C40.7946 19.6582 42.3639 14.6481 45.1001 10.3235L48.3191 9.41379C50.1969 10.4158 51.7125 11.8661 52.866 13.7647C54.0463 15.6633 54.6365 17.6146 54.6365 19.6187C54.6365 22.8093 53.3086 25.2221 50.6529 26.857C48.024 28.4655 44.3624 29.2961 39.668 29.3489H37.817V23.4158Z" fill="black"/>
<path d="M57.3741 23.4158H58.3398C60.9687 23.4158 63.061 23.3104 64.6169 23.0994C66.1996 22.8621 67.4201 22.4797 68.2785 21.9524C69.1638 21.425 69.821 20.6866 70.2502 19.7373C70.3038 18.8408 70.049 17.997 69.4857 17.2059C68.9492 16.3884 68.2115 15.9797 67.2726 15.9797C66.441 15.9797 65.7167 16.3093 65.0998 16.9686C64.4828 17.6278 64.134 18.3661 64.0536 19.1836C64.1072 19.8692 64.4559 20.5416 65.0998 21.2008C65.7436 21.8337 66.669 22.3611 67.8762 22.783C69.0833 23.2049 70.505 23.4158 72.1414 23.4158H76.809L77.1309 26.3824L76.809 29.3094H74.3947C71.6049 29.3094 69.0967 28.8743 66.8702 28.0041C64.6437 27.1339 62.9001 25.9605 61.6393 24.4838C60.3785 23.0071 59.7481 21.4118 59.7481 19.6978C59.7481 19.5132 59.7749 19.1836 59.8286 18.7089C60.07 17.1268 60.5663 15.6897 61.3174 14.3976C62.0953 13.0791 63.0342 12.0507 64.134 11.3124C65.2339 10.5477 66.4008 10.1653 67.6347 10.1653C69.0028 10.1653 70.21 10.6004 71.2561 11.4706C72.3023 12.3408 73.1071 13.4483 73.6704 14.7931C74.2337 16.1379 74.5154 17.5091 74.5154 18.9067C74.5154 19.2231 74.4886 19.645 74.4349 20.1724C73.9789 23.3104 72.423 25.6177 69.7673 27.0943C67.1116 28.571 63.3025 29.3094 58.3398 29.3094H57.3741V23.4158Z" fill="black"/>
<path d="M75.9506 23.4158H76.514C77.7747 23.4158 78.7941 23.1521 79.572 22.6248C80.35 22.071 80.9669 21.2272 81.423 20.0933C81.879 18.9331 82.2412 17.3773 82.5094 15.426L86.6941 16.2962C86.5332 17.3246 86.4527 18.2343 86.4527 19.0254C86.4527 20.9503 86.9758 22.3215 88.022 23.139C89.095 23.9564 90.9325 24.3651 93.5346 24.3651C95.8684 24.3651 97.9607 24.1146 99.8117 23.6136C101.689 23.0862 103.138 22.427 104.157 21.6359C105.177 20.8449 105.686 20.0538 105.686 19.2627C105.686 18.6298 105.378 18.1024 104.761 17.6805C104.171 17.2322 103.339 17.0081 102.266 17.0081C100.12 17.0081 97.9205 17.9178 95.6672 19.7373C93.4139 21.5568 91.3886 24.1014 89.5913 27.3712L86.3722 24.9584C88.4378 20.7657 90.8386 17.4696 93.5748 15.07C96.311 12.6704 99.0606 11.4706 101.824 11.4706C103.353 11.4706 104.721 11.8002 105.928 12.4594C107.162 13.0923 108.128 13.9889 108.825 15.1491C109.522 16.283 109.871 17.5751 109.871 19.0254C109.871 21.2668 109.187 23.2313 107.819 24.9189C106.451 26.6065 104.546 27.8986 102.105 28.7951C99.6642 29.6917 96.8877 30.14 93.776 30.14C88.8402 30.14 85.5407 28.5842 83.8775 25.4726C83.0727 26.7383 82.0802 27.7008 80.8999 28.3601C79.7196 28.9929 78.2576 29.3094 76.514 29.3094H75.9506V23.4158Z" fill="black"/>
<path d="M113.769 29.072C114.037 27.3316 114.171 24.642 114.171 21.003C114.171 17.3641 114.051 13.5538 113.809 9.57202C113.595 5.5639 113.34 2.7556 113.045 1.14708L118.075 0C118.316 1.52941 118.531 4.20589 118.718 8.02942C118.906 11.853 119 15.6106 119 19.3022C119 23.8641 118.839 27.2921 118.517 29.5862L113.769 29.072Z" fill="black"/>
</svg>
