<svg width="95" height="24" viewBox="0 0 95 24" fill="none" xmlns="http://www.w3.org/2000/svg">
<rect width="94.7254" height="23.1981" rx="11.599" fill="#ED0F10"/>
<path d="M61.9481 7.37783C62.2519 8.50183 62.738 9.31192 63.4063 9.8081C64.0847 10.2942 64.8594 10.5372 65.7302 10.5372C66.1859 10.5372 66.6466 10.4815 67.1124 10.3701C67.5782 10.2587 68.0086 10.1119 68.4035 9.92961L68.8744 11.9194C67.9732 12.3649 67.1023 12.5877 66.2618 12.5877C65.5429 12.5877 64.9049 12.4358 64.348 12.132C63.7911 11.8283 63.3506 11.4384 63.0265 10.9625C62.7126 10.4866 62.5354 9.99543 62.4949 9.48913C62.4544 8.86131 62.5759 8.2588 62.8595 7.68161C63.1531 7.10442 63.5632 6.63862 64.0898 6.2842C64.6265 5.92979 65.2087 5.75258 65.8366 5.75258C66.7479 5.75258 67.6846 6.14244 68.6466 6.92215L67.8871 8.47145C67.1884 8.17779 66.5707 8.03096 66.034 8.03096C65.4872 8.03096 65.0315 8.15248 64.667 8.3955C64.3126 8.6284 64.1354 8.93219 64.1354 9.30686C64.1354 9.62077 64.3075 9.89417 64.6518 10.1271C65.0062 10.36 65.4771 10.4764 66.0644 10.4764C66.753 10.4764 67.5327 10.2942 68.4035 9.92961L68.8744 11.9194C68.4288 12.1422 67.9327 12.3244 67.3858 12.4662C66.839 12.608 66.2872 12.6789 65.7302 12.6789C64.6062 12.6789 63.5784 12.3498 62.6468 11.6916C61.7253 11.0334 61.0216 9.94987 60.5355 8.44107L61.9481 7.37783ZM61.0216 16.7344C61.0317 16.461 61.0368 16.0559 61.0368 15.5192C61.0368 13.8889 60.9507 12.4156 60.7785 11.0992C60.5558 9.44862 60.176 8.00565 59.6394 6.77026L61.3254 5.75258C61.9532 7.02848 62.3835 8.71448 62.6164 10.8106C62.738 12.0257 62.7987 13.3776 62.7987 14.8661C62.7987 15.2813 62.7886 15.904 62.7683 16.7344H61.0216ZM69.3493 16.3546C69.9568 14.5522 70.9087 13.0535 72.2048 11.8586C73.5111 10.6536 74.9186 9.74228 76.4274 9.12458L76.8223 11.3574C75.6376 11.8029 74.4984 12.5219 73.4048 13.5143C72.3111 14.4965 71.4757 15.6964 70.8986 17.1141L69.3493 16.3546ZM75.3186 12.0105C74.5591 12.3953 73.8402 12.5877 73.1617 12.5877C72.544 12.5877 72.0023 12.4358 71.5365 12.132C71.0707 11.8181 70.7163 11.4182 70.4733 10.9321C70.2302 10.4359 70.1087 9.91442 70.1087 9.36761C70.1087 8.84105 70.2201 8.32462 70.4429 7.81831C70.6758 7.30188 71.0251 6.85633 71.4909 6.48166C71.9567 6.107 72.5238 5.86903 73.1921 5.76777C73.3541 5.74752 73.4807 5.73739 73.5719 5.73739C73.9971 5.73739 74.4326 5.82347 74.8781 5.99561C75.3237 6.16775 75.6781 6.36015 75.9414 6.5728L75.1971 8.1221C74.7921 7.94995 74.3668 7.86388 73.9212 7.86388C73.6984 7.86388 73.5263 7.87401 73.4048 7.89426C72.8985 7.95502 72.4934 8.13729 72.1896 8.44107C71.896 8.73473 71.7542 9.04358 71.7643 9.36761C71.7643 9.60051 71.901 9.81316 72.1744 10.0056C72.458 10.1878 72.8225 10.279 73.2681 10.279C73.8048 10.279 74.3668 10.1321 74.9541 9.83848L75.3186 12.0105ZM80.3619 16.2939C79.8859 16.2939 79.4454 16.1724 79.0404 15.9293C78.6354 15.6863 78.3113 15.3623 78.0683 14.9572C77.8253 14.5522 77.7038 14.1117 77.7038 13.6358C77.7038 13.1598 77.8253 12.7194 78.0683 12.3143C78.3113 11.8991 78.6354 11.5751 79.0404 11.3422C79.4454 11.0992 79.8859 10.9777 80.3619 10.9777C80.8479 10.9777 81.2935 11.0992 81.6985 11.3422C82.1137 11.5751 82.4428 11.8941 82.6858 12.2991C82.9288 12.7042 83.0503 13.1497 83.0503 13.6358C83.0503 14.1117 82.9288 14.5522 82.6858 14.9572C82.4428 15.3623 82.1137 15.6863 81.6985 15.9293C81.2935 16.1724 80.8479 16.2939 80.3619 16.2939ZM80.3619 14.6383C80.6353 14.6383 80.8631 14.5421 81.0454 14.3497C81.2378 14.1573 81.334 13.9193 81.334 13.6358C81.334 13.3522 81.2378 13.1193 81.0454 12.9371C80.8631 12.7447 80.6353 12.6485 80.3619 12.6485C80.0986 12.6485 79.8707 12.7447 79.6783 12.9371C79.4961 13.1295 79.4049 13.3624 79.4049 13.6358C79.4049 13.9193 79.4961 14.1573 79.6783 14.3497C79.8707 14.5421 80.0986 14.6383 80.3619 14.6383ZM87.0794 16.2939C86.6034 16.2939 86.163 16.1724 85.7579 15.9293C85.3529 15.6863 85.0288 15.3623 84.7858 14.9572C84.5428 14.5522 84.4213 14.1117 84.4213 13.6358C84.4213 13.1598 84.5428 12.7194 84.7858 12.3143C85.0288 11.8991 85.3529 11.5751 85.7579 11.3422C86.163 11.0992 86.6034 10.9777 87.0794 10.9777C87.5654 10.9777 88.011 11.0992 88.416 11.3422C88.8312 11.5751 89.1603 11.8941 89.4033 12.2991C89.6463 12.7042 89.7679 13.1497 89.7679 13.6358C89.7679 14.1117 89.6463 14.5522 89.4033 14.9572C89.1603 15.3623 88.8312 15.6863 88.416 15.9293C88.011 16.1724 87.5654 16.2939 87.0794 16.2939ZM87.0794 14.6383C87.3528 14.6383 87.5806 14.5421 87.7629 14.3497C87.9553 14.1573 88.0515 13.9193 88.0515 13.6358C88.0515 13.3522 87.9553 13.1193 87.7629 12.9371C87.5806 12.7447 87.3528 12.6485 87.0794 12.6485C86.8161 12.6485 86.5882 12.7447 86.3959 12.9371C86.2136 13.1295 86.1224 13.3624 86.1224 13.6358C86.1224 13.9193 86.2136 14.1573 86.3959 14.3497C86.5882 14.5421 86.8161 14.6383 87.0794 14.6383Z" fill="white"/>
<path d="M9.06186 11.1144C7.92773 12.0662 7.3556 12.8611 7.34548 13.4991C7.32522 13.8434 7.44167 14.1117 7.69483 14.3041C7.94798 14.4965 8.32771 14.5927 8.83402 14.5927C9.23906 14.5927 9.57323 14.5168 9.8365 14.3649C10.1099 14.213 10.2719 14.0155 10.3226 13.7725C10.2213 13.2763 9.87701 12.7548 9.28969 12.208C8.7125 11.6511 7.85178 11.0182 6.70753 10.3093L7.86191 8.59296C9.19856 9.40305 10.2061 10.2233 10.8846 11.0536C11.563 11.8738 11.9022 12.7447 11.9022 13.6662C11.9022 14.2839 11.7605 14.8307 11.4769 15.3066C11.2035 15.7724 10.8238 16.1369 10.3377 16.4002C9.86182 16.6635 9.32514 16.7951 8.72769 16.7951C7.78596 16.7951 7.05182 16.547 6.52526 16.0509C6.00883 15.5446 5.75061 14.8914 5.75061 14.0915C5.75061 13.7674 5.79618 13.4333 5.88731 13.089C6.0392 12.4611 6.29742 11.884 6.66196 11.3574C7.03663 10.8207 7.50243 10.284 8.05937 9.74734L9.06186 11.1144ZM10.4655 19.2558C11.1338 18.9824 11.7465 18.6634 12.3034 18.2989C12.8603 17.9444 13.2958 17.59 13.6097 17.2356C13.9337 16.8812 14.0957 16.5774 14.0957 16.3243C14.0957 15.9091 13.8274 14.78 13.2907 12.9371L13.2148 12.6333L14.916 11.965C15.159 12.6637 15.3514 13.413 15.4931 14.213C15.6349 15.0028 15.7058 15.7066 15.7058 16.3243C15.7058 17.3166 15.3159 18.233 14.5362 19.0735C13.7565 19.9241 12.7085 20.6228 11.3921 21.1696L10.4655 19.2558ZM16.7608 16.6432C16.8621 15.9749 16.9127 14.942 16.9127 13.5446C16.9127 12.1472 16.8671 10.684 16.776 9.15496C16.695 7.61579 16.5988 6.53736 16.4874 5.91966L18.3861 5.47918C18.4772 6.06649 18.5582 7.0943 18.6291 8.56258C18.7 10.0309 18.7354 11.4738 18.7354 12.8915C18.7354 14.6433 18.6746 15.9597 18.5531 16.8407L16.7608 16.6432ZM20.1903 14.0003C20.5549 14.1826 20.9295 14.3395 21.3143 14.4712C21.6991 14.6028 22.17 14.6686 22.7269 14.6686C23.2737 14.6585 23.7193 14.5978 24.0636 14.4864C24.418 14.3649 24.6509 14.2332 24.7623 14.0915C24.7724 14.0712 24.7775 14.0307 24.7775 13.9699C24.7775 13.7573 24.6813 13.4788 24.4889 13.1345C24.3066 12.7801 23.9775 12.3649 23.5016 11.889C23.0358 11.403 22.4079 10.8916 21.6181 10.3549L22.7117 8.36513C23.8864 9.19547 24.8129 10.1018 25.4914 11.084C26.1799 12.0662 26.5242 13.0029 26.5242 13.894C26.5242 14.3193 26.4432 14.7091 26.2812 15.0636C26.0382 15.6306 25.6078 16.0661 24.9901 16.3698C24.3724 16.6635 23.6889 16.8103 22.9396 16.8103C22.0586 16.8103 21.3245 16.6787 20.7371 16.4154C20.1498 16.142 19.6941 15.8686 19.3701 15.5952L20.1903 14.0003ZM35.2483 8.44107C35.4812 10.6081 35.6432 12.0358 35.7344 12.7244C35.7951 13.2307 35.866 13.6054 35.947 13.8484C36.0382 14.0915 36.1647 14.2585 36.3268 14.3497C36.4989 14.4307 36.747 14.4712 37.071 14.4712H37.3292L37.4508 15.6104L37.3292 16.7344H37.071C36.1698 16.7344 35.4762 16.4508 34.9901 15.8838C34.5142 15.3066 34.1952 14.3547 34.0332 13.0282L33.9269 12.2232L33.4864 8.8208L35.2483 8.44107ZM35.0205 15.6863C34.3724 15.899 33.7395 16.0053 33.1218 16.0053C32.2105 16.0053 31.4612 15.7876 30.8738 15.3522C30.2966 14.9066 30.0081 14.3041 30.0081 13.5446C30.0081 12.613 30.3726 11.8283 31.1017 11.1903C31.8409 10.5524 32.8181 10.0106 34.0332 9.56507L34.4585 11.5397C33.78 11.7017 33.1522 11.9397 32.575 12.2536C32.008 12.5573 31.7092 12.8459 31.6789 13.1193C31.6586 13.3421 31.77 13.5295 32.013 13.6813C32.2561 13.8231 32.5902 13.894 33.0155 13.894C33.5117 13.894 34.0332 13.7826 34.58 13.5598L35.0205 15.6863ZM44.503 14.5168L45.9004 14.5016C46.5688 14.4813 47.0497 14.4712 47.3434 14.4712L47.4649 15.6104L47.3434 16.7344C46.0776 16.7344 45.0853 16.6939 44.3663 16.6129C43.6575 16.5217 43.1259 16.3445 42.7715 16.0812L44.0322 14.5168H44.503ZM36.6198 14.4712C38.0071 14.4712 39.2273 14.4864 40.2804 14.5168C41.2019 14.537 42.0272 14.456 42.7563 14.2737C43.4853 14.0813 44.0575 13.8332 44.4726 13.5295C44.8878 13.2257 45.1106 12.9168 45.141 12.6029C45.1612 12.3498 45.06 12.1371 44.8372 11.965C44.6144 11.7827 44.3005 11.6916 43.8955 11.6916C43.0854 11.6916 42.2398 12.0561 41.3589 12.7852C40.488 13.5041 39.6982 14.5016 38.9893 15.7775L37.7894 14.8509C38.5894 13.2004 39.5108 11.9093 40.5538 10.9777C41.6069 10.0359 42.6499 9.56507 43.6828 9.56507C44.26 9.56507 44.7815 9.69165 45.2473 9.9448C45.7131 10.1878 46.0776 10.5321 46.3409 10.9777C46.6042 11.4232 46.7358 11.9245 46.7358 12.4814C46.7358 13.3421 46.4726 14.0965 45.946 14.7446C45.4296 15.3825 44.7106 15.8737 43.7891 16.2179C42.8677 16.5622 41.8247 16.7344 40.6602 16.7344H36.6198V14.4712ZM38.7615 13.3624C38.7919 13.008 38.8071 12.6029 38.8071 12.1472C38.8071 11.165 38.7514 10.0309 38.64 8.74486C38.5286 7.45884 38.4223 6.51711 38.321 5.91966L40.2197 5.49437C40.3108 6.04118 40.3918 6.79557 40.4627 7.75756C40.5336 8.71954 40.569 9.70684 40.569 10.7195C40.569 11.3979 40.5437 12.132 40.4931 12.9219L38.7615 13.3624ZM46.719 14.4712H47.0835C48.0759 14.4712 48.8657 14.4307 49.453 14.3497C50.0504 14.2585 50.5112 14.1117 50.8352 13.9092C51.1694 13.7067 51.4175 13.4231 51.5795 13.0586C51.5997 12.7143 51.5035 12.3903 51.2909 12.0865C51.0884 11.7726 50.8099 11.6156 50.4555 11.6156C50.1416 11.6156 49.8682 11.7422 49.6353 11.9953C49.4024 12.2485 49.2707 12.532 49.2404 12.8459C49.2606 13.1092 49.3922 13.3674 49.6353 13.6206C49.8783 13.8636 50.2277 14.0661 50.6833 14.2282C51.139 14.3902 51.6757 14.4712 52.2934 14.4712H54.0553L54.1768 15.6104L54.0553 16.7344H53.144C52.0909 16.7344 51.1441 16.5673 50.3036 16.2331C49.4631 15.899 48.8049 15.4484 48.329 14.8813C47.8531 14.3142 47.6151 13.7016 47.6151 13.0434C47.6151 12.9725 47.6252 12.8459 47.6455 12.6637C47.7366 12.0561 47.924 11.5042 48.2075 11.008C48.5011 10.5017 48.8556 10.1068 49.2707 9.82329C49.6859 9.52963 50.1264 9.3828 50.5922 9.3828C51.1086 9.3828 51.5643 9.54988 51.9592 9.88405C52.3541 10.2182 52.6579 10.6435 52.8706 11.1599C53.0832 11.6764 53.1895 12.2029 53.1895 12.7396C53.1895 12.8611 53.1794 13.0231 53.1592 13.2257C52.987 14.4307 52.3997 15.3167 51.3972 15.8838C50.3947 16.4508 48.9568 16.7344 47.0835 16.7344H46.719V14.4712ZM49.21 6.04118L50.4707 7.31707C50.1973 7.6006 49.9188 7.87907 49.6353 8.15248L49.21 8.57777L48.5872 7.93983L47.9493 7.31707L49.21 6.04118ZM51.8681 6.04118L53.1288 7.31707C52.8554 7.6006 52.5769 7.87907 52.2934 8.15248L51.8681 8.57777L51.2453 7.93983L50.6074 7.31707L51.8681 6.04118ZM53.3181 14.4712H54.1232C54.8523 14.4712 55.3738 14.3902 55.6877 14.2282C56.0117 14.0661 56.1737 13.8231 56.1737 13.4991C56.1737 13.2864 56.0674 12.8713 55.8547 12.2536C55.6421 11.6257 55.475 11.165 55.3535 10.8713L56.9484 9.99037C57.1408 10.4157 57.3382 10.9878 57.5407 11.7067C57.7534 12.4156 57.8597 13.0383 57.8597 13.575C57.8597 14.6079 57.5357 15.3927 56.8876 15.9293C56.2497 16.466 55.3282 16.7344 54.1232 16.7344H53.3181V14.4712ZM54.2143 7.97021L55.6269 6.5728L57.0243 7.97021L56.5534 8.44107C56.2497 8.75498 55.9408 9.06383 55.6269 9.36761L54.2143 7.97021Z" fill="white"/>
</svg>
