<svg width="71" height="53" viewBox="0 0 71 53" fill="none" xmlns="http://www.w3.org/2000/svg">
<path d="M30.0749 48.451C25.9055 50.8391 21.1843 52.0331 15.9112 52.0331C12.9681 52.0331 10.2856 51.5126 7.86363 50.4717C5.44169 49.4307 3.5256 47.9152 2.11536 45.9251C0.705118 43.9656 0 41.654 0 38.9904C0 38.3781 0.0153249 37.9188 0.0459824 37.6126C0.352557 34.2142 1.70149 31.275 4.09277 28.795C6.48405 26.2845 9.74906 24.3097 13.8878 22.8707C18.0572 21.4011 22.9164 20.5438 28.4654 20.2989L27.1318 25.2129C25.2617 24.4781 23.131 23.2534 20.7397 21.5389C18.5631 20.008 16.7849 18.9211 15.4054 18.2782C14.0564 17.6046 12.7535 17.2678 11.4965 17.2678C10.3316 17.2678 9.2892 17.5893 8.36948 18.2323C7.48041 18.8752 6.79062 19.5947 6.3001 20.3907L2.43726 17.5893C4.79789 12.9968 7.86363 10.7005 11.6345 10.7005C13.382 10.7005 15.0835 11.1139 16.739 11.9405C18.4251 12.7366 20.6631 14.1449 23.4529 16.1656C24.9551 17.2372 26.1201 18.0332 26.9479 18.5537C27.7756 19.0436 28.6647 19.4569 29.6151 19.7937L28.8333 26.361C24.204 26.361 20.1266 26.9121 16.601 28.0143C13.1061 29.1165 10.3622 30.5708 8.36948 32.3772C6.4074 34.1836 5.28841 36.0818 5.01249 38.0719C4.88986 39.419 5.33439 40.6284 6.34608 41.7C7.38844 42.8022 8.84467 43.6594 10.7148 44.2718C12.5849 44.9147 14.6849 45.2362 17.0149 45.2362C19.1609 45.2362 21.1843 45.0066 23.085 44.5473C24.9858 44.0881 26.488 43.6441 27.5917 43.2155L30.0749 48.451Z" fill="black"/>
<path d="M49.5086 34.2142C47.4239 34.2142 45.7377 33.4488 44.4501 31.9179C43.1625 30.3871 42.0895 28.2439 41.2311 25.4884L45.3699 22.9625C45.7991 24.5852 46.3202 25.7334 46.9334 26.4069C47.5465 27.0499 48.4049 27.3713 49.5086 27.3713H49.9225L50.2904 30.8157L49.9225 34.2142H49.5086ZM30.9762 41.8377C32.9996 41.0111 34.8543 40.0467 36.5405 38.9445C38.2267 37.8729 39.5449 36.8013 40.4953 35.7297C41.4763 34.6581 41.9669 33.7396 41.9669 32.9742C41.9669 31.7189 41.1544 28.3052 39.5296 22.7329L39.2997 21.8144L44.4501 19.7937C45.1859 21.9063 45.7684 24.1719 46.1976 26.5906C46.6268 28.9787 46.8414 31.1066 46.8414 32.9742C46.8414 35.9746 45.6611 38.7455 43.3005 41.2866C40.9398 43.8585 37.7668 45.971 33.7813 47.6243L30.9762 41.8377Z" fill="black"/>
<path d="M70.5758 5.46508L57.2858 11.1139C58.2975 11.9711 59.4472 13.1499 60.7348 14.6501C62.0531 16.1197 63.2181 17.7883 64.2298 19.6559C65.2721 21.5236 65.7933 23.3299 65.7933 25.0751C65.7933 25.5956 65.7166 26.1926 65.5633 26.8662C64.9502 29.3461 63.3254 31.1984 60.6888 32.4231C58.0523 33.6172 54.7413 34.2142 50.7558 34.2142H49.1923V27.3713H50.7558C53.3617 27.3713 55.523 27.1723 57.2399 26.7743C58.9567 26.3457 60.091 25.7793 60.6428 25.0751C60.3976 23.6055 59.4932 21.8603 57.9296 19.8396C56.3661 17.8189 54.0668 15.5839 51.0317 13.1346L51.6755 7.16431L68.7364 0L70.5758 5.46508Z" fill="black"/>
</svg>
