<svg width="320" height="286" viewBox="0 0 320 286" fill="none" xmlns="http://www.w3.org/2000/svg">
<g style="mix-blend-mode:multiply">
<path d="M301.025 187.973H26.0776C26.0776 187.973 15.9425 237.703 45.3565 284.986C45.3565 284.986 80.6718 285.957 112.207 281.581C112.207 281.581 93.0582 239.148 93.6593 188.134C93.6882 192.224 87.2176 237.998 119.088 278.908C119.088 278.908 154.77 279.842 178.618 278.356C160.995 244.89 161.507 208.24 161.507 208.24C161.776 232.718 172.243 260.433 187.502 279.957C200.157 279.85 229.369 279.388 243.651 277.677C243.651 277.677 224.771 229.299 227.04 187.973C228.823 244.047 250.214 280.674 250.214 280.674C285.544 284.24 319.998 279.636 319.998 279.636C294.959 225.343 301.023 187.973 301.023 187.973H301.025Z" fill="#C4BEBE"/>
</g>
<path d="M299.823 176.316V1.28516H24.8749V176.316C24.8749 176.316 26.8199 217.156 1.78125 271.45C1.78125 271.45 40.3536 272.586 75.6833 269.02C75.6833 269.02 97.0748 232.392 98.8579 176.318C101.127 217.645 82.2464 266.023 82.2464 266.023C99.5053 268.089 151.288 268.332 151.288 268.332C151.762 267.312 152.218 266.266 152.66 265.193C176.719 266.719 199.787 266.508 199.787 266.508C231.657 225.598 232.212 180.57 232.241 176.48C232.842 227.497 205.258 268.332 205.258 268.332C235.281 269.791 272.961 267.482 272.961 267.482C302.375 220.2 299.823 176.318 299.823 176.318V176.316Z" fill="white"/>
<path d="M301.284 176.276V0H23.7873V176.368C23.8075 176.773 25.4345 217.516 0.809185 270.908L0 272.662L1.93049 272.72C2.07788 272.725 7.82312 272.887 16.8254 272.887C31.359 272.887 54.3804 272.465 76.0002 270.283L76.6475 270.22L76.9741 269.659C77.0926 269.457 83.5025 258.302 89.5917 239.153C85.4619 254.631 81.3351 265.327 81.2455 265.553L80.6472 267.087L82.283 267.284C99.4175 269.336 150.951 269.599 151.472 269.601H152.289L152.633 268.864C152.983 268.113 153.333 267.327 153.677 266.518C177.183 267.969 199.76 267.781 199.985 267.781L200.601 267.775L200.979 267.289C209.542 256.296 215.871 245.037 220.544 234.335C213.135 254.467 204.54 267.388 204.387 267.613L203.118 269.492L205.381 269.601C235.133 271.049 272.847 268.772 273.226 268.749L273.882 268.708L274.228 268.148C303.122 221.703 301.362 177.883 301.284 176.279V176.276ZM272.408 266.235C267.391 266.521 234.749 268.284 207.696 267.145C213.022 258.484 234.226 221.131 233.7 176.455L231.148 176.461C231.093 184.504 229.304 226.434 199.341 265.226C199.136 265.226 198.884 265.226 198.581 265.229C198.569 265.229 198.555 265.229 198.543 265.229C198.436 265.229 198.326 265.229 198.208 265.229C198.193 265.229 198.179 265.229 198.162 265.229C198.037 265.229 197.907 265.229 197.772 265.229C197.731 265.229 197.688 265.229 197.647 265.229C197.54 265.229 197.431 265.229 197.318 265.229C197.28 265.229 197.246 265.229 197.208 265.229C188.038 265.229 157.711 265.006 133.406 262.223C140.073 253.935 166.363 218.588 166.684 176.316L164.132 176.296C163.777 223.498 130.311 261.986 129.973 262.371L128.372 264.186L130.774 264.48C137.186 265.272 144.088 265.873 150.966 266.333C150.862 266.57 150.761 266.807 150.657 267.038C144.169 266.998 101.284 266.657 84.2019 264.92C87.3751 256.276 102.348 213.224 100.319 176.235L97.7703 176.264C96.1374 227.631 77.7226 262.983 75.0812 267.804C44.8753 270.798 12.1118 270.373 3.93324 270.208C27.9748 217.12 26.3564 176.655 26.3391 176.305V2.55183H298.732V176.383C298.758 176.816 300.914 220.044 272.411 266.235H272.408Z" fill="#C4BEBE"/>
<path d="M222.509 126.141C219.735 126.141 217.16 124.364 216.275 121.578C215.186 118.133 217.09 114.457 220.535 113.365C251.426 103.565 251.88 96.0105 252.125 91.953C252.504 85.6211 247.568 77.3501 245.635 74.7C243.508 71.7869 244.138 67.6976 247.048 65.5648C249.949 63.4349 254.036 64.0476 256.177 66.9578C257.174 68.3132 265.916 80.5637 265.182 92.742C264.292 107.55 252.88 116.83 224.489 125.835C223.833 126.043 223.165 126.141 222.509 126.141Z" fill="#D10F0F"/>
<path d="M133.786 149.234C131.855 149.234 129.948 148.385 128.656 146.755C126.413 143.925 126.89 139.81 129.722 137.568C143.129 126.956 152.073 117.427 158.012 109.231C154.718 107.651 151.299 105.119 149.458 101.108C147.75 97.3798 146.9 91.1692 152.556 82.7537C160.648 70.7257 168.847 67.9398 171.994 67.3011C176.236 66.4312 180.328 68.931 181.533 73.081C182.369 75.9392 184.238 85.3575 178.49 99.4634C186.331 99.2669 192.616 97.2093 197.318 93.3078C206.381 85.7939 206.982 73.4596 206.988 73.3353C207.133 69.7402 210.026 66.9254 213.754 67.0468C217.346 67.1739 220.166 70.165 220.06 73.7601C220.036 74.4942 219.363 91.8946 205.815 103.249C197.261 110.422 185.808 113.465 171.702 112.335C165.032 122.69 154.449 134.669 137.837 147.818C136.635 148.769 135.202 149.231 133.78 149.231L133.786 149.234ZM169.303 83.1958C167.581 84.6755 165.561 86.8516 163.413 90.0508C161.237 93.2847 161.09 95.0938 161.347 95.6545C161.743 96.5157 163.24 97.3509 164.864 97.9433C167.867 91.7501 168.979 86.7736 169.306 83.1958H169.303Z" fill="#D10F0F"/>
<path d="M128.867 114.1C128.546 114.1 128.222 114.077 127.896 114.028C124.324 113.496 121.859 110.167 122.393 106.595C126.734 77.4817 128.332 31.2164 128.349 30.7511C128.471 27.1415 131.343 24.3094 135.106 24.4336C138.713 24.555 141.542 27.5808 141.418 31.1903C141.354 33.1151 139.782 78.6637 135.326 108.523C134.843 111.768 132.051 114.1 128.864 114.1H128.867Z" fill="#D10F0F"/>
<path d="M66.5996 149.229C64.5766 149.229 62.5854 148.295 61.3052 146.535C59.1811 143.613 59.8284 139.524 62.7502 137.4C98.8602 111.148 100.487 77.6991 100.539 76.2859C100.675 72.6879 103.695 69.7922 107.29 69.9771C110.891 70.0956 113.717 73.0867 113.616 76.6876C113.57 78.3522 111.969 117.789 70.4432 147.98C69.2815 148.827 67.9377 149.231 66.6025 149.231L66.5996 149.229Z" fill="#D10F0F"/>
<path d="M177.424 135.562C173.924 135.562 171.026 132.793 170.896 129.271C170.757 125.661 173.575 122.627 177.181 122.488C177.282 122.482 187.591 122.054 202.145 118.901C205.67 118.144 209.156 120.375 209.919 123.907C210.685 127.435 208.442 130.918 204.913 131.684C189.149 135.103 178.129 135.539 177.67 135.559C177.586 135.559 177.505 135.562 177.424 135.562Z" fill="#D10F0F"/>
<path d="M258.2 175.848H252.558C252.044 175.848 251.625 176.267 251.625 176.781C251.625 177.296 252.044 177.715 252.558 177.715H258.2C258.714 177.715 259.133 177.296 259.133 176.781C259.133 176.267 258.714 175.848 258.2 175.848Z" fill="#C4BEBE"/>
<path d="M247.145 175.848H241.504C240.989 175.848 240.57 176.267 240.57 176.781C240.57 177.296 240.989 177.715 241.504 177.715H247.145C247.659 177.715 248.078 177.296 248.078 176.781C248.078 176.267 247.659 175.848 247.145 175.848Z" fill="#C4BEBE"/>
<path d="M280.742 175.848H275.098C274.58 175.848 274.164 176.267 274.164 176.781C274.164 177.296 274.58 177.715 275.098 177.715H280.742C281.259 177.715 281.675 177.296 281.675 176.781C281.675 176.267 281.259 175.848 280.742 175.848Z" fill="#C4BEBE"/>
<path d="M269.757 175.848H264.113C263.596 175.848 263.18 176.267 263.18 176.781C263.18 177.296 263.596 177.715 264.113 177.715H269.757C270.275 177.715 270.691 177.296 270.691 176.781C270.691 176.267 270.275 175.848 269.757 175.848Z" fill="#C4BEBE"/>
<path d="M292.226 175.848H286.582C286.065 175.848 285.648 176.267 285.648 176.781C285.648 177.296 286.065 177.715 286.582 177.715H292.226C292.743 177.715 293.159 177.296 293.159 176.781C293.159 176.267 292.743 175.848 292.226 175.848Z" fill="#C4BEBE"/>
<path d="M191.731 175.848H186.09C185.575 175.848 185.156 176.267 185.156 176.781C185.156 177.296 185.575 177.715 186.09 177.715H191.731C192.245 177.715 192.664 177.296 192.664 176.781C192.664 176.267 192.245 175.848 191.731 175.848Z" fill="#C4BEBE"/>
<path d="M180.457 175.848H174.816C174.302 175.848 173.883 176.267 173.883 176.781C173.883 177.296 174.302 177.715 174.816 177.715H180.457C180.972 177.715 181.391 177.296 181.391 176.781C181.391 176.267 180.972 175.848 180.457 175.848Z" fill="#C4BEBE"/>
<path d="M202.999 175.848H197.355C196.838 175.848 196.422 176.267 196.422 176.781C196.422 177.296 196.838 177.715 197.355 177.715H202.999C203.517 177.715 203.933 177.296 203.933 176.781C203.933 176.267 203.517 175.848 202.999 175.848Z" fill="#C4BEBE"/>
<path d="M214.343 175.848H208.699C208.182 175.848 207.766 176.267 207.766 176.781C207.766 177.296 208.182 177.715 208.699 177.715H214.343C214.86 177.715 215.277 177.296 215.277 176.781C215.277 176.267 214.86 175.848 214.343 175.848Z" fill="#C4BEBE"/>
<path d="M225.609 175.848H219.965C219.447 175.848 219.031 176.267 219.031 176.781C219.031 177.296 219.447 177.715 219.965 177.715H225.609C226.126 177.715 226.542 177.296 226.542 176.781C226.542 176.267 226.126 175.848 225.609 175.848Z" fill="#C4BEBE"/>
<path d="M124.832 175.848H119.191C118.677 175.848 118.258 176.267 118.258 176.781C118.258 177.296 118.677 177.715 119.191 177.715H124.832C125.347 177.715 125.766 177.296 125.766 176.781C125.766 176.267 125.347 175.848 124.832 175.848Z" fill="#C4BEBE"/>
<path d="M113.559 175.848H107.918C107.403 175.848 106.984 176.267 106.984 176.781C106.984 177.296 107.403 177.715 107.918 177.715H113.559C114.073 177.715 114.492 177.296 114.492 176.781C114.492 176.267 114.073 175.848 113.559 175.848Z" fill="#C4BEBE"/>
<path d="M136.031 175.848H130.387C129.869 175.848 129.453 176.267 129.453 176.781C129.453 177.296 129.869 177.715 130.387 177.715H136.031C136.548 177.715 136.964 177.296 136.964 176.781C136.964 176.267 136.548 175.848 136.031 175.848Z" fill="#C4BEBE"/>
<path d="M147.445 175.848H141.801C141.283 175.848 140.867 176.267 140.867 176.781C140.867 177.296 141.283 177.715 141.801 177.715H147.445C147.962 177.715 148.378 177.296 148.378 176.781C148.378 176.267 147.962 175.848 147.445 175.848Z" fill="#C4BEBE"/>
<path d="M158.851 175.848H153.207C152.69 175.848 152.273 176.267 152.273 176.781C152.273 177.296 152.69 177.715 153.207 177.715H158.851C159.368 177.715 159.784 177.296 159.784 176.781C159.784 176.267 159.368 175.848 158.851 175.848Z" fill="#C4BEBE"/>
<path d="M52.1528 175.848H46.5116C45.9972 175.848 45.5781 176.267 45.5781 176.781C45.5781 177.296 45.9972 177.715 46.5116 177.715H52.1528C52.6672 177.715 53.0862 177.296 53.0862 176.781C53.0862 176.267 52.6672 175.848 52.1528 175.848Z" fill="#C4BEBE"/>
<path d="M63.351 175.848H57.7069C57.1896 175.848 56.7734 176.267 56.7734 176.781C56.7734 177.296 57.1896 177.715 57.7069 177.715H63.351C63.8683 177.715 64.2844 177.296 64.2844 176.781C64.2844 176.267 63.8683 175.848 63.351 175.848Z" fill="#C4BEBE"/>
<path d="M40.8793 175.848H35.2381C34.7237 175.848 34.3047 176.267 34.3047 176.781C34.3047 177.296 34.7237 177.715 35.2381 177.715H40.8793C41.3938 177.715 41.8128 177.296 41.8128 176.781C41.8128 176.267 41.3938 175.848 40.8793 175.848Z" fill="#C4BEBE"/>
<path d="M74.765 175.848H69.121C68.6037 175.848 68.1875 176.267 68.1875 176.781C68.1875 177.296 68.6037 177.715 69.121 177.715H74.765C75.2824 177.715 75.6985 177.296 75.6985 176.781C75.6985 176.267 75.2824 175.848 74.765 175.848Z" fill="#C4BEBE"/>
<path d="M86.0307 175.848H80.3866C79.8693 175.848 79.4531 176.267 79.4531 176.781C79.4531 177.296 79.8693 177.715 80.3866 177.715H86.0307C86.548 177.715 86.9641 177.296 86.9641 176.781C86.9641 176.267 86.548 175.848 86.0307 175.848Z" fill="#C4BEBE"/>
</svg>
