<svg width="95" height="24" viewBox="0 0 95 24" fill="none" xmlns="http://www.w3.org/2000/svg">
<rect width="94.7254" height="23.1981" rx="11.599" fill="#ED0F10"/>
<path d="M65.9951 5.39053C66.0762 6.19049 66.1926 6.76768 66.3445 7.1221C66.4964 7.47651 66.7141 7.65372 66.9976 7.65372C67.1799 7.65372 67.3217 7.55752 67.4229 7.36513C67.5343 7.17273 67.59 6.89426 67.59 6.52972C67.59 6.16518 67.5293 5.72469 67.4077 5.20826L68.957 4.69183C69.1393 5.36015 69.2304 6.00316 69.2304 6.62085C69.2304 7.56258 69.0279 8.33723 68.6229 8.9448C68.228 9.54224 67.6913 9.84097 67.0128 9.84097C66.2837 9.84097 65.7015 9.44098 65.2661 8.64102C64.8408 7.83093 64.5775 6.8335 64.4762 5.64875L65.9951 5.39053ZM61.7726 5.83102C62.046 6.53985 62.289 7.04109 62.5016 7.33475C62.7244 7.61828 63.0282 7.76004 63.413 7.76004C63.7269 7.76004 63.9851 7.61828 64.1876 7.33475C64.3902 7.05121 64.4914 6.63098 64.4914 6.07404C64.4914 5.89177 64.4864 5.75001 64.4762 5.64875L65.904 5.5728C65.9141 5.69431 65.9192 5.87658 65.9192 6.11961C65.9192 6.82844 65.823 7.48158 65.6306 8.07902C65.4382 8.66633 65.1648 9.1372 64.8104 9.49161C64.456 9.8359 64.0408 10.008 63.5649 10.008C62.8155 10.008 62.1877 9.7397 61.6814 9.20302C61.1852 8.65621 60.7447 7.83599 60.36 6.74237L61.7726 5.83102ZM61.0131 15.7344C61.0232 15.6534 61.0283 15.5369 61.0283 15.385L61.0435 14.5192C61.0435 12.8484 60.9523 11.3751 60.7701 10.0992C60.5473 8.44862 60.1676 7.00565 59.6309 5.77026L61.3169 4.75258C61.9447 6.02848 62.3751 7.71448 62.608 9.81059C62.7295 10.8941 62.7902 12.2459 62.7902 13.8661C62.7902 14.6964 62.7801 15.3192 62.7598 15.7344H61.0131ZM74.8763 16.2052C74.6231 15.6179 74.4054 14.6964 74.2231 13.4408C74.051 12.1852 73.9346 10.9295 73.8738 9.67388C73.8535 8.97518 73.732 8.32711 73.5093 7.72967C73.2865 7.13222 72.9422 6.8335 72.4764 6.8335C72.1625 6.8335 71.8941 6.9854 71.6714 7.28918C71.4587 7.58284 71.3524 7.92206 71.3524 8.30686C71.3524 8.57014 71.4537 8.78278 71.6562 8.9448C71.8587 9.10682 72.1777 9.18783 72.6131 9.18783C73.1397 9.18783 73.5295 9.13214 73.7827 9.02075C74.0459 8.89923 74.2586 8.77266 74.4206 8.64102L75.0737 10.7371C74.4257 11.2029 73.5801 11.4358 72.5371 11.4358C71.6663 11.4358 70.9828 11.1776 70.4866 10.6612C69.9904 10.1346 69.7423 9.40048 69.7423 8.45875C69.7423 7.89168 69.8638 7.31956 70.1069 6.74237C70.36 6.16518 70.6993 5.68925 71.1246 5.31458C71.56 4.92979 72.0359 4.73739 72.5523 4.73739C73.3017 4.73739 73.8789 5.0108 74.2839 5.55761C74.6991 6.0943 74.9725 6.66136 75.1041 7.2588C75.2358 7.84612 75.3674 8.60051 75.499 9.52199L75.575 10.0992C75.7471 11.3548 75.9041 12.3978 76.0459 13.2282C76.1876 14.0585 76.3547 14.7066 76.5471 15.1724L74.8763 16.2052ZM80.3248 15.2939C79.8489 15.2939 79.4084 15.1724 79.0033 14.9293C78.5983 14.6863 78.2742 14.3623 78.0312 13.9572C77.7882 13.5522 77.6667 13.1117 77.6667 12.6358C77.6667 12.1598 77.7882 11.7194 78.0312 11.3143C78.2742 10.8991 78.5983 10.5751 79.0033 10.3422C79.4084 10.0992 79.8489 9.97767 80.3248 9.97767C80.8108 9.97767 81.2564 10.0992 81.6614 10.3422C82.0766 10.5751 82.4057 10.8941 82.6487 11.2991C82.8918 11.7042 83.0133 12.1497 83.0133 12.6358C83.0133 13.1117 82.8918 13.5522 82.6487 13.9572C82.4057 14.3623 82.0766 14.6863 81.6614 14.9293C81.2564 15.1724 80.8108 15.2939 80.3248 15.2939ZM80.3248 13.6383C80.5982 13.6383 80.826 13.5421 81.0083 13.3497C81.2007 13.1573 81.2969 12.9193 81.2969 12.6358C81.2969 12.3522 81.2007 12.1193 81.0083 11.9371C80.826 11.7447 80.5982 11.6485 80.3248 11.6485C80.0615 11.6485 79.8337 11.7447 79.6413 11.9371C79.459 12.1295 79.3679 12.3624 79.3679 12.6358C79.3679 12.9193 79.459 13.1573 79.6413 13.3497C79.8337 13.5421 80.0615 13.6383 80.3248 13.6383ZM87.0423 15.2939C86.5664 15.2939 86.1259 15.1724 85.7208 14.9293C85.3158 14.6863 84.9917 14.3623 84.7487 13.9572C84.5057 13.5522 84.3842 13.1117 84.3842 12.6358C84.3842 12.1598 84.5057 11.7194 84.7487 11.3143C84.9917 10.8991 85.3158 10.5751 85.7208 10.3422C86.1259 10.0992 86.5664 9.97767 87.0423 9.97767C87.5283 9.97767 87.9739 10.0992 88.3789 10.3422C88.7941 10.5751 89.1232 10.8941 89.3662 11.2991C89.6093 11.7042 89.7308 12.1497 89.7308 12.6358C89.7308 13.1117 89.6093 13.5522 89.3662 13.9572C89.1232 14.3623 88.7941 14.6863 88.3789 14.9293C87.9739 15.1724 87.5283 15.2939 87.0423 15.2939ZM87.0423 13.6383C87.3157 13.6383 87.5435 13.5421 87.7258 13.3497C87.9182 13.1573 88.0144 12.9193 88.0144 12.6358C88.0144 12.3522 87.9182 12.1193 87.7258 11.9371C87.5435 11.7447 87.3157 11.6485 87.0423 11.6485C86.779 11.6485 86.5512 11.7447 86.3588 11.9371C86.1765 12.1295 86.0854 12.3624 86.0854 12.6358C86.0854 12.9193 86.1765 13.1573 86.3588 13.3497C86.5512 13.5421 86.779 13.6383 87.0423 13.6383Z" fill="white"/>
<path d="M9.06186 10.1144C7.92773 11.0662 7.3556 11.8611 7.34548 12.4991C7.32522 12.8434 7.44167 13.1117 7.69483 13.3041C7.94798 13.4965 8.32771 13.5927 8.83402 13.5927C9.23906 13.5927 9.57323 13.5168 9.8365 13.3649C10.1099 13.213 10.2719 13.0155 10.3226 12.7725C10.2213 12.2763 9.87701 11.7548 9.28969 11.208C8.7125 10.6511 7.85178 10.0182 6.70753 9.30934L7.86191 7.59296C9.19856 8.40305 10.2061 9.22327 10.8846 10.0536C11.563 10.8738 11.9022 11.7447 11.9022 12.6662C11.9022 13.2839 11.7605 13.8307 11.4769 14.3066C11.2035 14.7724 10.8238 15.1369 10.3377 15.4002C9.86182 15.6635 9.32514 15.7951 8.72769 15.7951C7.78596 15.7951 7.05182 15.547 6.52526 15.0509C6.00883 14.5446 5.75061 13.8914 5.75061 13.0915C5.75061 12.7674 5.79618 12.4333 5.88731 12.089C6.0392 11.4611 6.29742 10.884 6.66196 10.3574C7.03663 9.82071 7.50243 9.28403 8.05937 8.74734L9.06186 10.1144ZM10.4655 18.2558C11.1338 17.9824 11.7465 17.6634 12.3034 17.2989C12.8603 16.9444 13.2958 16.59 13.6097 16.2356C13.9337 15.8812 14.0957 15.5774 14.0957 15.3243C14.0957 14.9091 13.8274 13.78 13.2907 11.9371L13.2148 11.6333L14.916 10.965C15.159 11.6637 15.3514 12.413 15.4931 13.213C15.6349 14.0028 15.7058 14.7066 15.7058 15.3243C15.7058 16.3166 15.3159 17.233 14.5362 18.0735C13.7565 18.9241 12.7085 19.6228 11.3921 20.1696L10.4655 18.2558ZM16.7608 15.6432C16.8621 14.9749 16.9127 13.942 16.9127 12.5446C16.9127 11.1472 16.8671 9.68401 16.776 8.15496C16.695 6.61579 16.5988 5.53736 16.4874 4.91966L18.3861 4.47918C18.4772 5.06649 18.5582 6.0943 18.6291 7.56258C18.7 9.03087 18.7354 10.4738 18.7354 11.8915C18.7354 13.6433 18.6746 14.9597 18.5531 15.8407L16.7608 15.6432ZM20.1903 13.0003C20.5549 13.1826 20.9295 13.3395 21.3143 13.4712C21.6991 13.6028 22.17 13.6686 22.7269 13.6686C23.2737 13.6585 23.7193 13.5978 24.0636 13.4864C24.418 13.3649 24.6509 13.2332 24.7623 13.0915C24.7724 13.0712 24.7775 13.0307 24.7775 12.9699C24.7775 12.7573 24.6813 12.4788 24.4889 12.1345C24.3066 11.7801 23.9775 11.3649 23.5016 10.889C23.0358 10.403 22.4079 9.8916 21.6181 9.35491L22.7117 7.36513C23.8864 8.19547 24.8129 9.10176 25.4914 10.084C26.1799 11.0662 26.5242 12.0029 26.5242 12.894C26.5242 13.3193 26.4432 13.7091 26.2812 14.0636C26.0382 14.6306 25.6078 15.0661 24.9901 15.3698C24.3724 15.6635 23.6889 15.8103 22.9396 15.8103C22.0586 15.8103 21.3245 15.6787 20.7371 15.4154C20.1498 15.142 19.6941 14.8686 19.3701 14.5952L20.1903 13.0003ZM35.2483 7.44107C35.4812 9.60806 35.6432 11.0358 35.7344 11.7244C35.7951 12.2307 35.866 12.6054 35.947 12.8484C36.0382 13.0915 36.1647 13.2585 36.3268 13.3497C36.4989 13.4307 36.747 13.4712 37.071 13.4712H37.3292L37.4508 14.6104L37.3292 15.7344H37.071C36.1698 15.7344 35.4762 15.4508 34.9901 14.8838C34.5142 14.3066 34.1952 13.3547 34.0332 12.0282L33.9269 11.2232L33.4864 7.8208L35.2483 7.44107ZM35.0205 14.6863C34.3724 14.899 33.7395 15.0053 33.1218 15.0053C32.2105 15.0053 31.4612 14.7876 30.8738 14.3522C30.2966 13.9066 30.0081 13.3041 30.0081 12.5446C30.0081 11.613 30.3726 10.8283 31.1017 10.1903C31.8409 9.55237 32.8181 9.01062 34.0332 8.56507L34.4585 10.5397C33.78 10.7017 33.1522 10.9397 32.575 11.2536C32.008 11.5573 31.7092 11.8459 31.6789 12.1193C31.6586 12.3421 31.77 12.5295 32.013 12.6813C32.2561 12.8231 32.5902 12.894 33.0155 12.894C33.5117 12.894 34.0332 12.7826 34.58 12.5598L35.0205 14.6863ZM44.503 13.5168L45.9004 13.5016C46.5688 13.4813 47.0497 13.4712 47.3434 13.4712L47.4649 14.6104L47.3434 15.7344C46.0776 15.7344 45.0853 15.6939 44.3663 15.6129C43.6575 15.5217 43.1259 15.3445 42.7715 15.0812L44.0322 13.5168H44.503ZM36.6198 13.4712C38.0071 13.4712 39.2273 13.4864 40.2804 13.5168C41.2019 13.537 42.0272 13.456 42.7563 13.2737C43.4853 13.0813 44.0575 12.8332 44.4726 12.5295C44.8878 12.2257 45.1106 11.9168 45.141 11.6029C45.1612 11.3498 45.06 11.1371 44.8372 10.965C44.6144 10.7827 44.3005 10.6916 43.8955 10.6916C43.0854 10.6916 42.2398 11.0561 41.3589 11.7852C40.488 12.5041 39.6982 13.5016 38.9893 14.7775L37.7894 13.8509C38.5894 12.2004 39.5108 10.9093 40.5538 9.97767C41.6069 9.03594 42.6499 8.56507 43.6828 8.56507C44.26 8.56507 44.7815 8.69165 45.2473 8.9448C45.7131 9.18783 46.0776 9.53212 46.3409 9.97767C46.6042 10.4232 46.7358 10.9245 46.7358 11.4814C46.7358 12.3421 46.4726 13.0965 45.946 13.7446C45.4296 14.3825 44.7106 14.8737 43.7891 15.2179C42.8677 15.5622 41.8247 15.7344 40.6602 15.7344H36.6198V13.4712ZM38.7615 12.3624C38.7919 12.008 38.8071 11.6029 38.8071 11.1472C38.8071 10.165 38.7514 9.03087 38.64 7.74486C38.5286 6.45884 38.4223 5.51711 38.321 4.91966L40.2197 4.49437C40.3108 5.04118 40.3918 5.79557 40.4627 6.75756C40.5336 7.71954 40.569 8.70684 40.569 9.71945C40.569 10.3979 40.5437 11.132 40.4931 11.9219L38.7615 12.3624ZM46.719 13.4712H47.0835C48.0759 13.4712 48.8657 13.4307 49.453 13.3497C50.0504 13.2585 50.5112 13.1117 50.8352 12.9092C51.1694 12.7067 51.4175 12.4231 51.5795 12.0586C51.5997 11.7143 51.5035 11.3903 51.2909 11.0865C51.0884 10.7726 50.8099 10.6156 50.4555 10.6156C50.1416 10.6156 49.8682 10.7422 49.6353 10.9953C49.4024 11.2485 49.2707 11.532 49.2404 11.8459C49.2606 12.1092 49.3922 12.3674 49.6353 12.6206C49.8783 12.8636 50.2277 13.0661 50.6833 13.2282C51.139 13.3902 51.6757 13.4712 52.2934 13.4712H54.0553L54.1768 14.6104L54.0553 15.7344H53.144C52.0909 15.7344 51.1441 15.5673 50.3036 15.2331C49.4631 14.899 48.8049 14.4484 48.329 13.8813C47.8531 13.3142 47.6151 12.7016 47.6151 12.0434C47.6151 11.9725 47.6252 11.8459 47.6455 11.6637C47.7366 11.0561 47.924 10.5042 48.2075 10.008C48.5011 9.50174 48.8556 9.10682 49.2707 8.82329C49.6859 8.52963 50.1264 8.3828 50.5922 8.3828C51.1086 8.3828 51.5643 8.54988 51.9592 8.88405C52.3541 9.21821 52.6579 9.64351 52.8706 10.1599C53.0832 10.6764 53.1895 11.2029 53.1895 11.7396C53.1895 11.8611 53.1794 12.0231 53.1592 12.2257C52.987 13.4307 52.3997 14.3167 51.3972 14.8838C50.3947 15.4508 48.9568 15.7344 47.0835 15.7344H46.719V13.4712ZM49.21 5.04118L50.4707 6.31707C50.1973 6.6006 49.9188 6.87907 49.6353 7.15248L49.21 7.57777L48.5872 6.93983L47.9493 6.31707L49.21 5.04118ZM51.8681 5.04118L53.1288 6.31707C52.8554 6.6006 52.5769 6.87907 52.2934 7.15248L51.8681 7.57777L51.2453 6.93983L50.6074 6.31707L51.8681 5.04118ZM53.3181 13.4712H54.1232C54.8523 13.4712 55.3738 13.3902 55.6877 13.2282C56.0117 13.0661 56.1737 12.8231 56.1737 12.4991C56.1737 12.2864 56.0674 11.8713 55.8547 11.2536C55.6421 10.6257 55.475 10.165 55.3535 9.87134L56.9484 8.99037C57.1408 9.41567 57.3382 9.98779 57.5407 10.7067C57.7534 11.4156 57.8597 12.0383 57.8597 12.575C57.8597 13.6079 57.5357 14.3927 56.8876 14.9293C56.2497 15.466 55.3282 15.7344 54.1232 15.7344H53.3181V13.4712ZM54.2143 6.97021L55.6269 5.5728L57.0243 6.97021L56.5534 7.44107C56.2497 7.75498 55.9408 8.06383 55.6269 8.36761L54.2143 6.97021Z" fill="white"/>
</svg>
