<svg width="109" height="36" viewBox="0 0 109 36" fill="none" xmlns="http://www.w3.org/2000/svg">
<path d="M14.5776 0L20.8777 14.8797C21.3682 16.1044 21.9354 16.9464 22.5792 17.4056C23.223 17.8342 24.1427 18.0486 25.3384 18.0486H25.8902L26.2581 21.493L25.8902 24.8914H25.3384C23.2537 24.8914 21.5062 24.3097 20.096 23.1463C18.7164 21.9828 17.4901 20.1458 16.4171 17.6353L9.84104 2.57184L14.5776 0ZM2.48325 16.6249C3.46429 17.1454 4.5373 17.6199 5.70228 18.0486C6.86726 18.4466 8.24685 18.6456 9.84104 18.6456C11.8338 18.6456 13.4433 18.3548 14.6696 17.773C15.8959 17.1607 16.8463 16.5177 17.5207 15.8442L20.6018 19.8396C19.8967 20.7275 19.2069 21.5083 18.5324 22.1818C17.8886 22.8248 16.8769 23.483 15.4973 24.1566C14.1177 24.7996 12.4622 25.121 10.5308 25.121C6.79062 25.121 3.28035 23.8964 0 21.447L2.48325 16.6249Z" fill="black"/>
<path d="M25.1521 18.0486H28.877C32.4332 18.0486 35.1618 17.6353 37.0625 16.8086C38.9633 15.9514 39.9137 14.8491 39.9137 13.502C39.9137 12.7059 39.5458 11.8028 38.81 10.7924C38.1049 9.75145 37.2465 8.97074 36.2348 8.45026C35.3764 9.67492 34.6252 11.4507 33.9814 13.7775C33.3376 16.0738 32.9697 18.37 32.8778 20.6663C32.8471 22.4114 33.1384 23.9576 33.7515 25.3047C34.3647 26.6519 35.1771 27.6928 36.1888 28.4276C37.2005 29.1624 38.2582 29.5298 39.3618 29.5298C39.9443 29.5298 40.4962 29.4227 41.0173 29.2084C41.1093 29.0859 41.1553 28.8716 41.1553 28.5654C41.1553 27.7081 40.7414 26.7437 39.9137 25.6721C39.1166 24.6312 37.8596 23.7433 36.1428 23.0085L37.3384 16.9923C38.9326 17.4209 40.5115 17.7118 42.075 17.8649C43.6692 17.9873 45.7692 18.0486 48.3751 18.0486L48.743 21.493L48.3751 24.8914C45.9532 24.8914 43.8378 24.7536 42.029 24.4781C40.2509 24.1719 38.2888 23.6821 36.1428 23.0085L37.2924 18.2323C38.948 18.7528 40.4502 19.61 41.7991 20.8041C43.148 21.9675 44.2057 23.3147 44.9721 24.8455C45.7386 26.3763 46.1218 27.8765 46.1218 29.3461C46.1218 31.3974 45.386 33.0201 43.9145 34.2142C42.5962 35.3164 40.9713 35.8675 39.0399 35.8675C37.2311 35.8675 35.4837 35.3317 33.7975 34.2601C32.1113 33.2192 30.7318 31.6424 29.6587 29.5298C28.5857 27.4173 28.0492 24.8455 28.0492 21.8145C28.0492 21.1409 28.0646 20.6357 28.0952 20.2989C28.5551 13.6857 30.3485 7.86852 33.4756 2.84738L37.1545 1.79111C39.3005 2.95454 41.0327 4.63846 42.3509 6.84286C43.6998 9.04727 44.3743 11.3129 44.3743 13.6398C44.3743 17.3444 42.8568 20.1458 39.8217 22.0441C36.8173 23.9117 32.6325 24.8761 27.2675 24.9373H25.1521V18.0486Z" fill="black"/>
<path d="M73.1173 18.0486H73.2553C74.267 18.0486 75.1867 17.8036 76.0144 17.3138C76.8728 16.7933 77.3327 16.181 77.394 15.4768L81.5328 15.9819C81.4101 17.6046 80.9503 19.1049 80.1532 20.4826C79.3867 21.8297 78.3904 22.9013 77.1641 23.6974C75.9684 24.4934 74.6655 24.8914 73.2553 24.8914H73.1173V18.0486ZM85.5336 18.0486L85.8555 21.493L85.4876 24.8914H85.2576C83.3875 24.8914 81.7627 24.3097 80.3831 23.1463C79.0342 21.9828 78.0072 20.3295 77.302 18.1863C77.0261 17.2678 76.4743 14.6654 75.6465 10.3791L80.3831 9.0932C80.7203 11.0527 80.9963 12.5376 81.2109 13.5479C81.4561 14.5583 81.6707 15.3543 81.8547 15.936C82.0999 16.6402 82.4831 17.176 83.0043 17.5434C83.5562 17.8802 84.3073 18.0486 85.2576 18.0486H85.5336ZM60.839 24.8914V18.0486H61.0689C62.6325 18.0486 63.8434 17.2066 64.7018 15.5227C65.2843 14.3592 65.8055 12.5682 66.2654 10.1494L71.0019 10.3791C70.6647 12.3998 70.4961 13.8387 70.4961 14.696C70.4961 16.931 71.4311 18.0486 73.3012 18.0486H73.3932L73.7611 21.493L73.3932 24.8914H73.3012C71.6457 24.8914 70.2508 24.4475 69.1165 23.5596C67.9822 22.6717 67.1851 21.4164 66.7252 19.7937L67.8749 19.7018C66.0048 23.1615 63.6901 24.8914 60.931 24.8914H60.839ZM47.687 24.8914L47.3191 21.493L47.687 18.0486H47.9169C48.8673 18.0486 49.8023 17.8496 50.722 17.4516C51.6418 17.0229 52.3316 16.5024 52.7914 15.8901C53.4352 15.1553 53.9257 14.3287 54.263 13.4102C54.6002 12.4917 54.9068 11.5119 55.1827 10.4709L59.9653 10.9761C59.9346 11.1292 59.766 11.7415 59.4594 12.8131C59.1528 13.8541 58.9995 14.8032 58.9995 15.6605C58.9995 17.2525 59.6433 18.0486 60.931 18.0486H61.0229L61.3908 21.493L61.0229 24.8914H60.793C59.4747 24.8914 58.3251 24.5393 57.344 23.8351C56.363 23.131 55.6732 22.1971 55.2747 21.0337C54.2936 22.289 53.1593 23.2534 51.8717 23.927C50.6147 24.57 49.2658 24.8914 47.8249 24.8914H47.687Z" fill="black"/>
<path d="M94.057 14.696C95.9578 15.9819 97.6746 17.0076 99.2074 17.773C100.771 18.5078 101.936 18.8752 102.702 18.8752C102.978 18.8752 103.178 18.8293 103.3 18.7375C103.607 18.5231 103.837 18.217 103.99 17.8189C104.174 17.3903 104.266 16.9004 104.266 16.3493C104.266 15.1247 103.929 13.9919 103.254 12.9509C102.58 11.8793 101.691 11.3435 100.587 11.3435C98.8702 11.3435 96.9541 13.7775 94.8387 18.6456C93.919 20.7275 92.6621 22.289 91.0679 23.33C89.4737 24.3709 87.6496 24.8914 85.5955 24.8914H84.7218L84.8598 18.0486H85.6875C88.0788 18.0486 90.0409 16.6096 91.5737 13.7316C93.1066 10.8842 94.5782 8.75639 95.9884 7.34802C97.3987 5.90904 98.9775 5.18954 100.725 5.18954C102.38 5.18954 103.837 5.72535 105.094 6.79694C106.351 7.8379 107.301 9.20036 107.945 10.8843C108.619 12.5376 108.956 14.2827 108.956 16.1198C108.956 17.8955 108.619 19.5488 107.945 21.0796C107.27 22.5798 106.289 23.7127 105.002 24.4781C104.327 24.9067 103.499 25.121 102.518 25.121C99.8206 25.121 96.1417 23.529 91.4818 20.3448L94.057 14.696Z" fill="black"/>
</svg>
