<svg width="99" height="24" viewBox="0 0 99 24" fill="none" xmlns="http://www.w3.org/2000/svg">
<rect width="98.1231" height="23.0165" rx="11.5057" fill="#ED0F10"/>
<path d="M5.0309 17.5597C5.69385 17.2885 6.30156 16.9721 6.85401 16.6105C7.40647 16.2589 7.83839 15.9074 8.14978 15.5558C8.47121 15.2042 8.63192 14.9029 8.63192 14.6518C8.63192 14.24 8.36574 13.12 7.83337 11.2918L7.75803 10.9905L9.44554 10.3275C9.68661 11.0206 9.87746 11.7639 10.0181 12.5575C10.1587 13.341 10.229 14.0391 10.229 14.6518C10.229 15.6362 9.84231 16.5452 9.06887 17.3789C8.29543 18.2227 7.2558 18.9158 5.94999 19.4582L5.0309 17.5597ZM11.2756 14.9682C11.376 14.3052 11.4262 13.2807 11.4262 11.8945C11.4262 10.5084 11.381 9.0569 11.2906 7.54015C11.2103 6.01336 11.1148 4.9436 11.0044 4.33087L12.8877 3.89393C12.9781 4.47652 13.0585 5.49605 13.1288 6.95253C13.1991 8.40901 13.2343 9.84038 13.2343 11.2466C13.2343 12.9844 13.174 14.2902 13.0535 15.1641L11.2756 14.9682ZM13.9995 17.5145C15.7171 17.1429 16.9627 16.6959 17.7361 16.1736C18.5095 15.6512 18.8963 14.9782 18.8963 14.1546C18.8963 13.5619 18.8109 12.9844 18.6401 12.4219C18.4794 11.8493 18.2534 11.3822 17.9621 11.0206C17.6809 10.659 17.3644 10.4782 17.0129 10.4782C16.812 10.4782 16.6211 10.5536 16.4403 10.7042C16.2696 10.8448 16.134 11.0257 16.0335 11.2466C15.9331 11.4676 15.8829 11.6786 15.8829 11.8795C15.8829 12.0502 15.918 12.1858 15.9883 12.2863C16.149 12.5072 16.5157 12.6529 17.0882 12.7232C17.6708 12.7835 18.4694 12.8136 19.4839 12.8136H20.9755L21.096 13.9436L20.9755 15.0586L19.062 15.0737C17.8466 15.0737 16.8723 14.9732 16.139 14.7723C15.4057 14.5714 14.8935 14.1646 14.6022 13.5519C14.4214 13.1601 14.331 12.7282 14.331 12.2561C14.331 11.6635 14.4565 11.0759 14.7076 10.4933C14.9587 9.90065 15.3053 9.4185 15.7473 9.04685C16.1892 8.66515 16.6714 8.4743 17.1937 8.4743C17.7964 8.4743 18.3438 8.73547 18.836 9.25779C19.3282 9.78011 19.7149 10.4632 19.9962 11.3069C20.2774 12.1507 20.418 13.0296 20.418 13.9436C20.418 15.3499 19.9108 16.5352 18.8963 17.4995C17.8817 18.4637 16.4805 19.1166 14.6926 19.4582L13.9995 17.5145ZM20.8248 12.8136H21.548C22.5424 12.8136 23.2456 12.7282 23.6574 12.5575C24.0692 12.3867 24.2752 12.1255 24.2752 11.774C24.2651 11.553 24.1496 11.1311 23.9286 10.5084C23.7076 9.87554 23.5469 9.45366 23.4465 9.24272L25.0436 8.36883C25.2445 8.79071 25.4454 9.35321 25.6463 10.0563C25.8471 10.7494 25.9476 11.3571 25.9476 11.8795C25.9375 12.904 25.591 13.6925 24.908 14.245C24.2249 14.7874 23.2154 15.0586 21.8795 15.0586H20.8248V12.8136ZM21.5631 16.3393L22.8137 17.6049C22.2612 18.1574 21.985 18.4336 21.985 18.4336C21.7037 18.7149 21.5631 18.8555 21.5631 18.8555L20.9303 18.2227C20.5184 17.8108 20.3125 17.6049 20.3125 17.6049L21.5631 16.3393ZM24.1998 16.3393L25.4504 17.6049C24.8979 18.1574 24.6217 18.4336 24.6217 18.4336C24.3404 18.7149 24.1998 18.8555 24.1998 18.8555L23.567 18.2227C23.1552 17.8108 22.9493 17.6049 22.9493 17.6049L24.1998 16.3393ZM20.2824 15.0586L20.1619 13.9436L20.2824 12.8136H21.0207V15.0586H20.2824ZM27.2099 12.3465C27.5715 12.5273 27.9432 12.683 28.3248 12.8136C28.7065 12.9442 29.1736 13.0095 29.7261 13.0095C30.2685 12.9994 30.7105 12.9392 31.052 12.8287C31.4035 12.7081 31.6346 12.5776 31.7451 12.4369C31.7551 12.4168 31.7601 12.3767 31.7601 12.3164C31.7601 12.1055 31.6647 11.8292 31.4739 11.4877C31.2931 11.1361 30.9666 10.7243 30.4945 10.2522C30.0324 9.77007 29.4097 9.26281 28.6262 8.73044L29.711 6.75666C30.8762 7.58033 31.7953 8.47933 32.4683 9.45366C33.1513 10.428 33.4928 11.3571 33.4928 12.2411C33.4928 12.6629 33.4125 13.0497 33.2518 13.4012C33.0107 13.9637 32.5838 14.3956 31.9711 14.697C31.3583 14.9883 30.6803 15.1339 29.937 15.1339C29.0631 15.1339 28.3349 15.0033 27.7523 14.7422C27.1697 14.471 26.7177 14.1998 26.3963 13.9286L27.2099 12.3465ZM42.1468 6.832C42.3778 8.98156 42.5385 10.3979 42.6289 11.0809C42.6892 11.5831 42.7595 11.9548 42.8399 12.1959C42.9303 12.4369 43.0558 12.6027 43.2165 12.6931C43.3873 12.7734 43.6334 12.8136 43.9548 12.8136H44.211L44.3315 13.9436L44.211 15.0586H43.9548C43.0608 15.0586 42.3728 14.7773 41.8906 14.2148C41.4185 13.6423 41.1021 12.6981 40.9414 11.3822L40.8359 10.5837L40.399 7.20867L42.1468 6.832ZM41.9208 14.019C41.2779 14.2299 40.6501 14.3354 40.0374 14.3354C39.1334 14.3354 38.3901 14.1194 37.8075 13.6875C37.2349 13.2455 36.9486 12.6479 36.9486 11.8945C36.9486 10.9704 37.3103 10.1919 38.0335 9.55913C38.7667 8.92631 39.736 8.38892 40.9414 7.94696L41.3633 9.90567C40.6903 10.0664 40.0675 10.3024 39.495 10.6138C38.9325 10.9152 38.6362 11.2014 38.606 11.4726C38.5859 11.6936 38.6964 11.8795 38.9375 12.0301C39.1786 12.1707 39.51 12.2411 39.9319 12.2411C40.4241 12.2411 40.9414 12.1306 41.4838 11.9096L41.9208 14.019ZM37.4157 6.65119C37.9983 6.64115 38.4553 6.57084 38.7868 6.44025C39.1183 6.29963 39.3543 6.13389 39.495 5.94304C39.4146 5.90286 39.1233 5.80242 38.6211 5.6417C38.2997 5.54126 38.0686 5.4609 37.928 5.40063C37.7874 5.33032 37.6668 5.23489 37.5664 5.11436C37.476 4.99382 37.4308 4.82808 37.4308 4.61715C37.4308 4.21536 37.5363 3.8437 37.7472 3.50219C37.9581 3.16067 38.2243 2.89448 38.5458 2.70363C38.8772 2.50274 39.2037 2.40229 39.5251 2.40229C39.8867 2.40229 40.2031 2.50274 40.4743 2.70363L40.0223 3.54739C39.9018 3.49716 39.7411 3.46703 39.5402 3.45698C39.2388 3.45698 38.9626 3.55241 38.7115 3.74326C38.4704 3.92406 38.3147 4.14504 38.2444 4.40621C38.3449 4.45643 38.611 4.54683 39.043 4.67741C39.495 4.81804 39.8214 4.95364 40.0223 5.08422C40.2232 5.2148 40.3287 5.4157 40.3387 5.6869C40.3387 6.02842 40.2182 6.3599 39.9771 6.68133C39.7461 6.99271 39.3996 7.24383 38.9375 7.43468C38.4754 7.62553 37.923 7.70589 37.2801 7.67575L37.4157 6.65119ZM51.8845 12.8136H51.9297C52.2612 12.8136 52.5625 12.7332 52.8337 12.5725C53.115 12.4018 53.2656 12.2009 53.2857 11.9699L54.6418 12.1356C54.6016 12.668 54.4509 13.1601 54.1898 13.6122C53.9386 14.0541 53.6122 14.4057 53.2104 14.6669C52.8187 14.928 52.3918 15.0586 51.9297 15.0586H51.8845V12.8136ZM55.9526 12.8136L56.0581 13.9436L55.9375 15.0586H55.8622C55.2495 15.0586 54.7171 14.8677 54.2651 14.486C53.8231 14.1043 53.4866 13.5619 53.2556 12.8588C53.1652 12.5575 52.9844 11.7037 52.7132 10.2974L54.2651 9.87554C54.3756 10.5184 54.466 11.0056 54.5363 11.337C54.6167 11.6685 54.687 11.9297 54.7472 12.1205C54.8276 12.3516 54.9532 12.5273 55.1239 12.6479C55.3047 12.7584 55.5508 12.8136 55.8622 12.8136H55.9526ZM47.8616 15.0586V12.8136H47.9369C48.4492 12.8136 48.846 12.5374 49.1272 11.9849C49.3181 11.6032 49.4888 11.0156 49.6395 10.2221L51.1914 10.2974C51.0809 10.9604 51.0257 11.4325 51.0257 11.7137C51.0257 12.447 51.332 12.8136 51.9448 12.8136H51.9749L52.0954 13.9436L51.9749 15.0586H51.9448C51.4024 15.0586 50.9453 14.9129 50.5737 14.6217C50.202 14.3304 49.9409 13.9185 49.7902 13.3862L50.1669 13.356C49.5541 14.4911 48.7958 15.0586 47.8917 15.0586H47.8616ZM43.5524 15.0586L43.4319 13.9436L43.5524 12.8136H43.6278C43.9392 12.8136 44.2455 12.7483 44.5469 12.6177C44.8482 12.4771 45.0742 12.3064 45.2249 12.1055C45.4358 11.8644 45.5965 11.5932 45.707 11.2918C45.8175 10.9905 45.918 10.6691 46.0084 10.3275L47.5753 10.4933C47.5653 10.5435 47.51 10.7444 47.4096 11.096C47.3092 11.4375 47.2589 11.7489 47.2589 12.0301C47.2589 12.5524 47.4699 12.8136 47.8917 12.8136H47.9219L48.0424 13.9436L47.9219 15.0586H47.8465C47.4146 15.0586 47.0379 14.9431 46.7165 14.7121C46.3951 14.481 46.1691 14.1747 46.0385 13.793C45.7171 14.2048 45.3454 14.5212 44.9235 14.7422C44.5117 14.9531 44.0697 15.0586 43.5976 15.0586H43.5524ZM50.5737 4.69248L51.6434 5.74717L50.5737 6.80186L50.2271 6.45532C49.9861 6.22429 49.75 5.98824 49.519 5.74717L50.5737 4.69248ZM51.99 6.33479C52.4018 6.72653 52.8036 7.12832 53.1953 7.54015L51.99 8.74551C51.5982 8.33368 51.1964 7.93189 50.7846 7.54015L51.99 6.33479ZM49.1574 6.33479C49.5692 6.72653 49.971 7.12832 50.3627 7.54015L49.1574 8.74551C48.7656 8.33368 48.3638 7.93189 47.952 7.54015L49.1574 6.33479ZM55.2467 12.8136H55.6083C56.5926 12.8136 57.3761 12.7734 57.9587 12.6931C58.5514 12.6027 59.0084 12.457 59.3298 12.2561C59.6613 12.0552 59.9074 11.774 60.0681 11.4124C60.0882 11.0709 59.9928 10.7494 59.7818 10.4481C59.5809 10.1367 59.3047 9.98101 58.9531 9.98101C58.6418 9.98101 58.3705 10.1066 58.1395 10.3577C57.9085 10.6088 57.7779 10.8901 57.7478 11.2014C57.7679 11.4626 57.8984 11.7187 58.1395 11.9699C58.3806 12.2109 58.7271 12.4118 59.1791 12.5725C59.6312 12.7332 60.1635 12.8136 60.7763 12.8136H62.524L62.6446 13.9436L62.524 15.0586H61.62C60.5754 15.0586 59.6362 14.8929 58.8025 14.5614C57.9688 14.2299 57.3159 13.7829 56.8438 13.2204C56.3717 12.6579 56.1356 12.0502 56.1356 11.3973C56.1356 11.327 56.1457 11.2014 56.1657 11.0206C56.2561 10.4179 56.442 9.87051 56.7232 9.37833C57.0145 8.87609 57.3661 8.48435 57.7779 8.2031C58.1897 7.9118 58.6267 7.76615 59.0887 7.76615C59.601 7.76615 60.053 7.93189 60.4448 8.26336C60.8365 8.59484 61.1379 9.01672 61.3488 9.529C61.5597 10.0413 61.6652 10.5636 61.6652 11.096C61.6652 11.2165 61.6552 11.3772 61.6351 11.5781C61.4643 12.7734 60.8817 13.6523 59.8873 14.2148C58.8929 14.7773 57.4665 15.0586 55.6083 15.0586H55.2467V12.8136ZM57.7176 4.45141L58.9682 5.71704C58.697 5.99829 58.4208 6.27452 58.1395 6.54572L57.7176 6.9676L57.0999 6.33479L56.4671 5.71704L57.7176 4.45141ZM60.3544 4.45141L61.6049 5.71704C61.3337 5.99829 61.0575 6.27452 60.7763 6.54572L60.3544 6.9676L59.7366 6.33479L59.1038 5.71704L60.3544 4.45141ZM61.7928 12.8136H62.5913C63.3145 12.8136 63.8318 12.7332 64.1432 12.5725C64.4647 12.4118 64.6254 12.1707 64.6254 11.8493C64.6254 11.6384 64.5199 11.2265 64.309 10.6138C64.098 9.99105 63.9323 9.53402 63.8117 9.24272L65.3938 8.36883C65.5846 8.79071 65.7805 9.35824 65.9814 10.0714C66.1923 10.7745 66.2978 11.3923 66.2978 11.9247C66.2978 12.9492 65.9764 13.7277 65.3335 14.26C64.7007 14.7924 63.7866 15.0586 62.5913 15.0586H61.7928V12.8136ZM62.6817 6.36492L64.083 4.97875L65.4691 6.36492L65.002 6.832C64.7007 7.14338 64.3943 7.44975 64.083 7.75109L62.6817 6.36492ZM72.3548 10.9905C72.0836 11.6032 71.8777 12.1356 71.737 12.5876C71.6065 13.0296 71.5412 13.4816 71.5412 13.9436C71.5412 14.7773 71.7973 15.4001 72.3096 15.8119C72.8319 16.2238 73.5903 16.4297 74.5847 16.4297C75.3983 16.4297 76.1266 16.284 76.7694 15.9927C77.4123 15.7115 77.8743 15.3549 78.1556 14.923C78.1656 14.8929 77.8492 14.7974 77.2064 14.6367L76.4078 14.4107C75.6143 14.1797 75.0518 13.9035 74.7203 13.582C74.3888 13.2606 74.2231 12.8086 74.2231 12.226C74.2231 11.4124 74.429 10.6339 74.8408 9.8906C75.2527 9.1473 75.7951 8.54462 76.4681 8.08256C77.1411 7.62051 77.8543 7.38948 78.6076 7.38948C78.9089 7.38948 79.2153 7.43468 79.5267 7.52508C79.8381 7.60544 80.054 7.70589 80.1746 7.82642L79.5418 9.77007C79.4413 9.72989 79.2957 9.69473 79.1048 9.6646C78.914 9.63446 78.7432 9.6194 78.5925 9.6194C78.1807 9.6194 77.7839 9.7098 77.4022 9.8906C77.0306 10.0614 76.7142 10.2924 76.453 10.5837C76.1919 10.8649 76.0161 11.1713 75.9257 11.5028C75.9156 11.543 75.9106 11.5932 75.9106 11.6534C75.9106 11.8242 76.0261 11.9749 76.2572 12.1055C76.4982 12.226 76.9452 12.3616 77.5981 12.5123C78.5122 12.7232 79.1299 12.9894 79.4514 13.3108C79.7828 13.6222 79.9486 13.9888 79.9486 14.4107C79.9486 15.144 79.7125 15.8371 79.2404 16.49C78.7683 17.1429 78.1204 17.6652 77.2968 18.0569C76.4832 18.4587 75.5791 18.6596 74.5847 18.6596C73.6305 18.6596 72.7867 18.4738 72.0534 18.1021C71.3202 17.7305 70.7527 17.178 70.3509 16.4448C69.9591 15.7215 69.7984 14.8527 69.8687 13.8382C69.929 12.8739 70.2705 11.7037 70.8933 10.3275L72.3548 10.9905ZM80.7961 17.5145C82.5137 17.1429 83.7592 16.6959 84.5327 16.1736C85.3061 15.6512 85.6928 14.9782 85.6928 14.1546C85.6828 13.5619 85.5974 12.9844 85.4367 12.4219C85.276 11.8493 85.05 11.3822 84.7587 11.0206C84.4774 10.659 84.161 10.4782 83.8095 10.4782C83.6086 10.4782 83.4177 10.5536 83.2369 10.7042C83.0662 10.8549 82.9255 11.0407 82.815 11.2617C82.7146 11.4827 82.6644 11.6886 82.6644 11.8795C82.6644 12.0402 82.7045 12.1758 82.7849 12.2863C82.9356 12.4872 83.2118 12.6428 83.6136 12.7533C84.0254 12.8538 84.4875 12.904 84.9998 12.904C85.3815 12.904 85.7581 12.8739 86.1298 12.8136V14.9079C85.6376 15.0285 85.1303 15.0887 84.608 15.0887C83.8748 15.0887 83.2168 14.9632 82.6342 14.7121C82.0516 14.4509 81.6398 14.0642 81.3987 13.5519C81.2179 13.1601 81.1275 12.7282 81.1275 12.2561C81.1275 11.6635 81.2531 11.0759 81.5042 10.4933C81.7553 9.90065 82.1019 9.4185 82.5438 9.04685C82.9858 8.66515 83.4679 8.4743 83.9903 8.4743C84.5929 8.4743 85.1404 8.73547 85.6326 9.25779C86.1248 9.78011 86.5115 10.4632 86.7927 11.3069C87.074 12.1507 87.2146 13.0296 87.2146 13.9436C87.2146 15.3499 86.7074 16.5352 85.6928 17.4995C84.6783 18.4637 83.2771 19.1166 81.4891 19.4582L80.7961 17.5145ZM86.8446 17.5597C87.5076 17.2885 88.1153 16.9721 88.6677 16.6105C89.2202 16.2589 89.6521 15.9074 89.9635 15.5558C90.2849 15.2042 90.4456 14.9029 90.4456 14.6518C90.4456 14.24 90.1794 13.12 89.6471 11.2918L89.5717 10.9905L91.2592 10.3275C91.5003 11.0206 91.6912 11.7639 91.8318 12.5575C91.9724 13.341 92.0427 14.0391 92.0427 14.6518C92.0427 15.6362 91.656 16.5452 90.8826 17.3789C90.1091 18.2227 89.0695 18.9158 87.7637 19.4582L86.8446 17.5597Z" fill="white"/>
</svg>
