<svg width="89" height="34" viewBox="0 0 89 34" fill="none" xmlns="http://www.w3.org/2000/svg">
<path d="M17.7507 20.85C17.72 20.0846 17.7047 18.9517 17.7047 17.4515C17.7047 15.9207 17.72 14.7726 17.7507 14.0071C21.7668 14.0071 24.8785 13.7622 27.0858 13.2723C29.3238 12.7519 31.0253 11.9252 32.1903 10.7924C33.3553 9.65956 34.3363 8.00626 35.1334 5.83247L39.916 6.38356C39.3335 8.0981 39.0423 9.49117 39.0423 10.5628C39.0423 12.4916 40.0539 13.456 42.0773 13.456L42.4452 16.8545L42.0773 20.2989C40.8204 20.2989 39.6554 20.0233 38.5824 19.4722C37.5094 18.8905 36.651 18.0945 36.0072 17.0841C35.394 16.0738 35.0874 14.9256 35.0874 13.6397L36.0072 13.8234C34.1064 16.4565 31.7151 18.2935 28.8333 19.3344C25.9515 20.3448 22.2573 20.85 17.7507 20.85ZM6.3001 3.94955C5.50301 6.42951 5.10446 8.29711 5.10446 9.5524C5.10446 10.3791 5.59498 11.1292 6.57602 11.8027C7.58771 12.4763 9.05927 13.0121 10.9907 13.4101C12.9528 13.8081 15.3287 14.0071 18.1185 14.0071C18.1799 14.7726 18.2105 15.9054 18.2105 17.4056C18.2105 18.9364 18.1799 20.0846 18.1185 20.85C12.6309 20.8806 8.30817 20.0539 5.15045 18.37C2.02339 16.6861 0.321903 14.3286 0.0459862 11.2976C0.0153288 11.0526 0 10.6852 0 10.1954C0 8.87885 0.183945 7.45515 0.551834 5.92432C0.919723 4.39348 1.36426 3.03104 1.88543 1.83699L6.3001 3.94955Z" fill="black"/>
<path d="M67.053 13.456C67.9421 13.456 68.6472 13.1958 69.1684 12.6753C69.6896 12.1548 69.9502 11.4813 69.9502 10.6546C69.9502 9.82797 69.6283 8.51143 68.9845 6.70505C68.3713 4.89866 67.8501 3.52091 67.4209 2.57179L72.1115 0C72.694 1.19405 73.3071 2.90858 73.951 5.1436C74.5948 7.348 74.9167 9.27686 74.9167 10.9302C74.9167 12.6447 74.5794 14.2214 73.905 15.6604C73.2305 17.0688 72.2954 18.2016 71.0998 19.0589C69.9042 19.8855 68.5553 20.2989 67.053 20.2989H66.9151V13.456H67.053ZM54.5908 20.2989V13.456H54.8207C56.3843 13.456 57.5952 12.6141 58.4536 10.9302C59.0361 9.76673 59.5573 7.97564 60.0172 5.55692L64.7537 5.78654C64.4165 7.80725 64.2479 9.24625 64.2479 10.1035C64.2479 12.3385 65.1829 13.456 67.053 13.456H67.145L67.5129 16.9004L67.145 20.2989H67.053C65.3975 20.2989 64.0026 19.8549 62.8683 18.967C61.734 18.0792 60.9369 16.8239 60.477 15.2012L61.6267 15.1093C59.7566 18.569 57.4419 20.2989 54.6828 20.2989H54.5908ZM41.4388 20.2989L41.0709 16.9004L41.4388 13.456H41.6687C42.6191 13.456 43.5541 13.257 44.4738 12.859C45.3936 12.4304 46.0834 11.9099 46.5432 11.2976C47.187 10.5628 47.6775 9.7361 48.0148 8.8176C48.352 7.89909 48.6586 6.91937 48.9345 5.8784L53.717 6.38356C53.6864 6.53664 53.5178 7.149 53.2112 8.22058C52.9046 9.26155 52.7513 10.2107 52.7513 11.0679C52.7513 12.66 53.3951 13.456 54.6828 13.456H54.7747L55.1426 16.9004L54.7747 20.2989H54.5448C53.2265 20.2989 52.0769 19.9468 51.0958 19.2426C50.1148 18.5384 49.425 17.6046 49.0265 16.4412C48.0454 17.6965 46.9111 18.6609 45.6235 19.3344C44.3665 19.9774 43.0176 20.2989 41.5767 20.2989H41.4388Z" fill="black"/>
<path d="M72.2367 27.9224C74.2601 27.0958 76.1149 26.1314 77.801 25.0292C79.4872 23.9576 80.8055 22.886 81.7559 21.8144C82.7369 20.7428 83.2274 19.8243 83.2274 19.0589C83.2274 17.8036 82.415 14.3898 80.7901 8.8176L80.5602 7.89909L85.7107 5.8784C86.4464 7.99096 87.0289 10.2566 87.4581 12.6753C87.8874 15.0634 88.102 17.1913 88.102 19.0589C88.102 22.0593 86.9216 24.8302 84.561 27.3714C82.2004 29.9432 79.0273 32.0557 75.0419 33.709L72.2367 27.9224Z" fill="black"/>
</svg>
