<svg width="95" height="24" viewBox="0 0 95 24" fill="none" xmlns="http://www.w3.org/2000/svg">
<rect width="94.7254" height="23.1981" rx="11.599" fill="#ED0F10"/>
<path d="M62.8773 6.81583C63.0697 7.31201 63.2317 7.68161 63.3633 7.92464C63.495 8.16767 63.6772 8.36512 63.9101 8.51702C64.143 8.66891 64.4468 8.74486 64.8215 8.74486C65.7936 8.74486 66.2796 8.11703 66.2796 6.86139C66.2796 6.61837 66.2645 6.36015 66.2341 6.08674L67.8289 5.76777C67.9201 6.2032 67.9657 6.64368 67.9657 7.08923C67.9657 7.79806 67.8492 8.4512 67.6163 9.04864C67.3834 9.63595 67.029 10.1119 66.5531 10.4764C66.0873 10.8308 65.5202 11.008 64.8519 11.008C63.3734 11.008 62.2241 9.88405 61.4039 7.63604L62.8773 6.81583ZM62.133 16.7344C62.1532 16.1876 62.1634 15.7825 62.1634 15.5192C62.1634 13.9598 62.0722 12.4865 61.89 11.0992C61.6672 9.44862 61.2875 8.00565 60.7508 6.77026L62.4368 5.75258C63.0646 7.02848 63.495 8.71448 63.7279 10.8106C63.8494 11.8941 63.9101 13.2459 63.9101 14.8661C63.9101 15.6964 63.9 16.3192 63.8798 16.7344H62.133ZM70.7221 6.81583C70.9145 7.31201 71.0765 7.68161 71.2082 7.92464C71.3398 8.16767 71.5221 8.36512 71.755 8.51702C71.9879 8.66891 72.2916 8.74486 72.6663 8.74486C73.6384 8.74486 74.1245 8.11703 74.1245 6.86139C74.1245 6.61837 74.1093 6.36015 74.0789 6.08674L75.6738 5.76777C75.7649 6.2032 75.8105 6.64368 75.8105 7.08923C75.8105 7.79806 75.694 8.4512 75.4611 9.04864C75.2282 9.63595 74.8738 10.1119 74.3979 10.4764C73.9321 10.8308 73.365 11.008 72.6967 11.008C71.2183 11.008 70.069 9.88405 69.2487 7.63604L70.7221 6.81583ZM69.9778 16.7344C69.9981 16.1876 70.0082 15.7825 70.0082 15.5192C70.0082 13.9598 69.9171 12.4865 69.7348 11.0992C69.512 9.44862 69.1323 8.00565 68.5956 6.77026L70.2816 5.75258C70.9094 7.02848 71.3398 8.71448 71.5727 10.8106C71.6942 11.8941 71.755 13.2459 71.755 14.8661C71.755 15.6964 71.7448 16.3192 71.7246 16.7344H69.9778ZM79.2049 16.2939C78.7289 16.2939 78.2885 16.1724 77.8834 15.9293C77.4784 15.6863 77.1543 15.3623 76.9113 14.9572C76.6683 14.5522 76.5468 14.1117 76.5468 13.6358C76.5468 13.1598 76.6683 12.7194 76.9113 12.3143C77.1543 11.8991 77.4784 11.5751 77.8834 11.3422C78.2885 11.0992 78.7289 10.9777 79.2049 10.9777C79.6909 10.9777 80.1365 11.0992 80.5415 11.3422C80.9567 11.5751 81.2858 11.8941 81.5288 12.2991C81.7718 12.7042 81.8934 13.1497 81.8934 13.6358C81.8934 14.1117 81.7718 14.5522 81.5288 14.9572C81.2858 15.3623 80.9567 15.6863 80.5415 15.9293C80.1365 16.1724 79.6909 16.2939 79.2049 16.2939ZM79.2049 14.6383C79.4783 14.6383 79.7061 14.5421 79.8884 14.3497C80.0808 14.1573 80.177 13.9193 80.177 13.6358C80.177 13.3522 80.0808 13.1193 79.8884 12.9371C79.7061 12.7447 79.4783 12.6485 79.2049 12.6485C78.9416 12.6485 78.7138 12.7447 78.5214 12.9371C78.3391 13.1295 78.248 13.3624 78.248 13.6358C78.248 13.9193 78.3391 14.1573 78.5214 14.3497C78.7138 14.5421 78.9416 14.6383 79.2049 14.6383ZM85.9224 16.2939C85.4465 16.2939 85.006 16.1724 84.6009 15.9293C84.1959 15.6863 83.8718 15.3623 83.6288 14.9572C83.3858 14.5522 83.2643 14.1117 83.2643 13.6358C83.2643 13.1598 83.3858 12.7194 83.6288 12.3143C83.8718 11.8991 84.1959 11.5751 84.6009 11.3422C85.006 11.0992 85.4465 10.9777 85.9224 10.9777C86.4084 10.9777 86.854 11.0992 87.259 11.3422C87.6742 11.5751 88.0033 11.8941 88.2463 12.2991C88.4894 12.7042 88.6109 13.1497 88.6109 13.6358C88.6109 14.1117 88.4894 14.5522 88.2463 14.9572C88.0033 15.3623 87.6742 15.6863 87.259 15.9293C86.854 16.1724 86.4084 16.2939 85.9224 16.2939ZM85.9224 14.6383C86.1958 14.6383 86.4236 14.5421 86.6059 14.3497C86.7983 14.1573 86.8945 13.9193 86.8945 13.6358C86.8945 13.3522 86.7983 13.1193 86.6059 12.9371C86.4236 12.7447 86.1958 12.6485 85.9224 12.6485C85.6591 12.6485 85.4313 12.7447 85.2389 12.9371C85.0566 13.1295 84.9655 13.3624 84.9655 13.6358C84.9655 13.9193 85.0566 14.1573 85.2389 14.3497C85.4313 14.5421 85.6591 14.6383 85.9224 14.6383Z" fill="white"/>
<path d="M10.0619 11.1144C8.92773 12.0662 8.3556 12.8611 8.34548 13.4991C8.32522 13.8434 8.44167 14.1117 8.69483 14.3041C8.94798 14.4965 9.32771 14.5927 9.83402 14.5927C10.2391 14.5927 10.5732 14.5168 10.8365 14.3649C11.1099 14.213 11.2719 14.0155 11.3226 13.7725C11.2213 13.2763 10.877 12.7548 10.2897 12.208C9.7125 11.6511 8.85178 11.0182 7.70753 10.3093L8.86191 8.59296C10.1986 9.40305 11.2061 10.2233 11.8846 11.0536C12.563 11.8738 12.9022 12.7447 12.9022 13.6662C12.9022 14.2839 12.7605 14.8307 12.4769 15.3066C12.2035 15.7724 11.8238 16.1369 11.3377 16.4002C10.8618 16.6635 10.3251 16.7951 9.72769 16.7951C8.78596 16.7951 8.05182 16.547 7.52526 16.0509C7.00883 15.5446 6.75061 14.8914 6.75061 14.0915C6.75061 13.7674 6.79618 13.4333 6.88731 13.089C7.0392 12.4611 7.29742 11.884 7.66196 11.3574C8.03663 10.8207 8.50243 10.284 9.05937 9.74734L10.0619 11.1144ZM11.4655 19.2558C12.1338 18.9824 12.7465 18.6634 13.3034 18.2989C13.8603 17.9444 14.2958 17.59 14.6097 17.2356C14.9337 16.8812 15.0957 16.5774 15.0957 16.3243C15.0957 15.9091 14.8274 14.78 14.2907 12.9371L14.2148 12.6333L15.916 11.965C16.159 12.6637 16.3514 13.413 16.4931 14.213C16.6349 15.0028 16.7058 15.7066 16.7058 16.3243C16.7058 17.3166 16.3159 18.233 15.5362 19.0735C14.7565 19.9241 13.7085 20.6228 12.3921 21.1696L11.4655 19.2558ZM17.7608 16.6432C17.8621 15.9749 17.9127 14.942 17.9127 13.5446C17.9127 12.1472 17.8671 10.684 17.776 9.15496C17.695 7.61579 17.5988 6.53736 17.4874 5.91966L19.3861 5.47918C19.4772 6.06649 19.5582 7.0943 19.6291 8.56258C19.7 10.0309 19.7354 11.4738 19.7354 12.8915C19.7354 14.6433 19.6746 15.9597 19.5531 16.8407L17.7608 16.6432ZM21.1903 14.0003C21.5549 14.1826 21.9295 14.3395 22.3143 14.4712C22.6991 14.6028 23.17 14.6686 23.7269 14.6686C24.2737 14.6585 24.7193 14.5978 25.0636 14.4864C25.418 14.3649 25.6509 14.2332 25.7623 14.0915C25.7724 14.0712 25.7775 14.0307 25.7775 13.9699C25.7775 13.7573 25.6813 13.4788 25.4889 13.1345C25.3066 12.7801 24.9775 12.3649 24.5016 11.889C24.0358 11.403 23.4079 10.8916 22.6181 10.3549L23.7117 8.36513C24.8864 9.19547 25.8129 10.1018 26.4914 11.084C27.1799 12.0662 27.5242 13.0029 27.5242 13.894C27.5242 14.3193 27.4432 14.7091 27.2812 15.0636C27.0382 15.6306 26.6078 16.0661 25.9901 16.3698C25.3724 16.6635 24.6889 16.8103 23.9396 16.8103C23.0586 16.8103 22.3245 16.6787 21.7371 16.4154C21.1498 16.142 20.6941 15.8686 20.3701 15.5952L21.1903 14.0003ZM36.2483 8.44107C36.4812 10.6081 36.6432 12.0358 36.7344 12.7244C36.7951 13.2307 36.866 13.6054 36.947 13.8484C37.0382 14.0915 37.1647 14.2585 37.3268 14.3497C37.4989 14.4307 37.747 14.4712 38.071 14.4712H38.3292L38.4508 15.6104L38.3292 16.7344H38.071C37.1698 16.7344 36.4762 16.4508 35.9901 15.8838C35.5142 15.3066 35.1952 14.3547 35.0332 13.0282L34.9269 12.2232L34.4864 8.8208L36.2483 8.44107ZM36.0205 15.6863C35.3724 15.899 34.7395 16.0053 34.1218 16.0053C33.2105 16.0053 32.4612 15.7876 31.8738 15.3522C31.2966 14.9066 31.0081 14.3041 31.0081 13.5446C31.0081 12.613 31.3726 11.8283 32.1017 11.1903C32.8409 10.5524 33.8181 10.0106 35.0332 9.56507L35.4585 11.5397C34.78 11.7017 34.1522 11.9397 33.575 12.2536C33.008 12.5573 32.7092 12.8459 32.6789 13.1193C32.6586 13.3421 32.77 13.5295 33.013 13.6813C33.2561 13.8231 33.5902 13.894 34.0155 13.894C34.5117 13.894 35.0332 13.7826 35.58 13.5598L36.0205 15.6863ZM45.503 14.5168L46.9004 14.5016C47.5688 14.4813 48.0497 14.4712 48.3434 14.4712L48.4649 15.6104L48.3434 16.7344C47.0776 16.7344 46.0853 16.6939 45.3663 16.6129C44.6575 16.5217 44.1259 16.3445 43.7715 16.0812L45.0322 14.5168H45.503ZM37.6198 14.4712C39.0071 14.4712 40.2273 14.4864 41.2804 14.5168C42.2019 14.537 43.0272 14.456 43.7563 14.2737C44.4853 14.0813 45.0575 13.8332 45.4726 13.5295C45.8878 13.2257 46.1106 12.9168 46.141 12.6029C46.1612 12.3498 46.06 12.1371 45.8372 11.965C45.6144 11.7827 45.3005 11.6916 44.8955 11.6916C44.0854 11.6916 43.2398 12.0561 42.3589 12.7852C41.488 13.5041 40.6982 14.5016 39.9893 15.7775L38.7894 14.8509C39.5894 13.2004 40.5108 11.9093 41.5538 10.9777C42.6069 10.0359 43.6499 9.56507 44.6828 9.56507C45.26 9.56507 45.7815 9.69165 46.2473 9.9448C46.7131 10.1878 47.0776 10.5321 47.3409 10.9777C47.6042 11.4232 47.7358 11.9245 47.7358 12.4814C47.7358 13.3421 47.4726 14.0965 46.946 14.7446C46.4296 15.3825 45.7106 15.8737 44.7891 16.2179C43.8677 16.5622 42.8247 16.7344 41.6602 16.7344H37.6198V14.4712ZM39.7615 13.3624C39.7919 13.008 39.8071 12.6029 39.8071 12.1472C39.8071 11.165 39.7514 10.0309 39.64 8.74486C39.5286 7.45884 39.4223 6.51711 39.321 5.91966L41.2197 5.49437C41.3108 6.04118 41.3918 6.79557 41.4627 7.75756C41.5336 8.71954 41.569 9.70684 41.569 10.7195C41.569 11.3979 41.5437 12.132 41.4931 12.9219L39.7615 13.3624ZM47.719 14.4712H48.0835C49.0759 14.4712 49.8657 14.4307 50.453 14.3497C51.0504 14.2585 51.5112 14.1117 51.8352 13.9092C52.1694 13.7067 52.4175 13.4231 52.5795 13.0586C52.5997 12.7143 52.5035 12.3903 52.2909 12.0865C52.0884 11.7726 51.8099 11.6156 51.4555 11.6156C51.1416 11.6156 50.8682 11.7422 50.6353 11.9953C50.4024 12.2485 50.2707 12.532 50.2404 12.8459C50.2606 13.1092 50.3922 13.3674 50.6353 13.6206C50.8783 13.8636 51.2277 14.0661 51.6833 14.2282C52.139 14.3902 52.6757 14.4712 53.2934 14.4712H55.0553L55.1768 15.6104L55.0553 16.7344H54.144C53.0909 16.7344 52.1441 16.5673 51.3036 16.2331C50.4631 15.899 49.8049 15.4484 49.329 14.8813C48.8531 14.3142 48.6151 13.7016 48.6151 13.0434C48.6151 12.9725 48.6252 12.8459 48.6455 12.6637C48.7366 12.0561 48.924 11.5042 49.2075 11.008C49.5011 10.5017 49.8556 10.1068 50.2707 9.82329C50.6859 9.52963 51.1264 9.3828 51.5922 9.3828C52.1086 9.3828 52.5643 9.54988 52.9592 9.88405C53.3541 10.2182 53.6579 10.6435 53.8706 11.1599C54.0832 11.6764 54.1895 12.2029 54.1895 12.7396C54.1895 12.8611 54.1794 13.0231 54.1592 13.2257C53.987 14.4307 53.3997 15.3167 52.3972 15.8838C51.3947 16.4508 49.9568 16.7344 48.0835 16.7344H47.719V14.4712ZM50.21 6.04118L51.4707 7.31707C51.1973 7.6006 50.9188 7.87907 50.6353 8.15248L50.21 8.57777L49.5872 7.93983L48.9493 7.31707L50.21 6.04118ZM52.8681 6.04118L54.1288 7.31707C53.8554 7.6006 53.5769 7.87907 53.2934 8.15248L52.8681 8.57777L52.2453 7.93983L51.6074 7.31707L52.8681 6.04118ZM54.3181 14.4712H55.1232C55.8523 14.4712 56.3738 14.3902 56.6877 14.2282C57.0117 14.0661 57.1737 13.8231 57.1737 13.4991C57.1737 13.2864 57.0674 12.8713 56.8547 12.2536C56.6421 11.6257 56.475 11.165 56.3535 10.8713L57.9484 9.99037C58.1408 10.4157 58.3382 10.9878 58.5407 11.7067C58.7534 12.4156 58.8597 13.0383 58.8597 13.575C58.8597 14.6079 58.5357 15.3927 57.8876 15.9293C57.2497 16.466 56.3282 16.7344 55.1232 16.7344H54.3181V14.4712ZM55.2143 7.97021L56.6269 6.5728L58.0243 7.97021L57.5534 8.44107C57.2497 8.75498 56.9408 9.06383 56.6269 9.36761L55.2143 7.97021Z" fill="white"/>
</svg>
