<svg width="94" height="46" viewBox="0 0 94 46" fill="none" xmlns="http://www.w3.org/2000/svg">
<path d="M7.48088 20.9496C6.67001 22.7623 6.05436 24.3372 5.63391 25.6744C5.2435 26.9819 5.04829 28.3191 5.04829 29.6861C5.04829 32.1525 5.8141 33.9948 7.34573 35.2132C8.90739 36.4315 11.1748 37.0407 14.148 37.0407C16.5805 37.0407 18.7578 36.6098 20.6799 35.7481C22.6019 34.916 23.9834 33.8611 24.8243 32.5833C24.8543 32.4942 23.9083 32.2119 21.9863 31.7364L19.5987 31.0678C17.2262 30.3844 15.5444 29.5672 14.5534 28.6163C13.5623 27.6654 13.0668 26.3282 13.0668 24.6046C13.0668 22.1977 13.6825 19.8947 14.9138 17.6957C16.1451 15.4968 17.7668 13.7138 19.7789 12.3469C21.7911 10.98 23.9233 10.2965 26.1757 10.2965C27.0767 10.2965 27.9926 10.4302 28.9236 10.6977C29.8546 10.9354 30.5003 11.2326 30.8607 11.5891L28.9687 17.3391C28.6684 17.2203 28.2329 17.1163 27.6623 17.0271C27.0917 16.938 26.5811 16.8934 26.1307 16.8934C24.8994 16.8934 23.7131 17.1609 22.5719 17.6957C21.4607 18.2009 20.5147 18.8844 19.7339 19.7461C18.9531 20.5782 18.4275 21.4845 18.1572 22.4651C18.1272 22.584 18.1122 22.7326 18.1122 22.9109C18.1122 23.416 18.4575 23.8618 19.1483 24.2481C19.869 24.6047 21.2054 25.0058 23.1575 25.4516C25.8904 26.0756 27.7374 26.8631 28.6984 27.814C29.6894 28.7351 30.185 29.8198 30.185 31.0678C30.185 33.2371 29.4792 35.2875 28.0677 37.219C26.6562 39.1505 24.7192 40.6957 22.2566 41.8547C19.824 43.0433 17.1211 43.6376 14.148 43.6376C11.2949 43.6376 8.77225 43.0879 6.57992 41.9884C4.38759 40.8889 2.69079 39.2545 1.48952 37.0853C0.318273 34.9457 -0.162238 32.3753 0.0479857 29.374C0.228177 26.5213 1.24926 23.0594 3.11124 18.9884L7.48088 20.9496Z" fill="black"/>
<path d="M31.9748 40.3837C33.9569 39.5814 35.7738 38.6454 37.4255 37.5756C39.0773 36.5355 40.3687 35.4955 41.2997 34.4554C42.2607 33.4154 42.7412 32.5239 42.7412 31.781C42.7412 30.5627 41.9453 27.2494 40.3537 21.8411L40.1284 20.9496L45.1738 18.9884C45.8945 21.0388 46.4651 23.2377 46.8856 25.5853C47.306 27.9031 47.5163 29.9684 47.5163 31.781C47.5163 34.6932 46.36 37.3824 44.0476 39.8488C41.7351 42.345 38.6268 44.3953 34.7227 46L31.9748 40.3837Z" fill="black"/>
<path d="M56.6907 0C56.991 2.16925 57.2313 5.11111 57.4115 8.82558C57.5917 12.5103 57.6818 15.9276 57.6818 19.0775V20.7713C57.6517 22.2868 57.7268 23.4309 57.907 24.2035C58.0872 24.9761 58.4476 25.5258 58.9882 25.8527C59.5588 26.1796 60.4297 26.343 61.6009 26.343H61.8262L62.1866 29.6861L61.8262 32.9845H61.6009C58.2974 32.9845 55.9099 32.0484 54.4383 30.1764C52.9968 28.3043 52.276 25.4515 52.276 21.6182C52.246 17.9632 52.1259 14.2636 51.9157 10.5194C51.7355 6.74548 51.4652 3.64018 51.1048 1.20348L56.6907 0Z" fill="black"/>
<path d="M86.2968 26.343C87.1677 26.343 87.8585 26.0904 88.369 25.5853C88.8796 25.0801 89.1348 24.4264 89.1348 23.624C89.1348 22.8217 88.8195 21.5439 88.1888 19.7907C87.5882 18.0375 87.0776 16.7003 86.6572 15.7791L91.2521 13.2829C91.8227 14.4419 92.4233 16.1059 93.054 18.2752C93.6847 20.4147 94 22.2868 94 23.8915C94 25.5556 93.6697 27.0859 93.009 28.4826C92.3483 29.8495 91.4323 30.949 90.261 31.781C89.0898 32.5833 87.7684 32.9845 86.2968 32.9845H86.1617V26.343H86.2968ZM74.0889 32.9845V26.343H74.3141C75.8457 26.343 77.032 25.5258 77.8729 23.8915C78.4435 22.7623 78.954 21.0239 79.4045 18.6764L84.0444 18.8992C83.7141 20.8605 83.5489 22.2571 83.5489 23.0892C83.5489 25.2584 84.4649 26.343 86.2968 26.343H86.3869L86.7473 29.6861L86.3869 32.9845H86.2968C84.6751 32.9845 83.3086 32.5536 82.1975 31.6919C81.0863 30.8301 80.3055 29.6118 79.855 28.0368L80.9812 27.9477C79.1492 31.3056 76.8818 32.9845 74.179 32.9845H74.0889ZM61.2052 32.9845L60.8448 29.6861L61.2052 26.343H61.4304C62.3614 26.343 63.2774 26.1499 64.1783 25.7636C65.0793 25.3475 65.755 24.8424 66.2055 24.2481C66.8362 23.5349 67.3167 22.7326 67.647 21.8411C67.9774 20.9496 68.2777 19.9987 68.548 18.9884L73.233 19.4787C73.2029 19.6273 73.0378 20.2216 72.7374 21.2616C72.4371 22.272 72.2869 23.1932 72.2869 24.0252C72.2869 25.5704 72.9176 26.343 74.179 26.343H74.2691L74.6294 29.6861L74.2691 32.9845H74.0438C72.7524 32.9845 71.6263 32.6428 70.6652 31.9593C69.7042 31.2758 69.0285 30.3695 68.6381 29.2403C67.6771 30.4587 66.5659 31.3947 65.3045 32.0484C64.0732 32.6725 62.7518 32.9845 61.3403 32.9845H61.2052Z" fill="black"/>
</svg>
