<svg width="95" height="24" viewBox="0 0 95 24" fill="none" xmlns="http://www.w3.org/2000/svg">
<rect width="94.7254" height="23.1981" rx="11.599" fill="#ED0F10"/>
<path d="M65.9846 6.39053C66.0657 7.19049 66.1821 7.76768 66.334 8.1221C66.4859 8.47651 66.7036 8.65372 66.9871 8.65372C67.1694 8.65372 67.3112 8.55752 67.4124 8.36513C67.5238 8.17273 67.5795 7.89426 67.5795 7.52972C67.5795 7.16518 67.5188 6.72469 67.3972 6.20826L68.9465 5.69183C69.1288 6.36015 69.2199 7.00316 69.2199 7.62085C69.2199 8.56258 69.0174 9.33723 68.6124 9.9448C68.2175 10.5422 67.6808 10.841 67.0023 10.841C66.2732 10.841 65.691 10.441 65.2556 9.64102C64.8303 8.83093 64.567 7.8335 64.4657 6.64875L65.9846 6.39053ZM61.762 6.83102C62.0355 7.53985 62.2785 8.04109 62.4911 8.33475C62.7139 8.61828 63.0177 8.76004 63.4025 8.76004C63.7164 8.76004 63.9746 8.61828 64.1771 8.33475C64.3797 8.05121 64.4809 7.63098 64.4809 7.07404C64.4809 6.89177 64.4758 6.75001 64.4657 6.64875L65.8935 6.5728C65.9036 6.69431 65.9087 6.87658 65.9087 7.11961C65.9087 7.82844 65.8125 8.48158 65.6201 9.07902C65.4277 9.66633 65.1543 10.1372 64.7999 10.4916C64.4455 10.8359 64.0303 11.008 63.5544 11.008C62.805 11.008 62.1772 10.7397 61.6709 10.203C61.1747 9.65621 60.7342 8.83599 60.3495 7.74237L61.762 6.83102ZM61.0026 16.7344C61.0127 16.6534 61.0178 16.5369 61.0178 16.385L61.033 15.5192C61.033 13.8484 60.9418 12.3751 60.7596 11.0992C60.5368 9.44862 60.1571 8.00565 59.6204 6.77026L61.3064 5.75258C61.9342 7.02848 62.3646 8.71448 62.5975 10.8106C62.719 11.8941 62.7797 13.2459 62.7797 14.8661C62.7797 15.6964 62.7696 16.3192 62.7493 16.7344H61.0026ZM72.6178 16.2939C72.1418 16.2939 71.7014 16.1724 71.2963 15.9293C70.8913 15.6863 70.5672 15.3623 70.3242 14.9572C70.0812 14.5522 69.9597 14.1117 69.9597 13.6358C69.9597 13.1598 70.0812 12.7194 70.3242 12.3143C70.5672 11.8991 70.8913 11.5751 71.2963 11.3422C71.7014 11.0992 72.1418 10.9777 72.6178 10.9777C73.1038 10.9777 73.5494 11.0992 73.9544 11.3422C74.3696 11.5751 74.6987 11.8941 74.9417 12.2991C75.1848 12.7042 75.3063 13.1497 75.3063 13.6358C75.3063 14.1117 75.1848 14.5522 74.9417 14.9572C74.6987 15.3623 74.3696 15.6863 73.9544 15.9293C73.5494 16.1724 73.1038 16.2939 72.6178 16.2939ZM72.6178 14.6383C72.8912 14.6383 73.119 14.5421 73.3013 14.3497C73.4937 14.1573 73.5899 13.9193 73.5899 13.6358C73.5899 13.3522 73.4937 13.1193 73.3013 12.9371C73.119 12.7447 72.8912 12.6485 72.6178 12.6485C72.3545 12.6485 72.1267 12.7447 71.9343 12.9371C71.752 13.1295 71.6609 13.3624 71.6609 13.6358C71.6609 13.9193 71.752 14.1573 71.9343 14.3497C72.1267 14.5421 72.3545 14.6383 72.6178 14.6383ZM79.3353 16.2939C78.8594 16.2939 78.4189 16.1724 78.0138 15.9293C77.6088 15.6863 77.2847 15.3623 77.0417 14.9572C76.7987 14.5522 76.6772 14.1117 76.6772 13.6358C76.6772 13.1598 76.7987 12.7194 77.0417 12.3143C77.2847 11.8991 77.6088 11.5751 78.0138 11.3422C78.4189 11.0992 78.8594 10.9777 79.3353 10.9777C79.8213 10.9777 80.2669 11.0992 80.6719 11.3422C81.0871 11.5751 81.4162 11.8941 81.6592 12.2991C81.9023 12.7042 82.0238 13.1497 82.0238 13.6358C82.0238 14.1117 81.9023 14.5522 81.6592 14.9572C81.4162 15.3623 81.0871 15.6863 80.6719 15.9293C80.2669 16.1724 79.8213 16.2939 79.3353 16.2939ZM79.3353 14.6383C79.6087 14.6383 79.8365 14.5421 80.0188 14.3497C80.2112 14.1573 80.3074 13.9193 80.3074 13.6358C80.3074 13.3522 80.2112 13.1193 80.0188 12.9371C79.8365 12.7447 79.6087 12.6485 79.3353 12.6485C79.072 12.6485 78.8442 12.7447 78.6518 12.9371C78.4695 13.1295 78.3784 13.3624 78.3784 13.6358C78.3784 13.9193 78.4695 14.1573 78.6518 14.3497C78.8442 14.5421 79.072 14.6383 79.3353 14.6383ZM86.0528 16.2939C85.5769 16.2939 85.1364 16.1724 84.7313 15.9293C84.3263 15.6863 84.0022 15.3623 83.7592 14.9572C83.5162 14.5522 83.3947 14.1117 83.3947 13.6358C83.3947 13.1598 83.5162 12.7194 83.7592 12.3143C84.0022 11.8991 84.3263 11.5751 84.7313 11.3422C85.1364 11.0992 85.5769 10.9777 86.0528 10.9777C86.5388 10.9777 86.9844 11.0992 87.3894 11.3422C87.8046 11.5751 88.1337 11.8941 88.3767 12.2991C88.6198 12.7042 88.7413 13.1497 88.7413 13.6358C88.7413 14.1117 88.6198 14.5522 88.3767 14.9572C88.1337 15.3623 87.8046 15.6863 87.3894 15.9293C86.9844 16.1724 86.5388 16.2939 86.0528 16.2939ZM86.0528 14.6383C86.3262 14.6383 86.554 14.5421 86.7363 14.3497C86.9287 14.1573 87.0249 13.9193 87.0249 13.6358C87.0249 13.3522 86.9287 13.1193 86.7363 12.9371C86.554 12.7447 86.3262 12.6485 86.0528 12.6485C85.7895 12.6485 85.5617 12.7447 85.3693 12.9371C85.187 13.1295 85.0959 13.3624 85.0959 13.6358C85.0959 13.9193 85.187 14.1573 85.3693 14.3497C85.5617 14.5421 85.7895 14.6383 86.0528 14.6383Z" fill="white"/>
<path d="M9.06186 11.1144C7.92773 12.0662 7.3556 12.8611 7.34548 13.4991C7.32522 13.8434 7.44167 14.1117 7.69483 14.3041C7.94798 14.4965 8.32771 14.5927 8.83402 14.5927C9.23906 14.5927 9.57323 14.5168 9.8365 14.3649C10.1099 14.213 10.2719 14.0155 10.3226 13.7725C10.2213 13.2763 9.87701 12.7548 9.28969 12.208C8.7125 11.6511 7.85178 11.0182 6.70753 10.3093L7.86191 8.59296C9.19856 9.40305 10.2061 10.2233 10.8846 11.0536C11.563 11.8738 11.9022 12.7447 11.9022 13.6662C11.9022 14.2839 11.7605 14.8307 11.4769 15.3066C11.2035 15.7724 10.8238 16.1369 10.3377 16.4002C9.86182 16.6635 9.32514 16.7951 8.72769 16.7951C7.78596 16.7951 7.05182 16.547 6.52526 16.0509C6.00883 15.5446 5.75061 14.8914 5.75061 14.0915C5.75061 13.7674 5.79618 13.4333 5.88731 13.089C6.0392 12.4611 6.29742 11.884 6.66196 11.3574C7.03663 10.8207 7.50243 10.284 8.05937 9.74734L9.06186 11.1144ZM10.4655 19.2558C11.1338 18.9824 11.7465 18.6634 12.3034 18.2989C12.8603 17.9444 13.2958 17.59 13.6097 17.2356C13.9337 16.8812 14.0957 16.5774 14.0957 16.3243C14.0957 15.9091 13.8274 14.78 13.2907 12.9371L13.2148 12.6333L14.916 11.965C15.159 12.6637 15.3514 13.413 15.4931 14.213C15.6349 15.0028 15.7058 15.7066 15.7058 16.3243C15.7058 17.3166 15.3159 18.233 14.5362 19.0735C13.7565 19.9241 12.7085 20.6228 11.3921 21.1696L10.4655 19.2558ZM16.7608 16.6432C16.8621 15.9749 16.9127 14.942 16.9127 13.5446C16.9127 12.1472 16.8671 10.684 16.776 9.15496C16.695 7.61579 16.5988 6.53736 16.4874 5.91966L18.3861 5.47918C18.4772 6.06649 18.5582 7.0943 18.6291 8.56258C18.7 10.0309 18.7354 11.4738 18.7354 12.8915C18.7354 14.6433 18.6746 15.9597 18.5531 16.8407L16.7608 16.6432ZM20.1903 14.0003C20.5549 14.1826 20.9295 14.3395 21.3143 14.4712C21.6991 14.6028 22.17 14.6686 22.7269 14.6686C23.2737 14.6585 23.7193 14.5978 24.0636 14.4864C24.418 14.3649 24.6509 14.2332 24.7623 14.0915C24.7724 14.0712 24.7775 14.0307 24.7775 13.9699C24.7775 13.7573 24.6813 13.4788 24.4889 13.1345C24.3066 12.7801 23.9775 12.3649 23.5016 11.889C23.0358 11.403 22.4079 10.8916 21.6181 10.3549L22.7117 8.36513C23.8864 9.19547 24.8129 10.1018 25.4914 11.084C26.1799 12.0662 26.5242 13.0029 26.5242 13.894C26.5242 14.3193 26.4432 14.7091 26.2812 15.0636C26.0382 15.6306 25.6078 16.0661 24.9901 16.3698C24.3724 16.6635 23.6889 16.8103 22.9396 16.8103C22.0586 16.8103 21.3245 16.6787 20.7371 16.4154C20.1498 16.142 19.6941 15.8686 19.3701 15.5952L20.1903 14.0003ZM35.2483 8.44107C35.4812 10.6081 35.6432 12.0358 35.7344 12.7244C35.7951 13.2307 35.866 13.6054 35.947 13.8484C36.0382 14.0915 36.1647 14.2585 36.3268 14.3497C36.4989 14.4307 36.747 14.4712 37.071 14.4712H37.3292L37.4508 15.6104L37.3292 16.7344H37.071C36.1698 16.7344 35.4762 16.4508 34.9901 15.8838C34.5142 15.3066 34.1952 14.3547 34.0332 13.0282L33.9269 12.2232L33.4864 8.8208L35.2483 8.44107ZM35.0205 15.6863C34.3724 15.899 33.7395 16.0053 33.1218 16.0053C32.2105 16.0053 31.4612 15.7876 30.8738 15.3522C30.2966 14.9066 30.0081 14.3041 30.0081 13.5446C30.0081 12.613 30.3726 11.8283 31.1017 11.1903C31.8409 10.5524 32.8181 10.0106 34.0332 9.56507L34.4585 11.5397C33.78 11.7017 33.1522 11.9397 32.575 12.2536C32.008 12.5573 31.7092 12.8459 31.6789 13.1193C31.6586 13.3421 31.77 13.5295 32.013 13.6813C32.2561 13.8231 32.5902 13.894 33.0155 13.894C33.5117 13.894 34.0332 13.7826 34.58 13.5598L35.0205 15.6863ZM44.503 14.5168L45.9004 14.5016C46.5688 14.4813 47.0497 14.4712 47.3434 14.4712L47.4649 15.6104L47.3434 16.7344C46.0776 16.7344 45.0853 16.6939 44.3663 16.6129C43.6575 16.5217 43.1259 16.3445 42.7715 16.0812L44.0322 14.5168H44.503ZM36.6198 14.4712C38.0071 14.4712 39.2273 14.4864 40.2804 14.5168C41.2019 14.537 42.0272 14.456 42.7563 14.2737C43.4853 14.0813 44.0575 13.8332 44.4726 13.5295C44.8878 13.2257 45.1106 12.9168 45.141 12.6029C45.1612 12.3498 45.06 12.1371 44.8372 11.965C44.6144 11.7827 44.3005 11.6916 43.8955 11.6916C43.0854 11.6916 42.2398 12.0561 41.3589 12.7852C40.488 13.5041 39.6982 14.5016 38.9893 15.7775L37.7894 14.8509C38.5894 13.2004 39.5108 11.9093 40.5538 10.9777C41.6069 10.0359 42.6499 9.56507 43.6828 9.56507C44.26 9.56507 44.7815 9.69165 45.2473 9.9448C45.7131 10.1878 46.0776 10.5321 46.3409 10.9777C46.6042 11.4232 46.7358 11.9245 46.7358 12.4814C46.7358 13.3421 46.4726 14.0965 45.946 14.7446C45.4296 15.3825 44.7106 15.8737 43.7891 16.2179C42.8677 16.5622 41.8247 16.7344 40.6602 16.7344H36.6198V14.4712ZM38.7615 13.3624C38.7919 13.008 38.8071 12.6029 38.8071 12.1472C38.8071 11.165 38.7514 10.0309 38.64 8.74486C38.5286 7.45884 38.4223 6.51711 38.321 5.91966L40.2197 5.49437C40.3108 6.04118 40.3918 6.79557 40.4627 7.75756C40.5336 8.71954 40.569 9.70684 40.569 10.7195C40.569 11.3979 40.5437 12.132 40.4931 12.9219L38.7615 13.3624ZM46.719 14.4712H47.0835C48.0759 14.4712 48.8657 14.4307 49.453 14.3497C50.0504 14.2585 50.5112 14.1117 50.8352 13.9092C51.1694 13.7067 51.4175 13.4231 51.5795 13.0586C51.5997 12.7143 51.5035 12.3903 51.2909 12.0865C51.0884 11.7726 50.8099 11.6156 50.4555 11.6156C50.1416 11.6156 49.8682 11.7422 49.6353 11.9953C49.4024 12.2485 49.2707 12.532 49.2404 12.8459C49.2606 13.1092 49.3922 13.3674 49.6353 13.6206C49.8783 13.8636 50.2277 14.0661 50.6833 14.2282C51.139 14.3902 51.6757 14.4712 52.2934 14.4712H54.0553L54.1768 15.6104L54.0553 16.7344H53.144C52.0909 16.7344 51.1441 16.5673 50.3036 16.2331C49.4631 15.899 48.8049 15.4484 48.329 14.8813C47.8531 14.3142 47.6151 13.7016 47.6151 13.0434C47.6151 12.9725 47.6252 12.8459 47.6455 12.6637C47.7366 12.0561 47.924 11.5042 48.2075 11.008C48.5011 10.5017 48.8556 10.1068 49.2707 9.82329C49.6859 9.52963 50.1264 9.3828 50.5922 9.3828C51.1086 9.3828 51.5643 9.54988 51.9592 9.88405C52.3541 10.2182 52.6579 10.6435 52.8706 11.1599C53.0832 11.6764 53.1895 12.2029 53.1895 12.7396C53.1895 12.8611 53.1794 13.0231 53.1592 13.2257C52.987 14.4307 52.3997 15.3167 51.3972 15.8838C50.3947 16.4508 48.9568 16.7344 47.0835 16.7344H46.719V14.4712ZM49.21 6.04118L50.4707 7.31707C50.1973 7.6006 49.9188 7.87907 49.6353 8.15248L49.21 8.57777L48.5872 7.93983L47.9493 7.31707L49.21 6.04118ZM51.8681 6.04118L53.1288 7.31707C52.8554 7.6006 52.5769 7.87907 52.2934 8.15248L51.8681 8.57777L51.2453 7.93983L50.6074 7.31707L51.8681 6.04118ZM53.3181 14.4712H54.1232C54.8523 14.4712 55.3738 14.3902 55.6877 14.2282C56.0117 14.0661 56.1737 13.8231 56.1737 13.4991C56.1737 13.2864 56.0674 12.8713 55.8547 12.2536C55.6421 11.6257 55.475 11.165 55.3535 10.8713L56.9484 9.99037C57.1408 10.4157 57.3382 10.9878 57.5407 11.7067C57.7534 12.4156 57.8597 13.0383 57.8597 13.575C57.8597 14.6079 57.5357 15.3927 56.8876 15.9293C56.2497 16.466 55.3282 16.7344 54.1232 16.7344H53.3181V14.4712ZM54.2143 7.97021L55.6269 6.5728L57.0243 7.97021L56.5534 8.44107C56.2497 8.75498 55.9408 9.06383 55.6269 9.36761L54.2143 7.97021Z" fill="white"/>
</svg>
