<svg width="95" height="24" viewBox="0 0 95 24" fill="none" xmlns="http://www.w3.org/2000/svg">
<rect width="94.7254" height="23.1981" rx="11.599" fill="#ED0F10"/>
<path d="M65.4049 5.65615C65.4859 6.45612 65.6024 7.03331 65.7543 7.38772C65.9062 7.74214 66.1239 7.91935 66.4074 7.91935C66.5897 7.91935 66.7314 7.82315 66.8327 7.63075C66.9441 7.43835 66.9998 7.15988 66.9998 6.79534C66.9998 6.4308 66.939 5.99032 66.8175 5.47388L68.3668 4.95745C68.5491 5.62578 68.6402 6.26879 68.6402 6.88648C68.6402 7.82821 68.4377 8.60286 68.0326 9.21043C67.6377 9.80787 67.101 10.1066 66.4226 10.1066C65.6935 10.1066 65.1113 9.70661 64.6758 8.90664C64.2505 8.09655 63.9872 7.09913 63.886 5.91437L65.4049 5.65615ZM61.1823 6.09664C61.4557 6.80547 61.6987 7.30671 61.9114 7.60037C62.1342 7.8839 62.438 8.02567 62.8227 8.02567C63.1367 8.02567 63.3949 7.8839 63.5974 7.60037C63.7999 7.31684 63.9012 6.89661 63.9012 6.33967C63.9012 6.1574 63.8961 6.01563 63.886 5.91437L65.3138 5.83842C65.3239 5.95994 65.329 6.14221 65.329 6.38524C65.329 7.09407 65.2328 7.7472 65.0404 8.34464C64.848 8.93196 64.5746 9.40282 64.2202 9.75724C63.8657 10.1015 63.4506 10.2737 62.9746 10.2737C62.2253 10.2737 61.5975 10.0053 61.0912 9.46864C60.595 8.92183 60.1545 8.10162 59.7697 7.00799L61.1823 6.09664ZM60.4229 16C60.433 15.919 60.438 15.8025 60.438 15.6506L60.4532 14.7849C60.4532 13.1141 60.3621 11.6407 60.1798 10.3648C59.957 8.71425 59.5773 7.27127 59.0406 6.03588L60.7266 5.01821C61.3545 6.2941 61.7848 7.9801 62.0177 10.0762C62.1392 11.1597 62.2 12.5115 62.2 14.1317C62.2 14.9621 62.1899 15.5848 62.1696 16H60.4229ZM71.6279 6.64345C71.9317 7.76745 72.4178 8.57754 73.0861 9.07372C73.7645 9.55978 74.5392 9.80281 75.41 9.80281C75.8657 9.80281 76.3265 9.74711 76.7923 9.63572C77.2581 9.52434 77.6884 9.37751 78.0833 9.19524L78.5542 11.185C77.653 11.6306 76.7821 11.8533 75.9417 11.8533C75.2227 11.8533 74.5848 11.7015 74.0278 11.3977C73.4709 11.0939 73.0304 10.704 72.7064 10.2281C72.3925 9.75218 72.2152 9.26106 72.1747 8.75475C72.1342 8.12693 72.2558 7.52443 72.5393 6.94724C72.8329 6.37005 73.2431 5.90424 73.7696 5.54983C74.3063 5.19541 74.8885 5.01821 75.5164 5.01821C76.4277 5.01821 77.3644 5.40806 78.3264 6.18778L77.5669 7.73707C76.8682 7.44342 76.2505 7.29659 75.7138 7.29659C75.167 7.29659 74.7113 7.4181 74.3468 7.66113C73.9924 7.89403 73.8152 8.19781 73.8152 8.57248C73.8152 8.88639 73.9873 9.1598 74.3316 9.3927C74.686 9.6256 75.1569 9.74205 75.7442 9.74205C76.4328 9.74205 77.2125 9.55978 78.0833 9.19524L78.5542 11.185C78.1087 11.4078 77.6125 11.5901 77.0657 11.7318C76.5189 11.8736 75.967 11.9445 75.41 11.9445C74.286 11.9445 73.2582 11.6154 72.3266 10.9572C71.4052 10.299 70.7014 9.21549 70.2153 7.7067L71.6279 6.64345ZM70.7014 16C70.7115 15.7266 70.7166 15.3215 70.7166 14.7849C70.7166 13.1546 70.6305 11.6812 70.4584 10.3648C70.2356 8.71425 69.8559 7.27127 69.3192 6.03588L71.0052 5.01821C71.633 6.2941 72.0634 7.9801 72.2963 10.0762C72.4178 11.2913 72.4785 12.6432 72.4785 14.1317C72.4785 14.5469 72.4684 15.1697 72.4482 16H70.7014ZM81.915 15.5595C81.4391 15.5595 80.9986 15.438 80.5936 15.195C80.1885 14.9519 79.8645 14.6279 79.6215 14.2229C79.3784 13.8178 79.2569 13.3773 79.2569 12.9014C79.2569 12.4255 79.3784 11.985 79.6215 11.5799C79.8645 11.1648 80.1885 10.8407 80.5936 10.6078C80.9986 10.3648 81.4391 10.2433 81.915 10.2433C82.4011 10.2433 82.8466 10.3648 83.2517 10.6078C83.6668 10.8407 83.9959 11.1597 84.239 11.5648C84.482 11.9698 84.6035 12.4153 84.6035 12.9014C84.6035 13.3773 84.482 13.8178 84.239 14.2229C83.9959 14.6279 83.6668 14.9519 83.2517 15.195C82.8466 15.438 82.4011 15.5595 81.915 15.5595ZM81.915 13.9039C82.1884 13.9039 82.4163 13.8077 82.5985 13.6153C82.7909 13.4229 82.8871 13.1849 82.8871 12.9014C82.8871 12.6179 82.7909 12.385 82.5985 12.2027C82.4163 12.0103 82.1884 11.9141 81.915 11.9141C81.6517 11.9141 81.4239 12.0103 81.2315 12.2027C81.0492 12.3951 80.9581 12.628 80.9581 12.9014C80.9581 13.1849 81.0492 13.4229 81.2315 13.6153C81.4239 13.8077 81.6517 13.9039 81.915 13.9039ZM88.6325 15.5595C88.1566 15.5595 87.7161 15.438 87.3111 15.195C86.906 14.9519 86.582 14.6279 86.339 14.2229C86.0959 13.8178 85.9744 13.3773 85.9744 12.9014C85.9744 12.4255 86.0959 11.985 86.339 11.5799C86.582 11.1648 86.906 10.8407 87.3111 10.6078C87.7161 10.3648 88.1566 10.2433 88.6325 10.2433C89.1186 10.2433 89.5641 10.3648 89.9692 10.6078C90.3843 10.8407 90.7134 11.1597 90.9565 11.5648C91.1995 11.9698 91.321 12.4153 91.321 12.9014C91.321 13.3773 91.1995 13.8178 90.9565 14.2229C90.7134 14.6279 90.3843 14.9519 89.9692 15.195C89.5641 15.438 89.1186 15.5595 88.6325 15.5595ZM88.6325 13.9039C88.9059 13.9039 89.1338 13.8077 89.316 13.6153C89.5084 13.4229 89.6046 13.1849 89.6046 12.9014C89.6046 12.6179 89.5084 12.385 89.316 12.2027C89.1338 12.0103 88.9059 11.9141 88.6325 11.9141C88.3692 11.9141 88.1414 12.0103 87.949 12.2027C87.7667 12.3951 87.6756 12.628 87.6756 12.9014C87.6756 13.1849 87.7667 13.4229 87.949 13.6153C88.1414 13.8077 88.3692 13.9039 88.6325 13.9039Z" fill="white"/>
<path d="M8.06186 10.38C6.92773 11.3319 6.3556 12.1268 6.34548 12.7647C6.32522 13.109 6.44167 13.3773 6.69483 13.5697C6.94798 13.7621 7.32771 13.8583 7.83402 13.8583C8.23906 13.8583 8.57323 13.7824 8.8365 13.6305C9.10991 13.4786 9.27193 13.2811 9.32256 13.0381C9.2213 12.5419 8.87701 12.0204 8.28969 11.4736C7.7125 10.9167 6.85178 10.2838 5.70753 9.57497L6.86191 7.85859C8.19856 8.66868 9.20611 9.4889 9.88456 10.3192C10.563 11.1395 10.9022 12.0103 10.9022 12.9318C10.9022 13.5495 10.7605 14.0963 10.4769 14.5722C10.2035 15.038 9.8238 15.4026 9.33775 15.6658C8.86182 15.9291 8.32514 16.0608 7.72769 16.0608C6.78596 16.0608 6.05182 15.8127 5.52526 15.3165C5.00883 14.8102 4.75061 14.157 4.75061 13.3571C4.75061 13.033 4.79618 12.6989 4.88731 12.3546C5.0392 11.7268 5.29742 11.1496 5.66196 10.623C6.03663 10.0863 6.50243 9.54965 7.05937 9.01297L8.06186 10.38ZM9.46551 18.5214C10.1338 18.248 10.7465 17.929 11.3034 17.5645C11.8603 17.2101 12.2958 16.8557 12.6097 16.5012C12.9337 16.1468 13.0957 15.843 13.0957 15.5899C13.0957 15.1747 12.8274 14.0457 12.2907 12.2027L12.2148 11.8989L13.916 11.2306C14.159 11.9293 14.3514 12.6786 14.4931 13.4786C14.6349 14.2684 14.7058 14.9722 14.7058 15.5899C14.7058 16.5823 14.3159 17.4987 13.5362 18.3391C12.7565 19.1897 11.7085 19.8884 10.3921 20.4352L9.46551 18.5214ZM15.7608 15.9089C15.8621 15.2405 15.9127 14.2077 15.9127 12.8103C15.9127 11.4129 15.8671 9.94963 15.776 8.42059C15.695 6.88142 15.5988 5.80298 15.4874 5.18529L17.3861 4.7448C17.4772 5.33212 17.5582 6.35992 17.6291 7.82821C17.7 9.2965 17.7354 10.7395 17.7354 12.1571C17.7354 13.909 17.6746 15.2254 17.5531 16.1063L15.7608 15.9089ZM19.1903 13.2659C19.5549 13.4482 19.9295 13.6052 20.3143 13.7368C20.6991 13.8684 21.17 13.9343 21.7269 13.9343C22.2737 13.9241 22.7193 13.8634 23.0636 13.752C23.418 13.6305 23.6509 13.4988 23.7623 13.3571C23.7724 13.3368 23.7775 13.2963 23.7775 13.2356C23.7775 13.0229 23.6813 12.7444 23.4889 12.4002C23.3066 12.0457 22.9775 11.6306 22.5016 11.1546C22.0358 10.6686 21.4079 10.1572 20.6181 9.62054L21.7117 7.63075C22.8864 8.46109 23.8129 9.36738 24.4914 10.3496C25.1799 11.3319 25.5242 12.2685 25.5242 13.1596C25.5242 13.5849 25.4432 13.9748 25.2812 14.3292C25.0382 14.8963 24.6078 15.3317 23.9901 15.6355C23.3724 15.9291 22.6889 16.0759 21.9396 16.0759C21.0586 16.0759 20.3245 15.9443 19.7371 15.681C19.1498 15.4076 18.6941 15.1342 18.3701 14.8608L19.1903 13.2659ZM34.2483 7.7067C34.4812 9.87369 34.6432 11.3015 34.7344 11.9901C34.7951 12.4964 34.866 12.871 34.947 13.1141C35.0382 13.3571 35.1647 13.5242 35.3268 13.6153C35.4989 13.6963 35.747 13.7368 36.071 13.7368H36.3292L36.4508 14.876L36.3292 16H36.071C35.1698 16 34.4762 15.7165 33.9901 15.1494C33.5142 14.5722 33.1952 13.6204 33.0332 12.2938L32.9269 11.4888L32.4864 8.08643L34.2483 7.7067ZM34.0205 14.9519C33.3724 15.1646 32.7395 15.2709 32.1218 15.2709C31.2105 15.2709 30.4612 15.0532 29.8738 14.6178C29.2966 14.1722 29.0081 13.5697 29.0081 12.8103C29.0081 11.8787 29.3726 11.0939 30.1017 10.4559C30.8409 9.818 31.8181 9.27625 33.0332 8.8307L33.4585 10.8053C32.78 10.9673 32.1522 11.2053 31.575 11.5192C31.008 11.823 30.7092 12.1116 30.6789 12.385C30.6586 12.6077 30.77 12.7951 31.013 12.947C31.2561 13.0887 31.5902 13.1596 32.0155 13.1596C32.5117 13.1596 33.0332 13.0482 33.58 12.8255L34.0205 14.9519ZM43.503 13.7824L44.9004 13.7672C45.5688 13.7469 46.0497 13.7368 46.3434 13.7368L46.4649 14.876L46.3434 16C45.0776 16 44.0853 15.9595 43.3663 15.8785C42.6575 15.7874 42.1259 15.6101 41.7715 15.3469L43.0322 13.7824H43.503ZM35.6198 13.7368C37.0071 13.7368 38.2273 13.752 39.2804 13.7824C40.2019 13.8026 41.0272 13.7216 41.7563 13.5393C42.4853 13.347 43.0575 13.0989 43.4726 12.7951C43.8878 12.4913 44.1106 12.1824 44.141 11.8685C44.1612 11.6154 44.06 11.4027 43.8372 11.2306C43.6144 11.0483 43.3005 10.9572 42.8955 10.9572C42.0854 10.9572 41.2398 11.3217 40.3589 12.0508C39.488 12.7698 38.6982 13.7672 37.9893 15.0431L36.7894 14.1165C37.5894 12.466 38.5108 11.1749 39.5538 10.2433C40.6069 9.30156 41.6499 8.8307 42.6828 8.8307C43.26 8.8307 43.7815 8.95727 44.2473 9.21043C44.7131 9.45345 45.0776 9.79774 45.3409 10.2433C45.6042 10.6888 45.7358 11.1901 45.7358 11.747C45.7358 12.6077 45.4726 13.3621 44.946 14.0102C44.4296 14.6482 43.7106 15.1393 42.7891 15.4836C41.8677 15.8279 40.8247 16 39.6602 16H35.6198V13.7368ZM37.7615 12.628C37.7919 12.2736 37.8071 11.8685 37.8071 11.4129C37.8071 10.4306 37.7514 9.2965 37.64 8.01048C37.5286 6.72446 37.4223 5.78273 37.321 5.18529L39.2197 4.75999C39.3108 5.3068 39.3918 6.0612 39.4627 7.02318C39.5336 7.98516 39.569 8.97246 39.569 9.98508C39.569 10.6635 39.5437 11.3977 39.4931 12.1875L37.7615 12.628ZM45.719 13.7368H46.0835C47.0759 13.7368 47.8657 13.6963 48.453 13.6153C49.0504 13.5242 49.5112 13.3773 49.8352 13.1748C50.1694 12.9723 50.4175 12.6888 50.5795 12.3242C50.5997 11.9799 50.5035 11.6559 50.2909 11.3521C50.0884 11.0382 49.8099 10.8812 49.4555 10.8812C49.1416 10.8812 48.8682 11.0078 48.6353 11.261C48.4024 11.5141 48.2707 11.7977 48.2404 12.1116C48.2606 12.3748 48.3922 12.6331 48.6353 12.8862C48.8783 13.1292 49.2277 13.3318 49.6833 13.4938C50.139 13.6558 50.6757 13.7368 51.2934 13.7368H53.0553L53.1768 14.876L53.0553 16H52.144C51.0909 16 50.1441 15.8329 49.3036 15.4988C48.4631 15.1646 47.8049 14.714 47.329 14.1469C46.8531 13.5799 46.6151 12.9672 46.6151 12.309C46.6151 12.2381 46.6252 12.1116 46.6455 11.9293C46.7366 11.3217 46.924 10.7699 47.2075 10.2737C47.5011 9.76736 47.8556 9.37245 48.2707 9.08891C48.6859 8.79526 49.1264 8.64843 49.5922 8.64843C50.1086 8.64843 50.5643 8.81551 50.9592 9.14967C51.3541 9.48383 51.6579 9.90913 51.8706 10.4256C52.0832 10.942 52.1895 11.4686 52.1895 12.0052C52.1895 12.1268 52.1794 12.2888 52.1592 12.4913C51.987 13.6963 51.3997 14.5823 50.3972 15.1494C49.3947 15.7165 47.9568 16 46.0835 16H45.719V13.7368ZM48.21 5.3068L49.4707 6.5827C49.1973 6.86623 48.9188 7.1447 48.6353 7.4181L48.21 7.8434L47.5872 7.20545L46.9493 6.5827L48.21 5.3068ZM50.8681 5.3068L52.1288 6.5827C51.8554 6.86623 51.5769 7.1447 51.2934 7.4181L50.8681 7.8434L50.2453 7.20545L49.6074 6.5827L50.8681 5.3068ZM52.3181 13.7368H53.1232C53.8523 13.7368 54.3738 13.6558 54.6877 13.4938C55.0117 13.3318 55.1737 13.0887 55.1737 12.7647C55.1737 12.5521 55.0674 12.1369 54.8547 11.5192C54.6421 10.8914 54.475 10.4306 54.3535 10.137L55.9484 9.25599C56.1408 9.68129 56.3382 10.2534 56.5407 10.9724C56.7534 11.6812 56.8597 12.304 56.8597 12.8406C56.8597 13.8735 56.5357 14.6583 55.8876 15.195C55.2497 15.7317 54.3282 16 53.1232 16H52.3181V13.7368ZM53.2143 7.23583L54.6269 5.83842L56.0243 7.23583L55.5534 7.7067C55.2497 8.02061 54.9408 8.32945 54.6269 8.63324L53.2143 7.23583Z" fill="white"/>
</svg>
