<svg width="94" height="48" viewBox="0 0 94 48" fill="none" xmlns="http://www.w3.org/2000/svg">
<path d="M0 41.654C2.02339 40.8274 3.87817 39.863 5.56433 38.7608C7.25048 37.6892 8.56875 36.6176 9.51913 35.546C10.5002 34.4744 10.9907 33.5559 10.9907 32.7905C10.9907 31.5352 10.1783 28.1215 8.55342 22.5492L8.32349 21.6307L13.4739 19.61C14.2097 21.7225 14.7922 23.9882 15.2214 26.4069C15.6506 28.795 15.8652 30.9229 15.8652 32.7905C15.8652 35.7909 14.6849 38.5617 12.3243 41.1029C9.96366 43.6747 6.79062 45.7873 2.80515 47.4406L0 41.654Z" fill="black"/>
<path d="M20.3563 33.7549C20.6628 31.7342 20.8161 28.6113 20.8161 24.3862C20.8161 20.1611 20.6782 15.737 20.4022 11.1139C20.157 6.46012 19.8657 3.19944 19.5285 1.33182L25.2768 0C25.5527 1.77577 25.7979 4.88336 26.0125 9.32278C26.2272 13.7622 26.3345 18.1251 26.3345 22.4114C26.3345 27.7081 26.1505 31.6883 25.7826 34.3519L20.3563 33.7549Z" fill="black"/>
<path d="M42.94 34.0305C40.8553 34.0305 39.1691 33.2651 37.8815 31.7342C36.5939 30.2034 35.5209 28.0602 34.6625 25.3047L38.8012 22.7788C39.2304 24.4015 39.7516 25.5496 40.3647 26.2232C40.9779 26.8662 41.8363 27.1876 42.94 27.1876H43.3538L43.7217 30.632L43.3538 34.0305H42.94ZM24.4075 41.654C26.4309 40.8274 28.2857 39.863 29.9719 38.7608C31.658 37.6892 32.9763 36.6176 33.9267 35.546C34.9077 34.4744 35.3982 33.5559 35.3982 32.7905C35.3982 31.5352 34.5858 28.1215 32.961 22.5492L32.731 21.6307L37.8815 19.61C38.6173 21.7225 39.1997 23.9882 39.629 26.4069C40.0582 28.795 40.2728 30.9229 40.2728 32.7905C40.2728 35.7909 39.0924 38.5617 36.7318 41.1029C34.3712 43.6747 31.1982 45.7873 27.2127 47.4406L24.4075 41.654Z" fill="black"/>
<path d="M42.6236 27.1876H42.9455C45.7047 27.1876 47.7588 27.0499 49.1077 26.7743C50.4566 26.4681 51.3457 26.0242 51.7749 25.4425C52.2041 24.8608 52.4187 24.0188 52.4187 22.9166C52.4187 22.0287 52.2654 20.5744 51.9588 18.5537L56.6954 17.6352C57.1246 19.8702 57.3392 22.3961 57.3392 25.2128C57.4618 25.7333 57.7991 26.1926 58.3509 26.5906C58.9027 26.9886 59.6998 27.1876 60.7422 27.1876H61.0181L61.386 30.632L61.0181 34.0305H60.7422C59.3319 34.0305 58.029 33.6478 56.8334 32.8824C55.6377 32.0863 54.7027 31.0913 54.0282 29.8972L55.1779 30.1268C54.3501 31.5352 53.0012 32.5456 51.1311 33.1579C49.2916 33.7396 46.5631 34.0305 42.9455 34.0305H42.6236V27.1876Z" fill="black"/>
<path d="M85.9687 27.1876C86.8577 27.1876 87.5628 26.9274 88.084 26.4069C88.6052 25.8864 88.8658 25.2129 88.8658 24.3862C88.8658 23.5595 88.5439 22.243 87.9001 20.4366C87.2869 18.6302 86.7658 17.2525 86.3365 16.3034L91.0271 13.7316C91.6096 14.9257 92.2228 16.6402 92.8666 18.8752C93.5104 21.0796 93.8323 23.0085 93.8323 24.6618C93.8323 26.3763 93.4951 27.9531 92.8206 29.392C92.1461 30.8004 91.2111 31.9332 90.0154 32.7905C88.8198 33.6171 87.4709 34.0305 85.9687 34.0305H85.8307V27.1876H85.9687ZM73.5064 34.0305V27.1876H73.7364C75.2999 27.1876 76.5108 26.3457 77.3692 24.6618C77.9517 23.4983 78.4729 21.7072 78.9328 19.2885L83.6693 19.5182C83.3321 21.5389 83.1635 22.9779 83.1635 23.8351C83.1635 26.0701 84.0986 27.1876 85.9687 27.1876H86.0606L86.4285 30.632L86.0606 34.0305H85.9687C84.3132 34.0305 82.9182 33.5865 81.7839 32.6986C80.6496 31.8108 79.8525 30.5555 79.3926 28.9328L80.5423 28.8409C78.6722 32.3006 76.3575 34.0305 73.5984 34.0305H73.5064ZM60.3544 34.0305L59.9865 30.632L60.3544 27.1876H60.5843C61.5347 27.1876 62.4697 26.9886 63.3895 26.5906C64.3092 26.162 64.999 25.6415 65.4588 25.0292C66.1026 24.2944 66.5932 23.4677 66.9304 22.5492C67.2676 21.6307 67.5742 20.651 67.8501 19.61L72.6327 20.1152C72.602 20.2683 72.4334 20.8806 72.1268 21.9522C71.8202 22.9931 71.667 23.9423 71.667 24.7995C71.667 26.3916 72.3108 27.1876 73.5984 27.1876H73.6904L74.0582 30.632L73.6904 34.0305H73.4604C72.1422 34.0305 70.9925 33.6784 70.0115 32.9742C69.0304 32.27 68.3406 31.3362 67.9421 30.1728C66.961 31.4281 65.8267 32.3925 64.5391 33.066C63.2822 33.709 61.9332 34.0305 60.4923 34.0305H60.3544Z" fill="black"/>
</svg>
