<svg width="103" height="23" viewBox="0 0 103 23" fill="none" xmlns="http://www.w3.org/2000/svg">
<rect width="103" height="23" rx="11.5" fill="#ED0F10"/>
<path d="M62.2222 7.37783C62.526 8.50183 63.012 9.31192 63.6803 9.8081C64.3588 10.2942 65.1334 10.5372 66.0043 10.5372C66.46 10.5372 66.9207 10.4815 67.3865 10.3701C67.8523 10.2587 68.2827 10.1119 68.6776 9.92961L69.1485 11.9194C68.2472 12.3649 67.3764 12.5877 66.5359 12.5877C65.817 12.5877 65.179 12.4358 64.6221 12.132C64.0651 11.8283 63.6246 11.4384 63.3006 10.9625C62.9867 10.4866 62.8095 9.99543 62.769 9.48913C62.7285 8.86131 62.85 8.2588 63.1335 7.68161C63.4272 7.10442 63.8373 6.63862 64.3639 6.2842C64.9005 5.92979 65.4828 5.75258 66.1106 5.75258C67.022 5.75258 67.9586 6.14244 68.9206 6.92215L68.1612 8.47145C67.4625 8.17779 66.8448 8.03096 66.3081 8.03096C65.7613 8.03096 65.3056 8.15248 64.941 8.3955C64.5866 8.6284 64.4094 8.93219 64.4094 9.30686C64.4094 9.62077 64.5816 9.89417 64.9259 10.1271C65.2803 10.36 65.7511 10.4764 66.3384 10.4764C67.027 10.4764 67.8067 10.2942 68.6776 9.92961L69.1485 11.9194C68.7029 12.1422 68.2067 12.3244 67.6599 12.4662C67.1131 12.608 66.5612 12.6789 66.0043 12.6789C64.8803 12.6789 63.8525 12.3498 62.9209 11.6916C61.9994 11.0334 61.2956 9.94987 60.8096 8.44107L62.2222 7.37783ZM61.2956 16.7344C61.3058 16.461 61.3108 16.0559 61.3108 15.5192C61.3108 13.8889 61.2248 12.4156 61.0526 11.0992C60.8298 9.44862 60.4501 8.00565 59.9134 6.77026L61.5994 5.75258C62.2272 7.02848 62.6576 8.71448 62.8905 10.8106C63.012 12.0257 63.0728 13.3776 63.0728 14.8661C63.0728 15.2813 63.0626 15.904 63.0424 16.7344H61.2956ZM69.6233 16.3546C70.2309 14.5522 71.1827 13.0535 72.4789 11.8586C73.7852 10.6536 75.1927 9.74228 76.7015 9.12458L77.0964 11.3574C75.9116 11.8029 74.7725 12.5219 73.6788 13.5143C72.5852 14.4965 71.7498 15.6964 71.1726 17.1141L69.6233 16.3546ZM75.5927 12.0105C74.8332 12.3953 74.1143 12.5877 73.4358 12.5877C72.8181 12.5877 72.2764 12.4358 71.8106 12.132C71.3448 11.8181 70.9903 11.4182 70.7473 10.9321C70.5043 10.4359 70.3828 9.91442 70.3828 9.36761C70.3828 8.84105 70.4942 8.32462 70.7169 7.81831C70.9498 7.30188 71.2992 6.85633 71.765 6.48166C72.2308 6.107 72.7979 5.86903 73.4662 5.76777C73.6282 5.74752 73.7548 5.73739 73.8459 5.73739C74.2712 5.73739 74.7066 5.82347 75.1522 5.99561C75.5977 6.16775 75.9521 6.36015 76.2154 6.5728L75.4712 8.1221C75.0661 7.94995 74.6408 7.86388 74.1953 7.86388C73.9725 7.86388 73.8003 7.87401 73.6788 7.89426C73.1725 7.95502 72.7675 8.13729 72.4637 8.44107C72.17 8.73473 72.0283 9.04358 72.0384 9.36761C72.0384 9.60051 72.1751 9.81316 72.4485 10.0056C72.732 10.1878 73.0966 10.279 73.5421 10.279C74.0788 10.279 74.6408 10.1321 75.2281 9.83848L75.5927 12.0105ZM80.6359 16.2939C80.16 16.2939 79.7195 16.1724 79.3145 15.9293C78.9094 15.6863 78.5854 15.3623 78.3424 14.9572C78.0993 14.5522 77.9778 14.1117 77.9778 13.6358C77.9778 13.1598 78.0993 12.7194 78.3424 12.3143C78.5854 11.8991 78.9094 11.5751 79.3145 11.3422C79.7195 11.0992 80.16 10.9777 80.6359 10.9777C81.122 10.9777 81.5675 11.0992 81.9726 11.3422C82.3877 11.5751 82.7168 11.8941 82.9599 12.2991C83.2029 12.7042 83.3244 13.1497 83.3244 13.6358C83.3244 14.1117 83.2029 14.5522 82.9599 14.9572C82.7168 15.3623 82.3877 15.6863 81.9726 15.9293C81.5675 16.1724 81.122 16.2939 80.6359 16.2939ZM80.6359 14.6383C80.9093 14.6383 81.1372 14.5421 81.3194 14.3497C81.5118 14.1573 81.608 13.9193 81.608 13.6358C81.608 13.3522 81.5118 13.1193 81.3194 12.9371C81.1372 12.7447 80.9093 12.6485 80.6359 12.6485C80.3726 12.6485 80.1448 12.7447 79.9524 12.9371C79.7701 13.1295 79.679 13.3624 79.679 13.6358C79.679 13.9193 79.7701 14.1573 79.9524 14.3497C80.1448 14.5421 80.3726 14.6383 80.6359 14.6383ZM87.3534 16.2939C86.8775 16.2939 86.437 16.1724 86.032 15.9293C85.6269 15.6863 85.3029 15.3623 85.0599 14.9572C84.8168 14.5522 84.6953 14.1117 84.6953 13.6358C84.6953 13.1598 84.8168 12.7194 85.0599 12.3143C85.3029 11.8991 85.6269 11.5751 86.032 11.3422C86.437 11.0992 86.8775 10.9777 87.3534 10.9777C87.8395 10.9777 88.285 11.0992 88.6901 11.3422C89.1052 11.5751 89.4343 11.8941 89.6774 12.2991C89.9204 12.7042 90.0419 13.1497 90.0419 13.6358C90.0419 14.1117 89.9204 14.5522 89.6774 14.9572C89.4343 15.3623 89.1052 15.6863 88.6901 15.9293C88.285 16.1724 87.8395 16.2939 87.3534 16.2939ZM87.3534 14.6383C87.6268 14.6383 87.8547 14.5421 88.0369 14.3497C88.2293 14.1573 88.3255 13.9193 88.3255 13.6358C88.3255 13.3522 88.2293 13.1193 88.0369 12.9371C87.8547 12.7447 87.6268 12.6485 87.3534 12.6485C87.0901 12.6485 86.8623 12.7447 86.6699 12.9371C86.4876 13.1295 86.3965 13.3624 86.3965 13.6358C86.3965 13.9193 86.4876 14.1573 86.6699 14.3497C86.8623 14.5421 87.0901 14.6383 87.3534 14.6383ZM94.0709 16.2939C93.595 16.2939 93.1545 16.1724 92.7495 15.9293C92.3444 15.6863 92.0204 15.3623 91.7774 14.9572C91.5343 14.5522 91.4128 14.1117 91.4128 13.6358C91.4128 13.1598 91.5343 12.7194 91.7774 12.3143C92.0204 11.8991 92.3444 11.5751 92.7495 11.3422C93.1545 11.0992 93.595 10.9777 94.0709 10.9777C94.557 10.9777 95.0025 11.0992 95.4076 11.3422C95.8228 11.5751 96.1519 11.8941 96.3949 12.2991C96.6379 12.7042 96.7594 13.1497 96.7594 13.6358C96.7594 14.1117 96.6379 14.5522 96.3949 14.9572C96.1519 15.3623 95.8228 15.6863 95.4076 15.9293C95.0025 16.1724 94.557 16.2939 94.0709 16.2939ZM94.0709 14.6383C94.3443 14.6383 94.5722 14.5421 94.7544 14.3497C94.9468 14.1573 95.043 13.9193 95.043 13.6358C95.043 13.3522 94.9468 13.1193 94.7544 12.9371C94.5722 12.7447 94.3443 12.6485 94.0709 12.6485C93.8077 12.6485 93.5798 12.7447 93.3874 12.9371C93.2052 13.1295 93.114 13.3624 93.114 13.6358C93.114 13.9193 93.2052 14.1573 93.3874 14.3497C93.5798 14.5421 93.8077 14.6383 94.0709 14.6383Z" fill="white"/>
<path d="M9.25717 11.1144C8.12304 12.0662 7.55091 12.8611 7.54079 13.4991C7.52054 13.8434 7.63699 14.1117 7.89014 14.3041C8.14329 14.4965 8.52302 14.5927 9.02933 14.5927C9.43438 14.5927 9.76854 14.5168 10.0318 14.3649C10.3052 14.213 10.4672 14.0155 10.5179 13.7725C10.4166 13.2763 10.0723 12.7548 9.48501 12.208C8.90782 11.6511 8.0471 11.0182 6.90284 10.3093L8.05722 8.59296C9.39387 9.40305 10.4014 10.2233 11.0799 11.0536C11.7583 11.8738 12.0975 12.7447 12.0975 13.6662C12.0975 14.2839 11.9558 14.8307 11.6723 15.3066C11.3988 15.7724 11.0191 16.1369 10.5331 16.4002C10.0571 16.6635 9.52045 16.7951 8.92301 16.7951C7.98128 16.7951 7.24713 16.547 6.72057 16.0509C6.20414 15.5446 5.94592 14.8914 5.94592 14.0915C5.94592 13.7674 5.99149 13.4333 6.08263 13.089C6.23452 12.4611 6.49273 11.884 6.85727 11.3574C7.23194 10.8207 7.69774 10.284 8.25468 9.74734L9.25717 11.1144ZM10.6608 19.2558C11.3292 18.9824 11.9418 18.6634 12.4987 18.2989C13.0557 17.9444 13.4911 17.59 13.805 17.2356C14.129 16.8812 14.291 16.5774 14.291 16.3243C14.291 15.9091 14.0227 14.78 13.486 12.9371L13.4101 12.6333L15.1113 11.965C15.3543 12.6637 15.5467 13.413 15.6885 14.213C15.8302 15.0028 15.9011 15.7066 15.9011 16.3243C15.9011 17.3166 15.5112 18.233 14.7315 19.0735C13.9518 19.9241 12.9038 20.6228 11.5874 21.1696L10.6608 19.2558ZM16.9561 16.6432C17.0574 15.9749 17.108 14.942 17.108 13.5446C17.108 12.1472 17.0624 10.684 16.9713 9.15496C16.8903 7.61579 16.7941 6.53736 16.6827 5.91966L18.5814 5.47918C18.6725 6.06649 18.7535 7.0943 18.8244 8.56258C18.8953 10.0309 18.9307 11.4738 18.9307 12.8915C18.9307 14.6433 18.87 15.9597 18.7484 16.8407L16.9561 16.6432ZM20.3856 14.0003C20.7502 14.1826 21.1248 14.3395 21.5096 14.4712C21.8944 14.6028 22.3653 14.6686 22.9222 14.6686C23.469 14.6585 23.9146 14.5978 24.2589 14.4864C24.6133 14.3649 24.8462 14.2332 24.9576 14.0915C24.9677 14.0712 24.9728 14.0307 24.9728 13.9699C24.9728 13.7573 24.8766 13.4788 24.6842 13.1345C24.5019 12.7801 24.1728 12.3649 23.6969 11.889C23.2311 11.403 22.6033 10.8916 21.8134 10.3549L22.907 8.36513C24.0817 9.19547 25.0082 10.1018 25.6867 11.084C26.3752 12.0662 26.7195 13.0029 26.7195 13.894C26.7195 14.3193 26.6385 14.7091 26.4765 15.0636C26.2335 15.6306 25.8031 16.0661 25.1854 16.3698C24.5677 16.6635 23.8842 16.8103 23.1349 16.8103C22.2539 16.8103 21.5198 16.6787 20.9324 16.4154C20.3451 16.142 19.8895 15.8686 19.5654 15.5952L20.3856 14.0003ZM35.4436 8.44107C35.6765 10.6081 35.8386 12.0358 35.9297 12.7244C35.9905 13.2307 36.0613 13.6054 36.1423 13.8484C36.2335 14.0915 36.3601 14.2585 36.5221 14.3497C36.6942 14.4307 36.9423 14.4712 37.2663 14.4712H37.5246L37.6461 15.6104L37.5246 16.7344H37.2663C36.3651 16.7344 35.6715 16.4508 35.1854 15.8838C34.7095 15.3066 34.3905 14.3547 34.2285 13.0282L34.1222 12.2232L33.6817 8.8208L35.4436 8.44107ZM35.2158 15.6863C34.5677 15.899 33.9348 16.0053 33.3172 16.0053C32.4058 16.0053 31.6565 15.7876 31.0692 15.3522C30.492 14.9066 30.2034 14.3041 30.2034 13.5446C30.2034 12.613 30.5679 11.8283 31.297 11.1903C32.0362 10.5524 33.0134 10.0106 34.2285 9.56507L34.6538 11.5397C33.9754 11.7017 33.3475 11.9397 32.7703 12.2536C32.2033 12.5573 31.9046 12.8459 31.8742 13.1193C31.8539 13.3421 31.9653 13.5295 32.2083 13.6813C32.4514 13.8231 32.7855 13.894 33.2108 13.894C33.707 13.894 34.2285 13.7826 34.7753 13.5598L35.2158 15.6863ZM44.6983 14.5168L46.0957 14.5016C46.7641 14.4813 47.2451 14.4712 47.5387 14.4712L47.6602 15.6104L47.5387 16.7344C46.2729 16.7344 45.2806 16.6939 44.5616 16.6129C43.8528 16.5217 43.3212 16.3445 42.9668 16.0812L44.2275 14.5168H44.6983ZM36.8151 14.4712C38.2024 14.4712 39.4226 14.4864 40.4757 14.5168C41.3972 14.537 42.2225 14.456 42.9516 14.2737C43.6807 14.0813 44.2528 13.8332 44.668 13.5295C45.0831 13.2257 45.3059 12.9168 45.3363 12.6029C45.3565 12.3498 45.2553 12.1371 45.0325 11.965C44.8097 11.7827 44.4958 11.6916 44.0908 11.6916C43.2807 11.6916 42.4351 12.0561 41.5542 12.7852C40.6833 13.5041 39.8935 14.5016 39.1847 15.7775L37.9847 14.8509C38.7847 13.2004 39.7062 11.9093 40.7491 10.9777C41.8023 10.0359 42.8453 9.56507 43.8781 9.56507C44.4553 9.56507 44.9768 9.69165 45.4426 9.9448C45.9084 10.1878 46.2729 10.5321 46.5362 10.9777C46.7995 11.4232 46.9311 11.9245 46.9311 12.4814C46.9311 13.3421 46.6679 14.0965 46.1413 14.7446C45.6249 15.3825 44.9059 15.8737 43.9844 16.2179C43.063 16.5622 42.02 16.7344 40.8555 16.7344H36.8151V14.4712ZM38.9568 13.3624C38.9872 13.008 39.0024 12.6029 39.0024 12.1472C39.0024 11.165 38.9467 10.0309 38.8353 8.74486C38.7239 7.45884 38.6176 6.51711 38.5163 5.91966L40.415 5.49437C40.5061 6.04118 40.5871 6.79557 40.658 7.75756C40.7289 8.71954 40.7643 9.70684 40.7643 10.7195C40.7643 11.3979 40.739 12.132 40.6884 12.9219L38.9568 13.3624ZM46.9143 14.4712H47.2788C48.2712 14.4712 49.061 14.4307 49.6483 14.3497C50.2458 14.2585 50.7065 14.1117 51.0305 13.9092C51.3647 13.7067 51.6128 13.4231 51.7748 13.0586C51.7951 12.7143 51.6989 12.3903 51.4862 12.0865C51.2837 11.7726 51.0052 11.6156 50.6508 11.6156C50.3369 11.6156 50.0635 11.7422 49.8306 11.9953C49.5977 12.2485 49.466 12.532 49.4357 12.8459C49.4559 13.1092 49.5876 13.3674 49.8306 13.6206C50.0736 13.8636 50.423 14.0661 50.8786 14.2282C51.3343 14.3902 51.871 14.4712 52.4887 14.4712H54.2506L54.3722 15.6104L54.2506 16.7344H53.3393C52.2862 16.7344 51.3394 16.5673 50.4989 16.2331C49.6584 15.899 49.0002 15.4484 48.5243 14.8813C48.0484 14.3142 47.8104 13.7016 47.8104 13.0434C47.8104 12.9725 47.8206 12.8459 47.8408 12.6637C47.9319 12.0561 48.1193 11.5042 48.4028 11.008C48.6965 10.5017 49.0509 10.1068 49.466 9.82329C49.8812 9.52963 50.3217 9.3828 50.7875 9.3828C51.3039 9.3828 51.7596 9.54988 52.1545 9.88405C52.5495 10.2182 52.8532 10.6435 53.0659 11.1599C53.2785 11.6764 53.3849 12.2029 53.3849 12.7396C53.3849 12.8611 53.3747 13.0231 53.3545 13.2257C53.1823 14.4307 52.595 15.3167 51.5925 15.8838C50.59 16.4508 49.1521 16.7344 47.2788 16.7344H46.9143V14.4712ZM49.4053 6.04118L50.666 7.31707C50.3926 7.6006 50.1141 7.87907 49.8306 8.15248L49.4053 8.57777L48.7825 7.93983L48.1446 7.31707L49.4053 6.04118ZM52.0634 6.04118L53.3241 7.31707C53.0507 7.6006 52.7722 7.87907 52.4887 8.15248L52.0634 8.57777L51.4406 7.93983L50.8027 7.31707L52.0634 6.04118ZM53.5135 14.4712H54.3185C55.0476 14.4712 55.5691 14.3902 55.883 14.2282C56.207 14.0661 56.369 13.8231 56.369 13.4991C56.369 13.2864 56.2627 12.8713 56.0501 12.2536C55.8374 11.6257 55.6703 11.165 55.5488 10.8713L57.1437 9.99037C57.3361 10.4157 57.5335 10.9878 57.7361 11.7067C57.9487 12.4156 58.055 13.0383 58.055 13.575C58.055 14.6079 57.731 15.3927 57.0829 15.9293C56.445 16.466 55.5235 16.7344 54.3185 16.7344H53.5135V14.4712ZM54.4096 7.97021L55.8222 6.5728L57.2196 7.97021L56.7488 8.44107C56.445 8.75498 56.1361 9.06383 55.8222 9.36761L54.4096 7.97021Z" fill="white"/>
</svg>
