<svg width="95" height="48" viewBox="0 0 95 48" fill="none" xmlns="http://www.w3.org/2000/svg">
<path d="M68.2344 10.9297C70.3803 12.0931 72.1124 13.7772 73.4307 15.9814C74.7796 18.1858 75.4541 20.4524 75.4541 22.7793C75.454 24.3864 75.166 25.8227 74.5947 27.0898C75.9501 27.1539 77.5705 27.1875 79.4551 27.1875H80.8359C83.8706 27.1875 86.0164 26.9276 87.2734 26.4072C88.5304 25.8867 89.1592 25.0901 89.1592 24.0186C89.1284 23.3449 88.7759 22.0591 88.1016 20.1611C87.4272 18.2325 86.9365 16.9467 86.6299 16.3037L91.5049 13.6396C92.118 14.9255 92.7306 16.6402 93.3438 18.7832C93.9568 20.8956 94.2636 22.7479 94.2637 24.3398C94.233 27.4627 93.1755 29.8669 91.0908 31.5508C89.0061 33.204 85.925 34.0303 81.8477 34.0303H78.6289V34.0244C77.7129 34.012 76.8435 33.978 76.0205 33.9238C76.0308 33.9441 76.0416 33.9641 76.0518 33.9844C76.8182 35.5152 77.2012 37.0158 77.2012 38.4854C77.2011 40.5366 76.4657 42.1595 74.9941 43.3535C73.6759 44.4557 72.0506 45.0068 70.1191 45.0068C68.3105 45.0068 66.563 44.4709 64.877 43.3994C63.1908 42.3585 61.8113 40.7815 60.7383 38.6689C60.0523 37.3183 59.5863 35.7798 59.3389 34.0537C59.0128 34.0646 58.6819 34.0723 58.3467 34.0762H56.2314V34.0234C55.3498 33.9947 54.5428 33.8246 53.8086 33.5127C53.6334 36.2366 52.4638 38.7666 50.2939 41.1025C47.9333 43.6743 44.7599 45.7871 40.7744 47.4404L37.9697 41.6543C39.9931 40.8277 41.848 39.8629 43.5342 38.7607C45.2202 37.6893 46.538 36.6174 47.4883 35.5459C48.4693 34.4743 48.96 33.5555 48.96 32.79C48.9598 31.5344 48.1471 28.1204 46.5225 22.5488L46.293 21.6309L51.4434 19.6104C51.8913 20.8967 52.2819 22.2398 52.6162 23.6396C52.993 24.8141 53.4284 25.6762 53.9268 26.2236C54.5399 26.8664 55.3984 27.1875 56.502 27.1875H59.3867C60.0652 21.4971 61.7874 16.4299 64.5547 11.9863L68.2344 10.9297ZM26.9941 16.9922C28.9255 22.1663 29.8906 26.6977 29.8906 30.5859C29.8906 33.2496 29.2476 35.6996 27.96 37.9346C26.6724 40.1695 24.8479 41.9452 22.4873 43.2617C20.1574 44.6088 17.4745 45.2822 14.4395 45.2822C11.5884 45.2822 9.07409 44.7311 6.89746 43.6289C4.72098 42.5573 3.02018 41.0108 1.79395 38.9902C0.598319 36.9696 1.33908e-05 34.5969 0 31.8721C0 31.321 0.0152411 30.8921 0.0458984 30.5859C0.137878 28.8409 0.490406 27.0192 1.10352 25.1211C1.74728 23.223 2.45237 21.4777 3.21875 19.8857L7.63379 21.9062C6.8367 23.7433 6.22315 25.366 5.79395 26.7744C5.36482 28.152 5.15043 29.5602 5.15039 30.999C5.15039 33.5096 5.94781 35.3779 7.54199 36.6025C9.13613 37.8576 11.4353 38.4853 14.4395 38.4854C16.5854 38.4854 18.4556 38.1023 20.0498 37.3369C21.6746 36.6021 22.9008 35.6221 23.7285 34.3975C24.5869 33.2034 25.0166 31.933 25.0166 30.5859C25.0166 28.8408 24.0352 25.167 22.0732 19.5645L26.9941 16.9922ZM68.0732 32.5439C66.9775 32.9492 65.7777 33.2752 64.4717 33.5195C64.5758 33.8372 64.6954 34.1452 64.8311 34.4434C65.4442 35.7905 66.2569 36.8316 67.2686 37.5664C68.2802 38.3012 69.3378 38.6689 70.4414 38.6689C71.0238 38.6689 71.5756 38.5619 72.0967 38.3477C72.1887 38.2252 72.2344 38.0103 72.2344 37.7041C72.2343 36.847 71.8207 35.8829 70.9932 34.8115C70.3342 33.951 69.3607 33.1953 68.0732 32.5439ZM38.8389 0C39.1148 1.77577 39.3596 4.88384 39.5742 9.32324C39.7888 13.7624 39.8965 18.125 39.8965 22.4111C39.8965 27.7076 39.7126 31.6879 39.3447 34.3516L33.918 33.7549C34.2245 31.7342 34.3779 28.6108 34.3779 24.3857C34.3779 20.1609 34.2398 15.7371 33.9639 11.1143C33.7186 6.46077 33.428 3.1997 33.0908 1.33203L38.8389 0ZM67.3145 17.5889C66.456 18.8135 65.7044 20.5901 65.0605 22.917C64.6846 24.258 64.4045 25.5994 64.2168 26.9404C65.7795 26.7362 67.0877 26.4056 68.1416 25.9473C70.0424 25.09 70.9932 23.9878 70.9932 22.6406C70.993 21.8447 70.6252 20.9417 69.8896 19.9316C69.1845 18.8907 68.3261 18.1094 67.3145 17.5889Z" fill="black"/>
</svg>
