<svg width="79" height="21" viewBox="0 0 79 21" fill="none" xmlns="http://www.w3.org/2000/svg">
<g clip-path="url(#clip0_10854_90)">
<g filter="url(#filter0_d_10854_90)">
<rect width="78.2184" height="20.5449" rx="10.2725" fill="url(#paint0_linear_10854_90)"/>
</g>
<rect x="0.627368" y="0.824634" width="77.073" height="19.3996" rx="9.69978" fill="url(#paint1_linear_10854_90)" stroke="url(#paint2_linear_10854_90)" stroke-width="1.14536"/>
<path d="M14.8124 11.4298C14.9615 11.4298 15.036 11.6385 15.036 12.0558V12.6259C15.036 12.8048 15.0136 12.9539 14.9689 13.0731C14.9242 13.1923 14.872 13.252 14.8124 13.252L14.5329 13.2296C14.3317 14.1015 13.7914 14.7946 12.912 15.3088C12.0326 15.8231 11.0452 16.0802 9.94965 16.0802C8.63802 16.0802 7.67292 15.838 7.05436 15.3536C6.44326 14.8766 6.13771 14.1649 6.13771 13.2184C6.13771 12.8383 6.1787 12.3949 6.26067 11.8881C6.34265 11.3739 6.51778 10.4349 6.78607 9.07111L8.40699 9.44001C7.97474 11.2733 7.75862 12.4806 7.75862 13.0619C7.75862 13.5389 7.90767 13.8556 8.20577 14.0121C8.51132 14.1761 9.08144 14.258 9.91612 14.258C10.5347 14.258 11.1011 14.1649 11.6153 13.9786C12.1295 13.7923 12.491 13.5575 12.6996 13.2743C12.4686 13.252 12.1854 13.2408 11.85 13.2408C11.2613 13.2408 10.7135 13.2594 10.2068 13.2967L10.3968 11.4857C11.4252 11.4485 12.2227 11.4298 12.7891 11.4298H14.8124ZM24.9453 11.4298C25.0944 11.4298 25.1689 11.6385 25.1689 12.0558V12.6259C25.1689 12.8048 25.1465 12.9539 25.1018 13.0731C25.0571 13.1923 25.0049 13.252 24.9453 13.252H24.3864C23.5442 13.252 22.8996 13.0284 22.4525 12.5812C21.6103 13.0284 20.3658 13.252 18.7188 13.252H14.8174C14.7578 13.252 14.7056 13.1923 14.6609 13.0731C14.6162 12.9539 14.5938 12.8048 14.5938 12.6259V12.0558C14.5938 11.6385 14.6683 11.4298 14.8174 11.4298H15.7229C15.9092 10.9976 16.1961 10.4871 16.5836 9.89833C16.6581 9.47354 16.6954 8.9854 16.6954 8.43392C16.6954 7.57688 16.6544 6.13855 16.5724 4.11893L18.2269 3.8171C18.2716 5.50882 18.294 6.82791 18.294 7.77437V7.98677C18.9423 7.48745 19.5982 7.2378 20.2614 7.2378C20.7831 7.2378 21.2489 7.3384 21.6588 7.53962C22.0761 7.73339 22.404 7.97559 22.6425 8.26624C22.881 8.54943 23.0785 8.86616 23.235 9.21643C23.3989 9.55925 23.507 9.8648 23.5591 10.1331C23.6188 10.4014 23.6486 10.6324 23.6486 10.8262C23.6486 10.9752 23.6337 11.1056 23.6039 11.2174C23.7231 11.359 23.9355 11.4298 24.2411 11.4298H24.9453ZM17.3773 11.4298H18.7523C19.3485 11.4298 19.9 11.4 20.4067 11.3404C20.921 11.2733 21.3159 11.1913 21.5917 11.0945C21.8674 10.9901 22.0053 10.8858 22.0053 10.7815C22.0053 10.6324 21.9718 10.461 21.9047 10.2672C21.8376 10.066 21.7407 9.86107 21.614 9.6524C21.4874 9.44373 21.3048 9.2686 21.0663 9.127C20.8278 8.9854 20.5595 8.91461 20.2614 8.91461C19.9261 8.91461 19.5609 9.06738 19.1659 9.37293C18.7709 9.67103 18.4393 9.98776 18.171 10.3231C17.9027 10.6585 17.6381 11.0274 17.3773 11.4298ZM35.9368 11.4298C36.0858 11.4298 36.1604 11.6385 36.1604 12.0558V12.6259C36.1604 12.8048 36.138 12.9539 36.0933 13.0731C36.0486 13.1923 35.9964 13.252 35.9368 13.252H35.635C34.8227 13.252 34.2525 13.0135 33.9246 12.5365C33.3433 13.0135 32.6242 13.252 31.7671 13.252C31.2604 13.252 30.7536 13.0843 30.2468 12.7489C29.6804 13.0843 29.114 13.252 28.5477 13.252C27.8397 13.252 27.2546 13.0209 26.7926 12.5589C26.256 13.0209 25.6412 13.252 24.9481 13.252C24.8885 13.252 24.8363 13.1923 24.7916 13.0731C24.7469 12.9539 24.7245 12.8048 24.7245 12.6259V12.0558C24.7245 11.6385 24.7991 11.4298 24.9481 11.4298C25.2835 11.4298 25.5741 11.3367 25.82 11.1504C26.0734 10.964 26.2113 10.7032 26.2337 10.3678L26.3343 8.90343L27.9664 8.85871L27.8658 10.7032C27.8658 11.1876 28.0968 11.4298 28.5588 11.4298C28.8122 11.4298 29.0246 11.3851 29.196 11.2957C29.3749 11.2062 29.5128 11.0945 29.6096 10.9603C29.7065 10.8187 29.781 10.6175 29.8332 10.3567C29.8854 10.0884 29.9152 9.83126 29.9226 9.58533C29.9375 9.3394 29.945 9.01149 29.945 8.6016L31.5995 8.50099C31.5845 9.62632 31.469 10.5504 31.2529 11.2733C31.4467 11.3777 31.6181 11.4298 31.7671 11.4298C32.1845 11.4298 32.5236 11.3553 32.7844 11.2062C33.0452 11.0497 33.1757 10.856 33.1757 10.625C33.1757 10.2002 33.0676 9.34685 32.8515 8.06502L34.4724 7.50609C34.6214 8.61651 34.7332 9.55552 34.8077 10.3231C34.8525 10.7852 34.9195 11.087 35.009 11.2286C35.1058 11.3627 35.2661 11.4298 35.4896 11.4298H35.9368ZM39.5073 3.58235C39.306 3.94007 38.9595 4.35741 38.4676 4.83437L37.2827 3.90653C37.633 3.3625 37.9907 2.92653 38.3559 2.59862L39.5073 3.58235ZM41.7542 3.68296C41.553 4.04813 41.2102 4.46547 40.7257 4.93498L39.5296 4.01832C39.9022 3.45193 40.2674 3.01223 40.6251 2.69923L41.7542 3.68296ZM39.6861 5.75102C40.5208 5.75102 41.158 6.11992 41.5977 6.85772C42.0448 7.58806 42.2684 8.49354 42.2684 9.57415C42.2684 10.3269 42.1678 10.9454 41.9666 11.4298C41.7728 11.9142 41.4524 12.2906 41.0052 12.5589C40.5581 12.8197 40.0327 13.0023 39.429 13.1066C38.8254 13.2035 38.0503 13.252 37.1038 13.252H35.9413C35.8816 13.252 35.8295 13.1923 35.7847 13.0731C35.74 12.9539 35.7177 12.8048 35.7177 12.6259V12.0558C35.7177 11.6385 35.7922 11.4298 35.9413 11.4298H37.7969H39.239C38.5086 11.3031 37.9385 11.0684 37.5286 10.7256C37.1187 10.3753 36.9138 9.93187 36.9138 9.39529C36.9138 8.46373 37.197 7.62532 37.7634 6.88008C38.3298 6.12738 38.9707 5.75102 39.6861 5.75102ZM38.5124 9.26115C38.5124 9.46236 38.7099 9.64495 39.1048 9.8089C39.4998 9.97286 39.9954 10.0846 40.5916 10.1443C40.6214 9.97286 40.6363 9.78282 40.6363 9.57415C40.6363 8.99286 40.5394 8.47491 40.3457 8.02031C40.1594 7.55825 39.9321 7.32723 39.6638 7.32723C39.4402 7.32723 39.1905 7.55453 38.9148 8.00913C38.6465 8.46373 38.5124 8.88107 38.5124 9.26115ZM53.5729 11.4298C53.722 11.4298 53.7965 11.6385 53.7965 12.0558V12.6259C53.7965 12.8048 53.7741 12.9539 53.7294 13.0731C53.6847 13.1923 53.6325 13.252 53.5729 13.252H53.0922C52.5035 13.252 52.0302 13.0507 51.6725 12.6483C51.0092 13.17 50.1 13.4383 48.9449 13.4532C48.2742 13.4532 47.6146 13.3488 46.9663 13.1402L47.2346 11.4298C48.0245 11.564 48.5909 11.631 48.9337 11.631C49.7535 11.631 50.4317 11.4745 50.9683 11.1615C50.767 9.83499 50.4168 8.44882 49.9175 7.00304L51.3595 6.07521C51.5831 6.61924 51.8141 7.39802 52.0526 8.41156C52.2911 9.4251 52.4476 10.1815 52.5221 10.6808C52.5966 11.1802 52.7978 11.4298 53.1258 11.4298H53.5729ZM58.8481 7.51726C59.0419 8.95559 59.1388 10.0921 59.1388 10.9268C59.1388 11.6124 58.822 12.1713 58.1886 12.6036C57.5551 13.0358 56.7204 13.252 55.6845 13.252H53.5718C53.5121 13.252 53.46 13.1923 53.4153 13.0731C53.3706 12.9539 53.3482 12.8048 53.3482 12.6259V12.0558C53.3482 11.6385 53.4227 11.4298 53.5718 11.4298H55.6845C56.9068 11.4298 57.5179 11.1504 57.5179 10.5914C57.5179 10.0325 57.421 9.19035 57.2272 8.06502L58.8481 7.51726ZM53.6277 15.7113C53.9779 15.1672 54.3356 14.7313 54.7008 14.4034L55.8522 15.3871C55.651 15.7448 55.3045 16.1621 54.8126 16.6391L53.6277 15.7113ZM55.8746 15.8231C56.2472 15.2567 56.6124 14.817 56.9701 14.504L58.0992 15.4877C57.8979 15.8529 57.5551 16.2702 57.0707 16.7397L55.8746 15.8231ZM64.4801 11.4298C64.6292 11.4298 64.7037 11.6385 64.7037 12.0558V12.6259C64.7037 12.8048 64.6813 12.9539 64.6366 13.0731C64.5919 13.1923 64.5397 13.252 64.4801 13.252H64.3907C63.8541 13.252 63.4889 13.1439 63.2952 12.9278C63.2728 13.0992 63.2393 13.2445 63.1946 13.3637C63.0083 13.9376 62.5462 14.5301 61.8084 15.1412C61.0706 15.7523 60.3142 16.1771 59.5391 16.4155L59.092 14.6493C59.5838 14.5002 60.113 14.191 60.6793 13.7215C61.2457 13.252 61.5289 12.8905 61.5289 12.6371C61.5886 11.6459 61.5327 10.4573 61.3613 9.07111L63.1275 8.71339L63.3063 10.5467C63.3362 10.815 63.4144 11.0311 63.5411 11.1951C63.6752 11.3516 63.8392 11.4298 64.033 11.4298H64.4801ZM68.8038 5.34859C68.6025 5.70631 68.256 6.12365 67.7641 6.60061L66.5792 5.67277C66.9294 5.12874 67.2872 4.69277 67.6523 4.36486L68.8038 5.34859ZM71.6096 9.26115C72.0493 9.14191 72.5039 9.08229 72.9734 9.08229L72.8281 10.8821C71.9412 10.8821 71.0656 11.169 70.2011 11.7428C69.8359 11.9888 69.5415 12.1751 69.318 12.3018C69.1018 12.421 68.7963 12.5701 68.4013 12.7489C68.0063 12.9278 67.5815 13.0582 67.1269 13.1402C66.6798 13.2147 66.1879 13.252 65.6513 13.252H64.4776C64.418 13.252 64.3658 13.1923 64.3211 13.0731C64.2764 12.9539 64.254 12.8048 64.254 12.6259V12.0558C64.254 11.6385 64.3285 11.4298 64.4776 11.4298H65.6178C66.1767 11.4298 66.7021 11.3702 67.194 11.251C67.6933 11.1317 68.0809 11.005 68.3566 10.8709C68.6398 10.7367 68.9826 10.5504 69.385 10.3119L69.7316 10.1107C69.5155 9.98404 69.2882 9.83871 69.0497 9.67476C68.3417 9.1978 67.779 8.95932 67.3617 8.95932C67.1232 8.95932 66.9332 9.02639 66.7916 9.16054C66.6574 9.29468 66.527 9.54434 66.4003 9.90951L64.8577 9.3394C64.9471 9.10092 65.0179 8.91461 65.0701 8.78046C65.1297 8.63886 65.2303 8.45628 65.3719 8.2327C65.5209 8.00168 65.6737 7.82282 65.8302 7.69612C65.9942 7.56943 66.2066 7.45764 66.4674 7.36076C66.7357 7.25643 67.0338 7.20426 67.3617 7.20426C67.6225 7.20426 67.9132 7.26388 68.2336 7.38312C68.5541 7.50236 68.8298 7.62905 69.0609 7.7632C69.2993 7.89734 69.6235 8.09483 70.0334 8.35567C70.6892 8.77301 71.2146 9.07483 71.6096 9.26115Z" fill="white"/>
</g>
<defs>
<filter id="filter0_d_10854_90" x="-1.14536" y="-1.14536" width="82.8002" height="25.1264" filterUnits="userSpaceOnUse" color-interpolation-filters="sRGB">
<feFlood flood-opacity="0" result="BackgroundImageFix"/>
<feColorMatrix in="SourceAlpha" type="matrix" values="0 0 0 0 0 0 0 0 0 0 0 0 0 0 0 0 0 0 127 0" result="hardAlpha"/>
<feOffset dx="1.14536" dy="1.14536"/>
<feGaussianBlur stdDeviation="1.14536"/>
<feComposite in2="hardAlpha" operator="out"/>
<feColorMatrix type="matrix" values="0 0 0 0 0 0 0 0 0 0 0 0 0 0 0 0 0 0 0.25 0"/>
<feBlend mode="normal" in2="BackgroundImageFix" result="effect1_dropShadow_10854_90"/>
<feBlend mode="normal" in="SourceGraphic" in2="effect1_dropShadow_10854_90" result="shape"/>
</filter>
<linearGradient id="paint0_linear_10854_90" x1="0" y1="10.2725" x2="78.2184" y2="10.2725" gradientUnits="userSpaceOnUse">
<stop stop-color="#0055AF"/>
<stop offset="1" stop-color="#0875F3"/>
</linearGradient>
<linearGradient id="paint1_linear_10854_90" x1="0.0546875" y1="10.5244" x2="78.2731" y2="10.5244" gradientUnits="userSpaceOnUse">
<stop stop-color="#0055AF"/>
<stop offset="1" stop-color="#0875F3"/>
</linearGradient>
<linearGradient id="paint2_linear_10854_90" x1="39.1639" y1="20.7969" x2="39.1639" y2="0.251953" gradientUnits="userSpaceOnUse">
<stop stop-color="#0175FF"/>
<stop offset="1" stop-color="#03215E"/>
</linearGradient>
<clipPath id="clip0_10854_90">
<rect width="78.2184" height="20.5449" fill="white"/>
</clipPath>
</defs>
</svg>
