<svg width="52" height="25" viewBox="0 0 52 25" fill="none" xmlns="http://www.w3.org/2000/svg">
<path d="M47.6654 12.7285L47.7101 12.7735C48.1431 13.3082 48.4616 13.9274 48.6443 14.5924C48.8179 15.217 48.8331 15.8751 48.689 16.5073C48.6708 16.6002 48.6276 16.687 48.5654 16.7586C48.4972 16.8409 48.4252 16.9193 48.3478 16.9932C48.1605 17.157 47.9642 17.3086 47.7594 17.4487C47.1847 17.8547 46.5917 18.2279 45.9844 18.5867C45.2064 19.0559 44.4194 19.49 43.6088 19.8914C43.3169 20.0346 43.025 20.1733 42.7209 20.2906C42.5958 20.3386 42.4677 20.3789 42.338 20.4102C42.2394 20.4338 42.1371 20.4338 42.0393 20.4102C41.8254 20.3568 41.6162 20.2837 41.4152 20.1915C40.9739 19.9988 40.5417 19.7833 40.1164 19.5555C39.0814 19.0064 38.0699 18.4153 37.0796 17.7701L36.771 17.5614L36.6914 17.5028C36.7119 17.5005 36.7324 17.5005 36.7521 17.5028C36.8196 17.5333 36.8855 17.5683 36.953 17.5965C37.317 17.7488 37.6983 17.8562 38.0881 17.9156C38.3755 17.9628 38.6659 17.9834 38.957 17.9766C39.4802 17.9667 39.9958 17.8478 40.4705 17.6269C40.9163 17.4182 41.3606 17.2042 41.7951 16.9772C42.6762 16.508 43.5436 16.0221 44.3974 15.5201C45.1427 15.0768 45.8805 14.6213 46.5955 14.1285C46.7851 13.9967 46.9716 13.8611 47.1559 13.7202C47.262 13.6387 47.3629 13.5504 47.4569 13.4552C47.5873 13.3318 47.67 13.165 47.6904 12.986C47.695 12.9395 47.695 12.8923 47.6904 12.8451C47.6859 12.8169 47.6768 12.7864 47.6646 12.73L47.6654 12.7285Z" fill="white"/>
<path d="M47.7108 12.7735L47.6661 12.7285C47.6661 12.7849 47.6873 12.8153 47.6896 12.8481C47.6941 12.8946 47.6941 12.9418 47.6896 12.989C47.6691 13.168 47.5865 13.3348 47.4561 13.4582C47.3658 13.5527 47.2703 13.641 47.1687 13.7233C46.9867 13.8642 46.7994 14.0005 46.6083 14.1315C46.0852 14.4926 45.5476 14.8353 45.0039 15.1667C47.6577 14.6975 48.4562 15.8141 48.6973 16.5324V16.5111C48.8414 15.8789 48.8262 15.2208 48.6526 14.5962C48.4675 13.9297 48.1468 13.3097 47.7108 12.7735Z" fill="white"/>
<path d="M48.894 15.4546C48.8614 15.4333 48.8637 15.4051 48.8637 15.3769C48.8553 15.2055 48.8341 15.0357 48.7984 14.8674C48.6574 14.1201 48.3367 13.4186 47.8643 12.8237C47.6535 12.5549 47.4048 12.3172 47.1265 12.1199C46.7808 11.8853 46.4259 11.6386 46.0802 11.4161C45.2203 10.8533 44.3355 10.3277 43.443 9.81812C42.7189 9.40528 41.9879 9.00616 41.238 8.64512C40.9507 8.50192 40.661 8.36329 40.36 8.24828C40.2516 8.20486 40.1409 8.16754 40.0287 8.13555C39.8861 8.09365 39.7345 8.09365 39.5919 8.13555C39.5115 8.15992 39.4372 8.20181 39.3743 8.25742L39.3136 8.30693C39.3121 8.29017 39.3121 8.27417 39.3136 8.25742C39.6147 7.42565 40.1409 6.69443 40.8316 6.14525C41.2001 5.87181 41.6134 5.66615 42.0532 5.53743C42.176 5.50315 42.3064 5.50315 42.4292 5.53743C42.5945 5.5778 42.7568 5.63264 42.913 5.70195C43.3103 5.86648 43.6932 6.05614 44.0807 6.25341C45.2552 6.86124 46.3956 7.53305 47.4981 8.26427C47.7619 8.44022 48.0235 8.62303 48.2737 8.82259C48.3867 8.91247 48.4936 9.00997 48.5937 9.11356C48.6688 9.19125 48.7234 9.28646 48.7522 9.39081C48.8136 9.61399 48.8553 9.84249 48.8758 10.0733C48.9607 10.9363 49.0017 11.8038 48.9994 12.6706C48.9994 13.2853 48.9994 13.9 48.9713 14.5147C48.9577 14.8171 48.9364 15.118 48.9175 15.4203C48.8985 15.4249 48.8963 15.4341 48.894 15.4531V15.4546Z" fill="white"/>
<path d="M39.6026 8.14037C39.7451 8.09847 39.8968 8.09847 40.0393 8.14037C40.1515 8.17236 40.2622 8.20968 40.3707 8.2531C40.6694 8.36811 40.9591 8.50902 41.2487 8.64994C41.7863 8.915 42.314 9.19454 42.8372 9.48551C40.7346 7.17912 41.8583 5.80122 42.1366 5.5293L42.057 5.53844C41.6248 5.67326 41.2191 5.88272 40.859 6.15769C40.1675 6.70687 39.642 7.43809 39.341 8.26985C39.3395 8.28661 39.3395 8.30261 39.341 8.31936L39.4016 8.26985C39.4593 8.21349 39.5275 8.16855 39.6026 8.14037Z" fill="white"/>
<path d="M41.0491 5.89596C41.0377 5.93785 41.0044 5.94775 40.9816 5.96375C40.3553 6.3941 39.842 6.96994 39.4841 7.64175C39.2824 8.01498 39.1452 8.41943 39.0777 8.83836C39.0587 8.95109 39.0474 9.07296 39.0383 9.17884C38.9844 9.79809 38.945 10.4181 38.926 11.0396C38.8934 12.0489 38.8813 13.0551 38.9071 14.0643C38.9071 14.4048 38.9207 14.7422 38.9351 15.0827C38.9518 15.5214 38.9746 15.9624 39.017 16.4012C39.0352 16.6373 39.0671 16.8727 39.1126 17.105C39.13 17.2139 39.1641 17.3205 39.2127 17.4196C39.2506 17.4904 39.2976 17.5559 39.3529 17.6145C39.4181 17.6816 39.4978 17.7326 39.5865 17.7623L39.6797 17.7974C39.5675 17.8141 39.4788 17.8324 39.3901 17.8392C39.2104 17.853 39.0307 17.8697 38.8502 17.872C38.371 17.8819 37.8933 17.8172 37.4346 17.6793C36.9031 17.5209 36.4125 17.2489 35.9954 16.8818L35.9719 16.8628C35.8347 16.7576 35.7392 16.6068 35.7012 16.4377C35.6649 16.3014 35.6376 16.1628 35.6194 16.0226C35.5632 15.6121 35.5352 15.2015 35.514 14.7887C35.4624 13.8099 35.4601 12.8342 35.4814 11.8554C35.4905 11.4251 35.5109 10.9955 35.542 10.5674C35.5595 10.2757 35.5913 9.98547 35.6376 9.69679C35.6611 9.56806 35.6914 9.44086 35.7263 9.31442C35.7551 9.21768 35.8082 9.12933 35.8802 9.05849C36.0015 8.93281 36.1319 8.81703 36.2699 8.71116C36.618 8.44381 36.9705 8.19702 37.3512 7.96013C38.4408 7.25862 39.5668 6.61423 40.7246 6.03154L41.0142 5.89062L41.0468 5.8952L41.0491 5.89596Z" fill="white"/>
<path d="M39.3657 17.6206C39.3103 17.562 39.2633 17.4965 39.2254 17.4256C39.1769 17.3266 39.1428 17.2207 39.1253 17.111C39.0791 16.8787 39.0472 16.6434 39.0298 16.4072C38.9904 15.9685 38.9646 15.5298 38.9479 15.0888C38.9365 14.781 38.9289 14.4718 38.9221 14.1641C38.6582 14.9806 37.7544 17.1933 35.918 16.8201C35.9392 16.8414 35.9619 16.8604 35.9855 16.8787L36.009 16.8978C36.4252 17.2649 36.9166 17.5376 37.4481 17.6953C37.9068 17.8331 38.3845 17.8979 38.8637 17.888C39.0434 17.888 39.2231 17.8689 39.4036 17.8552C39.4923 17.8552 39.581 17.8293 39.6932 17.8133L39.6 17.7783C39.5105 17.7455 39.4309 17.6914 39.3664 17.6214L39.3657 17.6206Z" fill="white"/>
<path d="M22.217 14.9507C21.3178 15.9493 19.7831 16.0262 18.789 15.1228C18.7291 15.068 18.6715 15.0109 18.6177 14.9507C17.7207 15.9493 16.1875 16.0277 15.1935 15.1266C15.1321 15.071 15.0737 15.0124 15.0183 14.9507C14.1206 15.9485 12.5874 16.0262 11.5934 15.1244C11.5327 15.0695 11.4751 15.0116 11.4205 14.9507C10.5227 15.9485 8.98956 16.0262 7.99551 15.1244C7.93485 15.0695 7.87723 15.0116 7.82263 14.9507C6.92336 15.947 5.38944 16.0224 4.39767 15.119C4.33928 15.0657 4.28317 15.0093 4.23009 14.9507L4.13456 15.0444L1.98798 17.203C1.9258 17.2723 1.83254 17.3051 1.74004 17.2898C1.60204 17.27 1.46707 17.2297 1.34044 17.1703C1.15847 17.0842 0.987863 16.976 0.830907 16.8488C0.737644 16.7734 0.735369 16.7201 0.830907 16.6355C1.6172 15.8457 2.40425 15.0558 3.19282 14.2659C3.31869 14.1517 3.42409 14.0161 3.5037 13.8645C3.78728 13.2681 3.53631 12.5537 2.9426 12.2688C2.3489 11.9839 1.63767 12.236 1.35409 12.8324C1.2995 12.9467 1.26386 13.0693 1.24718 13.1958C1.1979 13.5454 1.30784 13.8988 1.54593 14.1578C1.63237 14.256 1.73549 14.3406 1.82648 14.432L2.29355 14.9012C2.36634 14.9766 2.36634 15.0352 2.29355 15.0985C2.08655 15.2729 1.84846 15.4077 1.59294 15.4953C1.50726 15.5204 1.42006 15.5395 1.33135 15.5517C1.26614 15.5639 1.19941 15.5418 1.15392 15.493C0.943885 15.282 0.710347 15.0779 0.532919 14.8479C0.141668 14.3741 -0.0463756 13.7647 0.00973412 13.1531C0.112855 11.8209 1.2722 10.8254 2.59836 10.9297C3.6925 11.0158 4.59026 11.8331 4.78209 12.9185C4.80332 13.0427 4.81015 13.1699 4.81925 13.294C4.82683 13.5187 4.88673 13.7381 4.9944 13.9346C5.32802 14.5043 6.05821 14.6948 6.62537 14.3596C6.91502 14.1882 7.11974 13.9018 7.18799 13.5713C7.19936 13.5111 7.20467 13.4494 7.20467 13.3885V12.4501C7.20467 12.3465 7.25395 12.3 7.34722 12.3114C7.58379 12.3335 7.81505 12.3922 8.03418 12.4851C8.12669 12.5308 8.21616 12.5818 8.3026 12.6374C8.38979 12.6869 8.4406 12.7837 8.43074 12.8835V13.3527C8.42392 13.6535 8.54144 13.9445 8.75527 14.1555C9.05401 14.4868 9.51806 14.6125 9.94191 14.4769C10.3718 14.3688 10.6986 14.0169 10.776 13.5781C10.9185 12.9398 10.5182 12.3061 9.88201 12.1629C9.83424 12.1522 9.78496 12.1446 9.73643 12.1393H7.38209C7.23045 12.1393 7.20239 12.1111 7.21831 11.9611C7.23955 11.7265 7.29945 11.4972 7.39574 11.2832C7.44275 11.1918 7.49583 11.1026 7.55422 11.0181C7.60047 10.945 7.68312 10.9038 7.7688 10.9099H9.63786C9.98816 10.9099 10.3347 10.9899 10.6493 11.1445C11.3886 11.482 11.9042 12.1766 12.0157 12.984C12.0347 13.1082 12.0438 13.2338 12.0438 13.3595C12.0574 14.0207 12.6011 14.5455 13.2592 14.5318C13.8385 14.5203 14.3245 14.0915 14.4125 13.5164C14.4148 13.4806 14.4148 13.4441 14.4125 13.4083V11.1224C14.4125 10.9602 14.4405 10.932 14.599 10.9511C14.8242 10.9739 15.0441 11.031 15.2511 11.1224C15.3406 11.1674 15.427 11.2177 15.5104 11.2725C15.5969 11.3235 15.6461 11.421 15.6363 11.5216V13.3405C15.6363 14.0009 16.1693 14.5363 16.8267 14.5363C17.4841 14.5363 18.0172 14.0009 18.0172 13.3405V8.12215C18.0172 8.03303 18.0589 7.98809 18.1453 7.99571C18.4903 8.0178 18.8232 8.13129 19.1098 8.32399C19.1886 8.37579 19.2364 8.46415 19.2357 8.5586V13.3268C19.2266 13.9879 19.752 14.531 20.4094 14.5409C21.0039 14.5493 21.5134 14.1166 21.6036 13.5263C21.6067 13.4905 21.6067 13.454 21.6036 13.4182C21.6036 12.6595 21.6036 11.9009 21.6036 11.1422V11.0745C21.6036 10.9709 21.6453 10.9313 21.7507 10.9404C22.0267 10.9625 22.2959 11.0379 22.5423 11.1636C22.6106 11.2024 22.6758 11.2451 22.7387 11.2923C22.7956 11.3311 22.8297 11.3951 22.8297 11.4637V13.3382C22.8297 13.8622 23.1694 14.3253 23.6683 14.4807C23.7805 14.5158 23.8965 14.534 24.0141 14.5348H27.5717C27.7643 14.5417 27.9562 14.5036 28.1321 14.4244C28.5605 14.2362 28.8365 13.8097 28.8327 13.3405C28.8395 13.1836 28.8327 13.0267 28.8137 12.8713C28.7076 12.22 28.0957 11.779 27.4474 11.8864C26.9644 11.9664 26.58 12.3343 26.4776 12.8149C26.4594 12.8964 26.4503 12.9802 26.4495 13.064C26.4495 13.3192 26.4495 13.5743 26.4495 13.8287C26.4541 13.9277 26.4071 14.0222 26.3259 14.0778C26.1387 14.2096 25.9264 14.3002 25.7019 14.3451C25.5905 14.3703 25.4767 14.3893 25.363 14.4015C25.2674 14.4015 25.225 14.3733 25.225 14.2796V12.9513C25.2409 12.3967 25.4555 11.8666 25.8301 11.4591C26.2319 10.9945 26.7998 10.7066 27.4117 10.6586C28.6446 10.5428 29.763 11.3883 29.9928 12.6108C30.0193 12.7662 30.0353 12.9231 30.0398 13.08C30.0504 13.2811 30.0421 13.4837 30.014 13.6832C29.848 14.7862 28.9548 15.6332 27.8485 15.7368C27.7272 15.7482 27.615 15.7368 27.4815 15.7368H24.0497C23.3703 15.7497 22.7182 15.4709 22.2557 14.972L22.2322 14.9484L22.2133 14.9507H22.217ZM13.266 16.9006C13.1682 16.7856 13.0416 16.698 12.899 16.647C12.7542 16.5937 12.5973 16.5815 12.4456 16.6119C11.9801 16.6995 11.6737 17.1497 11.7617 17.6174C11.8292 17.9799 12.1196 18.2587 12.4828 18.3105C12.9483 18.3745 13.382 18.0591 13.4662 17.5945C13.4965 17.7491 13.5648 17.8939 13.6649 18.0142C13.7612 18.1285 13.8848 18.2161 14.0243 18.2678C14.1691 18.3204 14.3261 18.3318 14.4777 18.3006C14.9433 18.213 15.2496 17.7628 15.1616 17.2952C15.0941 16.9326 14.8037 16.6538 14.4405 16.602C13.975 16.5381 13.5413 16.8534 13.4571 17.318C13.4291 17.1649 13.3631 17.0217 13.2653 16.9006H13.266ZM21.7727 18.3082C22.2413 18.2298 22.5575 17.7849 22.4794 17.3142C22.4187 16.9501 22.1352 16.6653 21.7727 16.6043C21.3087 16.5342 20.8719 16.845 20.7847 17.3081C20.6968 16.8404 20.2547 16.5289 19.7876 16.6043C19.3191 16.6828 19.0029 17.1276 19.081 17.5983C19.1416 17.9624 19.4252 18.2473 19.7876 18.3082C20.2517 18.3783 20.6884 18.0675 20.7756 17.6044C20.8636 18.0721 21.3056 18.3836 21.7727 18.3082ZM27.5126 9.70798C27.9872 9.70951 28.3732 9.32333 28.3747 8.84651C28.3762 8.3697 27.9918 7.982 27.5171 7.98047C27.0425 7.97895 26.6565 8.36513 26.655 8.84194C26.655 8.84423 26.655 8.84651 26.655 8.8488C26.6573 9.32333 27.0402 9.70646 27.5126 9.70798Z" fill="white"/>
</svg>
