<svg width="52" height="25" viewBox="0 0 52 25" fill="none" xmlns="http://www.w3.org/2000/svg">
<path d="M36.3521 4.85816C32.463 3.01626 27.3112 2 21.8457 2C16.3802 2 11.2254 3.01626 7.33841 4.85816C3.2509 6.79449 1 9.44243 1 12.3149C1 15.1875 3.2509 17.8354 7.33841 19.7717C11.2254 21.6136 16.3789 22.6299 21.8457 22.6299C27.3125 22.6299 32.4634 21.6154 36.3526 19.7735C40.4401 17.8354 42.6914 15.1875 42.6914 12.3149C42.6914 9.44243 40.4401 6.79449 36.3521 4.85816ZM35.6219 18.2558C31.9561 19.992 27.0641 20.9482 21.8453 20.9482C16.6264 20.9482 11.7336 19.9907 8.06867 18.2558C4.65305 16.6377 2.69399 14.4724 2.69399 12.3149C2.69399 10.1575 4.65305 7.99225 8.06867 6.37406C11.734 4.63793 16.6264 3.68173 21.8453 3.68173C27.0641 3.68173 31.9561 4.63923 35.6219 6.37406C39.0379 7.99225 40.9974 10.1575 40.9974 12.3149C40.9974 14.4724 39.0379 16.6377 35.6219 18.2558Z" fill="white"/>
<path d="M24.6482 10.615C24.6482 10.5425 24.6439 10.4389 24.6351 10.3042C24.6263 10.1696 24.6137 10.021 24.5973 9.85856C24.5801 9.69637 24.5616 9.52692 24.542 9.35021C24.5224 9.17351 24.5011 9.00696 24.478 8.85057L23.2053 9.06079C23.2673 9.56478 23.3112 9.95127 23.3369 10.2202C23.3624 10.4888 23.3751 10.6768 23.3751 10.783C23.3744 10.8187 23.3641 10.8535 23.3453 10.884C23.3157 10.9255 23.2745 10.9576 23.2268 10.9762C23.1481 11.0099 23.0656 11.0339 22.981 11.0476C22.8453 11.0697 22.7078 11.0796 22.5703 11.0772H22.3583C22.0812 11.0772 21.8851 11.0282 21.7698 10.9301C21.6535 10.8322 21.5942 10.6516 21.5942 10.3882V9.48078H20.4545C20.4545 9.83912 20.446 10.1233 20.4291 10.3334C20.4205 10.4955 20.3934 10.6561 20.3483 10.8122C20.3115 10.921 20.2606 10.9928 20.196 11.0263C20.1179 11.0627 20.0321 11.08 19.9459 11.0768C19.8397 11.0768 19.7341 11.0611 19.6325 11.0302C19.5165 10.99 19.4139 10.9189 19.3359 10.8248C19.3416 10.7517 19.346 10.665 19.3486 10.5636C19.3512 10.4622 19.353 10.3591 19.353 10.2529V9.64791H18.2093C18.2119 9.88223 18.2006 10.1165 18.1755 10.3495C18.1607 10.4992 18.1236 10.6459 18.0654 10.7847C18.027 10.8793 17.9586 10.9589 17.8705 11.0115C17.7783 11.0563 17.6765 11.0779 17.5739 11.0746C17.4618 11.0738 17.3505 11.0568 17.2434 11.0241C17.1302 10.9905 17.037 10.9092 16.9639 10.7804C16.9696 10.7077 16.9735 10.6237 16.9766 10.5284C16.9797 10.4331 16.981 10.3338 16.981 10.2298V9.64878H15.8369C15.8399 9.89016 15.8273 10.1315 15.7991 10.3713C15.7737 10.5564 15.7242 10.7006 15.6508 10.8039C15.579 10.9063 15.4745 10.9818 15.3541 11.018C15.1942 11.0622 15.0285 11.0821 14.8626 11.0772H14.6915C14.5746 11.0787 14.458 11.0659 14.3443 11.0393C14.246 11.0159 14.1546 10.9698 14.0775 10.9049C13.9953 10.8328 13.9346 10.7398 13.902 10.6359C13.8584 10.493 13.8384 10.3442 13.8427 10.195V6.53906L12.5296 6.66528L12.6565 12.715C12.6505 12.8135 12.6083 12.9063 12.538 12.9761C12.4407 13.0786 12.3241 13.1613 12.1948 13.2194C12.0178 13.3012 11.8316 13.3619 11.6401 13.4C11.3891 13.4505 11.1334 13.4744 10.8774 13.4714C10.6705 13.4757 10.4639 13.4531 10.263 13.4044C10.1167 13.369 9.97863 13.3062 9.85613 13.2194C9.75759 13.1486 9.68 13.0528 9.63144 12.9422C9.58521 12.8302 9.56222 12.7102 9.56386 12.5892C9.56386 12.5167 9.56663 12.4286 9.57219 12.325C9.58052 12.201 9.59517 12.0776 9.61608 11.9551C9.63831 11.8123 9.66933 11.6443 9.70912 11.4511C9.74891 11.2578 9.80055 11.0351 9.86403 10.783L8.84764 10.4883C8.61592 11.0977 8.46627 11.5976 8.39869 11.9881C8.33111 12.3787 8.29717 12.6767 8.29688 12.8821C8.29688 13.5991 8.50592 14.1495 8.924 14.5334C9.34209 14.9172 9.96614 15.109 10.7962 15.1087C11.1998 15.1118 11.6013 15.0522 11.9863 14.932C12.3366 14.8246 12.6651 14.6568 12.9567 14.4363C13.2293 14.2284 13.452 13.963 13.6088 13.6594C13.7702 13.3402 13.8516 12.9871 13.8462 12.6301V12.4203C13.9408 12.5256 14.062 12.6039 14.1973 12.6471C14.3574 12.6953 14.5242 12.7183 14.6915 12.7154H14.8609C15.2225 12.7154 15.5162 12.6636 15.7421 12.56C15.9689 12.4557 16.1624 12.2914 16.3012 12.0852C16.4238 12.2689 16.5841 12.4249 16.7716 12.5431C16.9551 12.6591 17.2077 12.7172 17.5295 12.7172C17.7437 12.7171 17.9564 12.681 18.1584 12.6105C18.3615 12.5403 18.5478 12.3793 18.7175 12.1274C18.7873 12.2299 18.8731 12.3207 18.9716 12.3964C19.0667 12.4681 19.1698 12.5287 19.2788 12.577C19.3821 12.6233 19.4901 12.6584 19.601 12.6819C19.7012 12.7036 19.8034 12.7149 19.906 12.7154C20.1406 12.721 20.3712 12.6551 20.5669 12.5265C20.7421 12.4108 20.8915 12.2606 21.0057 12.0852C21.0727 12.2116 21.165 12.3231 21.2769 12.4129C21.3804 12.4948 21.4962 12.5601 21.6201 12.6062C21.7402 12.6503 21.8654 12.6795 21.9927 12.6932C22.1151 12.7069 22.2382 12.7138 22.3614 12.7141H22.5308C22.8057 12.7161 23.0795 12.6793 23.344 12.6049C23.5918 12.5355 23.8216 12.4137 24.0176 12.248C24.2216 12.0698 24.3799 11.846 24.4793 11.5951C24.5919 11.3282 24.6482 11.0015 24.6482 10.615ZM23.7582 8.26214L24.521 7.50614V7.37993L23.7582 6.62393H23.6314L22.8687 7.37993V7.50614L23.6314 8.26214H23.7582ZM26.5963 12.6736V6.53993L25.2833 6.66615L25.4105 12.7576L26.5963 12.6736ZM31.8069 13.3374L31.0867 14.0516L30.3666 13.3374H30.2393L29.5191 14.0516V14.1774L30.2393 14.8916H30.3666L31.0867 14.1774L31.8069 14.8916H31.9337L32.6539 14.1774V14.0516L31.9337 13.3374H31.8069Z" fill="white"/>
<path d="M29.9432 12.7145H30.113C30.3879 12.7165 30.6617 12.6797 30.9262 12.6053C31.1741 12.5358 31.4039 12.4141 31.5999 12.2484C31.8037 12.0701 31.9619 11.8463 32.0615 11.5956C32.1745 11.3266 32.2309 10.9989 32.2309 10.6124C32.2309 10.5398 32.2267 10.4363 32.2182 10.3016C32.2097 10.167 32.197 10.0184 32.18 9.85595C32.1628 9.69375 32.1445 9.5243 32.1252 9.3476C32.1059 9.1709 32.0847 9.00435 32.0615 8.84796L30.7889 9.05817C30.8512 9.56217 30.8951 9.94865 30.9205 10.2176C30.946 10.4862 30.9587 10.6742 30.9587 10.7804C30.9579 10.816 30.9478 10.8508 30.9293 10.8814C30.8994 10.9228 30.8581 10.9549 30.8104 10.9736C30.7318 11.0073 30.6495 11.0312 30.565 11.045C30.4291 11.0671 30.2915 11.077 30.1538 11.0746H29.9423C29.7856 11.0783 29.629 11.0627 29.4762 11.028C29.3543 10.9952 29.2479 10.921 29.1756 10.8182C29.0774 10.6746 29.0042 10.5155 28.9593 10.3478C28.8975 10.1432 28.8298 9.86756 28.7561 9.52082L27.4834 9.85682C27.6133 10.5349 27.7094 11.0965 27.7717 11.5416C27.834 11.9867 27.865 12.2934 27.8648 12.4617C27.8492 12.5564 27.8132 12.6467 27.759 12.7263C27.6769 12.8398 27.5724 12.9356 27.4518 13.0079C27.2702 13.1214 27.0771 13.2156 26.8756 13.289C26.5752 13.3991 26.2672 13.4875 25.954 13.5537L26.2506 14.9403C27.109 14.9177 27.7855 14.695 28.2799 14.2722C28.7744 13.8495 29.0523 13.2291 29.1137 12.4112C29.2082 12.5185 29.3292 12.5997 29.4648 12.6466C29.6168 12.6942 29.7755 12.7169 29.9348 12.7137L29.9432 12.7145ZM32.9932 12.7568L34.1795 12.6728V6.53906L32.8664 6.66528L32.9932 12.7568ZM17.9532 17.5769L16.8982 16.1559H15.9766V19.7796H16.8925V17.7475L17.6253 18.7277H18.1476L18.8138 17.7475V19.7796H19.8131V16.1559H18.8972L17.9532 17.5769ZM20.3239 16.9767H21.5233V19.7796H22.5397V16.9767H23.7334V16.1559H20.3239V16.9767ZM26.7983 18.1549L25.1548 16.1559H24.2442V19.7796H25.1605V17.7088L26.876 19.7796H27.7147V16.1559H26.7983V18.1549Z" fill="white"/>
</svg>
