<svg width="52" height="25" viewBox="0 0 52 25" fill="none" xmlns="http://www.w3.org/2000/svg">
<path d="M11.0463 10.7522C11.037 10.7153 11.0094 10.6784 10.9817 10.6508L9.51529 9.26735C9.37695 9.13823 9.1925 9.06445 8.99882 9.06445H5.96456C5.95533 9.06445 5.94611 9.06445 5.93689 9.06445H5.91844C5.88155 9.06445 5.85388 9.07368 5.81699 9.0829C5.75243 9.11057 5.6971 9.1659 5.66943 9.23046C5.66021 9.25813 5.65098 9.29502 5.65098 9.33191V12.8181H2.16481C2.01725 12.8181 1.89735 12.938 1.89735 13.0855V13.0948C1.88813 13.1224 1.87891 13.1593 1.87891 13.187L1.90657 16.2213C1.90657 16.4242 1.98958 16.6086 2.12792 16.7562L3.53899 18.1949C3.72344 18.3886 3.98168 18.49 4.23991 18.49H10.3269C10.871 18.49 11.3137 18.0473 11.3137 17.5032V11.4162C11.3137 11.1672 11.2123 10.9274 11.0463 10.7522ZM9.14638 9.6547L9.9672 10.4294H7.39407L6.55481 9.59015H8.9896C9.05415 9.59937 9.10027 9.61781 9.14638 9.6547ZM3.66811 14.1923L2.81962 13.353H5.80777L6.64703 14.1923H3.66811ZM7.01594 13.8049L6.17668 12.9656V9.9775L7.01594 10.8168V13.8049ZM2.44149 16.2028L2.41382 13.7035L3.26231 14.5335V17.1251L2.50605 16.3596C2.46916 16.3227 2.44149 16.2674 2.44149 16.2028ZM10.7696 17.494C10.7696 17.743 10.5667 17.9459 10.3177 17.9459H4.24914C4.00012 17.9459 3.79722 17.743 3.79722 17.494V14.7272H7.2834C7.43096 14.7272 7.55086 14.6073 7.55086 14.4597V10.9643H10.3177C10.5667 10.9643 10.7696 11.1672 10.7696 11.4162V17.494Z" fill="white"/>
<path d="M1.89065 12.4967C1.89987 12.4691 1.9091 12.4322 1.9091 12.3953V8.9091H5.39527C5.54283 8.9091 5.66273 8.7892 5.66273 8.64164C5.66273 8.55863 5.62584 8.48485 5.56128 8.42952L4.2701 7.15679C4.22399 7.06456 4.13176 7 4.03031 7H0.267458C0.119895 7 0 7.11989 0 7.26746V10.9842C0 11.0119 0 11.0395 0.00922268 11.0672V11.0764C0.00922268 11.0949 0.0184454 11.1133 0.0276681 11.1318C0.0368907 11.1594 0.0553361 11.1779 0.0737815 11.1963V11.2055L0.0830042 11.2148L1.45718 12.5889C1.48485 12.6166 1.51252 12.6351 1.54941 12.6443C1.61397 12.672 1.67853 12.672 1.74309 12.6443C1.80765 12.6166 1.86298 12.5705 1.89065 12.4967ZM0.534916 7.91305L1.37418 8.75231V11.7497L0.534916 10.9104V7.91305ZM3.89197 7.53492L4.74046 8.37418H1.75231L0.913046 7.53492H3.89197Z" fill="white"/>
<path d="M18.4746 7.67383H15.8185C15.6248 7.67383 15.4588 7.83061 15.4588 8.03351V8.19952C15.4588 8.3932 15.6156 8.55921 15.8185 8.55921H17.9397V12.6633C17.9397 15.2364 15.5787 15.5223 14.555 15.5223C14.3613 15.5223 14.1953 15.6791 14.1953 15.882V16.0665C14.1953 16.2601 14.3521 16.4262 14.555 16.4262C17.1927 16.4262 18.8251 14.9874 18.8251 12.6725V8.04274C18.8343 7.84906 18.6775 7.68305 18.4746 7.67383Z" fill="white"/>
<path d="M22.9939 7.77549C22.9386 7.63715 22.8095 7.54492 22.6619 7.54492H22.4682C22.3207 7.54492 22.1916 7.63715 22.1362 7.77549L18.9083 15.9283C18.8345 16.1128 18.9267 16.3249 19.1112 16.3895C19.1573 16.4079 19.1942 16.4171 19.2403 16.4171H19.434C19.5815 16.4171 19.7107 16.3249 19.766 16.1958L20.762 13.7241H24.3497L25.3642 16.1958C25.4195 16.3341 25.5486 16.4171 25.6962 16.4171H25.8899C26.0835 16.4171 26.2495 16.2604 26.2495 16.0575C26.2495 16.0021 26.2311 15.9376 26.2034 15.8915L22.9939 7.77549ZM21.131 12.8295L22.5605 9.14045L23.9992 12.8295H21.131Z" fill="white"/>
<path d="M32.6123 7.66393H32.437C32.2434 7.66393 32.0773 7.82071 32.0773 8.02361V14.5902L27.4014 7.82071C27.3369 7.72849 27.2447 7.67315 27.134 7.66393L26.9772 7.65471C26.7835 7.64548 26.6083 7.79305 26.5898 7.98672C26.5898 7.99595 26.5898 8.00517 26.5898 8.01439V16.0566C26.5898 16.2502 26.7466 16.4163 26.9495 16.4163H27.134C27.3277 16.4163 27.4937 16.2595 27.4937 16.0566V9.53613L32.1419 16.2595C32.2065 16.3609 32.3171 16.4163 32.437 16.4163H32.6215C32.8152 16.4163 32.9812 16.2595 32.9812 16.0566V8.02361C32.9719 7.82994 32.8152 7.66393 32.6123 7.66393Z" fill="white"/>
<path d="M38.6058 15.5316H34.6954V12.4973H38.4951C38.6888 12.4973 38.8548 12.3405 38.8548 12.1376V11.9532C38.8548 11.7595 38.698 11.5935 38.4951 11.5935H34.6954V8.56843H38.5874C38.781 8.56843 38.947 8.41164 38.947 8.20874V8.03351C38.947 7.83984 38.7903 7.67383 38.5874 7.67383H34.1605C33.9668 7.67383 33.8008 7.83061 33.8008 8.03351V16.0572C33.8008 16.2509 33.9576 16.4169 34.1605 16.4169H38.615C38.8087 16.4169 38.9747 16.2601 38.9747 16.0572V15.882C38.9655 15.6883 38.7995 15.5316 38.6058 15.5316Z" fill="white"/>
<path d="M44.6708 11.6217C44.8829 11.4003 45.0581 11.1421 45.1688 10.8562C45.3809 10.2752 45.3809 9.62958 45.1688 9.04855C44.8368 8.19084 44.0805 7.68359 43.149 7.68359H39.9027C39.709 7.68359 39.543 7.84038 39.543 8.04328V16.067C39.543 16.2607 39.6998 16.4267 39.9027 16.4267H43.4718C45.0212 16.4267 45.8144 15.2739 45.9066 14.1303C45.9896 13.1711 45.5838 12.1105 44.6708 11.6217ZM43.4626 15.5321H40.4376V12.2212H43.4626C44.5417 12.2212 45.0212 13.0512 45.0212 13.8812C45.0305 14.2963 44.8921 14.7113 44.6247 15.0341C44.3572 15.3569 43.9514 15.5321 43.4626 15.5321ZM44.3388 10.5242C44.1543 11.0222 43.6747 11.345 43.149 11.3173H40.4468V8.57819H43.149C43.6747 8.55053 44.1543 8.87332 44.3388 9.37135C44.4771 9.74025 44.4771 10.1461 44.3388 10.5242Z" fill="white"/>
<path d="M49.5464 8.55975C49.7401 8.55975 49.9061 8.40296 49.9061 8.20006V8.04328C49.9061 7.8496 49.7493 7.68359 49.5464 7.68359H45.9495C45.7559 7.68359 45.5898 7.84038 45.5898 8.04328V8.20006C45.5898 8.39374 45.7466 8.55975 45.9495 8.55975H47.296V15.5321H45.9495C45.7559 15.5321 45.5898 15.6889 45.5898 15.8918V16.067C45.5898 16.2607 45.7466 16.4267 45.9495 16.4267H49.5464C49.7401 16.4267 49.9061 16.2699 49.9061 16.067V15.8918C49.9061 15.6981 49.7493 15.5321 49.5464 15.5321H48.1906V8.55975H49.5464Z" fill="white"/>
<path d="M15.4556 18.032C15.4556 18.1058 15.4464 18.1796 15.4187 18.2533C15.4002 18.3179 15.3726 18.3732 15.3265 18.4286C15.2803 18.4747 15.225 18.5208 15.1697 18.5392C15.0959 18.5669 15.0221 18.5854 14.9483 18.5761C14.8745 18.5761 14.8008 18.5669 14.7362 18.5392C14.6809 18.5208 14.6255 18.4839 14.5886 18.4378C14.5425 18.3917 14.5149 18.3363 14.4964 18.2718C14.478 18.198 14.4688 18.1242 14.4688 18.0504C14.4688 17.9767 14.478 17.9029 14.4964 17.8291C14.5149 17.7645 14.5425 17.7092 14.5886 17.6539C14.6348 17.6078 14.6901 17.5616 14.7454 17.5432C14.8192 17.5155 14.893 17.4971 14.9668 17.5063C15.0406 17.5063 15.1143 17.5155 15.1789 17.5432C15.2342 17.5616 15.2896 17.5985 15.3265 17.6446C15.3726 17.6908 15.4002 17.7553 15.4187 17.8107C15.4464 17.8844 15.4556 17.9582 15.4556 18.032ZM15.2711 18.0504C15.2711 17.9951 15.2711 17.949 15.2527 17.9029C15.2435 17.8568 15.225 17.8199 15.2066 17.7738C15.1881 17.7369 15.1512 17.7092 15.1143 17.6908C15.0682 17.6723 15.0221 17.6539 14.9668 17.6631C14.9207 17.6631 14.8745 17.6723 14.8284 17.6908C14.7915 17.7092 14.7639 17.7369 14.7362 17.7738C14.7085 17.8107 14.6901 17.8568 14.6809 17.8937C14.6716 17.949 14.6624 17.9951 14.6624 18.0504C14.6624 18.1058 14.6624 18.1519 14.6809 18.2072C14.6901 18.2533 14.7085 18.2902 14.727 18.3363C14.7547 18.3732 14.7823 18.4009 14.8192 18.4194C14.8653 18.4378 14.9114 18.4562 14.9668 18.447C15.0129 18.447 15.059 18.4378 15.1051 18.4194C15.142 18.4009 15.1697 18.3732 15.1973 18.3363C15.225 18.2995 15.2435 18.2533 15.2527 18.2165C15.2619 18.1519 15.2619 18.0966 15.2711 18.0504Z" fill="white"/>
<path d="M17.0293 18.5377C17.0293 18.5469 17.0293 18.5469 17.0293 18.5562C17.0293 18.5654 17.02 18.5654 17.0108 18.5654C17.0016 18.5654 16.9924 18.5746 16.9831 18.5746H16.937H16.8909C16.8817 18.5746 16.8725 18.5746 16.8633 18.5654C16.854 18.5654 16.854 18.5562 16.854 18.5562C16.854 18.5469 16.854 18.5469 16.854 18.5377V17.9567C16.854 17.9106 16.854 17.8645 16.8448 17.8183C16.8356 17.7815 16.8264 17.7538 16.8079 17.7261C16.7895 17.6985 16.771 17.68 16.7434 17.6708C16.7157 17.6616 16.6788 17.6523 16.6511 17.6523C16.605 17.6523 16.5497 17.6708 16.5128 17.6985C16.4575 17.7353 16.4113 17.7907 16.3652 17.8368V18.5285C16.3652 18.5377 16.3652 18.5377 16.3652 18.5469L16.356 18.5562C16.3468 18.5562 16.3376 18.5654 16.3283 18.5654H16.2822H16.2361C16.2269 18.5654 16.2177 18.5654 16.2084 18.5562C16.1992 18.5562 16.1992 18.5469 16.1992 18.5469C16.1992 18.5377 16.1992 18.5377 16.1992 18.5285V17.5417C16.1992 17.5324 16.1992 17.5324 16.1992 17.5232C16.1992 17.514 16.2084 17.514 16.2084 17.514C16.2177 17.514 16.2269 17.5048 16.2361 17.5048H16.273H16.3099C16.3191 17.5048 16.3283 17.5048 16.3376 17.514C16.3468 17.514 16.3468 17.5232 16.3468 17.5232C16.3468 17.5324 16.3468 17.5324 16.3468 17.5417V17.6708C16.3929 17.6154 16.4482 17.5693 16.5128 17.5324C16.5681 17.5048 16.6235 17.4863 16.6788 17.4863C16.7341 17.4863 16.7895 17.4956 16.8448 17.5232C16.8909 17.5417 16.9278 17.5786 16.9555 17.6154C16.9831 17.6523 17.0016 17.6985 17.0108 17.7446C17.02 17.8091 17.0293 17.8645 17.0293 17.929V18.5377Z" fill="white"/>
<path d="M17.9799 18.5399C17.9799 18.5491 17.9799 18.5491 17.9799 18.5583L17.9707 18.5675C17.9615 18.5675 17.9523 18.5768 17.943 18.5768H17.8877H17.8416C17.8324 18.5768 17.8231 18.5768 17.8139 18.5675C17.8047 18.5675 17.8047 18.5583 17.8047 18.5583C17.8047 18.5491 17.8047 18.5491 17.8047 18.5399V17.0642C17.8047 17.055 17.8047 17.055 17.8047 17.0458C17.8047 17.0366 17.8139 17.0366 17.8139 17.0366C17.8231 17.0366 17.8324 17.0273 17.8416 17.0273H17.8877H17.9338C17.943 17.0273 17.9523 17.0273 17.9615 17.0366C17.9707 17.0366 17.9707 17.0458 17.9707 17.0458C17.9707 17.055 17.9707 17.055 17.9707 17.0642V18.5399H17.9799Z" fill="white"/>
<path d="M18.9688 17.2183C18.9688 17.246 18.9596 17.2829 18.9412 17.3014C18.9135 17.3198 18.8858 17.329 18.849 17.3198C18.8213 17.3198 18.7844 17.3106 18.7659 17.3014C18.7475 17.2737 18.7383 17.246 18.7383 17.2183C18.7383 17.1907 18.7475 17.1538 18.7659 17.1353C18.7936 17.1169 18.8213 17.1077 18.8582 17.1169C18.8858 17.1169 18.9227 17.1261 18.9412 17.1353C18.9596 17.1538 18.9688 17.1815 18.9688 17.2183ZM18.9412 18.5372C18.9412 18.5464 18.9412 18.5464 18.9412 18.5556L18.932 18.5649C18.9227 18.5649 18.9135 18.5741 18.9043 18.5741H18.8582H18.8121C18.8028 18.5741 18.7936 18.5741 18.7844 18.5649C18.7752 18.5649 18.7752 18.5556 18.7752 18.5556C18.7752 18.5464 18.7752 18.5464 18.7752 18.5372V17.5504V17.5411C18.7752 17.5319 18.7844 17.5319 18.7844 17.5319C18.7936 17.5319 18.8028 17.5227 18.8121 17.5227H18.8582H18.9043C18.9135 17.5227 18.9227 17.5227 18.932 17.5319C18.9412 17.5319 18.9412 17.5411 18.9412 17.5411V17.5504V18.5372Z" fill="white"/>
<path d="M20.58 18.5377C20.58 18.5469 20.58 18.5469 20.58 18.5562C20.58 18.5654 20.5708 18.5654 20.5616 18.5654C20.5524 18.5654 20.5432 18.5746 20.5339 18.5746H20.4878H20.4417C20.4325 18.5746 20.4233 18.5746 20.414 18.5654C20.4048 18.5654 20.4048 18.5562 20.4048 18.5562C20.4048 18.5469 20.4048 18.5469 20.4048 18.5377V17.9567C20.4048 17.9106 20.4048 17.8645 20.3956 17.8183C20.3864 17.7815 20.3771 17.7538 20.3587 17.7261C20.3403 17.6985 20.3218 17.68 20.2941 17.6708C20.2665 17.6616 20.2296 17.6523 20.2019 17.6523C20.1558 17.6523 20.1005 17.6708 20.0636 17.6985C20.0082 17.7353 19.9621 17.7907 19.916 17.8368V18.5285C19.916 18.5377 19.916 18.5377 19.916 18.5469L19.9068 18.5562C19.8976 18.5562 19.8883 18.5654 19.8791 18.5654H19.833H19.7869C19.7777 18.5654 19.7684 18.5654 19.7592 18.5562C19.75 18.5562 19.75 18.5469 19.75 18.5469C19.75 18.5377 19.75 18.5377 19.75 18.5285V17.5417C19.75 17.5324 19.75 17.5324 19.75 17.5232C19.75 17.514 19.7592 17.514 19.7592 17.514C19.7684 17.514 19.7777 17.5048 19.7869 17.5048H19.8238H19.8607C19.8699 17.5048 19.8791 17.5048 19.8883 17.514C19.8976 17.514 19.8976 17.5232 19.8976 17.5232C19.8976 17.5324 19.8976 17.5324 19.8976 17.5417V17.6708C19.9437 17.6154 19.999 17.5693 20.0636 17.5324C20.1189 17.5048 20.1742 17.4863 20.2296 17.4863C20.2849 17.4863 20.3403 17.4956 20.3956 17.5232C20.4417 17.5417 20.4786 17.5786 20.5063 17.6154C20.5339 17.6523 20.5524 17.6985 20.5616 17.7446C20.5708 17.8091 20.58 17.8645 20.58 17.929V18.5377Z" fill="white"/>
<path d="M22.206 18.0014C22.206 18.0198 22.1968 18.0475 22.1876 18.0659C22.1783 18.0752 22.1599 18.0844 22.1415 18.0844H21.4866C21.4866 18.1305 21.4959 18.1858 21.5051 18.232C21.5143 18.2688 21.5328 18.315 21.5604 18.3426C21.5881 18.3795 21.625 18.398 21.6619 18.4164C21.708 18.4349 21.7633 18.4441 21.8094 18.4441C21.8556 18.4441 21.8924 18.4441 21.9386 18.4349C21.9662 18.4256 22.0031 18.4164 22.0308 18.4072C22.0585 18.398 22.0769 18.3887 22.0953 18.3795C22.1046 18.3703 22.123 18.3703 22.1322 18.3703H22.1415L22.1507 18.3795C22.1507 18.3887 22.1507 18.398 22.1599 18.398C22.1599 18.4072 22.1599 18.4164 22.1599 18.4349C22.1599 18.4441 22.1599 18.4533 22.1599 18.4625C22.1599 18.4717 22.1599 18.4717 22.1599 18.481C22.1599 18.4902 22.1599 18.4902 22.1507 18.4994C22.1507 18.5086 22.1415 18.5086 22.1415 18.5086C22.1322 18.5179 22.1138 18.5271 22.1046 18.5271C22.0769 18.5363 22.0585 18.5455 22.0308 18.5547C21.9939 18.564 21.957 18.5732 21.9201 18.5824C21.874 18.5916 21.8279 18.5916 21.791 18.5916C21.7172 18.5916 21.6434 18.5824 21.5789 18.5547C21.5235 18.5363 21.4682 18.4994 21.4221 18.4533C21.376 18.4072 21.3483 18.3426 21.3299 18.2873C21.3114 18.2135 21.293 18.1305 21.293 18.0475C21.293 17.9737 21.3022 17.8907 21.3299 17.8169C21.3483 17.7524 21.376 17.697 21.4221 17.6417C21.459 17.5956 21.5143 17.5587 21.5696 17.531C21.6342 17.5034 21.6988 17.4941 21.7633 17.4941C21.8279 17.4941 21.9017 17.5034 21.957 17.531C22.0123 17.5495 22.0585 17.5864 22.0953 17.6325C22.1322 17.6786 22.1599 17.7247 22.1691 17.78C22.1876 17.8446 22.1968 17.8999 22.1968 17.9645L22.206 18.0014ZM22.0216 17.9461C22.0308 17.863 22.0031 17.7893 21.957 17.7247C21.9109 17.6694 21.8371 17.6417 21.7633 17.6417C21.7264 17.6417 21.6803 17.6509 21.6434 17.6694C21.6065 17.6878 21.5789 17.7063 21.5604 17.7339C21.5328 17.7616 21.5143 17.7985 21.5051 17.8354C21.4959 17.8723 21.4866 17.9092 21.4866 17.9553L22.0216 17.9461Z" fill="white"/>
<path d="M24.5095 18.2685C24.5095 18.3146 24.5003 18.3607 24.4818 18.4069C24.4634 18.4438 24.4357 18.4806 24.3988 18.5083C24.362 18.536 24.3158 18.5544 24.2789 18.5729C24.2236 18.5913 24.1775 18.5913 24.1222 18.5913C24.0576 18.5913 23.993 18.5821 23.9377 18.5636C23.9193 18.5544 23.8916 18.5452 23.8732 18.536C23.8547 18.5268 23.8455 18.5175 23.8363 18.5083C23.827 18.4991 23.8178 18.4899 23.8178 18.4806C23.8178 18.4622 23.8086 18.4438 23.8086 18.4253C23.8086 18.4161 23.8086 18.3976 23.8086 18.3884C23.8086 18.3792 23.8086 18.37 23.8178 18.37C23.8178 18.3607 23.827 18.3607 23.827 18.3607H23.8363C23.8455 18.3607 23.8639 18.37 23.8732 18.3792C23.8916 18.3884 23.91 18.3976 23.9285 18.4161C23.9562 18.4253 23.9838 18.4438 24.0115 18.453C24.0484 18.4622 24.0853 18.4714 24.1222 18.4714C24.1498 18.4714 24.1775 18.4714 24.2052 18.4622C24.2328 18.453 24.2513 18.4438 24.2697 18.4345C24.2882 18.4253 24.3066 18.4069 24.3158 18.3884C24.3251 18.37 24.3343 18.3423 24.3343 18.3146C24.3343 18.287 24.3251 18.2685 24.3158 18.2409C24.2974 18.2224 24.279 18.204 24.2605 18.1855C24.2328 18.1671 24.2052 18.1578 24.1775 18.1486L24.0853 18.1117C24.0576 18.1025 24.0207 18.0841 23.993 18.0656C23.9654 18.0472 23.9377 18.0287 23.91 18.0103C23.8824 17.9826 23.8639 17.955 23.8547 17.9273C23.8363 17.8904 23.8363 17.8535 23.8363 17.8166C23.8363 17.7797 23.8455 17.7428 23.8547 17.7059C23.8732 17.669 23.8916 17.6414 23.9193 17.6137C23.9562 17.586 23.993 17.5676 24.0299 17.5492C24.0853 17.5307 24.1314 17.5215 24.1867 17.5215C24.2144 17.5215 24.2421 17.5215 24.2697 17.5307C24.2974 17.5307 24.3158 17.5399 24.3435 17.5492C24.362 17.5584 24.3804 17.5584 24.3988 17.5676C24.4081 17.5768 24.4265 17.5768 24.4357 17.586C24.445 17.586 24.445 17.5953 24.4542 17.6045C24.4542 17.6045 24.4542 17.6137 24.4634 17.6229C24.4634 17.6322 24.4634 17.6322 24.4634 17.6414C24.4634 17.6506 24.4634 17.6598 24.4634 17.669C24.4634 17.6783 24.4634 17.6875 24.4634 17.7059C24.4634 17.7152 24.4634 17.7244 24.4542 17.7244C24.4542 17.7336 24.445 17.7336 24.445 17.7336H24.4357C24.4265 17.7336 24.4173 17.7244 24.4081 17.7244C24.3896 17.7152 24.3804 17.7059 24.362 17.6967C24.3435 17.6875 24.3158 17.6783 24.2882 17.669C24.2605 17.6598 24.2236 17.6598 24.1959 17.6598C24.1683 17.6598 24.1406 17.6598 24.1129 17.669C24.0945 17.6783 24.076 17.6875 24.0576 17.6967C24.0392 17.7059 24.0299 17.7244 24.0207 17.7428C24.0115 17.7613 24.0115 17.7797 24.0115 17.7982C24.0115 17.8258 24.0207 17.8535 24.0299 17.8719C24.0484 17.8904 24.0668 17.9088 24.0853 17.9273C24.1129 17.9457 24.1406 17.955 24.1683 17.9642L24.2605 18.0011C24.2882 18.0103 24.3251 18.0287 24.3527 18.038C24.3804 18.0564 24.4081 18.0748 24.4357 18.0933C24.4634 18.1117 24.4818 18.1394 24.4911 18.1763C24.5003 18.1947 24.5095 18.2316 24.5095 18.2685Z" fill="white"/>
<path d="M25.8339 18.5393C25.8339 18.5485 25.8339 18.5485 25.8339 18.5578L25.8247 18.567C25.8155 18.567 25.8063 18.5762 25.7971 18.5762H25.7509H25.7048C25.6956 18.5762 25.6864 18.5762 25.6772 18.567C25.6679 18.567 25.6679 18.5578 25.6587 18.5578C25.6587 18.5485 25.6587 18.5485 25.6587 18.5393V17.9583C25.6587 17.9122 25.6587 17.8661 25.6495 17.82C25.6403 17.7831 25.631 17.7554 25.6126 17.7277C25.5942 17.7001 25.5757 17.6816 25.548 17.6724C25.5204 17.6632 25.4835 17.6539 25.4558 17.6539C25.4097 17.6539 25.3544 17.6724 25.3175 17.7001C25.2621 17.7369 25.216 17.7923 25.1699 17.8384V18.5301C25.1699 18.5393 25.1699 18.5393 25.1699 18.5485C25.1699 18.5578 25.1607 18.5578 25.1515 18.5578C25.1422 18.5578 25.133 18.567 25.1238 18.567H25.0869H25.0408C25.0316 18.567 25.0224 18.567 25.0131 18.5578C25.0039 18.5578 25.0039 18.5485 25.0039 18.5485C25.0039 18.5393 25.0039 18.5393 25.0039 18.5301V17.0545C25.0039 17.0452 25.0039 17.0452 25.0039 17.036C25.0039 17.0268 25.0131 17.0268 25.0131 17.0268C25.0224 17.0268 25.0316 17.0176 25.0408 17.0176H25.0869H25.133C25.1422 17.0176 25.1515 17.0176 25.1607 17.0268C25.1699 17.0268 25.1699 17.036 25.1791 17.036C25.1791 17.0452 25.1791 17.0452 25.1791 17.0545V17.6447C25.2253 17.5986 25.2806 17.5525 25.3359 17.5248C25.382 17.4972 25.4374 17.4879 25.4927 17.4879C25.548 17.4879 25.6034 17.4972 25.6587 17.5248C25.7048 17.5433 25.7417 17.5802 25.7694 17.6171C25.7971 17.6539 25.8155 17.7001 25.8247 17.7462C25.8339 17.8107 25.8432 17.8661 25.8432 17.9306L25.8339 18.5393Z" fill="white"/>
<path d="M27.3189 18.032C27.3189 18.1058 27.3096 18.1796 27.282 18.2533C27.2635 18.3179 27.2359 18.3732 27.1897 18.4286C27.1436 18.4747 27.0883 18.5208 27.033 18.5392C26.9592 18.5669 26.8854 18.5854 26.8116 18.5761C26.7378 18.5761 26.664 18.5669 26.5995 18.5392C26.5442 18.5208 26.4888 18.4839 26.4519 18.4378C26.4058 18.3917 26.3781 18.3363 26.3597 18.2718C26.3413 18.198 26.332 18.1242 26.332 18.0504C26.332 17.9767 26.3413 17.9029 26.3597 17.8291C26.3781 17.7645 26.4058 17.7092 26.4519 17.6539C26.498 17.6078 26.5534 17.5616 26.6087 17.5432C26.6825 17.5155 26.7563 17.4971 26.8301 17.5063C26.9038 17.5063 26.9776 17.5155 27.0422 17.5432C27.0975 17.5616 27.1528 17.5985 27.1897 17.6446C27.2359 17.6908 27.2635 17.7553 27.282 17.8107C27.3096 17.8844 27.3189 17.9582 27.3189 18.032ZM27.1344 18.0504C27.1344 17.9951 27.1252 17.949 27.116 17.9029C27.1067 17.8568 27.0883 17.8199 27.0698 17.7738C27.0514 17.7369 27.0145 17.7092 26.9776 17.6908C26.9315 17.6723 26.8854 17.6539 26.8301 17.6631C26.7839 17.6631 26.7378 17.6723 26.6917 17.6908C26.6548 17.7092 26.6272 17.7369 26.5995 17.7738C26.5718 17.8107 26.5534 17.8568 26.5442 17.8937C26.5349 17.949 26.5257 17.9951 26.5257 18.0504C26.5257 18.1058 26.5257 18.1519 26.5442 18.2072C26.5534 18.2533 26.5718 18.2902 26.5903 18.3363C26.6179 18.3732 26.6456 18.4009 26.6825 18.4194C26.7286 18.4378 26.7747 18.4562 26.8301 18.447C26.8762 18.447 26.9223 18.4378 26.9684 18.4194C27.0053 18.4009 27.033 18.3732 27.0606 18.3363C27.0883 18.2995 27.1067 18.2533 27.116 18.2165C27.1252 18.1519 27.1252 18.0966 27.1344 18.0504Z" fill="white"/>
<path d="M30.0824 18.0291C30.0824 18.1121 30.0732 18.1858 30.0548 18.2596C30.0363 18.3242 30.0086 18.3795 29.9718 18.4349C29.9349 18.481 29.8887 18.5179 29.8334 18.5455C29.7781 18.5732 29.7135 18.5824 29.649 18.5824C29.6213 18.5824 29.5936 18.5824 29.566 18.5732C29.5383 18.564 29.5198 18.5547 29.4922 18.5455C29.4645 18.5363 29.4461 18.5179 29.4184 18.4994C29.3907 18.481 29.3723 18.4625 29.3446 18.4349V18.9329C29.3446 18.9421 29.3446 18.9421 29.3446 18.9513C29.3446 18.9605 29.3354 18.9605 29.3262 18.9605C29.3169 18.9605 29.3077 18.9698 29.2985 18.9698C29.2801 18.9698 29.2708 18.9698 29.2524 18.9698C29.2339 18.9698 29.2247 18.9698 29.2063 18.9698C29.197 18.9698 29.1878 18.9698 29.1786 18.9605C29.1694 18.9605 29.1694 18.9513 29.1602 18.9513C29.1602 18.9421 29.1602 18.9421 29.1602 18.9329V17.5495C29.1602 17.5403 29.1602 17.5403 29.1602 17.531C29.1602 17.5218 29.1694 17.5218 29.1694 17.5218C29.1786 17.5218 29.1878 17.5126 29.197 17.5126H29.2339H29.2708C29.28 17.5126 29.2893 17.5126 29.2985 17.5218C29.3077 17.5218 29.3077 17.531 29.3077 17.531C29.3077 17.5403 29.3077 17.5403 29.3077 17.5495V17.6786C29.3354 17.6509 29.3631 17.6233 29.3907 17.5956C29.4184 17.5771 29.4461 17.5587 29.4737 17.5403C29.5014 17.5218 29.5291 17.5126 29.5567 17.5034C29.649 17.4849 29.7504 17.4941 29.8334 17.531C29.8795 17.5587 29.9256 17.5956 29.9533 17.6417C29.9902 17.697 30.0086 17.7524 30.0271 17.8077C30.0732 17.8907 30.0824 17.9553 30.0824 18.0291ZM29.898 18.0475C29.898 18.0014 29.898 17.9461 29.8887 17.8999C29.8795 17.8538 29.8703 17.8169 29.8519 17.7708C29.8334 17.7339 29.8057 17.7063 29.7781 17.6786C29.7412 17.6601 29.7043 17.6417 29.6582 17.6417C29.6305 17.6417 29.6121 17.6417 29.5844 17.6509C29.5567 17.6601 29.5383 17.6694 29.5106 17.6878C29.4829 17.7063 29.4553 17.7247 29.4368 17.7432C29.4092 17.7708 29.3815 17.7985 29.3538 17.8354V18.232C29.3999 18.2873 29.4461 18.3334 29.5014 18.3703C29.5383 18.398 29.5936 18.4164 29.6397 18.4164C29.6858 18.4164 29.7227 18.4072 29.7596 18.3795C29.7965 18.3519 29.8242 18.3242 29.8426 18.2873C29.8611 18.2504 29.8795 18.2043 29.8887 18.1674C29.8887 18.1305 29.898 18.0936 29.898 18.0475Z" fill="white"/>
<path d="M28.6996 18.0291C28.6996 18.1121 28.6904 18.1858 28.6719 18.2596C28.6535 18.3242 28.6258 18.3795 28.5889 18.4349C28.552 18.481 28.5059 18.5179 28.4506 18.5455C28.3953 18.5732 28.3307 18.5824 28.2661 18.5824C28.2385 18.5824 28.2108 18.5824 28.1831 18.5732C28.1555 18.564 28.137 18.5547 28.1094 18.5455C28.0817 18.5363 28.0632 18.5179 28.0356 18.4994C28.0079 18.481 27.9895 18.4625 27.9618 18.4349V18.9329C27.9618 18.9421 27.9618 18.9421 27.9618 18.9513C27.9618 18.9605 27.9526 18.9605 27.9434 18.9605C27.9341 18.9605 27.9249 18.9698 27.9157 18.9698C27.8972 18.9698 27.888 18.9698 27.8696 18.9698C27.8511 18.9698 27.8419 18.9698 27.8235 18.9698C27.8142 18.9698 27.805 18.9698 27.7958 18.9605C27.7866 18.9605 27.7866 18.9513 27.7773 18.9513C27.7773 18.9421 27.7773 18.9421 27.7773 18.9329V17.5495C27.7773 17.5403 27.7773 17.5403 27.7773 17.531C27.7773 17.5218 27.7866 17.5218 27.7866 17.5218C27.7958 17.5218 27.805 17.5126 27.8142 17.5126H27.8511H27.888C27.8972 17.5126 27.9065 17.5126 27.9157 17.5218C27.9249 17.5218 27.9249 17.531 27.9249 17.531C27.9249 17.5403 27.9249 17.5403 27.9249 17.5495V17.6786C27.9526 17.6509 27.9802 17.6233 28.0079 17.5956C28.0356 17.5771 28.0632 17.5587 28.0909 17.5403C28.1186 17.5218 28.1463 17.5126 28.1739 17.5034C28.2661 17.4849 28.3676 17.4941 28.4506 17.531C28.4967 17.5587 28.5428 17.5956 28.5705 17.6417C28.6074 17.697 28.6258 17.7524 28.6443 17.8077C28.6904 17.8907 28.6996 17.9553 28.6996 18.0291ZM28.5152 18.0475C28.5152 18.0014 28.5152 17.9461 28.5059 17.8999C28.4967 17.8538 28.4875 17.8169 28.469 17.7708C28.4506 17.7339 28.4229 17.7063 28.3953 17.6786C28.3584 17.6601 28.3215 17.6417 28.2754 17.6417C28.2477 17.6417 28.2293 17.6417 28.2016 17.6509C28.1739 17.6601 28.1555 17.6694 28.1278 17.6878C28.1001 17.7063 28.0725 17.7247 28.054 17.7432C28.0264 17.7708 27.9987 17.7985 27.971 17.8354V18.232C28.0171 18.2873 28.0632 18.3334 28.1186 18.3703C28.1555 18.398 28.2108 18.4164 28.2569 18.4164C28.303 18.4164 28.3399 18.4072 28.3768 18.3795C28.4137 18.3519 28.4414 18.3242 28.4598 18.2873C28.4783 18.2504 28.4967 18.2043 28.5059 18.1674C28.5059 18.1305 28.5059 18.0936 28.5152 18.0475Z" fill="white"/>
<path d="M30.7931 17.2183C30.7931 17.246 30.7838 17.2829 30.7654 17.3014C30.7377 17.3198 30.7101 17.329 30.6732 17.3198C30.6455 17.3198 30.6086 17.3106 30.5902 17.3014C30.5717 17.2737 30.5625 17.246 30.5625 17.2183C30.5625 17.1907 30.5717 17.1538 30.5902 17.1353C30.6178 17.1169 30.6455 17.1077 30.6824 17.1169C30.7101 17.1169 30.747 17.1261 30.7654 17.1353C30.7838 17.1538 30.7931 17.1815 30.7931 17.2183ZM30.7746 18.5372C30.7746 18.5464 30.7746 18.5464 30.7746 18.5556C30.7746 18.5649 30.7654 18.5649 30.7562 18.5649C30.747 18.5649 30.7377 18.5741 30.7285 18.5741H30.6824H30.6363C30.6271 18.5741 30.6178 18.5741 30.6086 18.5649C30.5994 18.5649 30.5994 18.5556 30.5902 18.5556C30.5902 18.5464 30.5902 18.5464 30.5902 18.5372V17.5504V17.5411C30.5902 17.5319 30.5994 17.5319 30.6086 17.5319C30.6178 17.5319 30.6271 17.5227 30.6363 17.5227H30.6824H30.7285C30.7377 17.5227 30.747 17.5227 30.7562 17.5319C30.7654 17.5319 30.7654 17.5411 30.7746 17.5411V17.5504V18.5372Z" fill="white"/>
<path d="M32.1102 18.5377C32.1102 18.5469 32.1102 18.5469 32.1102 18.5562L32.101 18.5654C32.0918 18.5654 32.0825 18.5746 32.0733 18.5746H32.0272H31.9811C31.9719 18.5746 31.9626 18.5746 31.9534 18.5654C31.9442 18.5654 31.9442 18.5562 31.935 18.5562C31.935 18.5469 31.935 18.5469 31.935 18.5377V17.9567C31.935 17.9106 31.935 17.8645 31.9258 17.8183C31.9165 17.7815 31.9073 17.7538 31.8889 17.7261C31.8704 17.6985 31.852 17.68 31.8243 17.6708C31.7966 17.6616 31.7597 17.6523 31.7321 17.6523C31.686 17.6523 31.6306 17.6708 31.5937 17.6985C31.5384 17.7353 31.4923 17.7907 31.4462 17.8368V18.5285C31.4462 18.5377 31.4462 18.5377 31.4462 18.5469C31.4462 18.5562 31.4369 18.5562 31.4277 18.5562C31.4185 18.5562 31.4093 18.5654 31.4001 18.5654H31.3539H31.3078C31.2986 18.5654 31.2894 18.5654 31.2802 18.5562C31.2709 18.5562 31.2709 18.5469 31.2617 18.5469C31.2617 18.5377 31.2617 18.5377 31.2617 18.5285V17.5417C31.2617 17.5324 31.2617 17.5324 31.2617 17.5232C31.2617 17.514 31.2709 17.514 31.2709 17.514C31.2802 17.514 31.2894 17.5048 31.2986 17.5048H31.3355H31.3724C31.3816 17.5048 31.3908 17.5048 31.4001 17.514C31.4093 17.514 31.4093 17.5232 31.4093 17.5232C31.4093 17.5324 31.4093 17.5324 31.4093 17.5417V17.6708C31.4554 17.6154 31.5107 17.5693 31.5753 17.5324C31.6306 17.5048 31.686 17.4863 31.7413 17.4863C31.7966 17.4863 31.852 17.4956 31.9073 17.5232C31.9534 17.5417 31.9903 17.5786 32.018 17.6154C32.0456 17.6523 32.0641 17.6985 32.0733 17.7446C32.0825 17.8091 32.0918 17.8645 32.0918 17.929L32.1102 18.5377Z" fill="white"/>
<path d="M33.5459 17.5986C33.5459 17.6171 33.5459 17.6355 33.5366 17.654C33.5274 17.6632 33.5182 17.6724 33.509 17.6724H33.3706C33.3983 17.7001 33.4167 17.7277 33.426 17.7554C33.4352 17.7831 33.4444 17.82 33.4444 17.8569C33.4444 17.9122 33.4352 17.9583 33.4167 18.0044C33.3983 18.0505 33.3706 18.0874 33.3337 18.1151C33.2968 18.1428 33.26 18.1704 33.2138 18.1889C33.1677 18.2073 33.1124 18.2165 33.0571 18.2165C33.0202 18.2165 32.9833 18.2073 32.9464 18.1981C32.9187 18.1889 32.891 18.1797 32.8634 18.1612C32.8542 18.1704 32.8357 18.1889 32.8265 18.2073C32.8173 18.2258 32.8173 18.2442 32.8173 18.2627C32.8173 18.2903 32.8357 18.3088 32.8542 18.3272C32.8818 18.3457 32.9095 18.3549 32.9464 18.3549L33.2046 18.3641C33.2507 18.3641 33.2968 18.3733 33.343 18.3826C33.3799 18.3918 33.4167 18.4102 33.4536 18.4379C33.4813 18.4563 33.509 18.484 33.5274 18.5209C33.5459 18.5578 33.5551 18.5947 33.5551 18.6316C33.5551 18.6777 33.5459 18.7238 33.5274 18.7607C33.509 18.8068 33.4813 18.8437 33.4444 18.8714C33.3983 18.9083 33.3522 18.9267 33.2968 18.9451C33.2231 18.9636 33.1493 18.9728 33.0847 18.9728C33.0202 18.9728 32.9464 18.9636 32.8818 18.9544C32.8357 18.9451 32.7896 18.9267 32.7435 18.899C32.7066 18.8806 32.6789 18.8529 32.6605 18.816C32.642 18.7791 32.6328 18.7422 32.6328 18.7146C32.6328 18.6869 32.6328 18.6685 32.642 18.6408C32.6513 18.6223 32.6605 18.5947 32.6697 18.5762C32.6789 18.5578 32.6974 18.5393 32.7158 18.5209C32.7343 18.5025 32.7527 18.484 32.7804 18.4656C32.7435 18.4471 32.725 18.4287 32.6974 18.3918C32.6789 18.3641 32.6697 18.3364 32.6697 18.2996C32.6697 18.2534 32.6789 18.2165 32.6974 18.1797C32.7158 18.1428 32.7343 18.1151 32.7619 18.0874C32.7435 18.0598 32.725 18.0321 32.7066 17.9952C32.6882 17.9583 32.6881 17.9122 32.6881 17.8753C32.6881 17.82 32.6974 17.7739 32.7158 17.7277C32.7343 17.6816 32.7619 17.6447 32.7988 17.6171C32.8357 17.5894 32.8726 17.5617 32.9187 17.5433C32.9648 17.5248 33.0202 17.5156 33.0755 17.5156C33.1032 17.5156 33.1308 17.5156 33.1585 17.5248C33.1862 17.5248 33.2046 17.5341 33.2323 17.5341H33.5274C33.5366 17.5341 33.5459 17.5433 33.5551 17.5525C33.5459 17.5617 33.5459 17.5802 33.5459 17.5986ZM33.3522 18.6408C33.3522 18.6039 33.3337 18.567 33.2968 18.5393C33.2507 18.5117 33.2046 18.5025 33.1585 18.5025L32.9003 18.4932C32.8818 18.5117 32.8634 18.5301 32.8449 18.5486C32.8357 18.567 32.8173 18.5762 32.808 18.5947C32.7988 18.6039 32.7896 18.6223 32.7896 18.6408C32.7896 18.6592 32.7804 18.6685 32.7804 18.6869C32.7804 18.733 32.808 18.7791 32.8542 18.7976C32.9187 18.8252 32.9833 18.8345 33.0571 18.8345C33.1032 18.8345 33.1493 18.8345 33.1954 18.816C33.2323 18.8068 33.26 18.7976 33.2876 18.7699C33.3061 18.7515 33.3245 18.733 33.3337 18.7054C33.3522 18.6869 33.3614 18.6685 33.3522 18.6408ZM33.26 17.8569C33.26 17.8015 33.2415 17.7462 33.2046 17.7001C33.1585 17.6632 33.1032 17.6355 33.0478 17.6447C33.0202 17.6447 32.9833 17.654 32.9556 17.6632C32.9279 17.6724 32.9095 17.6909 32.891 17.7093C32.8726 17.7277 32.8634 17.7554 32.8542 17.7831C32.8449 17.8108 32.8449 17.8384 32.8449 17.8661C32.8357 17.9768 32.9095 18.069 33.0202 18.0782C33.0294 18.0782 33.0478 18.0782 33.0571 18.0782C33.0847 18.0782 33.1216 18.069 33.1493 18.0598C33.177 18.0505 33.1954 18.0321 33.2138 18.0137C33.2323 17.9952 33.2415 17.9675 33.2507 17.9399C33.26 17.9122 33.2692 17.8845 33.26 17.8569Z" fill="white"/>
<path d="M35.9316 18.5393C35.9316 18.5486 35.9316 18.5578 35.9224 18.5578C35.9132 18.567 35.9039 18.567 35.8947 18.567C35.8763 18.567 35.867 18.567 35.8486 18.567C35.8302 18.567 35.8209 18.567 35.8025 18.567C35.7933 18.567 35.784 18.5578 35.7748 18.5578C35.7656 18.5486 35.7656 18.5486 35.7656 18.5393V18.4379C35.7287 18.484 35.6734 18.5209 35.618 18.5486C35.5627 18.5762 35.5074 18.5855 35.452 18.5855C35.4059 18.5855 35.3598 18.5762 35.3137 18.567C35.2768 18.5578 35.2399 18.5393 35.203 18.5117C35.1753 18.484 35.1477 18.4563 35.1292 18.4194C35.1108 18.3826 35.1016 18.3364 35.1016 18.2903C35.1016 18.2442 35.1108 18.1889 35.1385 18.1428C35.1661 18.0967 35.1938 18.069 35.2399 18.0413C35.286 18.0136 35.3414 17.9952 35.3967 17.9768C35.4612 17.9583 35.535 17.9583 35.5996 17.9583H35.7379V17.8845C35.7379 17.8476 35.7379 17.82 35.7287 17.7831C35.7195 17.7554 35.7103 17.7277 35.6918 17.7093C35.6734 17.6909 35.6457 17.6724 35.618 17.6632C35.5811 17.654 35.5443 17.6447 35.5166 17.6447C35.4797 17.6447 35.4336 17.654 35.3967 17.6632C35.369 17.6724 35.3321 17.6816 35.3045 17.7001C35.2768 17.7093 35.2583 17.7277 35.2399 17.737C35.2307 17.7462 35.2122 17.7462 35.203 17.7554C35.1938 17.7554 35.1938 17.7554 35.1846 17.7554C35.1753 17.7554 35.1753 17.7462 35.1753 17.7462C35.1753 17.737 35.1661 17.7277 35.1661 17.7277C35.1661 17.7185 35.1661 17.7093 35.1661 17.7001C35.1661 17.6816 35.1661 17.6724 35.1661 17.654C35.1661 17.6447 35.1753 17.6355 35.1846 17.6263C35.203 17.6171 35.2215 17.5986 35.2399 17.5894C35.2676 17.571 35.2952 17.5617 35.3229 17.5525C35.3598 17.5433 35.3875 17.5341 35.4244 17.5248C35.4612 17.5156 35.4981 17.5156 35.535 17.5156C35.5996 17.5156 35.6641 17.5248 35.7195 17.5433C35.7656 17.5525 35.8025 17.5802 35.8394 17.6171C35.867 17.654 35.8947 17.6909 35.9039 17.737C35.9224 17.7923 35.9224 17.8476 35.9224 17.903L35.9316 18.5393ZM35.7472 18.0874H35.5996C35.5535 18.0874 35.5166 18.0874 35.4705 18.0967C35.4336 18.1059 35.4059 18.1151 35.3782 18.1335C35.3598 18.152 35.3414 18.1704 35.3229 18.1889C35.3137 18.2165 35.3045 18.2442 35.3045 18.2719C35.3045 18.318 35.3229 18.3641 35.3506 18.3918C35.3875 18.4287 35.4336 18.4379 35.4889 18.4379C35.535 18.4379 35.5811 18.4287 35.618 18.401C35.6641 18.3733 35.7103 18.3364 35.7472 18.2903V18.0874Z" fill="white"/>
<path d="M37.4363 18.3887C37.4363 18.398 37.4363 18.4072 37.4363 18.4256C37.4363 18.4349 37.4363 18.4441 37.4363 18.4441C37.4363 18.4533 37.4363 18.4533 37.427 18.4625C37.4178 18.4717 37.4178 18.481 37.4086 18.481C37.3902 18.4902 37.3809 18.5086 37.3625 18.5179C37.3348 18.5363 37.3164 18.5455 37.2887 18.5547C37.261 18.564 37.2241 18.5732 37.1965 18.5824C37.1596 18.5916 37.1319 18.5916 37.095 18.5916C37.0305 18.5916 36.9659 18.5824 36.9014 18.5547C36.846 18.5363 36.7999 18.4994 36.763 18.4533C36.7261 18.4072 36.6985 18.3519 36.68 18.2873C36.6616 18.2135 36.6523 18.1397 36.6523 18.0567C36.6523 17.9737 36.6616 17.8907 36.6892 17.8077C36.7077 17.7432 36.7446 17.6878 36.7907 17.6325C36.8276 17.5864 36.8829 17.5587 36.9382 17.531C36.9936 17.5126 37.0581 17.4941 37.1227 17.4941C37.1504 17.4941 37.1873 17.4941 37.2149 17.5034C37.2426 17.5126 37.2703 17.5126 37.2979 17.5218C37.3256 17.531 37.344 17.5403 37.3625 17.5587C37.3809 17.5679 37.3902 17.5771 37.4086 17.5956C37.4178 17.6048 37.4178 17.6048 37.427 17.614C37.427 17.6233 37.4363 17.6233 37.4363 17.6325C37.4363 17.6417 37.4363 17.6509 37.4363 17.6601C37.4363 17.6694 37.4363 17.6786 37.4363 17.697C37.4363 17.7155 37.4363 17.7339 37.427 17.7524C37.427 17.7616 37.4178 17.7708 37.3994 17.7708C37.3809 17.7708 37.3717 17.7616 37.3625 17.7524C37.344 17.7339 37.3256 17.7247 37.3072 17.7155C37.2795 17.697 37.2518 17.6878 37.2242 17.6786C37.1873 17.6694 37.1504 17.6601 37.1135 17.6601C37.0305 17.6601 36.9567 17.697 36.9106 17.7616C36.8552 17.8538 36.8368 17.9553 36.8368 18.0567C36.8368 18.1121 36.846 18.1674 36.8552 18.2227C36.8645 18.2688 36.8829 18.3057 36.9106 18.3426C36.929 18.3703 36.9659 18.398 36.9936 18.4164C37.0305 18.4349 37.0674 18.4441 37.1135 18.4441C37.1504 18.4441 37.1873 18.4349 37.2242 18.4256C37.2518 18.4164 37.2795 18.398 37.3072 18.3795C37.3348 18.3611 37.3533 18.3519 37.3625 18.3334C37.3717 18.3242 37.3809 18.315 37.3994 18.315H37.4086C37.4086 18.315 37.4178 18.3242 37.4178 18.3334C37.4178 18.3426 37.427 18.3518 37.427 18.3611C37.427 18.3611 37.4363 18.3703 37.4363 18.3887Z" fill="white"/>
<path d="M38.8386 18.3887C38.8386 18.398 38.8386 18.4072 38.8386 18.4256C38.8386 18.4349 38.8386 18.4441 38.8386 18.4441C38.8386 18.4533 38.8386 18.4533 38.8294 18.4625C38.8202 18.4717 38.8202 18.481 38.8109 18.481C38.7925 18.4902 38.7833 18.5086 38.7648 18.5179C38.7372 18.5363 38.7187 18.5455 38.6911 18.5547C38.6634 18.564 38.6265 18.5732 38.5988 18.5824C38.5619 18.5916 38.5343 18.5916 38.4974 18.5916C38.4328 18.5916 38.3683 18.5824 38.3037 18.5547C38.2484 18.5363 38.2022 18.4994 38.1654 18.4533C38.1285 18.4072 38.1008 18.3519 38.0824 18.2873C38.0639 18.2135 38.0547 18.1397 38.0547 18.0567C38.0547 17.9737 38.0639 17.8907 38.0916 17.8077C38.11 17.7432 38.1469 17.6878 38.193 17.6325C38.2299 17.5864 38.2853 17.5587 38.3406 17.531C38.3959 17.5126 38.4605 17.4941 38.525 17.4941C38.5527 17.4941 38.5896 17.4941 38.6173 17.5034C38.6449 17.5126 38.6726 17.5126 38.7003 17.5218C38.7279 17.531 38.7464 17.5403 38.7648 17.5587C38.7833 17.5679 38.7925 17.5771 38.8109 17.5956C38.8202 17.6048 38.8202 17.6048 38.8294 17.614C38.8294 17.6233 38.8386 17.6233 38.8386 17.6325C38.8386 17.6417 38.8386 17.6509 38.8386 17.6601C38.8386 17.6694 38.8386 17.6786 38.8386 17.697C38.8386 17.7155 38.8386 17.7339 38.8294 17.7524C38.8294 17.7616 38.8202 17.7708 38.8017 17.7708C38.7833 17.7708 38.7741 17.7616 38.7648 17.7524C38.7464 17.7339 38.7279 17.7247 38.7095 17.7155C38.6818 17.697 38.6542 17.6878 38.6265 17.6786C38.5896 17.6694 38.5527 17.6601 38.5158 17.6601C38.4328 17.6601 38.359 17.697 38.3129 17.7616C38.2576 17.8538 38.2391 17.9553 38.2391 18.0567C38.2391 18.1121 38.2484 18.1674 38.2576 18.2227C38.2668 18.2688 38.2853 18.3057 38.3129 18.3426C38.3314 18.3703 38.3683 18.398 38.3959 18.4164C38.4328 18.4349 38.4697 18.4441 38.5158 18.4441C38.5527 18.4441 38.5896 18.4349 38.6265 18.4256C38.6542 18.4164 38.6818 18.398 38.7095 18.3795C38.7372 18.3611 38.7556 18.3519 38.7648 18.3334C38.7741 18.3242 38.7833 18.315 38.8017 18.315H38.8109C38.8109 18.315 38.8202 18.3242 38.8202 18.3334C38.8202 18.3426 38.8294 18.3518 38.8294 18.3611C38.8386 18.3611 38.8386 18.3703 38.8386 18.3887Z" fill="white"/>
<path d="M40.3701 18.0014C40.3701 18.0198 40.3609 18.0475 40.3516 18.0659C40.3424 18.0752 40.324 18.0844 40.3055 18.0844H39.6507C39.6507 18.1305 39.6599 18.1858 39.6692 18.232C39.6784 18.2688 39.6968 18.315 39.7245 18.3426C39.7522 18.3795 39.789 18.398 39.8259 18.4164C39.8721 18.4349 39.9274 18.4441 39.9735 18.4441C40.0196 18.4441 40.0565 18.4441 40.1026 18.4349C40.1303 18.4256 40.1672 18.4164 40.1948 18.4072C40.2225 18.398 40.241 18.3887 40.2594 18.3795C40.2686 18.3703 40.2871 18.3703 40.2963 18.3703H40.3055L40.3147 18.3795C40.3147 18.3887 40.3147 18.398 40.324 18.398C40.324 18.4072 40.324 18.4164 40.324 18.4349C40.324 18.4441 40.324 18.4533 40.324 18.4625C40.324 18.4717 40.324 18.4717 40.324 18.481C40.324 18.4902 40.324 18.4902 40.3147 18.4994C40.3147 18.5086 40.3055 18.5086 40.3055 18.5086C40.2963 18.5179 40.2779 18.5271 40.2686 18.5271C40.241 18.5363 40.2225 18.5455 40.1948 18.5547C40.158 18.564 40.1211 18.5732 40.0842 18.5824C40.0381 18.5916 39.9919 18.5916 39.9551 18.5916C39.8813 18.5916 39.8075 18.5824 39.7429 18.5547C39.6876 18.5363 39.6323 18.4994 39.5862 18.4533C39.54 18.4072 39.5124 18.3426 39.4939 18.2873C39.4755 18.2135 39.457 18.1305 39.457 18.0475C39.457 17.9737 39.4663 17.8907 39.4939 17.8169C39.5124 17.7524 39.54 17.697 39.5862 17.6417C39.623 17.5956 39.6784 17.5587 39.7337 17.531C39.7983 17.5034 39.8628 17.4941 39.9274 17.4941C39.9919 17.4941 40.0657 17.5034 40.1211 17.531C40.1764 17.5495 40.2225 17.5864 40.2594 17.6325C40.2963 17.6786 40.324 17.7247 40.3332 17.78C40.3516 17.8446 40.3609 17.8999 40.3609 17.9645L40.3701 18.0014ZM40.1856 17.9461C40.1948 17.863 40.1672 17.7893 40.1211 17.7247C40.075 17.6694 40.0012 17.6417 39.9274 17.6417C39.8905 17.6417 39.8444 17.6509 39.8075 17.6694C39.7706 17.6878 39.7429 17.7063 39.7245 17.7339C39.6968 17.7616 39.6784 17.7985 39.6692 17.8354C39.6599 17.8723 39.6507 17.9092 39.6507 17.9553L40.1856 17.9461Z" fill="white"/>
<path d="M41.7087 18.2685C41.7087 18.3146 41.6995 18.3607 41.6811 18.4069C41.6626 18.4438 41.635 18.4806 41.5981 18.5083C41.5612 18.536 41.5243 18.5544 41.4782 18.5729C41.4228 18.5913 41.3767 18.5913 41.3214 18.5913C41.2568 18.5913 41.1923 18.5821 41.1369 18.5636C41.1185 18.5544 41.0908 18.5452 41.0724 18.536C41.0539 18.5268 41.0447 18.5175 41.0355 18.5083C41.0263 18.4991 41.017 18.4899 41.017 18.4806C41.017 18.4622 41.0078 18.4438 41.0078 18.4253C41.0078 18.4161 41.0078 18.3976 41.0078 18.3884C41.0078 18.3792 41.0078 18.37 41.017 18.37C41.017 18.3607 41.0263 18.3607 41.0263 18.3607H41.0355C41.0447 18.3607 41.0631 18.37 41.0724 18.3792C41.0908 18.3884 41.1093 18.3976 41.1277 18.4161C41.1554 18.4253 41.183 18.4438 41.2107 18.453C41.2476 18.4622 41.2845 18.4714 41.3214 18.4714C41.3491 18.4714 41.3767 18.4714 41.4044 18.4622C41.4321 18.453 41.4505 18.4438 41.4689 18.4345C41.4874 18.4253 41.5058 18.4069 41.5151 18.3884C41.5243 18.37 41.5335 18.3423 41.5335 18.3146C41.5335 18.287 41.5243 18.2685 41.5151 18.2409C41.4966 18.2224 41.4782 18.204 41.4597 18.1855C41.4321 18.1671 41.4044 18.1578 41.3767 18.1486L41.2845 18.1117C41.2568 18.1025 41.2199 18.0841 41.1923 18.0656C41.1646 18.0472 41.1369 18.0287 41.1093 18.0103C41.0816 17.9826 41.0631 17.955 41.0539 17.9273C41.0355 17.8904 41.0355 17.8535 41.0355 17.8166C41.0355 17.7797 41.0447 17.7428 41.0539 17.7059C41.0724 17.669 41.0908 17.6414 41.1185 17.6137C41.1554 17.586 41.1923 17.5676 41.2292 17.5492C41.2845 17.5307 41.3306 17.5215 41.3859 17.5215C41.4136 17.5215 41.4413 17.5215 41.4689 17.5307C41.4966 17.5307 41.5151 17.5399 41.5427 17.5492C41.5612 17.5584 41.5796 17.5584 41.5981 17.5676C41.6073 17.5768 41.6257 17.5768 41.635 17.586C41.6442 17.586 41.6442 17.5953 41.6534 17.6045C41.6534 17.6045 41.6534 17.6137 41.6626 17.6229C41.6626 17.6322 41.6626 17.6322 41.6626 17.6414C41.6626 17.6506 41.6626 17.6598 41.6626 17.669C41.6626 17.6783 41.6626 17.6875 41.6626 17.7059C41.6626 17.7152 41.6626 17.7244 41.6534 17.7244C41.6534 17.7336 41.6442 17.7336 41.6442 17.7336H41.635C41.6257 17.7336 41.6165 17.7244 41.6073 17.7244C41.5888 17.7152 41.5796 17.7059 41.5612 17.6967C41.5427 17.6875 41.5151 17.6783 41.4874 17.669C41.4597 17.6598 41.4228 17.6598 41.3952 17.6598C41.3675 17.6598 41.3398 17.6598 41.3122 17.669C41.2937 17.6783 41.2753 17.6875 41.2568 17.6967C41.2384 17.7059 41.2292 17.7244 41.2199 17.7428C41.2107 17.7613 41.2107 17.7797 41.2107 17.7982C41.2107 17.8258 41.2199 17.8535 41.2292 17.8719C41.2476 17.8904 41.266 17.9088 41.2845 17.9273C41.3122 17.9457 41.3398 17.955 41.3675 17.9642L41.4597 18.0011C41.4874 18.0103 41.5243 18.0287 41.552 18.038C41.5796 18.0564 41.6073 18.0748 41.635 18.0933C41.6626 18.1117 41.6811 18.1394 41.6903 18.1763C41.6995 18.1947 41.7087 18.2316 41.7087 18.2685Z" fill="white"/>
<path d="M43.0486 18.2685C43.0486 18.3146 43.0394 18.3607 43.0209 18.4069C43.0025 18.4438 42.9748 18.4806 42.9379 18.5083C42.901 18.536 42.8641 18.5544 42.818 18.5729C42.7627 18.5913 42.7166 18.5913 42.6612 18.5913C42.5967 18.5913 42.5321 18.5821 42.4768 18.5636C42.4583 18.5544 42.4307 18.5452 42.4122 18.536C42.3938 18.5268 42.3845 18.5175 42.3753 18.5083C42.3661 18.4991 42.3569 18.4899 42.3569 18.4806C42.3569 18.4622 42.3477 18.4438 42.3477 18.4253C42.3477 18.4161 42.3477 18.3976 42.3477 18.3884C42.3477 18.3792 42.3477 18.37 42.3569 18.37C42.3569 18.3607 42.3661 18.3607 42.3661 18.3607H42.3753C42.3845 18.3607 42.403 18.37 42.4122 18.3792C42.4307 18.3884 42.4491 18.3976 42.4676 18.4161C42.4952 18.4253 42.5229 18.4438 42.5506 18.453C42.5874 18.4622 42.6243 18.4714 42.6612 18.4714C42.6889 18.4714 42.7166 18.4714 42.7442 18.4622C42.7719 18.453 42.7903 18.4438 42.8088 18.4345C42.8272 18.4253 42.8457 18.4069 42.8549 18.3884C42.8641 18.37 42.8733 18.3423 42.8733 18.3146C42.8733 18.287 42.8641 18.2685 42.8549 18.2409C42.8365 18.2224 42.818 18.204 42.7996 18.1855C42.7719 18.1671 42.7442 18.1578 42.7166 18.1486L42.6243 18.1117C42.5967 18.1025 42.5598 18.0841 42.5321 18.0656C42.5044 18.0472 42.4768 18.0287 42.4491 18.0103C42.4214 17.9826 42.403 17.955 42.3938 17.9273C42.3753 17.8904 42.3753 17.8535 42.3753 17.8166C42.3753 17.7797 42.3845 17.7428 42.3938 17.7059C42.4122 17.669 42.4307 17.6414 42.4583 17.6137C42.4952 17.586 42.5321 17.5676 42.569 17.5492C42.6243 17.5307 42.6704 17.5215 42.7258 17.5215C42.7535 17.5215 42.7811 17.5215 42.8088 17.5307C42.8365 17.5307 42.8549 17.5399 42.8826 17.5492C42.901 17.5584 42.9195 17.5584 42.9379 17.5676C42.9471 17.5768 42.9656 17.5768 42.9748 17.586C42.984 17.586 42.984 17.5953 42.9932 17.6045C42.9932 17.6045 42.9932 17.6137 43.0025 17.6229C43.0025 17.6322 43.0025 17.6322 43.0025 17.6414C43.0025 17.6506 43.0025 17.6598 43.0025 17.669C43.0025 17.6783 43.0025 17.6875 43.0025 17.7059C43.0025 17.7152 43.0025 17.7244 42.9932 17.7244C42.9932 17.7336 42.984 17.7336 42.984 17.7336H42.9748C42.9656 17.7336 42.9564 17.7244 42.9471 17.7244C42.9287 17.7152 42.9195 17.7059 42.901 17.6967C42.8826 17.6875 42.8549 17.6783 42.8272 17.669C42.7996 17.6598 42.7627 17.6598 42.735 17.6598C42.7073 17.6598 42.6797 17.6598 42.652 17.669C42.6336 17.6783 42.6151 17.6875 42.5967 17.6967C42.5782 17.7059 42.569 17.7244 42.5598 17.7428C42.5506 17.7613 42.5506 17.7797 42.5506 17.7982C42.5506 17.8258 42.5598 17.8535 42.569 17.8719C42.5874 17.8904 42.6059 17.9088 42.6243 17.9273C42.652 17.9457 42.6797 17.955 42.7073 17.9642L42.7996 18.0011C42.8272 18.0103 42.8641 18.0287 42.8918 18.038C42.9195 18.0564 42.9471 18.0748 42.9748 18.0933C43.0025 18.1117 43.0209 18.1394 43.0301 18.1763C43.0301 18.1947 43.0394 18.2316 43.0486 18.2685Z" fill="white"/>
<path d="M44.6743 18.032C44.6743 18.1058 44.6651 18.1796 44.6374 18.2533C44.619 18.3179 44.5913 18.3732 44.5452 18.4286C44.4991 18.4747 44.4438 18.5208 44.3884 18.5392C44.3146 18.5669 44.2409 18.5854 44.1671 18.5761C44.0933 18.5761 44.0195 18.5669 43.955 18.5392C43.8996 18.5208 43.8443 18.4839 43.8074 18.4378C43.7613 18.3917 43.7336 18.3363 43.7152 18.2718C43.6967 18.198 43.6875 18.1242 43.6875 18.0504C43.6875 17.9767 43.6967 17.9029 43.7152 17.8291C43.7336 17.7645 43.7613 17.7092 43.8074 17.6539C43.8535 17.6078 43.9088 17.5616 43.9642 17.5432C44.038 17.5155 44.1117 17.4971 44.1855 17.5063C44.2593 17.5063 44.3331 17.5155 44.3976 17.5432C44.453 17.5616 44.5083 17.5985 44.5452 17.6446C44.5913 17.6908 44.619 17.7553 44.6374 17.8107C44.6651 17.8844 44.6743 17.9582 44.6743 18.032ZM44.4899 18.0504C44.4899 17.9951 44.4807 17.949 44.4714 17.9029C44.4622 17.8568 44.4438 17.8199 44.4253 17.7738C44.4069 17.7369 44.37 17.7092 44.3331 17.6908C44.287 17.6723 44.2409 17.6539 44.1855 17.6631C44.1394 17.6631 44.0933 17.6723 44.0472 17.6908C44.0103 17.7092 43.9826 17.7369 43.955 17.7738C43.9273 17.8107 43.9088 17.8568 43.8996 17.8937C43.8904 17.949 43.8812 17.9951 43.8812 18.0504C43.8812 18.1058 43.8812 18.1519 43.8996 18.2072C43.9088 18.2533 43.9273 18.2902 43.9457 18.3363C43.9734 18.3732 44.0011 18.4009 44.038 18.4194C44.0841 18.4378 44.1302 18.4562 44.1855 18.447C44.2316 18.447 44.2778 18.4378 44.3239 18.4194C44.3608 18.4009 44.3884 18.3732 44.4161 18.3363C44.4438 18.2995 44.4622 18.2533 44.4714 18.2165C44.4807 18.1519 44.4899 18.0966 44.4899 18.0504Z" fill="white"/>
<path d="M45.9717 17.6171C45.9717 17.6355 45.9717 17.6447 45.9717 17.654C45.9717 17.6632 45.9717 17.6724 45.9717 17.6816C45.9717 17.6909 45.9717 17.6909 45.9624 17.7001L45.9532 17.7093C45.944 17.7093 45.9348 17.7093 45.9348 17.7001L45.9071 17.6909L45.8702 17.6816C45.8518 17.6816 45.8425 17.6816 45.8241 17.6816C45.8056 17.6816 45.7872 17.6816 45.7688 17.6909C45.7503 17.7001 45.7319 17.7093 45.7134 17.7277C45.695 17.7462 45.6673 17.7739 45.6489 17.7923C45.6304 17.82 45.6027 17.8569 45.5751 17.8938V18.5393C45.5751 18.5486 45.5751 18.5486 45.5751 18.5578C45.5751 18.567 45.5659 18.567 45.5566 18.567C45.5474 18.567 45.5382 18.5762 45.529 18.5762H45.4829H45.4367C45.4275 18.5762 45.4183 18.5762 45.4091 18.567C45.3998 18.567 45.3998 18.5578 45.3906 18.5578C45.3906 18.5486 45.3906 18.5486 45.3906 18.5393V17.5525C45.3906 17.5433 45.3906 17.5433 45.3906 17.5341C45.3906 17.5248 45.3998 17.5248 45.3998 17.5248C45.4091 17.5248 45.4183 17.5156 45.4275 17.5156H45.4644H45.5013C45.5105 17.5156 45.5197 17.5156 45.529 17.5248C45.5382 17.5248 45.5382 17.5341 45.5382 17.5341C45.5382 17.5433 45.5382 17.5433 45.5382 17.5525V17.7001C45.5659 17.6632 45.5843 17.6355 45.612 17.6079C45.6304 17.5894 45.6581 17.5617 45.6765 17.5525C45.695 17.5433 45.7134 17.5248 45.7411 17.5248C45.7595 17.5156 45.7872 17.5156 45.8056 17.5156H45.8425L45.8794 17.5248L45.9163 17.5341C45.9255 17.5341 45.9348 17.5433 45.9348 17.5433L45.944 17.5525V17.5617C45.944 17.571 45.944 17.5802 45.944 17.5802C45.9717 17.5894 45.9717 17.5986 45.9717 17.6171Z" fill="white"/>
<path d="M46.8321 17.2183C46.8321 17.246 46.8229 17.2829 46.8045 17.3014C46.7768 17.3198 46.7491 17.329 46.7122 17.3198C46.6846 17.3198 46.6477 17.3106 46.6292 17.3014C46.6108 17.2737 46.6016 17.246 46.6016 17.2183C46.6016 17.1907 46.6108 17.1538 46.6292 17.1353C46.6569 17.1169 46.6846 17.1077 46.7215 17.1169C46.7491 17.1169 46.786 17.1261 46.8045 17.1353C46.8229 17.1538 46.8321 17.1815 46.8321 17.2183ZM46.8045 18.5372C46.8045 18.5464 46.8045 18.5464 46.8045 18.5556C46.8045 18.5649 46.7952 18.5649 46.786 18.5649C46.7768 18.5649 46.7676 18.5741 46.7583 18.5741H46.7122H46.6661C46.6569 18.5741 46.6477 18.5741 46.6385 18.5649C46.6292 18.5649 46.6292 18.5556 46.62 18.5556C46.62 18.5464 46.62 18.5464 46.62 18.5372V17.5504V17.5411C46.62 17.5319 46.6292 17.5319 46.6385 17.5319C46.6477 17.5319 46.6569 17.5227 46.6661 17.5227H46.7122H46.7583C46.7676 17.5227 46.7768 17.5227 46.786 17.5319C46.7952 17.5319 46.7952 17.5411 46.8045 17.5411V17.5504V18.5372Z" fill="white"/>
<path d="M48.4365 18.0014C48.4365 18.0198 48.4273 18.0475 48.418 18.0659C48.4088 18.0752 48.3904 18.0844 48.3719 18.0844H47.7171C47.7171 18.1305 47.7263 18.1858 47.7356 18.232C47.7448 18.2688 47.7632 18.315 47.7909 18.3426C47.8186 18.3795 47.8555 18.398 47.8923 18.4164C47.9385 18.4349 47.9938 18.4441 48.0399 18.4441C48.086 18.4441 48.1229 18.4441 48.169 18.4349C48.1967 18.4256 48.2336 18.4164 48.2613 18.4072C48.2889 18.398 48.3074 18.3887 48.3258 18.3795C48.335 18.3703 48.3535 18.3703 48.3627 18.3703H48.3719L48.3811 18.3795C48.3811 18.3887 48.3811 18.398 48.3904 18.398C48.3904 18.4072 48.3904 18.4164 48.3904 18.4349C48.3904 18.4441 48.3904 18.4533 48.3904 18.4625C48.3904 18.4717 48.3904 18.4717 48.3904 18.481C48.3904 18.4902 48.3904 18.4902 48.3811 18.4994C48.3811 18.5086 48.3719 18.5086 48.3719 18.5086C48.3627 18.5179 48.3443 18.5271 48.335 18.5271C48.3074 18.5363 48.2889 18.5455 48.2613 18.5547C48.2244 18.564 48.1875 18.5732 48.1506 18.5824C48.1045 18.5916 48.0584 18.5916 48.0215 18.5916C47.9477 18.5916 47.8739 18.5824 47.8093 18.5547C47.754 18.5363 47.6987 18.4994 47.6526 18.4533C47.6064 18.4072 47.5788 18.3426 47.5603 18.2873C47.5419 18.2135 47.5234 18.1305 47.5234 18.0475C47.5234 17.9737 47.5327 17.8907 47.5603 17.8169C47.5788 17.7524 47.6064 17.697 47.6526 17.6417C47.6894 17.5956 47.7448 17.5587 47.8001 17.531C47.8647 17.5034 47.9292 17.4941 47.9938 17.4941C48.0584 17.4941 48.1321 17.5034 48.1875 17.531C48.2428 17.5495 48.2889 17.5864 48.3258 17.6325C48.3627 17.6786 48.3904 17.7247 48.3996 17.78C48.418 17.8446 48.4273 17.8999 48.4273 17.9645L48.4365 18.0014ZM48.252 17.9461C48.2613 17.863 48.2336 17.7893 48.1875 17.7247C48.1414 17.6694 48.0676 17.6417 47.9938 17.6417C47.9569 17.6417 47.9108 17.6509 47.8739 17.6694C47.837 17.6878 47.8093 17.7063 47.7909 17.7339C47.7632 17.7616 47.7448 17.7985 47.7356 17.8354C47.7263 17.8723 47.7171 17.9092 47.7171 17.9553L48.252 17.9461Z" fill="white"/>
<path d="M49.783 18.2685C49.783 18.3146 49.7737 18.3607 49.7553 18.4069C49.7368 18.4438 49.7092 18.4806 49.6723 18.5083C49.6354 18.536 49.5985 18.5544 49.5524 18.5729C49.497 18.5913 49.4509 18.5913 49.3956 18.5913C49.331 18.5913 49.2665 18.5821 49.2111 18.5636C49.1927 18.5544 49.165 18.5452 49.1466 18.536C49.1281 18.5268 49.1189 18.5175 49.1097 18.5083C49.1005 18.4991 49.0913 18.4899 49.0913 18.4806C49.0913 18.4622 49.082 18.4438 49.082 18.4253C49.082 18.4161 49.082 18.3976 49.082 18.3884C49.082 18.3792 49.082 18.37 49.0913 18.37C49.0913 18.3607 49.1005 18.3607 49.1005 18.3607H49.1097C49.1189 18.3607 49.1374 18.37 49.1466 18.3792C49.165 18.3884 49.1835 18.3976 49.2019 18.4161C49.2296 18.4253 49.2573 18.4438 49.2849 18.453C49.3218 18.4622 49.3587 18.4714 49.3956 18.4714C49.4233 18.4714 49.4509 18.4714 49.4786 18.4622C49.5063 18.453 49.5247 18.4438 49.5432 18.4345C49.5616 18.4253 49.5801 18.4069 49.5893 18.3884C49.5985 18.37 49.6077 18.3423 49.6077 18.3146C49.6077 18.287 49.5985 18.2685 49.5893 18.2409C49.5708 18.2224 49.5524 18.204 49.5339 18.1855C49.5063 18.1671 49.4786 18.1578 49.4509 18.1486L49.3587 18.1117C49.331 18.1025 49.2942 18.0841 49.2665 18.0656C49.2388 18.0472 49.2111 18.0287 49.1835 18.0103C49.1558 17.9826 49.1374 17.955 49.1281 17.9273C49.1097 17.8904 49.1097 17.8535 49.1097 17.8166C49.1097 17.7797 49.1189 17.7428 49.1281 17.7059C49.1466 17.669 49.165 17.6414 49.1927 17.6137C49.2296 17.586 49.2665 17.5676 49.3034 17.5492C49.3587 17.5307 49.4048 17.5215 49.4602 17.5215C49.4878 17.5215 49.5155 17.5215 49.5432 17.5307C49.5708 17.5307 49.5893 17.5399 49.6169 17.5492C49.6354 17.5584 49.6538 17.5584 49.6723 17.5676C49.6815 17.5768 49.6999 17.5768 49.7092 17.586C49.7184 17.586 49.7184 17.5953 49.7276 17.6045C49.7276 17.6045 49.7276 17.6137 49.7368 17.6229C49.7368 17.6322 49.7368 17.6322 49.7368 17.6414C49.7368 17.6506 49.7368 17.6598 49.7368 17.669C49.7368 17.6783 49.7368 17.6875 49.7368 17.7059C49.7368 17.7152 49.7368 17.7244 49.7276 17.7244C49.7276 17.7336 49.7184 17.7336 49.7184 17.7336H49.7092C49.6999 17.7336 49.6907 17.7244 49.6815 17.7244C49.6631 17.7152 49.6538 17.7059 49.6354 17.6967C49.6169 17.6875 49.5893 17.6783 49.5616 17.669C49.5339 17.6598 49.4971 17.6598 49.4694 17.6598C49.4417 17.6598 49.414 17.6598 49.3864 17.669C49.3679 17.6783 49.3495 17.6875 49.331 17.6967C49.3126 17.7059 49.3034 17.7244 49.2942 17.7428C49.2849 17.7613 49.2849 17.7797 49.2849 17.7982C49.2849 17.8258 49.2941 17.8535 49.3034 17.8719C49.3218 17.8904 49.3403 17.9088 49.3587 17.9273C49.3864 17.9457 49.414 17.955 49.4417 17.9642L49.5339 18.0011C49.5616 18.0103 49.5985 18.0287 49.6262 18.038C49.6538 18.0564 49.6815 18.0748 49.7092 18.0933C49.7368 18.1117 49.7553 18.1394 49.7645 18.1763C49.7737 18.1947 49.783 18.2316 49.783 18.2685Z" fill="white"/>
</svg>
