<svg width="52" height="25" viewBox="0 0 52 25" fill="none" xmlns="http://www.w3.org/2000/svg">
<path d="M12.6622 11.8919C12.4218 11.8525 12.267 11.7962 12.1168 11.8086C10.8542 11.9119 9.59156 12.0223 8.32973 12.1411C7.6942 12.2005 7.06174 12.2923 6.42544 12.3456C6.22052 12.3625 6.0056 12.324 5.803 12.2777C5.06578 12.111 4.7014 11.5779 4.76534 10.8233C4.83544 9.98919 5.16284 9.24154 5.6158 8.57027C7.23353 6.17146 9.38665 4.42848 12.1121 3.42698C12.4272 3.31124 12.7708 3.25955 13.1051 3.21634C14.0072 3.1006 14.7067 3.46787 15.2243 4.19006C15.8267 5.02953 16.1148 5.97471 16.0887 7.00861C16.074 7.59886 15.7636 8.02554 15.286 8.34034C14.6905 8.73307 14.0126 8.90282 13.32 8.89202C12.4542 8.87813 11.5868 8.79017 10.7255 8.68755C10.167 8.6212 9.66397 8.39821 9.35814 7.83111C8.44682 8.38741 7.56247 8.936 6.9408 9.91975C7.14802 9.93518 7.29131 9.9699 7.4292 9.95293C8.45992 9.82793 9.4891 9.69291 10.5191 9.56097C11.3818 9.44986 12.2469 9.32796 13.1159 9.47533C13.4071 9.52471 13.7006 9.61652 13.9671 9.74383C14.3454 9.92361 14.5441 10.2562 14.5795 10.6774C14.6966 12.0701 14.1451 13.1789 13.1051 14.0577C12.069 14.9334 10.8387 15.4812 9.60542 16.0028C8.90903 16.2976 8.16796 16.4851 7.44614 16.7196C7.36372 16.7466 7.27975 16.769 7.13724 16.8855C7.28899 17.0097 7.44075 17.1347 7.59328 17.2574C8.38211 17.8909 9.31269 18.147 10.2933 18.2149C12.3371 18.3561 14.33 18.1293 16.1934 17.2111C16.6841 16.9688 17.1379 16.6502 17.6078 16.3662L17.5877 16.2652C17.2927 16.2189 16.9938 16.188 16.7019 16.1247C15.7258 15.9118 15.1273 15.3616 15.0317 14.5175C14.9901 14.1487 15.021 13.7498 15.118 13.3911C15.5402 11.8294 16.349 10.5077 17.6671 9.53859C18.1979 9.14818 18.7841 8.88507 19.4628 8.86193C20.1515 8.83801 20.7084 9.09185 21.1575 9.60418C21.203 9.65587 21.2377 9.71683 21.2769 9.77392L21.3494 9.74615C21.3278 9.57332 21.3255 9.39508 21.2839 9.22765C21.1144 8.54635 21.2893 7.94067 21.6667 7.37588C21.8054 7.16833 21.9263 6.94148 22.0966 6.76325C22.1174 6.74088 22.1405 6.72082 22.1644 6.70153C22.4132 6.50015 22.8015 6.59891 22.8916 6.90599C22.8962 6.92065 22.8993 6.93608 22.9024 6.95152C22.9987 7.51168 23.0919 8.0811 23.0973 8.64743C23.1211 11.2739 22.6112 13.766 21.0805 15.9604C19.7617 17.8515 17.9375 19.0961 15.8298 19.9548C14.0827 20.667 12.2701 21.008 10.3804 20.8792C9.47678 20.8174 8.59242 20.6454 7.77123 20.2534C6.81908 19.799 6.25442 19.0683 6.28061 17.9626C6.28677 17.7126 6.27291 17.4619 6.28292 17.2119C6.2914 16.9873 6.2082 16.9171 5.98018 16.9403C5.10737 17.0259 4.24382 16.9557 3.39335 16.7366C1.25487 16.1841 0.0562155 14.641 0.00306165 12.4274C-0.0693509 9.41514 1.14548 6.99627 3.35484 5.03107C3.51045 4.89296 3.69456 4.77645 3.88638 4.68232C4.48262 4.38913 4.70525 4.62214 4.36938 5.19619C4.25075 5.39834 4.11055 5.59123 3.95494 5.76098C2.72855 7.10043 1.81106 8.60654 1.47827 10.4136C1.38891 10.8973 1.37659 11.4135 1.43282 11.9035C1.56532 13.0639 2.23244 13.8139 3.34405 14.1626C4.6182 14.5615 5.90853 14.5307 7.19809 14.2676C9.08159 13.8833 10.8056 13.1048 12.4287 12.0879C12.4857 12.0524 12.5327 12.0007 12.6614 11.8911L12.6622 11.8919ZM18.8804 13.9234C19.0244 13.9049 19.2024 13.8879 19.3796 13.8586C20.2092 13.7205 20.569 13.2445 20.4442 12.4096C20.408 12.1673 20.3232 11.9235 20.2162 11.7029C20.0059 11.2685 19.6176 11.0756 19.1747 11.2553C18.7772 11.4174 18.3881 11.6481 18.0623 11.9266C17.6656 12.2653 17.3721 12.719 17.5962 13.2753C17.8165 13.8216 18.3327 13.8895 18.8812 13.9242L18.8804 13.9234ZM11.1492 6.65909L11.1623 6.7401C11.2547 6.76557 11.3464 6.80492 11.4404 6.8134C12.364 6.89751 13.3478 6.77714 14.1836 6.35663C14.2629 6.31651 14.3423 6.2733 14.4047 6.21004C14.5087 6.10433 14.5418 5.92378 14.5064 5.78258C14.3461 5.14372 13.2522 5.6113 12.8555 5.75712C12.5489 5.86977 12.2523 6.00711 11.9658 6.1622C11.8772 6.21004 11.1369 6.58193 11.1492 6.65986V6.65909Z" fill="white"/>
<path d="M26.1752 17.195C25.958 17.8439 25.77 18.4342 26.0897 19.0839C26.3262 19.5653 26.2677 20.0691 25.921 20.4958C25.606 20.8847 25.1707 20.9171 24.7162 20.8191C24.1022 20.6872 23.7348 20.1255 23.8565 19.3446C23.9975 18.4388 24.1562 17.5245 24.435 16.6549C24.6376 16.0246 24.6515 15.5092 24.4189 14.8688C23.4351 12.1652 23.5461 9.43149 24.3904 6.70862C24.4759 6.43162 24.5714 6.15694 24.6792 5.88844C24.7416 5.73181 24.8117 5.56283 24.9265 5.44864C25.0251 5.35142 25.2054 5.26269 25.3263 5.28738C25.4088 5.30358 25.4958 5.51808 25.502 5.6477C25.5112 5.83211 25.4604 6.02269 25.4141 6.20478C24.9573 7.99791 24.7909 9.79644 25.3849 11.5888C25.5289 12.0247 25.7932 12.4206 26.0019 12.8349C26.0389 12.8295 26.0759 12.8241 26.1129 12.8187C26.1837 12.7168 26.2561 12.6158 26.3255 12.5124C27.9501 10.0866 29.9738 8.08741 32.5714 6.7171C34.3802 5.76267 36.3076 5.26886 38.3621 5.30667C40.1316 5.33908 41.5621 6.42699 41.9049 8.02492C42.1083 8.97241 41.9712 9.90061 41.6692 10.8033C40.8249 13.3233 39.1679 15.1774 36.8946 16.4813C34.9703 17.5855 32.8981 18.266 30.6641 18.3331C29.1627 18.3786 27.719 18.1063 26.4087 17.3139C26.3501 17.2784 26.287 17.2514 26.176 17.1943L26.1752 17.195ZM31.0539 15.5107C31.3728 15.4914 31.694 15.4906 32.0098 15.4497C34.6036 15.1133 36.8854 14.0385 38.9499 12.4692C39.5508 12.0124 40.0692 11.4692 40.3989 10.774C40.9605 9.59198 40.4035 8.39913 39.1194 8.15377C38.52 8.03958 37.8853 8.01643 37.2752 8.06658C35.7714 8.19003 34.3756 8.71007 33.0444 9.40217C30.8559 10.5402 28.9678 12.0325 27.5881 14.1118C27.3423 14.4822 27.3423 14.4891 27.7391 14.7129C28.7675 15.2931 29.8829 15.5122 31.0531 15.5107H31.0539Z" fill="white"/>
<path d="M28.9318 6.90347C27.8826 6.88263 27.1423 6.27078 27.029 5.31403C26.9135 4.33645 27.5575 3.44991 28.4965 3.29405C29.5766 3.11505 30.5711 3.69604 30.7706 4.62116C30.9871 5.62651 30.4316 6.57092 29.4618 6.83171C29.2908 6.87723 29.109 6.88032 28.9318 6.90347Z" fill="white"/>
<path d="M18.9527 3.25468C18.274 3.71299 17.818 4.25541 18.0083 5.11185C17.999 4.70678 18.1469 4.3642 18.4427 4.08798C18.737 3.8133 19.0914 3.66438 19.4904 3.61654C20.243 3.52627 21.3053 4.10572 21.3369 5.17203C21.3724 6.36874 20.4849 7.2846 19.2416 7.32703C18.0314 7.3687 17.1732 6.56241 17.1154 5.33098C17.0669 4.29476 17.8496 3.39356 18.9527 3.25391V3.25468ZM18.2101 6.05162C18.6184 6.6982 19.3271 6.88955 20.0088 6.56858C20.5003 6.33711 20.7322 5.91197 20.7522 5.38962C20.7715 4.88269 20.6043 4.43287 20.1306 4.17593C19.6707 3.92672 19.2031 3.96144 18.7701 4.25541C18.4242 4.49074 18.284 4.83177 18.3564 5.2461C18.4219 5.61954 18.7308 5.895 19.143 5.97215C19.4434 6.02925 19.6714 5.91197 19.8432 5.6751C20.0034 5.45443 20.0343 5.21293 19.8987 4.96988C19.7592 4.72066 19.5382 4.6057 19.2524 4.61804C19.2031 4.62036 19.153 4.61804 19.0505 4.61804C19.7639 4.22686 20.337 4.67051 20.3532 5.20598C20.3778 6.03774 19.6321 6.60947 18.8371 6.33479C18.6422 6.26689 18.4589 6.16505 18.2093 6.05162H18.2101Z" fill="white"/>
</svg>
