<svg width="42" height="25" viewBox="0 0 42 25" fill="none" xmlns="http://www.w3.org/2000/svg">
<path d="M16.6104 22.4212C16.6104 23.3419 15.5135 23.812 14.8671 23.146C14.2207 22.4996 14.6712 21.3831 15.5918 21.3831C16.1599 21.3831 16.6104 21.8532 16.6104 22.4212ZM15.5918 19.0913C14.6712 19.0913 14.2207 20.2078 14.8671 20.8542C15.5135 21.5006 16.6104 21.0501 16.6104 20.1295C16.6104 19.5419 16.1599 19.0913 15.5918 19.0913ZM15.5331 10.9624C14.7691 10.9624 14.397 11.3346 14.397 12.0985V17.7594C14.397 18.5233 14.7887 18.8955 15.5331 18.8955C16.297 18.8955 16.6691 18.5233 16.6691 17.7594V12.0985C16.6887 11.3346 16.297 10.9624 15.5331 10.9624ZM13.8289 13.1954V13.1367C13.7702 11.315 13.0454 9.63047 11.7526 8.35727C10.4598 7.08406 8.73612 6.37891 6.91446 6.37891C3.09486 6.37891 0 9.51294 0 13.3521C0 17.1913 3.09486 20.3254 6.91446 20.3254C8.42272 20.3254 9.87221 19.8357 11.0671 18.9346L11.0475 15.546C10.2444 17.0738 8.65777 18.0532 6.91446 18.0532C4.34847 18.0532 2.25259 15.9377 2.25259 13.3521C2.25259 10.7666 4.34847 8.65108 6.91446 8.65108C9.48046 8.65108 11.5763 10.747 11.5763 13.3521V13.3717C11.5763 13.4501 11.5763 13.5088 11.5763 13.5676L11.6351 18.4645L11.6743 22.6563C11.7135 23.2439 12.2227 23.5182 12.7124 23.5182C12.732 23.5182 12.732 23.5182 12.7516 23.5182C13.2805 23.5182 13.8485 23.2243 13.9073 22.6563L13.8289 13.1954ZM24.1908 6.43767C20.3516 6.43767 17.2372 9.55212 17.2372 13.3521C17.2372 13.5088 17.2372 13.646 17.2568 13.8027L17.1393 17.7594C17.1393 18.0532 17.2372 18.347 17.4527 18.5625C17.6681 18.7975 17.9815 18.915 18.2949 18.915C18.7259 18.915 19.1176 18.68 19.3135 18.3078C19.4702 17.8769 19.4702 16.682 19.4898 15.4088C19.4898 14.8604 19.4898 14.2923 19.5094 13.8027C19.4898 13.646 19.4898 13.4892 19.4898 13.3521C19.4898 10.7861 21.5857 8.69026 24.1908 8.69026C26.796 8.69026 28.8919 10.7861 28.8919 13.3521C28.8919 15.9181 26.796 18.014 24.1908 18.014C22.4084 18.014 20.8609 17.0346 20.0774 15.5851C20.0774 16.114 20.0578 16.6625 20.0382 17.1913C20.0186 17.7398 19.9991 18.3274 19.9991 18.8563C21.2135 19.7769 22.6826 20.2666 24.2104 20.2666C28.0496 20.2666 31.1641 17.1522 31.1641 13.3521C31.1445 9.55212 28.03 6.43767 24.1908 6.43767Z" fill="white"/>
<path d="M15.139 3.49964C15.3937 3.42129 15.7658 3.4017 16.0597 3.51923C16.6669 2.87283 16.9607 2.87283 16.7452 4.0481C16.7648 4.5182 16.6473 4.90996 16.4122 5.22336C16.2751 5.39965 16.2947 5.39965 16.3926 5.61511C16.9019 6.9079 18.5865 8.80791 15.9029 9.76771C15.8638 11.1584 16.1772 13.0584 16.0988 14.2141C16.0792 14.6255 16.0792 14.978 15.5895 14.978C15.1586 14.978 14.7277 14.6059 15.1586 14.1358C15.1782 14.0966 15.2174 14.077 15.2566 14.0378C15.4524 13.8028 15.0019 11.178 15.0019 9.74812C13.0823 9.35637 13.9834 7.2409 14.6297 5.51718C14.7081 5.3213 14.6689 5.1646 14.5906 5.0079C14.4535 4.75326 14.4143 4.47903 14.6102 4.10686C14.3555 3.71511 14.0225 2.65737 15.139 3.49964Z" fill="white"/>
<path d="M16.6874 1.5608C16.6678 1.97214 16.5894 2.42266 16.4523 2.79482L16.2173 2.93194C15.8255 2.91235 15.375 2.89276 15.0028 2.93194L14.7873 2.79482C14.3956 2.44224 14.3956 2.05049 14.4152 1.5608C14.5327 1.91338 14.6698 2.28554 14.9832 2.46183C15.3162 2.12884 15.4142 1.65873 15.5317 1.2278C15.6884 1.65873 15.7667 2.14843 16.1193 2.46183C16.4327 2.32472 16.5307 1.95255 16.6874 1.5608ZM14.4152 1.14945C14.3368 1.14945 14.2977 1.36492 14.3564 1.48245C14.4152 1.59997 14.5131 1.52162 14.5131 1.34533C14.5131 1.2278 14.4739 1.14945 14.4152 1.14945ZM16.7069 1.14945C16.6286 1.14945 16.5894 1.36492 16.6482 1.48245C16.7069 1.59997 16.8049 1.52162 16.8049 1.34533C16.7853 1.2278 16.7461 1.14945 16.7069 1.14945ZM15.5513 0.796875C15.4142 0.796875 15.3554 1.01234 15.4533 1.12987C15.5513 1.24739 15.708 1.16904 15.708 0.992752C15.6884 0.894814 15.6296 0.796875 15.5513 0.796875ZM14.9636 2.32472C15.1399 2.12884 15.1203 1.85461 14.9441 1.63915C14.8069 1.81544 14.7482 2.14843 14.9636 2.32472ZM14.9636 1.48245C14.6894 1.48245 15.042 1.83502 15.042 1.5608C15.042 1.52162 15.0028 1.48245 14.9636 1.48245ZM16.1389 2.3443C16.3152 2.14843 16.2956 1.8742 16.1193 1.65873C15.9822 1.81544 15.9234 2.14843 16.1389 2.3443ZM16.1389 1.48245C15.8647 1.48245 16.2173 1.83502 16.2173 1.5608C16.2173 1.52162 16.1781 1.48245 16.1389 1.48245Z" fill="white"/>
</svg>
