<svg width="42" height="25" viewBox="0 0 42 25" fill="none" xmlns="http://www.w3.org/2000/svg">
<g clip-path="url(#clip0_10854_92)">
<path d="M5.73585 8.57841C6.45503 7.97311 6.67024 7.0595 6.67024 6.16982C6.67024 4.7222 5.69973 4.09349 4.44148 3.72547L3.84186 3.54789C3.43432 3.41741 2.79935 3.21565 2.79935 2.69373C2.79935 2.17182 3.37454 1.94612 3.80573 1.94612C4.01886 1.94612 4.22809 1.97854 4.42979 2.03774C5.02993 2.21377 5.67217 1.94457 5.95782 1.39306L6.29155 0.748903C6.29545 0.741697 6.29259 0.732432 6.28557 0.728571C5.484 0.281803 4.37624 0 3.47044 0C1.66067 0 0.354599 1.18615 0.354599 3.0023C0.354599 4.81845 1.32564 5.11441 2.79935 5.52927C3.30254 5.67184 4.22549 5.89703 4.22549 6.54994C4.22549 7.20285 3.63861 7.45171 3.08681 7.45171C2.2842 7.45171 1.58919 7.03608 1.00178 6.52652L0.0018965 8.38925C-0.0020022 8.39594 0.000337086 8.40469 0.00683493 8.40907C0.927449 9.04499 2.03754 9.4215 3.17128 9.4215C4.08202 9.42099 5.02863 9.17213 5.73559 8.57841H5.73585Z" fill="white"/>
<path d="M9.27391 7.89751V6.02705C9.27391 5.26734 9.52576 4.61495 10.4126 4.61495C11.491 4.61495 11.3953 5.6351 11.3953 6.21672V9.16755C11.3953 9.1763 11.4021 9.183 11.4109 9.183H12.278C12.9948 9.183 13.5763 8.60729 13.5763 7.89751V5.42201C13.5763 3.92652 12.9174 2.89453 11.2638 2.89453C10.4157 2.89453 9.80569 3.14236 9.30302 3.87248C9.30016 3.87685 9.29522 3.87917 9.29028 3.87917C9.28144 3.87917 9.27469 3.87248 9.27469 3.86373V3.11122C9.27469 3.10299 9.26793 3.09578 9.25909 3.09578H7.10934C7.10051 3.09578 7.09375 3.10299 7.09375 3.11122V9.16781C7.09375 9.17656 7.10051 9.18325 7.10934 9.18325H7.97642C8.69326 9.18325 9.27417 8.60781 9.27417 7.89777L9.27391 7.89751Z" fill="white"/>
<path d="M18.9451 8.51439C18.948 8.51001 18.9529 8.50718 18.9578 8.50718C18.9667 8.50718 18.9734 8.51387 18.9734 8.52262V9.16833C18.9734 9.17708 18.9807 9.18377 18.989 9.18377H19.8561C20.5735 9.18377 21.1549 8.60806 21.1549 7.89828V3.11225C21.1549 3.10402 21.1481 3.09681 21.1393 3.09681H18.989C18.9807 3.09681 18.9734 3.10402 18.9734 3.11225V3.64884C18.9734 3.66299 18.9558 3.66968 18.9464 3.65862C18.4892 3.14545 17.7612 2.89453 17.068 2.89453C15.2465 2.89453 13.9883 4.39002 13.9883 6.13411C13.9883 7.87821 15.2704 9.38528 17.0924 9.38528C17.8082 9.38528 18.5602 9.11454 18.9454 8.51413L18.9451 8.51439ZM16.2412 6.14647C16.2412 5.39937 16.7566 4.77013 17.6429 4.77013C18.5292 4.77013 19.0452 5.39885 19.0452 6.14647C19.0452 6.89408 18.5298 7.51148 17.6429 7.51148C16.7561 7.51096 16.2412 6.91776 16.2412 6.14647Z" fill="white"/>
<path d="M25.8822 2.89479C25.1659 2.89479 24.4257 3.17762 24.0293 3.77777C24.0265 3.78215 24.0215 3.78446 24.0166 3.78446C24.0077 3.78446 24.001 3.77777 24.001 3.76902V3.0963H21.8203V11.7506H22.7027C23.4196 11.7506 24.001 11.1749 24.001 10.4651V8.60729C24.001 8.60575 24.0033 8.60446 24.0044 8.60626C24.4717 9.13744 25.2007 9.38528 25.9067 9.38528C27.7281 9.38528 28.9864 7.91398 28.9864 6.15779C28.9859 4.41344 27.7154 2.89453 25.8822 2.89453V2.89479ZM25.331 7.51045C24.4441 7.51045 23.9287 6.91673 23.9287 6.14544C23.9287 5.37415 24.4441 4.7691 25.331 4.7691C26.2178 4.7691 26.7332 5.39782 26.7332 6.14544C26.7327 6.91724 26.2178 7.51045 25.331 7.51045Z" fill="white"/>
<path d="M33.4528 2.89453C32.7365 2.89453 31.9963 3.17736 31.5999 3.77752C31.597 3.78189 31.5921 3.78421 31.5872 3.78421C31.5783 3.78421 31.5716 3.77752 31.5716 3.76877V3.11148C31.5716 3.10325 31.5648 3.09604 31.556 3.09604H29.4062C29.3974 3.09604 29.3906 3.10325 29.3906 3.11148V11.7352C29.3906 11.7439 29.3974 11.7506 29.4062 11.7506H30.2733C30.9901 11.7506 31.5716 11.1749 31.5716 10.4651V8.64255C31.5716 8.6284 31.5892 8.6217 31.5986 8.63277C32.067 9.14594 32.7833 9.38528 33.477 9.38528C35.2985 9.38528 36.5567 7.91398 36.5567 6.15779C36.5562 4.41344 35.2862 2.89453 33.4526 2.89453H33.4528ZM32.9015 7.51019C32.0147 7.51019 31.4998 6.91647 31.4998 6.14518C31.4998 5.37389 32.0147 4.76885 32.9015 4.76885C33.7884 4.76885 34.3038 5.39756 34.3038 6.14518C34.3038 6.91699 33.7884 7.51019 32.9015 7.51019Z" fill="white"/>
<path d="M39.1148 0.236328L37.6367 5.8567H38.8651C39.4598 5.8567 39.9791 5.45806 40.128 4.88802L41.3537 0.236328H39.1148Z" fill="white"/>
<path d="M38.3684 6.65234C37.6066 6.65234 36.9883 7.26459 36.9883 8.01838C36.9883 8.77218 37.6066 9.38494 38.3684 9.38494C39.1302 9.38494 39.748 8.77269 39.748 8.01838C39.7486 7.26408 39.1302 6.65234 38.3684 6.65234Z" fill="white"/>
<path d="M37.6917 0.349307H37.6943L37.8653 0.82181H37.9417L38.1127 0.349307H38.1161V0.82181H38.2445V0.236328H38.0371L37.9035 0.582728L37.7707 0.236328H37.5625V0.82181H37.6917V0.349307Z" fill="white"/>
<path d="M37.1689 0.82181H37.3106V0.349307H37.4904V0.236328H36.9883V0.349307H37.1689V0.82181Z" fill="white"/>
<path d="M3.77973 12.5332H0.03125V21.5038H2.38633V18.5296H3.78025C4.79729 18.5296 5.57677 18.2681 6.11713 17.7446C6.65801 17.2212 6.92806 16.4833 6.92806 15.5316C6.92806 14.5799 6.65801 13.8421 6.11713 13.3187C5.57625 12.7947 4.79677 12.5332 3.77973 12.5332ZM3.16685 16.6493H2.38581V14.4129H3.16685C4.03158 14.4129 4.4646 14.7856 4.4646 15.5311C4.4646 16.2767 4.03158 16.6493 3.16685 16.6493Z" fill="white"/>
<path d="M12.3541 16.006C11.8491 15.4748 11.2126 15.209 10.4435 15.209C9.98684 15.209 9.56993 15.2944 9.1941 15.4651C8.81774 15.6354 8.49311 15.8681 8.22072 16.1612C7.94833 16.4546 7.73572 16.7976 7.58419 17.1901C7.43188 17.5826 7.35547 17.9969 7.35547 18.4334C7.35547 18.9015 7.43344 19.3341 7.58965 19.7305C7.74586 20.1273 7.96445 20.4721 8.24463 20.7653C8.52482 21.0587 8.85309 21.2867 9.22997 21.4493C9.60632 21.6115 10.0188 21.6933 10.4679 21.6933C11.2607 21.6933 11.8897 21.4038 12.3541 20.825V21.5031H14.5408V15.3992H12.3541V16.006ZM12.312 18.9926C12.2356 19.1594 12.1355 19.3061 12.0113 19.4327C11.8873 19.5598 11.7389 19.6586 11.5669 19.7297C11.3948 19.801 11.2126 19.8365 11.0205 19.8365C10.8284 19.8365 10.634 19.801 10.4614 19.7297C10.2894 19.6584 10.141 19.5593 10.017 19.4327C9.89301 19.3056 9.79502 19.1571 9.7225 18.9864C9.65051 18.8161 9.61464 18.6318 9.61464 18.4334C9.61464 18.235 9.65051 18.0667 9.7225 17.9037C9.7945 17.7416 9.89301 17.5962 10.017 17.4696C10.141 17.343 10.2894 17.2436 10.4614 17.1718C10.6335 17.1005 10.8196 17.065 11.0205 17.065C11.2214 17.065 11.3948 17.1005 11.5669 17.1718C11.7389 17.2431 11.8873 17.3422 12.0113 17.4696C12.1353 17.5967 12.2356 17.7452 12.312 17.9158C12.3879 18.0862 12.4261 18.2666 12.4261 18.4573C12.4261 18.648 12.3879 18.8256 12.312 18.9924V18.9926Z" fill="white"/>
<path d="M19.3177 18.532L17.6714 15.4023H15.1484L18.1281 20.673L16.0254 24.5518H18.4647L23.4153 15.4023H20.9157L19.3177 18.532Z" fill="white"/>
</g>
<defs>
<clipPath id="clip0_10854_92">
<rect width="42" height="25" fill="white"/>
</clipPath>
</defs>
</svg>
