<svg width="42" height="25" viewBox="0 0 42 25" fill="none" xmlns="http://www.w3.org/2000/svg">
<mask id="mask0_10854_93" style="mask-type:luminance" maskUnits="userSpaceOnUse" x="0" y="4" width="42" height="17">
<path d="M41.7148 4.375H0V20.022H41.7148V4.375Z" fill="white"/>
</mask>
<g mask="url(#mask0_10854_93)">
<path d="M39.2123 4.68937H33.8048C33.801 4.68164 33.631 4.68164 33.3336 4.68164H28.4785C27.2347 4.69323 26.2343 5.7052 26.2305 6.94893C26.2305 9.42094 26.2343 12.4259 26.2305 13.6233C32.7156 16.5125 37.0957 14.4653 41.3601 11.5569V6.95665C41.3601 6.95279 41.3601 6.95279 41.3601 6.94506C41.356 5.73224 40.406 4.7473 39.2123 4.68937ZM39.4094 8.40895C38.6252 8.59437 34.2143 9.41319 30.7805 11.3444C30.5565 11.468 29.5561 12.1131 29.1158 11.3908C28.5866 10.5294 29.8651 9.97711 30.5101 9.71834C34.8825 7.98794 38.7217 7.63259 39.3628 7.74846C39.5059 7.7755 39.6799 7.86048 39.7104 8.08064C39.7376 8.29692 39.5793 8.37032 39.4094 8.40895Z" fill="white"/>
<path d="M41.3638 13.3281V17.546C41.3638 18.8013 40.3479 19.8132 39.0965 19.8132H28.5017C27.2464 19.8132 26.2344 18.7974 26.2344 17.546V15.4602C32.4685 17.9824 36.5511 16.5958 41.3638 13.3281Z" fill="white"/>
<path d="M11.6532 12.8339C12.0549 12.8339 12.3253 12.6137 12.3253 12.2506C12.3253 11.9764 12.1051 11.7408 11.7421 11.7408C11.3404 11.7408 11.07 11.961 11.07 12.324C11.07 12.5983 11.2863 12.8339 11.6532 12.8339ZM9.21212 16.2753C9.04991 17.5307 9.64859 18.1139 10.958 18.1139H15.4887L16.0333 14.2939H15.0329L14.6003 17.4766H11.1627C10.4365 17.4766 10.1237 17.0401 10.2164 16.314L10.3245 15.4951C10.452 14.5681 10.6335 14.3866 11.3249 14.3866C12.0163 14.3866 12.3639 14.769 12.3639 15.5685C12.3639 16.8238 11.8 17.4805 10.7262 17.4805H6.36932C5.36896 17.4805 5.02134 16.9513 5.14878 15.9895L5.38438 14.2978H4.38402L4.14838 15.9895C3.94754 17.4457 4.60416 18.1178 6.27663 18.1178H10.9619C12.4914 18.1178 13.345 17.2255 13.345 15.6264C13.345 14.3711 12.7077 13.7531 11.3983 13.7531C10.1237 13.7531 9.48639 14.263 9.32414 15.4642L9.21212 16.2753ZM15.3071 19.3847H12.2133L12.1206 20.022H15.2183L15.3071 19.3847ZM5.51958 10.0142C6.26505 10.0142 6.66673 9.65116 6.79421 8.73961L7.06845 6.82769H8.06885L7.79461 8.75507C7.66713 9.62799 7.86797 10.0104 8.79498 10.0104H16.4196C17.165 10.0104 17.5667 9.66275 17.6942 8.73578L17.7483 8.35336C17.8409 7.71606 17.5667 7.31436 17.0375 7.31436H9.06921L9.1967 6.40281L13.0708 4.375L12.9433 5.28655L9.84943 6.81224L9.88419 6.6307H17.1612C18.2697 6.6307 18.907 7.3414 18.7641 8.37657L18.71 8.75895C18.5825 9.61257 18.9456 10.0142 19.6911 10.0142H20.4559L20.8962 6.83155H21.8966L21.352 10.6516H19.5327C18.3508 10.6516 17.9491 10.3619 17.7869 9.65116H18.1499C17.8023 10.3619 17.277 10.6516 16.35 10.6516H8.63277C7.34268 10.6516 6.97576 10.3619 6.8869 9.65116H7.24999C6.90236 10.3619 6.37707 10.6516 5.45006 10.6516H2.90081C1.26311 10.6516 0.718499 10.0142 0.880724 8.813L0.988875 7.99416C1.15496 6.79679 1.75365 6.28694 2.9742 6.28694C4.44966 6.28694 5.12174 7.19849 4.86684 8.99842L4.7046 10.1456C4.469 11.8373 3.81235 12.5673 1.97381 12.5673H0.351562L0.444263 11.93H1.97381C2.99351 11.93 3.48405 11.4936 3.6849 10.1456L3.88574 8.81688C4.08662 7.5268 3.73899 6.92425 2.90467 6.92425C2.26736 6.92425 2.12059 7.10579 1.99312 8.03279L1.88497 8.85164C1.77296 9.65116 2.06265 10.0142 2.9742 10.0142H5.51958ZM6.0835 6.1054C6.48522 6.1054 6.75558 5.88524 6.75558 5.52216C6.75558 5.24793 6.5354 5.01231 6.17236 5.01231C5.77064 5.01231 5.50028 5.23247 5.50028 5.59555C5.50028 5.86592 5.72042 6.1054 6.0835 6.1054ZM22.333 5.10115H19.3319L19.2237 5.73846H22.2442L22.333 5.10115ZM18.1113 16.4762L18.768 11.8373H17.7676L17.1109 16.4762H18.1113ZM18.2002 18.1139C19.7452 18.1139 20.4211 17.5307 20.5833 16.3294L21.2207 11.8335H20.2203L19.6022 16.3101C19.4941 17.0942 19.0924 17.4727 18.2735 17.4727H16.6011L16.5084 18.11H18.2002V18.1139Z" fill="white"/>
</g>
</svg>
