<svg width="274" height="91" viewBox="0 0 274 91" fill="none" xmlns="http://www.w3.org/2000/svg">
<path d="M8.28145 15.6183C6.48945 17.1543 5.59345 18.3463 5.59345 19.1943C5.59345 19.5943 5.80145 19.9063 6.21745 20.1303C6.63345 20.3543 7.22545 20.4663 7.99345 20.4663C8.53745 20.4663 8.99345 20.3783 9.36145 20.2023C9.74545 20.0263 9.97745 19.8023 10.0575 19.5303C9.48145 18.1863 7.45745 16.4263 3.98545 14.2503L6.28945 10.8903C10.7855 13.6103 13.0335 16.4743 13.0335 19.4823C13.0335 20.5383 12.8015 21.4743 12.3375 22.2903C11.8735 23.1063 11.2335 23.7383 10.4175 24.1863C9.60145 24.6343 8.68945 24.8583 7.68145 24.8583C6.04945 24.8583 4.80145 24.4423 3.93745 23.6103C3.07345 22.7783 2.64145 21.6743 2.64145 20.2983C2.64145 19.6903 2.72145 19.0743 2.88145 18.4503C3.13745 17.4423 3.55345 16.5143 4.12945 15.6663C4.72145 14.8023 5.48145 13.8983 6.40945 12.9543L8.28145 15.6183ZM22.2706 11.0823L25.5586 18.8583C25.7826 19.4023 26.0306 19.7703 26.3026 19.9623C26.5906 20.1383 27.0306 20.2263 27.6226 20.2263H27.9346L28.1746 22.4823L27.9346 24.7383H27.6226C26.4866 24.7383 25.5506 24.4103 24.8146 23.7543C24.0786 23.0823 23.3986 22.0343 22.7746 20.6103L19.2946 12.6903L22.2706 11.0823ZM15.7426 19.6983C16.2386 19.9383 16.7826 20.1543 17.3746 20.3463C17.9826 20.5223 18.7186 20.6103 19.5826 20.6103C20.3346 20.6103 20.9746 20.5303 21.5026 20.3703C22.0306 20.1943 22.4386 20.0023 22.7266 19.7943C23.0146 19.5863 23.1986 19.4023 23.2786 19.2423L25.2946 21.8343C24.9746 22.4743 24.3986 23.1463 23.5666 23.8503C22.7506 24.5383 21.5746 24.8823 20.0386 24.8823C18.0546 24.8823 16.1106 24.2023 14.2066 22.8423L15.7426 19.6983ZM27.6451 20.2263H28.9411C30.4291 20.2263 31.4851 20.1063 32.1091 19.8663C32.7491 19.6263 33.0691 19.2903 33.0691 18.8583C33.0691 18.4583 32.6291 17.2023 31.7491 15.0903L34.7971 13.4103C35.1171 14.0823 35.4371 14.9863 35.7571 16.1223C36.0931 17.2423 36.2611 18.2503 36.2611 19.1463C36.2611 20.9383 35.7011 22.3223 34.5811 23.2983C33.4611 24.2583 31.8211 24.7383 29.6611 24.7383H27.6451V20.2263ZM27.9331 26.6343L30.1891 28.8903L28.6771 30.4023L27.9331 31.1463L27.1891 30.4023L25.6771 28.8903L27.9331 26.6343ZM32.0851 26.6343L34.3411 28.8903L32.8291 30.4023L32.0851 31.1463L31.3411 30.4023L29.8291 28.8903L32.0851 26.6343ZM45.7704 24.7383C44.6024 24.7383 43.6344 24.3063 42.8664 23.4423C42.1144 22.5623 41.4904 21.3463 40.9944 19.7943L43.7064 18.1383C43.9144 18.9063 44.1704 19.4503 44.4744 19.7703C44.7784 20.0743 45.2104 20.2263 45.7704 20.2263H46.0344L46.2744 22.4823L46.0344 24.7383H45.7704ZM35.5704 28.0503C36.6424 27.5703 37.6264 27.0423 38.5224 26.4663C39.4344 25.9063 40.1544 25.3783 40.6824 24.8823C41.2264 24.3863 41.4984 23.9943 41.4984 23.7063C41.4984 23.0663 41.0024 21.1623 40.0104 17.9943L43.2504 16.6983C43.6504 17.8023 43.9624 18.9783 44.1864 20.2263C44.4104 21.4583 44.5224 22.6183 44.5224 23.7063C44.5224 25.3703 43.8984 26.8903 42.6504 28.2663C41.4024 29.6423 39.6744 30.8263 37.4664 31.8183L35.5704 28.0503ZM45.7863 20.2263H50.8023L51.0423 22.4823L50.8023 24.7383H45.7863V20.2263ZM50.5441 20.2263H55.5601L55.8001 22.4823L55.5601 24.7383H50.5441V20.2263ZM55.278 20.2263H56.79C58.646 20.2263 60.358 20.0423 61.926 19.6743C63.51 19.3063 65.294 18.6023 67.278 17.5623C68.798 16.7463 69.766 16.2823 70.182 16.1703L70.302 19.7703C69.518 19.6103 68.742 19.3863 67.974 19.0983C67.222 18.8103 66.254 18.3703 65.07 17.7783C64.478 17.4743 63.854 17.2343 63.198 17.0583C62.558 16.8823 61.99 16.7943 61.494 16.7943C60.55 16.7943 59.726 17.2423 59.022 18.1383L56.55 16.2903C57.846 13.7143 59.534 12.4263 61.614 12.4263C62.302 12.4263 62.966 12.5383 63.606 12.7623C64.246 12.9703 65.19 13.4023 66.438 14.0583C67.35 14.5223 68.118 14.8743 68.742 15.1143C69.382 15.3383 70.094 15.5303 70.878 15.6903L71.022 19.7703C70.702 19.8663 69.934 20.2423 68.718 20.8983C68.606 20.9623 68.238 21.1623 67.614 21.4983C65.886 22.4103 64.43 23.0903 63.246 23.5383C62.078 23.9863 60.926 24.2983 59.79 24.4743C58.654 24.6343 57.254 24.7223 55.59 24.7383H55.278V20.2263ZM59.694 8.44228L62.262 5.87428L64.806 8.44228L62.262 10.9863L59.694 8.44228ZM85.526 25.0503C85.494 24.0583 85.478 23.3063 85.478 22.7943C85.478 22.2983 85.494 21.5543 85.526 20.5623C87.718 20.5623 89.366 20.4503 90.47 20.2263C91.574 20.0023 92.398 19.6263 92.942 19.0983C93.502 18.5703 93.998 17.7543 94.43 16.6503L97.382 16.9623C97.062 17.8743 96.902 18.5863 96.902 19.0983C96.902 19.5143 97.006 19.8103 97.214 19.9863C97.438 20.1463 97.758 20.2263 98.174 20.2263L98.414 22.4823L98.174 24.7383C97.55 24.7383 96.95 24.5943 96.374 24.3063C95.798 24.0183 95.342 23.6263 95.006 23.1303C94.67 22.6183 94.51 22.0583 94.526 21.4503L94.982 21.5943C94.246 22.5223 93.422 23.2423 92.51 23.7543C91.614 24.2503 90.606 24.5863 89.486 24.7623C88.382 24.9543 87.062 25.0503 85.526 25.0503ZM79.838 15.9063C79.806 16.0183 79.694 16.4263 79.502 17.1303C79.326 17.8343 79.246 18.3943 79.262 18.8103C79.326 19.0823 79.622 19.3543 80.15 19.6263C80.678 19.8983 81.422 20.1223 82.382 20.2983C83.342 20.4743 84.462 20.5623 85.742 20.5623C85.79 21.2983 85.814 22.0503 85.814 22.8183C85.814 23.5543 85.79 24.2983 85.742 25.0503C83.806 25.0663 82.126 24.8663 80.702 24.4503C79.278 24.0183 78.174 23.4103 77.39 22.6263C76.606 21.8263 76.166 20.8743 76.07 19.7703C76.054 19.6423 76.046 19.4503 76.046 19.1943C76.046 18.4743 76.142 17.6983 76.334 16.8663C76.526 16.0183 76.774 15.2663 77.078 14.6103L79.838 15.9063ZM84.542 11.6103L86.798 13.8663L85.286 15.3783L84.542 16.1223L83.798 15.3783L82.286 13.8663L84.542 11.6103ZM88.694 11.6103L90.95 13.8663L89.438 15.3783L88.694 16.1223L87.95 15.3783L86.438 13.8663L88.694 11.6103ZM109.311 9.90628L102.759 12.6663C103.607 13.4503 104.511 14.4743 105.471 15.7383C106.431 17.0023 106.911 18.3303 106.911 19.7223C106.911 19.9783 106.887 20.2263 106.839 20.4663C106.567 21.8903 105.703 22.9623 104.247 23.6823C102.807 24.3863 101.023 24.7383 98.8948 24.7383H97.9348V20.2263H98.8948C100.063 20.2263 101.079 20.1463 101.943 19.9863C102.807 19.8103 103.415 19.6103 103.767 19.3863C103.207 18.4903 102.567 17.6343 101.847 16.8183C101.143 15.9863 100.111 15.0103 98.7508 13.8903L99.1108 10.0743L108.111 6.33028L109.311 9.90628ZM105.695 28.0503C106.767 27.5703 107.751 27.0423 108.647 26.4663C109.559 25.9063 110.279 25.3783 110.807 24.8823C111.351 24.3863 111.623 23.9943 111.623 23.7063C111.623 23.0663 111.127 21.1623 110.135 17.9943L113.375 16.6983C113.775 17.8023 114.087 18.9783 114.311 20.2263C114.535 21.4583 114.647 22.6183 114.647 23.7063C114.647 25.3703 114.023 26.8903 112.775 28.2663C111.527 29.6423 109.799 30.8263 107.591 31.8183L105.695 28.0503ZM120.025 6.25828C120.233 7.76228 120.385 9.59428 120.481 11.7543C120.593 13.9143 120.649 15.9463 120.649 17.8503C120.649 18.4903 120.697 18.9783 120.793 19.3143C120.905 19.6503 121.089 19.8903 121.345 20.0343C121.601 20.1623 121.969 20.2263 122.449 20.2263H122.569L122.809 22.4823L122.569 24.7383H122.449C118.945 24.7383 117.169 22.5863 117.121 18.2823C117.041 13.8503 116.785 10.1223 116.353 7.09828L120.025 6.25828ZM127.397 18.5463C128.357 19.2183 129.245 19.7623 130.061 20.1783C130.893 20.5943 131.493 20.8023 131.861 20.8023C131.973 20.8023 132.053 20.7783 132.101 20.7303C132.293 20.5543 132.389 20.2743 132.389 19.8903C132.389 19.3463 132.221 18.8263 131.885 18.3303C131.565 17.8343 131.141 17.5863 130.613 17.5863C130.229 17.5863 129.821 17.8343 129.389 18.3303C128.957 18.8263 128.453 19.7943 127.877 21.2343C127.413 22.4183 126.733 23.2983 125.837 23.8743C124.957 24.4503 123.941 24.7383 122.789 24.7383H122.333L122.429 20.2263H122.861C123.997 20.2263 124.997 19.4663 125.861 17.9463C126.709 16.4103 127.501 15.2983 128.237 14.6103C128.973 13.9063 129.797 13.5543 130.709 13.5543C131.637 13.5543 132.445 13.8583 133.133 14.4663C133.837 15.0583 134.373 15.8343 134.741 16.7943C135.109 17.7383 135.293 18.7303 135.293 19.7703C135.293 20.7783 135.117 21.7063 134.765 22.5543C134.413 23.4023 133.893 24.0423 133.205 24.4743C132.757 24.7463 132.261 24.8823 131.717 24.8823C130.245 24.8823 128.245 24.0183 125.717 22.2903L127.397 18.5463ZM146.721 25.0503C146.689 24.0583 146.673 23.3063 146.673 22.7943C146.673 22.2983 146.689 21.5543 146.721 20.5623C148.913 20.5623 150.561 20.4503 151.665 20.2263C152.769 20.0023 153.593 19.6263 154.137 19.0983C154.697 18.5703 155.193 17.7543 155.625 16.6503L158.577 16.9623C158.257 17.8743 158.097 18.5863 158.097 19.0983C158.097 19.5143 158.201 19.8103 158.409 19.9863C158.633 20.1463 158.953 20.2263 159.369 20.2263L159.609 22.4823L159.369 24.7383C158.745 24.7383 158.145 24.5943 157.569 24.3063C156.993 24.0183 156.537 23.6263 156.201 23.1303C155.865 22.6183 155.705 22.0583 155.721 21.4503L156.177 21.5943C155.441 22.5223 154.617 23.2423 153.705 23.7543C152.809 24.2503 151.801 24.5863 150.681 24.7623C149.577 24.9543 148.257 25.0503 146.721 25.0503ZM141.033 15.9063C141.001 16.0183 140.889 16.4263 140.697 17.1303C140.521 17.8343 140.441 18.3943 140.457 18.8103C140.521 19.0823 140.817 19.3543 141.345 19.6263C141.873 19.8983 142.617 20.1223 143.577 20.2983C144.537 20.4743 145.657 20.5623 146.937 20.5623C146.985 21.2983 147.009 22.0503 147.009 22.8183C147.009 23.5543 146.985 24.2983 146.937 25.0503C145.001 25.0663 143.321 24.8663 141.897 24.4503C140.473 24.0183 139.369 23.4103 138.585 22.6263C137.801 21.8263 137.361 20.8743 137.265 19.7703C137.249 19.6423 137.241 19.4503 137.241 19.1943C137.241 18.4743 137.337 17.6983 137.529 16.8663C137.721 16.0183 137.969 15.2663 138.273 14.6103L141.033 15.9063ZM149.385 26.3703L151.497 28.4823L149.385 30.6183L147.249 28.4823L149.385 26.3703ZM144.753 26.3703L146.865 28.4823L144.753 30.6183L142.617 28.4823L144.753 26.3703ZM147.057 29.6583L148.929 31.5063L147.057 33.3543L145.833 32.1303L145.209 31.5063L147.057 29.6583ZM167.506 20.2263L167.746 22.4823L167.506 24.7383H167.386C166.266 24.7383 165.338 24.4343 164.602 23.8263C163.866 23.2183 163.354 22.2983 163.066 21.0663L162.826 19.9143C162.57 18.6343 162.314 17.4663 162.058 16.4103L164.914 15.4023C165.058 16.0263 165.29 16.9543 165.61 18.1863L165.754 18.7623C165.898 19.2903 166.098 19.6663 166.354 19.8903C166.61 20.1143 166.954 20.2263 167.386 20.2263H167.506ZM165.61 19.6983C165.354 21.4423 164.706 22.7223 163.666 23.5383C162.642 24.3383 161.194 24.7383 159.322 24.7383H159.13V20.2263H159.298C160.37 20.2263 161.202 20.1223 161.794 19.9143C162.386 19.7063 162.706 19.4423 162.754 19.1223L165.61 19.6983ZM160.21 11.5383L162.778 8.97028L165.322 11.5383L162.778 14.0823L160.21 11.5383ZM180.703 20.2263C181.071 20.2263 181.383 20.1143 181.639 19.8903C181.895 19.6663 182.023 19.4103 182.023 19.1223C182.023 18.5783 181.583 17.2343 180.703 15.0903L183.655 13.4583C183.959 14.0823 184.279 14.9943 184.615 16.1943C184.967 17.3943 185.143 18.4423 185.143 19.3383C185.143 20.3143 184.951 21.2183 184.567 22.0503C184.199 22.8663 183.679 23.5223 183.007 24.0183C182.335 24.4983 181.567 24.7383 180.703 24.7383H180.631V20.2263H180.703ZM174.199 24.7383V20.2263H174.343C175.095 20.2263 175.639 19.8663 175.975 19.1463C176.279 18.5063 176.543 17.6423 176.767 16.5543L179.719 16.6743C179.671 16.9463 179.615 17.3143 179.551 17.7783C179.503 18.2263 179.479 18.5783 179.479 18.8343C179.479 19.2503 179.575 19.5863 179.767 19.8423C179.975 20.0983 180.279 20.2263 180.679 20.2263H180.751L180.991 22.4823L180.751 24.7383H180.679C179.863 24.7383 179.143 24.5383 178.519 24.1383C177.911 23.7223 177.439 23.1383 177.103 22.3863L177.871 22.3383C177.311 23.1703 176.751 23.7783 176.191 24.1623C175.647 24.5463 175.007 24.7383 174.271 24.7383H174.199ZM167.335 24.7383L167.095 22.4823L167.335 20.2263H167.455C167.887 20.2263 168.327 20.1383 168.775 19.9623C169.223 19.7863 169.551 19.5783 169.759 19.3383C170.303 18.7623 170.727 17.8663 171.031 16.6503L173.983 16.9623C173.951 17.0743 173.863 17.4103 173.719 17.9703C173.575 18.5303 173.503 18.9783 173.503 19.3143C173.503 19.9223 173.759 20.2263 174.271 20.2263H174.343L174.583 22.4823L174.343 24.7383H174.175C173.535 24.7383 172.943 24.5863 172.399 24.2823C171.871 23.9623 171.471 23.5383 171.199 23.0103C170.671 23.5703 170.079 24.0023 169.423 24.3063C168.783 24.5943 168.111 24.7383 167.407 24.7383H167.335ZM187.311 24.5943C187.503 23.3943 187.599 21.6983 187.599 19.5063C187.599 17.3143 187.511 14.9943 187.335 12.5463C187.175 10.0983 186.991 8.28228 186.783 7.09828L190.503 6.25828C190.663 7.36228 190.807 9.04228 190.935 11.2983C191.063 13.5383 191.127 15.7543 191.127 17.9463C191.127 20.9703 190.999 23.3063 190.743 24.9543L187.311 24.5943ZM195.438 28.0503C196.51 27.5703 197.494 27.0423 198.39 26.4663C199.302 25.9063 200.022 25.3783 200.55 24.8823C201.094 24.3863 201.366 23.9943 201.366 23.7063C201.366 23.0663 200.87 21.1623 199.878 17.9943L203.118 16.6983C203.518 17.8023 203.83 18.9783 204.054 20.2263C204.278 21.4583 204.39 22.6183 204.39 23.7063C204.39 25.3703 203.766 26.8903 202.518 28.2663C201.27 29.6423 199.542 30.8263 197.334 31.8183L195.438 28.0503ZM198.486 12.0903L201.054 9.52228L203.598 12.0903L201.054 14.6343L198.486 12.0903ZM206.623 24.5943C206.815 23.3943 206.911 21.6983 206.911 19.5063C206.911 17.3143 206.823 14.9943 206.647 12.5463C206.487 10.0983 206.303 8.28228 206.095 7.09828L209.815 6.25828C209.975 7.36228 210.119 9.04228 210.247 11.2983C210.375 13.5383 210.439 15.7543 210.439 17.9463C210.439 20.9703 210.311 23.3063 210.055 24.9543L206.623 24.5943ZM239.47 20.2263C239.838 20.2263 240.15 20.1143 240.406 19.8903C240.662 19.6663 240.79 19.4103 240.79 19.1223C240.79 18.5783 240.35 17.2343 239.47 15.0903L242.422 13.4583C242.726 14.0823 243.046 14.9943 243.382 16.1943C243.734 17.3943 243.91 18.4423 243.91 19.3383C243.91 20.3143 243.718 21.2183 243.334 22.0503C242.966 22.8663 242.446 23.5223 241.774 24.0183C241.102 24.4983 240.334 24.7383 239.47 24.7383H239.398V20.2263H239.47ZM232.966 24.7383V20.2263H233.11C233.862 20.2263 234.406 19.8663 234.742 19.1463C235.046 18.5063 235.31 17.6423 235.534 16.5543L238.486 16.6743C238.438 16.9463 238.382 17.3143 238.318 17.7783C238.27 18.2263 238.246 18.5783 238.246 18.8343C238.246 19.2503 238.342 19.5863 238.534 19.8423C238.742 20.0983 239.046 20.2263 239.446 20.2263H239.518L239.758 22.4823L239.518 24.7383H239.446C238.63 24.7383 237.91 24.5383 237.286 24.1383C236.678 23.7223 236.206 23.1383 235.87 22.3863L236.638 22.3383C236.078 23.1703 235.518 23.7783 234.958 24.1623C234.414 24.5463 233.774 24.7383 233.038 24.7383H232.966ZM230.974 18.1383C231.182 18.7143 231.366 19.1463 231.526 19.4343C231.702 19.7063 231.918 19.9063 232.174 20.0343C232.446 20.1623 232.822 20.2263 233.302 20.2263L233.086 24.7383C231.966 24.7383 230.998 24.2983 230.182 23.4183C229.366 22.5223 228.718 21.3143 228.238 19.7943L230.974 18.1383ZM220.246 19.3383C219.798 20.4103 219.478 21.2583 219.286 21.8823C219.094 22.5063 218.998 23.1863 218.998 23.9223C218.998 26.1943 220.526 27.3303 223.582 27.3303C224.606 27.3303 225.518 27.1623 226.318 26.8263C227.134 26.5063 227.774 26.0663 228.238 25.5063C228.702 24.9463 228.934 24.3383 228.934 23.6823C228.934 22.9463 228.374 21.0743 227.254 18.0663L230.326 16.3623C230.854 17.6583 231.254 18.9383 231.526 20.2023C231.814 21.4663 231.958 22.6263 231.958 23.6823C231.958 25.2183 231.59 26.6103 230.854 27.8583C230.134 29.1063 229.134 30.0823 227.854 30.7863C226.59 31.4903 225.166 31.8423 223.582 31.8423C222.094 31.8423 220.758 31.5623 219.574 31.0023C218.39 30.4583 217.454 29.6343 216.766 28.5303C216.094 27.4423 215.758 26.1143 215.758 24.5463C215.758 24.1623 215.766 23.8743 215.782 23.6823C215.91 22.1463 216.478 20.2823 217.486 18.0903L220.246 19.3383ZM236.566 7.12228L238.438 8.97028L236.566 10.8183L235.342 9.59428L234.718 8.97028L236.566 7.12228ZM238.894 9.85828L241.006 11.9703L238.894 14.1063L236.758 11.9703L238.894 9.85828ZM234.286 9.85828L236.398 11.9703L234.286 14.1063L232.15 11.9703L234.286 9.85828ZM249.236 6.25828C249.444 7.76228 249.596 9.59428 249.692 11.7543C249.804 13.9143 249.86 15.9463 249.86 17.8503C249.86 18.4903 249.908 18.9783 250.004 19.3143C250.116 19.6503 250.3 19.8903 250.556 20.0343C250.812 20.1623 251.18 20.2263 251.66 20.2263H251.78L252.02 22.4823L251.78 24.7383H251.66C248.156 24.7383 246.38 22.5863 246.332 18.2823C246.252 13.8503 245.996 10.1223 245.564 7.09828L249.236 6.25828ZM251.544 20.2263H256.56L256.8 22.4823L256.56 24.7383H251.544V20.2263ZM256.302 20.2263H261.318L261.558 22.4823L261.318 24.7383H256.302V20.2263ZM272.436 9.90628L265.884 12.6663C266.732 13.4503 267.636 14.4743 268.596 15.7383C269.556 17.0023 270.036 18.3303 270.036 19.7223C270.036 19.9783 270.012 20.2263 269.964 20.4663C269.692 21.8903 268.828 22.9623 267.372 23.6823C265.932 24.3863 264.148 24.7383 262.02 24.7383H261.06V20.2263H262.02C263.188 20.2263 264.204 20.1463 265.068 19.9863C265.932 19.8103 266.54 19.6103 266.892 19.3863C266.332 18.4903 265.692 17.6343 264.972 16.8183C264.268 15.9863 263.236 15.0103 261.876 13.8903L262.236 10.0743L271.236 6.33028L272.436 9.90628ZM5.18892 60.9063C4.43692 60.9063 3.81292 60.6583 3.31692 60.1623C2.83692 59.6503 2.59692 59.0103 2.59692 58.2423C2.59692 57.5223 2.83692 56.9223 3.31692 56.4423C3.81292 55.9463 4.43692 55.6983 5.18892 55.6983C5.92492 55.6983 6.54092 55.9463 7.03692 56.4423C7.54892 56.9223 7.80492 57.5223 7.80492 58.2423C7.80492 58.9943 7.54892 59.6263 7.03692 60.1383C6.54092 60.6503 5.92492 60.9063 5.18892 60.9063ZM12.6289 60.9063C11.8769 60.9063 11.2529 60.6583 10.7569 60.1623C10.2769 59.6503 10.0369 59.0103 10.0369 58.2423C10.0369 57.5223 10.2769 56.9223 10.7569 56.4423C11.2529 55.9463 11.8769 55.6983 12.6289 55.6983C13.3649 55.6983 13.9809 55.9463 14.4769 56.4423C14.9889 56.9223 15.2449 57.5223 15.2449 58.2423C15.2449 58.9943 14.9889 59.6263 14.4769 60.1383C13.9809 60.6503 13.3649 60.9063 12.6289 60.9063ZM20.1169 60.9063C19.3649 60.9063 18.7409 60.6583 18.2449 60.1623C17.7649 59.6503 17.5249 59.0103 17.5249 58.2423C17.5249 57.5223 17.7649 56.9223 18.2449 56.4423C18.7409 55.9463 19.3649 55.6983 20.1169 55.6983C20.8529 55.6983 21.4689 55.9463 21.9649 56.4423C22.4769 56.9223 22.7329 57.5223 22.7329 58.2423C22.7329 58.9943 22.4769 59.6263 21.9649 60.1383C21.4689 60.6503 20.8529 60.9063 20.1169 60.9063ZM25.867 70.6263C25.755 69.3623 25.619 67.6183 25.459 65.3943C25.315 63.1703 25.243 61.0903 25.243 59.1543C25.243 58.4343 25.251 57.9063 25.267 57.5703C25.283 56.8183 25.467 56.1543 25.819 55.5783C26.171 55.0023 26.643 54.5703 27.235 54.2823C27.827 53.9943 28.491 53.8823 29.227 53.9463C29.819 52.5703 30.571 51.4983 31.483 50.7303C32.395 49.9463 33.307 49.5543 34.219 49.5543C35.243 49.5543 36.083 49.8583 36.739 50.4663C37.395 51.0583 37.979 52.0023 38.491 53.2983C38.955 54.4663 39.299 55.2503 39.523 55.6503C39.747 56.0343 39.979 56.2263 40.219 56.2263H40.387L40.627 58.4823L40.387 60.7383H40.219C39.803 60.7383 39.371 60.6343 38.923 60.4263C38.475 60.2183 38.067 59.9223 37.699 59.5383C37.363 59.9703 37.035 60.2823 36.715 60.4743C36.299 60.7463 35.819 60.8823 35.275 60.8823C34.635 60.8823 33.811 60.6983 32.803 60.3303C31.795 59.9623 30.459 59.3543 28.795 58.5063C28.779 59.7703 28.827 61.1783 28.939 62.7303C29.067 64.2823 29.243 66.2103 29.467 68.5143C29.547 69.2023 29.587 69.6183 29.587 69.7623L25.867 70.6263ZM36.451 56.9703C36.403 56.8263 36.267 56.4263 36.043 55.7703C35.819 55.0983 35.539 54.5703 35.203 54.1863C34.883 53.7863 34.515 53.5863 34.099 53.5863C33.827 53.5863 33.539 53.7143 33.235 53.9703C32.931 54.2263 32.587 54.7063 32.203 55.4103C33.035 55.9383 33.819 56.3303 34.555 56.5863C35.307 56.8423 35.939 56.9703 36.451 56.9703ZM40.1736 56.2263H40.2936C41.5416 56.2263 42.5096 56.1703 43.1976 56.0583C43.8856 55.9463 44.3656 55.7703 44.6376 55.5303C44.9096 55.2743 45.0536 54.9383 45.0696 54.5223C45.0536 53.8023 44.9656 53.0183 44.8056 52.1703L47.7816 51.6183C48.0056 52.9303 48.1176 54.2663 48.1176 55.6263C48.2136 55.7863 48.3896 55.9303 48.6456 56.0583C48.9016 56.1703 49.2376 56.2263 49.6536 56.2263H49.7496L49.9896 58.4823L49.7496 60.7383H49.6296C48.9256 60.7383 48.2536 60.5623 47.6136 60.2103C46.9896 59.8423 46.4536 59.3703 46.0056 58.7943L46.7016 58.9623C46.1576 59.5703 45.3976 60.0183 44.4216 60.3063C43.4616 60.5943 42.0856 60.7383 40.2936 60.7383H40.1736V56.2263ZM41.7096 45.5463L43.9656 47.8023L42.4536 49.3143L41.7096 50.0583L40.9656 49.3143L39.4536 47.8023L41.7096 45.5463ZM45.8616 45.5463L48.1176 47.8023L46.6056 49.3143L45.8616 50.0583L45.1176 49.3143L43.6056 47.8023L45.8616 45.5463ZM49.5012 56.2263H49.9092C51.7332 56.2263 53.1732 56.1623 54.2292 56.0343C55.2852 55.9063 56.0932 55.6583 56.6532 55.2903C57.2292 54.9063 57.5252 54.3383 57.5412 53.5863C57.5412 52.6743 57.4052 51.8103 57.1332 50.9943C56.8612 50.1623 56.5092 49.4983 56.0772 49.0023C55.6452 48.4903 55.1892 48.2343 54.7092 48.2343C54.2772 48.2343 53.9092 48.4183 53.6052 48.7863C53.3012 49.1543 53.1492 49.5223 53.1492 49.8903C53.1492 50.0983 53.1972 50.2503 53.2932 50.3463C53.5172 50.5863 53.9492 50.7863 54.5892 50.9463C55.2292 51.1063 55.9412 51.1863 56.7252 51.1863C57.1892 51.1863 57.7252 51.1463 58.3332 51.0663V55.0263C57.4212 55.2343 56.5892 55.3383 55.8372 55.3383C54.6372 55.3383 53.5732 55.1223 52.6452 54.6903C51.7172 54.2423 51.0612 53.6023 50.6772 52.7703C50.4052 52.1783 50.2692 51.4823 50.2692 50.6823C50.2692 49.7223 50.4772 48.7703 50.8932 47.8263C51.3092 46.8663 51.8852 46.0823 52.6212 45.4743C53.3732 44.8663 54.1972 44.5623 55.0932 44.5623C56.0532 44.5623 56.9412 44.9543 57.7572 45.7383C58.5732 46.5223 59.2132 47.5703 59.6772 48.8823C60.1572 50.1943 60.3972 51.6183 60.3972 53.1543C60.3972 55.5543 59.5412 57.4183 57.8292 58.7463C56.1332 60.0743 53.4772 60.7383 49.8612 60.7383H49.5012V56.2263ZM51.9012 40.7223L54.4692 38.1543L57.0132 40.7223L54.4692 43.2663L51.9012 40.7223ZM68.6805 60.7383C67.5125 60.7383 66.5445 60.3063 65.7765 59.4423C65.0245 58.5623 64.4005 57.3463 63.9045 55.7943L66.6165 54.1383C66.8245 54.9063 67.0805 55.4503 67.3845 55.7703C67.6885 56.0743 68.1205 56.2263 68.6805 56.2263H68.9445L69.1845 58.4823L68.9445 60.7383H68.6805ZM58.4805 64.0503C59.5525 63.5703 60.5365 63.0423 61.4325 62.4663C62.3445 61.9063 63.0645 61.3783 63.5925 60.8823C64.1365 60.3863 64.4085 59.9943 64.4085 59.7063C64.4085 59.0663 63.9125 57.1623 62.9205 53.9943L66.1605 52.6983C66.5605 53.8023 66.8725 54.9783 67.0965 56.2263C67.3205 57.4583 67.4325 58.6183 67.4325 59.7063C67.4325 61.3703 66.8085 62.8903 65.5605 64.2663C64.3125 65.6423 62.5845 66.8263 60.3765 67.8183L58.4805 64.0503ZM68.6965 56.2263H69.6565C70.8245 56.2263 71.8405 56.1463 72.7045 55.9863C73.5685 55.8103 74.1765 55.6103 74.5285 55.3863C74.0645 54.6503 73.4725 53.9063 72.7525 53.1543C72.0485 52.4023 70.9685 51.4343 69.5125 50.2503L69.8725 46.4343L78.8725 42.6903L80.0725 46.2663L73.5205 49.0263C73.5845 49.0903 74.2885 49.7623 75.6325 51.0423C76.9925 52.3223 77.6725 53.8983 77.6725 55.7703C77.6725 55.9943 77.6485 56.2263 77.6005 56.4663C77.3285 57.8903 76.4645 58.9623 75.0085 59.6823C73.5685 60.3863 71.7845 60.7383 69.6565 60.7383H68.6965V56.2263ZM70.1365 43.4823L78.0565 40.3143L78.4885 41.6103L69.9685 45.1383L70.1365 43.4823ZM88.8985 67.8183C87.4105 67.8183 86.0745 67.5463 84.8905 67.0023C83.7065 66.4583 82.7705 65.6343 82.0825 64.5303C81.4105 63.4423 81.0745 62.1143 81.0745 60.5463C81.0745 60.3543 81.0905 60.0503 81.1225 59.6343C81.2505 58.1143 81.8105 56.2583 82.8025 54.0663L85.5625 55.3383C85.1145 56.4263 84.7945 57.2743 84.6025 57.8823C84.4105 58.4903 84.3145 59.1623 84.3145 59.8983C84.3145 62.1703 85.8425 63.3063 88.8985 63.3063C90.0825 63.3063 91.1625 63.1543 92.1385 62.8503C93.1305 62.5463 93.8585 62.1783 94.3225 61.7463C93.9065 61.4743 93.2505 61.1383 92.3545 60.7383C91.4745 60.3383 90.5705 59.9863 89.6425 59.6823L90.6025 55.4343C92.0905 55.7223 93.3545 55.9223 94.3945 56.0343C95.4345 56.1463 96.4825 56.2103 97.5385 56.2263H97.7785L98.0185 58.4823L97.7785 60.7383H97.5385C96.4505 60.7223 95.2825 60.6263 94.0345 60.4503C92.7865 60.2583 91.3225 60.0023 89.6425 59.6823L90.6025 56.9943C92.4585 57.6823 94.0265 58.4743 95.3065 59.3703C96.6025 60.2663 97.2505 61.1623 97.2505 62.0583C97.2505 62.9063 96.8825 63.7783 96.1465 64.6743C95.4265 65.5703 94.4265 66.3143 93.1465 66.9063C91.8825 67.5143 90.4665 67.8183 88.8985 67.8183ZM102.612 54.5463C103.572 55.2183 104.46 55.7623 105.276 56.1783C106.108 56.5943 106.708 56.8023 107.076 56.8023C107.188 56.8023 107.268 56.7783 107.316 56.7303C107.508 56.5543 107.604 56.2743 107.604 55.8903C107.604 55.3463 107.436 54.8263 107.1 54.3303C106.78 53.8343 106.356 53.5863 105.828 53.5863C105.444 53.5863 105.036 53.8343 104.604 54.3303C104.172 54.8263 103.668 55.7943 103.092 57.2343C102.628 58.4183 101.948 59.2983 101.052 59.8743C100.172 60.4503 99.156 60.7383 98.004 60.7383H97.548L97.644 56.2263H98.076C99.212 56.2263 100.212 55.4663 101.076 53.9463C101.924 52.4103 102.716 51.2983 103.452 50.6103C104.188 49.9063 105.012 49.5543 105.924 49.5543C106.852 49.5543 107.66 49.8583 108.348 50.4663C109.052 51.0583 109.588 51.8343 109.956 52.7943C110.324 53.7383 110.508 54.7303 110.508 55.7703C110.508 56.7783 110.332 57.7063 109.98 58.5543C109.628 59.4023 109.108 60.0423 108.42 60.4743C107.972 60.7463 107.476 60.8823 106.932 60.8823C105.46 60.8823 103.46 60.0183 100.932 58.2903L102.612 54.5463ZM116.336 70.6263C116.224 69.3623 116.088 67.6183 115.928 65.3943C115.784 63.1703 115.712 61.0903 115.712 59.1543C115.712 58.4343 115.72 57.9063 115.736 57.5703C115.752 56.8183 115.936 56.1543 116.288 55.5783C116.64 55.0023 117.112 54.5703 117.704 54.2823C118.296 53.9943 118.96 53.8823 119.696 53.9463C120.288 52.5703 121.04 51.4983 121.952 50.7303C122.864 49.9463 123.776 49.5543 124.688 49.5543C125.712 49.5543 126.552 49.8583 127.208 50.4663C127.864 51.0583 128.448 52.0023 128.96 53.2983C129.424 54.4663 129.768 55.2503 129.992 55.6503C130.216 56.0343 130.448 56.2263 130.688 56.2263H130.856L131.096 58.4823L130.856 60.7383H130.688C130.272 60.7383 129.84 60.6343 129.392 60.4263C128.944 60.2183 128.536 59.9223 128.168 59.5383C127.832 59.9703 127.504 60.2823 127.184 60.4743C126.768 60.7463 126.288 60.8823 125.744 60.8823C125.104 60.8823 124.28 60.6983 123.272 60.3303C122.264 59.9623 120.928 59.3543 119.264 58.5063C119.248 59.7703 119.296 61.1783 119.408 62.7303C119.536 64.2823 119.712 66.2103 119.936 68.5143C120.016 69.2023 120.056 69.6183 120.056 69.7623L116.336 70.6263ZM126.92 56.9703C126.872 56.8263 126.736 56.4263 126.512 55.7703C126.288 55.0983 126.008 54.5703 125.672 54.1863C125.352 53.7863 124.984 53.5863 124.568 53.5863C124.296 53.5863 124.008 53.7143 123.704 53.9703C123.4 54.2263 123.056 54.7063 122.672 55.4103C123.504 55.9383 124.288 56.3303 125.024 56.5863C125.776 56.8423 126.408 56.9703 126.92 56.9703ZM130.642 56.2263H131.026C133.618 56.2263 135.522 56.0823 136.738 55.7943C137.954 55.4903 138.618 55.0103 138.73 54.3543C138.794 53.9383 138.65 53.5383 138.298 53.1543C137.946 52.7703 137.522 52.5223 137.026 52.4103C136.962 52.3943 136.858 52.3863 136.714 52.3863C136.266 52.3863 135.858 52.5303 135.49 52.8183C135.138 53.1063 134.946 53.4823 134.914 53.9463C134.882 54.4423 135.234 54.9063 135.97 55.3383C136.722 55.7543 137.642 56.0903 138.73 56.3463C139.818 56.6023 140.802 56.7303 141.682 56.7303C142.738 56.7303 143.338 56.5463 143.482 56.1783C143.53 56.0503 143.554 55.9383 143.554 55.8423C143.554 55.3143 143.05 54.7863 142.042 54.2583C141.05 53.7303 139.778 53.2263 138.226 52.7463C136.69 52.2663 134.586 51.6663 131.914 50.9463L133.594 46.7703C136.938 47.7143 139.562 48.6343 141.466 49.5303C143.386 50.4103 144.738 51.3063 145.522 52.2183C146.322 53.1303 146.722 54.1543 146.722 55.2903C146.722 56.0263 146.554 56.9223 146.218 57.9783C145.93 58.8583 145.33 59.5143 144.418 59.9463C143.506 60.3783 142.418 60.5943 141.154 60.5943C139.714 60.5943 138.258 60.3383 136.786 59.8263C135.33 59.2983 134.122 58.5703 133.162 57.6423C132.218 56.7143 131.746 55.6743 131.746 54.5223C131.746 54.1223 131.802 53.7463 131.914 53.3943C132.426 51.6503 133.146 50.3063 134.074 49.3623C135.018 48.4023 136.098 47.9863 137.314 48.1143C138.066 48.1783 138.746 48.4903 139.354 49.0503C139.978 49.6103 140.466 50.3223 140.818 51.1863C141.17 52.0343 141.346 52.9143 141.346 53.8263C141.346 54.1623 141.322 54.4983 141.274 54.8343C141.034 56.3543 140.53 57.5463 139.762 58.4103C138.994 59.2583 137.914 59.8583 136.522 60.2103C135.13 60.5623 133.298 60.7383 131.026 60.7383H130.642V56.2263ZM161.169 61.0743L160.929 58.8183L161.169 56.5623H161.481C163.513 56.5623 165.073 56.4183 166.161 56.1303C167.249 55.8263 168.009 55.2743 168.441 54.4743C168.441 54.0583 168.305 53.6503 168.033 53.2503C167.761 52.8343 167.385 52.6263 166.905 52.6263C166.473 52.6263 166.089 52.7863 165.753 53.1063C165.433 53.4263 165.257 53.7703 165.225 54.1383C165.289 54.4423 165.489 54.7543 165.825 55.0743C166.161 55.3943 166.633 55.6663 167.241 55.8903C167.849 56.1143 168.561 56.2263 169.377 56.2263H172.593L172.833 58.4823L172.593 60.7383H171.153C169.457 60.7383 167.921 60.4503 166.545 59.8743C165.185 59.2983 164.121 58.5303 163.353 57.5703C162.585 56.6103 162.201 55.5783 162.201 54.4743C162.201 54.1703 162.217 53.9383 162.249 53.7783C162.409 52.7543 162.721 51.8183 163.185 50.9703C163.665 50.1223 164.249 49.4503 164.937 48.9543C165.625 48.4583 166.361 48.2103 167.145 48.2103C168.041 48.2103 168.817 48.4903 169.473 49.0503C170.145 49.6103 170.649 50.3223 170.985 51.1863C171.321 52.0503 171.489 52.9383 171.489 53.8503C171.489 54.1863 171.465 54.4983 171.417 54.7863C171.113 56.8503 170.121 58.4103 168.441 59.4663C166.761 60.5223 164.441 61.0503 161.481 61.0503L161.169 61.0743ZM155.529 51.9063C155.497 52.0183 155.385 52.4263 155.193 53.1303C155.017 53.8343 154.937 54.3943 154.953 54.8103C155.017 55.0823 155.313 55.3543 155.841 55.6263C156.369 55.8983 157.113 56.1223 158.073 56.2983C159.033 56.4743 160.153 56.5623 161.433 56.5623C161.481 57.2983 161.505 58.0503 161.505 58.8183C161.505 59.5543 161.481 60.2983 161.433 61.0503C159.497 61.0663 157.817 60.8663 156.393 60.4503C154.969 60.0183 153.865 59.4103 153.081 58.6263C152.297 57.8263 151.857 56.8743 151.761 55.7703C151.745 55.6423 151.737 55.4503 151.737 55.1943C151.737 54.4743 151.833 53.6983 152.025 52.8663C152.217 52.0183 152.465 51.2663 152.769 50.6103L155.529 51.9063ZM164.769 44.3703L167.337 41.8023L169.881 44.3703L167.337 46.9143L164.769 44.3703ZM172.408 56.2263H172.528C173.776 56.2263 174.744 56.1703 175.432 56.0583C176.12 55.9463 176.6 55.7703 176.872 55.5303C177.144 55.2743 177.288 54.9383 177.304 54.5223C177.288 53.8023 177.2 53.0183 177.04 52.1703L180.016 51.6183C180.24 52.9303 180.352 54.2663 180.352 55.6263C180.448 55.7863 180.624 55.9303 180.88 56.0583C181.136 56.1703 181.472 56.2263 181.888 56.2263H181.984L182.224 58.4823L181.984 60.7383H181.864C181.16 60.7383 180.488 60.5623 179.848 60.2103C179.224 59.8423 178.688 59.3703 178.24 58.7943L178.936 58.9623C178.392 59.5703 177.632 60.0183 176.656 60.3063C175.696 60.5943 174.32 60.7383 172.528 60.7383H172.408V56.2263ZM172.072 62.6343L174.328 64.8903L172.816 66.4023L172.072 67.1463L171.328 66.4023L169.816 64.8903L172.072 62.6343ZM176.224 62.6343L178.48 64.8903L176.968 66.4023L176.224 67.1463L175.48 66.4023L173.968 64.8903L176.224 62.6343ZM181.736 56.2263H182.312C183.816 56.2263 184.96 56.1943 185.744 56.1303C186.544 56.0663 187.216 55.9143 187.76 55.6743C188.304 55.4183 188.72 55.0183 189.008 54.4743C189.008 54.0583 188.872 53.6503 188.6 53.2503C188.328 52.8343 187.952 52.6263 187.472 52.6263C187.04 52.6263 186.656 52.7863 186.32 53.1063C186 53.4263 185.824 53.7703 185.792 54.1383C185.872 54.4423 186.08 54.7543 186.416 55.0743C186.752 55.3943 187.216 55.6663 187.808 55.8903C188.416 56.1143 189.128 56.2263 189.944 56.2263H193.16L193.4 58.4823L193.16 60.7383H191.72C190.024 60.7383 188.488 60.4503 187.112 59.8743C185.752 59.2983 184.688 58.5303 183.92 57.5703C183.152 56.6103 182.768 55.5783 182.768 54.4743C182.768 54.1703 182.784 53.9383 182.816 53.7783C182.976 52.7543 183.288 51.8183 183.752 50.9703C184.232 50.1223 184.816 49.4503 185.504 48.9543C186.192 48.4583 186.928 48.2103 187.712 48.2103C188.608 48.2103 189.384 48.4903 190.04 49.0503C190.712 49.6103 191.216 50.3223 191.552 51.1863C191.888 52.0503 192.056 52.9383 192.056 53.8503C192.056 54.1863 192.032 54.4983 191.984 54.7863C191.68 56.8343 190.736 58.3383 189.152 59.2983C187.568 60.2583 185.288 60.7383 182.312 60.7383H181.736V56.2263ZM184.808 44.3703L187.376 41.8023L189.92 44.3703L187.376 46.9143L184.808 44.3703ZM211.229 56.2263L211.469 58.4823L211.229 60.7383H210.965C207.221 60.7223 204.869 59.3703 203.909 56.6823L206.117 54.5223C206.197 54.7143 206.381 54.9463 206.669 55.2183C206.957 55.4903 207.333 55.7303 207.797 55.9383C208.261 56.1303 208.797 56.2263 209.405 56.2263H211.229ZM192.821 56.2263H194.333C196.189 56.2263 197.901 56.0423 199.469 55.6743C201.053 55.3063 202.837 54.6023 204.821 53.5623C206.341 52.7463 207.309 52.2823 207.725 52.1703L207.845 55.7703C207.061 55.6103 206.285 55.3863 205.517 55.0983C204.765 54.8103 203.797 54.3703 202.613 53.7783C202.021 53.4743 201.397 53.2343 200.741 53.0583C200.101 52.8823 199.533 52.7943 199.037 52.7943C198.093 52.7943 197.269 53.2423 196.565 54.1383L194.093 52.2903C195.389 49.7143 197.077 48.4263 199.157 48.4263C199.845 48.4263 200.509 48.5383 201.149 48.7623C201.789 48.9703 202.733 49.4023 203.981 50.0583C204.893 50.5223 205.661 50.8743 206.285 51.1143C206.925 51.3383 207.637 51.5303 208.421 51.6903L208.565 55.7703C208.245 55.8663 207.477 56.2423 206.261 56.8983C206.149 56.9623 205.781 57.1623 205.157 57.4983C203.429 58.4103 201.973 59.0903 200.789 59.5383C199.621 59.9863 198.469 60.2983 197.333 60.4743C196.197 60.6343 194.797 60.7223 193.133 60.7383H192.821V56.2263ZM197.237 44.4423L199.805 41.8743L202.349 44.4423L199.805 46.9863L197.237 44.4423ZM210.962 56.2263H212.258C213.746 56.2263 214.802 56.1063 215.426 55.8663C216.066 55.6263 216.386 55.2903 216.386 54.8583C216.386 54.4583 215.946 53.2023 215.066 51.0903L218.114 49.4103C218.434 50.0823 218.754 50.9863 219.074 52.1223C219.41 53.2423 219.578 54.2503 219.578 55.1463C219.578 56.9383 219.018 58.3223 217.898 59.2983C216.778 60.2583 215.138 60.7383 212.978 60.7383H210.962V56.2263ZM213.194 44.3223L215.45 46.5783L213.938 48.0903L213.194 48.8343L212.45 48.0903L210.938 46.5783L213.194 44.3223ZM217.346 44.3223L219.602 46.5783L218.09 48.0903L217.346 48.8343L216.602 48.0903L215.09 46.5783L217.346 44.3223ZM224.814 57.5703C224.83 56.8183 225.014 56.1543 225.366 55.5783C225.718 55.0023 226.19 54.5703 226.782 54.2823C227.374 53.9943 228.038 53.8823 228.774 53.9463C229.398 52.5063 230.15 51.4183 231.03 50.6823C231.91 49.9303 232.83 49.5543 233.79 49.5543C234.734 49.5543 235.55 49.8583 236.238 50.4663C236.942 51.0583 237.47 51.8343 237.822 52.7943C238.19 53.7383 238.374 54.7303 238.374 55.7703C238.374 56.7783 238.198 57.7063 237.846 58.5543C237.494 59.3863 236.974 60.0263 236.286 60.4743C235.87 60.7463 235.382 60.8823 234.822 60.8823C234.166 60.8823 233.318 60.6983 232.278 60.3303C231.254 59.9463 229.942 59.3383 228.342 58.5063C228.326 60.1223 228.422 62.1703 228.63 64.6503C228.854 67.1463 229.022 68.8503 229.134 69.7623L225.414 70.6263C225.286 69.2983 225.15 67.5383 225.006 65.3463C224.862 63.1543 224.79 61.0743 224.79 59.1063C224.79 58.4023 224.798 57.8903 224.814 57.5703ZM231.798 55.4103C232.502 55.8423 233.134 56.1863 233.694 56.4423C234.254 56.6823 234.67 56.8023 234.942 56.8023C235.07 56.8023 235.158 56.7783 235.206 56.7303C235.382 56.5703 235.47 56.2983 235.47 55.9143C235.47 55.3703 235.302 54.8503 234.966 54.3543C234.646 53.8423 234.222 53.5863 233.694 53.5863C233.422 53.5863 233.134 53.7143 232.83 53.9703C232.526 54.2263 232.182 54.7063 231.798 55.4103ZM241.106 55.6983C241.65 55.9383 242.226 56.1543 242.834 56.3463C243.442 56.5223 244.146 56.6103 244.946 56.6103C245.794 56.5943 246.49 56.5143 247.034 56.3703C247.594 56.2263 247.978 56.0663 248.186 55.8903C247.754 54.3223 246.074 52.5783 243.146 50.6583L245.282 46.6983C247.186 47.9783 248.706 49.4423 249.842 51.0903C250.978 52.7223 251.546 54.2983 251.546 55.8183C251.546 56.4903 251.41 57.1623 251.138 57.8343C250.722 58.8263 249.978 59.5863 248.906 60.1143C247.834 60.6263 246.666 60.8823 245.402 60.8823C243.178 60.8823 241.234 60.2023 239.57 58.8423L241.106 55.6983ZM253.102 63.9303C255.022 63.5143 256.558 63.0823 257.71 62.6343C258.862 62.1863 259.71 61.6663 260.254 61.0743C260.798 60.4823 261.07 59.7703 261.07 58.9383C261.07 57.9623 260.926 57.0343 260.638 56.1543C260.366 55.2743 260.006 54.5703 259.558 54.0423C259.11 53.5143 258.646 53.2503 258.166 53.2503C257.718 53.2503 257.334 53.4503 257.014 53.8503C256.71 54.2503 256.558 54.6503 256.558 55.0503C256.558 55.2263 256.606 55.3783 256.702 55.5063C256.958 55.8103 257.534 56.0103 258.43 56.1063C259.342 56.1863 260.638 56.2263 262.318 56.2263H264.934L265.174 58.4823L264.934 60.7383L261.79 60.7623C260.382 60.7623 259.19 60.7063 258.214 60.5943C257.238 60.4663 256.382 60.2103 255.646 59.8263C254.926 59.4263 254.398 58.8423 254.062 58.0743C253.774 57.4503 253.63 56.7063 253.63 55.8423C253.63 54.8183 253.846 53.8023 254.278 52.7943C254.71 51.7863 255.302 50.9623 256.054 50.3223C256.806 49.6823 257.646 49.3623 258.574 49.3623C259.566 49.3623 260.478 49.7783 261.31 50.6103C262.142 51.4423 262.798 52.5543 263.278 53.9463C263.758 55.3383 263.998 56.8503 263.998 58.4823C263.998 60.0823 263.614 61.5223 262.846 62.8023C262.094 64.0823 261.006 65.1463 259.582 65.9943C258.158 66.8583 256.47 67.4663 254.518 67.8183L253.102 63.9303ZM264.611 56.2263H265.883C267.883 56.2263 268.883 55.8343 268.883 55.0503C268.883 54.8103 268.707 54.2103 268.355 53.2503C268.019 52.2903 267.755 51.5703 267.563 51.0903L270.635 49.4103C270.939 50.0823 271.259 51.0183 271.595 52.2183C271.931 53.4023 272.099 54.4423 272.099 55.3383C272.099 57.0983 271.563 58.4423 270.491 59.3703C269.419 60.2823 267.883 60.7383 265.883 60.7383H264.611V56.2263ZM265.187 64.8903L267.755 62.3223L270.299 64.8903L267.755 67.4343L265.187 64.8903Z" fill="#FF600A"/>
</svg>
