<svg width="317" height="102" viewBox="0 0 317 102" fill="none" xmlns="http://www.w3.org/2000/svg">
<path d="M6.525 24.24C5.613 24.288 4.869 24 4.293 23.376C3.717 22.752 3.429 21.952 3.429 20.976C3.429 19.888 3.765 18.768 4.437 17.616C5.109 16.448 5.989 15.52 7.077 14.832L8.829 16.488C8.061 17.112 7.501 17.632 7.149 18.048C6.797 18.464 6.501 18.864 6.261 19.248C6.357 19.216 6.461 19.2 6.573 19.2C7.245 19.2 7.821 19.44 8.301 19.92C8.781 20.4 9.021 21 9.021 21.72C9.021 22.392 8.773 22.984 8.277 23.496C7.781 23.992 7.197 24.24 6.525 24.24ZM11.1092 20.832C11.1252 20.08 11.3092 19.416 11.6612 18.84C12.0132 18.264 12.4852 17.832 13.0772 17.544C13.6692 17.256 14.3332 17.144 15.0692 17.208C15.6932 15.768 16.4452 14.68 17.3252 13.944C18.2052 13.192 19.1252 12.816 20.0852 12.816C21.0292 12.816 21.8452 13.12 22.5332 13.728C23.2372 14.32 23.7652 15.096 24.1172 16.056C24.4852 17 24.6692 17.992 24.6692 19.032C24.6692 20.04 24.4932 20.968 24.1412 21.816C23.7892 22.648 23.2692 23.288 22.5812 23.736C22.1652 24.008 21.6772 24.144 21.1172 24.144C20.4612 24.144 19.6132 23.96 18.5732 23.592C17.5492 23.208 16.2372 22.6 14.6372 21.768C14.6212 23.384 14.7172 25.432 14.9252 27.912C15.1492 30.408 15.3172 32.112 15.4292 33.024L11.7092 33.888C11.5812 32.56 11.4452 30.8 11.3012 28.608C11.1572 26.416 11.0852 24.336 11.0852 22.368C11.0852 21.664 11.0932 21.152 11.1092 20.832ZM18.0932 18.672C18.7972 19.104 19.4292 19.448 19.9892 19.704C20.5492 19.944 20.9652 20.064 21.2372 20.064C21.3652 20.064 21.4532 20.04 21.5012 19.992C21.6772 19.832 21.7652 19.56 21.7652 19.176C21.7652 18.632 21.5972 18.112 21.2612 17.616C20.9412 17.104 20.5172 16.848 19.9892 16.848C19.7172 16.848 19.4292 16.976 19.1252 17.232C18.8212 17.488 18.4772 17.968 18.0932 18.672ZM27.4013 18.96C27.9453 19.2 28.5213 19.416 29.1293 19.608C29.7373 19.784 30.4413 19.872 31.2413 19.872C32.0893 19.856 32.7853 19.776 33.3293 19.632C33.8893 19.488 34.2733 19.328 34.4813 19.152C34.0493 17.584 32.3693 15.84 29.4413 13.92L31.5773 9.96C33.4813 11.24 35.0013 12.704 36.1373 14.352C37.2733 15.984 37.8413 17.56 37.8413 19.08C37.8413 19.752 37.7053 20.424 37.4333 21.096C37.0173 22.088 36.2733 22.848 35.2013 23.376C34.1293 23.888 32.9613 24.144 31.6973 24.144C29.4733 24.144 27.5293 23.464 25.8653 22.104L27.4013 18.96ZM39.3971 27.192C41.3171 26.776 42.8531 26.344 44.0051 25.896C45.1571 25.448 46.0051 24.928 46.5491 24.336C47.0931 23.744 47.3651 23.032 47.3651 22.2C47.3651 21.224 47.2211 20.296 46.9331 19.416C46.6611 18.536 46.3011 17.832 45.8531 17.304C45.4051 16.776 44.9411 16.512 44.4611 16.512C44.0131 16.512 43.6291 16.712 43.3091 17.112C43.0051 17.512 42.8531 17.912 42.8531 18.312C42.8531 18.488 42.9011 18.64 42.9971 18.768C43.2531 19.072 43.8291 19.272 44.7251 19.368C45.6371 19.448 46.9331 19.488 48.6131 19.488H51.2291L51.4691 21.744L51.2291 24L48.0851 24.024C46.6771 24.024 45.4851 23.968 44.5091 23.856C43.5331 23.728 42.6771 23.472 41.9411 23.088C41.2211 22.688 40.6931 22.104 40.3571 21.336C40.0691 20.712 39.9251 19.968 39.9251 19.104C39.9251 18.08 40.1411 17.064 40.5731 16.056C41.0051 15.048 41.5971 14.224 42.3491 13.584C43.1011 12.944 43.9411 12.624 44.8691 12.624C45.8611 12.624 46.7731 13.04 47.6051 13.872C48.4371 14.704 49.0931 15.816 49.5731 17.208C50.0531 18.6 50.2931 20.112 50.2931 21.744C50.2931 23.344 49.9091 24.784 49.1411 26.064C48.3891 27.344 47.3011 28.408 45.8771 29.256C44.4531 30.12 42.7651 30.728 40.8131 31.08L39.3971 27.192ZM50.9059 19.488H52.1779C54.1779 19.488 55.1779 19.096 55.1779 18.312C55.1779 18.072 55.0019 17.472 54.6499 16.512C54.3139 15.552 54.0499 14.832 53.8579 14.352L56.9299 12.672C57.2339 13.344 57.5539 14.28 57.8899 15.48C58.2259 16.664 58.3939 17.704 58.3939 18.6C58.3939 20.36 57.8579 21.704 56.7859 22.632C55.7139 23.544 54.1779 24 52.1779 24H50.9059V19.488ZM51.4819 28.152L54.0499 25.584L56.5939 28.152L54.0499 30.696L51.4819 28.152ZM69.3932 14.88C67.6012 16.416 66.7052 17.608 66.7052 18.456C66.7052 18.856 66.9132 19.168 67.3292 19.392C67.7452 19.616 68.3372 19.728 69.1052 19.728C69.6492 19.728 70.1052 19.64 70.4732 19.464C70.8572 19.288 71.0892 19.064 71.1692 18.792C70.5932 17.448 68.5692 15.688 65.0972 13.512L67.4012 10.152C71.8972 12.872 74.1452 15.736 74.1452 18.744C74.1452 19.8 73.9132 20.736 73.4492 21.552C72.9852 22.368 72.3452 23 71.5292 23.448C70.7132 23.896 69.8012 24.12 68.7932 24.12C67.1612 24.12 65.9132 23.704 65.0492 22.872C64.1852 22.04 63.7532 20.936 63.7532 19.56C63.7532 18.952 63.8332 18.336 63.9932 17.712C64.2492 16.704 64.6652 15.776 65.2412 14.928C65.8332 14.064 66.5932 13.16 67.5212 12.216L69.3932 14.88ZM83.3824 10.344L86.6704 18.12C86.8944 18.664 87.1424 19.032 87.4144 19.224C87.7024 19.4 88.1424 19.488 88.7344 19.488H89.0464L89.2864 21.744L89.0464 24H88.7344C87.5984 24 86.6624 23.672 85.9264 23.016C85.1904 22.344 84.5104 21.296 83.8864 19.872L80.4064 11.952L83.3824 10.344ZM76.8544 18.96C77.3504 19.2 77.8944 19.416 78.4864 19.608C79.0944 19.784 79.8304 19.872 80.6944 19.872C81.4464 19.872 82.0864 19.792 82.6144 19.632C83.1424 19.456 83.5504 19.264 83.8384 19.056C84.1264 18.848 84.3104 18.664 84.3904 18.504L86.4064 21.096C86.0864 21.736 85.5104 22.408 84.6784 23.112C83.8624 23.8 82.6864 24.144 81.1504 24.144C79.1664 24.144 77.2224 23.464 75.3184 22.104L76.8544 18.96ZM88.7569 19.488H90.0529C91.5409 19.488 92.5969 19.368 93.2209 19.128C93.8609 18.888 94.1809 18.552 94.1809 18.12C94.1809 17.72 93.7409 16.464 92.8609 14.352L95.9089 12.672C96.2289 13.344 96.5489 14.248 96.8689 15.384C97.2049 16.504 97.3729 17.512 97.3729 18.408C97.3729 20.2 96.8129 21.584 95.6929 22.56C94.5729 23.52 92.9329 24 90.7729 24H88.7569V19.488ZM89.0449 25.896L91.3009 28.152L89.7889 29.664L89.0449 30.408L88.3009 29.664L86.7889 28.152L89.0449 25.896ZM93.1969 25.896L95.4529 28.152L93.9409 29.664L93.1969 30.408L92.4529 29.664L90.9409 28.152L93.1969 25.896ZM106.882 24C105.714 24 104.746 23.568 103.978 22.704C103.226 21.824 102.602 20.608 102.106 19.056L104.818 17.4C105.026 18.168 105.282 18.712 105.586 19.032C105.89 19.336 106.322 19.488 106.882 19.488H107.146L107.386 21.744L107.146 24H106.882ZM96.6821 27.312C97.7541 26.832 98.7381 26.304 99.6341 25.728C100.546 25.168 101.266 24.64 101.794 24.144C102.338 23.648 102.61 23.256 102.61 22.968C102.61 22.328 102.114 20.424 101.122 17.256L104.362 15.96C104.762 17.064 105.074 18.24 105.298 19.488C105.522 20.72 105.634 21.88 105.634 22.968C105.634 24.632 105.01 26.152 103.762 27.528C102.514 28.904 100.786 30.088 98.5781 31.08L96.6821 27.312ZM106.874 19.488H108.386C110.242 19.488 111.954 19.304 113.522 18.936C115.106 18.568 116.89 17.864 118.874 16.824C120.394 16.008 121.362 15.544 121.778 15.432L121.898 19.032C121.114 18.872 120.338 18.648 119.57 18.36C118.818 18.072 117.85 17.632 116.666 17.04C116.074 16.736 115.45 16.496 114.794 16.32C114.154 16.144 113.586 16.056 113.09 16.056C112.146 16.056 111.322 16.504 110.618 17.4L108.146 15.552C109.442 12.976 111.13 11.688 113.21 11.688C113.898 11.688 114.562 11.8 115.202 12.024C115.842 12.232 116.786 12.664 118.034 13.32C118.946 13.784 119.714 14.136 120.338 14.376C120.978 14.6 121.69 14.792 122.474 14.952L122.618 19.032C122.298 19.128 121.53 19.504 120.314 20.16C120.202 20.224 119.834 20.424 119.21 20.76C117.482 21.672 116.026 22.352 114.842 22.8C113.674 23.248 112.522 23.56 111.386 23.736C110.25 23.896 108.85 23.984 107.186 24H106.874V19.488ZM111.29 7.704L113.858 5.136L116.402 7.704L113.858 10.248L111.29 7.704ZM137.122 24.312C137.09 23.32 137.074 22.568 137.074 22.056C137.074 21.56 137.09 20.816 137.122 19.824C139.314 19.824 140.962 19.712 142.066 19.488C143.17 19.264 143.994 18.888 144.538 18.36C145.098 17.832 145.594 17.016 146.026 15.912L148.978 16.224C148.658 17.136 148.498 17.848 148.498 18.36C148.498 18.776 148.602 19.072 148.81 19.248C149.034 19.408 149.354 19.488 149.77 19.488L150.01 21.744L149.77 24C149.146 24 148.546 23.856 147.97 23.568C147.394 23.28 146.938 22.888 146.602 22.392C146.266 21.88 146.106 21.32 146.122 20.712L146.578 20.856C145.842 21.784 145.018 22.504 144.106 23.016C143.21 23.512 142.202 23.848 141.082 24.024C139.978 24.216 138.658 24.312 137.122 24.312ZM131.434 15.168C131.402 15.28 131.29 15.688 131.098 16.392C130.922 17.096 130.842 17.656 130.858 18.072C130.922 18.344 131.218 18.616 131.746 18.888C132.274 19.16 133.018 19.384 133.978 19.56C134.938 19.736 136.058 19.824 137.338 19.824C137.386 20.56 137.41 21.312 137.41 22.08C137.41 22.816 137.386 23.56 137.338 24.312C135.402 24.328 133.722 24.128 132.298 23.712C130.874 23.28 129.77 22.672 128.986 21.888C128.202 21.088 127.762 20.136 127.666 19.032C127.65 18.904 127.642 18.712 127.642 18.456C127.642 17.736 127.738 16.96 127.93 16.128C128.122 15.28 128.37 14.528 128.674 13.872L131.434 15.168ZM136.138 10.872L138.394 13.128L136.882 14.64L136.138 15.384L135.394 14.64L133.882 13.128L136.138 10.872ZM140.29 10.872L142.546 13.128L141.034 14.64L140.29 15.384L139.546 14.64L138.034 13.128L140.29 10.872ZM160.907 9.168L154.355 11.928C155.203 12.712 156.107 13.736 157.067 15C158.027 16.264 158.507 17.592 158.507 18.984C158.507 19.24 158.483 19.488 158.435 19.728C158.163 21.152 157.299 22.224 155.843 22.944C154.403 23.648 152.619 24 150.491 24H149.531V19.488H150.491C151.659 19.488 152.675 19.408 153.539 19.248C154.403 19.072 155.011 18.872 155.363 18.648C154.803 17.752 154.163 16.896 153.443 16.08C152.739 15.248 151.707 14.272 150.347 13.152L150.707 9.336L159.707 5.592L160.907 9.168ZM157.292 27.312C158.364 26.832 159.348 26.304 160.244 25.728C161.156 25.168 161.876 24.64 162.404 24.144C162.948 23.648 163.22 23.256 163.22 22.968C163.22 22.328 162.724 20.424 161.732 17.256L164.972 15.96C165.372 17.064 165.684 18.24 165.908 19.488C166.132 20.72 166.244 21.88 166.244 22.968C166.244 24.632 165.62 26.152 164.372 27.528C163.124 28.904 161.396 30.088 159.188 31.08L157.292 27.312ZM171.621 5.52C171.829 7.024 171.981 8.856 172.077 11.016C172.189 13.176 172.245 15.208 172.245 17.112C172.245 17.752 172.293 18.24 172.389 18.576C172.501 18.912 172.685 19.152 172.941 19.296C173.197 19.424 173.565 19.488 174.045 19.488H174.165L174.405 21.744L174.165 24H174.045C170.541 24 168.765 21.848 168.717 17.544C168.637 13.112 168.381 9.384 167.949 6.36L171.621 5.52ZM178.993 17.808C179.953 18.48 180.841 19.024 181.657 19.44C182.489 19.856 183.089 20.064 183.457 20.064C183.569 20.064 183.649 20.04 183.697 19.992C183.889 19.816 183.985 19.536 183.985 19.152C183.985 18.608 183.817 18.088 183.481 17.592C183.161 17.096 182.737 16.848 182.209 16.848C181.825 16.848 181.417 17.096 180.985 17.592C180.553 18.088 180.049 19.056 179.473 20.496C179.009 21.68 178.329 22.56 177.433 23.136C176.553 23.712 175.537 24 174.385 24H173.929L174.025 19.488H174.457C175.593 19.488 176.593 18.728 177.457 17.208C178.305 15.672 179.097 14.56 179.833 13.872C180.569 13.168 181.393 12.816 182.305 12.816C183.233 12.816 184.041 13.12 184.729 13.728C185.433 14.32 185.969 15.096 186.337 16.056C186.705 17 186.889 17.992 186.889 19.032C186.889 20.04 186.713 20.968 186.361 21.816C186.009 22.664 185.489 23.304 184.801 23.736C184.353 24.008 183.857 24.144 183.313 24.144C181.841 24.144 179.841 23.28 177.313 21.552L178.993 17.808ZM198.317 24.312C198.285 23.32 198.269 22.568 198.269 22.056C198.269 21.56 198.285 20.816 198.317 19.824C200.509 19.824 202.157 19.712 203.261 19.488C204.365 19.264 205.189 18.888 205.733 18.36C206.293 17.832 206.789 17.016 207.221 15.912L210.173 16.224C209.853 17.136 209.693 17.848 209.693 18.36C209.693 18.776 209.797 19.072 210.005 19.248C210.229 19.408 210.549 19.488 210.965 19.488L211.205 21.744L210.965 24C210.341 24 209.741 23.856 209.165 23.568C208.589 23.28 208.133 22.888 207.797 22.392C207.461 21.88 207.301 21.32 207.317 20.712L207.773 20.856C207.037 21.784 206.213 22.504 205.301 23.016C204.405 23.512 203.397 23.848 202.277 24.024C201.173 24.216 199.853 24.312 198.317 24.312ZM192.629 15.168C192.597 15.28 192.485 15.688 192.293 16.392C192.117 17.096 192.037 17.656 192.053 18.072C192.117 18.344 192.413 18.616 192.941 18.888C193.469 19.16 194.213 19.384 195.173 19.56C196.133 19.736 197.253 19.824 198.533 19.824C198.581 20.56 198.605 21.312 198.605 22.08C198.605 22.816 198.581 23.56 198.533 24.312C196.597 24.328 194.917 24.128 193.493 23.712C192.069 23.28 190.965 22.672 190.181 21.888C189.397 21.088 188.957 20.136 188.861 19.032C188.845 18.904 188.837 18.712 188.837 18.456C188.837 17.736 188.933 16.96 189.125 16.128C189.317 15.28 189.565 14.528 189.869 13.872L192.629 15.168ZM200.981 25.632L203.093 27.744L200.981 29.88L198.845 27.744L200.981 25.632ZM196.349 25.632L198.461 27.744L196.349 29.88L194.213 27.744L196.349 25.632ZM198.653 28.92L200.525 30.768L198.653 32.616L197.429 31.392L196.805 30.768L198.653 28.92ZM219.102 19.488L219.342 21.744L219.102 24H218.982C217.862 24 216.934 23.696 216.198 23.088C215.462 22.48 214.95 21.56 214.662 20.328L214.422 19.176C214.166 17.896 213.91 16.728 213.654 15.672L216.51 14.664C216.654 15.288 216.886 16.216 217.206 17.448L217.35 18.024C217.494 18.552 217.694 18.928 217.95 19.152C218.206 19.376 218.55 19.488 218.982 19.488H219.102ZM217.206 18.96C216.95 20.704 216.302 21.984 215.262 22.8C214.238 23.6 212.79 24 210.918 24H210.726V19.488H210.894C211.966 19.488 212.798 19.384 213.39 19.176C213.982 18.968 214.302 18.704 214.35 18.384L217.206 18.96ZM211.806 10.8L214.374 8.232L216.918 10.8L214.374 13.344L211.806 10.8ZM232.299 19.488C232.667 19.488 232.979 19.376 233.235 19.152C233.491 18.928 233.619 18.672 233.619 18.384C233.619 17.84 233.179 16.496 232.299 14.352L235.251 12.72C235.555 13.344 235.875 14.256 236.211 15.456C236.563 16.656 236.739 17.704 236.739 18.6C236.739 19.576 236.547 20.48 236.163 21.312C235.795 22.128 235.275 22.784 234.603 23.28C233.931 23.76 233.163 24 232.299 24H232.227V19.488H232.299ZM225.795 24V19.488H225.939C226.691 19.488 227.235 19.128 227.571 18.408C227.875 17.768 228.139 16.904 228.363 15.816L231.315 15.936C231.267 16.208 231.211 16.576 231.147 17.04C231.099 17.488 231.075 17.84 231.075 18.096C231.075 18.512 231.171 18.848 231.363 19.104C231.571 19.36 231.875 19.488 232.275 19.488H232.347L232.587 21.744L232.347 24H232.275C231.459 24 230.739 23.8 230.115 23.4C229.507 22.984 229.035 22.4 228.699 21.648L229.467 21.6C228.907 22.432 228.347 23.04 227.787 23.424C227.243 23.808 226.603 24 225.867 24H225.795ZM218.931 24L218.691 21.744L218.931 19.488H219.051C219.483 19.488 219.923 19.4 220.371 19.224C220.819 19.048 221.147 18.84 221.355 18.6C221.899 18.024 222.323 17.128 222.627 15.912L225.579 16.224C225.547 16.336 225.459 16.672 225.315 17.232C225.171 17.792 225.099 18.24 225.099 18.576C225.099 19.184 225.355 19.488 225.867 19.488H225.939L226.179 21.744L225.939 24H225.771C225.131 24 224.539 23.848 223.995 23.544C223.467 23.224 223.067 22.8 222.795 22.272C222.267 22.832 221.675 23.264 221.019 23.568C220.379 23.856 219.707 24 219.003 24H218.931ZM238.907 23.856C239.099 22.656 239.195 20.96 239.195 18.768C239.195 16.576 239.107 14.256 238.931 11.808C238.771 9.36 238.587 7.544 238.379 6.36L242.099 5.52C242.259 6.624 242.403 8.304 242.531 10.56C242.659 12.8 242.723 15.016 242.723 17.208C242.723 20.232 242.595 22.568 242.339 24.216L238.907 23.856ZM247.034 27.312C248.106 26.832 249.09 26.304 249.986 25.728C250.898 25.168 251.618 24.64 252.146 24.144C252.69 23.648 252.962 23.256 252.962 22.968C252.962 22.328 252.466 20.424 251.474 17.256L254.714 15.96C255.114 17.064 255.426 18.24 255.65 19.488C255.874 20.72 255.986 21.88 255.986 22.968C255.986 24.632 255.362 26.152 254.114 27.528C252.866 28.904 251.138 30.088 248.93 31.08L247.034 27.312ZM250.082 11.352L252.65 8.784L255.194 11.352L252.65 13.896L250.082 11.352ZM258.219 23.856C258.411 22.656 258.507 20.96 258.507 18.768C258.507 16.576 258.419 14.256 258.243 11.808C258.083 9.36 257.899 7.544 257.691 6.36L261.411 5.52C261.571 6.624 261.715 8.304 261.843 10.56C261.971 12.8 262.035 15.016 262.035 17.208C262.035 20.232 261.907 22.568 261.651 24.216L258.219 23.856ZM291.066 19.488C291.434 19.488 291.746 19.376 292.002 19.152C292.258 18.928 292.386 18.672 292.386 18.384C292.386 17.84 291.946 16.496 291.066 14.352L294.018 12.72C294.322 13.344 294.642 14.256 294.978 15.456C295.33 16.656 295.506 17.704 295.506 18.6C295.506 19.576 295.314 20.48 294.93 21.312C294.562 22.128 294.042 22.784 293.37 23.28C292.698 23.76 291.93 24 291.066 24H290.994V19.488H291.066ZM284.562 24V19.488H284.706C285.458 19.488 286.002 19.128 286.338 18.408C286.642 17.768 286.906 16.904 287.13 15.816L290.082 15.936C290.034 16.208 289.978 16.576 289.914 17.04C289.866 17.488 289.842 17.84 289.842 18.096C289.842 18.512 289.938 18.848 290.13 19.104C290.338 19.36 290.642 19.488 291.042 19.488H291.114L291.354 21.744L291.114 24H291.042C290.226 24 289.506 23.8 288.882 23.4C288.274 22.984 287.802 22.4 287.466 21.648L288.234 21.6C287.674 22.432 287.114 23.04 286.554 23.424C286.01 23.808 285.37 24 284.634 24H284.562ZM282.57 17.4C282.778 17.976 282.962 18.408 283.122 18.696C283.298 18.968 283.514 19.168 283.77 19.296C284.042 19.424 284.418 19.488 284.898 19.488L284.682 24C283.562 24 282.594 23.56 281.778 22.68C280.962 21.784 280.314 20.576 279.834 19.056L282.57 17.4ZM271.842 18.6C271.394 19.672 271.074 20.52 270.882 21.144C270.69 21.768 270.594 22.448 270.594 23.184C270.594 25.456 272.122 26.592 275.178 26.592C276.202 26.592 277.114 26.424 277.914 26.088C278.73 25.768 279.37 25.328 279.834 24.768C280.298 24.208 280.53 23.6 280.53 22.944C280.53 22.208 279.97 20.336 278.85 17.328L281.922 15.624C282.45 16.92 282.85 18.2 283.122 19.464C283.41 20.728 283.554 21.888 283.554 22.944C283.554 24.48 283.186 25.872 282.45 27.12C281.73 28.368 280.73 29.344 279.45 30.048C278.186 30.752 276.762 31.104 275.178 31.104C273.69 31.104 272.354 30.824 271.17 30.264C269.986 29.72 269.05 28.896 268.362 27.792C267.69 26.704 267.354 25.376 267.354 23.808C267.354 23.424 267.362 23.136 267.378 22.944C267.506 21.408 268.074 19.544 269.082 17.352L271.842 18.6ZM288.162 6.384L290.034 8.232L288.162 10.08L286.938 8.856L286.314 8.232L288.162 6.384ZM290.49 9.12L292.602 11.232L290.49 13.368L288.354 11.232L290.49 9.12ZM285.882 9.12L287.994 11.232L285.882 13.368L283.746 11.232L285.882 9.12ZM300.832 5.52C301.04 7.024 301.192 8.856 301.288 11.016C301.4 13.176 301.456 15.208 301.456 17.112C301.456 17.752 301.504 18.24 301.6 18.576C301.712 18.912 301.896 19.152 302.152 19.296C302.408 19.424 302.776 19.488 303.256 19.488H303.376L303.616 21.744L303.376 24H303.256C299.752 24 297.976 21.848 297.928 17.544C297.848 13.112 297.592 9.384 297.16 6.36L300.832 5.52ZM314.516 9.168L307.964 11.928C308.812 12.712 309.716 13.736 310.676 15C311.636 16.264 312.116 17.592 312.116 18.984C312.116 19.24 312.092 19.488 312.044 19.728C311.772 21.152 310.908 22.224 309.452 22.944C308.012 23.648 306.228 24 304.1 24H303.14V19.488H304.1C305.268 19.488 306.284 19.408 307.148 19.248C308.012 19.072 308.62 18.872 308.972 18.648C308.412 17.752 307.772 16.896 307.052 16.08C306.348 15.248 305.316 14.272 303.956 13.152L304.316 9.336L313.316 5.592L314.516 9.168ZM8.91694 53.88H5.72494L5.22094 42.216H9.42094L8.91694 53.88ZM7.28494 60.384C6.61294 60.384 6.05294 60.16 5.60494 59.712C5.17294 59.248 4.95694 58.672 4.95694 57.984C4.95694 57.328 5.17294 56.784 5.60494 56.352C6.05294 55.92 6.61294 55.704 7.28494 55.704C7.95694 55.704 8.51694 55.92 8.96494 56.352C9.41294 56.784 9.63694 57.328 9.63694 57.984C9.63694 58.672 9.41294 59.248 8.96494 59.712C8.51694 60.16 7.95694 60.384 7.28494 60.384ZM12.0701 56.832C12.0861 56.08 12.2701 55.416 12.6221 54.84C12.9741 54.264 13.4461 53.832 14.0381 53.544C14.6301 53.256 15.2941 53.144 16.0301 53.208C16.6541 51.768 17.4061 50.68 18.2861 49.944C19.1661 49.192 20.0861 48.816 21.0461 48.816C21.9901 48.816 22.8061 49.12 23.4941 49.728C24.1981 50.32 24.7261 51.096 25.0781 52.056C25.4461 53 25.6301 53.992 25.6301 55.032C25.6301 56.04 25.4541 56.968 25.1021 57.816C24.7501 58.648 24.2301 59.288 23.5421 59.736C23.1261 60.008 22.6381 60.144 22.0781 60.144C21.4221 60.144 20.5741 59.96 19.5341 59.592C18.5101 59.208 17.1981 58.6 15.5981 57.768C15.5821 59.384 15.6781 61.432 15.8861 63.912C16.1101 66.408 16.2781 68.112 16.3901 69.024L12.6701 69.888C12.5421 68.56 12.4061 66.8 12.2621 64.608C12.1181 62.416 12.0461 60.336 12.0461 58.368C12.0461 57.664 12.0541 57.152 12.0701 56.832ZM19.0541 54.672C19.7581 55.104 20.3901 55.448 20.9501 55.704C21.5101 55.944 21.9261 56.064 22.1981 56.064C22.3261 56.064 22.4141 56.04 22.4621 55.992C22.6381 55.832 22.7261 55.56 22.7261 55.176C22.7261 54.632 22.5581 54.112 22.2221 53.616C21.9021 53.104 21.4781 52.848 20.9501 52.848C20.6781 52.848 20.3901 52.976 20.0861 53.232C19.7821 53.488 19.4381 53.968 19.0541 54.672ZM34.8902 46.344L38.1782 54.12C38.4022 54.664 38.6502 55.032 38.9222 55.224C39.2102 55.4 39.6502 55.488 40.2422 55.488H40.5542L40.7942 57.744L40.5542 60H40.2422C39.1062 60 38.1702 59.672 37.4342 59.016C36.6982 58.344 36.0182 57.296 35.3942 55.872L31.9142 47.952L34.8902 46.344ZM28.3622 54.96C28.8582 55.2 29.4022 55.416 29.9942 55.608C30.6022 55.784 31.3382 55.872 32.2022 55.872C32.9542 55.872 33.5942 55.792 34.1222 55.632C34.6502 55.456 35.0582 55.264 35.3462 55.056C35.6342 54.848 35.8182 54.664 35.8982 54.504L37.9142 57.096C37.5942 57.736 37.0182 58.408 36.1862 59.112C35.3702 59.8 34.1942 60.144 32.6582 60.144C30.6742 60.144 28.7302 59.464 26.8262 58.104L28.3622 54.96ZM40.2887 55.488H41.5607C43.5607 55.488 44.5607 55.096 44.5607 54.312C44.5607 54.072 44.3847 53.472 44.0327 52.512C43.6967 51.552 43.4327 50.832 43.2407 50.352L46.3127 48.672C46.6167 49.344 46.9367 50.28 47.2727 51.48C47.6087 52.664 47.7767 53.704 47.7767 54.6C47.7767 56.36 47.2407 57.704 46.1687 58.632C45.0967 59.544 43.5607 60 41.5607 60H40.2887V55.488ZM41.2967 45.528L43.8647 42.96L46.4087 45.528L43.8647 48.072L41.2967 45.528ZM49.5924 63.192C51.5124 62.776 53.0484 62.344 54.2004 61.896C55.3524 61.448 56.2004 60.928 56.7444 60.336C57.2884 59.744 57.5604 59.032 57.5604 58.2C57.5604 57.224 57.4164 56.296 57.1284 55.416C56.8564 54.536 56.4964 53.832 56.0484 53.304C55.6004 52.776 55.1364 52.512 54.6564 52.512C54.2084 52.512 53.8244 52.712 53.5044 53.112C53.2004 53.512 53.0484 53.912 53.0484 54.312C53.0484 54.488 53.0964 54.64 53.1924 54.768C53.4484 55.072 54.0244 55.272 54.9204 55.368C55.8324 55.448 57.1284 55.488 58.8084 55.488H61.4244L61.6644 57.744L61.4244 60L58.2804 60.024C56.8724 60.024 55.6804 59.968 54.7044 59.856C53.7284 59.728 52.8724 59.472 52.1364 59.088C51.4164 58.688 50.8884 58.104 50.5524 57.336C50.2644 56.712 50.1204 55.968 50.1204 55.104C50.1204 54.08 50.3364 53.064 50.7684 52.056C51.2004 51.048 51.7924 50.224 52.5444 49.584C53.2964 48.944 54.1364 48.624 55.0644 48.624C56.0564 48.624 56.9684 49.04 57.8004 49.872C58.6324 50.704 59.2884 51.816 59.7684 53.208C60.2484 54.6 60.4884 56.112 60.4884 57.744C60.4884 59.344 60.1044 60.784 59.3364 62.064C58.5844 63.344 57.4964 64.408 56.0724 65.256C54.6484 66.12 52.9604 66.728 51.0084 67.08L49.5924 63.192ZM66.1652 53.808C67.1252 54.48 68.0132 55.024 68.8292 55.44C69.6612 55.856 70.2612 56.064 70.6292 56.064C70.7412 56.064 70.8212 56.04 70.8692 55.992C71.0612 55.816 71.1572 55.536 71.1572 55.152C71.1572 54.608 70.9892 54.088 70.6532 53.592C70.3332 53.096 69.9092 52.848 69.3812 52.848C68.9972 52.848 68.5892 53.096 68.1572 53.592C67.7252 54.088 67.2212 55.056 66.6452 56.496C66.1812 57.68 65.5012 58.56 64.6052 59.136C63.7252 59.712 62.7092 60 61.5572 60H61.1012L61.1972 55.488H61.6292C62.7652 55.488 63.7652 54.728 64.6292 53.208C65.4772 51.672 66.2692 50.56 67.0052 49.872C67.7412 49.168 68.5652 48.816 69.4772 48.816C70.4052 48.816 71.2132 49.12 71.9012 49.728C72.6052 50.32 73.1412 51.096 73.5092 52.056C73.8772 53 74.0612 53.992 74.0612 55.032C74.0612 56.04 73.8852 56.968 73.5332 57.816C73.1812 58.664 72.6612 59.304 71.9732 59.736C71.5252 60.008 71.0292 60.144 70.4852 60.144C69.0132 60.144 67.0132 59.28 64.4852 57.552L66.1652 53.808ZM83.8813 67.08C82.3933 67.08 81.0573 66.808 79.8733 66.264C78.6893 65.72 77.7533 64.896 77.0653 63.792C76.3933 62.704 76.0573 61.376 76.0573 59.808C76.0573 59.616 76.0733 59.312 76.1053 58.896C76.2333 57.376 76.7933 55.52 77.7853 53.328L80.5453 54.6C80.0973 55.688 79.7773 56.536 79.5853 57.144C79.3933 57.752 79.2973 58.424 79.2973 59.16C79.2973 61.432 80.8253 62.568 83.8813 62.568C85.0653 62.568 86.1453 62.416 87.1213 62.112C88.1133 61.808 88.8413 61.44 89.3053 61.008C88.8893 60.736 88.2333 60.4 87.3373 60C86.4573 59.6 85.5533 59.248 84.6253 58.944L85.5853 54.696C87.0733 54.984 88.3373 55.184 89.3773 55.296C90.4173 55.408 91.4653 55.472 92.5213 55.488H92.7613L93.0013 57.744L92.7613 60H92.5213C91.4333 59.984 90.2653 59.888 89.0173 59.712C87.7693 59.52 86.3053 59.264 84.6253 58.944L85.5853 56.256C87.4413 56.944 89.0093 57.736 90.2893 58.632C91.5853 59.528 92.2333 60.424 92.2333 61.32C92.2333 62.168 91.8653 63.04 91.1293 63.936C90.4093 64.832 89.4093 65.576 88.1293 66.168C86.8653 66.776 85.4493 67.08 83.8813 67.08ZM92.5309 55.488H93.0589C94.1949 55.488 95.1949 54.728 96.0589 53.208C96.8749 51.736 97.6669 50.64 98.4349 49.92C99.2189 49.184 100.051 48.816 100.931 48.816C101.955 48.816 102.795 49.12 103.451 49.728C104.107 50.336 104.691 51.28 105.203 52.56C105.651 53.728 105.987 54.512 106.211 54.912C106.435 55.296 106.667 55.488 106.907 55.488H107.243L107.483 57.744L107.243 60H106.907C106.507 60 106.075 59.896 105.611 59.688C105.163 59.48 104.755 59.184 104.387 58.8C104.099 59.2 103.771 59.512 103.403 59.736C102.955 60.008 102.459 60.144 101.915 60.144C100.667 60.144 99.0349 59.52 97.0189 58.272C96.0269 59.424 94.6829 60 92.9869 60H92.5309V55.488ZM98.8909 54.696C99.6269 55.272 100.371 55.68 101.123 55.92C101.875 56.16 102.491 56.28 102.971 56.28C103.115 56.28 103.203 56.272 103.235 56.256C103.187 56.128 103.043 55.728 102.803 55.056C102.563 54.384 102.267 53.848 101.915 53.448C101.579 53.048 101.211 52.848 100.811 52.848C100.187 52.848 99.5469 53.464 98.8909 54.696ZM106.992 55.488H108.264C110.264 55.488 111.264 55.096 111.264 54.312C111.264 54.072 111.088 53.472 110.736 52.512C110.4 51.552 110.136 50.832 109.944 50.352L113.016 48.672C113.32 49.344 113.64 50.28 113.976 51.48C114.312 52.664 114.48 53.704 114.48 54.6C114.48 56.36 113.944 57.704 112.872 58.632C111.8 59.544 110.264 60 108.264 60H106.992V55.488ZM108 45.528L110.568 42.96L113.112 45.528L110.568 48.072L108 45.528ZM136.687 51.264C137.487 52.448 138.151 53.344 138.679 53.952C139.207 54.544 139.671 54.952 140.071 55.176C140.487 55.384 140.927 55.488 141.391 55.488H141.871L142.111 57.744L141.871 60H141.391C140.655 60 139.943 59.784 139.255 59.352C138.583 58.904 137.887 58.248 137.167 57.384C136.447 56.504 135.591 55.312 134.599 53.808L136.687 51.264ZM140.431 45.168L133.879 47.928C135.031 49 136.007 50.176 136.807 51.456C137.623 52.72 138.031 53.904 138.031 55.008C138.031 55.248 138.007 55.488 137.959 55.728C137.687 57.168 136.815 58.296 135.343 59.112C133.871 59.912 132.095 60.312 130.015 60.312L129.055 60.336L128.815 58.08L129.055 55.824H130.015C131.135 55.824 132.111 55.704 132.943 55.464C133.775 55.208 134.423 54.936 134.887 54.648C134.327 53.752 133.687 52.896 132.967 52.08C132.263 51.248 131.231 50.272 129.871 49.152L130.231 45.336L139.231 41.592L140.431 45.168ZM123.559 51.168C123.527 51.28 123.415 51.688 123.223 52.392C123.047 53.096 122.967 53.656 122.983 54.072C123.047 54.344 123.343 54.616 123.871 54.888C124.399 55.16 125.143 55.384 126.103 55.56C127.063 55.736 128.183 55.824 129.463 55.824C129.511 56.56 129.535 57.312 129.535 58.08C129.535 58.816 129.511 59.56 129.463 60.312C127.527 60.328 125.847 60.128 124.423 59.712C122.999 59.28 121.895 58.672 121.111 57.888C120.327 57.088 119.887 56.136 119.791 55.032C119.775 54.904 119.767 54.712 119.767 54.456C119.767 53.736 119.863 52.96 120.055 52.128C120.247 51.28 120.495 50.528 120.799 49.872L123.559 51.168ZM141.633 55.488H141.753C143.001 55.488 143.969 55.432 144.657 55.32C145.345 55.208 145.825 55.032 146.097 54.792C146.369 54.536 146.513 54.2 146.529 53.784C146.513 53.064 146.425 52.28 146.265 51.432L149.241 50.88C149.465 52.192 149.577 53.528 149.577 54.888C149.673 55.048 149.849 55.192 150.105 55.32C150.361 55.432 150.697 55.488 151.113 55.488H151.209L151.449 57.744L151.209 60H151.089C150.385 60 149.713 59.824 149.073 59.472C148.449 59.104 147.913 58.632 147.465 58.056L148.161 58.224C147.617 58.832 146.857 59.28 145.881 59.568C144.921 59.856 143.545 60 141.753 60H141.633V55.488ZM141.297 61.896L143.553 64.152L142.041 65.664L141.297 66.408L140.553 65.664L139.041 64.152L141.297 61.896ZM145.449 61.896L147.705 64.152L146.193 65.664L145.449 66.408L144.705 65.664L143.193 64.152L145.449 61.896ZM150.961 55.488H151.369C153.193 55.488 154.633 55.424 155.689 55.296C156.745 55.168 157.553 54.92 158.113 54.552C158.689 54.168 158.985 53.6 159.001 52.848C159.001 51.936 158.865 51.072 158.593 50.256C158.321 49.424 157.969 48.76 157.537 48.264C157.105 47.752 156.649 47.496 156.169 47.496C155.737 47.496 155.369 47.68 155.065 48.048C154.761 48.416 154.609 48.784 154.609 49.152C154.609 49.36 154.657 49.512 154.753 49.608C154.977 49.848 155.409 50.048 156.049 50.208C156.689 50.368 157.401 50.448 158.185 50.448C158.649 50.448 159.185 50.408 159.793 50.328V54.288C158.881 54.496 158.049 54.6 157.297 54.6C156.097 54.6 155.033 54.384 154.105 53.952C153.177 53.504 152.521 52.864 152.137 52.032C151.865 51.44 151.729 50.744 151.729 49.944C151.729 48.984 151.937 48.032 152.353 47.088C152.769 46.128 153.345 45.344 154.081 44.736C154.833 44.128 155.657 43.824 156.553 43.824C157.513 43.824 158.401 44.216 159.217 45C160.033 45.784 160.673 46.832 161.137 48.144C161.617 49.456 161.857 50.88 161.857 52.416C161.857 54.816 161.001 56.68 159.289 58.008C157.593 59.336 154.937 60 151.321 60H150.961V55.488ZM153.361 39.984L155.929 37.416L158.473 39.984L155.929 42.528L153.361 39.984ZM164.071 59.856C164.263 58.656 164.359 56.96 164.359 54.768C164.359 52.576 164.271 50.256 164.095 47.808C163.935 45.36 163.751 43.544 163.543 42.36L167.263 41.52C167.423 42.624 167.567 44.304 167.695 46.56C167.823 48.8 167.887 51.016 167.887 53.208C167.887 56.232 167.759 58.568 167.503 60.216L164.071 59.856ZM176.656 60C175.488 60 174.52 59.568 173.752 58.704C173 57.824 172.376 56.608 171.88 55.056L174.592 53.4C174.8 54.168 175.056 54.712 175.36 55.032C175.664 55.336 176.096 55.488 176.656 55.488H176.92L177.16 57.744L176.92 60H176.656ZM166.456 63.312C167.528 62.832 168.512 62.304 169.408 61.728C170.32 61.168 171.04 60.64 171.568 60.144C172.112 59.648 172.384 59.256 172.384 58.968C172.384 58.328 171.888 56.424 170.896 53.256L174.136 51.96C174.536 53.064 174.848 54.24 175.072 55.488C175.296 56.72 175.408 57.88 175.408 58.968C175.408 60.632 174.784 62.152 173.536 63.528C172.288 64.904 170.56 66.088 168.352 67.08L166.456 63.312ZM176.648 55.488H177.944C179.432 55.488 180.488 55.368 181.112 55.128C181.752 54.888 182.072 54.552 182.072 54.12C182.072 53.72 181.632 52.464 180.752 50.352L183.8 48.672C184.12 49.344 184.44 50.248 184.76 51.384C185.096 52.504 185.264 53.512 185.264 54.408C185.264 56.2 184.704 57.584 183.584 58.56C182.464 59.52 180.824 60 178.664 60H176.648V55.488ZM178.88 43.584L181.136 45.84L179.624 47.352L178.88 48.096L178.136 47.352L176.624 45.84L178.88 43.584ZM183.032 43.584L185.288 45.84L183.776 47.352L183.032 48.096L182.288 47.352L180.776 45.84L183.032 43.584ZM195.108 53.376C194.644 54.464 194.316 55.312 194.124 55.92C193.932 56.528 193.836 57.2 193.836 57.936C193.836 59.12 194.228 59.984 195.012 60.528C195.796 61.088 196.94 61.368 198.444 61.368C199.564 61.368 200.62 61.224 201.612 60.936C202.62 60.648 203.38 60.224 203.892 59.664C202.804 59.472 201.892 59.272 201.156 59.064C199.876 58.68 198.964 58.208 198.42 57.648C197.876 57.072 197.604 56.248 197.604 55.176C197.604 53.8 197.948 52.48 198.636 51.216C199.324 49.952 200.236 48.928 201.372 48.144C202.508 47.36 203.7 46.968 204.948 46.968C205.46 46.968 205.988 47.048 206.532 47.208C207.076 47.368 207.428 47.552 207.588 47.76L206.34 51.672C205.876 51.544 205.452 51.48 205.068 51.48C204.156 51.432 203.292 51.64 202.476 52.104C201.676 52.552 201.14 53.152 200.868 53.904C200.852 53.952 200.844 54.016 200.844 54.096C200.844 54.336 201.044 54.552 201.444 54.744C201.844 54.92 202.564 55.112 203.604 55.32C205.108 55.624 206.116 56.072 206.628 56.664C207.14 57.256 207.396 57.936 207.396 58.704C207.396 59.984 206.996 61.168 206.196 62.256C205.396 63.36 204.308 64.24 202.932 64.896C201.556 65.552 200.06 65.88 198.444 65.88C196.956 65.88 195.62 65.6 194.436 65.04C193.252 64.496 192.316 63.672 191.628 62.568C190.956 61.48 190.62 60.144 190.62 58.56C190.62 58.176 190.628 57.888 190.644 57.696C190.772 56.176 191.332 54.32 192.324 52.128L195.108 53.376ZM209.483 63.192C211.403 62.776 212.939 62.344 214.091 61.896C215.243 61.448 216.091 60.928 216.635 60.336C217.179 59.744 217.451 59.032 217.451 58.2C217.451 57.224 217.307 56.296 217.019 55.416C216.747 54.536 216.387 53.832 215.939 53.304C215.491 52.776 215.027 52.512 214.547 52.512C214.099 52.512 213.715 52.712 213.395 53.112C213.091 53.512 212.939 53.912 212.939 54.312C212.939 54.488 212.987 54.64 213.083 54.768C213.339 55.072 213.915 55.272 214.811 55.368C215.723 55.448 217.019 55.488 218.699 55.488H221.315L221.555 57.744L221.315 60L218.171 60.024C216.763 60.024 215.571 59.968 214.595 59.856C213.619 59.728 212.763 59.472 212.027 59.088C211.307 58.688 210.779 58.104 210.443 57.336C210.155 56.712 210.011 55.968 210.011 55.104C210.011 54.08 210.227 53.064 210.659 52.056C211.091 51.048 211.683 50.224 212.435 49.584C213.187 48.944 214.027 48.624 214.955 48.624C215.947 48.624 216.859 49.04 217.691 49.872C218.523 50.704 219.179 51.816 219.659 53.208C220.139 54.6 220.379 56.112 220.379 57.744C220.379 59.344 219.995 60.784 219.227 62.064C218.475 63.344 217.387 64.408 215.963 65.256C214.539 66.12 212.851 66.728 210.899 67.08L209.483 63.192ZM220.968 55.488H222.264C223.752 55.488 224.808 55.368 225.432 55.128C226.072 54.888 226.392 54.552 226.392 54.12C226.392 53.72 225.952 52.464 225.072 50.352L228.12 48.672C228.44 49.344 228.76 50.248 229.08 51.384C229.416 52.504 229.584 53.512 229.584 54.408C229.584 56.2 229.024 57.584 227.904 58.56C226.784 59.52 225.144 60 222.984 60H220.968V55.488ZM223.2 43.584L225.456 45.84L223.944 47.352L223.2 48.096L222.456 47.352L220.944 45.84L223.2 43.584ZM227.352 43.584L229.608 45.84L228.096 47.352L227.352 48.096L226.608 47.352L225.096 45.84L227.352 43.584ZM243.796 45.936C243.876 46.48 243.972 47.32 244.084 48.456C244.452 51.4 244.636 52.872 244.636 52.872C244.748 53.672 244.868 54.248 244.996 54.6C245.124 54.952 245.3 55.192 245.524 55.32C245.748 55.432 246.1 55.488 246.58 55.488H247.084L247.324 57.744L247.084 60H246.58C245.556 60 244.7 59.784 244.012 59.352C243.324 58.92 242.764 58.232 242.332 57.288C241.916 56.328 241.604 55.056 241.396 53.472C241.38 53.36 241.356 53.232 241.324 53.088C241.308 52.928 241.284 52.752 241.252 52.56C240.724 48.768 240.452 46.8 240.436 46.656L243.796 45.936ZM243.268 58.344C242.212 58.696 241.164 58.872 240.124 58.872C238.62 58.872 237.38 58.504 236.404 57.768C235.428 57.016 234.94 55.984 234.94 54.672C234.94 54.416 234.964 54.144 235.012 53.856C235.236 52.432 235.924 51.24 237.076 50.28C238.228 49.32 239.7 48.48 241.492 47.76L242.308 51.648C241.348 51.824 240.412 52.144 239.5 52.608C238.588 53.056 238.132 53.472 238.132 53.856C238.132 54.096 238.308 54.312 238.66 54.504C239.012 54.68 239.46 54.768 240.004 54.768C240.788 54.768 241.604 54.584 242.452 54.216L243.268 58.344ZM246.797 55.488H247.325C248.461 55.488 249.461 54.728 250.325 53.208C251.141 51.736 251.933 50.64 252.701 49.92C253.485 49.184 254.317 48.816 255.197 48.816C256.221 48.816 257.061 49.12 257.717 49.728C258.373 50.336 258.957 51.28 259.469 52.56C259.917 53.728 260.253 54.512 260.477 54.912C260.701 55.296 260.933 55.488 261.173 55.488H261.509L261.749 57.744L261.509 60H261.173C260.773 60 260.341 59.896 259.877 59.688C259.429 59.48 259.021 59.184 258.653 58.8C258.365 59.2 258.037 59.512 257.669 59.736C257.221 60.008 256.725 60.144 256.181 60.144C254.933 60.144 253.301 59.52 251.285 58.272C250.293 59.424 248.949 60 247.253 60H246.797V55.488ZM253.157 54.696C253.893 55.272 254.637 55.68 255.389 55.92C256.141 56.16 256.757 56.28 257.237 56.28C257.381 56.28 257.469 56.272 257.501 56.256C257.453 56.128 257.309 55.728 257.069 55.056C256.829 54.384 256.533 53.848 256.181 53.448C255.845 53.048 255.477 52.848 255.077 52.848C254.453 52.848 253.813 53.464 253.157 54.696ZM261.281 55.488H261.665C264.257 55.488 266.161 55.344 267.377 55.056C268.593 54.752 269.257 54.272 269.369 53.616C269.433 53.2 269.289 52.8 268.937 52.416C268.585 52.032 268.161 51.784 267.665 51.672C267.601 51.656 267.497 51.648 267.353 51.648C266.905 51.648 266.497 51.792 266.129 52.08C265.777 52.368 265.585 52.744 265.553 53.208C265.521 53.704 265.873 54.168 266.609 54.6C267.361 55.016 268.281 55.352 269.369 55.608C270.457 55.864 271.441 55.992 272.321 55.992C273.377 55.992 273.977 55.808 274.121 55.44C274.169 55.312 274.193 55.2 274.193 55.104C274.193 54.576 273.689 54.048 272.681 53.52C271.689 52.992 270.417 52.488 268.865 52.008C267.329 51.528 265.225 50.928 262.553 50.208L264.233 46.032C267.577 46.976 270.201 47.896 272.105 48.792C274.025 49.672 275.377 50.568 276.161 51.48C276.961 52.392 277.361 53.416 277.361 54.552C277.361 55.288 277.193 56.184 276.857 57.24C276.569 58.12 275.969 58.776 275.057 59.208C274.145 59.64 273.057 59.856 271.793 59.856C270.353 59.856 268.897 59.6 267.425 59.088C265.969 58.56 264.761 57.832 263.801 56.904C262.857 55.976 262.385 54.936 262.385 53.784C262.385 53.384 262.441 53.008 262.553 52.656C263.065 50.912 263.785 49.568 264.713 48.624C265.657 47.664 266.737 47.248 267.953 47.376C268.705 47.44 269.385 47.752 269.993 48.312C270.617 48.872 271.105 49.584 271.457 50.448C271.809 51.296 271.985 52.176 271.985 53.088C271.985 53.424 271.961 53.76 271.913 54.096C271.673 55.616 271.169 56.808 270.401 57.672C269.633 58.52 268.553 59.12 267.161 59.472C265.769 59.824 263.937 60 261.665 60H261.281V55.488ZM294.265 53.376C294.569 54.192 294.857 54.752 295.129 55.056C295.417 55.344 295.841 55.488 296.401 55.488H296.593L296.833 57.744L296.593 60H296.401C295.217 60 294.273 59.568 293.569 58.704C292.865 57.824 292.249 56.576 291.721 54.96L294.265 53.376ZM283.561 54.6C283.113 55.672 282.793 56.52 282.601 57.144C282.409 57.768 282.313 58.448 282.313 59.184C282.313 61.456 283.841 62.592 286.897 62.592C287.921 62.592 288.833 62.424 289.633 62.088C290.449 61.768 291.089 61.328 291.553 60.768C292.017 60.208 292.249 59.6 292.249 58.944C292.249 58.224 291.689 56.352 290.569 53.328L293.641 51.624C294.169 52.888 294.569 54.16 294.841 55.44C295.129 56.704 295.273 57.872 295.273 58.944C295.273 60.48 294.905 61.872 294.169 63.12C293.449 64.368 292.449 65.344 291.169 66.048C289.905 66.752 288.481 67.104 286.897 67.104C285.409 67.104 284.073 66.824 282.889 66.264C281.705 65.72 280.769 64.896 280.081 63.792C279.409 62.704 279.073 61.376 279.073 59.808C279.073 59.424 279.081 59.136 279.097 58.944C279.225 57.408 279.793 55.544 280.801 53.352L283.561 54.6ZM284.809 51.48L287.377 48.912L289.921 51.48L287.377 54.024L284.809 51.48ZM297.519 55.488H298.815C300.303 55.488 301.359 55.368 301.983 55.128C302.623 54.888 302.943 54.552 302.943 54.12C302.943 53.72 302.503 52.464 301.623 50.352L304.671 48.672C304.991 49.344 305.311 50.248 305.631 51.384C305.967 52.504 306.135 53.512 306.135 54.408C306.135 56.2 305.575 57.584 304.455 58.56C303.335 59.52 301.695 60 299.535 60H297.519V55.488ZM298.575 61.896L300.831 64.152L299.319 65.664L298.575 66.408L297.831 65.664L296.319 64.152L298.575 61.896ZM302.727 61.896L304.983 64.152L303.471 65.664L302.727 66.408L301.983 65.664L300.471 64.152L302.727 61.896ZM296.367 60L296.127 57.744L296.367 55.488H297.903V60H296.367ZM308.399 59.856C308.591 58.656 308.687 56.96 308.687 54.768C308.687 52.576 308.599 50.256 308.423 47.808C308.263 45.36 308.079 43.544 307.871 42.36L311.591 41.52C311.751 42.624 311.895 44.304 312.023 46.56C312.151 48.8 312.215 51.016 312.215 53.208C312.215 56.232 312.087 58.568 311.831 60.216L308.399 59.856Z" fill="#FF600A"/>
</svg>
