<svg width="266" height="26" viewBox="0 0 266 26" fill="none" xmlns="http://www.w3.org/2000/svg">
<path d="M3.17506 18.154C2.48573 18.154 1.91373 17.9267 1.45906 17.472C1.01906 17.0027 0.799063 16.416 0.799063 15.712C0.799063 15.052 1.01906 14.502 1.45906 14.062C1.91373 13.6073 2.48573 13.38 3.17506 13.38C3.84973 13.38 4.4144 13.6073 4.86906 14.062C5.3384 14.502 5.57306 15.052 5.57306 15.712C5.57306 16.4013 5.3384 16.9807 4.86906 17.45C4.4144 17.9193 3.84973 18.154 3.17506 18.154ZM11.468 18.154C10.7787 18.154 10.2067 17.9267 9.75203 17.472C9.31203 17.0027 9.09203 16.416 9.09203 15.712C9.09203 15.052 9.31203 14.502 9.75203 14.062C10.2067 13.6073 10.7787 13.38 11.468 13.38C12.1427 13.38 12.7074 13.6073 13.162 14.062C13.6314 14.502 13.866 15.052 13.866 15.712C13.866 16.4013 13.6314 16.9807 13.162 17.45C12.7074 17.9193 12.1427 18.154 11.468 18.154ZM19.761 18.154C19.0717 18.154 18.4997 17.9267 18.045 17.472C17.605 17.0027 17.385 16.416 17.385 15.712C17.385 15.052 17.605 14.502 18.045 14.062C18.4997 13.6073 19.0717 13.38 19.761 13.38C20.4357 13.38 21.0003 13.6073 21.455 14.062C21.9243 14.502 22.159 15.052 22.159 15.712C22.159 16.4013 21.9243 16.9807 21.455 17.45C21.0003 17.9193 20.4357 18.154 19.761 18.154ZM33.488 18.286C33.4586 17.3767 33.444 16.6873 33.444 16.218C33.444 15.7633 33.4586 15.0813 33.488 14.172C35.4973 14.172 37.008 14.0693 38.02 13.864C39.032 13.6587 39.7873 13.314 40.286 12.83C40.7993 12.346 41.254 11.598 41.65 10.586L44.356 10.872C44.0626 11.708 43.916 12.3607 43.916 12.83C43.916 13.2113 44.0113 13.4827 44.202 13.644C44.4073 13.7907 44.7006 13.864 45.082 13.864L45.302 15.932L45.082 18C44.51 18 43.96 17.868 43.432 17.604C42.904 17.34 42.486 16.9807 42.178 16.526C41.87 16.0567 41.7233 15.5433 41.738 14.986L42.156 15.118C41.4813 15.9687 40.726 16.6287 39.89 17.098C39.0686 17.5527 38.1446 17.8607 37.118 18.022C36.106 18.198 34.896 18.286 33.488 18.286ZM28.274 9.904C28.2446 10.0067 28.142 10.3807 27.966 11.026C27.8046 11.6713 27.7313 12.1847 27.746 12.566C27.8046 12.8153 28.076 13.0647 28.56 13.314C29.044 13.5633 29.726 13.7687 30.606 13.93C31.486 14.0913 32.5126 14.172 33.686 14.172C33.73 14.8467 33.752 15.536 33.752 16.24C33.752 16.9147 33.73 17.5967 33.686 18.286C31.9113 18.3007 30.3713 18.1173 29.066 17.736C27.7606 17.34 26.7486 16.7827 26.03 16.064C25.3113 15.3307 24.908 14.458 24.82 13.446C24.8053 13.3287 24.798 13.1527 24.798 12.918C24.798 12.258 24.886 11.5467 25.062 10.784C25.238 10.0067 25.4653 9.31733 25.744 8.716L28.274 9.904ZM32.586 5.966L34.654 8.034L33.268 9.42L32.586 10.102L31.904 9.42L30.518 8.034L32.586 5.966ZM36.392 5.966L38.46 8.034L37.074 9.42L36.392 10.102L35.71 9.42L34.324 8.034L36.392 5.966ZM55.2907 4.404L49.2847 6.934C50.062 7.65267 50.8907 8.59133 51.7707 9.75C52.6507 10.9087 53.0907 12.126 53.0907 13.402C53.0907 13.6367 53.0687 13.864 53.0247 14.084C52.7753 15.3893 51.9833 16.372 50.6487 17.032C49.3287 17.6773 47.6933 18 45.7427 18H44.8627V13.864H45.7427C46.8133 13.864 47.7447 13.7907 48.5367 13.644C49.3287 13.4827 49.886 13.2993 50.2087 13.094C49.6953 12.2727 49.1087 11.488 48.4487 10.74C47.8033 9.97733 46.8573 9.08267 45.6107 8.056L45.9407 4.558L54.1907 1.126L55.2907 4.404ZM51.9766 21.036C52.9592 20.596 53.8612 20.112 54.6826 19.584C55.5186 19.0707 56.1786 18.5867 56.6626 18.132C57.1612 17.6773 57.4106 17.318 57.4106 17.054C57.4106 16.4673 56.9559 14.722 56.0466 11.818L59.0166 10.63C59.3832 11.642 59.6692 12.72 59.8746 13.864C60.0799 14.9933 60.1826 16.0567 60.1826 17.054C60.1826 18.5793 59.6106 19.9727 58.4666 21.234C57.3226 22.4953 55.7386 23.5807 53.7146 24.49L51.9766 21.036ZM65.1119 1.06C65.3026 2.43867 65.4419 4.118 65.5299 6.098C65.6326 8.078 65.6839 9.94067 65.6839 11.686C65.6839 12.2727 65.7279 12.72 65.8159 13.028C65.9186 13.336 66.0873 13.556 66.3219 13.688C66.5566 13.8053 66.8939 13.864 67.3339 13.864H67.4439L67.6639 15.932L67.4439 18H67.3339C64.1219 18 62.4939 16.0273 62.4499 12.082C62.3766 8.01933 62.1419 4.602 61.7459 1.83L65.1119 1.06ZM71.8699 12.324C72.7499 12.94 73.5639 13.4387 74.3119 13.82C75.0746 14.2013 75.6246 14.392 75.9619 14.392C76.0646 14.392 76.1379 14.37 76.1819 14.326C76.3579 14.1647 76.4459 13.908 76.4459 13.556C76.4459 13.0573 76.2919 12.5807 75.9839 12.126C75.6906 11.6713 75.3019 11.444 74.8179 11.444C74.4659 11.444 74.0919 11.6713 73.6959 12.126C73.2999 12.5807 72.8379 13.468 72.3099 14.788C71.8846 15.8733 71.2612 16.68 70.4399 17.208C69.6332 17.736 68.7019 18 67.6459 18H67.2279L67.3159 13.864H67.7119C68.7532 13.864 69.6699 13.1673 70.4619 11.774C71.2392 10.366 71.9652 9.34667 72.6399 8.716C73.3146 8.07067 74.0699 7.748 74.9059 7.748C75.7566 7.748 76.4972 8.02667 77.1279 8.584C77.7732 9.12667 78.2646 9.838 78.6019 10.718C78.9392 11.5833 79.1079 12.4927 79.1079 13.446C79.1079 14.37 78.9466 15.2207 78.6239 15.998C78.3012 16.7753 77.8246 17.362 77.1939 17.758C76.7832 18.0073 76.3286 18.132 75.8299 18.132C74.4806 18.132 72.6472 17.34 70.3299 15.756L71.8699 12.324ZM87.1723 18C86.1016 18 85.2143 17.604 84.5103 16.812C83.8209 16.0053 83.2489 14.8907 82.7943 13.468L85.2803 11.95C85.4709 12.654 85.7056 13.1527 85.9843 13.446C86.2629 13.7247 86.6589 13.864 87.1723 13.864H87.4143L87.6343 15.932L87.4143 18H87.1723ZM77.8223 21.036C78.8049 20.596 79.7069 20.112 80.5283 19.584C81.3643 19.0707 82.0243 18.5867 82.5083 18.132C83.0069 17.6773 83.2563 17.318 83.2563 17.054C83.2563 16.4673 82.8016 14.722 81.8923 11.818L84.8623 10.63C85.2289 11.642 85.5149 12.72 85.7203 13.864C85.9256 14.9933 86.0283 16.0567 86.0283 17.054C86.0283 18.5793 85.4563 19.9727 84.3123 21.234C83.1683 22.4953 81.5843 23.5807 79.5603 24.49L77.8223 21.036ZM88.4409 13.864H89.6289C90.9929 13.864 91.9609 13.754 92.5329 13.534C93.1195 13.314 93.4129 13.006 93.4129 12.61C93.4129 12.2433 93.0095 11.092 92.2029 9.156L94.9969 7.616C95.2902 8.232 95.5835 9.06067 95.8769 10.102C96.1849 11.1287 96.3389 12.0527 96.3389 12.874C96.3389 14.5167 95.8255 15.7853 94.7989 16.68C93.7722 17.56 92.2689 18 90.2889 18H88.4409V13.864ZM93.5449 19.518L95.4809 21.454L93.5449 23.412L91.5869 21.454L93.5449 19.518ZM89.2989 19.518L91.2349 21.454L89.2989 23.412L87.3409 21.454L89.2989 19.518ZM91.4109 22.532L93.1269 24.226L91.4109 25.92L90.2889 24.798L89.7169 24.226L91.4109 22.532ZM87.1869 18L86.9669 15.932L87.1869 13.864H88.5949V18H87.1869ZM98.0356 20.926C99.7956 20.5447 101.204 20.1487 102.26 19.738C103.316 19.3273 104.093 18.8507 104.592 18.308C105.09 17.7653 105.34 17.1127 105.34 16.35C105.34 15.4553 105.208 14.6047 104.944 13.798C104.694 12.9913 104.364 12.346 103.954 11.862C103.543 11.378 103.118 11.136 102.678 11.136C102.267 11.136 101.915 11.3193 101.622 11.686C101.343 12.0527 101.204 12.4193 101.204 12.786C101.204 12.9473 101.248 13.0867 101.336 13.204C101.57 13.4827 102.098 13.666 102.92 13.754C103.756 13.8273 104.944 13.864 106.484 13.864H108.882L109.102 15.932L108.882 18L106 18.022C104.709 18.022 103.616 17.9707 102.722 17.868C101.827 17.7507 101.042 17.516 100.368 17.164C99.7076 16.7973 99.2236 16.262 98.9156 15.558C98.6516 14.986 98.5196 14.304 98.5196 13.512C98.5196 12.5733 98.7176 11.642 99.1136 10.718C99.5096 9.794 100.052 9.03867 100.742 8.452C101.431 7.86533 102.201 7.572 103.052 7.572C103.961 7.572 104.797 7.95333 105.56 8.716C106.322 9.47867 106.924 10.498 107.364 11.774C107.804 13.05 108.024 14.436 108.024 15.932C108.024 17.3987 107.672 18.7187 106.968 19.892C106.278 21.0653 105.281 22.0407 103.976 22.818C102.67 23.61 101.123 24.1673 99.3336 24.49L98.0356 20.926ZM120.905 13.864C121.243 13.864 121.529 13.7613 121.763 13.556C121.998 13.3507 122.115 13.116 122.115 12.852C122.115 12.3533 121.712 11.1213 120.905 9.156L123.611 7.66C123.89 8.232 124.183 9.068 124.491 10.168C124.814 11.268 124.975 12.2287 124.975 13.05C124.975 13.9447 124.799 14.7733 124.447 15.536C124.11 16.284 123.633 16.8853 123.017 17.34C122.401 17.78 121.697 18 120.905 18H120.839V13.864H120.905ZM114.943 18V13.864H115.075C115.765 13.864 116.263 13.534 116.571 12.874C116.85 12.2873 117.092 11.4953 117.297 10.498L120.003 10.608C119.959 10.8573 119.908 11.1947 119.849 11.62C119.805 12.0307 119.783 12.3533 119.783 12.588C119.783 12.9693 119.871 13.2773 120.047 13.512C120.238 13.7467 120.517 13.864 120.883 13.864H120.949L121.169 15.932L120.949 18H120.883C120.135 18 119.475 17.8167 118.903 17.45C118.346 17.0687 117.913 16.5333 117.605 15.844L118.309 15.8C117.796 16.5627 117.283 17.12 116.769 17.472C116.271 17.824 115.684 18 115.009 18H114.943ZM108.651 18L108.431 15.932L108.651 13.864H108.761C109.157 13.864 109.561 13.7833 109.971 13.622C110.382 13.4607 110.683 13.27 110.873 13.05C111.372 12.522 111.761 11.7007 112.039 10.586L114.745 10.872C114.716 10.9747 114.635 11.2827 114.503 11.796C114.371 12.3093 114.305 12.72 114.305 13.028C114.305 13.5853 114.54 13.864 115.009 13.864H115.075L115.295 15.932L115.075 18H114.921C114.335 18 113.792 17.8607 113.293 17.582C112.809 17.2887 112.443 16.9 112.193 16.416C111.709 16.9293 111.167 17.3253 110.565 17.604C109.979 17.868 109.363 18 108.717 18H108.651ZM128.891 21.036C129.873 20.596 130.775 20.112 131.597 19.584C132.433 19.0707 133.093 18.5867 133.577 18.132C134.075 17.6773 134.325 17.318 134.325 17.054C134.325 16.4673 133.87 14.722 132.961 11.818L135.931 10.63C136.297 11.642 136.583 12.72 136.789 13.864C136.994 14.9933 137.097 16.0567 137.097 17.054C137.097 18.5793 136.525 19.9727 135.381 21.234C134.237 22.4953 132.653 23.5807 130.629 24.49L128.891 21.036ZM131.685 6.406L134.039 4.052L136.371 6.406L134.039 8.738L131.685 6.406ZM139.144 17.868C139.32 16.768 139.408 15.2133 139.408 13.204C139.408 11.1947 139.327 9.068 139.166 6.824C139.019 4.58 138.851 2.91533 138.66 1.83L142.07 1.06C142.217 2.072 142.349 3.612 142.466 5.68C142.583 7.73333 142.642 9.76467 142.642 11.774C142.642 14.546 142.525 16.6873 142.29 18.198L139.144 17.868ZM151.632 11.928C151.206 12.9253 150.906 13.7027 150.73 14.26C150.554 14.8173 150.466 15.4333 150.466 16.108C150.466 17.1933 150.825 17.9853 151.544 18.484C152.262 18.9973 153.311 19.254 154.69 19.254C155.716 19.254 156.684 19.122 157.594 18.858C158.518 18.594 159.214 18.2053 159.684 17.692C158.686 17.516 157.85 17.3327 157.176 17.142C156.002 16.79 155.166 16.3573 154.668 15.844C154.169 15.316 153.92 14.5607 153.92 13.578C153.92 12.3167 154.235 11.1067 154.866 9.948C155.496 8.78933 156.332 7.85067 157.374 7.132C158.415 6.41333 159.508 6.054 160.652 6.054C161.121 6.054 161.605 6.12733 162.104 6.274C162.602 6.42067 162.925 6.58933 163.072 6.78L161.928 10.366C161.502 10.2487 161.114 10.19 160.762 10.19C159.926 10.146 159.134 10.3367 158.386 10.762C157.652 11.1727 157.161 11.7227 156.912 12.412C156.897 12.456 156.89 12.5147 156.89 12.588C156.89 12.808 157.073 13.006 157.44 13.182C157.806 13.3433 158.466 13.5193 159.42 13.71C160.798 13.9887 161.722 14.3993 162.192 14.942C162.661 15.4847 162.896 16.108 162.896 16.812C162.896 17.9853 162.529 19.0707 161.796 20.068C161.062 21.08 160.065 21.8867 158.804 22.488C157.542 23.0893 156.171 23.39 154.69 23.39C153.326 23.39 152.101 23.1333 151.016 22.62C149.93 22.1213 149.072 21.366 148.442 20.354C147.826 19.3567 147.518 18.132 147.518 16.68C147.518 16.328 147.525 16.064 147.54 15.888C147.657 14.4947 148.17 12.7933 149.08 10.784L151.632 11.928ZM163.609 21.036C164.592 20.596 165.494 20.112 166.315 19.584C167.151 19.0707 167.811 18.5867 168.295 18.132C168.794 17.6773 169.043 17.318 169.043 17.054C169.043 16.4673 168.589 14.722 167.679 11.818L170.649 10.63C171.016 11.642 171.302 12.72 171.507 13.864C171.713 14.9933 171.815 16.0567 171.815 17.054C171.815 18.5793 171.243 19.9727 170.099 21.234C168.955 22.4953 167.371 23.5807 165.347 24.49L163.609 21.036ZM173.489 20.926C175.249 20.5447 176.657 20.1487 177.713 19.738C178.769 19.3273 179.546 18.8507 180.045 18.308C180.543 17.7653 180.793 17.1127 180.793 16.35C180.793 15.4553 180.661 14.6047 180.397 13.798C180.147 12.9913 179.817 12.346 179.407 11.862C178.996 11.378 178.571 11.136 178.131 11.136C177.72 11.136 177.368 11.3193 177.075 11.686C176.796 12.0527 176.657 12.4193 176.657 12.786C176.657 12.9473 176.701 13.0867 176.789 13.204C177.023 13.4827 177.551 13.666 178.373 13.754C179.209 13.8273 180.397 13.864 181.937 13.864H184.335L184.555 15.932L184.335 18L181.453 18.022C180.162 18.022 179.069 17.9707 178.175 17.868C177.28 17.7507 176.495 17.516 175.821 17.164C175.161 16.7973 174.677 16.262 174.369 15.558C174.105 14.986 173.973 14.304 173.973 13.512C173.973 12.5733 174.171 11.642 174.567 10.718C174.963 9.794 175.505 9.03867 176.195 8.452C176.884 7.86533 177.654 7.572 178.505 7.572C179.414 7.572 180.25 7.95333 181.013 8.716C181.775 9.47867 182.377 10.498 182.817 11.774C183.257 13.05 183.477 14.436 183.477 15.932C183.477 17.3987 183.125 18.7187 182.421 19.892C181.731 21.0653 180.734 22.0407 179.429 22.818C178.123 23.61 176.576 24.1673 174.787 24.49L173.489 20.926ZM203.596 13.864L203.816 15.932L203.596 18H203.486C202.034 18 200.934 17.9853 200.186 17.956C199.438 17.912 198.778 17.8093 198.206 17.648C197.634 17.4867 197.15 17.23 196.754 16.878L199.306 13.864H203.486H203.596ZM184.016 13.864H184.324C184.97 13.864 185.49 13.7247 185.886 13.446C186.282 13.1527 186.59 12.7053 186.81 12.104C187.03 11.5027 187.221 10.6887 187.382 9.662L190.11 10.234C190.008 10.9527 189.956 11.488 189.956 11.84C189.956 12.456 190.066 12.9547 190.286 13.336C190.506 13.7173 190.88 14.0033 191.408 14.194C191.951 14.37 192.706 14.458 193.674 14.458C194.877 14.458 195.955 14.326 196.908 14.062C197.876 13.798 198.632 13.4753 199.174 13.094C199.717 12.698 200.003 12.3313 200.032 11.994C200.047 11.7887 199.915 11.598 199.636 11.422C199.372 11.2313 199.006 11.136 198.536 11.136C197.363 11.136 196.153 11.6273 194.906 12.61C193.66 13.578 192.56 14.942 191.606 16.702L189.582 15.03C190.726 12.61 192.054 10.7107 193.564 9.332C195.09 7.95333 196.622 7.264 198.162 7.264C199.057 7.264 199.849 7.462 200.538 7.858C201.242 8.23933 201.792 8.782 202.188 9.486C202.584 10.1753 202.782 10.9527 202.782 11.818C202.782 13.182 202.401 14.37 201.638 15.382C200.876 16.3793 199.812 17.142 198.448 17.67C197.084 18.198 195.522 18.462 193.762 18.462C192.501 18.462 191.416 18.2567 190.506 17.846C189.597 17.4207 188.871 16.812 188.328 16.02C187.375 17.34 186.04 18 184.324 18H184.016V13.864ZM194.862 3.216L197.216 0.861999L199.548 3.216L197.216 5.548L194.862 3.216ZM203.352 13.864H204.738C206.44 13.864 208.009 13.6953 209.446 13.358C210.898 13.0207 212.534 12.3753 214.352 11.422C215.746 10.674 216.633 10.2487 217.014 10.146L217.124 13.446C216.406 13.2993 215.694 13.094 214.99 12.83C214.301 12.566 213.414 12.1627 212.328 11.62C211.786 11.3413 211.214 11.1213 210.612 10.96C210.026 10.7987 209.505 10.718 209.05 10.718C208.185 10.718 207.43 11.1287 206.784 11.95L204.518 10.256C205.706 7.89467 207.254 6.714 209.16 6.714C209.791 6.714 210.4 6.81667 210.986 7.022C211.573 7.21267 212.438 7.60867 213.582 8.21C214.418 8.63533 215.122 8.958 215.694 9.178C216.281 9.38333 216.934 9.55933 217.652 9.706L217.784 13.446C217.491 13.534 216.787 13.8787 215.672 14.48C215.57 14.5387 215.232 14.722 214.66 15.03C213.076 15.866 211.742 16.4893 210.656 16.9C209.586 17.3107 208.53 17.5967 207.488 17.758C206.447 17.9047 205.164 17.9853 203.638 18H203.352V13.864ZM229.342 5.482L232.356 12.61C232.561 13.1087 232.788 13.446 233.038 13.622C233.302 13.7833 233.705 13.864 234.248 13.864H234.534L234.754 15.932L234.534 18H234.248C233.206 18 232.348 17.6993 231.674 17.098C230.999 16.482 230.376 15.5213 229.804 14.216L226.614 6.956L229.342 5.482ZM223.358 13.38C223.812 13.6 224.311 13.798 224.854 13.974C225.411 14.1353 226.086 14.216 226.878 14.216C227.567 14.216 228.154 14.1427 228.638 13.996C229.122 13.8347 229.496 13.6587 229.76 13.468C230.024 13.2773 230.192 13.1087 230.266 12.962L232.114 15.338C231.82 15.9247 231.292 16.5407 230.53 17.186C229.782 17.8167 228.704 18.132 227.296 18.132C225.477 18.132 223.695 17.5087 221.95 16.262L223.358 13.38ZM234.268 13.864H235.456C236.82 13.864 237.788 13.754 238.36 13.534C238.947 13.314 239.24 13.006 239.24 12.61C239.24 12.2433 238.837 11.092 238.03 9.156L240.824 7.616C241.118 8.232 241.411 9.06067 241.704 10.102C242.012 11.1287 242.166 12.0527 242.166 12.874C242.166 14.5167 241.653 15.7853 240.626 16.68C239.6 17.56 238.096 18 236.116 18H234.268V13.864ZM234.532 19.738L236.6 21.806L235.214 23.192L234.532 23.874L233.85 23.192L232.464 21.806L234.532 19.738ZM238.338 19.738L240.406 21.806L239.02 23.192L238.338 23.874L237.656 23.192L236.27 21.806L238.338 19.738ZM250.883 18C249.813 18 248.925 17.604 248.221 16.812C247.532 16.0053 246.96 14.8907 246.505 13.468L248.991 11.95C249.182 12.654 249.417 13.1527 249.695 13.446C249.974 13.7247 250.37 13.864 250.883 13.864H251.125L251.345 15.932L251.125 18H250.883ZM241.533 21.036C242.516 20.596 243.418 20.112 244.239 19.584C245.075 19.0707 245.735 18.5867 246.219 18.132C246.718 17.6773 246.967 17.318 246.967 17.054C246.967 16.4673 246.513 14.722 245.603 11.818L248.573 10.63C248.94 11.642 249.226 12.72 249.431 13.864C249.637 14.9933 249.739 16.0567 249.739 17.054C249.739 18.5793 249.167 19.9727 248.023 21.234C246.879 22.4953 245.295 23.5807 243.271 24.49L241.533 21.036ZM250.876 13.864H252.262C253.963 13.864 255.532 13.6953 256.97 13.358C258.422 13.0207 260.057 12.3753 261.876 11.422C263.269 10.674 264.156 10.2487 264.538 10.146L264.648 13.446C263.929 13.2993 263.218 13.094 262.514 12.83C261.824 12.566 260.937 12.1627 259.852 11.62C259.309 11.3413 258.737 11.1213 258.136 10.96C257.549 10.7987 257.028 10.718 256.574 10.718C255.708 10.718 254.953 11.1287 254.308 11.95L252.042 10.256C253.23 7.89467 254.777 6.714 256.684 6.714C257.314 6.714 257.923 6.81667 258.51 7.022C259.096 7.21267 259.962 7.60867 261.106 8.21C261.942 8.63533 262.646 8.958 263.218 9.178C263.804 9.38333 264.457 9.55933 265.176 9.706L265.308 13.446C265.014 13.534 264.31 13.8787 263.196 14.48C263.093 14.5387 262.756 14.722 262.184 15.03C260.6 15.866 259.265 16.4893 258.18 16.9C257.109 17.3107 256.053 17.5967 255.012 17.758C253.97 17.9047 252.687 17.9853 251.162 18H250.876V13.864ZM254.924 3.062L257.278 0.708L259.61 3.062L257.278 5.394L254.924 3.062Z" fill="white"/>
</svg>
