<svg width="279" height="63" viewBox="0 0 279 63" fill="none" xmlns="http://www.w3.org/2000/svg">
<rect width="278.34" height="62.041" rx="31.0205" fill="white"/>
<path d="M67.3952 40.3691C65.8324 40.3691 64.5842 40.0978 63.6508 39.5551C62.7392 38.9908 62.0554 38.1442 61.5996 37.0155C60.7096 38.1008 59.4832 39.0125 57.9203 39.7505C56.3574 40.4885 54.8271 40.8575 53.3293 40.8575C51.8967 40.8575 50.8114 40.4668 50.0733 39.6854C49.357 38.8822 48.9988 37.7209 48.9988 36.2015C48.9988 35.2247 49.0314 34.1719 49.0965 33.0431C50.0733 32.978 51.0501 32.9238 52.0269 32.8803V33.8571C52.0269 34.6169 52.2006 35.1704 52.5479 35.5177C52.8952 35.865 53.4487 36.0387 54.2084 36.0387C55.2504 36.0387 56.314 35.7999 57.3993 35.3223C58.4847 34.8231 59.4289 34.1719 60.232 33.3687C59.494 30.0476 58.5498 26.7916 57.3993 23.6007L60.8832 21.8751C61.2523 22.9821 61.5779 24.0891 61.86 25.1962C62.1422 26.3032 62.4787 27.725 62.8694 29.4615L63.1624 30.6663C63.4663 31.9904 63.8136 33.0106 64.2044 33.7269C64.6168 34.4215 65.1052 34.8991 65.6696 35.1595C66.2339 35.42 66.972 35.5503 67.8836 35.5503L67.3952 40.3691ZM75.4951 26.5963C76.1245 29.9391 76.4393 32.2726 76.4393 33.5967C76.4393 34.7688 76.1463 35.9193 75.5602 37.048C74.9958 38.1551 74.2035 38.9474 73.1833 39.4249C71.8592 40.0544 69.9273 40.3691 67.3876 40.3691C67.3008 40.3691 67.214 40.2063 67.1271 39.8807C67.0403 39.5334 66.9969 39.045 66.9969 38.4155C66.9969 37.417 67.0946 36.6899 67.2899 36.234C67.4636 35.7782 67.6589 35.5503 67.876 35.5503C71.1971 35.5503 72.8577 35.1704 72.8577 34.4107C72.8577 33.9548 72.7275 33.0431 72.467 31.6756C72.2065 30.3081 71.9243 28.984 71.6204 27.7033L75.4951 26.5963ZM66.8992 43.7228H67.2248H71.8809V47.2067H67.2248H66.8992H62.2757V43.7228H66.8992ZM89.7228 40.3691C88.3769 40.3691 87.3893 40.1195 86.7598 39.6203C86.6296 41.3134 86.2063 42.7677 85.49 43.9833C84.7953 45.1989 83.6992 46.2516 82.2014 47.1416C80.7036 48.0316 78.7066 48.7805 76.2104 49.3883C75.7979 48.3898 75.277 47.0331 74.6475 45.3183C76.9701 44.7322 78.7609 44.1352 80.0199 43.5275C81.3006 42.9197 82.1797 42.3119 82.6572 41.7041C83.1348 41.0963 83.3736 40.4343 83.3736 39.7179C83.3736 38.5241 83.2433 37.0914 82.9828 35.42C82.7224 33.7269 82.3642 31.9795 81.9084 30.1779L85.6853 28.9731C86.0543 30.9702 86.3799 32.4028 86.6621 33.2711C86.966 34.1393 87.3676 34.7363 87.8668 35.0619C88.3878 35.3875 89.1692 35.5503 90.2112 35.5503L89.7228 40.3691ZM96.8071 24.9031C97.3498 24.9031 98.001 25.0334 98.7607 25.2939C99.5204 25.5326 100.562 25.9234 101.886 26.466C103.775 27.2258 105.501 27.8661 107.064 28.3871C108.626 28.8863 110.276 29.2662 112.013 29.5267L110.971 33.6618C110.385 33.575 109.918 33.5315 109.571 33.5315C109.093 33.5315 108.55 33.6835 107.943 33.9874C107.335 34.2696 106.445 34.7471 105.273 35.42C103.58 36.3968 102.038 37.2217 100.649 37.8946C99.2817 38.5458 97.6537 39.121 95.7652 39.6203C93.8767 40.1195 91.858 40.3691 89.709 40.3691C89.6222 40.3691 89.5354 40.2063 89.4485 39.8807C89.3617 39.5334 89.3183 39.045 89.3183 38.4155C89.3183 37.417 89.416 36.6899 89.6113 36.234C89.785 35.7782 89.9804 35.5503 90.1974 35.5503C92.8239 35.5503 95.19 35.2789 97.2955 34.7363C99.4228 34.1719 101.876 33.2494 104.654 31.9687C103.178 31.5562 101.344 30.9267 99.1514 30.0802C98.3483 29.7546 97.7513 29.5267 97.3606 29.3964C96.9699 29.2662 96.6226 29.2011 96.3187 29.2011C95.9931 29.2011 95.6675 29.3747 95.3419 29.722C95.038 30.0693 94.6039 30.7422 94.0395 31.7407L91.5975 30.1779C92.2921 28.832 92.889 27.7901 93.3883 27.0521C93.9093 26.3141 94.4411 25.7714 94.9837 25.4241C95.5264 25.0768 96.1342 24.9031 96.8071 24.9031ZM95.3419 21.0611V16.9911H99.7375V21.0611H95.3419ZM127.728 26.8567C129.073 26.8567 130.235 27.3343 131.212 28.2894C132.188 29.2228 132.937 30.5035 133.458 32.1315C133.979 33.7378 134.24 35.5286 134.24 37.5039C134.24 39.6311 133.881 41.4002 133.165 42.8111C132.449 44.2221 131.288 45.3834 129.681 46.2951C127.055 47.8145 122.844 48.8239 117.048 49.3231L116.722 47.6626L116.169 44.9275C119.946 44.6019 122.92 44.2004 125.09 43.7228C127.261 43.267 128.791 42.7135 129.681 42.0623C130.593 41.4328 131.049 40.673 131.049 39.7831V39.5877C129.551 40.0435 127.923 40.2715 126.165 40.2715C124.645 40.2715 123.495 39.8916 122.713 39.1319C121.932 38.3504 121.541 37.2651 121.541 35.8759C121.541 34.3347 121.802 32.8695 122.323 31.4803C122.865 30.091 123.603 28.9731 124.537 28.1266C125.47 27.28 126.534 26.8567 127.728 26.8567ZM124.634 34.0851C124.634 35.1704 125.394 35.7131 126.914 35.7131C128.216 35.7131 129.453 35.6045 130.625 35.3875C130.343 33.9982 129.898 32.9346 129.291 32.1966C128.704 31.4586 127.988 31.0895 127.142 31.0895C126.425 31.0895 125.828 31.4043 125.351 32.0338C124.873 32.6416 124.634 33.3253 124.634 34.0851ZM148.342 22.7867C150.578 24.5884 152.304 26.1187 153.519 27.3777C154.735 28.6367 155.581 29.7546 156.059 30.7314C156.558 31.7082 156.808 32.7175 156.808 33.7595C156.808 35.0619 156.493 36.2232 155.864 37.2434C155.234 38.2636 154.377 39.0559 153.291 39.6203C152.163 40.228 150.806 40.5319 149.221 40.5319C147.55 40.5319 146.291 40.1087 145.444 39.2621C144.598 38.3938 144.175 37.2651 144.175 35.8759C144.175 33.7486 145.292 31.0787 147.528 27.8661L145.965 26.5963L148.342 22.7867ZM147.593 33.6943C147.593 34.2153 147.789 34.6494 148.179 34.9967C148.57 35.3223 149.167 35.4851 149.97 35.4851C150.882 35.4851 151.707 35.3658 152.445 35.127C153.183 34.8882 153.552 34.6277 153.552 34.3455C153.552 33.868 153.291 33.3036 152.77 32.6524C152.249 32.0012 151.229 31.0136 149.71 29.6895C148.299 31.5345 147.593 32.8695 147.593 33.6943ZM179.098 40.3691C177.535 40.3691 176.287 40.0978 175.353 39.5551C174.442 38.9908 173.758 38.1442 173.302 37.0155C172.412 38.1008 171.186 39.0125 169.623 39.7505C168.06 40.4885 166.53 40.8575 165.032 40.8575C163.599 40.8575 162.514 40.4668 161.776 39.6854C161.059 38.8822 160.701 37.7209 160.701 36.2015C160.701 35.2247 160.734 34.1719 160.799 33.0431C161.776 32.978 162.753 32.9238 163.729 32.8803V33.8571C163.729 34.6169 163.903 35.1704 164.25 35.5177C164.598 35.865 165.151 36.0387 165.911 36.0387C166.953 36.0387 168.016 35.7999 169.102 35.3223C170.187 34.8231 171.131 34.1719 171.934 33.3687C171.196 30.0476 170.252 26.7916 169.102 23.6007L172.586 21.8751C172.955 22.9821 173.28 24.0891 173.562 25.1962C173.845 26.3032 174.181 27.725 174.572 29.4615L174.865 30.6663C175.169 31.9904 175.516 33.0106 175.907 33.7269C176.319 34.4215 176.808 34.8991 177.372 35.1595C177.936 35.42 178.674 35.5503 179.586 35.5503L179.098 40.3691ZM184.625 21.9727C186.752 23.3403 189.26 24.838 192.147 26.466C194.165 27.5948 195.663 28.4956 196.64 29.1685C197.638 29.8197 198.42 30.5469 198.984 31.35C199.57 32.1315 199.863 33.0431 199.863 34.0851C199.863 35.2138 199.635 36.31 199.18 37.3736C198.724 38.4155 198.105 39.2621 197.324 39.9133C196.564 40.5428 195.728 40.8575 194.817 40.8575C193.861 40.8575 192.505 40.6839 190.747 40.3366C189.01 39.9676 187.425 39.5226 185.993 39.0016C183.822 39.9133 181.521 40.3691 179.09 40.3691C179.003 40.3691 178.916 40.2063 178.83 39.8807C178.743 39.5334 178.699 39.045 178.699 38.4155C178.699 37.417 178.797 36.6899 178.992 36.234C179.166 35.7782 179.361 35.5503 179.578 35.5503C180.447 35.5503 181.076 35.5394 181.467 35.5177C181.293 34.9533 181.206 34.3998 181.206 33.8571C181.206 32.5764 181.532 31.3066 182.183 30.0476C182.834 28.7886 183.681 27.7467 184.723 26.9219L182.834 25.7171L184.625 21.9727ZM184.3 32.3919C184.3 32.8695 184.506 33.3145 184.918 33.7269C185.352 34.1393 185.993 34.4758 186.839 34.7363C187.86 34.4541 188.63 34.1068 189.151 33.6943C189.672 33.2819 189.933 32.8695 189.933 32.4571C189.933 31.5454 189.705 30.7205 189.249 29.9825C188.815 29.2445 188.239 28.8755 187.523 28.8755C187.024 28.8755 186.525 29.0925 186.025 29.5267C185.526 29.9391 185.114 30.4275 184.788 30.9919C184.462 31.5562 184.3 32.0229 184.3 32.3919ZM190.877 35.6154C193.221 36.2232 194.806 36.5271 195.631 36.5271C195.956 36.5271 196.227 36.3751 196.445 36.0712C196.662 35.7673 196.77 35.3549 196.77 34.8339C196.77 34.2696 196.466 33.7486 195.858 33.2711C195.251 32.7935 194.165 32.1423 192.602 31.3175V31.5779C192.602 32.9455 192.027 34.2913 190.877 35.6154ZM211.535 40.3691C209.3 40.3691 207.596 39.7831 206.423 38.6109C205.251 37.417 204.633 35.5828 204.567 33.1083L204.047 15.1351L208.117 14.8095L208.019 30.6663C208.019 32.316 208.334 33.5424 208.963 34.3455C209.593 35.1487 210.613 35.5503 212.024 35.5503L211.535 40.3691ZM239.362 40.3691C238.081 40.3691 237.006 40.1846 236.138 39.8156C235.27 39.4249 234.63 38.8605 234.217 38.1225C233.826 38.8605 233.306 39.4249 232.654 39.8156C232.003 40.1846 231.308 40.3691 230.57 40.3691C229.659 40.3691 228.877 40.1629 228.226 39.7505C227.575 39.3381 227.108 38.7846 226.826 38.0899C226.37 38.828 225.752 39.3923 224.97 39.7831C224.21 40.1738 223.364 40.3691 222.43 40.3691C221.345 40.3691 220.412 40.1521 219.63 39.7179C218.871 39.2838 218.36 38.6652 218.1 37.862C217.601 38.7086 216.819 39.3381 215.756 39.7505C214.692 40.1629 213.281 40.3691 211.523 40.3691C211.436 40.3691 211.349 40.2063 211.262 39.8807C211.176 39.5334 211.132 39.045 211.132 38.4155C211.132 37.417 211.23 36.6899 211.425 36.234C211.599 35.7782 211.794 35.5503 212.011 35.5503C213.726 35.5503 214.985 35.3115 215.788 34.8339C216.591 34.3347 216.993 33.5207 216.993 32.3919V30.3732L220.249 30.1127V32.4571C220.249 33.4339 220.466 34.1936 220.9 34.7363C221.334 35.2789 221.985 35.5503 222.854 35.5503C223.657 35.5503 224.297 35.2898 224.775 34.7688C225.274 34.2262 225.524 33.5424 225.524 32.7175V30.6988L228.78 30.4383V32.4571C228.78 33.4773 228.964 34.2479 229.333 34.7688C229.724 35.2898 230.277 35.5503 230.994 35.5503C232.231 35.5503 232.85 34.4107 232.85 32.1315V29.3964L236.106 29.1359V31.8059C236.106 33.0866 236.399 34.0308 236.985 34.6386C237.571 35.2464 238.526 35.5503 239.85 35.5503L239.362 40.3691ZM224.807 20.8331V17.3167H228.877V20.8331H224.807ZM226.663 22.3635H226.989H231.645V25.8799H226.989H226.663H222.04V22.3635H226.663ZM251.424 26.2055C252.444 26.2055 253.258 26.4769 253.866 27.0195C254.496 27.5405 254.962 28.3545 255.266 29.4615C255.483 30.243 255.657 31.1221 255.787 32.0989C255.917 33.054 255.983 33.9657 255.983 34.8339C255.983 35.7456 255.787 36.6464 255.396 37.5364C255.006 38.4047 254.485 39.121 253.834 39.6854C253.204 40.2498 252.553 40.5319 251.88 40.5319C250.664 40.5319 249.34 40.2389 247.908 39.6528C246.497 39.045 245.509 38.3179 244.945 37.4713C244.163 38.5566 243.328 39.3164 242.438 39.7505C241.569 40.1629 240.549 40.3691 239.377 40.3691C239.29 40.3691 239.203 40.2063 239.116 39.8807C239.03 39.5334 238.986 39.045 238.986 38.4155C238.986 37.417 239.084 36.6899 239.279 36.234C239.453 35.7782 239.648 35.5503 239.865 35.5503C240.603 35.5503 241.2 35.4743 241.656 35.3223C242.134 35.1487 242.579 34.8339 242.991 34.3781C243.425 33.9006 243.881 33.2059 244.359 32.2943C245.205 30.688 245.954 29.4615 246.605 28.615C247.278 27.7467 247.984 27.1281 248.722 26.7591C249.46 26.39 250.361 26.2055 251.424 26.2055ZM246.996 33.5315C247.408 34.1176 248.168 34.6277 249.275 35.0619C250.404 35.496 251.413 35.7131 252.303 35.7131C252.433 35.7131 252.531 35.6696 252.596 35.5828C252.661 35.496 252.694 35.3332 252.694 35.0944C252.694 34.682 252.629 34.0851 252.499 33.3036C252.39 32.5005 252.249 31.871 252.075 31.4151C251.967 31.0678 251.804 30.7965 251.587 30.6011C251.37 30.3841 251.099 30.2755 250.773 30.2755C249.948 30.2755 249.275 30.5035 248.754 30.9593C248.233 31.3934 247.647 32.2508 246.996 33.5315Z" fill="black"/>
<path d="M36.8884 17.6328L24.5566 32.0199L36.8884 46.4069" stroke="black" stroke-width="3.08294" stroke-linecap="round" stroke-linejoin="round"/>
</svg>
