<svg width="464" height="181" viewBox="0 0 464 181" fill="none" xmlns="http://www.w3.org/2000/svg">
<path d="M39.8642 13.5981C40.3977 17.4149 40.8082 23.2631 41.0954 31.1429C41.4238 39.0227 41.5879 46.7384 41.5879 54.2899C41.5879 59.0095 40.7671 63.1136 39.1255 66.602C37.5249 70.0905 35.2061 72.7581 32.1691 74.605C29.1731 76.4928 25.5821 77.4368 21.3959 77.4368C18.0306 77.4368 14.9115 76.7596 12.0387 75.4053C9.20687 74.0509 6.92911 72.1015 5.20541 69.557C3.4817 67.0125 2.61985 64.0165 2.61985 60.5691C2.61985 60.1176 2.66089 59.3584 2.74297 58.2913C2.98921 55.911 3.52274 53.4485 4.34355 50.904C5.20541 48.3595 6.1083 46.0202 7.05223 43.8861L14.1933 47.0872C13.1262 49.6317 12.326 51.6838 11.7924 53.2433C11.2999 54.7618 11.0127 56.4445 10.9306 58.2913C10.8485 60.5075 11.7719 62.3133 13.7008 63.7087C15.6708 65.1451 18.2358 65.8633 21.3959 65.8633C25.2948 65.8633 28.2908 64.9194 30.3838 63.0315C32.4769 61.1847 33.5029 58.3118 33.4619 54.413C33.3798 48.7083 33.0104 41.9777 32.3538 34.221C31.6971 26.4643 31.02 20.3082 30.3223 15.7527L39.8642 13.5981ZM55.3064 13.5981C55.8399 17.4559 56.2298 22.155 56.4761 27.6955C56.7633 33.236 56.907 38.4482 56.907 43.332C56.907 44.9736 57.0301 46.2254 57.2763 47.0872C57.5636 47.9491 58.0356 48.5647 58.6922 48.9341C59.3489 49.2624 60.2928 49.4265 61.524 49.4265H61.8319L62.4475 55.2133L61.8319 61H61.524C52.5362 61 47.9806 55.48 47.8575 44.4401C47.6523 33.0719 46.9957 23.5094 45.8876 15.7527L55.3064 13.5981ZM95.7014 49.4265C96.6454 49.4265 97.4457 49.1393 98.1023 48.5647C98.759 47.9901 99.0873 47.3335 99.0873 46.5947C99.0873 45.1994 97.9587 41.7519 95.7014 36.2525L103.273 32.0664C104.053 33.6669 104.874 36.0063 105.736 39.0843C106.639 42.1624 107.09 44.8505 107.09 47.1488C107.09 49.6523 106.598 51.9711 105.613 54.1052C104.669 56.1982 103.335 57.8809 101.611 59.1532C99.8876 60.3844 97.9176 61 95.7014 61H95.5168V49.4265H95.7014ZM79.0184 61V49.4265H79.3878C81.3167 49.4265 82.7121 48.5031 83.5739 46.6563C84.3537 45.0147 85.0309 42.7985 85.6054 40.0077L93.1774 40.3155C93.0543 41.0132 92.9107 41.9571 92.7465 43.1473C92.6234 44.2965 92.5618 45.1994 92.5618 45.856C92.5618 46.9231 92.8081 47.7849 93.3006 48.4416C93.8341 49.0982 94.6139 49.4265 95.6399 49.4265H95.8246L96.4402 55.2133L95.8246 61H95.6399C93.5468 61 91.7 60.487 90.0994 59.461C88.5398 58.3939 87.3291 56.8959 86.4673 54.967L88.4372 54.8439C87.0008 56.978 85.5644 58.5376 84.128 59.5225C82.7326 60.5075 81.091 61 79.2031 61H79.0184ZM61.412 61L60.7964 55.2133L61.412 49.4265H61.7198C62.8279 49.4265 63.9565 49.2008 65.1056 48.7494C66.2548 48.2979 67.0961 47.7644 67.6296 47.1488C69.025 45.6713 70.1126 43.3731 70.8924 40.254L78.4644 41.0543C78.3823 41.3415 78.1566 42.2034 77.7872 43.6398C77.4178 45.0762 77.2332 46.2254 77.2332 47.0872C77.2332 48.6468 77.8898 49.4265 79.2031 49.4265H79.3878L80.0034 55.2133L79.3878 61H78.9569C77.3152 61 75.7967 60.6101 74.4013 59.8303C73.047 59.0095 72.021 57.922 71.3233 56.5676C69.969 58.004 68.4505 59.1121 66.7678 59.8919C65.1262 60.6306 63.4025 61 61.5967 61H61.412ZM162.37 80.8226C162.247 80.9047 161.406 81.3972 159.846 82.3001C158.328 83.244 155.968 84.1059 152.766 84.8856C149.606 85.7065 146.323 86.1169 142.917 86.1169C138.813 86.1169 135.057 85.3987 131.651 83.9622C128.286 82.5669 125.598 80.4943 123.587 77.7446C121.617 75.0359 120.632 71.7937 120.632 68.0179C120.632 66.9509 120.673 66.1301 120.755 65.5555C121.576 58.7017 125.372 53.1818 132.144 48.9956C138.956 44.8095 148.047 42.1418 159.415 40.9927L156.522 49.6728C155.167 49.1803 153.936 48.6057 152.828 47.9491C151.72 47.2924 150.345 46.369 148.703 45.1788C145.79 43.0447 143.45 41.5467 141.686 40.6849C139.921 39.823 138.259 39.3921 136.699 39.3921C135.263 39.3921 134.052 39.741 133.067 40.4386C132.082 41.1363 131.179 41.9571 130.358 42.9011L124.018 38.1609C127.342 31.5533 131.713 28.2496 137.13 28.2496C139.428 28.2496 141.686 28.7831 143.902 29.8502C146.118 30.9172 149.237 32.9077 153.259 35.8216C155.27 37.258 156.788 38.284 157.814 38.8996C158.841 39.4742 160.01 39.9872 161.323 40.4386L160.031 51.7043C154.121 51.7043 148.868 52.4635 144.271 53.9821C139.675 55.4595 136.022 57.3474 133.313 59.6457C130.646 61.9029 129.045 64.1601 128.511 66.4174C128.306 67.8948 128.901 69.2492 130.297 70.4804C131.733 71.7526 133.724 72.7581 136.268 73.4969C138.813 74.2356 141.583 74.605 144.579 74.605C147.247 74.605 149.832 74.2972 152.336 73.6816C154.88 73.0659 156.809 72.4914 158.122 71.9578L162.37 80.8226ZM137.068 64.2627L143.655 57.6757L150.181 64.2627L143.655 70.7882L137.068 64.2627ZM167.117 60.6306C167.61 57.5526 167.856 53.2023 167.856 47.5797C167.856 41.9571 167.63 36.0063 167.179 29.727C166.769 23.4478 166.297 18.7897 165.763 15.7527L175.305 13.5981C175.715 16.4299 176.085 20.7391 176.413 26.5259C176.741 32.2716 176.906 37.9557 176.906 43.5783C176.906 51.3349 176.577 57.3269 175.921 61.554L167.117 60.6306ZM199.398 61C196.402 61 193.919 59.8919 191.949 57.6757C190.02 55.4185 188.42 52.2994 187.147 48.3184L194.104 44.0707C194.637 46.0407 195.294 47.4361 196.074 48.2569C196.853 49.0367 197.962 49.4265 199.398 49.4265H200.075L200.691 55.2133L200.075 61H199.398ZM173.235 69.4954C175.984 68.2642 178.508 66.9099 180.807 65.4324C183.146 63.996 184.993 62.6416 186.347 61.3694C187.742 60.0971 188.44 59.0916 188.44 58.3529C188.44 56.7113 187.168 51.8274 184.623 43.7014L192.934 40.3771C193.96 43.2089 194.76 46.2254 195.335 49.4265C195.909 52.5867 196.197 55.5621 196.197 58.3529C196.197 62.6211 194.596 66.52 191.395 70.0495C188.194 73.579 183.761 76.616 178.098 79.1605L173.235 69.4954ZM199.377 49.4265H203.256C208.016 49.4265 212.408 48.9546 216.43 48.0106C220.493 47.0667 225.069 45.2609 230.158 42.5933C234.057 40.5002 236.54 39.31 237.607 39.0227L237.914 48.2569C235.903 47.8465 233.913 47.2719 231.943 46.5332C230.014 45.7944 227.531 44.6658 224.494 43.1473C222.976 42.3676 221.375 41.7519 219.692 41.3005C218.051 40.8491 216.594 40.6233 215.322 40.6233C212.9 40.6233 210.787 41.7725 208.981 44.0707L202.64 39.3305C205.964 32.723 210.294 29.4192 215.629 29.4192C217.394 29.4192 219.097 29.7065 220.739 30.2811C222.381 30.8146 224.802 31.9227 228.003 33.6054C230.342 34.7956 232.312 35.6985 233.913 36.3141C235.555 36.8886 237.381 37.3811 239.392 37.7915L239.761 48.2569C238.94 48.5031 236.97 49.4676 233.851 51.1502C233.564 51.3144 232.62 51.8274 231.02 52.6893C226.587 55.0286 222.853 56.7728 219.815 57.922C216.82 59.0711 213.865 59.8714 210.951 60.3228C208.037 60.7332 204.446 60.959 200.178 61H199.377V49.4265ZM291.739 44.0092C292.519 46.1023 293.258 47.5387 293.956 48.3184C294.694 49.0572 295.782 49.4265 297.218 49.4265H297.711L298.326 55.2133L297.711 61H297.218C294.181 61 291.76 59.8919 289.954 57.6757C288.148 55.4185 286.568 52.2173 285.214 48.0722L291.739 44.0092ZM264.283 47.1488C263.134 49.8985 262.313 52.0737 261.821 53.6742C261.328 55.2748 261.082 57.0191 261.082 58.9069C261.082 64.7347 265.001 67.6486 272.84 67.6486C275.467 67.6486 277.806 67.2177 279.858 66.3558C281.951 65.535 283.593 64.4064 284.783 62.97C285.973 61.5335 286.568 59.974 286.568 58.2913C286.568 56.4445 285.132 51.6427 282.259 43.8861L290.139 39.5152C291.493 42.7574 292.519 46.0202 293.217 49.3034C293.956 52.5456 294.325 55.5416 294.325 58.2913C294.325 62.2312 293.381 65.8018 291.493 69.0029C289.646 72.2041 287.081 74.7076 283.798 76.5134C280.556 78.3191 276.903 79.222 272.84 79.222C269.023 79.222 265.596 78.5038 262.559 77.0674C259.522 75.672 257.122 73.5584 255.357 70.7266C253.633 67.9359 252.771 64.5295 252.771 60.5075C252.771 59.5225 252.792 58.7838 252.833 58.2913C253.161 54.3514 254.618 49.5702 257.204 43.9476L264.283 47.1488ZM267.484 39.1459L274.071 32.5588L280.597 39.1459L274.071 45.6713L267.484 39.1459ZM300.087 49.4265H303.411C307.228 49.4265 309.937 49.1187 311.537 48.5031C313.179 47.8875 314 47.0257 314 45.9176C314 44.8916 312.871 41.6699 310.614 36.2525L318.432 31.9432C319.253 33.6669 320.074 35.9857 320.895 38.8996C321.757 41.7725 322.187 44.358 322.187 46.6563C322.187 51.2529 320.751 54.8029 317.878 57.3063C315.005 59.7688 310.799 61 305.258 61H300.087V49.4265ZM302.796 65.8633L308.583 71.65L304.704 75.5284L302.796 77.4368L300.887 75.5284L297.009 71.65L302.796 65.8633ZM313.446 65.8633L319.233 71.65L315.354 75.5284L313.446 77.4368L311.537 75.5284L307.659 71.65L313.446 65.8633ZM297.132 61L296.517 55.2133L297.132 49.4265H301.072V61H297.132ZM346.627 61C343.631 61 341.148 59.8919 339.178 57.6757C337.249 55.4185 335.649 52.2994 334.377 48.3184L341.333 44.0707C341.866 46.0407 342.523 47.4361 343.303 48.2569C344.083 49.0367 345.191 49.4265 346.627 49.4265H347.304L347.92 55.2133L347.304 61H346.627ZM320.464 69.4954C323.214 68.2642 325.738 66.9099 328.036 65.4324C330.375 63.996 332.222 62.6416 333.576 61.3694C334.972 60.0971 335.669 59.0916 335.669 58.3529C335.669 56.7113 334.397 51.8274 331.853 43.7014L340.163 40.3771C341.189 43.2089 341.99 46.2254 342.564 49.4265C343.139 52.5867 343.426 55.5621 343.426 58.3529C343.426 62.6211 341.825 66.52 338.624 70.0495C335.423 73.579 330.991 76.616 325.327 79.1605L320.464 69.4954ZM346.73 49.4265H347.037C350.239 49.4265 352.722 49.2829 354.486 48.9956C356.251 48.7083 357.482 48.2569 358.18 47.6413C358.878 46.9846 359.247 46.1228 359.288 45.0557C359.247 43.2089 359.021 41.1979 358.611 39.0227L366.244 37.6068C366.819 40.9722 367.106 44.3991 367.106 47.8875C367.353 48.2979 367.804 48.6673 368.461 48.9956C369.117 49.2829 369.979 49.4265 371.046 49.4265H371.292L371.908 55.2133L371.292 61H370.985C369.179 61 367.455 60.5486 365.814 59.6457C364.213 58.7017 362.838 57.491 361.689 56.0136L363.474 56.4445C362.079 58.004 360.129 59.1532 357.626 59.8919C355.163 60.6306 351.634 61 347.037 61H346.73V49.4265ZM350.67 22.0319L356.456 27.8187L352.578 31.697L350.67 33.6054L348.761 31.697L344.883 27.8187L350.67 22.0319ZM361.32 22.0319L367.106 27.8187L363.228 31.697L361.32 33.6054L359.411 31.697L355.533 27.8187L361.32 22.0319ZM370.655 49.4265H373.118C376.114 49.4265 378.72 49.2213 380.936 48.8109C383.152 48.3595 384.712 47.8465 385.615 47.2719C384.424 45.384 382.906 43.4757 381.059 41.5467C379.253 39.6178 376.483 37.1349 372.748 34.0979L373.672 24.3097L396.757 14.7062L399.835 23.8788L383.029 30.9583C383.193 31.1224 384.999 32.8461 388.446 36.1294C391.935 39.4126 393.679 43.4551 393.679 48.2569C393.679 48.8315 393.617 49.4265 393.494 50.0422C392.797 53.6948 390.58 56.4445 386.846 58.2913C383.152 60.0971 378.576 61 373.118 61H370.655V49.4265ZM374.349 16.7377L394.664 8.61164L395.772 11.9359L373.918 20.9854L374.349 16.7377ZM390.562 69.4954C393.311 68.2642 395.835 66.9099 398.134 65.4324C400.473 63.996 402.32 62.6416 403.674 61.3694C405.069 60.0971 405.767 59.0916 405.767 58.3529C405.767 56.7113 404.495 51.8274 401.95 43.7014L410.261 40.3771C411.287 43.2089 412.087 46.2254 412.662 49.4265C413.236 52.5867 413.524 55.5621 413.524 58.3529C413.524 62.6211 411.923 66.52 408.722 70.0495C405.521 73.579 401.088 76.616 395.425 79.1605L390.562 69.4954ZM442.215 61C439.219 61 436.736 59.8919 434.766 57.6757C432.837 55.4185 431.237 52.2994 429.964 48.3184L436.921 44.0707C437.454 46.0407 438.111 47.4361 438.891 48.2569C439.67 49.0367 440.779 49.4265 442.215 49.4265H442.892L443.508 55.2133L442.892 61H442.215ZM416.052 69.4954C418.801 68.2642 421.325 66.9099 423.624 65.4324C425.963 63.996 427.81 62.6416 429.164 61.3694C430.559 60.0971 431.257 59.0916 431.257 58.3529C431.257 56.7113 429.985 51.8274 427.44 43.7014L435.751 40.3771C436.777 43.2089 437.577 46.2254 438.152 49.4265C438.727 52.5867 439.014 55.5621 439.014 58.3529C439.014 62.6211 437.413 66.52 434.212 70.0495C431.011 73.579 426.578 76.616 420.915 79.1605L416.052 69.4954ZM423.808 28.5574L430.395 21.9704L436.921 28.5574L430.395 35.0828L423.808 28.5574ZM442.256 49.4265H445.519C450.649 49.4265 453.214 48.421 453.214 46.4101C453.214 45.7944 452.762 44.2554 451.859 41.793C450.998 39.3305 450.32 37.4837 449.828 36.2525L457.708 31.9432C458.487 33.6669 459.308 36.0678 460.17 39.1459C461.032 42.1829 461.463 44.8505 461.463 47.1488C461.463 51.6633 460.088 55.1107 457.338 57.491C454.589 59.8303 450.649 61 445.519 61H442.256V49.4265ZM443.733 71.65L450.32 65.063L456.846 71.65L450.32 78.1755L443.733 71.65Z" fill="white"/>
<path d="M229.289 167.666C225.472 167.666 222.045 166.948 219.008 165.512C215.971 164.116 213.57 162.003 211.806 159.171C210.082 156.38 209.22 152.974 209.22 148.952C209.22 147.967 209.24 147.208 209.282 146.674C209.61 142.775 211.046 138.014 213.591 132.392L220.732 135.655C219.583 138.322 218.741 140.456 218.208 142.057C217.715 143.658 217.469 145.402 217.469 147.29C217.469 150.327 218.475 152.543 220.486 153.938C222.497 155.375 225.431 156.093 229.289 156.093C232.326 156.093 235.096 155.703 237.6 154.923C240.144 154.143 241.991 153.2 243.14 152.091C242.073 151.435 240.39 150.573 238.092 149.506C235.835 148.48 233.537 147.577 231.197 146.797L233.66 135.901C237.559 136.64 240.821 137.173 243.448 137.501C246.115 137.789 248.763 137.932 251.389 137.932H255.083L255.698 143.719L255.083 149.506H251.389C248.804 149.506 246.013 149.28 243.017 148.829C240.021 148.377 236.553 147.782 232.613 147.043L231.197 146.797L233.66 139.902C238.42 141.667 242.442 143.699 245.726 145.997C249.05 148.254 250.712 150.532 250.712 152.83C250.712 155.005 249.768 157.242 247.88 159.54C246.033 161.88 243.468 163.809 240.185 165.327C236.943 166.887 233.311 167.666 229.289 167.666ZM254.481 137.932H267.347L267.963 143.719L267.347 149.506H254.481V137.932ZM266.685 137.932H279.551L280.167 143.719L279.551 149.506H266.685V137.932ZM291.879 133.623C294.341 135.347 296.619 136.742 298.712 137.809C300.846 138.876 302.385 139.41 303.329 139.41C303.616 139.41 303.821 139.348 303.944 139.225C304.437 138.774 304.683 138.056 304.683 137.071C304.683 135.675 304.252 134.341 303.39 133.069C302.57 131.797 301.482 131.161 300.128 131.161C299.143 131.161 298.096 131.797 296.988 133.069C295.88 134.341 294.587 136.824 293.11 140.518C291.92 143.555 290.175 145.812 287.877 147.29C285.62 148.767 283.014 149.506 280.059 149.506H278.889L279.135 137.932H280.243C283.157 137.932 285.722 135.983 287.939 132.084C290.114 128.144 292.145 125.292 294.033 123.527C295.921 121.721 298.035 120.818 300.374 120.818C302.754 120.818 304.827 121.598 306.592 123.158C308.397 124.676 309.772 126.667 310.716 129.129C311.66 131.551 312.132 134.095 312.132 136.763C312.132 139.348 311.681 141.729 310.778 143.904C309.875 146.079 308.541 147.721 306.776 148.829C305.627 149.526 304.355 149.875 302.959 149.875C299.184 149.875 294.054 147.659 287.569 143.227L291.879 133.623ZM316.821 157.693C321.746 156.626 325.686 155.518 328.641 154.369C331.596 153.22 333.771 151.886 335.166 150.368C336.562 148.849 337.259 147.023 337.259 144.889C337.259 142.385 336.89 140.005 336.151 137.748C335.454 135.49 334.53 133.685 333.381 132.33C332.232 130.976 331.042 130.299 329.811 130.299C328.661 130.299 327.677 130.812 326.856 131.838C326.076 132.864 325.686 133.89 325.686 134.916C325.686 135.367 325.809 135.757 326.055 136.086C326.712 136.865 328.19 137.378 330.488 137.625C332.827 137.83 336.151 137.932 340.461 137.932H347.171L347.786 143.719L347.171 149.506L339.106 149.567C335.495 149.567 332.437 149.424 329.934 149.136C327.43 148.808 325.235 148.152 323.347 147.167C321.5 146.141 320.146 144.643 319.284 142.673C318.545 141.072 318.176 139.164 318.176 136.947C318.176 134.321 318.73 131.715 319.838 129.129C320.946 126.544 322.464 124.43 324.393 122.788C326.322 121.147 328.477 120.326 330.857 120.326C333.402 120.326 335.741 121.393 337.875 123.527C340.009 125.661 341.692 128.514 342.923 132.084C344.154 135.655 344.77 139.533 344.77 143.719C344.77 147.823 343.785 151.517 341.815 154.8C339.886 158.083 337.095 160.813 333.443 162.988C329.79 165.204 325.46 166.763 320.453 167.666L316.821 157.693ZM346.342 137.932H349.604C354.734 137.932 357.3 136.927 357.3 134.916C357.3 134.3 356.848 132.761 355.945 130.299C355.083 127.836 354.406 125.99 353.914 124.758L361.793 120.449C362.573 122.173 363.394 124.574 364.256 127.652C365.118 130.689 365.549 133.356 365.549 135.655C365.549 140.169 364.174 143.617 361.424 145.997C358.674 148.336 354.734 149.506 349.604 149.506H346.342V137.932ZM348.927 112.385L355.514 105.798L362.04 112.385L355.514 118.91L348.927 112.385ZM379.317 102.104C379.851 105.962 380.241 110.661 380.487 116.201C380.774 121.742 380.918 126.954 380.918 131.838C380.918 133.479 381.041 134.731 381.287 135.593C381.574 136.455 382.046 137.071 382.703 137.44C383.36 137.768 384.304 137.932 385.535 137.932H385.843L386.458 143.719L385.843 149.506H385.535C376.547 149.506 371.991 143.986 371.868 132.946C371.663 121.578 371.006 112.015 369.898 104.259L379.317 102.104ZM385.238 137.932H398.104L398.72 143.719L398.104 149.506H385.238V137.932ZM397.442 137.932H410.308L410.924 143.719L410.308 149.506H397.442V137.932ZM409.646 137.932H422.512L423.128 143.719L422.512 149.506H409.646V137.932ZM421.788 137.932H425.667C430.427 137.932 434.819 137.46 438.841 136.517C442.904 135.573 447.48 133.767 452.569 131.099C456.468 129.006 458.951 127.816 460.018 127.529L460.326 136.763C458.315 136.352 456.324 135.778 454.354 135.039C452.425 134.3 449.942 133.172 446.905 131.653C445.387 130.873 443.786 130.258 442.104 129.806C440.462 129.355 439.005 129.129 437.733 129.129C435.311 129.129 433.198 130.278 431.392 132.577L425.051 127.836C428.375 121.229 432.705 117.925 438.041 117.925C439.805 117.925 441.508 118.212 443.15 118.787C444.792 119.32 447.213 120.429 450.414 122.111C452.754 123.301 454.724 124.204 456.324 124.82C457.966 125.394 459.792 125.887 461.803 126.297L462.172 136.763C461.352 137.009 459.382 137.973 456.263 139.656C455.975 139.82 455.031 140.333 453.431 141.195C448.998 143.534 445.264 145.279 442.227 146.428C439.231 147.577 436.276 148.377 433.362 148.829C430.448 149.239 426.857 149.465 422.589 149.506H421.788V137.932ZM433.116 107.706L439.703 101.119L446.228 107.706L439.703 114.231L433.116 107.706Z" fill="white"/>
<path d="M5.03109 159.707C6.78869 159.031 8.39757 158.206 9.85773 157.232C11.3179 156.259 12.4671 155.272 13.3053 154.272C14.1436 153.271 14.5627 152.379 14.5627 151.595C14.5627 151 14.4005 150.013 14.076 148.634C13.7515 147.228 13.3189 145.47 12.7781 143.361C12.5617 142.604 12.413 142.036 12.3319 141.657L16.3879 140.076C17.0098 141.968 17.5101 143.983 17.8886 146.119C18.2942 148.228 18.497 150.053 18.497 151.595C18.497 154.163 17.4425 156.556 15.3333 158.774C13.2513 160.991 10.5202 162.776 7.14021 164.128L5.03109 159.707ZM23.1643 145.713C24.1107 146.2 25.1111 146.633 26.1657 147.011C27.2473 147.363 28.5587 147.539 30.1 147.539C31.5602 147.539 32.7499 147.363 33.6693 147.011C34.6157 146.66 35.2376 146.268 35.5351 145.835C35.5891 145.619 35.6162 145.429 35.6162 145.267C35.6162 144.213 34.9537 142.807 33.6287 141.049C32.3038 139.291 30.1541 137.372 27.1797 135.289L29.6944 130.747C32.777 132.991 35.2106 135.398 36.9952 137.966C38.8069 140.508 39.7127 142.928 39.7127 145.227C39.7127 146.227 39.5099 147.201 39.1043 148.147C38.5095 149.553 37.4143 150.635 35.819 151.392C34.2507 152.149 32.5066 152.527 30.5867 152.527C28.3154 152.527 26.3955 152.203 24.8272 151.554C23.2589 150.878 22.0421 150.175 21.1768 149.445L23.1643 145.713ZM25.4762 124.744C26.9904 123.176 28.1396 122.013 28.9238 121.256L32.3714 124.744L31.2357 125.88L28.9238 128.191L25.4762 124.744ZM43.9129 152.122C44.1022 150.527 44.1968 148.215 44.1968 145.186C44.1968 141.995 44.1022 138.656 43.9129 135.168C43.7236 131.653 43.5208 129.124 43.3045 127.583L47.7661 126.569C47.9554 128.083 48.1312 130.544 48.2934 133.951C48.4556 137.331 48.5368 140.657 48.5368 143.929C48.5368 147.66 48.4286 150.554 48.2123 152.609L43.9129 152.122ZM38.7212 123.973C39.1809 122.865 39.7623 121.986 40.4653 121.337C41.1684 120.661 41.9255 120.296 42.7367 120.242C43.2504 120.188 43.7101 120.215 44.1157 120.323C44.5484 120.431 45.0621 120.62 45.657 120.891C46.4682 121.296 47.1577 121.499 47.7256 121.499C48.2123 121.499 48.699 121.364 49.1857 121.093C49.6724 120.796 50.0645 120.404 50.362 119.917L52.0249 121.377C51.4571 122.243 50.7946 122.919 50.0375 123.405C49.2804 123.865 48.5097 124.095 47.7256 124.095C47.2659 124.095 46.8468 124.041 46.4682 123.933C46.1167 123.825 45.657 123.649 45.0892 123.405C44.7647 123.27 44.4267 123.149 44.0752 123.04C43.7507 122.905 43.4397 122.838 43.1423 122.838C42.6015 122.838 42.1012 123.027 41.6416 123.405C41.1819 123.784 40.8168 124.311 40.5464 124.987L38.7212 123.973ZM68.7439 152.365C68.7709 151.797 68.7844 150.932 68.7844 149.769C68.7844 145.037 68.5411 140.914 68.0544 137.399C67.4595 132.91 66.4455 129.07 65.0124 125.88L69.19 123.405C70.7584 126.704 71.867 131.152 72.516 136.75C72.8675 140.103 73.0432 144.05 73.0432 148.593C73.0432 150.297 73.0297 151.554 73.0027 152.365H68.7439ZM86.2065 151.027C84.9897 151.027 83.8541 150.716 82.7995 150.094C81.7449 149.445 80.8932 148.593 80.2442 147.539C79.6223 146.484 79.3113 145.348 79.3113 144.132C79.3113 142.888 79.6223 141.739 80.2442 140.684C80.8661 139.629 81.7044 138.791 82.7589 138.169C83.8405 137.547 84.9897 137.236 86.2065 137.236C87.4774 137.236 88.6401 137.547 89.6947 138.169C90.7763 138.791 91.6281 139.629 92.25 140.684C92.8719 141.739 93.1829 142.888 93.1829 144.132C93.1829 145.348 92.8719 146.498 92.25 147.579C91.6281 148.634 90.7763 149.472 89.6947 150.094C88.6401 150.716 87.4774 151.027 86.2065 151.027ZM86.2065 146.971C86.9907 146.971 87.6532 146.7 88.194 146.16C88.7348 145.619 89.0052 144.943 89.0052 144.132C89.0052 143.293 88.7348 142.604 88.194 142.063C87.6532 141.522 86.9907 141.252 86.2065 141.252C85.4494 141.252 84.8005 141.536 84.2597 142.104C83.7189 142.644 83.4485 143.32 83.4485 144.132C83.4485 144.943 83.7189 145.619 84.2597 146.16C84.8005 146.7 85.4494 146.971 86.2065 146.971ZM113.795 122.919C114.065 124.839 114.282 127.745 114.444 131.639C114.606 135.506 114.674 138.845 114.647 141.657C114.62 143.145 114.687 144.267 114.85 145.024C115.012 145.754 115.363 146.295 115.904 146.646C116.445 146.971 117.283 147.133 118.419 147.133H118.622L118.865 149.729L118.622 152.365H118.419C115.471 152.365 113.389 151.568 112.173 149.972C110.956 148.377 110.347 145.876 110.347 142.469C110.347 139.359 110.253 136.006 110.063 132.41C109.901 128.786 109.671 125.961 109.374 123.933L113.795 122.919ZM118.23 147.133H120.055C122.813 147.133 124.76 146.89 125.896 146.403C127.031 145.889 127.599 145.105 127.599 144.05C127.572 143.374 127.275 142.212 126.707 140.562C126.166 138.886 125.734 137.696 125.409 136.993L129.222 134.924C129.762 136.141 130.303 137.655 130.844 139.467C131.385 141.279 131.655 142.874 131.655 144.253C131.628 146.903 130.709 148.918 128.897 150.297C127.086 151.676 124.395 152.365 120.826 152.365H118.23V147.133ZM122.083 126.691L125.247 129.814L122.083 133.018L118.919 129.814L122.083 126.691ZM129.181 126.691L132.345 129.814L129.181 133.018L126.017 129.814L129.181 126.691ZM150.062 152.365C150.089 151.797 150.102 150.932 150.102 149.769C150.102 145.037 149.859 140.914 149.372 137.399C148.778 132.91 147.764 129.07 146.33 125.88L150.508 123.405C152.076 126.704 153.185 131.152 153.834 136.75C154.186 140.103 154.361 144.05 154.361 148.593C154.361 150.297 154.348 151.554 154.321 152.365H150.062Z" fill="white"/>
</svg>
