<svg width="155" height="44" viewBox="0 0 155 44" fill="none" xmlns="http://www.w3.org/2000/svg">
<g filter="url(#filter0_d_8532_28)">
<path d="M12.7705 12.9902C12.8005 13.1202 12.8105 13.2702 12.8105 13.4302V14.8002C12.8105 14.9802 12.8005 15.1302 12.7705 15.2502C12.7405 15.3702 12.7105 15.4302 12.6705 15.4302H12.1005V15.6402C12.1005 16.4602 11.8505 17.1402 11.3605 17.7002C10.8605 18.2602 10.2005 18.6802 9.38047 18.9502C8.55047 19.2302 7.65047 19.3602 6.65047 19.3602C5.25047 19.3602 4.25047 19.0902 3.64047 18.5602C3.03047 18.0302 2.73047 17.2302 2.73047 16.1702C2.73047 15.9502 2.76047 15.6102 2.83047 15.1402C2.90047 14.6702 2.98047 14.1502 3.08047 13.5802L3.45047 11.2402L5.06047 11.5802C4.67047 13.9402 4.47047 15.3402 4.47047 15.7802C4.47047 16.4102 5.20047 16.7202 6.65047 16.7202C7.56047 16.7202 8.33047 16.6602 8.95047 16.5402C9.57047 16.4202 10.0605 16.2302 10.4205 15.9602C10.4205 15.7402 10.3205 15.6002 10.1005 15.5302C9.88047 15.4602 9.52047 15.4202 9.03047 15.4102H8.07047L8.50047 12.7702H12.6705C12.6705 12.7702 12.7405 12.8302 12.7705 12.9602V12.9902Z" fill="white"/>
<path d="M17.6973 10.179C18.1373 11.109 18.3573 12.029 18.3573 12.959C18.3573 13.589 18.1573 14.079 17.7573 14.439C17.3573 14.799 16.7473 15.049 15.9273 15.209C15.1073 15.369 14.0173 15.439 12.6673 15.439C12.6273 15.439 12.5973 15.379 12.5673 15.259C12.5373 15.139 12.5273 14.989 12.5273 14.809V13.439C12.5273 13.269 12.5373 13.129 12.5673 12.999C12.5973 12.869 12.6273 12.809 12.6673 12.809C14.4173 12.809 15.7073 12.729 16.5473 12.569C16.4373 11.859 16.0573 11.109 15.4073 10.299C14.7573 9.48899 13.9173 8.77899 12.8973 8.14899L12.9673 6.06898C13.8473 5.65898 14.7373 5.28899 15.6273 4.97899C16.5173 4.66899 17.4673 4.36899 18.4973 4.07899L18.7673 6.21899C17.5373 6.52899 16.4073 6.88899 15.3673 7.29899C15.4873 7.36899 15.6173 7.46898 15.7473 7.58898C16.6173 8.39898 17.2773 9.25899 17.7173 10.189L17.6973 10.179ZM16.0173 3.97899L15.4773 4.18899C14.4273 4.56899 13.5873 4.89899 12.9573 5.17899L13.0273 3.64899C13.6273 3.35899 14.5773 2.96898 15.8873 2.45898L16.0173 3.98898V3.97899Z" fill="white"/>
<path d="M26.4097 10.0795C26.9397 11.0595 27.1997 11.9995 27.1997 12.8895C27.1997 13.7794 26.8297 14.4795 26.0897 14.8895C25.3497 15.2994 24.3697 15.4995 23.1397 15.4995C22.4297 15.4995 21.8697 15.4294 21.4397 15.2794C21.0097 15.1294 20.6997 14.8895 20.4897 14.5395C20.2797 14.1895 20.1797 13.7195 20.1797 13.1095C20.1797 12.8095 20.1997 12.3494 20.2497 11.7394L21.8397 11.8695V12.2694C21.8397 12.4594 21.8697 12.5895 21.9397 12.6795C22.0097 12.7595 22.1297 12.8095 22.3097 12.8295C22.4897 12.8495 22.7797 12.8595 23.1897 12.8595C23.4797 12.8595 23.8397 12.8395 24.2797 12.7995C24.7197 12.7595 25.0997 12.7095 25.3997 12.6395C25.2297 11.6495 24.3697 10.4095 22.8097 8.90945L24.1397 7.18945C25.1197 8.12945 25.8797 9.09945 26.3997 10.0795H26.4097Z" fill="white"/>
<path d="M35.4595 12.9905C35.4895 13.1205 35.4995 13.2705 35.4995 13.4305V14.8006C35.4995 14.9806 35.4895 15.1305 35.4595 15.2505C35.4295 15.3705 35.3995 15.4305 35.3595 15.4305H34.1795C33.6495 17.5405 32.1395 19.1105 29.6595 20.1305L28.2695 18.1305C29.1495 17.8305 29.9495 17.4206 30.6495 16.9106C31.3495 16.4006 31.8895 15.8906 32.2595 15.3706C31.9595 15.4106 31.5795 15.4305 31.1395 15.4305C30.6995 15.4305 30.3495 15.4105 30.1395 15.3805C29.9195 15.3505 29.7395 15.2805 29.5895 15.1705C29.4395 15.0705 29.2895 14.8906 29.1195 14.6506C28.9395 14.4006 28.8295 14.2106 28.7695 14.0506C28.7095 13.8906 28.6895 13.6906 28.6895 13.4406C28.6895 12.2606 28.9295 11.2805 29.4195 10.4905C29.9095 9.70055 30.6295 9.31055 31.5795 9.31055C32.3295 9.31055 32.9395 9.63055 33.4295 10.2705C33.9195 10.9105 34.2195 11.7505 34.3395 12.7805H35.3595C35.3595 12.7805 35.4295 12.8406 35.4595 12.9706V12.9905ZM30.8295 13.2405C31.0795 13.2605 31.3095 13.2805 31.5395 13.2805C31.9795 13.2805 32.3495 13.2506 32.6495 13.1906C32.6495 12.6206 32.5395 12.1906 32.3195 11.9006C32.0995 11.6106 31.8095 11.4706 31.4395 11.4706C31.1295 11.4706 30.8695 11.6206 30.6695 11.9006C30.4695 12.1906 30.3695 12.6206 30.3695 13.1906C30.4395 13.2006 30.5995 13.2205 30.8395 13.2405H30.8295Z" fill="white"/>
<path d="M48.0309 12.9902C48.0609 13.1202 48.0709 13.2702 48.0709 13.4302V14.8002C48.0709 14.9702 48.0609 15.1102 48.0309 15.2402C48.0009 15.3702 47.9709 15.4302 47.9409 15.4302H47.6509C47.2409 15.4302 46.8509 15.3502 46.4909 15.1802C46.1309 15.0102 45.8709 14.7702 45.7109 14.4602C45.4709 14.7802 45.1809 15.0302 44.8209 15.1902C44.4609 15.3502 44.0809 15.4302 43.6609 15.4302C43.1609 15.4302 42.7309 15.3602 42.3709 15.2202C42.0109 15.0802 41.7509 14.8302 41.5809 14.4802C41.3909 14.8302 41.1409 15.0802 40.8209 15.2202C40.5009 15.3602 40.2009 15.4302 39.9109 15.4302C39.0309 15.4302 38.4309 15.1002 38.0809 14.4402C37.8109 14.8202 37.4509 15.0802 36.9909 15.2202C36.5309 15.3602 35.9809 15.4302 35.3509 15.4302C35.3109 15.4302 35.2809 15.3702 35.2509 15.2502C35.2209 15.1302 35.2109 14.9802 35.2109 14.8002V13.4302C35.2109 13.2602 35.2209 13.1202 35.2509 12.9902C35.2809 12.8602 35.3109 12.8002 35.3509 12.8002C35.7109 12.8002 36.0409 12.7802 36.3109 12.7502C36.5909 12.7202 36.8709 12.6502 37.1409 12.5502V10.5302H38.9209V12.0602C38.9209 12.3202 38.9709 12.5102 39.0809 12.6302C39.1909 12.7402 39.3709 12.8002 39.6209 12.8002C40.0009 12.8002 40.3709 12.7402 40.7309 12.6202L40.6009 10.0102L42.4109 9.94024L42.4709 12.6902C42.6509 12.7602 42.8809 12.7902 43.1609 12.7902C43.6709 12.7902 44.0809 12.7302 44.4009 12.6102L44.0209 9.34023L46.0209 9.00024L46.2409 11.8702C46.2609 12.1002 46.3009 12.2702 46.3709 12.4002C46.4409 12.5302 46.5709 12.6202 46.7709 12.6902C46.9709 12.7602 47.2509 12.7902 47.6209 12.7902H47.9109C47.9109 12.7902 47.9709 12.8502 48.0009 12.9802L48.0309 12.9902ZM43.7309 7.25024L42.5409 8.72024L41.0709 7.53024L40.1109 8.72024L38.6409 7.53024L39.8309 6.06023L41.3009 7.25024L42.2609 6.06023L43.7309 7.25024ZM42.4509 4.68024L41.2609 6.15024L39.7909 4.96024L40.9809 3.49023L42.4509 4.68024Z" fill="white"/>
<path d="M59.4108 12.9888C59.4408 13.1188 59.4508 13.2688 59.4508 13.4288V14.7988C59.4508 14.9688 59.4408 15.1088 59.4108 15.2388C59.3808 15.3688 59.3508 15.4288 59.3208 15.4288H56.6808C56.0108 15.4288 55.3608 15.3388 54.7308 15.1688C54.1008 14.9988 53.6808 14.6488 53.4608 14.1288C53.3108 14.2288 53.1908 14.2988 53.0808 14.3488C51.6708 15.0688 50.1008 15.4288 48.3808 15.4288H47.9408C47.9408 15.4288 47.8708 15.3688 47.8408 15.2488C47.8108 15.1288 47.8008 14.9788 47.8008 14.7988V13.4288C47.8008 13.2588 47.8108 13.1188 47.8408 12.9888C47.8708 12.8588 47.9008 12.7988 47.9408 12.7988H48.4008C49.8608 12.7988 51.1008 12.6288 52.1008 12.2988C52.4408 12.1788 52.8208 12.0088 53.2308 11.7988C53.4708 11.6888 53.7108 11.5788 53.9508 11.4788C54.2008 11.3688 54.4308 11.2888 54.6408 11.2288C54.1808 11.1488 53.6008 10.9888 52.9008 10.7388C52.5208 10.5988 52.2008 10.4988 51.9508 10.4288C51.7008 10.3588 51.4708 10.3288 51.2508 10.3288C50.9808 10.3288 50.7908 10.4088 50.6808 10.5588C50.5608 10.7088 50.4808 10.9388 50.4408 11.2488L48.9108 10.9688C49.2008 9.01883 49.9308 8.04883 51.1208 8.04883C51.5208 8.04883 51.9408 8.10883 52.3608 8.22883C52.7808 8.34883 53.3408 8.54882 54.0308 8.80882C54.9208 9.13882 55.6808 9.38882 56.2908 9.55882C56.9008 9.72882 57.5508 9.80882 58.2408 9.80882L57.7508 12.0288C57.3308 12.1088 56.9208 12.2288 56.5208 12.3988C56.1208 12.5688 55.7008 12.7788 55.2408 13.0288C56.4108 12.8688 57.4508 12.7888 58.3608 12.7888H59.3008C59.3008 12.7888 59.3608 12.8488 59.3908 12.9788L59.4108 12.9888ZM52.3808 3.29883L54.1308 4.68883L52.7908 6.30882L51.0408 4.90883L52.3808 3.29883Z" fill="white"/>
<path d="M63.5875 12.7398C63.5875 13.1298 63.5175 13.4998 63.3775 13.8498C63.2375 14.1998 62.9975 14.4898 62.6675 14.7098C61.9675 15.1898 60.8575 15.4298 59.3275 15.4298C59.2875 15.4298 59.2575 15.3698 59.2275 15.2498C59.1975 15.1298 59.1875 14.9798 59.1875 14.7998V13.4298C59.1875 13.2598 59.1975 13.1198 59.2275 12.9898C59.2575 12.8598 59.2875 12.7998 59.3275 12.7998C59.9075 12.7998 60.3975 12.7798 60.7875 12.7298C61.1775 12.6898 61.5275 12.5998 61.8175 12.4698L61.4475 9.34976L63.4475 9.00977C63.5475 10.4998 63.5975 11.7498 63.5975 12.7398H63.5875ZM60.5875 16.7898L62.3375 18.1798L60.9975 19.7998L59.2475 18.3998L60.5875 16.7898Z" fill="white"/>
<path d="M80.5706 12.99C80.6006 13.12 80.6106 13.27 80.6106 13.43V14.8C80.6106 14.98 80.6006 15.13 80.5706 15.25C80.5406 15.37 80.5106 15.43 80.4706 15.43C79.6706 15.43 79.0306 15.34 78.5506 15.15C78.0606 14.96 77.7606 14.69 77.6306 14.34C77.3906 14.67 77.0306 14.92 76.5406 15.06C76.1106 15.19 75.6006 15.29 75.0206 15.38C74.4406 15.46 73.8006 15.5 73.1306 15.5C72.0106 15.5 71.0706 15.42 70.3206 15.24C69.5606 15.07 68.9706 14.75 68.5406 14.28C68.1106 13.81 67.8906 13.16 67.8906 12.33C67.8906 12.11 67.9306 11.75 68.0106 11.25C68.0906 10.74 68.2206 10 68.3906 9L70.0006 9.34C69.7506 10.72 69.6306 11.55 69.6306 11.84C69.6306 12.13 69.7306 12.35 69.9206 12.5C70.1106 12.65 70.4506 12.74 70.9206 12.79C71.3906 12.84 72.0806 12.86 73.0006 12.86C74.6906 12.86 76.0406 12.74 77.0706 12.51L76.8006 10.21L78.7506 10L78.8706 12.62C79.2506 12.73 79.7906 12.78 80.4906 12.78C80.5306 12.78 80.5606 12.84 80.5906 12.97L80.5706 12.99ZM76.2206 7.77L74.9506 9.32L73.4206 8.05L72.4006 9.32L70.8506 8.05L72.1206 6.5L73.6506 7.77L74.6706 6.5L76.2206 7.77Z" fill="white"/>
<path d="M92.2403 9.17992C92.7803 9.84992 93.0403 10.8399 93.0403 12.1399C93.0403 12.8899 92.8803 13.4599 92.5503 13.8499C92.1203 14.3499 91.4603 14.7399 90.5803 15.0099C89.7003 15.2899 88.6403 15.4199 87.4303 15.4199C86.5203 15.4199 85.7203 15.3399 85.0503 15.1699C84.3803 14.9999 83.8303 14.7299 83.4203 14.3399C83.1303 14.7299 82.7103 15.0099 82.1703 15.1699C81.6303 15.3299 81.0603 15.4099 80.4603 15.4099C80.4203 15.4099 80.3903 15.3499 80.3603 15.2299C80.3303 15.1099 80.3203 14.9599 80.3203 14.7799V13.4099C80.3203 13.2399 80.3303 13.0999 80.3603 12.9699C80.3903 12.8399 80.4203 12.7799 80.4603 12.7799C80.9303 12.7799 81.3103 12.7699 81.5903 12.7399C81.8803 12.7199 82.1303 12.6499 82.3703 12.5599L82.3003 9.99992H84.1103L84.0403 12.3999C84.0403 12.3999 84.1703 12.4899 84.2903 12.5199C84.4103 12.5499 84.5203 12.5599 84.6303 12.5599C84.9603 11.9899 85.4103 11.3699 85.9603 10.6999C86.5103 10.0299 87.1403 9.43992 87.8203 8.92992C88.5103 8.41992 89.1703 8.16992 89.8103 8.16992C90.8903 8.16992 91.7003 8.49992 92.2303 9.16992L92.2403 9.17992ZM89.3003 12.6999C89.9203 12.6399 90.5703 12.5099 91.2503 12.3199C91.2503 11.6799 91.1303 11.1999 90.8703 10.8799C90.6203 10.5599 90.2903 10.3899 89.8903 10.3899C89.4203 10.3899 88.8803 10.5999 88.2803 11.0299C87.6803 11.4599 87.0603 12.0399 86.4503 12.7899H87.2503C88.0003 12.7899 88.6803 12.7599 89.3103 12.6899L89.3003 12.6999Z" fill="white"/>
<path d="M100.278 12.9887C100.308 13.1187 100.318 13.2687 100.318 13.4287V14.7988C100.318 14.9688 100.308 15.1087 100.278 15.2387C100.248 15.3687 100.218 15.4287 100.188 15.4287H99.7178C99.4378 15.4287 99.1778 15.3688 98.9378 15.2588C98.6878 15.1488 98.4778 14.9887 98.2878 14.7787C98.2278 15.8687 97.8478 16.8388 97.1378 17.6888C96.4278 18.5388 95.2678 19.3487 93.6478 20.1287L92.2578 18.1287C93.5978 17.5287 94.5678 16.9887 95.1678 16.4987C95.7678 16.0087 96.2078 15.4987 96.4878 14.9487L95.8578 10.3787L97.9378 9.96875L98.1578 11.8988C98.1978 12.2488 98.3378 12.4887 98.5678 12.6087C98.8078 12.7287 99.1878 12.7887 99.7178 12.7887H100.188C100.188 12.7887 100.248 12.8488 100.278 12.9788V12.9887Z" fill="white"/>
<path d="M106.411 12.6596C106.341 13.2496 106.211 13.7296 106.031 14.0896C105.851 14.4496 105.571 14.7296 105.221 14.9296C104.941 15.0896 104.621 15.1996 104.271 15.2696C103.921 15.3396 103.461 15.3796 102.891 15.3996C102.321 15.4196 101.421 15.4296 100.191 15.4296C100.151 15.4296 100.121 15.3696 100.091 15.2496C100.061 15.1296 100.051 14.9796 100.051 14.7996V13.4296C100.051 13.2596 100.061 13.1196 100.091 12.9896C100.121 12.8596 100.151 12.7996 100.191 12.7996C101.901 12.7996 103.031 12.7996 103.571 12.7896C104.111 12.7796 104.491 12.7496 104.681 12.6996L104.741 11.9596C104.301 12.0396 103.801 12.0796 103.251 12.0796C102.801 12.0796 102.461 12.0596 102.251 12.0296C102.031 11.9996 101.851 11.9296 101.711 11.8196C101.571 11.7196 101.411 11.5396 101.231 11.2996C101.051 11.0596 100.941 10.8596 100.881 10.6996C100.831 10.5496 100.801 10.3396 100.801 10.0896C100.801 9.33961 100.911 8.65961 101.121 8.02961C101.331 7.39961 101.651 6.90961 102.091 6.52961C102.521 6.14961 103.061 5.95961 103.701 5.95961C104.271 5.95961 104.771 6.14961 105.191 6.52961C105.611 6.90961 105.941 7.43961 106.161 8.09961C106.381 8.75961 106.501 9.49961 106.501 10.3196C106.501 11.2896 106.481 12.0696 106.411 12.6596ZM103.221 1.59961L104.971 2.98961L103.631 4.60961L101.881 3.20961L103.221 1.59961ZM103.671 9.91961C104.151 9.91961 104.511 9.89961 104.761 9.84961C104.761 9.27961 104.651 8.84961 104.421 8.54961C104.191 8.25961 103.901 8.10961 103.551 8.10961C103.241 8.10961 102.981 8.25961 102.781 8.54961C102.581 8.83961 102.481 9.26961 102.481 9.82961C102.891 9.88961 103.291 9.91961 103.671 9.91961Z" fill="white"/>
<path d="M121.65 12.9898C121.68 13.1198 121.69 13.2698 121.69 13.4298V14.7999C121.69 14.9799 121.68 15.1298 121.65 15.2498C121.62 15.3698 121.59 15.4298 121.55 15.4298H121.39C120.51 15.4298 119.86 15.0498 119.44 14.2798C119.49 15.1598 119.51 15.8598 119.51 16.3598C119.51 16.9598 119.24 17.4498 118.69 17.8398C118.15 18.2298 117.5 18.5098 116.75 18.6798C116 18.8498 115.31 18.9398 114.69 18.9398C113.29 18.9398 112.29 18.6798 111.68 18.1398C111.07 17.6098 110.77 16.8098 110.77 15.7498C110.77 15.5198 110.8 15.1698 110.87 14.6898C110.94 14.2098 111.02 13.6798 111.12 13.0998C111.19 12.6898 111.31 11.9298 111.49 10.8198L113.1 11.1599C112.71 13.5199 112.51 14.9098 112.51 15.3398C112.51 15.7098 112.73 15.9698 113.17 16.0998C113.61 16.2298 114.12 16.2999 114.69 16.2999C115.34 16.2999 115.91 16.2598 116.4 16.1898C116.89 16.1199 117.33 15.9898 117.71 15.8098L117.06 10.3398L119.06 9.92985L119.28 11.6798C119.33 12.0398 119.42 12.2998 119.54 12.4498C119.66 12.5998 119.85 12.6999 120.1 12.7299C120.35 12.7699 120.76 12.7798 121.35 12.7798H121.53C121.53 12.7798 121.6 12.8398 121.63 12.9698L121.65 12.9898ZM114.66 6.58984L116.41 7.97985L115.07 9.59985L113.32 8.19984L114.66 6.58984Z" fill="white"/>
<path d="M125.698 18.4698L124.428 20.0198L122.898 18.7498L121.878 20.0198L120.328 18.7498L121.598 17.1998L123.128 18.4698L124.148 17.1998L125.698 18.4698ZM127.488 12.7398C127.488 13.1298 127.418 13.4998 127.278 13.8498C127.138 14.1998 126.898 14.4898 126.568 14.7098C126.218 14.9598 125.668 15.1398 124.938 15.2498C124.208 15.3698 123.078 15.4298 121.558 15.4298C121.518 15.4298 121.488 15.3698 121.458 15.2498C121.428 15.1298 121.418 14.9798 121.418 14.7998V13.4298C121.418 13.2598 121.428 13.1198 121.458 12.9898C121.488 12.8598 121.518 12.7998 121.558 12.7998C122.808 12.7998 123.728 12.7798 124.318 12.7398C124.908 12.6998 125.378 12.6098 125.708 12.4698L125.338 9.34976L127.338 9.00977C127.438 10.4998 127.488 11.7498 127.488 12.7398Z" fill="white"/>
<path d="M134.719 12.9887C134.749 13.1187 134.759 13.2687 134.759 13.4287V14.7988C134.759 14.9688 134.749 15.1087 134.719 15.2387C134.689 15.3687 134.659 15.4287 134.629 15.4287H134.159C133.879 15.4287 133.619 15.3688 133.379 15.2588C133.129 15.1488 132.919 14.9887 132.729 14.7787C132.669 15.8687 132.289 16.8388 131.579 17.6888C130.869 18.5388 129.709 19.3487 128.089 20.1287L126.699 18.1287C128.039 17.5287 129.009 16.9887 129.609 16.4987C130.209 16.0087 130.649 15.4987 130.929 14.9487L130.299 10.3787L132.379 9.96875L132.599 11.8988C132.639 12.2488 132.779 12.4887 133.009 12.6087C133.249 12.7287 133.629 12.7887 134.159 12.7887H134.629C134.629 12.7887 134.689 12.8488 134.719 12.9788V12.9887Z" fill="white"/>
<path d="M139.048 8.22883C139.468 8.35883 140.028 8.56883 140.718 8.85883C141.598 9.21883 142.358 9.49883 142.968 9.67883C143.588 9.85883 144.238 9.94882 144.928 9.94882L144.438 12.4388C143.758 12.5088 143.138 12.6688 142.568 12.9088C141.998 13.1588 141.338 13.4888 140.598 13.9088L139.768 14.3488C138.358 15.0688 136.788 15.4288 135.068 15.4288H134.628C134.628 15.4288 134.558 15.3688 134.528 15.2488C134.498 15.1288 134.488 14.9788 134.488 14.7988V13.4288C134.488 13.2588 134.498 13.1188 134.528 12.9888C134.558 12.8588 134.588 12.7988 134.628 12.7988H135.088C136.248 12.7988 137.478 12.6288 138.788 12.2988C139.008 12.2488 139.228 12.1788 139.478 12.0788C139.718 11.9788 139.948 11.8788 140.158 11.7888C140.718 11.5388 141.158 11.3888 141.468 11.3188C141.018 11.2288 140.428 11.0488 139.698 10.7888C139.238 10.6188 138.888 10.4988 138.648 10.4388C138.408 10.3688 138.178 10.3388 137.948 10.3388C137.678 10.3388 137.488 10.4188 137.378 10.5688C137.258 10.7188 137.178 10.9488 137.138 11.2588L135.608 10.9788C135.898 9.02883 136.628 8.05882 137.818 8.05882C138.218 8.05882 138.628 8.12883 139.048 8.25883V8.22883ZM139.048 3.29883L140.798 4.68883L139.458 6.30882L137.708 4.90883L139.048 3.29883Z" fill="white"/>
<path d="M147.31 5.11906C147.03 5.07906 146.87 5.05906 146.81 5.05906C146.67 5.05906 146.56 5.10906 146.47 5.20906C146.38 5.30906 146.3 5.49906 146.22 5.77906L144.82 5.42906C144.97 4.79906 145.13 4.31906 145.31 3.96906C145.49 3.61906 145.69 3.38906 145.93 3.24906C146.17 3.10906 146.46 3.03906 146.81 3.03906C147 3.03906 147.26 3.05906 147.61 3.10906C148.24 3.20906 148.87 3.25906 149.5 3.25906H150.43L150 5.25906H149.16C148.57 5.25906 147.96 5.20906 147.32 5.10906L147.31 5.11906ZM146.51 6.46906L148.59 6.12906V15.4291L146.87 15.6391L146.52 6.46906H146.51Z" fill="white"/>
<path d="M14.9292 31.0391C14.9692 31.2091 14.9892 31.4191 14.9892 31.6891V34.7391C14.9892 35.0091 14.9692 35.2291 14.9292 35.3891C14.8892 35.5491 14.8392 35.6391 14.7792 35.6391C13.3792 35.6391 12.4392 35.2191 11.9692 34.3691C11.8592 34.5891 11.7192 34.7791 11.5492 34.9491C11.3792 35.1191 11.2192 35.2191 11.0492 35.2891C10.7692 35.4091 10.3692 35.5091 9.83922 35.5891C9.30922 35.6691 8.71922 35.7091 8.04922 35.7091C6.18922 35.7091 4.70922 35.4491 3.60922 34.9191C2.50922 34.3891 1.94922 33.4291 1.94922 32.0391C1.94922 31.8291 1.98922 31.4491 2.06922 30.9191C2.14922 30.3791 2.33922 29.2991 2.63922 27.6791L5.40922 28.1691C5.22922 29.0891 5.12922 29.7391 5.12922 30.1091C5.12922 30.3691 5.38922 30.5591 5.92922 30.6791C6.45922 30.7991 7.18922 30.8691 8.10922 30.8691C9.22922 30.8691 10.1392 30.8291 10.8492 30.7491L10.5192 29.2291L13.7892 28.7991L13.8192 30.7891C13.9792 30.7891 14.2892 30.7991 14.7592 30.7991C14.8192 30.7991 14.8792 30.8791 14.9092 31.0491L14.9292 31.0391ZM11.8192 26.5791L10.2692 28.4591L8.67922 27.1391L7.42922 28.6391L5.55922 27.0691L7.10922 25.1891L8.69922 26.5191L9.94922 25.0191L11.8192 26.5691V26.5791ZM10.1392 24.0891L8.56922 25.9691L6.68922 24.4091L8.24922 22.5391L10.1292 24.0891H10.1392Z" fill="#FFCA1E"/>
<path d="M19.7503 33.4905C19.5403 33.9905 19.2503 34.4105 18.8703 34.7305C18.5103 35.0405 18.0403 35.2705 17.4603 35.4205C16.8803 35.5605 15.9903 35.6305 14.7803 35.6305C14.7203 35.6305 14.6603 35.5505 14.6303 35.3805C14.6003 35.2105 14.5703 35.0005 14.5703 34.7305V31.6805C14.5703 31.4105 14.5903 31.1905 14.6303 31.0305C14.6703 30.8705 14.7203 30.7805 14.7803 30.7805C15.7403 30.7805 16.4603 30.7405 16.9503 30.6605L16.4403 24.2105L19.9003 23.7305L20.0403 31.8305C20.0403 32.4405 19.9503 33.0005 19.7403 33.5005L19.7503 33.4905Z" fill="#FFCA1E"/>
<path d="M25.5295 31.0405C25.5695 31.2105 25.5895 31.4205 25.5895 31.6905V34.7405C25.5895 35.0105 25.5695 35.2305 25.5295 35.3905C25.4895 35.5505 25.4395 35.6405 25.3795 35.6405H24.8295C23.9995 35.6405 23.3295 35.4805 22.8195 35.1705C22.3095 34.8605 21.9295 34.3605 21.6795 33.6705C21.4295 32.9905 21.2795 32.0805 21.2395 30.9405L21.0195 24.2105L24.4795 23.7305L24.3395 29.8905C24.3395 30.2305 24.3695 30.4705 24.4695 30.6005C24.5695 30.7305 24.7795 30.7905 25.0995 30.7905H25.3795C25.4395 30.7905 25.4995 30.8705 25.5295 31.0405Z" fill="#FFCA1E"/>
<path d="M31.4084 25.3293L29.8584 27.2093L28.2684 25.8893L27.0184 27.3893L25.1484 25.8193L26.6984 23.9393L28.2884 25.2693L29.5384 23.7693L31.4084 25.3193V25.3293ZM30.4684 29.1293C30.5784 30.3793 30.6384 31.2793 30.6384 31.8293C30.6384 32.4493 30.5384 33.0093 30.3384 33.5093C30.1384 34.0093 29.8484 34.4193 29.4684 34.7393C29.1084 35.0493 28.6384 35.2793 28.0584 35.4293C27.4784 35.5693 26.5884 35.6393 25.3784 35.6393C25.3184 35.6393 25.2584 35.5593 25.2284 35.3893C25.1984 35.2193 25.1684 35.0093 25.1684 34.7393V31.6893C25.1684 31.4193 25.1884 31.1993 25.2284 31.0393C25.2684 30.8793 25.3184 30.7893 25.3784 30.7893C26.3384 30.7893 27.0284 30.7493 27.4384 30.6793L27.0384 28.3693L30.3584 27.6793L30.4684 29.1293ZM29.7384 22.8393L28.1684 24.7193L26.2884 23.1493L27.8484 21.2793L29.7284 22.8293L29.7384 22.8393Z" fill="#FFCA1E"/>
<path d="M52.8378 31.0398C52.8778 31.2098 52.8878 31.4198 52.8878 31.6898V34.7398C52.8878 35.0098 52.8678 35.2298 52.8378 35.3898C52.7978 35.5598 52.7478 35.6398 52.6878 35.6398C51.9278 35.6398 51.3278 35.5698 50.8878 35.4398C50.4478 35.3098 50.0878 35.0898 49.8178 34.7798C49.3178 35.0698 48.7278 35.2798 48.0478 35.4198C47.3678 35.5598 46.6578 35.6298 45.9278 35.6298C45.0178 35.6298 44.1378 35.4298 43.3078 35.0198C43.3278 35.4998 43.3278 35.8198 43.3178 35.9898C43.3178 36.8198 43.0578 37.4698 42.5278 37.9398C41.9978 38.4099 41.3878 38.7198 40.6978 38.8798C39.9978 39.0398 39.3178 39.1199 38.6578 39.1199C37.0778 39.1199 35.9078 38.8499 35.1478 38.2999C34.3878 37.7499 34.0078 36.9798 34.0078 35.9898C34.0078 35.4398 34.0578 34.6998 34.1578 33.7798C34.2578 32.8598 34.4378 31.6098 34.6978 30.0198L37.4678 30.4398C37.1778 32.3298 37.0378 33.4298 37.0378 33.7398C37.0378 33.8898 37.0578 33.9998 37.1078 34.0698C37.1578 34.1398 37.2778 34.1899 37.4778 34.2299C37.6778 34.2699 38.0078 34.2798 38.4678 34.2798C38.9278 34.2798 39.2978 34.2798 39.5178 34.2598C39.7378 34.2398 39.9978 34.2198 40.3078 34.1798L39.4778 29.8298L42.7178 29.0798L42.8878 30.6698C43.0278 30.6998 43.1278 30.7098 43.1878 30.7098C43.7578 29.7198 44.4578 28.8699 45.2778 28.1599C46.0978 27.4399 47.0578 27.0898 48.1478 27.0898C49.0478 27.0898 49.7778 27.3998 50.3578 28.0298C50.9378 28.6598 51.2878 29.5398 51.4178 30.6898C51.7378 30.7498 52.1678 30.7898 52.6878 30.7898C52.7478 30.7898 52.8078 30.8698 52.8378 31.0398ZM47.4078 31.3498C47.6778 31.3198 48.0078 31.2698 48.4178 31.1998C48.4178 30.7298 48.1978 30.4898 47.7678 30.4898C47.4878 30.4898 47.1878 30.5698 46.8778 30.7398C46.5678 30.9098 46.2778 31.1198 46.0278 31.3898H46.4478C46.8278 31.3898 47.1478 31.3698 47.4178 31.3398L47.4078 31.3498Z" fill="#FFCA1E"/>
<path d="M63.6387 31.0394C63.6787 31.2094 63.6888 31.4194 63.6888 31.6894V34.7394C63.6888 35.0094 63.6687 35.2294 63.6387 35.3894C63.5987 35.5594 63.5487 35.6394 63.4887 35.6394H61.9487C61.3787 35.6394 60.7787 35.5494 60.1387 35.3594C59.5087 35.1794 59.0387 34.8594 58.7487 34.4194L58.6087 34.4894C57.7687 34.9294 56.9787 35.2394 56.2387 35.3994C55.4987 35.5594 54.6888 35.6394 53.7988 35.6394H52.6787C52.6187 35.6394 52.5587 35.5594 52.5287 35.3894C52.4987 35.2194 52.4688 35.0094 52.4688 34.7394V31.6894C52.4688 31.4194 52.4887 31.1994 52.5287 31.0394C52.5687 30.8794 52.6187 30.7894 52.6787 30.7894H53.7887C55.5787 30.7894 56.7987 30.7594 57.4287 30.6894C57.7187 30.6594 58.1188 30.5894 58.6188 30.4694C58.6788 30.4894 58.4487 30.4294 57.9587 30.2894C57.3687 30.1294 57.0087 30.0494 56.8887 30.0494C56.7687 30.0494 56.6588 30.0894 56.5488 30.1794C56.4388 30.2694 56.3787 30.3994 56.3487 30.5694L53.7188 30.0194C53.8587 28.8694 54.1787 27.9694 54.6987 27.3294C55.2087 26.6894 55.8288 26.3694 56.5488 26.3694C57.0888 26.3694 57.5488 26.4294 57.9388 26.5594C58.3288 26.6794 58.8087 26.8794 59.3587 27.1294C59.9887 27.4294 60.5688 27.6694 61.1188 27.8294C61.6588 27.9894 62.3387 28.0694 63.1387 28.0694L62.5987 30.8494C62.7787 30.7894 62.9587 30.7694 63.1387 30.7694H63.4887C63.5487 30.7694 63.6087 30.8494 63.6387 31.0194V31.0394ZM57.8087 22.1194L59.8988 23.9294L58.0887 26.0994L55.9987 24.2994L57.8087 22.1094V22.1194Z" fill="#FFCA1E"/>
<path d="M75.3878 29.1905C75.4878 30.4505 75.5378 31.3105 75.5378 31.7505C75.5378 32.7205 75.3678 33.4905 75.0178 34.0705C74.6678 34.6505 74.2578 35.0505 73.7878 35.2805C73.3078 35.5105 72.8578 35.6305 72.4078 35.6305C71.0778 35.6305 70.2378 35.3005 69.8978 34.6505C69.5878 35.3105 68.8278 35.6305 67.6378 35.6305C67.1478 35.6305 66.7278 35.5505 66.3678 35.4005C66.0078 35.2505 65.7178 35.0405 65.5078 34.7805C65.1778 35.3405 64.4978 35.6205 63.4678 35.6205C63.4078 35.6205 63.3478 35.5405 63.3178 35.3705C63.2878 35.2005 63.2578 34.9905 63.2578 34.7205V31.6705C63.2578 31.4005 63.2778 31.1805 63.3178 31.0205C63.3578 30.8605 63.4078 30.7705 63.4678 30.7705C64.0378 30.7705 64.4278 30.7205 64.6478 30.6205V29.4305L67.5578 29.4005V30.2705C67.5678 30.4305 67.6078 30.5505 67.6878 30.6405C67.7678 30.7305 67.8778 30.7705 68.0278 30.7705C68.2178 30.7705 68.3878 30.7405 68.5278 30.6705L68.4278 29.1305L71.3378 28.9505V30.7205C71.4578 30.7505 71.6078 30.7605 71.7978 30.7605C71.9678 30.7605 72.1578 30.7305 72.3778 30.6605L71.9578 28.3105L75.2578 27.6405L75.3778 29.1605L75.3878 29.1905ZM72.8178 26.5405L71.2678 28.4205L69.6778 27.1005L68.4278 28.6005L66.5578 27.0405L68.1078 25.1605L69.6978 26.4905L70.9478 24.9905L72.8178 26.5405ZM71.1378 24.0405L69.5678 25.9205L67.6878 24.3505L69.2478 22.4805L71.1278 24.0305L71.1378 24.0405Z" fill="#FFCA1E"/>
<path d="M86.5406 31.0406C86.5806 31.2106 86.5906 31.4206 86.5906 31.6906V34.7405C86.5906 35.0105 86.5706 35.2305 86.5406 35.3905C86.5006 35.5605 86.4506 35.6405 86.3906 35.6405H86.1506C85.5006 35.6405 85.0006 35.5805 84.6506 35.4505C84.3006 35.3305 84.0406 35.1405 83.8706 34.8805C83.7006 34.6205 83.5706 34.2606 83.4706 33.7906V33.8605C83.3906 34.0806 83.2406 34.2505 82.9906 34.3505C82.7406 34.4605 82.4606 34.5205 82.1206 34.5406C81.7906 34.5606 81.3406 34.5705 80.7806 34.5705C80.4406 34.5705 80.1206 34.4605 79.8306 34.2405C79.5406 34.0205 79.3106 33.7306 79.1406 33.3706C78.9706 33.0106 78.8906 32.6306 78.8906 32.2306C78.8906 31.1406 78.9306 30.3906 79.0206 29.9706C79.1106 29.5506 79.3306 29.1705 79.6906 28.8205C80.0506 28.4705 80.7806 27.9005 81.8806 27.1005L81.7406 26.0605L84.8306 25.0605L85.3706 29.9106C85.4006 30.1806 85.4306 30.3706 85.4806 30.4806C85.5306 30.5906 85.6006 30.6605 85.6906 30.7005C85.7806 30.7405 85.9306 30.7606 86.1306 30.7606H86.3706C86.4306 30.7606 86.4906 30.8406 86.5206 31.0106L86.5406 31.0406ZM82.8706 30.8405L82.6606 30.0106C82.2006 30.1806 81.8906 30.3206 81.7306 30.4106C81.5706 30.5006 81.4406 30.6106 81.3506 30.7306C81.6306 30.8206 81.9106 30.8706 82.2106 30.8706C82.5506 30.8706 82.7706 30.8705 82.8806 30.8405H82.8706Z" fill="#FFCA1E"/>
<path d="M95.1975 31.0395C95.2375 31.2095 95.2475 31.4195 95.2475 31.6895V34.7395C95.2475 35.0095 95.2275 35.2295 95.1975 35.3895C95.1575 35.5595 95.1075 35.6395 95.0475 35.6395C94.8075 35.6395 94.5575 35.5395 94.2975 35.3495C94.0375 35.1595 93.8675 34.9095 93.7875 34.6195C93.7575 34.8295 93.4275 35.1895 92.7775 35.6995C92.5075 35.8995 92.2775 36.0595 92.0675 36.1595C91.8575 36.2595 91.6575 36.3095 91.4675 36.3095C91.2875 36.3095 91.1075 36.2695 90.9175 36.1895L88.6175 35.1695C88.0475 35.4895 87.3575 35.6495 86.5375 35.6495H86.3975C86.3375 35.6495 86.2775 35.5695 86.2475 35.3995C86.2175 35.2295 86.1875 35.0195 86.1875 34.7495V31.6995C86.1875 31.4295 86.2075 31.2095 86.2475 31.0495C86.2875 30.8895 86.3375 30.7995 86.3975 30.7995H86.6775C87.0575 30.7995 87.2875 30.7095 87.3675 30.5195C87.7275 29.6795 88.1875 29.0595 88.7375 28.6395C89.2875 28.2295 89.9675 28.0195 90.7575 28.0195C91.3575 28.0195 91.8975 28.1995 92.3775 28.5695C92.8575 28.9395 93.2275 29.3895 93.4975 29.9295C93.6375 30.2095 93.7675 30.3995 93.8875 30.5195C94.0075 30.6395 94.1475 30.7095 94.3075 30.7395C94.4675 30.7695 94.7175 30.7895 95.0475 30.7895C95.1075 30.7895 95.1675 30.8695 95.1975 31.0395ZM91.2175 32.1195C91.2175 31.8795 91.1475 31.6795 91.0075 31.5095C90.8675 31.3395 90.6875 31.2595 90.4775 31.2595C90.3675 31.2595 90.2575 31.3195 90.1475 31.4395C90.0375 31.5595 89.9475 31.7195 89.8675 31.9295L91.1875 32.4095C91.2175 32.3295 91.2275 32.2295 91.2275 32.1195H91.2175Z" fill="#FFCA1E"/>
<path d="M100.998 37.9101L99.3377 39.8501L97.6577 38.4101L96.2877 40.0201L94.3477 38.3601L96.0077 36.4201L97.6777 37.8601L99.0477 36.2501L100.988 37.9101H100.998ZM102.358 31.0401C102.398 31.2101 102.418 31.4201 102.418 31.6901V34.7401C102.418 35.0101 102.398 35.2301 102.358 35.3901C102.318 35.5501 102.268 35.6401 102.208 35.6401C101.358 35.6401 100.668 35.6101 100.148 35.5401C99.6277 35.4701 99.2077 35.3601 98.8877 35.1801C98.5677 35.0101 98.3277 34.7501 98.1777 34.4201C98.0477 34.7701 97.8677 35.0301 97.6277 35.2101C97.3877 35.3901 97.0777 35.5001 96.6877 35.5601C96.2977 35.6201 95.7477 35.6401 95.0377 35.6401C94.9777 35.6401 94.9177 35.5601 94.8877 35.3901C94.8577 35.2201 94.8277 35.0101 94.8277 34.7401V31.6901C94.8277 31.4201 94.8477 31.2001 94.8877 31.0401C94.9277 30.8801 94.9777 30.7901 95.0377 30.7901C95.9877 30.7901 96.6177 30.7801 96.9377 30.7501L96.5877 28.7301L99.8277 28.3301L99.8677 30.7701C100.198 30.7901 100.978 30.8001 102.198 30.8001C102.258 30.8001 102.318 30.8801 102.348 31.0501L102.358 31.0401Z" fill="#FFCA1E"/>
<path d="M107.3 29.1297C107.41 30.3797 107.47 31.2797 107.47 31.8297C107.47 32.4497 107.37 33.0097 107.17 33.5097C106.97 34.0097 106.68 34.4197 106.3 34.7397C105.94 35.0497 105.47 35.2797 104.89 35.4297C104.31 35.5697 103.42 35.6397 102.21 35.6397C102.15 35.6397 102.09 35.5597 102.06 35.3897C102.03 35.2197 102 35.0097 102 34.7397V31.6897C102 31.4197 102.02 31.1997 102.06 31.0397C102.1 30.8797 102.15 30.7897 102.21 30.7897C103.17 30.7897 103.86 30.7497 104.27 30.6797L103.87 28.3697L107.19 27.6797L107.3 29.1297ZM104.57 36.2397L106.66 38.0497L104.85 40.2197L102.76 38.4197L104.57 36.2297V36.2397Z" fill="#FFCA1E"/>
<path d="M118.508 33.1898C118.538 33.3198 118.548 33.4698 118.548 33.6298V34.9998C118.548 35.1798 118.538 35.3298 118.508 35.4498C118.478 35.5698 118.448 35.6298 118.408 35.6298H117.578C117.088 35.6298 116.658 35.5098 116.308 35.2598C115.948 35.0098 115.708 34.6898 115.578 34.2898L115.478 34.4998C115.338 34.7898 115.108 34.9698 114.788 35.0598C114.468 35.1498 113.988 35.1898 113.358 35.1898C112.728 35.1898 112.208 35.0398 111.858 34.7298C111.508 34.4198 111.328 33.9598 111.328 33.3398C111.328 32.6098 111.418 32.0098 111.608 31.5398C111.798 31.0698 112.108 30.6498 112.548 30.2898C112.988 29.9298 113.638 29.5498 114.478 29.1598L114.348 28.0698L116.218 27.5098L116.648 31.5798C116.688 31.9298 116.738 32.2098 116.788 32.3998C116.838 32.5898 116.948 32.7398 117.108 32.8498C117.268 32.9598 117.498 33.0098 117.818 33.0098H118.418C118.418 33.0098 118.488 33.0698 118.518 33.1998L118.508 33.1898ZM115.048 32.5398L114.828 31.0198C114.188 31.2998 113.728 31.5698 113.448 31.8498C113.158 32.1298 112.988 32.4198 112.918 32.7298C113.128 32.7998 113.368 32.8298 113.638 32.8298C113.988 32.8298 114.468 32.7298 115.048 32.5398Z" fill="white"/>
<path d="M127.867 33.1889C127.897 33.3189 127.907 33.4689 127.907 33.6289V34.9989C127.907 35.1789 127.897 35.3289 127.867 35.4489C127.837 35.5689 127.807 35.6289 127.767 35.6289C127.327 35.6289 126.897 35.5389 126.477 35.3589C126.057 35.1789 125.737 34.9089 125.497 34.5489L125.427 34.9889C125.397 35.1689 125.337 35.3189 125.247 35.4489C125.157 35.5789 124.977 35.7389 124.727 35.9489C124.537 36.0989 124.377 36.1989 124.247 36.2689C124.117 36.3289 123.987 36.3689 123.867 36.3689C123.777 36.3689 123.677 36.3489 123.557 36.2989L120.787 35.0489C120.567 35.2589 120.297 35.4089 119.957 35.4989C119.627 35.5889 119.207 35.6389 118.707 35.6389H118.417C118.417 35.6389 118.347 35.5789 118.317 35.4589C118.287 35.3389 118.277 35.1889 118.277 35.0089V33.6389C118.277 33.4689 118.287 33.3289 118.317 33.1989C118.347 33.0689 118.377 33.0089 118.417 33.0089H118.937C119.267 33.0089 119.517 32.9889 119.677 32.9489C119.837 32.9089 119.947 32.8389 120.027 32.7389C120.107 32.6389 120.197 32.4589 120.307 32.1989C120.697 31.2889 121.117 30.6289 121.567 30.2289C122.017 29.8289 122.577 29.6289 123.267 29.6289C124.247 29.6289 124.977 30.2689 125.437 31.5589C125.567 31.9189 125.697 32.1989 125.837 32.3889C125.977 32.5789 126.197 32.7289 126.497 32.8389C126.797 32.9489 127.227 32.9989 127.787 32.9989C127.827 32.9989 127.857 33.0589 127.887 33.1889H127.867ZM123.907 33.2189C123.907 32.8189 123.827 32.4889 123.677 32.2289C123.527 31.9789 123.297 31.8489 122.997 31.8489C122.737 31.8489 122.527 31.9289 122.367 32.0889C122.197 32.2489 121.977 32.5389 121.687 32.9689L123.807 33.9589C123.877 33.7489 123.907 33.5089 123.907 33.2189Z" fill="white"/>
<path d="M131.921 38.669L130.651 40.219L129.121 38.949L128.101 40.219L126.551 38.949L127.821 37.399L129.351 38.669L130.371 37.399L131.921 38.669ZM133.701 32.939C133.701 33.329 133.631 33.699 133.491 34.049C133.351 34.399 133.111 34.689 132.781 34.909C132.431 35.159 131.881 35.339 131.151 35.449C130.421 35.569 129.291 35.629 127.771 35.629C127.731 35.629 127.701 35.569 127.671 35.449C127.641 35.329 127.631 35.179 127.631 34.999V33.629C127.631 33.459 127.641 33.319 127.671 33.189C127.701 33.059 127.731 32.999 127.771 32.999C129.021 32.999 129.941 32.979 130.531 32.939C131.121 32.899 131.591 32.809 131.921 32.669L131.551 29.549L133.551 29.209C133.651 30.699 133.701 31.949 133.701 32.939Z" fill="white"/>
<path d="M140.938 33.1899C140.968 33.3199 140.978 33.4699 140.978 33.6299V34.9999C140.978 35.1699 140.968 35.3099 140.938 35.4399C140.908 35.5699 140.878 35.6299 140.848 35.6299H140.378C140.098 35.6299 139.838 35.5699 139.598 35.4599C139.348 35.3499 139.138 35.1899 138.948 34.9799C138.888 36.0699 138.508 37.0399 137.798 37.8899C137.088 38.7399 135.928 39.5499 134.308 40.3299L132.918 38.3299C134.258 37.7299 135.228 37.1899 135.828 36.6999C136.428 36.2099 136.868 35.6999 137.148 35.1499L136.518 30.5799L138.598 30.1699L138.818 32.0999C138.858 32.4499 138.998 32.6899 139.228 32.8099C139.468 32.9299 139.848 32.9899 140.378 32.9899H140.848C140.848 32.9899 140.908 33.0499 140.938 33.1799V33.1899Z" fill="white"/>
<path d="M145.259 28.4395C145.679 28.5695 146.239 28.7795 146.929 29.0695C147.809 29.4295 148.569 29.7095 149.179 29.8895C149.799 30.0695 150.449 30.1595 151.139 30.1595L150.649 32.6495C149.969 32.7195 149.349 32.8795 148.779 33.1195C148.209 33.3695 147.549 33.6995 146.809 34.1195L145.979 34.5595C144.569 35.2795 142.999 35.6395 141.279 35.6395H140.839C140.839 35.6395 140.769 35.5795 140.739 35.4595C140.709 35.3395 140.699 35.1895 140.699 35.0095V33.6395C140.699 33.4695 140.709 33.3295 140.739 33.1995C140.769 33.0695 140.799 33.0095 140.839 33.0095H141.299C142.459 33.0095 143.689 32.8395 144.999 32.5095C145.219 32.4595 145.439 32.3895 145.689 32.2895C145.929 32.1895 146.159 32.0895 146.369 31.9995C146.929 31.7495 147.369 31.5995 147.679 31.5295C147.229 31.4395 146.639 31.2595 145.909 30.9995C145.449 30.8295 145.099 30.7095 144.859 30.6495C144.619 30.5795 144.389 30.5495 144.159 30.5495C143.889 30.5495 143.699 30.6295 143.589 30.7795C143.469 30.9295 143.389 31.1595 143.349 31.4695L141.819 31.1895C142.109 29.2395 142.839 28.2695 144.029 28.2695C144.429 28.2695 144.839 28.3395 145.259 28.4695V28.4395ZM145.739 36.9895L147.489 38.3795L146.149 39.9995L144.399 38.5995L145.739 36.9895Z" fill="white"/>
</g>
<defs>
<filter id="filter0_d_8532_28" x="0.949219" y="0.599609" width="153.191" height="42.7305" filterUnits="userSpaceOnUse" color-interpolation-filters="sRGB">
<feFlood flood-opacity="0" result="BackgroundImageFix"/>
<feColorMatrix in="SourceAlpha" type="matrix" values="0 0 0 0 0 0 0 0 0 0 0 0 0 0 0 0 0 0 127 0" result="hardAlpha"/>
<feOffset dx="1" dy="1"/>
<feGaussianBlur stdDeviation="1"/>
<feColorMatrix type="matrix" values="0 0 0 0 0.00392157 0 0 0 0 0.00392157 0 0 0 0 0.266667 0 0 0 0.75 0"/>
<feBlend mode="normal" in2="BackgroundImageFix" result="effect1_dropShadow_8532_28"/>
<feBlend mode="normal" in="SourceGraphic" in2="effect1_dropShadow_8532_28" result="shape"/>
</filter>
</defs>
</svg>
