<svg width="229" height="54" viewBox="0 0 229 54" fill="none" xmlns="http://www.w3.org/2000/svg">
<path d="M10.75 0L0 26.78H10.75V0Z" fill="#377EAA"/>
<path d="M11.2188 0.5H222.419C225.589 0.5 228.169 3.08 228.169 6.25V47.42C228.169 50.59 225.589 53.17 222.419 53.17H16.9688C13.7987 53.17 11.2188 50.59 11.2188 47.42V0.5Z" fill="white" stroke="#377EAA" stroke-miterlimit="10"/>
<path d="M44.6694 8.96094H23.8294C22.051 8.96094 20.6094 10.4026 20.6094 12.1809V42.1209C20.6094 43.8993 22.051 45.3409 23.8294 45.3409H44.6694C46.4477 45.3409 47.8894 43.8993 47.8894 42.1209V12.1809C47.8894 10.4026 46.4477 8.96094 44.6694 8.96094Z" fill="#377EAA" stroke="white" stroke-miterlimit="10"/>
<path d="M76.1186 8.90039H55.2786C53.5002 8.90039 52.0586 10.342 52.0586 12.1204V42.0604C52.0586 43.8388 53.5002 45.2804 55.2786 45.2804H76.1186C77.8969 45.2804 79.3386 43.8388 79.3386 42.0604V12.1204C79.3386 10.342 77.8969 8.90039 76.1186 8.90039Z" fill="#377EAA" stroke="white" stroke-miterlimit="10"/>
<path d="M114.388 8.99023H93.5481C91.7698 8.99023 90.3281 10.4319 90.3281 12.2102V42.1502C90.3281 43.9286 91.7698 45.3702 93.5481 45.3702H114.388C116.166 45.3702 117.608 43.9286 117.608 42.1502V12.2102C117.608 10.4319 116.166 8.99023 114.388 8.99023Z" fill="#377EAA" stroke="white" stroke-miterlimit="10"/>
<path d="M145.837 8.92969H124.997C123.219 8.92969 121.777 10.3713 121.777 12.1497V42.0897C121.777 43.868 123.219 45.3097 124.997 45.3097H145.837C147.616 45.3097 149.057 43.868 149.057 42.0897V12.1497C149.057 10.3713 147.616 8.92969 145.837 8.92969Z" fill="#377EAA" stroke="white" stroke-miterlimit="10"/>
<path d="M184.119 9.01953H163.279C161.5 9.01953 160.059 10.4612 160.059 12.2395V42.1795C160.059 43.9579 161.5 45.3995 163.279 45.3995H184.119C185.897 45.3995 187.339 43.9579 187.339 42.1795V12.2395C187.339 10.4612 185.897 9.01953 184.119 9.01953Z" fill="#377EAA" stroke="white" stroke-miterlimit="10"/>
<path d="M215.568 8.96094H194.728C192.949 8.96094 191.508 10.4026 191.508 12.1809V42.1209C191.508 43.8993 192.949 45.3409 194.728 45.3409H215.568C217.346 45.3409 218.788 43.8993 218.788 42.1209V12.1809C218.788 10.4026 217.346 8.96094 215.568 8.96094Z" fill="#377EAA" stroke="white" stroke-miterlimit="10"/>
</svg>
