<svg width="231" height="20" viewBox="0 0 231 20" fill="none" xmlns="http://www.w3.org/2000/svg">
<g filter="url(#filter0_d_12734_68)">
<path d="M6.28424 12.5025L6.15367 11.2783L6.28424 10.0705H6.48011C7.97088 10.0705 9.09712 9.93447 9.85882 9.66243C10.6314 9.37951 11.1428 8.94425 11.3931 8.35665C11.4149 7.98668 11.3169 7.63847 11.0993 7.31202C10.8817 6.9747 10.5824 6.80603 10.2016 6.80603C9.86426 6.80603 9.57046 6.94205 9.32019 7.21409C9.06991 7.48613 8.92301 7.79081 8.87949 8.12814C8.90125 8.41106 9.04271 8.68854 9.30387 8.96057C9.56502 9.22173 9.94043 9.43936 10.4301 9.61346C10.9198 9.78757 11.4965 9.87462 12.1603 9.87462H14.0536L14.1842 11.0988L14.0536 12.3066H13.0743C11.9535 12.3066 10.9415 12.1271 10.0384 11.768C9.1352 11.4089 8.4279 10.9301 7.91647 10.3316C7.40504 9.72228 7.14932 9.06395 7.14932 8.35665C7.14932 8.2696 7.16021 8.12814 7.18197 7.93227C7.2799 7.27938 7.48121 6.68634 7.78589 6.15314C8.09058 5.61995 8.46599 5.19557 8.91213 4.88C9.35827 4.56444 9.83162 4.40666 10.3322 4.40666C10.8871 4.40666 11.3768 4.5862 11.8012 4.94529C12.2256 5.2935 12.552 5.74508 12.7805 6.30004C13.009 6.855 13.1233 7.42084 13.1233 7.99756C13.1233 8.23695 13.1124 8.4165 13.0906 8.53619C12.9056 9.84198 12.2473 10.8322 11.1156 11.5068C9.99484 12.1706 8.44967 12.5025 6.48011 12.5025H6.28424ZM2.23632 6.49591C1.9534 7.37731 1.81194 8.04108 1.81194 8.48723C1.81194 8.78103 1.98604 9.04763 2.33425 9.28702C2.69334 9.52641 3.21566 9.71684 3.90119 9.8583C4.59761 9.99976 5.44093 10.0705 6.43114 10.0705C6.45291 10.3425 6.46379 10.7451 6.46379 11.2783C6.46379 11.8224 6.45291 12.2305 6.43114 12.5025C4.48335 12.5134 2.94906 12.2196 1.82826 11.6211C0.718346 11.0226 0.114422 10.1847 0.0164882 9.10747C0.00560674 9.02042 0.000165986 8.88984 0.000165986 8.71574C0.000165986 8.24783 0.0654551 7.74184 0.196033 7.19777C0.326612 6.65369 0.484394 6.16946 0.669379 5.74508L2.23632 6.49591ZM8.89581 1.99096L10.4138 0.48931L11.9154 1.99096L11.4094 2.49695C11.083 2.83428 10.7511 3.16616 10.4138 3.49261L8.89581 1.99096ZM13.8983 9.87462H14.0126C14.9919 9.87462 15.721 9.82565 16.1998 9.72772C16.6786 9.61891 16.9941 9.46112 17.1465 9.25437C17.2988 9.04763 17.375 8.74838 17.375 8.35665C17.375 8.04108 17.3206 7.52421 17.2118 6.80603L18.8929 6.47959C19.0453 7.27394 19.1215 8.17166 19.1215 9.17276C19.165 9.35775 19.2847 9.52097 19.4806 9.66243C19.6764 9.80389 19.9593 9.87462 20.3293 9.87462H20.4272L20.5578 11.0988L20.4272 12.3066H20.3293C19.8288 12.3066 19.3663 12.1706 18.9419 11.8986C18.5175 11.6157 18.1857 11.262 17.9463 10.8376L18.3543 10.9192C18.0605 11.4198 17.5817 11.7789 16.918 11.9965C16.2651 12.2033 15.2966 12.3066 14.0126 12.3066H13.8983V9.87462ZM13.8983 13.6777L15.2531 15.0488C14.9593 15.3535 14.66 15.6527 14.3554 15.9465L13.8983 16.4035L13.2291 15.718L12.5436 15.0488L13.8983 13.6777ZM16.7547 13.6777L18.1095 15.0488C17.8157 15.3535 17.5164 15.6527 17.2118 15.9465L16.7547 16.4035L16.0855 15.718L15.4 15.0488L16.7547 13.6777ZM20.242 9.87462H20.6337C21.7001 9.87462 22.5488 9.83109 23.18 9.74404C23.822 9.64611 24.3171 9.48833 24.6653 9.2707C25.0244 9.05307 25.291 8.74838 25.4651 8.35665C25.4869 7.98668 25.3835 7.63847 25.155 7.31202C24.9373 6.9747 24.6381 6.80603 24.2572 6.80603C23.9199 6.80603 23.6261 6.94205 23.3758 7.21409C23.1256 7.48613 22.9841 7.79081 22.9515 8.12814C22.9732 8.41106 23.1147 8.68854 23.3758 8.96057C23.637 9.22173 24.0124 9.43936 24.5021 9.61346C24.9917 9.78757 25.5685 9.87462 26.2322 9.87462H28.1256L28.2562 11.0988L28.1256 12.3066H27.1463C26.0146 12.3066 24.9972 12.1271 24.094 11.768C23.1909 11.4089 22.4836 10.9247 21.9721 10.3153C21.4607 9.70596 21.205 9.04763 21.205 8.34033C21.205 8.26416 21.2159 8.12814 21.2376 7.93227C21.3356 7.27938 21.5369 6.68634 21.8415 6.15314C22.1571 5.60907 22.538 5.18469 22.9841 4.88C23.4302 4.56444 23.9036 4.40666 24.4041 4.40666C24.9591 4.40666 25.4488 4.5862 25.8731 4.94529C26.2975 5.30438 26.624 5.76141 26.8525 6.31636C27.081 6.87132 27.1953 7.43716 27.1953 8.01388C27.1953 8.14446 27.1844 8.31856 27.1626 8.53619C26.9776 9.83109 26.3465 10.7832 25.2692 11.3926C24.192 12.002 22.6468 12.3066 20.6337 12.3066H20.242V9.87462ZM22.7882 1.99096L24.3062 0.48931L25.8079 1.99096L25.3019 2.49695C24.9754 2.83428 24.6435 3.16616 24.3062 3.49261L22.7882 1.99096ZM40.4122 9.87462L40.5428 11.0988L40.4122 12.3066H40.249C37.8659 12.2958 36.3915 11.3872 35.8257 9.58082L37.0662 8.45458C37.1206 8.67221 37.2566 8.89528 37.4742 9.1238C37.7027 9.34143 37.9965 9.52097 38.3556 9.66243C38.7256 9.80389 39.1445 9.87462 39.6124 9.87462H40.4122ZM27.893 9.87462H29.1172C30.4012 9.87462 31.6036 9.73316 32.7244 9.45024C33.8561 9.16732 35.0585 8.68854 36.3316 8.01388C37.2348 7.54598 37.8931 7.24673 38.3066 7.11616L38.3719 8.82999C37.7952 8.76471 37.2403 8.64501 36.7071 8.4709C36.1739 8.2968 35.5482 8.02476 34.83 7.65479C33.8724 7.16512 33.04 6.92029 32.3327 6.92029C31.9192 6.92029 31.5492 7.03454 31.2228 7.26306C30.9072 7.48069 30.6624 7.73096 30.4883 8.01388L29.1172 7.01822C29.9442 5.39688 31.0378 4.5862 32.398 4.5862C32.855 4.5862 33.2957 4.66237 33.7201 4.81471C34.1445 4.96706 34.7647 5.24998 35.5808 5.66347C36.212 5.98992 36.7451 6.24019 37.1804 6.4143C37.6265 6.5884 38.1162 6.72986 38.6494 6.83868L38.731 9.02586C38.4372 9.11291 37.8605 9.39039 37.0009 9.8583C36.9356 9.90182 36.8757 9.93991 36.8213 9.97255C36.7669 9.99432 36.7179 10.0161 36.6744 10.0378C35.5971 10.6037 34.6613 11.0444 33.867 11.3599C33.0726 11.6755 32.262 11.9149 31.435 12.0781C30.608 12.2305 29.6722 12.3066 28.6275 12.3066H27.893V9.87462ZM31.0759 1.94199L32.5938 0.440343L34.0955 1.94199L33.5895 2.44798C33.2631 2.78531 32.9312 3.1172 32.5938 3.44364L31.0759 1.94199ZM40.2626 9.87462H41.0461C42.1234 9.87462 42.8851 9.78213 43.3312 9.59714C43.7774 9.41216 44.0004 9.12924 44.0004 8.74838C43.9896 8.50899 43.8644 8.05197 43.625 7.37731C43.3856 6.69178 43.2115 6.23475 43.1027 6.00624L44.8329 5.05955C45.0505 5.51657 45.2681 6.12594 45.4858 6.88764C45.7034 7.63847 45.8122 8.2968 45.8122 8.86264C45.8013 9.97255 45.4259 10.8268 44.686 11.4252C43.946 12.0128 42.8524 12.3066 41.4052 12.3066H40.2626V9.87462ZM41.7806 1.69716L43.1354 3.06823C42.8416 3.37291 42.5423 3.67215 42.2376 3.96596L41.7806 4.42298L41.1114 3.73744L40.4259 3.06823L41.7806 1.69716ZM44.637 1.69716L45.9918 3.06823C45.698 3.37291 45.3987 3.67215 45.094 3.96596L44.637 4.42298L43.9678 3.73744L43.2823 3.06823L44.637 1.69716ZM55.942 3.01926L58.1781 8.30768C58.3305 8.67765 58.4991 8.92793 58.6841 9.05851C58.88 9.1782 59.1792 9.23805 59.5818 9.23805H59.794L59.9573 10.7723L59.794 12.3066H59.5818C58.8093 12.3066 58.1727 12.0836 57.6721 11.6374C57.1716 11.1804 56.7091 10.4677 56.2847 9.49921L53.918 4.11286L55.942 3.01926ZM51.5023 8.87896C51.8396 9.04218 52.2096 9.18909 52.6122 9.31966C53.0257 9.43936 53.5263 9.49921 54.1139 9.49921C54.6253 9.49921 55.0606 9.4448 55.4197 9.33599C55.7787 9.21629 56.0562 9.08571 56.2521 8.94425C56.448 8.80279 56.5731 8.67765 56.6275 8.56884L57.9986 10.3316C57.7809 10.7669 57.3892 11.2239 56.8234 11.7027C56.2684 12.1706 55.4686 12.4046 54.424 12.4046C53.0747 12.4046 51.7526 11.9421 50.4577 11.0172L51.5023 8.87896ZM59.5971 9.23805H59.8257C60.3044 9.23805 60.6907 9.13468 60.9845 8.92793C61.2783 8.7103 61.5068 8.37841 61.6701 7.93227C61.8333 7.48613 61.9748 6.8822 62.0945 6.1205L64.1184 6.54488C64.0422 7.07807 64.0042 7.47525 64.0042 7.7364C64.0042 8.19343 64.0858 8.5634 64.249 8.84632C64.4122 9.12924 64.6897 9.34143 65.0814 9.48289C65.484 9.61346 66.0444 9.67875 66.7626 9.67875C67.6549 9.67875 68.4547 9.58082 69.162 9.38495C69.8802 9.18909 70.4406 8.94969 70.8432 8.66677C71.2458 8.37297 71.458 8.10093 71.4798 7.85066C71.4906 7.69832 71.3927 7.55686 71.186 7.42628C70.9901 7.28482 70.7181 7.21409 70.3698 7.21409C69.4993 7.21409 68.6016 7.57862 67.6767 8.30768C66.7517 9.02586 65.9356 10.0378 65.2283 11.3436L63.7267 10.1031C64.5754 8.30768 65.5602 6.89853 66.681 5.87566C67.8127 4.8528 68.9498 4.34137 70.0924 4.34137C70.7561 4.34137 71.3437 4.48827 71.8552 4.78207C72.3775 5.06499 72.7855 5.46761 73.0793 5.98992C73.3731 6.50135 73.52 7.07807 73.52 7.72008C73.52 8.73206 73.2371 9.61346 72.6713 10.3643C72.1054 11.1042 71.3165 11.6701 70.3046 12.0618C69.2926 12.4535 68.1337 12.6494 66.8279 12.6494C65.8921 12.6494 65.0869 12.4971 64.4122 12.1924C63.7376 11.8768 63.1989 11.4252 62.7963 10.8376C62.089 11.817 61.0988 12.3066 59.8257 12.3066H59.5971V9.23805ZM71.889 14.5591C72.618 14.2327 73.2872 13.8736 73.8966 13.4818C74.5169 13.101 75.0065 12.7419 75.3656 12.4046C75.7356 12.0672 75.9206 11.8006 75.9206 11.6048C75.9206 11.1695 75.5832 9.87462 74.9086 7.72008L77.1121 6.83868C77.3841 7.5895 77.5963 8.38929 77.7487 9.23805C77.901 10.0759 77.9772 10.8648 77.9772 11.6048C77.9772 12.7365 77.5528 13.7702 76.704 14.706C75.8553 15.6418 74.6801 16.4471 73.1784 17.1217L71.889 14.5591ZM80.0185 8.87896C80.3885 9.04218 80.7802 9.18909 81.1937 9.31966C81.6072 9.43936 82.086 9.49921 82.63 9.49921C83.2068 9.48833 83.6801 9.43392 84.0501 9.33599C84.4309 9.23805 84.6921 9.12924 84.8336 9.00954C84.5398 7.94315 83.3972 6.75707 81.4059 5.45128L82.8586 2.75811C84.1535 3.62863 85.1872 4.62429 85.9598 5.74508C86.7324 6.855 87.1187 7.92683 87.1187 8.96057C87.1187 9.4176 87.0262 9.87462 86.8412 10.3316C86.5583 11.0063 86.0523 11.5232 85.3232 11.8823C84.5942 12.2305 83.7998 12.4046 82.9402 12.4046C81.4276 12.4046 80.1055 11.9421 78.9739 11.0172L80.0185 8.87896ZM92.0068 12.3066C92.0286 11.5885 92.0395 11.0661 92.0395 10.7397C92.0395 9.04218 91.9415 7.52421 91.7457 6.18579C91.4954 4.32505 91.0928 2.76355 90.5378 1.50129L92.6271 0.195509C93.3779 1.68628 93.8621 3.55246 94.0797 5.79405C94.2103 7.04543 94.2756 8.39473 94.2756 9.84198C94.2756 10.6363 94.2593 11.4579 94.2266 12.3066H92.0068ZM98.6156 1.2891C98.8223 1.8223 98.9801 2.20315 99.0889 2.43166C99.2086 2.66017 99.3827 2.84516 99.6112 2.98662C99.8397 3.12808 100.161 3.19881 100.574 3.19881C101.532 3.19881 102.011 2.58944 102.011 1.37071C102.011 1.16396 101.994 0.930012 101.962 0.668855L104.018 0.228154C104.116 0.696059 104.165 1.17485 104.165 1.66451C104.165 2.46975 104.029 3.22057 103.757 3.91699C103.496 4.61341 103.093 5.1738 102.549 5.59818C102.016 6.01168 101.358 6.21843 100.574 6.21843C99.6928 6.21843 98.9202 5.84846 98.2565 5.10852C97.6036 4.35769 97.0813 3.42188 96.6895 2.30108L98.6156 1.2891ZM97.522 12.3066C97.5437 11.5885 97.5546 11.0661 97.5546 10.7397C97.5546 9.04218 97.4567 7.52421 97.2608 6.18579C97.0105 4.32505 96.6079 2.76355 96.053 1.50129L98.1422 0.195509C98.893 1.68628 99.3773 3.55246 99.5949 5.79405C99.7255 7.04543 99.7908 8.39473 99.7908 9.84198C99.7908 10.6363 99.7744 11.4579 99.7418 12.3066H97.522ZM111.277 0.228154C111.386 1.0225 111.473 2.09977 111.538 3.45996C111.604 4.80927 111.636 6.06065 111.636 7.21409V7.83434C111.626 8.38929 111.653 8.80823 111.718 9.09115C111.783 9.37407 111.914 9.57538 112.11 9.69508C112.316 9.81477 112.632 9.87462 113.056 9.87462H113.138L113.269 11.0988L113.138 12.3066H113.056C111.859 12.3066 110.994 11.9639 110.461 11.2783C109.939 10.5928 109.678 9.54818 109.678 8.14446C109.667 6.80603 109.623 5.45128 109.547 4.08021C109.482 2.69826 109.384 1.56114 109.253 0.668855L111.277 0.228154ZM112.98 9.87462H113.845C114.628 9.87462 115.189 9.78757 115.526 9.61346C115.874 9.43936 116.048 9.1782 116.048 8.82999C116.048 8.60148 115.934 8.15534 115.705 7.49157C115.477 6.81691 115.297 6.3218 115.167 6.00624L116.881 5.05955C117.087 5.51657 117.3 6.13138 117.517 6.90397C117.746 7.66567 117.86 8.33489 117.86 8.91161C117.86 10.0215 117.512 10.8648 116.815 11.4416C116.13 12.0183 115.14 12.3066 113.845 12.3066H112.98V9.87462ZM112.719 15.0814L114.236 13.5798L115.738 15.0814L115.232 15.5874C114.906 15.9247 114.574 16.2566 114.236 16.5831L112.719 15.0814ZM129.148 12.5025C129.137 12.2305 129.132 11.8279 129.132 11.2947C129.132 10.7506 129.137 10.3425 129.148 10.0705C130.574 10.0705 131.678 9.98344 132.461 9.80933C133.256 9.62435 133.86 9.33054 134.273 8.92793C134.687 8.52531 135.035 7.93771 135.318 7.16512L137.015 7.36099C136.809 7.97036 136.705 8.46546 136.705 8.84632C136.705 9.53185 137.064 9.87462 137.783 9.87462L137.913 11.0825L137.783 12.3066C137.336 12.3066 136.923 12.2087 136.542 12.0128C136.161 11.8061 135.856 11.5232 135.628 11.1641C135.41 10.805 135.302 10.3969 135.302 9.93991L135.628 10.0052C134.953 10.941 134.105 11.5939 133.082 11.9639C132.059 12.323 130.748 12.5025 129.148 12.5025ZM125.084 6.49591C124.801 7.37731 124.659 8.04108 124.659 8.48723C124.659 8.78103 124.834 9.04763 125.182 9.28702C125.541 9.52641 126.063 9.71684 126.749 9.8583C127.445 9.99976 128.288 10.0705 129.279 10.0705C129.3 10.3425 129.311 10.7451 129.311 11.2783C129.311 11.8224 129.3 12.2305 129.279 12.5025C127.331 12.5134 125.797 12.2196 124.676 11.6211C123.566 11.0226 122.962 10.1847 122.864 9.10747C122.853 9.02042 122.848 8.88984 122.848 8.71574C122.848 8.24783 122.913 7.74184 123.043 7.19777C123.174 6.65369 123.332 6.16946 123.517 5.74508L125.084 6.49591ZM129.752 2.41534L130.911 3.5579L129.752 4.70046L129.377 4.32505C129.115 4.07477 128.86 3.81906 128.609 3.5579L129.752 2.41534ZM131.286 4.19447C131.732 4.61885 132.168 5.05411 132.592 5.50025L131.286 6.80603C130.862 6.35989 130.427 5.92463 129.98 5.50025L131.286 4.19447ZM128.218 4.19447C128.664 4.61885 129.099 5.05411 129.523 5.50025L128.218 6.80603C127.793 6.35989 127.358 5.92463 126.912 5.50025L128.218 4.19447ZM137.622 9.87462H141.018L141.148 11.0988L141.018 12.3066H137.622V9.87462ZM140.858 9.87462H141.364C141.93 9.87462 142.338 9.76037 142.588 9.53185C142.85 9.30334 142.98 8.94969 142.98 8.4709C142.969 7.72008 142.904 6.39798 142.784 4.50459C142.675 2.60032 142.578 1.32175 142.49 0.668855L144.531 0.228154C144.607 0.870163 144.689 2.19227 144.776 4.19447C144.874 6.18579 144.923 7.56774 144.923 8.34033C144.923 9.08027 144.77 9.75492 144.465 10.3643C144.172 10.9628 143.758 11.4361 143.225 11.7843C142.692 12.1325 142.088 12.3066 141.413 12.3066H140.858V9.87462ZM148.481 0.228154C148.589 1.0225 148.676 2.09977 148.742 3.45996C148.807 4.80927 148.84 6.06065 148.84 7.21409V7.83434C148.829 8.38929 148.856 8.80823 148.921 9.09115C148.987 9.37407 149.117 9.57538 149.313 9.69508C149.52 9.81477 149.835 9.87462 150.26 9.87462H150.341L150.472 11.0988L150.341 12.3066H150.26C149.063 12.3066 148.198 11.9639 147.665 11.2783C147.142 10.5928 146.881 9.54818 146.881 8.14446C146.87 6.80603 146.827 5.45128 146.75 4.08021C146.685 2.69826 146.587 1.56114 146.457 0.668855L148.481 0.228154ZM150.183 9.87462H150.966C152.044 9.87462 152.805 9.78213 153.252 9.59714C153.698 9.41216 153.921 9.12924 153.921 8.74838C153.91 8.50899 153.785 8.05197 153.545 7.37731C153.306 6.69178 153.132 6.23475 153.023 6.00624L154.753 5.05955C154.971 5.51657 155.188 6.12594 155.406 6.88764C155.624 7.63847 155.733 8.2968 155.733 8.86264C155.722 9.97255 155.346 10.8268 154.606 11.4252C153.866 12.0128 152.773 12.3066 151.326 12.3066H150.183V9.87462ZM153.219 -0.000357856L154.378 1.1422L153.219 2.28476L152.844 1.90935C152.582 1.65907 152.327 1.40336 152.076 1.1422L153.219 -0.000357856ZM154.753 1.77877C155.199 2.20315 155.635 2.63841 156.059 3.08455L154.753 4.39034C154.329 3.94419 153.894 3.50893 153.447 3.08455L154.753 1.77877ZM151.685 1.77877C152.131 2.20315 152.566 2.63841 152.99 3.08455L151.685 4.39034C151.26 3.94419 150.825 3.50893 150.379 3.08455L151.685 1.77877ZM166.368 3.39468C166.619 5.72332 166.793 7.25762 166.891 7.99756C166.956 8.54163 167.032 8.94425 167.119 9.20541C167.217 9.46656 167.353 9.64611 167.527 9.74404C167.712 9.83109 167.979 9.87462 168.327 9.87462H168.604L168.735 11.0988L168.604 12.3066H168.327C167.359 12.3066 166.613 12.002 166.091 11.3926C165.579 10.7723 165.237 9.74948 165.063 8.324L164.948 7.45892L164.475 3.80273L166.368 3.39468ZM166.123 11.1804C165.427 11.4089 164.747 11.5232 164.083 11.5232C163.104 11.5232 162.299 11.2892 161.667 10.8213C161.047 10.3425 160.737 9.69508 160.737 8.87896C160.737 7.87786 161.129 7.03454 161.912 6.34901C162.707 5.66347 163.757 5.08131 165.063 4.60252L165.52 6.72442C164.79 6.89853 164.116 7.15424 163.496 7.49157C162.886 7.81801 162.565 8.12814 162.533 8.42194C162.511 8.66133 162.631 8.86264 162.892 9.02586C163.153 9.1782 163.512 9.25437 163.969 9.25437C164.502 9.25437 165.063 9.13468 165.65 8.89528L166.123 11.1804ZM168.418 9.87462H171.813L171.944 11.0988L171.813 12.3066H168.418V9.87462ZM171.654 9.87462H171.997C172.834 9.87462 173.531 9.36319 174.086 8.34033C174.641 7.33923 175.174 6.58296 175.685 6.07153C176.197 5.5601 176.757 5.30438 177.367 5.30438C178.03 5.30438 178.574 5.52201 178.999 5.95727C179.423 6.39253 179.777 7.0291 180.06 7.86698C180.31 8.62869 180.517 9.15644 180.68 9.45024C180.854 9.73316 181.061 9.87462 181.3 9.87462H181.496L181.627 11.0988L181.496 12.3066H181.3C180.963 12.3066 180.653 12.2196 180.37 12.0455C180.087 11.8605 179.848 11.6048 179.652 11.2783C179.576 11.4633 179.467 11.632 179.325 11.7843C179.184 11.9367 179.026 12.0618 178.852 12.1597C178.623 12.3121 178.33 12.3883 177.971 12.3883C177.144 12.3883 176.039 11.953 174.657 11.0825C174.32 11.496 173.923 11.8061 173.466 12.0128C173.009 12.2087 172.508 12.3066 171.964 12.3066H171.654V9.87462ZM175.685 9.15644C176.229 9.54818 176.757 9.83654 177.269 10.0215C177.791 10.2065 178.21 10.299 178.525 10.299C178.623 10.299 178.689 10.2936 178.721 10.2827C178.732 10.2283 178.738 10.1358 178.738 10.0052C178.738 9.66787 178.678 9.30334 178.558 8.91161C178.449 8.51987 178.281 8.18799 178.052 7.91595C177.835 7.63303 177.579 7.49157 177.285 7.49157C176.795 7.49157 176.262 8.04653 175.685 9.15644ZM181.329 9.87462H181.443C182.423 9.87462 183.152 9.82565 183.631 9.72772C184.109 9.61891 184.425 9.46112 184.577 9.25437C184.73 9.04763 184.806 8.74838 184.806 8.35665C184.806 8.04108 184.751 7.52421 184.643 6.80603L186.324 6.47959C186.476 7.27394 186.552 8.17166 186.552 9.17276C186.596 9.35775 186.716 9.52097 186.911 9.66243C187.107 9.80389 187.39 9.87462 187.76 9.87462H187.858L187.989 11.0988L187.858 12.3066H187.76C187.26 12.3066 186.797 12.1706 186.373 11.8986C185.948 11.6157 185.617 11.262 185.377 10.8376L185.785 10.9192C185.491 11.4198 185.013 11.7789 184.349 11.9965C183.696 12.2033 182.727 12.3066 181.443 12.3066H181.329V9.87462ZM181.329 13.6777L182.684 15.0488C182.39 15.3535 182.091 15.6527 181.786 15.9465L181.329 16.4035L180.66 15.718L179.974 15.0488L181.329 13.6777ZM184.186 13.6777L185.54 15.0488C185.247 15.3535 184.947 15.6527 184.643 15.9465L184.186 16.4035L183.516 15.718L182.831 15.0488L184.186 13.6777ZM187.689 9.87462H188.554C189.338 9.87462 189.898 9.78757 190.235 9.61346C190.584 9.43936 190.758 9.1782 190.758 8.82999C190.758 8.60148 190.643 8.15534 190.415 7.49157C190.186 6.81691 190.007 6.3218 189.876 6.00624L191.59 5.05955C191.797 5.51657 192.009 6.13138 192.227 6.90397C192.455 7.66567 192.57 8.33489 192.57 8.91161C192.57 10.0215 192.221 10.8648 191.525 11.4416C190.839 12.0183 189.849 12.3066 188.554 12.3066H187.689V9.87462ZM187.428 15.0814L188.946 13.5798L190.448 15.0814L189.942 15.5874C189.615 15.9247 189.283 16.2566 188.946 16.5831L187.428 15.0814ZM202.47 3.45996L204.706 8.74838C204.88 9.18364 205.082 9.48289 205.31 9.64611C205.539 9.79845 205.865 9.87462 206.29 9.87462H206.485L206.616 11.0988L206.485 12.3066H206.29C205.55 12.3066 204.929 12.0999 204.429 11.6864C203.939 11.2729 203.504 10.62 203.123 9.72772L200.789 4.37401L202.47 3.45996ZM198.177 9.36863C198.526 9.55362 198.906 9.72228 199.32 9.87462C199.733 10.0161 200.223 10.0868 200.789 10.0868C201.496 10.0868 202.068 9.98344 202.503 9.77669C202.938 9.55906 203.275 9.33054 203.515 9.09115L204.608 10.5112C204.358 10.8268 204.113 11.1042 203.874 11.3436C203.645 11.5721 203.286 11.8061 202.797 12.0455C202.307 12.274 201.719 12.3883 201.034 12.3883C199.706 12.3883 198.46 11.953 197.296 11.0825L198.177 9.36863ZM206.323 9.87462H207.106C208.183 9.87462 208.945 9.78213 209.391 9.59714C209.837 9.41216 210.061 9.12924 210.061 8.74838C210.05 8.50899 209.924 8.05197 209.685 7.37731C209.446 6.69178 209.272 6.23475 209.163 6.00624L210.893 5.05955C211.111 5.51657 211.328 6.12594 211.546 6.88764C211.763 7.63847 211.872 8.2968 211.872 8.86264C211.861 9.97255 211.486 10.8268 210.746 11.4252C210.006 12.0128 208.913 12.3066 207.465 12.3066H206.323V9.87462ZM206.502 13.694L207.857 15.0651C207.563 15.3698 207.264 15.669 206.959 15.9628L206.502 16.4199L205.833 15.7343L205.147 15.0651L206.502 13.694ZM209.359 13.694L210.713 15.0651C210.42 15.3698 210.12 15.669 209.816 15.9628L209.359 16.4199L208.689 15.7343L208.004 15.0651L209.359 13.694ZM218.179 12.3066C217.439 12.3066 216.84 12.0346 216.383 11.4905C215.926 10.9465 215.545 10.1847 215.241 9.20541L216.71 8.30768C216.862 8.8844 217.047 9.29246 217.264 9.53185C217.482 9.76037 217.787 9.87462 218.179 9.87462H218.325L218.456 11.0988L218.325 12.3066H218.179ZM211.601 15.0161C212.319 14.7223 212.977 14.3796 213.576 13.9878C214.174 13.607 214.642 13.2261 214.979 12.8453C215.328 12.4644 215.502 12.138 215.502 11.8659C215.502 11.4198 215.213 10.2065 214.637 8.22607L214.555 7.89963L216.383 7.18144C216.644 7.93227 216.851 8.7375 217.003 9.59714C217.156 10.4459 217.232 11.2022 217.232 11.8659C217.232 12.9323 216.813 13.9171 215.975 14.8203C215.137 15.7343 214.011 16.4851 212.596 17.0727L211.601 15.0161ZM218.166 9.87462H219.39C220.674 9.87462 221.876 9.73316 222.997 9.45024C224.129 9.16732 225.331 8.68854 226.604 8.01388C227.507 7.54598 228.166 7.24673 228.579 7.11616L228.644 8.82999C228.068 8.76471 227.513 8.64501 226.98 8.4709C226.446 8.2968 225.821 8.02476 225.103 7.65479C224.145 7.16512 223.312 6.92029 222.605 6.92029C222.192 6.92029 221.822 7.03454 221.495 7.26306C221.18 7.48069 220.935 7.73096 220.761 8.01388L219.39 7.01822C220.217 5.39688 221.31 4.5862 222.67 4.5862C223.128 4.5862 223.568 4.66237 223.993 4.81471C224.417 4.96706 225.037 5.24998 225.853 5.66347C226.484 5.98992 227.018 6.24019 227.453 6.4143C227.899 6.5884 228.389 6.72986 228.922 6.83868L229.004 9.02586C228.71 9.11291 228.133 9.39039 227.273 9.8583C227.208 9.90182 227.148 9.93991 227.094 9.97255C227.039 9.99432 226.99 10.0161 226.947 10.0378C225.87 10.6037 224.934 11.0444 224.139 11.3599C223.345 11.6755 222.534 11.9149 221.707 12.0781C220.88 12.2305 219.945 12.3066 218.9 12.3066H218.166V9.87462ZM221.348 1.94199L222.866 0.440343L224.368 1.94199L223.862 2.44798C223.536 2.78531 223.204 3.1172 222.866 3.44364L221.348 1.94199Z" fill="white"/>
</g>
<defs>
<filter id="filter0_d_12734_68" x="0" y="0" width="230.924" height="19.0409" filterUnits="userSpaceOnUse" color-interpolation-filters="sRGB">
<feFlood flood-opacity="0" result="BackgroundImageFix"/>
<feColorMatrix in="SourceAlpha" type="matrix" values="0 0 0 0 0 0 0 0 0 0 0 0 0 0 0 0 0 0 127 0" result="hardAlpha"/>
<feOffset dx="0.959896" dy="0.959896"/>
<feGaussianBlur stdDeviation="0.479948"/>
<feComposite in2="hardAlpha" operator="out"/>
<feColorMatrix type="matrix" values="0 0 0 0 0 0 0 0 0 0 0 0 0 0 0 0 0 0 0.25 0"/>
<feBlend mode="normal" in2="BackgroundImageFix" result="effect1_dropShadow_12734_68"/>
<feBlend mode="normal" in="SourceGraphic" in2="effect1_dropShadow_12734_68" result="shape"/>
</filter>
</defs>
</svg>
