<svg width="84" height="25" viewBox="0 0 84 25" fill="none" xmlns="http://www.w3.org/2000/svg">
<rect x="0.599185" y="0.599185" width="82.4815" height="23.7801" rx="11.4008" fill="#239732" stroke="white" stroke-width="1.19837"/>
<path d="M9.08968 15.6265C9.28685 15.6265 9.45369 15.5658 9.59019 15.4445C9.7267 15.3231 9.79495 15.1639 9.79495 14.9667V14.8984H7.49712V12.9646H11.8539C11.9601 12.9646 12.0132 13.0177 12.0132 13.1239V14.7278C12.0132 14.7733 11.998 14.815 11.9677 14.8529C11.9373 14.8833 11.8994 14.8984 11.8539 14.8984H11.3989C11.4216 14.9212 11.433 14.9781 11.433 15.0691V15.1032C11.433 15.4596 11.3648 15.7857 11.2283 16.0815C11.0993 16.3848 10.9173 16.6427 10.6822 16.855C10.4471 17.0749 10.1741 17.2456 9.8632 17.3669C9.55228 17.4958 9.2186 17.5603 8.86217 17.5603H6.91698C6.53021 17.5603 6.1662 17.4882 5.82494 17.3441C5.49126 17.2001 5.19929 17.0029 4.94903 16.7526C4.69877 16.5024 4.49781 16.2066 4.34614 15.8653C4.20205 15.5317 4.13 15.1714 4.13 14.7847V11.5541H5.77944V14.5572C5.77944 14.7013 5.80598 14.8378 5.85906 14.9667C5.91973 15.1032 5.99936 15.2169 6.09795 15.308C6.19653 15.4065 6.31029 15.4824 6.43921 15.5355C6.57571 15.5961 6.71601 15.6265 6.8601 15.6265H9.08968ZM18.5287 12.5324C18.5287 12.8584 18.4642 13.1656 18.3353 13.4538C18.214 13.7419 18.0471 13.9922 17.8348 14.2045C17.6224 14.4169 17.3722 14.5875 17.084 14.7164C16.7958 14.8378 16.4887 14.8984 16.1626 14.8984H11.3963C11.3584 14.8984 11.3243 14.8833 11.2939 14.8529C11.256 14.8226 11.237 14.7847 11.237 14.7392V13.1239C11.237 13.086 11.2522 13.0518 11.2826 13.0215C11.3129 12.9836 11.3508 12.9646 11.3963 12.9646H11.6238L12.7614 11.7247V6.85603H14.3994V9.4155C14.3994 9.5065 14.388 9.60129 14.3653 9.69988C14.3425 9.79088 14.3198 9.8743 14.297 9.95014C14.2591 10.0487 14.2212 10.1397 14.1833 10.2231C14.1833 10.2307 14.1757 10.2497 14.1605 10.28C14.1605 10.2876 14.1567 10.2952 14.1492 10.3028C14.3842 10.1587 14.6345 10.0487 14.8999 9.97289C15.1654 9.88947 15.4422 9.84776 15.7303 9.84776H16.4242C16.72 9.84776 16.9968 9.90464 17.2546 10.0184C17.5125 10.1246 17.7324 10.2724 17.9144 10.462C18.104 10.6516 18.2519 10.8753 18.358 11.1332C18.4718 11.3834 18.5287 11.6564 18.5287 11.9522V12.5324ZM16.5039 12.9646C16.61 12.9646 16.701 12.9305 16.7769 12.8622C16.8527 12.7864 16.8906 12.6954 16.8906 12.5892V12.0773C16.8906 11.9788 16.8565 11.8991 16.7882 11.8385C16.72 11.7702 16.6366 11.7361 16.538 11.7361H15.4118C15.0857 11.7361 14.8165 11.8536 14.6042 12.0887L13.8193 12.9646H16.5039ZM21.4775 14.7392C21.4775 14.8454 21.4244 14.8984 21.3182 14.8984H21.0907C20.7874 14.8984 20.4992 14.8416 20.2262 14.7278C19.9532 14.6065 19.7181 14.4472 19.5209 14.25C19.3237 14.0529 19.1645 13.8178 19.0431 13.5448C18.9294 13.2718 18.8725 12.9836 18.8725 12.6802V6.85603H20.522V12.6461C20.522 12.7371 20.5523 12.8129 20.613 12.8736C20.6736 12.9343 20.7495 12.9646 20.8405 12.9646H21.3182C21.3637 12.9646 21.4016 12.9836 21.432 13.0215C21.4623 13.0518 21.4775 13.0897 21.4775 13.1353V14.7392ZM23.8991 14.8984C23.6413 14.8984 23.3872 14.8567 23.137 14.7733C22.8943 14.6823 22.6744 14.5268 22.4772 14.3069C22.28 14.5268 22.0639 14.6823 21.8288 14.7733C21.6013 14.8567 21.3548 14.8984 21.0894 14.8984H20.8619C20.8164 14.8984 20.7785 14.8833 20.7481 14.8529C20.7178 14.815 20.7026 14.7771 20.7026 14.7392V13.1353C20.7026 13.0897 20.7216 13.0518 20.7595 13.0215C20.7898 12.9836 20.824 12.9646 20.8619 12.9646H21.3396C21.4306 12.9646 21.5065 12.9343 21.5672 12.8736C21.6278 12.8054 21.6582 12.7257 21.6582 12.6347V10.3824H23.2962V12.6234C23.2962 12.7295 23.3303 12.8129 23.3986 12.8736C23.4744 12.9343 23.5427 12.9646 23.6034 12.9646H24.0242C24.1152 12.9646 24.1949 12.9381 24.2631 12.885C24.339 12.8243 24.3845 12.7447 24.3996 12.6461L24.8546 10.3824L26.5268 10.6554L26.1401 12.5665C26.1097 12.6802 26.1249 12.775 26.1856 12.8509C26.2462 12.9267 26.3297 12.9646 26.4358 12.9646H27.0728C27.1638 12.9646 27.2397 12.9343 27.3004 12.8736C27.361 12.8054 27.3914 12.7295 27.3914 12.6461V10.0866H29.0294V12.6006C29.0294 12.8433 29.1356 12.9646 29.3479 12.9646H29.8484C29.9546 12.9646 30.0077 13.0177 30.0077 13.1239V14.7392C30.0077 14.8454 29.9546 14.8984 29.8484 14.8984H29.6209C29.3479 14.8984 29.0901 14.8567 28.8474 14.7733C28.6123 14.6823 28.3962 14.5268 28.199 14.3069C28.0018 14.5193 27.7743 14.6709 27.5165 14.7619C27.2586 14.8529 26.997 14.8984 26.7316 14.8984C26.6178 14.8984 26.4889 14.8909 26.3448 14.8757C26.2083 14.8529 26.068 14.8188 25.9239 14.7733C25.7874 14.7278 25.6547 14.6671 25.5258 14.5913C25.4045 14.5155 25.2983 14.4207 25.2073 14.3069C25.0101 14.5268 24.8016 14.6823 24.5816 14.7733C24.3693 14.8567 24.1418 14.8984 23.8991 14.8984ZM33.0454 10.6668V9.57475C33.053 9.52167 33.0378 9.47996 32.9999 9.44962C32.962 9.41929 32.9165 9.40033 32.8634 9.39275H31.8055C31.6841 9.39275 31.6121 9.45341 31.5893 9.57475L31.4414 10.4962C31.4339 10.5417 31.4414 10.5834 31.4642 10.6213C31.4945 10.6516 31.5324 10.6668 31.5779 10.6668H33.0454ZM32.7724 12.9646C32.8482 12.9646 32.9127 12.9419 32.9657 12.8964C33.0188 12.8509 33.0454 12.7826 33.0454 12.6916V12.1683C33.015 12.1987 32.9733 12.229 32.9202 12.2593C32.8823 12.2821 32.8292 12.3048 32.761 12.3276C32.6927 12.3428 32.6131 12.3503 32.5221 12.3503H31.8965C31.5704 12.3503 31.2708 12.2897 30.9978 12.1683C30.7324 12.0394 30.5087 11.8688 30.3267 11.6564C30.1446 11.4365 30.0157 11.1825 29.9399 10.8943C29.8641 10.6061 29.8565 10.3028 29.9171 9.98427L30.0536 9.27899C30.0991 9.0439 30.1826 8.82777 30.3039 8.63059C30.4252 8.43342 30.5731 8.26279 30.7475 8.1187C30.922 7.97461 31.1191 7.86086 31.3391 7.77744C31.559 7.69402 31.7865 7.65231 32.0216 7.65231H32.6245C32.9127 7.65231 33.1781 7.70919 33.4208 7.82294C33.671 7.92911 33.8909 8.07699 34.0805 8.26658C34.2701 8.44859 34.418 8.66472 34.5242 8.91498C34.6303 9.16524 34.6834 9.43066 34.6834 9.71126V12.6347C34.6834 12.9457 34.6228 13.2376 34.5014 13.5106C34.3877 13.7836 34.2284 14.0225 34.0237 14.2273C33.8189 14.432 33.5762 14.5951 33.2956 14.7164C33.0226 14.8378 32.7307 14.8984 32.4197 14.8984H29.3939C29.3484 14.8984 29.3105 14.8833 29.2801 14.8529C29.2498 14.815 29.2346 14.7771 29.2346 14.7392V13.1353C29.2346 13.0897 29.2498 13.0518 29.2801 13.0215C29.3029 12.9836 29.3408 12.9646 29.3939 12.9646H32.7724ZM30.7817 5.27485H32.2605V6.81053H30.7817V5.27485ZM32.2605 5.27485H33.7393V6.81053H32.2605V5.27485ZM36.6641 14.8984H35.026V6.86741H36.6641V14.8984ZM44.7313 12.9646H45.0498C45.0877 12.9646 45.1218 12.9836 45.1522 13.0215C45.1901 13.0594 45.2091 13.1011 45.2091 13.1466V14.7392C45.2091 14.7771 45.1939 14.815 45.1635 14.8529C45.1332 14.8833 45.0953 14.8984 45.0498 14.8984H44.8792C44.5682 14.8984 44.2952 14.8378 44.0601 14.7164C43.8326 14.5951 43.6392 14.4586 43.48 14.3069C43.2676 14.5268 43.0363 14.6823 42.7861 14.7733C42.5358 14.8567 42.2742 14.8984 42.0012 14.8984H40.5679C40.3328 14.8984 40.1091 14.8529 39.8967 14.7619C39.6844 14.6709 39.4986 14.5496 39.3393 14.3979C39.1801 14.2387 39.055 14.0529 38.964 13.8405C38.873 13.6282 38.8275 13.4045 38.8275 13.1694V11.4631H40.1925V12.7826C40.1925 12.904 40.257 12.9646 40.3859 12.9646H42.0239C42.1832 12.9646 42.3235 12.9153 42.4448 12.8167C42.5662 12.7106 42.6041 12.5703 42.5586 12.3959L41.5917 8.92635L43.1501 8.35758L44.3673 12.6916C44.39 12.775 44.4355 12.8433 44.5038 12.8964C44.572 12.9419 44.6479 12.9646 44.7313 12.9646ZM44.8668 16.2635H46.3456V17.7992H44.8668V16.2635ZM46.3456 16.2635H47.8244V17.7992H46.3456V16.2635ZM47.2101 12.9646C47.3011 12.9646 47.377 12.9343 47.4376 12.8736C47.4983 12.8054 47.5287 12.7295 47.5287 12.6461V10.0411H49.1667V12.6347C49.1667 12.9457 49.106 13.2414 48.9847 13.522C48.8709 13.795 48.7117 14.0339 48.5069 14.2387C48.3022 14.4434 48.0595 14.6065 47.7789 14.7278C47.5059 14.8416 47.2139 14.8984 46.903 14.8984H44.5938C44.5483 14.8984 44.5104 14.8833 44.48 14.8529C44.4497 14.815 44.4345 14.7771 44.4345 14.7392V13.1466C44.4345 13.1011 44.4497 13.0594 44.48 13.0215C44.5104 12.9836 44.5483 12.9646 44.5938 12.9646H47.2101ZM52.461 10.371V12.703C52.461 12.7864 52.4876 12.8509 52.5407 12.8964C52.6013 12.9419 52.6734 12.9646 52.7568 12.9646H53.2573C53.3635 12.9646 53.4166 13.0177 53.4166 13.1239V14.7392C53.4166 14.8454 53.3635 14.8984 53.2573 14.8984H53.0298C52.9388 14.8984 52.8326 14.8757 52.7113 14.8302C52.5975 14.7771 52.5103 14.7202 52.4497 14.6596V14.8302C52.4497 15.1335 52.3966 15.4103 52.2904 15.6606C52.1918 15.9184 52.0515 16.1497 51.8695 16.3545C51.6875 16.5592 51.4714 16.7375 51.2211 16.8891C50.9709 17.0408 50.7016 17.1659 50.4135 17.2645L48.6275 17.8788L48.127 16.3659L49.9812 15.7288C50.239 15.6454 50.44 15.4975 50.5841 15.2852C50.7358 15.0729 50.8116 14.834 50.8116 14.5686V10.371H52.461ZM52.6448 13.1466C52.6448 13.1011 52.6638 13.0594 52.7017 13.0215C52.732 12.9836 52.7662 12.9646 52.8041 12.9646H55.1019C55.3901 12.9646 55.6783 12.9191 55.9664 12.8281C56.2546 12.7371 56.4935 12.5779 56.6831 12.3503L57.0471 11.8271C57.085 11.7816 57.1078 11.7475 57.1154 11.7247C57.1229 11.7171 57.1305 11.7095 57.1381 11.702L54.9654 11.0649C54.8972 11.0422 54.8517 11.0687 54.8289 11.1446L54.3966 12.3731L53.0088 12.0091L53.3387 10.8602C53.4221 10.5872 53.5473 10.3559 53.7141 10.1663C53.881 9.9691 54.0705 9.82122 54.2829 9.72263C54.5028 9.61646 54.7303 9.552 54.9654 9.52925C55.2081 9.5065 55.4394 9.52925 55.6593 9.5975L60.255 10.9739L59.8227 12.4982L59.0947 12.2821C58.943 12.2442 58.8255 12.229 58.742 12.2366C58.6586 12.2442 58.5752 12.3011 58.4918 12.4072L57.3201 13.8633C57.1609 14.0529 56.9789 14.2159 56.7741 14.3524C56.5693 14.4813 56.3494 14.5875 56.1143 14.6709C55.8868 14.7468 55.6441 14.8036 55.3863 14.8416C55.136 14.8795 54.8858 14.8984 54.6355 14.8984H52.8041C52.7586 14.8984 52.7207 14.8833 52.6903 14.8529C52.66 14.815 52.6448 14.7771 52.6448 14.7392V13.1466ZM54.499 7.19729H55.9778V8.73297H54.499V7.19729ZM64.0644 10.0411V12.2593C64.0644 12.4565 64.1326 12.6234 64.2692 12.7599C64.4132 12.8964 64.5839 12.9646 64.781 12.9646H69.5587C69.6497 12.9646 69.7255 12.9343 69.7862 12.8736C69.8469 12.8129 69.8772 12.7409 69.8772 12.6575V10.371H71.5267V12.6347C71.5267 12.7182 71.557 12.794 71.6177 12.8622C71.6783 12.9305 71.7542 12.9646 71.8452 12.9646H72.1751C72.213 12.9646 72.2471 12.9836 72.2774 13.0215C72.3153 13.0518 72.3343 13.086 72.3343 13.1239V14.7392C72.3343 14.7771 72.3153 14.815 72.2774 14.8529C72.2471 14.8833 72.213 14.8984 72.1751 14.8984H72.1068C71.8414 14.8984 71.5911 14.8529 71.356 14.7619C71.1209 14.6709 70.9048 14.5193 70.7076 14.3069C70.5029 14.5268 70.2792 14.6823 70.0365 14.7733C69.7938 14.8567 69.536 14.8984 69.263 14.8984H64.9403C64.5915 14.8984 64.2616 14.834 63.9506 14.7051C63.6473 14.5686 63.3819 14.3865 63.1544 14.159C62.9269 13.9239 62.7448 13.6547 62.6083 13.3514C62.4794 13.0405 62.415 12.7106 62.415 12.3617V10.0411H64.0644ZM65.4863 8.50546H66.9651V10.0411H65.4863V8.50546ZM66.9651 8.50546H68.4439V10.0411H66.9651V8.50546ZM75.8202 14.7392C75.8202 14.7771 75.8012 14.815 75.7633 14.8529C75.7329 14.8833 75.695 14.8984 75.6495 14.8984H74.8532C74.6182 14.8984 74.3982 14.8567 74.1935 14.7733C73.9887 14.6823 73.7991 14.5268 73.6247 14.3069C73.4275 14.5268 73.2152 14.6823 72.9877 14.7733C72.7678 14.8567 72.5365 14.8984 72.2938 14.8984H71.725C71.6871 14.8984 71.653 14.8833 71.6226 14.8529C71.5847 14.815 71.5658 14.7771 71.5658 14.7392V13.1353C71.5658 13.0897 71.5847 13.0518 71.6226 13.0215C71.653 12.9836 71.6871 12.9646 71.725 12.9646H72.4872C72.5782 12.9646 72.6616 12.9381 72.7374 12.885C72.8133 12.8243 72.8588 12.7447 72.8739 12.6461L73.3289 10.371L74.9443 10.6668L74.5689 12.5665C74.5461 12.6878 74.5613 12.7864 74.6144 12.8622C74.6674 12.9305 74.7471 12.9646 74.8532 12.9646H75.6495C75.695 12.9646 75.7329 12.9836 75.7633 13.0215C75.8012 13.0594 75.8202 13.0973 75.8202 13.1353V14.7392ZM72.8853 16.2749H74.3641V17.8105H72.8853V16.2749ZM75.5898 7.72056H77.0686V9.25624H75.5898V7.72056ZM77.0686 7.72056H78.5474V9.25624H77.0686V7.72056ZM76.2951 6.52614H77.7739V8.06182H76.2951V6.52614ZM76.5681 12.9646C76.6591 12.9646 76.7349 12.9343 76.7956 12.8736C76.8563 12.8054 76.8866 12.7295 76.8866 12.6461V10.0411H78.5247V12.6347C78.5247 12.9457 78.464 13.2414 78.3427 13.522C78.2289 13.795 78.0696 14.0339 77.8649 14.2387C77.6601 14.4434 77.4175 14.6065 77.1369 14.7278C76.8638 14.8416 76.5719 14.8984 76.261 14.8984H75.1803C75.1348 14.8984 75.0969 14.8833 75.0665 14.8529C75.0362 14.815 75.021 14.7771 75.021 14.7392V13.1466C75.021 13.1011 75.0362 13.0594 75.0665 13.0215C75.0969 12.9836 75.1348 12.9646 75.1803 12.9646H76.5681Z" fill="white"/>
</svg>
