<svg width="105" height="12" viewBox="0 0 105 12" fill="none" xmlns="http://www.w3.org/2000/svg">
<path d="M0.00254963 8.08517V4.77417H1.36655V7.89817C1.36655 8.05951 1.39588 8.20984 1.45455 8.34917C1.51322 8.48117 1.59388 8.59851 1.69655 8.70117C1.79922 8.80384 1.92022 8.88451 2.05955 8.94317C2.19888 9.00184 2.34555 9.03117 2.49955 9.03117H4.49055C4.62255 9.03117 4.74355 9.00551 4.85355 8.95417C4.96355 8.91017 5.05888 8.84417 5.13955 8.75617C5.22755 8.67551 5.29355 8.58017 5.33755 8.47017C5.38888 8.36017 5.41455 8.24284 5.41455 8.11817V4.59817H6.77855V6.66617C6.77855 6.79084 6.81522 6.89351 6.88855 6.97417C6.96922 7.05484 7.06822 7.09517 7.18555 7.09517H7.90055C7.94455 7.09517 7.98122 7.11351 8.01055 7.15017C8.03988 7.17951 8.05455 7.21617 8.05455 7.26017V8.54717C8.05455 8.58384 8.03988 8.62051 8.01055 8.65717C7.98122 8.68651 7.94455 8.70117 7.90055 8.70117H7.47155C7.25888 8.70117 7.09388 8.66451 6.97655 8.59117C6.86655 8.51784 6.79322 8.45551 6.75655 8.40417V8.63517C6.75655 8.91384 6.69422 9.17417 6.56955 9.41617C6.44488 9.65817 6.27622 9.86717 6.06355 10.0432C5.85822 10.2265 5.61622 10.3695 5.33755 10.4722C5.06622 10.5822 4.78022 10.6372 4.47955 10.6372H2.55455C2.20255 10.6372 1.87255 10.5712 1.56455 10.4392C1.25655 10.3072 0.985216 10.1238 0.75055 9.88917C0.523216 9.66184 0.339883 9.39051 0.20055 9.07517C0.0685496 8.76717 0.00254963 8.43717 0.00254963 8.08517ZM2.69755 3.22317H4.07255V4.59817H2.69755V3.22317ZM9.93039 7.09517H11.4484V5.97317C11.4484 5.88517 11.4154 5.80817 11.3494 5.74217C11.2907 5.67617 11.2137 5.64317 11.1184 5.64317H10.1724C10.0917 5.64317 10.0221 5.66884 9.96339 5.72017C9.90473 5.77151 9.86806 5.83751 9.85339 5.91817L9.67739 6.79817C9.66273 6.87884 9.68106 6.94851 9.73239 7.00717C9.78373 7.06584 9.84973 7.09517 9.93039 7.09517ZM8.31339 6.68817L8.53339 5.55517C8.57006 5.3425 8.64339 5.14817 8.75339 4.97217C8.86339 4.78884 8.99539 4.63484 9.14939 4.51017C9.31073 4.37817 9.49039 4.27551 9.68839 4.20217C9.88639 4.12884 10.0917 4.09217 10.3044 4.09217H10.9204C11.1844 4.09217 11.4301 4.1435 11.6574 4.24617C11.8847 4.3415 12.0827 4.47717 12.2514 4.65317C12.4274 4.82184 12.5631 5.01984 12.6584 5.24717C12.7611 5.47451 12.8124 5.72017 12.8124 5.98417V7.24917C12.8124 7.44717 12.7721 7.63417 12.6914 7.81017C12.6181 7.98617 12.5154 8.14017 12.3834 8.27217C12.2514 8.40417 12.0974 8.51051 11.9214 8.59117C11.7454 8.66451 11.5584 8.70117 11.3604 8.70117H10.1064C9.89373 8.70117 9.68473 8.66084 9.47939 8.58017C9.28139 8.49217 9.09806 8.33084 8.92939 8.09617C8.76073 8.32351 8.57373 8.48117 8.36839 8.56917C8.16306 8.65717 7.94306 8.70117 7.70839 8.70117H7.45539C7.41873 8.70117 7.38573 8.68651 7.35639 8.65717C7.31973 8.62784 7.30139 8.59117 7.30139 8.54717V7.24917C7.30139 7.14651 7.35273 7.09517 7.45539 7.09517H7.80739C7.93206 7.09517 8.03839 7.05851 8.12639 6.98517C8.22173 6.91184 8.28406 6.81284 8.31339 6.68817ZM15.9069 8.54717C15.9069 8.64984 15.8556 8.70117 15.7529 8.70117H15.4229C15.1443 8.70117 14.8803 8.64984 14.6309 8.54717C14.3889 8.43717 14.1763 8.29417 13.9929 8.11817C13.8096 7.93484 13.6629 7.72217 13.5529 7.48017C13.4503 7.23084 13.3989 6.96684 13.3989 6.68817V1.06717H14.7629V6.65517C14.7629 6.77984 14.8033 6.88617 14.8839 6.97417C14.9719 7.05484 15.0783 7.09517 15.2029 7.09517H15.7529C15.7969 7.09517 15.8336 7.11351 15.8629 7.15017C15.8923 7.17951 15.9069 7.21617 15.9069 7.26017V8.54717ZM21.8428 7.09517C21.9748 7.09517 22.0848 7.04751 22.1728 6.95217C22.2681 6.85684 22.3158 6.74684 22.3158 6.62217V6.10517C22.3158 5.9805 22.2718 5.87417 22.1838 5.78617C22.0958 5.69084 21.9895 5.64317 21.8648 5.64317H20.8308C20.6621 5.64317 20.5008 5.67984 20.3468 5.75317C20.1928 5.81917 20.0571 5.91451 19.9398 6.03917L18.9608 7.09517H21.8428ZM17.7178 5.95117C17.7178 6.13451 17.7361 6.25551 17.7728 6.31417C17.8168 6.37284 17.8388 6.40584 17.8388 6.41317L19.2248 4.91717C19.4668 4.65317 19.7528 4.4515 20.0828 4.31217C20.4128 4.1655 20.7538 4.09217 21.1058 4.09217H21.7878C22.0518 4.09217 22.2975 4.1435 22.5248 4.24617C22.7521 4.3415 22.9501 4.47717 23.1188 4.65317C23.2948 4.82184 23.4305 5.0235 23.5258 5.25817C23.6285 5.48551 23.6798 5.72751 23.6798 5.98417V6.61117C23.6798 6.89717 23.6248 7.16851 23.5148 7.42517C23.4048 7.68184 23.2545 7.90551 23.0638 8.09617C22.8805 8.27951 22.6605 8.42617 22.4038 8.53617C22.1471 8.64617 21.8758 8.70117 21.5898 8.70117H18.5428C18.2788 8.70117 18.0038 8.65351 17.7178 8.55817C17.4391 8.46284 17.2118 8.30517 17.0358 8.08517C16.8525 8.30517 16.6435 8.46284 16.4088 8.55817C16.1741 8.65351 15.9248 8.70117 15.6608 8.70117H15.3088C15.2648 8.70117 15.2281 8.68651 15.1988 8.65717C15.1695 8.62051 15.1548 8.58384 15.1548 8.54717V7.27117C15.1548 7.22717 15.1731 7.18684 15.2098 7.15017C15.2391 7.11351 15.2721 7.09517 15.3088 7.09517H15.9138C16.0385 7.09517 16.1411 7.05484 16.2218 6.97417C16.3098 6.88617 16.3538 6.77984 16.3538 6.65517V4.76317H17.7178V5.95117ZM20.7428 3.19017H22.1178V1.81517H20.7428V3.19017ZM27.3819 10.6262C27.0299 10.6262 26.6999 10.5602 26.3919 10.4282C26.0839 10.2962 25.8126 10.1128 25.5779 9.87817C25.3506 9.65084 25.1672 9.37951 25.0279 9.06417C24.8959 8.75617 24.8299 8.42617 24.8299 8.07417V4.76317H26.1939V7.88717C26.1939 8.04851 26.2232 8.19884 26.2819 8.33817C26.3406 8.47017 26.4212 8.58751 26.5239 8.69017C26.6266 8.79284 26.7476 8.87351 26.8869 8.93217C27.0262 8.99084 27.1729 9.02017 27.3269 9.02017H29.3179C29.4499 9.02017 29.5709 8.99451 29.6809 8.94317C29.7909 8.89917 29.8862 8.83317 29.9669 8.74517C30.0549 8.66451 30.1209 8.56917 30.1649 8.45917C30.2162 8.34917 30.2419 8.23184 30.2419 8.10717V4.58717H31.6059V8.33817C31.6059 8.65351 31.5436 8.95051 31.4189 9.22917C31.3016 9.50784 31.1366 9.74984 30.9239 9.95517C30.7186 10.1605 30.4766 10.3218 30.1979 10.4392C29.9192 10.5638 29.6222 10.6262 29.3069 10.6262H27.3819ZM27.5249 3.21217H28.8999V4.58717H27.5249V3.21217ZM36.6427 8.38217C36.6427 8.68284 36.5987 8.96884 36.5107 9.24017C36.4227 9.51884 36.2944 9.77184 36.1257 9.99917C35.9644 10.2338 35.7664 10.4392 35.5317 10.6152C35.3044 10.7912 35.0477 10.9268 34.7617 11.0222L33.1557 11.5722L32.7487 10.2852L34.3767 9.73517C34.6334 9.64717 34.846 9.50417 35.0147 9.30617C35.1834 9.11551 35.2677 8.88084 35.2677 8.60217V8.54717C35.1797 8.59851 35.0697 8.63884 34.9377 8.66817C34.8057 8.69017 34.6774 8.70117 34.5527 8.70117H33.9477C33.6617 8.70117 33.3977 8.64251 33.1557 8.52517C32.921 8.40051 32.7194 8.23917 32.5507 8.04117C32.3894 7.83584 32.272 7.60484 32.1987 7.34817C32.1327 7.09151 32.1254 6.82751 32.1767 6.55617L32.3637 5.54417C32.4004 5.33151 32.4737 5.13717 32.5837 4.96117C32.6937 4.78517 32.8257 4.63117 32.9797 4.49917C33.141 4.36717 33.3207 4.26451 33.5187 4.19117C33.7167 4.11784 33.922 4.08117 34.1347 4.08117H34.7507C35.0147 4.08117 35.2604 4.13251 35.4877 4.23517C35.715 4.33051 35.913 4.46617 36.0817 4.64217C36.2577 4.81084 36.3934 5.01251 36.4887 5.24717C36.5914 5.47451 36.6427 5.72017 36.6427 5.98417V8.38217ZM35.2787 7.09517V5.97317C35.2787 5.88517 35.2457 5.80817 35.1797 5.74217C35.121 5.67617 35.044 5.6395 34.9487 5.63217H34.0027C33.8414 5.63217 33.735 5.72384 33.6837 5.90717L33.5077 6.79817C33.493 6.87151 33.5114 6.94117 33.5627 7.00717C33.614 7.06584 33.68 7.09517 33.7607 7.09517H35.2787ZM42.9554 7.09517H43.2854C43.3221 7.09517 43.3551 7.11351 43.3844 7.15017C43.4211 7.17951 43.4394 7.21617 43.4394 7.26017V8.54717C43.4394 8.58384 43.4247 8.62051 43.3954 8.65717C43.3661 8.68651 43.3294 8.70117 43.2854 8.70117H43.0654C42.7721 8.70117 42.5117 8.64617 42.2844 8.53617C42.0571 8.42617 41.8701 8.30517 41.7234 8.17317C41.5327 8.33451 41.3164 8.46284 41.0744 8.55817C40.8397 8.65351 40.5831 8.70117 40.3044 8.70117H38.8854C38.6727 8.70117 38.4711 8.66084 38.2804 8.58017C38.0971 8.49951 37.9357 8.38951 37.7964 8.25017C37.6571 8.10351 37.5471 7.93851 37.4664 7.75517C37.3857 7.56451 37.3454 7.36284 37.3454 7.15017V5.63217H38.4894V6.86417C38.4894 6.93017 38.5114 6.98517 38.5554 7.02917C38.5994 7.07317 38.6544 7.09517 38.7204 7.09517H40.3264C40.5244 7.09517 40.6857 7.02551 40.8104 6.88617C40.9351 6.73951 40.9791 6.57084 40.9424 6.38017L40.0404 3.12417L41.3384 2.65117L42.4824 6.73217C42.5117 6.83484 42.5704 6.92284 42.6584 6.99617C42.7464 7.06217 42.8454 7.09517 42.9554 7.09517ZM43.1402 10.0212H44.5152V11.3962H43.1402V10.0212ZM44.8892 7.09517C45.0138 7.09517 45.1165 7.05484 45.1972 6.97417C45.2852 6.88617 45.3292 6.77984 45.3292 6.65517V4.27917H46.6932V6.64417C46.6932 6.93017 46.6382 7.19784 46.5282 7.44717C46.4255 7.69651 46.2788 7.91651 46.0882 8.10717C45.9048 8.29051 45.6885 8.43717 45.4392 8.54717C45.1898 8.64984 44.9222 8.70117 44.6362 8.70117H42.8432C42.7992 8.70117 42.7625 8.68651 42.7332 8.65717C42.7038 8.62051 42.6892 8.58384 42.6892 8.54717V7.27117C42.6892 7.22717 42.7038 7.18684 42.7332 7.15017C42.7625 7.11351 42.7992 7.09517 42.8432 7.09517H44.8892ZM49.6223 9.35017C49.5417 9.32084 49.4427 9.28417 49.3253 9.24017C49.2153 9.19617 49.109 9.14484 49.0063 9.08617C48.845 9.00551 48.702 8.89551 48.5773 8.75617C48.46 8.61684 48.394 8.46284 48.3793 8.29417C48.3647 8.19151 48.3757 8.07784 48.4123 7.95317C48.4563 7.82117 48.493 7.70751 48.5223 7.61217L49.0393 6.01717L49.8643 6.30317L49.4353 7.68917L50.1173 7.95317L49.6223 9.35017ZM50.8183 8.08517V4.77417H52.1823V7.89817C52.1823 8.05951 52.2116 8.20984 52.2703 8.34917C52.3289 8.48117 52.4096 8.59851 52.5123 8.70117C52.6149 8.80384 52.7359 8.88451 52.8753 8.94317C53.0146 9.00184 53.1613 9.03117 53.3153 9.03117H55.3063C55.4383 9.03117 55.5593 9.00551 55.6693 8.95417C55.7793 8.91017 55.8746 8.84417 55.9553 8.75617C56.0433 8.67551 56.1093 8.58017 56.1533 8.47017C56.2046 8.36017 56.2303 8.24284 56.2303 8.11817V4.59817H57.5943V6.66617C57.5943 6.79084 57.6309 6.89351 57.7043 6.97417C57.7849 7.05484 57.8839 7.09517 58.0013 7.09517H58.7163C58.7603 7.09517 58.7969 7.11351 58.8263 7.15017C58.8556 7.17951 58.8703 7.21617 58.8703 7.26017V8.54717C58.8703 8.58384 58.8556 8.62051 58.8263 8.65717C58.7969 8.68651 58.7603 8.70117 58.7163 8.70117H58.2873C58.0746 8.70117 57.9096 8.66451 57.7923 8.59117C57.6823 8.51784 57.6089 8.45551 57.5723 8.40417V8.63517C57.5723 8.91384 57.5099 9.17417 57.3853 9.41617C57.2606 9.65817 57.0919 9.86717 56.8793 10.0432C56.6739 10.2265 56.4319 10.3695 56.1533 10.4722C55.8819 10.5822 55.5959 10.6372 55.2953 10.6372H53.3703C53.0183 10.6372 52.6883 10.5712 52.3803 10.4392C52.0723 10.3072 51.8009 10.1238 51.5663 9.88917C51.3389 9.66184 51.1556 9.39051 51.0163 9.07517C50.8843 8.76717 50.8183 8.43717 50.8183 8.08517ZM53.5133 3.22317H54.8883V4.59817H53.5133V3.22317ZM58.8321 2.91517L59.5911 2.59617C59.5838 2.59617 59.5544 2.5925 59.5031 2.58517C59.4591 2.5705 59.4188 2.52284 59.3821 2.44217C59.3674 2.42017 59.3454 2.3835 59.3161 2.33217C59.2868 2.2735 59.2648 2.22584 59.2501 2.18917C59.1768 2.02784 59.1364 1.87017 59.1291 1.71617C59.1291 1.55484 59.1548 1.40817 59.2061 1.27617C59.2648 1.14417 59.3454 1.02684 59.4481 0.924172C59.5581 0.814171 59.6828 0.729838 59.8221 0.671172L60.7461 0.286171L61.1641 1.29817L60.3061 1.66117C60.2621 1.67584 60.2291 1.70517 60.2071 1.74917C60.1924 1.79317 60.2034 1.8445 60.2401 1.90317C60.2548 1.92517 60.2768 1.96917 60.3061 2.03517C60.3354 2.09384 60.3648 2.14517 60.3941 2.18917L61.5601 1.57317L62.0221 2.51917L59.3161 3.89417L58.8321 2.91517ZM62.6711 8.54717C62.6711 8.58384 62.6564 8.62051 62.6271 8.65717C62.5978 8.68651 62.5611 8.70117 62.5171 8.70117H61.6261C61.3988 8.70117 61.1714 8.64617 60.9441 8.53617C60.7241 8.42617 60.5591 8.27584 60.4491 8.08517C60.3098 8.27584 60.1191 8.42617 59.8771 8.53617C59.6424 8.64617 59.4078 8.70117 59.1731 8.70117H58.2711C58.2344 8.70117 58.2014 8.68651 58.1721 8.65717C58.1354 8.62784 58.1171 8.59117 58.1171 8.54717V7.26017C58.1171 7.21617 58.1354 7.17951 58.1721 7.15017C58.2014 7.11351 58.2344 7.09517 58.2711 7.09517H59.3051C59.4298 7.09517 59.5398 7.05851 59.6351 6.98517C59.7304 6.91184 59.7891 6.81284 59.8111 6.68817L60.2401 4.62017L61.5711 4.85117L61.2301 6.58917C61.2008 6.72851 61.2264 6.84951 61.3071 6.95217C61.3878 7.04751 61.4978 7.09517 61.6371 7.09517H62.5171C62.5611 7.09517 62.5978 7.11351 62.6271 7.15017C62.6564 7.18684 62.6711 7.22351 62.6711 7.26017V8.54717ZM62.0743 8.70117C62.0376 8.70117 62.0046 8.68651 61.9753 8.65717C61.9386 8.62784 61.9203 8.59117 61.9203 8.54717V7.24917C61.9203 7.14651 61.9716 7.09517 62.0743 7.09517H62.4263C62.5509 7.09517 62.6573 7.05851 62.7453 6.98517C62.8406 6.91184 62.9029 6.81284 62.9323 6.68817L63.1523 5.55517C63.1889 5.3425 63.2623 5.14817 63.3723 4.97217C63.4823 4.78884 63.6143 4.63484 63.7683 4.51017C63.9296 4.37817 64.1093 4.27551 64.3073 4.20217C64.5053 4.12884 64.7106 4.09217 64.9233 4.09217H65.5393C65.8033 4.09217 66.0489 4.1435 66.2763 4.24617C66.5036 4.3415 66.7016 4.47717 66.8703 4.65317C67.0463 4.82184 67.1819 5.01984 67.2773 5.24717C67.3799 5.47451 67.4313 5.72017 67.4313 5.98417V6.65517C67.4313 6.77984 67.4716 6.88617 67.5523 6.97417C67.6403 7.06217 67.7466 7.10617 67.8713 7.10617H68.3003C68.3369 7.10617 68.3699 7.12084 68.3993 7.15017C68.4359 7.17951 68.4543 7.21617 68.4543 7.26017V8.54717C68.4543 8.59117 68.4359 8.62784 68.3993 8.65717C68.3699 8.68651 68.3369 8.70117 68.3003 8.70117H68.1023C67.8896 8.70117 67.6806 8.66817 67.4753 8.60217C67.2773 8.53617 67.0976 8.41884 66.9363 8.25017C66.8116 8.41884 66.6649 8.53617 66.4963 8.60217C66.3276 8.66817 66.1553 8.70117 65.9793 8.70117H64.7253C64.5126 8.70117 64.3036 8.66084 64.0983 8.58017C63.9003 8.49217 63.7169 8.33084 63.5483 8.09617C63.3796 8.32351 63.1926 8.48117 62.9873 8.56917C62.7819 8.65717 62.5619 8.70117 62.3273 8.70117H62.0743ZM64.5493 7.09517H66.0673V5.97317C66.0673 5.88517 66.0343 5.80817 65.9683 5.74217C65.9096 5.67617 65.8326 5.64317 65.7373 5.64317H64.7913C64.7106 5.64317 64.6409 5.66884 64.5823 5.72017C64.5236 5.77151 64.4869 5.83751 64.4723 5.91817L64.2963 6.79817C64.2816 6.87884 64.2999 6.94851 64.3513 7.00717C64.4026 7.06584 64.4686 7.09517 64.5493 7.09517ZM76.1587 8.54717C76.1587 8.64984 76.1074 8.70117 76.0047 8.70117H75.7407C75.4767 8.70117 75.2274 8.64984 74.9927 8.54717C74.7581 8.44451 74.5527 8.28684 74.3767 8.07417C74.1861 8.28684 73.9697 8.44451 73.7277 8.54717C73.4931 8.64984 73.2401 8.70117 72.9687 8.70117H67.8647C67.8207 8.70117 67.7841 8.68651 67.7547 8.65717C67.7254 8.62051 67.7107 8.58017 67.7107 8.53617V7.24917C67.7107 7.14651 67.7621 7.09517 67.8647 7.09517H68.5797L69.7127 5.86317V1.06717H71.0767V3.91617C71.0767 4.0775 71.0511 4.23151 70.9997 4.37817C70.9484 4.52484 70.9191 4.60184 70.9117 4.60917C70.9117 4.61651 70.9411 4.59817 70.9997 4.55417C71.2051 4.40751 71.4361 4.29384 71.6927 4.21317C71.9494 4.1325 72.2171 4.09217 72.4957 4.09217H73.1777C73.4417 4.09217 73.6874 4.1435 73.9147 4.24617C74.1494 4.3415 74.3511 4.47351 74.5197 4.64217C74.6884 4.81084 74.8204 5.01251 74.9157 5.24717C75.0184 5.47451 75.0697 5.72017 75.0697 5.98417V6.67717C75.0697 6.79451 75.1101 6.89351 75.1907 6.97417C75.2787 7.05484 75.3851 7.09517 75.5097 7.09517H76.0047C76.1074 7.09517 76.1587 7.14651 76.1587 7.24917V8.54717ZM73.2437 7.09517C73.3757 7.09517 73.4857 7.05117 73.5737 6.96317C73.6617 6.86784 73.7057 6.75784 73.7057 6.63317V6.09417C73.7057 5.96951 73.6617 5.86317 73.5737 5.77517C73.4857 5.68717 73.3794 5.64317 73.2547 5.64317H72.2647C71.9127 5.64317 71.6157 5.7715 71.3737 6.02817L70.3947 7.09517H73.2437ZM78.0423 7.09517H79.5603V5.97317C79.5603 5.88517 79.5273 5.80817 79.4613 5.74217C79.4026 5.67617 79.3256 5.64317 79.2303 5.64317H78.2843C78.2036 5.64317 78.134 5.66884 78.0753 5.72017C78.0166 5.77151 77.98 5.83751 77.9653 5.91817L77.7893 6.79817C77.7746 6.87884 77.793 6.94851 77.8443 7.00717C77.8956 7.06584 77.9616 7.09517 78.0423 7.09517ZM76.4253 6.68817L76.6453 5.55517C76.682 5.3425 76.7553 5.14817 76.8653 4.97217C76.9753 4.78884 77.1073 4.63484 77.2613 4.51017C77.4226 4.37817 77.6023 4.27551 77.8003 4.20217C77.9983 4.12884 78.2036 4.09217 78.4163 4.09217H79.0323C79.2963 4.09217 79.542 4.1435 79.7693 4.24617C79.9966 4.3415 80.1946 4.47717 80.3633 4.65317C80.5393 4.82184 80.675 5.01984 80.7703 5.24717C80.873 5.47451 80.9243 5.72017 80.9243 5.98417V7.24917C80.9243 7.44717 80.884 7.63417 80.8033 7.81017C80.73 7.98617 80.6273 8.14017 80.4953 8.27217C80.3633 8.40417 80.2093 8.51051 80.0333 8.59117C79.8573 8.66451 79.6703 8.70117 79.4723 8.70117H78.2183C78.0056 8.70117 77.7966 8.66084 77.5913 8.58017C77.3933 8.49217 77.21 8.33084 77.0413 8.09617C76.8726 8.32351 76.6856 8.48117 76.4803 8.56917C76.275 8.65717 76.055 8.70117 75.8203 8.70117H75.5673C75.5306 8.70117 75.4976 8.68651 75.4683 8.65717C75.4316 8.62784 75.4133 8.59117 75.4133 8.54717V7.24917C75.4133 7.14651 75.4646 7.09517 75.5673 7.09517H75.9193C76.044 7.09517 76.1503 7.05851 76.2383 6.98517C76.3336 6.91184 76.396 6.81284 76.4253 6.68817ZM83.8504 9.35017C83.7697 9.32084 83.6707 9.28417 83.5534 9.24017C83.4434 9.19617 83.3371 9.14484 83.2344 9.08617C83.0731 9.00551 82.9301 8.89551 82.8054 8.75617C82.6881 8.61684 82.6221 8.46284 82.6074 8.29417C82.5927 8.19151 82.6037 8.07784 82.6404 7.95317C82.6844 7.82117 82.7211 7.70751 82.7504 7.61217L83.2674 6.01717L84.0924 6.30317L83.6634 7.68917L84.3454 7.95317L83.8504 9.35017ZM87.5983 10.6262C87.2463 10.6262 86.9163 10.5602 86.6083 10.4282C86.3003 10.2962 86.029 10.1128 85.7943 9.87817C85.567 9.65084 85.3836 9.37951 85.2443 9.06417C85.1123 8.75617 85.0463 8.42617 85.0463 8.07417V4.76317H86.4103V7.88717C86.4103 8.04851 86.4396 8.19884 86.4983 8.33817C86.557 8.47017 86.6376 8.58751 86.7403 8.69017C86.843 8.79284 86.964 8.87351 87.1033 8.93217C87.2426 8.99084 87.3893 9.02017 87.5433 9.02017H89.5343C89.6663 9.02017 89.7873 8.99451 89.8973 8.94317C90.0073 8.89917 90.1026 8.83317 90.1833 8.74517C90.2713 8.66451 90.3373 8.56917 90.3813 8.45917C90.4326 8.34917 90.4583 8.23184 90.4583 8.10717V4.58717H91.8223V8.33817C91.8223 8.65351 91.76 8.95051 91.6353 9.22917C91.518 9.50784 91.353 9.74984 91.1403 9.95517C90.935 10.1605 90.693 10.3218 90.4143 10.4392C90.1356 10.5638 89.8386 10.6262 89.5233 10.6262H87.5983ZM87.7413 3.21217H89.1163V4.58717H87.7413V3.21217ZM94.9561 8.54717C94.9561 8.64984 94.9048 8.70117 94.8021 8.70117H94.4721C94.1934 8.70117 93.9294 8.64984 93.6801 8.54717C93.4381 8.43717 93.2254 8.29417 93.0421 8.11817C92.8588 7.93484 92.7121 7.72217 92.6021 7.48017C92.4994 7.23084 92.4481 6.96684 92.4481 6.68817V1.06717H93.8121V6.65517C93.8121 6.77984 93.8524 6.88617 93.9331 6.97417C94.0211 7.05484 94.1274 7.09517 94.2521 7.09517H94.8021C94.8461 7.09517 94.8828 7.11351 94.9121 7.15017C94.9414 7.17951 94.9561 7.21617 94.9561 7.26017V8.54717ZM97.361 8.70117C97.097 8.70117 96.8476 8.65351 96.613 8.55817C96.3856 8.45551 96.184 8.29784 96.008 8.08517C95.8173 8.29784 95.6046 8.45551 95.37 8.55817C95.1426 8.65351 94.897 8.70117 94.633 8.70117H94.358C94.314 8.70117 94.2773 8.68651 94.248 8.65717C94.2186 8.62051 94.204 8.58384 94.204 8.54717V7.26017C94.204 7.21617 94.2223 7.17951 94.259 7.15017C94.2883 7.11351 94.3213 7.09517 94.358 7.09517H94.886C95.0106 7.09517 95.1133 7.05117 95.194 6.96317C95.282 6.86784 95.326 6.75784 95.326 6.63317V4.58717H96.679V6.63317C96.679 6.75784 96.7193 6.86784 96.8 6.96317C96.888 7.05117 96.9943 7.09517 97.119 7.09517H97.46C97.5846 7.09517 97.6946 7.05851 97.79 6.98517C97.8853 6.90451 97.9476 6.80184 97.977 6.67717L98.395 4.60917L99.759 4.85117L99.407 6.57817C99.3776 6.70284 99.407 6.82017 99.495 6.93017C99.583 7.04017 99.6893 7.09517 99.814 7.09517H100.672V4.30117H102.036V7.23817C102.036 7.43617 101.996 7.62317 101.915 7.79917C101.842 7.97517 101.735 8.13284 101.596 8.27217C101.464 8.40417 101.31 8.51051 101.134 8.59117C100.958 8.66451 100.771 8.70117 100.573 8.70117H99.814C99.5793 8.70117 99.363 8.65351 99.165 8.55817C98.967 8.46284 98.7873 8.30151 98.626 8.07417C98.45 8.30884 98.252 8.47384 98.032 8.56917C97.8193 8.65717 97.5956 8.70117 97.361 8.70117ZM104.106 8.70117H102.742V1.92517H104.106V8.70117ZM101.29 1.70517V1.10017C101.29 0.916838 101.323 0.755505 101.389 0.616172C101.448 0.476838 101.528 0.363172 101.631 0.275172C101.734 0.179838 101.851 0.110171 101.983 0.0661716C102.115 0.0221717 102.251 0.000171781 102.39 0.000171781H104.634V1.16617H102.423C102.298 1.16617 102.236 1.22484 102.236 1.34217V1.70517H101.29Z" fill="white"/>
</svg>
