<svg width="48" height="15" viewBox="0 0 48 15" fill="none" xmlns="http://www.w3.org/2000/svg">
<rect x="0.328125" y="0.314453" width="47.4531" height="14.0098" rx="7.00488" fill="#0980EE"/>
<path d="M16.8818 7.71056C17.0184 7.71056 17.1278 7.68323 17.2098 7.62856C17.2986 7.5739 17.343 7.49873 17.343 7.40306C17.343 7.32106 17.2986 7.15706 17.2098 6.91106C17.1209 6.66506 16.8886 6.05348 16.5128 5.07631L16.2975 4.51256L17.712 3.85656L18.9113 7.18781C18.9728 7.37231 19.0479 7.50556 19.1368 7.58756C19.2256 7.66956 19.3418 7.71056 19.4853 7.71056H19.7723C19.8406 7.71056 19.8748 7.97706 19.8748 8.51006C19.8748 8.8449 19.8645 9.06015 19.844 9.15581C19.8235 9.24465 19.7996 9.28906 19.7723 9.28906H19.3828C18.8224 9.28906 18.4227 9.12848 18.1835 8.80731C18.04 8.98498 17.876 9.1114 17.6915 9.18656C17.5139 9.2549 17.2986 9.28906 17.0458 9.28906H14.637L14.514 7.71056H16.8818ZM22.2305 7.71056C22.3603 7.71056 22.4663 7.67298 22.5483 7.59781C22.6371 7.52265 22.6815 7.42356 22.6815 7.30056V5.66056H24.1678V7.37231C24.1678 7.96681 23.9901 8.4349 23.6348 8.77656C23.2863 9.11823 22.8148 9.28906 22.2203 9.28906H19.7705C19.7022 9.28906 19.668 9.0294 19.668 8.51006C19.668 7.97706 19.7022 7.71056 19.7705 7.71056H22.2305ZM22.825 10.2218V11.4928H19.873V10.2218H22.825ZM24.3732 10.1296C24.8037 10.1296 25.1317 10.0202 25.3572 9.80156C25.5895 9.58973 25.7057 9.27881 25.7057 8.86881V5.66056H27.2227V7.21856C27.2227 7.3894 27.2637 7.51581 27.3457 7.59781C27.4277 7.67298 27.5575 7.71056 27.7352 7.71056H27.9914C28.0597 7.71056 28.0939 7.97706 28.0939 8.51006C28.0939 9.0294 28.0597 9.28906 27.9914 9.28906H27.8172C27.5507 9.28906 27.3491 9.23098 27.2124 9.11481C27.1782 9.61365 27.045 10.0578 26.8127 10.4473C26.5872 10.8436 26.2694 11.1511 25.8594 11.3698C25.4562 11.5953 24.9813 11.7081 24.4347 11.7081H24.0452L23.9222 10.1296H24.3732ZM28.7675 7.71056C29.2732 7.71056 29.6969 7.6764 30.0385 7.60806C30.387 7.53973 30.7492 7.4099 31.125 7.21856L31.781 6.83931C31.7264 6.63431 31.6444 6.49423 31.535 6.41906C31.4325 6.3439 31.2754 6.30631 31.0635 6.30631H28.7265L28.8803 4.75856H31.3915C31.8084 4.75856 32.15 4.83715 32.4165 4.99431C32.683 5.15148 32.9085 5.41115 33.093 5.77331C33.2775 6.13548 33.4449 6.64798 33.5953 7.31081L31.4838 8.58181C31.0533 8.84831 30.633 9.03281 30.223 9.13531C29.813 9.23781 29.3039 9.28906 28.6958 9.28906H27.9885C27.9202 9.28906 27.886 9.0294 27.886 8.51006C27.886 7.97706 27.9202 7.71056 27.9885 7.71056H28.7675ZM29.8745 3.82581V2.55481H31.453V3.82581H29.8745Z" fill="white"/>
</svg>
