<svg width="201" height="42" viewBox="0 0 201 42" fill="none" xmlns="http://www.w3.org/2000/svg">
<path d="M10.3983 14.3385C10.6288 14.3385 10.8131 14.2809 10.9514 14.1657C11.0896 14.0504 11.1587 13.8834 11.1587 13.6645V10.882H13.7166V13.5953C13.7166 14.0908 13.97 14.3385 14.477 14.3385H15.03C15.1453 14.3385 15.2029 14.7878 15.2029 15.6865C15.2029 16.5622 15.1453 17 15.03 17H14.356C13.4112 17 12.7603 16.7465 12.4031 16.2396C12.1842 16.5046 11.9134 16.7004 11.5908 16.8272C11.2797 16.9424 10.8822 17 10.3983 17H5.00615C3.95768 17 3.15116 16.7177 2.58659 16.1532C2.02203 15.5886 1.73975 14.7821 1.73975 13.7336V10.882H4.29757V13.3879C4.29757 13.7106 4.3667 13.9525 4.50496 14.1138C4.64322 14.2636 4.87365 14.3385 5.19626 14.3385H10.3983ZM10.2082 7.59828V9.74132H5.23083V7.59828H10.2082ZM16.2424 14.3385C16.8646 14.3385 17.1756 14.0735 17.1756 13.5435V10.882H19.6816V13.5435C19.6816 14.0735 19.9869 14.3385 20.5976 14.3385C20.8972 14.3385 21.1218 14.2694 21.2716 14.1311C21.4214 13.9928 21.4963 13.797 21.4963 13.5435V10.882H24.0195V13.5435C24.0195 14.0735 24.3018 14.3385 24.8664 14.3385C25.4425 14.3385 25.7305 14.0735 25.7305 13.5435V10.882H28.2365V13.5089C28.2365 13.797 28.2999 14.0101 28.4266 14.1484C28.5533 14.2751 28.7492 14.3385 29.0142 14.3385H29.7055C29.8207 14.3385 29.8783 14.7878 29.8783 15.6865C29.8783 16.5622 29.8207 17 29.7055 17H29.0488C27.9657 17 27.2629 16.7465 26.9403 16.2396C26.537 16.7465 25.84 17 24.8491 17C23.7891 17 23.069 16.7292 22.6888 16.1877C22.4699 16.4642 22.1934 16.6716 21.8592 16.8099C21.5251 16.9366 21.0988 17 20.5803 17C20.0158 17 19.5549 16.9366 19.1977 16.8099C18.8405 16.6716 18.564 16.4642 18.3681 16.1877C18.1492 16.4642 17.867 16.6716 17.5213 16.8099C17.1872 16.9366 16.7609 17 16.2424 17H15.0326C14.9174 17 14.8598 16.5622 14.8598 15.6865C14.8598 14.7878 14.9174 14.3385 15.0326 14.3385H16.2424ZM30.9089 14.3385C31.5311 14.3385 31.8422 14.0735 31.8422 13.5435V10.882H34.3482V13.5435C34.3482 14.0735 34.6535 14.3385 35.2642 14.3385C35.5637 14.3385 35.7884 14.2694 35.9382 14.1311C36.088 13.9928 36.1628 13.797 36.1628 13.5435V10.882H38.6861V13.5435C38.6861 14.0735 38.9684 14.3385 39.533 14.3385C40.109 14.3385 40.3971 14.0735 40.3971 13.5435V10.882H42.9031V13.5089C42.9031 13.797 42.9664 14.0101 43.0932 14.1484C43.2199 14.2751 43.4158 14.3385 43.6808 14.3385H44.3721C44.4873 14.3385 44.5449 14.7878 44.5449 15.6865C44.5449 16.5622 44.4873 17 44.3721 17H43.7153C42.6323 17 41.9295 16.7465 41.6069 16.2396C41.2036 16.7465 40.5065 17 39.5157 17C38.4557 17 37.7356 16.7292 37.3553 16.1877C37.1364 16.4642 36.8599 16.6716 36.5258 16.8099C36.1917 16.9366 35.7654 17 35.2469 17C34.6823 17 34.2214 16.9366 33.8643 16.8099C33.5071 16.6716 33.2306 16.4642 33.0347 16.1877C32.8158 16.4642 32.5335 16.6716 32.1879 16.8099C31.8537 16.9366 31.4274 17 30.9089 17H29.6992C29.584 17 29.5263 16.5622 29.5263 15.6865C29.5263 14.7878 29.584 14.3385 29.6992 14.3385H30.9089ZM38.4787 4.38372V6.45763H36.232V4.38372H38.4787ZM39.844 7.1835V9.32654H34.8667V7.1835H39.844ZM49.274 13.7682C49.274 14.7705 48.9744 15.5598 48.3753 16.1359C47.7877 16.712 46.9927 17 45.9903 17H44.3657C44.2505 17 44.1929 16.5622 44.1929 15.6865C44.1929 14.7878 44.2505 14.3385 44.3657 14.3385H45.9903C46.2207 14.3385 46.4051 14.2751 46.5433 14.1484C46.6931 14.0216 46.768 13.8546 46.768 13.6472V10.882H49.274V13.7682ZM45.9903 9.32654V7.1835H48.6518V9.32654H45.9903ZM63.3768 14.3385C63.6073 14.3385 63.7916 14.2751 63.9299 14.1484C64.0681 14.0216 64.1373 13.8488 64.1373 13.6299V10.882H66.6951V13.8027C66.6951 14.8051 66.4013 15.5886 65.8137 16.1532C65.2376 16.7177 64.4483 17 63.446 17H57.9847C56.9362 17 56.1297 16.7177 55.5651 16.1532C55.0005 15.5886 54.7183 14.7821 54.7183 13.7336V10.882H57.2761V13.3879C57.2761 13.7106 57.3452 13.9525 57.4835 14.1138C57.6217 14.2636 57.8522 14.3385 58.1748 14.3385H63.3768ZM59.3673 20.7158V18.5727H62.0288V20.7158H59.3673ZM72.616 14.3385C72.6736 14.3385 72.7139 14.4191 72.737 14.5804C72.7715 14.7417 72.7888 15.1104 72.7888 15.6865C72.7888 16.2396 72.7715 16.5967 72.737 16.758C72.7139 16.9193 72.6736 17 72.616 17H71.9247C70.9108 17 70.1388 16.712 69.6088 16.1359C69.0903 15.5598 68.8311 14.736 68.8311 13.6645V5.88731H71.3889V13.4744C71.3889 13.7739 71.4465 13.9928 71.5617 14.1311C71.677 14.2694 71.8613 14.3385 72.1148 14.3385H72.616ZM73.8285 14.3385C74.4506 14.3385 74.7617 14.0735 74.7617 13.5435V10.882H77.2677V13.5435C77.2677 14.0735 77.573 14.3385 78.1837 14.3385C78.4832 14.3385 78.7079 14.2694 78.8577 14.1311C79.0075 13.9928 79.0824 13.797 79.0824 13.5435V10.882H81.6056V13.5435C81.6056 14.0735 81.8879 14.3385 82.4525 14.3385C83.0285 14.3385 83.3166 14.0735 83.3166 13.5435V10.882H85.8226V13.5089C85.8226 13.797 85.8859 14.0101 86.0127 14.1484C86.1394 14.2751 86.3353 14.3385 86.6003 14.3385H87.2916C87.4068 14.3385 87.4644 14.7878 87.4644 15.6865C87.4644 16.5622 87.4068 17 87.2916 17H86.6348C85.5518 17 84.849 16.7465 84.5264 16.2396C84.1231 16.7465 83.426 17 82.4352 17C81.3752 17 80.6551 16.7292 80.2749 16.1877C80.0559 16.4642 79.7794 16.6716 79.4453 16.8099C79.1112 16.9366 78.6849 17 78.1664 17C77.6018 17 77.1409 16.9366 76.7838 16.8099C76.4266 16.6716 76.1501 16.4642 75.9542 16.1877C75.7353 16.4642 75.453 16.6716 75.1074 16.8099C74.7732 16.9366 74.3469 17 73.8285 17H72.6187C72.5035 17 72.4458 16.5622 72.4458 15.6865C72.4458 14.7878 72.5035 14.3385 72.6187 14.3385H73.8285ZM88.5987 14.3385C89.4513 14.3385 90.1657 14.2809 90.7417 14.1657C91.3294 14.0504 91.94 13.8315 92.5737 13.5089L93.6798 12.8695C93.5876 12.5238 93.4494 12.2876 93.265 12.1609C93.0922 12.0341 92.8272 11.9708 92.47 11.9708H88.5296L88.7888 9.3611H93.023C93.7259 9.3611 94.302 9.4936 94.7513 9.7586C95.2007 10.0236 95.5809 10.4614 95.892 11.0721C96.203 11.6827 96.4853 12.5469 96.7388 13.6645L93.1786 15.8075C92.4527 16.2568 91.7441 16.5679 91.0528 16.7408C90.3615 16.9136 89.5032 17 88.4777 17H87.2852C87.17 17 87.1124 16.5622 87.1124 15.6865C87.1124 14.7878 87.17 14.3385 87.2852 14.3385H88.5987ZM108.806 13.4052C108.806 14.0274 109.042 14.3385 109.515 14.3385H110.102C110.16 14.3385 110.2 14.4191 110.223 14.5804C110.258 14.7417 110.275 15.1104 110.275 15.6865C110.275 16.2396 110.258 16.5967 110.223 16.758C110.2 16.9193 110.16 17 110.102 17H109.497C108.241 17 107.452 16.5507 107.13 15.652C106.646 16.0552 105.937 16.2568 105.004 16.2568C103.978 16.2568 103.189 15.9688 102.636 15.3927C102.083 14.8051 101.807 13.9352 101.807 12.7831C101.807 12.1378 101.951 11.5329 102.239 10.9684C102.527 10.3923 102.936 9.93143 103.466 9.58578C104.007 9.2286 104.624 9.05002 105.315 9.05002H106.265V7.92665H108.806V13.4052ZM104.295 12.7485C104.295 13.3822 104.606 13.699 105.228 13.699C105.586 13.699 105.856 13.6299 106.041 13.4916C106.237 13.3534 106.335 13.1575 106.335 12.904V11.5733H105.453C104.681 11.5733 104.295 11.965 104.295 12.7485ZM115.012 13.7682C115.012 14.7705 114.712 15.5598 114.113 16.1359C113.526 16.712 112.731 17 111.728 17H110.104C109.988 17 109.931 16.5622 109.931 15.6865C109.931 14.7878 109.988 14.3385 110.104 14.3385H111.728C111.959 14.3385 112.143 14.2751 112.281 14.1484C112.431 14.0216 112.506 13.8546 112.506 13.6472V10.882H115.012V13.7682ZM110.155 20.7158V18.5727H112.817V20.7158H110.155ZM124.068 14.3385C124.299 14.3385 124.483 14.2924 124.621 14.2002C124.771 14.108 124.846 13.9813 124.846 13.82C124.846 13.6817 124.771 13.4052 124.621 12.9904C124.471 12.5757 124.08 11.5445 123.446 9.89686L123.083 8.94632L125.468 7.84024L127.49 13.4571C127.594 13.7682 127.721 13.9928 127.87 14.1311C128.02 14.2694 128.216 14.3385 128.458 14.3385H128.942C129.057 14.3385 129.115 14.7878 129.115 15.6865C129.115 16.2511 129.097 16.614 129.063 16.7753C129.028 16.9251 128.988 17 128.942 17H128.285C127.34 17 126.666 16.7292 126.263 16.1877C126.021 16.4873 125.745 16.7004 125.434 16.8272C125.134 16.9424 124.771 17 124.345 17H120.283L120.076 14.3385H124.068ZM133.087 14.3385C133.306 14.3385 133.484 14.2751 133.623 14.1484C133.772 14.0216 133.847 13.8546 133.847 13.6472V10.882H136.353V13.7682C136.353 14.7705 136.054 15.5598 135.454 16.1359C134.867 16.712 134.072 17 133.069 17H128.939C128.824 17 128.766 16.5622 128.766 15.6865C128.766 14.7878 128.824 14.3385 128.939 14.3385H133.087ZM134.089 18.5727V20.7158H129.112V18.5727H134.089ZM136.699 18.4172C137.425 18.4172 137.978 18.2328 138.359 17.8641C138.75 17.507 138.946 16.9827 138.946 16.2914V10.882H141.504V13.5089C141.504 13.797 141.573 14.0101 141.711 14.1484C141.85 14.2751 142.069 14.3385 142.368 14.3385H142.8C142.915 14.3385 142.973 14.7878 142.973 15.6865C142.973 16.5622 142.915 17 142.8 17H142.506C142.057 17 141.717 16.9021 141.487 16.7062C141.429 17.5473 141.204 18.2962 140.813 18.9529C140.433 19.6212 139.897 20.1397 139.205 20.5084C138.526 20.8886 137.725 21.0787 136.803 21.0787H136.146L135.939 18.4172H136.699ZM144.109 14.3385C144.961 14.3385 145.676 14.2809 146.252 14.1657C146.84 14.0504 147.45 13.8315 148.084 13.5089L149.19 12.8695C149.098 12.5238 148.959 12.2876 148.775 12.1609C148.602 12.0341 148.337 11.9708 147.98 11.9708H144.04L144.299 9.3611H148.533C149.236 9.3611 149.812 9.4936 150.261 9.7586C150.711 10.0236 151.091 10.4614 151.402 11.0721C151.713 11.6827 151.995 12.5469 152.249 13.6645L148.689 15.8075C147.963 16.2568 147.254 16.5679 146.563 16.7408C145.872 16.9136 145.013 17 143.988 17H142.795C142.68 17 142.623 16.5622 142.623 15.6865C142.623 14.7878 142.68 14.3385 142.795 14.3385H144.109ZM145.975 7.78839V5.64535H148.637V7.78839H145.975ZM161.706 16.2568C161.706 17.2016 161.511 18.037 161.119 18.7628C160.739 19.5002 160.191 20.0705 159.477 20.4738C158.774 20.8771 157.95 21.0787 157.006 21.0787H156.349L156.141 18.4172H156.902C157.628 18.4172 158.181 18.2328 158.561 17.8641C158.953 17.507 159.149 16.9827 159.149 16.2914V10.882H161.706V16.2568ZM159.045 9.32654V7.1835H161.706V9.32654H159.045ZM163.851 5.88731H166.409V17H163.851V5.88731ZM172.519 12.6448C172.519 11.5272 172.461 10.5709 172.346 9.77588C172.231 8.98089 172 8.01882 171.654 6.88969L174.143 6.02557C174.512 7.15469 174.76 8.16861 174.886 9.0673C175.013 9.96599 175.076 11.1412 175.076 12.5929V17H172.519V12.6448ZM180.878 8.2723C181.477 8.2723 182.054 8.43937 182.607 8.7735C183.171 9.10763 183.626 9.55121 183.972 10.1043C184.318 10.6573 184.49 11.2334 184.49 11.8325C184.49 12.4432 184.318 13.025 183.972 13.5781C183.626 14.1311 183.171 14.5747 182.607 14.9088C182.054 15.2429 181.477 15.41 180.878 15.41C180.268 15.41 179.68 15.2429 179.116 14.9088C178.562 14.5747 178.113 14.1311 177.767 13.5781C177.422 13.025 177.249 12.4432 177.249 11.8325C177.249 11.2334 177.422 10.6573 177.767 10.1043C178.113 9.55121 178.562 9.10763 179.116 8.7735C179.68 8.43937 180.268 8.2723 180.878 8.2723ZM180.878 12.9904C181.166 12.9904 181.426 12.8752 181.656 12.6448C181.898 12.4028 182.019 12.1321 182.019 11.8325C182.019 11.5329 181.904 11.2679 181.673 11.0375C181.443 10.8071 181.178 10.6919 180.878 10.6919C180.579 10.6919 180.308 10.8128 180.066 11.0548C179.836 11.2852 179.72 11.5445 179.72 11.8325C179.72 12.1206 179.841 12.3856 180.083 12.6275C180.325 12.8695 180.59 12.9904 180.878 12.9904ZM196.909 7.39089L190.325 17.1728L188.268 15.7211L194.835 5.93915L196.909 7.39089ZM188.821 6.12926C189.27 6.12926 189.697 6.25024 190.1 6.4922C190.503 6.73415 190.826 7.05676 191.068 7.46002C191.31 7.86328 191.431 8.28382 191.431 8.72165C191.431 9.15947 191.304 9.58002 191.05 9.98328C190.809 10.375 190.486 10.6976 190.083 10.9511C189.691 11.1931 189.27 11.314 188.821 11.314C188.372 11.314 187.945 11.1931 187.542 10.9511C187.139 10.6976 186.81 10.375 186.557 9.98328C186.315 9.58002 186.194 9.15947 186.194 8.72165C186.194 8.28382 186.315 7.86328 186.557 7.46002C186.81 7.05676 187.139 6.73415 187.542 6.4922C187.945 6.25024 188.372 6.12926 188.821 6.12926ZM188.821 9.32654C188.994 9.32654 189.138 9.26317 189.253 9.13643C189.38 9.00969 189.443 8.85991 189.443 8.68708C189.443 8.52578 189.38 8.38752 189.253 8.2723C189.126 8.14556 188.982 8.08219 188.821 8.08219C188.637 8.08219 188.481 8.14556 188.354 8.2723C188.239 8.38752 188.182 8.52578 188.182 8.68708C188.182 8.87143 188.239 9.02697 188.354 9.15371C188.481 9.26893 188.637 9.32654 188.821 9.32654ZM196.408 11.7461C196.857 11.7461 197.284 11.8728 197.687 12.1263C198.09 12.3683 198.413 12.6909 198.655 13.0941C198.908 13.4974 199.035 13.9179 199.035 14.3558C199.035 14.7936 198.908 15.2141 198.655 15.6174C198.413 16.0091 198.09 16.3317 197.687 16.5852C197.284 16.8272 196.857 16.9482 196.408 16.9482C195.959 16.9482 195.532 16.8272 195.129 16.5852C194.726 16.3317 194.403 16.0091 194.161 15.6174C193.919 15.2141 193.798 14.7936 193.798 14.3558C193.798 13.9179 193.919 13.4974 194.161 13.0941C194.403 12.6909 194.726 12.3683 195.129 12.1263C195.532 11.8728 195.959 11.7461 196.408 11.7461ZM196.408 14.9952C196.569 14.9952 196.713 14.9319 196.84 14.8051C196.978 14.6784 197.048 14.5286 197.048 14.3558C197.048 14.1829 196.984 14.0389 196.857 13.9237C196.731 13.797 196.581 13.7336 196.408 13.7336C196.235 13.7336 196.085 13.797 195.959 13.9237C195.844 14.0389 195.786 14.1829 195.786 14.3558C195.786 14.5286 195.844 14.6784 195.959 14.8051C196.085 14.9319 196.235 14.9952 196.408 14.9952Z" fill="white"/>
<path d="M6.63254 34.8759C6.84727 34.8759 7.02044 34.8205 7.15204 34.7097C7.28365 34.5919 7.34945 34.4326 7.34945 34.2317V32.5486H8.43001V34.2733C8.43001 34.8067 8.26724 35.2292 7.94168 35.5409C7.61613 35.8457 7.17975 35.998 6.63254 35.998H3.04799C2.43152 35.998 1.96397 35.8387 1.64534 35.5201C1.32672 35.1946 1.1674 34.7374 1.1674 34.1486V32.5486H2.23757V34.0032C2.23757 34.2941 2.30684 34.5123 2.44537 34.6577C2.58391 34.8032 2.8021 34.8759 3.09994 34.8759H6.63254ZM6.20655 30.7615V31.7589H3.38047V30.7615H6.20655ZM11.6211 35.6656C11.6211 36.2405 11.5068 36.7427 11.2783 37.1721C11.0497 37.6016 10.7241 37.9306 10.3016 38.1592C9.88599 38.3947 9.40113 38.5124 8.84699 38.5124H8.06774L7.97423 37.3903H8.8366C9.36996 37.3903 9.78556 37.2379 10.0834 36.9331C10.3882 36.6353 10.5406 36.2128 10.5406 35.6656V32.5486H11.6211V35.6656ZM15.2695 34.8759C15.3041 34.8759 15.3284 34.914 15.3422 34.9902C15.363 35.0664 15.3734 35.2223 15.3734 35.4578C15.3734 35.6794 15.363 35.8249 15.3422 35.8941C15.3284 35.9634 15.3041 35.998 15.2695 35.998H14.9578C14.4036 35.998 13.9846 35.8353 13.7006 35.5097C13.4166 35.1842 13.2746 34.7235 13.2746 34.1278V29.2861H14.3448V34.0551C14.3448 34.3391 14.3967 34.5469 14.5006 34.6785C14.6114 34.8101 14.7846 34.8759 15.0201 34.8759H15.2695ZM18.1095 34.8759C18.3727 34.8759 18.5771 34.8309 18.7225 34.7409C18.868 34.6439 18.9407 34.5157 18.9407 34.3564C18.9407 34.2248 18.9095 34.1036 18.8472 33.9928C18.7849 33.882 18.6844 33.7538 18.5459 33.6083L16.1978 31.2914V30.3874L20.0421 28.8809L20.3641 29.9095L17.4861 31.0108L19.3563 32.9018C19.7927 33.3313 20.0109 33.8265 20.0109 34.3876C20.0109 34.8655 19.8446 35.2534 19.5122 35.5513C19.1797 35.8491 18.7121 35.998 18.1095 35.998H15.273C15.2038 35.998 15.1691 35.818 15.1691 35.4578C15.1691 35.0699 15.2038 34.8759 15.273 34.8759H18.1095ZM26.6899 34.8759C26.7591 34.8759 26.7938 35.0699 26.7938 35.4578C26.7938 35.818 26.7591 35.998 26.6899 35.998H25.7652C25.6959 36.7877 25.4223 37.4042 24.9444 37.8475C24.4733 38.2908 23.8534 38.5124 23.0845 38.5124H21.7442L21.6507 37.3903H23.1157C23.6075 37.3903 23.9954 37.2656 24.2794 37.0163C24.5634 36.7669 24.7088 36.4275 24.7158 35.998H23.8222C23.088 35.998 22.5616 35.8491 22.243 35.5513C21.9243 35.2465 21.765 34.772 21.765 34.1278C21.765 33.6845 21.8481 33.2932 22.0144 32.9538C22.1875 32.6144 22.4265 32.3512 22.7313 32.1641C23.043 31.9702 23.3997 31.8732 23.8015 31.8732C24.4179 31.8732 24.9028 32.081 25.2561 32.4966C25.6093 32.9053 25.7859 33.4663 25.7859 34.1798V34.8759H26.6899ZM22.8456 34.0759C22.8456 34.3668 22.9218 34.5746 23.0742 34.6993C23.2265 34.8171 23.4932 34.8759 23.8742 34.8759H24.7158V34.2006C24.7158 33.7919 24.6327 33.4837 24.4664 33.2759C24.3002 33.0611 24.0612 32.9538 23.7495 32.9538C23.4655 32.9538 23.2439 33.0577 23.0845 33.2655C22.9252 33.4663 22.8456 33.7365 22.8456 34.0759ZM27.0307 34.8759C27.2454 34.8759 27.4186 34.8205 27.5502 34.7097C27.6818 34.5919 27.7476 34.4292 27.7476 34.2214V29.2861H28.8282V34.1694C28.8282 34.4049 28.8905 34.5815 29.0152 34.6993C29.1399 34.8171 29.313 34.8759 29.5347 34.8759H29.8152C29.8845 34.8759 29.9191 35.0664 29.9191 35.4474C29.9191 35.8145 29.8845 35.998 29.8152 35.998H29.4828C29.1849 35.998 28.9321 35.9496 28.7243 35.8526C28.5234 35.7556 28.3779 35.6136 28.2879 35.4266C28.0385 35.8076 27.6195 35.998 27.0307 35.998H26.6878C26.6186 35.998 26.5839 35.818 26.5839 35.4578C26.5839 35.0699 26.6186 34.8759 26.6878 34.8759H27.0307ZM32.6702 34.2525C32.6702 34.7997 32.5074 35.2292 32.1819 35.5409C31.8563 35.8457 31.4199 35.998 30.8727 35.998H29.813C29.7437 35.998 29.7091 35.818 29.7091 35.4578C29.7091 35.0699 29.7437 34.8759 29.813 34.8759H30.8727C31.0875 34.8759 31.2606 34.8205 31.3922 34.7097C31.5238 34.5919 31.5896 34.4292 31.5896 34.2214V32.5486H32.6702V34.2525ZM30.0208 38.2319V37.2137H31.2676V38.2319H30.0208ZM38.9355 35.6656C38.9355 36.2405 38.8212 36.7427 38.5926 37.1721C38.364 37.6016 38.0385 37.9306 37.6159 38.1592C37.2003 38.3947 36.7155 38.5124 36.1613 38.5124H35.86L35.7665 37.3903H36.1509C36.6843 37.3903 37.0999 37.2379 37.3977 36.9331C37.7025 36.6353 37.8549 36.2128 37.8549 35.6656V32.5486H38.9355V35.6656ZM37.7094 31.3641V30.3459H38.9562V31.3641H37.7094ZM40.5889 29.2861H41.6591V35.998H40.5889V29.2861ZM51.2056 34.8759C51.4272 34.8759 51.6038 34.8205 51.7355 34.7097C51.874 34.5919 51.9433 34.4326 51.9433 34.2317V32.5486H53.0238V34.1798C53.0238 34.6439 53.2628 34.8759 53.7407 34.8759H54.094C54.1632 34.8759 54.1979 35.0699 54.1979 35.4578C54.1979 35.818 54.1632 35.998 54.094 35.998H53.6992C53.0827 35.998 52.674 35.811 52.4731 35.437C52.2307 35.811 51.8082 35.998 51.2056 35.998H47.6418C47.0253 35.998 46.5578 35.8387 46.2391 35.5201C45.9205 35.1946 45.7612 34.7374 45.7612 34.1486V32.5486H46.8314V34.0032C46.8314 34.2941 46.9006 34.5123 47.0392 34.6577C47.1777 34.8032 47.3959 34.8759 47.6937 34.8759H51.2056ZM50.8004 30.7615V31.7589H47.9743V30.7615H50.8004ZM54.8416 34.8759C55.368 34.8759 55.8009 34.8378 56.1403 34.7616C56.4867 34.6854 56.8399 34.5434 57.2001 34.3356L58.5092 33.5876C58.4192 33.262 58.2911 33.0404 58.1248 32.9226C57.9586 32.7979 57.7092 32.7356 57.3767 32.7356H54.9766L55.1117 31.6135H57.5638C57.9932 31.6135 58.343 31.6862 58.6131 31.8317C58.8833 31.9702 59.1084 32.2057 59.2885 32.5382C59.4686 32.8707 59.6279 33.3382 59.7664 33.9408L57.6988 35.2396C57.2347 35.5305 56.788 35.7314 56.3585 35.8422C55.936 35.9461 55.413 35.998 54.7896 35.998H54.0935C54.0242 35.998 53.9896 35.818 53.9896 35.4578C53.9896 35.0699 54.0242 34.8759 54.0935 34.8759H54.8416ZM56.2442 30.4706V29.4523H57.491V30.4706H56.2442ZM61.1051 29.2861H62.1753V35.998H61.1051V29.2861ZM67.7593 32.9018C67.9948 33.1789 68.161 33.4352 68.258 33.6707C68.3619 33.8993 68.4138 34.1382 68.4138 34.3876C68.4138 34.8655 68.2441 35.2534 67.9047 35.5513C67.5722 35.8491 67.1047 35.998 66.5021 35.998H63.6344L63.5305 34.8759H66.5021C66.7653 34.8759 66.9696 34.8309 67.1151 34.7409C67.2605 34.6439 67.3333 34.5157 67.3333 34.3564C67.3333 34.2456 67.3021 34.1382 67.2398 34.0343C67.1844 33.9235 67.0839 33.7815 66.9385 33.6083L65.0683 31.4368L65.8267 30.668L67.7593 32.9018ZM71.6071 34.1486C71.6071 34.6335 71.8704 34.8759 72.3968 34.8759H72.5422C72.6115 34.8759 72.6461 35.0699 72.6461 35.4578C72.6461 35.818 72.6115 35.998 72.5422 35.998H72.3968C72.2236 35.998 72.0643 35.9738 71.9188 35.9253C71.7803 35.8699 71.6764 35.7972 71.6071 35.7071V35.7695C71.5933 36.3097 71.4686 36.7877 71.2331 37.2033C71.0045 37.6189 70.6824 37.941 70.2668 38.1696C69.8582 38.3981 69.3802 38.5124 68.833 38.5124H68.0538L67.9603 37.3903H68.8226C69.356 37.3903 69.7716 37.2379 70.0694 36.9331C70.3742 36.6353 70.5266 36.2128 70.5266 35.6656V32.5486H71.6071V34.1486ZM75.0646 34.8759C75.2793 34.8759 75.4525 34.8205 75.5841 34.7097C75.7157 34.5919 75.7815 34.4292 75.7815 34.2214V32.5486H76.8621V34.2525C76.8621 34.7997 76.6993 35.2292 76.3737 35.5409C76.0551 35.8457 75.6187 35.998 75.0646 35.998H72.5398C72.4705 35.998 72.4359 35.818 72.4359 35.4578C72.4359 35.0699 72.4705 34.8759 72.5398 34.8759H75.0646ZM75.4698 37.2137V38.2111H72.6437V37.2137H75.4698ZM73.5373 39.7384V38.7722H74.5763V39.7384H73.5373ZM82.9465 34.8759C82.9812 34.8759 83.0054 34.914 83.0193 34.9902C83.04 35.0664 83.0504 35.2223 83.0504 35.4578C83.0504 35.6794 83.04 35.8249 83.0193 35.8941C83.0054 35.9634 82.9812 35.998 82.9465 35.998H82.6348C82.0807 35.998 81.6616 35.8353 81.3776 35.5097C81.0936 35.1842 80.9516 34.7235 80.9516 34.1278V29.2861H82.0218V34.0551C82.0218 34.3391 82.0738 34.5469 82.1777 34.6785C82.2885 34.8101 82.4617 34.8759 82.6972 34.8759H82.9465ZM85.8074 34.2525C85.8074 34.7997 85.6446 35.2292 85.319 35.5409C84.9935 35.8457 84.5571 35.998 84.0099 35.998H82.9501C82.8808 35.998 82.8462 35.818 82.8462 35.4578C82.8462 35.0699 82.8808 34.8759 82.9501 34.8759H84.0099C84.2246 34.8759 84.3978 34.8205 84.5294 34.7097C84.661 34.5919 84.7268 34.4292 84.7268 34.2214V32.5486H85.8074V34.2525ZM83.1579 38.2319V37.2137H84.4047V38.2319H83.1579ZM95.1377 36.1019C95.1377 35.7279 94.9195 35.5409 94.4831 35.5409H92.509V33.5876C92.509 32.9919 92.6856 32.5105 93.0389 32.1434C93.3991 31.7762 93.8839 31.5927 94.4935 31.5927H95.8442L95.9169 32.6732H94.4831C94.2129 32.6732 93.9948 32.7564 93.8285 32.9226C93.6692 33.0888 93.5895 33.3036 93.5895 33.5668V34.4292H94.6701C95.7022 34.4292 96.2182 34.9694 96.2182 36.05C96.2182 36.4933 96.0901 36.902 95.8338 37.276C95.5844 37.657 95.2381 37.9583 94.7948 38.1799C94.3584 38.4016 93.8735 38.5124 93.3402 38.5124H92.5505C91.6639 38.5124 90.9817 38.2561 90.5037 37.7436C90.0258 37.2379 89.7868 36.5245 89.7868 35.6032V33.5876H90.857V35.5824C90.857 36.7877 91.425 37.3903 92.5609 37.3903H93.3402C93.8943 37.3903 94.3307 37.2691 94.6493 37.0267C94.9749 36.7912 95.1377 36.4829 95.1377 36.1019ZM99.9332 34.8759C100.148 34.8759 100.318 34.8344 100.442 34.7512C100.574 34.6612 100.64 34.5434 100.64 34.398C100.64 34.2664 100.581 34.0309 100.463 33.6915C100.345 33.3521 100.03 32.507 99.5176 31.1563L100.515 30.6888L101.72 34.0863C101.824 34.3772 101.935 34.5815 102.053 34.6993C102.177 34.8171 102.351 34.8759 102.572 34.8759H102.811C102.881 34.8759 102.915 35.0699 102.915 35.4578C102.915 35.6933 102.905 35.8422 102.884 35.9045C102.87 35.9669 102.846 35.998 102.811 35.998H102.531C102.212 35.998 101.949 35.9496 101.741 35.8526C101.533 35.7556 101.367 35.5998 101.242 35.385C101.118 35.5998 100.948 35.7556 100.733 35.8526C100.519 35.9496 100.252 35.998 99.9332 35.998H97.5643L97.4604 34.8759H99.9332ZM105.664 34.2525C105.664 34.7997 105.501 35.2292 105.176 35.5409C104.85 35.8457 104.414 35.998 103.867 35.998H102.807C102.738 35.998 102.703 35.818 102.703 35.4578C102.703 35.0699 102.738 34.8759 102.807 34.8759H103.867C104.081 34.8759 104.254 34.8205 104.386 34.7097C104.518 34.5919 104.583 34.4292 104.583 34.2214V32.5486H105.664V34.2525ZM105.051 37.2137V38.2111H102.225V37.2137H105.051ZM107.312 29.2861H108.382V35.998H107.312V29.2861ZM111.696 34.1486C111.696 34.6335 111.959 34.8759 112.486 34.8759H112.631C112.7 34.8759 112.735 35.0699 112.735 35.4578C112.735 35.818 112.7 35.998 112.631 35.998H112.486C112.312 35.998 112.153 35.9738 112.008 35.9253C111.869 35.8699 111.765 35.7972 111.696 35.7071V35.7695C111.682 36.3097 111.557 36.7877 111.322 37.2033C111.093 37.6189 110.771 37.941 110.356 38.1696C109.947 38.3981 109.469 38.5124 108.922 38.5124H108.143L108.049 37.3903H108.911C109.445 37.3903 109.86 37.2379 110.158 36.9331C110.463 36.6353 110.615 36.2128 110.615 35.6656V32.5486H111.696V34.1486ZM114.135 34.8759C114.35 34.8759 114.492 34.869 114.561 34.8551C114.166 34.682 113.882 34.4846 113.709 34.2629C113.543 34.0343 113.46 33.7434 113.46 33.3902C113.46 33.0092 113.546 32.6629 113.72 32.3512C113.9 32.0395 114.142 31.797 114.447 31.6239C114.759 31.4438 115.108 31.3537 115.496 31.3537C116.147 31.3537 116.653 31.5546 117.013 31.9563C117.38 32.3581 117.564 32.9122 117.564 33.6187V33.972C117.564 35.3227 116.66 35.998 114.852 35.998H112.629C112.559 35.998 112.525 35.818 112.525 35.4578C112.525 35.0699 112.559 34.8759 112.629 34.8759H114.135ZM116.182 34.7201C116.39 34.5331 116.494 34.256 116.494 33.8889V33.6811C116.494 32.8499 116.158 32.4343 115.486 32.4343C115.223 32.4343 114.997 32.5278 114.81 32.7148C114.623 32.8949 114.53 33.1166 114.53 33.3798C114.53 33.5806 114.578 33.7538 114.675 33.8993C114.779 34.0378 114.949 34.1729 115.185 34.3045C115.42 34.4361 115.752 34.5746 116.182 34.7201ZM114.821 30.3251V29.3069H116.068V30.3251H114.821ZM121.001 35.998C120.384 35.998 119.917 35.8387 119.598 35.5201C119.28 35.1946 119.12 34.7374 119.12 34.1486V32.5486H120.19V34.0032C120.19 34.2941 120.26 34.5123 120.398 34.6577C120.537 34.8032 120.755 34.8759 121.053 34.8759H124.669C124.932 34.8759 125.136 34.8309 125.282 34.7409C125.427 34.6439 125.5 34.5157 125.5 34.3564C125.5 34.2248 125.469 34.1036 125.406 33.9928C125.351 33.882 125.25 33.7538 125.105 33.6083L122.757 31.2914V30.3874L126.601 28.8809L126.923 29.9095L124.045 31.0108L125.915 32.8914C126.546 33.5218 127.01 33.972 127.308 34.2421C127.612 34.5054 127.855 34.6785 128.035 34.7616C128.215 34.8378 128.423 34.8759 128.658 34.8759C128.728 34.8759 128.762 35.0699 128.762 35.4578C128.762 35.818 128.728 35.998 128.658 35.998C128.333 35.998 128.066 35.9738 127.858 35.9253C127.657 35.8699 127.45 35.766 127.235 35.6136C127.027 35.4612 126.764 35.2223 126.445 34.8967C126.369 35.2361 126.172 35.5063 125.853 35.7071C125.541 35.9011 125.146 35.998 124.669 35.998H121.001ZM129.003 34.8759C129.218 34.8759 129.391 34.8205 129.522 34.7097C129.654 34.5919 129.72 34.4292 129.72 34.2214V29.2861H130.8V34.1694C130.8 34.4049 130.863 34.5815 130.987 34.6993C131.112 34.8171 131.285 34.8759 131.507 34.8759H131.787C131.857 34.8759 131.891 35.0664 131.891 35.4474C131.891 35.8145 131.857 35.998 131.787 35.998H131.455C131.157 35.998 130.904 35.9496 130.696 35.8526C130.496 35.7556 130.35 35.6136 130.26 35.4266C130.011 35.8076 129.592 35.998 129.003 35.998H128.66C128.591 35.998 128.556 35.818 128.556 35.4578C128.556 35.0699 128.591 34.8759 128.66 34.8759H129.003ZM134.642 34.2525C134.642 34.7997 134.48 35.2292 134.154 35.5409C133.828 35.8457 133.392 35.998 132.845 35.998H131.785C131.716 35.998 131.681 35.818 131.681 35.4578C131.681 35.0699 131.716 34.8759 131.785 34.8759H132.845C133.06 34.8759 133.233 34.8205 133.364 34.7097C133.496 34.5919 133.562 34.4292 133.562 34.2214V32.5486H134.642V34.2525ZM131.993 38.2319V37.2137H133.24V38.2319H131.993ZM140.908 35.6656C140.908 36.2405 140.793 36.7427 140.565 37.1721C140.336 37.6016 140.011 37.9306 139.588 38.1592C139.172 38.3947 138.688 38.5124 138.133 38.5124H137.832L137.739 37.3903H138.123C138.656 37.3903 139.072 37.2379 139.37 36.9331C139.675 36.6353 139.827 36.2128 139.827 35.6656V32.5486H140.908V35.6656ZM146.374 32.9018C146.61 33.1789 146.776 33.4352 146.873 33.6707C146.977 33.8993 147.029 34.1382 147.029 34.3876C147.029 34.8655 146.859 35.2534 146.52 35.5513C146.187 35.8491 145.72 35.998 145.117 35.998H142.249L142.145 34.8759H145.117C145.38 34.8759 145.585 34.8309 145.73 34.7409C145.876 34.6439 145.948 34.5157 145.948 34.3564C145.948 34.2456 145.917 34.1382 145.855 34.0343C145.799 33.9235 145.699 33.7815 145.553 33.6083L143.683 31.4368L144.442 30.668L146.374 32.9018Z" fill="white"/>
<path d="M153.751 38.528C152.791 38.528 152.035 38.242 151.485 37.67C150.943 37.1054 150.671 36.328 150.671 35.338V32.973H152.761V35.283C152.761 35.6424 152.846 35.9064 153.014 36.075C153.183 36.2437 153.447 36.328 153.806 36.328H154.246C154.598 36.328 154.87 36.251 155.06 36.097C155.251 35.943 155.346 35.7267 155.346 35.448V28.958H157.436V35.283C157.436 35.9064 157.308 36.4637 157.051 36.955C156.795 37.4464 156.424 37.8314 155.94 38.11C155.456 38.3887 154.892 38.528 154.246 38.528H153.751ZM163.764 33.798C163.837 33.798 163.874 34.1647 163.874 34.898C163.874 35.6314 163.837 35.998 163.764 35.998H163.104C163.023 36.7974 162.73 37.417 162.224 37.857C161.718 38.3044 161.058 38.528 160.244 38.528H158.594L158.429 36.383H160.629C160.79 36.383 160.911 36.3464 160.992 36.273C161.08 36.207 161.124 36.1154 161.124 35.998H160.849C159.998 35.998 159.389 35.822 159.023 35.47C158.663 35.1107 158.484 34.5167 158.484 33.688C158.484 33.2187 158.579 32.797 158.77 32.423C158.968 32.0417 159.239 31.7447 159.584 31.532C159.936 31.3194 160.339 31.213 160.794 31.213C161.542 31.213 162.121 31.4404 162.532 31.895C162.95 32.3424 163.159 32.9767 163.159 33.798H163.764ZM160.464 33.578C160.464 33.7174 160.493 33.8164 160.552 33.875C160.61 33.9337 160.709 33.963 160.849 33.963H161.179V33.633C161.179 33.3397 161.054 33.193 160.805 33.193C160.695 33.193 160.61 33.2297 160.552 33.303C160.493 33.369 160.464 33.4607 160.464 33.578ZM166.319 33.798C166.37 33.798 166.414 33.7834 166.451 33.754C166.495 33.7174 166.517 33.6734 166.517 33.622V31.873H168.552V33.743C168.552 34.4324 168.346 34.9824 167.936 35.393C167.532 35.7964 166.986 35.998 166.297 35.998H163.767C163.693 35.998 163.657 35.6314 163.657 34.898C163.657 34.4287 163.668 34.128 163.69 33.996C163.712 33.864 163.737 33.798 163.767 33.798H166.319ZM166.847 36.658V38.253H163.547V36.658H166.847ZM164.372 40.178V38.583H166.022V40.178H164.372ZM176.252 33.798C176.398 33.798 176.472 33.743 176.472 33.633V31.873H178.562V33.633C178.562 33.743 178.635 33.798 178.782 33.798H179.002C179.075 33.798 179.112 34.1647 179.112 34.898C179.112 35.6314 179.075 35.998 179.002 35.998H178.672C178.129 35.998 177.726 35.8697 177.462 35.613C177.322 35.7524 177.161 35.8514 176.978 35.91C176.794 35.9687 176.552 35.998 176.252 35.998H173.227C172.537 35.998 172.006 35.811 171.632 35.437C171.265 35.0557 171.082 34.5094 171.082 33.798V31.873H173.172V33.523C173.172 33.611 173.19 33.6807 173.227 33.732C173.271 33.776 173.344 33.798 173.447 33.798H176.252ZM176.472 29.618V31.213H173.172V29.618H176.472ZM179.604 33.798C179.751 33.798 179.824 33.743 179.824 33.633V31.873H181.859V33.633C181.859 33.677 181.874 33.7174 181.903 33.754C181.94 33.7834 181.987 33.798 182.046 33.798C182.178 33.798 182.244 33.743 182.244 33.633V31.873H184.279V33.622C184.279 33.6734 184.297 33.7174 184.334 33.754C184.371 33.7834 184.415 33.798 184.466 33.798C184.598 33.798 184.664 33.743 184.664 33.633V31.873H186.699V33.578C186.699 33.6587 186.714 33.7174 186.743 33.754C186.78 33.7834 186.838 33.798 186.919 33.798H187.359C187.432 33.798 187.469 34.1647 187.469 34.898C187.469 35.6314 187.432 35.998 187.359 35.998H186.974C186.681 35.998 186.42 35.9687 186.193 35.91C185.973 35.844 185.812 35.745 185.709 35.613C185.452 35.8697 185.031 35.998 184.444 35.998C183.901 35.998 183.498 35.8697 183.234 35.613C183.095 35.7524 182.933 35.8514 182.75 35.91C182.567 35.9687 182.325 35.998 182.024 35.998C181.481 35.998 181.078 35.8697 180.814 35.613C180.675 35.7524 180.513 35.8514 180.33 35.91C180.147 35.9687 179.905 35.998 179.604 35.998H178.999C178.926 35.998 178.889 35.6314 178.889 34.898C178.889 34.4287 178.9 34.128 178.922 33.996C178.944 33.864 178.97 33.798 178.999 33.798H179.604ZM184.059 27.693V29.288H182.409V27.693H184.059ZM184.884 29.618V31.213H181.584V29.618H184.884ZM191.921 26.538L192.196 27.748L187.796 29.343V28.023L191.921 26.538ZM189.831 33.798C189.897 33.798 189.949 33.7834 189.985 33.754C190.029 33.7174 190.051 33.677 190.051 33.633C190.051 33.5597 189.996 33.468 189.886 33.358L187.796 31.323V29.783L192.306 28.133L192.801 30.223L190.601 31.048L191.481 31.928C191.877 32.324 192.141 32.6687 192.273 32.962C192.405 33.2554 192.471 33.589 192.471 33.963C192.471 34.645 192.262 35.1547 191.844 35.492C191.434 35.8294 190.891 35.998 190.216 35.998H187.356C187.283 35.998 187.246 35.6314 187.246 34.898C187.246 34.4287 187.257 34.128 187.279 33.996C187.301 33.864 187.327 33.798 187.356 33.798H189.831ZM195.713 33.578C195.713 33.6587 195.728 33.7174 195.757 33.754C195.794 33.7834 195.852 33.798 195.933 33.798H196.373C196.446 33.798 196.483 34.1647 196.483 34.898C196.483 35.6314 196.446 35.998 196.373 35.998H196.153C195.948 35.998 195.79 35.9724 195.68 35.921C195.614 36.4124 195.453 36.856 195.196 37.252C194.947 37.648 194.609 37.9597 194.184 38.187C193.759 38.4144 193.26 38.528 192.688 38.528H191.423L191.258 36.328H192.523C193.256 36.328 193.623 36.0347 193.623 35.448V31.873H195.713V33.578ZM199.559 33.743C199.559 34.4324 199.354 34.9824 198.943 35.393C198.54 35.7964 197.993 35.998 197.304 35.998H196.369C196.296 35.998 196.259 35.6314 196.259 34.898C196.259 34.4287 196.27 34.128 196.292 33.996C196.314 33.864 196.34 33.798 196.369 33.798H197.304C197.363 33.798 197.414 33.7834 197.458 33.754C197.502 33.7174 197.524 33.6734 197.524 33.622V31.873H199.559V33.743ZM196.204 38.253V36.658H198.294V38.253H196.204Z" fill="#FF3636"/>
</svg>
