<svg width="98" height="41" viewBox="0 0 98 41" fill="none" xmlns="http://www.w3.org/2000/svg">
<path d="M8.43826 15.0152C8.43826 14.6595 8.22479 14.4816 7.79783 14.4816H4.88537V11.4014C4.88537 10.4661 5.15476 9.71387 5.69354 9.14459C6.24249 8.57532 6.9795 8.29068 7.90457 8.29068H10.1156L10.2528 10.5627H7.93507C7.70126 10.5627 7.50811 10.6389 7.35562 10.7914C7.20314 10.9337 7.1269 11.132 7.1269 11.3861V12.1638H8.16379C9.0482 12.1638 9.68864 12.3874 10.0851 12.8347C10.4816 13.282 10.6798 13.9224 10.6798 14.756C10.6798 15.4575 10.4917 16.0979 10.1156 16.6773C9.74963 17.2669 9.23627 17.7346 8.5755 18.0802C7.91473 18.4258 7.17264 18.5986 6.34923 18.5986H5.17509C3.8434 18.5986 2.81158 18.2123 2.07966 17.4398C1.3579 16.6773 0.997017 15.615 0.997017 14.2528V11.1269H3.25379V14.1918C3.25379 14.8831 3.41136 15.3965 3.72649 15.7319C4.04163 16.0776 4.53466 16.2504 5.20559 16.2504H6.41022C7.08115 16.2504 7.58435 16.1386 7.91982 15.9149C8.26545 15.6913 8.43826 15.3914 8.43826 15.0152ZM11.71 16.2504C12.3504 16.2504 12.8384 16.0877 13.1739 15.7624C13.5195 15.4473 13.6923 14.9848 13.6923 14.3748V9.60205H15.9491V11.9198C15.9491 12.174 16.0101 12.362 16.1321 12.484C16.2541 12.5958 16.4472 12.6517 16.7115 12.6517H17.0927C17.1944 12.6517 17.2452 13.0482 17.2452 13.8411C17.2452 14.6137 17.1944 15 17.0927 15H16.8335C16.437 15 16.1371 14.9136 15.9338 14.7408C15.883 15.4829 15.6848 16.1436 15.3391 16.7231C15.0037 17.3127 14.531 17.7701 13.921 18.0954C13.3213 18.4309 12.6148 18.5986 11.8015 18.5986H11.2221L11.0391 16.2504H11.71ZM17.6526 12.6517C17.8559 12.6517 18.0186 12.5958 18.1406 12.484C18.2626 12.3722 18.3236 12.2146 18.3236 12.0113V5.19524H20.5803V12.1485C20.5803 13.0431 20.3211 13.7445 19.8027 14.2528C19.2944 14.7509 18.598 15 17.7136 15H17.0884C16.9868 15 16.9359 14.6137 16.9359 13.8411C16.9359 13.0482 16.9868 12.6517 17.0884 12.6517H17.6526ZM25.9313 12.6517C25.9822 12.6517 26.0178 12.7229 26.0381 12.8652C26.0686 13.0075 26.0838 13.3328 26.0838 13.8411C26.0838 14.3291 26.0686 14.6442 26.0381 14.7865C26.0178 14.9288 25.9822 15 25.9313 15H25.3214C24.4268 15 23.7457 14.7459 23.2781 14.2376C22.8207 13.7293 22.5919 13.0025 22.5919 12.057V5.19524H24.8487V11.8893C24.8487 12.1536 24.8995 12.3468 25.0012 12.4688C25.1028 12.5907 25.2655 12.6517 25.4891 12.6517H25.9313ZM32.2923 2.19129L32.643 3.51791L26.9706 5.72894V4.26508L32.2923 2.19129ZM29.7916 12.6517C30.0356 12.6517 30.2236 12.6111 30.3558 12.5297C30.4879 12.4484 30.554 12.3366 30.554 12.1943C30.554 12.0621 30.5184 11.9401 30.4473 11.8283C30.3863 11.7063 30.2846 11.5742 30.1423 11.4319L26.9706 8.33642V6.5676L32.887 4.32608L33.4817 6.52186L29.8221 7.90947L31.8349 9.92226C32.2517 10.3289 32.5465 10.7304 32.7193 11.1269C32.8921 11.5234 32.9785 11.9503 32.9785 12.4078C32.9785 13.2108 32.7091 13.8462 32.1703 14.3138C31.6417 14.7713 30.9149 15 29.9898 15H25.9337C25.8321 15 25.7812 14.6137 25.7812 13.8411C25.7812 13.0482 25.8321 12.6517 25.9337 12.6517H29.7916ZM38.4845 12.6517C38.5353 12.6517 38.5709 12.7229 38.5913 12.8652C38.6218 13.0075 38.637 13.3328 38.637 13.8411C38.637 14.3291 38.6218 14.6442 38.5913 14.7865C38.5709 14.9288 38.5353 15 38.4845 15H37.8746C36.98 15 36.2989 14.7459 35.8313 14.2376C35.3738 13.7293 35.1451 13.0025 35.1451 12.057V5.19524H37.4019V11.8893C37.4019 12.1536 37.4527 12.3468 37.5544 12.4688C37.656 12.5907 37.8187 12.6517 38.0423 12.6517H38.4845ZM40.1032 12.6517C40.3167 12.6517 40.4844 12.6009 40.6064 12.4993C40.7284 12.3874 40.7894 12.2349 40.7894 12.0418V9.60205H43.0309V11.9961C43.0309 12.4332 43.2597 12.6517 43.7171 12.6517H44.2051C44.3067 12.6517 44.3576 13.0431 44.3576 13.8259C44.3576 14.6086 44.3067 15 44.2051 15H43.6104C42.7768 15 42.2024 14.7764 41.8873 14.3291C41.6942 14.5629 41.4553 14.7357 41.1706 14.8475C40.886 14.9492 40.5302 15 40.1032 15H38.4869C38.3852 15 38.3344 14.6137 38.3344 13.8411C38.3344 13.0482 38.3852 12.6517 38.4869 12.6517H40.1032ZM41.6891 16.3876V18.2784H37.2975V16.3876H41.6891ZM48.0629 12.6517C48.3069 12.6517 48.495 12.6111 48.6271 12.5297C48.7593 12.4484 48.8254 12.3366 48.8254 12.1943C48.8254 12.0621 48.7898 11.9401 48.7186 11.8283C48.6576 11.7063 48.556 11.5742 48.4136 11.4319L45.242 8.33642V6.5676L51.1584 4.32608L51.7531 6.52186L48.0934 7.90947L50.1062 9.92226C50.523 10.3289 50.8178 10.7304 50.9906 11.1269C51.1635 11.5234 51.2499 11.9503 51.2499 12.4078C51.2499 13.2108 50.9805 13.8462 50.4417 14.3138C49.9131 14.7713 49.1862 15 48.2612 15H44.2051C44.1034 15 44.0526 14.6137 44.0526 13.8411C44.0526 13.0482 44.1034 12.6517 44.2051 12.6517H48.0629ZM60.2054 14.3443C60.2054 15.1779 60.0325 15.9149 59.6869 16.5553C59.3514 17.2059 58.8686 17.7091 58.2383 18.0649C57.6182 18.4207 56.8914 18.5986 56.0578 18.5986H55.4783L55.2953 16.2504H55.9663C56.6067 16.2504 57.0947 16.0877 57.4301 15.7624C57.7758 15.4473 57.9486 14.9848 57.9486 14.3748V9.60205H60.2054V14.3443ZM57.8571 8.22968V6.33888H60.2054V8.22968H57.8571ZM62.0979 5.19524H64.3547V15H62.0979V5.19524ZM72.4744 12.6517C72.6777 12.6517 72.8404 12.6111 72.9624 12.5297C73.0945 12.4484 73.1606 12.3366 73.1606 12.1943C73.1606 12.0723 73.0945 11.8283 72.9624 11.4624C72.8302 11.0964 72.4846 10.1866 71.9255 8.73288L71.6052 7.89422L73.7095 6.91832L75.4936 11.8741C75.5851 12.1485 75.6969 12.3468 75.8291 12.4688C75.9612 12.5907 76.134 12.6517 76.3475 12.6517H76.7745C76.8761 12.6517 76.9269 13.0482 76.9269 13.8411C76.9269 14.3392 76.9117 14.6595 76.8812 14.8018C76.8507 14.9339 76.8151 15 76.7745 15H76.195C75.3614 15 74.7668 14.7611 74.411 14.2833C74.1975 14.5476 73.9535 14.7357 73.679 14.8475C73.4147 14.9492 73.0945 15 72.7184 15H69.135L68.952 12.6517H72.4744ZM80.4315 12.6517C80.6246 12.6517 80.7822 12.5958 80.9042 12.484C81.0363 12.3722 81.1024 12.2248 81.1024 12.0418V9.60205H83.3134V12.1485C83.3134 13.0329 83.0491 13.7293 82.5205 14.2376C82.0021 14.7459 81.3006 15 80.4162 15H76.7719C76.6702 15 76.6194 14.6137 76.6194 13.8411C76.6194 13.0482 76.6702 12.6517 76.7719 12.6517H80.4315ZM81.3159 16.3876V18.2784H76.9243V16.3876H81.3159ZM83.619 16.2504C84.2594 16.2504 84.7474 16.0877 85.0829 15.7624C85.4285 15.4473 85.6013 14.9848 85.6013 14.3748V9.60205H87.8581V11.9198C87.8581 12.174 87.9191 12.362 88.0411 12.484C88.163 12.5958 88.3562 12.6517 88.6205 12.6517H89.0017C89.1034 12.6517 89.1542 13.0482 89.1542 13.8411C89.1542 14.6137 89.1034 15 89.0017 15H88.7425C88.346 15 88.0461 14.9136 87.8428 14.7408C87.792 15.4829 87.5938 16.1436 87.2481 16.7231C86.9127 17.3127 86.44 17.7701 85.83 18.0954C85.2303 18.4309 84.5237 18.5986 83.7105 18.5986H83.1311L82.9481 16.2504H83.619ZM90.1563 12.6517C90.9086 12.6517 91.5388 12.6009 92.0471 12.4993C92.5656 12.3976 93.1043 12.2044 93.6635 11.9198L94.6394 11.3556C94.558 11.0506 94.436 10.8423 94.2734 10.7304C94.1209 10.6186 93.8871 10.5627 93.572 10.5627H90.0953L90.324 8.26018H94.0599C94.68 8.26018 95.1883 8.37709 95.5848 8.6109C95.9812 8.84471 96.3167 9.231 96.5912 9.76978C96.8656 10.3086 97.1147 11.071 97.3383 12.057L94.1971 13.9479C93.5567 14.3443 92.9315 14.6188 92.3216 14.7713C91.7116 14.9238 90.9543 15 90.0496 15H88.9974C88.8958 15 88.8449 14.6137 88.8449 13.8411C88.8449 13.0482 88.8958 12.6517 88.9974 12.6517H90.1563ZM91.8031 6.87257V4.98176H94.1514V6.87257H91.8031Z" fill="white"/>
<path d="M19.536 36.3332C18.488 36.3332 17.6813 36.0296 17.1157 35.4225C16.5501 34.8153 16.2673 33.9669 16.2673 32.8774V30.5194H17.3028V32.8524C17.3028 33.6425 17.4941 34.2414 17.8767 34.6489C18.2593 35.0565 18.8207 35.2603 19.561 35.2603H20.085C20.8003 35.2603 21.37 35.0523 21.7942 34.6365C22.2267 34.2206 22.4429 33.6592 22.4429 32.9522V25.2171H23.4784V32.8524C23.4784 33.5677 23.3329 34.1873 23.0418 34.7113C22.759 35.2353 22.3598 35.6346 21.8441 35.909C21.3367 36.1918 20.7504 36.3332 20.085 36.3332H19.536ZM30.528 32.2161C30.5696 32.2161 30.5987 32.2536 30.6153 32.3284C30.6403 32.3949 30.6527 32.5405 30.6527 32.7651C30.6527 32.9813 30.6403 33.1227 30.6153 33.1893C30.5987 33.2558 30.5696 33.2891 30.528 33.2891H29.3303C29.2554 34.2372 28.931 34.9816 28.3571 35.5223C27.7832 36.0629 27.0347 36.3332 26.1115 36.3332H24.5769L24.4771 35.2603H26.1239C26.7893 35.2603 27.3175 35.0814 27.7084 34.7238C28.1076 34.3745 28.3114 33.8962 28.3197 33.2891H27.0721C26.2154 33.2891 25.5958 33.1144 25.2132 32.7651C24.8389 32.4074 24.6518 31.8543 24.6518 31.1058C24.6518 30.5901 24.7516 30.1326 24.9512 29.7334C25.1508 29.3258 25.4294 29.0139 25.7871 28.7977C26.153 28.5731 26.5648 28.4608 27.0222 28.4608C27.7458 28.4608 28.3156 28.702 28.7314 29.1845C29.1473 29.6669 29.3552 30.3281 29.3552 31.1681V32.2161H30.528ZM25.6873 31.0434C25.6873 31.4676 25.7912 31.7711 25.9992 31.9541C26.2154 32.1288 26.5939 32.2161 27.1345 32.2161H28.3197V31.243C28.3197 30.6691 28.2033 30.2366 27.9704 29.9455C27.7375 29.6544 27.4006 29.5088 26.9598 29.5088C26.5772 29.5088 26.2695 29.6502 26.0366 29.933C25.8037 30.2158 25.6873 30.5859 25.6873 31.0434ZM32.5327 32.2161C32.8321 32.2161 33.0733 32.1371 33.2563 31.9791C33.4393 31.8127 33.5308 31.584 33.5308 31.2929V29.2718H34.5788V31.3054C34.5788 31.9209 34.3916 32.4074 34.0174 32.7651C33.6431 33.1144 33.1482 33.2891 32.5327 33.2891H29.526C29.4428 33.2891 29.4012 33.1144 29.4012 32.7651C29.4012 32.3991 29.4428 32.2161 29.526 32.2161H32.5327ZM32.9444 34.861V35.8466H29.6507V34.861H32.9444ZM30.7486 37.5559V36.5703H31.8465V37.5559H30.7486ZM44.1682 32.2161C44.4926 32.2161 44.7505 32.1371 44.9418 31.9791C45.1331 31.8127 45.2287 31.5882 45.2287 31.3054V29.2718H46.2642V31.2679C46.2642 31.5757 46.3474 31.8127 46.5137 31.9791C46.6884 32.1371 46.9421 32.2161 47.2748 32.2161H47.6116C47.6948 32.2161 47.7364 32.3991 47.7364 32.7651C47.7364 33.1144 47.6948 33.2891 47.6116 33.2891H47.2373C46.4722 33.2891 45.9731 33.0437 45.7402 32.553C45.4491 33.0437 44.9251 33.2891 44.1682 33.2891H39.7642C39.0323 33.2891 38.4792 33.0978 38.1049 32.7152C37.7389 32.3326 37.556 31.8044 37.556 31.1307V29.2718H38.5915V30.9935C38.5915 31.8086 39.0032 32.2161 39.8266 32.2161H44.1682ZM43.5444 27.2382V28.2238H40.2508V27.2382H43.5444ZM47.5835 32.2161C47.9494 32.2161 48.2322 32.1288 48.4318 31.9541C48.6398 31.7795 48.7437 31.5383 48.7437 31.2305V29.2718H49.7917V31.2305C49.7917 31.8876 50.1618 32.2161 50.9021 32.2161C51.268 32.2161 51.5508 32.1288 51.7504 31.9541C51.9584 31.7795 52.0623 31.5383 52.0623 31.2305V29.2718H53.0979V31.2305C53.0979 31.5466 53.1852 31.7919 53.3599 31.9666C53.5428 32.133 53.809 32.2161 54.1583 32.2161C54.4993 32.2161 54.7613 32.1288 54.9443 31.9541C55.1356 31.7795 55.2313 31.5383 55.2313 31.2305V29.2718H56.2668V31.2305C56.2668 31.8876 56.5953 32.2161 57.2524 32.2161H57.6142C57.7057 32.2161 57.7514 32.3991 57.7514 32.7651C57.7514 32.9813 57.7389 33.1227 57.714 33.1893C57.689 33.2558 57.6558 33.2891 57.6142 33.2891H57.2524C56.4539 33.2891 55.9382 33.0437 55.7053 32.553C55.4142 33.0437 54.8986 33.2891 54.1583 33.2891C53.3183 33.2891 52.7776 33.0312 52.5364 32.5155C52.2287 33.0312 51.6839 33.2891 50.9021 33.2891C50.0204 33.2891 49.459 33.0312 49.2178 32.5155C48.9101 33.0312 48.3653 33.2891 47.5835 33.2891H46.6103C46.5272 33.2891 46.4856 33.1144 46.4856 32.7651C46.4856 32.3991 46.5272 32.2161 46.6103 32.2161H47.5835ZM53.1228 25.0798V26.0655H51.9875V25.0798H53.1228ZM54.1957 26.7891V27.7747H50.9021V26.7891H54.1957ZM61.8537 23.196L62.0658 23.8697L57.799 25.6413V24.8927L61.8537 23.196ZM60.0821 32.2161C60.4397 32.2161 60.7184 32.1454 60.918 32.004C61.1259 31.8626 61.2299 31.6713 61.2299 31.4301C61.2299 31.2638 61.1883 31.1016 61.1051 30.9436C61.0303 30.7772 60.9013 30.6026 60.7184 30.4196L57.7865 27.5127V26.6144L62.3402 24.8054L62.6521 25.8035L59.0091 27.2382L61.5043 29.7459C62.0117 30.2532 62.2654 30.8188 62.2654 31.4426C62.2654 31.9916 62.0741 32.4365 61.6915 32.7775C61.3089 33.1186 60.7724 33.2891 60.0821 33.2891H56.6262C56.5431 33.2891 56.5015 33.1144 56.5015 32.7651C56.5015 32.3991 56.5431 32.2161 56.6262 32.2161H60.0821ZM65.2521 31.2555C65.2521 31.5632 65.3395 31.8003 65.5141 31.9666C65.6971 32.133 65.9591 32.2161 66.3001 32.2161H66.4623C66.5455 32.2161 66.5871 32.3991 66.5871 32.7651C66.5871 33.1144 66.5455 33.2891 66.4623 33.2891H66.3001C66.0755 33.2891 65.8676 33.2516 65.6763 33.1768C65.485 33.0936 65.3436 32.9896 65.2521 32.8649V33.0146C65.2438 33.68 65.1024 34.2622 64.8279 34.7612C64.5535 35.2686 64.1709 35.6553 63.6801 35.9215C63.1894 36.196 62.6238 36.3332 61.9834 36.3332H61.1101L61.0103 35.2603H61.9585C62.6654 35.2603 63.2185 35.0523 63.6178 34.6365C64.017 34.2289 64.2166 33.6592 64.2166 32.9273V29.2718H65.2521V31.2555ZM68.8049 31.3054C68.8049 31.9209 68.6177 32.4074 68.2434 32.7651C67.8692 33.1144 67.3743 33.2891 66.7588 33.2891H65.4613C65.3781 33.2891 65.3365 33.1144 65.3365 32.7651C65.3365 32.3991 65.3781 32.2161 65.4613 32.2161H66.7588C67.0582 32.2161 67.2994 32.1371 67.4824 31.9791C67.6737 31.8127 67.7694 31.584 67.7694 31.2929V29.2718H68.8049V31.3054ZM65.7981 35.8965V34.861H67.1206V35.8965H65.7981Z" fill="#FF3636"/>
<path d="M78.8847 25.8534L74.0066 33.3889L73.1707 32.815L78.0363 25.2795L78.8847 25.8534ZM73.5075 25.5165C73.8153 25.5165 74.1022 25.5997 74.3684 25.766C74.6345 25.9324 74.8466 26.1486 75.0047 26.4148C75.1627 26.6809 75.2417 26.9596 75.2417 27.2507C75.2417 27.5418 75.1627 27.8204 75.0047 28.0866C74.8466 28.3527 74.6345 28.569 74.3684 28.7353C74.1022 28.9017 73.8153 28.9848 73.5075 28.9848C73.1998 28.9848 72.9129 28.9017 72.6467 28.7353C72.3805 28.569 72.1685 28.3527 72.0104 28.0866C71.8524 27.8204 71.7734 27.5418 71.7734 27.2507C71.7734 26.9596 71.8524 26.6809 72.0104 26.4148C72.1685 26.1486 72.3805 25.9324 72.6467 25.766C72.9129 25.5997 73.1998 25.5165 73.5075 25.5165ZM73.5075 28.099C73.7321 28.099 73.9276 28.0117 74.0939 27.837C74.2686 27.6624 74.3559 27.4628 74.3559 27.2382C74.3559 27.0219 74.2686 26.8306 74.0939 26.6643C73.9276 26.4896 73.7321 26.4023 73.5075 26.4023C73.283 26.4023 73.0834 26.4896 72.9087 26.6643C72.7423 26.8306 72.6592 27.0219 72.6592 27.2382C72.6592 27.4628 72.7423 27.6624 72.9087 27.837C73.0834 28.0117 73.283 28.099 73.5075 28.099ZM78.5479 29.6835C78.8556 29.6835 79.1425 29.7667 79.4087 29.933C79.6749 30.0994 79.8869 30.3156 80.045 30.5818C80.203 30.8479 80.282 31.1266 80.282 31.4177C80.282 31.7088 80.203 31.9874 80.045 32.2536C79.8869 32.5197 79.6749 32.736 79.4087 32.9023C79.1425 33.0687 78.8556 33.1518 78.5479 33.1518C78.2401 33.1518 77.9532 33.0687 77.687 32.9023C77.4209 32.736 77.2088 32.5197 77.0507 32.2536C76.8927 31.9874 76.8137 31.7088 76.8137 31.4177C76.8137 31.1266 76.8927 30.8479 77.0507 30.5818C77.2088 30.3156 77.4209 30.0994 77.687 29.933C77.9532 29.7667 78.2401 29.6835 78.5479 29.6835ZM78.5479 32.266C78.7724 32.266 78.9679 32.1787 79.1342 32.004C79.3089 31.8294 79.3962 31.6298 79.3962 31.4052C79.3962 31.1889 79.3089 30.9976 79.1342 30.8313C78.9679 30.6566 78.7724 30.5693 78.5479 30.5693C78.3233 30.5693 78.1237 30.6566 77.949 30.8313C77.7827 30.9976 77.6995 31.1889 77.6995 31.4052C77.6995 31.6298 77.7827 31.8294 77.949 32.004C78.1237 32.1787 78.3233 32.266 78.5479 32.266ZM81.6518 29.9954C81.6518 29.1803 81.6103 28.4733 81.5271 27.8745C81.4439 27.2756 81.2776 26.5479 81.028 25.6912L82.0386 25.3418C82.2964 26.1902 82.4669 26.9305 82.5501 27.5626C82.6416 28.1864 82.6874 28.9932 82.6874 29.9829V33.2891H81.6518V29.9954ZM86.2702 27.2008C86.6778 27.2008 87.0687 27.3172 87.443 27.5501C87.8256 27.7747 88.1291 28.0741 88.3537 28.4484C88.5866 28.8143 88.703 29.2011 88.703 29.6086C88.703 30.0162 88.5866 30.4071 88.3537 30.7814C88.1291 31.1557 87.8256 31.4592 87.443 31.6921C87.0687 31.9167 86.6778 32.029 86.2702 32.029C85.8627 32.029 85.4676 31.9125 85.085 31.6797C84.7107 31.4468 84.4071 31.1473 84.1742 30.7814C83.9414 30.4071 83.8249 30.0162 83.8249 29.6086C83.8249 29.2011 83.9414 28.8143 84.1742 28.4484C84.4071 28.0741 84.7107 27.7747 85.085 27.5501C85.4676 27.3172 85.8627 27.2008 86.2702 27.2008ZM86.2702 31.0309C86.5031 31.0309 86.7277 30.9644 86.9439 30.8313C87.1685 30.6899 87.3515 30.5111 87.4929 30.2948C87.6343 30.0703 87.7049 29.8415 87.7049 29.6086C87.7049 29.3841 87.6343 29.1637 87.4929 28.9474C87.3515 28.7228 87.1685 28.544 86.9439 28.4109C86.7277 28.2695 86.5031 28.1988 86.2702 28.1988C86.0373 28.1988 85.8086 28.2695 85.584 28.4109C85.3595 28.544 85.1765 28.7228 85.0351 28.9474C84.8937 29.1637 84.823 29.3841 84.823 29.6086C84.823 29.8415 84.8937 30.0703 85.0351 30.2948C85.1765 30.5111 85.3595 30.6899 85.584 30.8313C85.8086 30.9644 86.0373 31.0309 86.2702 31.0309ZM93.8855 32.2161C93.927 32.2161 93.9562 32.2536 93.9728 32.3284C93.9977 32.3949 94.0102 32.5405 94.0102 32.7651C94.0102 32.9813 93.9977 33.1227 93.9728 33.1893C93.9562 33.2558 93.927 33.2891 93.8855 33.2891H93.5611C92.929 33.2891 92.4466 33.1019 92.1139 32.7276C91.7895 32.345 91.6273 31.8044 91.6273 31.1058V25.2171H92.6628V31.0559C92.6628 31.8294 92.9789 32.2161 93.611 32.2161H93.8855ZM96.237 31.3054C96.237 31.9209 96.0498 32.4074 95.6756 32.7651C95.3013 33.1144 94.8064 33.2891 94.1909 33.2891H92.8934C92.8102 33.2891 92.7687 33.1144 92.7687 32.7651C92.7687 32.3991 92.8102 32.2161 92.8934 32.2161H94.1909C94.4903 32.2161 94.7315 32.1371 94.9145 31.9791C95.1058 31.8127 95.2015 31.584 95.2015 31.2929V29.2718H96.237V31.3054ZM93.2303 35.8965V34.861H94.5527V35.8965H93.2303Z" fill="white"/>
</svg>
