<svg width="88" height="48" viewBox="0 0 88 48" fill="none" xmlns="http://www.w3.org/2000/svg">
<path d="M0 11.9343C0 5.34316 5.34315 0 11.9343 0H76.0471C82.6382 0 87.9813 5.34315 87.9813 11.9343V47.389H0V11.9343Z" fill="#040A12"/>
<path fill-rule="evenodd" clip-rule="evenodd" d="M66.5243 16.1474C65.1526 16.1474 64.0355 17.2414 64.0355 18.602V28.0015C64.0355 30.0073 62.4658 31.5783 60.4436 31.5783C58.4214 31.5783 56.8517 30.0073 56.8517 27.9454V18.602C56.8517 17.2414 55.7346 16.1474 54.3629 16.1474H51.874V27.749C51.874 32.4214 55.7204 36.1946 60.4593 36.1946C65.1982 36.1946 69.0446 32.4074 69.0446 27.749V16.1474H66.5275H66.5243ZM42.8613 11.1398V36.1962H45.3502C46.7219 36.1962 47.8391 35.1021 47.8391 33.7415V8.68359H45.3502C43.9785 8.68359 42.8613 9.77768 42.8613 11.1383V11.1398ZM29.6927 15.7546C27.5008 15.7546 25.4771 16.5962 23.9074 18.0129V8.68359H21.4185C20.0468 8.68359 18.9297 9.77768 18.9297 11.1383V26.3744C19.0852 31.8323 23.4989 36.2087 28.9008 36.2087C34.3028 36.2087 38.8861 31.8308 38.8861 26.0798V25.8414C38.8861 20.2712 34.7694 15.7686 29.7069 15.7686L29.6927 15.7546ZM28.7877 31.5798C25.917 31.5798 23.5963 29.055 23.5963 25.9255C23.5963 22.796 25.9154 20.2712 28.7877 20.2712C31.6599 20.2712 33.9791 22.796 33.9791 25.9255C33.9791 29.055 31.6599 31.5798 28.7877 31.5798Z" fill="white"/>
<path d="M30.8767 5.93555C31.9797 5.93555 32.8706 6.81923 32.8706 7.89928C32.8706 8.97934 31.9797 9.86302 30.8767 9.86302C29.7737 9.86302 28.8828 8.97934 28.8828 7.89928C28.8828 6.81923 29.7721 5.93555 30.8767 5.93555Z" fill="white"/>
</svg>
