<svg width="87" height="20" viewBox="0 0 87 20" fill="none" xmlns="http://www.w3.org/2000/svg">
<path d="M50.4592 16.7007C50.595 16.7756 50.607 16.8841 50.6248 17.0228C50.6589 17.2863 50.6502 19.2011 50.5811 19.3436C50.5225 19.4637 50.3857 19.5102 50.259 19.5102L45.1683 19.4661C45.0324 19.3912 45.0204 19.2827 45.0022 19.1435C44.9681 18.8756 44.9777 16.9657 45.0459 16.8231C45.0795 16.7545 45.1529 16.6983 45.2259 16.6772L50.4592 16.7007ZM68.6095 9.29989C73.4968 7.29536 79.2629 7.29776 84.1502 9.29989L82.3483 12.6643L82.3492 12.6653C79.8274 11.9045 77.1913 11.4753 74.5494 11.7825C75.8271 13.6728 77.4394 15.3226 79.1866 16.7823L76.3801 19.504C73.0802 16.7271 70.4359 13.2072 68.6095 9.29989ZM45.4131 5.64317V11.4163C45.4131 11.8257 45.978 12.3916 46.3846 12.4776C46.8434 12.5736 48.8575 12.5731 49.3039 12.4579C49.6782 12.36 50.2139 11.8036 50.2144 11.4163V9.13957L50.3363 9.01766H52.8591L52.9811 9.13957V11.4974C52.9811 11.8238 53.6751 12.5141 53.9986 12.5141H56.8887V10.522C56.8887 9.54182 57.8942 8.13875 58.7006 7.61698C61.4769 5.82222 64.8056 7.69523 65.0302 10.9252C65.167 12.8899 64.9131 14.7879 62.6989 15.2698C59.8161 15.0975 56.6002 15.5324 53.7567 15.277C53.0046 15.2093 52.1761 14.8263 51.6284 14.3079C51.1413 14.6285 50.6934 14.9794 50.1184 15.1407C49.275 15.3759 46.4263 15.3778 45.5753 15.1584C44.9753 15.0039 44.504 14.6434 44.0009 14.3079C43.5829 14.7058 42.9809 15.0404 42.4194 15.1728C41.5592 15.3769 39.4645 15.3615 38.6159 15.1176C37.7102 14.857 36.9671 14.2464 36.3393 13.571C35.3232 15.1858 33.673 16.0801 31.7372 15.6471C30.4182 15.3524 29.6804 14.3851 28.7708 13.4899C28.2318 13.9253 27.6933 14.7374 27.0966 15.0677C26.9344 15.1579 26.3982 15.3586 26.2475 15.3586H23.033L23.1545 15.1143C25.7359 12.9168 28.0854 9.68149 30.6812 7.59248C31.4122 7.00495 32.2234 6.79329 33.1402 7.00785C34.8811 7.4149 37.3487 10.9651 38.9006 12.1493C39.4943 12.6019 40.9597 12.6278 41.6744 12.4776C42.0339 12.4017 42.6459 11.867 42.6459 11.4974V5.60286C42.7256 5.62878 42.8225 5.52124 42.8494 5.52124H45.2911L45.4131 5.64317ZM18.6378 9.1391V11.4969C18.6378 11.8233 19.3318 12.5131 19.6549 12.5131H24.1716V12.5141L21.3622 15.2775C19.8421 15.337 18.4227 15.3692 17.2127 14.3242C16.6151 14.833 15.875 15.1599 15.0964 15.2789C11.3851 15.0442 7.28409 15.5938 3.61889 15.2823C1.99412 15.1445 0 13.4419 0 11.7417V9.14004L0.122352 9.01766H2.64499L2.76738 9.14004V11.4163C2.76738 11.8367 3.48017 12.5505 3.9472 12.5141C7.37289 12.2731 11.2387 12.8337 14.6121 12.5174C15.0652 12.4752 15.4521 12.2769 15.6719 11.8684C15.7118 11.794 15.8702 11.3783 15.8702 11.3347V9.1391L15.9925 9.01717H18.5154L18.6378 9.1391ZM32.7624 9.98823C32.6213 9.90519 32.534 9.87638 32.3688 9.92486V9.92583C32.2589 9.95847 30.7503 11.4547 30.7705 11.5675C31.1578 11.902 31.7079 12.6835 32.1711 12.8568C33.3869 13.3133 34.4237 12.0321 33.7311 10.9723C33.6643 10.8705 32.8455 10.0372 32.7624 9.98823ZM62.1378 12.3513C62.3639 11.2094 62.1921 9.35316 60.5481 9.78757C60.1511 9.8927 59.6558 10.5402 59.6558 10.9276V12.5141H61.894C61.9175 12.5131 62.1153 12.3883 62.1378 12.3513ZM11.964 5.56108C12.0998 5.63596 12.1123 5.74445 12.1301 5.88318C12.1641 6.1467 12.155 8.06387 12.0859 8.20451C12.0274 8.32403 11.8906 8.3706 11.7634 8.3706L6.67306 8.32645C6.53723 8.25157 6.52475 8.14305 6.50699 8.00385C6.47291 7.73553 6.48299 5.82462 6.55115 5.68302C6.58427 5.61485 6.6577 5.5587 6.73066 5.53758L11.964 5.56108ZM24.1716 5.64317V8.24482L24.0497 8.36723H21.6079C21.547 8.36723 21.4241 8.16994 21.4068 8.08114C21.3622 7.84833 21.3809 5.82654 21.4467 5.68542C21.476 5.62302 21.559 5.575 21.6079 5.5222V5.52124H24.0497L24.1716 5.64317ZM67.8137 1.27075C73.8385 -0.570097 80.4936 -0.41937 86.3984 1.77812L85.5354 5.60286C79.7391 3.30648 73.0221 3.30889 67.2257 5.60286L66.3411 1.82661C66.3704 1.70949 67.5924 1.33843 67.8137 1.27075ZM62.3413 2.8788V5.39933L62.2189 5.52124H59.6966L59.5747 5.39933V2.8788L59.6966 2.7564H62.2189L62.3413 2.8788Z" fill="white"/>
</svg>
