<svg width="58" height="51" viewBox="0 0 58 51" fill="none" xmlns="http://www.w3.org/2000/svg">
<path d="M21.4103 0.133879C23.1965 -0.24711 25.0022 0.198254 26.4393 1.30164C28.2268 0.396139 30.3658 0.419019 32.109 1.4156C32.8114 1.81661 33.5313 2.38262 33.6982 3.22327C33.8961 4.22128 33.5127 5.1201 32.6206 5.60409L33.1723 6.17581C33.4798 6.11144 33.7821 5.99366 34.0949 5.92929C35.7466 5.58931 37.5141 5.94599 38.8835 6.9254C40.0884 7.78703 40.9009 9.09689 41.3525 10.4973C41.4068 10.5026 41.445 10.4668 41.4841 10.4373C41.773 10.2179 42.0558 9.89367 42.3576 9.65764C43.933 8.42693 45.8669 7.97061 47.8185 8.49513C52.6243 9.78639 53.6861 15.8259 49.9956 18.9678L44.5242 23.655L43.953 26.2047C44.5848 26.9504 45.0273 27.8421 45.3343 28.7681C45.3791 28.78 45.3834 28.7562 45.4082 28.739C45.681 28.5507 45.9947 28.1845 46.2813 27.958C51.2282 24.0456 58.058 28.915 55.7617 34.7399C55.2043 36.1533 54.1501 37.116 53.0038 38.0515C55.355 37.9118 57.4072 39.6194 57.6646 41.9692C57.6727 42.0445 57.6904 42.1613 57.6942 42.2205V42.7245C57.5745 44.0629 56.9156 45.2627 55.8213 46.0361C55.539 48.5008 53.4687 50.2518 50.9836 50.0858C50.7108 50.0677 50.3098 49.917 50.0991 49.9132C49.9403 49.9104 49.514 50.0572 49.298 50.082C48.8847 50.1302 48.4784 50.1078 48.0679 50.0515C47.9244 50.0319 47.6406 49.9356 47.5343 49.9404C47.4337 49.9447 47.2053 50.0501 47.0809 50.0772C45.8159 50.35 44.5843 50.1821 43.491 49.4779C41.2247 50.0911 38.6938 49.2948 37.2371 47.4551C33.9648 50.0758 29.3945 50.8044 25.4003 49.5909C23.8816 49.1293 22.467 48.3711 21.2187 47.397C20.4062 48.5585 19.2013 49.4269 17.8242 49.7878C14.283 50.7167 10.8032 48.3735 10.294 44.7749L9.53871 37.8441C9.50151 37.7917 9.34274 37.8236 9.27169 37.816C4.10593 37.2757 2.12048 30.8614 6.05703 27.4392C6.13142 27.3748 6.41511 27.1931 6.42656 27.1273L6.27779 26.1813L5.56639 19.5772C2.78277 19.4313 0.44354 17.2979 0.0573232 14.5285C-0.365131 11.4992 1.58836 8.60432 4.56652 7.93961C4.99851 7.84282 5.44051 7.80085 5.87965 7.74792C9.07047 7.3655 12.278 7.10659 15.4674 6.71273C15.8002 6.72512 16.1382 6.69556 16.4706 6.7113C16.6074 6.71797 16.9078 6.80619 17.0151 6.7566C17.7532 5.84108 18.6215 5.03141 19.6109 4.39198C18.57 3.71488 18.4107 2.31729 19.1269 1.33454C19.5946 0.692728 20.6546 0.295525 21.4103 0.133879ZM25.7026 3.40209C24.6436 2.18426 22.8961 1.71219 21.365 2.24815C21.2435 2.29058 20.8653 2.44795 20.779 2.51852C20.7261 2.56191 20.7099 2.62819 20.7023 2.69304C22.3673 3.23663 24.0433 3.75208 25.7445 4.17312L25.6439 4.70383C25.6001 4.76248 25.0799 4.72529 24.964 4.73197C24.4786 4.75915 23.9851 4.82733 23.5102 4.93033C21.1219 5.44959 18.9896 7.03983 17.8405 9.19749C17.2068 8.85418 16.483 8.69825 15.7616 8.72448C12.659 9.09831 9.54347 9.36629 6.43991 9.72964C4.96466 9.90273 3.87753 10.0148 2.88576 11.2531C0.857888 13.7841 2.64879 17.5573 5.87823 17.5668C6.33263 17.5678 6.85664 17.4176 7.29626 17.4152C7.32153 17.4152 7.34918 17.4143 7.37064 17.4295L8.31664 26.1789C8.41152 26.8984 8.68331 27.5651 9.1091 28.1482C6.35075 28.7123 5.07051 31.9433 6.75461 34.2488C7.55517 35.3446 8.83731 35.8829 10.1857 35.8061C10.3455 35.7971 11.2938 35.645 11.3482 35.6917L12.2994 44.4797C12.7786 48.1713 17.6802 49.2723 19.6643 46.0747C20.1816 45.2412 20.3513 44.2546 20.2159 43.2867C20.5039 43.6863 20.7786 44.0959 21.1004 44.4697C25.263 49.3086 33.0359 49.352 37.3115 44.6328C37.5242 44.3977 37.6977 44.1211 37.9299 43.9075C38.0606 46.8314 41.3768 48.6014 43.8996 47.1323C44.7273 48.2419 46.3008 48.5094 47.4452 47.7212C47.6535 47.7923 47.8347 47.911 48.0488 47.9725C48.7607 48.1776 49.4549 48.0688 50.0986 47.7226C51.4146 48.4975 53.0753 47.9177 53.6375 46.5086C53.8616 45.9469 53.8277 45.3623 53.8339 44.7691C54.665 44.4969 55.3602 43.9237 55.5848 43.0497C56.1036 41.0322 54.028 39.4358 52.198 40.3227L51.2921 40.05C51.2558 39.8568 51.2363 39.6704 51.1829 39.4796C51.0422 38.9785 50.7342 38.557 50.3494 38.2161L49.9956 37.9505L52.8422 35.5119C55.0541 33.4062 54.4185 29.6855 51.4103 28.7557C48.3678 27.8149 46.6856 30.4928 44.6563 32.1565C44.6372 32.1722 44.5495 32.2371 44.538 32.2294C44.077 31.1108 43.6803 29.9359 43.1944 28.8301C42.8764 28.1072 42.5235 27.577 41.9423 27.0405C41.8784 26.9819 41.6819 26.8822 41.6777 26.8059C41.6748 26.7487 41.8088 26.3854 41.8336 26.2814C42.1344 25.0393 42.3714 23.7785 42.7085 22.5464C44.8399 20.6496 47.089 18.8796 49.1684 16.9284C52.3825 12.8691 47.4127 8.07885 43.3575 11.4591C42.4701 12.1992 41.6443 13.0751 40.7622 13.8252C40.7336 13.85 40.5777 13.9787 40.5557 13.9582C40.1104 12.851 39.7223 11.7099 39.2416 10.618C39.019 10.1125 38.7515 9.61568 38.3877 9.19749C36.9587 7.55481 34.3319 7.35693 32.7084 8.82843L32.6368 8.84512C31.2903 6.62023 28.9258 5.09483 26.3367 4.79252L26.4717 4.25895C28.2163 4.19601 29.9553 4.00193 31.6861 3.78307L31.7357 3.71489C31.7366 3.59568 31.4153 3.37634 31.3137 3.30815C29.8637 2.33446 27.9441 2.50374 26.6314 3.62477C26.4874 3.74779 26.2943 4.08491 26.0797 3.9266V3.92564C26.0383 3.89417 25.7846 3.49554 25.7026 3.40209ZM45.7878 44.4411C46.4086 44.4416 46.9116 44.9456 46.9116 45.5678C46.9116 46.1896 46.4086 46.6941 45.7878 46.6941C45.1674 46.6941 44.6639 46.1896 44.6639 45.5678C44.6639 44.9456 45.1674 44.4411 45.7878 44.4411ZM48.424 41.4609C48.9705 41.386 49.5531 41.7556 49.6108 42.3259C49.7195 43.4078 49.5365 44.6757 49.6032 45.7767C49.36 46.9244 47.6812 46.8405 47.5758 45.6656C47.4814 44.6066 47.6392 43.4059 47.583 42.3325C47.6397 41.9144 47.9987 41.5191 48.424 41.4604V41.4609ZM50.1711 42.4131C50.254 41.3512 51.6187 41.0904 52.0898 42.0445V42.044C52.1365 42.076 52.4378 41.7284 52.5046 41.6774C53.2179 41.1343 54.1825 41.7041 54.0294 42.6139C53.8821 43.4874 52.3258 43.3181 52.2366 44.1288C52.1832 44.6127 52.2533 45.1244 52.2037 45.6036C52.075 46.84 50.4062 46.9192 50.1754 45.7228C50.2326 44.649 50.0876 43.4755 50.1711 42.4131ZM28.8376 28.7481C34.7258 28.4505 39.1801 33.5021 37.7206 39.3366C35.6627 47.5643 23.3457 47.9091 20.9526 39.7677C19.3391 34.276 23.1965 29.0332 28.8376 28.7481ZM19.2714 28.5631C20.122 28.482 20.8072 28.4534 21.4094 29.1696C22.4593 30.4179 21.5653 32.2595 19.979 32.3172L17.1319 32.6133H17.1324L18.2829 43.2714C18.4627 44.9756 16.6184 46.1391 15.1584 45.2202C14.385 44.7334 14.2858 44.0482 14.1828 43.2118C13.7947 40.0571 13.5329 36.8814 13.1796 33.7224C13.1548 33.5026 13.1296 33.2775 13.0871 33.0605L10.0966 33.3814C7.32344 33.5312 7.2729 29.6459 9.94972 29.5682C13.0619 29.2845 16.1616 28.8592 19.2714 28.5631ZM37.4941 30.5214C36.4723 27.6337 40.2916 26.4435 41.3563 29.0752L43.7704 35.1262H43.7785C43.8023 35.1195 43.871 35.068 43.8891 35.0532C45.5074 33.731 46.9974 32.1064 48.6076 30.7651C50.7995 28.9393 53.3471 31.2476 51.6325 33.4706C49.4287 35.4428 47.1448 37.3301 44.9066 39.266C44.5228 40.6579 44.2901 42.0913 43.9272 43.4879C43.2025 46.2759 39.6007 45.5001 39.9139 42.8065L40.9081 38.4254L37.4941 30.5214ZM29.2338 32.1994C26.5265 32.1994 24.3308 34.3995 24.3308 37.1131C24.3308 39.8268 26.5265 42.0269 29.2338 42.0269C31.9412 42.0269 34.1359 39.8268 34.1359 37.1131C34.1359 34.4 31.9412 32.1999 29.2338 32.1994ZM48.5947 39.0567C49.1941 39.0572 49.6795 39.5436 49.68 40.1444C49.68 40.7447 49.1941 41.2315 48.5947 41.2315C47.9954 41.2315 47.5095 40.7447 47.5095 40.1444C47.5095 39.5436 47.9959 39.0567 48.5947 39.0567ZM29.2338 33.0629C31.4663 33.0629 33.2762 34.8768 33.2762 37.1146C33.2762 39.3523 31.4663 41.1662 29.2338 41.1662C27.0009 41.1662 25.191 39.3523 25.191 37.1146C25.191 34.8768 27.0009 33.0629 29.2338 33.0629ZM30.289 34.6541C28.2306 34.2397 26.5079 36.2129 27.2579 38.2089C27.5545 38.999 28.3093 39.6685 29.1375 39.8435C31.2703 40.2941 32.9749 38.2347 32.1767 36.2205C32.0332 36.4246 31.9502 36.6401 31.7486 36.8113C30.5322 37.8446 28.8729 36.1504 29.9357 34.9355L30.289 34.6541ZM29.0946 37.2533C29.4451 37.2533 29.7293 37.5385 29.7293 37.8899C29.7293 38.2413 29.4451 38.5265 29.0946 38.5265C28.7437 38.5265 28.46 38.2413 28.46 37.8899C28.46 37.5385 28.7437 37.2533 29.0946 37.2533ZM24.6488 10.5059C30.5112 10.1545 35.0962 14.8961 33.8088 20.8107C32.0771 28.7652 20.5864 29.85 17.3436 22.5116C14.9152 17.0156 18.7092 10.8621 24.6488 10.5059ZM15.6514 10.2708C18.2357 9.94612 18.7807 13.6444 16.1406 14.0426C15.1784 14.188 14.19 14.2185 13.2245 14.342L13.1534 14.3892L14.3001 24.942C14.5996 27.5622 10.9181 28.204 10.3026 25.6668L9.12436 14.8146L9.09146 14.7893L5.9383 15.1422C3.47605 15.0296 3.25148 11.6799 5.81958 11.327C9.08001 10.8788 12.3881 10.711 15.6509 10.2713L15.6514 10.2708ZM33.5113 12.2502C32.4943 9.40254 36.3183 8.17469 37.374 10.803L39.7881 16.8545H39.7885C39.8143 16.8731 39.964 16.7486 39.995 16.7219C41.5866 15.3677 43.0866 13.7579 44.7006 12.4504C46.8868 10.679 49.3891 13.1008 47.634 15.2423L40.9381 21.0086C40.5037 22.4472 40.3125 24.0007 39.9039 25.4413C39.2469 27.7553 36.0031 27.31 35.8925 24.9682C36.1533 23.3513 36.6206 21.7696 36.9405 20.1622L33.5113 12.2502ZM25.4794 14.0402C22.7721 14.0407 20.5769 16.2403 20.5769 18.9539C20.5769 21.6676 22.7721 23.8677 25.4794 23.8677C28.1868 23.8677 30.382 21.6676 30.382 18.9539C30.382 16.2403 28.1868 14.0402 25.4794 14.0402ZM25.4799 14.9023C27.7119 14.9023 29.5214 16.7162 29.5214 18.9535C29.5214 21.1908 27.7119 23.0042 25.4799 23.0042C23.2475 23.0042 21.4375 21.1908 21.4375 18.9535C21.4375 16.7162 23.2475 14.9023 25.4799 14.9023ZM26.5127 16.4997C24.059 15.9809 22.3067 18.9053 23.9751 20.8312C25.7598 22.8916 29.1228 21.2256 28.5639 18.5086C28.552 18.4514 28.4466 18.0823 28.4299 18.0661C28.3789 18.0155 28.3804 18.0856 28.3689 18.1085C28.1958 18.448 28.0337 18.695 27.6628 18.849C26.2862 19.4208 25.1786 17.6284 26.3358 16.6318C26.3935 16.5822 26.4741 16.5564 26.5127 16.4997ZM25.3412 19.0956C25.6902 19.0956 25.9739 19.3798 25.9739 19.7298C25.9739 20.0802 25.6902 20.3639 25.3412 20.3639C24.9917 20.3639 24.708 20.0802 24.708 19.7298C24.7084 19.3798 24.9917 19.0956 25.3412 19.0956ZM27.2799 6.18154C29.2238 6.6722 30.896 8.05644 31.8468 9.81071L31.4982 10.8225C31.1878 10.6509 30.897 10.4449 30.5847 10.2756C30.1069 10.0167 29.6024 9.81928 29.107 9.59803C28.7465 8.3473 28.2173 7.10755 27.2799 6.18154ZM23.3867 6.18154C22.4708 7.11375 21.9076 8.3473 21.5806 9.60423C20.7986 9.89128 20.0529 10.2661 19.3457 10.7048L18.7893 9.89749C19.7181 8.09125 21.4184 6.69652 23.3867 6.18154ZM24.0204 7.18574C25.695 5.32181 27.2994 7.62681 27.7228 9.22658V9.22706C27.4172 9.15172 27.102 9.09259 26.7892 9.05349C25.5438 8.89852 24.1987 8.93238 22.9738 9.21276C22.9409 9.22039 22.9309 9.24805 22.9433 9.18224C23.0363 8.68634 23.6752 7.57007 24.0204 7.18574Z" fill="white"/>
</svg>
