<svg width="81" height="47" viewBox="0 0 81 47" fill="none" xmlns="http://www.w3.org/2000/svg">
<path d="M53.1781 28.22C54.023 28.22 54.8108 28.3842 55.5426 28.7146C56.2714 29.0455 56.9071 29.4949 57.4441 30.0656C57.9807 30.6367 58.4022 31.3035 58.7015 32.0723C59.0013 32.8412 59.151 33.6636 59.151 34.5401C59.151 35.4161 59.0013 36.2335 58.7015 36.9853C58.4022 37.7397 57.9867 38.4014 57.4556 38.9695C56.9246 39.5377 56.2999 39.9842 55.5766 40.306C54.8534 40.6284 54.068 40.7891 53.2231 40.7891C51.7485 40.7891 50.5162 40.2805 49.5332 39.2659V46.3323H45.3602V28.5904H49.5332V29.9044C50.4261 28.7822 51.6414 28.22 53.1781 28.22ZM6.73573 22.5442C7.59765 22.5442 8.49612 22.6628 9.43412 22.9001C10.3721 23.1373 11.2706 23.4877 12.132 23.9488L10.3326 27.4787L10.3296 27.4847C9.83805 27.0863 9.34653 26.7894 8.8545 26.5972C8.36298 26.405 7.88546 26.3094 7.42497 26.3094C6.84034 26.3094 6.36583 26.4475 5.99593 26.7249C5.62553 27.0017 5.44184 27.3631 5.44184 27.8101C5.44184 28.1179 5.53494 28.3722 5.71864 28.5699C5.90233 28.7706 6.14559 28.9433 6.44492 29.09C6.74424 29.2372 7.0836 29.3643 7.459 29.4719C7.83491 29.579 8.20781 29.6952 8.57821 29.8163C10.0528 30.3084 11.1344 30.9671 11.8182 31.7895C12.5019 32.6119 12.8438 33.6861 12.8438 35.0086C12.8438 35.9021 12.6941 36.7075 12.3948 37.4308C12.095 38.1546 11.6575 38.7738 11.0814 39.2879C10.5048 39.8025 9.79551 40.2039 8.95911 40.4867C8.12021 40.772 7.17119 40.9132 6.11156 40.9132C3.9137 40.9132 1.87601 40.2605 0 38.9515L1.93858 35.3054C2.61381 35.9046 3.28302 36.3516 3.94423 36.6424C4.60544 36.9338 5.25814 37.0804 5.90533 37.0804C6.64263 37.0804 7.19322 36.9112 7.55511 36.5719C7.9165 36.233 8.09769 35.8486 8.09769 35.4191C8.09769 35.1588 8.05264 34.9295 7.95904 34.7373C7.86594 34.5456 7.71328 34.3674 7.49855 34.2062C7.28382 34.045 7.00402 33.8954 6.65664 33.7567C6.30927 33.6186 5.89082 33.4654 5.39929 33.2962C4.81467 33.1125 4.24105 32.9088 3.68145 32.6855C3.11935 32.4623 2.62231 32.1654 2.18134 31.798C1.74337 31.4281 1.38999 30.9641 1.1217 30.4015C0.853414 29.8393 0.71827 29.13 0.71827 28.2681C0.71827 27.4056 0.858923 26.6252 1.14423 25.9245C1.42954 25.2237 1.82796 24.6245 2.34251 24.124C2.85657 23.6239 3.48674 23.237 4.23254 22.9596C4.97834 22.6828 5.81174 22.5442 6.73573 22.5442ZM36.3195 28.155C37.3506 28.155 38.2746 28.3131 39.1445 28.6265C40.0119 28.9433 40.7662 29.3818 41.4049 29.941C42.0431 30.5036 42.5381 31.1708 42.891 31.9482C43.2444 32.7256 43.4221 33.582 43.4221 34.5201C43.4221 35.4581 43.2414 36.3151 42.88 37.0924C42.5181 37.8693 42.0206 38.5396 41.3934 39.0992C40.7637 39.6618 40.0064 40.0938 39.122 40.4021C38.238 40.71 37.28 40.8631 36.2519 40.8631C35.2233 40.8631 34.2993 40.71 33.4379 40.4021C32.576 40.0938 31.8357 39.6558 31.211 39.0877C30.5868 38.5195 30.1008 37.8388 29.7479 37.0474C29.3945 36.256 29.2163 35.3735 29.2163 34.4039C29.2163 33.528 29.392 32.7085 29.7479 31.9482C30.1008 31.1878 30.5923 30.5261 31.2225 29.9635C31.8527 29.4013 32.604 28.9609 33.4714 28.6385C34.3388 28.3161 35.2879 28.155 36.3195 28.155ZM18.9979 30.0906C19.566 29.3983 20.1451 28.9348 20.7267 28.6946C21.3119 28.4573 21.9951 28.3382 22.7779 28.3382C24.2695 28.3382 25.3942 28.7511 26.1571 29.5735C26.9169 30.396 27.2983 31.5067 27.2983 32.9088V40.4307H23.1253V34.455C23.1253 33.8558 23.0803 33.3698 22.9872 33.0024C22.8941 32.635 22.7414 32.3491 22.5267 32.1489C22.1563 31.8266 21.7103 31.6654 21.1902 31.6654C20.484 31.6654 19.9414 31.8771 19.5655 32.2981C19.1896 32.7221 19.0004 33.3247 19.0004 34.1106V40.4327H14.8274V21.2838L14.8244 21.2778H18.9979V30.0906ZM36.3195 31.7755C35.9521 31.776 35.5987 31.8466 35.2683 31.9847C34.938 32.1234 34.6527 32.3156 34.4154 32.5614C34.1752 32.8072 33.983 33.093 33.8388 33.4153C33.6922 33.7377 33.6216 34.0851 33.6216 34.4525C33.6216 34.8539 33.6952 35.2183 33.8388 35.5492C33.986 35.8796 34.1782 36.1679 34.4154 36.4137C34.6527 36.6595 34.938 36.8522 35.2683 36.9903C35.5987 37.129 35.9491 37.1996 36.3195 37.1996C36.6894 37.1996 37.0372 37.129 37.3676 36.9903C37.6985 36.8522 37.9833 36.6595 38.2205 36.4137C38.4583 36.1679 38.6505 35.8796 38.7976 35.5492C38.9443 35.2183 39.0149 34.8619 39.0149 34.475C39.0149 34.0881 38.9413 33.7572 38.7976 33.4263C38.6505 33.096 38.4583 32.8072 38.2205 32.5614C37.9833 32.3156 37.698 32.1234 37.3676 31.9847C37.0372 31.8466 36.6864 31.7755 36.3195 31.7755ZM52.0899 31.821C51.706 31.821 51.3751 31.8916 51.0533 32.0298C50.7314 32.1684 50.4491 32.3607 50.2114 32.6069C49.9741 32.8527 49.7819 33.141 49.6348 33.4714C49.4881 33.8023 49.4175 34.1532 49.4175 34.5206C49.4175 34.888 49.4881 35.2359 49.6238 35.5577C49.7619 35.8801 49.9541 36.1624 50.1999 36.4002C50.4456 36.6374 50.7339 36.8296 51.0648 36.9763C51.3952 37.1235 51.7455 37.194 52.1129 37.194C52.4803 37.194 52.8277 37.1235 53.15 36.9853C53.4719 36.8467 53.7512 36.6544 53.9914 36.4082C54.2287 36.1624 54.4209 35.8771 54.5681 35.5547C54.7147 35.2329 54.7883 34.8935 54.7883 34.5401L54.7913 34.5431C54.7913 34.1727 54.7262 33.8253 54.5931 33.4944C54.4634 33.1636 54.2742 32.8752 54.028 32.6295C53.7827 32.3837 53.4944 32.1885 53.164 32.0418C52.8332 31.8946 52.4743 31.821 52.0899 31.821ZM64.9257 5.61613C68.4429 5.61623 70.8811 8.54204 70.8811 11.9448C70.8811 15.3481 68.4655 18.2028 64.9707 18.2028C63.6398 18.2028 62.2643 17.7393 61.3659 16.7442C61.3488 16.7247 61.3148 16.7357 61.3148 16.7637V20.2972C61.3148 21.6737 60.1986 22.79 58.8231 22.79H57.1583C57.1418 22.79 57.1278 22.7759 57.1278 22.7589V6.03474C57.1278 6.01772 57.1418 6.00391 57.1583 6.00376H61.2863C61.3033 6.00376 61.3178 6.01772 61.3178 6.03474V7.30966C61.3178 7.32618 61.3318 7.3407 61.3483 7.3407C61.3598 7.3407 61.3683 7.33469 61.3739 7.32669C62.1367 6.16188 63.5552 5.61372 64.9312 5.61367L64.9257 5.61613ZM50.3941 5.61367C53.9103 5.61467 56.348 8.53954 56.348 11.9418C56.348 15.3451 53.9324 18.1998 50.4376 18.1998C49.0842 18.1998 47.6857 17.7193 46.7872 16.6906C46.7842 16.6856 46.7822 16.6896 46.7817 16.6906V20.2942C46.7817 21.6707 45.6655 22.787 44.2895 22.787H42.5947V6.00376H46.7817V7.30966C46.7817 7.32618 46.7957 7.3407 46.8122 7.3407C46.8237 7.3407 46.8323 7.33469 46.8378 7.32669C47.5976 6.16238 49.0181 5.61397 50.3941 5.61367ZM7.37992 0C9.11728 0 11.2451 0.545508 12.7847 1.41318C12.7957 1.42154 12.7957 1.45277 12.7957 1.45277L12.1545 2.70222C11.6065 3.77051 10.3751 4.2931 9.2224 3.95121C8.83548 3.83533 8.43405 3.77327 8.02411 3.77327C7.19672 3.77327 6.09154 4.21141 6.09154 5.22314C6.09154 6.23497 7.30934 6.6254 8.09218 6.87969L9.24192 7.22457L9.24792 7.22708C11.6635 7.93937 13.525 9.16073 13.525 11.9674C13.525 13.6943 13.1096 15.4668 11.7311 16.6396C10.3746 17.7899 8.55768 18.2734 6.8093 18.2734C4.63097 18.2734 2.50068 17.5411 0.73479 16.3087C0.723778 16.3002 0.726278 16.2692 0.726278 16.2692L2.64484 12.6571C3.77205 13.6462 5.10548 14.4516 6.64513 14.4516C7.70176 14.4516 8.82947 13.9686 8.82947 12.7022C8.82947 11.4358 7.05757 11.0008 6.09154 10.724C3.2635 9.91858 1.399 9.34444 1.399 5.8224C1.399 2.30072 3.90469 0 7.37992 0ZM33.4744 5.61613C34.8048 5.61618 36.2008 6.10232 37.0793 7.09743C37.0963 7.11695 37.1303 7.10594 37.1303 7.07791V6.03774C37.1303 6.02072 37.1444 6.00621 37.1614 6.00621H41.2888L41.2918 6.00376C41.3088 6.00376 41.3228 6.01772 41.3233 6.03474V15.3226C41.3228 16.6992 40.2071 17.8154 38.8312 17.8154H37.1669C37.1499 17.8154 37.1358 17.8014 37.1358 17.7844V16.532C37.1358 16.5155 37.1218 16.5014 37.1048 16.5014C37.0933 16.5014 37.0848 16.5069 37.0793 16.5155C36.339 17.6798 34.8954 18.2053 33.5225 18.2053C30.0247 18.2053 27.5636 15.2831 27.5636 11.8993C27.5636 8.51652 29.9797 5.61613 33.4744 5.61613ZM74.3643 12.8999C75.8254 12.8999 77.0116 14.0872 77.0116 15.5484C77.0116 17.01 75.8254 18.1973 74.3643 18.1973C72.9037 18.1968 71.7175 17.01 71.7175 15.5484C71.7175 14.0872 72.9037 12.9004 74.3643 12.8999ZM22.3285 5.61613C25.5014 5.61613 26.7677 7.61751 26.7677 10.5178V15.3196C26.7672 16.6962 25.6515 17.8129 24.2755 17.8129H22.6113C22.5942 17.8129 22.5802 17.7984 22.5802 17.7814V12.058C22.5802 10.9302 22.7639 8.9515 20.6932 8.9515C18.9924 8.9515 18.5094 10.2179 18.5094 11.6901V15.3171C18.5089 16.6931 17.3932 17.8099 16.0172 17.8099H14.3529C14.3359 17.8099 14.3219 17.7954 14.3219 17.7789V6.03474C14.3219 6.01772 14.3359 6.00386 14.3529 6.00376H18.4808C18.4978 6.00381 18.5114 6.01772 18.5114 6.03474V7.49337C18.5114 7.51039 18.5259 7.5239 18.5429 7.5239C18.5539 7.5239 18.5624 7.5189 18.5684 7.51039C19.5315 6.09431 20.7042 5.61367 22.3315 5.61367L22.3285 5.61613ZM34.5791 9.25084C32.8783 9.25084 31.8892 10.4241 31.8892 11.9193C31.8892 13.4145 32.8783 14.5653 34.5791 14.5653C36.2824 14.5653 37.2715 13.3694 37.2715 11.9193C37.2715 10.4697 36.2799 9.25134 34.5791 9.25084ZM49.3384 9.25084C47.6351 9.25084 46.6455 10.4241 46.6455 11.9193C46.6461 13.4145 47.6351 14.5653 49.3384 14.5653C51.0393 14.5648 52.0278 13.3694 52.0278 11.9193C52.0278 10.4697 51.0423 9.25134 49.3384 9.25084ZM63.8745 9.25084C62.1737 9.25084 61.1847 10.4241 61.1847 11.9193C61.1847 13.4145 62.1712 14.5653 63.8745 14.5653C65.5784 14.5648 66.5669 13.3694 66.5669 11.9193C66.5669 10.4697 65.5754 9.25134 63.8745 9.25084ZM77.7324 9.48259C77.4471 10.5878 76.4495 11.3592 75.3083 11.3592H72.9493L75.7858 0.460464H80.0859L77.7324 9.48259ZM72.681 0.678007H72.3366V1.59653H72.0623V0.678007H71.7175V0.460464H72.681V0.678007ZM73.4718 1.13312L73.7291 0.460464H74.128V1.59653H73.8818V0.678007H73.8733L73.5454 1.59653H73.3988L73.0704 0.678007H73.0649V1.59653H72.8186V0.460464H73.2176L73.4718 1.13312Z" fill="white"/>
</svg>
