<svg width="87" height="21" viewBox="0 0 87 21" fill="none" xmlns="http://www.w3.org/2000/svg">
<path d="M13.4957 0C17.5033 0 20.7628 3.26046 20.7628 7.267V13.4963C20.7628 17.5041 17.5025 20.7641 13.4957 20.7641H7.2671C3.26052 20.7641 0 17.5033 0 13.4963V7.267C8.63999e-05 3.26046 3.26056 0 7.2671 0H13.4957ZM7.2671 2.07542C4.4051 2.07542 2.07654 4.40401 2.07645 7.26613V13.4954C2.07645 16.358 4.40501 18.6865 7.2671 18.6865H13.4957C16.3581 18.6865 18.6866 16.358 18.6866 13.4954V7.26613C18.6866 4.40401 16.3581 2.07542 13.4957 2.07542H7.2671ZM32.6449 5.72295H32.6466C34.0744 5.72295 35.2563 6.40772 35.9743 7.65193C36.8522 9.17047 36.8578 11.2848 35.9877 12.7912C35.2736 14.0285 34.0826 14.7098 32.6354 14.7098C32.3028 14.7098 32.0328 14.4398 32.0323 14.1067C32.0323 13.7741 32.3023 13.5036 32.6354 13.5036C33.9146 13.5036 34.5958 12.7886 34.9419 12.189C35.5955 11.0554 35.5903 9.40159 34.9289 8.25674C34.5794 7.65191 33.8994 6.93131 32.6449 6.93131H32.6432L29.6814 6.92959V17.0453C29.6814 17.3784 29.4114 17.648 29.0788 17.6484C28.7461 17.648 28.4761 17.378 28.4761 17.0453V6.32563C28.4761 6.16492 28.5396 6.01156 28.6528 5.89793C28.766 5.78475 28.9198 5.72124 29.0792 5.72124L32.6449 5.72295ZM6.83726 10.6782C7.65676 10.6782 8.32074 11.3422 8.32074 12.1613V14.5349C8.32074 15.3531 7.65676 16.0171 6.83726 16.0171C6.01776 16.0171 5.3542 15.3531 5.3542 14.5349V12.1613C5.3542 11.3422 6.01776 10.6782 6.83726 10.6782ZM42.1282 5.67586C44.4108 5.67586 46.268 7.71456 46.268 10.2198C46.2676 12.7251 44.4108 14.7638 42.1282 14.7638C39.8459 14.7638 37.9883 12.7251 37.9883 10.2198C37.9883 7.71456 39.845 5.67586 42.1282 5.67586ZM48.86 6.11998C50.3279 5.35833 52.7061 5.64131 53.7736 6.39216C54.0462 6.5844 54.111 6.96112 53.9187 7.23286C53.7269 7.50546 53.3511 7.57113 53.0781 7.37888C52.3324 6.85398 50.423 6.66822 49.416 7.19096C48.8678 7.47566 48.8043 7.84807 48.8043 8.10296C48.8043 8.91904 49.5853 9.1748 51.2438 9.52732C52.7605 9.85004 54.6484 10.2514 54.6484 12.1423C54.6484 13.0539 54.1533 13.8129 53.2539 14.2799C52.6262 14.6057 51.8412 14.7638 51.0304 14.7638C49.8584 14.7638 48.6323 14.4351 47.7446 13.8104C47.4716 13.6181 47.4063 13.2423 47.5977 12.9697C47.7899 12.6966 48.1654 12.6314 48.4384 12.8228C49.5897 13.6324 51.5397 13.8095 52.697 13.209C53.1904 12.9524 53.4414 12.5938 53.4414 12.1432C53.4414 11.3198 52.6569 11.0627 50.9924 10.7085C49.4791 10.3866 47.5968 9.98613 47.5968 8.10383C47.5968 7.24757 48.0457 6.54293 48.86 6.11998ZM73.7134 5.67586C75.9965 5.67586 77.8532 7.71456 77.8532 10.2198C77.8532 12.7251 75.9965 14.7638 73.7134 14.7638C71.4311 14.7638 69.5735 12.7251 69.5735 10.2198C69.5735 7.71456 71.4303 5.67586 73.7134 5.67586ZM60.9936 3.11399C61.3267 3.11399 61.5971 3.38489 61.5962 3.71841C61.5945 4.35348 61.7608 4.84252 62.0896 5.17215C62.6023 5.68582 63.4063 5.72641 63.6404 5.72641C63.9735 5.72641 64.2439 5.99685 64.2439 6.3295C64.2439 6.66259 63.9735 6.93305 63.6404 6.93305C63.2521 6.93305 62.3544 6.86694 61.5897 6.32476L61.5763 12.8033C61.5763 12.9627 61.664 13.1481 61.8036 13.2854C61.9111 13.3909 62.0939 13.514 62.3622 13.5088C62.6918 13.4993 62.9713 13.765 62.9791 14.0981C62.9868 14.4307 62.7224 14.7072 62.3898 14.715H62.3432V14.7159C61.8243 14.7159 61.3344 14.515 60.9595 14.1486C60.5836 13.7814 60.3689 13.2906 60.3689 12.8025L60.3888 3.71625C60.3888 3.38316 60.6601 3.11399 60.9923 3.11399H60.9936ZM82.7785 5.72124C83.8818 5.72124 84.8032 6.06122 85.4422 6.70407C86.0746 7.33957 86.406 8.25372 86.3999 9.34673L86.3748 14.1136C86.3731 14.4458 86.1027 14.7146 85.7718 14.7146V14.7154H85.7683C85.4357 14.7137 85.1666 14.4415 85.1678 14.1084L85.1929 9.34111C85.1972 8.56477 84.9929 7.96427 84.5872 7.55558C84.1786 7.14559 83.5539 6.92872 82.7785 6.92872H80.6833V14.111C80.6833 14.4441 80.4128 14.7141 80.0802 14.7146C79.7475 14.7146 79.4771 14.4441 79.4771 14.111V6.32476C79.4771 5.99167 79.7475 5.72124 80.0802 5.72124H82.7785ZM57.2248 5.72295C57.5575 5.72295 57.8279 5.99427 57.827 6.32779L57.8132 14.1128C57.8132 14.4454 57.5428 14.715 57.2101 14.715H57.2093C56.8762 14.7146 56.6062 14.4437 56.6071 14.1097L56.6204 6.32563C56.6204 5.99254 56.8909 5.72295 57.224 5.72295H57.2248ZM68.4326 5.72124C68.7657 5.72124 69.0357 5.99167 69.0357 6.32476C69.0357 6.65741 68.7657 6.92785 68.4326 6.92785C67.2563 6.92785 66.6199 8.1077 66.6182 9.21713L66.6087 14.1084C66.6083 14.4415 66.3374 14.7107 66.0052 14.7107L66.0043 14.7115H66.0035C65.6708 14.7115 65.4008 14.4407 65.4017 14.1067L65.4108 9.21496C65.4142 7.52145 66.4739 5.72124 68.4326 5.72124ZM12.0092 5.04168C14.5441 5.04168 16.6065 7.10456 16.6065 9.64007C16.6065 12.1752 14.5441 14.2376 12.0092 14.2376H11.8683C11.0488 14.2376 10.3848 13.5736 10.3848 12.7541C10.3848 11.935 11.0488 11.271 11.8683 11.271H12.0092C12.9081 11.271 13.64 10.5391 13.64 9.64007C13.64 8.74061 12.9081 8.0079 12.0092 8.0079H11.8683C11.0488 8.0079 10.3848 7.34345 10.3848 6.52521C10.3848 5.70654 11.0488 5.04168 11.8683 5.04168H12.0092ZM42.1282 6.88337C40.5108 6.88337 39.1953 8.3803 39.1953 10.2198C39.1957 12.0594 40.5108 13.5567 42.1282 13.5567C43.7451 13.5567 45.0606 12.0594 45.0606 10.2198C45.0606 8.3803 43.7451 6.88337 42.1282 6.88337ZM73.7134 6.88337C72.096 6.88337 70.781 8.3803 70.781 10.2198C70.781 12.0594 72.096 13.5567 73.7134 13.5567C75.3303 13.5567 76.6458 12.0594 76.6458 10.2198C76.6458 8.3803 75.3303 6.88337 73.7134 6.88337ZM6.83726 5.04168C7.90214 5.04168 8.76527 5.90485 8.76527 6.96978C8.76527 8.03427 7.90214 8.89786 6.83726 8.89786C5.77281 8.89786 4.90937 8.03427 4.90937 6.96978C4.90937 5.90485 5.77238 5.04168 6.83726 5.04168ZM57.224 3.11444C57.5566 3.11444 57.827 3.38488 57.827 3.71754C57.827 4.05062 57.5566 4.32106 57.224 4.32106H57.2101C56.8771 4.32106 56.6071 4.05062 56.6071 3.71754C56.6071 3.38488 56.8771 3.11444 57.2101 3.11444H57.224Z" fill="white"/>
</svg>
