<svg width="68" height="24" viewBox="0 0 68 24" fill="none" xmlns="http://www.w3.org/2000/svg">
<path d="M59.1366 0.0108558C63.9385 -0.235098 67.8973 3.73035 67.8973 8.64566C67.9241 10.2862 67.459 11.914 66.5692 13.3222L59.6477 23.8435C59.6345 23.8635 59.6213 23.8767 59.5945 23.8899C59.5681 23.9031 59.5481 23.9031 59.5217 23.9031C59.4953 23.9031 59.4685 23.8967 59.4489 23.8899C59.4289 23.8835 59.3953 23.8435 59.3953 23.8435L52.4742 13.3222C51.5512 11.834 51.0929 10.1203 51.146 8.38688C51.272 3.88992 54.7658 0.19683 59.1166 0.0108558H59.1366ZM20.3398 7.00509L12.9935 9.1172L18.2609 15.4671C18.4337 15.6799 18.6197 15.8858 18.8188 16.0718C18.9648 16.231 19.1308 16.3642 19.31 16.477C19.5759 16.6429 19.855 16.7757 20.147 16.8821C20.2134 16.9021 20.2866 16.9221 20.353 16.9221H26.6566C26.743 16.9221 26.8625 16.9085 27.0149 16.8953C27.1745 16.8621 27.3273 16.7957 27.4668 16.6961C27.6392 16.5766 27.7788 16.4174 27.8784 16.2246C27.9515 16.0918 27.9983 15.9454 28.0179 15.7927C27.0949 15.9322 26.1583 15.9522 25.2284 15.8658C24.5842 15.7859 23.9667 15.5735 23.4088 15.2347C22.9173 14.9224 22.5185 14.4776 22.2594 13.9393C21.9738 13.3418 21.8275 12.6707 21.8475 12C21.8475 11.4289 21.9474 10.8642 22.1534 10.3394C22.3526 9.8147 22.6581 9.33637 23.0365 8.93122C23.4284 8.53928 23.8867 8.23373 24.3782 8.00814C24.9029 7.78218 25.4744 7.68222 26.0455 7.71541C26.537 7.7222 27.0221 7.82858 27.4804 8.01456C27.8787 8.18054 28.2443 8.4197 28.563 8.71885C28.8818 8.99762 29.1473 9.34316 29.3397 9.72831C29.5392 10.1071 29.6984 10.499 29.818 10.9106C29.8512 11.0301 29.878 11.1497 29.898 11.2693C29.9112 11.3957 29.964 11.5417 29.9908 11.7012C30.0307 11.9736 30.1036 12.2723 30.1567 12.5911C30.2299 12.9035 30.2699 13.2358 30.3231 13.5678C30.3827 13.8997 30.4223 14.2121 30.4491 14.5308V14.5372C30.4823 14.7964 30.4823 15.0556 30.4491 15.3147C30.4623 15.9654 30.3431 16.6165 30.1039 17.2144C29.9044 17.7192 29.5992 18.1775 29.2137 18.5495C28.8554 18.8882 28.4299 19.1538 27.9715 19.3266C27.5268 19.4858 27.0613 19.5725 26.5898 19.5725H20.5789C20.5057 19.6057 20.4261 19.6257 20.333 19.6257H20.1938C19.5295 19.5857 18.8852 19.3862 18.3073 19.0342C17.703 18.6823 17.1715 18.2107 16.7332 17.6528C16.0889 18.8882 14.9399 19.5257 13.2994 19.5257H4.06676C2.26028 19.5257 1.04452 18.7486 0.426984 17.1809C0.121478 16.3638 -0.0180526 15.4871 0.0018643 14.6036V12.8899H2.49227V14.4712C2.44587 15.082 2.57224 15.6931 2.86458 16.2246C2.99736 16.4038 3.17653 16.5501 3.3757 16.6429C3.57487 16.7361 3.79441 16.7757 4.01357 16.7557H13.2195C13.5514 16.7757 13.8837 16.7293 14.2025 16.6297C14.3885 16.5701 14.5612 16.4634 14.694 16.3106C14.7872 16.1582 14.8336 15.9786 14.8336 15.7927V15.7199C14.8336 15.7199 14.8204 15.6599 14.8072 15.6335C14.794 15.6067 14.7804 15.5603 14.7536 15.5075C14.7404 15.4475 14.7008 15.4207 14.6876 15.3611C14.6544 15.3079 14.6212 15.2479 14.5944 15.1883C14.568 15.1284 14.5148 15.062 14.4748 14.9756C14.4216 14.9028 14.3817 14.8296 14.3221 14.7432C14.2689 14.6704 14.2025 14.584 14.1293 14.4976C14.0629 14.4113 13.9897 14.3249 13.9101 14.2253L11.313 11.1033C11.2334 11.0037 11.1471 10.9041 11.0807 10.811C11.0143 10.725 10.9411 10.6386 10.8747 10.539C10.8083 10.4526 10.7551 10.379 10.682 10.3062C10.6291 10.233 10.5892 10.1599 10.5296 10.0935C10.304 9.7615 10.204 9.35636 10.2436 8.95763C10.2572 8.48609 10.3964 8.03454 10.6555 7.64939C10.8947 7.28385 11.2402 7.0115 11.6389 6.87193L20.3398 4.24149V7.00509ZM35.0918 14.3449C35.0918 14.8032 35.105 15.2551 35.145 15.7134C35.165 16.0054 35.2646 16.2842 35.4306 16.5166C35.6229 16.7293 35.8757 16.8621 36.1548 16.8889C36.5068 16.9421 36.8655 16.9685 37.2242 16.9685V16.9549H39.5222C39.6082 16.9549 39.7282 16.9417 39.8809 16.9285C40.0401 16.8953 40.1929 16.8289 40.3325 16.7293C40.5052 16.6097 40.6448 16.4506 40.7444 16.2578C40.8639 15.9786 40.9235 15.6731 40.9103 15.3675V12.2591H43.3479L43.3215 15.2215V15.3479C43.3415 15.9986 43.2219 16.6497 42.9828 17.2476C42.7836 17.7524 42.4777 18.2107 42.0925 18.5827C41.7338 18.9214 41.3091 19.1874 40.8507 19.3598C40.4056 19.5193 39.9405 19.6057 39.469 19.6057H37.4962V19.6257C36.8655 19.6257 36.2208 19.5789 35.5965 19.4793C35.125 19.4129 34.6667 19.2666 34.2416 19.0474C33.9096 18.875 33.6109 18.6358 33.3649 18.3435C33.1394 18.0315 32.9662 17.6792 32.8599 17.3072C32.7339 16.8757 32.6543 16.4238 32.6275 15.9722C32.6011 15.4675 32.5747 14.936 32.5747 14.3313V4.24149H35.0918V14.3449ZM48.4961 19.4661H45.9786V4.08192H48.4961V19.4661ZM59.5149 2.70768C56.3603 2.70768 53.8028 5.35131 53.8028 8.61925C53.8028 11.8872 56.3603 14.5312 59.5149 14.5312C62.6699 14.5312 65.227 11.8872 65.227 8.61925C65.227 5.35131 62.6699 2.70768 59.5149 2.70768ZM26.0191 10.353C25.7799 10.3394 25.5404 10.3594 25.308 10.4126C25.0825 10.459 24.8765 10.5654 24.7037 10.7114C24.5178 10.8442 24.3718 11.0301 24.2786 11.2429C24.1726 11.4688 24.1258 11.7208 24.1258 11.9732C24.1126 12.2723 24.1858 12.5711 24.3386 12.8303C24.4914 13.0894 24.7237 13.2822 24.9893 13.395H24.9961V13.4082C25.5408 13.6074 26.6898 13.5342 27.8124 13.521L27.6064 12.4119C27.5596 12.1792 27.4668 11.7744 27.44 11.648C27.44 11.6348 27.3473 11.3289 27.3473 11.3157C27.2609 11.0833 27.1149 10.8838 26.9353 10.7246C26.6766 10.4986 26.3574 10.3726 26.0191 10.353ZM60.8566 4.28149C60.8766 4.2879 60.9162 4.30826 60.9162 4.30826C60.9362 4.31505 60.943 4.33468 60.9562 4.35467C60.9694 4.36787 60.9694 4.41427 60.9694 4.41427V12.6111C60.9694 12.6311 60.9694 12.6575 60.9562 12.6775C60.9494 12.6971 60.9298 12.7175 60.9162 12.7307C60.903 12.7439 60.8566 12.7575 60.8566 12.7575H60.7903L58.1935 12.186C58.1667 12.1728 58.14 12.1528 58.12 12.1264C58.1 12.0996 58.0868 12.0396 58.0868 12.0396V5.01217C58.0804 4.97898 58.0936 4.94579 58.1135 4.91901C58.1335 4.8926 58.1935 4.86619 58.1935 4.86619L60.7903 4.28149H60.8566ZM41.9269 7.10467C42.1129 7.10467 42.2989 7.13787 42.4716 7.20426C42.6376 7.27744 42.7972 7.38383 42.9232 7.5234C43.0491 7.65619 43.1487 7.81537 43.2219 7.98135C43.2883 8.15413 43.3215 8.3401 43.3147 8.52608C43.3147 8.72525 43.2883 8.91802 43.2219 9.104C43.1555 9.27677 43.0495 9.43596 42.9232 9.56233C42.8368 9.64872 42.7436 9.72831 42.6372 9.7947C42.5376 9.85431 42.4316 9.90787 42.3253 9.94107C42.2057 9.97427 42.0793 9.99388 41.9533 10.0007C41.7674 10.0007 41.5814 9.96748 41.4086 9.90109C41.2427 9.82828 41.0831 9.72152 40.9567 9.58233C40.8308 9.44916 40.7312 9.28996 40.658 9.12398C40.6048 9.0176 40.572 8.90444 40.552 8.78486V8.79806C40.552 8.82484 40.5388 8.87162 40.5388 8.89802C40.5388 8.93122 40.5252 8.96442 40.512 8.99761C40.4984 9.02402 40.4984 9.0708 40.4852 9.0972C40.472 9.13719 40.452 9.17039 40.4324 9.1968C40.4188 9.22358 40.4056 9.26997 40.3792 9.28355C40.366 9.31637 40.346 9.34315 40.326 9.36956C40.3128 9.40276 40.2597 9.45633 40.2597 9.45633L40.1801 9.54233C40.0537 9.68191 39.9009 9.7947 39.7282 9.86751C39.5558 9.94069 39.3762 9.98068 39.1902 9.97427C39.0043 10.0075 38.8183 9.98746 38.6456 9.92107C38.4728 9.85468 38.3136 9.74151 38.194 9.59552V9.60872H38.1872C38.0545 9.47594 37.9481 9.31637 37.8749 9.13719C37.8021 8.95762 37.7757 8.76487 37.7757 8.57248C37.7757 8.37972 37.8085 8.18733 37.8817 8.00814C37.9549 7.82858 38.0545 7.66939 38.1872 7.53661C38.3136 7.39703 38.4664 7.28386 38.6391 7.21067C38.8115 7.13787 38.9911 7.10467 39.1767 7.10467C39.303 7.10467 39.4294 7.11788 39.549 7.16428C39.6686 7.19748 39.7817 7.25104 39.8877 7.31064C39.9873 7.37704 40.0869 7.45701 40.1733 7.54302C40.2996 7.6758 40.4056 7.82858 40.472 8.00135C40.512 8.10094 40.5388 8.20053 40.552 8.30691C40.5652 8.20732 40.5916 8.10773 40.6316 8.00814C40.7048 7.82858 40.8043 7.66939 40.9367 7.53661C41.0631 7.39703 41.2159 7.28386 41.3887 7.21067C41.5614 7.13787 41.7406 7.09826 41.9269 7.10467ZM24.5842 4.18869C24.7102 4.18869 24.8365 4.20189 24.9561 4.24828C25.0757 4.28148 25.1885 4.33467 25.2948 4.39465C25.3944 4.46104 25.4944 4.54064 25.5808 4.62702C25.7067 4.75981 25.8127 4.91258 25.8795 5.08536C25.9391 5.23813 25.9655 5.39733 25.9655 5.56331C25.9787 5.40412 26.0055 5.24455 26.0655 5.09856C26.1383 4.91938 26.2379 4.75981 26.3706 4.62702C26.497 4.48745 26.6498 4.37466 26.8225 4.30185C26.9949 4.22867 27.1745 4.1951 27.3605 4.1951C27.5464 4.1951 27.7324 4.22867 27.9052 4.29506C28.0775 4.36145 28.2303 4.47424 28.3567 4.61382C28.4827 4.7466 28.5826 4.90579 28.6558 5.07215C28.7222 5.24455 28.7554 5.4309 28.7486 5.61687C28.7486 5.81605 28.7222 6.00844 28.6558 6.19441C28.5894 6.36719 28.4827 6.52676 28.3567 6.65313C28.2703 6.73951 28.1775 6.81911 28.0711 6.8855C27.9715 6.9451 27.8652 6.99829 27.7592 7.03149C27.6396 7.06468 27.5132 7.08467 27.3872 7.09146C27.2013 7.09146 27.0149 7.0579 26.8422 6.9915C26.6762 6.9187 26.5234 6.81232 26.3906 6.67312C26.2643 6.53996 26.1651 6.38039 26.0919 6.21441C26.0123 6.06163 25.9787 5.89565 25.9723 5.72288V5.75608C25.9723 5.80248 25.9723 5.84246 25.9587 5.88245C25.9587 5.90885 25.9455 5.95525 25.9455 5.98204C25.9455 6.01523 25.9323 6.04843 25.9191 6.08163C25.9059 6.10841 25.9059 6.1548 25.8927 6.18121C25.8791 6.21441 25.8595 6.2544 25.8395 6.28118C25.8263 6.30759 25.8127 6.35399 25.786 6.36719C25.7728 6.40039 25.7531 6.42717 25.7332 6.45396C25.7199 6.48678 25.6679 6.53883 25.6668 6.53996L25.5872 6.62635C25.4612 6.76555 25.308 6.87871 25.1353 6.95189C24.9625 7.0247 24.7833 7.06469 24.5974 7.0579C24.4182 7.08468 24.2254 7.06469 24.0527 6.9983C23.8799 6.9319 23.7203 6.82553 23.6008 6.68633H23.5944C23.4616 6.55354 23.362 6.38718 23.2888 6.21441C23.216 6.03523 23.1824 5.84925 23.1824 5.65649C23.1824 5.4641 23.216 5.27133 23.2888 5.09177C23.362 4.91258 23.4616 4.75302 23.5944 4.62023C23.7203 4.48103 23.8735 4.36824 24.0459 4.29506C24.2186 4.22188 24.3982 4.1819 24.5842 4.18869Z" fill="white"/>
</svg>
