<svg width="63" height="41" viewBox="0 0 63 41" fill="none" xmlns="http://www.w3.org/2000/svg">
<path d="M3.73248 33.7727C4.19563 33.7731 4.6457 33.869 5.07181 34.0602C5.49661 34.2511 5.87175 34.519 6.18414 34.8598L6.24035 34.9203L5.78896 35.3452L5.73102 35.2829C5.47352 35.0062 5.16679 34.7883 4.81867 34.6376C4.47099 34.4864 4.10544 34.4092 3.73248 34.4092C3.24407 34.4092 2.78354 34.5343 2.3644 34.7783C1.9457 35.0227 1.60934 35.3587 1.36492 35.773C1.12093 36.1878 0.996318 36.6497 0.996318 37.1455C0.996318 37.6414 1.12093 38.105 1.36492 38.5241C1.60934 38.9429 1.947 39.2805 2.36571 39.5289C2.7831 39.7764 3.24407 39.9023 3.73248 39.9023H5.52798V37.7407H3.38872V37.1233H6.16628V40.5215H3.73248L3.73074 40.5197C3.12513 40.5197 2.55785 40.3672 2.04896 40.0683C1.53789 39.769 1.1279 39.3559 0.82901 38.8435C0.530123 38.3298 0.377632 37.7586 0.377632 37.1473C0.377632 36.5355 0.529688 35.973 0.82901 35.4593C1.1279 34.9456 1.53832 34.5325 2.04896 34.2289C2.55959 33.9256 3.12687 33.7727 3.73248 33.7727ZM16.667 40.5197H15.9947L15.2653 38.8705H11.9131L11.1437 40.5197H10.4579L13.6511 33.6515L16.667 40.5197ZM21.4827 39.901H25.1321V40.5197H20.8653V33.8515H21.4827V39.901ZM30.2933 39.901H33.9423V40.5197H29.6742V33.8515H30.2933V39.901ZM42.8623 34.4794H39.1022V36.8719H42.0318V37.4993H39.1022V39.8818H42.8623V40.5197H38.4848V33.8515H42.8623V34.4794ZM49.7585 33.8498C50.0722 33.8498 50.3715 33.9003 50.6468 33.9997C50.9218 34.1003 51.1675 34.2454 51.3736 34.4319C51.5749 34.6127 51.73 34.8201 51.838 35.0493C51.9461 35.2802 52.001 35.5199 52.001 35.7643C52.001 36.1478 51.8842 36.4959 51.6546 36.8009C51.4267 37.1011 51.1527 37.3203 50.8403 37.4523C50.6285 37.5486 50.4168 37.6087 50.2129 37.6327C50.0678 37.6505 49.9136 37.661 49.7537 37.6653L52.106 40.5184H51.289L51.2873 40.5197L48.4496 37.0719H49.4265C49.9062 37.0719 50.3 37.0091 50.5946 36.888C50.805 36.7887 50.9932 36.6349 51.1501 36.4292C51.3039 36.2279 51.3823 36.0057 51.3823 35.7661C51.3823 35.5513 51.3174 35.3421 51.1871 35.1469C51.0551 34.95 50.8638 34.7857 50.6181 34.6602C50.371 34.5343 50.0809 34.4689 49.7567 34.4689H48.0213V40.5184H47.404V33.8498H49.7585ZM58.9473 37.5468L61.4625 33.8515H62.2058L59.2509 38.2117V40.5197H58.6336V38.2117L55.6782 33.8515H56.4215L58.9473 37.5468ZM12.2002 38.2514H14.9913L13.6276 35.1691L12.2002 38.2514ZM40.3039 4.24997C40.6873 4.24256 41.0724 4.32099 41.4558 4.37981C41.0977 4.37981 40.7365 4.35628 40.381 4.38417C37.5237 4.60638 34.8734 5.4948 32.3821 6.88778C30.5508 7.91258 28.8555 9.13694 27.2212 10.4428C25.221 12.0401 23.2433 13.6644 21.2553 15.2779C21.1707 15.3459 21.0919 15.4204 21.0091 15.4927C22.3179 16.2095 23.6058 16.9214 24.8999 17.6247C27.8103 19.2072 30.702 20.8289 33.6434 22.3535C36.5094 23.8401 39.4869 25.0776 42.6209 25.8993C44.8103 26.474 47.0297 26.7803 49.301 26.6518C55.412 26.3054 60.4735 21.9687 61.4952 16.0613C61.6298 15.281 61.7453 14.4993 61.8107 13.6954C61.4922 14.0596 61.1802 14.43 60.8543 14.7882C58.9921 16.843 57.0407 18.8063 54.7877 20.4407C53.7289 21.2088 52.6245 21.9095 51.3422 22.2454C50.9161 22.3565 50.4569 22.4084 50.0155 22.3966C48.8448 22.3657 48.2039 21.6916 48.186 20.5222C48.1712 19.5762 48.4583 18.6965 48.8387 17.8469C49.1053 17.253 49.4012 16.6726 49.7092 16.0374C49.2652 16.5572 48.864 17.0443 48.4435 17.5153C47.4057 18.676 46.3025 19.7714 45.0133 20.6555C44.5497 20.9736 44.0273 21.2093 43.5254 21.4681C43.3864 21.5391 43.2235 21.5705 43.0679 21.6014C42.227 21.77 41.6602 21.3496 41.5717 20.4999C41.4798 19.6307 41.7212 18.8237 42.0231 18.029C42.1338 17.7358 42.2689 17.453 42.3991 17.151C41.746 17.6247 41.1225 18.0983 40.4773 18.541C39.0517 19.517 37.5119 20.2202 35.7635 20.3383C35.2232 20.3753 34.6607 20.3592 34.1336 20.2494C32.9624 20.0067 32.4487 19.1867 32.6339 17.9976C32.8086 16.8813 33.2408 15.8483 33.7754 14.8727C34.7231 13.1464 35.7265 11.4493 36.7229 9.75129C37.044 9.20317 37.3965 8.66898 37.7725 8.15658C38.2565 7.49517 39.0133 7.28777 39.7536 7.09083C40.0642 7.00804 40.2019 7.21065 40.0834 7.51434C40.0259 7.66074 39.9427 7.79842 39.8568 7.93175C38.2918 10.3744 36.905 12.912 35.7901 15.5934C35.4642 16.375 35.1696 17.1689 35.1635 18.0347C35.1561 19.1096 35.6672 19.5762 36.7464 19.5109C37.6113 19.459 38.3942 19.1658 39.1523 18.7706C40.52 18.0569 41.7578 17.1584 42.9198 16.1502C43.0074 16.0748 43.0758 15.9711 43.1407 15.8731C44.9144 13.2588 47.1482 11.1634 50.0425 9.83103C51.0878 9.35 52.1875 9.03629 53.3529 9.00536C53.4357 9.00361 53.5542 8.92257 53.5926 8.84676C53.8845 8.28425 54.3197 7.91563 54.9428 7.76008C55.3218 7.66553 55.6904 7.53482 56.0651 7.41936C56.0874 7.44768 56.1096 7.47426 56.1314 7.50214C55.809 8.00278 55.4878 8.50211 55.1515 9.02322C55.5841 9.06461 55.9793 9.09249 56.3714 9.14565C56.5462 9.16918 56.7226 9.22713 56.8777 9.30861C56.9518 9.3487 56.9753 9.48159 57.0211 9.57179C56.9278 9.60141 56.832 9.66372 56.7431 9.655C56.2486 9.59705 55.7571 9.52516 55.2639 9.4524C55.0225 9.41711 54.8713 9.49074 54.7367 9.71688C53.271 12.2057 51.9208 14.7542 50.7723 17.4042C50.3933 18.2791 50.0369 19.1706 49.9924 20.1431C49.982 20.371 49.982 20.6019 50.0116 20.8272C50.0974 21.5082 50.5488 21.8367 51.2298 21.7225C52.0546 21.5836 52.7608 21.1718 53.4505 20.7339C55.2495 19.591 56.8629 18.2124 58.3861 16.7319C59.4492 15.6984 60.4382 14.5899 61.466 13.5224C61.5519 13.4322 61.6939 13.3965 61.8093 13.3342C61.8403 13.4509 61.8978 13.5682 61.8995 13.6849C61.9422 16.9968 61.1623 20.0782 59.2688 22.8288C57.1426 25.9172 54.2679 27.9132 50.5667 28.6561C48.6997 29.0308 46.8223 28.992 44.9484 28.7166C41.2441 28.1733 37.8065 26.8235 34.449 25.2348C30.8009 23.5085 27.3354 21.4459 23.825 19.4664C22.4125 18.6699 20.9812 17.9057 19.5661 17.1123C19.3543 16.9937 19.2254 17.019 19.0476 17.1641C17.2194 18.6699 15.2605 19.9801 13.1187 21.0001C12.3932 21.3465 11.6395 21.6385 10.8905 21.9304C10.6788 22.0132 10.5481 22.1269 10.44 22.3208C9.46144 24.065 8.47285 25.803 7.48687 27.5428C6.85903 28.6487 5.90268 29.2186 4.6383 29.2691C4.16034 29.2883 3.68194 29.2852 3.20399 29.2765C3.12861 29.2765 3.04408 29.1994 2.98483 29.1389C2.97307 29.1271 3.03624 28.9933 3.08809 28.9698C3.76342 28.6648 4.26229 28.1498 4.70626 27.5842C5.90268 26.0596 6.86078 24.3835 7.79621 22.6929C7.80493 22.6763 7.80057 22.6541 7.79927 22.6781L7.79621 22.6733C7.00717 22.6036 6.21202 22.5831 5.43344 22.4559C3.89848 22.2071 2.55829 21.5539 1.49214 20.3845C-0.398342 18.31 -0.507702 15.4439 1.2512 13.1712C2.56264 11.4763 4.33766 10.5761 6.43249 10.2724C8.75082 9.93647 10.9245 10.4458 13.0089 11.441C13.2694 11.5652 13.5282 11.6876 13.8127 11.8227C14.0554 11.3874 14.3042 10.9578 14.5351 10.5195C15.0471 9.54259 15.5599 8.56572 16.0496 7.57795C16.1668 7.34267 16.2348 7.06991 16.27 6.80805C16.3354 6.32833 16.162 6.02768 15.6853 5.96537C15.1303 5.89305 14.5591 5.91658 13.9962 5.93749C13.3404 5.96233 12.6873 6.02899 12.0303 6.07953C12.0939 5.53489 12.2272 5.40897 12.7379 5.37498C15.0636 5.22074 17.388 5.05952 19.7142 4.91138C19.9081 4.89961 20.1965 4.76367 20.2632 5.08741C20.3268 5.39546 19.9979 5.36757 19.8454 5.4948C19.5909 5.70656 19.3081 5.92267 19.1482 6.2011C18.6655 7.04812 18.2468 7.92914 17.788 8.78924C17.1423 10.0001 16.4818 11.2053 15.8291 12.4118C15.7725 12.5155 15.7167 12.6205 15.6457 12.7551C16.0187 12.949 16.3755 13.1372 16.7354 13.3224C17.5493 13.7416 18.3684 14.1498 19.1766 14.5808C19.3779 14.6888 19.4977 14.6518 19.6724 14.5245C22.5815 12.4118 25.4698 10.2707 28.419 8.21584C30.5347 6.74138 32.8382 5.60852 35.3457 4.9275C36.9699 4.48656 38.6269 4.2809 40.3039 4.24997ZM52.7887 9.73213C52.7295 9.73343 52.6685 9.73779 52.6092 9.74694C51.157 9.93473 49.8665 10.5038 48.7755 11.4719C46.6524 13.3564 45.0299 15.6112 43.9341 18.2316C43.687 18.8242 43.5119 19.4547 43.3803 20.0838C43.2531 20.6864 43.5136 20.8747 44.0792 20.6346C44.3798 20.5073 44.673 20.3518 44.944 20.1684C46.6981 18.9854 48.1342 17.4796 49.3659 15.7711C50.7013 13.9176 51.7186 11.8745 52.8732 9.91295C52.8968 9.87155 52.9103 9.82406 52.9443 9.74258H52.9425C52.8671 9.73692 52.8271 9.73038 52.7887 9.73213ZM8.95995 12.4296C7.66289 12.2148 6.36452 12.156 5.08662 12.5495C3.78869 12.9508 2.76568 13.725 2.23151 14.9895C1.59627 16.4953 2.18097 18.3148 3.58435 19.4059C5.13455 20.611 6.89607 20.9326 8.80006 20.5932C8.91072 20.574 9.03228 20.4498 9.09328 20.3431C9.67057 19.3218 10.2361 18.2939 10.8043 17.2682C11.4778 16.0513 12.1514 14.8339 12.8368 13.5934V13.5904C12.7732 13.5533 12.7422 13.5294 12.7056 13.5146C11.4913 13.0322 10.2492 12.6427 8.95995 12.4296ZM12.005 19.4459L12.0691 19.5096C14.0084 18.5309 15.8187 17.3419 17.6011 16.036C16.6299 15.4853 15.6989 14.9568 14.7399 14.4134C13.8188 16.1084 12.9113 17.7772 12.005 19.4459ZM43.623 0.00393262C44.1606 -0.0435602 44.5201 0.342913 44.507 0.957271L44.5088 0.955529C44.4878 1.94329 43.5581 3.03694 42.6178 3.18203C42.1264 3.25784 41.7534 2.98683 41.6794 2.49839C41.5195 1.45181 42.5751 0.0971755 43.623 0.00393262Z" fill="white"/>
</svg>
