<svg width="94" height="14" viewBox="0 0 94 14" fill="none" xmlns="http://www.w3.org/2000/svg">
<path d="M7.43838 10.0328C7.43838 9.67703 7.2249 9.49913 6.79795 9.49913H3.88549V6.41894C3.88549 5.4837 4.15488 4.73145 4.69366 4.16217C5.24261 3.59289 5.97961 3.30826 6.90469 3.30826H9.11571L9.25295 5.58028H6.93518C6.70137 5.58028 6.50823 5.65652 6.35574 5.809C6.20326 5.95132 6.12702 6.14955 6.12702 6.40369V7.18136H7.16391C8.04832 7.18136 8.68876 7.40501 9.08522 7.8523C9.48168 8.29959 9.67991 8.94002 9.67991 9.7736C9.67991 10.475 9.49184 11.1155 9.11571 11.6949C8.74975 12.2845 8.23639 12.7521 7.57562 13.0978C6.91485 13.4434 6.17276 13.6162 5.34934 13.6162H4.17521C2.84351 13.6162 1.8117 13.2299 1.07978 12.4573C0.358015 11.6949 -0.00286505 10.6326 -0.00286505 9.2704V6.14447H2.25391V9.20941C2.25391 9.90067 2.41147 10.414 2.72661 10.7495C3.04174 11.0951 3.53478 11.268 4.20571 11.268H5.41034C6.08127 11.268 6.58447 11.1561 6.91994 10.9325C7.26557 10.7088 7.43838 10.409 7.43838 10.0328ZM18.7829 7.66932C18.8845 7.66932 18.9354 8.06578 18.9354 8.8587C18.9354 9.63128 18.8845 10.0176 18.7829 10.0176H17.6697C17.5579 11.146 17.1513 12.0253 16.4499 12.6556C15.7586 13.296 14.8488 13.6162 13.7204 13.6162H11.5704L11.3874 11.2984H13.9796C14.4574 11.2984 14.8284 11.1815 15.0928 10.9477C15.3672 10.7241 15.5045 10.414 15.5045 10.0176H14.6505C13.5222 10.0176 12.714 9.78377 12.226 9.31615C11.7483 8.83836 11.5094 8.08102 11.5094 7.04413C11.5094 6.39353 11.6364 5.81409 11.8906 5.3058C12.1549 4.78736 12.5208 4.38581 12.9885 4.10118C13.4662 3.80637 14.0101 3.65897 14.62 3.65897C15.5858 3.65897 16.3431 3.96902 16.8921 4.58913C17.441 5.19907 17.7155 6.05298 17.7155 7.15087V7.66932H18.7829ZM13.7051 6.93739C13.7051 7.23219 13.7763 7.44567 13.9186 7.57782C14.0711 7.69981 14.3303 7.76081 14.6963 7.76081H15.535V7.05938C15.535 6.66292 15.4485 6.36303 15.2757 6.15972C15.1131 5.95641 14.8793 5.85475 14.5743 5.85475C14.2897 5.85475 14.0711 5.95641 13.9186 6.15972C13.7763 6.35286 13.7051 6.61209 13.7051 6.93739ZM23.1144 7.16612C23.1144 8.05053 22.8501 8.74687 22.3215 9.25516C21.803 9.76344 21.1016 10.0176 20.2172 10.0176H18.7838C18.6822 10.0176 18.6313 9.63128 18.6313 8.8587C18.6313 8.06578 18.6822 7.66932 18.7838 7.66932H20.2172C20.4205 7.66932 20.5832 7.6134 20.7051 7.50158C20.8373 7.38976 20.9034 7.24236 20.9034 7.05938V4.61962H23.1144V7.16612ZM23.4651 1.35645V3.24726H19.0736V1.35645H23.4651ZM32.3214 10.0328C32.3214 9.67703 32.1079 9.49913 31.6809 9.49913H28.7685V6.41894C28.7685 5.4837 29.0379 4.73145 29.5766 4.16217C30.1256 3.59289 30.8626 3.30826 31.7877 3.30826H33.9987L34.1359 5.58028H31.8182C31.5844 5.58028 31.3912 5.65652 31.2387 5.809C31.0862 5.95132 31.01 6.14955 31.01 6.40369V7.18136H32.0469C32.9313 7.18136 33.5717 7.40501 33.9682 7.8523C34.3647 8.29959 34.5629 8.94002 34.5629 9.7736C34.5629 10.475 34.3748 11.1155 33.9987 11.6949C33.6327 12.2845 33.1194 12.7521 32.4586 13.0978C31.7978 13.4434 31.0557 13.6162 30.2323 13.6162H29.0582C27.7265 13.6162 26.6947 13.2299 25.9628 12.4573C25.241 11.6949 24.8801 10.6326 24.8801 9.2704V6.14447H27.1369V9.20941C27.1369 9.90067 27.2945 10.414 27.6096 10.7495C27.9247 11.0951 28.4178 11.268 29.0887 11.268H30.2933C30.9643 11.268 31.4675 11.1561 31.8029 10.9325C32.1485 10.7088 32.3214 10.409 32.3214 10.0328ZM43.6659 7.66932C43.7675 7.66932 43.8183 8.06578 43.8183 8.8587C43.8183 9.63128 43.7675 10.0176 43.6659 10.0176H42.5527C42.4409 11.146 42.0343 12.0253 41.3328 12.6556C40.6416 13.296 39.7318 13.6162 38.6034 13.6162H36.4533L36.2704 11.2984H38.8626C39.3404 11.2984 39.7114 11.1815 39.9757 10.9477C40.2502 10.7241 40.3874 10.414 40.3874 10.0176H39.5335C38.4051 10.0176 37.597 9.78377 37.109 9.31615C36.6312 8.83836 36.3923 8.08102 36.3923 7.04413C36.3923 6.39353 36.5194 5.81409 36.7736 5.3058C37.0379 4.78736 37.4038 4.38581 37.8714 4.10118C38.3492 3.80637 38.8931 3.65897 39.503 3.65897C40.4688 3.65897 41.2261 3.96902 41.7751 4.58913C42.324 5.19907 42.5985 6.05298 42.5985 7.15087V7.66932H43.6659ZM38.5881 6.93739C38.5881 7.23219 38.6593 7.44567 38.8016 7.57782C38.9541 7.69981 39.2133 7.76081 39.5793 7.76081H40.4179V7.05938C40.4179 6.66292 40.3315 6.36303 40.1587 6.15972C39.9961 5.95641 39.7623 5.85475 39.4573 5.85475C39.1726 5.85475 38.9541 5.95641 38.8016 6.15972C38.6593 6.35286 38.5881 6.61209 38.5881 6.93739ZM47.9974 7.16612C47.9974 8.05053 47.7331 8.74687 47.2045 9.25516C46.686 9.76344 45.9846 10.0176 45.1002 10.0176H43.6668C43.5652 10.0176 43.5143 9.63128 43.5143 8.8587C43.5143 8.06578 43.5652 7.66932 43.6668 7.66932H45.1002C45.3035 7.66932 45.4661 7.6134 45.5881 7.50158C45.7203 7.38976 45.7863 7.24236 45.7863 7.05938V4.61962H47.9974V7.16612ZM48.3481 1.35645V3.24726H43.9565V1.35645H48.3481ZM56.674 9.36189C56.674 10.1955 56.5012 10.9325 56.1555 11.5729C55.8201 12.2235 55.3372 12.7267 54.7069 13.0825C54.0868 13.4383 53.36 13.6162 52.5264 13.6162H51.947L51.764 11.268H52.4349C53.0754 11.268 53.5633 11.1053 53.8988 10.78C54.2444 10.4649 54.4172 10.0023 54.4172 9.39239V4.61962H56.674V9.36189ZM54.3257 3.24726V1.35645H56.674V3.24726H54.3257ZM58.5666 0.212819H60.8234V10.0176H58.5666V0.212819ZM68.943 7.66932C69.1464 7.66932 69.309 7.62865 69.431 7.54733C69.5631 7.466 69.6292 7.35418 69.6292 7.21186C69.6292 7.08987 69.5631 6.8459 69.431 6.47994C69.2988 6.11397 68.9532 5.20415 68.3941 3.75046L68.0739 2.9118L70.1782 1.93589L71.9622 6.89164C72.0537 7.16612 72.1656 7.36435 72.2977 7.48633C72.4299 7.60832 72.6027 7.66932 72.8162 7.66932H73.2431C73.3448 7.66932 73.3956 8.06578 73.3956 8.8587C73.3956 9.35681 73.3803 9.67703 73.3498 9.81935C73.3194 9.9515 73.2838 10.0176 73.2431 10.0176H72.6637C71.8301 10.0176 71.2354 9.77869 70.8796 9.3009C70.6661 9.56521 70.4221 9.75327 70.1477 9.86509C69.8834 9.96675 69.5631 10.0176 69.187 10.0176H65.6036L65.4206 7.66932H68.943ZM76.9001 7.66932C77.0933 7.66932 77.2508 7.6134 77.3728 7.50158C77.505 7.38976 77.571 7.24236 77.571 7.05938V4.61962H79.7821V7.16612C79.7821 8.05053 79.5178 8.74687 78.9892 9.25516C78.4707 9.76344 77.7693 10.0176 76.8849 10.0176H73.2405C73.1388 10.0176 73.088 9.63128 73.088 8.8587C73.088 8.06578 73.1388 7.66932 73.2405 7.66932H76.9001ZM77.7845 11.4052V13.296H73.393V11.4052H77.7845ZM80.0876 11.268C80.7281 11.268 81.216 11.1053 81.5515 10.78C81.8971 10.4649 82.0699 10.0023 82.0699 9.39239V4.61962H84.3267V6.93739C84.3267 7.19153 84.3877 7.37959 84.5097 7.50158C84.6317 7.6134 84.8248 7.66932 85.0891 7.66932H85.4703C85.572 7.66932 85.6228 8.06578 85.6228 8.8587C85.6228 9.63128 85.572 10.0176 85.4703 10.0176H85.2111C84.8147 10.0176 84.5148 9.93117 84.3115 9.75835C84.2606 10.5004 84.0624 11.1612 83.7168 11.7407C83.3813 12.3303 82.9086 12.7877 82.2987 13.113C81.6989 13.4485 80.9924 13.6162 80.1791 13.6162H79.5997L79.4167 11.268H80.0876ZM86.6249 7.66932C87.3772 7.66932 88.0075 7.61849 88.5157 7.51683C89.0342 7.41517 89.573 7.22203 90.1321 6.93739L91.108 6.3732C91.0267 6.06823 90.9047 5.85983 90.742 5.74801C90.5895 5.63619 90.3557 5.58028 90.0406 5.58028H86.5639L86.7927 3.27776H90.5285C91.1486 3.27776 91.6569 3.39466 92.0534 3.62847C92.4499 3.86228 92.7853 4.24858 93.0598 4.78736C93.3343 5.32614 93.5833 6.08856 93.807 7.07463L90.6658 8.96543C90.0253 9.36189 89.4002 9.63637 88.7902 9.78885C88.1803 9.94134 87.4229 10.0176 86.5182 10.0176H85.4661C85.3644 10.0176 85.3136 9.63128 85.3136 8.8587C85.3136 8.06578 85.3644 7.66932 85.4661 7.66932H86.6249ZM88.2718 1.89015V-0.000659428H90.62V1.89015H88.2718Z" fill="white"/>
</svg>
