<svg width="80" height="15" viewBox="0 0 80 15" fill="none" xmlns="http://www.w3.org/2000/svg">
<path d="M3.27039 13.1379C2.22241 13.1379 1.41563 12.8343 0.850047 12.2271C0.284468 11.62 0.00167831 10.7716 0.00167831 9.68204V7.32408H1.03719V9.65709C1.03719 10.4472 1.22849 11.0461 1.61108 11.4536C1.99368 11.8612 2.5551 12.065 3.29535 12.065H3.81934C4.53463 12.065 5.10437 11.857 5.52855 11.4412C5.96105 11.0253 6.1773 10.4639 6.1773 9.7569V2.02177H7.21281V9.65709C7.21281 10.3724 7.06726 10.992 6.77615 11.516C6.49336 12.04 6.09413 12.4392 5.57846 12.7137C5.0711 12.9965 4.48473 13.1379 3.81934 13.1379H3.27039ZM14.2623 9.02081C14.3039 9.02081 14.333 9.05824 14.3497 9.1331C14.3746 9.19964 14.3871 9.34519 14.3871 9.56976C14.3871 9.78601 14.3746 9.9274 14.3497 9.99394C14.333 10.0605 14.3039 10.0938 14.2623 10.0938H13.0646C12.9898 11.0419 12.6654 11.7863 12.0915 12.327C11.5176 12.8676 10.7691 13.1379 9.84584 13.1379H8.31129L8.21148 12.065H9.85831C10.5237 12.065 11.0519 11.8861 11.4428 11.5285C11.842 11.1792 12.0458 10.7009 12.0541 10.0938H10.8065C9.9498 10.0938 9.33016 9.91909 8.94756 9.56976C8.57328 9.21211 8.38614 8.65901 8.38614 7.91045C8.38614 7.39477 8.48595 6.93732 8.68557 6.53809C8.88518 6.13054 9.16381 5.81864 9.52146 5.60239C9.88742 5.37782 10.2991 5.26553 10.7566 5.26553C11.4802 5.26553 12.0499 5.50674 12.4658 5.98914C12.8817 6.47155 13.0896 7.13278 13.0896 7.97283V9.02081H14.2623ZM9.42165 7.84807C9.42165 8.27225 9.52562 8.57584 9.73355 8.75882C9.9498 8.93348 10.3282 9.02081 10.8689 9.02081H12.0541V8.04768C12.0541 7.47379 11.9376 7.04129 11.7048 6.75018C11.4719 6.45907 11.135 6.31352 10.6942 6.31352C10.3116 6.31352 10.0039 6.45491 9.77098 6.7377C9.53809 7.02049 9.42165 7.39061 9.42165 7.84807ZM16.2671 9.02081C16.5665 9.02081 16.8077 8.9418 16.9907 8.78377C17.1737 8.61742 17.2652 8.38869 17.2652 8.09759V6.07647H18.3131V8.11006C18.3131 8.72555 18.126 9.21211 17.7517 9.56976C17.3774 9.91909 16.8826 10.0938 16.2671 10.0938H13.2604C13.1772 10.0938 13.1356 9.91909 13.1356 9.56976C13.1356 9.20379 13.1772 9.02081 13.2604 9.02081H16.2671ZM16.6788 11.6657V12.6513H13.3851V11.6657H16.6788ZM14.483 14.3605V13.3749H15.5809V14.3605H14.483ZM27.9026 9.02081C28.227 9.02081 28.4848 8.9418 28.6761 8.78377C28.8674 8.61742 28.9631 8.39285 28.9631 8.11006V6.07647H29.9986V8.07264C29.9986 8.38038 30.0818 8.61742 30.2481 8.78377C30.4228 8.9418 30.6765 9.02081 31.0092 9.02081H31.346C31.4292 9.02081 31.4708 9.20379 31.4708 9.56976C31.4708 9.91909 31.4292 10.0938 31.346 10.0938H30.9717C30.2065 10.0938 29.7075 9.84839 29.4746 9.35767C29.1835 9.84839 28.6595 10.0938 27.9026 10.0938H23.4986C22.7667 10.0938 22.2136 9.90245 21.8393 9.51985C21.4733 9.13726 21.2903 8.6091 21.2903 7.9354V6.07647H22.3258V7.79816C22.3258 8.61326 22.7376 9.02081 23.561 9.02081H27.9026ZM27.2788 4.04288V5.02849H23.9852V4.04288H27.2788ZM31.3178 9.02081C31.6838 9.02081 31.9666 8.93348 32.1662 8.75882C32.3741 8.58415 32.4781 8.34295 32.4781 8.03521V6.07647H33.5261V8.03521C33.5261 8.69228 33.8962 9.02081 34.6365 9.02081C35.0024 9.02081 35.2852 8.93348 35.4848 8.75882C35.6928 8.58415 35.7967 8.34295 35.7967 8.03521V6.07647H36.8322V8.03521C36.8322 8.35127 36.9196 8.59663 37.0942 8.77129C37.2772 8.93764 37.5434 9.02081 37.8927 9.02081C38.2337 9.02081 38.4957 8.93348 38.6787 8.75882C38.87 8.58415 38.9656 8.34295 38.9656 8.03521V6.07647H40.0011V8.03521C40.0011 8.69228 40.3297 9.02081 40.9867 9.02081H41.3485C41.44 9.02081 41.4858 9.20379 41.4858 9.56976C41.4858 9.78601 41.4733 9.9274 41.4484 9.99394C41.4234 10.0605 41.3901 10.0938 41.3485 10.0938H40.9867C40.1883 10.0938 39.6726 9.84839 39.4397 9.35767C39.1486 9.84839 38.6329 10.0938 37.8927 10.0938C37.0526 10.0938 36.512 9.83591 36.2708 9.32024C35.9631 9.83591 35.4183 10.0938 34.6365 10.0938C33.7548 10.0938 33.1934 9.83591 32.9522 9.32024C32.6444 9.83591 32.0997 10.0938 31.3178 10.0938H30.3447C30.2615 10.0938 30.2199 9.91909 30.2199 9.56976C30.2199 9.20379 30.2615 9.02081 30.3447 9.02081H31.3178ZM36.8572 1.88453V2.87014H35.7219V1.88453H36.8572ZM37.9301 3.59375V4.57935H34.6365V3.59375H37.9301ZM45.5881 0.000655916L45.8001 0.67436L41.5333 2.44595V1.69739L45.5881 0.000655916ZM43.8165 9.02081C44.1741 9.02081 44.4527 8.95012 44.6524 8.80872C44.8603 8.66733 44.9643 8.47603 44.9643 8.23482C44.9643 8.06848 44.9227 7.90629 44.8395 7.74826C44.7646 7.58191 44.6357 7.40725 44.4527 7.22427L41.5209 4.31736V3.41908L46.0746 1.61006L46.3865 2.60814L42.7435 4.04288L45.2387 6.55056C45.7461 7.05792 45.9998 7.6235 45.9998 8.2473C45.9998 8.79624 45.8085 9.24122 45.4259 9.58223C45.0433 9.92324 44.5068 10.0938 43.8165 10.0938H40.3606C40.2774 10.0938 40.2358 9.91909 40.2358 9.56976C40.2358 9.20379 40.2774 9.02081 40.3606 9.02081H43.8165ZM48.9865 8.06016C48.9865 8.3679 49.0738 8.60495 49.2485 8.77129C49.4315 8.93764 49.6935 9.02081 50.0345 9.02081H50.1967C50.2798 9.02081 50.3214 9.20379 50.3214 9.56976C50.3214 9.91909 50.2798 10.0938 50.1967 10.0938H50.0345C49.8099 10.0938 49.602 10.0563 49.4107 9.98147C49.2194 9.89829 49.078 9.79433 48.9865 9.66957V9.81928C48.9782 10.4847 48.8368 11.0669 48.5623 11.5659C48.2878 12.0733 47.9052 12.46 47.4145 12.7262C46.9238 13.0007 46.3582 13.1379 45.7178 13.1379H44.8445L44.7447 12.065H45.6928C46.3998 12.065 46.9529 11.857 47.3521 11.4412C47.7514 11.0336 47.951 10.4639 47.951 9.73195V6.07647H48.9865V8.06016ZM52.5392 8.11006C52.5392 8.72555 52.3521 9.21211 51.9778 9.56976C51.6035 9.91909 51.1087 10.0938 50.4932 10.0938H49.1957C49.1125 10.0938 49.0709 9.91909 49.0709 9.56976C49.0709 9.20379 49.1125 9.02081 49.1957 9.02081H50.4932C50.7926 9.02081 51.0338 8.9418 51.2168 8.78377C51.4081 8.61742 51.5037 8.38869 51.5037 8.09759V6.07647H52.5392V8.11006ZM49.5325 12.7012V11.6657H50.855V12.7012H49.5325Z" fill="#FF3636"/>
<path d="M62.6191 2.65805L57.741 10.1936L56.9051 9.61966L61.7707 2.08415L62.6191 2.65805ZM57.2419 2.32119C57.5497 2.32119 57.8366 2.40437 58.1028 2.57071C58.3689 2.73706 58.581 2.95331 58.739 3.21947C58.8971 3.48562 58.9761 3.76425 58.9761 4.05536C58.9761 4.34647 58.8971 4.6251 58.739 4.89125C58.581 5.15741 58.3689 5.37366 58.1028 5.54001C57.8366 5.70635 57.5497 5.78953 57.2419 5.78953C56.9342 5.78953 56.6472 5.70635 56.3811 5.54001C56.1149 5.37366 55.9028 5.15741 55.7448 4.89125C55.5868 4.6251 55.5078 4.34647 55.5078 4.05536C55.5078 3.76425 55.5868 3.48562 55.7448 3.21947C55.9028 2.95331 56.1149 2.73706 56.3811 2.57071C56.6472 2.40437 56.9342 2.32119 57.2419 2.32119ZM57.2419 4.90373C57.4665 4.90373 57.6619 4.8164 57.8283 4.64173C58.003 4.46707 58.0903 4.26745 58.0903 4.04288C58.0903 3.82663 58.003 3.63533 57.8283 3.46899C57.6619 3.29432 57.4665 3.20699 57.2419 3.20699C57.0173 3.20699 56.8177 3.29432 56.6431 3.46899C56.4767 3.63533 56.3935 3.82663 56.3935 4.04288C56.3935 4.26745 56.4767 4.46707 56.6431 4.64173C56.8177 4.8164 57.0173 4.90373 57.2419 4.90373ZM62.2822 6.48818C62.59 6.48818 62.8769 6.57136 63.1431 6.7377C63.4092 6.90405 63.6213 7.1203 63.7793 7.38646C63.9374 7.65261 64.0164 7.93124 64.0164 8.22235C64.0164 8.51346 63.9374 8.79209 63.7793 9.05824C63.6213 9.3244 63.4092 9.54065 63.1431 9.70699C62.8769 9.87334 62.59 9.95651 62.2822 9.95651C61.9745 9.95651 61.6875 9.87334 61.4214 9.70699C61.1552 9.54065 60.9431 9.3244 60.7851 9.05824C60.6271 8.79209 60.5481 8.51346 60.5481 8.22235C60.5481 7.93124 60.6271 7.65261 60.7851 7.38646C60.9431 7.1203 61.1552 6.90405 61.4214 6.7377C61.6875 6.57136 61.9745 6.48818 62.2822 6.48818ZM62.2822 9.07072C62.5068 9.07072 62.7023 8.98338 62.8686 8.80872C63.0433 8.63406 63.1306 8.43444 63.1306 8.20987C63.1306 7.99362 63.0433 7.80232 62.8686 7.63598C62.7023 7.46131 62.5068 7.37398 62.2822 7.37398C62.0577 7.37398 61.858 7.46131 61.6834 7.63598C61.517 7.80232 61.4339 7.99362 61.4339 8.20987C61.4339 8.43444 61.517 8.63406 61.6834 8.80872C61.858 8.98338 62.0577 9.07072 62.2822 9.07072ZM65.3862 6.80008C65.3862 5.98498 65.3446 5.27801 65.2615 4.67916C65.1783 4.08031 65.0119 3.35254 64.7624 2.49586L65.773 2.14653C66.0308 2.9949 66.2013 3.73514 66.2845 4.36726C66.376 4.99106 66.4217 5.79784 66.4217 6.78761V10.0938H65.3862V6.80008ZM70.0046 4.00546C70.4121 4.00546 70.803 4.1219 71.1773 4.35478C71.5599 4.57935 71.8635 4.87878 72.0881 5.25306C72.321 5.61902 72.4374 6.00578 72.4374 6.41333C72.4374 6.82088 72.321 7.21179 72.0881 7.58607C71.8635 7.96035 71.5599 8.26393 71.1773 8.49682C70.803 8.72139 70.4121 8.83367 70.0046 8.83367C69.597 8.83367 69.202 8.71723 68.8194 8.48434C68.4451 8.25146 68.1415 7.95203 67.9086 7.58607C67.6757 7.21179 67.5593 6.82088 67.5593 6.41333C67.5593 6.00578 67.6757 5.61902 67.9086 5.25306C68.1415 4.87878 68.4451 4.57935 68.8194 4.35478C69.202 4.1219 69.597 4.00546 70.0046 4.00546ZM70.0046 7.83559C70.2375 7.83559 70.462 7.76905 70.6783 7.63598C70.9029 7.49458 71.0858 7.31576 71.2272 7.09951C71.3686 6.87494 71.4393 6.64621 71.4393 6.41333C71.4393 6.18876 71.3686 5.96835 71.2272 5.7521C71.0858 5.52753 70.9029 5.34871 70.6783 5.21563C70.462 5.07423 70.2375 5.00354 70.0046 5.00354C69.7717 5.00354 69.543 5.07423 69.3184 5.21563C69.0938 5.34871 68.9109 5.52753 68.7695 5.7521C68.6281 5.96835 68.5574 6.18876 68.5574 6.41333C68.5574 6.64621 68.6281 6.87494 68.7695 7.09951C68.9109 7.31576 69.0938 7.49458 69.3184 7.63598C69.543 7.76905 69.7717 7.83559 70.0046 7.83559ZM77.6198 9.02081C77.6614 9.02081 77.6905 9.05824 77.7072 9.1331C77.7321 9.19964 77.7446 9.34519 77.7446 9.56976C77.7446 9.78601 77.7321 9.9274 77.7072 9.99394C77.6905 10.0605 77.6614 10.0938 77.6198 10.0938H77.2955C76.6633 10.0938 76.1809 9.90661 75.8482 9.53233C75.5239 9.14973 75.3617 8.6091 75.3617 7.91045V2.02177H76.3972V7.86054C76.3972 8.63406 76.7132 9.02081 77.3454 9.02081H77.6198ZM79.9714 8.11006C79.9714 8.72555 79.7842 9.21211 79.4099 9.56976C79.0357 9.91909 78.5408 10.0938 77.9253 10.0938H76.6278C76.5446 10.0938 76.503 9.91909 76.503 9.56976C76.503 9.20379 76.5446 9.02081 76.6278 9.02081H77.9253C78.2247 9.02081 78.4659 8.9418 78.6489 8.78377C78.8402 8.61742 78.9359 8.38869 78.9359 8.09759V6.07647H79.9714V8.11006ZM76.9646 12.7012V11.6657H78.2871V12.7012H76.9646Z" fill="white"/>
</svg>
