<svg width="81" height="15" viewBox="0 0 81 15" fill="none" xmlns="http://www.w3.org/2000/svg">
<path d="M2.87905 10.6738C1.95397 10.6738 1.24238 10.4248 0.744264 9.92665C0.246147 9.42854 -0.00291083 8.71694 -0.00291083 7.79187V5.27587H2.25386V7.4869C2.25386 7.77154 2.31486 7.98502 2.43684 8.12734C2.55883 8.25949 2.76214 8.32557 3.04678 8.32557H7.85005C8.09402 8.32557 8.28209 8.2849 8.41424 8.20358C8.54639 8.12225 8.61247 8.01043 8.61247 7.86811C8.61247 7.73596 8.57689 7.61397 8.50573 7.50215C8.44474 7.38016 8.34308 7.24801 8.20076 7.10569L5.02908 4.01025V2.24143L10.9455 -9.38057e-05L11.5402 2.19568L7.89579 3.58329L9.90859 5.59609C10.7625 6.45 11.4029 7.06503 11.8299 7.44115C12.267 7.80712 12.6228 8.04601 12.8973 8.15783C13.1718 8.26965 13.4869 8.32557 13.8427 8.32557C13.9443 8.32557 13.9952 8.72203 13.9952 9.51495C13.9952 10.2875 13.9443 10.6738 13.8427 10.6738C13.2734 10.6738 12.821 10.6433 12.4856 10.5823C12.1501 10.5213 11.8451 10.4044 11.5707 10.2316C11.2962 10.0588 10.9861 9.7945 10.6405 9.4387C10.4575 9.825 10.1373 10.13 9.67986 10.3536C9.22241 10.5671 8.67855 10.6738 8.04828 10.6738H2.87905ZM15.685 8.32557C15.1564 7.9596 14.8921 7.42591 14.8921 6.72448C14.8921 6.16537 15.0192 5.652 15.2733 5.18438C15.5376 4.7066 15.9036 4.32539 16.3712 4.04075C16.849 3.75611 17.403 3.61379 18.0333 3.61379C19.0397 3.61379 19.8123 3.91368 20.351 4.51345C20.8898 5.11322 21.1592 5.95697 21.1592 7.04469V7.59364C21.1592 8.60004 20.8187 9.36754 20.1376 9.89616C19.4565 10.4146 18.4704 10.6738 17.1794 10.6738H13.8399C13.7383 10.6738 13.6875 10.2875 13.6875 9.51495C13.6875 8.72203 13.7383 8.32557 13.8399 8.32557H15.3648H15.685ZM18.7347 8.23407C18.9177 8.04093 19.0092 7.71563 19.0092 7.25817V7.10569C19.0092 6.6889 18.9228 6.37376 18.75 6.16028C18.5771 5.93664 18.3281 5.82482 18.0028 5.82482C17.7486 5.82482 17.5301 5.91631 17.3471 6.09929C17.1743 6.27211 17.0879 6.49067 17.0879 6.75497C17.0879 7.08027 17.2099 7.35983 17.4538 7.59364C17.708 7.81728 18.1349 8.03076 18.7347 8.23407ZM20.1833 0.518354V2.40916H15.7918V0.518354H20.1833ZM26.3907 8.32557C26.4416 8.32557 26.4771 8.39672 26.4975 8.53904C26.528 8.68136 26.5432 9.00666 26.5432 9.51495C26.5432 10.0029 26.528 10.318 26.4975 10.4603C26.4771 10.6027 26.4416 10.6738 26.3907 10.6738H25.7808C24.8862 10.6738 24.2051 10.4197 23.7375 9.91141C23.2801 9.40312 23.0513 8.67628 23.0513 7.73088V0.869069H25.3081V7.56314C25.3081 7.82745 25.3589 8.0206 25.4606 8.14258C25.5622 8.26457 25.7249 8.32557 25.9485 8.32557H26.3907ZM30.7237 7.82237C30.7237 8.70678 30.4594 9.40312 29.9308 9.91141C29.4123 10.4197 28.7109 10.6738 27.8265 10.6738H26.3931C26.2915 10.6738 26.2406 10.2875 26.2406 9.51495C26.2406 8.72203 26.2915 8.32557 26.3931 8.32557H27.8265C28.0298 8.32557 28.1924 8.26965 28.3144 8.15783C28.4466 8.04601 28.5127 7.89861 28.5127 7.71563V5.27587H30.7237V7.82237ZM31.0744 2.0127V3.90351H26.6828V2.0127H31.0744ZM32.6114 0.869069H34.8682V10.6738H32.6114V0.869069ZM43.674 10.0181C43.674 10.8517 43.5012 11.5887 43.1556 12.2292C42.8201 12.8798 42.3373 13.383 41.707 13.7388C41.0869 14.0946 40.36 14.2725 39.5265 14.2725H38.947L38.764 11.9242H39.435C40.0754 11.9242 40.5633 11.7616 40.8988 11.4363C41.2444 11.1211 41.4173 10.6586 41.4173 10.0486V5.27587H43.674V10.0181ZM41.3258 3.90351V2.0127H43.674V3.90351H41.3258ZM45.5666 0.869069H47.8234V10.6738H45.5666V0.869069ZM55.9431 8.32557C56.1464 8.32557 56.3091 8.2849 56.431 8.20358C56.5632 8.12225 56.6293 8.01043 56.6293 7.86811C56.6293 7.74612 56.5632 7.50215 56.431 7.13619C56.2989 6.77022 55.9533 5.8604 55.3941 4.40671L55.0739 3.56805L57.1782 2.59214L58.9623 7.54789C59.0538 7.82237 59.1656 8.0206 59.2977 8.14258C59.4299 8.26457 59.6027 8.32557 59.8162 8.32557H60.2432C60.3448 8.32557 60.3956 8.72203 60.3956 9.51495C60.3956 10.0131 60.3804 10.3333 60.3499 10.4756C60.3194 10.6078 60.2838 10.6738 60.2432 10.6738H59.6637C58.8301 10.6738 58.2354 10.4349 57.8796 9.95715C57.6662 10.2215 57.4222 10.4095 57.1477 10.5213C56.8834 10.623 56.5632 10.6738 56.1871 10.6738H52.6037L52.4207 8.32557H55.9431ZM63.9002 8.32557C64.0933 8.32557 64.2509 8.26965 64.3729 8.15783C64.505 8.04601 64.5711 7.89861 64.5711 7.71563V5.27587H66.7821V7.82237C66.7821 8.70678 66.5178 9.40312 65.9892 9.91141C65.4708 10.4197 64.7693 10.6738 63.8849 10.6738H60.2405C60.1389 10.6738 60.088 10.2875 60.088 9.51495C60.088 8.72203 60.1389 8.32557 60.2405 8.32557H63.9002ZM64.7846 12.0614V13.9522H60.393V12.0614H64.7846ZM67.0877 11.9242C67.7281 11.9242 68.2161 11.7616 68.5515 11.4363C68.8972 11.1211 69.07 10.6586 69.07 10.0486V5.27587H71.3268V7.59364C71.3268 7.84778 71.3877 8.03584 71.5097 8.15783C71.6317 8.26965 71.8249 8.32557 72.0892 8.32557H72.4704C72.572 8.32557 72.6229 8.72203 72.6229 9.51495C72.6229 10.2875 72.572 10.6738 72.4704 10.6738H72.2112C71.8147 10.6738 71.5148 10.5874 71.3115 10.4146C71.2607 11.1567 71.0624 11.8175 70.7168 12.3969C70.3814 12.9865 69.9086 13.444 69.2987 13.7693C68.6989 14.1047 67.9924 14.2725 67.1792 14.2725H66.5997L66.4168 11.9242H67.0877ZM73.625 8.32557C74.3772 8.32557 75.0075 8.27474 75.5158 8.17308C76.0342 8.07142 76.573 7.87828 77.1321 7.59364L78.108 7.02945C78.0267 6.72448 77.9047 6.51608 77.7421 6.40426C77.5896 6.29244 77.3558 6.23653 77.0406 6.23653H73.564L73.7927 3.93401H77.5286C78.1487 3.93401 78.657 4.05091 79.0534 4.28472C79.4499 4.51853 79.7854 4.90483 80.0598 5.44361C80.3343 5.98239 80.5834 6.74481 80.807 7.73088L77.6658 9.62168C77.0254 10.0181 76.4002 10.2926 75.7903 10.4451C75.1803 10.5976 74.423 10.6738 73.5182 10.6738H72.4661C72.3644 10.6738 72.3136 10.2875 72.3136 9.51495C72.3136 8.72203 72.3644 8.32557 72.4661 8.32557H73.625ZM75.2718 2.5464V0.655591H77.6201V2.5464H75.2718Z" fill="white"/>
</svg>
