<svg width="102" height="16" viewBox="0 0 102 16" fill="none" xmlns="http://www.w3.org/2000/svg">
<path d="M4.17842 13.6162C2.84673 13.6162 1.81491 13.2299 1.08299 12.4573C0.361227 11.6949 0.000346925 10.6326 0.000346925 9.2704V6.14447H2.25712V9.20941C2.25712 9.90067 2.41469 10.414 2.72982 10.7495C3.04496 11.0951 3.53799 11.268 4.20892 11.268H4.81886C5.47963 11.268 5.99299 11.1053 6.35895 10.78C6.72492 10.4547 6.9079 9.99216 6.9079 9.39239V4.61962H9.14942V9.20941C9.14942 10.104 8.97152 10.8817 8.61573 11.5424C8.25993 12.2134 7.75165 12.7267 7.09088 13.0825C6.44028 13.4383 5.68294 13.6162 4.81886 13.6162H4.17842ZM2.95855 4.58913V2.69832H5.30681V4.58913H2.95855ZM17.1826 9.31615C17.1826 10.658 16.8268 11.7102 16.1152 12.4726C15.4036 13.235 14.4277 13.6162 13.1875 13.6162H11.0375L10.8545 11.2984H13.4467C13.9245 11.2984 14.2956 11.1815 14.5599 10.9477C14.8344 10.7241 14.9716 10.414 14.9716 10.0176H14.1177C12.9893 10.0176 12.1811 9.78377 11.6932 9.31615C11.2154 8.83836 10.9765 8.08102 10.9765 7.04413C10.9765 6.39353 11.1036 5.81409 11.3577 5.3058C11.622 4.78736 11.988 4.38581 12.4556 4.10118C12.9334 3.80637 13.4772 3.65897 14.0872 3.65897C15.0529 3.65897 15.8103 3.96902 16.3592 4.58913C16.9081 5.19907 17.1826 6.05298 17.1826 7.15087V9.31615ZM13.1723 6.93739C13.1723 7.23219 13.2434 7.44567 13.3858 7.57782C13.5382 7.69981 13.7975 7.76081 14.1634 7.76081H15.0021V7.05938C15.0021 6.66292 14.9157 6.36303 14.7429 6.15972C14.5802 5.95641 14.3464 5.85475 14.0414 5.85475C13.7568 5.85475 13.5382 5.95641 13.3858 6.15972C13.2434 6.35286 13.1723 6.61209 13.1723 6.93739ZM18.2184 11.268C18.8589 11.268 19.3468 11.1053 19.6823 10.78C20.0279 10.4649 20.2007 10.0023 20.2007 9.39239V4.61962H22.4575V6.93739C22.4575 7.19153 22.5185 7.37959 22.6405 7.50158C22.7625 7.6134 22.9556 7.66932 23.2199 7.66932H23.6011C23.7028 7.66932 23.7536 8.06578 23.7536 8.8587C23.7536 9.63128 23.7028 10.0176 23.6011 10.0176H23.3419C22.9455 10.0176 22.6456 9.93117 22.4423 9.75835C22.3914 10.5004 22.1932 11.1612 21.8476 11.7407C21.5121 12.3303 21.0394 12.7877 20.4295 13.113C19.8297 13.4485 19.1232 13.6162 18.3099 13.6162H17.7305L17.5475 11.268H18.2184ZM25.2132 7.66932C25.4267 7.66932 25.5944 7.61849 25.7164 7.51683C25.8384 7.40501 25.8994 7.25252 25.8994 7.05938V4.61962H28.1409V7.01363C28.1409 7.45075 28.3696 7.66932 28.8271 7.66932H29.315C29.4167 7.66932 29.4675 8.06069 29.4675 8.84345C29.4675 9.6262 29.4167 10.0176 29.315 10.0176H28.7203C27.8868 10.0176 27.3124 9.79393 26.9973 9.34665C26.8041 9.58046 26.5652 9.75327 26.2806 9.86509C25.996 9.96675 25.6402 10.0176 25.2132 10.0176H23.5969C23.4952 10.0176 23.4444 9.63128 23.4444 8.8587C23.4444 8.06578 23.4952 7.66932 23.5969 7.66932H25.2132ZM28.2171 1.35645V3.24726H23.8256V1.35645H28.2171ZM32.9747 7.66932C33.1678 7.66932 33.3254 7.6134 33.4474 7.50158C33.5795 7.38976 33.6456 7.24236 33.6456 7.05938V4.61962H35.8566V7.16612C35.8566 8.05053 35.5923 8.74687 35.0637 9.25516C34.5453 9.76344 33.8438 10.0176 32.9594 10.0176H29.315C29.2134 10.0176 29.1625 9.63128 29.1625 8.8587C29.1625 8.06578 29.2134 7.66932 29.315 7.66932H32.9747ZM33.8591 11.4052V13.296H29.4675V11.4052H33.8591ZM40.4013 9.36189C40.4013 10.1955 40.2284 10.9325 39.8828 11.5729C39.5473 12.2235 39.0645 12.7267 38.4342 13.0825C37.8141 13.4383 37.0873 13.6162 36.2537 13.6162H35.6742L35.4913 11.268H36.1622C36.8026 11.268 37.2906 11.1053 37.626 10.78C37.9717 10.4649 38.1445 10.0023 38.1445 9.39239V4.61962H40.4013V9.36189ZM38.053 3.24726V1.35645H40.4013V3.24726H38.053ZM49.5064 7.66932C49.608 7.66932 49.6589 8.06578 49.6589 8.8587C49.6589 9.63128 49.608 10.0176 49.5064 10.0176H48.3932C48.2814 11.146 47.8748 12.0253 47.1734 12.6556C46.4821 13.296 45.5723 13.6162 44.4439 13.6162H42.2939L42.1109 11.2984H44.7031C45.1809 11.2984 45.5519 11.1815 45.8162 10.9477C46.0907 10.7241 46.228 10.414 46.228 10.0176H45.374C44.2457 10.0176 43.4375 9.78377 42.9495 9.31615C42.4718 8.83836 42.2329 8.08102 42.2329 7.04413C42.2329 6.39353 42.3599 5.81409 42.6141 5.3058C42.8784 4.78736 43.2443 4.38581 43.712 4.10118C44.1897 3.80637 44.7336 3.65897 45.3435 3.65897C46.3093 3.65897 47.0666 3.96902 47.6156 4.58913C48.1645 5.19907 48.439 6.05298 48.439 7.15087V7.66932H49.5064ZM44.4286 6.93739C44.4286 7.23219 44.4998 7.44567 44.6421 7.57782C44.7946 7.69981 45.0538 7.76081 45.4198 7.76081H46.2585V7.05938C46.2585 6.66292 46.172 6.36303 45.9992 6.15972C45.8366 5.95641 45.6028 5.85475 45.2978 5.85475C45.0132 5.85475 44.7946 5.95641 44.6421 6.15972C44.4998 6.35286 44.4286 6.61209 44.4286 6.93739ZM53.167 7.66932C53.3601 7.66932 53.5177 7.6134 53.6397 7.50158C53.7718 7.38976 53.8379 7.24236 53.8379 7.05938V4.61962H56.0489V7.16612C56.0489 8.05053 55.7846 8.74687 55.256 9.25516C54.7375 9.76344 54.0361 10.0176 53.1517 10.0176H49.5073C49.4057 10.0176 49.3548 9.63128 49.3548 8.8587C49.3548 8.06578 49.4057 7.66932 49.5073 7.66932H53.167ZM53.8684 11.4052V13.296H49.4768V11.4052H53.8684ZM50.712 15.7662V13.9364H52.6333V15.7662H50.712ZM64.7333 9.36189C64.7333 10.1955 64.5605 10.9325 64.2148 11.5729C63.8794 12.2235 63.3965 12.7267 62.7662 13.0825C62.1461 13.4383 61.4193 13.6162 60.5857 13.6162H60.0063L59.8233 11.268H60.4942C61.1346 11.268 61.6226 11.1053 61.9581 10.78C62.3037 10.4649 62.4765 10.0023 62.4765 9.39239V4.61962H64.7333V9.36189ZM62.385 3.24726V1.35645H64.7333V3.24726H62.385ZM66.6259 0.212819H68.8826V10.0176H66.6259V0.212819ZM77.0023 7.66932C77.2056 7.66932 77.3683 7.62865 77.4903 7.54733C77.6224 7.466 77.6885 7.35418 77.6885 7.21186C77.6885 7.08987 77.6224 6.8459 77.4903 6.47994C77.3581 6.11397 77.0125 5.20415 76.4534 3.75046L76.1332 2.9118L78.2374 1.93589L80.0215 6.89164C80.113 7.16612 80.2248 7.36435 80.357 7.48633C80.4891 7.60832 80.662 7.66932 80.8754 7.66932H81.3024C81.404 7.66932 81.4549 8.06578 81.4549 8.8587C81.4549 9.35681 81.4396 9.67703 81.4091 9.81935C81.3786 9.9515 81.3431 10.0176 81.3024 10.0176H80.7229C79.8894 10.0176 79.2947 9.77869 78.9389 9.3009C78.7254 9.56521 78.4814 9.75327 78.207 9.86509C77.9426 9.96675 77.6224 10.0176 77.2463 10.0176H73.6629L73.4799 7.66932H77.0023ZM84.9594 7.66932C85.1525 7.66932 85.3101 7.6134 85.4321 7.50158C85.5643 7.38976 85.6303 7.24236 85.6303 7.05938V4.61962H87.8414V7.16612C87.8414 8.05053 87.577 8.74687 87.0484 9.25516C86.53 9.76344 85.8286 10.0176 84.9441 10.0176H81.2998C81.1981 10.0176 81.1473 9.63128 81.1473 8.8587C81.1473 8.06578 81.1981 7.66932 81.2998 7.66932H84.9594ZM85.8438 11.4052V13.296H81.4523V11.4052H85.8438ZM88.1469 11.268C88.7874 11.268 89.2753 11.1053 89.6108 10.78C89.9564 10.4649 90.1292 10.0023 90.1292 9.39239V4.61962H92.386V6.93739C92.386 7.19153 92.447 7.37959 92.569 7.50158C92.691 7.6134 92.8841 7.66932 93.1484 7.66932H93.5296C93.6313 7.66932 93.6821 8.06578 93.6821 8.8587C93.6821 9.63128 93.6313 10.0176 93.5296 10.0176H93.2704C92.8739 10.0176 92.5741 9.93117 92.3707 9.75835C92.3199 10.5004 92.1217 11.1612 91.7761 11.7407C91.4406 12.3303 90.9679 12.7877 90.3579 13.113C89.7582 13.4485 89.0517 13.6162 88.2384 13.6162H87.659L87.476 11.268H88.1469ZM94.6842 7.66932C95.4365 7.66932 96.0667 7.61849 96.575 7.51683C97.0935 7.41517 97.6323 7.22203 98.1914 6.93739L99.1673 6.3732C99.0859 6.06823 98.964 5.85983 98.8013 5.74801C98.6488 5.63619 98.415 5.58028 98.0999 5.58028H94.6232L94.852 3.27776H98.5878C99.2079 3.27776 99.7162 3.39466 100.113 3.62847C100.509 3.86228 100.845 4.24858 101.119 4.78736C101.394 5.32614 101.643 6.08856 101.866 7.07463L98.7251 8.96543C98.0846 9.36189 97.4594 9.63637 96.8495 9.78885C96.2396 9.94134 95.4822 10.0176 94.5775 10.0176H93.5253C93.4237 10.0176 93.3729 9.63128 93.3729 8.8587C93.3729 8.06578 93.4237 7.66932 93.5253 7.66932H94.6842ZM96.3311 1.89015V-0.000659428H98.6793V1.89015H96.3311Z" fill="white"/>
</svg>
