<svg width="109" height="17" viewBox="0 0 109 17" fill="none" xmlns="http://www.w3.org/2000/svg">
<path d="M7.63759 8.7826C7.84091 8.7826 8.00356 8.72669 8.12554 8.61486C8.24753 8.50304 8.30853 8.35056 8.30853 8.15741V5.7329H10.5653V8.30989C10.5653 9.19431 10.3061 9.88557 9.78763 10.3837C9.27934 10.8818 8.583 11.1309 7.69859 11.1309H2.88007C1.955 11.1309 1.24341 10.8818 0.74529 10.3837C0.247174 9.88557 -0.00188467 9.17397 -0.00188467 8.2489V5.7329H2.25489V7.94393C2.25489 8.22857 2.31588 8.44205 2.43787 8.58437C2.55986 8.71652 2.76317 8.7826 3.04781 8.7826H7.63759ZM7.46986 12.5185V14.4093H3.0783V12.5185H7.46986ZM4.31343 16.8795V15.0497H6.23474V16.8795H4.31343ZM15.7893 8.7826C15.8402 8.7826 15.8757 8.85376 15.8961 8.99608C15.9266 9.13839 15.9418 9.46369 15.9418 9.97198C15.9418 10.4599 15.9266 10.7751 15.8961 10.9174C15.8757 11.0597 15.8402 11.1309 15.7893 11.1309H15.1794C14.2848 11.1309 13.6037 10.8767 13.1361 10.3684C12.6786 9.86015 12.4499 9.13331 12.4499 8.18791V1.3261H14.7067V8.02017C14.7067 8.28448 14.7575 8.47763 14.8592 8.59962C14.9608 8.7216 15.1235 8.7826 15.3471 8.7826H15.7893ZM16.8591 8.7826C17.408 8.7826 17.6825 8.54879 17.6825 8.08117V5.7329H19.8935V8.08117C19.8935 8.54879 20.1629 8.7826 20.7017 8.7826C20.966 8.7826 21.1642 8.7216 21.2964 8.59962C21.4286 8.47763 21.4946 8.30481 21.4946 8.08117V5.7329H23.7209V8.08117C23.7209 8.54879 23.97 8.7826 24.4681 8.7826C24.7222 8.7826 24.9103 8.7216 25.0323 8.59962C25.1644 8.47763 25.2305 8.30481 25.2305 8.08117V5.7329H27.4415V8.14216C27.4415 9.06723 27.1772 9.79916 26.6486 10.3379C26.12 10.8666 25.3881 11.1309 24.4528 11.1309C23.5176 11.1309 22.8822 10.892 22.5468 10.4142C22.3536 10.6582 22.1097 10.8411 21.8148 10.9631C21.52 11.0749 21.1439 11.1309 20.6865 11.1309C20.1883 11.1309 19.7817 11.0749 19.4666 10.9631C19.1514 10.8411 18.9075 10.6582 18.7347 10.4142C18.5415 10.6582 18.2925 10.8411 17.9875 10.9631C17.6927 11.0749 17.3166 11.1309 16.8591 11.1309H15.7917C15.69 11.1309 15.6392 10.7446 15.6392 9.97198C15.6392 9.17906 15.69 8.7826 15.7917 8.7826H16.8591ZM23.5379 -0.000515885V1.8293H21.5556V-0.000515885H23.5379ZM24.7426 2.46973V4.36054H20.351V2.46973H24.7426ZM36.8688 8.7826C37.0721 8.7826 37.2347 8.73177 37.3567 8.63011C37.4787 8.52846 37.5397 8.38105 37.5397 8.18791V5.7329H39.7965V8.12691C39.7965 8.56404 40.0201 8.7826 40.4674 8.7826H40.9554C41.057 8.7826 41.1078 9.17906 41.1078 9.97198C41.1078 10.7446 41.057 11.1309 40.9554 11.1309H40.3607C39.5271 11.1309 38.9527 10.9072 38.6376 10.4599C38.4444 10.6937 38.2056 10.8666 37.9209 10.9784C37.6464 11.08 37.2957 11.1309 36.8688 11.1309H32.1113C31.1862 11.1309 30.4746 10.8818 29.9765 10.3837C29.4783 9.88557 29.2293 9.17397 29.2293 8.2489V5.7329H31.4861V7.94393C31.4861 8.22857 31.5471 8.44205 31.669 8.58437C31.791 8.71652 31.9943 8.7826 32.279 8.7826H36.8688ZM36.701 12.5185V14.4093H32.3095V12.5185H36.701ZM33.5446 16.8795V15.0497H35.4659V16.8795H33.5446ZM42.574 8.7826C42.7874 8.7826 42.9552 8.73177 43.0772 8.63011C43.1991 8.51829 43.2601 8.36581 43.2601 8.17266V5.7329H45.5017V8.12691C45.5017 8.56404 45.7304 8.7826 46.1878 8.7826H46.6758C46.7774 8.7826 46.8283 9.17397 46.8283 9.95673C46.8283 10.7395 46.7774 11.1309 46.6758 11.1309H46.0811C45.2475 11.1309 44.6732 10.9072 44.358 10.4599C44.1649 10.6937 43.926 10.8666 43.6413 10.9784C43.3567 11.08 43.0009 11.1309 42.574 11.1309H40.9576C40.856 11.1309 40.8051 10.7446 40.8051 9.97198C40.8051 9.17906 40.856 8.7826 40.9576 8.7826H42.574ZM43.0772 4.36054V2.46973H45.4254V4.36054H43.0772ZM47.7432 8.7826C48.2921 8.7826 48.5666 8.54879 48.5666 8.08117V5.7329H50.7776V8.08117C50.7776 8.54879 51.047 8.7826 51.5858 8.7826C51.8501 8.7826 52.0483 8.7216 52.1805 8.59962C52.3126 8.47763 52.3787 8.30481 52.3787 8.08117V5.7329H54.605V8.08117C54.605 8.54879 54.854 8.7826 55.3522 8.7826C55.6063 8.7826 55.7944 8.7216 55.9164 8.59962C56.0485 8.47763 56.1146 8.30481 56.1146 8.08117V5.7329H58.3256V8.14216C58.3256 9.06723 58.0613 9.79916 57.5327 10.3379C57.0041 10.8666 56.2722 11.1309 55.3369 11.1309C54.4017 11.1309 53.7663 10.892 53.4309 10.4142C53.2377 10.6582 52.9937 10.8411 52.6989 10.9631C52.4041 11.0749 52.028 11.1309 51.5705 11.1309C51.0724 11.1309 50.6658 11.0749 50.3507 10.9631C50.0355 10.8411 49.7916 10.6582 49.6187 10.4142C49.4256 10.6582 49.1765 10.8411 48.8716 10.9631C48.5768 11.0749 48.2006 11.1309 47.7432 11.1309H46.6758C46.5741 11.1309 46.5233 10.7446 46.5233 9.97198C46.5233 9.17906 46.5741 8.7826 46.6758 8.7826H47.7432ZM60.2354 1.3261H62.4921V11.1309H60.2354V1.3261ZM71.298 10.4752C71.298 11.3088 71.1252 12.0458 70.7796 12.6862C70.4441 13.3368 69.9612 13.84 69.3309 14.1958C68.7108 14.5516 67.984 14.7295 67.1504 14.7295H66.571L66.388 12.3812H67.0589C67.6994 12.3812 68.1873 12.2186 68.5228 11.8933C68.8684 11.5781 69.0412 11.1156 69.0412 10.5057V5.7329H71.298V10.4752ZM68.9497 4.36054V2.46973H71.298V4.36054H68.9497ZM73.1906 1.3261H75.4474V11.1309H73.1906V1.3261ZM83.5671 8.7826C83.7704 8.7826 83.933 8.74193 84.055 8.66061C84.1872 8.57928 84.2532 8.46746 84.2532 8.32514C84.2532 8.20316 84.1872 7.95918 84.055 7.59322C83.9228 7.22725 83.5772 6.31743 83.0181 4.86374L82.6979 4.02508L84.8022 3.04918L86.5862 8.00493C86.6777 8.2794 86.7896 8.47763 86.9217 8.59962C87.0539 8.7216 87.2267 8.7826 87.4402 8.7826H87.8671C87.9688 8.7826 88.0196 9.17906 88.0196 9.97198C88.0196 10.4701 88.0044 10.7903 87.9739 10.9326C87.9434 11.0648 87.9078 11.1309 87.8671 11.1309H87.2877C86.4541 11.1309 85.8594 10.892 85.5036 10.4142C85.2901 10.6785 85.0462 10.8666 84.7717 10.9784C84.5074 11.08 84.1872 11.1309 83.811 11.1309H80.2276L80.0447 8.7826H83.5671ZM91.5241 8.7826C91.7173 8.7826 91.8748 8.72669 91.9968 8.61486C92.129 8.50304 92.1951 8.35564 92.1951 8.17266V5.7329H94.4061V8.2794C94.4061 9.16381 94.1418 9.86015 93.6132 10.3684C93.0947 10.8767 92.3933 11.1309 91.5089 11.1309H87.8645C87.7628 11.1309 87.712 10.7446 87.712 9.97198C87.712 9.17906 87.7628 8.7826 87.8645 8.7826H91.5241ZM92.4085 12.5185V14.4093H88.017V12.5185H92.4085ZM94.7117 12.3812C95.3521 12.3812 95.84 12.2186 96.1755 11.8933C96.5211 11.5781 96.694 11.1156 96.694 10.5057V5.7329H98.9507V8.05067C98.9507 8.30481 99.0117 8.49288 99.1337 8.61486C99.2557 8.72669 99.4488 8.7826 99.7131 8.7826H100.094C100.196 8.7826 100.247 9.17906 100.247 9.97198C100.247 10.7446 100.196 11.1309 100.094 11.1309H99.8351C99.4387 11.1309 99.1388 11.0445 98.9355 10.8716C98.8846 11.6137 98.6864 12.2745 98.3408 12.8539C98.0053 13.4435 97.5326 13.901 96.9227 14.2263C96.3229 14.5618 95.6164 14.7295 94.8031 14.7295H94.2237L94.0407 12.3812H94.7117ZM101.249 8.7826C102.001 8.7826 102.631 8.73177 103.14 8.63011C103.658 8.52846 104.197 8.33531 104.756 8.05067L105.732 7.48648C105.651 7.18151 105.529 6.97311 105.366 6.86129C105.214 6.74947 104.98 6.69356 104.665 6.69356H101.188L101.417 4.39104H105.153C105.773 4.39104 106.281 4.50794 106.677 4.74175C107.074 4.97556 107.409 5.36186 107.684 5.90064C107.958 6.43942 108.207 7.20184 108.431 8.18791L105.29 10.0787C104.649 10.4752 104.024 10.7496 103.414 10.9021C102.804 11.0546 102.047 11.1309 101.142 11.1309H100.09C99.9884 11.1309 99.9376 10.7446 99.9376 9.97198C99.9376 9.17906 99.9884 8.7826 100.09 8.7826H101.249ZM102.896 3.00343V1.11262H105.244V3.00343H102.896Z" fill="white"/>
</svg>
