<svg width="97" height="17" viewBox="0 0 97 17" fill="none" xmlns="http://www.w3.org/2000/svg">
<path d="M7.43826 12.8238C7.43826 12.468 7.22479 12.2901 6.79783 12.2901H3.88537V9.20996C3.88537 8.27472 4.15476 7.52246 4.69354 6.95319C5.24249 6.38391 5.9795 6.09927 6.90457 6.09927H9.1156L9.25283 8.37129H6.93507C6.70126 8.37129 6.50811 8.44753 6.35562 8.60002C6.20314 8.74234 6.1269 8.94057 6.1269 9.19471V9.97238H7.16379C8.0482 9.97238 8.68864 10.196 9.0851 10.6433C9.48156 11.0906 9.67979 11.731 9.67979 12.5646C9.67979 13.266 9.49172 13.9065 9.1156 14.4859C8.74963 15.0755 8.23627 15.5432 7.5755 15.8888C6.91473 16.2344 6.17264 16.4072 5.34923 16.4072H4.17509C2.8434 16.4072 1.81158 16.0209 1.07966 15.2483C0.357897 14.4859 -0.00298331 13.4236 -0.00298331 12.0614V8.93549H2.25379V12.0004C2.25379 12.6917 2.41136 13.2051 2.72649 13.5405C3.04163 13.8862 3.53466 14.059 4.20559 14.059H5.41022C6.08115 14.059 6.58435 13.9471 6.91982 13.7235C7.26545 13.4999 7.43826 13.2 7.43826 12.8238ZM10.71 14.059C11.3504 14.059 11.8384 13.8963 12.1739 13.571C12.5195 13.2559 12.6923 12.7933 12.6923 12.1834V7.41064H14.9491V9.7284C14.9491 9.98255 15.0101 10.1706 15.1321 10.2926C15.2541 10.4044 15.4472 10.4603 15.7115 10.4603H16.0927C16.1944 10.4603 16.2452 10.8568 16.2452 11.6497C16.2452 12.4223 16.1944 12.8086 16.0927 12.8086H15.8335C15.437 12.8086 15.1371 12.7222 14.9338 12.5494C14.883 13.2915 14.6848 13.9522 14.3391 14.5317C14.0037 15.1213 13.531 15.5787 12.921 15.904C12.3213 16.2395 11.6148 16.4072 10.8015 16.4072H10.2221L10.0391 14.059H10.71ZM16.6526 10.4603C16.8559 10.4603 17.0186 10.4044 17.1406 10.2926C17.2626 10.1808 17.3236 10.0232 17.3236 9.8199V3.00383H19.5803V9.95713C19.5803 10.8517 19.3211 11.5531 18.8027 12.0614C18.2944 12.5595 17.598 12.8086 16.7136 12.8086H16.0884C15.9868 12.8086 15.9359 12.4223 15.9359 11.6497C15.9359 10.8568 15.9868 10.4603 16.0884 10.4603H16.6526ZM24.9313 10.4603C24.9822 10.4603 25.0178 10.5315 25.0381 10.6738C25.0686 10.8161 25.0838 11.1414 25.0838 11.6497C25.0838 12.1377 25.0686 12.4528 25.0381 12.5951C25.0178 12.7374 24.9822 12.8086 24.9313 12.8086H24.3214C23.4268 12.8086 22.7457 12.5545 22.2781 12.0462C21.8207 11.5379 21.5919 10.811 21.5919 9.86564V3.00383H23.8487V9.69791C23.8487 9.96221 23.8995 10.1554 24.0012 10.2773C24.1028 10.3993 24.2655 10.4603 24.4891 10.4603H24.9313ZM31.2923 -0.000112203L31.643 1.3265L25.9706 3.53753V2.07368L31.2923 -0.000112203ZM28.7916 10.4603C29.0356 10.4603 29.2236 10.4197 29.3558 10.3383C29.4879 10.257 29.554 10.1452 29.554 10.0029C29.554 9.87072 29.5184 9.74874 29.4473 9.63691C29.3863 9.51493 29.2846 9.38277 29.1423 9.24045L25.9706 6.14502V4.3762L31.887 2.13467L32.4817 4.33045L28.8221 5.71806L30.8349 7.73086C31.2517 8.13748 31.5465 8.53903 31.7193 8.93549C31.8921 9.33195 31.9785 9.7589 31.9785 10.2164C31.9785 11.0194 31.7091 11.6548 31.1703 12.1224C30.6417 12.5799 29.9149 12.8086 28.9898 12.8086H24.9337C24.8321 12.8086 24.7812 12.4223 24.7812 11.6497C24.7812 10.8568 24.8321 10.4603 24.9337 10.4603H28.7916ZM37.4845 10.4603C37.5353 10.4603 37.5709 10.5315 37.5913 10.6738C37.6218 10.8161 37.637 11.1414 37.637 11.6497C37.637 12.1377 37.6218 12.4528 37.5913 12.5951C37.5709 12.7374 37.5353 12.8086 37.4845 12.8086H36.8746C35.98 12.8086 35.2989 12.5545 34.8313 12.0462C34.3738 11.5379 34.1451 10.811 34.1451 9.86564V3.00383H36.4019V9.69791C36.4019 9.96221 36.4527 10.1554 36.5544 10.2773C36.656 10.3993 36.8187 10.4603 37.0423 10.4603H37.4845ZM39.1032 10.4603C39.3167 10.4603 39.4844 10.4095 39.6064 10.3078C39.7284 10.196 39.7894 10.0435 39.7894 9.85039V7.41064H42.0309V9.80465C42.0309 10.2418 42.2597 10.4603 42.7171 10.4603H43.2051C43.3067 10.4603 43.3576 10.8517 43.3576 11.6345C43.3576 12.4172 43.3067 12.8086 43.2051 12.8086H42.6104C41.7768 12.8086 41.2024 12.5849 40.8873 12.1377C40.6942 12.3715 40.4553 12.5443 40.1706 12.6561C39.886 12.7578 39.5302 12.8086 39.1032 12.8086H37.4869C37.3852 12.8086 37.3344 12.4223 37.3344 11.6497C37.3344 10.8568 37.3852 10.4603 37.4869 10.4603H39.1032ZM40.6891 14.1962V16.087H36.2975V14.1962H40.6891ZM47.0629 10.4603C47.3069 10.4603 47.495 10.4197 47.6271 10.3383C47.7593 10.257 47.8254 10.1452 47.8254 10.0029C47.8254 9.87072 47.7898 9.74874 47.7186 9.63691C47.6576 9.51493 47.556 9.38277 47.4136 9.24045L44.242 6.14502V4.3762L50.1584 2.13467L50.7531 4.33045L47.0934 5.71806L49.1062 7.73086C49.523 8.13748 49.8178 8.53903 49.9906 8.93549C50.1635 9.33195 50.2499 9.7589 50.2499 10.2164C50.2499 11.0194 49.9805 11.6548 49.4417 12.1224C48.9131 12.5799 48.1862 12.8086 47.2612 12.8086H43.2051C43.1034 12.8086 43.0526 12.4223 43.0526 11.6497C43.0526 10.8568 43.1034 10.4603 43.2051 10.4603H47.0629ZM59.2054 12.1529C59.2054 12.9865 59.0325 13.7235 58.6869 14.3639C58.3514 15.0145 57.8686 15.5177 57.2383 15.8735C56.6182 16.2293 55.8914 16.4072 55.0578 16.4072H54.4783L54.2953 14.059H54.9663C55.6067 14.059 56.0947 13.8963 56.4301 13.571C56.7758 13.2559 56.9486 12.7933 56.9486 12.1834V7.41064H59.2054V12.1529ZM56.8571 6.03828V4.14747H59.2054V6.03828H56.8571ZM61.0979 3.00383H63.3547V12.8086H61.0979V3.00383ZM71.4744 10.4603C71.6777 10.4603 71.8404 10.4197 71.9624 10.3383C72.0945 10.257 72.1606 10.1452 72.1606 10.0029C72.1606 9.88089 72.0945 9.63691 71.9624 9.27095C71.8302 8.90499 71.4846 7.99516 70.9255 6.54148L70.6052 5.70281L72.7095 4.72691L74.4936 9.68266C74.5851 9.95713 74.6969 10.1554 74.8291 10.2773C74.9612 10.3993 75.134 10.4603 75.3475 10.4603H75.7745C75.8761 10.4603 75.9269 10.8568 75.9269 11.6497C75.9269 12.1478 75.9117 12.468 75.8812 12.6104C75.8507 12.7425 75.8151 12.8086 75.7745 12.8086H75.195C74.3614 12.8086 73.7668 12.5697 73.411 12.0919C73.1975 12.3562 72.9535 12.5443 72.679 12.6561C72.4147 12.7578 72.0945 12.8086 71.7184 12.8086H68.135L67.952 10.4603H71.4744ZM79.4315 10.4603C79.6246 10.4603 79.7822 10.4044 79.9042 10.2926C80.0363 10.1808 80.1024 10.0334 80.1024 9.85039V7.41064H82.3134V9.95713C82.3134 10.8415 82.0491 11.5379 81.5205 12.0462C81.0021 12.5545 80.3006 12.8086 79.4162 12.8086H75.7719C75.6702 12.8086 75.6194 12.4223 75.6194 11.6497C75.6194 10.8568 75.6702 10.4603 75.7719 10.4603H79.4315ZM80.3159 14.1962V16.087H75.9243V14.1962H80.3159ZM82.619 14.059C83.2594 14.059 83.7474 13.8963 84.0829 13.571C84.4285 13.2559 84.6013 12.7933 84.6013 12.1834V7.41064H86.8581V9.7284C86.8581 9.98255 86.9191 10.1706 87.0411 10.2926C87.163 10.4044 87.3562 10.4603 87.6205 10.4603H88.0017C88.1034 10.4603 88.1542 10.8568 88.1542 11.6497C88.1542 12.4223 88.1034 12.8086 88.0017 12.8086H87.7425C87.346 12.8086 87.0461 12.7222 86.8428 12.5494C86.792 13.2915 86.5938 13.9522 86.2481 14.5317C85.9127 15.1213 85.44 15.5787 84.83 15.904C84.2303 16.2395 83.5237 16.4072 82.7105 16.4072H82.1311L81.9481 14.059H82.619ZM89.1563 10.4603C89.9086 10.4603 90.5388 10.4095 91.0471 10.3078C91.5656 10.2062 92.1043 10.013 92.6635 9.7284L93.6394 9.16421C93.558 8.85924 93.436 8.65085 93.2734 8.53903C93.1209 8.4272 92.8871 8.37129 92.572 8.37129H89.0953L89.324 6.06877H93.0599C93.68 6.06877 94.1883 6.18568 94.5848 6.41949C94.9812 6.6533 95.3167 7.03959 95.5912 7.57837C95.8656 8.11715 96.1147 8.87957 96.3383 9.86564L93.1971 11.7565C92.5567 12.1529 91.9315 12.4274 91.3216 12.5799C90.7116 12.7324 89.9543 12.8086 89.0496 12.8086H87.9974C87.8958 12.8086 87.8449 12.4223 87.8449 11.6497C87.8449 10.8568 87.8958 10.4603 87.9974 10.4603H89.1563ZM90.8031 4.68116V2.79036H93.1514V4.68116H90.8031Z" fill="white"/>
</svg>
