<svg width="93" height="14" viewBox="0 0 93 14" fill="none" xmlns="http://www.w3.org/2000/svg">
<path d="M7.63982 7.80799C7.84313 7.80799 8.00578 7.75716 8.12777 7.6555C8.24976 7.55385 8.31075 7.40644 8.31075 7.2133V4.7583H10.5675V7.1523C10.5675 7.58943 10.7912 7.80799 11.2385 7.80799H11.7264C11.8281 7.80799 11.8789 8.20445 11.8789 8.99737C11.8789 9.76996 11.8281 10.1562 11.7264 10.1562H11.1317C10.2981 10.1562 9.72377 9.93261 9.40864 9.48532C9.21549 9.71913 8.9766 9.89194 8.69196 10.0038C8.41749 10.1054 8.06677 10.1562 7.63982 10.1562H2.8823C1.95722 10.1562 1.24563 9.90719 0.747514 9.40908C0.249397 8.91096 0.000339295 8.19936 0.000339295 7.27429V4.7583H2.25711V6.96932C2.25711 7.25396 2.31811 7.46744 2.44009 7.60976C2.56208 7.74191 2.76539 7.80799 3.05003 7.80799H7.63982ZM7.47208 1.86109V3.7519H3.08053V1.86109H7.47208ZM16.0592 7.30479C16.0592 8.1892 15.7949 8.88555 15.2663 9.39383C14.7479 9.90211 14.0464 10.1562 13.162 10.1562H11.7287C11.627 10.1562 11.5762 9.76996 11.5762 8.99737C11.5762 8.20445 11.627 7.80799 11.7287 7.80799H13.162C13.3653 7.80799 13.528 7.75208 13.65 7.64025C13.7821 7.52843 13.8482 7.38103 13.8482 7.19805V4.7583H16.0592V7.30479ZM13.162 3.38593V1.49513H15.5103V3.38593H13.162ZM28.0567 10.1562C27.2129 10.1562 26.6284 9.93769 26.3031 9.50057C25.8965 9.93769 25.2154 10.1562 24.2598 10.1562C23.2839 10.1562 22.5367 9.92244 22.0183 9.45482C21.51 8.97704 21.2559 8.30102 21.2559 7.42678V6.75584C21.2559 6.35938 21.3321 6.05441 21.4846 5.84094H21.0271C20.712 5.84094 20.4731 5.92734 20.3105 6.10016C20.158 6.27298 20.0817 6.51695 20.0817 6.83209V13.6939H17.825V6.86258C17.825 5.86635 18.1198 5.07343 18.7094 4.48382C19.3091 3.89422 20.1173 3.59941 21.1339 3.59941H24.4428C25.4187 3.59941 26.1506 3.84339 26.6386 4.33134C27.1265 4.80912 27.3705 5.51055 27.3705 6.43563V7.12181C27.3705 7.33528 27.4213 7.50302 27.523 7.62501C27.6348 7.74699 27.7924 7.80799 27.9957 7.80799H28.5141C28.6158 7.80799 28.6666 8.20445 28.6666 8.99737C28.6666 9.76996 28.6158 10.1562 28.5141 10.1562H28.0567ZM24.336 7.89948C24.6207 7.89948 24.8392 7.84357 24.9917 7.73174C25.1442 7.60976 25.2205 7.41153 25.2205 7.13705V6.61861C25.2205 6.36447 25.1493 6.17132 25.007 6.03917C24.8647 5.89685 24.6563 5.82569 24.3818 5.82569H24.1988C23.9447 5.82569 23.7515 5.89685 23.6194 6.03917C23.4872 6.18148 23.4211 6.37463 23.4211 6.61861V7.09131C23.4211 7.38611 23.4923 7.59451 23.6346 7.7165C23.7769 7.83848 24.0107 7.89948 24.336 7.89948ZM29.0751 7.80799C29.2784 7.80799 29.4411 7.75208 29.563 7.64025C29.685 7.52843 29.746 7.37086 29.746 7.16755V0.351491H32.0028V7.09131C32.0028 7.56909 32.2366 7.80799 32.7042 7.80799H33.1922C33.2938 7.80799 33.3447 8.19936 33.3447 8.98212C33.3447 9.76487 33.2938 10.1562 33.1922 10.1562H32.6585C31.8046 10.1562 31.22 9.93261 30.9049 9.48532C30.5186 9.93261 29.929 10.1562 29.1361 10.1562H28.5109C28.4092 10.1562 28.3584 9.76996 28.3584 8.99737C28.3584 8.20445 28.4092 7.80799 28.5109 7.80799H29.0751ZM34.803 7.80799C35.0165 7.80799 35.1843 7.75716 35.3062 7.6555C35.4282 7.54368 35.4892 7.3912 35.4892 7.19805V4.7583H37.7307V7.1523C37.7307 7.58943 37.9595 7.80799 38.4169 7.80799H38.9049C39.0065 7.80799 39.0574 8.19936 39.0574 8.98212C39.0574 9.76487 39.0065 10.1562 38.9049 10.1562H38.3102C37.4766 10.1562 36.9022 9.93261 36.5871 9.48532C36.394 9.71913 36.1551 9.89194 35.8704 10.0038C35.5858 10.1054 35.23 10.1562 34.803 10.1562H33.1867C33.085 10.1562 33.0342 9.76996 33.0342 8.99737C33.0342 8.20445 33.085 7.80799 33.1867 7.80799H34.803ZM36.3889 11.5439V13.4347H31.9973V11.5439H36.3889ZM40.7499 7.80799C40.2213 7.44202 39.957 6.90833 39.957 6.2069C39.957 5.64779 40.0841 5.13442 40.3382 4.6668C40.6025 4.18902 40.9685 3.80781 41.4361 3.52317C41.9139 3.23853 42.4679 3.09621 43.0982 3.09621C44.1046 3.09621 44.8772 3.3961 45.416 3.99587C45.9547 4.59564 46.2241 5.43939 46.2241 6.52712V7.07606C46.2241 8.08246 45.8836 8.84997 45.2025 9.37858C44.5214 9.89703 43.5353 10.1562 42.2443 10.1562H38.9049C38.8032 10.1562 38.7524 9.76996 38.7524 8.99737C38.7524 8.20445 38.8032 7.80799 38.9049 7.80799H40.4297H40.7499ZM43.7996 7.7165C43.9826 7.52335 44.0741 7.19805 44.0741 6.7406V6.58811C44.0741 6.17132 43.9877 5.85618 43.8149 5.64271C43.6421 5.41906 43.393 5.30724 43.0677 5.30724C42.8136 5.30724 42.595 5.39873 42.412 5.58171C42.2392 5.75453 42.1528 5.97309 42.1528 6.2374C42.1528 6.5627 42.2748 6.84225 42.5188 7.07606C42.7729 7.29971 43.1999 7.51318 43.7996 7.7165ZM41.8783 1.89158V0.000776267H44.2266V1.89158H41.8783ZM54.9052 9.50057C54.9052 10.3341 54.7323 11.0712 54.3867 11.7116C54.0512 12.3622 53.5684 12.8654 52.9381 13.2212C52.318 13.577 51.5912 13.7549 50.7576 13.7549H50.1781L49.9952 11.4066H50.6661C51.3065 11.4066 51.7945 11.244 52.1299 10.9187C52.4756 10.6035 52.6484 10.141 52.6484 9.53106V4.7583H54.9052V9.50057ZM52.5569 3.38593V1.49513H54.9052V3.38593H52.5569ZM56.7977 0.351491H59.0545V10.1562H56.7977V0.351491ZM67.1742 7.80799C67.3775 7.80799 67.5402 7.76732 67.6622 7.686C67.7943 7.60467 67.8604 7.49285 67.8604 7.35053C67.8604 7.22855 67.7943 6.98457 67.6622 6.61861C67.53 6.25264 67.1844 5.34282 66.6253 3.88913L66.305 3.05047L68.4093 2.07457L70.1934 7.03032C70.2849 7.30479 70.3967 7.50302 70.5289 7.62501C70.661 7.74699 70.8338 7.80799 71.0473 7.80799H71.4743C71.5759 7.80799 71.6268 8.20445 71.6268 8.99737C71.6268 9.49548 71.6115 9.8157 71.581 9.95802C71.5505 10.0902 71.5149 10.1562 71.4743 10.1562H70.8948C70.0612 10.1562 69.4666 9.91736 69.1108 9.43957C68.8973 9.70388 68.6533 9.89194 68.3788 10.0038C68.1145 10.1054 67.7943 10.1562 67.4182 10.1562H63.8348L63.6518 7.80799H67.1742ZM75.1313 7.80799C75.3244 7.80799 75.482 7.75208 75.604 7.64025C75.7361 7.52843 75.8022 7.38103 75.8022 7.19805V4.7583H78.0132V7.30479C78.0132 8.1892 77.7489 8.88555 77.2203 9.39383C76.7019 9.90211 76.0004 10.1562 75.116 10.1562H71.4716C71.37 10.1562 71.3192 9.76996 71.3192 8.99737C71.3192 8.20445 71.37 7.80799 71.4716 7.80799H75.1313ZM76.0157 11.5439V13.4347H71.6241V11.5439H76.0157ZM78.3188 11.4066C78.9592 11.4066 79.4472 11.244 79.7827 10.9187C80.1283 10.6035 80.3011 10.141 80.3011 9.53106V4.7583H82.5579V7.07606C82.5579 7.3302 82.6189 7.51827 82.7409 7.64025C82.8629 7.75208 83.056 7.80799 83.3203 7.80799H83.7015C83.8032 7.80799 83.854 8.20445 83.854 8.99737C83.854 9.76996 83.8032 10.1562 83.7015 10.1562H83.4423C83.0458 10.1562 82.7459 10.0698 82.5426 9.89703C82.4918 10.6391 82.2936 11.2999 81.9479 11.8793C81.6125 12.4689 81.1398 12.9264 80.5298 13.2517C79.9301 13.5872 79.2236 13.7549 78.4103 13.7549H77.8309L77.6479 11.4066H78.3188ZM84.8561 7.80799C85.6084 7.80799 86.2386 7.75716 86.7469 7.6555C87.2654 7.55385 87.8041 7.3607 88.3632 7.07606L89.3391 6.51187C89.2578 6.2069 89.1358 5.9985 88.9732 5.88668C88.8207 5.77486 88.5869 5.71895 88.2718 5.71895H84.7951L85.0238 3.41643H88.7597C89.3798 3.41643 89.8881 3.53334 90.2846 3.76715C90.681 4.00096 91.0165 4.38725 91.291 4.92603C91.5654 5.46481 91.8145 6.22723 92.0381 7.2133L88.8969 9.10411C88.2565 9.50057 87.6313 9.77504 87.0214 9.92752C86.4114 10.08 85.6541 10.1562 84.7494 10.1562H83.6972C83.5956 10.1562 83.5447 9.76996 83.5447 8.99737C83.5447 8.20445 83.5956 7.80799 83.6972 7.80799H84.8561ZM86.5029 2.02882V0.138012H88.8512V2.02882H86.5029Z" fill="white"/>
</svg>
