<svg width="95" height="90" viewBox="0 0 95 90" fill="none" xmlns="http://www.w3.org/2000/svg">
<g filter="url(#filter0_d_9522_66)">
<rect x="2" y="15.6582" width="90.203" height="33.4649" rx="16.7325" fill="#DB2141"/>
<rect x="2.25" y="15.9082" width="89.703" height="32.9649" rx="16.4825" stroke="#FFB8C4" stroke-width="0.5"/>
</g>
<g filter="url(#filter1_d_9522_66)">
<rect x="2" y="51.8125" width="90.203" height="33.4649" rx="16.7325" fill="#DB2141"/>
<rect x="2.25" y="52.0625" width="89.703" height="32.9649" rx="16.4825" stroke="#FFB8C4" stroke-width="0.5"/>
</g>
<path d="M55.2944 28.855C55.7107 28.855 56.0872 28.7622 56.4239 28.5772C56.7605 28.3922 57.025 28.1313 57.2166 27.7937C57.4083 27.4568 57.5041 27.07 57.5041 26.6334C57.5041 25.3909 56.5763 24.2075 54.7207 23.084L53.7699 24.4722C53.8856 24.5451 53.9964 24.6161 54.1041 24.6865C54.0064 24.8104 53.9155 24.9325 53.834 25.0521C53.5926 25.4058 53.4196 25.7907 53.3138 26.2074C53.2478 26.4653 53.2148 26.72 53.2148 26.971C53.2148 27.5396 53.3934 27.9955 53.75 28.3393C54.1065 28.6831 54.6218 28.855 55.2951 28.855H55.2944ZM56.2751 26.654C56.2422 26.7667 56.1482 26.8589 55.9926 26.9317C55.8371 27.0046 55.6473 27.0407 55.4233 27.0407C55.1065 27.0407 54.862 26.9946 54.6902 26.9018C54.5185 26.8091 54.4326 26.6808 54.4326 26.5151C54.4326 26.2373 54.666 25.8698 55.1314 25.4133C55.7456 25.8941 56.127 26.3077 56.2751 26.654Z" fill="#FDF1F3"/>
<path d="M57.7815 31.7315C58.6931 31.3217 59.4062 30.8328 59.9214 30.2642C60.3502 29.7908 60.6003 29.2758 60.6719 28.7202C60.8374 28.7775 61.0166 28.8068 61.2095 28.8068H62.5368C63.4285 28.8068 64.1049 28.6069 64.5673 28.207C65.0296 27.8072 65.2605 27.2373 65.2605 26.4968C65.2605 26.1268 65.1926 25.7083 65.0576 25.2424C64.9219 24.7765 64.7882 24.4047 64.6562 24.127L63.398 24.8208C63.7608 25.6933 63.9425 26.2121 63.9425 26.3772C63.9425 26.5559 63.8118 26.6942 63.5511 26.7938C63.2904 26.8929 62.8529 26.9427 62.2387 26.9427H61.2083C60.9768 26.9427 60.7988 26.8779 60.6731 26.7496C60.5636 26.6369 60.469 26.4525 60.3894 26.1953C60.3247 25.9518 60.2506 25.7145 60.1679 25.4853L58.8306 26.0209C59.2401 27.3295 59.4448 28.1161 59.4448 28.3808C59.4448 28.4997 59.334 28.6617 59.1131 28.8666C58.8916 29.0715 58.5948 29.2913 58.2214 29.5261C57.8481 29.7609 57.4405 29.9771 56.998 30.1757L57.7809 31.7322L57.7815 31.7315Z" fill="#FDF1F3"/>
<path d="M60.3562 23.5808L59.3064 22.5195L58.2461 23.5808L59.3064 24.6315L60.3562 23.5808Z" fill="#FDF1F3"/>
<path d="M62.9974 30.4475L62.1405 29.5898L61.209 30.5216L61.8331 31.1463L62.1405 31.4539L62.4473 31.1463L62.9974 30.5963L63.5468 31.1463L63.8542 31.4539L64.161 31.1463L64.7851 30.5216L63.8542 29.5898L62.9974 30.4475Z" fill="#FDF1F3"/>
<path d="M71.8468 31.6217L72.8972 30.571L71.8468 29.5098L70.7871 30.571L71.8468 31.6217Z" fill="#FDF1F3"/>
<path d="M73.5213 27.4667C73.7789 27.3278 73.9308 27.2456 73.9768 27.2188C74.4784 26.9479 74.7957 26.7922 74.9276 26.7529L74.8679 25.0676C74.5443 25.0016 74.2519 24.9206 73.9911 24.8247C73.7304 24.7288 73.4118 24.5855 73.0353 24.3937C72.5201 24.1228 72.1306 23.9428 71.8661 23.8531C71.6016 23.764 71.3278 23.7192 71.0441 23.7192C70.1854 23.7192 69.4891 24.2511 68.9539 25.3155L69.9744 26.079C70.265 25.7091 70.6048 25.5241 70.9949 25.5241C71.1997 25.5241 71.4355 25.5602 71.7031 25.6331C71.9706 25.706 72.2264 25.805 72.4709 25.9308C72.5998 25.9956 72.7223 26.0554 72.8393 26.1114C72.2351 26.3954 71.6813 26.5966 71.1779 26.7143C70.5276 26.8663 69.8189 26.9423 69.0529 26.9423H68.4885C68.2906 26.9423 68.1381 26.9142 68.033 26.8582C67.9272 26.8021 67.8531 26.7043 67.8102 26.5655C67.7673 26.4266 67.7461 26.2254 67.7461 25.9607C67.7461 25.1741 67.7243 24.3345 67.6814 23.4427C67.6385 22.5502 67.5737 21.7934 67.4885 21.1719L65.9727 21.5188C66.1512 22.7681 66.2564 24.3084 66.2894 26.1388C66.3087 27.8921 67.0224 28.7802 68.4293 28.8045V28.8057H68.5582C69.2451 28.7995 69.8226 28.7609 70.2918 28.6918C70.7603 28.6226 71.2376 28.4949 71.723 28.31C72.2083 28.125 72.8076 27.8441 73.5207 27.4673L73.5213 27.4667Z" fill="#FDF1F3"/>
<path d="M77.8061 28.6316C78.0737 28.8266 78.3854 28.9243 78.742 28.9243C79.2703 28.9243 79.6729 28.7045 79.9504 28.2648C79.9554 28.2573 79.9598 28.2486 79.9648 28.2405C79.9797 28.2604 79.9946 28.2803 80.0102 28.299C80.3537 28.7157 80.7463 28.9237 81.1887 28.9237C81.5055 28.9237 81.788 28.8259 82.0356 28.631C82.2833 28.4361 82.475 28.1651 82.61 27.8182C82.745 27.4713 82.8129 27.0796 82.8129 26.6436C82.8129 25.5599 82.4414 24.5634 81.6984 23.6541C80.9554 22.7454 80.0488 21.9438 78.9791 21.25L78.1173 22.7964C78.2293 22.8537 78.3388 22.9123 78.4471 22.9715C78.4296 22.9945 78.4122 23.0163 78.3948 23.0393C78.0382 23.5121 77.7308 24.0259 77.4738 24.5808C77.2162 25.1357 77.0575 25.6782 76.9984 26.207C76.9854 26.306 76.9785 26.4549 76.9785 26.6529C76.9785 27.0889 77.0494 27.4794 77.1913 27.8232C77.3332 28.167 77.5379 28.4361 77.8055 28.631L77.8061 28.6316ZM78.2666 26.0488C78.4222 25.2273 78.8627 24.4388 79.5895 23.6827C79.9504 23.9387 80.2833 24.2084 80.5845 24.4924C81.2584 25.127 81.5951 25.7486 81.5951 26.3565C81.5951 26.8323 81.4003 27.0702 81.0108 27.0702C80.8191 27.0702 80.6754 26.9693 80.5802 26.7675C80.4843 26.5657 80.4333 26.3197 80.4265 26.0289L79.4259 26.1877C79.419 26.4325 79.3661 26.6405 79.2672 26.8124C79.1683 26.9843 79.0226 27.0702 78.8316 27.0702C78.6406 27.0702 78.4912 27.0142 78.3861 26.9014C78.2803 26.7893 78.2274 26.6205 78.2274 26.3957C78.2274 26.2767 78.2405 26.1609 78.2672 26.0488H78.2666Z" fill="#FDF1F3"/>
<path d="M20.484 36.162L19.3247 36.7967C19.3907 36.9356 19.4984 37.2196 19.6465 37.6493C19.7952 38.0791 19.8692 38.3531 19.8692 38.472C19.8692 38.8489 19.4399 39.0369 18.5811 39.0369H18.046C17.6235 39.0307 17.1972 39.0021 16.7679 38.9529C16.3385 38.903 15.8301 38.8227 15.2421 38.71L14.8855 40.2763C15.2881 40.4152 15.6764 40.579 16.0498 40.7671C16.4225 40.9552 16.682 41.1059 16.8276 41.218C16.6627 41.403 16.3684 41.5668 15.9459 41.7088C15.5233 41.8508 15.0579 41.9218 14.5489 41.9218C13.2546 41.9218 12.6074 41.4192 12.6074 40.4146C12.6074 40.1038 12.6504 39.8117 12.7362 39.5371C12.8221 39.263 12.954 38.9174 13.1326 38.5007L12.0828 38.0149C11.6734 38.9205 11.4457 39.6872 11.3996 40.315C11.3928 40.3941 11.3896 40.5068 11.3896 40.6519C11.3896 41.2797 11.5265 41.8153 11.801 42.2582C12.0748 42.701 12.4512 43.0348 12.9304 43.2596C13.4089 43.4845 13.949 43.5966 14.5501 43.5966C15.1512 43.5966 15.7517 43.4789 16.2738 43.2447C16.7952 43.0099 17.2047 42.7159 17.5021 42.3622C17.7996 42.0084 17.9477 41.6634 17.9477 41.3258C17.9477 41.1184 17.8525 40.9054 17.6633 40.6868C17.7927 40.6943 17.9209 40.6992 18.0466 40.7011H18.5818C19.3876 40.7011 20.0049 40.5174 20.4342 40.1512C20.8636 39.7843 21.0783 39.2475 21.0783 38.5399C21.0783 38.1768 21.0105 37.7552 20.8754 37.2756C20.7398 36.7967 20.6097 36.4249 20.484 36.1602V36.162Z" fill="#FDF1F3"/>
<path d="M20.5348 34.8548L19.5541 33.8633L19.2175 34.2002L18.5635 34.8548L19.5541 35.8364L20.5348 34.8548Z" fill="#FDF1F3"/>
<path d="M28.6678 36.623C28.3903 36.3882 28.0667 36.2711 27.6971 36.2711C27.3274 36.2711 26.979 36.4199 26.6716 36.717C26.3642 37.0147 26.0425 37.4737 25.7058 38.0953C25.3623 38.7231 24.946 39.037 24.4576 39.037H24.2889C24.0711 39.037 23.9056 39.0071 23.7936 38.948C23.681 38.8882 23.602 38.7879 23.5559 38.6453C23.5099 38.5033 23.4868 38.3002 23.4868 38.0355C23.4868 37.2558 23.4651 36.4013 23.4227 35.4726C23.3798 34.544 23.3188 33.7923 23.2392 33.2168L21.8721 33.5245C22.037 34.6549 22.1328 36.1814 22.1596 38.1053C22.1658 38.971 22.3381 39.6206 22.6748 40.0534C23.004 40.4763 23.526 40.6925 24.2398 40.7018L24.2896 40.7024H24.4283C24.8838 40.7024 25.2902 40.5866 25.6467 40.3555C25.8048 40.2527 25.946 40.1257 26.0717 39.9756C26.8993 40.4925 27.5708 40.7516 28.0835 40.7516C28.3212 40.7516 28.516 40.7018 28.6678 40.6028C28.9516 40.424 29.1644 40.168 29.3069 39.8342C29.4487 39.5004 29.5197 39.1317 29.5197 38.7287C29.5197 38.3258 29.4469 37.924 29.3019 37.5441C29.1563 37.1642 28.9453 36.8565 28.6678 36.6224V36.623ZM28.3753 39.0426C28.3455 39.1186 28.3044 39.1765 28.2515 39.2164C28.2248 39.2363 28.1887 39.2463 28.1426 39.2463C27.9908 39.2463 27.7462 39.1634 27.4096 38.9984C27.2111 38.9012 27.0001 38.7829 26.7767 38.644C27.0891 38.0542 27.3828 37.759 27.6572 37.759C27.8819 37.759 28.0648 37.8667 28.2067 38.081C28.3486 38.2959 28.4195 38.5288 28.4195 38.7798C28.4195 38.8788 28.4046 38.9666 28.3747 39.0426H28.3753Z" fill="#FDF1F3"/>
<path d="M36.6468 34.9574L35.7899 34.0898L34.9082 34.9724L35.4925 35.5572L35.7899 35.8549L36.6468 34.9873L37.2162 35.5572L37.5136 35.8549L38.3854 34.9724L37.5136 34.0898L36.6468 34.9574Z" fill="#FDF1F3"/>
<path d="M37.7214 36.1621L36.5721 36.7968C36.6449 36.9487 36.7538 37.2246 36.8988 37.6245C37.0438 38.0243 37.1166 38.2872 37.1166 38.413C37.1166 38.6179 36.9828 38.7736 36.7152 38.8788C36.4476 38.9847 35.9971 39.0376 35.363 39.0376H34.5622C34.5149 38.7007 34.439 38.375 34.3332 38.0611C34.1415 37.4962 33.8789 37.0415 33.5454 36.6977C33.2119 36.3539 32.8435 36.182 32.4409 36.182C32.0775 36.182 31.7458 36.311 31.4453 36.5688C31.1447 36.8266 30.9089 37.1555 30.7371 37.5553C30.5654 37.9552 30.4795 38.36 30.4795 38.7698C30.4795 39.0937 30.5392 39.3914 30.6581 39.6623C30.8498 40.0921 31.1964 40.3748 31.6979 40.51C32.1242 40.6252 32.6742 40.6912 33.3481 40.7087C33.3002 40.7971 33.243 40.8818 33.1739 40.9615C32.9493 41.2194 32.6008 41.4442 32.1291 41.636C31.6568 41.8279 31.0346 42.006 30.2617 42.1717L30.777 43.6091C31.5697 43.4634 32.253 43.2192 32.8273 42.8754C33.4017 42.5316 33.8441 42.1038 34.1546 41.5912C34.322 41.3147 34.4439 41.0201 34.5211 40.7074L34.9965 40.7037H35.6306C36.5155 40.7037 37.1856 40.5137 37.6418 40.1338C38.0973 39.7539 38.325 39.2102 38.325 38.5026C38.325 38.1458 38.2572 37.736 38.1221 37.2732C37.9865 36.8105 37.8527 36.4405 37.7208 36.1627L37.7214 36.1621ZM31.6587 38.71C31.6189 38.6503 31.599 38.5749 31.599 38.4821C31.599 38.37 31.6301 38.2473 31.6929 38.1153C31.7558 37.9832 31.8416 37.8724 31.9505 37.7833C32.0594 37.6942 32.1764 37.6494 32.3021 37.6494C32.5199 37.6494 32.7215 37.7634 32.9063 37.9913C33.0911 38.2193 33.238 38.5182 33.3469 38.8888C33.3606 38.9355 33.3737 38.9828 33.3855 39.0302C32.9897 39.0208 32.6624 39.0015 32.4054 38.9729C32.019 38.9299 31.7701 38.8427 31.6575 38.71H31.6587Z" fill="#FDF1F3"/>
<path d="M45.4085 39.5634C45.5143 39.3255 45.5672 39.0645 45.5672 38.7799C45.5672 38.172 45.3376 37.5355 44.879 36.8716C44.4197 36.207 43.8043 35.6073 43.0315 35.0723L42.2387 36.5396C42.8068 36.9164 43.2443 37.2652 43.5511 37.5853C43.8578 37.9061 44.0626 38.1702 44.1652 38.3788C44.2673 38.5868 44.3121 38.7407 44.299 38.8397C44.2262 38.9188 44.0744 38.9935 43.8435 39.0626C43.612 39.1318 43.3214 39.1704 42.9717 39.1766C42.6214 39.1766 42.3196 39.1355 42.0651 39.0527C41.8106 38.9698 41.5716 38.8758 41.347 38.7699L40.7627 39.9396C40.9606 40.1115 41.2561 40.2902 41.6494 40.4752C42.0421 40.6602 42.5361 40.753 43.1304 40.753C43.6319 40.753 44.0962 40.6508 44.5224 40.4459C44.948 40.241 45.2436 39.947 45.4091 39.5634H45.4085Z" fill="#FDF1F3"/>
<path d="M47.9931 37.4902L46.7648 37.976L46.8339 38.2239C47.1836 39.4272 47.3591 40.1372 47.3591 40.3558C47.3591 40.4947 47.2514 40.6747 47.0374 40.8964C46.8227 41.1175 46.5302 41.3461 46.1606 41.5803C45.7903 41.8151 45.3877 42.025 44.9521 42.2099L45.6454 43.6082C46.5234 43.2245 47.2203 42.7537 47.7355 42.195C48.2508 41.6363 48.5084 41.0235 48.5084 40.3558C48.5084 39.9329 48.4623 39.4633 48.3696 38.9476C48.2769 38.4319 48.1518 37.9461 47.9931 37.4902Z" fill="#FDF1F3"/>
<path d="M52.4564 42.3832L51.5995 41.5156L50.7178 42.3982C50.9094 42.5962 51.1042 42.7911 51.3021 42.983L51.5995 43.2807L52.4564 42.4131C52.6431 42.6062 52.8328 42.7961 53.0257 42.983L53.3232 43.2807L54.195 42.3982L53.3232 41.5156L52.4564 42.3832Z" fill="#FDF1F3"/>
<path d="M59.3411 42.3832L58.4843 41.5156L57.6025 42.3982C57.7942 42.5962 57.989 42.7911 58.1868 42.983L58.4843 43.2807L59.3411 42.4131C59.5278 42.6062 59.7176 42.7961 59.9105 42.983L60.208 43.2807L61.0797 42.3982L60.208 41.5156L59.3411 42.3832Z" fill="#FDF1F3"/>
<path d="M66.8361 36.6229C66.5585 36.3881 66.235 36.271 65.8653 36.271C65.4957 36.271 65.1472 36.4199 64.8398 36.7169C64.5324 37.0146 64.2107 37.4737 63.8741 38.0952C63.5306 38.723 63.1143 39.0369 62.6258 39.0369H62.4572C62.2326 39.0369 62.0658 38.9989 61.9569 38.923C61.848 38.847 61.787 38.7691 61.7733 38.69C61.7733 38.0884 61.7273 37.5397 61.6346 37.0439L60.5052 37.2619C60.591 37.7116 60.624 38.0716 60.6041 38.3425C60.591 38.5144 60.5263 38.6495 60.4112 38.7492C60.2955 38.8482 60.0957 38.9211 59.812 38.9672C59.5282 39.0133 59.125 39.0363 58.6035 39.0363H58.5345C58.3497 39.0363 58.2059 38.9803 58.1039 38.8675C58.0012 38.7554 57.9439 38.5667 57.9302 38.3026C57.9234 38.2366 57.9004 37.7078 57.8612 36.7163C57.8014 34.998 57.7454 33.8345 57.6925 33.2261L56.3055 33.5431C56.3584 34.0718 56.4163 34.8803 56.4791 35.9671C56.542 37.0545 56.583 37.8293 56.603 38.292C56.6092 38.5698 56.5432 38.7629 56.4051 38.8719C56.2669 38.9809 56.0348 39.0357 55.7119 39.0357H55.5731C55.3485 39.0357 55.1817 38.9977 55.0728 38.9217C54.9639 38.8457 54.9029 38.7679 54.8892 38.6888C54.8892 38.0871 54.8432 37.5384 54.7505 37.0427L53.6211 37.2607C53.7069 37.7103 53.7399 38.0703 53.72 38.3412C53.7069 38.5131 53.6422 38.6483 53.5271 38.7479C53.4114 38.847 53.2116 38.9198 52.9279 38.9659C52.6441 39.012 52.2409 39.0351 51.7194 39.0351H51.7095C51.4917 39.0351 51.3262 39.0052 51.2142 38.946C51.1015 38.8862 51.0225 38.7859 50.9765 38.6433C50.9304 38.5013 50.9074 38.2983 50.9074 38.0336C50.9074 37.2538 50.8856 36.3993 50.8427 35.4707C50.7997 34.5421 50.7388 33.7903 50.6591 33.2148L49.292 33.5225C49.4569 34.6529 49.5527 36.1794 49.5795 38.1033C49.5857 38.969 49.7581 39.6186 50.0947 40.0515C50.4251 40.4769 50.9509 40.6924 51.6697 40.7005L51.7095 40.7011H51.7493C52.5004 40.6992 53.0722 40.6382 53.463 40.5174C53.7903 40.4165 54.0517 40.2614 54.2483 40.054C54.3889 40.2172 54.5514 40.3554 54.7362 40.4675C54.9764 40.6145 55.239 40.6911 55.524 40.6992V40.7011H55.7417C56.1182 40.7011 56.4468 40.6002 56.7274 40.3984C56.8979 40.2763 57.0429 40.1269 57.163 39.9506C57.2912 40.1163 57.4362 40.2595 57.5992 40.3785C57.8929 40.5933 58.2047 40.7005 58.5351 40.7005H58.634C59.3851 40.6986 59.957 40.6376 60.3477 40.5167C60.675 40.4158 60.9364 40.2608 61.133 40.0534C61.2743 40.2165 61.4361 40.3548 61.6209 40.4669C61.8611 40.6139 62.1237 40.6905 62.4087 40.6986V40.7005H62.4584H62.5972C63.0527 40.7005 63.459 40.5846 63.8156 40.3536C63.9737 40.2508 64.1149 40.1237 64.2406 39.9736C65.0682 40.4906 65.7396 40.7497 66.2524 40.7497C66.4901 40.7497 66.6849 40.6998 66.8367 40.6008C67.1204 40.4221 67.3333 40.1661 67.4758 39.8323C67.6176 39.4984 67.6886 39.1297 67.6886 38.7268C67.6886 38.3238 67.6158 37.9221 67.4708 37.5422C67.3258 37.1623 67.1142 36.8546 66.8367 36.6204L66.8361 36.6229ZM66.5436 39.0425C66.5137 39.1185 66.4727 39.1764 66.4198 39.2163C66.3936 39.2362 66.3569 39.2462 66.3109 39.2462C66.159 39.2462 65.9145 39.1634 65.5779 38.9983C65.3793 38.9012 65.1684 38.7828 64.945 38.6439C65.2574 38.0541 65.5511 37.7589 65.8255 37.7589C66.0502 37.7589 66.2331 37.8667 66.3756 38.0809C66.5175 38.2958 66.5884 38.5287 66.5884 38.7797C66.5884 38.8787 66.5735 38.9666 66.5436 39.0425Z" fill="#FDF1F3"/>
<path d="M80.2728 42.3832L79.4159 41.5156L78.5342 42.3982C78.7258 42.5962 78.9206 42.7911 79.1185 42.983L79.4159 43.2807L80.2728 42.4131C80.4595 42.6062 80.6492 42.7961 80.8422 42.983L81.1396 43.2807L82.0114 42.3982L81.1396 41.5156L80.2728 42.3832Z" fill="#FDF1F3"/>
<path d="M82.1496 36.163L81.0002 36.7976C81.0731 36.9496 81.1819 37.2255 81.3269 37.6254C81.4719 38.0252 81.5447 38.288 81.5447 38.4139C81.5447 38.6188 81.4109 38.7745 81.1434 38.8797C80.8758 38.9856 80.4253 39.0385 79.7912 39.0385H79.2168C79.0053 39.0385 78.8105 38.9856 78.6325 38.8797C78.4539 38.7738 78.253 38.587 78.0283 38.3192C77.8423 38.0975 77.6145 37.7892 77.3469 37.3974C77.2716 37.2666 77.1852 37.1365 77.0868 37.0057C76.6643 36.4439 76.2878 36.0141 75.9574 35.7171L78.7408 34.5374L78.2853 33.209L74.5903 34.7554L74.4515 36.1829C75.0657 36.6855 75.533 37.1333 75.8535 37.5263C76.174 37.92 76.3967 38.2849 76.5224 38.6219C76.3768 38.7608 76.1211 38.8866 75.7546 38.9987C75.3881 39.1114 74.9537 39.1675 74.4522 39.1675H74.245C74.245 39.1644 74.245 39.1606 74.245 39.1575C73.6768 39.1575 73.1865 39.1176 72.7739 39.0385C72.3614 38.9594 72.0471 38.8536 71.8331 38.7215C71.6184 38.5895 71.5114 38.4506 71.5114 38.3049C71.5114 38.047 71.5941 37.6503 71.759 37.1153L70.7093 36.6195C70.5904 36.8842 70.4915 37.1844 70.4118 37.522C70.3328 37.8589 70.293 38.1728 70.293 38.4637C70.293 38.5696 70.2961 38.6487 70.3029 38.7016C70.3627 39.3761 70.7354 39.9011 71.4224 40.2779C72.0782 40.6379 72.9668 40.8223 74.0869 40.8323H74.1099C74.1547 40.8323 74.1995 40.8329 74.2456 40.8329C74.2456 40.8316 74.2456 40.8298 74.2456 40.8285L74.4534 40.8229C75.2984 40.8229 76.0184 40.666 76.6127 40.3521C76.9904 40.1521 77.2723 39.9011 77.4577 39.5985C77.7489 39.9603 78.0364 40.235 78.3214 40.4212C78.6089 40.6093 78.9076 40.7039 79.2181 40.7039H80.06C80.9449 40.7039 81.615 40.514 82.0712 40.1341C82.5267 39.7542 82.7544 39.2104 82.7544 38.5029C82.7544 38.146 82.6866 37.7362 82.5515 37.2735C82.4159 36.8107 82.2821 36.4408 82.1502 36.163H82.1496Z" fill="#FDF1F3"/>
<path d="M49.5975 64.9618C50.0195 64.9618 50.4012 64.8677 50.7424 64.6802C51.0837 64.4927 51.3518 64.2281 51.5461 63.8859C51.7404 63.5443 51.8376 63.1522 51.8376 62.7096C51.8376 61.45 50.897 60.2504 49.0159 59.1113L48.052 60.5187C48.1693 60.5926 48.2816 60.6645 48.3907 60.7359C48.2917 60.8615 48.1996 60.9853 48.1169 61.1065C47.8722 61.4652 47.6968 61.8553 47.5896 62.2777C47.5227 62.5391 47.4893 62.7974 47.4893 63.0518C47.4893 63.6283 47.6703 64.0905 48.0318 64.439C48.3932 64.7875 48.9156 64.9618 49.5981 64.9618H49.5975ZM50.5917 62.7305C50.5582 62.8447 50.463 62.9382 50.3053 63.0121C50.1476 63.0859 49.9552 63.1225 49.7281 63.1225C49.407 63.1225 49.1591 63.0758 48.985 62.9817C48.8108 62.8877 48.7238 62.7576 48.7238 62.5897C48.7238 62.3081 48.9604 61.9355 49.4322 61.4727C50.0548 61.9602 50.4415 62.3794 50.5917 62.7305Z" fill="white"/>
<path d="M52.1168 67.8753C53.041 67.4598 53.7639 66.9642 54.2863 66.3877C54.7209 65.9079 54.9745 65.3857 55.047 64.8225C55.2148 64.8806 55.3965 64.9103 55.5921 64.9103H56.9376C57.8416 64.9103 58.5273 64.7076 58.996 64.3022C59.4647 63.8969 59.6988 63.3192 59.6988 62.5685C59.6988 62.1934 59.63 61.7691 59.4931 61.2968C59.3556 60.8246 59.22 60.4476 59.0862 60.166L57.8107 60.8694C58.1785 61.754 58.3627 62.2799 58.3627 62.4472C58.3627 62.6284 58.2302 62.7686 57.9659 62.8696C57.7016 62.97 57.2581 63.0205 56.6355 63.0205H55.5914C55.3568 63.0205 55.1763 62.9549 55.0489 62.8248C54.9379 62.7105 54.842 62.523 54.7613 62.2629C54.6957 62.016 54.6206 61.7761 54.5367 61.5431L53.181 62.0861C53.5961 63.4126 53.8037 64.2101 53.8037 64.4784C53.8037 64.599 53.6914 64.7632 53.4674 64.9709C53.2429 65.1786 52.9419 65.4015 52.5635 65.6395C52.185 65.8776 51.7718 66.0967 51.3232 66.2981L52.1168 67.8759V67.8753Z" fill="white"/>
<path d="M54.729 59.615L53.6641 58.5391L52.5898 59.615L53.6641 60.6801L54.729 59.615Z" fill="white"/>
<path d="M57.4051 66.5725L56.5365 65.7031L55.5928 66.6477L56.2249 67.281L56.5365 67.5922L56.8475 67.281L57.4051 66.7234L57.9622 67.281L58.2738 67.5922L58.5854 67.281L59.2175 66.6477L58.2738 65.7031L57.4051 66.5725Z" fill="white"/>
<path d="M67.4428 66.7009L66.3786 65.625L65.3037 66.7009L66.3786 67.766L67.4428 66.7009Z" fill="white"/>
<path d="M68.5517 60.875C68.2874 60.7777 67.9644 60.6325 67.5828 60.4381C67.0604 60.1634 66.6655 59.9809 66.3974 59.89C66.1293 59.7997 65.8518 59.7543 65.5641 59.7543C64.6936 59.7543 63.9877 60.2935 63.4452 61.3725L64.4797 62.1466C64.7743 61.7716 65.1188 61.584 65.5143 61.584C65.7218 61.584 65.9609 61.6207 66.2322 61.6945C66.5034 61.7684 66.7627 61.8688 67.0106 61.9963C67.1412 62.062 67.2655 62.1226 67.3841 62.1794C66.7715 62.4674 66.2101 62.6713 65.6997 62.7906C65.0405 62.9447 64.322 63.0217 63.5455 63.0217H62.9733C62.7727 63.0217 62.6181 62.9933 62.5115 62.9365C62.4043 62.8796 62.3292 62.7805 62.2857 62.6397C62.2422 62.4989 62.2207 62.295 62.2207 62.0266C62.2207 61.2292 62.1986 60.3781 62.1551 59.4739C62.1116 58.5691 62.046 57.802 61.9596 57.1719L60.4229 57.5236C60.6039 58.7901 60.7105 60.3516 60.7439 62.2072C60.7635 63.9846 61.4871 64.8849 62.9134 64.9096V64.9108H63.044C63.7404 64.9045 64.3258 64.8654 64.8014 64.7953C65.2765 64.7252 65.7603 64.5958 66.2524 64.4082C66.7444 64.2207 67.3519 63.936 68.0748 63.554C68.336 63.4132 68.4899 63.3298 68.5366 63.3027C69.045 63.028 69.3668 62.8702 69.5005 62.8304L69.4399 61.1219C69.1119 61.0549 68.8154 60.9728 68.5511 60.8756L68.5517 60.875Z" fill="white"/>
<path d="M72.4181 64.7352C72.6894 64.9328 73.0054 65.0319 73.3669 65.0319C73.9024 65.0319 74.3106 64.8091 74.5919 64.3633C74.597 64.3557 74.6014 64.3469 74.6065 64.3387C74.6216 64.3589 74.6367 64.3791 74.6525 64.398C75.0007 64.8204 75.3988 65.0313 75.8473 65.0313C76.1684 65.0313 76.4548 64.9322 76.7058 64.7346C76.9569 64.5369 77.1512 64.2623 77.2881 63.9106C77.425 63.5589 77.4938 63.1618 77.4938 62.7198C77.4938 61.6212 77.1172 60.6109 76.3639 59.6891C75.6107 58.7679 74.6916 57.9553 73.6072 57.252L72.7335 58.8197C72.8471 58.8778 72.9581 58.9371 73.0679 58.9971C73.0502 59.0205 73.0325 59.0426 73.0149 59.0659C72.6534 59.5452 72.3418 60.0661 72.0812 60.6286C71.8201 61.1912 71.6592 61.7411 71.5993 62.2772C71.586 62.3776 71.5791 62.5285 71.5791 62.7293C71.5791 63.1712 71.651 63.5671 71.7948 63.9157C71.9387 64.2642 72.1462 64.5369 72.4175 64.7346L72.4181 64.7352ZM72.8849 62.1175C73.0426 61.2846 73.4893 60.4853 74.2261 59.7188C74.5919 59.9783 74.9294 60.2517 75.2348 60.5396C75.9179 61.183 76.2592 61.8131 76.2592 62.4294C76.2592 62.9117 76.0618 63.1529 75.6669 63.1529C75.4726 63.1529 75.3269 63.0506 75.2303 62.8461C75.1332 62.6415 75.0815 62.3921 75.0745 62.0972L74.0602 62.2583C74.0532 62.5064 73.9996 62.7173 73.8993 62.8915C73.799 63.0658 73.6514 63.1529 73.4577 63.1529C73.264 63.1529 73.1126 63.0961 73.006 62.9818C72.8988 62.8682 72.8452 62.6971 72.8452 62.4691C72.8452 62.3485 72.8584 62.2311 72.8855 62.1175H72.8849Z" fill="white"/>
<path d="M79.3172 64.4635C79.6017 64.6346 79.9083 64.7199 80.2364 64.7199C80.5644 64.7199 80.8823 64.6346 81.17 64.4635C81.4576 64.2924 81.6873 64.0651 81.8582 63.7797C82.0292 63.495 82.1143 63.185 82.1143 62.8497C82.1143 62.5144 82.0292 62.1962 81.8582 61.9152C81.6873 61.6336 81.4583 61.4095 81.17 61.2415C80.8823 61.0742 80.5707 60.9902 80.2364 60.9902C79.902 60.9902 79.6017 61.0742 79.3172 61.2415C79.0327 61.4089 78.805 61.6355 78.6341 61.9203C78.4631 62.205 78.3779 62.515 78.3779 62.8497C78.3779 63.1843 78.4631 63.495 78.6341 63.7797C78.805 64.0645 79.0321 64.2924 79.3172 64.4635ZM79.8591 62.4582C79.9695 62.3446 80.0951 62.2871 80.2357 62.2871C80.3764 62.2871 80.512 62.3427 80.6224 62.4532C80.7328 62.5637 80.7883 62.6963 80.7883 62.8503C80.7883 63.0044 80.7328 63.1382 80.6224 63.2525C80.512 63.3668 80.3827 63.4236 80.2357 63.4236C80.0887 63.4236 79.9695 63.3649 79.8591 63.2475C79.7487 63.13 79.6932 62.9981 79.6932 62.8503C79.6932 62.7026 79.7487 62.5725 79.8591 62.4582Z" fill="white"/>
<path d="M21.3075 72.3691L20.1322 73.0125C20.1991 73.1533 20.3082 73.4412 20.4584 73.8769C20.6091 74.3125 20.6842 74.5903 20.6842 74.7109C20.6842 75.0929 20.2489 75.2836 19.3784 75.2836H18.8359C18.4075 75.2773 17.9754 75.2482 17.5402 75.1983C17.1049 75.1478 16.5895 75.0664 15.9934 74.9521L15.6319 76.5401C16.04 76.6809 16.4337 76.8469 16.8122 77.0376C17.19 77.2283 17.4531 77.3811 17.6007 77.4947C17.4335 77.6822 17.1352 77.8483 16.7068 77.9923C16.2785 78.1362 15.8066 78.2082 15.2906 78.2082C13.9785 78.2082 13.3224 77.6987 13.3224 76.6802C13.3224 76.3652 13.366 76.069 13.453 75.7906C13.5401 75.5128 13.6738 75.1624 13.8548 74.74L12.7906 74.2475C12.3755 75.1655 12.1447 75.9428 12.098 76.5792C12.091 76.6594 12.0879 76.7737 12.0879 76.9208C12.0879 77.5572 12.2267 78.1002 12.5049 78.5491C12.7824 78.9981 13.1641 79.3365 13.6498 79.5644C14.1349 79.7924 14.6825 79.906 15.2919 79.906C15.9013 79.906 16.51 79.7867 17.0393 79.5493C17.5679 79.3112 17.983 79.0132 18.2845 78.6546C18.5861 78.296 18.7362 77.9462 18.7362 77.604C18.7362 77.3937 18.6397 77.1778 18.4479 76.9561C18.5791 76.9637 18.7091 76.9688 18.8365 76.9707H19.379C20.1959 76.9707 20.8217 76.7844 21.257 76.4131C21.6923 76.0413 21.9099 75.497 21.9099 74.7797C21.9099 74.4116 21.8411 73.9842 21.7043 73.498C21.5667 73.0125 21.4349 72.6355 21.3075 72.3672V72.3691Z" fill="white"/>
<path d="M21.3588 71.0403L20.3646 70.0352L20.0234 70.3767L19.3604 71.0403L20.3646 72.0354L21.3588 71.0403Z" fill="white"/>
<path d="M29.6032 72.8359C29.3218 72.5979 28.9938 72.4791 28.6191 72.4791C28.2444 72.4791 27.8911 72.6301 27.5795 72.9312C27.2678 73.233 26.9417 73.6984 26.6004 74.3285C26.2522 74.9649 25.8302 75.2832 25.335 75.2832H25.164C24.9432 75.2832 24.7754 75.2528 24.6619 75.1929C24.5477 75.1322 24.4676 75.0306 24.4209 74.886C24.3742 74.7421 24.3509 74.5362 24.3509 74.2679C24.3509 73.4774 24.3288 72.6111 24.2859 71.6697C24.2424 70.7283 24.1805 69.9662 24.0998 69.3828L22.7139 69.6947C22.881 70.8407 22.9782 72.3882 23.0053 74.3386C23.0116 75.2162 23.1864 75.8748 23.5276 76.3136C23.8613 76.7423 24.3906 76.9614 25.1142 76.9709L25.1646 76.9715H25.3053C25.7671 76.9715 26.179 76.8541 26.5405 76.6198C26.7007 76.5156 26.8439 76.3868 26.9713 76.2346C27.8103 76.7587 28.491 77.0214 29.0108 77.0214C29.2518 77.0214 29.4492 76.9709 29.6032 76.8705C29.8908 76.6893 30.1072 76.4298 30.251 76.0913C30.3948 75.7529 30.4668 75.3791 30.4668 74.9706C30.4668 74.5621 30.393 74.1549 30.246 73.7697C30.099 73.3846 29.8845 73.0727 29.6032 72.8353V72.8359ZM29.3067 75.2888C29.2764 75.3659 29.2348 75.4246 29.1811 75.465C29.154 75.4852 29.1174 75.4953 29.0707 75.4953C28.9168 75.4953 28.6689 75.4113 28.3276 75.244C28.1264 75.1455 27.9125 75.0255 27.6861 74.8847C28.0027 74.2868 28.3005 73.9875 28.5787 73.9875C28.8064 73.9875 28.9919 74.0968 29.1357 74.314C29.2795 74.5318 29.3515 74.7679 29.3515 75.0224C29.3515 75.1228 29.3363 75.2118 29.306 75.2888H29.3067Z" fill="white"/>
<path d="M38.7811 72.3691L37.616 73.0125C37.6898 73.1666 37.8002 73.4463 37.9472 73.8516C38.0942 74.257 38.168 74.5235 38.168 74.651C38.168 74.8587 38.0323 75.0166 37.7611 75.1233C37.4898 75.2306 37.0331 75.2843 36.3903 75.2843H35.5784C35.5305 74.9427 35.4535 74.6125 35.3463 74.2943C35.152 73.7216 34.8858 73.2607 34.5476 72.9121C34.2095 72.5636 33.8361 72.3893 33.4279 72.3893C33.0595 72.3893 32.7233 72.52 32.4186 72.7814C32.1139 73.0428 31.8748 73.3762 31.7007 73.7816C31.5266 74.1869 31.4395 74.5973 31.4395 75.0128C31.4395 75.3411 31.5001 75.6429 31.6206 75.9176C31.8149 76.3532 32.1663 76.6399 32.6747 76.7769C33.1068 76.8937 33.6645 76.9606 34.3477 76.9783C34.2991 77.0679 34.2411 77.1538 34.171 77.2346C33.9433 77.496 33.59 77.724 33.1119 77.9184C32.6331 78.1129 32.0022 78.2935 31.2188 78.4614L31.7411 79.9187C32.5448 79.7709 33.2374 79.5234 33.8197 79.1749C34.4019 78.8264 34.8504 78.3926 35.1652 77.873C35.3349 77.5926 35.4586 77.294 35.5368 76.977L36.0187 76.9733H36.6615C37.5586 76.9733 38.238 76.7807 38.7004 76.3955C39.1622 76.0104 39.393 75.4592 39.393 74.7419C39.393 74.3801 39.3243 73.9647 39.1874 73.4955C39.0499 73.0264 38.9142 72.6514 38.7805 72.3698L38.7811 72.3691ZM32.635 74.9522C32.5946 74.8916 32.5744 74.8151 32.5744 74.7211C32.5744 74.6074 32.6059 74.483 32.6697 74.3492C32.7334 74.2153 32.8204 74.1029 32.9308 74.0127C33.0412 73.9224 33.1598 73.8769 33.2872 73.8769C33.508 73.8769 33.7124 73.9925 33.8998 74.2235C34.0871 74.4546 34.236 74.7577 34.3464 75.1334C34.3603 75.1807 34.3735 75.2287 34.3855 75.2767C33.9843 75.2672 33.6525 75.2477 33.392 75.2186C33.0002 75.175 32.7479 75.0867 32.6337 74.9522H32.635Z" fill="white"/>
<path d="M37.6922 71.1471L36.8229 70.2676L35.9297 71.1623L36.522 71.7551L36.8229 72.0569L37.6922 71.1774L38.2694 71.7551L38.5703 72.0569L39.4541 71.1623L38.5703 70.2676L37.6922 71.1471Z" fill="white"/>
<path d="M46.574 75.8166C46.6813 75.5754 46.7349 75.3109 46.7349 75.0223C46.7349 74.4061 46.5021 73.7608 46.0372 73.0878C45.5716 72.4141 44.9478 71.806 44.1643 71.2637L43.3606 72.7512C43.9365 73.1332 44.38 73.4868 44.691 73.8113C45.0026 74.1365 45.2095 74.4042 45.3136 74.6157C45.4171 74.8266 45.4625 74.9826 45.4493 75.083C45.3755 75.1631 45.2215 75.2389 44.9875 75.309C44.7528 75.3791 44.4589 75.4182 44.1037 75.4245C43.7485 75.4245 43.4426 75.3829 43.1846 75.2989C42.9266 75.2149 42.6843 75.1196 42.4566 75.0122L41.8643 76.198C42.0649 76.3723 42.3645 76.5535 42.7632 76.741C43.1612 76.9285 43.6621 77.0226 44.2646 77.0226C44.773 77.0226 45.2436 76.919 45.6757 76.7113C46.1078 76.5036 46.4069 76.2056 46.5747 75.8166H46.574Z" fill="white"/>
<path d="M49.1952 73.7168L47.9499 74.2093L48.0199 74.4606C48.3745 75.6804 48.5524 76.4002 48.5524 76.6218C48.5524 76.7626 48.4432 76.9451 48.2262 77.1699C48.0086 77.394 47.7121 77.6257 47.3374 77.8631C46.962 78.1012 46.5539 78.314 46.1123 78.5015L46.8151 79.9189C47.7052 79.53 48.4117 79.0527 48.934 78.4863C49.4563 77.92 49.7175 77.2987 49.7175 76.6218C49.7175 76.1931 49.6708 75.717 49.5768 75.1942C49.4828 74.6715 49.356 74.179 49.1952 73.7168Z" fill="white"/>
<path d="M53.7196 78.6764L52.8509 77.7969L51.957 78.6916C52.1513 78.8923 52.3488 79.09 52.5494 79.2844L52.8509 79.5862L53.7196 78.7067C53.9088 78.9024 54.1012 79.095 54.2968 79.2844L54.5983 79.5862L55.4821 78.6916L54.5983 77.7969L53.7196 78.6764Z" fill="white"/>
<path d="M60.7 78.6764L59.8314 77.7969L58.9375 78.6916C59.1318 78.8923 59.3292 79.09 59.5299 79.2844L59.8314 79.5862L60.7 78.7067C60.8893 78.9024 61.0817 79.095 61.2772 79.2844L61.5788 79.5862L62.4626 78.6916L61.5788 77.7969L60.7 78.6764Z" fill="white"/>
<path d="M68.2964 72.8358C68.015 72.5978 67.687 72.4791 67.3123 72.4791C66.9375 72.4791 66.5843 72.63 66.2727 72.9312C65.961 73.233 65.6349 73.6983 65.2936 74.3284C64.9454 74.9649 64.5234 75.2831 64.0282 75.2831H63.8572C63.6295 75.2831 63.4604 75.2446 63.35 75.1675C63.2396 75.0905 63.1778 75.0116 63.1639 74.9314C63.1639 74.3215 63.1172 73.7652 63.0233 73.2626L61.8783 73.4836C61.9653 73.9395 61.9988 74.3044 61.9786 74.5791C61.9653 74.7534 61.8997 74.8904 61.783 74.9914C61.6657 75.0918 61.4632 75.1657 61.1755 75.2124C60.8879 75.2591 60.4791 75.2825 59.9505 75.2825H59.8805C59.6931 75.2825 59.5474 75.2256 59.4439 75.1114C59.3398 74.9977 59.2818 74.8064 59.2679 74.5387C59.261 74.4718 59.2376 73.9357 59.1979 72.9305C59.1373 71.1885 59.0806 70.0091 59.0269 69.3922L57.6208 69.7136C57.6744 70.2497 57.7331 71.0692 57.7968 72.171C57.8605 73.2734 57.9022 74.0588 57.9224 74.528C57.9287 74.8096 57.8618 75.0053 57.7218 75.1158C57.5817 75.2263 57.347 75.2818 57.019 75.2818H56.8783C56.6506 75.2818 56.4815 75.2433 56.3711 75.1663C56.2608 75.0893 56.1989 75.0103 56.1851 74.9301C56.1851 74.3202 56.1384 73.764 56.0444 73.2614L54.8994 73.4824C54.9865 73.9382 55.0199 74.3032 54.9997 74.5778C54.9865 74.7521 54.9209 74.8891 54.8042 74.9901C54.6868 75.0905 54.4843 75.1644 54.1967 75.2111C53.909 75.2578 53.5002 75.2812 52.9716 75.2812H52.9615C52.7407 75.2812 52.5729 75.2509 52.4594 75.1909C52.3452 75.1303 52.2651 75.0286 52.2184 74.8841C52.1717 74.7401 52.1484 74.5343 52.1484 74.2659C52.1484 73.4754 52.1263 72.6092 52.0828 71.6678C52.0392 70.7264 51.9774 69.9643 51.8967 69.3809L50.5107 69.6928C50.6779 70.8387 50.7751 72.3863 50.8022 74.3366C50.8085 75.2143 50.9832 75.8728 51.3245 76.3116C51.6595 76.7429 52.1925 76.9613 52.9211 76.9695L52.9615 76.9702H53.0019C53.7633 76.9683 54.343 76.9064 54.7392 76.7839C55.071 76.6816 55.336 76.5244 55.5353 76.3141C55.6785 76.4796 55.8425 76.6198 56.0299 76.7334C56.2734 76.8824 56.5396 76.9601 56.8285 76.9683V76.9702H57.0493C57.4309 76.9702 57.764 76.8679 58.0485 76.6633C58.2214 76.5396 58.3684 76.388 58.4901 76.2093C58.6201 76.3773 58.767 76.5225 58.9323 76.6431C59.2301 76.8609 59.5467 76.9695 59.8811 76.9695H59.9814C60.7428 76.9676 61.3225 76.9058 61.7187 76.7833C62.0505 76.681 62.3155 76.5238 62.5148 76.3135C62.658 76.4789 62.822 76.6191 63.0094 76.7328C63.2529 76.8818 63.5191 76.9594 63.808 76.9676V76.9695H63.8585H63.9991C64.4609 76.9695 64.8728 76.8521 65.2343 76.6179C65.3945 76.5137 65.5377 76.3849 65.6652 76.2327C66.5042 76.7568 67.1848 77.0194 67.7046 77.0194C67.9456 77.0194 68.1431 76.9689 68.297 76.8685C68.5846 76.6873 68.8004 76.4278 68.9448 76.0894C69.0887 75.751 69.1606 75.3772 69.1606 74.9687C69.1606 74.5602 69.0868 74.1529 68.9398 73.7678C68.7928 73.3826 68.5783 73.0707 68.297 72.8333L68.2964 72.8358ZM68.0005 75.2888C67.9702 75.3658 67.9286 75.4245 67.875 75.4649C67.8485 75.4851 67.8112 75.4952 67.7646 75.4952C67.6106 75.4952 67.3627 75.4113 67.0215 75.2439C66.8202 75.1454 66.6064 75.0255 66.3799 74.8847C66.6966 74.2868 66.9943 73.9875 67.2725 73.9875C67.5002 73.9875 67.6857 74.0967 67.8302 74.3139C67.974 74.5317 68.0459 74.7679 68.0459 75.0223C68.0459 75.1227 68.0308 75.2117 68.0005 75.2888Z" fill="white"/>
<path d="M73.7993 69.4434L72.9861 70.8709C73.0984 70.9334 73.2088 70.9966 73.3167 71.0603C73.2668 71.1247 73.2164 71.1904 73.1665 71.258C72.8114 71.7372 72.5086 72.253 72.2575 72.8061C72.0064 73.3592 71.8538 73.8934 71.8008 74.4092C71.7806 74.5564 71.7705 74.7041 71.7705 74.8512C71.7705 75.2799 71.8424 75.6638 71.9863 76.0022C72.1301 76.3407 72.3345 76.604 72.5988 76.7915C72.8631 76.979 73.1728 77.0731 73.528 77.0731C74.0503 77.0731 74.4503 76.8622 74.7278 76.4398C74.7341 76.4297 74.7405 76.419 74.7474 76.4082C74.7638 76.4309 74.7808 76.4537 74.7985 76.4751C75.1297 76.8805 75.5164 77.0832 75.9586 77.0832C76.2734 77.0832 76.5541 76.9891 76.802 76.8016C77.0493 76.6141 77.2404 76.3495 77.3742 76.0073C77.5079 75.6657 77.5748 75.2736 77.5748 74.831C77.5748 72.9684 76.3163 71.1721 73.7986 69.4434H73.7993ZM75.8078 75.3835C75.4464 75.3835 75.242 75.0116 75.1953 74.2678L74.2314 74.4288C74.2314 74.61 74.1897 74.8127 74.1058 75.0368C74.0219 75.2616 73.863 75.3772 73.6289 75.3835C73.4214 75.3967 73.2574 75.3368 73.1369 75.2023C73.0164 75.0684 72.9558 74.8708 72.9558 74.6094C72.9558 74.5021 72.9659 74.3884 72.9861 74.2678C73.1356 73.4148 73.5968 72.5757 74.3683 71.7504C74.7619 72.0396 75.1183 72.3408 75.4369 72.6546C76.093 73.3011 76.421 73.9464 76.421 74.5892C76.421 75.1183 76.2166 75.3835 75.8084 75.3835H75.8078Z" fill="white"/>
<path d="M81.8686 74.0114C81.7046 73.7336 81.4819 73.512 81.2005 73.3478C80.9192 73.1836 80.6145 73.1016 80.2865 73.1016C79.9584 73.1016 79.6657 73.1836 79.3875 73.3478C79.1093 73.512 78.8886 73.7329 78.7245 74.0114C78.5605 74.2898 78.4785 74.5929 78.4785 74.9212C78.4785 75.2496 78.5605 75.5432 78.7245 75.821C78.8886 76.0994 79.1093 76.3204 79.3875 76.4846C79.6651 76.6487 79.9647 76.7308 80.2865 76.7308C80.6082 76.7308 80.9192 76.6487 81.2005 76.4846C81.4819 76.3204 81.7039 76.0994 81.8686 75.821C82.0326 75.5432 82.1146 75.2432 82.1146 74.9212C82.1146 74.5992 82.0326 74.2898 81.8686 74.0114ZM80.7135 75.3531C80.5962 75.4737 80.4543 75.5343 80.2865 75.5343C80.1325 75.5343 79.995 75.4737 79.8745 75.3531C79.7541 75.2325 79.6935 75.0886 79.6935 74.9206C79.6935 74.7527 79.7541 74.6093 79.8745 74.4887C79.995 74.3681 80.1319 74.3075 80.2865 74.3075C80.4536 74.3075 80.5962 74.3681 80.7135 74.4887C80.8309 74.6093 80.8895 74.7533 80.8895 74.9206C80.8895 75.0879 80.8309 75.2325 80.7135 75.3531Z" fill="white"/>
<path d="M3.97908 1.83594L3.30033 2.84635C3.40539 2.91206 3.50552 2.97532 3.60236 3.03857C3.48336 3.17904 3.37502 3.31869 3.27735 3.45834C3.05986 3.77132 2.90638 4.11223 2.81774 4.48189C2.76439 4.6848 2.7373 4.88113 2.7373 5.07171C2.7373 5.54241 2.89078 5.92522 3.19692 6.22012C3.50388 6.51503 3.93394 6.6629 4.48712 6.6629C4.8384 6.6629 5.15521 6.58568 5.43836 6.43042C5.7207 6.27516 5.94476 6.05911 6.10809 5.78228C6.27141 5.50544 6.35349 5.18507 6.35349 4.82116C6.35349 4.27899 6.15405 3.76475 5.75517 3.27926C5.35629 2.79377 4.76371 2.31239 3.97826 1.83594H3.97908ZM5.14454 5.23272C4.98695 5.32226 4.78833 5.36662 4.55032 5.36662C4.25239 5.36662 4.02915 5.30993 3.8806 5.19657C3.73204 5.08321 3.6631 4.92549 3.67541 4.72258C3.68034 4.40878 3.91753 4.03008 4.38453 3.58649C4.55196 3.71628 4.69887 3.84032 4.82281 3.95862C5.16505 4.28392 5.36614 4.59197 5.42523 4.88359C5.39568 5.02653 5.3013 5.14318 5.14372 5.23189L5.14454 5.23272Z" fill="white"/>
<path d="M13.0165 3.09767C12.7719 2.8923 12.4896 2.78962 12.1678 2.78962C11.8289 2.78962 11.5219 2.92845 11.2478 3.20528C10.9737 3.48212 10.688 3.89778 10.3901 4.45228C10.0922 5.01252 9.71136 5.29264 9.24682 5.29264H9.10401C8.87174 5.29264 8.70021 5.25978 8.59023 5.19406C8.48025 5.12835 8.40721 5.01827 8.37109 4.86301C8.33498 4.70775 8.32021 4.47856 8.32677 4.17462V3.83535C8.32677 3.20364 8.30872 2.51689 8.27342 1.7751C8.23731 1.03332 8.18971 0.444323 8.13062 0.00976562L7.02344 0.251278C7.09484 0.740052 7.14983 1.36108 7.18841 2.11519C7.22698 2.8693 7.24914 3.61273 7.25571 4.34548C7.25571 5.11438 7.40016 5.68612 7.68906 6.06153C7.97139 6.42791 8.42854 6.61438 9.05969 6.62342V6.62506H9.10401H9.22877C9.62765 6.62506 9.98221 6.52402 10.2916 6.32112C10.4418 6.22254 10.5764 6.10014 10.6963 5.95392C11.4497 6.4312 12.0562 6.66942 12.5158 6.66942C12.7062 6.66942 12.8671 6.62753 12.9984 6.54456C13.2488 6.39587 13.4392 6.17325 13.5697 5.87835C13.7002 5.58344 13.7658 5.26307 13.7658 4.91723C13.7658 4.57139 13.7018 4.21898 13.5738 3.89368C13.4457 3.5692 13.2594 3.30386 13.0157 3.09849L13.0165 3.09767ZM12.8064 5.24253C12.7735 5.32303 12.7276 5.38382 12.6677 5.42572C12.6439 5.44379 12.6053 5.45283 12.5519 5.45283C12.4034 5.45283 12.1785 5.37971 11.8773 5.23349C11.6877 5.14149 11.4842 5.02813 11.2675 4.89505C11.5835 4.29045 11.8748 3.9865 12.1408 3.9865C12.355 3.9865 12.5273 4.08919 12.6586 4.29455C12.79 4.49992 12.8548 4.72254 12.8548 4.96076C12.8548 5.06838 12.8384 5.16202 12.8056 5.24253H12.8064Z" fill="white"/>
<path d="M18.0265 3.81836L17.026 4.21184L17.0704 4.39092C17.3855 5.47526 17.5439 6.13983 17.5439 6.38463C17.5439 6.53332 17.4504 6.7124 17.2624 6.92105C17.0745 7.12971 16.8176 7.34 16.4901 7.55112C16.1626 7.76224 15.8023 7.94871 15.4092 8.10972L15.9542 9.23595C16.7281 8.91394 17.3445 8.50402 17.8025 8.00703C18.2613 7.50922 18.4902 6.9687 18.4902 6.38463C18.4902 6.02154 18.4484 5.60588 18.3655 5.13764C18.2818 4.67022 18.1693 4.23074 18.0265 3.81918V3.81836Z" fill="white"/>
<path d="M23.2872 6.62477H24.1359C24.9279 6.62477 25.5262 6.46212 25.9308 6.13764C26.3355 5.81316 26.5415 5.34656 26.5472 4.73868C26.5472 4.42898 26.4873 4.06671 26.3683 3.65269C26.2493 3.23867 26.1303 2.90598 26.0113 2.65625L25.065 3.1746C25.124 3.29946 25.2201 3.54837 25.3506 3.92131C25.4819 4.29426 25.55 4.54563 25.5558 4.67707C25.5558 4.88572 25.4335 5.04098 25.1897 5.14202C24.9451 5.24306 24.529 5.29399 23.9397 5.29399H22.9122C22.8719 4.98922 22.8038 4.69103 22.707 4.40023C22.5404 3.89996 22.3106 3.49415 22.0192 3.18446C21.727 2.87476 21.4028 2.7195 21.0458 2.7195C20.7364 2.7195 20.4499 2.83122 20.1881 3.05466C19.9263 3.2781 19.7203 3.56397 19.5717 3.9131C19.4232 4.2614 19.3485 4.61217 19.3485 4.96376C19.3485 5.24388 19.4018 5.50018 19.5094 5.73266C19.6817 6.09657 19.9854 6.33726 20.4204 6.45637C20.8119 6.56398 21.3207 6.62231 21.9445 6.63299C21.8345 6.88353 21.6425 7.10205 21.3675 7.2877C20.9087 7.59739 20.1709 7.86273 19.1523 8.08288L19.5635 9.23622C20.6231 9.03332 21.4537 8.64641 22.0553 8.07384C22.4895 7.66065 22.7661 7.17844 22.8867 6.62888L23.2872 6.62559V6.62477ZM20.3309 4.98019C20.2891 4.92104 20.2686 4.84054 20.2686 4.73868C20.2686 4.61956 20.2981 4.4947 20.358 4.36326C20.4171 4.23265 20.4992 4.1234 20.6034 4.03714C20.7076 3.95089 20.8193 3.90735 20.9383 3.90735C21.1467 3.90735 21.3355 4.01496 21.5054 4.22937C21.6753 4.44377 21.8091 4.71978 21.9076 5.05659C21.9297 5.1338 21.9494 5.21184 21.9667 5.28988C21.5686 5.28249 21.2419 5.26442 20.9875 5.23567C20.6453 5.19706 20.4261 5.11245 20.3309 4.98101V4.98019Z" fill="white"/>
<path d="M24.7695 8.13364L25.1356 8.50001L25.5107 8.87542L25.761 8.6257L26.2518 8.13364L25.5107 7.38281L24.7695 8.13364Z" fill="white"/>
<path d="M23.207 8.13364L23.5731 8.50001L23.9482 8.87542L24.1977 8.6257L24.6893 8.13364L23.9482 7.38281L23.207 8.13364Z" fill="white"/>
<path d="M37.7735 2.4935L38.4883 1.778C38.2561 1.53402 38.018 1.29498 37.7735 1.0625L37.0586 1.778C37.3024 2.01048 37.5412 2.2487 37.7735 2.4935Z" fill="white"/>
<path d="M39.4512 2.4935L40.1661 1.778C39.9338 1.53402 39.6958 1.29498 39.4512 1.0625L38.7363 1.778C38.9801 2.01048 39.2189 2.2487 39.4512 2.4935Z" fill="white"/>
<path d="M38.6127 1.33981L39.2471 0.713851L38.6127 0.0878906L37.9873 0.713851C38.1244 0.856787 38.2639 0.997258 38.4067 1.13362L38.6119 1.33899L38.6127 1.33981Z" fill="white"/>
<path d="M40.5419 2.67436L39.6309 3.17464C39.7146 3.35947 39.8172 3.62727 39.9387 3.97886C40.061 4.33045 40.1217 4.58674 40.1217 4.74775C40.1217 4.90876 40.0708 5.0402 39.9699 5.14124C39.8689 5.24228 39.7318 5.29321 39.5587 5.29321C39.1951 5.29321 39.0137 5.07552 39.0137 4.64096C39.0137 4.4742 39.0465 4.19408 39.1122 3.8006L38.1921 3.75624C38.1027 4.22694 38.0017 4.57607 37.8885 4.80197C37.7218 5.12974 37.4863 5.29321 37.1826 5.29321H37.1555C36.9052 5.29321 36.7805 5.13795 36.7805 4.82826C36.7805 4.6615 36.81 4.47502 36.8699 4.26966C36.929 4.06429 36.9618 3.94682 36.9684 3.91642L36.0393 3.81785C35.986 4.02075 35.9261 4.21133 35.8604 4.38959C35.7947 4.56867 35.6995 4.72886 35.5748 4.87262C35.4853 4.99173 35.3516 5.09195 35.1726 5.17245C34.9945 5.25296 34.8131 5.29239 34.6293 5.29321C34.2739 5.29321 33.9678 5.28582 33.7125 5.27185C33.8225 5.02623 33.8775 4.74693 33.8775 4.43477C33.8775 3.98214 33.7478 3.54101 33.4893 3.11221C33.2299 2.6834 32.8926 2.35563 32.4757 2.12891L31.7608 2.33427C31.2232 3.19928 30.8892 4.18587 30.757 5.29321H30.1349C29.9207 5.29321 29.7541 5.22913 29.6351 5.10098C29.5366 4.99502 29.4504 4.82333 29.3757 4.58757C29.3117 4.32141 29.2379 4.06429 29.1525 3.81785L28.152 4.21133L28.1963 4.39041C28.5115 5.47475 28.6699 6.13932 28.6699 6.38412C28.6699 6.53281 28.5763 6.71189 28.3884 6.92054C28.2004 7.12919 27.9435 7.33949 27.6161 7.55061C27.2886 7.76173 26.9283 7.9482 26.5352 8.10921L27.0801 9.23544C27.8541 8.91343 28.4705 8.50351 28.9284 8.00652C29.3503 7.54896 29.5776 7.05444 29.6113 6.52377C29.7681 6.59031 29.942 6.62563 30.1341 6.62563H30.1431V6.63467H30.5543C30.6192 6.63467 30.684 6.6322 30.7472 6.63056C30.7956 6.96654 30.8851 7.26638 31.0189 7.52843C31.2273 7.93998 31.4949 8.24804 31.8224 8.4534C32.1498 8.65877 32.4888 8.76146 32.8409 8.76146C33.216 8.76146 33.5311 8.65384 33.7872 8.43944C34.0728 8.20696 34.2156 7.8907 34.2156 7.49146C34.2156 7.20559 34.141 6.91315 33.9924 6.61578C33.9899 6.61167 33.9875 6.60756 33.9858 6.60263C34.1721 6.61578 34.3708 6.62235 34.5817 6.62399H34.6088C34.6121 6.62399 34.6153 6.62399 34.6178 6.62399C34.6293 6.62399 34.6408 6.62399 34.6531 6.62399V6.62235C34.9166 6.61578 35.1652 6.55252 35.3992 6.43177C35.6462 6.30362 35.8653 6.11714 36.0557 5.87317C36.1329 6.09989 36.2667 6.28144 36.4579 6.41862C36.6483 6.55581 36.8716 6.62399 37.1276 6.62399H37.172C37.6316 6.6166 38.0272 6.36112 38.3587 5.85592C38.4507 6.06539 38.5787 6.23544 38.7437 6.36523C38.9579 6.53281 39.2197 6.61906 39.5299 6.62317L39.557 6.62399H39.5751C39.8591 6.61988 40.1159 6.53856 40.3433 6.37837C40.5756 6.21408 40.7569 5.99392 40.8883 5.71709C41.0188 5.44025 41.0844 5.13467 41.0844 4.80115C41.0844 4.46763 41.022 4.1029 40.8965 3.66998C40.7717 3.23789 40.6519 2.90602 40.5394 2.67354L40.5419 2.67436ZM31.8609 4.45777C31.9857 4.00761 32.1318 3.66341 32.2984 3.42519C32.4946 3.52623 32.6628 3.67738 32.8031 3.87699C32.9427 4.07661 33.0133 4.25405 33.0133 4.40849C33.0133 4.67053 32.8286 4.88412 32.4593 5.04759C32.2549 5.13795 31.9996 5.20285 31.6976 5.2431C31.7337 4.98187 31.7879 4.71982 31.8609 4.45695V4.45777ZM33.2275 7.46518C33.1265 7.50707 33.019 7.52761 32.9057 7.52761C32.6915 7.52761 32.4863 7.45614 32.2894 7.3132C32.0924 7.17027 31.9348 6.96736 31.8158 6.70532C31.7895 6.64699 31.7666 6.58702 31.746 6.52459C31.9988 6.47695 32.2311 6.41369 32.4428 6.33483C32.694 6.46216 32.886 6.61085 33.0165 6.78089C33.1741 6.98626 33.2529 7.17273 33.2529 7.33949C33.2529 7.39864 33.2439 7.44053 33.2258 7.46435L33.2275 7.46518Z" fill="white"/>
<path d="M44.8547 0.164062L43.8633 0.762914C44.1784 1.48992 44.4025 2.33932 44.533 3.31029C44.634 4.08494 44.6848 4.95241 44.6848 5.91189C44.6848 6.22815 44.6816 6.46638 44.6758 6.62739H45.7026C45.7141 6.13861 45.7206 5.77224 45.7206 5.52826C45.7206 4.65258 45.6853 3.85657 45.6131 3.14189C45.476 1.90804 45.2232 0.916529 44.8539 0.164884L44.8547 0.164062Z" fill="white"/>
<path d="M51.5177 0.430076C51.5891 0.734019 51.6252 0.993604 51.6252 1.20801C51.6252 1.42241 51.594 1.58671 51.5316 1.69925C51.4692 1.81261 51.3847 1.86929 51.2772 1.86929C51.1106 1.86929 50.9825 1.76496 50.8931 1.55631C50.8036 1.34766 50.7355 1.00839 50.6879 0.536867L49.7949 0.688839C49.8007 0.748806 49.8039 0.831774 49.8039 0.939387C49.8039 1.26715 49.744 1.51442 49.625 1.68117C49.506 1.84793 49.3542 1.93172 49.1695 1.93172C48.943 1.93172 48.7657 1.84711 48.6385 1.67707C48.5105 1.50702 48.366 1.21376 48.2051 0.796451L48.2019 0.798094C48.1214 0.569725 48.0336 0.356965 47.9368 0.161455L46.9453 0.760307C47.2605 1.48731 47.4837 2.33671 47.615 3.30769C47.7226 4.05851 47.7759 4.92598 47.7759 5.90928L47.7669 6.41859C47.7669 6.50813 47.7636 6.57631 47.7578 6.62396H48.7846C48.7961 6.37998 48.8026 6.01279 48.8026 5.52483C48.8026 4.57768 48.7674 3.78742 48.6968 3.15161C48.8683 3.21897 49.0554 3.25429 49.2582 3.25429C49.538 3.25429 49.7818 3.15161 49.9903 2.94624C50.1109 2.82713 50.2143 2.68419 50.303 2.51743C50.5516 2.94295 50.8791 3.15653 51.2854 3.15653C51.6917 3.15653 52.0011 2.9791 52.2366 2.62504C52.4722 2.27017 52.5895 1.8159 52.5895 1.26222C52.5895 0.899135 52.5362 0.520437 52.4287 0.126953L51.5177 0.430897V0.430076Z" fill="white"/>
<path d="M57.3677 2.45069L57.6443 2.17385L56.8228 1.35156L55.9922 2.17385L56.8228 2.99615C57.0074 2.81706 57.1888 2.63552 57.3677 2.45069Z" fill="white"/>
<path d="M57.4738 3.81836L56.4733 4.21184L56.5176 4.39092C56.8328 5.47526 56.9912 6.13983 56.9912 6.38463C56.9912 6.53332 56.8976 6.7124 56.7097 6.92105C56.5217 7.12971 56.2648 7.34 55.9374 7.55112C55.6099 7.76224 55.2496 7.94871 54.8564 8.10972L55.4014 9.23595C56.1754 8.91394 56.7918 8.50402 57.2505 8.00703C57.7085 7.50922 57.9383 6.9687 57.9383 6.38463C57.9383 6.02154 57.8965 5.60588 57.8136 5.13764C57.7299 4.67022 57.6174 4.23074 57.4738 3.81918V3.81836Z" fill="white"/>
<path d="M59.832 0L58.7158 0.259585C58.7815 0.623496 58.8389 1.25603 58.8898 2.15882C58.9407 3.06162 58.9653 3.92416 58.9653 4.74645C58.9653 5.56875 58.9358 6.17663 58.8759 6.57012L59.9297 6.68677C60.0011 6.16842 60.0372 5.39377 60.0372 4.36283C60.0372 3.52821 60.0167 2.67964 59.9748 1.81545C59.933 0.951262 59.8854 0.34666 59.832 0.00082147V0Z" fill="white"/>
<path d="M67.7987 2.78835L68.0491 2.53781C68.2157 2.3768 68.3798 2.21333 68.5399 2.04575L67.7987 1.29492L67.0576 2.04575L67.4327 2.41212L67.7987 2.78753V2.78835Z" fill="white"/>
<path d="M69.3614 2.78835L69.6117 2.53781C69.7783 2.3768 69.9425 2.21333 70.1034 2.04575L69.3622 1.29492L68.6211 2.04575L68.9962 2.41212L69.3622 2.78753L69.3614 2.78835Z" fill="white"/>
<path d="M73.3365 1.25147L73.6131 0.974635L72.7915 0.152344L71.9609 0.974635L72.7915 1.79693C72.9762 1.61785 73.1576 1.4363 73.3365 1.25147Z" fill="white"/>
<path d="M78.7304 2.83834C78.0697 2.51386 77.153 2.17213 75.9793 1.81479L75.4877 3.04864C75.5804 3.0741 75.6707 3.09957 75.7602 3.12421C75.7512 3.13818 75.7421 3.1505 75.7331 3.16446C75.5452 3.46266 75.413 3.79946 75.3359 4.17487C75.3121 4.30631 75.3006 4.40406 75.3006 4.46978C75.3006 4.76058 75.3884 5.03084 75.5624 5.27975C75.3613 5.28796 75.1463 5.29207 74.9165 5.29207H74.1294C74.2402 5.0752 74.3149 4.83122 74.3543 4.55932C74.3657 4.44021 74.3723 4.34491 74.3723 4.27345C74.3723 3.958 74.3099 3.64749 74.1844 3.34354C74.0596 3.0396 73.8807 2.78905 73.6484 2.59272C73.4162 2.39639 73.1486 2.29781 72.8449 2.29781C72.5708 2.29781 72.3123 2.38242 72.0677 2.55247C71.8231 2.72251 71.6163 2.95499 71.4472 3.2499C71.2781 3.5448 71.1657 3.87093 71.1123 4.22909C71.1 4.3367 71.0943 4.41063 71.0943 4.45253C71.0943 4.74497 71.1739 5.02181 71.3339 5.28385C71.1632 5.28961 70.9802 5.29289 70.7824 5.29289H70.6125C70.4098 5.29289 70.2555 5.25428 70.148 5.17706C70.0404 5.09985 69.9756 5.01031 69.9518 4.90926C69.9518 4.36134 69.9099 3.86928 69.8271 3.4339L68.907 3.61298C68.9661 4.00647 68.9965 4.28905 68.9965 4.46238C68.9965 4.67679 68.9546 4.84108 68.8717 4.95362C68.788 5.06699 68.6156 5.1516 68.3538 5.20828C68.092 5.26496 67.6931 5.29289 67.1572 5.29289H67.0406C66.8502 5.29289 66.7058 5.26743 66.6073 5.21732C66.5088 5.16638 66.4341 5.07027 66.384 4.92652C66.3332 4.78358 66.2905 4.56343 66.2544 4.26523C66.201 3.86025 66.1058 3.01988 65.9688 1.74414L64.933 1.96758L65.0019 2.50318C64.4036 2.74551 63.9144 3.03221 63.5353 3.36244C63.1036 3.73785 62.8877 4.19951 62.8877 4.74826C62.8877 5.19514 63.0584 5.54837 63.4015 5.80713C63.7437 6.06672 64.1828 6.19569 64.7188 6.19569C65.0561 6.19569 65.4016 6.14065 65.7545 6.03304C65.7759 6.06343 65.798 6.093 65.821 6.12011C66.1034 6.45691 66.5104 6.62532 67.0398 6.62532H67.1917C67.8762 6.62285 68.3957 6.56535 68.7502 6.45116C69.0441 6.35669 69.2706 6.20801 69.4315 6.00757C69.5464 6.1579 69.6859 6.28851 69.8525 6.39695C70.0716 6.5407 70.3105 6.61546 70.5665 6.62367V6.62532H70.7808C71.5761 6.62532 72.2367 6.53824 72.7653 6.36409C73.2364 6.53742 73.7625 6.62532 74.3436 6.62532H74.9148C75.7183 6.62532 76.3749 6.56124 76.8838 6.43309C76.9782 6.40927 77.0676 6.38134 77.1538 6.35177C77.6389 6.51524 78.119 6.59821 78.5934 6.59821C79.0399 6.59821 79.424 6.52099 79.7457 6.36573C80.0674 6.21047 80.2759 5.97882 80.3711 5.6683C80.4721 5.33479 80.5229 5.05466 80.5229 4.82794C80.5229 4.45828 80.3892 4.11572 80.1208 3.80028C79.8532 3.48484 79.3887 3.16446 78.728 2.83916L78.7304 2.83834ZM64.6547 4.95198C64.4044 4.95198 64.2083 4.90844 64.0655 4.82219C63.9226 4.73593 63.857 4.62668 63.8693 4.49607C63.8874 4.33506 64.0646 4.16419 64.4003 3.98183C64.6351 3.85532 64.8862 3.75017 65.1513 3.66556L65.1907 3.96868L65.2531 4.44267C65.2703 4.58478 65.2908 4.72033 65.3146 4.84765C65.0865 4.91666 64.8665 4.95198 64.6547 4.95198ZM72.2819 3.83478C72.4189 3.6861 72.5798 3.61134 72.7645 3.61134C72.9729 3.61134 73.1379 3.70253 73.2602 3.88407C73.3825 4.06561 73.4375 4.25784 73.4252 4.46074C73.33 4.67515 73.1855 4.8419 72.9918 4.96102C72.9171 5.00702 72.831 5.04727 72.7341 5.08342C72.5453 5.00045 72.3943 4.90105 72.2819 4.78687C72.1391 4.64064 72.0611 4.49031 72.0496 4.33506C72.0677 4.15023 72.1448 3.98347 72.2819 3.83478ZM77.3524 3.61874C77.4443 3.66802 77.5272 3.73703 77.6003 3.82575C77.7283 3.981 77.7923 4.15105 77.7923 4.33506L77.7833 4.4246C77.7365 4.72279 77.4928 4.9413 77.052 5.07849C76.91 5.01359 76.7795 4.94212 76.6622 4.86244C76.3971 4.68336 76.2649 4.49278 76.2649 4.2907C76.2649 4.08862 76.347 3.91857 76.5103 3.76331C76.6737 3.60806 76.851 3.53084 77.0414 3.53084C77.0693 3.53084 77.0898 3.53248 77.107 3.53577C77.1907 3.5637 77.272 3.59163 77.3508 3.61956L77.3524 3.61874ZM79.3329 5.33643C79.181 5.4079 78.9767 5.44404 78.7214 5.44404C78.5967 5.44404 78.4678 5.43665 78.3348 5.42186C78.4653 5.18117 78.5556 4.89694 78.6049 4.56753C78.6229 4.45992 78.632 4.35313 78.632 4.24552C78.632 4.21019 78.6311 4.17569 78.6295 4.14119C79.25 4.45253 79.561 4.74333 79.561 5.01441C79.561 5.15735 79.4855 5.26496 79.3337 5.33643H79.3329Z" fill="white"/>
<path d="M91.0638 3.79912C90.7963 3.48368 90.3317 3.16331 89.6711 2.838C89.0104 2.51352 88.0936 2.17179 86.9199 1.81445L86.4283 3.0483C86.5211 3.07377 86.6113 3.09923 86.7008 3.12388C86.6918 3.13784 86.6827 3.15016 86.6737 3.16413C86.4858 3.46232 86.3536 3.79912 86.2765 4.17454C86.2527 4.30597 86.2412 4.40373 86.2412 4.46944C86.2412 4.76024 86.329 5.03051 86.503 5.27941C86.3019 5.28763 86.0869 5.29174 85.8571 5.29174H85.7052C85.491 5.29174 85.3244 5.22766 85.2054 5.09951C85.1069 4.99354 85.0207 4.82186 84.9461 4.58609C84.882 4.31994 84.8082 4.06282 84.7228 3.81638L83.7223 4.20986L83.7667 4.38894C84.0818 5.47328 84.2402 6.13785 84.2402 6.38265C84.2402 6.53133 84.1467 6.71042 83.9587 6.91907C83.7708 7.12772 83.5139 7.33802 83.1864 7.54914C82.8589 7.76025 82.4986 7.94673 82.1055 8.10774L82.6504 9.23397C83.4244 8.91196 84.0408 8.50204 84.4996 8.00505C84.9214 7.54749 85.1488 7.05297 85.1824 6.5223C85.3392 6.58884 85.5132 6.62416 85.7052 6.62416H85.8571C86.6606 6.62416 87.3172 6.56009 87.826 6.43194C87.9204 6.40811 88.0099 6.38018 88.0961 6.35061C88.5811 6.51408 89.0612 6.59705 89.5356 6.59705C89.9821 6.59705 90.3662 6.51983 90.688 6.36458C91.0097 6.20932 91.2181 5.97766 91.3134 5.66715C91.4143 5.33363 91.4652 5.05351 91.4652 4.82678C91.4652 4.45712 91.3314 4.11457 91.063 3.79912H91.0638ZM88.293 3.6184C88.385 3.66769 88.4678 3.73669 88.5409 3.82541C88.6689 3.98067 88.733 4.15071 88.733 4.33472L88.7239 4.42426C88.6771 4.72246 88.4334 4.94097 87.9926 5.07815C87.8507 5.01326 87.7202 4.94179 87.6028 4.86211C87.3377 4.68303 87.2056 4.49245 87.2056 4.29036C87.2056 4.08828 87.2876 3.91824 87.451 3.76298C87.6143 3.60772 87.7916 3.5305 87.982 3.5305C88.0099 3.5305 88.0304 3.53215 88.0476 3.53543C88.1313 3.56336 88.2126 3.59129 88.2914 3.61922L88.293 3.6184ZM90.2735 5.3361C90.1216 5.40756 89.9173 5.44371 89.662 5.44371C89.5373 5.44371 89.4084 5.43631 89.2755 5.42153C89.406 5.18084 89.4962 4.89661 89.5455 4.5672C89.5635 4.45959 89.5726 4.3528 89.5726 4.24518C89.5726 4.20986 89.5717 4.17536 89.5701 4.14086C90.1906 4.45219 90.5016 4.74299 90.5016 5.01408C90.5016 5.15702 90.4261 5.26463 90.2743 5.3361H90.2735Z" fill="white"/>
<defs>
<filter id="filter0_d_9522_66" x="0" y="15.6582" width="94.2031" height="37.4648" filterUnits="userSpaceOnUse" color-interpolation-filters="sRGB">
<feFlood flood-opacity="0" result="BackgroundImageFix"/>
<feColorMatrix in="SourceAlpha" type="matrix" values="0 0 0 0 0 0 0 0 0 0 0 0 0 0 0 0 0 0 127 0" result="hardAlpha"/>
<feOffset dy="2"/>
<feGaussianBlur stdDeviation="1"/>
<feComposite in2="hardAlpha" operator="out"/>
<feColorMatrix type="matrix" values="0 0 0 0 0 0 0 0 0 0 0 0 0 0 0 0 0 0 0.34 0"/>
<feBlend mode="normal" in2="BackgroundImageFix" result="effect1_dropShadow_9522_66"/>
<feBlend mode="normal" in="SourceGraphic" in2="effect1_dropShadow_9522_66" result="shape"/>
</filter>
<filter id="filter1_d_9522_66" x="0" y="51.8125" width="94.2031" height="37.4648" filterUnits="userSpaceOnUse" color-interpolation-filters="sRGB">
<feFlood flood-opacity="0" result="BackgroundImageFix"/>
<feColorMatrix in="SourceAlpha" type="matrix" values="0 0 0 0 0 0 0 0 0 0 0 0 0 0 0 0 0 0 127 0" result="hardAlpha"/>
<feOffset dy="2"/>
<feGaussianBlur stdDeviation="1"/>
<feComposite in2="hardAlpha" operator="out"/>
<feColorMatrix type="matrix" values="0 0 0 0 0 0 0 0 0 0 0 0 0 0 0 0 0 0 0.34 0"/>
<feBlend mode="normal" in2="BackgroundImageFix" result="effect1_dropShadow_9522_66"/>
<feBlend mode="normal" in="SourceGraphic" in2="effect1_dropShadow_9522_66" result="shape"/>
</filter>
</defs>
</svg>
