<svg width="452" height="109" viewBox="0 0 452 109" fill="none" xmlns="http://www.w3.org/2000/svg">
<rect width="452" height="109" rx="54.5" fill="white"/>
<rect x="21" y="14" width="82" height="82" rx="41" fill="#565EB6"/>
<path d="M49.9767 79.0415C48.6543 79.0415 47.5227 78.5711 46.5818 77.6302C45.6409 76.6893 45.1697 75.5568 45.1681 74.2329C45.1665 72.9089 45.6377 71.7772 46.5818 70.838C47.5259 69.8987 48.6575 69.4274 49.9767 69.4242C51.2959 69.421 52.4283 69.8923 53.374 70.838C54.3197 71.7837 54.7902 72.9153 54.7853 74.2329C54.7805 75.5504 54.3101 76.6829 53.374 77.6302C52.4379 78.5775 51.3055 79.0479 49.9767 79.0415ZM74.0199 79.0415C72.6975 79.0415 71.5659 78.5711 70.625 77.6302C69.6841 76.6893 69.2129 75.5568 69.2113 74.2329C69.2097 72.9089 69.6809 71.7772 70.625 70.838C71.5691 69.8987 72.7007 69.4274 74.0199 69.4242C75.3391 69.421 76.4715 69.8923 77.4172 70.838C78.3629 71.7837 78.8334 72.9153 78.8286 74.2329C78.8237 75.5504 78.3533 76.6829 77.4172 77.6302C76.4811 78.5775 75.3487 79.0479 74.0199 79.0415ZM45.6489 35.7637H85.3202L73.3587 57.4026H52.6215L49.9767 62.2113H78.8286V67.0199H41.8621L49.015 54.0366L40.3594 35.7637H35.5508V30.9551H43.3648L45.6489 35.7637Z" fill="white"/>
<path d="M173.354 69C172.757 69 172.109 68.9123 171.407 68.7369C171.407 71.1921 170.881 73.2264 169.829 74.8398C168.812 76.4883 167.303 77.8035 165.304 78.7856C163.305 79.8028 160.745 80.6796 157.623 81.4162C155.799 81.802 154.186 81.9949 152.783 81.9949C149.907 81.9949 147.399 81.3285 145.26 79.9957C143.155 78.6979 141.524 76.839 140.367 74.4189C139.244 72.0339 138.683 69.2631 138.683 66.1064C138.683 62.6341 139.35 58.9513 140.682 55.0581L146.996 57.5308C145.838 60.8979 145.26 63.8091 145.26 66.2642C145.26 68.9299 145.891 70.9641 147.153 72.3671C148.451 73.8051 150.293 74.5241 152.678 74.5241C153.87 74.5241 155.028 74.3838 156.15 74.1032C158.57 73.5421 160.324 73.0686 161.411 72.6828C162.533 72.332 163.375 71.841 163.936 71.2097C164.498 70.5783 164.778 69.7015 164.778 68.5791C164.778 68.2985 164.743 67.8426 164.673 67.2112L162.516 52.7433L169.092 51.691L169.618 55.216L170.144 58.4778C170.355 59.6353 170.671 60.442 171.091 60.8979C171.547 61.3188 172.231 61.5293 173.143 61.5293H174.616L175.037 65.2646L174.616 69H173.354ZM150.836 48.0609H157.728V55.0055H150.836V48.0609ZM174.065 61.5293H184.113C185.587 61.5293 186.674 61.3188 187.375 60.8979C188.112 60.477 188.48 59.758 188.48 58.7409C188.48 58.1797 188.375 57.5133 188.164 56.7417L186.113 48.9027L192.531 47.0087L194.688 55.216C195.039 56.4786 195.214 57.7413 195.214 59.0039C195.214 61.0032 194.741 62.7569 193.794 64.265C192.847 65.7732 191.532 66.9482 189.848 67.79C188.164 68.5967 186.253 69 184.113 69H174.065V61.5293ZM175.38 73.6824H181.483V79.8378H175.38V73.6824ZM186.165 73.6824H192.268V79.8378H186.165V73.6824ZM229.794 69C226.882 69 224.673 68.2284 223.165 66.6851C221.341 68.2284 219.061 69 216.325 69H203.225V61.5293H216.325C217.693 61.5293 218.605 61.3013 219.061 60.8453C219.552 60.3543 219.78 59.7054 219.745 58.8987L218.745 32.8564L225.374 32.5407L226.321 57.6361L226.374 58.057C226.444 59.4248 226.742 60.3543 227.268 60.8453C227.829 61.3013 228.671 61.5293 229.794 61.5293H230.846L231.267 65.2646L230.846 69H229.794ZM207.013 34.5925L211.327 57.7939L204.803 59.1092L200.489 35.9604L207.013 34.5925ZM230.323 61.5293H234.48C235.988 61.5293 237.093 61.3188 237.794 60.8979C238.531 60.477 238.899 59.7405 238.899 58.6883C238.899 58.1622 238.794 57.5133 238.583 56.7417L236.479 48.9027L242.897 47.0087L245.002 54.8477C245.353 56.2156 245.528 57.5484 245.528 58.8461C245.528 61.9326 244.511 64.4053 242.476 66.2642C240.442 68.0881 237.777 69 234.48 69H230.323V61.5293ZM233.848 35.8026H240.74V42.6946H233.848V35.8026ZM252.945 38.1175L259.627 37.8018L260.784 68.8948L254.155 69.2104L252.945 38.1175ZM248.158 35.2239C248.158 33.7157 248.596 32.5056 249.473 31.5937C250.385 30.6467 251.56 30.1732 252.998 30.1732C253.243 30.1732 253.647 30.2083 254.208 30.2784L259.522 31.2781C259.697 31.3131 259.925 31.3307 260.205 31.3307C261.117 31.3307 261.573 30.9273 261.573 30.1206V29.8576L264.94 29.6471V30.8572C264.94 32.3653 264.484 33.5754 263.573 34.4873C262.696 35.3992 261.538 35.8552 260.1 35.8552C259.855 35.8552 259.451 35.8201 258.89 35.75L253.577 34.7504C253.401 34.7153 253.173 34.6978 252.893 34.6978C251.981 34.6978 251.525 35.1186 251.525 35.9604V36.1709L248.158 36.4339V35.2239ZM289.037 69C287.213 69 285.6 68.6843 284.197 68.053C282.794 67.3866 281.689 66.4922 280.882 65.3699C280.111 64.2475 279.69 63.0199 279.62 61.6871C279.585 61.161 279.567 60.0211 279.567 58.2674H285.67C285.67 59.2495 285.705 59.9685 285.775 60.4244C285.81 60.8453 285.986 61.1435 286.301 61.3188C286.652 61.4591 287.178 61.5293 287.88 61.5293H293.246C295.245 61.5293 296.245 60.933 296.245 59.7405C296.245 59.5301 296.227 59.3722 296.192 59.267L296.034 58.6357L292.141 43.2207L298.612 41.4319L302.558 56.8995C303.014 58.7584 303.417 60.0036 303.768 60.6349C304.154 61.2311 304.768 61.5293 305.609 61.5293H308.187L308.608 65.2646L308.187 69H305.609C303.295 69 301.383 68.2108 299.875 66.6325C297.946 68.2108 295.438 69 292.351 69H289.037ZM307.647 61.5293H315.696C317.169 61.5293 318.257 61.3188 318.958 60.8979C319.695 60.477 320.063 59.7405 320.063 58.6883C320.063 58.1271 319.958 57.4782 319.747 56.7417L317.696 48.9027L324.061 47.0087L326.271 55.216C326.622 56.4786 326.797 57.7062 326.797 58.8987C326.797 60.933 326.324 62.7218 325.377 64.265C324.43 65.7732 323.114 66.9482 321.431 67.79C319.747 68.5967 317.836 69 315.696 69H307.647V61.5293ZM304.701 73.6824H310.804V79.8378H304.701V73.6824ZM315.486 73.6824H321.589V79.8378H315.486V73.6824ZM344.654 69C344.058 69 343.62 68.9825 343.339 68.9474C343.479 72.3846 342.585 75.0502 340.656 76.9442C338.762 78.8733 335.781 80.399 331.712 81.5214L328.45 82.4684L326.714 75.2607L329.976 74.3137C332.466 73.6473 334.202 72.9633 335.185 72.2619C336.202 71.5604 336.71 70.4906 336.71 69.0526C336.71 68.8071 336.675 68.4037 336.605 67.8426L334.501 52.7433L341.077 51.7437L341.445 54.5846C341.55 55.0406 341.796 56.4085 342.182 58.6883C342.392 59.8457 342.673 60.6173 343.024 61.0032C343.374 61.3539 343.918 61.5293 344.654 61.5293H344.918L345.338 65.2646L344.918 69H344.654ZM344.587 61.5293H345.692C348.954 61.5293 351.707 61.4591 353.952 61.3188C356.197 61.1785 358.371 60.8103 360.476 60.214L370.367 57.8465L361.844 53.5324C361.072 53.1115 360.23 52.9011 359.318 52.9011C358.407 52.9011 357.547 53.1291 356.741 53.585C355.969 54.0059 355.355 54.6372 354.899 55.479L354.005 57.1626L348.218 53.5324L349.217 51.6384C350.34 49.6392 351.778 48.096 353.531 47.0087C355.285 45.9214 357.161 45.3777 359.161 45.3777C361.195 45.3777 363.177 45.9214 365.106 47.0087L378.364 54.6899L377.417 63.318L362.159 67.4217C359.634 68.0881 357.056 68.5265 354.426 68.7369C351.83 68.9123 348.902 69 345.64 69H344.587V61.5293ZM355.215 33.7508H362.159V40.6428H355.215V33.7508Z" fill="#565EB6"/>
</svg>
