<svg width="580" height="59" viewBox="0 0 580 59" fill="none" xmlns="http://www.w3.org/2000/svg">
<path d="M21.2535 57.3449C19.3244 57.7658 17.483 57.9763 15.7293 57.9763C12.4675 57.9763 9.64403 57.2573 7.25901 55.8192C4.90906 54.3812 3.10275 52.3469 1.84009 49.7164C0.612509 47.0858 -0.0012835 44.0169 -0.0012835 40.5095C-0.0012835 36.3006 0.875563 31.8287 2.62926 27.0937L11.7309 30.7239C10.4683 34.4066 9.83694 37.423 9.83694 39.7729C9.83694 44.1221 11.9238 46.2967 16.0976 46.2967C17.1148 46.2967 18.0618 46.209 18.9386 46.0336C21.499 45.5777 23.4281 45.1568 24.7258 44.771C26.0586 44.4202 26.9705 44.052 27.4616 43.6661C27.9877 43.2803 28.2332 42.8068 28.1981 42.2456L20.2539 39.9308L23.3579 29.1456C28.3033 30.4433 31.6178 31.2675 33.3014 31.6183C35.02 31.969 36.6334 32.1444 38.1416 32.1444L38.8255 37.9316L38.1416 43.7188H37.1419C37.0718 46.2791 36.5106 48.3836 35.4584 50.032C34.4413 51.7156 32.7928 53.1185 30.513 54.2409C28.2683 55.3983 25.1818 56.433 21.2535 57.3449ZM49.3283 43.7188C47.2941 43.6837 45.4176 42.9121 43.699 41.4039C41.5595 42.9471 39.1218 43.7188 36.3861 43.7188H35.5969V32.1444H36.3861C37.3681 32.1444 38.0696 32.0216 38.4905 31.7761C38.9114 31.5306 39.1569 30.9869 39.2271 30.1452L39.8584 23.411L49.3283 24.358L48.7496 30.7239V31.1448C48.7496 31.5306 48.8022 31.7936 48.9075 31.9339C49.0477 32.0742 49.2407 32.1444 49.4862 32.1444H49.7492L52.5902 28.0407C54.7297 24.9893 56.5711 22.6218 58.1143 20.9383C59.6576 19.2197 61.2359 17.9395 62.8493 17.0977C64.4627 16.2559 66.269 15.835 68.2682 15.835C70.7234 15.835 72.9155 16.4664 74.8446 17.729C76.7736 18.9566 78.2643 20.6401 79.3165 22.7796C80.4038 24.9192 80.9474 27.3042 80.9474 29.9347C80.9474 32.7056 80.2635 35.1432 78.8956 37.2476C77.5628 39.3521 75.8091 40.9655 73.6345 42.0878C71.495 43.1751 69.2678 43.7188 66.953 43.7188H49.3283ZM68.0578 32.1444C69.0749 32.1444 69.8816 31.8638 70.4779 31.3026C71.1092 30.7414 71.4249 30.0399 71.4249 29.1982C71.4249 28.3915 71.1267 27.7075 70.5305 27.1463C69.9693 26.5501 69.2152 26.252 68.2682 26.252C67.6369 26.252 67.0582 26.3923 66.5321 26.6728C66.006 26.9534 65.3571 27.5146 64.5855 28.3564C63.8138 29.1631 62.7792 30.4258 61.4814 32.1444H68.0578ZM91.1206 47.2437C94.7332 46.5071 97.2235 45.981 98.5914 45.6653C99.9943 45.3497 101.047 45.0165 101.748 44.6657C102.485 44.3501 102.923 43.9467 103.063 43.4557C102.116 43.4206 100.503 43.4031 98.2231 43.4031C95.803 43.4031 93.6284 42.877 91.6994 41.8248C89.8054 40.7725 88.3147 39.2468 87.2274 37.2476C86.1401 35.2133 85.5965 32.7932 85.5965 29.9873C85.5965 27.3568 86.1401 24.9718 87.2274 22.8323C88.3498 20.6577 89.8755 18.9566 91.8046 17.729C93.7687 16.4664 95.9433 15.835 98.3283 15.835C100.538 15.835 102.572 16.4137 104.431 17.5712C106.29 18.6935 107.833 20.3245 109.061 22.464C110.289 24.5684 111.078 27.0411 111.428 29.8821L111.691 32.197L114.48 32.1444H114.848L115.427 37.9316L114.848 43.7188H114.532H112.902C112.902 46.7351 112.147 49.1552 110.639 50.979C109.131 52.838 106.921 54.3286 104.01 55.451C101.099 56.5733 97.0657 57.6606 91.9098 58.7128L89.5949 47.5593L91.1206 47.2437ZM95.1191 29.7769C95.1191 30.6187 95.3295 31.2675 95.7504 31.7235C96.1713 32.1444 96.8903 32.3548 97.9074 32.3548L101.906 32.3022L101.748 30.9343C101.573 29.4261 101.169 28.2862 100.538 27.5146C99.9066 26.743 99.0999 26.3572 98.1179 26.3572C97.241 26.3572 96.522 26.6728 95.9608 27.3042C95.3996 27.9355 95.1191 28.7597 95.1191 29.7769ZM162.865 43.7188C160.129 43.7188 157.411 42.6841 154.71 40.6147C153.413 41.5968 151.992 42.3684 150.449 42.9296C148.906 43.4557 147.345 43.7188 145.766 43.7188H128.142C126.108 43.6837 124.231 42.9121 122.512 41.4039C120.373 42.9471 117.935 43.7188 115.2 43.7188H114.41V32.1444H115.2C116.182 32.1444 116.883 32.0216 117.304 31.7761C117.725 31.5306 117.97 30.9869 118.041 30.1452L118.672 23.411L128.142 24.358L127.563 30.7239V31.1448C127.563 31.5306 127.616 31.7936 127.721 31.9339C127.861 32.0742 128.054 32.1444 128.3 32.1444H128.563L131.404 28.0407C133.543 24.9893 135.385 22.6218 136.928 20.9383C138.471 19.2197 140.049 17.9395 141.663 17.0977C143.276 16.2559 145.082 15.835 147.082 15.835C149.607 15.835 151.852 16.5014 153.816 17.8342C155.78 19.132 157.288 20.9032 158.34 23.1479C159.393 25.3927 159.866 27.8829 159.761 30.6187L159.708 31.25C160.55 31.8462 161.602 32.1444 162.865 32.1444H164.022L164.706 37.9316L164.022 43.7188H162.865ZM146.871 32.1444C147.888 32.1444 148.695 31.8638 149.291 31.3026C149.923 30.7414 150.238 30.0399 150.238 29.1982C150.238 28.3915 149.94 27.7075 149.344 27.1463C148.783 26.5501 148.029 26.252 147.082 26.252C146.45 26.252 145.872 26.3923 145.346 26.6728C144.819 26.9534 144.171 27.5146 143.399 28.3564C142.627 29.1631 141.593 30.4258 140.295 32.1444H146.871ZM163.527 32.1444H165.369C168.526 32.1444 171.279 32.0742 173.629 31.9339C176.014 31.7936 178.171 31.4955 180.1 31.0395L188.149 29.4612L180.836 26.252C180.03 25.9012 179.328 25.7259 178.732 25.7259C177.364 25.7259 176.312 26.3396 175.575 27.5672L174.734 28.9877L166.895 24.0949L167.999 22.0957C169.332 19.7458 170.946 17.957 172.84 16.7294C174.769 15.4667 176.838 14.8354 179.048 14.8354C181.292 14.8354 183.537 15.4667 185.782 16.7294L199.882 24.621L198.566 37.0372L184.94 41.1408C179.679 42.8594 173.138 43.7188 165.316 43.7188H163.527V32.1444ZM174.102 2.20882H182.625V10.7318H174.102V2.20882ZM238.952 43.7188C235.094 43.7188 232.183 43.6837 230.219 43.6135C228.29 43.5434 226.677 43.3855 225.379 43.14C224.116 42.8945 222.871 42.5087 221.644 41.9826C219.574 41.1057 217.961 39.7028 216.803 37.7737C215.681 35.8096 215.12 33.5824 215.12 31.0922C215.12 29.7243 215.295 28.3564 215.646 26.9885L217.908 18.3077L227.062 21.0435L224.905 29.4086L224.8 30.2504C224.8 30.6362 224.888 30.9343 225.063 31.1448C225.274 31.3201 225.624 31.478 226.115 31.6183C226.852 31.7936 228.202 31.9339 230.166 32.0392C232.131 32.1093 235.305 32.1444 239.689 32.1444H239.899C244.599 32.1444 247.809 32.0918 249.527 31.9865C251.246 31.8462 252.491 31.6533 253.263 31.4078C253.683 31.3026 253.982 31.1448 254.157 30.9343C254.367 30.6888 254.473 30.3556 254.473 29.9347C254.473 29.5138 254.403 29.0403 254.262 28.5142L252.158 21.0435L261.365 18.2551L263.574 26.4624C263.995 28.0407 264.206 29.5664 264.206 31.0395C264.206 33.5298 263.627 35.757 262.47 37.7211C261.347 39.6502 259.751 41.0707 257.682 41.9826C256.454 42.5438 255.174 42.9471 253.841 43.1926C252.544 43.4382 250.93 43.596 249.001 43.6661C247.107 43.7012 244.073 43.7188 239.899 43.7188H239.689H239.636H239.584H238.952ZM231.797 13.1519H247.37V20.9909H231.797V13.1519ZM261.878 46.9806L266.613 45.6653C268.472 45.1743 269.735 44.6657 270.401 44.1396C271.067 43.6486 271.401 42.9121 271.401 41.93C271.401 41.6845 271.366 41.246 271.295 40.6147L268.981 24.4632L278.45 23.0427L278.924 26.3046C279.099 27.4269 279.345 28.8124 279.66 30.4608C279.766 31.1272 279.959 31.5832 280.239 31.8287C280.555 32.0392 280.941 32.1444 281.397 32.1444H282.081L282.712 37.9316L282.081 43.7188H281.134C281.169 47.3314 280.257 50.1373 278.398 52.1365C276.574 54.1357 273.523 55.7316 269.244 56.9241L264.509 58.2393L261.878 46.9806ZM312.209 43.7188C309.263 43.7188 306.773 42.8419 304.739 41.0882C302.704 42.8419 300.249 43.7188 297.373 43.7188C294.918 43.7188 292.743 42.8594 290.849 41.1408C288.85 42.8594 286.553 43.7188 283.957 43.7188H281.748V32.1444H283.747C284.729 32.1444 285.378 32.0041 285.693 31.7235C286.009 31.4429 286.167 30.9519 286.167 30.2504V23.8845H295.111V30.2504C295.146 30.9519 295.304 31.4604 295.584 31.7761C295.9 32.0567 296.496 32.197 297.373 32.197C298.39 32.197 299.057 32.0742 299.372 31.8287C299.688 31.5481 299.846 31.022 299.846 30.2504V23.8845H308.79V30.3556C308.79 30.7765 308.965 31.1798 309.316 31.5657C309.702 31.9164 310.315 32.0918 311.157 32.0918C312.104 32.0918 312.753 32.0216 313.104 31.8813C313.49 31.7059 313.682 31.4254 313.682 31.0395C313.682 30.8642 313.665 30.7239 313.63 30.6187L312.051 24.1475L320.574 21.6222L322.363 28.4616L322.416 28.6721C322.767 29.8996 323.31 30.794 324.047 31.3552C324.818 31.9164 325.818 32.1794 327.046 32.1444L327.677 37.9316L327.046 43.7188C323.924 43.824 321.276 42.9296 319.101 41.0356C317.207 42.8244 314.91 43.7188 312.209 43.7188ZM326.549 32.1444H330.179C331.161 32.1444 331.775 32.0567 332.021 31.8813C332.266 31.6709 332.354 31.2851 332.284 30.7239L331.705 24.4106L341.175 23.4636L341.754 29.9347C341.789 30.3205 341.806 30.8992 341.806 31.6709C342.017 31.8813 342.28 32.0216 342.595 32.0918C342.946 32.1268 343.507 32.1444 344.279 32.1444L344.91 37.9316L344.279 43.7188C341.438 43.7188 339.07 42.9822 337.176 41.5091C335.282 42.9822 333.02 43.7188 330.39 43.7188H326.549V32.1444ZM330.547 9.99522H339.07V18.5182H330.547V9.99522ZM343.812 32.1444H355.229C355.895 32.1444 356.281 32.0918 356.386 31.9865C356.456 31.9164 356.491 31.8287 356.491 31.7235C356.491 31.478 356.333 31.1272 356.018 30.6713L345.338 15.572L347.547 7.20685L367.171 -0.000830961L370.749 10.7318L357.754 15.4667L364.33 25.3576C366.189 28.1284 367.119 30.9694 367.119 33.8805C367.119 36.0551 366.575 37.9316 365.488 39.5099C363.524 42.3158 360.542 43.7188 356.544 43.7188H343.812V32.1444ZM408.87 43.7188C404.766 43.7188 401.732 43.6837 399.768 43.6135C397.839 43.5434 396.208 43.4031 394.875 43.1926C393.578 42.9471 392.315 42.5438 391.087 41.9826C389.018 41.1057 387.405 39.7028 386.247 37.7737C385.125 35.8096 384.564 33.5824 384.564 31.0922C384.564 29.7243 384.739 28.3564 385.09 26.9885L387.352 18.3077L396.506 21.0435L394.349 29.4086L394.244 30.2504C394.244 30.6362 394.332 30.9343 394.507 31.1448C394.717 31.3201 395.068 31.478 395.559 31.6183C396.296 31.7936 397.646 31.9339 399.61 32.0392C401.574 32.1093 404.749 32.1444 409.133 32.1444H420.286C420.953 32.1444 421.339 32.0918 421.444 31.9865C421.514 31.9164 421.549 31.8287 421.549 31.7235C421.549 31.478 421.391 31.1272 421.075 30.6713L410.448 15.572L412.658 7.20685L432.229 -0.000830961L435.806 10.7318L422.864 15.4667L429.388 25.3576L429.704 25.8311C430.791 27.6549 431.685 29.0053 432.387 29.8821C433.123 30.759 433.825 31.3552 434.491 31.6709C435.193 31.9865 436.052 32.1444 437.069 32.1444H438.227L438.858 37.9316L438.227 43.7188H437.069C434.333 43.7188 431.791 42.7718 429.441 40.8778C427.476 42.7718 424.863 43.7188 421.602 43.7188H409.133H408.87ZM437.679 32.1444H446.36C447.377 32.1444 448.096 32.0216 448.517 31.7761C448.973 31.5306 449.201 31.1097 449.201 30.5134C449.201 30.0575 449.131 29.6015 448.99 29.1456L446.833 21.0435L455.988 18.2551L458.408 27.3042C458.794 28.637 458.986 30.075 458.986 31.6183C458.986 33.9331 458.46 36.02 457.408 37.879C456.391 39.7028 454.935 41.1408 453.041 42.193C451.147 43.2102 448.955 43.7188 446.465 43.7188H437.679V32.1444ZM435.89 47.5593H451.411V55.3983H435.89V47.5593ZM528.04 43.7188C524.988 43.7188 522.446 42.8419 520.411 41.0882C518.447 42.8419 516.062 43.7188 513.256 43.7188C512.485 43.7188 511.73 43.6135 510.994 43.4031C510.924 47.2612 509.608 50.225 507.048 52.2943C504.523 54.3987 500.665 56.0823 495.474 57.3449C493.615 57.8009 491.773 58.0289 489.95 58.0289C486.758 58.0289 483.987 57.2923 481.637 55.8192C479.287 54.3461 477.481 52.2592 476.218 49.5585C474.956 46.8579 474.324 43.7363 474.324 40.1938C474.324 36.0551 475.166 31.6884 476.849 27.0937L485.951 30.7239C484.689 34.2663 484.057 37.2827 484.057 39.7729C484.057 44.052 486.091 46.1915 490.16 46.1915C491.282 46.1915 492.545 46.0336 493.948 45.718C496.017 45.2269 497.543 44.7885 498.525 44.4027C499.542 44.052 500.244 43.6486 500.63 43.1926C501.015 42.7016 501.208 42.0527 501.208 41.246C501.208 40.9655 501.173 40.4393 501.103 39.6677L498.841 24.621L508.311 23.1479L509.205 28.9877C509.416 30.3205 509.801 31.1974 510.363 31.6183C510.924 32.0041 511.836 32.197 513.098 32.197C514.08 32.197 514.747 32.0742 515.098 31.8287C515.483 31.5481 515.676 31.022 515.676 30.2504V23.8845H524.62V30.3556C524.62 30.7414 524.813 31.1272 525.199 31.513C525.585 31.8989 526.198 32.0918 527.04 32.0918C528.092 32.0918 528.794 31.9865 529.145 31.7761C529.53 31.5306 529.653 31.1448 529.513 30.6187L527.935 24.1475L536.405 21.6222L538.194 28.4616V28.5142C538.544 29.7769 539.106 30.7063 539.877 31.3026C540.649 31.8638 541.666 32.1444 542.929 32.1444H543.507L544.139 37.9316L543.507 43.7188H542.929C539.807 43.7188 537.177 42.8068 535.037 40.983C533.038 42.8068 530.705 43.7188 528.04 43.7188ZM542.952 32.1444H544.793C547.95 32.1444 550.703 32.0742 553.053 31.9339C555.438 31.7936 557.595 31.4955 559.524 31.0395L567.574 29.4612L560.261 26.252C559.454 25.9012 558.753 25.7259 558.157 25.7259C556.789 25.7259 555.737 26.3396 555 27.5672L554.158 28.9877L546.319 24.0949L547.424 22.0957C548.757 19.7458 550.37 17.957 552.264 16.7294C554.193 15.4667 556.263 14.8354 558.472 14.8354C560.717 14.8354 562.962 15.4667 565.206 16.7294L579.306 24.621L577.991 37.0372L564.365 41.1408C559.104 42.8594 552.562 43.7188 544.741 43.7188H542.952V32.1444Z" fill="#565EB6"/>
</svg>
