<svg width="109" height="29" viewBox="0 0 109 29" fill="none" xmlns="http://www.w3.org/2000/svg">
<rect x="2.5" y="2.5" width="104" height="24" rx="4.5" fill="#FFCC16" stroke="#054034"/>
<g filter="url(#filter0_f_10340_2)">
<rect x="2.5" y="2.5" width="104" height="24" rx="4.5" stroke="#FFCC16"/>
</g>
<path d="M24.1909 13.594V11.826C24.1909 11.6447 24.1286 11.4973 24.0039 11.384C23.8792 11.2593 23.7262 11.197 23.5449 11.197H22.2529C22.0942 11.197 21.9469 11.248 21.8109 11.35C21.6862 11.452 21.6126 11.5823 21.5899 11.741L21.3689 12.948C21.3349 13.118 21.3746 13.271 21.4879 13.407C21.6012 13.5317 21.7429 13.594 21.9129 13.594H24.1909ZM14.9769 12.438V15.396C14.9769 15.7927 15.1129 16.127 15.3849 16.399C15.6682 16.6597 16.0026 16.79 16.3879 16.79H23.3579C23.5846 16.79 23.7772 16.7107 23.9359 16.552C24.1059 16.3933 24.1852 16.2007 24.1739 15.974V15.617C23.8566 15.7417 23.5166 15.804 23.1539 15.804H22.1679C21.7486 15.804 21.3576 15.7133 20.9949 15.532C20.6322 15.3507 20.3262 15.1127 20.0769 14.818C19.8389 14.5233 19.6632 14.1833 19.5499 13.798C19.4479 13.4127 19.4366 13.0103 19.5159 12.591L19.7879 11.214C19.9126 10.5907 20.2129 10.0807 20.6889 9.684C21.1762 9.276 21.7429 9.072 22.3889 9.072H23.3069C23.6809 9.072 24.0322 9.14567 24.3609 9.293C24.7009 9.429 24.9956 9.62167 25.2449 9.871C25.4942 10.1203 25.6926 10.415 25.8399 10.755C25.9872 11.0837 26.0609 11.4407 26.0609 11.826V15.974C26.0609 16.3933 25.9816 16.79 25.8229 17.164C25.6642 17.5267 25.4432 17.844 25.1599 18.116C24.8879 18.388 24.5649 18.6033 24.1909 18.762C23.8282 18.9207 23.4372 19 23.0179 19H16.5579C16.0819 19 15.6342 18.9093 15.2149 18.728C14.7956 18.5467 14.4272 18.303 14.1099 17.997C13.8039 17.6797 13.5602 17.3113 13.3789 16.892C13.1976 16.4727 13.1069 16.025 13.1069 15.549V12.438H14.9769ZM21.8789 5.553H23.8339V7.508H21.8789V5.553ZM29.8021 19H27.9321V7.355H29.8021V19ZM33.7375 12.914V16.093C33.7375 16.297 33.8225 16.467 33.9925 16.603C34.1625 16.7277 34.3495 16.79 34.5535 16.79H35.7945C35.9531 16.79 36.0325 16.8693 36.0325 17.028V18.762C36.0325 18.9207 35.9531 19 35.7945 19H34.8595C34.6668 19 34.4628 18.966 34.2475 18.898C34.0321 18.83 33.8621 18.6883 33.7375 18.473V18.779C33.7375 19.2097 33.6638 19.6177 33.5165 20.003C33.3805 20.3997 33.1878 20.7623 32.9385 21.091C32.6891 21.4197 32.3945 21.703 32.0545 21.941C31.7145 22.1903 31.3405 22.383 30.9325 22.519L28.5865 23.318L28.0085 21.567L30.4565 20.768C30.8871 20.632 31.2271 20.377 31.4765 20.003C31.7371 19.6403 31.8675 19.238 31.8675 18.796V12.914H33.7375ZM45.8749 16.79C46.1016 16.79 46.2943 16.7107 46.4529 16.552C46.6116 16.382 46.6909 16.1837 46.6909 15.957V15.09C46.6909 14.8633 46.6116 14.6707 46.4529 14.512C46.2943 14.3533 46.1016 14.274 45.8749 14.274H44.4299C43.8406 14.274 43.3476 14.4893 42.9509 14.92L41.2169 16.79H45.8749ZM39.3809 15.175C39.3809 15.4697 39.4093 15.6623 39.4659 15.753C39.5339 15.8437 39.5679 15.8947 39.5679 15.906L41.9139 13.373C42.2766 12.9763 42.7016 12.676 43.1889 12.472C43.6763 12.2567 44.1863 12.149 44.7189 12.149H45.7729C46.1583 12.149 46.5209 12.2227 46.8609 12.37C47.2009 12.5173 47.4956 12.7213 47.7449 12.982C47.9943 13.2313 48.1926 13.526 48.3399 13.866C48.4873 14.1947 48.5609 14.5517 48.5609 14.937V15.957C48.5609 16.3763 48.4816 16.773 48.3229 17.147C48.1643 17.5097 47.9489 17.8327 47.6769 18.116C47.4049 18.388 47.0819 18.6033 46.7079 18.762C46.3453 18.9207 45.9543 19 45.5349 19H40.5029C40.0949 19 39.7153 18.9207 39.3639 18.762C39.0126 18.6033 38.7066 18.3483 38.4459 17.997C38.1739 18.3483 37.8566 18.6033 37.4939 18.762C37.1313 18.9207 36.7459 19 36.3379 19H35.7939C35.7259 19 35.6693 18.9773 35.6239 18.932C35.5786 18.8753 35.5559 18.8187 35.5559 18.762V17.062C35.5559 16.994 35.5843 16.9317 35.6409 16.875C35.6863 16.8183 35.7373 16.79 35.7939 16.79H36.6949C36.9216 16.79 37.1143 16.7107 37.2729 16.552C37.4316 16.3933 37.5109 16.2007 37.5109 15.974V13.186H39.3809V15.175ZM50.9986 23.335L50.4206 21.584L52.8686 20.785C53.2993 20.6377 53.6393 20.3827 53.8886 20.02C54.1493 19.6573 54.2796 19.255 54.2796 18.813V12.931H56.1496V18.626C56.1496 19.068 56.0816 19.493 55.9456 19.901C55.8096 20.3203 55.6169 20.7 55.3676 21.04C55.1296 21.38 54.8349 21.6747 54.4836 21.924C54.1436 22.1847 53.7639 22.3887 53.3446 22.536L50.9986 23.335ZM54.1946 9.412H56.1496V11.367H54.1946V9.412ZM60.0668 19H58.1968V7.355H60.0668V19ZM72.1935 16.79H72.6695C72.7261 16.79 72.7771 16.8183 72.8225 16.875C72.8791 16.9203 72.9075 16.977 72.9075 17.045V18.762C72.9075 18.8187 72.8848 18.8753 72.8395 18.932C72.7941 18.9773 72.7375 19 72.6695 19H72.3295C71.8761 19 71.4738 18.9093 71.1225 18.728C70.7711 18.5467 70.4821 18.3427 70.2555 18.116C69.9835 18.3767 69.6605 18.592 69.2865 18.762C68.9238 18.9207 68.5271 19 68.0965 19H65.8695C65.5635 19 65.2745 18.9433 65.0025 18.83C64.7305 18.7053 64.4925 18.541 64.2885 18.337C64.0845 18.133 63.9201 17.895 63.7955 17.623C63.6821 17.3397 63.6255 17.045 63.6255 16.739V14.529H65.2235V16.399C65.2235 16.5123 65.2631 16.6087 65.3425 16.688C65.4218 16.756 65.5125 16.79 65.6145 16.79H68.1135C68.2835 16.79 68.4421 16.756 68.5895 16.688C68.7481 16.6087 68.8785 16.5123 68.9805 16.399C69.0825 16.2743 69.1505 16.1383 69.1845 15.991C69.2298 15.8323 69.2298 15.6737 69.1845 15.515L67.8245 10.602L69.5925 9.956L71.3265 16.127C71.3831 16.3197 71.4908 16.4783 71.6495 16.603C71.8081 16.7277 71.9895 16.79 72.1935 16.79ZM76.576 16.79C76.8027 16.79 76.9953 16.7107 77.154 16.552C77.3127 16.382 77.392 16.1837 77.392 15.957V12.438H79.262V15.957C79.262 16.3763 79.1827 16.773 79.024 17.147C78.8653 17.5097 78.6443 17.8327 78.361 18.116C78.089 18.388 77.766 18.6033 77.392 18.762C77.0293 18.9207 76.6383 19 76.219 19H72.666C72.598 19 72.5413 18.9773 72.496 18.932C72.4507 18.8753 72.428 18.8187 72.428 18.762V17.045C72.428 16.977 72.4507 16.9203 72.496 16.875C72.5413 16.8183 72.598 16.79 72.666 16.79H76.576ZM72.921 22.995H74.859V21.04H72.921V22.995ZM75.743 22.995H77.698V21.04H75.743V22.995ZM84.3224 12.914V16.093C84.3224 16.297 84.4074 16.467 84.5774 16.603C84.7474 16.7277 84.9344 16.79 85.1384 16.79H86.3794C86.5381 16.79 86.6174 16.8693 86.6174 17.028V18.762C86.6174 18.9207 86.5381 19 86.3794 19H85.4444C85.2518 19 85.0478 18.966 84.8324 18.898C84.6171 18.83 84.4471 18.6883 84.3224 18.473V18.779C84.3224 19.2097 84.2488 19.6177 84.1014 20.003C83.9654 20.3997 83.7728 20.7623 83.5234 21.091C83.2741 21.4197 82.9794 21.703 82.6394 21.941C82.2994 22.1903 81.9254 22.383 81.5174 22.519L79.1714 23.318L78.5934 21.567L81.0414 20.768C81.4721 20.632 81.8121 20.377 82.0614 20.003C82.3221 19.6403 82.4524 19.238 82.4524 18.796V12.914H84.3224ZM88.9629 10.109H90.9179V8.154H88.9629V10.109ZM86.1409 17.045C86.1409 16.9883 86.1692 16.9317 86.2259 16.875C86.2712 16.8183 86.3222 16.79 86.3789 16.79H89.4219C89.8979 16.79 90.3682 16.7163 90.8329 16.569C91.2976 16.4103 91.6942 16.1553 92.0229 15.804L93.0089 14.75C93.0656 14.6933 93.1166 14.6423 93.1619 14.597C93.2072 14.5517 93.2356 14.529 93.2469 14.529L89.6769 13.458C89.5636 13.424 89.4616 13.4353 89.3709 13.492C89.2916 13.5373 89.2292 13.611 89.1839 13.713L88.5379 15.413L86.9059 14.971L87.3479 13.407C87.4499 13.0557 87.6086 12.7553 87.8239 12.506C88.0506 12.2567 88.2999 12.064 88.5719 11.928C88.8552 11.7807 89.1556 11.6957 89.4729 11.673C89.7902 11.639 90.0962 11.6673 90.3909 11.758L97.1569 13.781L96.5959 15.532L95.7969 15.294C95.5249 15.2373 95.3039 15.243 95.1339 15.311C94.9752 15.3677 94.8109 15.481 94.6409 15.651L92.6859 17.589C92.1986 18.0763 91.6319 18.4333 90.9859 18.66C90.3399 18.8867 89.6769 19 88.9969 19H86.3789C86.2202 19 86.1409 18.9207 86.1409 18.762V17.045Z" fill="#054034"/>
<defs>
<filter id="filter0_f_10340_2" x="0" y="0" width="109" height="29" filterUnits="userSpaceOnUse" color-interpolation-filters="sRGB">
<feFlood flood-opacity="0" result="BackgroundImageFix"/>
<feBlend mode="normal" in="SourceGraphic" in2="BackgroundImageFix" result="shape"/>
<feGaussianBlur stdDeviation="1" result="effect1_foregroundBlur_10340_2"/>
</filter>
</defs>
</svg>
