<svg width="107" height="47" viewBox="0 0 107 47" fill="none" xmlns="http://www.w3.org/2000/svg">
<path d="M7.99938 6.15372V10.4587C7.99938 10.6127 8.04838 10.7317 8.14638 10.8157C8.25838 10.8997 8.39138 10.9417 8.54538 10.9417H9.46938C9.66538 10.9417 9.76338 11.0397 9.76338 11.2357V14.2177C9.76338 14.4137 9.66538 14.5117 9.46938 14.5117H9.04938C8.88138 14.5117 8.68538 14.4697 8.46138 14.3857C8.25138 14.2877 8.09038 14.1827 7.97838 14.0707V14.3857C7.97838 14.9457 7.88038 15.4567 7.68438 15.9187C7.50238 16.3947 7.24338 16.8217 6.90738 17.1997C6.57138 17.5777 6.17238 17.9067 5.71038 18.1867C5.24838 18.4667 4.75138 18.6977 4.21938 18.8797L0.922375 20.0137L-0.00162502 17.2207L3.42138 16.0447C3.89738 15.8907 4.26838 15.6177 4.53438 15.2257C4.81438 14.8337 4.95438 14.3927 4.95438 13.9027V6.15372H7.99938ZM9.47266 10.9207H12.0767C12.2727 10.9207 12.3707 11.0187 12.3707 11.2147V14.2177C12.3707 14.3017 12.3357 14.3717 12.2657 14.4277C12.2097 14.4837 12.1467 14.5117 12.0767 14.5117H9.47266C9.40266 14.5117 9.33966 14.4837 9.28366 14.4277C9.21366 14.3717 9.17866 14.3017 9.17866 14.2177V11.2147C9.17866 11.0187 9.27666 10.9207 9.47266 10.9207ZM12.0771 10.9207H14.6811C14.8771 10.9207 14.9751 11.0187 14.9751 11.2147V14.2177C14.9751 14.3017 14.9401 14.3717 14.8701 14.4277C14.8141 14.4837 14.7511 14.5117 14.6811 14.5117H12.0771C12.0071 14.5117 11.9441 14.4837 11.8881 14.4277C11.8181 14.3717 11.7831 14.3017 11.7831 14.2177V11.2147C11.7831 11.0187 11.8811 10.9207 12.0771 10.9207ZM14.6816 10.9207H17.2856C17.4816 10.9207 17.5796 11.0187 17.5796 11.2147V14.2177C17.5796 14.3017 17.5446 14.3717 17.4746 14.4277C17.4186 14.4837 17.3556 14.5117 17.2856 14.5117H14.6816C14.6116 14.5117 14.5486 14.4837 14.4926 14.4277C14.4226 14.3717 14.3876 14.3017 14.3876 14.2177V11.2147C14.3876 11.0187 14.4856 10.9207 14.6816 10.9207ZM17.2861 10.9207H19.8901C20.0861 10.9207 20.1841 11.0187 20.1841 11.2147V14.2177C20.1841 14.3017 20.1491 14.3717 20.0791 14.4277C20.0231 14.4837 19.9601 14.5117 19.8901 14.5117H17.2861C17.2161 14.5117 17.1531 14.4837 17.0971 14.4277C17.0271 14.3717 16.9921 14.3017 16.9921 14.2177V11.2147C16.9921 11.0187 17.0901 10.9207 17.2861 10.9207ZM19.8906 10.9207H22.4946C22.6906 10.9207 22.7886 11.0187 22.7886 11.2147V14.2177C22.7886 14.3017 22.7536 14.3717 22.6836 14.4277C22.6276 14.4837 22.5646 14.5117 22.4946 14.5117H19.8906C19.8206 14.5117 19.7576 14.4837 19.7016 14.4277C19.6316 14.3717 19.5966 14.3017 19.5966 14.2177V11.2147C19.5966 11.0187 19.6946 10.9207 19.8906 10.9207ZM22.4951 10.9207H25.0991C25.2951 10.9207 25.3931 11.0187 25.3931 11.2147V14.2177C25.3931 14.3017 25.3581 14.3717 25.2881 14.4277C25.2321 14.4837 25.1691 14.5117 25.0991 14.5117H22.4951C22.4251 14.5117 22.3621 14.4837 22.3061 14.4277C22.2361 14.3717 22.2011 14.3017 22.2011 14.2177V11.2147C22.2011 11.0187 22.2991 10.9207 22.4951 10.9207ZM25.0996 10.9207H27.7036C27.8996 10.9207 27.9976 11.0187 27.9976 11.2147V14.2177C27.9976 14.3017 27.9626 14.3717 27.8926 14.4277C27.8366 14.4837 27.7736 14.5117 27.7036 14.5117H25.0996C25.0296 14.5117 24.9666 14.4837 24.9106 14.4277C24.8406 14.3717 24.8056 14.3017 24.8056 14.2177V11.2147C24.8056 11.0187 24.9036 10.9207 25.0996 10.9207ZM27.7041 10.9207H30.3081C30.5041 10.9207 30.6021 11.0187 30.6021 11.2147V14.2177C30.6021 14.3017 30.5671 14.3717 30.4971 14.4277C30.4411 14.4837 30.3781 14.5117 30.3081 14.5117H27.7041C27.6341 14.5117 27.5711 14.4837 27.5151 14.4277C27.4451 14.3717 27.4101 14.3017 27.4101 14.2177V11.2147C27.4101 11.0187 27.5081 10.9207 27.7041 10.9207ZM30.3086 10.9207H32.9126C33.1086 10.9207 33.2066 11.0187 33.2066 11.2147V14.2177C33.2066 14.3017 33.1716 14.3717 33.1016 14.4277C33.0456 14.4837 32.9826 14.5117 32.9126 14.5117H30.3086C30.2386 14.5117 30.1756 14.4837 30.1196 14.4277C30.0496 14.3717 30.0146 14.3017 30.0146 14.2177V11.2147C30.0146 11.0187 30.1126 10.9207 30.3086 10.9207ZM32.9131 10.9207H35.5171C35.7131 10.9207 35.8111 11.0187 35.8111 11.2147V14.2177C35.8111 14.3017 35.7761 14.3717 35.7061 14.4277C35.6501 14.4837 35.5871 14.5117 35.5171 14.5117H32.9131C32.8431 14.5117 32.7801 14.4837 32.7241 14.4277C32.6541 14.3717 32.6191 14.3017 32.6191 14.2177V11.2147C32.6191 11.0187 32.7171 10.9207 32.9131 10.9207ZM39.4866 9.61872C39.4866 9.80072 39.6196 9.98972 39.8856 10.1857C40.1656 10.3817 40.5296 10.5567 40.9776 10.7107C41.4256 10.5567 41.7826 10.3817 42.0486 10.1857C42.3146 9.97572 42.4476 9.78672 42.4476 9.61872V8.98872C42.4476 8.65272 42.3286 8.36572 42.0906 8.12772C41.8526 7.88972 41.5656 7.77072 41.2296 7.77072H40.7046C40.3686 7.77072 40.0816 7.88972 39.8436 8.12772C39.6056 8.35172 39.4866 8.63172 39.4866 8.96772V9.61872ZM36.4836 8.69472C36.4836 8.06472 36.6096 7.48372 36.8616 6.95172C37.1136 6.40572 37.4426 5.93672 37.8486 5.54472C38.2686 5.15272 38.7376 4.84472 39.2556 4.62072C39.7876 4.39672 40.3266 4.28472 40.8726 4.28472H41.2506C41.8386 4.28472 42.3846 4.39672 42.8886 4.62072C43.4066 4.83072 43.8546 5.13172 44.2326 5.52372C44.6246 5.90172 44.9326 6.34972 45.1566 6.86772C45.3806 7.37172 45.4926 7.91772 45.4926 8.50572V9.30372C45.4926 9.54172 45.4856 9.81472 45.4716 10.1227C45.4576 10.4167 45.4156 10.7107 45.3456 11.0047C45.3736 11.0047 45.4576 10.9977 45.5976 10.9837C45.7516 10.9557 45.9056 10.9417 46.0596 10.9417H46.4796C46.5636 10.9417 46.6336 10.9767 46.6896 11.0467C46.7456 11.1167 46.7736 11.1937 46.7736 11.2777V14.2177C46.7736 14.2877 46.7386 14.3577 46.6686 14.4277C46.6126 14.4837 46.5496 14.5117 46.4796 14.5117H44.7996C44.4496 14.5117 44.1206 14.5047 43.8126 14.4907C43.5186 14.4627 43.2246 14.4137 42.9306 14.3437C42.6366 14.2737 42.3356 14.1757 42.0276 14.0497C41.7196 13.9237 41.3696 13.7557 40.9776 13.5457C40.5996 13.7557 40.2566 13.9237 39.9486 14.0497C39.6406 14.1757 39.3396 14.2737 39.0456 14.3437C38.7516 14.4137 38.4506 14.4627 38.1426 14.4907C37.8486 14.5047 37.5196 14.5117 37.1556 14.5117H35.5176C35.4336 14.5117 35.3706 14.4837 35.3286 14.4277C35.2726 14.3577 35.2376 14.2877 35.2236 14.2177V11.2777C35.2236 11.1937 35.2516 11.1167 35.3076 11.0467C35.3636 10.9767 35.4336 10.9417 35.5176 10.9417H35.9376C36.0916 10.9417 36.2386 10.9557 36.3786 10.9837C36.5326 10.9977 36.6236 11.0047 36.6516 11.0047C36.5816 10.6967 36.5326 10.3957 36.5046 10.1017C36.4906 9.80772 36.4836 9.54172 36.4836 9.30372V8.69472ZM39.6336 0.000717819H42.3636V2.83572H39.6336V0.000717819ZM49.7443 4.13772H52.4743V1.30272H49.7443V4.13772ZM49.0513 10.9417C49.2193 10.9417 49.3593 10.8857 49.4713 10.7737C49.5833 10.6477 49.6393 10.5077 49.6393 10.3537V5.54472H52.6633V10.3327C52.6633 10.9067 52.5513 11.4527 52.3273 11.9707C52.1173 12.4747 51.8233 12.9157 51.4453 13.2937C51.0673 13.6717 50.6193 13.9727 50.1013 14.1967C49.5973 14.4067 49.0583 14.5117 48.4843 14.5117H46.4893C46.4053 14.5117 46.3353 14.4837 46.2793 14.4277C46.2233 14.3577 46.1953 14.2877 46.1953 14.2177V11.2777C46.1953 11.1937 46.2233 11.1167 46.2793 11.0467C46.3353 10.9767 46.4053 10.9417 46.4893 10.9417H49.0513ZM10.0254 31.1877C10.5574 31.1877 11.0614 31.2927 11.5374 31.5027C12.0134 31.6987 12.4264 31.9717 12.7764 32.3217C13.1264 32.6717 13.3994 33.0847 13.5954 33.5607C13.8054 34.0367 13.9104 34.5407 13.9104 35.0727V37.4037C13.9104 37.8237 13.8264 38.2227 13.6584 38.6007C13.4904 38.9647 13.2594 39.2937 12.9654 39.5877C12.6854 39.8677 12.3564 40.0917 11.9784 40.2597C11.6004 40.4277 11.2014 40.5117 10.7814 40.5117H8.49238C7.90438 40.5117 7.36538 40.3927 6.87538 40.1547C6.38538 39.9027 5.97238 39.5737 5.63638 39.1677C5.31438 38.7477 5.07638 38.2717 4.92238 37.7397C4.78238 37.2077 4.76138 36.6547 4.85938 36.0807L5.11138 34.6527H4.20838C4.05438 34.6527 3.91438 34.7017 3.78838 34.7997C3.67638 34.8977 3.62038 35.0237 3.62038 35.1777V45.6147H0.575383V35.3667C0.575383 34.7927 0.680383 34.2537 0.890383 33.7497C1.11438 33.2317 1.41538 32.7837 1.79338 32.4057C2.17138 32.0277 2.61238 31.7337 3.11638 31.5237C3.63438 31.2997 4.18038 31.1877 4.75438 31.1877H10.0254ZM10.8654 36.9417V35.0517C10.8794 34.9397 10.8444 34.8487 10.7604 34.7787C10.6904 34.7087 10.6064 34.6737 10.5084 34.6737H8.24038L7.84138 36.6687C7.82738 36.7387 7.84138 36.8087 7.88338 36.8787C7.93938 36.9347 8.00238 36.9557 8.07238 36.9417H10.8654ZM18.9691 40.5117C18.3951 40.5117 17.8631 40.3927 17.3731 40.1547C16.8831 39.9027 16.4701 39.5737 16.1341 39.1677C15.7981 38.7477 15.5531 38.2787 15.3991 37.7607C15.2591 37.2287 15.2381 36.6827 15.3361 36.1227L15.7141 34.1907C15.7981 33.7567 15.9451 33.3577 16.1551 32.9937C16.3791 32.6297 16.6521 32.3147 16.9741 32.0487C17.2961 31.7827 17.6601 31.5727 18.0661 31.4187C18.4721 31.2647 18.8991 31.1877 19.3471 31.1877H20.5021C21.0341 31.1877 21.5311 31.2927 21.9931 31.5027C22.4691 31.6987 22.8821 31.9717 23.2321 32.3217C23.5821 32.6717 23.8621 33.0847 24.0721 33.5607C24.2821 34.0367 24.3871 34.5407 24.3871 35.0727V36.9417H25.1221C25.3181 36.9417 25.4161 37.0327 25.4161 37.2147V40.2177C25.4161 40.4137 25.3181 40.5117 25.1221 40.5117H24.3661C24.2681 41.5617 23.8691 42.4717 23.1691 43.2417C22.4831 44.0257 21.6361 44.5927 20.6281 44.9427L17.3101 46.0767L16.4071 43.2837L19.7251 42.1497C20.1731 41.9957 20.5511 41.7647 20.8591 41.4567C21.1671 41.1627 21.3211 40.7707 21.3211 40.2807V40.1337C21.1251 40.2457 20.8801 40.3367 20.5861 40.4067C20.3061 40.4767 20.0261 40.5117 19.7461 40.5117H18.9691ZM18.5491 36.9417H21.3631L21.3421 35.0517C21.3421 34.9537 21.3071 34.8697 21.2371 34.7997C21.1671 34.7297 21.0831 34.6877 20.9851 34.6737H19.0111C18.8431 34.6597 18.7241 34.7577 18.6541 34.9677L18.3181 36.6687C18.2901 36.7387 18.3041 36.8017 18.3601 36.8577C18.4161 36.9137 18.4791 36.9417 18.5491 36.9417ZM25.6241 43.0317H28.3541V45.8667H25.6241V43.0317ZM28.3541 43.0317H31.0841V45.8667H28.3541V43.0317ZM29.9501 36.9417C30.1181 36.9417 30.2581 36.8857 30.3701 36.7737C30.4821 36.6477 30.5381 36.5077 30.5381 36.3537V31.5447H33.5621V36.3327C33.5621 36.9067 33.4501 37.4527 33.2261 37.9707C33.0161 38.4747 32.7221 38.9157 32.3441 39.2937C31.9661 39.6717 31.5181 39.9727 31.0001 40.1967C30.4961 40.4067 29.9571 40.5117 29.3831 40.5117H25.1201C25.0361 40.5117 24.9661 40.4837 24.9101 40.4277C24.8541 40.3577 24.8261 40.2877 24.8261 40.2177V37.2777C24.8261 37.1937 24.8541 37.1167 24.9101 37.0467C24.9661 36.9767 25.0361 36.9417 25.1201 36.9417H29.9501ZM40.4838 32.1537V36.4587C40.4838 36.6127 40.5328 36.7317 40.6308 36.8157C40.7428 36.8997 40.8758 36.9417 41.0298 36.9417H41.9538C42.1498 36.9417 42.2478 37.0397 42.2478 37.2357V40.2177C42.2478 40.4137 42.1498 40.5117 41.9538 40.5117H41.5338C41.3658 40.5117 41.1698 40.4697 40.9458 40.3857C40.7358 40.2877 40.5748 40.1827 40.4628 40.0707V40.3857C40.4628 40.9457 40.3648 41.4567 40.1688 41.9187C39.9868 42.3947 39.7278 42.8217 39.3918 43.1997C39.0558 43.5777 38.6568 43.9067 38.1948 44.1867C37.7328 44.4667 37.2358 44.6977 36.7038 44.8797L33.4068 46.0137L32.4827 43.2207L35.9058 42.0447C36.3818 41.8907 36.7528 41.6177 37.0188 41.2257C37.2988 40.8337 37.4388 40.3927 37.4388 39.9027V32.1537H40.4838ZM42.713 27.2607H45.443V30.0957H42.713V27.2607ZM45.443 27.2607H48.173V30.0957H45.443V27.2607ZM44.519 36.9417C44.687 36.9417 44.827 36.8857 44.939 36.7737C45.051 36.6477 45.107 36.5077 45.107 36.3537V31.5447H48.131V36.3327C48.131 36.9067 48.019 37.4527 47.795 37.9707C47.585 38.4747 47.291 38.9157 46.913 39.2937C46.535 39.6717 46.087 39.9727 45.569 40.1967C45.065 40.4067 44.526 40.5117 43.952 40.5117H41.957C41.873 40.5117 41.803 40.4837 41.747 40.4277C41.691 40.3577 41.663 40.2877 41.663 40.2177V37.2777C41.663 37.1937 41.691 37.1167 41.747 37.0467C41.803 36.9767 41.873 36.9417 41.957 36.9417H44.519ZM52.6706 40.5117H49.6466V25.6857H52.6706V40.5117Z" fill="#FFC800"/>
<path d="M59.3796 9.11472C59.2816 9.18472 59.1836 9.28272 59.0856 9.40872C59.0016 9.52072 58.9596 9.68172 58.9596 9.89172V10.7737C58.9596 10.9137 58.9876 11.0607 59.0436 11.2147C59.1136 11.3687 59.2046 11.5157 59.3166 11.6557C59.4426 11.7817 59.5896 11.8937 59.7576 11.9917C59.9256 12.0757 60.1216 12.1177 60.3456 12.1177H61.3116C61.5636 12.1177 61.7806 12.0687 61.9626 11.9707C62.1446 11.8587 62.2846 11.7327 62.3826 11.5927C62.4946 11.4527 62.5716 11.3127 62.6136 11.1727C62.6696 11.0187 62.6976 10.9067 62.6976 10.8367V9.95472C62.6976 9.80072 62.6556 9.64672 62.5716 9.49272C62.5016 9.33872 62.3896 9.21272 62.2356 9.11472C62.1796 9.08672 62.0676 9.01672 61.8996 8.90472C61.7456 8.79272 61.5706 8.68072 61.3746 8.56872C61.1646 8.44272 60.9336 8.29572 60.6816 8.12772L59.3796 9.11472ZM58.6446 3.96972L63.4746 7.18272C64.0626 7.57472 64.4616 8.02972 64.6716 8.54772C64.8956 9.06572 65.0076 9.56972 65.0076 10.0597V10.7737C65.0076 11.2357 64.9236 11.7047 64.7556 12.1807C64.6016 12.6427 64.3566 13.0627 64.0206 13.4407C63.6846 13.8187 63.2646 14.1337 62.7606 14.3857C62.2706 14.6237 61.6896 14.7427 61.0176 14.7427H60.5766C59.9466 14.7427 59.3866 14.6237 58.8966 14.3857C58.4066 14.1337 57.9936 13.8187 57.6576 13.4407C57.3216 13.0487 57.0696 12.6217 56.9016 12.1597C56.7336 11.6837 56.6496 11.2217 56.6496 10.7737V10.1227C56.6496 9.78672 56.6916 9.46472 56.7756 9.15672C56.8736 8.84872 56.9996 8.56872 57.1536 8.31672C57.3076 8.05072 57.4756 7.81972 57.6576 7.62372C57.8536 7.42772 58.0566 7.27372 58.2666 7.16172C58.3786 7.09172 58.4696 7.04272 58.5396 7.01472C58.6096 6.97272 58.6656 6.93772 58.7076 6.90972C58.7496 6.89572 58.7776 6.88172 58.7916 6.86772L57.3846 5.92272L58.6446 3.96972ZM70.0857 14.5117C69.7077 14.5117 69.3507 14.4417 69.0147 14.3017C68.6787 14.1477 68.3847 13.9447 68.1327 13.6927C67.8807 13.4407 67.6777 13.1467 67.5237 12.8107C67.3837 12.4607 67.3137 12.0967 67.3137 11.7187V8.98872H69.2877V11.2987C69.2877 11.4387 69.3367 11.5577 69.4347 11.6557C69.5327 11.7397 69.6447 11.7817 69.7707 11.7817H73.2357C73.4877 11.7817 73.7117 11.7187 73.9077 11.5927C74.1177 11.4667 74.2787 11.3057 74.3907 11.1097C74.5167 10.9137 74.5797 10.7037 74.5797 10.4797C74.5937 10.2417 74.5377 10.0107 74.4117 9.78672L71.8077 5.14572L73.7607 3.86472L76.5537 8.82072C76.9177 9.45072 77.0787 10.1017 77.0367 10.7737C77.0087 11.4457 76.8337 12.0617 76.5117 12.6217C76.1897 13.1677 75.7417 13.6227 75.1677 13.9867C74.5937 14.3367 73.9427 14.5117 73.2147 14.5117H70.0857ZM82.0114 6.99372V10.9207C82.0114 11.1727 82.1164 11.3827 82.3264 11.5507C82.5364 11.7047 82.7674 11.7817 83.0194 11.7817H84.8254C85.0214 11.7817 85.1194 11.8797 85.1194 12.0757V14.2177C85.1194 14.4137 85.0214 14.5117 84.8254 14.5117H83.3974C83.1594 14.5117 82.9074 14.4697 82.6414 14.3857C82.3754 14.3017 82.1654 14.1267 82.0114 13.8607V14.2387C82.0114 14.7707 81.9204 15.2747 81.7384 15.7507C81.5704 16.2407 81.3324 16.6887 81.0244 17.0947C80.7164 17.5007 80.3524 17.8507 79.9324 18.1447C79.5124 18.4527 79.0504 18.6907 78.5464 18.8587L75.6484 19.8457L74.9344 17.6827L77.9584 16.6957C78.4904 16.5277 78.9104 16.2127 79.2184 15.7507C79.5404 15.3027 79.7014 14.8057 79.7014 14.2597V6.99372H82.0114ZM79.5964 2.66772H82.0114V5.08272H79.5964V2.66772ZM85.8054 19.4467H88.1994V17.0317H85.8054V19.4467ZM89.2914 19.4467H91.7064V17.0317H89.2914V19.4467ZM92.9874 14.2177C92.9874 14.2877 92.9594 14.3577 92.9034 14.4277C92.8474 14.4837 92.7774 14.5117 92.6934 14.5117H91.0974C90.6494 14.5117 90.2014 14.3927 89.7534 14.1547C89.3054 13.9027 89.0044 13.6087 88.8504 13.2727C88.7524 13.4407 88.6124 13.6017 88.4304 13.7557C88.2484 13.8957 88.0454 14.0287 87.8214 14.1547C87.6114 14.2667 87.3804 14.3577 87.1284 14.4277C86.8904 14.4837 86.6524 14.5117 86.4144 14.5117H84.8184C84.6224 14.5117 84.5244 14.4137 84.5244 14.2177V12.0967C84.5244 12.0127 84.5524 11.9427 84.6084 11.8867C84.6644 11.8167 84.7344 11.7817 84.8184 11.7817H86.6244C86.9044 11.7817 87.1494 11.6977 87.3594 11.5297C87.5694 11.3617 87.7024 11.1377 87.7584 10.8577L88.5354 7.07772L90.8034 7.47672L90.1734 10.6477C90.1034 10.9417 90.1664 11.2077 90.3624 11.4457C90.5584 11.6697 90.8104 11.7817 91.1184 11.7817H92.6934C92.7774 11.7817 92.8474 11.8167 92.9034 11.8867C92.9594 11.9427 92.9874 12.0127 92.9874 12.0967V14.2177ZM98.3844 14.5117C97.8804 14.5117 97.4044 14.4137 96.9564 14.2177C96.5224 14.0077 96.1444 13.6927 95.8224 13.2727C95.4864 13.6927 95.0944 14.0077 94.6464 14.2177C94.2124 14.4137 93.7434 14.5117 93.2394 14.5117H92.6934C92.4974 14.5117 92.3994 14.4137 92.3994 14.2177V12.0967C92.3994 12.0127 92.4344 11.9427 92.5044 11.8867C92.5604 11.8167 92.6234 11.7817 92.6934 11.7817H93.6594C93.9394 11.7817 94.1774 11.6767 94.3734 11.4667C94.5694 11.2567 94.6674 11.0117 94.6674 10.7317V6.99372H96.9774V10.7527C96.9774 11.0327 97.0754 11.2777 97.2714 11.4877C97.4674 11.6837 97.7054 11.7817 97.9854 11.7817H98.5944C98.8744 11.7817 99.1194 11.6977 99.3294 11.5297C99.5394 11.3617 99.6724 11.1377 99.7284 10.8577L100.505 7.05672L102.773 7.47672L102.143 10.6267C102.073 10.9207 102.136 11.1867 102.332 11.4247C102.542 11.6627 102.794 11.7817 103.088 11.7817H104.642V6.42672H106.952V11.9497C106.952 12.2997 106.882 12.6357 106.742 12.9577C106.616 13.2657 106.434 13.5387 106.196 13.7767C105.972 14.0007 105.699 14.1827 105.377 14.3227C105.069 14.4487 104.74 14.5117 104.39 14.5117H103.088C102.64 14.5117 102.22 14.4137 101.828 14.2177C101.436 14.0217 101.1 13.6997 100.82 13.2517C100.498 13.6997 100.127 14.0217 99.7074 14.2177C99.2874 14.4137 98.8464 14.5117 98.3844 14.5117ZM59.3796 35.1147C59.2816 35.1847 59.1836 35.2827 59.0856 35.4087C59.0016 35.5207 58.9596 35.6817 58.9596 35.8917V36.7737C58.9596 36.9137 58.9876 37.0607 59.0436 37.2147C59.1136 37.3687 59.2046 37.5157 59.3166 37.6557C59.4426 37.7817 59.5896 37.8937 59.7576 37.9917C59.9256 38.0757 60.1216 38.1177 60.3456 38.1177H61.3116C61.5636 38.1177 61.7806 38.0687 61.9626 37.9707C62.1446 37.8587 62.2846 37.7327 62.3826 37.5927C62.4946 37.4527 62.5716 37.3127 62.6136 37.1727C62.6696 37.0187 62.6976 36.9067 62.6976 36.8367V35.9547C62.6976 35.8007 62.6556 35.6467 62.5716 35.4927C62.5016 35.3387 62.3896 35.2127 62.2356 35.1147C62.1796 35.0867 62.0676 35.0167 61.8996 34.9047C61.7456 34.7927 61.5706 34.6807 61.3746 34.5687C61.1646 34.4427 60.9336 34.2957 60.6816 34.1277L59.3796 35.1147ZM58.6446 29.9697L63.4746 33.1827C64.0626 33.5747 64.4616 34.0297 64.6716 34.5477C64.8956 35.0657 65.0076 35.5697 65.0076 36.0597V36.7737C65.0076 37.2357 64.9236 37.7047 64.7556 38.1807C64.6016 38.6427 64.3566 39.0627 64.0206 39.4407C63.6846 39.8187 63.2646 40.1337 62.7606 40.3857C62.2706 40.6237 61.6896 40.7427 61.0176 40.7427H60.5766C59.9466 40.7427 59.3866 40.6237 58.8966 40.3857C58.4066 40.1337 57.9936 39.8187 57.6576 39.4407C57.3216 39.0487 57.0696 38.6217 56.9016 38.1597C56.7336 37.6837 56.6496 37.2217 56.6496 36.7737V36.1227C56.6496 35.7867 56.6916 35.4647 56.7756 35.1567C56.8736 34.8487 56.9996 34.5687 57.1536 34.3167C57.3076 34.0507 57.4756 33.8197 57.6576 33.6237C57.8536 33.4277 58.0566 33.2737 58.2666 33.1617C58.3786 33.0917 58.4696 33.0427 58.5396 33.0147C58.6096 32.9727 58.6656 32.9377 58.7076 32.9097C58.7496 32.8957 58.7776 32.8817 58.7916 32.8677L57.3846 31.9227L58.6446 29.9697ZM70.0857 40.5117C69.7077 40.5117 69.3507 40.4417 69.0147 40.3017C68.6787 40.1477 68.3847 39.9447 68.1327 39.6927C67.8807 39.4407 67.6777 39.1467 67.5237 38.8107C67.3837 38.4607 67.3137 38.0967 67.3137 37.7187V34.9887H69.2877V37.2987C69.2877 37.4387 69.3367 37.5577 69.4347 37.6557C69.5327 37.7397 69.6447 37.7817 69.7707 37.7817H73.2357C73.4877 37.7817 73.7117 37.7187 73.9077 37.5927C74.1177 37.4667 74.2787 37.3057 74.3907 37.1097C74.5167 36.9137 74.5797 36.7037 74.5797 36.4797C74.5937 36.2417 74.5377 36.0107 74.4117 35.7867L71.8077 31.1457L73.7607 29.8647L76.5537 34.8207C76.9177 35.4507 77.0787 36.1017 77.0367 36.7737C77.0087 37.4457 76.8337 38.0617 76.5117 38.6217C76.1897 39.1677 75.7417 39.6227 75.1677 39.9867C74.5937 40.3367 73.9427 40.5117 73.2147 40.5117H70.0857ZM82.0114 32.9937V36.9207C82.0114 37.1727 82.1164 37.3827 82.3264 37.5507C82.5364 37.7047 82.7674 37.7817 83.0194 37.7817H84.8254C85.0214 37.7817 85.1194 37.8797 85.1194 38.0757V40.2177C85.1194 40.4137 85.0214 40.5117 84.8254 40.5117H83.3974C83.1594 40.5117 82.9074 40.4697 82.6414 40.3857C82.3754 40.3017 82.1654 40.1267 82.0114 39.8607V40.2387C82.0114 40.7707 81.9204 41.2747 81.7384 41.7507C81.5704 42.2407 81.3324 42.6887 81.0244 43.0947C80.7164 43.5007 80.3524 43.8507 79.9324 44.1447C79.5124 44.4527 79.0504 44.6907 78.5464 44.8587L75.6484 45.8457L74.9344 43.6827L77.9584 42.6957C78.4904 42.5277 78.9104 42.2127 79.2184 41.7507C79.5404 41.3027 79.7014 40.8057 79.7014 40.2597V32.9937H82.0114ZM79.5964 28.6677H82.0114V31.0827H79.5964V28.6677ZM85.8054 45.4467H88.1994V43.0317H85.8054V45.4467ZM89.2914 45.4467H91.7064V43.0317H89.2914V45.4467ZM92.9874 40.2177C92.9874 40.2877 92.9594 40.3577 92.9034 40.4277C92.8474 40.4837 92.7774 40.5117 92.6934 40.5117H91.0974C90.6494 40.5117 90.2014 40.3927 89.7534 40.1547C89.3054 39.9027 89.0044 39.6087 88.8504 39.2727C88.7524 39.4407 88.6124 39.6017 88.4304 39.7557C88.2484 39.8957 88.0454 40.0287 87.8214 40.1547C87.6114 40.2667 87.3804 40.3577 87.1284 40.4277C86.8904 40.4837 86.6524 40.5117 86.4144 40.5117H84.8184C84.6224 40.5117 84.5244 40.4137 84.5244 40.2177V38.0967C84.5244 38.0127 84.5524 37.9427 84.6084 37.8867C84.6644 37.8167 84.7344 37.7817 84.8184 37.7817H86.6244C86.9044 37.7817 87.1494 37.6977 87.3594 37.5297C87.5694 37.3617 87.7024 37.1377 87.7584 36.8577L88.5354 33.0777L90.8034 33.4767L90.1734 36.6477C90.1034 36.9417 90.1664 37.2077 90.3624 37.4457C90.5584 37.6697 90.8104 37.7817 91.1184 37.7817H92.6934C92.7774 37.7817 92.8474 37.8167 92.9034 37.8867C92.9594 37.9427 92.9874 38.0127 92.9874 38.0967V40.2177ZM98.3844 40.5117C97.8804 40.5117 97.4044 40.4137 96.9564 40.2177C96.5224 40.0077 96.1444 39.6927 95.8224 39.2727C95.4864 39.6927 95.0944 40.0077 94.6464 40.2177C94.2124 40.4137 93.7434 40.5117 93.2394 40.5117H92.6934C92.4974 40.5117 92.3994 40.4137 92.3994 40.2177V38.0967C92.3994 38.0127 92.4344 37.9427 92.5044 37.8867C92.5604 37.8167 92.6234 37.7817 92.6934 37.7817H93.6594C93.9394 37.7817 94.1774 37.6767 94.3734 37.4667C94.5694 37.2567 94.6674 37.0117 94.6674 36.7317V32.9937H96.9774V36.7527C96.9774 37.0327 97.0754 37.2777 97.2714 37.4877C97.4674 37.6837 97.7054 37.7817 97.9854 37.7817H98.5944C98.8744 37.7817 99.1194 37.6977 99.3294 37.5297C99.5394 37.3617 99.6724 37.1377 99.7284 36.8577L100.505 33.0567L102.773 33.4767L102.143 36.6267C102.073 36.9207 102.136 37.1867 102.332 37.4247C102.542 37.6627 102.794 37.7817 103.088 37.7817H104.642V32.4267H106.952V37.9497C106.952 38.2997 106.882 38.6357 106.742 38.9577C106.616 39.2657 106.434 39.5387 106.196 39.7767C105.972 40.0007 105.699 40.1827 105.377 40.3227C105.069 40.4487 104.74 40.5117 104.39 40.5117H103.088C102.64 40.5117 102.22 40.4137 101.828 40.2177C101.436 40.0217 101.1 39.6997 100.82 39.2517C100.498 39.6997 100.127 40.0217 99.7074 40.2177C99.2874 40.4137 98.8464 40.5117 98.3844 40.5117Z" fill="white"/>
</svg>
